<?xml version="1.0" encoding="UTF-8" standalone="no"?><svg xmlns="http://www.w3.org/2000/svg" xmlns:xlink="http://www.w3.org/1999/xlink" contentScriptType="application/ecmascript" contentStyleType="text/css" height="1692px" preserveAspectRatio="none" style="width:568px;height:1692px;" version="1.1" viewBox="0 0 568 1692" width="568px" zoomAndPan="magnify"><defs><linearGradient id="g1q9o01cyyip3p0" x1="0%" x2="100%" y1="50%" y2="50%"><stop offset="0%" stop-color="#FFFFFF"/><stop offset="100%" stop-color="#FFFFFF"/></linearGradient><filter height="300%" id="f1q9o01cyyip3p" width="300%" x="-1" y="-1"><feGaussianBlur result="blurOut" stdDeviation="2.0"/><feColorMatrix in="blurOut" result="blurOut2" type="matrix" values="0 0 0 0 0 0 0 0 0 0 0 0 0 0 0 0 0 0 .4 0"/><feOffset dx="4.0" dy="4.0" in="blurOut2" result="blurOut3"/><feBlend in="SourceGraphic" in2="blurOut3" mode="normal"/></filter><filter height="1" id="b1q9o01cyyip3p0" width="1" x="0" y="0"><feFlood flood-color="#87CEEB" result="flood"/><feComposite in="SourceGraphic" in2="flood" operator="over"/></filter></defs><g><rect fill="url(#g1q9o01cyyip3p0)" height="1692" style="stroke: none; stroke-width: 1.0;" width="568" x="0" y="0"/><text fill="#000000" font-family="sans-serif" font-size="18" font-weight="bold" lengthAdjust="spacingAndGlyphs" textLength="257" x="41.5" y="26.708">Nuspell - Check Spelling -</text><text fill="#000000" font-family="monospace" font-size="18" font-weight="bold" lengthAdjust="spacingAndGlyphs" textLength="220" x="304.5" y="26.708">spell_priv(string s)</text><text fill="#000000" font-family="sans-serif" font-size="18" lengthAdjust="spacingAndGlyphs" textLength="0" x="286" y="47.6611"/><ellipse cx="283.5" cy="61.9063" fill="#000000" filter="url(#f1q9o01cyyip3p)" rx="10" ry="10" style="stroke: none; stroke-width: 1.0;"/><rect fill="#FFFFFF" filter="url(#f1q9o01cyyip3p)" height="33.9688" rx="12.5" ry="12.5" style="stroke: #000000; stroke-width: 1.5;" width="119" x="224" y="140.3086"/><text fill="#000000" font-family="sans-serif" font-size="12" lengthAdjust="spacingAndGlyphs" textLength="39" x="234" y="161.4473">return</text><text fill="#000000" font-family="monospace" font-size="12" lengthAdjust="spacingAndGlyphs" text-decoration="underline" textLength="56" x="277" y="161.4473">BAD_WORD</text><line style="stroke: #000000; stroke-width: 1.0;" x1="277" x2="333" y1="163.4473" y2="163.4473"/><ellipse cx="283.5" cy="211.793" fill="none" filter="url(#f1q9o01cyyip3p)" rx="10" ry="10" style="stroke: #000000; stroke-width: 1.0;"/><ellipse cx="284" cy="212.293" fill="#000000" filter="url(#f1q9o01cyyip3p)" rx="6" ry="6" style="stroke: none; stroke-width: 1.0;"/><polygon fill="#FFFFFF" filter="url(#f1q9o01cyyip3p)" points="147,91.9063,420,91.9063,432,103.9063,420,115.9063,147,115.9063,135,103.9063,147,91.9063" style="stroke: #000000; stroke-width: 1.5;"/><text fill="#000000" font-family="sans-serif" font-size="11" lengthAdjust="spacingAndGlyphs" textLength="20" x="287.5" y="126.1167">yes</text><text fill="#000000" font-family="sans-serif" font-size="11" lengthAdjust="spacingAndGlyphs" textLength="35" x="147" y="107.7144">length</text><text fill="#000000" font-family="monospace" font-size="11" font-weight="bold" lengthAdjust="spacingAndGlyphs" textLength="7" x="186" y="107.7144">s</text><text fill="#000000" font-family="sans-serif" font-size="11" lengthAdjust="spacingAndGlyphs" textLength="122" x="197" y="107.7144">is greater or equal to</text><text fill="#000000" font-family="monospace" font-size="11" lengthAdjust="spacingAndGlyphs" text-decoration="underline" textLength="91" x="323" y="107.7144">WORDMAXLENGTH</text><line style="stroke: #000000; stroke-width: 1.0;" x1="323" x2="414" y1="109.7144" y2="109.7144"/><text fill="#000000" font-family="sans-serif" font-size="11" lengthAdjust="spacingAndGlyphs" textLength="6" x="414" y="107.7144">?</text><text fill="#000000" font-family="sans-serif" font-size="11" lengthAdjust="spacingAndGlyphs" textLength="14" x="432" y="101.312">no</text><rect fill="#87CEEB" filter="url(#f1q9o01cyyip3p)" height="33.9688" rx="12.5" ry="12.5" style="stroke: #000000; stroke-width: 1.5;" width="175" x="196" y="263.793"/><text fill="#000000" font-family="sans-serif" font-size="12" lengthAdjust="spacingAndGlyphs" textLength="36" x="206" y="284.9316">do on</text><text fill="#000000" font-family="monospace" font-size="12" font-weight="bold" lengthAdjust="spacingAndGlyphs" textLength="7" x="246" y="284.9316">s</text><text fill="#000000" font-family="sans-serif" font-size="12" lengthAdjust="spacingAndGlyphs" textLength="104" x="257" y="284.9316">input conversion</text><rect fill="#FFFFFF" filter="url(#f1q9o01cyyip3p)" height="730.6172" style="stroke: #000000; stroke-width: 2.0;" width="547" x="10" y="308.5635"/><path d="M267,309.5635 L267,317.8604 L257,327.8604 L10,327.8604 " fill="none" style="stroke: #000000; stroke-width: 2.0;"/><text fill="#000000" font-family="sans-serif" font-size="14" lengthAdjust="spacingAndGlyphs" textLength="239" x="13" y="322.5586">handle abbreviations and numbers</text><polygon fill="#FFFFFF" filter="url(#f1q9o01cyyip3p)" points="50,369.8604,116,369.8604,128,381.8604,116,393.8604,50,393.8604,38,381.8604,50,369.8604" style="stroke: #000000; stroke-width: 1.5;"/><text fill="#000000" font-family="sans-serif" font-size="11" lengthAdjust="spacingAndGlyphs" textLength="20" x="87" y="404.0708">yes</text><text fill="#000000" font-family="monospace" font-size="11" font-weight="bold" lengthAdjust="spacingAndGlyphs" textLength="7" x="50" y="385.6685">s</text><text fill="#000000" font-family="sans-serif" font-size="11" lengthAdjust="spacingAndGlyphs" textLength="55" x="61" y="385.6685">is empty?</text><rect fill="#FFFFFF" filter="url(#f1q9o01cyyip3p)" height="33.9688" rx="12.5" ry="12.5" style="stroke: #000000; stroke-width: 1.5;" width="126" x="20" y="426.665"/><text fill="#000000" font-family="sans-serif" font-size="12" lengthAdjust="spacingAndGlyphs" textLength="39" x="30" y="447.8037">return</text><text fill="#000000" font-family="monospace" font-size="12" lengthAdjust="spacingAndGlyphs" text-decoration="underline" textLength="63" x="73" y="447.8037">GOOD_WORD</text><line style="stroke: #000000; stroke-width: 1.0;" x1="73" x2="136" y1="449.8037" y2="449.8037"/><ellipse cx="83" cy="505.6338" fill="none" filter="url(#f1q9o01cyyip3p)" rx="10" ry="10" style="stroke: #000000; stroke-width: 1.0;"/><ellipse cx="83.5" cy="506.1338" fill="#000000" filter="url(#f1q9o01cyyip3p)" rx="6" ry="6" style="stroke: none; stroke-width: 1.0;"/><polygon fill="#FFFFFF" filter="url(#f1q9o01cyyip3p)" points="194,369.8604,315,369.8604,327,381.8604,315,393.8604,194,393.8604,182,381.8604,194,369.8604" style="stroke: #000000; stroke-width: 1.5;"/><text fill="#000000" font-family="sans-serif" font-size="11" lengthAdjust="spacingAndGlyphs" textLength="20" x="258.5" y="404.0708">yes</text><text fill="#000000" font-family="sans-serif" font-size="11" lengthAdjust="spacingAndGlyphs" textLength="79" x="194" y="385.6685">last character</text><text fill="#000000" font-family="monospace" font-size="11" font-weight="bold" lengthAdjust="spacingAndGlyphs" textLength="7" x="277" y="385.6685">s</text><text fill="#000000" font-family="sans-serif" font-size="11" lengthAdjust="spacingAndGlyphs" textLength="10" x="288" y="385.6685">is</text><text fill="#000000" font-family="monospace" font-size="11" lengthAdjust="spacingAndGlyphs" text-decoration="underline" textLength="7" x="302" y="385.6685">.</text><line style="stroke: #000000; stroke-width: 1.0;" x1="302" x2="309" y1="387.6685" y2="387.6685"/><text fill="#000000" font-family="sans-serif" font-size="11" lengthAdjust="spacingAndGlyphs" textLength="6" x="309" y="385.6685">?</text><text fill="#000000" font-family="sans-serif" font-size="11" lengthAdjust="spacingAndGlyphs" textLength="14" x="327" y="379.2661">no</text><rect fill="#FFFFFF" filter="url(#f1q9o01cyyip3p)" height="33.9688" rx="12.5" ry="12.5" style="stroke: #000000; stroke-width: 1.5;" width="177" x="166" y="426.665"/><text fill="#000000" font-family="sans-serif" font-size="12" lengthAdjust="spacingAndGlyphs" textLength="20" x="176" y="447.8037">set</text><text fill="#000000" font-family="monospace" font-size="12" font-weight="bold" lengthAdjust="spacingAndGlyphs" textLength="84" x="200" y="447.8037">abbreviation</text><text fill="#000000" font-family="sans-serif" font-size="12" lengthAdjust="spacingAndGlyphs" textLength="13" x="288" y="447.8037">to</text><text fill="#000000" font-family="monospace" font-size="12" lengthAdjust="spacingAndGlyphs" text-decoration="underline" textLength="28" x="305" y="447.8037">TRUE</text><line style="stroke: #000000; stroke-width: 1.0;" x1="305" x2="333" y1="449.8037" y2="449.8037"/><rect fill="#FFFFFF" filter="url(#f1q9o01cyyip3p)" height="33.9688" rx="12.5" ry="12.5" style="stroke: #000000; stroke-width: 1.5;" width="184" x="363" y="450.7627"/><text fill="#000000" font-family="sans-serif" font-size="12" lengthAdjust="spacingAndGlyphs" textLength="20" x="373" y="471.9014">set</text><text fill="#000000" font-family="monospace" font-size="12" font-weight="bold" lengthAdjust="spacingAndGlyphs" textLength="84" x="397" y="471.9014">abbreviation</text><text fill="#000000" font-family="sans-serif" font-size="12" lengthAdjust="spacingAndGlyphs" textLength="13" x="485" y="471.9014">to</text><text fill="#000000" font-family="monospace" font-size="12" lengthAdjust="spacingAndGlyphs" text-decoration="underline" textLength="35" x="502" y="471.9014">FALSE</text><line style="stroke: #000000; stroke-width: 1.0;" x1="502" x2="537" y1="473.9014" y2="473.9014"/><polygon fill="#FFFFFF" filter="url(#f1q9o01cyyip3p)" points="100.5,650.6338,236.5,650.6338,248.5,662.6338,236.5,674.6338,100.5,674.6338,88.5,662.6338,100.5,650.6338" style="stroke: #000000; stroke-width: 1.5;"/><text fill="#000000" font-family="sans-serif" font-size="11" lengthAdjust="spacingAndGlyphs" textLength="20" x="172.5" y="684.8442">yes</text><text fill="#000000" font-family="monospace" font-size="11" font-weight="bold" lengthAdjust="spacingAndGlyphs" textLength="84" x="100.5" y="666.4419">abbreviation</text><text fill="#000000" font-family="sans-serif" font-size="11" lengthAdjust="spacingAndGlyphs" textLength="10" x="188.5" y="666.4419">is</text><text fill="#000000" font-family="monospace" font-size="11" lengthAdjust="spacingAndGlyphs" text-decoration="underline" textLength="28" x="202.5" y="666.4419">TRUE</text><line style="stroke: #000000; stroke-width: 1.0;" x1="202.5" x2="230.5" y1="668.4419" y2="668.4419"/><text fill="#000000" font-family="sans-serif" font-size="11" lengthAdjust="spacingAndGlyphs" textLength="6" x="230.5" y="666.4419">?</text><rect fill="#FFFFFF" filter="url(#f1q9o01cyyip3p)" height="33.9688" rx="12.5" ry="12.5" style="stroke: #000000; stroke-width: 1.5;" width="239" x="49" y="707.4385"/><text fill="#000000" font-family="sans-serif" font-size="12" lengthAdjust="spacingAndGlyphs" textLength="78" x="59" y="728.5771">remove from</text><text fill="#000000" font-family="monospace" font-size="12" font-weight="bold" lengthAdjust="spacingAndGlyphs" textLength="7" x="141" y="728.5771">s</text><text fill="#000000" font-family="sans-serif" font-size="12" lengthAdjust="spacingAndGlyphs" textLength="115" x="152" y="728.5771">trailing characters</text><text fill="#000000" font-family="monospace" font-size="12" lengthAdjust="spacingAndGlyphs" text-decoration="underline" textLength="7" x="271" y="728.5771">.</text><line style="stroke: #000000; stroke-width: 1.0;" x1="271" x2="278" y1="730.5771" y2="730.5771"/><rect fill="#FFFFFF" filter="url(#f1q9o01cyyip3p)" height="33.9688" rx="12.5" ry="12.5" style="stroke: #000000; stroke-width: 1.5;" width="126" x="105.5" y="824.8096"/><text fill="#000000" font-family="sans-serif" font-size="12" lengthAdjust="spacingAndGlyphs" textLength="39" x="115.5" y="845.9482">return</text><text fill="#000000" font-family="monospace" font-size="12" lengthAdjust="spacingAndGlyphs" text-decoration="underline" textLength="63" x="158.5" y="845.9482">GOOD_WORD</text><line style="stroke: #000000; stroke-width: 1.0;" x1="158.5" x2="221.5" y1="847.9482" y2="847.9482"/><ellipse cx="168.5" cy="903.7783" fill="none" filter="url(#f1q9o01cyyip3p)" rx="10" ry="10" style="stroke: #000000; stroke-width: 1.0;"/><ellipse cx="169" cy="904.2783" fill="#000000" filter="url(#f1q9o01cyyip3p)" rx="6" ry="6" style="stroke: none; stroke-width: 1.0;"/><polygon fill="#FFFFFF" filter="url(#f1q9o01cyyip3p)" points="135.5,776.4072,201.5,776.4072,213.5,788.4072,201.5,800.4072,135.5,800.4072,123.5,788.4072,135.5,776.4072" style="stroke: #000000; stroke-width: 1.5;"/><text fill="#000000" font-family="sans-serif" font-size="11" lengthAdjust="spacingAndGlyphs" textLength="20" x="172.5" y="810.6177">yes</text><text fill="#000000" font-family="monospace" font-size="11" font-weight="bold" lengthAdjust="spacingAndGlyphs" textLength="7" x="135.5" y="792.2153">s</text><text fill="#000000" font-family="sans-serif" font-size="11" lengthAdjust="spacingAndGlyphs" textLength="55" x="146.5" y="792.2153">is empty?</text><text fill="#000000" font-family="sans-serif" font-size="11" lengthAdjust="spacingAndGlyphs" textLength="14" x="213.5" y="785.813">no</text><polygon fill="#FFFFFF" filter="url(#f1q9o01cyyip3p)" points="320,650.6338,456,650.6338,468,662.6338,456,674.6338,320,674.6338,308,662.6338,320,650.6338" style="stroke: #000000; stroke-width: 1.5;"/><text fill="#000000" font-family="sans-serif" font-size="11" lengthAdjust="spacingAndGlyphs" textLength="20" x="392" y="684.8442">yes</text><text fill="#000000" filter="url(#b1q9o01cyyip3p0)" font-family="monospace" font-size="11" font-style="italic" lengthAdjust="spacingAndGlyphs" textLength="84" x="320" y="666.4419">is_number(s)</text><text fill="#000000" font-family="sans-serif" font-size="11" lengthAdjust="spacingAndGlyphs" textLength="10" x="408" y="666.4419">is</text><text fill="#000000" font-family="monospace" font-size="11" lengthAdjust="spacingAndGlyphs" text-decoration="underline" textLength="28" x="422" y="666.4419">TRUE</text><line style="stroke: #000000; stroke-width: 1.0;" x1="422" x2="450" y1="668.4419" y2="668.4419"/><text fill="#000000" font-family="sans-serif" font-size="11" lengthAdjust="spacingAndGlyphs" textLength="6" x="450" y="666.4419">?</text><text fill="#000000" font-family="sans-serif" font-size="11" lengthAdjust="spacingAndGlyphs" textLength="14" x="468" y="660.0396">no</text><rect fill="#FFFFFF" filter="url(#f1q9o01cyyip3p)" height="33.9688" rx="12.5" ry="12.5" style="stroke: #000000; stroke-width: 1.5;" width="126" x="325" y="707.4385"/><text fill="#000000" font-family="sans-serif" font-size="12" lengthAdjust="spacingAndGlyphs" textLength="39" x="335" y="728.5771">return</text><text fill="#000000" font-family="monospace" font-size="12" lengthAdjust="spacingAndGlyphs" text-decoration="underline" textLength="63" x="378" y="728.5771">GOOD_WORD</text><line style="stroke: #000000; stroke-width: 1.0;" x1="378" x2="441" y1="730.5771" y2="730.5771"/><ellipse cx="388" cy="786.4072" fill="none" filter="url(#f1q9o01cyyip3p)" rx="10" ry="10" style="stroke: #000000; stroke-width: 1.0;"/><ellipse cx="388.5" cy="786.9072" fill="#000000" filter="url(#f1q9o01cyyip3p)" rx="6" ry="6" style="stroke: none; stroke-width: 1.0;"/><rect fill="#FFFFFF" filter="url(#f1q9o01cyyip3p)" height="591.9141" style="stroke: #000000; stroke-width: 2.0;" width="496" x="35.5" y="1049.9824"/><path d="M205.5,1050.9824 L205.5,1059.2793 L195.5,1069.2793 L35.5,1069.2793 " fill="none" style="stroke: #000000; stroke-width: 2.0;"/><text fill="#000000" font-family="sans-serif" font-size="14" lengthAdjust="spacingAndGlyphs" textLength="152" x="38.5" y="1063.9775">handle break patterns</text><rect fill="#87CEEB" filter="url(#f1q9o01cyyip3p)" height="33.9688" rx="12.5" ry="12.5" style="stroke: #000000; stroke-width: 1.5;" width="233" x="167" y="1086.2793"/><text fill="#000000" font-family="sans-serif" font-size="12" lengthAdjust="spacingAndGlyphs" textLength="78" x="177" y="1107.418">remove from</text><text fill="#000000" font-family="monospace" font-size="12" font-weight="bold" lengthAdjust="spacingAndGlyphs" textLength="7" x="259" y="1107.418">s</text><text fill="#000000" font-family="sans-serif" font-size="12" lengthAdjust="spacingAndGlyphs" textLength="120" x="270" y="1107.418">ignored characters</text><rect fill="#FFFFFF" filter="url(#f1q9o01cyyip3p)" height="33.9688" rx="12.5" ry="12.5" style="stroke: #000000; stroke-width: 1.5;" width="88" x="239.5" y="1155.248"/><text fill="#000000" font-family="sans-serif" font-size="12" lengthAdjust="spacingAndGlyphs" textLength="29" x="249.5" y="1176.3867">copy</text><text fill="#000000" font-family="monospace" font-size="12" font-weight="bold" lengthAdjust="spacingAndGlyphs" textLength="7" x="282.5" y="1176.3867">s</text><text fill="#000000" font-family="sans-serif" font-size="12" lengthAdjust="spacingAndGlyphs" textLength="13" x="293.5" y="1176.3867">to</text><text fill="#000000" font-family="monospace" font-size="12" font-weight="bold" lengthAdjust="spacingAndGlyphs" textLength="7" x="310.5" y="1176.3867">c</text><rect fill="#FFFFFF" filter="url(#f1q9o01cyyip3p)" height="33.9688" rx="12.5" ry="12.5" style="stroke: #000000; stroke-width: 1.5;" width="184" x="191.5" y="1224.2168"/><text fill="#000000" font-family="sans-serif" font-size="12" lengthAdjust="spacingAndGlyphs" textLength="20" x="201.5" y="1245.3555">set</text><text fill="#000000" font-family="monospace" font-size="12" font-weight="bold" lengthAdjust="spacingAndGlyphs" textLength="21" x="225.5" y="1245.3555">ret</text><text fill="#000000" font-family="sans-serif" font-size="12" lengthAdjust="spacingAndGlyphs" textLength="13" x="250.5" y="1245.3555">to</text><text fill="#000000" filter="url(#b1q9o01cyyip3p0)" font-family="monospace" font-size="12" font-style="italic" lengthAdjust="spacingAndGlyphs" textLength="98" x="267.5" y="1245.3555">spell_break(s)</text><polygon fill="#FFFFFF" filter="url(#f1q9o01cyyip3p)" points="57.5,1318.1855,161.5,1318.1855,173.5,1330.1855,161.5,1342.1855,57.5,1342.1855,45.5,1330.1855,57.5,1318.1855" style="stroke: #000000; stroke-width: 1.5;"/><text fill="#000000" font-family="sans-serif" font-size="11" lengthAdjust="spacingAndGlyphs" textLength="20" x="113.5" y="1352.396">yes</text><text fill="#000000" font-family="monospace" font-size="11" font-weight="bold" lengthAdjust="spacingAndGlyphs" textLength="7" x="57.5" y="1333.9937">s</text><text fill="#000000" font-family="sans-serif" font-size="11" lengthAdjust="spacingAndGlyphs" textLength="82" x="68.5" y="1333.9937">is not equal to</text><text fill="#000000" font-family="monospace" font-size="11" font-weight="bold" lengthAdjust="spacingAndGlyphs" textLength="7" x="154.5" y="1333.9937">c</text><rect fill="#FF6347" filter="url(#f1q9o01cyyip3p)" height="33.9688" rx="12.5" ry="12.5" style="stroke: #000000; stroke-width: 1.5;" width="127" x="46" y="1374.9902"/><text fill="#000000" font-family="sans-serif" font-size="12" lengthAdjust="spacingAndGlyphs" textLength="107" x="56" y="1396.1289">abort application</text><ellipse cx="109.5" cy="1453.959" fill="none" filter="url(#f1q9o01cyyip3p)" rx="10" ry="10" style="stroke: #000000; stroke-width: 1.0;"/><ellipse cx="110" cy="1454.459" fill="#000000" filter="url(#f1q9o01cyyip3p)" rx="6" ry="6" style="stroke: none; stroke-width: 1.0;"/><polygon fill="#FFFFFF" filter="url(#f1q9o01cyyip3p)" points="205.5,1318.1855,459.5,1318.1855,471.5,1330.1855,459.5,1342.1855,205.5,1342.1855,193.5,1330.1855,205.5,1318.1855" style="stroke: #000000; stroke-width: 1.5;"/><text fill="#000000" font-family="sans-serif" font-size="11" lengthAdjust="spacingAndGlyphs" textLength="20" x="336.5" y="1352.396">yes</text><text fill="#000000" font-family="monospace" font-size="11" font-weight="bold" lengthAdjust="spacingAndGlyphs" textLength="21" x="205.5" y="1333.9937">ret</text><text fill="#000000" font-family="sans-serif" font-size="11" lengthAdjust="spacingAndGlyphs" textLength="32" x="230.5" y="1333.9937">is not</text><text fill="#000000" font-family="monospace" font-size="11" lengthAdjust="spacingAndGlyphs" text-decoration="underline" textLength="28" x="266.5" y="1333.9937">TRUE</text><line style="stroke: #000000; stroke-width: 1.0;" x1="266.5" x2="294.5" y1="1335.9937" y2="1335.9937"/><text fill="#000000" font-family="sans-serif" font-size="11" lengthAdjust="spacingAndGlyphs" textLength="21" x="298.5" y="1333.9937">and</text><text fill="#000000" font-family="monospace" font-size="11" font-weight="bold" lengthAdjust="spacingAndGlyphs" textLength="84" x="323.5" y="1333.9937">abbreviation</text><text fill="#000000" font-family="sans-serif" font-size="11" lengthAdjust="spacingAndGlyphs" textLength="10" x="411.5" y="1333.9937">is</text><text fill="#000000" font-family="monospace" font-size="11" lengthAdjust="spacingAndGlyphs" text-decoration="underline" textLength="28" x="425.5" y="1333.9937">TRUE</text><line style="stroke: #000000; stroke-width: 1.0;" x1="425.5" x2="453.5" y1="1335.9937" y2="1335.9937"/><text fill="#000000" font-family="sans-serif" font-size="11" lengthAdjust="spacingAndGlyphs" textLength="6" x="453.5" y="1333.9937">?</text><text fill="#000000" font-family="sans-serif" font-size="11" lengthAdjust="spacingAndGlyphs" textLength="14" x="471.5" y="1327.5913">no</text><rect fill="#FFFFFF" filter="url(#f1q9o01cyyip3p)" height="33.9688" rx="12.5" ry="12.5" style="stroke: #000000; stroke-width: 1.5;" width="172" x="246.5" y="1374.9902"/><text fill="#000000" font-family="sans-serif" font-size="12" lengthAdjust="spacingAndGlyphs" textLength="65" x="256.5" y="1396.1289">append to</text><text fill="#000000" font-family="monospace" font-size="12" font-weight="bold" lengthAdjust="spacingAndGlyphs" textLength="7" x="325.5" y="1396.1289">s</text><text fill="#000000" font-family="sans-serif" font-size="12" lengthAdjust="spacingAndGlyphs" textLength="61" x="336.5" y="1396.1289">character</text><text fill="#000000" font-family="monospace" font-size="12" lengthAdjust="spacingAndGlyphs" text-decoration="underline" textLength="7" x="401.5" y="1396.1289">.</text><line style="stroke: #000000; stroke-width: 1.0;" x1="401.5" x2="408.5" y1="1398.1289" y2="1398.1289"/><rect fill="#FFFFFF" filter="url(#f1q9o01cyyip3p)" height="33.9688" rx="12.5" ry="12.5" style="stroke: #000000; stroke-width: 1.5;" width="184" x="240.5" y="1443.959"/><text fill="#000000" font-family="sans-serif" font-size="12" lengthAdjust="spacingAndGlyphs" textLength="20" x="250.5" y="1465.0977">set</text><text fill="#000000" font-family="monospace" font-size="12" font-weight="bold" lengthAdjust="spacingAndGlyphs" textLength="21" x="274.5" y="1465.0977">ret</text><text fill="#000000" font-family="sans-serif" font-size="12" lengthAdjust="spacingAndGlyphs" textLength="13" x="299.5" y="1465.0977">to</text><text fill="#000000" filter="url(#b1q9o01cyyip3p0)" font-family="monospace" font-size="12" font-style="italic" lengthAdjust="spacingAndGlyphs" textLength="98" x="316.5" y="1465.0977">spell_break(s)</text><rect fill="#FFFFFF" filter="url(#f1q9o01cyyip3p)" height="33.9688" rx="12.5" ry="12.5" style="stroke: #000000; stroke-width: 1.5;" width="84" x="241.5" y="1587.9277"/><text fill="#000000" font-family="sans-serif" font-size="12" lengthAdjust="spacingAndGlyphs" textLength="39" x="251.5" y="1609.0664">return</text><text fill="#000000" font-family="monospace" font-size="12" font-weight="bold" lengthAdjust="spacingAndGlyphs" textLength="21" x="294.5" y="1609.0664">ret</text><ellipse cx="283.5" cy="1671.8965" fill="none" filter="url(#f1q9o01cyyip3p)" rx="10" ry="10" style="stroke: #000000; stroke-width: 1.0;"/><ellipse cx="284" cy="1672.3965" fill="#000000" filter="url(#f1q9o01cyyip3p)" rx="6" ry="6" style="stroke: none; stroke-width: 1.0;"/><line style="stroke: #000000; stroke-width: 1.5;" x1="283.5" x2="283.5" y1="174.2773" y2="201.793"/><polygon fill="#000000" points="279.5,191.793,283.5,201.793,287.5,191.793,283.5,195.793" style="stroke: #000000; stroke-width: 1.0;"/><line style="stroke: #000000; stroke-width: 1.5;" x1="283.5" x2="283.5" y1="115.9063" y2="140.3086"/><polygon fill="#000000" points="279.5,130.3086,283.5,140.3086,287.5,130.3086,283.5,134.3086" style="stroke: #000000; stroke-width: 1.0;"/><line style="stroke: #000000; stroke-width: 1.5;" x1="432" x2="444" y1="103.9063" y2="103.9063"/><polygon fill="#000000" points="440,171.793,444,181.793,448,171.793,444,175.793" style="stroke: #000000; stroke-width: 1.5;"/><line style="stroke: #000000; stroke-width: 1.5;" x1="444" x2="444" y1="103.9063" y2="243.793"/><line style="stroke: #000000; stroke-width: 1.5;" x1="444" x2="283.5" y1="243.793" y2="243.793"/><line style="stroke: #000000; stroke-width: 1.5;" x1="283.5" x2="283.5" y1="243.793" y2="263.793"/><polygon fill="#000000" points="279.5,253.793,283.5,263.793,287.5,253.793,283.5,257.793" style="stroke: #000000; stroke-width: 1.0;"/><line style="stroke: #000000; stroke-width: 1.5;" x1="283.5" x2="283.5" y1="71.9063" y2="91.9063"/><polygon fill="#000000" points="279.5,81.9063,283.5,91.9063,287.5,81.9063,283.5,85.9063" style="stroke: #000000; stroke-width: 1.0;"/><line style="stroke: #000000; stroke-width: 1.5;" x1="83" x2="83" y1="460.6338" y2="495.6338"/><polygon fill="#000000" points="79,485.6338,83,495.6338,87,485.6338,83,489.6338" style="stroke: #000000; stroke-width: 1.0;"/><line style="stroke: #000000; stroke-width: 1.5;" x1="83" x2="83" y1="393.8604" y2="426.665"/><polygon fill="#000000" points="79,416.665,83,426.665,87,416.665,83,420.665" style="stroke: #000000; stroke-width: 1.0;"/><line style="stroke: #000000; stroke-width: 1.5;" x1="254.5" x2="254.5" y1="393.8604" y2="426.665"/><polygon fill="#000000" points="250.5,416.665,254.5,426.665,258.5,416.665,254.5,420.665" style="stroke: #000000; stroke-width: 1.0;"/><line style="stroke: #000000; stroke-width: 1.5;" x1="254.5" x2="254.5" y1="460.6338" y2="590.6338"/><polygon fill="#000000" points="250.5,580.6338,254.5,590.6338,258.5,580.6338,254.5,584.6338" style="stroke: #000000; stroke-width: 1.0;"/><line style="stroke: #000000; stroke-width: 1.5;" x1="128" x2="182" y1="381.8604" y2="381.8604"/><polygon fill="#000000" points="172,377.8604,182,381.8604,172,385.8604,176,381.8604" style="stroke: #000000; stroke-width: 1.0;"/><line style="stroke: #000000; stroke-width: 1.5;" x1="283.5" x2="283.5" y1="297.7617" y2="344.8604"/><line style="stroke: #000000; stroke-width: 1.5;" x1="283.5" x2="83" y1="344.8604" y2="344.8604"/><line style="stroke: #000000; stroke-width: 1.5;" x1="83" x2="83" y1="344.8604" y2="369.8604"/><polygon fill="#000000" points="79,359.8604,83,369.8604,87,359.8604,83,363.8604" style="stroke: #000000; stroke-width: 1.0;"/><line style="stroke: #000000; stroke-width: 1.5;" x1="327" x2="455" y1="381.8604" y2="381.8604"/><line style="stroke: #000000; stroke-width: 1.5;" x1="455" x2="455" y1="381.8604" y2="450.7627"/><polygon fill="#000000" points="451,440.7627,455,450.7627,459,440.7627,455,444.7627" style="stroke: #000000; stroke-width: 1.0;"/><line style="stroke: #000000; stroke-width: 1.5;" x1="455" x2="455" y1="484.7314" y2="590.6338"/><polygon fill="#000000" points="451,580.6338,455,590.6338,459,580.6338,455,584.6338" style="stroke: #000000; stroke-width: 1.0;"/><line style="stroke: #000000; stroke-width: 1.5;" x1="254.5" x2="455" y1="590.6338" y2="590.6338"/><line style="stroke: #000000; stroke-width: 1.5;" x1="168.5" x2="168.5" y1="858.7783" y2="893.7783"/><polygon fill="#000000" points="164.5,883.7783,168.5,893.7783,172.5,883.7783,168.5,887.7783" style="stroke: #000000; stroke-width: 1.0;"/><line style="stroke: #000000; stroke-width: 1.5;" x1="168.5" x2="168.5" y1="800.4072" y2="824.8096"/><polygon fill="#000000" points="164.5,814.8096,168.5,824.8096,172.5,814.8096,168.5,818.8096" style="stroke: #000000; stroke-width: 1.0;"/><line style="stroke: #000000; stroke-width: 1.5;" x1="213.5" x2="241.5" y1="788.4072" y2="788.4072"/><polygon fill="#000000" points="237.5,856.2939,241.5,866.2939,245.5,856.2939,241.5,860.2939" style="stroke: #000000; stroke-width: 1.5;"/><line style="stroke: #000000; stroke-width: 1.5;" x1="241.5" x2="241.5" y1="788.4072" y2="944.1807"/><line style="stroke: #000000; stroke-width: 1.5;" x1="241.5" x2="168.5" y1="944.1807" y2="944.1807"/><line style="stroke: #000000; stroke-width: 1.5;" x1="168.5" x2="168.5" y1="944.1807" y2="1019.1807"/><polygon fill="#000000" points="164.5,1009.1807,168.5,1019.1807,172.5,1009.1807,168.5,1013.1807" style="stroke: #000000; stroke-width: 1.0;"/><line style="stroke: #000000; stroke-width: 1.5;" x1="168.5" x2="168.5" y1="741.4072" y2="776.4072"/><polygon fill="#000000" points="164.5,766.4072,168.5,776.4072,172.5,766.4072,168.5,770.4072" style="stroke: #000000; stroke-width: 1.0;"/><line style="stroke: #000000; stroke-width: 1.5;" x1="388" x2="388" y1="741.4072" y2="776.4072"/><polygon fill="#000000" points="384,766.4072,388,776.4072,392,766.4072,388,770.4072" style="stroke: #000000; stroke-width: 1.0;"/><line style="stroke: #000000; stroke-width: 1.5;" x1="168.5" x2="168.5" y1="674.6338" y2="707.4385"/><polygon fill="#000000" points="164.5,697.4385,168.5,707.4385,172.5,697.4385,168.5,701.4385" style="stroke: #000000; stroke-width: 1.0;"/><line style="stroke: #000000; stroke-width: 1.5;" x1="388" x2="388" y1="674.6338" y2="707.4385"/><polygon fill="#000000" points="384,697.4385,388,707.4385,392,697.4385,388,701.4385" style="stroke: #000000; stroke-width: 1.0;"/><line style="stroke: #000000; stroke-width: 1.5;" x1="248.5" x2="308" y1="662.6338" y2="662.6338"/><polygon fill="#000000" points="298,658.6338,308,662.6338,298,666.6338,302,662.6338" style="stroke: #000000; stroke-width: 1.0;"/><line style="stroke: #000000; stroke-width: 1.5;" x1="283.5" x2="283.5" y1="590.6338" y2="625.6338"/><line style="stroke: #000000; stroke-width: 1.5;" x1="283.5" x2="168.5" y1="625.6338" y2="625.6338"/><line style="stroke: #000000; stroke-width: 1.5;" x1="168.5" x2="168.5" y1="625.6338" y2="650.6338"/><polygon fill="#000000" points="164.5,640.6338,168.5,650.6338,172.5,640.6338,168.5,644.6338" style="stroke: #000000; stroke-width: 1.0;"/><line style="stroke: #000000; stroke-width: 1.5;" x1="468" x2="503" y1="662.6338" y2="662.6338"/><line style="stroke: #000000; stroke-width: 1.5;" x1="503" x2="503" y1="662.6338" y2="1019.1807"/><polygon fill="#000000" points="499,1009.1807,503,1019.1807,507,1009.1807,503,1013.1807" style="stroke: #000000; stroke-width: 1.0;"/><line style="stroke: #000000; stroke-width: 1.5;" x1="168.5" x2="503" y1="1019.1807" y2="1019.1807"/><line style="stroke: #000000; stroke-width: 1.5;" x1="283.5" x2="283.5" y1="1120.248" y2="1155.248"/><polygon fill="#000000" points="279.5,1145.248,283.5,1155.248,287.5,1145.248,283.5,1149.248" style="stroke: #000000; stroke-width: 1.0;"/><line style="stroke: #000000; stroke-width: 1.5;" x1="283.5" x2="283.5" y1="1189.2168" y2="1224.2168"/><polygon fill="#000000" points="279.5,1214.2168,283.5,1224.2168,287.5,1214.2168,283.5,1218.2168" style="stroke: #000000; stroke-width: 1.0;"/><line style="stroke: #000000; stroke-width: 1.5;" x1="109.5" x2="109.5" y1="1408.959" y2="1443.959"/><polygon fill="#000000" points="105.5,1433.959,109.5,1443.959,113.5,1433.959,109.5,1437.959" style="stroke: #000000; stroke-width: 1.0;"/><line style="stroke: #000000; stroke-width: 1.5;" x1="332.5" x2="332.5" y1="1408.959" y2="1443.959"/><polygon fill="#000000" points="328.5,1433.959,332.5,1443.959,336.5,1433.959,332.5,1437.959" style="stroke: #000000; stroke-width: 1.0;"/><line style="stroke: #000000; stroke-width: 1.5;" x1="109.5" x2="109.5" y1="1342.1855" y2="1374.9902"/><polygon fill="#000000" points="105.5,1364.9902,109.5,1374.9902,113.5,1364.9902,109.5,1368.9902" style="stroke: #000000; stroke-width: 1.0;"/><line style="stroke: #000000; stroke-width: 1.5;" x1="332.5" x2="332.5" y1="1342.1855" y2="1374.9902"/><polygon fill="#000000" points="328.5,1364.9902,332.5,1374.9902,336.5,1364.9902,332.5,1368.9902" style="stroke: #000000; stroke-width: 1.0;"/><line style="stroke: #000000; stroke-width: 1.5;" x1="332.5" x2="332.5" y1="1477.9277" y2="1552.9277"/><polygon fill="#000000" points="328.5,1542.9277,332.5,1552.9277,336.5,1542.9277,332.5,1546.9277" style="stroke: #000000; stroke-width: 1.0;"/><line style="stroke: #000000; stroke-width: 1.5;" x1="173.5" x2="193.5" y1="1330.1855" y2="1330.1855"/><polygon fill="#000000" points="183.5,1326.1855,193.5,1330.1855,183.5,1334.1855,187.5,1330.1855" style="stroke: #000000; stroke-width: 1.0;"/><line style="stroke: #000000; stroke-width: 1.5;" x1="283.5" x2="283.5" y1="1258.1855" y2="1293.1855"/><line style="stroke: #000000; stroke-width: 1.5;" x1="283.5" x2="109.5" y1="1293.1855" y2="1293.1855"/><line style="stroke: #000000; stroke-width: 1.5;" x1="109.5" x2="109.5" y1="1293.1855" y2="1318.1855"/><polygon fill="#000000" points="105.5,1308.1855,109.5,1318.1855,113.5,1308.1855,109.5,1312.1855" style="stroke: #000000; stroke-width: 1.0;"/><line style="stroke: #000000; stroke-width: 1.5;" x1="471.5" x2="506.5" y1="1330.1855" y2="1330.1855"/><line style="stroke: #000000; stroke-width: 1.5;" x1="506.5" x2="506.5" y1="1330.1855" y2="1552.9277"/><polygon fill="#000000" points="502.5,1542.9277,506.5,1552.9277,510.5,1542.9277,506.5,1546.9277" style="stroke: #000000; stroke-width: 1.0;"/><line style="stroke: #000000; stroke-width: 1.5;" x1="283.5" x2="506.5" y1="1552.9277" y2="1552.9277"/><line style="stroke: #000000; stroke-width: 1.5;" x1="283.5" x2="283.5" y1="1552.9277" y2="1587.9277"/><polygon fill="#000000" points="279.5,1577.9277,283.5,1587.9277,287.5,1577.9277,283.5,1581.9277" style="stroke: #000000; stroke-width: 1.0;"/><line style="stroke: #000000; stroke-width: 1.5;" x1="283.5" x2="283.5" y1="1019.1807" y2="1086.2793"/><polygon fill="#000000" points="279.5,1076.2793,283.5,1086.2793,287.5,1076.2793,283.5,1080.2793" style="stroke: #000000; stroke-width: 1.0;"/><line style="stroke: #000000; stroke-width: 1.5;" x1="283.5" x2="283.5" y1="1621.8965" y2="1661.8965"/><polygon fill="#000000" points="279.5,1651.8965,283.5,1661.8965,287.5,1651.8965,283.5,1655.8965" style="stroke: #000000; stroke-width: 1.0;"/><!--
@startuml
skinparam BackgroundColor White|White
skinparam ArrowColor Black
skinparam ActivityBackgroundColor White
skinparam ActivityDiamondBackgroundColor White
skinparam ActivityBorderColor Black
skinparam ActivityDiamondBorderColor Black

title **Nuspell - Check Spelling - ""spell_priv(string s)""**\n

start

if (length **""s""** is greater or equal to __""WORDMAXLENGTH""__?) then (yes)
    :return __""BAD_WORD""__;
	stop
else (no)
endif

#skyblue:do on **""s""** input conversion;

partition "handle abbreviations and numbers  " {
    if (**""s""** is empty?) then (yes)
        :return __""GOOD_WORD""__;
	    stop
    elseif (last character **""s""** is __"".""__?) then (yes)
        :set **""abbreviation""** to __""TRUE""__;
    else (no)
        :set **""abbreviation""** to __""FALSE""__;
    endif

    if (**""abbreviation""** is __""TRUE""__?) then (yes)
        :remove from **""s""** trailing characters __"".""__;
        if (**""s""** is empty?) then (yes)
            :return __""GOOD_WORD""__;
	        stop
        else (no)
        endif
    elseif (<back:skyblue>//""is_number(s)""//</back> is __""TRUE""__?) then (yes)
        :return __""GOOD_WORD""__;
	    stop
    else (no)
    endif
} 
partition "handle break patterns  " {
    #skyblue:remove from **""s""** ignored characters;
    :copy **""s""** to **""c""**;
    :set **""ret""** to <back:skyblue>//""spell_break(s)""//</back>;
    if (**""s""** is not equal to **""c""**) then(yes)
        #tomato:abort application;
	    stop
    elseif (**""ret""** is not __""TRUE""__ and **""abbreviation""** is __""TRUE""__?) then (yes)
        :append to **""s""** character __"".""__;
        :set **""ret""** to <back:skyblue>//""spell_break(s)""//</back>;
    else (no)
    endif
    :return **""ret""**;
}

stop

@enduml

PlantUML version 1.2017.15(Mon Jul 03 18:45:34 CEST 2017)
(GPL source distribution)
Java Runtime: OpenJDK Runtime Environment
JVM: OpenJDK 64-Bit Server VM
Java Version: 10.0.1+10-Ubuntu-3ubuntu1
Operating System: Linux
OS Version: 4.15.0-24-generic
Default Encoding: UTF-8
Language: en
Country: US
--></g></svg>