<?xml version="1.0" encoding="UTF-8" standalone="no"?><svg xmlns="http://www.w3.org/2000/svg" xmlns:xlink="http://www.w3.org/1999/xlink" contentScriptType="application/ecmascript" contentStyleType="text/css" height="1671px" preserveAspectRatio="none" style="width:568px;height:1671px;" version="1.1" viewBox="0 0 568 1671" width="568px" zoomAndPan="magnify"><defs><linearGradient id="g1fnahz6uoo6mn0" x1="0%" x2="100%" y1="50%" y2="50%"><stop offset="0%" stop-color="#FFFFFF"/><stop offset="100%" stop-color="#FFFFFF"/></linearGradient><filter height="300%" id="f1fnahz6uoo6mn" width="300%" x="-1" y="-1"><feGaussianBlur result="blurOut" stdDeviation="2.0"/><feColorMatrix in="blurOut" result="blurOut2" type="matrix" values="0 0 0 0 0 0 0 0 0 0 0 0 0 0 0 0 0 0 .4 0"/><feOffset dx="4.0" dy="4.0" in="blurOut2" result="blurOut3"/><feBlend in="SourceGraphic" in2="blurOut3" mode="normal"/></filter><filter height="1" id="b1fnahz6uoo6mn0" width="1" x="0" y="0"><feFlood flood-color="#87CEEB" result="flood"/><feComposite in="SourceGraphic" in2="flood" operator="over"/></filter></defs><g><rect fill="url(#g1fnahz6uoo6mn0)" height="1671" style="stroke: none; stroke-width: 1.0;" width="568" x="0" y="0"/><text fill="#000000" font-family="sans-serif" font-size="18" lengthAdjust="spacingAndGlyphs" textLength="227" x="56.5" y="26.708">Nuspell - Check Spelling -</text><text fill="#000000" font-family="monospace" font-size="18" lengthAdjust="spacingAndGlyphs" textLength="220" x="289.5" y="26.708">spell_priv(string s)</text><ellipse cx="283.5" cy="40.9531" fill="#000000" filter="url(#f1fnahz6uoo6mn)" rx="10" ry="10" style="stroke: none; stroke-width: 1.0;"/><rect fill="#FEFECE" filter="url(#f1fnahz6uoo6mn)" height="33.9688" rx="12.5" ry="12.5" style="stroke: #A80036; stroke-width: 1.5;" width="119" x="224" y="119.3555"/><text fill="#000000" font-family="sans-serif" font-size="12" lengthAdjust="spacingAndGlyphs" textLength="39" x="234" y="140.4941">return</text><text fill="#000000" font-family="monospace" font-size="12" lengthAdjust="spacingAndGlyphs" text-decoration="underline" textLength="56" x="277" y="140.4941">BAD_WORD</text><line style="stroke: #000000; stroke-width: 1.0;" x1="277" x2="333" y1="142.4941" y2="142.4941"/><ellipse cx="283.5" cy="190.8398" fill="none" filter="url(#f1fnahz6uoo6mn)" rx="10" ry="10" style="stroke: #000000; stroke-width: 1.0;"/><ellipse cx="284" cy="191.3398" fill="#000000" filter="url(#f1fnahz6uoo6mn)" rx="6" ry="6" style="stroke: none; stroke-width: 1.0;"/><polygon fill="#FEFECE" filter="url(#f1fnahz6uoo6mn)" points="147,70.9531,420,70.9531,432,82.9531,420,94.9531,147,94.9531,135,82.9531,147,70.9531" style="stroke: #A80036; stroke-width: 1.5;"/><text fill="#000000" font-family="sans-serif" font-size="11" lengthAdjust="spacingAndGlyphs" textLength="20" x="287.5" y="105.1636">yes</text><text fill="#000000" font-family="sans-serif" font-size="11" lengthAdjust="spacingAndGlyphs" textLength="35" x="147" y="86.7612">length</text><text fill="#000000" font-family="monospace" font-size="11" font-weight="bold" lengthAdjust="spacingAndGlyphs" textLength="7" x="186" y="86.7612">s</text><text fill="#000000" font-family="sans-serif" font-size="11" lengthAdjust="spacingAndGlyphs" textLength="122" x="197" y="86.7612">is greater or equal to</text><text fill="#000000" font-family="monospace" font-size="11" lengthAdjust="spacingAndGlyphs" text-decoration="underline" textLength="91" x="323" y="86.7612">WORDMAXLENGTH</text><line style="stroke: #000000; stroke-width: 1.0;" x1="323" x2="414" y1="88.7612" y2="88.7612"/><text fill="#000000" font-family="sans-serif" font-size="11" lengthAdjust="spacingAndGlyphs" textLength="6" x="414" y="86.7612">?</text><text fill="#000000" font-family="sans-serif" font-size="11" lengthAdjust="spacingAndGlyphs" textLength="14" x="432" y="80.3589">no</text><rect fill="#87CEEB" filter="url(#f1fnahz6uoo6mn)" height="33.9688" rx="12.5" ry="12.5" style="stroke: #A80036; stroke-width: 1.5;" width="175" x="196" y="242.8398"/><text fill="#000000" font-family="sans-serif" font-size="12" lengthAdjust="spacingAndGlyphs" textLength="36" x="206" y="263.9785">do on</text><text fill="#000000" font-family="monospace" font-size="12" font-weight="bold" lengthAdjust="spacingAndGlyphs" textLength="7" x="246" y="263.9785">s</text><text fill="#000000" font-family="sans-serif" font-size="12" lengthAdjust="spacingAndGlyphs" textLength="104" x="257" y="263.9785">input conversion</text><rect fill="#FFFFFF" filter="url(#f1fnahz6uoo6mn)" height="730.6172" style="stroke: #000000; stroke-width: 2.0;" width="547" x="10" y="287.6104"/><path d="M267,288.6104 L267,296.9072 L257,306.9072 L10,306.9072 " fill="none" style="stroke: #000000; stroke-width: 2.0;"/><text fill="#000000" font-family="sans-serif" font-size="14" lengthAdjust="spacingAndGlyphs" textLength="239" x="13" y="301.6055">handle abbreviations and numbers</text><polygon fill="#FEFECE" filter="url(#f1fnahz6uoo6mn)" points="50,348.9072,116,348.9072,128,360.9072,116,372.9072,50,372.9072,38,360.9072,50,348.9072" style="stroke: #A80036; stroke-width: 1.5;"/><text fill="#000000" font-family="sans-serif" font-size="11" lengthAdjust="spacingAndGlyphs" textLength="20" x="87" y="383.1177">yes</text><text fill="#000000" font-family="monospace" font-size="11" font-weight="bold" lengthAdjust="spacingAndGlyphs" textLength="7" x="50" y="364.7153">s</text><text fill="#000000" font-family="sans-serif" font-size="11" lengthAdjust="spacingAndGlyphs" textLength="55" x="61" y="364.7153">is empty?</text><rect fill="#FEFECE" filter="url(#f1fnahz6uoo6mn)" height="33.9688" rx="12.5" ry="12.5" style="stroke: #A80036; stroke-width: 1.5;" width="126" x="20" y="405.7119"/><text fill="#000000" font-family="sans-serif" font-size="12" lengthAdjust="spacingAndGlyphs" textLength="39" x="30" y="426.8506">return</text><text fill="#000000" font-family="monospace" font-size="12" lengthAdjust="spacingAndGlyphs" text-decoration="underline" textLength="63" x="73" y="426.8506">GOOD_WORD</text><line style="stroke: #000000; stroke-width: 1.0;" x1="73" x2="136" y1="428.8506" y2="428.8506"/><ellipse cx="83" cy="484.6807" fill="none" filter="url(#f1fnahz6uoo6mn)" rx="10" ry="10" style="stroke: #000000; stroke-width: 1.0;"/><ellipse cx="83.5" cy="485.1807" fill="#000000" filter="url(#f1fnahz6uoo6mn)" rx="6" ry="6" style="stroke: none; stroke-width: 1.0;"/><polygon fill="#FEFECE" filter="url(#f1fnahz6uoo6mn)" points="194,348.9072,315,348.9072,327,360.9072,315,372.9072,194,372.9072,182,360.9072,194,348.9072" style="stroke: #A80036; stroke-width: 1.5;"/><text fill="#000000" font-family="sans-serif" font-size="11" lengthAdjust="spacingAndGlyphs" textLength="20" x="258.5" y="383.1177">yes</text><text fill="#000000" font-family="sans-serif" font-size="11" lengthAdjust="spacingAndGlyphs" textLength="79" x="194" y="364.7153">last character</text><text fill="#000000" font-family="monospace" font-size="11" font-weight="bold" lengthAdjust="spacingAndGlyphs" textLength="7" x="277" y="364.7153">s</text><text fill="#000000" font-family="sans-serif" font-size="11" lengthAdjust="spacingAndGlyphs" textLength="10" x="288" y="364.7153">is</text><text fill="#000000" font-family="monospace" font-size="11" lengthAdjust="spacingAndGlyphs" text-decoration="underline" textLength="7" x="302" y="364.7153">.</text><line style="stroke: #000000; stroke-width: 1.0;" x1="302" x2="309" y1="366.7153" y2="366.7153"/><text fill="#000000" font-family="sans-serif" font-size="11" lengthAdjust="spacingAndGlyphs" textLength="6" x="309" y="364.7153">?</text><text fill="#000000" font-family="sans-serif" font-size="11" lengthAdjust="spacingAndGlyphs" textLength="14" x="327" y="358.313">no</text><rect fill="#FEFECE" filter="url(#f1fnahz6uoo6mn)" height="33.9688" rx="12.5" ry="12.5" style="stroke: #A80036; stroke-width: 1.5;" width="177" x="166" y="405.7119"/><text fill="#000000" font-family="sans-serif" font-size="12" lengthAdjust="spacingAndGlyphs" textLength="20" x="176" y="426.8506">set</text><text fill="#000000" font-family="monospace" font-size="12" font-weight="bold" lengthAdjust="spacingAndGlyphs" textLength="84" x="200" y="426.8506">abbreviation</text><text fill="#000000" font-family="sans-serif" font-size="12" lengthAdjust="spacingAndGlyphs" textLength="13" x="288" y="426.8506">to</text><text fill="#000000" font-family="monospace" font-size="12" lengthAdjust="spacingAndGlyphs" text-decoration="underline" textLength="28" x="305" y="426.8506">TRUE</text><line style="stroke: #000000; stroke-width: 1.0;" x1="305" x2="333" y1="428.8506" y2="428.8506"/><rect fill="#FEFECE" filter="url(#f1fnahz6uoo6mn)" height="33.9688" rx="12.5" ry="12.5" style="stroke: #A80036; stroke-width: 1.5;" width="184" x="363" y="429.8096"/><text fill="#000000" font-family="sans-serif" font-size="12" lengthAdjust="spacingAndGlyphs" textLength="20" x="373" y="450.9482">set</text><text fill="#000000" font-family="monospace" font-size="12" font-weight="bold" lengthAdjust="spacingAndGlyphs" textLength="84" x="397" y="450.9482">abbreviation</text><text fill="#000000" font-family="sans-serif" font-size="12" lengthAdjust="spacingAndGlyphs" textLength="13" x="485" y="450.9482">to</text><text fill="#000000" font-family="monospace" font-size="12" lengthAdjust="spacingAndGlyphs" text-decoration="underline" textLength="35" x="502" y="450.9482">FALSE</text><line style="stroke: #000000; stroke-width: 1.0;" x1="502" x2="537" y1="452.9482" y2="452.9482"/><polygon fill="#FEFECE" filter="url(#f1fnahz6uoo6mn)" points="100.5,629.6807,236.5,629.6807,248.5,641.6807,236.5,653.6807,100.5,653.6807,88.5,641.6807,100.5,629.6807" style="stroke: #A80036; stroke-width: 1.5;"/><text fill="#000000" font-family="sans-serif" font-size="11" lengthAdjust="spacingAndGlyphs" textLength="20" x="172.5" y="663.8911">yes</text><text fill="#000000" font-family="monospace" font-size="11" font-weight="bold" lengthAdjust="spacingAndGlyphs" textLength="84" x="100.5" y="645.4888">abbreviation</text><text fill="#000000" font-family="sans-serif" font-size="11" lengthAdjust="spacingAndGlyphs" textLength="10" x="188.5" y="645.4888">is</text><text fill="#000000" font-family="monospace" font-size="11" lengthAdjust="spacingAndGlyphs" text-decoration="underline" textLength="28" x="202.5" y="645.4888">TRUE</text><line style="stroke: #000000; stroke-width: 1.0;" x1="202.5" x2="230.5" y1="647.4888" y2="647.4888"/><text fill="#000000" font-family="sans-serif" font-size="11" lengthAdjust="spacingAndGlyphs" textLength="6" x="230.5" y="645.4888">?</text><rect fill="#FEFECE" filter="url(#f1fnahz6uoo6mn)" height="33.9688" rx="12.5" ry="12.5" style="stroke: #A80036; stroke-width: 1.5;" width="239" x="49" y="686.4854"/><text fill="#000000" font-family="sans-serif" font-size="12" lengthAdjust="spacingAndGlyphs" textLength="78" x="59" y="707.624">remove from</text><text fill="#000000" font-family="monospace" font-size="12" font-weight="bold" lengthAdjust="spacingAndGlyphs" textLength="7" x="141" y="707.624">s</text><text fill="#000000" font-family="sans-serif" font-size="12" lengthAdjust="spacingAndGlyphs" textLength="115" x="152" y="707.624">trailing characters</text><text fill="#000000" font-family="monospace" font-size="12" lengthAdjust="spacingAndGlyphs" text-decoration="underline" textLength="7" x="271" y="707.624">.</text><line style="stroke: #000000; stroke-width: 1.0;" x1="271" x2="278" y1="709.624" y2="709.624"/><rect fill="#FEFECE" filter="url(#f1fnahz6uoo6mn)" height="33.9688" rx="12.5" ry="12.5" style="stroke: #A80036; stroke-width: 1.5;" width="126" x="105.5" y="803.8564"/><text fill="#000000" font-family="sans-serif" font-size="12" lengthAdjust="spacingAndGlyphs" textLength="39" x="115.5" y="824.9951">return</text><text fill="#000000" font-family="monospace" font-size="12" lengthAdjust="spacingAndGlyphs" text-decoration="underline" textLength="63" x="158.5" y="824.9951">GOOD_WORD</text><line style="stroke: #000000; stroke-width: 1.0;" x1="158.5" x2="221.5" y1="826.9951" y2="826.9951"/><ellipse cx="168.5" cy="882.8252" fill="none" filter="url(#f1fnahz6uoo6mn)" rx="10" ry="10" style="stroke: #000000; stroke-width: 1.0;"/><ellipse cx="169" cy="883.3252" fill="#000000" filter="url(#f1fnahz6uoo6mn)" rx="6" ry="6" style="stroke: none; stroke-width: 1.0;"/><polygon fill="#FEFECE" filter="url(#f1fnahz6uoo6mn)" points="135.5,755.4541,201.5,755.4541,213.5,767.4541,201.5,779.4541,135.5,779.4541,123.5,767.4541,135.5,755.4541" style="stroke: #A80036; stroke-width: 1.5;"/><text fill="#000000" font-family="sans-serif" font-size="11" lengthAdjust="spacingAndGlyphs" textLength="20" x="172.5" y="789.6646">yes</text><text fill="#000000" font-family="monospace" font-size="11" font-weight="bold" lengthAdjust="spacingAndGlyphs" textLength="7" x="135.5" y="771.2622">s</text><text fill="#000000" font-family="sans-serif" font-size="11" lengthAdjust="spacingAndGlyphs" textLength="55" x="146.5" y="771.2622">is empty?</text><text fill="#000000" font-family="sans-serif" font-size="11" lengthAdjust="spacingAndGlyphs" textLength="14" x="213.5" y="764.8599">no</text><polygon fill="#FEFECE" filter="url(#f1fnahz6uoo6mn)" points="320,629.6807,456,629.6807,468,641.6807,456,653.6807,320,653.6807,308,641.6807,320,629.6807" style="stroke: #A80036; stroke-width: 1.5;"/><text fill="#000000" font-family="sans-serif" font-size="11" lengthAdjust="spacingAndGlyphs" textLength="20" x="392" y="663.8911">yes</text><text fill="#000000" filter="url(#b1fnahz6uoo6mn0)" font-family="monospace" font-size="11" font-style="italic" lengthAdjust="spacingAndGlyphs" textLength="84" x="320" y="645.4888">is_number(s)</text><text fill="#000000" font-family="sans-serif" font-size="11" lengthAdjust="spacingAndGlyphs" textLength="10" x="408" y="645.4888">is</text><text fill="#000000" font-family="monospace" font-size="11" lengthAdjust="spacingAndGlyphs" text-decoration="underline" textLength="28" x="422" y="645.4888">TRUE</text><line style="stroke: #000000; stroke-width: 1.0;" x1="422" x2="450" y1="647.4888" y2="647.4888"/><text fill="#000000" font-family="sans-serif" font-size="11" lengthAdjust="spacingAndGlyphs" textLength="6" x="450" y="645.4888">?</text><text fill="#000000" font-family="sans-serif" font-size="11" lengthAdjust="spacingAndGlyphs" textLength="14" x="468" y="639.0864">no</text><rect fill="#FEFECE" filter="url(#f1fnahz6uoo6mn)" height="33.9688" rx="12.5" ry="12.5" style="stroke: #A80036; stroke-width: 1.5;" width="126" x="325" y="686.4854"/><text fill="#000000" font-family="sans-serif" font-size="12" lengthAdjust="spacingAndGlyphs" textLength="39" x="335" y="707.624">return</text><text fill="#000000" font-family="monospace" font-size="12" lengthAdjust="spacingAndGlyphs" text-decoration="underline" textLength="63" x="378" y="707.624">GOOD_WORD</text><line style="stroke: #000000; stroke-width: 1.0;" x1="378" x2="441" y1="709.624" y2="709.624"/><ellipse cx="388" cy="765.4541" fill="none" filter="url(#f1fnahz6uoo6mn)" rx="10" ry="10" style="stroke: #000000; stroke-width: 1.0;"/><ellipse cx="388.5" cy="765.9541" fill="#000000" filter="url(#f1fnahz6uoo6mn)" rx="6" ry="6" style="stroke: none; stroke-width: 1.0;"/><rect fill="#FFFFFF" filter="url(#f1fnahz6uoo6mn)" height="591.9141" style="stroke: #000000; stroke-width: 2.0;" width="496" x="35.5" y="1029.0293"/><path d="M205.5,1030.0293 L205.5,1038.3262 L195.5,1048.3262 L35.5,1048.3262 " fill="none" style="stroke: #000000; stroke-width: 2.0;"/><text fill="#000000" font-family="sans-serif" font-size="14" lengthAdjust="spacingAndGlyphs" textLength="152" x="38.5" y="1043.0244">handle break patterns</text><rect fill="#87CEEB" filter="url(#f1fnahz6uoo6mn)" height="33.9688" rx="12.5" ry="12.5" style="stroke: #A80036; stroke-width: 1.5;" width="233" x="167" y="1065.3262"/><text fill="#000000" font-family="sans-serif" font-size="12" lengthAdjust="spacingAndGlyphs" textLength="78" x="177" y="1086.4648">remove from</text><text fill="#000000" font-family="monospace" font-size="12" font-weight="bold" lengthAdjust="spacingAndGlyphs" textLength="7" x="259" y="1086.4648">s</text><text fill="#000000" font-family="sans-serif" font-size="12" lengthAdjust="spacingAndGlyphs" textLength="120" x="270" y="1086.4648">ignored characters</text><rect fill="#FEFECE" filter="url(#f1fnahz6uoo6mn)" height="33.9688" rx="12.5" ry="12.5" style="stroke: #A80036; stroke-width: 1.5;" width="88" x="239.5" y="1134.2949"/><text fill="#000000" font-family="sans-serif" font-size="12" lengthAdjust="spacingAndGlyphs" textLength="29" x="249.5" y="1155.4336">copy</text><text fill="#000000" font-family="monospace" font-size="12" font-weight="bold" lengthAdjust="spacingAndGlyphs" textLength="7" x="282.5" y="1155.4336">s</text><text fill="#000000" font-family="sans-serif" font-size="12" lengthAdjust="spacingAndGlyphs" textLength="13" x="293.5" y="1155.4336">to</text><text fill="#000000" font-family="monospace" font-size="12" font-weight="bold" lengthAdjust="spacingAndGlyphs" textLength="7" x="310.5" y="1155.4336">c</text><rect fill="#FEFECE" filter="url(#f1fnahz6uoo6mn)" height="33.9688" rx="12.5" ry="12.5" style="stroke: #A80036; stroke-width: 1.5;" width="184" x="191.5" y="1203.2637"/><text fill="#000000" font-family="sans-serif" font-size="12" lengthAdjust="spacingAndGlyphs" textLength="20" x="201.5" y="1224.4023">set</text><text fill="#000000" font-family="monospace" font-size="12" font-weight="bold" lengthAdjust="spacingAndGlyphs" textLength="21" x="225.5" y="1224.4023">ret</text><text fill="#000000" font-family="sans-serif" font-size="12" lengthAdjust="spacingAndGlyphs" textLength="13" x="250.5" y="1224.4023">to</text><text fill="#000000" filter="url(#b1fnahz6uoo6mn0)" font-family="monospace" font-size="12" font-style="italic" lengthAdjust="spacingAndGlyphs" textLength="98" x="267.5" y="1224.4023">spell_break(s)</text><polygon fill="#FEFECE" filter="url(#f1fnahz6uoo6mn)" points="57.5,1297.2324,161.5,1297.2324,173.5,1309.2324,161.5,1321.2324,57.5,1321.2324,45.5,1309.2324,57.5,1297.2324" style="stroke: #A80036; stroke-width: 1.5;"/><text fill="#000000" font-family="sans-serif" font-size="11" lengthAdjust="spacingAndGlyphs" textLength="20" x="113.5" y="1331.4429">yes</text><text fill="#000000" font-family="monospace" font-size="11" font-weight="bold" lengthAdjust="spacingAndGlyphs" textLength="7" x="57.5" y="1313.0405">s</text><text fill="#000000" font-family="sans-serif" font-size="11" lengthAdjust="spacingAndGlyphs" textLength="82" x="68.5" y="1313.0405">is not equal to</text><text fill="#000000" font-family="monospace" font-size="11" font-weight="bold" lengthAdjust="spacingAndGlyphs" textLength="7" x="154.5" y="1313.0405">c</text><rect fill="#FF6347" filter="url(#f1fnahz6uoo6mn)" height="33.9688" rx="12.5" ry="12.5" style="stroke: #A80036; stroke-width: 1.5;" width="127" x="46" y="1354.0371"/><text fill="#000000" font-family="sans-serif" font-size="12" lengthAdjust="spacingAndGlyphs" textLength="107" x="56" y="1375.1758">abort application</text><ellipse cx="109.5" cy="1433.0059" fill="none" filter="url(#f1fnahz6uoo6mn)" rx="10" ry="10" style="stroke: #000000; stroke-width: 1.0;"/><ellipse cx="110" cy="1433.5059" fill="#000000" filter="url(#f1fnahz6uoo6mn)" rx="6" ry="6" style="stroke: none; stroke-width: 1.0;"/><polygon fill="#FEFECE" filter="url(#f1fnahz6uoo6mn)" points="205.5,1297.2324,459.5,1297.2324,471.5,1309.2324,459.5,1321.2324,205.5,1321.2324,193.5,1309.2324,205.5,1297.2324" style="stroke: #A80036; stroke-width: 1.5;"/><text fill="#000000" font-family="sans-serif" font-size="11" lengthAdjust="spacingAndGlyphs" textLength="20" x="336.5" y="1331.4429">yes</text><text fill="#000000" font-family="monospace" font-size="11" font-weight="bold" lengthAdjust="spacingAndGlyphs" textLength="21" x="205.5" y="1313.0405">ret</text><text fill="#000000" font-family="sans-serif" font-size="11" lengthAdjust="spacingAndGlyphs" textLength="32" x="230.5" y="1313.0405">is not</text><text fill="#000000" font-family="monospace" font-size="11" lengthAdjust="spacingAndGlyphs" text-decoration="underline" textLength="28" x="266.5" y="1313.0405">TRUE</text><line style="stroke: #000000; stroke-width: 1.0;" x1="266.5" x2="294.5" y1="1315.0405" y2="1315.0405"/><text fill="#000000" font-family="sans-serif" font-size="11" lengthAdjust="spacingAndGlyphs" textLength="21" x="298.5" y="1313.0405">and</text><text fill="#000000" font-family="monospace" font-size="11" font-weight="bold" lengthAdjust="spacingAndGlyphs" textLength="84" x="323.5" y="1313.0405">abbreviation</text><text fill="#000000" font-family="sans-serif" font-size="11" lengthAdjust="spacingAndGlyphs" textLength="10" x="411.5" y="1313.0405">is</text><text fill="#000000" font-family="monospace" font-size="11" lengthAdjust="spacingAndGlyphs" text-decoration="underline" textLength="28" x="425.5" y="1313.0405">TRUE</text><line style="stroke: #000000; stroke-width: 1.0;" x1="425.5" x2="453.5" y1="1315.0405" y2="1315.0405"/><text fill="#000000" font-family="sans-serif" font-size="11" lengthAdjust="spacingAndGlyphs" textLength="6" x="453.5" y="1313.0405">?</text><text fill="#000000" font-family="sans-serif" font-size="11" lengthAdjust="spacingAndGlyphs" textLength="14" x="471.5" y="1306.6382">no</text><rect fill="#FEFECE" filter="url(#f1fnahz6uoo6mn)" height="33.9688" rx="12.5" ry="12.5" style="stroke: #A80036; stroke-width: 1.5;" width="172" x="246.5" y="1354.0371"/><text fill="#000000" font-family="sans-serif" font-size="12" lengthAdjust="spacingAndGlyphs" textLength="65" x="256.5" y="1375.1758">append to</text><text fill="#000000" font-family="monospace" font-size="12" font-weight="bold" lengthAdjust="spacingAndGlyphs" textLength="7" x="325.5" y="1375.1758">s</text><text fill="#000000" font-family="sans-serif" font-size="12" lengthAdjust="spacingAndGlyphs" textLength="61" x="336.5" y="1375.1758">character</text><text fill="#000000" font-family="monospace" font-size="12" lengthAdjust="spacingAndGlyphs" text-decoration="underline" textLength="7" x="401.5" y="1375.1758">.</text><line style="stroke: #000000; stroke-width: 1.0;" x1="401.5" x2="408.5" y1="1377.1758" y2="1377.1758"/><rect fill="#FEFECE" filter="url(#f1fnahz6uoo6mn)" height="33.9688" rx="12.5" ry="12.5" style="stroke: #A80036; stroke-width: 1.5;" width="184" x="240.5" y="1423.0059"/><text fill="#000000" font-family="sans-serif" font-size="12" lengthAdjust="spacingAndGlyphs" textLength="20" x="250.5" y="1444.1445">set</text><text fill="#000000" font-family="monospace" font-size="12" font-weight="bold" lengthAdjust="spacingAndGlyphs" textLength="21" x="274.5" y="1444.1445">ret</text><text fill="#000000" font-family="sans-serif" font-size="12" lengthAdjust="spacingAndGlyphs" textLength="13" x="299.5" y="1444.1445">to</text><text fill="#000000" filter="url(#b1fnahz6uoo6mn0)" font-family="monospace" font-size="12" font-style="italic" lengthAdjust="spacingAndGlyphs" textLength="98" x="316.5" y="1444.1445">spell_break(s)</text><rect fill="#FEFECE" filter="url(#f1fnahz6uoo6mn)" height="33.9688" rx="12.5" ry="12.5" style="stroke: #A80036; stroke-width: 1.5;" width="84" x="241.5" y="1566.9746"/><text fill="#000000" font-family="sans-serif" font-size="12" lengthAdjust="spacingAndGlyphs" textLength="39" x="251.5" y="1588.1133">return</text><text fill="#000000" font-family="monospace" font-size="12" font-weight="bold" lengthAdjust="spacingAndGlyphs" textLength="21" x="294.5" y="1588.1133">ret</text><ellipse cx="283.5" cy="1650.9434" fill="none" filter="url(#f1fnahz6uoo6mn)" rx="10" ry="10" style="stroke: #000000; stroke-width: 1.0;"/><ellipse cx="284" cy="1651.4434" fill="#000000" filter="url(#f1fnahz6uoo6mn)" rx="6" ry="6" style="stroke: none; stroke-width: 1.0;"/><line style="stroke: #A80036; stroke-width: 1.5;" x1="283.5" x2="283.5" y1="153.3242" y2="180.8398"/><polygon fill="#A80036" points="279.5,170.8398,283.5,180.8398,287.5,170.8398,283.5,174.8398" style="stroke: #A80036; stroke-width: 1.0;"/><line style="stroke: #A80036; stroke-width: 1.5;" x1="283.5" x2="283.5" y1="94.9531" y2="119.3555"/><polygon fill="#A80036" points="279.5,109.3555,283.5,119.3555,287.5,109.3555,283.5,113.3555" style="stroke: #A80036; stroke-width: 1.0;"/><line style="stroke: #A80036; stroke-width: 1.5;" x1="432" x2="444" y1="82.9531" y2="82.9531"/><polygon fill="#A80036" points="440,150.8398,444,160.8398,448,150.8398,444,154.8398" style="stroke: #A80036; stroke-width: 1.5;"/><line style="stroke: #A80036; stroke-width: 1.5;" x1="444" x2="444" y1="82.9531" y2="222.8398"/><line style="stroke: #A80036; stroke-width: 1.5;" x1="444" x2="283.5" y1="222.8398" y2="222.8398"/><line style="stroke: #A80036; stroke-width: 1.5;" x1="283.5" x2="283.5" y1="222.8398" y2="242.8398"/><polygon fill="#A80036" points="279.5,232.8398,283.5,242.8398,287.5,232.8398,283.5,236.8398" style="stroke: #A80036; stroke-width: 1.0;"/><line style="stroke: #A80036; stroke-width: 1.5;" x1="283.5" x2="283.5" y1="50.9531" y2="70.9531"/><polygon fill="#A80036" points="279.5,60.9531,283.5,70.9531,287.5,60.9531,283.5,64.9531" style="stroke: #A80036; stroke-width: 1.0;"/><line style="stroke: #A80036; stroke-width: 1.5;" x1="83" x2="83" y1="439.6807" y2="474.6807"/><polygon fill="#A80036" points="79,464.6807,83,474.6807,87,464.6807,83,468.6807" style="stroke: #A80036; stroke-width: 1.0;"/><line style="stroke: #A80036; stroke-width: 1.5;" x1="83" x2="83" y1="372.9072" y2="405.7119"/><polygon fill="#A80036" points="79,395.7119,83,405.7119,87,395.7119,83,399.7119" style="stroke: #A80036; stroke-width: 1.0;"/><line style="stroke: #A80036; stroke-width: 1.5;" x1="254.5" x2="254.5" y1="372.9072" y2="405.7119"/><polygon fill="#A80036" points="250.5,395.7119,254.5,405.7119,258.5,395.7119,254.5,399.7119" style="stroke: #A80036; stroke-width: 1.0;"/><line style="stroke: #A80036; stroke-width: 1.5;" x1="254.5" x2="254.5" y1="439.6807" y2="569.6807"/><polygon fill="#A80036" points="250.5,559.6807,254.5,569.6807,258.5,559.6807,254.5,563.6807" style="stroke: #A80036; stroke-width: 1.0;"/><line style="stroke: #A80036; stroke-width: 1.5;" x1="128" x2="182" y1="360.9072" y2="360.9072"/><polygon fill="#A80036" points="172,356.9072,182,360.9072,172,364.9072,176,360.9072" style="stroke: #A80036; stroke-width: 1.0;"/><line style="stroke: #A80036; stroke-width: 1.5;" x1="283.5" x2="283.5" y1="276.8086" y2="323.9072"/><line style="stroke: #A80036; stroke-width: 1.5;" x1="283.5" x2="83" y1="323.9072" y2="323.9072"/><line style="stroke: #A80036; stroke-width: 1.5;" x1="83" x2="83" y1="323.9072" y2="348.9072"/><polygon fill="#A80036" points="79,338.9072,83,348.9072,87,338.9072,83,342.9072" style="stroke: #A80036; stroke-width: 1.0;"/><line style="stroke: #A80036; stroke-width: 1.5;" x1="327" x2="455" y1="360.9072" y2="360.9072"/><line style="stroke: #A80036; stroke-width: 1.5;" x1="455" x2="455" y1="360.9072" y2="429.8096"/><polygon fill="#A80036" points="451,419.8096,455,429.8096,459,419.8096,455,423.8096" style="stroke: #A80036; stroke-width: 1.0;"/><line style="stroke: #A80036; stroke-width: 1.5;" x1="455" x2="455" y1="463.7783" y2="569.6807"/><polygon fill="#A80036" points="451,559.6807,455,569.6807,459,559.6807,455,563.6807" style="stroke: #A80036; stroke-width: 1.0;"/><line style="stroke: #A80036; stroke-width: 1.5;" x1="254.5" x2="455" y1="569.6807" y2="569.6807"/><line style="stroke: #A80036; stroke-width: 1.5;" x1="168.5" x2="168.5" y1="837.8252" y2="872.8252"/><polygon fill="#A80036" points="164.5,862.8252,168.5,872.8252,172.5,862.8252,168.5,866.8252" style="stroke: #A80036; stroke-width: 1.0;"/><line style="stroke: #A80036; stroke-width: 1.5;" x1="168.5" x2="168.5" y1="779.4541" y2="803.8564"/><polygon fill="#A80036" points="164.5,793.8564,168.5,803.8564,172.5,793.8564,168.5,797.8564" style="stroke: #A80036; stroke-width: 1.0;"/><line style="stroke: #A80036; stroke-width: 1.5;" x1="213.5" x2="241.5" y1="767.4541" y2="767.4541"/><polygon fill="#A80036" points="237.5,835.3408,241.5,845.3408,245.5,835.3408,241.5,839.3408" style="stroke: #A80036; stroke-width: 1.5;"/><line style="stroke: #A80036; stroke-width: 1.5;" x1="241.5" x2="241.5" y1="767.4541" y2="923.2275"/><line style="stroke: #A80036; stroke-width: 1.5;" x1="241.5" x2="168.5" y1="923.2275" y2="923.2275"/><line style="stroke: #A80036; stroke-width: 1.5;" x1="168.5" x2="168.5" y1="923.2275" y2="998.2275"/><polygon fill="#A80036" points="164.5,988.2275,168.5,998.2275,172.5,988.2275,168.5,992.2275" style="stroke: #A80036; stroke-width: 1.0;"/><line style="stroke: #A80036; stroke-width: 1.5;" x1="168.5" x2="168.5" y1="720.4541" y2="755.4541"/><polygon fill="#A80036" points="164.5,745.4541,168.5,755.4541,172.5,745.4541,168.5,749.4541" style="stroke: #A80036; stroke-width: 1.0;"/><line style="stroke: #A80036; stroke-width: 1.5;" x1="388" x2="388" y1="720.4541" y2="755.4541"/><polygon fill="#A80036" points="384,745.4541,388,755.4541,392,745.4541,388,749.4541" style="stroke: #A80036; stroke-width: 1.0;"/><line style="stroke: #A80036; stroke-width: 1.5;" x1="168.5" x2="168.5" y1="653.6807" y2="686.4854"/><polygon fill="#A80036" points="164.5,676.4854,168.5,686.4854,172.5,676.4854,168.5,680.4854" style="stroke: #A80036; stroke-width: 1.0;"/><line style="stroke: #A80036; stroke-width: 1.5;" x1="388" x2="388" y1="653.6807" y2="686.4854"/><polygon fill="#A80036" points="384,676.4854,388,686.4854,392,676.4854,388,680.4854" style="stroke: #A80036; stroke-width: 1.0;"/><line style="stroke: #A80036; stroke-width: 1.5;" x1="248.5" x2="308" y1="641.6807" y2="641.6807"/><polygon fill="#A80036" points="298,637.6807,308,641.6807,298,645.6807,302,641.6807" style="stroke: #A80036; stroke-width: 1.0;"/><line style="stroke: #A80036; stroke-width: 1.5;" x1="283.5" x2="283.5" y1="569.6807" y2="604.6807"/><line style="stroke: #A80036; stroke-width: 1.5;" x1="283.5" x2="168.5" y1="604.6807" y2="604.6807"/><line style="stroke: #A80036; stroke-width: 1.5;" x1="168.5" x2="168.5" y1="604.6807" y2="629.6807"/><polygon fill="#A80036" points="164.5,619.6807,168.5,629.6807,172.5,619.6807,168.5,623.6807" style="stroke: #A80036; stroke-width: 1.0;"/><line style="stroke: #A80036; stroke-width: 1.5;" x1="468" x2="503" y1="641.6807" y2="641.6807"/><line style="stroke: #A80036; stroke-width: 1.5;" x1="503" x2="503" y1="641.6807" y2="998.2275"/><polygon fill="#A80036" points="499,988.2275,503,998.2275,507,988.2275,503,992.2275" style="stroke: #A80036; stroke-width: 1.0;"/><line style="stroke: #A80036; stroke-width: 1.5;" x1="168.5" x2="503" y1="998.2275" y2="998.2275"/><line style="stroke: #A80036; stroke-width: 1.5;" x1="283.5" x2="283.5" y1="1099.2949" y2="1134.2949"/><polygon fill="#A80036" points="279.5,1124.2949,283.5,1134.2949,287.5,1124.2949,283.5,1128.2949" style="stroke: #A80036; stroke-width: 1.0;"/><line style="stroke: #A80036; stroke-width: 1.5;" x1="283.5" x2="283.5" y1="1168.2637" y2="1203.2637"/><polygon fill="#A80036" points="279.5,1193.2637,283.5,1203.2637,287.5,1193.2637,283.5,1197.2637" style="stroke: #A80036; stroke-width: 1.0;"/><line style="stroke: #A80036; stroke-width: 1.5;" x1="109.5" x2="109.5" y1="1388.0059" y2="1423.0059"/><polygon fill="#A80036" points="105.5,1413.0059,109.5,1423.0059,113.5,1413.0059,109.5,1417.0059" style="stroke: #A80036; stroke-width: 1.0;"/><line style="stroke: #A80036; stroke-width: 1.5;" x1="332.5" x2="332.5" y1="1388.0059" y2="1423.0059"/><polygon fill="#A80036" points="328.5,1413.0059,332.5,1423.0059,336.5,1413.0059,332.5,1417.0059" style="stroke: #A80036; stroke-width: 1.0;"/><line style="stroke: #A80036; stroke-width: 1.5;" x1="109.5" x2="109.5" y1="1321.2324" y2="1354.0371"/><polygon fill="#A80036" points="105.5,1344.0371,109.5,1354.0371,113.5,1344.0371,109.5,1348.0371" style="stroke: #A80036; stroke-width: 1.0;"/><line style="stroke: #A80036; stroke-width: 1.5;" x1="332.5" x2="332.5" y1="1321.2324" y2="1354.0371"/><polygon fill="#A80036" points="328.5,1344.0371,332.5,1354.0371,336.5,1344.0371,332.5,1348.0371" style="stroke: #A80036; stroke-width: 1.0;"/><line style="stroke: #A80036; stroke-width: 1.5;" x1="332.5" x2="332.5" y1="1456.9746" y2="1531.9746"/><polygon fill="#A80036" points="328.5,1521.9746,332.5,1531.9746,336.5,1521.9746,332.5,1525.9746" style="stroke: #A80036; stroke-width: 1.0;"/><line style="stroke: #A80036; stroke-width: 1.5;" x1="173.5" x2="193.5" y1="1309.2324" y2="1309.2324"/><polygon fill="#A80036" points="183.5,1305.2324,193.5,1309.2324,183.5,1313.2324,187.5,1309.2324" style="stroke: #A80036; stroke-width: 1.0;"/><line style="stroke: #A80036; stroke-width: 1.5;" x1="283.5" x2="283.5" y1="1237.2324" y2="1272.2324"/><line style="stroke: #A80036; stroke-width: 1.5;" x1="283.5" x2="109.5" y1="1272.2324" y2="1272.2324"/><line style="stroke: #A80036; stroke-width: 1.5;" x1="109.5" x2="109.5" y1="1272.2324" y2="1297.2324"/><polygon fill="#A80036" points="105.5,1287.2324,109.5,1297.2324,113.5,1287.2324,109.5,1291.2324" style="stroke: #A80036; stroke-width: 1.0;"/><line style="stroke: #A80036; stroke-width: 1.5;" x1="471.5" x2="506.5" y1="1309.2324" y2="1309.2324"/><line style="stroke: #A80036; stroke-width: 1.5;" x1="506.5" x2="506.5" y1="1309.2324" y2="1531.9746"/><polygon fill="#A80036" points="502.5,1521.9746,506.5,1531.9746,510.5,1521.9746,506.5,1525.9746" style="stroke: #A80036; stroke-width: 1.0;"/><line style="stroke: #A80036; stroke-width: 1.5;" x1="283.5" x2="506.5" y1="1531.9746" y2="1531.9746"/><line style="stroke: #A80036; stroke-width: 1.5;" x1="283.5" x2="283.5" y1="1531.9746" y2="1566.9746"/><polygon fill="#A80036" points="279.5,1556.9746,283.5,1566.9746,287.5,1556.9746,283.5,1560.9746" style="stroke: #A80036; stroke-width: 1.0;"/><line style="stroke: #A80036; stroke-width: 1.5;" x1="283.5" x2="283.5" y1="998.2275" y2="1065.3262"/><polygon fill="#A80036" points="279.5,1055.3262,283.5,1065.3262,287.5,1055.3262,283.5,1059.3262" style="stroke: #A80036; stroke-width: 1.0;"/><line style="stroke: #A80036; stroke-width: 1.5;" x1="283.5" x2="283.5" y1="1600.9434" y2="1640.9434"/><polygon fill="#A80036" points="279.5,1630.9434,283.5,1640.9434,287.5,1630.9434,283.5,1634.9434" style="stroke: #A80036; stroke-width: 1.0;"/><!--
@startuml
skinparam backgroundcolor White|White

title Nuspell - Check Spelling - ""spell_priv(string s)""

start

if (length **""s""** is greater or equal to __""WORDMAXLENGTH""__?) then (yes)
    :return __""BAD_WORD""__;
	stop
else (no)
endif

#skyblue:do on **""s""** input conversion;

partition "handle abbreviations and numbers  " {
    if (**""s""** is empty?) then (yes)
        :return __""GOOD_WORD""__;
	    stop
    elseif (last character **""s""** is __"".""__?) then (yes)
        :set **""abbreviation""** to __""TRUE""__;
    else (no)
        :set **""abbreviation""** to __""FALSE""__;
    endif

    if (**""abbreviation""** is __""TRUE""__?) then (yes)
        :remove from **""s""** trailing characters __"".""__;
        if (**""s""** is empty?) then (yes)
            :return __""GOOD_WORD""__;
	        stop
        else (no)
        endif
    elseif (<back:skyblue>//""is_number(s)""//</back> is __""TRUE""__?) then (yes)
        :return __""GOOD_WORD""__;
	    stop
    else (no)
    endif
} 
partition "handle break patterns  " {
    #skyblue:remove from **""s""** ignored characters;
    :copy **""s""** to **""c""**;
    :set **""ret""** to <back:skyblue>//""spell_break(s)""//</back>;
    if (**""s""** is not equal to **""c""**) then(yes)
        #tomato:abort application;
	    stop
    elseif (**""ret""** is not __""TRUE""__ and **""abbreviation""** is __""TRUE""__?) then (yes)
        :append to **""s""** character __"".""__;
        :set **""ret""** to <back:skyblue>//""spell_break(s)""//</back>;
    else (no)
    endif
    :return **""ret""**;
}

stop

@enduml

PlantUML version 1.2017.15(Mon Jul 03 18:45:34 CEST 2017)
(GPL source distribution)
Java Runtime: OpenJDK Runtime Environment
JVM: OpenJDK 64-Bit Server VM
Java Version: 10.0.1+10-Ubuntu-3ubuntu1
Operating System: Linux
OS Version: 4.15.0-24-generic
Default Encoding: UTF-8
Language: en
Country: US
--></g></svg>