<?xml version="1.0" encoding="UTF-8" standalone="no"?>
<svg
   xmlns:dc="http://purl.org/dc/elements/1.1/"
   xmlns:cc="http://creativecommons.org/ns#"
   xmlns:rdf="http://www.w3.org/1999/02/22-rdf-syntax-ns#"
   xmlns:svg="http://www.w3.org/2000/svg"
   xmlns="http://www.w3.org/2000/svg"
   xmlns:xlink="http://www.w3.org/1999/xlink"
   xmlns:sodipodi="http://sodipodi.sourceforge.net/DTD/sodipodi-0.dtd"
   xmlns:inkscape="http://www.inkscape.org/namespaces/inkscape"
   width="1.77in"
   height="2.05in"
   viewBox="0 0 44.957995 52.07"
   version="1.1"
   id="svg8"
   inkscape:version="0.92.4 (5da689c313, 2019-01-14)"
   sodipodi:docname="sticker-hexagon-orange-drukbedrijf.svg"
   inkscape:export-filename="/home/sander/workspace/nuspell.github.io/assets/images/sticker-hexagon-443x512.png"
   inkscape:export-xdpi="256"
   inkscape:export-ydpi="256">
  <defs
     id="defs2">
    <linearGradient
       gradientTransform="matrix(-1,0,0,1,127.98764,0)"
       y2="67.103897"
       y1="2.3333001"
       x2="93.700401"
       x1="93.700401"
       gradientUnits="userSpaceOnUse"
       id="SVGID_5_">
      <stop
         style="stop-color:#795548;stop-opacity:1"
         id="stop1237"
         offset="0" />
      <stop
         style="stop-color:#3e2723;stop-opacity:1"
         id="stop1239"
         offset="1" />
    </linearGradient>
    <linearGradient
       id="SVGID_1_-2"
       gradientUnits="userSpaceOnUse"
       x1="19.655199"
       x2="19.655199"
       y1="93"
       y2="126.4398"
       gradientTransform="matrix(-1,0,0,1,127.98764,0)">
      <stop
         offset="0"
         style="stop-color:#E0E0E0"
         id="stop2-9" />
      <stop
         offset="0.9954"
         style="stop-color:#9E9E9E"
         id="stop4-1" />
    </linearGradient>
    <linearGradient
       id="SVGID_2_"
       gradientUnits="userSpaceOnUse"
       x1="91.674698"
       x2="91.674698"
       y1="-7.6666999"
       y2="35.475498"
       gradientTransform="matrix(-1,0,0,1,127.98764,0)"
       spreadMethod="pad">
      <stop
         offset="0"
         id="stop11"
         style="stop-color:#fb8c00;stop-opacity:1" />
      <stop
         offset="0.97649997"
         id="stop13"
         style="stop-color:#ef6c00;stop-opacity:1" />
      <stop
         offset="1"
         id="stop15"
         style="stop-color:#ff6d00;stop-opacity:1" />
    </linearGradient>
    <linearGradient
       id="SVGID_6_"
       gradientUnits="userSpaceOnUse"
       x1="113.3457"
       x2="113.3457"
       y1="2.5"
       y2="25.2547"
       gradientTransform="matrix(-1,0,0,1,127.98764,0)">
      <stop
         offset="0"
         id="stop53"
         style="stop-color:#ff9800;stop-opacity:1" />
      <stop
         offset="1"
         id="stop55"
         style="stop-color:#f57c00;stop-opacity:1" />
    </linearGradient>
    <linearGradient
       id="SVGID_3_"
       gradientUnits="userSpaceOnUse"
       x1="27.013201"
       x2="27.013201"
       y1="89.666702"
       y2="108.6667"
       gradientTransform="matrix(-1,0,0,1,127.98764,0)">
      <stop
         offset="0"
         id="stop28"
         style="stop-color:#ff9800;stop-opacity:1" />
      <stop
         offset="1"
         id="stop30"
         style="stop-color:#f57c00;stop-opacity:1" />
    </linearGradient>
    <linearGradient
       id="SVGID_4_"
       gradientUnits="userSpaceOnUse"
       x1="51.882999"
       x2="51.882999"
       y1="40"
       y2="108.6588"
       gradientTransform="matrix(-1,0,0,1,127.98764,0)">
      <stop
         offset="0"
         id="stop35"
         style="stop-color:#4e342e;stop-opacity:1" />
      <stop
         offset="1"
         id="stop37"
         style="stop-color:#3e2723;stop-opacity:1" />
    </linearGradient>
    <linearGradient
       id="SVGID_5_-3"
       gradientUnits="userSpaceOnUse"
       x1="93.700401"
       x2="93.700401"
       y1="2.3333001"
       y2="67.103897"
       gradientTransform="matrix(-1,0,0,1,127.98764,0)">
      <stop
         offset="0"
         id="stop46"
         style="stop-color:#5d4037;stop-opacity:1" />
      <stop
         offset="1"
         id="stop48"
         style="stop-color:#3e2723;stop-opacity:1" />
    </linearGradient>
    <linearGradient
       inkscape:collect="always"
       xlink:href="#SVGID_6_"
       id="linearGradient889"
       gradientUnits="userSpaceOnUse"
       gradientTransform="matrix(-1,0,0,1,127.98764,0)"
       x1="113.3457"
       y1="2.5"
       x2="113.3457"
       y2="25.2547" />
    <clipPath
       id="SVGID_8_">
      <use
         id="use67"
         xlink:href="#SVGID_7_"
         style="overflow:visible"
         x="0"
         y="0"
         width="100%"
         height="100%" />
    </clipPath>
    <path
       d="m 123.73,15.91 -0.14,-0.14 c 1.22,-2.54 -0.41,-5.49 -3.15,-8.22 -2.74,-2.73 -5.68,-4.37 -8.22,-3.15 l -0.14,-0.14 c 0,0 -23.31,16.29 -48.16,42.3 -0.72,0.75 -0.7,1.94 0.03,2.68 l 7.41,7.41 7.41,7.41 c 0.73,0.73 1.93,0.75 2.68,0.03 26,-24.86 42.28,-48.18 42.28,-48.18 z"
       id="SVGID_7_"
       inkscape:connector-curvature="0" />
    <linearGradient
       inkscape:collect="always"
       xlink:href="#SVGID_5_-3"
       id="linearGradient1235"
       gradientUnits="userSpaceOnUse"
       gradientTransform="matrix(-1,0,0,1,127.98764,0)"
       x1="93.700401"
       y1="2.3333001"
       x2="93.700401"
       y2="67.103897" />
  </defs>
  <sodipodi:namedview
     id="base"
     pagecolor="#ffffff"
     bordercolor="#666666"
     borderopacity="1.0"
     inkscape:pageopacity="0"
     inkscape:pageshadow="2"
     inkscape:zoom="4.4563009"
     inkscape:cx="84.959999"
     inkscape:cy="98.399998"
     inkscape:document-units="mm"
     inkscape:current-layer="layer1"
     showgrid="false"
     units="in"
     showguides="true"
     inkscape:guide-bbox="true"
     inkscape:window-width="1920"
     inkscape:window-height="1024"
     inkscape:window-x="0"
     inkscape:window-y="0"
     inkscape:window-maximized="1"
     borderlayer="true"
     inkscape:showpageshadow="false" />
  <metadata
     id="metadata5">
    <rdf:RDF>
      <cc:Work
         rdf:about="">
        <dc:format>image/svg+xml</dc:format>
        <dc:type
           rdf:resource="http://purl.org/dc/dcmitype/StillImage" />
        <dc:title />
        <dc:creator>
          <cc:Agent>
            <dc:title>Sander van Geloven</dc:title>
          </cc:Agent>
        </dc:creator>
        <dc:publisher>
          <cc:Agent>
            <dc:title>Nuspell</dc:title>
          </cc:Agent>
        </dc:publisher>
      </cc:Work>
    </rdf:RDF>
  </metadata>
  <g
     inkscape:label="Layer 1"
     inkscape:groupmode="layer"
     id="layer1"
     transform="translate(0,-244.92998)">
    <path
       style="opacity:1;fill:#e65100;fill-opacity:1;stroke:none;stroke-width:0;stroke-miterlimit:4;stroke-dasharray:none;stroke-dashoffset:0;stroke-opacity:1"
       d="M -7.5210005,235.96498 H 52.479 v 70 H -7.5210005 Z"
       id="rect882"
       inkscape:connector-curvature="0" />
    <path
       style="fill:#6d4c41;fill-opacity:1;stroke:none;stroke-width:9;stroke-miterlimit:4;stroke-dasharray:none;stroke-dashoffset:0;stroke-opacity:1"
       d="m 2.7050992,259.52144 v 22.88708 l 19.7738998,11.41646 19.7739,-11.41646 v -22.88708 l -19.7739,-11.41646 z"
       id="rect1193-5-5"
       inkscape:connector-curvature="0"
       sodipodi:nodetypes="ccccccc" />
    <g
       aria-label="spell checker"
       transform="rotate(30)"
       style="font-style:normal;font-weight:normal;font-size:4.23333311px;line-height:1.25;font-family:sans-serif;letter-spacing:0px;word-spacing:0px;fill:#ff9800;fill-opacity:1;stroke:none;stroke-width:0.26458332"
       id="text1157">
      <path
         d="m 144.9316,240.70199 q 0,-0.0868 -0.0889,-0.15296 -0.0889,-0.0661 -0.29766,-0.1571 -0.30592,-0.11989 -0.47128,-0.27285 -0.1633,-0.15296 -0.1633,-0.42168 0,-0.27905 0.20464,-0.47542 0.20464,-0.19844 0.56844,-0.19844 0.3762,0 0.59324,0.1943 0.21704,0.19224 0.21704,0.50643 h -0.58497 q 0,-0.27492 -0.22738,-0.27492 -0.21084,0 -0.21084,0.21911 0,0.0868 0.0806,0.14676 0.0827,0.0599 0.29765,0.14883 0.33486,0.12609 0.49196,0.28112 0.15916,0.15503 0.15916,0.43202 0,0.29765 -0.22117,0.48162 -0.22118,0.18397 -0.59531,0.18397 -0.40515,0 -0.62012,-0.22944 -0.21291,-0.23152 -0.21291,-0.50437 h 0.55397 q 0.004,0.1819 0.0847,0.24392 0.0806,0.062 0.20671,0.062 0.23564,0 0.23564,-0.21291 z"
         style="font-style:normal;font-variant:normal;font-weight:bold;font-stretch:normal;font-size:4.23333311px;font-family:'Roboto Condensed';-inkscape-font-specification:'Roboto Condensed, ';fill:#ff9800;fill-opacity:1;stroke-width:0.26458332"
         id="path869" />
      <path
         d="m 146.89324,241.34278 q -0.27078,0 -0.44028,-0.22324 v 1.04179 h -0.58291 v -3.09645 h 0.5395 l 0.0207,0.20464 q 0.17157,-0.24598 0.45889,-0.24598 0.3576,0 0.53743,0.26458 0.1819,0.26459 0.18604,0.79582 v 0.1695 q 0,0.52503 -0.1819,0.80822 -0.17984,0.28112 -0.53744,0.28112 z m -0.17777,-1.83141 q -0.1819,0 -0.26251,0.15503 v 1.04179 q 0.0806,0.14883 0.26665,0.14883 0.17363,0 0.23978,-0.14676 0.0682,-0.14676 0.0682,-0.45682 v -0.14676 q 0,-0.31833 -0.0703,-0.45682 -0.0703,-0.13849 -0.24185,-0.13849 z"
         style="font-style:normal;font-variant:normal;font-weight:bold;font-stretch:normal;font-size:4.23333311px;font-family:'Roboto Condensed';-inkscape-font-specification:'Roboto Condensed, ';fill:#ff9800;fill-opacity:1;stroke-width:0.26458332"
         id="path871" />
      <path
         d="m 149.63003,241.00792 q -0.0889,0.11988 -0.28112,0.22737 -0.19017,0.10749 -0.47749,0.10749 -0.45682,0 -0.70694,-0.27285 -0.24805,-0.27285 -0.24805,-0.75861 v -0.18397 q 0,-0.54364 0.23565,-0.82269 0.23771,-0.28112 0.65939,-0.28112 0.42168,0 0.63459,0.26665 0.2129,0.26665 0.21704,0.79995 v 0.28732 h -1.15962 q 0.0103,0.26665 0.11369,0.37414 0.10542,0.10542 0.29352,0.10542 0.29559,0 0.48782,-0.20257 z m -0.82063,-1.49862 q -0.15296,0 -0.22324,0.10955 -0.0682,0.10749 -0.0806,0.34934 h 0.58497 v -0.0517 q -0.004,-0.20257 -0.0661,-0.30386 -0.062,-0.10335 -0.21498,-0.10335 z"
         style="font-style:normal;font-variant:normal;font-weight:bold;font-stretch:normal;font-size:4.23333311px;font-family:'Roboto Condensed';-inkscape-font-specification:'Roboto Condensed, ';fill:#ff9800;fill-opacity:1;stroke-width:0.26458332"
         id="path873" />
      <path
         d="m 150.60774,238.12644 v 3.175 h -0.58704 v -3.175 z"
         style="font-style:normal;font-variant:normal;font-weight:bold;font-stretch:normal;font-size:4.23333311px;font-family:'Roboto Condensed';-inkscape-font-specification:'Roboto Condensed, ';fill:#ff9800;fill-opacity:1;stroke-width:0.26458332"
         id="path875" />
      <path
         d="m 151.67434,238.12644 v 3.175 h -0.58704 v -3.175 z"
         style="font-style:normal;font-variant:normal;font-weight:bold;font-stretch:normal;font-size:4.23333311px;font-family:'Roboto Condensed';-inkscape-font-specification:'Roboto Condensed, ';fill:#ff9800;fill-opacity:1;stroke-width:0.26458332"
         id="path877" />
      <path
         d="m 153.91297,240.85702 q 0.25631,0 0.25631,-0.33073 h 0.54984 q -0.002,0.38241 -0.23151,0.59945 -0.22738,0.21704 -0.56431,0.21704 -0.44648,0 -0.66559,-0.27699 -0.21911,-0.27905 -0.22324,-0.78341 v -0.17984 q 0,-0.51263 0.21911,-0.79581 0.2191,-0.28319 0.66766,-0.28319 0.35966,0 0.5767,0.22324 0.21911,0.22324 0.22118,0.65319 h -0.54984 q 0,-0.39067 -0.26045,-0.39067 -0.19223,0 -0.24184,0.15296 -0.0475,0.15296 -0.0475,0.44028 v 0.16123 q 0,0.29559 0.0475,0.44442 0.0475,0.14883 0.24598,0.14883 z"
         style="font-style:normal;font-variant:normal;font-weight:bold;font-stretch:normal;font-size:4.23333311px;font-family:'Roboto Condensed';-inkscape-font-specification:'Roboto Condensed, ';fill:#ff9800;fill-opacity:1;stroke-width:0.26458332"
         id="path879" />
      <path
         d="m 155.8746,239.51137 q -0.16536,0 -0.25011,0.15089 v 1.63918 h -0.58498 v -3.175 h 0.58498 v 1.13481 q 0.19017,-0.23771 0.46922,-0.23771 0.27699,0 0.45062,0.19637 0.17363,0.19637 0.17363,0.67179 v 1.40974 h -0.58497 v -1.41387 q 0,-0.21497 -0.0661,-0.29559 -0.0641,-0.0806 -0.19224,-0.0806 z"
         style="font-style:normal;font-variant:normal;font-weight:bold;font-stretch:normal;font-size:4.23333311px;font-family:'Roboto Condensed';-inkscape-font-specification:'Roboto Condensed, ';fill:#ff9800;fill-opacity:1;stroke-width:0.26458332"
         id="path881" />
      <path
         d="m 158.79949,241.00792 q -0.0889,0.11988 -0.28112,0.22737 -0.19017,0.10749 -0.47749,0.10749 -0.45682,0 -0.70693,-0.27285 -0.24805,-0.27285 -0.24805,-0.75861 v -0.18397 q 0,-0.54364 0.23564,-0.82269 0.23772,-0.28112 0.6594,-0.28112 0.42168,0 0.63458,0.26665 0.21291,0.26665 0.21704,0.79995 v 0.28732 h -1.15962 q 0.0103,0.26665 0.11369,0.37414 0.10542,0.10542 0.29352,0.10542 0.29559,0 0.48783,-0.20257 z m -0.82062,-1.49862 q -0.15296,0 -0.22324,0.10955 -0.0682,0.10749 -0.0806,0.34934 h 0.58498 v -0.0517 q -0.004,-0.20257 -0.0661,-0.30386 -0.062,-0.10335 -0.21497,-0.10335 z"
         style="font-style:normal;font-variant:normal;font-weight:bold;font-stretch:normal;font-size:4.23333311px;font-family:'Roboto Condensed';-inkscape-font-specification:'Roboto Condensed, ';fill:#ff9800;fill-opacity:1;stroke-width:0.26458332"
         id="path883" />
      <path
         d="m 159.97358,240.85702 q 0.25631,0 0.25631,-0.33073 h 0.54984 q -0.002,0.38241 -0.23151,0.59945 -0.22738,0.21704 -0.56431,0.21704 -0.44648,0 -0.66559,-0.27699 -0.21911,-0.27905 -0.22324,-0.78341 v -0.17984 q 0,-0.51263 0.21911,-0.79581 0.21911,-0.28319 0.66766,-0.28319 0.35967,0 0.57671,0.22324 0.2191,0.22324 0.22117,0.65319 h -0.54984 q 0,-0.39067 -0.26044,-0.39067 -0.19224,0 -0.24185,0.15296 -0.0475,0.15296 -0.0475,0.44028 v 0.16123 q 0,0.29559 0.0475,0.44442 0.0475,0.14883 0.24598,0.14883 z"
         style="font-style:normal;font-variant:normal;font-weight:bold;font-stretch:normal;font-size:4.23333311px;font-family:'Roboto Condensed';-inkscape-font-specification:'Roboto Condensed, ';fill:#ff9800;fill-opacity:1;stroke-width:0.26458332"
         id="path885" />
      <path
         d="m 162.26595,241.30144 -0.40721,-0.8661 -0.15917,0.17777 v 0.68833 h -0.58498 v -3.17707 h 0.58498 v 1.71566 l 0.0724,-0.10542 0.40721,-0.66973 h 0.6966 l -0.64906,0.91984 0.709,1.31672 z"
         style="font-style:normal;font-variant:normal;font-weight:bold;font-stretch:normal;font-size:4.23333311px;font-family:'Roboto Condensed';-inkscape-font-specification:'Roboto Condensed, ';fill:#ff9800;fill-opacity:1;stroke-width:0.26458332"
         id="path887" />
      <path
         d="m 164.76088,241.00792 q -0.0889,0.11988 -0.28112,0.22737 -0.19017,0.10749 -0.47749,0.10749 -0.45682,0 -0.70693,-0.27285 -0.24805,-0.27285 -0.24805,-0.75861 v -0.18397 q 0,-0.54364 0.23565,-0.82269 0.23771,-0.28112 0.65939,-0.28112 0.42168,0 0.63459,0.26665 0.2129,0.26665 0.21704,0.79995 v 0.28732 h -1.15962 q 0.0103,0.26665 0.11369,0.37414 0.10542,0.10542 0.29352,0.10542 0.29559,0 0.48782,-0.20257 z m -0.82062,-1.49862 q -0.15296,0 -0.22324,0.10955 -0.0682,0.10749 -0.0806,0.34934 h 0.58498 v -0.0517 q -0.004,-0.20257 -0.0661,-0.30386 -0.062,-0.10335 -0.21498,-0.10335 z"
         style="font-style:normal;font-variant:normal;font-weight:bold;font-stretch:normal;font-size:4.23333311px;font-family:'Roboto Condensed';-inkscape-font-specification:'Roboto Condensed, ';fill:#ff9800;fill-opacity:1;stroke-width:0.26458332"
         id="path889" />
      <path
         d="m 166.03626,239.61265 q -0.24391,0 -0.3266,0.20877 v 1.48002 h -0.58497 v -2.23656 h 0.5519 l 0.0165,0.24185 q 0.14056,-0.28319 0.3824,-0.28319 0.0951,0 0.15917,0.0248 l -0.006,0.58084 q -0.10335,-0.0165 -0.19223,-0.0165 z"
         style="font-style:normal;font-variant:normal;font-weight:bold;font-stretch:normal;font-size:4.23333311px;font-family:'Roboto Condensed';-inkscape-font-specification:'Roboto Condensed, ';fill:#ff9800;fill-opacity:1;stroke-width:0.26458332"
         id="path891" />
    </g>
    <g
       id="g883"
       transform="matrix(0.22483796,-1.401048e-8,1.401048e-8,0.22483796,12.384819,253.60089)">
      <path
         id="path7"
         style="fill:url(#SVGID_1_-2)"
         d="m 115.91764,103.24 c -4.21,0.21 -14.97,-10.56 -14.97,-10.56 l -8.27,8.27 c 0,0 10.76,10.77 10.56,14.98 -0.03,0.52 0.34,0.99 0.85,1.1 2.68,0.6 10.44,2.59 17.71,6.78 0.39,0.22 0.84,0.25 1.24,0.1 0.19,-0.07 0.37,-0.18 0.52,-0.33 0.17,-0.17 0.27,-0.35 0.35,-0.54 0.15,-0.4 0.12,-0.85 -0.1,-1.24 -4.18,-7.27 -6.17,-15.03 -6.77,-17.72 -0.13,-0.51 -0.59,-0.87 -1.12,-0.84 z"
         inkscape:connector-curvature="0" />
      <path
         id="path9"
         style="fill:#757575"
         d="m 112.50764,113.38 10.52,10.53 c 0.19,-0.07 0.37,-0.18 0.52,-0.33 0.17,-0.17 0.27,-0.35 0.35,-0.54 l -10.52,-10.52 c 0.44,-0.82 0.32,-1.86 -0.37,-2.55 -0.84,-0.84 -2.21,-0.84 -3.05,0 -0.84,0.84 -0.84,2.21 0,3.05 0.69,0.68 1.74,0.81 2.55,0.36 z"
         inkscape:connector-curvature="0" />
      <path
         id="path18"
         style="fill:url(#SVGID_2_);fill-opacity:1"
         d="m 20.65764,5.33 c 1.61,-1.61 4.21,-1.61 5.82,0 l 21.98,18.75 c 1.69,1.43 3.32,2.94 4.89,4.5 l 3.27,3.27 c 0.11,0.11 0.11,0.28 0,0.39 v 0 c -1.1,1.1 -2.88,1.1 -3.97,0 l -2.04,-2.04 c -0.36,-0.36 -0.58,-0.8 -0.68,-1.26 -0.15,-0.71 -0.55,-1.34 -1.1,-1.8 l -21.62,-18.18 c -0.8,-0.8 -2.83,-1.53 -3.64,-0.73 l -4.73,4.73 -2.91,-2.91 z"
         inkscape:connector-curvature="0" />
      <g
         transform="matrix(-1,0,0,1,127.98764,0)"
         id="g22"
         style="opacity:0.2">
        <path
           id="path20"
           style="fill:#424242"
           d="m 27.01,96.88 4.09,4.1 c -3.43,3.66 -8.18,9.29 -9.17,13.43 -2.86,0.71 -7.73,2.13 -12.89,4.54 2.41,-5.15 3.82,-10.02 4.54,-12.89 4.12,-0.97 9.77,-5.74 13.43,-9.18 m 0.03,-4.21 c 0,0 -10.56,10.57 -14.85,10.57 -0.04,0 -0.08,0 -0.12,0 -0.02,0 -0.04,0 -0.05,0 -0.5,0 -0.94,0.36 -1.05,0.85 -0.6,2.69 -2.59,10.45 -6.77,17.72 -0.22,0.39 -0.25,0.84 -0.1,1.24 0.07,0.19 0.18,0.37 0.35,0.54 0.15,0.15 0.33,0.26 0.52,0.33 0.16,0.05 0.33,0.08 0.51,0.08 0.25,0 0.49,-0.06 0.72,-0.19 7.26,-4.18 15.02,-6.17 17.71,-6.78 0.51,-0.12 0.87,-0.58 0.85,-1.1 -0.21,-4.21 10.56,-14.98 10.56,-14.98 z"
           inkscape:connector-curvature="0" />
      </g>
      <g
         transform="matrix(-1,0,0,1,127.98764,0)"
         id="g26"
         style="opacity:0.2">
        <path
           id="path24"
           style="fill:#424242"
           d="m 16.5,110.33 c 0.31,0 0.6,0.12 0.82,0.34 0.45,0.45 0.45,1.18 0,1.63 -0.22,0.22 -0.51,0.34 -0.81,0.34 -0.19,0 -0.38,-0.05 -0.55,-0.14 l -0.3,-0.16 -0.16,-0.3 c -0.24,-0.45 -0.16,-1.01 0.2,-1.37 0.21,-0.22 0.5,-0.34 0.8,-0.34 m 0,-1 c -0.55,0 -1.1,0.21 -1.52,0.63 -0.69,0.69 -0.81,1.74 -0.37,2.55 L 4.09,123.04 c 0.07,0.19 0.18,0.37 0.35,0.54 0.15,0.15 0.33,0.26 0.52,0.33 l 10.52,-10.52 c 0.32,0.17 0.67,0.26 1.03,0.26 0.55,0 1.1,-0.21 1.52,-0.63 0.84,-0.84 0.84,-2.21 0,-3.05 -0.42,-0.43 -0.97,-0.64 -1.53,-0.64 z"
           inkscape:connector-curvature="0" />
      </g>
      <path
         id="path33"
         style="fill:url(#SVGID_3_)"
         d="m 94.46764,106.1 11.63,-11.64 0.31,0.31 c 1.44,1.44 1.44,3.77 0,5.21 l -6.43,6.43 c -1.44,1.44 -3.77,1.44 -5.21,0 z"
         inkscape:connector-curvature="0" />
      <path
         id="path40"
         style="fill:url(#SVGID_4_)"
         d="m 53.73764,53.72 7.64,-7.64 c 37.69,38.2 44.72,48.38 44.72,48.38 l -5.82,5.82 -5.82,5.82 c 0,0 -10.18,-7.03 -48.36,-44.75 z"
         inkscape:connector-curvature="0" />
      <g
         transform="matrix(-1,0,0,1,127.98764,0)"
         id="g44"
         style="opacity:0.2">
        <path
           id="path42"
           style="fill:#eeeeee"
           d="m 66.62,50.34 5.5,5.5 5.5,5.5 C 50.48,88.07 38.14,98.6 33.78,102.12 L 29.83,98.17 25.87,94.21 C 29.35,89.87 39.79,77.62 66.62,50.34 M 66.61,46.08 C 28.92,84.28 21.89,94.46 21.89,94.46 l 5.82,5.82 5.82,5.82 c 0,0 10.18,-7.03 48.36,-44.75 l -7.64,-7.64 z"
           inkscape:connector-curvature="0" />
      </g>
      <path
         id="path51"
         style="fill:url(#linearGradient1235)"
         d="m 4.25764,15.91 0.14,-0.14 c -1.22,-2.54 0.41,-5.49 3.15,-8.22 2.74,-2.73 5.68,-4.37 8.22,-3.15 l 0.14,-0.14 c 0,0 23.31,16.29 48.16,42.3 0.72,0.75 0.7,1.94 -0.03,2.68 l -7.41,7.41 -7.41,7.41 c -0.73,0.73 -1.93,0.75 -2.68,0.03 -26,-24.86 -42.28,-48.18 -42.28,-48.18 z"
         inkscape:connector-curvature="0" />
      <path
         id="path58"
         style="fill:url(#linearGradient889)"
         d="m 19.25764,6.73 c 0.93,0.69 2.04,1.53 3.31,2.51 l -13.35,13.35 c -0.97,-1.27 -1.81,-2.38 -2.51,-3.31 z"
         inkscape:connector-curvature="0" />
      <g
         transform="matrix(-1,0,0,1,127.98764,0)"
         id="g62"
         style="opacity:0.2">
        <path
           id="path60"
           style="fill:#eeeeee"
           d="m 114.03,7 c 0.38,0 1.81,0.19 4.29,2.68 2.03,2.03 3.01,3.87 2.56,4.8 l -0.36,0.75 c -3.41,4.71 -18.38,24.78 -40.38,45.96 l -6.65,-6.66 -6.66,-6.66 c 21.15,-22 41.23,-36.99 45.94,-40.41 L 113.52,7.1 C 113.69,7.03 113.85,7 114.03,7 m 0,-3 c -0.62,0 -1.22,0.13 -1.81,0.41 l -0.14,-0.14 c 0,0 -23.31,16.29 -48.16,42.3 -0.72,0.75 -0.7,1.94 0.03,2.68 l 7.41,7.41 7.41,7.41 c 0.37,0.37 0.86,0.56 1.36,0.56 0.48,0 0.95,-0.18 1.32,-0.53 26,-24.87 42.28,-48.19 42.28,-48.19 l -0.14,-0.14 c 1.22,-2.54 -0.41,-5.49 -3.15,-8.22 C 118.34,5.45 116.11,4 114.03,4 Z"
           inkscape:connector-curvature="0" />
      </g>
      <g
         transform="matrix(-1,0,0,1,127.98764,0)"
         id="g76">
        <defs
           id="defs65">
          <path
             d="m 123.73,15.91 -0.14,-0.14 c 1.22,-2.54 -0.41,-5.49 -3.15,-8.22 -2.74,-2.73 -5.68,-4.37 -8.22,-3.15 l -0.14,-0.14 c 0,0 -23.31,16.29 -48.16,42.3 -0.72,0.75 -0.7,1.94 0.03,2.68 l 7.41,7.41 7.41,7.41 c 0.73,0.73 1.93,0.75 2.68,0.03 26,-24.86 42.28,-48.18 42.28,-48.18 z"
             id="path1141"
             inkscape:connector-curvature="0" />
        </defs>
        <clipPath
           id="clipPath917">
          <use
             id="use915"
             xlink:href="#SVGID_7_"
             style="overflow:visible"
             x="0"
             y="0"
             width="100%"
             height="100%" />
        </clipPath>
        <g
           id="g74"
           clip-path="url(#SVGID_8_)">
          <path
             id="path70"
             style="fill:#fb8c00"
             d="m 64.37,43.29 c -0.38,0.39 -0.77,0.8 -1.15,1.22 l 20.29,20.3 c 0.42,-0.38 0.82,-0.76 1.22,-1.15 z"
             inkscape:connector-curvature="0" />
          <path
             id="path72"
             style="opacity:0.3;fill:#fb8c00"
             d="m 64.37,43.29 c -0.38,0.39 -0.77,0.8 -1.15,1.22 l 20.29,20.3 c 0.42,-0.38 0.82,-0.76 1.22,-1.15 z"
             inkscape:connector-curvature="0" />
        </g>
      </g>
    </g>
    <g
       aria-label="Nuspell"
       style="font-style:normal;font-weight:normal;font-size:10.58333302px;line-height:1.25;font-family:sans-serif;letter-spacing:0px;word-spacing:0px;fill:#ff9800;fill-opacity:1;stroke:none;stroke-width:0.26458332"
       id="text1153">
      <path
         d="m 13.300604,265.53502 q 0.327378,-0.27094 0.745066,-0.27094 0.417689,0 0.417689,0.16934 0,0.0677 -0.1016,0.2032 -0.09031,0.2032 -0.846666,1.53529 -1.975556,3.4544 -1.975556,4.60586 0,0.0903 0.04516,0.0903 0.06773,0 0.225777,-0.22577 0.462845,-0.80152 1.185334,-1.84009 0.722489,-1.03858 1.365955,-1.8288 0.643467,-0.79023 1.456267,-1.47885 0.8128,-0.68862 1.478844,-0.85795 1.106312,-0.18063 1.433689,-0.18063 0.03387,0.0113 0.03387,0.0565 0,0.0339 -0.124178,0.1016 -1.275644,0.7112 -3.172178,2.70933 -1.885244,1.98685 -3.409244,4.08658 -0.4064,0.68862 -0.632178,0.85796 -0.225778,0.16933 -0.541866,0.16933 -0.587023,0 -0.587023,-1.24178 0,-0.54187 0.214489,-1.10631 0.790222,-2.11102 1.478845,-3.02542 0.383822,-0.56445 0.383822,-0.62089 0,-0.0339 -0.135467,0.13547 -2.8109331,3.53342 -3.9736887,4.62844 -0.8015111,0.83538 -1.8175111,1.71591 -1.016,0.88053 -1.6256,1.20791 -0.1919111,0.15805 -0.4064,0.15805 -0.2144889,0 -0.5192889,-0.18063 -0.3048,-0.18062 -0.3048,-0.41768 0,-0.12418 0.1354666,-0.22578 l 1.8513778,-1.55787 q 0.1693334,-0.14675 0.2144889,-0.14675 0.033867,0 0.033867,0.0452 0,0.0339 -0.033867,0.1016 -0.033867,0.0677 -0.1016,0.14676 -0.079022,0.079 -0.1580444,0.14675 l -0.1919111,0.2032 q -0.3499556,0.34996 -0.3499556,0.38382 0,0.0452 0.022578,0.0452 0.022578,0 0.1128889,-0.0677 1.0837333,-0.74507 3.1270222,-2.79965 2.0432886,-2.06586 3.5447116,-3.74791 z"
         style="font-style:normal;font-variant:normal;font-weight:normal;font-stretch:normal;font-size:11.28888893px;font-family:'Mr Dafoe';-inkscape-font-specification:'Mr Dafoe';fill:#ff9800;fill-opacity:1;stroke-width:0.26458332"
         id="path894" />
      <path
         d="m 16.769644,271.83422 q 1.682044,-0.90311 3.702755,-2.40454 0.1016,0.079 0.1016,0.19191 0,0.11289 -0.112888,0.21449 -0.112889,0.1016 -0.327378,0.29351 -0.2032,0.19192 -0.790222,0.68863 -0.587023,0.49671 -1.095023,0.90311 -1.332089,1.07244 -1.964266,1.26435 -0.2032,0.0564 -0.440267,0.0564 -0.383822,0 -0.383822,-0.59831 0,-0.12418 0.1016,-0.37254 0.112889,-0.24835 0.124178,-0.28222 0.02258,-0.0451 0.03387,-0.0677 0.01129,-0.0226 0.02258,-0.0339 0.01129,-0.0226 0.01129,-0.0451 0,-0.0226 -0.06773,-0.0226 -0.05645,0 -0.372534,0.3048 -0.316089,0.29351 -0.530578,0.47413 -0.2032,0.18062 -0.474133,0.33867 -0.259644,0.15804 -0.428978,0.15804 -0.451555,0 -0.451555,-0.41769 0,-0.24835 0.169333,-0.6096 0.395111,-0.83537 1.185333,-1.67075 0.790223,-0.83538 1.128889,-0.84667 0.124178,0 0.225778,0.0903 0.1016,0.0903 0.1016,0.2032 0,0.11289 -0.225778,0.33867 -0.225777,0.22578 -0.575733,0.58702 -0.338667,0.34996 -0.485422,0.58702 -0.135467,0.23707 -0.135467,0.31609 0,0.079 0.09031,0.079 0.09031,0 0.327378,-0.14675 0.643467,-0.44027 1.467556,-1.08373 0.835377,-0.64347 1.072444,-0.93698 0.05644,-0.2032 0.338667,-0.2032 0.541866,0 0.541866,0.19191 0,0.079 -0.530577,0.58702 -1.591734,1.524 -1.591734,1.88525 0,0.0564 0.04516,0.0564 0.05644,0 0.191911,-0.0677 z"
         style="font-style:normal;font-variant:normal;font-weight:normal;font-stretch:normal;font-size:11.28888893px;font-family:'Mr Dafoe';-inkscape-font-specification:'Mr Dafoe';fill:#ff9800;fill-opacity:1;stroke-width:0.26458332"
         id="path896" />
      <path
         d="m 19.685529,272.01484 q 0.395111,0 0.722489,-0.47413 0.338666,-0.48543 0.474133,-0.97085 0.135467,-0.49671 0.135467,-0.79022 0,-0.079 -0.124178,-0.079 -0.112889,0 -0.270934,0.12417 l -1.478844,1.14018 q -0.158044,0.0903 -0.361244,0.0903 -0.2032,0 -0.2032,-0.14675 0,-0.1016 0.02258,-0.13547 0.03387,-0.0339 0.169334,-0.11289 0.835377,-0.57573 2.280355,-1.87395 0.169334,-0.22578 0.3048,-0.22578 0.135467,0 0.451556,0.0903 0.316089,0.079 0.316089,0.19191 0,0.67733 -0.124178,1.23049 -0.124178,0.55316 -0.259645,0.84667 -0.124177,0.28222 -0.124177,0.3048 0,0.0226 0.02258,0.0226 0.02258,0 0.09031,-0.0339 0.846666,-0.42898 2.156177,-1.39982 l 0.270934,-0.2032 q 0.1016,0.079 0.1016,0.19191 0,0.11289 -0.1016,0.2032 -0.02258,0 -0.587023,0.47413 -0.553155,0.47413 -1.241777,1.03858 -0.677334,0.55315 -1.456267,1.016 -0.778933,0.46284 -1.207911,0.46284 -1.061156,0 -1.061156,-1.27564 0,-0.1016 0.07902,-0.18062 0.09031,-0.0903 0.225777,-0.0903 0,0.0564 0.05645,0.18063 0.06773,0.11289 0.135466,0.19191 0.2032,0.19191 0.587023,0.19191 z"
         style="font-style:normal;font-variant:normal;font-weight:normal;font-stretch:normal;font-size:11.28888893px;font-family:'Mr Dafoe';-inkscape-font-specification:'Mr Dafoe';fill:#ff9800;fill-opacity:1;stroke-width:0.26458332"
         id="path898" />
      <path
         d="m 23.342952,272.50026 q 0.372533,0 1.128889,-0.42898 0.767644,-0.44026 1.365956,-0.94826 0.6096,-0.508 0.6096,-0.7112 0,-0.0339 -0.03387,-0.0339 -0.248356,0 -1.049867,0.508 -0.790222,0.49671 -1.467555,1.016 -0.677334,0.508 -0.677334,0.55316 0,0.0452 0.124178,0.0452 z m 2.867378,-4.76391 q 0.124178,0 0.270933,0.19191 0.146756,0.18062 0.146756,0.27093 0,0.0903 -0.03387,0.12418 -0.778933,0.67734 -1.512711,1.4224 -0.733778,0.74507 -1.083733,1.15147 l -0.338667,0.4064 q -0.09031,0.0903 -0.09031,0.12418 0,0.0339 0.02258,0.0339 0.02258,0 0.05644,-0.0339 l 0.1016,-0.079 q 1.851378,-1.64817 2.878667,-1.64817 0.135466,0 0.248355,0.079 0.383823,0.31609 0.383823,0.72249 0,0.39511 -0.575734,1.016 -0.564444,0.62089 -1.399822,1.09502 -0.835378,0.46284 -1.399822,0.46284 -0.553156,0 -0.733778,-0.29351 l -0.124178,-0.18062 q -0.01129,-0.0113 -0.03387,-0.0113 -0.248356,0 -1.636889,1.58045 -1.399823,1.58044 -1.794934,2.29164 -0.04516,0.2032 -0.180622,0.2032 -0.06773,0 -0.124178,-0.0452 l -0.508,-0.39512 q -0.04515,-0.0226 -0.04515,-0.1016 0,-0.13546 1.715911,-2.22391 1.704622,-2.07715 3.578578,-4.12044 1.873955,-2.04329 2.212622,-2.04329 z"
         style="font-style:normal;font-variant:normal;font-weight:normal;font-stretch:normal;font-size:11.28888893px;font-family:'Mr Dafoe';-inkscape-font-specification:'Mr Dafoe';fill:#ff9800;fill-opacity:1;stroke-width:0.26458332"
         id="path900" />
      <path
         d="m 30.275565,269.42968 q -0.293511,0 -0.993423,0.6096 -0.699911,0.59831 -0.699911,0.73378 0,0.0226 0.03387,0.0226 0.248356,0 0.982133,-0.55316 0.745067,-0.55315 0.745067,-0.75635 0,-0.0564 -0.06773,-0.0564 z m -2.404534,3.61245 q -0.869244,0 -0.869244,-1.06116 0,-0.66604 0.575733,-1.41111 0.587022,-0.75635 1.377245,-1.23049 0.790222,-0.48542 1.399822,-0.48542 0.270933,0 0.496711,0.21449 0.237067,0.21449 0.237067,0.41769 0,0.37253 -0.530578,0.84666 -0.530578,0.46285 -1.1176,0.75636 -0.575733,0.28222 -0.767645,0.28222 -0.180622,0 -0.270933,-0.16933 -0.04516,-0.0339 -0.124178,-0.0339 -0.07902,0 -0.259644,0.3048 -0.180622,0.29351 -0.180622,0.48542 0,0.18063 0.135466,0.22578 0.857956,0 1.862667,-0.49671 1.004711,-0.508 2.777067,-1.77235 0.124177,-0.0903 0.372533,-0.27094 0.259644,-0.18062 0.3048,-0.21449 0.1016,0.079 0.1016,0.19191 0,0.11289 -0.1016,0.2032 -0.564444,0.56445 -1.467556,1.26436 -0.891822,0.69991 -2.054577,1.33209 -1.162756,0.62089 -1.896534,0.62089 z"
         style="font-style:normal;font-variant:normal;font-weight:normal;font-stretch:normal;font-size:11.28888893px;font-family:'Mr Dafoe';-inkscape-font-specification:'Mr Dafoe';fill:#ff9800;fill-opacity:1;stroke-width:0.26458332"
         id="path902" />
      <path
         d="m 32.389762,272.09386 q 0.372533,0 1.467556,-0.66604 1.106311,-0.66605 2.009422,-1.33209 l 0.9144,-0.66605 q 0.1016,0.079 0.1016,0.19191 0,0.11289 -0.112889,0.21449 -0.112889,0.1016 -0.327378,0.29351 -0.2032,0.19192 -0.790222,0.68863 -0.587022,0.49671 -1.095022,0.90311 -1.332089,1.07244 -1.964267,1.26435 -0.2032,0.0564 -0.417689,0.0564 -0.214489,0 -0.338667,-0.0339 -0.124177,-0.0339 -0.270933,-0.14675 -0.293511,-0.24836 -0.293511,-1.10632 0,-0.23706 0.2032,-0.72248 0.2032,-0.48543 0.666044,-1.17405 0.474134,-0.68862 1.095023,-1.37724 0.632177,-0.68863 1.591733,-1.37725 0.970844,-0.68862 2.065867,-1.1176 0.169333,-0.0564 0.3048,-0.0564 0.135466,0 0.248355,0.12418 0.112889,0.11288 0.158045,0.23706 l 0.05644,0.11289 q 0,0.25965 -0.801511,1.14018 -0.824089,0.9144 -1.907822,1.74978 -1.072445,0.82409 -1.998134,1.41111 -0.756355,0.49671 -0.756355,1.03858 0,0.34995 0.191911,0.34995 z m 1.016,-2.3368 q 0.282222,0 1.704622,-1.38853 1.433689,-1.38854 1.433689,-1.54658 l -0.01129,-0.0226 -0.191911,0.0903 q -0.587022,0.38383 -1.569155,1.30951 -0.970845,0.92569 -1.343378,1.44498 -0.04516,0.0565 -0.04516,0.0903 0,0.0226 0.02258,0.0226 z"
         style="font-style:normal;font-variant:normal;font-weight:normal;font-stretch:normal;font-size:11.28888893px;font-family:'Mr Dafoe';-inkscape-font-specification:'Mr Dafoe';fill:#ff9800;fill-opacity:1;stroke-width:0.26458332"
         id="path904" />
      <path
         d="m 36.093928,272.09386 q 0.372534,0 1.467556,-0.66604 1.106311,-0.66605 2.009422,-1.33209 l 0.9144,-0.66605 q 0.1016,0.079 0.1016,0.19191 0,0.11289 -0.112889,0.21449 -0.112889,0.1016 -0.327377,0.29351 -0.2032,0.19192 -0.790223,0.68863 -0.587022,0.49671 -1.095022,0.90311 -1.332089,1.07244 -1.964267,1.26435 -0.2032,0.0564 -0.417688,0.0564 -0.214489,0 -0.338667,-0.0339 -0.124178,-0.0339 -0.270933,-0.14675 -0.293512,-0.24836 -0.293512,-1.10632 0,-0.23706 0.2032,-0.72248 0.2032,-0.48543 0.666045,-1.17405 0.474133,-0.68862 1.095022,-1.37724 0.632178,-0.68863 1.591733,-1.37725 0.970845,-0.68862 2.065867,-1.1176 0.169333,-0.0564 0.3048,-0.0564 0.135467,0 0.248356,0.12418 0.112889,0.11288 0.158044,0.23706 l 0.05644,0.11289 q 0,0.25965 -0.801512,1.14018 -0.824088,0.9144 -1.907822,1.74978 -1.072444,0.82409 -1.998133,1.41111 -0.756356,0.49671 -0.756356,1.03858 0,0.34995 0.191911,0.34995 z m 1.016,-2.3368 q 0.282223,0 1.704623,-1.38853 1.433689,-1.38854 1.433689,-1.54658 l -0.01129,-0.0226 -0.191911,0.0903 q -0.587023,0.38383 -1.569156,1.30951 -0.970844,0.92569 -1.343378,1.44498 -0.04516,0.0565 -0.04516,0.0903 0,0.0226 0.02258,0.0226 z"
         style="font-style:normal;font-variant:normal;font-weight:normal;font-stretch:normal;font-size:11.28888893px;font-family:'Mr Dafoe';-inkscape-font-specification:'Mr Dafoe';fill:#ff9800;fill-opacity:1;stroke-width:0.26458332"
         id="path906" />
    </g>
    <path
       inkscape:connector-curvature="0"
       style="fill:#f200ff;fill-opacity:0.50196078;stroke:none;stroke-width:10.10000038;stroke-miterlimit:4;stroke-dasharray:none;stroke-dashoffset:0;stroke-opacity:1"
       d="M 22.479249,245.31084 0.28835451,258.12298 V 283.8072 L 22.479249,296.61882 44.669627,283.8072 v -25.68422 z m 0,0.25425 21.970752,12.68501 v 25.42997 L 22.479249,296.36509 0.50797934,283.68007 V 258.2501 Z"
       id="rect1193-5-5-3" />
  </g>
</svg>
