<?xml version="1.0" encoding="UTF-8" standalone="no"?>
<!DOCTYPE svg PUBLIC "-//W3C//DTD SVG 1.1//EN"
 "http://www.w3.org/Graphics/SVG/1.1/DTD/svg11.dtd">
<!-- Generated by graphviz version 2.40.1 (20161225.0304)
 -->
<!-- Title: src/nuspell/aff_data.cxx Pages: 1 -->
<svg width="1813pt" height="274pt"
 viewBox="0.00 0.00 1813.00 274.00" xmlns="http://www.w3.org/2000/svg" xmlns:xlink="http://www.w3.org/1999/xlink">
<g id="graph0" class="graph" transform="scale(1 1) rotate(0) translate(4 270)">
<title>src/nuspell/aff_data.cxx</title>
<polygon fill="#ffffff" stroke="transparent" points="-4,4 -4,-270 1809,-270 1809,4 -4,4"/>
<!-- Node0 -->
<g id="node1" class="node">
<title>Node0</title>
<polygon fill="#bfbfbf" stroke="#000000" points="1208,-246.5 1208,-265.5 1329,-265.5 1329,-246.5 1208,-246.5"/>
<text text-anchor="middle" x="1268.5" y="-253.5" font-family="Helvetica,sans-Serif" font-size="10.00" fill="#000000">src/nuspell/aff_data.cxx</text>
</g>
<!-- Node1 -->
<g id="node2" class="node">
<title>Node1</title>
<g id="a_node2"><a xlink:href="aff__data_8hxx.html" target="_top" xlink:title="Affixing data structures. ">
<polygon fill="#ffffff" stroke="#000000" points="972,-185 972,-204 1043,-204 1043,-185 972,-185"/>
<text text-anchor="middle" x="1007.5" y="-192" font-family="Helvetica,sans-Serif" font-size="10.00" fill="#000000">aff_data.hxx</text>
</a>
</g>
</g>
<!-- Node0&#45;&gt;Node1 -->
<g id="edge1" class="edge">
<title>Node0&#45;&gt;Node1</title>
<path fill="none" stroke="#191970" d="M1228.0051,-246.4581C1180.585,-235.2844 1102.251,-216.8264 1052.8368,-205.1828"/>
<polygon fill="#191970" stroke="#191970" points="1053.5914,-201.7648 1043.0552,-202.878 1051.9859,-208.5782 1053.5914,-201.7648"/>
</g>
<!-- Node4 -->
<g id="node5" class="node">
<title>Node4</title>
<polygon fill="#ffffff" stroke="#bfbfbf" points="0,-123.5 0,-142.5 83,-142.5 83,-123.5 0,-123.5"/>
<text text-anchor="middle" x="41.5" y="-130.5" font-family="Helvetica,sans-Serif" font-size="10.00" fill="#000000">unordered_map</text>
</g>
<!-- Node0&#45;&gt;Node4 -->
<g id="edge39" class="edge">
<title>Node0&#45;&gt;Node4</title>
<path fill="none" stroke="#191970" d="M1207.9684,-251.8875C1034.5046,-239.7306 520.9057,-201.137 97.5,-143 96.0324,-142.7985 94.5445,-142.5862 93.0437,-142.3652"/>
<polygon fill="#191970" stroke="#191970" points="93.4515,-138.8866 83.0309,-140.8 92.3703,-145.8026 93.4515,-138.8866"/>
</g>
<!-- Node7 -->
<g id="node8" class="node">
<title>Node7</title>
<g id="a_node8"><a xlink:href="locale__utils_8hxx.html" target="_top" xlink:title="Encoding transformations. ">
<polygon fill="#ffffff" stroke="#000000" points="1314.5,-123.5 1314.5,-142.5 1398.5,-142.5 1398.5,-123.5 1314.5,-123.5"/>
<text text-anchor="middle" x="1356.5" y="-130.5" font-family="Helvetica,sans-Serif" font-size="10.00" fill="#000000">locale_utils.hxx</text>
</a>
</g>
</g>
<!-- Node0&#45;&gt;Node7 -->
<g id="edge28" class="edge">
<title>Node0&#45;&gt;Node7</title>
<path fill="none" stroke="#191970" d="M1257.8793,-246.4432C1242.3758,-231.3165 1216.9944,-201.2902 1232.5,-179 1241.492,-166.0735 1276.4425,-153.794 1306.9549,-145.1788"/>
<polygon fill="#191970" stroke="#191970" points="1307.9495,-148.5354 1316.6671,-142.5143 1306.0974,-141.7848 1307.9495,-148.5354"/>
</g>
<!-- Node14 -->
<g id="node15" class="node">
<title>Node14</title>
<polygon fill="#ffffff" stroke="#bfbfbf" points="1109.5,-62 1109.5,-81 1165.5,-81 1165.5,-62 1109.5,-62"/>
<text text-anchor="middle" x="1137.5" y="-69" font-family="Helvetica,sans-Serif" font-size="10.00" fill="#000000">algorithm</text>
</g>
<!-- Node0&#45;&gt;Node14 -->
<g id="edge35" class="edge">
<title>Node0&#45;&gt;Node14</title>
<path fill="none" stroke="#191970" d="M1244.1772,-246.4546C1227.0895,-238.7399 1204.6642,-226.4567 1189.5,-210 1158.0021,-175.8172 1145.0507,-120.7475 1140.1648,-91.4057"/>
<polygon fill="#191970" stroke="#191970" points="1143.576,-90.5548 1138.621,-81.1901 1136.6546,-91.6008 1143.576,-90.5548"/>
</g>
<!-- Node22 -->
<g id="node23" class="node">
<title>Node22</title>
<g id="a_node23"><a xlink:href="string__utils_8hxx.html" target="_top" xlink:title="String algorithms. ">
<polygon fill="#ffffff" stroke="#000000" points="1166,-123.5 1166,-142.5 1249,-142.5 1249,-123.5 1166,-123.5"/>
<text text-anchor="middle" x="1207.5" y="-130.5" font-family="Helvetica,sans-Serif" font-size="10.00" fill="#000000">string_utils.hxx</text>
</a>
</g>
</g>
<!-- Node0&#45;&gt;Node22 -->
<g id="edge29" class="edge">
<title>Node0&#45;&gt;Node22</title>
<path fill="none" stroke="#191970" d="M1242.9738,-246.3698C1227.3579,-238.9914 1208.6711,-227.1364 1199.5,-210 1189.9279,-192.1143 1194.4242,-168.5521 1199.727,-152.2247"/>
<polygon fill="#191970" stroke="#191970" points="1203.0722,-153.2665 1203.1884,-142.6723 1196.4909,-150.8817 1203.0722,-153.2665"/>
</g>
<!-- Node23 -->
<g id="node24" class="node">
<title>Node23</title>
<polygon fill="#ffffff" stroke="#bfbfbf" points="1241.5,-185 1241.5,-204 1295.5,-204 1295.5,-185 1241.5,-185"/>
<text text-anchor="middle" x="1268.5" y="-192" font-family="Helvetica,sans-Serif" font-size="10.00" fill="#000000">iostream</text>
</g>
<!-- Node0&#45;&gt;Node23 -->
<g id="edge36" class="edge">
<title>Node0&#45;&gt;Node23</title>
<path fill="none" stroke="#191970" d="M1268.5,-246.3906C1268.5,-237.8657 1268.5,-225.1392 1268.5,-214.4235"/>
<polygon fill="#191970" stroke="#191970" points="1272.0001,-214.2448 1268.5,-204.2449 1265.0001,-214.2449 1272.0001,-214.2448"/>
</g>
<!-- Node24 -->
<g id="node25" class="node">
<title>Node24</title>
<polygon fill="#ffffff" stroke="#bfbfbf" points="1314,-185 1314,-204 1355,-204 1355,-185 1314,-185"/>
<text text-anchor="middle" x="1334.5" y="-192" font-family="Helvetica,sans-Serif" font-size="10.00" fill="#000000">regex</text>
</g>
<!-- Node0&#45;&gt;Node24 -->
<g id="edge37" class="edge">
<title>Node0&#45;&gt;Node24</title>
<path fill="none" stroke="#191970" d="M1278.8125,-246.3906C1288.9242,-236.9683 1304.5442,-222.4134 1316.6707,-211.1137"/>
<polygon fill="#191970" stroke="#191970" points="1319.112,-213.6228 1324.0421,-204.2449 1314.3399,-208.5015 1319.112,-213.6228"/>
</g>
<!-- Node25 -->
<g id="node26" class="node">
<title>Node25</title>
<polygon fill="#ffffff" stroke="#bfbfbf" points="1373.5,-185 1373.5,-204 1425.5,-204 1425.5,-185 1373.5,-185"/>
<text text-anchor="middle" x="1399.5" y="-192" font-family="Helvetica,sans-Serif" font-size="10.00" fill="#000000">sstream</text>
</g>
<!-- Node0&#45;&gt;Node25 -->
<g id="edge38" class="edge">
<title>Node0&#45;&gt;Node25</title>
<path fill="none" stroke="#191970" d="M1288.9688,-246.3906C1310.6952,-236.1908 1345.2335,-219.9763 1369.9185,-208.3875"/>
<polygon fill="#191970" stroke="#191970" points="1371.6103,-211.4598 1379.175,-204.0419 1368.6355,-205.1234 1371.6103,-211.4598"/>
</g>
<!-- Node26 -->
<g id="node27" class="node">
<title>Node26</title>
<polygon fill="#ffffff" stroke="#bfbfbf" points="1443.5,-179.5 1443.5,-209.5 1553.5,-209.5 1553.5,-179.5 1443.5,-179.5"/>
<text text-anchor="start" x="1451.5" y="-197.5" font-family="Helvetica,sans-Serif" font-size="10.00" fill="#000000">boost/algorithm/string</text>
<text text-anchor="middle" x="1498.5" y="-186.5" font-family="Helvetica,sans-Serif" font-size="10.00" fill="#000000">/case_conv.hpp</text>
</g>
<!-- Node0&#45;&gt;Node26 -->
<g id="edge40" class="edge">
<title>Node0&#45;&gt;Node26</title>
<path fill="none" stroke="#191970" d="M1304.1851,-246.4581C1338.6448,-237.2439 1391.6298,-223.0762 1433.5723,-211.8611"/>
<polygon fill="#191970" stroke="#191970" points="1434.6751,-215.1893 1443.4315,-209.2248 1432.8668,-208.4268 1434.6751,-215.1893"/>
</g>
<!-- Node27 -->
<g id="node28" class="node">
<title>Node27</title>
<polygon fill="#ffffff" stroke="#bfbfbf" points="1571.5,-185 1571.5,-204 1659.5,-204 1659.5,-185 1571.5,-185"/>
<text text-anchor="middle" x="1615.5" y="-192" font-family="Helvetica,sans-Serif" font-size="10.00" fill="#000000">boost/locale.hpp</text>
</g>
<!-- Node0&#45;&gt;Node27 -->
<g id="edge41" class="edge">
<title>Node0&#45;&gt;Node27</title>
<path fill="none" stroke="#191970" d="M1329.1778,-248.8365C1388.9274,-241.2367 1482.5859,-227.8587 1562.5,-210 1566.7102,-209.0591 1571.0779,-207.9701 1575.4177,-206.8141"/>
<polygon fill="#191970" stroke="#191970" points="1576.7109,-210.0872 1585.4057,-204.0332 1574.8334,-203.3437 1576.7109,-210.0872"/>
</g>
<!-- Node28 -->
<g id="node29" class="node">
<title>Node28</title>
<polygon fill="#ffffff" stroke="#bfbfbf" points="1678,-185 1678,-204 1805,-204 1805,-185 1678,-185"/>
<text text-anchor="middle" x="1741.5" y="-192" font-family="Helvetica,sans-Serif" font-size="10.00" fill="#000000">boost/range/adaptors.hpp</text>
</g>
<!-- Node0&#45;&gt;Node28 -->
<g id="edge42" class="edge">
<title>Node0&#45;&gt;Node28</title>
<path fill="none" stroke="#191970" d="M1329.0582,-250.8366C1407.6233,-243.7261 1548.805,-229.5447 1668.5,-210 1675.3729,-208.8777 1682.5778,-207.5434 1689.6724,-206.1356"/>
<polygon fill="#191970" stroke="#191970" points="1690.8403,-209.4693 1699.9362,-204.0365 1689.4377,-202.6113 1690.8403,-209.4693"/>
</g>
<!-- Node2 -->
<g id="node3" class="node">
<title>Node2</title>
<polygon fill="#ffffff" stroke="#bfbfbf" points="960,-123.5 960,-142.5 1005,-142.5 1005,-123.5 960,-123.5"/>
<text text-anchor="middle" x="982.5" y="-130.5" font-family="Helvetica,sans-Serif" font-size="10.00" fill="#000000">iosfwd</text>
</g>
<!-- Node1&#45;&gt;Node2 -->
<g id="edge2" class="edge">
<title>Node1&#45;&gt;Node2</title>
<path fill="none" stroke="#191970" d="M1003.5938,-184.8906C1000.0554,-176.1862 994.7364,-163.1015 990.325,-152.2494"/>
<polygon fill="#191970" stroke="#191970" points="993.4695,-150.6907 986.4613,-142.7449 986.9848,-153.3268 993.4695,-150.6907"/>
</g>
<!-- Node3 -->
<g id="node4" class="node">
<title>Node3</title>
<polygon fill="#ffffff" stroke="#bfbfbf" points="1061,-.5 1061,-19.5 1102,-19.5 1102,-.5 1061,-.5"/>
<text text-anchor="middle" x="1081.5" y="-7.5" font-family="Helvetica,sans-Serif" font-size="10.00" fill="#000000">string</text>
</g>
<!-- Node1&#45;&gt;Node3 -->
<g id="edge3" class="edge">
<title>Node1&#45;&gt;Node3</title>
<path fill="none" stroke="#191970" d="M1012.7325,-184.6564C1018.2137,-174.3133 1027.0459,-157.5567 1034.5,-143 1047.1832,-118.2319 1052.8856,-113.1129 1062.5,-87 1069.4673,-68.0767 1074.6811,-45.6044 1077.8675,-29.8368"/>
<polygon fill="#191970" stroke="#191970" points="1081.3679,-30.1692 1079.8255,-19.6872 1074.4946,-28.8432 1081.3679,-30.1692"/>
</g>
<!-- Node1&#45;&gt;Node4 -->
<g id="edge4" class="edge">
<title>Node1&#45;&gt;Node4</title>
<path fill="none" stroke="#191970" d="M971.8096,-194.0202C849.5092,-192.0485 436.1886,-182.6782 97.5,-143 96.0287,-142.8276 94.5375,-142.6411 93.0338,-142.4427"/>
<polygon fill="#191970" stroke="#191970" points="93.407,-138.9603 83.0074,-140.9847 92.3997,-145.8874 93.407,-138.9603"/>
</g>
<!-- Node5 -->
<g id="node6" class="node">
<title>Node5</title>
<polygon fill="#ffffff" stroke="#bfbfbf" points="1013.5,-62 1013.5,-81 1053.5,-81 1053.5,-62 1013.5,-62"/>
<text text-anchor="middle" x="1033.5" y="-69" font-family="Helvetica,sans-Serif" font-size="10.00" fill="#000000">utility</text>
</g>
<!-- Node1&#45;&gt;Node5 -->
<g id="edge5" class="edge">
<title>Node1&#45;&gt;Node5</title>
<path fill="none" stroke="#191970" d="M1009.5402,-184.8484C1013.7929,-164.7295 1023.679,-117.9608 1029.3337,-91.2098"/>
<polygon fill="#191970" stroke="#191970" points="1032.8254,-91.6144 1031.4693,-81.1068 1025.9768,-90.1667 1032.8254,-91.6144"/>
</g>
<!-- Node6 -->
<g id="node7" class="node">
<title>Node6</title>
<polygon fill="#ffffff" stroke="#bfbfbf" points="536.5,-.5 536.5,-19.5 580.5,-19.5 580.5,-.5 536.5,-.5"/>
<text text-anchor="middle" x="558.5" y="-7.5" font-family="Helvetica,sans-Serif" font-size="10.00" fill="#000000">vector</text>
</g>
<!-- Node1&#45;&gt;Node6 -->
<g id="edge6" class="edge">
<title>Node1&#45;&gt;Node6</title>
<path fill="none" stroke="#191970" d="M971.9598,-192.8711C814.7821,-185.3114 187.3635,-151.2592 130.5,-87 121.3695,-76.682 121.2929,-66.2497 130.5,-56 156.8582,-26.6571 430.8128,-14.427 526.0711,-11.0404"/>
<polygon fill="#191970" stroke="#191970" points="526.3912,-14.5315 536.2641,-10.6877 526.1491,-7.5357 526.3912,-14.5315"/>
</g>
<!-- Node1&#45;&gt;Node7 -->
<g id="edge7" class="edge">
<title>Node1&#45;&gt;Node7</title>
<path fill="none" stroke="#191970" d="M1043.209,-188.2074C1105.0546,-177.3092 1232.3549,-154.8766 1304.1904,-142.2179"/>
<polygon fill="#191970" stroke="#191970" points="1305.1314,-145.6061 1314.3723,-140.4237 1303.9166,-138.7123 1305.1314,-145.6061"/>
</g>
<!-- Node11 -->
<g id="node12" class="node">
<title>Node11</title>
<g id="a_node12"><a xlink:href="structures_8hxx.html" target="_top" xlink:title="Data structures. ">
<polygon fill="#ffffff" stroke="#000000" points="737,-123.5 737,-142.5 816,-142.5 816,-123.5 737,-123.5"/>
<text text-anchor="middle" x="776.5" y="-130.5" font-family="Helvetica,sans-Serif" font-size="10.00" fill="#000000">structures.hxx</text>
</a>
</g>
</g>
<!-- Node1&#45;&gt;Node11 -->
<g id="edge12" class="edge">
<title>Node1&#45;&gt;Node11</title>
<path fill="none" stroke="#191970" d="M971.9125,-185.0254C931.7577,-174.3349 866.3273,-156.9151 822.3682,-145.2117"/>
<polygon fill="#191970" stroke="#191970" points="823.0724,-141.7773 812.5085,-142.5867 821.2714,-148.5417 823.0724,-141.7773"/>
</g>
<!-- Node7&#45;&gt;Node3 -->
<g id="edge9" class="edge">
<title>Node7&#45;&gt;Node3</title>
<path fill="none" stroke="#191970" d="M1398.7123,-130.2492C1468.0428,-124.2477 1594.0232,-106.2276 1548.5,-56 1519.1997,-23.6718 1211.9307,-13.2374 1112.4154,-10.6925"/>
<polygon fill="#191970" stroke="#191970" points="1112.2084,-7.1865 1102.1252,-10.4389 1112.0358,-14.1844 1112.2084,-7.1865"/>
</g>
<!-- Node8 -->
<g id="node9" class="node">
<title>Node8</title>
<polygon fill="#ffffff" stroke="#bfbfbf" points="1287.5,-62 1287.5,-81 1329.5,-81 1329.5,-62 1287.5,-62"/>
<text text-anchor="middle" x="1308.5" y="-69" font-family="Helvetica,sans-Serif" font-size="10.00" fill="#000000">locale</text>
</g>
<!-- Node7&#45;&gt;Node8 -->
<g id="edge8" class="edge">
<title>Node7&#45;&gt;Node8</title>
<path fill="none" stroke="#191970" d="M1349,-123.3906C1341.9262,-114.3273 1331.1458,-100.5149 1322.4854,-89.4188"/>
<polygon fill="#191970" stroke="#191970" points="1325.0176,-86.9746 1316.1057,-81.2449 1319.4994,-91.2815 1325.0176,-86.9746"/>
</g>
<!-- Node9 -->
<g id="node10" class="node">
<title>Node9</title>
<polygon fill="#ffffff" stroke="#bfbfbf" points="1477.5,-62 1477.5,-81 1539.5,-81 1539.5,-62 1477.5,-62"/>
<text text-anchor="middle" x="1508.5" y="-69" font-family="Helvetica,sans-Serif" font-size="10.00" fill="#000000">type_traits</text>
</g>
<!-- Node7&#45;&gt;Node9 -->
<g id="edge10" class="edge">
<title>Node7&#45;&gt;Node9</title>
<path fill="none" stroke="#191970" d="M1380.25,-123.3906C1405.7939,-113.0554 1446.6009,-96.5447 1475.311,-84.9284"/>
<polygon fill="#191970" stroke="#191970" points="1476.9596,-88.0371 1484.9168,-81.0419 1474.334,-81.5481 1476.9596,-88.0371"/>
</g>
<!-- Node10 -->
<g id="node11" class="node">
<title>Node10</title>
<polygon fill="#ffffff" stroke="#bfbfbf" points="1348,-56.5 1348,-86.5 1459,-86.5 1459,-56.5 1348,-56.5"/>
<text text-anchor="start" x="1356" y="-74.5" font-family="Helvetica,sans-Serif" font-size="10.00" fill="#000000">boost/locale/encoding</text>
<text text-anchor="middle" x="1403.5" y="-63.5" font-family="Helvetica,sans-Serif" font-size="10.00" fill="#000000">_utf.hpp</text>
</g>
<!-- Node7&#45;&gt;Node10 -->
<g id="edge11" class="edge">
<title>Node7&#45;&gt;Node10</title>
<path fill="none" stroke="#191970" d="M1363.8438,-123.3906C1369.7335,-115.6839 1378.2473,-104.5434 1385.8778,-94.5589"/>
<polygon fill="#191970" stroke="#191970" points="1388.7113,-96.6153 1392.0025,-86.5446 1383.1495,-92.3648 1388.7113,-96.6153"/>
</g>
<!-- Node11&#45;&gt;Node3 -->
<g id="edge21" class="edge">
<title>Node11&#45;&gt;Node3</title>
<path fill="none" stroke="#191970" d="M816.0989,-128.6344C855.8044,-123.0828 917.8641,-111.152 966.5,-87 986.0214,-77.3059 986.6525,-68.5112 1004.5,-56 1020.7614,-44.6006 1039.9302,-33.143 1055.0741,-24.5141"/>
<polygon fill="#191970" stroke="#191970" points="1056.9246,-27.4889 1063.9211,-19.5328 1053.4902,-21.3892 1056.9246,-27.4889"/>
</g>
<!-- Node11&#45;&gt;Node5 -->
<g id="edge22" class="edge">
<title>Node11&#45;&gt;Node5</title>
<path fill="none" stroke="#191970" d="M816.269,-127.5545C861.4207,-120.7419 936.9322,-107.4278 999.5,-87 1001.3501,-86.396 1003.2334,-85.7207 1005.1169,-84.999"/>
<polygon fill="#191970" stroke="#191970" points="1006.5083,-88.211 1014.3813,-81.121 1003.8054,-81.7538 1006.5083,-88.211"/>
</g>
<!-- Node11&#45;&gt;Node6 -->
<g id="edge23" class="edge">
<title>Node11&#45;&gt;Node6</title>
<path fill="none" stroke="#191970" d="M736.7734,-132.3199C624.5089,-129.9899 311.0496,-120.514 280.5,-87 271.2184,-76.8177 271.5883,-66.5075 280.5,-56 296.3012,-37.3694 456.6915,-19.8072 526.4175,-12.9885"/>
<polygon fill="#191970" stroke="#191970" points="526.7894,-16.469 536.407,-12.0247 526.117,-9.5014 526.7894,-16.469"/>
</g>
<!-- Node12 -->
<g id="node13" class="node">
<title>Node12</title>
<g id="a_node13"><a xlink:href="condition_8hxx.html" target="_top" xlink:title="Condition matching. ">
<polygon fill="#ffffff" stroke="#000000" points="883.5,-62 883.5,-81 957.5,-81 957.5,-62 883.5,-62"/>
<text text-anchor="middle" x="920.5" y="-69" font-family="Helvetica,sans-Serif" font-size="10.00" fill="#000000">condition.hxx</text>
</a>
</g>
</g>
<!-- Node11&#45;&gt;Node12 -->
<g id="edge13" class="edge">
<title>Node11&#45;&gt;Node12</title>
<path fill="none" stroke="#191970" d="M799,-123.3906C823.0938,-113.1005 861.5213,-96.6888 888.7008,-85.0809"/>
<polygon fill="#191970" stroke="#191970" points="890.3363,-88.1883 898.158,-81.0419 887.5869,-81.7508 890.3363,-88.1883"/>
</g>
<!-- Node11&#45;&gt;Node14 -->
<g id="edge17" class="edge">
<title>Node11&#45;&gt;Node14</title>
<path fill="none" stroke="#191970" d="M816.3855,-127.1556C871.7447,-118.914 974.9494,-103.0795 1062.5,-87 1074.5362,-84.7894 1087.6122,-82.1649 1099.4246,-79.7097"/>
<polygon fill="#191970" stroke="#191970" points="1100.3546,-83.0908 1109.4219,-77.6104 1098.916,-76.2402 1100.3546,-83.0908"/>
</g>
<!-- Node15 -->
<g id="node16" class="node">
<title>Node15</title>
<polygon fill="#ffffff" stroke="#bfbfbf" points="289.5,-62 289.5,-81 333.5,-81 333.5,-62 289.5,-62"/>
<text text-anchor="middle" x="311.5" y="-69" font-family="Helvetica,sans-Serif" font-size="10.00" fill="#000000">cmath</text>
</g>
<!-- Node11&#45;&gt;Node15 -->
<g id="edge18" class="edge">
<title>Node11&#45;&gt;Node15</title>
<path fill="none" stroke="#191970" d="M736.9717,-130.547C644.6273,-124.5353 417.0025,-108.013 343.5,-87 341.7862,-86.5101 340.0519,-85.9334 338.3235,-85.296"/>
<polygon fill="#191970" stroke="#191970" points="339.2435,-81.8823 328.6734,-81.1585 336.4851,-88.3159 339.2435,-81.8823"/>
</g>
<!-- Node16 -->
<g id="node17" class="node">
<title>Node16</title>
<polygon fill="#ffffff" stroke="#bfbfbf" points="1184,-62 1184,-81 1231,-81 1231,-62 1184,-62"/>
<text text-anchor="middle" x="1207.5" y="-69" font-family="Helvetica,sans-Serif" font-size="10.00" fill="#000000">iterator</text>
</g>
<!-- Node11&#45;&gt;Node16 -->
<g id="edge19" class="edge">
<title>Node11&#45;&gt;Node16</title>
<path fill="none" stroke="#191970" d="M816.0236,-130.0659C902.8226,-123.3574 1107.6797,-106.0041 1174.5,-87 1176.4178,-86.4546 1178.3633,-85.8087 1180.3006,-85.0953"/>
<polygon fill="#191970" stroke="#191970" points="1181.8926,-88.2228 1189.7531,-81.119 1179.1783,-81.7704 1181.8926,-88.2228"/>
</g>
<!-- Node17 -->
<g id="node18" class="node">
<title>Node17</title>
<polygon fill="#ffffff" stroke="#bfbfbf" points="352,-62 352,-81 411,-81 411,-62 352,-62"/>
<text text-anchor="middle" x="381.5" y="-69" font-family="Helvetica,sans-Serif" font-size="10.00" fill="#000000">stdexcept</text>
</g>
<!-- Node11&#45;&gt;Node17 -->
<g id="edge20" class="edge">
<title>Node11&#45;&gt;Node17</title>
<path fill="none" stroke="#191970" d="M736.9092,-131.1123C670.5333,-127.2344 533.0141,-116.1371 420.5,-87 417.7228,-86.2808 414.8772,-85.4161 412.0501,-84.4678"/>
<polygon fill="#191970" stroke="#191970" points="413.2286,-81.1721 402.635,-81.0109 410.8159,-87.7432 413.2286,-81.1721"/>
</g>
<!-- Node18 -->
<g id="node19" class="node">
<title>Node18</title>
<polygon fill="#ffffff" stroke="#bfbfbf" points="429.5,-56.5 429.5,-86.5 539.5,-86.5 539.5,-56.5 429.5,-56.5"/>
<text text-anchor="start" x="437.5" y="-74.5" font-family="Helvetica,sans-Serif" font-size="10.00" fill="#000000">boost/container/small</text>
<text text-anchor="middle" x="484.5" y="-63.5" font-family="Helvetica,sans-Serif" font-size="10.00" fill="#000000">_vector.hpp</text>
</g>
<!-- Node11&#45;&gt;Node18 -->
<g id="edge24" class="edge">
<title>Node11&#45;&gt;Node18</title>
<path fill="none" stroke="#191970" d="M736.8607,-125.4831C693.3484,-117.1255 621.1866,-102.9538 549.7054,-87.2232"/>
<polygon fill="#191970" stroke="#191970" points="550.1466,-83.7363 539.6266,-84.9937 548.6346,-90.571 550.1466,-83.7363"/>
</g>
<!-- Node19 -->
<g id="node20" class="node">
<title>Node19</title>
<polygon fill="#ffffff" stroke="#bfbfbf" points="557.5,-62 557.5,-81 707.5,-81 707.5,-62 557.5,-62"/>
<text text-anchor="middle" x="632.5" y="-69" font-family="Helvetica,sans-Serif" font-size="10.00" fill="#000000">boost/multi_index/member.hpp</text>
</g>
<!-- Node11&#45;&gt;Node19 -->
<g id="edge25" class="edge">
<title>Node11&#45;&gt;Node19</title>
<path fill="none" stroke="#191970" d="M754,-123.3906C729.9062,-113.1005 691.4787,-96.6888 664.2992,-85.0809"/>
<polygon fill="#191970" stroke="#191970" points="665.4131,-81.7508 654.842,-81.0419 662.6637,-88.1883 665.4131,-81.7508"/>
</g>
<!-- Node20 -->
<g id="node21" class="node">
<title>Node20</title>
<polygon fill="#ffffff" stroke="#bfbfbf" points="726,-56.5 726,-86.5 827,-86.5 827,-56.5 726,-56.5"/>
<text text-anchor="start" x="734" y="-74.5" font-family="Helvetica,sans-Serif" font-size="10.00" fill="#000000">boost/range/iterator</text>
<text text-anchor="middle" x="776.5" y="-63.5" font-family="Helvetica,sans-Serif" font-size="10.00" fill="#000000">_range_core.hpp</text>
</g>
<!-- Node11&#45;&gt;Node20 -->
<g id="edge26" class="edge">
<title>Node11&#45;&gt;Node20</title>
<path fill="none" stroke="#191970" d="M776.5,-123.3906C776.5,-116.2234 776.5,-106.0862 776.5,-96.671"/>
<polygon fill="#191970" stroke="#191970" points="780.0001,-96.5446 776.5,-86.5446 773.0001,-96.5446 780.0001,-96.5446"/>
</g>
<!-- Node21 -->
<g id="node22" class="node">
<title>Node21</title>
<polygon fill="#ffffff" stroke="#bfbfbf" points="139.5,-56.5 139.5,-86.5 233.5,-86.5 233.5,-56.5 139.5,-56.5"/>
<text text-anchor="start" x="147.5" y="-74.5" font-family="Helvetica,sans-Serif" font-size="10.00" fill="#000000">boost/utility/string</text>
<text text-anchor="middle" x="186.5" y="-63.5" font-family="Helvetica,sans-Serif" font-size="10.00" fill="#000000">_view.hpp</text>
</g>
<!-- Node11&#45;&gt;Node21 -->
<g id="edge27" class="edge">
<title>Node11&#45;&gt;Node21</title>
<path fill="none" stroke="#191970" d="M736.7366,-131.7429C648.2526,-128.4659 428.6028,-117.6748 247.5,-87 246.2274,-86.7844 244.9424,-86.5558 243.6487,-86.3157"/>
<polygon fill="#191970" stroke="#191970" points="244.1241,-82.8408 233.6273,-84.2786 242.7297,-89.7005 244.1241,-82.8408"/>
</g>
<!-- Node12&#45;&gt;Node3 -->
<g id="edge14" class="edge">
<title>Node12&#45;&gt;Node3</title>
<path fill="none" stroke="#191970" d="M945.6563,-61.8906C974.1021,-51.0247 1020.4178,-33.3326 1050.9257,-21.679"/>
<polygon fill="#191970" stroke="#191970" points="1052.5244,-24.815 1060.6171,-17.977 1050.0265,-18.2759 1052.5244,-24.815"/>
</g>
<!-- Node12&#45;&gt;Node6 -->
<g id="edge16" class="edge">
<title>Node12&#45;&gt;Node6</title>
<path fill="none" stroke="#191970" d="M891.8392,-61.9762C884.6048,-59.7977 876.8136,-57.6427 869.5,-56 768.9411,-33.413 647.5215,-19.1195 590.7276,-13.1737"/>
<polygon fill="#191970" stroke="#191970" points="590.8808,-9.6711 580.5749,-12.1282 590.1637,-16.6342 590.8808,-9.6711"/>
</g>
<!-- Node13 -->
<g id="node14" class="node">
<title>Node13</title>
<polygon fill="#ffffff" stroke="#bfbfbf" points="901.5,-.5 901.5,-19.5 939.5,-19.5 939.5,-.5 901.5,-.5"/>
<text text-anchor="middle" x="920.5" y="-7.5" font-family="Helvetica,sans-Serif" font-size="10.00" fill="#000000">tuple</text>
</g>
<!-- Node12&#45;&gt;Node13 -->
<g id="edge15" class="edge">
<title>Node12&#45;&gt;Node13</title>
<path fill="none" stroke="#191970" d="M920.5,-61.8906C920.5,-53.3657 920.5,-40.6392 920.5,-29.9235"/>
<polygon fill="#191970" stroke="#191970" points="924.0001,-29.7448 920.5,-19.7449 917.0001,-29.7449 924.0001,-29.7448"/>
</g>
<!-- Node22&#45;&gt;Node3 -->
<g id="edge33" class="edge">
<title>Node22&#45;&gt;Node3</title>
<path fill="none" stroke="#191970" d="M1217.6786,-123.2299C1232.4971,-107.8109 1256.5799,-77.3913 1240.5,-56 1225.0598,-35.4596 1153.5924,-21.1681 1111.9155,-14.4193"/>
<polygon fill="#191970" stroke="#191970" points="1112.4353,-10.9581 1102.0138,-12.8668 1111.3509,-17.8736 1112.4353,-10.9581"/>
</g>
<!-- Node22&#45;&gt;Node6 -->
<g id="edge34" class="edge">
<title>Node22&#45;&gt;Node6</title>
<path fill="none" stroke="#191970" d="M1165.7045,-130.0537C1088.3381,-124.138 925.9998,-109.4313 874.5,-87 854.5173,-78.2963 856.3647,-64.9698 836.5,-56 793.0883,-36.3977 654.8608,-20.0003 591.1862,-13.2747"/>
<polygon fill="#191970" stroke="#191970" points="591.2252,-9.7599 580.9166,-12.2057 590.5005,-16.7223 591.2252,-9.7599"/>
</g>
<!-- Node22&#45;&gt;Node8 -->
<g id="edge32" class="edge">
<title>Node22&#45;&gt;Node8</title>
<path fill="none" stroke="#191970" d="M1223.2813,-123.3906C1239.5875,-113.4616 1265.254,-97.833 1284.1614,-86.3201"/>
<polygon fill="#191970" stroke="#191970" points="1286.1087,-89.2322 1292.8296,-81.0419 1282.4681,-83.2533 1286.1087,-89.2322"/>
</g>
<!-- Node22&#45;&gt;Node14 -->
<g id="edge30" class="edge">
<title>Node22&#45;&gt;Node14</title>
<path fill="none" stroke="#191970" d="M1196.5625,-123.3906C1185.838,-113.9683 1169.2713,-99.4134 1156.4099,-88.1137"/>
<polygon fill="#191970" stroke="#191970" points="1158.4143,-85.2158 1148.5917,-81.2449 1153.7941,-90.4745 1158.4143,-85.2158"/>
</g>
<!-- Node22&#45;&gt;Node16 -->
<g id="edge31" class="edge">
<title>Node22&#45;&gt;Node16</title>
<path fill="none" stroke="#191970" d="M1207.5,-123.3906C1207.5,-114.8657 1207.5,-102.1392 1207.5,-91.4235"/>
<polygon fill="#191970" stroke="#191970" points="1211.0001,-91.2448 1207.5,-81.2449 1204.0001,-91.2449 1211.0001,-91.2448"/>
</g>
</g>
</svg>
