<?xml version="1.0" encoding="UTF-8" standalone="no"?>
<!DOCTYPE svg PUBLIC "-//W3C//DTD SVG 1.1//EN"
 "http://www.w3.org/Graphics/SVG/1.1/DTD/svg11.dtd">
<!-- Generated by graphviz version 2.40.1 (20161225.0304)
 -->
<!-- Title: nuspell::Condition::match Pages: 1 -->
<svg width="381pt" height="88pt"
 viewBox="0.00 0.00 381.00 88.00" xmlns="http://www.w3.org/2000/svg" xmlns:xlink="http://www.w3.org/1999/xlink">
<g id="graph0" class="graph" transform="scale(1 1) rotate(0) translate(4 84)">
<title>nuspell::Condition::match</title>
<polygon fill="#ffffff" stroke="transparent" points="-4,4 -4,-84 377,-84 377,4 -4,4"/>
<!-- Node5 -->
<g id="node1" class="node">
<title>Node5</title>
<polygon fill="#bfbfbf" stroke="#000000" points="0,-24.5 0,-54.5 95,-54.5 95,-24.5 0,-24.5"/>
<text text-anchor="start" x="8" y="-42.5" font-family="Helvetica,sans-Serif" font-size="10.00" fill="#000000">nuspell::Condition</text>
<text text-anchor="middle" x="47.5" y="-31.5" font-family="Helvetica,sans-Serif" font-size="10.00" fill="#000000">::match</text>
</g>
<!-- Node6 -->
<g id="node2" class="node">
<title>Node6</title>
<g id="a_node2"><a xlink:href="classnuspell_1_1_condition.html#a4e58b08d9e8ac4c3a7a45701ad93b5e9" target="_top" xlink:title="nuspell::Condition\l::match_prefix">
<polygon fill="#ffffff" stroke="#000000" points="131,-49.5 131,-79.5 226,-79.5 226,-49.5 131,-49.5"/>
<text text-anchor="start" x="139" y="-67.5" font-family="Helvetica,sans-Serif" font-size="10.00" fill="#000000">nuspell::Condition</text>
<text text-anchor="middle" x="178.5" y="-56.5" font-family="Helvetica,sans-Serif" font-size="10.00" fill="#000000">::match_prefix</text>
</a>
</g>
</g>
<!-- Node5&#45;&gt;Node6 -->
<g id="edge1" class="edge">
<title>Node5&#45;&gt;Node6</title>
<path fill="none" stroke="#191970" d="M105.0721,-50.487C113.6135,-52.1171 122.3375,-53.782 130.6514,-55.3686"/>
<polygon fill="#191970" stroke="#191970" points="105.6434,-47.033 95.1646,-48.5963 104.3312,-53.9089 105.6434,-47.033"/>
</g>
<!-- Node8 -->
<g id="node4" class="node">
<title>Node8</title>
<g id="a_node4"><a xlink:href="classnuspell_1_1_condition.html#abf7a7167c9bd5b62f50bd73a14efefcb" target="_top" xlink:title="nuspell::Condition\l::match_suffix">
<polygon fill="#ffffff" stroke="#000000" points="131,-.5 131,-30.5 226,-30.5 226,-.5 131,-.5"/>
<text text-anchor="start" x="139" y="-18.5" font-family="Helvetica,sans-Serif" font-size="10.00" fill="#000000">nuspell::Condition</text>
<text text-anchor="middle" x="178.5" y="-7.5" font-family="Helvetica,sans-Serif" font-size="10.00" fill="#000000">::match_suffix</text>
</a>
</g>
</g>
<!-- Node5&#45;&gt;Node8 -->
<g id="edge3" class="edge">
<title>Node5&#45;&gt;Node8</title>
<path fill="none" stroke="#191970" d="M105.0721,-28.9524C113.6135,-27.3876 122.3375,-25.7893 130.6514,-24.2662"/>
<polygon fill="#191970" stroke="#191970" points="104.3701,-25.5227 95.1646,-30.7676 105.6316,-32.4081 104.3701,-25.5227"/>
</g>
<!-- Node7 -->
<g id="node3" class="node">
<title>Node7</title>
<g id="a_node3"><a xlink:href="classnuspell_1_1_prefix.html#a08ae6fbb195985d44c462b8de9304509" target="_top" xlink:title="nuspell::Prefix::check\l_condition">
<polygon fill="#ffffff" stroke="#000000" points="262,-49.5 262,-79.5 373,-79.5 373,-49.5 262,-49.5"/>
<text text-anchor="start" x="270" y="-67.5" font-family="Helvetica,sans-Serif" font-size="10.00" fill="#000000">nuspell::Prefix::check</text>
<text text-anchor="middle" x="317.5" y="-56.5" font-family="Helvetica,sans-Serif" font-size="10.00" fill="#000000">_condition</text>
</a>
</g>
</g>
<!-- Node6&#45;&gt;Node7 -->
<g id="edge2" class="edge">
<title>Node6&#45;&gt;Node7</title>
<path fill="none" stroke="#191970" d="M236.4632,-64.5C244.8887,-64.5 253.5469,-64.5 261.9237,-64.5"/>
<polygon fill="#191970" stroke="#191970" points="236.3359,-61.0001 226.3359,-64.5 236.3359,-68.0001 236.3359,-61.0001"/>
</g>
<!-- Node9 -->
<g id="node5" class="node">
<title>Node9</title>
<g id="a_node5"><a xlink:href="classnuspell_1_1_suffix.html#a9ba986b5d8df28288490764aeda52340" target="_top" xlink:title="nuspell::Suffix::check\l_condition">
<polygon fill="#ffffff" stroke="#000000" points="262,-.5 262,-30.5 373,-30.5 373,-.5 262,-.5"/>
<text text-anchor="start" x="270" y="-18.5" font-family="Helvetica,sans-Serif" font-size="10.00" fill="#000000">nuspell::Suffix::check</text>
<text text-anchor="middle" x="317.5" y="-7.5" font-family="Helvetica,sans-Serif" font-size="10.00" fill="#000000">_condition</text>
</a>
</g>
</g>
<!-- Node8&#45;&gt;Node9 -->
<g id="edge4" class="edge">
<title>Node8&#45;&gt;Node9</title>
<path fill="none" stroke="#191970" d="M236.4632,-15.5C244.8887,-15.5 253.5469,-15.5 261.9237,-15.5"/>
<polygon fill="#191970" stroke="#191970" points="236.3359,-12.0001 226.3359,-15.5 236.3359,-19.0001 236.3359,-12.0001"/>
</g>
</g>
</svg>
