<?xml version="1.0" encoding="UTF-8" standalone="no"?>
<!DOCTYPE svg PUBLIC "-//W3C//DTD SVG 1.1//EN"
 "http://www.w3.org/Graphics/SVG/1.1/DTD/svg11.dtd">
<!-- Generated by graphviz version 2.40.1 (20161225.0304)
 -->
<!-- Title: nuspell::Locale_Input::cvt_for_byte_dict Pages: 1 -->
<svg width="394pt" height="102pt"
 viewBox="0.00 0.00 394.00 101.50" xmlns="http://www.w3.org/2000/svg" xmlns:xlink="http://www.w3.org/1999/xlink">
<g id="graph0" class="graph" transform="scale(1 1) rotate(0) translate(4 97.5)">
<title>nuspell::Locale_Input::cvt_for_byte_dict</title>
<polygon fill="#ffffff" stroke="transparent" points="-4,4 -4,-97.5 390,-97.5 390,4 -4,4"/>
<!-- Node5 -->
<g id="node1" class="node">
<title>Node5</title>
<polygon fill="#bfbfbf" stroke="#000000" points="0,-24.5 0,-54.5 109,-54.5 109,-24.5 0,-24.5"/>
<text text-anchor="start" x="8" y="-42.5" font-family="Helvetica,sans-Serif" font-size="10.00" fill="#000000">nuspell::Locale_Input</text>
<text text-anchor="middle" x="54.5" y="-31.5" font-family="Helvetica,sans-Serif" font-size="10.00" fill="#000000">::cvt_for_byte_dict</text>
</g>
<!-- Node6 -->
<g id="node2" class="node">
<title>Node6</title>
<g id="a_node2"><a xlink:href="classnuspell_1_1_locale___input.html#aee61c67e1b91158f66ffeb92e493facc" target="_top" xlink:title="nuspell::Locale_Input\l::cvt_for_byte_dict">
<polygon fill="#ffffff" stroke="#000000" points="145,-49.5 145,-79.5 254,-79.5 254,-49.5 145,-49.5"/>
<text text-anchor="start" x="153" y="-67.5" font-family="Helvetica,sans-Serif" font-size="10.00" fill="#000000">nuspell::Locale_Input</text>
<text text-anchor="middle" x="199.5" y="-56.5" font-family="Helvetica,sans-Serif" font-size="10.00" fill="#000000">::cvt_for_byte_dict</text>
</a>
</g>
</g>
<!-- Node5&#45;&gt;Node6 -->
<g id="edge1" class="edge">
<title>Node5&#45;&gt;Node6</title>
<path fill="none" stroke="#191970" d="M109.3183,-48.9514C117.6188,-50.3826 126.2486,-51.8705 134.7354,-53.3337"/>
<polygon fill="#191970" stroke="#191970" points="134.1549,-56.7852 144.6042,-55.0352 135.3443,-49.8869 134.1549,-56.7852"/>
</g>
<!-- Node9 -->
<g id="node5" class="node">
<title>Node9</title>
<g id="a_node5"><a xlink:href="classnuspell_1_1_locale___input.html#af3ed09db18c07ceeeca7e3870b5a3fba" target="_top" xlink:title="nuspell::Locale_Input\l::getloc">
<polygon fill="#ffffff" stroke="#000000" points="145,-.5 145,-30.5 254,-30.5 254,-.5 145,-.5"/>
<text text-anchor="start" x="153" y="-18.5" font-family="Helvetica,sans-Serif" font-size="10.00" fill="#000000">nuspell::Locale_Input</text>
<text text-anchor="middle" x="199.5" y="-7.5" font-family="Helvetica,sans-Serif" font-size="10.00" fill="#000000">::getloc</text>
</a>
</g>
</g>
<!-- Node5&#45;&gt;Node9 -->
<g id="edge4" class="edge">
<title>Node5&#45;&gt;Node9</title>
<path fill="none" stroke="#191970" d="M109.3183,-30.4266C117.6188,-29.0528 126.2486,-27.6244 134.7354,-26.2197"/>
<polygon fill="#191970" stroke="#191970" points="135.31,-29.6723 144.6042,-24.5862 134.1669,-22.7662 135.31,-29.6723"/>
</g>
<!-- Node7 -->
<g id="node3" class="node">
<title>Node7</title>
<g id="a_node3"><a xlink:href="namespacenuspell.html#a4bbcd07d775ff9e19d67c9c68167dbf2" target="_top" xlink:title="nuspell::to_narrow">
<polygon fill="#ffffff" stroke="#000000" points="290,-74 290,-93 386,-93 386,-74 290,-74"/>
<text text-anchor="middle" x="338" y="-81" font-family="Helvetica,sans-Serif" font-size="10.00" fill="#000000">nuspell::to_narrow</text>
</a>
</g>
</g>
<!-- Node6&#45;&gt;Node7 -->
<g id="edge2" class="edge">
<title>Node6&#45;&gt;Node7</title>
<path fill="none" stroke="#191970" d="M254.2389,-72.0093C262.6247,-73.1597 271.3077,-74.3509 279.7657,-75.5112"/>
<polygon fill="#191970" stroke="#191970" points="279.5531,-79.0147 289.936,-76.9064 280.5045,-72.0797 279.5531,-79.0147"/>
</g>
<!-- Node8 -->
<g id="node4" class="node">
<title>Node8</title>
<g id="a_node4"><a xlink:href="namespacenuspell.html#a7f99b7ec5f56db773581d659bb42a240" target="_top" xlink:title="nuspell::to_wide">
<polygon fill="#ffffff" stroke="#000000" points="294.5,-36 294.5,-55 381.5,-55 381.5,-36 294.5,-36"/>
<text text-anchor="middle" x="338" y="-43" font-family="Helvetica,sans-Serif" font-size="10.00" fill="#000000">nuspell::to_wide</text>
</a>
</g>
</g>
<!-- Node6&#45;&gt;Node8 -->
<g id="edge3" class="edge">
<title>Node6&#45;&gt;Node8</title>
<path fill="none" stroke="#191970" d="M254.2389,-56.9907C264.1156,-55.6358 274.4047,-54.2243 284.2529,-52.8732"/>
<polygon fill="#191970" stroke="#191970" points="284.8888,-56.3189 294.3203,-51.4922 283.9374,-49.3838 284.8888,-56.3189"/>
</g>
</g>
</svg>
