<?xml version="1.0" encoding="UTF-8" standalone="no"?>
<!DOCTYPE svg PUBLIC "-//W3C//DTD SVG 1.1//EN"
 "http://www.w3.org/Graphics/SVG/1.1/DTD/svg11.dtd">
<!-- Generated by graphviz version 2.40.1 (20161225.0304)
 -->
<!-- Title: nuspell::String_Set::contains Pages: 1 -->
<svg width="305pt" height="198pt"
 viewBox="0.00 0.00 305.00 198.00" xmlns="http://www.w3.org/2000/svg" xmlns:xlink="http://www.w3.org/1999/xlink">
<g id="graph0" class="graph" transform="scale(1 1) rotate(0) translate(4 194)">
<title>nuspell::String_Set::contains</title>
<polygon fill="#ffffff" stroke="transparent" points="-4,4 -4,-194 301,-194 301,4 -4,4"/>
<!-- Node30 -->
<g id="node1" class="node">
<title>Node30</title>
<polygon fill="#bfbfbf" stroke="#000000" points="0,-82.5 0,-112.5 99,-112.5 99,-82.5 0,-82.5"/>
<text text-anchor="start" x="8" y="-100.5" font-family="Helvetica,sans-Serif" font-size="10.00" fill="#000000">nuspell::String_Set</text>
<text text-anchor="middle" x="49.5" y="-89.5" font-family="Helvetica,sans-Serif" font-size="10.00" fill="#000000">::contains</text>
</g>
<!-- Node31 -->
<g id="node2" class="node">
<title>Node31</title>
<g id="a_node2"><a xlink:href="namespacenuspell.html#ada376e4da65f832f1ae63e53b0da3fc1" target="_top" xlink:title="nuspell::cross_valid\l_inner_outer">
<polygon fill="#ffffff" stroke="#000000" points="164.5,-159.5 164.5,-189.5 267.5,-189.5 267.5,-159.5 164.5,-159.5"/>
<text text-anchor="start" x="172.5" y="-177.5" font-family="Helvetica,sans-Serif" font-size="10.00" fill="#000000">nuspell::cross_valid</text>
<text text-anchor="middle" x="216" y="-166.5" font-family="Helvetica,sans-Serif" font-size="10.00" fill="#000000">_inner_outer</text>
</a>
</g>
</g>
<!-- Node30&#45;&gt;Node31 -->
<g id="edge1" class="edge">
<title>Node30&#45;&gt;Node31</title>
<path fill="none" stroke="#191970" d="M78.8086,-118.3869C94.833,-129.0951 115.369,-141.6984 135,-150.5 144.2344,-154.6403 154.3753,-158.2922 164.2632,-161.4183"/>
<polygon fill="#191970" stroke="#191970" points="80.6414,-115.4006 70.4047,-112.669 76.7037,-121.1881 80.6414,-115.4006"/>
</g>
<!-- Node32 -->
<g id="node3" class="node">
<title>Node32</title>
<g id="a_node3"><a xlink:href="structnuspell_1_1_dict___base.html#af7acf718db58d8f45ff73e36f308990c" target="_top" xlink:title="nuspell::Dict_Base\l::is_valid_inside_compound">
<polygon fill="#ffffff" stroke="#000000" points="147.5,-110.5 147.5,-140.5 284.5,-140.5 284.5,-110.5 147.5,-110.5"/>
<text text-anchor="start" x="155.5" y="-128.5" font-family="Helvetica,sans-Serif" font-size="10.00" fill="#000000">nuspell::Dict_Base</text>
<text text-anchor="middle" x="216" y="-117.5" font-family="Helvetica,sans-Serif" font-size="10.00" fill="#000000">::is_valid_inside_compound</text>
</a>
</g>
</g>
<!-- Node30&#45;&gt;Node32 -->
<g id="edge2" class="edge">
<title>Node30&#45;&gt;Node32</title>
<path fill="none" stroke="#191970" d="M109.1749,-107.5354C121.5252,-109.6123 134.63,-111.8162 147.2736,-113.9424"/>
<polygon fill="#191970" stroke="#191970" points="109.4467,-104.0321 99.0047,-105.8251 108.2858,-110.9351 109.4467,-104.0321"/>
</g>
<!-- Node33 -->
<g id="node4" class="node">
<title>Node33</title>
<g id="a_node4"><a xlink:href="structnuspell_1_1_dict___base.html#a23db26fcaf2e928ca2ab1a3d172dbf22" target="_top" xlink:title="nuspell::Dict_Base\l::strip_pfx_then_sfx\l_comm_2">
<polygon fill="#ffffff" stroke="#000000" points="164.5,-50 164.5,-91 267.5,-91 267.5,-50 164.5,-50"/>
<text text-anchor="start" x="172.5" y="-79" font-family="Helvetica,sans-Serif" font-size="10.00" fill="#000000">nuspell::Dict_Base</text>
<text text-anchor="start" x="172.5" y="-68" font-family="Helvetica,sans-Serif" font-size="10.00" fill="#000000">::strip_pfx_then_sfx</text>
<text text-anchor="middle" x="216" y="-57" font-family="Helvetica,sans-Serif" font-size="10.00" fill="#000000">_comm_2</text>
</a>
</g>
</g>
<!-- Node30&#45;&gt;Node33 -->
<g id="edge3" class="edge">
<title>Node30&#45;&gt;Node33</title>
<path fill="none" stroke="#191970" d="M108.8842,-87.8701C127.017,-84.9297 146.7999,-81.7216 164.3742,-78.8718"/>
<polygon fill="#191970" stroke="#191970" points="108.3155,-84.4165 99.0047,-89.4722 109.436,-91.3263 108.3155,-84.4165"/>
</g>
<!-- Node34 -->
<g id="node5" class="node">
<title>Node34</title>
<g id="a_node5"><a xlink:href="classnuspell_1_1_affix___table.html#ac8974546ec97f43188100596f41ca493" target="_top" xlink:title="nuspell::Affix_Table\l\&lt; CharT \&gt;::has_continuation_flag">
<polygon fill="#ffffff" stroke="#000000" points="135,-.5 135,-30.5 297,-30.5 297,-.5 135,-.5"/>
<text text-anchor="start" x="143" y="-18.5" font-family="Helvetica,sans-Serif" font-size="10.00" fill="#000000">nuspell::Affix_Table</text>
<text text-anchor="middle" x="216" y="-7.5" font-family="Helvetica,sans-Serif" font-size="10.00" fill="#000000">&lt; CharT &gt;::has_continuation_flag</text>
</a>
</g>
</g>
<!-- Node30&#45;&gt;Node34 -->
<g id="edge4" class="edge">
<title>Node30&#45;&gt;Node34</title>
<path fill="none" stroke="#191970" d="M77.0079,-76.1875C93.1991,-64.4203 114.4715,-50.257 135,-40.5 142.8423,-36.7726 151.3722,-33.4354 159.8562,-30.5066"/>
<polygon fill="#191970" stroke="#191970" points="74.5254,-73.6707 68.5725,-82.4351 78.6916,-79.2959 74.5254,-73.6707"/>
</g>
</g>
</svg>
