<?xml version="1.0" encoding="UTF-8" standalone="no"?>
<!DOCTYPE svg PUBLIC "-//W3C//DTD SVG 1.1//EN"
 "http://www.w3.org/Graphics/SVG/1.1/DTD/svg11.dtd">
<!-- Generated by graphviz version 2.40.1 (20161225.0304)
 -->
<!-- Title: nuspell::String_Set::begin Pages: 1 -->
<svg width="280pt" height="433pt"
 viewBox="0.00 0.00 280.00 432.50" xmlns="http://www.w3.org/2000/svg" xmlns:xlink="http://www.w3.org/1999/xlink">
<g id="graph0" class="graph" transform="scale(1 1) rotate(0) translate(4 428.5)">
<title>nuspell::String_Set::begin</title>
<polygon fill="#ffffff" stroke="transparent" points="-4,4 -4,-428.5 276,-428.5 276,4 -4,4"/>
<!-- Node11 -->
<g id="node1" class="node">
<title>Node11</title>
<polygon fill="#bfbfbf" stroke="#000000" points="0,-198 0,-228 99,-228 99,-198 0,-198"/>
<text text-anchor="start" x="8" y="-216" font-family="Helvetica,sans-Serif" font-size="10.00" fill="#000000">nuspell::String_Set</text>
<text text-anchor="middle" x="49.5" y="-205" font-family="Helvetica,sans-Serif" font-size="10.00" fill="#000000">::begin</text>
</g>
<!-- Node12 -->
<g id="node2" class="node">
<title>Node12</title>
<g id="a_node2"><a xlink:href="classnuspell_1_1_string___set.html#a74f43aeb2697f0566de81567c6e94e11" target="_top" xlink:title="nuspell::String_Set\l\&lt; char16_t \&gt;::sort_uniq">
<polygon fill="#ffffff" stroke="#000000" points="144.5,-394 144.5,-424 262.5,-424 262.5,-394 144.5,-394"/>
<text text-anchor="start" x="152.5" y="-412" font-family="Helvetica,sans-Serif" font-size="10.00" fill="#000000">nuspell::String_Set</text>
<text text-anchor="middle" x="203.5" y="-401" font-family="Helvetica,sans-Serif" font-size="10.00" fill="#000000">&lt; char16_t &gt;::sort_uniq</text>
</a>
</g>
</g>
<!-- Node11&#45;&gt;Node12 -->
<g id="edge1" class="edge">
<title>Node11&#45;&gt;Node12</title>
<path fill="none" stroke="#191970" d="M55.4677,-237.9979C65.5938,-275.1701 89.6075,-344.9269 135,-385 138.8731,-388.4193 143.2627,-391.3589 147.9039,-393.8848"/>
<polygon fill="#191970" stroke="#191970" points="58.7725,-236.7991 52.8678,-228.0022 51.9979,-238.5613 58.7725,-236.7991"/>
</g>
<!-- Node13 -->
<g id="node3" class="node">
<title>Node13</title>
<g id="a_node3"><a xlink:href="classnuspell_1_1_string___set.html#ab1f37692d007cd4991d39892bd92f8f9" target="_top" xlink:title="nuspell::String_Set\l\&lt; char16_t \&gt;::insert">
<polygon fill="#ffffff" stroke="#000000" points="152.5,-345 152.5,-375 254.5,-375 254.5,-345 152.5,-345"/>
<text text-anchor="start" x="160.5" y="-363" font-family="Helvetica,sans-Serif" font-size="10.00" fill="#000000">nuspell::String_Set</text>
<text text-anchor="middle" x="203.5" y="-352" font-family="Helvetica,sans-Serif" font-size="10.00" fill="#000000">&lt; char16_t &gt;::insert</text>
</a>
</g>
</g>
<!-- Node11&#45;&gt;Node13 -->
<g id="edge2" class="edge">
<title>Node11&#45;&gt;Node13</title>
<path fill="none" stroke="#191970" d="M60.6735,-237.5129C74.443,-265.145 100.3395,-309.6413 135,-336 140.2157,-339.9665 146.1389,-343.3118 152.2668,-346.1247"/>
<polygon fill="#191970" stroke="#191970" points="63.6569,-235.6423 56.1554,-228.1604 57.3538,-238.6873 63.6569,-235.6423"/>
</g>
<!-- Node14 -->
<g id="node4" class="node">
<title>Node14</title>
<g id="a_node4"><a xlink:href="classnuspell_1_1_string___set.html#a37d21f20fe6b33cf9e98c7b70d76f24f" target="_top" xlink:title="nuspell::String_Set\l\&lt; char16_t \&gt;::find">
<polygon fill="#ffffff" stroke="#000000" points="154,-296 154,-326 253,-326 253,-296 154,-296"/>
<text text-anchor="start" x="162" y="-314" font-family="Helvetica,sans-Serif" font-size="10.00" fill="#000000">nuspell::String_Set</text>
<text text-anchor="middle" x="203.5" y="-303" font-family="Helvetica,sans-Serif" font-size="10.00" fill="#000000">&lt; char16_t &gt;::find</text>
</a>
</g>
</g>
<!-- Node11&#45;&gt;Node14 -->
<g id="edge3" class="edge">
<title>Node11&#45;&gt;Node14</title>
<path fill="none" stroke="#191970" d="M70.9855,-235.7081C87.2801,-251.8442 110.9153,-273.0429 135,-287 140.8875,-290.4118 147.3391,-293.4521 153.8548,-296.1259"/>
<polygon fill="#191970" stroke="#191970" points="73.1269,-232.8959 63.6063,-228.2473 68.15,-237.8184 73.1269,-232.8959"/>
</g>
<!-- Node15 -->
<g id="node5" class="node">
<title>Node15</title>
<g id="a_node5"><a xlink:href="classnuspell_1_1_string___set.html#ac42caccbd9ed0fd43844544e4a6dc0e4" target="_top" xlink:title="nuspell::String_Set\l\&lt; char16_t \&gt;::lower_bound">
<polygon fill="#ffffff" stroke="#000000" points="137,-247 137,-277 270,-277 270,-247 137,-247"/>
<text text-anchor="start" x="145" y="-265" font-family="Helvetica,sans-Serif" font-size="10.00" fill="#000000">nuspell::String_Set</text>
<text text-anchor="middle" x="203.5" y="-254" font-family="Helvetica,sans-Serif" font-size="10.00" fill="#000000">&lt; char16_t &gt;::lower_bound</text>
</a>
</g>
</g>
<!-- Node11&#45;&gt;Node15 -->
<g id="edge4" class="edge">
<title>Node11&#45;&gt;Node15</title>
<path fill="none" stroke="#191970" d="M106.8857,-231.2591C123.1286,-236.4273 140.619,-241.9924 156.195,-246.9484"/>
<polygon fill="#191970" stroke="#191970" points="107.5522,-227.7983 96.9617,-228.1014 105.4297,-234.4688 107.5522,-227.7983"/>
</g>
<!-- Node16 -->
<g id="node6" class="node">
<title>Node16</title>
<g id="a_node6"><a xlink:href="classnuspell_1_1_string___set.html#a787f62831f35de5f2347c68912205565" target="_top" xlink:title="nuspell::String_Set\l\&lt; char16_t \&gt;::upper_bound">
<polygon fill="#ffffff" stroke="#000000" points="136.5,-198 136.5,-228 270.5,-228 270.5,-198 136.5,-198"/>
<text text-anchor="start" x="144.5" y="-216" font-family="Helvetica,sans-Serif" font-size="10.00" fill="#000000">nuspell::String_Set</text>
<text text-anchor="middle" x="203.5" y="-205" font-family="Helvetica,sans-Serif" font-size="10.00" fill="#000000">&lt; char16_t &gt;::upper_bound</text>
</a>
</g>
</g>
<!-- Node11&#45;&gt;Node16 -->
<g id="edge5" class="edge">
<title>Node11&#45;&gt;Node16</title>
<path fill="none" stroke="#191970" d="M109.2971,-213C118.1563,-213 127.3358,-213 136.3331,-213"/>
<polygon fill="#191970" stroke="#191970" points="109.0743,-209.5001 99.0743,-213 109.0742,-216.5001 109.0743,-209.5001"/>
</g>
<!-- Node17 -->
<g id="node7" class="node">
<title>Node17</title>
<g id="a_node7"><a xlink:href="classnuspell_1_1_string___set.html#a4e8fd052284151b5e18c71906c450611" target="_top" xlink:title="nuspell::String_Set\l\&lt; char16_t \&gt;::equal_range">
<polygon fill="#ffffff" stroke="#000000" points="138,-149 138,-179 269,-179 269,-149 138,-149"/>
<text text-anchor="start" x="146" y="-167" font-family="Helvetica,sans-Serif" font-size="10.00" fill="#000000">nuspell::String_Set</text>
<text text-anchor="middle" x="203.5" y="-156" font-family="Helvetica,sans-Serif" font-size="10.00" fill="#000000">&lt; char16_t &gt;::equal_range</text>
</a>
</g>
</g>
<!-- Node11&#45;&gt;Node17 -->
<g id="edge6" class="edge">
<title>Node11&#45;&gt;Node17</title>
<path fill="none" stroke="#191970" d="M106.8857,-194.7409C123.1286,-189.5727 140.619,-184.0076 156.195,-179.0516"/>
<polygon fill="#191970" stroke="#191970" points="105.4297,-191.5312 96.9617,-197.8986 107.5522,-198.2017 105.4297,-191.5312"/>
</g>
<!-- Node18 -->
<g id="node8" class="node">
<title>Node18</title>
<g id="a_node8"><a xlink:href="classnuspell_1_1_hash___multiset.html#ad3a00cea7680614167e392c7c6df5c90" target="_top" xlink:title="nuspell::Hash_Multiset\l::equal_range_nonconst\l_unsafe">
<polygon fill="#ffffff" stroke="#000000" points="143.5,-88.5 143.5,-129.5 263.5,-129.5 263.5,-88.5 143.5,-88.5"/>
<text text-anchor="start" x="151.5" y="-117.5" font-family="Helvetica,sans-Serif" font-size="10.00" fill="#000000">nuspell::Hash_Multiset</text>
<text text-anchor="start" x="151.5" y="-106.5" font-family="Helvetica,sans-Serif" font-size="10.00" fill="#000000">::equal_range_nonconst</text>
<text text-anchor="middle" x="203.5" y="-95.5" font-family="Helvetica,sans-Serif" font-size="10.00" fill="#000000">_unsafe</text>
</a>
</g>
</g>
<!-- Node11&#45;&gt;Node18 -->
<g id="edge7" class="edge">
<title>Node11&#45;&gt;Node18</title>
<path fill="none" stroke="#191970" d="M72.0201,-190.6675C88.4992,-175.1314 111.9207,-154.6579 135,-140 140.8401,-136.2909 147.198,-132.7889 153.6091,-129.5672"/>
<polygon fill="#191970" stroke="#191970" points="69.3212,-188.4061 64.52,-197.8506 74.163,-193.4615 69.3212,-188.4061"/>
</g>
<!-- Node19 -->
<g id="node9" class="node">
<title>Node19</title>
<g id="a_node9"><a xlink:href="classnuspell_1_1_hash___multiset.html#a615f7b3ae53f0cef400668746d8be501" target="_top" xlink:title="nuspell::Hash_Multiset\l::equal_range">
<polygon fill="#ffffff" stroke="#000000" points="145.5,-39 145.5,-69 261.5,-69 261.5,-39 145.5,-39"/>
<text text-anchor="start" x="153.5" y="-57" font-family="Helvetica,sans-Serif" font-size="10.00" fill="#000000">nuspell::Hash_Multiset</text>
<text text-anchor="middle" x="203.5" y="-46" font-family="Helvetica,sans-Serif" font-size="10.00" fill="#000000">::equal_range</text>
</a>
</g>
</g>
<!-- Node11&#45;&gt;Node19 -->
<g id="edge8" class="edge">
<title>Node11&#45;&gt;Node19</title>
<path fill="none" stroke="#191970" d="M59.21,-188.576C72.2328,-158.756 98.0709,-108.644 135,-79 139.7387,-75.1961 145.1086,-71.9397 150.7064,-69.1593"/>
<polygon fill="#191970" stroke="#191970" points="55.9587,-187.2784 55.2874,-197.852 62.4059,-190.0049 55.9587,-187.2784"/>
</g>
<!-- Node20 -->
<g id="node10" class="node">
<title>Node20</title>
<g id="a_node10"><a xlink:href="structnuspell_1_1sv__hash.html#ab76772bf628157212781d7ac2e95f3d8" target="_top" xlink:title="nuspell::sv_hash::operator()">
<polygon fill="#ffffff" stroke="#000000" points="135,-.5 135,-19.5 272,-19.5 272,-.5 135,-.5"/>
<text text-anchor="middle" x="203.5" y="-7.5" font-family="Helvetica,sans-Serif" font-size="10.00" fill="#000000">nuspell::sv_hash::operator()</text>
</a>
</g>
</g>
<!-- Node11&#45;&gt;Node20 -->
<g id="edge9" class="edge">
<title>Node11&#45;&gt;Node20</title>
<path fill="none" stroke="#191970" d="M54.2788,-188.0545C63.1375,-148.644 85.8675,-72.1367 135,-30 140.0782,-25.6448 146.062,-22.2371 152.3433,-19.5709"/>
<polygon fill="#191970" stroke="#191970" points="50.841,-187.3943 52.1824,-197.9039 57.6876,-188.8517 50.841,-187.3943"/>
</g>
</g>
</svg>
