<?xml version="1.0" encoding="UTF-8" standalone="no"?>
<!DOCTYPE svg PUBLIC "-//W3C//DTD SVG 1.1//EN"
 "http://www.w3.org/Graphics/SVG/1.1/DTD/svg11.dtd">
<!-- Generated by graphviz version 2.40.1 (20161225.0304)
 -->
<!-- Title: nuspell::my_ctype&lt; char &gt;::my_ctype Pages: 1 -->
<svg width="394pt" height="39pt"
 viewBox="0.00 0.00 394.00 39.00" xmlns="http://www.w3.org/2000/svg" xmlns:xlink="http://www.w3.org/1999/xlink">
<g id="graph0" class="graph" transform="scale(1 1) rotate(0) translate(4 35)">
<title>nuspell::my_ctype&lt; char &gt;::my_ctype</title>
<polygon fill="#ffffff" stroke="transparent" points="-4,4 -4,-35 390,-35 390,4 -4,4"/>
<!-- Node0 -->
<g id="node1" class="node">
<title>Node0</title>
<polygon fill="#bfbfbf" stroke="#000000" points="0,-.5 0,-30.5 102,-30.5 102,-.5 0,-.5"/>
<text text-anchor="start" x="8" y="-18.5" font-family="Helvetica,sans-Serif" font-size="10.00" fill="#000000">nuspell::my_ctype&lt;</text>
<text text-anchor="middle" x="51" y="-7.5" font-family="Helvetica,sans-Serif" font-size="10.00" fill="#000000"> char &gt;::my_ctype</text>
</g>
<!-- Node1 -->
<g id="node2" class="node">
<title>Node1</title>
<g id="a_node2"><a xlink:href="namespacenuspell.html#a22e22ceec23aafebbe182feae2973671" target="_top" xlink:title="nuspell::fill_ctype">
<polygon fill="#ffffff" stroke="#000000" points="138,-6 138,-25 230,-25 230,-6 138,-6"/>
<text text-anchor="middle" x="184" y="-13" font-family="Helvetica,sans-Serif" font-size="10.00" fill="#000000">nuspell::fill_ctype</text>
</a>
</g>
</g>
<!-- Node0&#45;&gt;Node1 -->
<g id="edge1" class="edge">
<title>Node0&#45;&gt;Node1</title>
<path fill="none" stroke="#191970" d="M102.0409,-15.5C110.3737,-15.5 119.0493,-15.5 127.5041,-15.5"/>
<polygon fill="#191970" stroke="#191970" points="127.6698,-19.0001 137.6698,-15.5 127.6697,-12.0001 127.6698,-19.0001"/>
</g>
<!-- Node2 -->
<g id="node3" class="node">
<title>Node2</title>
<g id="a_node3"><a xlink:href="namespacenuspell.html#a25a8f9abb37fff312a261e20e6cbc29c" target="_top" xlink:title="nuspell::get_char_mask">
<polygon fill="#ffffff" stroke="#000000" points="266,-6 266,-25 386,-25 386,-6 266,-6"/>
<text text-anchor="middle" x="326" y="-13" font-family="Helvetica,sans-Serif" font-size="10.00" fill="#000000">nuspell::get_char_mask</text>
</a>
</g>
</g>
<!-- Node1&#45;&gt;Node2 -->
<g id="edge2" class="edge">
<title>Node1&#45;&gt;Node2</title>
<path fill="none" stroke="#191970" d="M230.1033,-15.5C238.3104,-15.5 247.0257,-15.5 255.7264,-15.5"/>
<polygon fill="#191970" stroke="#191970" points="255.9023,-19.0001 265.9022,-15.5 255.9022,-12.0001 255.9023,-19.0001"/>
</g>
</g>
</svg>
