<?xml version="1.0" encoding="UTF-8" standalone="no"?>
<!DOCTYPE svg PUBLIC "-//W3C//DTD SVG 1.1//EN"
 "http://www.w3.org/Graphics/SVG/1.1/DTD/svg11.dtd">
<!-- Generated by graphviz version 2.40.1 (20161225.0304)
 -->
<!-- Title: nuspell::Affix_Table&lt; CharT, AffixT &gt; Pages: 1 -->
<svg width="258pt" height="117pt"
 viewBox="0.00 0.00 258.00 117.00" xmlns="http://www.w3.org/2000/svg" xmlns:xlink="http://www.w3.org/1999/xlink">
<g id="graph0" class="graph" transform="scale(1 1) rotate(0) translate(4 113)">
<title>nuspell::Affix_Table&lt; CharT, AffixT &gt;</title>
<polygon fill="#ffffff" stroke="transparent" points="-4,4 -4,-113 254,-113 254,4 -4,4"/>
<!-- Node2 -->
<g id="node1" class="node">
<title>Node2</title>
<polygon fill="#bfbfbf" stroke="#000000" points="82,-.5 82,-30.5 185,-30.5 185,-.5 82,-.5"/>
<text text-anchor="start" x="90" y="-18.5" font-family="Helvetica,sans-Serif" font-size="10.00" fill="#000000">nuspell::Affix_Table</text>
<text text-anchor="middle" x="133.5" y="-7.5" font-family="Helvetica,sans-Serif" font-size="10.00" fill="#000000">&lt; CharT, AffixT &gt;</text>
</g>
<!-- Node3 -->
<g id="node2" class="node">
<title>Node3</title>
<g id="a_node2"><a xlink:href="classnuspell_1_1_hash___multiset.html" target="_top" xlink:title="Affix_Table_Base\&lt; CharT,\l AffixT \&gt;">
<polygon fill="#ffffff" stroke="#000000" points="0,-78.5 0,-108.5 133,-108.5 133,-78.5 0,-78.5"/>
<text text-anchor="start" x="8" y="-96.5" font-family="Helvetica,sans-Serif" font-size="10.00" fill="#000000">Affix_Table_Base&lt; CharT,</text>
<text text-anchor="middle" x="66.5" y="-85.5" font-family="Helvetica,sans-Serif" font-size="10.00" fill="#000000"> AffixT &gt;</text>
</a>
</g>
</g>
<!-- Node3&#45;&gt;Node2 -->
<g id="edge1" class="edge">
<title>Node3&#45;&gt;Node2</title>
<path fill="none" stroke="#8b1a1a" d="M86.2465,-70.5116C97.2604,-57.6894 110.6745,-42.0729 120.3928,-30.7592"/>
<polygon fill="#8b1a1a" stroke="#8b1a1a" points="83.2792,-68.5945 79.4183,-78.4608 88.5892,-73.1557 83.2792,-68.5945"/>
</g>
<!-- Node4 -->
<g id="node3" class="node">
<title>Node4</title>
<g id="a_node3"><a xlink:href="classnuspell_1_1_string___set.html" target="_top" xlink:title="nuspell::String_Set\l\&lt; char16_t \&gt;">
<polygon fill="#ffffff" stroke="#000000" points="151,-78.5 151,-108.5 250,-108.5 250,-78.5 151,-78.5"/>
<text text-anchor="start" x="159" y="-96.5" font-family="Helvetica,sans-Serif" font-size="10.00" fill="#000000">nuspell::String_Set</text>
<text text-anchor="middle" x="200.5" y="-85.5" font-family="Helvetica,sans-Serif" font-size="10.00" fill="#000000">&lt; char16_t &gt;</text>
</a>
</g>
</g>
<!-- Node4&#45;&gt;Node2 -->
<g id="edge2" class="edge">
<title>Node4&#45;&gt;Node2</title>
<path fill="none" stroke="#9a32cd" stroke-dasharray="5,2" d="M180.7535,-70.5116C169.7396,-57.6894 156.3255,-42.0729 146.6072,-30.7592"/>
<polygon fill="#9a32cd" stroke="#9a32cd" points="178.4108,-73.1557 187.5817,-78.4608 183.7208,-68.5945 178.4108,-73.1557"/>
<text text-anchor="middle" x="202.5" y="-52" font-family="Helvetica,sans-Serif" font-size="10.00" fill="#000000"> all_cont_flags</text>
</g>
</g>
</svg>
