<?xml version="1.0" encoding="UTF-8" standalone="no"?>
<!DOCTYPE svg PUBLIC "-//W3C//DTD SVG 1.1//EN"
 "http://www.w3.org/Graphics/SVG/1.1/DTD/svg11.dtd">
<!-- Generated by graphviz version 2.40.1 (20161225.0304)
 -->
<!-- Title: nuspell::Affix_Table&lt; CharT, AffixT &gt; Pages: 1 -->
<svg width="141pt" height="106pt"
 viewBox="0.00 0.00 141.00 106.00" xmlns="http://www.w3.org/2000/svg" xmlns:xlink="http://www.w3.org/1999/xlink">
<g id="graph0" class="graph" transform="scale(1 1) rotate(0) translate(4 102)">
<title>nuspell::Affix_Table&lt; CharT, AffixT &gt;</title>
<polygon fill="#ffffff" stroke="transparent" points="-4,4 -4,-102 137,-102 137,4 -4,4"/>
<!-- Node0 -->
<g id="node1" class="node">
<title>Node0</title>
<polygon fill="#bfbfbf" stroke="#000000" points="15,-.5 15,-30.5 118,-30.5 118,-.5 15,-.5"/>
<text text-anchor="start" x="23" y="-18.5" font-family="Helvetica,sans-Serif" font-size="10.00" fill="#000000">nuspell::Affix_Table</text>
<text text-anchor="middle" x="66.5" y="-7.5" font-family="Helvetica,sans-Serif" font-size="10.00" fill="#000000">&lt; CharT, AffixT &gt;</text>
</g>
<!-- Node1 -->
<g id="node2" class="node">
<title>Node1</title>
<g id="a_node2"><a xlink:href="classnuspell_1_1_hash___multiset.html" target="_top" xlink:title="Affix_Table_Base\&lt; CharT,\l AffixT \&gt;">
<polygon fill="#ffffff" stroke="#000000" points="0,-67.5 0,-97.5 133,-97.5 133,-67.5 0,-67.5"/>
<text text-anchor="start" x="8" y="-85.5" font-family="Helvetica,sans-Serif" font-size="10.00" fill="#000000">Affix_Table_Base&lt; CharT,</text>
<text text-anchor="middle" x="66.5" y="-74.5" font-family="Helvetica,sans-Serif" font-size="10.00" fill="#000000"> AffixT &gt;</text>
</a>
</g>
</g>
<!-- Node1&#45;&gt;Node0 -->
<g id="edge1" class="edge">
<title>Node1&#45;&gt;Node0</title>
<path fill="none" stroke="#8b1a1a" d="M66.5,-57.0249C66.5,-48.128 66.5,-38.4287 66.5,-30.6432"/>
<polygon fill="#8b1a1a" stroke="#8b1a1a" points="63.0001,-57.2966 66.5,-67.2967 70.0001,-57.2967 63.0001,-57.2966"/>
</g>
</g>
</svg>
