<?xml version="1.0" encoding="UTF-8" standalone="no"?>
<!DOCTYPE svg PUBLIC "-//W3C//DTD SVG 1.1//EN"
 "http://www.w3.org/Graphics/SVG/1.1/DTD/svg11.dtd">
<!-- Generated by graphviz version 2.40.1 (20161225.0304)
 -->
<!-- Title: nuspell::Condition::match_prefix Pages: 1 -->
<svg width="250pt" height="39pt"
 viewBox="0.00 0.00 250.00 39.00" xmlns="http://www.w3.org/2000/svg" xmlns:xlink="http://www.w3.org/1999/xlink">
<g id="graph0" class="graph" transform="scale(1 1) rotate(0) translate(4 35)">
<title>nuspell::Condition::match_prefix</title>
<polygon fill="#ffffff" stroke="transparent" points="-4,4 -4,-35 246,-35 246,4 -4,4"/>
<!-- Node12 -->
<g id="node1" class="node">
<title>Node12</title>
<polygon fill="#bfbfbf" stroke="#000000" points="0,-.5 0,-30.5 95,-30.5 95,-.5 0,-.5"/>
<text text-anchor="start" x="8" y="-18.5" font-family="Helvetica,sans-Serif" font-size="10.00" fill="#000000">nuspell::Condition</text>
<text text-anchor="middle" x="47.5" y="-7.5" font-family="Helvetica,sans-Serif" font-size="10.00" fill="#000000">::match_prefix</text>
</g>
<!-- Node13 -->
<g id="node2" class="node">
<title>Node13</title>
<g id="a_node2"><a xlink:href="classnuspell_1_1_prefix.html#a08ae6fbb195985d44c462b8de9304509" target="_top" xlink:title="nuspell::Prefix::check\l_condition">
<polygon fill="#ffffff" stroke="#000000" points="131,-.5 131,-30.5 242,-30.5 242,-.5 131,-.5"/>
<text text-anchor="start" x="139" y="-18.5" font-family="Helvetica,sans-Serif" font-size="10.00" fill="#000000">nuspell::Prefix::check</text>
<text text-anchor="middle" x="186.5" y="-7.5" font-family="Helvetica,sans-Serif" font-size="10.00" fill="#000000">_condition</text>
</a>
</g>
</g>
<!-- Node12&#45;&gt;Node13 -->
<g id="edge1" class="edge">
<title>Node12&#45;&gt;Node13</title>
<path fill="none" stroke="#191970" d="M105.4632,-15.5C113.8887,-15.5 122.5469,-15.5 130.9237,-15.5"/>
<polygon fill="#191970" stroke="#191970" points="105.3359,-12.0001 95.3359,-15.5 105.3359,-19.0001 105.3359,-12.0001"/>
</g>
</g>
</svg>
