<?xml version="1.0" encoding="UTF-8" standalone="no"?>
<!DOCTYPE svg PUBLIC "-//W3C//DTD SVG 1.1//EN"
 "http://www.w3.org/Graphics/SVG/1.1/DTD/svg11.dtd">
<!-- Generated by graphviz version 2.40.1 (20161225.0304)
 -->
<!-- Title: nuspell::String_Set::sort_uniq Pages: 1 -->
<svg width="275pt" height="235pt"
 viewBox="0.00 0.00 275.00 235.00" xmlns="http://www.w3.org/2000/svg" xmlns:xlink="http://www.w3.org/1999/xlink">
<g id="graph0" class="graph" transform="scale(1 1) rotate(0) translate(4 231)">
<title>nuspell::String_Set::sort_uniq</title>
<polygon fill="#ffffff" stroke="transparent" points="-4,4 -4,-231 271,-231 271,4 -4,4"/>
<!-- Node150 -->
<g id="node1" class="node">
<title>Node150</title>
<polygon fill="#bfbfbf" stroke="#000000" points="0,-98.5 0,-128.5 99,-128.5 99,-98.5 0,-98.5"/>
<text text-anchor="start" x="8" y="-116.5" font-family="Helvetica,sans-Serif" font-size="10.00" fill="#000000">nuspell::String_Set</text>
<text text-anchor="middle" x="49.5" y="-105.5" font-family="Helvetica,sans-Serif" font-size="10.00" fill="#000000">::sort_uniq</text>
</g>
<!-- Node151 -->
<g id="node2" class="node">
<title>Node151</title>
<g id="a_node2"><a xlink:href="classnuspell_1_1_string___set.html#ae98dbac3e33409634f09524408792ed6" target="_top" xlink:title="nuspell::String_Set\l\&lt; char16_t \&gt;::String_Set">
<polygon fill="#ffffff" stroke="#000000" points="139,-196.5 139,-226.5 263,-226.5 263,-196.5 139,-196.5"/>
<text text-anchor="start" x="147" y="-214.5" font-family="Helvetica,sans-Serif" font-size="10.00" fill="#000000">nuspell::String_Set</text>
<text text-anchor="middle" x="201" y="-203.5" font-family="Helvetica,sans-Serif" font-size="10.00" fill="#000000">&lt; char16_t &gt;::String_Set</text>
</a>
</g>
</g>
<!-- Node150&#45;&gt;Node151 -->
<g id="edge1" class="edge">
<title>Node150&#45;&gt;Node151</title>
<path fill="none" stroke="#191970" d="M71.0348,-136.1236C87.3537,-152.2179 110.9979,-173.4014 135,-187.5 140.677,-190.8346 146.8956,-193.8303 153.1748,-196.4817"/>
<polygon fill="#191970" stroke="#191970" points="73.1742,-133.3111 63.6427,-128.6849 68.2089,-138.2453 73.1742,-133.3111"/>
</g>
<!-- Node152 -->
<g id="node3" class="node">
<title>Node152</title>
<g id="a_node3"><a xlink:href="classnuspell_1_1_string___set.html#a47e9fffbe9833f5688c175a18b15e00f" target="_top" xlink:title="nuspell::String_Set\l\&lt; char16_t \&gt;::operator=">
<polygon fill="#ffffff" stroke="#000000" points="141.5,-147.5 141.5,-177.5 260.5,-177.5 260.5,-147.5 141.5,-147.5"/>
<text text-anchor="start" x="149.5" y="-165.5" font-family="Helvetica,sans-Serif" font-size="10.00" fill="#000000">nuspell::String_Set</text>
<text text-anchor="middle" x="201" y="-154.5" font-family="Helvetica,sans-Serif" font-size="10.00" fill="#000000">&lt; char16_t &gt;::operator=</text>
</a>
</g>
</g>
<!-- Node150&#45;&gt;Node152 -->
<g id="edge2" class="edge">
<title>Node150&#45;&gt;Node152</title>
<path fill="none" stroke="#191970" d="M105.9541,-131.7591C121.9333,-136.9273 139.1398,-142.4924 154.463,-147.4484"/>
<polygon fill="#191970" stroke="#191970" points="106.783,-128.3487 96.1912,-128.6014 104.6288,-135.009 106.783,-128.3487"/>
</g>
<!-- Node153 -->
<g id="node4" class="node">
<title>Node153</title>
<g id="a_node4"><a xlink:href="classnuspell_1_1_string___set.html#ad442dd62682598403ebf12d038c36d3e" target="_top" xlink:title="nuspell::String_Set\l\&lt; char16_t \&gt;::insert">
<polygon fill="#ffffff" stroke="#000000" points="150,-98.5 150,-128.5 252,-128.5 252,-98.5 150,-98.5"/>
<text text-anchor="start" x="158" y="-116.5" font-family="Helvetica,sans-Serif" font-size="10.00" fill="#000000">nuspell::String_Set</text>
<text text-anchor="middle" x="201" y="-105.5" font-family="Helvetica,sans-Serif" font-size="10.00" fill="#000000">&lt; char16_t &gt;::insert</text>
</a>
</g>
</g>
<!-- Node150&#45;&gt;Node153 -->
<g id="edge3" class="edge">
<title>Node150&#45;&gt;Node153</title>
<path fill="none" stroke="#191970" d="M109.2438,-113.5C122.7197,-113.5 136.9038,-113.5 149.9829,-113.5"/>
<polygon fill="#191970" stroke="#191970" points="109.1068,-110.0001 99.1068,-113.5 109.1067,-117.0001 109.1068,-110.0001"/>
</g>
<!-- Node154 -->
<g id="node5" class="node">
<title>Node154</title>
<g id="a_node5"><a xlink:href="classnuspell_1_1_substr___replacer.html#ab2e1dba2c1a7ccc3de58c5312a062516" target="_top" xlink:title="nuspell::Substr_Replacer\l\&lt; char \&gt;::Substr_Replacer">
<polygon fill="#ffffff" stroke="#000000" points="135,-49.5 135,-79.5 267,-79.5 267,-49.5 135,-49.5"/>
<text text-anchor="start" x="143" y="-67.5" font-family="Helvetica,sans-Serif" font-size="10.00" fill="#000000">nuspell::Substr_Replacer</text>
<text text-anchor="middle" x="201" y="-56.5" font-family="Helvetica,sans-Serif" font-size="10.00" fill="#000000">&lt; char &gt;::Substr_Replacer</text>
</a>
</g>
</g>
<!-- Node150&#45;&gt;Node154 -->
<g id="edge4" class="edge">
<title>Node150&#45;&gt;Node154</title>
<path fill="none" stroke="#191970" d="M105.9541,-95.2409C121.9333,-90.0727 139.1398,-84.5076 154.463,-79.5516"/>
<polygon fill="#191970" stroke="#191970" points="104.6288,-91.991 96.1912,-98.3986 106.783,-98.6513 104.6288,-91.991"/>
</g>
<!-- Node155 -->
<g id="node6" class="node">
<title>Node155</title>
<g id="a_node6"><a xlink:href="classnuspell_1_1_substr___replacer.html#af4c7cef641405ef1fe739a238f9c1f29" target="_top" xlink:title="nuspell::Substr_Replacer\l\&lt; char \&gt;::operator=">
<polygon fill="#ffffff" stroke="#000000" points="138,-.5 138,-30.5 264,-30.5 264,-.5 138,-.5"/>
<text text-anchor="start" x="146" y="-18.5" font-family="Helvetica,sans-Serif" font-size="10.00" fill="#000000">nuspell::Substr_Replacer</text>
<text text-anchor="middle" x="201" y="-7.5" font-family="Helvetica,sans-Serif" font-size="10.00" fill="#000000">&lt; char &gt;::operator=</text>
</a>
</g>
</g>
<!-- Node150&#45;&gt;Node155 -->
<g id="edge5" class="edge">
<title>Node150&#45;&gt;Node155</title>
<path fill="none" stroke="#191970" d="M71.4436,-91.006C87.8053,-75.2201 111.3269,-54.5105 135,-40.5 141.2213,-36.8181 148.0806,-33.5054 154.9533,-30.5873"/>
<polygon fill="#191970" stroke="#191970" points="68.6932,-88.8019 64.0173,-98.3091 73.6014,-93.7929 68.6932,-88.8019"/>
</g>
</g>
</svg>
