<?xml version="1.0" encoding="UTF-8" standalone="no"?>
<!DOCTYPE svg PUBLIC "-//W3C//DTD SVG 1.1//EN"
 "http://www.w3.org/Graphics/SVG/1.1/DTD/svg11.dtd">
<!-- Generated by graphviz version 2.40.1 (20161225.0304)
 -->
<!-- Title: nuspell::Locale_Input::getloc Pages: 1 -->
<svg width="262pt" height="88pt"
 viewBox="0.00 0.00 262.00 88.00" xmlns="http://www.w3.org/2000/svg" xmlns:xlink="http://www.w3.org/1999/xlink">
<g id="graph0" class="graph" transform="scale(1 1) rotate(0) translate(4 84)">
<title>nuspell::Locale_Input::getloc</title>
<polygon fill="#ffffff" stroke="transparent" points="-4,4 -4,-84 258,-84 258,4 -4,4"/>
<!-- Node25 -->
<g id="node1" class="node">
<title>Node25</title>
<polygon fill="#bfbfbf" stroke="#000000" points="0,-24.5 0,-54.5 109,-54.5 109,-24.5 0,-24.5"/>
<text text-anchor="start" x="8" y="-42.5" font-family="Helvetica,sans-Serif" font-size="10.00" fill="#000000">nuspell::Locale_Input</text>
<text text-anchor="middle" x="54.5" y="-31.5" font-family="Helvetica,sans-Serif" font-size="10.00" fill="#000000">::getloc</text>
</g>
<!-- Node26 -->
<g id="node2" class="node">
<title>Node26</title>
<g id="a_node2"><a xlink:href="classnuspell_1_1_locale___input.html#a5f609f46deca8b32c87fe21445d5ae2c" target="_top" xlink:title="nuspell::Locale_Input\l::cvt_for_byte_dict">
<polygon fill="#ffffff" stroke="#000000" points="145,-49.5 145,-79.5 254,-79.5 254,-49.5 145,-49.5"/>
<text text-anchor="start" x="153" y="-67.5" font-family="Helvetica,sans-Serif" font-size="10.00" fill="#000000">nuspell::Locale_Input</text>
<text text-anchor="middle" x="199.5" y="-56.5" font-family="Helvetica,sans-Serif" font-size="10.00" fill="#000000">::cvt_for_byte_dict</text>
</a>
</g>
</g>
<!-- Node25&#45;&gt;Node26 -->
<g id="edge1" class="edge">
<title>Node25&#45;&gt;Node26</title>
<path fill="none" stroke="#191970" d="M119.1853,-50.6526C127.6712,-52.1157 136.3016,-53.6037 144.6042,-55.0352"/>
<polygon fill="#191970" stroke="#191970" points="119.7676,-47.2015 109.3183,-48.9514 118.5782,-54.0997 119.7676,-47.2015"/>
</g>
<!-- Node27 -->
<g id="node3" class="node">
<title>Node27</title>
<g id="a_node3"><a xlink:href="classnuspell_1_1_locale___input.html#aadce92dd66b99a15e44acefa2f883385" target="_top" xlink:title="nuspell::Locale_Input\l::cvt_for_u8_dict">
<polygon fill="#ffffff" stroke="#000000" points="145,-.5 145,-30.5 254,-30.5 254,-.5 145,-.5"/>
<text text-anchor="start" x="153" y="-18.5" font-family="Helvetica,sans-Serif" font-size="10.00" fill="#000000">nuspell::Locale_Input</text>
<text text-anchor="middle" x="199.5" y="-7.5" font-family="Helvetica,sans-Serif" font-size="10.00" fill="#000000">::cvt_for_u8_dict</text>
</a>
</g>
</g>
<!-- Node25&#45;&gt;Node27 -->
<g id="edge2" class="edge">
<title>Node25&#45;&gt;Node27</title>
<path fill="none" stroke="#191970" d="M119.1853,-28.7935C127.6712,-27.3889 136.3016,-25.9604 144.6042,-24.5862"/>
<polygon fill="#191970" stroke="#191970" points="118.6125,-25.3406 109.3183,-30.4266 119.7556,-32.2466 118.6125,-25.3406"/>
</g>
</g>
</svg>
