<?xml version="1.0" encoding="UTF-8" standalone="no"?>
<!DOCTYPE svg PUBLIC "-//W3C//DTD SVG 1.1//EN"
 "http://www.w3.org/Graphics/SVG/1.1/DTD/svg11.dtd">
<!-- Generated by graphviz version 2.40.1 (20161225.0304)
 -->
<!-- Title: nuspell::Affix_Table::equal_range Pages: 1 -->
<svg width="245pt" height="186pt"
 viewBox="0.00 0.00 245.00 186.00" xmlns="http://www.w3.org/2000/svg" xmlns:xlink="http://www.w3.org/1999/xlink">
<g id="graph0" class="graph" transform="scale(1 1) rotate(0) translate(4 182)">
<title>nuspell::Affix_Table::equal_range</title>
<polygon fill="#ffffff" stroke="transparent" points="-4,4 -4,-182 241,-182 241,4 -4,4"/>
<!-- Node3 -->
<g id="node1" class="node">
<title>Node3</title>
<polygon fill="#bfbfbf" stroke="#000000" points="0,-73.5 0,-103.5 103,-103.5 103,-73.5 0,-73.5"/>
<text text-anchor="start" x="8" y="-91.5" font-family="Helvetica,sans-Serif" font-size="10.00" fill="#000000">nuspell::Affix_Table</text>
<text text-anchor="middle" x="51.5" y="-80.5" font-family="Helvetica,sans-Serif" font-size="10.00" fill="#000000">::equal_range</text>
</g>
<!-- Node4 -->
<g id="node2" class="node">
<title>Node4</title>
<g id="a_node2"><a xlink:href="classnuspell_1_1_prefix___iter.html#a4025677c5463b53668083a8ffc3e08f3" target="_top" xlink:title="nuspell::Prefix_Iter\l::Prefix_Iter">
<polygon fill="#ffffff" stroke="#000000" points="139,-147.5 139,-177.5 237,-177.5 237,-147.5 139,-147.5"/>
<text text-anchor="start" x="147" y="-165.5" font-family="Helvetica,sans-Serif" font-size="10.00" fill="#000000">nuspell::Prefix_Iter</text>
<text text-anchor="middle" x="188" y="-154.5" font-family="Helvetica,sans-Serif" font-size="10.00" fill="#000000">::Prefix_Iter</text>
</a>
</g>
</g>
<!-- Node3&#45;&gt;Node4 -->
<g id="edge1" class="edge">
<title>Node3&#45;&gt;Node4</title>
<path fill="none" stroke="#191970" d="M85.9118,-108.8372C101.9197,-118.1235 121.295,-129.1177 139,-138.5 144.6079,-141.4717 150.6367,-144.5319 156.482,-147.4306"/>
<polygon fill="#191970" stroke="#191970" points="87.3158,-105.6044 76.9138,-103.592 83.7905,-111.6519 87.3158,-105.6044"/>
</g>
<!-- Node5 -->
<g id="node3" class="node">
<title>Node5</title>
<g id="a_node3"><a xlink:href="classnuspell_1_1_prefix___iter.html#a84195c0f4b0218a1ae7b2a7e82b87c64" target="_top" xlink:title="nuspell::Prefix_Iter\l::operator++">
<polygon fill="#ffffff" stroke="#000000" points="139,-98.5 139,-128.5 237,-128.5 237,-98.5 139,-98.5"/>
<text text-anchor="start" x="147" y="-116.5" font-family="Helvetica,sans-Serif" font-size="10.00" fill="#000000">nuspell::Prefix_Iter</text>
<text text-anchor="middle" x="188" y="-105.5" font-family="Helvetica,sans-Serif" font-size="10.00" fill="#000000">::operator++</text>
</a>
</g>
</g>
<!-- Node3&#45;&gt;Node5 -->
<g id="edge2" class="edge">
<title>Node3&#45;&gt;Node5</title>
<path fill="none" stroke="#191970" d="M113.045,-99.772C121.5957,-101.338 130.2882,-102.9301 138.5787,-104.4485"/>
<polygon fill="#191970" stroke="#191970" points="113.5717,-96.3103 103.1048,-97.9514 112.3106,-103.1958 113.5717,-96.3103"/>
</g>
<!-- Node6 -->
<g id="node4" class="node">
<title>Node6</title>
<g id="a_node4"><a xlink:href="classnuspell_1_1_suffix___iter.html#a7f8b1977d11876ac31c0c28b9f84d1a2" target="_top" xlink:title="nuspell::Suffix_Iter\l::Suffix_Iter">
<polygon fill="#ffffff" stroke="#000000" points="139,-49.5 139,-79.5 237,-79.5 237,-49.5 139,-49.5"/>
<text text-anchor="start" x="147" y="-67.5" font-family="Helvetica,sans-Serif" font-size="10.00" fill="#000000">nuspell::Suffix_Iter</text>
<text text-anchor="middle" x="188" y="-56.5" font-family="Helvetica,sans-Serif" font-size="10.00" fill="#000000">::Suffix_Iter</text>
</a>
</g>
</g>
<!-- Node3&#45;&gt;Node6 -->
<g id="edge3" class="edge">
<title>Node3&#45;&gt;Node6</title>
<path fill="none" stroke="#191970" d="M113.045,-77.6789C121.5957,-76.1755 130.2882,-74.6471 138.5787,-73.1895"/>
<polygon fill="#191970" stroke="#191970" points="112.3476,-74.2477 103.1048,-79.4266 113.5598,-81.142 112.3476,-74.2477"/>
</g>
<!-- Node7 -->
<g id="node5" class="node">
<title>Node7</title>
<g id="a_node5"><a xlink:href="classnuspell_1_1_suffix___iter.html#a662f132dc8e33781d68daecc22fe524c" target="_top" xlink:title="nuspell::Suffix_Iter\l::operator++">
<polygon fill="#ffffff" stroke="#000000" points="139,-.5 139,-30.5 237,-30.5 237,-.5 139,-.5"/>
<text text-anchor="start" x="147" y="-18.5" font-family="Helvetica,sans-Serif" font-size="10.00" fill="#000000">nuspell::Suffix_Iter</text>
<text text-anchor="middle" x="188" y="-7.5" font-family="Helvetica,sans-Serif" font-size="10.00" fill="#000000">::operator++</text>
</a>
</g>
</g>
<!-- Node3&#45;&gt;Node7 -->
<g id="edge4" class="edge">
<title>Node3&#45;&gt;Node7</title>
<path fill="none" stroke="#191970" d="M87.4778,-68.4475C103.2328,-59.7484 121.9738,-49.5109 139,-40.5 145.1619,-37.2389 151.794,-33.8048 158.127,-30.5615"/>
<polygon fill="#191970" stroke="#191970" points="85.6367,-65.4662 78.5821,-73.3708 89.0263,-71.5907 85.6367,-65.4662"/>
</g>
</g>
</svg>
