<?xml version="1.0" encoding="UTF-8" standalone="no"?>
<!DOCTYPE svg PUBLIC "-//W3C//DTD SVG 1.1//EN"
 "http://www.w3.org/Graphics/SVG/1.1/DTD/svg11.dtd">
<!-- Generated by graphviz version 2.40.1 (20161225.0304)
 -->
<!-- Title: nuspell::Finder::add_apacheopenoffice_paths Pages: 1 -->
<svg width="471pt" height="116pt"
 viewBox="0.00 0.00 471.00 116.00" xmlns="http://www.w3.org/2000/svg" xmlns:xlink="http://www.w3.org/1999/xlink">
<g id="graph0" class="graph" transform="scale(1 1) rotate(0) translate(4 112)">
<title>nuspell::Finder::add_apacheopenoffice_paths</title>
<polygon fill="#ffffff" stroke="transparent" points="-4,4 -4,-112 467,-112 467,4 -4,4"/>
<!-- Node0 -->
<g id="node1" class="node">
<title>Node0</title>
<polygon fill="#bfbfbf" stroke="#000000" points="0,-39 0,-69 128,-69 128,-39 0,-39"/>
<text text-anchor="start" x="8" y="-57" font-family="Helvetica,sans-Serif" font-size="10.00" fill="#000000">nuspell::Finder::add</text>
<text text-anchor="middle" x="64" y="-46" font-family="Helvetica,sans-Serif" font-size="10.00" fill="#000000">_apacheopenoffice_paths</text>
</g>
<!-- Node1 -->
<g id="node2" class="node">
<title>Node1</title>
<g id="a_node2"><a xlink:href="namespacenuspell.html#a2dacde753f0b71fe8bea9b1fc394e517" target="_top" xlink:title="Gets the Apache OpenOffice search paths. ">
<polygon fill="#ffffff" stroke="#000000" points="164,-39 164,-69 313,-69 313,-39 164,-39"/>
<text text-anchor="start" x="172" y="-57" font-family="Helvetica,sans-Serif" font-size="10.00" fill="#000000">nuspell::get_apacheopenoffice</text>
<text text-anchor="middle" x="238.5" y="-46" font-family="Helvetica,sans-Serif" font-size="10.00" fill="#000000">_paths</text>
</a>
</g>
</g>
<!-- Node0&#45;&gt;Node1 -->
<g id="edge1" class="edge">
<title>Node0&#45;&gt;Node1</title>
<path fill="none" stroke="#191970" d="M128.4816,-54C136.7855,-54 145.3854,-54 153.9505,-54"/>
<polygon fill="#191970" stroke="#191970" points="153.9694,-57.5001 163.9694,-54 153.9693,-50.5001 153.9694,-57.5001"/>
</g>
<!-- Node2 -->
<g id="node3" class="node">
<title>Node2</title>
<g id="a_node3"><a xlink:href="namespacenuspell.html#a9404cbb74ae904c74db6776eb092e1b1" target="_top" xlink:title="nuspell::prefix">
<polygon fill="#ffffff" stroke="#000000" points="367.5,-88.5 367.5,-107.5 444.5,-107.5 444.5,-88.5 367.5,-88.5"/>
<text text-anchor="middle" x="406" y="-95.5" font-family="Helvetica,sans-Serif" font-size="10.00" fill="#000000">nuspell::prefix</text>
</a>
</g>
</g>
<!-- Node1&#45;&gt;Node2 -->
<g id="edge2" class="edge">
<title>Node1&#45;&gt;Node2</title>
<path fill="none" stroke="#191970" d="M295.6755,-69.0192C316.6739,-74.5352 340.1588,-80.7044 360.0457,-85.9284"/>
<polygon fill="#191970" stroke="#191970" points="359.2268,-89.332 369.788,-88.4876 361.0053,-82.5617 359.2268,-89.332"/>
</g>
<!-- Node3 -->
<g id="node4" class="node">
<title>Node3</title>
<g id="a_node4"><a xlink:href="structnuspell_1_1_globber.html#a895d65e899b6619740bee3ed56f7b3bd" target="_top" xlink:title="nuspell::Globber::copy\l_glob_paths">
<polygon fill="#ffffff" stroke="#000000" points="349,-39 349,-69 463,-69 463,-39 349,-39"/>
<text text-anchor="start" x="357" y="-57" font-family="Helvetica,sans-Serif" font-size="10.00" fill="#000000">nuspell::Globber::copy</text>
<text text-anchor="middle" x="406" y="-46" font-family="Helvetica,sans-Serif" font-size="10.00" fill="#000000">_glob_paths</text>
</a>
</g>
</g>
<!-- Node1&#45;&gt;Node3 -->
<g id="edge3" class="edge">
<title>Node1&#45;&gt;Node3</title>
<path fill="none" stroke="#191970" d="M313.4315,-54C321.8535,-54 330.3958,-54 338.7125,-54"/>
<polygon fill="#191970" stroke="#191970" points="338.7221,-57.5001 348.7221,-54 338.722,-50.5001 338.7221,-57.5001"/>
</g>
<!-- Node4 -->
<g id="node5" class="node">
<title>Node4</title>
<g id="a_node5"><a xlink:href="structnuspell_1_1_globber.html#a6165004632cc6ce235e0c588800894fa" target="_top" xlink:title="nuspell::Globber::glob">
<polygon fill="#ffffff" stroke="#000000" points="350.5,-.5 350.5,-19.5 461.5,-19.5 461.5,-.5 350.5,-.5"/>
<text text-anchor="middle" x="406" y="-7.5" font-family="Helvetica,sans-Serif" font-size="10.00" fill="#000000">nuspell::Globber::glob</text>
</a>
</g>
</g>
<!-- Node1&#45;&gt;Node4 -->
<g id="edge4" class="edge">
<title>Node1&#45;&gt;Node4</title>
<path fill="none" stroke="#191970" d="M295.6755,-38.9808C316.6739,-33.4648 340.1588,-27.2956 360.0457,-22.0716"/>
<polygon fill="#191970" stroke="#191970" points="361.0053,-25.4383 369.788,-19.5124 359.2268,-18.668 361.0053,-25.4383"/>
</g>
</g>
</svg>
