<?xml version="1.0" encoding="UTF-8" standalone="no"?>
<!DOCTYPE svg PUBLIC "-//W3C//DTD SVG 1.1//EN"
 "http://www.w3.org/Graphics/SVG/1.1/DTD/svg11.dtd">
<!-- Generated by graphviz version 2.40.1 (20161225.0304)
 -->
<!-- Title: nuspell::Hash_Multiset&lt; Value, Key, KeyExtract, Hash, KeyEqual &gt; Pages: 1 -->
<svg width="294pt" height="192pt"
 viewBox="0.00 0.00 294.00 192.00" xmlns="http://www.w3.org/2000/svg" xmlns:xlink="http://www.w3.org/1999/xlink">
<g id="graph0" class="graph" transform="scale(1 1) rotate(0) translate(4 188)">
<title>nuspell::Hash_Multiset&lt; Value, Key, KeyExtract, Hash, KeyEqual &gt;</title>
<polygon fill="#ffffff" stroke="transparent" points="-4,4 -4,-188 290,-188 290,4 -4,4"/>
<!-- Node0 -->
<g id="node1" class="node">
<title>Node0</title>
<polygon fill="#bfbfbf" stroke="#000000" points="0,-77.5 0,-118.5 131,-118.5 131,-77.5 0,-77.5"/>
<text text-anchor="start" x="8" y="-106.5" font-family="Helvetica,sans-Serif" font-size="10.00" fill="#000000">nuspell::Hash_Multiset</text>
<text text-anchor="start" x="8" y="-95.5" font-family="Helvetica,sans-Serif" font-size="10.00" fill="#000000">&lt; Value, Key, KeyExtract,</text>
<text text-anchor="middle" x="65.5" y="-84.5" font-family="Helvetica,sans-Serif" font-size="10.00" fill="#000000"> Hash, KeyEqual &gt;</text>
</g>
<!-- Node1 -->
<g id="node2" class="node">
<title>Node1</title>
<g id="a_node2"><a xlink:href="classnuspell_1_1_affix___table.html" target="_top" xlink:title="Affix_Table\&lt; char \&gt;">
<polygon fill="#ffffff" stroke="#000000" points="175,-164.5 175,-183.5 278,-183.5 278,-164.5 175,-164.5"/>
<text text-anchor="middle" x="226.5" y="-171.5" font-family="Helvetica,sans-Serif" font-size="10.00" fill="#000000">Affix_Table&lt; char &gt;</text>
</a>
</g>
</g>
<!-- Node0&#45;&gt;Node1 -->
<g id="edge1" class="edge">
<title>Node0&#45;&gt;Node1</title>
<path fill="none" stroke="#8b1a1a" d="M107.4856,-124.1054C125.4009,-134.5731 146.8002,-146.2112 167,-155 175.0541,-158.5043 183.9682,-161.6932 192.3917,-164.4154"/>
<polygon fill="#8b1a1a" stroke="#8b1a1a" points="108.8471,-120.844 98.4594,-118.7594 105.2799,-126.8669 108.8471,-120.844"/>
</g>
<!-- Node2 -->
<g id="node3" class="node">
<title>Node2</title>
<g id="a_node3"><a xlink:href="classnuspell_1_1_affix___table.html" target="_top" xlink:title="Affix_Table\&lt; CharT \&gt;">
<polygon fill="#ffffff" stroke="#000000" points="171,-126.5 171,-145.5 282,-145.5 282,-126.5 171,-126.5"/>
<text text-anchor="middle" x="226.5" y="-133.5" font-family="Helvetica,sans-Serif" font-size="10.00" fill="#000000">Affix_Table&lt; CharT &gt;</text>
</a>
</g>
</g>
<!-- Node0&#45;&gt;Node2 -->
<g id="edge2" class="edge">
<title>Node0&#45;&gt;Node2</title>
<path fill="none" stroke="#8b1a1a" d="M141.452,-115.9266C156.7571,-119.5389 172.2821,-123.2032 185.8046,-126.3949"/>
<polygon fill="#8b1a1a" stroke="#8b1a1a" points="141.986,-112.4565 131.4494,-113.5657 140.378,-119.2693 141.986,-112.4565"/>
</g>
<!-- Node3 -->
<g id="node4" class="node">
<title>Node3</title>
<g id="a_node4"><a xlink:href="classnuspell_1_1_affix___table.html" target="_top" xlink:title="Affix_Table\&lt; wchar_t \&gt;">
<polygon fill="#ffffff" stroke="#000000" points="167,-88.5 167,-107.5 286,-107.5 286,-88.5 167,-88.5"/>
<text text-anchor="middle" x="226.5" y="-95.5" font-family="Helvetica,sans-Serif" font-size="10.00" fill="#000000">Affix_Table&lt; wchar_t &gt;</text>
</a>
</g>
</g>
<!-- Node0&#45;&gt;Node3 -->
<g id="edge3" class="edge">
<title>Node0&#45;&gt;Node3</title>
<path fill="none" stroke="#8b1a1a" d="M141.6975,-98C150.1454,-98 158.6567,-98 166.8578,-98"/>
<polygon fill="#8b1a1a" stroke="#8b1a1a" points="141.4494,-94.5001 131.4494,-98 141.4494,-101.5001 141.4494,-94.5001"/>
</g>
<!-- Node4 -->
<g id="node5" class="node">
<title>Node4</title>
<g id="a_node5"><a xlink:href="classnuspell_1_1_affix___table.html" target="_top" xlink:title="nuspell::Affix_Table\l\&lt; CharT, AffixT \&gt;">
<polygon fill="#ffffff" stroke="#000000" points="175,-39 175,-69 278,-69 278,-39 175,-39"/>
<text text-anchor="start" x="183" y="-57" font-family="Helvetica,sans-Serif" font-size="10.00" fill="#000000">nuspell::Affix_Table</text>
<text text-anchor="middle" x="226.5" y="-46" font-family="Helvetica,sans-Serif" font-size="10.00" fill="#000000">&lt; CharT, AffixT &gt;</text>
</a>
</g>
</g>
<!-- Node0&#45;&gt;Node4 -->
<g id="edge4" class="edge">
<title>Node0&#45;&gt;Node4</title>
<path fill="none" stroke="#8b1a1a" d="M141.3241,-77.2779C152.6226,-74.1901 164.0443,-71.0686 174.6949,-68.1579"/>
<polygon fill="#8b1a1a" stroke="#8b1a1a" points="140.1729,-73.9641 131.4494,-79.9766 142.0184,-80.7164 140.1729,-73.9641"/>
</g>
<!-- Node5 -->
<g id="node6" class="node">
<title>Node5</title>
<g id="a_node6"><a xlink:href="classnuspell_1_1_word___list.html" target="_top" xlink:title="Map between words and word_flags. ">
<polygon fill="#ffffff" stroke="#000000" points="177.5,-.5 177.5,-19.5 275.5,-19.5 275.5,-.5 177.5,-.5"/>
<text text-anchor="middle" x="226.5" y="-7.5" font-family="Helvetica,sans-Serif" font-size="10.00" fill="#000000">nuspell::Word_List</text>
</a>
</g>
</g>
<!-- Node0&#45;&gt;Node5 -->
<g id="edge5" class="edge">
<title>Node0&#45;&gt;Node5</title>
<path fill="none" stroke="#191970" d="M100.2022,-71.3825C119.19,-57.703 143.5646,-41.5315 167,-30 175.1159,-26.0065 184.2236,-22.5002 192.827,-19.585"/>
<polygon fill="#191970" stroke="#191970" points="97.887,-68.7395 91.8798,-77.4667 102.0182,-74.3904 97.887,-68.7395"/>
</g>
</g>
</svg>
