<?xml version="1.0" encoding="UTF-8" standalone="no"?>
<!DOCTYPE svg PUBLIC "-//W3C//DTD SVG 1.1//EN"
 "http://www.w3.org/Graphics/SVG/1.1/DTD/svg11.dtd">
<!-- Generated by graphviz version 2.40.1 (20161225.0304)
 -->
<!-- Title: src/nuspell/condition.hxx Pages: 1 -->
<svg width="418pt" height="252pt"
 viewBox="0.00 0.00 418.00 252.00" xmlns="http://www.w3.org/2000/svg" xmlns:xlink="http://www.w3.org/1999/xlink">
<g id="graph0" class="graph" transform="scale(1 1) rotate(0) translate(4 248)">
<title>src/nuspell/condition.hxx</title>
<polygon fill="#ffffff" stroke="transparent" points="-4,4 -4,-248 414,-248 414,4 -4,4"/>
<!-- Node4 -->
<g id="node1" class="node">
<title>Node4</title>
<polygon fill="#bfbfbf" stroke="#000000" points="212,-224.5 212,-243.5 337,-243.5 337,-224.5 212,-224.5"/>
<text text-anchor="middle" x="274.5" y="-231.5" font-family="Helvetica,sans-Serif" font-size="10.00" fill="#000000">src/nuspell/condition.hxx</text>
</g>
<!-- Node5 -->
<g id="node2" class="node">
<title>Node5</title>
<g id="a_node2"><a xlink:href="structures_8hxx.html" target="_top" xlink:title="Data structures. ">
<polygon fill="#ffffff" stroke="#000000" points="138,-168.5 138,-187.5 267,-187.5 267,-168.5 138,-168.5"/>
<text text-anchor="middle" x="202.5" y="-175.5" font-family="Helvetica,sans-Serif" font-size="10.00" fill="#000000">src/nuspell/structures.hxx</text>
</a>
</g>
</g>
<!-- Node4&#45;&gt;Node5 -->
<g id="edge1" class="edge">
<title>Node4&#45;&gt;Node5</title>
<path fill="none" stroke="#191970" d="M253.836,-217.928C241.2511,-208.1397 225.5908,-195.9595 214.8977,-187.6427"/>
<polygon fill="#191970" stroke="#191970" points="251.9162,-220.8688 261.9586,-224.2455 256.2138,-215.3434 251.9162,-220.8688"/>
</g>
<!-- Node13 -->
<g id="node10" class="node">
<title>Node13</title>
<g id="a_node10"><a xlink:href="condition_8cxx.html" target="_top" xlink:title="Condition matching. ">
<polygon fill="#ffffff" stroke="#000000" points="285,-168.5 285,-187.5 410,-187.5 410,-168.5 285,-168.5"/>
<text text-anchor="middle" x="347.5" y="-175.5" font-family="Helvetica,sans-Serif" font-size="10.00" fill="#000000">src/nuspell/condition.cxx</text>
</a>
</g>
</g>
<!-- Node4&#45;&gt;Node13 -->
<g id="edge9" class="edge">
<title>Node4&#45;&gt;Node13</title>
<path fill="none" stroke="#191970" d="M295.451,-217.928C308.2107,-208.1397 324.0885,-195.9595 334.9301,-187.6427"/>
<polygon fill="#191970" stroke="#191970" points="293.0196,-215.3819 287.2156,-224.2455 297.2803,-220.9359 293.0196,-215.3819"/>
</g>
<!-- Node6 -->
<g id="node3" class="node">
<title>Node6</title>
<g id="a_node3"><a xlink:href="aff__data_8hxx.html" target="_top" xlink:title="Affixing data structures. ">
<polygon fill="#ffffff" stroke="#000000" points="71,-112.5 71,-131.5 192,-131.5 192,-112.5 71,-112.5"/>
<text text-anchor="middle" x="131.5" y="-119.5" font-family="Helvetica,sans-Serif" font-size="10.00" fill="#000000">src/nuspell/aff_data.hxx</text>
</a>
</g>
</g>
<!-- Node5&#45;&gt;Node6 -->
<g id="edge2" class="edge">
<title>Node5&#45;&gt;Node6</title>
<path fill="none" stroke="#191970" d="M182.123,-161.928C169.7129,-152.1397 154.27,-139.9595 143.7255,-131.6427"/>
<polygon fill="#191970" stroke="#191970" points="180.1136,-164.8007 190.1327,-168.2455 184.4486,-159.3046 180.1136,-164.8007"/>
</g>
<!-- Node12 -->
<g id="node9" class="node">
<title>Node12</title>
<g id="a_node9"><a xlink:href="structures_8cxx.html" target="_top" xlink:title="Data structures. ">
<polygon fill="#ffffff" stroke="#000000" points="210,-112.5 210,-131.5 339,-131.5 339,-112.5 210,-112.5"/>
<text text-anchor="middle" x="274.5" y="-119.5" font-family="Helvetica,sans-Serif" font-size="10.00" fill="#000000">src/nuspell/structures.cxx</text>
</a>
</g>
</g>
<!-- Node5&#45;&gt;Node12 -->
<g id="edge8" class="edge">
<title>Node5&#45;&gt;Node12</title>
<path fill="none" stroke="#191970" d="M223.164,-161.928C235.7489,-152.1397 251.4092,-139.9595 262.1023,-131.6427"/>
<polygon fill="#191970" stroke="#191970" points="220.7862,-159.3434 215.0414,-168.2455 225.0838,-164.8688 220.7862,-159.3434"/>
</g>
<!-- Node7 -->
<g id="node4" class="node">
<title>Node7</title>
<g id="a_node4"><a xlink:href="aff__data_8cxx.html" target="_top" xlink:title="Affixing data structures. ">
<polygon fill="#ffffff" stroke="#000000" points="0,-56.5 0,-75.5 121,-75.5 121,-56.5 0,-56.5"/>
<text text-anchor="middle" x="60.5" y="-63.5" font-family="Helvetica,sans-Serif" font-size="10.00" fill="#000000">src/nuspell/aff_data.cxx</text>
</a>
</g>
</g>
<!-- Node6&#45;&gt;Node7 -->
<g id="edge3" class="edge">
<title>Node6&#45;&gt;Node7</title>
<path fill="none" stroke="#191970" d="M111.123,-105.928C98.7129,-96.1397 83.27,-83.9595 72.7255,-75.6427"/>
<polygon fill="#191970" stroke="#191970" points="109.1136,-108.8007 119.1327,-112.2455 113.4486,-103.3046 109.1136,-108.8007"/>
</g>
<!-- Node8 -->
<g id="node5" class="node">
<title>Node8</title>
<g id="a_node5"><a xlink:href="dictionary_8hxx.html" target="_top" xlink:title="Dictionary spelling. ">
<polygon fill="#ffffff" stroke="#000000" points="139.5,-56.5 139.5,-75.5 267.5,-75.5 267.5,-56.5 139.5,-56.5"/>
<text text-anchor="middle" x="203.5" y="-63.5" font-family="Helvetica,sans-Serif" font-size="10.00" fill="#000000">src/nuspell/dictionary.hxx</text>
</a>
</g>
</g>
<!-- Node6&#45;&gt;Node8 -->
<g id="edge4" class="edge">
<title>Node6&#45;&gt;Node8</title>
<path fill="none" stroke="#191970" d="M152.164,-105.928C164.7489,-96.1397 180.4092,-83.9595 191.1023,-75.6427"/>
<polygon fill="#191970" stroke="#191970" points="149.7862,-103.3434 144.0414,-112.2455 154.0838,-108.8688 149.7862,-103.3434"/>
</g>
<!-- Node9 -->
<g id="node6" class="node">
<title>Node9</title>
<g id="a_node6"><a xlink:href="dictionary_8cxx.html" target="_top" xlink:title="Dictionary spelling. ">
<polygon fill="#ffffff" stroke="#000000" points="3.5,-.5 3.5,-19.5 131.5,-19.5 131.5,-.5 3.5,-.5"/>
<text text-anchor="middle" x="67.5" y="-7.5" font-family="Helvetica,sans-Serif" font-size="10.00" fill="#000000">src/nuspell/dictionary.cxx</text>
</a>
</g>
</g>
<!-- Node8&#45;&gt;Node9 -->
<g id="edge5" class="edge">
<title>Node8&#45;&gt;Node9</title>
<path fill="none" stroke="#191970" d="M170.7601,-52.5189C145.9917,-42.3201 112.595,-28.5685 90.5742,-19.5011"/>
<polygon fill="#191970" stroke="#191970" points="169.5413,-55.8021 180.1208,-56.3733 172.2066,-49.3293 169.5413,-55.8021"/>
</g>
<!-- Node10 -->
<g id="node7" class="node">
<title>Node10</title>
<g id="a_node7"><a xlink:href="main_8cxx.html" target="_top" xlink:title="Command line spell checking. ">
<polygon fill="#ffffff" stroke="#000000" points="150,-.5 150,-19.5 257,-19.5 257,-.5 150,-.5"/>
<text text-anchor="middle" x="203.5" y="-7.5" font-family="Helvetica,sans-Serif" font-size="10.00" fill="#000000">src/nuspell/main.cxx</text>
</a>
</g>
</g>
<!-- Node8&#45;&gt;Node10 -->
<g id="edge6" class="edge">
<title>Node8&#45;&gt;Node10</title>
<path fill="none" stroke="#191970" d="M203.5,-46.1575C203.5,-37.155 203.5,-26.9199 203.5,-19.6427"/>
<polygon fill="#191970" stroke="#191970" points="200.0001,-46.2455 203.5,-56.2455 207.0001,-46.2456 200.0001,-46.2455"/>
</g>
<!-- Node11 -->
<g id="node8" class="node">
<title>Node11</title>
<g id="a_node8"><a xlink:href="regress_8cxx.html" target="_top" xlink:title="Command line spell check regression testing. ">
<polygon fill="#ffffff" stroke="#000000" points="275.5,-.5 275.5,-19.5 393.5,-19.5 393.5,-.5 275.5,-.5"/>
<text text-anchor="middle" x="334.5" y="-7.5" font-family="Helvetica,sans-Serif" font-size="10.00" fill="#000000">src/nuspell/regress.cxx</text>
</a>
</g>
</g>
<!-- Node8&#45;&gt;Node11 -->
<g id="edge7" class="edge">
<title>Node8&#45;&gt;Node11</title>
<path fill="none" stroke="#191970" d="M235.3534,-52.3833C259.1785,-42.1985 291.1568,-28.5284 312.2742,-19.5011"/>
<polygon fill="#191970" stroke="#191970" points="233.839,-49.2242 226.0197,-56.3733 236.5906,-55.6608 233.839,-49.2242"/>
</g>
</g>
</svg>
