<?xml version="1.0" encoding="UTF-8" standalone="no"?>
<!DOCTYPE svg PUBLIC "-//W3C//DTD SVG 1.1//EN"
 "http://www.w3.org/Graphics/SVG/1.1/DTD/svg11.dtd">
<!-- Generated by graphviz version 2.40.1 (20161225.0304)
 -->
<!-- Title: src/nuspell/condition.cxx Pages: 1 -->
<svg width="368pt" height="140pt"
 viewBox="0.00 0.00 368.00 140.00" xmlns="http://www.w3.org/2000/svg" xmlns:xlink="http://www.w3.org/1999/xlink">
<g id="graph0" class="graph" transform="scale(1 1) rotate(0) translate(4 136)">
<title>src/nuspell/condition.cxx</title>
<polygon fill="#ffffff" stroke="transparent" points="-4,4 -4,-136 364,-136 364,4 -4,4"/>
<!-- Node0 -->
<g id="node1" class="node">
<title>Node0</title>
<polygon fill="#bfbfbf" stroke="#000000" points="135.5,-112.5 135.5,-131.5 260.5,-131.5 260.5,-112.5 135.5,-112.5"/>
<text text-anchor="middle" x="198" y="-119.5" font-family="Helvetica,sans-Serif" font-size="10.00" fill="#000000">src/nuspell/condition.cxx</text>
</g>
<!-- Node1 -->
<g id="node2" class="node">
<title>Node1</title>
<g id="a_node2"><a xlink:href="condition_8hxx.html" target="_top" xlink:title="Condition matching. ">
<polygon fill="#ffffff" stroke="#000000" points="56,-56.5 56,-75.5 130,-75.5 130,-56.5 56,-56.5"/>
<text text-anchor="middle" x="93" y="-63.5" font-family="Helvetica,sans-Serif" font-size="10.00" fill="#000000">condition.hxx</text>
</a>
</g>
</g>
<!-- Node0&#45;&gt;Node1 -->
<g id="edge1" class="edge">
<title>Node0&#45;&gt;Node1</title>
<path fill="none" stroke="#191970" d="M179.7104,-112.2455C163.2238,-103.4527 138.7648,-90.4079 120.0235,-80.4125"/>
<polygon fill="#191970" stroke="#191970" points="121.5506,-77.2604 111.08,-75.6427 118.2565,-83.4368 121.5506,-77.2604"/>
</g>
<!-- Node5 -->
<g id="node6" class="node">
<title>Node5</title>
<g id="a_node6"><a xlink:href="string__utils_8hxx.html" target="_top" xlink:title="String algorithms. ">
<polygon fill="#ffffff" stroke="#000000" points="156.5,-56.5 156.5,-75.5 239.5,-75.5 239.5,-56.5 156.5,-56.5"/>
<text text-anchor="middle" x="198" y="-63.5" font-family="Helvetica,sans-Serif" font-size="10.00" fill="#000000">string_utils.hxx</text>
</a>
</g>
</g>
<!-- Node0&#45;&gt;Node5 -->
<g id="edge5" class="edge">
<title>Node0&#45;&gt;Node5</title>
<path fill="none" stroke="#191970" d="M198,-112.2455C198,-104.9382 198,-94.6944 198,-85.7046"/>
<polygon fill="#191970" stroke="#191970" points="201.5001,-85.6426 198,-75.6427 194.5001,-85.6427 201.5001,-85.6426"/>
</g>
<!-- Node9 -->
<g id="node10" class="node">
<title>Node9</title>
<polygon fill="#ffffff" stroke="#bfbfbf" points="257.5,-56.5 257.5,-75.5 316.5,-75.5 316.5,-56.5 257.5,-56.5"/>
<text text-anchor="middle" x="287" y="-63.5" font-family="Helvetica,sans-Serif" font-size="10.00" fill="#000000">stdexcept</text>
</g>
<!-- Node0&#45;&gt;Node9 -->
<g id="edge11" class="edge">
<title>Node0&#45;&gt;Node9</title>
<path fill="none" stroke="#191970" d="M213.5026,-112.2455C227.158,-103.6534 247.2657,-91.0014 262.9989,-81.1018"/>
<polygon fill="#191970" stroke="#191970" points="265.0751,-83.9307 271.675,-75.6427 261.3471,-78.006 265.0751,-83.9307"/>
</g>
<!-- Node2 -->
<g id="node3" class="node">
<title>Node2</title>
<polygon fill="#ffffff" stroke="#bfbfbf" points="56.5,-.5 56.5,-19.5 97.5,-19.5 97.5,-.5 56.5,-.5"/>
<text text-anchor="middle" x="77" y="-7.5" font-family="Helvetica,sans-Serif" font-size="10.00" fill="#000000">string</text>
</g>
<!-- Node1&#45;&gt;Node2 -->
<g id="edge2" class="edge">
<title>Node1&#45;&gt;Node2</title>
<path fill="none" stroke="#191970" d="M90.213,-56.2455C88.1023,-48.8579 85.134,-38.4689 82.5453,-29.4087"/>
<polygon fill="#191970" stroke="#191970" points="85.8677,-28.2964 79.755,-19.6427 79.137,-30.2195 85.8677,-28.2964"/>
</g>
<!-- Node3 -->
<g id="node4" class="node">
<title>Node3</title>
<polygon fill="#ffffff" stroke="#bfbfbf" points="0,-.5 0,-19.5 38,-19.5 38,-.5 0,-.5"/>
<text text-anchor="middle" x="19" y="-7.5" font-family="Helvetica,sans-Serif" font-size="10.00" fill="#000000">tuple</text>
</g>
<!-- Node1&#45;&gt;Node3 -->
<g id="edge3" class="edge">
<title>Node1&#45;&gt;Node3</title>
<path fill="none" stroke="#191970" d="M80.1102,-56.2455C69.0746,-47.8943 52.9708,-35.7076 40.0647,-25.9408"/>
<polygon fill="#191970" stroke="#191970" points="41.8283,-22.8862 31.7421,-19.6427 37.6041,-28.4681 41.8283,-22.8862"/>
</g>
<!-- Node4 -->
<g id="node5" class="node">
<title>Node4</title>
<polygon fill="#ffffff" stroke="#bfbfbf" points="116,-.5 116,-19.5 160,-19.5 160,-.5 116,-.5"/>
<text text-anchor="middle" x="138" y="-7.5" font-family="Helvetica,sans-Serif" font-size="10.00" fill="#000000">vector</text>
</g>
<!-- Node1&#45;&gt;Node4 -->
<g id="edge4" class="edge">
<title>Node1&#45;&gt;Node4</title>
<path fill="none" stroke="#191970" d="M100.8384,-56.2455C107.162,-48.3761 116.2224,-37.101 123.8136,-27.6542"/>
<polygon fill="#191970" stroke="#191970" points="126.7158,-29.6302 130.2514,-19.6427 121.2592,-25.2454 126.7158,-29.6302"/>
</g>
<!-- Node5&#45;&gt;Node2 -->
<g id="edge9" class="edge">
<title>Node5&#45;&gt;Node2</title>
<path fill="none" stroke="#191970" d="M177.1994,-56.3733C157.7757,-47.3838 128.5776,-33.8706 106.7036,-23.7471"/>
<polygon fill="#191970" stroke="#191970" points="108.0745,-20.5249 97.5292,-19.5011 105.1344,-26.8776 108.0745,-20.5249"/>
</g>
<!-- Node5&#45;&gt;Node4 -->
<g id="edge10" class="edge">
<title>Node5&#45;&gt;Node4</title>
<path fill="none" stroke="#191970" d="M187.5488,-56.2455C178.7731,-48.0549 166.0446,-36.1749 155.686,-26.5069"/>
<polygon fill="#191970" stroke="#191970" points="158.0301,-23.9072 148.3314,-19.6427 153.2539,-29.0246 158.0301,-23.9072"/>
</g>
<!-- Node6 -->
<g id="node7" class="node">
<title>Node6</title>
<polygon fill="#ffffff" stroke="#bfbfbf" points="178,-.5 178,-19.5 234,-19.5 234,-.5 178,-.5"/>
<text text-anchor="middle" x="206" y="-7.5" font-family="Helvetica,sans-Serif" font-size="10.00" fill="#000000">algorithm</text>
</g>
<!-- Node5&#45;&gt;Node6 -->
<g id="edge6" class="edge">
<title>Node5&#45;&gt;Node6</title>
<path fill="none" stroke="#191970" d="M199.3935,-56.2455C200.4374,-48.9382 201.9008,-38.6944 203.1851,-29.7046"/>
<polygon fill="#191970" stroke="#191970" points="206.673,-30.0372 204.6225,-19.6427 199.7434,-29.0472 206.673,-30.0372"/>
</g>
<!-- Node7 -->
<g id="node8" class="node">
<title>Node7</title>
<polygon fill="#ffffff" stroke="#bfbfbf" points="252.5,-.5 252.5,-19.5 299.5,-19.5 299.5,-.5 252.5,-.5"/>
<text text-anchor="middle" x="276" y="-7.5" font-family="Helvetica,sans-Serif" font-size="10.00" fill="#000000">iterator</text>
</g>
<!-- Node5&#45;&gt;Node7 -->
<g id="edge7" class="edge">
<title>Node5&#45;&gt;Node7</title>
<path fill="none" stroke="#191970" d="M211.5866,-56.2455C223.3305,-47.814 240.5199,-35.4729 254.1882,-25.6598"/>
<polygon fill="#191970" stroke="#191970" points="256.4871,-28.3179 262.5691,-19.6427 252.4046,-22.6316 256.4871,-28.3179"/>
</g>
<!-- Node8 -->
<g id="node9" class="node">
<title>Node8</title>
<polygon fill="#ffffff" stroke="#bfbfbf" points="318,-.5 318,-19.5 360,-19.5 360,-.5 318,-.5"/>
<text text-anchor="middle" x="339" y="-7.5" font-family="Helvetica,sans-Serif" font-size="10.00" fill="#000000">locale</text>
</g>
<!-- Node5&#45;&gt;Node8 -->
<g id="edge8" class="edge">
<title>Node5&#45;&gt;Node8</title>
<path fill="none" stroke="#191970" d="M222.2388,-56.3733C246.1168,-46.8898 282.671,-32.3718 308.5083,-22.1102"/>
<polygon fill="#191970" stroke="#191970" points="309.8353,-25.3491 317.8373,-18.4051 307.2515,-18.8434 309.8353,-25.3491"/>
</g>
</g>
</svg>
