<?xml version="1.0" encoding="UTF-8" standalone="no"?>
<!DOCTYPE svg PUBLIC "-//W3C//DTD SVG 1.1//EN"
 "http://www.w3.org/Graphics/SVG/1.1/DTD/svg11.dtd">
<!-- Generated by graphviz version 2.40.1 (20161225.0304)
 -->
<!-- Title: src/nuspell/dictionary.cxx Pages: 1 -->
<svg width="1485pt" height="319pt"
 viewBox="0.00 0.00 1484.89 319.00" xmlns="http://www.w3.org/2000/svg" xmlns:xlink="http://www.w3.org/1999/xlink">
<g id="graph0" class="graph" transform="scale(1 1) rotate(0) translate(4 315)">
<title>src/nuspell/dictionary.cxx</title>
<polygon fill="#ffffff" stroke="transparent" points="-4,4 -4,-315 1480.8913,-315 1480.8913,4 -4,4"/>
<!-- Node0 -->
<g id="node1" class="node">
<title>Node0</title>
<polygon fill="#bfbfbf" stroke="#000000" points="1109.8913,-291.5 1109.8913,-310.5 1237.8913,-310.5 1237.8913,-291.5 1109.8913,-291.5"/>
<text text-anchor="middle" x="1173.8913" y="-298.5" font-family="Helvetica,sans-Serif" font-size="10.00" fill="#000000">src/nuspell/dictionary.cxx</text>
</g>
<!-- Node1 -->
<g id="node2" class="node">
<title>Node1</title>
<g id="a_node2"><a xlink:href="dictionary_8hxx.html" target="_top" xlink:title="Dictionary spelling. ">
<polygon fill="#ffffff" stroke="#000000" points="1093.3913,-235.5 1093.3913,-254.5 1170.3913,-254.5 1170.3913,-235.5 1093.3913,-235.5"/>
<text text-anchor="middle" x="1131.8913" y="-242.5" font-family="Helvetica,sans-Serif" font-size="10.00" fill="#000000">dictionary.hxx</text>
</a>
</g>
</g>
<!-- Node0&#45;&gt;Node1 -->
<g id="edge1" class="edge">
<title>Node0&#45;&gt;Node1</title>
<path fill="none" stroke="#191970" d="M1166.5755,-291.2455C1160.6734,-283.3761 1152.2171,-272.101 1145.1319,-262.6542"/>
<polygon fill="#191970" stroke="#191970" points="1147.9234,-260.5427 1139.1233,-254.6427 1142.3233,-264.7427 1147.9234,-260.5427"/>
</g>
<!-- Node18 -->
<g id="node19" class="node">
<title>Node18</title>
<polygon fill="#ffffff" stroke="#bfbfbf" points="16.3913,-62 16.3913,-81 75.3913,-81 75.3913,-62 16.3913,-62"/>
<text text-anchor="middle" x="45.8913" y="-69" font-family="Helvetica,sans-Serif" font-size="10.00" fill="#000000">stdexcept</text>
</g>
<!-- Node0&#45;&gt;Node18 -->
<g id="edge39" class="edge">
<title>Node0&#45;&gt;Node18</title>
<path fill="none" stroke="#191970" d="M1124.0698,-291.4715C972.1291,-262.3009 501.3257,-171.0861 112.8913,-87 103.9892,-85.0729 94.4428,-82.9179 85.4267,-80.8419"/>
<polygon fill="#191970" stroke="#191970" points="86.0673,-77.3977 75.5351,-78.548 84.4859,-84.2167 86.0673,-77.3977"/>
</g>
<!-- Node24 -->
<g id="node25" class="node">
<title>Node24</title>
<g id="a_node25"><a xlink:href="string__utils_8hxx.html" target="_top" xlink:title="String algorithms. ">
<polygon fill="#ffffff" stroke="#000000" points="1023.3913,-123.5 1023.3913,-142.5 1106.3913,-142.5 1106.3913,-123.5 1023.3913,-123.5"/>
<text text-anchor="middle" x="1064.8913" y="-130.5" font-family="Helvetica,sans-Serif" font-size="10.00" fill="#000000">string_utils.hxx</text>
</a>
</g>
</g>
<!-- Node0&#45;&gt;Node24 -->
<g id="edge32" class="edge">
<title>Node0&#45;&gt;Node24</title>
<path fill="none" stroke="#191970" d="M1138.7578,-291.3457C1119.8767,-284.3339 1097.8716,-272.8732 1084.8913,-255 1062.8083,-224.5928 1061.5768,-178.7101 1063.0042,-152.7445"/>
<polygon fill="#191970" stroke="#191970" points="1066.5043,-152.8719 1063.7537,-142.6404 1059.5235,-152.3541 1066.5043,-152.8719"/>
</g>
<!-- Node25 -->
<g id="node26" class="node">
<title>Node25</title>
<polygon fill="#ffffff" stroke="#bfbfbf" points="1188.8913,-235.5 1188.8913,-254.5 1242.8913,-254.5 1242.8913,-235.5 1188.8913,-235.5"/>
<text text-anchor="middle" x="1215.8913" y="-242.5" font-family="Helvetica,sans-Serif" font-size="10.00" fill="#000000">iostream</text>
</g>
<!-- Node0&#45;&gt;Node25 -->
<g id="edge38" class="edge">
<title>Node0&#45;&gt;Node25</title>
<path fill="none" stroke="#191970" d="M1181.2071,-291.2455C1187.1092,-283.3761 1195.5655,-272.101 1202.6507,-262.6542"/>
<polygon fill="#191970" stroke="#191970" points="1205.4593,-264.7427 1208.6593,-254.6427 1199.8593,-260.5427 1205.4593,-264.7427"/>
</g>
<!-- Node26 -->
<g id="node27" class="node">
<title>Node26</title>
<polygon fill="#ffffff" stroke="#bfbfbf" points="1260.8913,-235.5 1260.8913,-254.5 1348.8913,-254.5 1348.8913,-235.5 1260.8913,-235.5"/>
<text text-anchor="middle" x="1304.8913" y="-242.5" font-family="Helvetica,sans-Serif" font-size="10.00" fill="#000000">boost/locale.hpp</text>
</g>
<!-- Node0&#45;&gt;Node26 -->
<g id="edge40" class="edge">
<title>Node0&#45;&gt;Node26</title>
<path fill="none" stroke="#191970" d="M1196.411,-291.3733C1217.6285,-282.3032 1249.6189,-268.6279 1273.3682,-258.4755"/>
<polygon fill="#191970" stroke="#191970" points="1274.8462,-261.6502 1282.6655,-254.5011 1272.0946,-255.2136 1274.8462,-261.6502"/>
</g>
<!-- Node27 -->
<g id="node28" class="node">
<title>Node27</title>
<polygon fill="#ffffff" stroke="#bfbfbf" points="1366.8913,-235.5 1366.8913,-254.5 1476.8913,-254.5 1476.8913,-235.5 1366.8913,-235.5"/>
<text text-anchor="middle" x="1421.8913" y="-242.5" font-family="Helvetica,sans-Serif" font-size="10.00" fill="#000000">boost/scope_exit.hpp</text>
</g>
<!-- Node0&#45;&gt;Node27 -->
<g id="edge41" class="edge">
<title>Node0&#45;&gt;Node27</title>
<path fill="none" stroke="#191970" d="M1216.2422,-291.4369C1258.6855,-281.8529 1324.1032,-267.0812 1369.7227,-256.78"/>
<polygon fill="#191970" stroke="#191970" points="1370.7316,-260.1404 1379.7151,-254.5237 1369.1897,-253.3123 1370.7316,-260.1404"/>
</g>
<!-- Node2 -->
<g id="node3" class="node">
<title>Node2</title>
<g id="a_node3"><a xlink:href="aff__data_8hxx.html" target="_top" xlink:title="Affixing data structures. ">
<polygon fill="#ffffff" stroke="#000000" points="893.3913,-179.5 893.3913,-198.5 964.3913,-198.5 964.3913,-179.5 893.3913,-179.5"/>
<text text-anchor="middle" x="928.8913" y="-186.5" font-family="Helvetica,sans-Serif" font-size="10.00" fill="#000000">aff_data.hxx</text>
</a>
</g>
</g>
<!-- Node1&#45;&gt;Node2 -->
<g id="edge2" class="edge">
<title>Node1&#45;&gt;Node2</title>
<path fill="none" stroke="#191970" d="M1096.9944,-235.3733C1062.8002,-225.9404 1010.5499,-211.5265 973.3871,-201.2747"/>
<polygon fill="#191970" stroke="#191970" points="973.9036,-197.7865 963.3329,-198.5011 972.042,-204.5345 973.9036,-197.7865"/>
</g>
<!-- Node8 -->
<g id="node9" class="node">
<title>Node8</title>
<g id="a_node9"><a xlink:href="locale__utils_8hxx.html" target="_top" xlink:title="Encoding transformations. ">
<polygon fill="#ffffff" stroke="#000000" points="1212.8913,-123.5 1212.8913,-142.5 1296.8913,-142.5 1296.8913,-123.5 1212.8913,-123.5"/>
<text text-anchor="middle" x="1254.8913" y="-130.5" font-family="Helvetica,sans-Serif" font-size="10.00" fill="#000000">locale_utils.hxx</text>
</a>
</g>
</g>
<!-- Node1&#45;&gt;Node8 -->
<g id="edge29" class="edge">
<title>Node1&#45;&gt;Node8</title>
<path fill="none" stroke="#191970" d="M1148.4784,-235.3384C1162.6091,-226.7165 1183.078,-213.278 1198.8913,-199 1215.1771,-184.2955 1231.1032,-164.8936 1241.7817,-150.9366"/>
<polygon fill="#191970" stroke="#191970" points="1244.7926,-152.7554 1247.9923,-142.6552 1239.1924,-148.5555 1244.7926,-152.7554"/>
</g>
<!-- Node9 -->
<g id="node10" class="node">
<title>Node9</title>
<polygon fill="#ffffff" stroke="#bfbfbf" points="1163.8913,-62 1163.8913,-81 1205.8913,-81 1205.8913,-62 1163.8913,-62"/>
<text text-anchor="middle" x="1184.8913" y="-69" font-family="Helvetica,sans-Serif" font-size="10.00" fill="#000000">locale</text>
</g>
<!-- Node1&#45;&gt;Node9 -->
<g id="edge31" class="edge">
<title>Node1&#45;&gt;Node9</title>
<path fill="none" stroke="#191970" d="M1141.3093,-235.2991C1149.217,-226.55 1160.1215,-212.9486 1165.8913,-199 1180.728,-163.1325 1184.1821,-117.3431 1184.8669,-91.5388"/>
<polygon fill="#191970" stroke="#191970" points="1188.3714,-91.2464 1185.0176,-81.1965 1181.3722,-91.1444 1188.3714,-91.2464"/>
</g>
<!-- Node23 -->
<g id="node24" class="node">
<title>Node23</title>
<polygon fill="#ffffff" stroke="#bfbfbf" points="1106.8913,-179.5 1106.8913,-198.5 1156.8913,-198.5 1156.8913,-179.5 1106.8913,-179.5"/>
<text text-anchor="middle" x="1131.8913" y="-186.5" font-family="Helvetica,sans-Serif" font-size="10.00" fill="#000000">fstream</text>
</g>
<!-- Node1&#45;&gt;Node23 -->
<g id="edge30" class="edge">
<title>Node1&#45;&gt;Node23</title>
<path fill="none" stroke="#191970" d="M1131.8913,-235.2455C1131.8913,-227.9382 1131.8913,-217.6944 1131.8913,-208.7046"/>
<polygon fill="#191970" stroke="#191970" points="1135.3914,-208.6426 1131.8913,-198.6427 1128.3914,-208.6427 1135.3914,-208.6426"/>
</g>
<!-- Node3 -->
<g id="node4" class="node">
<title>Node3</title>
<polygon fill="#ffffff" stroke="#bfbfbf" points="820.3913,-123.5 820.3913,-142.5 865.3913,-142.5 865.3913,-123.5 820.3913,-123.5"/>
<text text-anchor="middle" x="842.8913" y="-130.5" font-family="Helvetica,sans-Serif" font-size="10.00" fill="#000000">iosfwd</text>
</g>
<!-- Node2&#45;&gt;Node3 -->
<g id="edge3" class="edge">
<title>Node2&#45;&gt;Node3</title>
<path fill="none" stroke="#191970" d="M913.9112,-179.2455C900.7162,-170.6534 881.2862,-158.0014 866.0834,-148.1018"/>
<polygon fill="#191970" stroke="#191970" points="867.9896,-145.1665 857.6997,-142.6427 864.1698,-151.0325 867.9896,-145.1665"/>
</g>
<!-- Node4 -->
<g id="node5" class="node">
<title>Node4</title>
<polygon fill="#ffffff" stroke="#bfbfbf" points="1077.3913,-.5 1077.3913,-19.5 1118.3913,-19.5 1118.3913,-.5 1077.3913,-.5"/>
<text text-anchor="middle" x="1097.8913" y="-7.5" font-family="Helvetica,sans-Serif" font-size="10.00" fill="#000000">string</text>
</g>
<!-- Node2&#45;&gt;Node4 -->
<g id="edge4" class="edge">
<title>Node2&#45;&gt;Node4</title>
<path fill="none" stroke="#191970" d="M964.4575,-185.4104C1013.3613,-179.6567 1097.432,-166.5503 1115.8913,-143 1142.0075,-109.6809 1121.9869,-56.6642 1108.163,-28.6921"/>
<polygon fill="#191970" stroke="#191970" points="1111.1593,-26.8673 1103.4473,-19.6026 1104.9458,-30.091 1111.1593,-26.8673"/>
</g>
<!-- Node5 -->
<g id="node6" class="node">
<title>Node5</title>
<polygon fill="#ffffff" stroke="#bfbfbf" points="922.3913,-123.5 922.3913,-142.5 1005.3913,-142.5 1005.3913,-123.5 922.3913,-123.5"/>
<text text-anchor="middle" x="963.8913" y="-130.5" font-family="Helvetica,sans-Serif" font-size="10.00" fill="#000000">unordered_map</text>
</g>
<!-- Node2&#45;&gt;Node5 -->
<g id="edge5" class="edge">
<title>Node2&#45;&gt;Node5</title>
<path fill="none" stroke="#191970" d="M934.9878,-179.2455C939.8059,-171.5367 946.6664,-160.5598 952.4946,-151.2348"/>
<polygon fill="#191970" stroke="#191970" points="955.5326,-152.9777 957.8646,-142.6427 949.5966,-149.2677 955.5326,-152.9777"/>
</g>
<!-- Node6 -->
<g id="node7" class="node">
<title>Node6</title>
<polygon fill="#ffffff" stroke="#bfbfbf" points="889.8913,-62 889.8913,-81 929.8913,-81 929.8913,-62 889.8913,-62"/>
<text text-anchor="middle" x="909.8913" y="-69" font-family="Helvetica,sans-Serif" font-size="10.00" fill="#000000">utility</text>
</g>
<!-- Node2&#45;&gt;Node6 -->
<g id="edge6" class="edge">
<title>Node2&#45;&gt;Node6</title>
<path fill="none" stroke="#191970" d="M924.6049,-179.3578C920.7621,-170.2044 915.3609,-155.9572 912.8913,-143 909.6242,-125.8585 909.0391,-106.0039 909.1764,-91.573"/>
<polygon fill="#191970" stroke="#191970" points="912.6811,-91.3932 909.404,-81.318 905.6829,-91.2378 912.6811,-91.3932"/>
</g>
<!-- Node7 -->
<g id="node8" class="node">
<title>Node7</title>
<polygon fill="#ffffff" stroke="#bfbfbf" points="395.8913,-.5 395.8913,-19.5 439.8913,-19.5 439.8913,-.5 395.8913,-.5"/>
<text text-anchor="middle" x="417.8913" y="-7.5" font-family="Helvetica,sans-Serif" font-size="10.00" fill="#000000">vector</text>
</g>
<!-- Node2&#45;&gt;Node7 -->
<g id="edge7" class="edge">
<title>Node2&#45;&gt;Node7</title>
<path fill="none" stroke="#191970" d="M893.1867,-187.8055C730.7912,-182.0136 67.1884,-154.3356 6.8913,-87 -2.2998,-76.736 -2.2933,-66.2699 6.8913,-56 32.0409,-27.8786 292.9311,-14.9265 385.5196,-11.1908"/>
<polygon fill="#191970" stroke="#191970" points="385.8462,-14.6808 395.7008,-10.79 385.5708,-7.6862 385.8462,-14.6808"/>
</g>
<!-- Node2&#45;&gt;Node8 -->
<g id="edge8" class="edge">
<title>Node2&#45;&gt;Node8</title>
<path fill="none" stroke="#191970" d="M964.3996,-182.9004C1022.006,-173.0048 1136.0949,-153.4067 1202.8689,-141.9364"/>
<polygon fill="#191970" stroke="#191970" points="1203.5012,-145.3791 1212.7643,-140.2365 1202.3161,-138.4801 1203.5012,-145.3791"/>
</g>
<!-- Node12 -->
<g id="node13" class="node">
<title>Node12</title>
<g id="a_node13"><a xlink:href="structures_8hxx.html" target="_top" xlink:title="Data structures. ">
<polygon fill="#ffffff" stroke="#000000" points="617.3913,-123.5 617.3913,-142.5 696.3913,-142.5 696.3913,-123.5 617.3913,-123.5"/>
<text text-anchor="middle" x="656.8913" y="-130.5" font-family="Helvetica,sans-Serif" font-size="10.00" fill="#000000">structures.hxx</text>
</a>
</g>
</g>
<!-- Node2&#45;&gt;Node12 -->
<g id="edge13" class="edge">
<title>Node2&#45;&gt;Node12</title>
<path fill="none" stroke="#191970" d="M893.3321,-181.679C845.5772,-171.8471 760.4916,-154.3295 706.4686,-143.2071"/>
<polygon fill="#191970" stroke="#191970" points="706.9292,-139.7286 696.4288,-141.1401 705.5176,-146.5848 706.9292,-139.7286"/>
</g>
<!-- Node8&#45;&gt;Node4 -->
<g id="edge10" class="edge">
<title>Node8&#45;&gt;Node4</title>
<path fill="none" stroke="#191970" d="M1296.9498,-128.8313C1359.0678,-121.0883 1464.0003,-100.9956 1424.8913,-56 1405.5846,-33.7873 1206.8616,-17.613 1128.9695,-12.0815"/>
<polygon fill="#191970" stroke="#191970" points="1129.0314,-8.5774 1118.8118,-11.3721 1128.5436,-15.5604 1129.0314,-8.5774"/>
</g>
<!-- Node8&#45;&gt;Node9 -->
<g id="edge9" class="edge">
<title>Node8&#45;&gt;Node9</title>
<path fill="none" stroke="#191970" d="M1243.9538,-123.3906C1233.2293,-113.9683 1216.6626,-99.4134 1203.8012,-88.1137"/>
<polygon fill="#191970" stroke="#191970" points="1205.8056,-85.2158 1195.983,-81.2449 1201.1854,-90.4745 1205.8056,-85.2158"/>
</g>
<!-- Node10 -->
<g id="node11" class="node">
<title>Node10</title>
<polygon fill="#ffffff" stroke="#bfbfbf" points="1223.8913,-62 1223.8913,-81 1285.8913,-81 1285.8913,-62 1223.8913,-62"/>
<text text-anchor="middle" x="1254.8913" y="-69" font-family="Helvetica,sans-Serif" font-size="10.00" fill="#000000">type_traits</text>
</g>
<!-- Node8&#45;&gt;Node10 -->
<g id="edge11" class="edge">
<title>Node8&#45;&gt;Node10</title>
<path fill="none" stroke="#191970" d="M1254.8913,-123.3906C1254.8913,-114.8657 1254.8913,-102.1392 1254.8913,-91.4235"/>
<polygon fill="#191970" stroke="#191970" points="1258.3914,-91.2448 1254.8913,-81.2449 1251.3914,-91.2449 1258.3914,-91.2448"/>
</g>
<!-- Node11 -->
<g id="node12" class="node">
<title>Node11</title>
<polygon fill="#ffffff" stroke="#bfbfbf" points="1304.3913,-56.5 1304.3913,-86.5 1415.3913,-86.5 1415.3913,-56.5 1304.3913,-56.5"/>
<text text-anchor="start" x="1312.3913" y="-74.5" font-family="Helvetica,sans-Serif" font-size="10.00" fill="#000000">boost/locale/encoding</text>
<text text-anchor="middle" x="1359.8913" y="-63.5" font-family="Helvetica,sans-Serif" font-size="10.00" fill="#000000">_utf.hpp</text>
</g>
<!-- Node8&#45;&gt;Node11 -->
<g id="edge12" class="edge">
<title>Node8&#45;&gt;Node11</title>
<path fill="none" stroke="#191970" d="M1271.2976,-123.3906C1285.7712,-114.9132 1307.3385,-102.2809 1325.5694,-91.6028"/>
<polygon fill="#191970" stroke="#191970" points="1327.3455,-94.6188 1334.2054,-86.5446 1323.8076,-88.5786 1327.3455,-94.6188"/>
</g>
<!-- Node12&#45;&gt;Node4 -->
<g id="edge22" class="edge">
<title>Node12&#45;&gt;Node4</title>
<path fill="none" stroke="#191970" d="M696.756,-128.3201C735.6648,-122.5841 795.7267,-110.566 842.8913,-87 862.3889,-77.258 861.233,-65.4135 880.8913,-56 942.6903,-26.407 1023.4064,-15.7291 1066.8935,-11.9685"/>
<polygon fill="#191970" stroke="#191970" points="1067.4229,-15.4375 1077.1132,-11.1541 1066.8668,-8.4596 1067.4229,-15.4375"/>
</g>
<!-- Node12&#45;&gt;Node6 -->
<g id="edge23" class="edge">
<title>Node12&#45;&gt;Node6</title>
<path fill="none" stroke="#191970" d="M696.7455,-127.3415C741.1721,-120.4128 814.8051,-107.0662 875.8913,-87 877.7403,-86.3926 879.6228,-85.7148 881.5056,-84.9912"/>
<polygon fill="#191970" stroke="#191970" points="882.899,-88.2023 890.7685,-81.1084 880.1928,-81.7465 882.899,-88.2023"/>
</g>
<!-- Node12&#45;&gt;Node7 -->
<g id="edge24" class="edge">
<title>Node12&#45;&gt;Node7</title>
<path fill="none" stroke="#191970" d="M617.1099,-132.5996C498.9428,-131.0012 156.1553,-123.2526 122.8913,-87 113.5764,-76.8482 113.9308,-66.466 122.8913,-56 139.8803,-36.1565 313.0341,-19.0411 385.8759,-12.6617"/>
<polygon fill="#191970" stroke="#191970" points="386.2028,-16.1466 395.8647,-11.7994 385.6006,-9.1726 386.2028,-16.1466"/>
</g>
<!-- Node13 -->
<g id="node14" class="node">
<title>Node13</title>
<g id="a_node14"><a xlink:href="condition_8hxx.html" target="_top" xlink:title="Condition matching. ">
<polygon fill="#ffffff" stroke="#000000" points="759.8913,-62 759.8913,-81 833.8913,-81 833.8913,-62 759.8913,-62"/>
<text text-anchor="middle" x="796.8913" y="-69" font-family="Helvetica,sans-Serif" font-size="10.00" fill="#000000">condition.hxx</text>
</a>
</g>
</g>
<!-- Node12&#45;&gt;Node13 -->
<g id="edge14" class="edge">
<title>Node12&#45;&gt;Node13</title>
<path fill="none" stroke="#191970" d="M678.7663,-123.3906C702.1909,-113.1005 739.5509,-96.6888 765.9754,-85.0809"/>
<polygon fill="#191970" stroke="#191970" points="767.422,-88.2683 775.1699,-81.0419 764.6067,-81.8594 767.422,-88.2683"/>
</g>
<!-- Node15 -->
<g id="node16" class="node">
<title>Node15</title>
<polygon fill="#ffffff" stroke="#bfbfbf" points="947.8913,-62 947.8913,-81 1003.8913,-81 1003.8913,-62 947.8913,-62"/>
<text text-anchor="middle" x="975.8913" y="-69" font-family="Helvetica,sans-Serif" font-size="10.00" fill="#000000">algorithm</text>
</g>
<!-- Node12&#45;&gt;Node15 -->
<g id="edge18" class="edge">
<title>Node12&#45;&gt;Node15</title>
<path fill="none" stroke="#191970" d="M696.7688,-129.4748C751.9917,-123.9241 854.4898,-111.1972 938.8913,-87 941.2073,-86.336 943.573,-85.5685 945.9327,-84.7374"/>
<polygon fill="#191970" stroke="#191970" points="947.3842,-87.929 955.4563,-81.0666 944.8667,-81.3974 947.3842,-87.929"/>
</g>
<!-- Node16 -->
<g id="node17" class="node">
<title>Node16</title>
<polygon fill="#ffffff" stroke="#bfbfbf" points="131.8913,-62 131.8913,-81 175.8913,-81 175.8913,-62 131.8913,-62"/>
<text text-anchor="middle" x="153.8913" y="-69" font-family="Helvetica,sans-Serif" font-size="10.00" fill="#000000">cmath</text>
</g>
<!-- Node12&#45;&gt;Node16 -->
<g id="edge19" class="edge">
<title>Node12&#45;&gt;Node16</title>
<path fill="none" stroke="#191970" d="M617.0929,-130.9927C518.6355,-125.7274 265.7886,-110.2973 184.8913,-87 183.1819,-86.5077 181.454,-85.9225 179.7345,-85.2722"/>
<polygon fill="#191970" stroke="#191970" points="180.7284,-81.8845 170.1679,-81.033 177.8925,-88.2843 180.7284,-81.8845"/>
</g>
<!-- Node17 -->
<g id="node18" class="node">
<title>Node17</title>
<polygon fill="#ffffff" stroke="#bfbfbf" points="1022.3913,-62 1022.3913,-81 1069.3913,-81 1069.3913,-62 1022.3913,-62"/>
<text text-anchor="middle" x="1045.8913" y="-69" font-family="Helvetica,sans-Serif" font-size="10.00" fill="#000000">iterator</text>
</g>
<!-- Node12&#45;&gt;Node17 -->
<g id="edge20" class="edge">
<title>Node12&#45;&gt;Node17</title>
<path fill="none" stroke="#191970" d="M696.424,-129.4505C776.2748,-122.0262 954.1867,-104.123 1012.8913,-87 1014.8054,-86.4417 1016.7481,-85.7861 1018.6833,-85.0656"/>
<polygon fill="#191970" stroke="#191970" points="1020.2825,-88.1896 1028.131,-81.0725 1017.5573,-81.7418 1020.2825,-88.1896"/>
</g>
<!-- Node12&#45;&gt;Node18 -->
<g id="edge21" class="edge">
<title>Node12&#45;&gt;Node18</title>
<path fill="none" stroke="#191970" d="M617.1818,-131.1114C505.6238,-125.5939 190.9537,-108.5222 89.8913,-87 86.2722,-86.2293 82.5435,-85.24 78.8595,-84.1347"/>
<polygon fill="#191970" stroke="#191970" points="79.9112,-80.7962 69.3185,-81.0083 77.7314,-87.4482 79.9112,-80.7962"/>
</g>
<!-- Node19 -->
<g id="node20" class="node">
<title>Node19</title>
<polygon fill="#ffffff" stroke="#bfbfbf" points="193.8913,-56.5 193.8913,-86.5 303.8913,-86.5 303.8913,-56.5 193.8913,-56.5"/>
<text text-anchor="start" x="201.8913" y="-74.5" font-family="Helvetica,sans-Serif" font-size="10.00" fill="#000000">boost/container/small</text>
<text text-anchor="middle" x="248.8913" y="-63.5" font-family="Helvetica,sans-Serif" font-size="10.00" fill="#000000">_vector.hpp</text>
</g>
<!-- Node12&#45;&gt;Node19 -->
<g id="edge25" class="edge">
<title>Node12&#45;&gt;Node19</title>
<path fill="none" stroke="#191970" d="M617.2094,-129.0591C554.7777,-122.5619 429.6521,-108.342 314.0519,-87.1019"/>
<polygon fill="#191970" stroke="#191970" points="314.4416,-83.6145 303.9702,-85.2269 313.1616,-90.4964 314.4416,-83.6145"/>
</g>
<!-- Node20 -->
<g id="node21" class="node">
<title>Node20</title>
<polygon fill="#ffffff" stroke="#bfbfbf" points="321.8913,-62 321.8913,-81 471.8913,-81 471.8913,-62 321.8913,-62"/>
<text text-anchor="middle" x="396.8913" y="-69" font-family="Helvetica,sans-Serif" font-size="10.00" fill="#000000">boost/multi_index/member.hpp</text>
</g>
<!-- Node12&#45;&gt;Node20 -->
<g id="edge26" class="edge">
<title>Node12&#45;&gt;Node20</title>
<path fill="none" stroke="#191970" d="M617.1199,-123.5925C571.4718,-112.795 496.5356,-95.0697 446.9545,-83.3419"/>
<polygon fill="#191970" stroke="#191970" points="447.623,-79.9035 437.0859,-81.0076 446.0117,-86.7155 447.623,-79.9035"/>
</g>
<!-- Node21 -->
<g id="node22" class="node">
<title>Node21</title>
<polygon fill="#ffffff" stroke="#bfbfbf" points="490.3913,-56.5 490.3913,-86.5 591.3913,-86.5 591.3913,-56.5 490.3913,-56.5"/>
<text text-anchor="start" x="498.3913" y="-74.5" font-family="Helvetica,sans-Serif" font-size="10.00" fill="#000000">boost/range/iterator</text>
<text text-anchor="middle" x="540.8913" y="-63.5" font-family="Helvetica,sans-Serif" font-size="10.00" fill="#000000">_range_core.hpp</text>
</g>
<!-- Node12&#45;&gt;Node21 -->
<g id="edge27" class="edge">
<title>Node12&#45;&gt;Node21</title>
<path fill="none" stroke="#191970" d="M638.7663,-123.3906C622.631,-114.8361 598.5158,-102.0509 578.2604,-91.3121"/>
<polygon fill="#191970" stroke="#191970" points="579.7427,-88.1365 569.2681,-86.5446 576.4637,-94.3211 579.7427,-88.1365"/>
</g>
<!-- Node22 -->
<g id="node23" class="node">
<title>Node22</title>
<polygon fill="#ffffff" stroke="#bfbfbf" points="609.8913,-56.5 609.8913,-86.5 703.8913,-86.5 703.8913,-56.5 609.8913,-56.5"/>
<text text-anchor="start" x="617.8913" y="-74.5" font-family="Helvetica,sans-Serif" font-size="10.00" fill="#000000">boost/utility/string</text>
<text text-anchor="middle" x="656.8913" y="-63.5" font-family="Helvetica,sans-Serif" font-size="10.00" fill="#000000">_view.hpp</text>
</g>
<!-- Node12&#45;&gt;Node22 -->
<g id="edge28" class="edge">
<title>Node12&#45;&gt;Node22</title>
<path fill="none" stroke="#191970" d="M656.8913,-123.3906C656.8913,-116.2234 656.8913,-106.0862 656.8913,-96.671"/>
<polygon fill="#191970" stroke="#191970" points="660.3914,-96.5446 656.8913,-86.5446 653.3914,-96.5446 660.3914,-96.5446"/>
</g>
<!-- Node13&#45;&gt;Node4 -->
<g id="edge15" class="edge">
<title>Node13&#45;&gt;Node4</title>
<path fill="none" stroke="#191970" d="M826.1309,-61.9942C833.2114,-59.8644 840.7876,-57.7272 847.8913,-56 926.2299,-36.9531 1020.0714,-21.6654 1067.397,-14.471"/>
<polygon fill="#191970" stroke="#191970" points="1067.9419,-17.9285 1077.3098,-12.9795 1066.9003,-11.0065 1067.9419,-17.9285"/>
</g>
<!-- Node13&#45;&gt;Node7 -->
<g id="edge17" class="edge">
<title>Node13&#45;&gt;Node7</title>
<path fill="none" stroke="#191970" d="M768.2391,-61.9377C761.0044,-59.7601 753.211,-57.6153 745.8913,-56 638.8484,-32.3784 509.3426,-18.4289 450.1871,-12.8454"/>
<polygon fill="#191970" stroke="#191970" points="450.2617,-9.3374 439.9814,-11.8998 449.6158,-16.3076 450.2617,-9.3374"/>
</g>
<!-- Node14 -->
<g id="node15" class="node">
<title>Node14</title>
<polygon fill="#ffffff" stroke="#bfbfbf" points="777.8913,-.5 777.8913,-19.5 815.8913,-19.5 815.8913,-.5 777.8913,-.5"/>
<text text-anchor="middle" x="796.8913" y="-7.5" font-family="Helvetica,sans-Serif" font-size="10.00" fill="#000000">tuple</text>
</g>
<!-- Node13&#45;&gt;Node14 -->
<g id="edge16" class="edge">
<title>Node13&#45;&gt;Node14</title>
<path fill="none" stroke="#191970" d="M796.8913,-61.8906C796.8913,-53.3657 796.8913,-40.6392 796.8913,-29.9235"/>
<polygon fill="#191970" stroke="#191970" points="800.3914,-29.7448 796.8913,-19.7449 793.3914,-29.7449 800.3914,-29.7448"/>
</g>
<!-- Node24&#45;&gt;Node4 -->
<g id="edge36" class="edge">
<title>Node24&#45;&gt;Node4</title>
<path fill="none" stroke="#191970" d="M1068.0486,-123.1739C1070.9918,-113.8904 1075.4343,-99.5553 1078.8913,-87 1084.2443,-67.5583 1089.6909,-45.1607 1093.3721,-29.5521"/>
<polygon fill="#191970" stroke="#191970" points="1096.8476,-30.0597 1095.7139,-19.5257 1090.0311,-28.4676 1096.8476,-30.0597"/>
</g>
<!-- Node24&#45;&gt;Node7 -->
<g id="edge37" class="edge">
<title>Node24&#45;&gt;Node7</title>
<path fill="none" stroke="#191970" d="M1023.185,-124.4582C1020.3817,-123.9459 1017.5976,-123.4547 1014.8913,-123 898.109,-103.3787 859.5002,-134.1934 750.8913,-87 730.9011,-78.3137 732.7974,-64.8774 712.8913,-56 666.254,-35.2016 516.6578,-19.1694 450.2143,-12.8871"/>
<polygon fill="#191970" stroke="#191970" points="450.2041,-9.3711 439.9228,-11.9294 449.5555,-16.341 450.2041,-9.3711"/>
</g>
<!-- Node24&#45;&gt;Node9 -->
<g id="edge35" class="edge">
<title>Node24&#45;&gt;Node9</title>
<path fill="none" stroke="#191970" d="M1083.6413,-123.3906C1103.3673,-113.2811 1134.6225,-97.2628 1157.1914,-85.6962"/>
<polygon fill="#191970" stroke="#191970" points="1158.97,-88.7176 1166.273,-81.0419 1155.7773,-82.4881 1158.97,-88.7176"/>
</g>
<!-- Node24&#45;&gt;Node15 -->
<g id="edge33" class="edge">
<title>Node24&#45;&gt;Node15</title>
<path fill="none" stroke="#191970" d="M1050.9851,-123.3906C1036.8775,-113.6421 1014.8189,-98.3994 998.2528,-86.9521"/>
<polygon fill="#191970" stroke="#191970" points="999.9166,-83.8474 989.6999,-81.0419 995.9371,-89.6063 999.9166,-83.8474"/>
</g>
<!-- Node24&#45;&gt;Node17 -->
<g id="edge34" class="edge">
<title>Node24&#45;&gt;Node17</title>
<path fill="none" stroke="#191970" d="M1061.9226,-123.3906C1059.2611,-114.776 1055.2742,-101.8708 1051.9422,-91.0858"/>
<polygon fill="#191970" stroke="#191970" points="1055.1978,-89.7661 1048.9019,-81.2449 1048.5097,-91.8324 1055.1978,-89.7661"/>
</g>
</g>
</svg>
