<?xml version="1.0" encoding="UTF-8" standalone="no"?>
<!DOCTYPE svg PUBLIC "-//W3C//DTD SVG 1.1//EN"
 "http://www.w3.org/Graphics/SVG/1.1/DTD/svg11.dtd">
<!-- Generated by graphviz version 2.40.1 (20161225.0304)
 -->
<!-- Title: src/nuspell/finder.hxx Pages: 1 -->
<svg width="170pt" height="84pt"
 viewBox="0.00 0.00 169.50 84.00" xmlns="http://www.w3.org/2000/svg" xmlns:xlink="http://www.w3.org/1999/xlink">
<g id="graph0" class="graph" transform="scale(1 1) rotate(0) translate(4 80)">
<title>src/nuspell/finder.hxx</title>
<polygon fill="#ffffff" stroke="transparent" points="-4,4 -4,-80 165.5,-80 165.5,4 -4,4"/>
<!-- Node0 -->
<g id="node1" class="node">
<title>Node0</title>
<polygon fill="#bfbfbf" stroke="#000000" points="24.5,-56.5 24.5,-75.5 134.5,-75.5 134.5,-56.5 24.5,-56.5"/>
<text text-anchor="middle" x="79.5" y="-63.5" font-family="Helvetica,sans-Serif" font-size="10.00" fill="#000000">src/nuspell/finder.hxx</text>
</g>
<!-- Node1 -->
<g id="node2" class="node">
<title>Node1</title>
<polygon fill="#ffffff" stroke="#bfbfbf" points="0,-.5 0,-19.5 41,-19.5 41,-.5 0,-.5"/>
<text text-anchor="middle" x="20.5" y="-7.5" font-family="Helvetica,sans-Serif" font-size="10.00" fill="#000000">string</text>
</g>
<!-- Node0&#45;&gt;Node1 -->
<g id="edge1" class="edge">
<title>Node0&#45;&gt;Node1</title>
<path fill="none" stroke="#191970" d="M69.223,-56.2455C60.6782,-48.1352 48.3222,-36.4075 38.1915,-26.7919"/>
<polygon fill="#191970" stroke="#191970" points="40.3218,-23.9884 30.6592,-19.6427 35.5028,-29.0655 40.3218,-23.9884"/>
</g>
<!-- Node2 -->
<g id="node3" class="node">
<title>Node2</title>
<polygon fill="#ffffff" stroke="#bfbfbf" points="59.5,-.5 59.5,-19.5 99.5,-19.5 99.5,-.5 59.5,-.5"/>
<text text-anchor="middle" x="79.5" y="-7.5" font-family="Helvetica,sans-Serif" font-size="10.00" fill="#000000">utility</text>
</g>
<!-- Node0&#45;&gt;Node2 -->
<g id="edge2" class="edge">
<title>Node0&#45;&gt;Node2</title>
<path fill="none" stroke="#191970" d="M79.5,-56.2455C79.5,-48.9382 79.5,-38.6944 79.5,-29.7046"/>
<polygon fill="#191970" stroke="#191970" points="83.0001,-29.6426 79.5,-19.6427 76.0001,-29.6427 83.0001,-29.6426"/>
</g>
<!-- Node3 -->
<g id="node4" class="node">
<title>Node3</title>
<polygon fill="#ffffff" stroke="#bfbfbf" points="117.5,-.5 117.5,-19.5 161.5,-19.5 161.5,-.5 117.5,-.5"/>
<text text-anchor="middle" x="139.5" y="-7.5" font-family="Helvetica,sans-Serif" font-size="10.00" fill="#000000">vector</text>
</g>
<!-- Node0&#45;&gt;Node3 -->
<g id="edge3" class="edge">
<title>Node0&#45;&gt;Node3</title>
<path fill="none" stroke="#191970" d="M89.9512,-56.2455C98.7269,-48.0549 111.4554,-36.1749 121.814,-26.5069"/>
<polygon fill="#191970" stroke="#191970" points="124.2461,-29.0246 129.1686,-19.6427 119.4699,-23.9072 124.2461,-29.0246"/>
</g>
</g>
</svg>
