<?xml version="1.0" encoding="UTF-8" standalone="no"?>
<!DOCTYPE svg PUBLIC "-//W3C//DTD SVG 1.1//EN"
 "http://www.w3.org/Graphics/SVG/1.1/DTD/svg11.dtd">
<!-- Generated by graphviz version 2.40.1 (20161225.0304)
 -->
<!-- Title: src/nuspell/finder.cxx Pages: 1 -->
<svg width="618pt" height="140pt"
 viewBox="0.00 0.00 618.00 140.00" xmlns="http://www.w3.org/2000/svg" xmlns:xlink="http://www.w3.org/1999/xlink">
<g id="graph0" class="graph" transform="scale(1 1) rotate(0) translate(4 136)">
<title>src/nuspell/finder.cxx</title>
<polygon fill="#ffffff" stroke="transparent" points="-4,4 -4,-136 614,-136 614,4 -4,4"/>
<!-- Node0 -->
<g id="node1" class="node">
<title>Node0</title>
<polygon fill="#bfbfbf" stroke="#000000" points="251,-112.5 251,-131.5 361,-131.5 361,-112.5 251,-112.5"/>
<text text-anchor="middle" x="306" y="-119.5" font-family="Helvetica,sans-Serif" font-size="10.00" fill="#000000">src/nuspell/finder.cxx</text>
</g>
<!-- Node1 -->
<g id="node2" class="node">
<title>Node1</title>
<g id="a_node2"><a xlink:href="finder_8hxx.html" target="_top" xlink:title="Finding dictionaries. ">
<polygon fill="#ffffff" stroke="#000000" points="64.5,-56.5 64.5,-75.5 123.5,-75.5 123.5,-56.5 64.5,-56.5"/>
<text text-anchor="middle" x="94" y="-63.5" font-family="Helvetica,sans-Serif" font-size="10.00" fill="#000000">finder.hxx</text>
</a>
</g>
</g>
<!-- Node0&#45;&gt;Node1 -->
<g id="edge1" class="edge">
<title>Node0&#45;&gt;Node1</title>
<path fill="none" stroke="#191970" d="M269.5559,-112.3733C231.7369,-102.3833 172.7686,-86.8068 133.7649,-76.5039"/>
<polygon fill="#191970" stroke="#191970" points="134.3785,-73.046 123.8163,-73.876 132.5908,-79.8139 134.3785,-73.046"/>
</g>
<!-- Node3 -->
<g id="node4" class="node">
<title>Node3</title>
<polygon fill="#ffffff" stroke="#bfbfbf" points="0,-.5 0,-19.5 40,-19.5 40,-.5 0,-.5"/>
<text text-anchor="middle" x="20" y="-7.5" font-family="Helvetica,sans-Serif" font-size="10.00" fill="#000000">utility</text>
</g>
<!-- Node0&#45;&gt;Node3 -->
<g id="edge17" class="edge">
<title>Node0&#45;&gt;Node3</title>
<path fill="none" stroke="#191970" d="M250.9035,-117.5027C186.6892,-111.3126 85.4676,-98.3185 55,-76 39.6767,-64.7752 30.4311,-44.7931 25.3242,-29.747"/>
<polygon fill="#191970" stroke="#191970" points="28.5738,-28.4038 22.3094,-19.8594 21.8781,-30.4455 28.5738,-28.4038"/>
</g>
<!-- Node5 -->
<g id="node6" class="node">
<title>Node5</title>
<g id="a_node6"><a xlink:href="string__utils_8hxx.html" target="_top" xlink:title="String algorithms. ">
<polygon fill="#ffffff" stroke="#000000" points="156.5,-56.5 156.5,-75.5 239.5,-75.5 239.5,-56.5 156.5,-56.5"/>
<text text-anchor="middle" x="198" y="-63.5" font-family="Helvetica,sans-Serif" font-size="10.00" fill="#000000">string_utils.hxx</text>
</a>
</g>
</g>
<!-- Node0&#45;&gt;Node5 -->
<g id="edge5" class="edge">
<title>Node0&#45;&gt;Node5</title>
<path fill="none" stroke="#191970" d="M287.1878,-112.2455C270.1527,-103.4125 244.8425,-90.2887 225.5319,-80.2758"/>
<polygon fill="#191970" stroke="#191970" points="227.0853,-77.1388 216.5966,-75.6427 223.863,-83.353 227.0853,-77.1388"/>
</g>
<!-- Node6 -->
<g id="node7" class="node">
<title>Node6</title>
<polygon fill="#ffffff" stroke="#bfbfbf" points="240,-.5 240,-19.5 296,-19.5 296,-.5 240,-.5"/>
<text text-anchor="middle" x="268" y="-7.5" font-family="Helvetica,sans-Serif" font-size="10.00" fill="#000000">algorithm</text>
</g>
<!-- Node0&#45;&gt;Node6 -->
<g id="edge11" class="edge">
<title>Node0&#45;&gt;Node6</title>
<path fill="none" stroke="#191970" d="M302.7601,-112.4509C296.5063,-94.0186 282.6658,-53.2254 274.461,-29.043"/>
<polygon fill="#191970" stroke="#191970" points="277.7591,-27.8701 271.2317,-19.5249 271.1303,-30.1192 277.7591,-27.8701"/>
</g>
<!-- Node7 -->
<g id="node8" class="node">
<title>Node7</title>
<polygon fill="#ffffff" stroke="#bfbfbf" points="314.5,-.5 314.5,-19.5 361.5,-19.5 361.5,-.5 314.5,-.5"/>
<text text-anchor="middle" x="338" y="-7.5" font-family="Helvetica,sans-Serif" font-size="10.00" fill="#000000">iterator</text>
</g>
<!-- Node0&#45;&gt;Node7 -->
<g id="edge14" class="edge">
<title>Node0&#45;&gt;Node7</title>
<path fill="none" stroke="#191970" d="M308.7283,-112.4509C313.9711,-94.1013 325.5455,-53.5908 332.4659,-29.3693"/>
<polygon fill="#191970" stroke="#191970" points="335.8967,-30.1017 335.2786,-19.5249 329.166,-28.1786 335.8967,-30.1017"/>
</g>
<!-- Node9 -->
<g id="node10" class="node">
<title>Node9</title>
<polygon fill="#ffffff" stroke="#bfbfbf" points="334,-56.5 334,-75.5 372,-75.5 372,-56.5 334,-56.5"/>
<text text-anchor="middle" x="353" y="-63.5" font-family="Helvetica,sans-Serif" font-size="10.00" fill="#000000">array</text>
</g>
<!-- Node0&#45;&gt;Node9 -->
<g id="edge12" class="edge">
<title>Node0&#45;&gt;Node9</title>
<path fill="none" stroke="#191970" d="M314.1868,-112.2455C320.8589,-104.2958 330.4479,-92.8706 338.4253,-83.3656"/>
<polygon fill="#191970" stroke="#191970" points="341.1592,-85.5525 344.907,-75.6427 335.7974,-81.0524 341.1592,-85.5525"/>
</g>
<!-- Node10 -->
<g id="node11" class="node">
<title>Node10</title>
<polygon fill="#ffffff" stroke="#bfbfbf" points="390,-56.5 390,-75.5 444,-75.5 444,-56.5 390,-56.5"/>
<text text-anchor="middle" x="417" y="-63.5" font-family="Helvetica,sans-Serif" font-size="10.00" fill="#000000">iostream</text>
</g>
<!-- Node0&#45;&gt;Node10 -->
<g id="edge13" class="edge">
<title>Node0&#45;&gt;Node10</title>
<path fill="none" stroke="#191970" d="M325.0816,-112.3733C342.7402,-103.4644 369.2053,-90.1127 389.2098,-80.0203"/>
<polygon fill="#191970" stroke="#191970" points="390.8158,-83.1303 398.1674,-75.5011 387.6628,-76.8806 390.8158,-83.1303"/>
</g>
<!-- Node11 -->
<g id="node12" class="node">
<title>Node11</title>
<polygon fill="#ffffff" stroke="#bfbfbf" points="462,-56.5 462,-75.5 514,-75.5 514,-56.5 462,-56.5"/>
<text text-anchor="middle" x="488" y="-63.5" font-family="Helvetica,sans-Serif" font-size="10.00" fill="#000000">sstream</text>
</g>
<!-- Node0&#45;&gt;Node11 -->
<g id="edge15" class="edge">
<title>Node0&#45;&gt;Node11</title>
<path fill="none" stroke="#191970" d="M337.2869,-112.3733C369.1555,-102.5676 418.5171,-87.3793 451.9926,-77.0792"/>
<polygon fill="#191970" stroke="#191970" points="453.3061,-80.3371 461.8346,-74.0509 451.2474,-73.6466 453.3061,-80.3371"/>
</g>
<!-- Node12 -->
<g id="node13" class="node">
<title>Node12</title>
<polygon fill="#ffffff" stroke="#bfbfbf" points="532,-56.5 532,-75.5 610,-75.5 610,-56.5 532,-56.5"/>
<text text-anchor="middle" x="571" y="-63.5" font-family="Helvetica,sans-Serif" font-size="10.00" fill="#000000">unordered_set</text>
</g>
<!-- Node0&#45;&gt;Node12 -->
<g id="edge16" class="edge">
<title>Node0&#45;&gt;Node12</title>
<path fill="none" stroke="#191970" d="M351.254,-112.4369C398.7294,-102.4043 473.1059,-86.6871 521.9562,-76.364"/>
<polygon fill="#191970" stroke="#191970" points="522.9137,-79.739 531.974,-74.247 521.4664,-72.8903 522.9137,-79.739"/>
</g>
<!-- Node2 -->
<g id="node3" class="node">
<title>Node2</title>
<polygon fill="#ffffff" stroke="#bfbfbf" points="58.5,-.5 58.5,-19.5 99.5,-19.5 99.5,-.5 58.5,-.5"/>
<text text-anchor="middle" x="79" y="-7.5" font-family="Helvetica,sans-Serif" font-size="10.00" fill="#000000">string</text>
</g>
<!-- Node1&#45;&gt;Node2 -->
<g id="edge2" class="edge">
<title>Node1&#45;&gt;Node2</title>
<path fill="none" stroke="#191970" d="M91.3872,-56.2455C89.4084,-48.8579 86.6256,-38.4689 84.1988,-29.4087"/>
<polygon fill="#191970" stroke="#191970" points="87.5511,-28.3966 81.5829,-19.6427 80.7895,-30.2078 87.5511,-28.3966"/>
</g>
<!-- Node1&#45;&gt;Node3 -->
<g id="edge3" class="edge">
<title>Node1&#45;&gt;Node3</title>
<path fill="none" stroke="#191970" d="M81.1102,-56.2455C70.0746,-47.8943 53.9708,-35.7076 41.0647,-25.9408"/>
<polygon fill="#191970" stroke="#191970" points="42.8283,-22.8862 32.7421,-19.6427 38.6041,-28.4681 42.8283,-22.8862"/>
</g>
<!-- Node4 -->
<g id="node5" class="node">
<title>Node4</title>
<polygon fill="#ffffff" stroke="#bfbfbf" points="118,-.5 118,-19.5 162,-19.5 162,-.5 118,-.5"/>
<text text-anchor="middle" x="140" y="-7.5" font-family="Helvetica,sans-Serif" font-size="10.00" fill="#000000">vector</text>
</g>
<!-- Node1&#45;&gt;Node4 -->
<g id="edge4" class="edge">
<title>Node1&#45;&gt;Node4</title>
<path fill="none" stroke="#191970" d="M102.0126,-56.2455C108.4768,-48.3761 117.7385,-37.101 125.4983,-27.6542"/>
<polygon fill="#191970" stroke="#191970" points="128.4364,-29.5916 132.0792,-19.6427 123.0273,-25.1484 128.4364,-29.5916"/>
</g>
<!-- Node5&#45;&gt;Node2 -->
<g id="edge9" class="edge">
<title>Node5&#45;&gt;Node2</title>
<path fill="none" stroke="#191970" d="M177.5432,-56.3733C158.5262,-47.4241 129.9825,-33.9917 108.5024,-23.8835"/>
<polygon fill="#191970" stroke="#191970" points="109.7284,-20.5923 99.1899,-19.5011 106.7478,-26.926 109.7284,-20.5923"/>
</g>
<!-- Node5&#45;&gt;Node4 -->
<g id="edge10" class="edge">
<title>Node5&#45;&gt;Node4</title>
<path fill="none" stroke="#191970" d="M187.8972,-56.2455C179.4972,-48.1352 167.3506,-36.4075 157.3916,-26.7919"/>
<polygon fill="#191970" stroke="#191970" points="159.6122,-24.0707 149.9871,-19.6427 154.75,-29.1066 159.6122,-24.0707"/>
</g>
<!-- Node5&#45;&gt;Node6 -->
<g id="edge6" class="edge">
<title>Node5&#45;&gt;Node6</title>
<path fill="none" stroke="#191970" d="M210.1931,-56.2455C220.6321,-47.8943 235.8655,-35.7076 248.074,-25.9408"/>
<polygon fill="#191970" stroke="#191970" points="250.3244,-28.6227 255.9467,-19.6427 245.9515,-23.1566 250.3244,-28.6227"/>
</g>
<!-- Node5&#45;&gt;Node7 -->
<g id="edge7" class="edge">
<title>Node5&#45;&gt;Node7</title>
<path fill="none" stroke="#191970" d="M222.0669,-56.3733C244.8428,-47.2629 279.2344,-33.5062 304.649,-23.3404"/>
<polygon fill="#191970" stroke="#191970" points="306.2623,-26.4648 314.2472,-19.5011 303.6625,-19.9654 306.2623,-26.4648"/>
</g>
<!-- Node8 -->
<g id="node9" class="node">
<title>Node8</title>
<polygon fill="#ffffff" stroke="#bfbfbf" points="180,-.5 180,-19.5 222,-19.5 222,-.5 180,-.5"/>
<text text-anchor="middle" x="201" y="-7.5" font-family="Helvetica,sans-Serif" font-size="10.00" fill="#000000">locale</text>
</g>
<!-- Node5&#45;&gt;Node8 -->
<g id="edge8" class="edge">
<title>Node5&#45;&gt;Node8</title>
<path fill="none" stroke="#191970" d="M198.5226,-56.2455C198.914,-48.9382 199.4628,-38.6944 199.9444,-29.7046"/>
<polygon fill="#191970" stroke="#191970" points="203.4434,-29.8156 200.4834,-19.6427 196.4534,-29.4411 203.4434,-29.8156"/>
</g>
</g>
</svg>
