<?xml version="1.0" encoding="UTF-8" standalone="no"?>
<!DOCTYPE svg PUBLIC "-//W3C//DTD SVG 1.1//EN"
 "http://www.w3.org/Graphics/SVG/1.1/DTD/svg11.dtd">
<!-- Generated by graphviz version 2.40.1 (20161225.0304)
 -->
<!-- Title: misspelled_line_loop Pages: 1 -->
<svg width="481pt" height="78pt"
 viewBox="0.00 0.00 481.00 77.50" xmlns="http://www.w3.org/2000/svg" xmlns:xlink="http://www.w3.org/1999/xlink">
<g id="graph0" class="graph" transform="scale(1 1) rotate(0) translate(4 73.5)">
<title>misspelled_line_loop</title>
<polygon fill="#ffffff" stroke="transparent" points="-4,4 -4,-73.5 477,-73.5 477,4 -4,4"/>
<!-- Node27 -->
<g id="node1" class="node">
<title>Node27</title>
<polygon fill="#bfbfbf" stroke="#000000" points="0,-28 0,-47 107,-47 107,-28 0,-28"/>
<text text-anchor="middle" x="53.5" y="-35" font-family="Helvetica,sans-Serif" font-size="10.00" fill="#000000">misspelled_line_loop</text>
</g>
<!-- Node28 -->
<g id="node2" class="node">
<title>Node28</title>
<g id="a_node2"><a xlink:href="namespacenuspell.html#aa7e4995c62f0034c3f760c93a3d25dd9" target="_top" xlink:title="Splits on whitespace, outputs to vector of strings. ">
<polygon fill="#ffffff" stroke="#000000" points="143,-50 143,-69 295,-69 295,-50 143,-50"/>
<text text-anchor="middle" x="219" y="-57" font-family="Helvetica,sans-Serif" font-size="10.00" fill="#000000">nuspell::split_on_whitespace_v</text>
</a>
</g>
</g>
<!-- Node27&#45;&gt;Node28 -->
<g id="edge1" class="edge">
<title>Node27&#45;&gt;Node28</title>
<path fill="none" stroke="#191970" d="M107.2331,-44.6428C116.8603,-45.9225 127.0875,-47.282 137.2936,-48.6387"/>
<polygon fill="#191970" stroke="#191970" points="137.0955,-52.1431 147.4695,-49.9914 138.018,-45.2041 137.0955,-52.1431"/>
</g>
<!-- Node30 -->
<g id="node4" class="node">
<title>Node30</title>
<g id="a_node4"><a xlink:href="structnuspell_1_1_basic___dictionary.html#a4e779d078298481e1d27bf695c526729" target="_top" xlink:title="nuspell::Basic_Dictionary\l::spell">
<polygon fill="#ffffff" stroke="#000000" points="155,-.5 155,-30.5 283,-30.5 283,-.5 155,-.5"/>
<text text-anchor="start" x="163" y="-18.5" font-family="Helvetica,sans-Serif" font-size="10.00" fill="#000000">nuspell::Basic_Dictionary</text>
<text text-anchor="middle" x="219" y="-7.5" font-family="Helvetica,sans-Serif" font-size="10.00" fill="#000000">::spell</text>
</a>
</g>
</g>
<!-- Node27&#45;&gt;Node30 -->
<g id="edge3" class="edge">
<title>Node27&#45;&gt;Node30</title>
<path fill="none" stroke="#191970" d="M107.2331,-30.3572C119.2236,-28.7633 132.1449,-27.0457 144.7967,-25.3639"/>
<polygon fill="#191970" stroke="#191970" points="145.411,-28.8131 154.8626,-24.0258 144.4885,-21.8741 145.411,-28.8131"/>
</g>
<!-- Node29 -->
<g id="node3" class="node">
<title>Node29</title>
<g id="a_node3"><a xlink:href="namespacenuspell.html#aac7e2f7ff54b3d984e221a4c6524338d" target="_top" xlink:title="Splits on whitespace. ">
<polygon fill="#ffffff" stroke="#000000" points="331,-50 331,-69 473,-69 473,-50 331,-50"/>
<text text-anchor="middle" x="402" y="-57" font-family="Helvetica,sans-Serif" font-size="10.00" fill="#000000">nuspell::split_on_whitespace</text>
</a>
</g>
</g>
<!-- Node28&#45;&gt;Node29 -->
<g id="edge2" class="edge">
<title>Node28&#45;&gt;Node29</title>
<path fill="none" stroke="#191970" d="M295.0187,-59.5C303.5591,-59.5 312.2849,-59.5 320.8866,-59.5"/>
<polygon fill="#191970" stroke="#191970" points="320.9088,-63.0001 330.9087,-59.5 320.9087,-56.0001 320.9088,-63.0001"/>
</g>
</g>
</svg>
