<?xml version="1.0" encoding="UTF-8" standalone="no"?>
<!DOCTYPE svg PUBLIC "-//W3C//DTD SVG 1.1//EN"
 "http://www.w3.org/Graphics/SVG/1.1/DTD/svg11.dtd">
<!-- Generated by graphviz version 2.40.1 (20161225.0304)
 -->
<!-- Title: src/nuspell/main.cxx Pages: 1 -->
<svg width="1809pt" height="319pt"
 viewBox="0.00 0.00 1808.50 319.00" xmlns="http://www.w3.org/2000/svg" xmlns:xlink="http://www.w3.org/1999/xlink">
<g id="graph0" class="graph" transform="scale(1 1) rotate(0) translate(4 315)">
<title>src/nuspell/main.cxx</title>
<polygon fill="#ffffff" stroke="transparent" points="-4,4 -4,-315 1804.5,-315 1804.5,4 -4,4"/>
<!-- Node0 -->
<g id="node1" class="node">
<title>Node0</title>
<polygon fill="#bfbfbf" stroke="#000000" points="1408,-291.5 1408,-310.5 1515,-310.5 1515,-291.5 1408,-291.5"/>
<text text-anchor="middle" x="1461.5" y="-298.5" font-family="Helvetica,sans-Serif" font-size="10.00" fill="#000000">src/nuspell/main.cxx</text>
</g>
<!-- Node1 -->
<g id="node2" class="node">
<title>Node1</title>
<g id="a_node2"><a xlink:href="dictionary_8hxx.html" target="_top" xlink:title="Dictionary spelling. ">
<polygon fill="#ffffff" stroke="#000000" points="1318,-235.5 1318,-254.5 1395,-254.5 1395,-235.5 1318,-235.5"/>
<text text-anchor="middle" x="1356.5" y="-242.5" font-family="Helvetica,sans-Serif" font-size="10.00" fill="#000000">dictionary.hxx</text>
</a>
</g>
</g>
<!-- Node0&#45;&gt;Node1 -->
<g id="edge1" class="edge">
<title>Node0&#45;&gt;Node1</title>
<path fill="none" stroke="#191970" d="M1443.2104,-291.2455C1426.7238,-282.4527 1402.2648,-269.4079 1383.5235,-259.4125"/>
<polygon fill="#191970" stroke="#191970" points="1385.0506,-256.2604 1374.58,-254.6427 1381.7565,-262.4368 1385.0506,-256.2604"/>
</g>
<!-- Node4 -->
<g id="node5" class="node">
<title>Node4</title>
<polygon fill="#ffffff" stroke="#bfbfbf" points="1171,-.5 1171,-19.5 1212,-19.5 1212,-.5 1171,-.5"/>
<text text-anchor="middle" x="1191.5" y="-7.5" font-family="Helvetica,sans-Serif" font-size="10.00" fill="#000000">string</text>
</g>
<!-- Node0&#45;&gt;Node4 -->
<g id="edge46" class="edge">
<title>Node0&#45;&gt;Node4</title>
<path fill="none" stroke="#191970" d="M1470.0589,-291.2214C1500.4763,-255.2825 1598.2066,-128.8207 1534.5,-56 1514.0555,-32.6306 1302.9761,-17.0083 1222.4661,-11.8596"/>
<polygon fill="#191970" stroke="#191970" points="1222.6404,-8.3638 1212.4406,-11.2297 1222.2014,-15.35 1222.6404,-8.3638"/>
</g>
<!-- Node5 -->
<g id="node6" class="node">
<title>Node5</title>
<polygon fill="#ffffff" stroke="#bfbfbf" points="1350,-123.5 1350,-142.5 1433,-142.5 1433,-123.5 1350,-123.5"/>
<text text-anchor="middle" x="1391.5" y="-130.5" font-family="Helvetica,sans-Serif" font-size="10.00" fill="#000000">unordered_map</text>
</g>
<!-- Node0&#45;&gt;Node5 -->
<g id="edge47" class="edge">
<title>Node0&#45;&gt;Node5</title>
<path fill="none" stroke="#191970" d="M1457.5359,-291.4862C1446.3748,-264.6994 1414.5235,-188.2565 1399.512,-152.2289"/>
<polygon fill="#191970" stroke="#191970" points="1402.6719,-150.7125 1395.595,-142.8279 1396.2104,-153.4048 1402.6719,-150.7125"/>
</g>
<!-- Node9 -->
<g id="node10" class="node">
<title>Node9</title>
<polygon fill="#ffffff" stroke="#bfbfbf" points="1467.5,-62 1467.5,-81 1509.5,-81 1509.5,-62 1467.5,-62"/>
<text text-anchor="middle" x="1488.5" y="-69" font-family="Helvetica,sans-Serif" font-size="10.00" fill="#000000">locale</text>
</g>
<!-- Node0&#45;&gt;Node9 -->
<g id="edge45" class="edge">
<title>Node0&#45;&gt;Node9</title>
<path fill="none" stroke="#191970" d="M1462.6258,-291.4309C1466.6827,-256.9475 1480.6064,-138.5953 1486.1731,-91.2785"/>
<polygon fill="#191970" stroke="#191970" points="1489.6769,-91.4505 1487.3694,-81.11 1482.7249,-90.6325 1489.6769,-91.4505"/>
</g>
<!-- Node23 -->
<g id="node24" class="node">
<title>Node23</title>
<polygon fill="#ffffff" stroke="#bfbfbf" points="1268.5,-179.5 1268.5,-198.5 1318.5,-198.5 1318.5,-179.5 1268.5,-179.5"/>
<text text-anchor="middle" x="1293.5" y="-186.5" font-family="Helvetica,sans-Serif" font-size="10.00" fill="#000000">fstream</text>
</g>
<!-- Node0&#45;&gt;Node23 -->
<g id="edge43" class="edge">
<title>Node0&#45;&gt;Node23</title>
<path fill="none" stroke="#191970" d="M1410.6559,-291.4414C1371.787,-283.1211 1322.5549,-270.0534 1308.5,-255 1296.9975,-242.6804 1293.6757,-223.4462 1292.9783,-208.9136"/>
<polygon fill="#191970" stroke="#191970" points="1296.4781,-208.8688 1292.8646,-198.9092 1289.4786,-208.9484 1296.4781,-208.8688"/>
</g>
<!-- Node24 -->
<g id="node25" class="node">
<title>Node24</title>
<g id="a_node25"><a xlink:href="finder_8hxx.html" target="_top" xlink:title="Finding dictionaries. ">
<polygon fill="#ffffff" stroke="#000000" points="0,-123.5 0,-142.5 59,-142.5 59,-123.5 0,-123.5"/>
<text text-anchor="middle" x="29.5" y="-130.5" font-family="Helvetica,sans-Serif" font-size="10.00" fill="#000000">finder.hxx</text>
</a>
</g>
</g>
<!-- Node0&#45;&gt;Node24 -->
<g id="edge32" class="edge">
<title>Node0&#45;&gt;Node24</title>
<path fill="none" stroke="#191970" d="M1407.9101,-297.7246C1222.6886,-285.8152 592.6784,-240.4031 69.2956,-143.1417"/>
<polygon fill="#191970" stroke="#191970" points="69.7509,-139.6663 59.2784,-141.2713 68.4661,-146.5473 69.7509,-139.6663"/>
</g>
<!-- Node25 -->
<g id="node26" class="node">
<title>Node25</title>
<g id="a_node26"><a xlink:href="string__utils_8hxx.html" target="_top" xlink:title="String algorithms. ">
<polygon fill="#ffffff" stroke="#000000" points="1119,-123.5 1119,-142.5 1202,-142.5 1202,-123.5 1119,-123.5"/>
<text text-anchor="middle" x="1160.5" y="-130.5" font-family="Helvetica,sans-Serif" font-size="10.00" fill="#000000">string_utils.hxx</text>
</a>
</g>
</g>
<!-- Node0&#45;&gt;Node25 -->
<g id="edge36" class="edge">
<title>Node0&#45;&gt;Node25</title>
<path fill="none" stroke="#191970" d="M1407.9134,-292.8676C1373.8947,-286.1411 1329.7933,-274.4494 1294.5,-255 1244.0268,-227.1853 1197.178,-176.7131 1174.6083,-150.2484"/>
<polygon fill="#191970" stroke="#191970" points="1177.2673,-147.9721 1168.1598,-142.5586 1171.9036,-152.47 1177.2673,-147.9721"/>
</g>
<!-- Node26 -->
<g id="node27" class="node">
<title>Node26</title>
<polygon fill="#ffffff" stroke="#bfbfbf" points="1575,-235.5 1575,-254.5 1622,-254.5 1622,-235.5 1575,-235.5"/>
<text text-anchor="middle" x="1598.5" y="-242.5" font-family="Helvetica,sans-Serif" font-size="10.00" fill="#000000">clocale</text>
</g>
<!-- Node0&#45;&gt;Node26 -->
<g id="edge42" class="edge">
<title>Node0&#45;&gt;Node26</title>
<path fill="none" stroke="#191970" d="M1485.0511,-291.3733C1507.3391,-282.2629 1540.9937,-268.5062 1565.8637,-258.3404"/>
<polygon fill="#191970" stroke="#191970" points="1567.3239,-261.5247 1575.2562,-254.5011 1564.6753,-255.0451 1567.3239,-261.5247"/>
</g>
<!-- Node27 -->
<g id="node28" class="node">
<title>Node27</title>
<polygon fill="#ffffff" stroke="#bfbfbf" points="1640.5,-235.5 1640.5,-254.5 1694.5,-254.5 1694.5,-235.5 1640.5,-235.5"/>
<text text-anchor="middle" x="1667.5" y="-242.5" font-family="Helvetica,sans-Serif" font-size="10.00" fill="#000000">iostream</text>
</g>
<!-- Node0&#45;&gt;Node27 -->
<g id="edge44" class="edge">
<title>Node0&#45;&gt;Node27</title>
<path fill="none" stroke="#191970" d="M1497.009,-291.4658C1529.3982,-282.7527 1578.8376,-269.4121 1630.675,-255.2146"/>
<polygon fill="#191970" stroke="#191970" points="1631.6597,-258.5739 1640.3786,-252.5546 1629.809,-251.823 1631.6597,-258.5739"/>
</g>
<!-- Node28 -->
<g id="node29" class="node">
<title>Node28</title>
<polygon fill="#ffffff" stroke="#bfbfbf" points="1712.5,-235.5 1712.5,-254.5 1800.5,-254.5 1800.5,-235.5 1712.5,-235.5"/>
<text text-anchor="middle" x="1756.5" y="-242.5" font-family="Helvetica,sans-Serif" font-size="10.00" fill="#000000">boost/locale.hpp</text>
</g>
<!-- Node0&#45;&gt;Node28 -->
<g id="edge48" class="edge">
<title>Node0&#45;&gt;Node28</title>
<path fill="none" stroke="#191970" d="M1511.8771,-291.4369C1564.7496,-281.4001 1647.594,-265.6737 1701.9735,-255.3508"/>
<polygon fill="#191970" stroke="#191970" points="1702.9455,-258.7289 1712.1173,-253.4252 1701.6399,-251.8517 1702.9455,-258.7289"/>
</g>
<!-- Node2 -->
<g id="node3" class="node">
<title>Node2</title>
<g id="a_node3"><a xlink:href="aff__data_8hxx.html" target="_top" xlink:title="Affixing data structures. ">
<polygon fill="#ffffff" stroke="#000000" points="820,-179.5 820,-198.5 891,-198.5 891,-179.5 820,-179.5"/>
<text text-anchor="middle" x="855.5" y="-186.5" font-family="Helvetica,sans-Serif" font-size="10.00" fill="#000000">aff_data.hxx</text>
</a>
</g>
</g>
<!-- Node1&#45;&gt;Node2 -->
<g id="edge2" class="edge">
<title>Node1&#45;&gt;Node2</title>
<path fill="none" stroke="#191970" d="M1317.6043,-240.6524C1226.4346,-230.4618 999.2863,-205.0719 901.4839,-194.1399"/>
<polygon fill="#191970" stroke="#191970" points="901.6479,-190.6365 891.321,-193.0039 900.8703,-197.5932 901.6479,-190.6365"/>
</g>
<!-- Node8 -->
<g id="node9" class="node">
<title>Node8</title>
<g id="a_node9"><a xlink:href="locale__utils_8hxx.html" target="_top" xlink:title="Encoding transformations. ">
<polygon fill="#ffffff" stroke="#000000" points="1247.5,-123.5 1247.5,-142.5 1331.5,-142.5 1331.5,-123.5 1247.5,-123.5"/>
<text text-anchor="middle" x="1289.5" y="-130.5" font-family="Helvetica,sans-Serif" font-size="10.00" fill="#000000">locale_utils.hxx</text>
</a>
</g>
</g>
<!-- Node1&#45;&gt;Node8 -->
<g id="edge29" class="edge">
<title>Node1&#45;&gt;Node8</title>
<path fill="none" stroke="#191970" d="M1353.1593,-235.1865C1348.4291,-221.9162 1339.0552,-197.7534 1327.5,-179 1321.2238,-168.8141 1312.8758,-158.4558 1305.6029,-150.1541"/>
<polygon fill="#191970" stroke="#191970" points="1308.1029,-147.7001 1298.8051,-142.6204 1302.9058,-152.3895 1308.1029,-147.7001"/>
</g>
<!-- Node1&#45;&gt;Node9 -->
<g id="edge31" class="edge">
<title>Node1&#45;&gt;Node9</title>
<path fill="none" stroke="#191970" d="M1365.2344,-235.4949C1381.2815,-217.851 1416.2185,-178.5881 1442.5,-143 1455.4472,-125.4681 1468.7621,-104.3739 1477.7134,-89.6592"/>
<polygon fill="#191970" stroke="#191970" points="1480.7596,-91.3851 1482.9177,-81.0124 1474.7621,-87.7753 1480.7596,-91.3851"/>
</g>
<!-- Node1&#45;&gt;Node23 -->
<g id="edge30" class="edge">
<title>Node1&#45;&gt;Node23</title>
<path fill="none" stroke="#191970" d="M1345.5262,-235.2455C1336.3118,-227.0549 1322.9468,-215.1749 1312.0703,-205.5069"/>
<polygon fill="#191970" stroke="#191970" points="1314.1474,-202.6704 1304.348,-198.6427 1309.4968,-207.9023 1314.1474,-202.6704"/>
</g>
<!-- Node3 -->
<g id="node4" class="node">
<title>Node3</title>
<polygon fill="#ffffff" stroke="#bfbfbf" points="77,-123.5 77,-142.5 122,-142.5 122,-123.5 77,-123.5"/>
<text text-anchor="middle" x="99.5" y="-130.5" font-family="Helvetica,sans-Serif" font-size="10.00" fill="#000000">iosfwd</text>
</g>
<!-- Node2&#45;&gt;Node3 -->
<g id="edge3" class="edge">
<title>Node2&#45;&gt;Node3</title>
<path fill="none" stroke="#191970" d="M819.8458,-187.6645C693.9126,-182.8001 270.3942,-165.1476 136.5,-143 135.0229,-142.7557 133.5196,-142.477 132.0062,-142.172"/>
<polygon fill="#191970" stroke="#191970" points="132.5728,-138.7106 122.0405,-139.8602 130.9909,-145.5295 132.5728,-138.7106"/>
</g>
<!-- Node2&#45;&gt;Node4 -->
<g id="edge4" class="edge">
<title>Node2&#45;&gt;Node4</title>
<path fill="none" stroke="#191970" d="M891.377,-188.7553C1002.6572,-187.5967 1340.6026,-180.9613 1442.5,-143 1481.8173,-128.3526 1499.5774,-124.4477 1518.5,-87 1524.7138,-74.703 1527.5384,-66.3988 1518.5,-56 1499.1933,-33.7873 1300.4703,-17.613 1222.5782,-12.0815"/>
<polygon fill="#191970" stroke="#191970" points="1222.6401,-8.5774 1212.4205,-11.3721 1222.1523,-15.5604 1222.6401,-8.5774"/>
</g>
<!-- Node2&#45;&gt;Node5 -->
<g id="edge5" class="edge">
<title>Node2&#45;&gt;Node5</title>
<path fill="none" stroke="#191970" d="M891.2404,-186.8271C970.2111,-181.7653 1165.6711,-167.8052 1339.6993,-142.9818"/>
<polygon fill="#191970" stroke="#191970" points="1340.4111,-146.4155 1349.8091,-141.5239 1339.4119,-139.4871 1340.4111,-146.4155"/>
</g>
<!-- Node6 -->
<g id="node7" class="node">
<title>Node6</title>
<polygon fill="#ffffff" stroke="#bfbfbf" points="33.5,-62 33.5,-81 73.5,-81 73.5,-62 33.5,-62"/>
<text text-anchor="middle" x="53.5" y="-69" font-family="Helvetica,sans-Serif" font-size="10.00" fill="#000000">utility</text>
</g>
<!-- Node2&#45;&gt;Node6 -->
<g id="edge6" class="edge">
<title>Node2&#45;&gt;Node6</title>
<path fill="none" stroke="#191970" d="M819.7709,-188.757C697.5137,-187.5889 296.7407,-180.8907 174.5,-143 154.2057,-136.7094 105.5262,-105.8885 76.4733,-86.8235"/>
<polygon fill="#191970" stroke="#191970" points="78.065,-83.6805 67.791,-81.0927 74.2088,-89.5226 78.065,-83.6805"/>
</g>
<!-- Node7 -->
<g id="node8" class="node">
<title>Node7</title>
<polygon fill="#ffffff" stroke="#bfbfbf" points="229.5,-.5 229.5,-19.5 273.5,-19.5 273.5,-.5 229.5,-.5"/>
<text text-anchor="middle" x="251.5" y="-7.5" font-family="Helvetica,sans-Serif" font-size="10.00" fill="#000000">vector</text>
</g>
<!-- Node2&#45;&gt;Node7 -->
<g id="edge7" class="edge">
<title>Node2&#45;&gt;Node7</title>
<path fill="none" stroke="#191970" d="M819.7085,-186.7493C678.7208,-177.5258 167.137,-140.556 120.5,-87 88.4614,-50.2082 171.0724,-26.3904 219.4096,-16.0016"/>
<polygon fill="#191970" stroke="#191970" points="220.3514,-19.381 229.4374,-13.9318 218.9364,-12.5256 220.3514,-19.381"/>
</g>
<!-- Node2&#45;&gt;Node8 -->
<g id="edge8" class="edge">
<title>Node2&#45;&gt;Node8</title>
<path fill="none" stroke="#191970" d="M891.016,-184.4173C967.4495,-174.5549 1147.8401,-151.2787 1237.309,-139.7343"/>
<polygon fill="#191970" stroke="#191970" points="1238.0267,-143.1708 1247.4965,-138.4198 1237.1308,-136.2284 1238.0267,-143.1708"/>
</g>
<!-- Node12 -->
<g id="node13" class="node">
<title>Node12</title>
<g id="a_node13"><a xlink:href="structures_8hxx.html" target="_top" xlink:title="Data structures. ">
<polygon fill="#ffffff" stroke="#000000" points="583,-123.5 583,-142.5 662,-142.5 662,-123.5 583,-123.5"/>
<text text-anchor="middle" x="622.5" y="-130.5" font-family="Helvetica,sans-Serif" font-size="10.00" fill="#000000">structures.hxx</text>
</a>
</g>
</g>
<!-- Node2&#45;&gt;Node12 -->
<g id="edge13" class="edge">
<title>Node2&#45;&gt;Node12</title>
<path fill="none" stroke="#191970" d="M819.8587,-180.4338C780.357,-170.9399 716.3819,-155.5639 672.0243,-144.9028"/>
<polygon fill="#191970" stroke="#191970" points="672.5777,-141.4362 662.0366,-142.5024 670.9418,-148.2424 672.5777,-141.4362"/>
</g>
<!-- Node8&#45;&gt;Node4 -->
<g id="edge10" class="edge">
<title>Node8&#45;&gt;Node4</title>
<path fill="none" stroke="#191970" d="M1331.8439,-124.9077C1380.2334,-113.7951 1449.2526,-91.1026 1420.5,-56 1395.7565,-25.7919 1278.6394,-15.001 1222.1369,-11.5086"/>
<polygon fill="#191970" stroke="#191970" points="1222.1945,-8.0061 1212.0086,-10.921 1221.7891,-14.9944 1222.1945,-8.0061"/>
</g>
<!-- Node8&#45;&gt;Node9 -->
<g id="edge9" class="edge">
<title>Node8&#45;&gt;Node9</title>
<path fill="none" stroke="#191970" d="M1329.7715,-123.4229C1363.2838,-115.0457 1412.0381,-101.9087 1453.5,-87 1455.3292,-86.3423 1457.1973,-85.6325 1459.0715,-84.8912"/>
<polygon fill="#191970" stroke="#191970" points="1460.4656,-88.102 1468.3423,-81.0162 1457.766,-81.6434 1460.4656,-88.102"/>
</g>
<!-- Node10 -->
<g id="node11" class="node">
<title>Node10</title>
<polygon fill="#ffffff" stroke="#bfbfbf" points="1349.5,-62 1349.5,-81 1411.5,-81 1411.5,-62 1349.5,-62"/>
<text text-anchor="middle" x="1380.5" y="-69" font-family="Helvetica,sans-Serif" font-size="10.00" fill="#000000">type_traits</text>
</g>
<!-- Node8&#45;&gt;Node10 -->
<g id="edge11" class="edge">
<title>Node8&#45;&gt;Node10</title>
<path fill="none" stroke="#191970" d="M1303.7188,-123.3906C1318.1434,-113.6421 1340.6976,-98.3994 1357.636,-86.9521"/>
<polygon fill="#191970" stroke="#191970" points="1360.0556,-89.5412 1366.3811,-81.0419 1356.1359,-83.7415 1360.0556,-89.5412"/>
</g>
<!-- Node11 -->
<g id="node12" class="node">
<title>Node11</title>
<polygon fill="#ffffff" stroke="#bfbfbf" points="1220,-56.5 1220,-86.5 1331,-86.5 1331,-56.5 1220,-56.5"/>
<text text-anchor="start" x="1228" y="-74.5" font-family="Helvetica,sans-Serif" font-size="10.00" fill="#000000">boost/locale/encoding</text>
<text text-anchor="middle" x="1275.5" y="-63.5" font-family="Helvetica,sans-Serif" font-size="10.00" fill="#000000">_utf.hpp</text>
</g>
<!-- Node8&#45;&gt;Node11 -->
<g id="edge12" class="edge">
<title>Node8&#45;&gt;Node11</title>
<path fill="none" stroke="#191970" d="M1287.3125,-123.3906C1285.6634,-116.1463 1283.3236,-105.8679 1281.1609,-96.3676"/>
<polygon fill="#191970" stroke="#191970" points="1284.5572,-95.5182 1278.9248,-86.5446 1277.7318,-97.072 1284.5572,-95.5182"/>
</g>
<!-- Node12&#45;&gt;Node4 -->
<g id="edge22" class="edge">
<title>Node12&#45;&gt;Node4</title>
<path fill="none" stroke="#191970" d="M662.3023,-130.5059C744.5671,-124.947 930.5623,-110.1765 989.5,-87 1011.4254,-78.3781 1011.3178,-66.314 1032.5,-56 1074.8133,-35.3969 1128.062,-22.3286 1160.9364,-15.5868"/>
<polygon fill="#191970" stroke="#191970" points="1161.7269,-18.9982 1170.8543,-13.6186 1160.3643,-12.1321 1161.7269,-18.9982"/>
</g>
<!-- Node12&#45;&gt;Node6 -->
<g id="edge23" class="edge">
<title>Node12&#45;&gt;Node6</title>
<path fill="none" stroke="#191970" d="M582.8965,-131.2047C497.8022,-126.946 291.3737,-114.4635 120.5,-87 108.3161,-85.0418 95.0489,-82.1381 83.5592,-79.3717"/>
<polygon fill="#191970" stroke="#191970" points="84.1375,-75.9092 73.5892,-76.9007 82.4535,-82.7036 84.1375,-75.9092"/>
</g>
<!-- Node12&#45;&gt;Node7 -->
<g id="edge24" class="edge">
<title>Node12&#45;&gt;Node7</title>
<path fill="none" stroke="#191970" d="M582.9627,-130.331C495.9004,-124.1021 293.5036,-107.562 270.5,-87 254.5929,-72.7814 250.9815,-47.5649 250.6088,-29.8735"/>
<polygon fill="#191970" stroke="#191970" points="254.1097,-29.8002 250.7244,-19.7608 247.1102,-29.7201 254.1097,-29.8002"/>
</g>
<!-- Node13 -->
<g id="node14" class="node">
<title>Node13</title>
<g id="a_node14"><a xlink:href="condition_8hxx.html" target="_top" xlink:title="Condition matching. ">
<polygon fill="#ffffff" stroke="#000000" points="873.5,-62 873.5,-81 947.5,-81 947.5,-62 873.5,-62"/>
<text text-anchor="middle" x="910.5" y="-69" font-family="Helvetica,sans-Serif" font-size="10.00" fill="#000000">condition.hxx</text>
</a>
</g>
</g>
<!-- Node12&#45;&gt;Node13 -->
<g id="edge14" class="edge">
<title>Node12&#45;&gt;Node13</title>
<path fill="none" stroke="#191970" d="M662.2428,-124.5133C714.8294,-113.2838 807.3973,-93.5167 863.4257,-81.5523"/>
<polygon fill="#191970" stroke="#191970" points="864.3958,-84.9242 873.4444,-79.4129 862.9339,-78.0785 864.3958,-84.9242"/>
</g>
<!-- Node15 -->
<g id="node16" class="node">
<title>Node15</title>
<polygon fill="#ffffff" stroke="#bfbfbf" points="1107.5,-62 1107.5,-81 1163.5,-81 1163.5,-62 1107.5,-62"/>
<text text-anchor="middle" x="1135.5" y="-69" font-family="Helvetica,sans-Serif" font-size="10.00" fill="#000000">algorithm</text>
</g>
<!-- Node12&#45;&gt;Node15 -->
<g id="edge18" class="edge">
<title>Node12&#45;&gt;Node15</title>
<path fill="none" stroke="#191970" d="M662.0879,-130.6505C760.6767,-124.5614 1015.1511,-107.3196 1097.5,-87 1100.133,-86.3503 1102.823,-85.5512 1105.495,-84.6614"/>
<polygon fill="#191970" stroke="#191970" points="1106.8022,-87.9096 1114.9581,-81.147 1104.3651,-81.3475 1106.8022,-87.9096"/>
</g>
<!-- Node16 -->
<g id="node17" class="node">
<title>Node16</title>
<polygon fill="#ffffff" stroke="#bfbfbf" points="279.5,-62 279.5,-81 323.5,-81 323.5,-62 279.5,-62"/>
<text text-anchor="middle" x="301.5" y="-69" font-family="Helvetica,sans-Serif" font-size="10.00" fill="#000000">cmath</text>
</g>
<!-- Node12&#45;&gt;Node16 -->
<g id="edge19" class="edge">
<title>Node12&#45;&gt;Node16</title>
<path fill="none" stroke="#191970" d="M582.6802,-130.5485C525.9515,-126.1962 419.1427,-114.7998 332.5,-87 330.885,-86.4818 329.2498,-85.8898 327.6185,-85.2466"/>
<polygon fill="#191970" stroke="#191970" points="329.0418,-82.0491 318.4844,-81.1587 326.1822,-88.4384 329.0418,-82.0491"/>
</g>
<!-- Node17 -->
<g id="node18" class="node">
<title>Node17</title>
<polygon fill="#ffffff" stroke="#bfbfbf" points="1042,-62 1042,-81 1089,-81 1089,-62 1042,-62"/>
<text text-anchor="middle" x="1065.5" y="-69" font-family="Helvetica,sans-Serif" font-size="10.00" fill="#000000">iterator</text>
</g>
<!-- Node12&#45;&gt;Node17 -->
<g id="edge20" class="edge">
<title>Node12&#45;&gt;Node17</title>
<path fill="none" stroke="#191970" d="M662.2435,-132.0815C735.5553,-129.6 896.548,-120.4647 1027.5,-87 1030.1275,-86.3285 1032.8137,-85.5141 1035.4831,-84.6141"/>
<polygon fill="#191970" stroke="#191970" points="1036.798,-87.8592 1044.9417,-81.0819 1034.3492,-81.3015 1036.798,-87.8592"/>
</g>
<!-- Node18 -->
<g id="node19" class="node">
<title>Node18</title>
<polygon fill="#ffffff" stroke="#bfbfbf" points="342,-62 342,-81 401,-81 401,-62 342,-62"/>
<text text-anchor="middle" x="371.5" y="-69" font-family="Helvetica,sans-Serif" font-size="10.00" fill="#000000">stdexcept</text>
</g>
<!-- Node12&#45;&gt;Node18 -->
<g id="edge21" class="edge">
<title>Node12&#45;&gt;Node18</title>
<path fill="none" stroke="#191970" d="M582.9302,-126.4275C539.9686,-118.8272 469.5799,-105.0157 410.5,-87 408.2067,-86.3007 405.8586,-85.5251 403.5077,-84.7043"/>
<polygon fill="#191970" stroke="#191970" points="404.5534,-81.3591 393.9605,-81.1559 402.1146,-87.9205 404.5534,-81.3591"/>
</g>
<!-- Node19 -->
<g id="node20" class="node">
<title>Node19</title>
<polygon fill="#ffffff" stroke="#bfbfbf" points="419.5,-56.5 419.5,-86.5 529.5,-86.5 529.5,-56.5 419.5,-56.5"/>
<text text-anchor="start" x="427.5" y="-74.5" font-family="Helvetica,sans-Serif" font-size="10.00" fill="#000000">boost/container/small</text>
<text text-anchor="middle" x="474.5" y="-63.5" font-family="Helvetica,sans-Serif" font-size="10.00" fill="#000000">_vector.hpp</text>
</g>
<!-- Node12&#45;&gt;Node19 -->
<g id="edge25" class="edge">
<title>Node12&#45;&gt;Node19</title>
<path fill="none" stroke="#191970" d="M599.375,-123.3906C578.2322,-114.6049 546.3503,-101.3567 520.0936,-90.446"/>
<polygon fill="#191970" stroke="#191970" points="521.2824,-87.1499 510.7049,-86.5446 518.5963,-93.614 521.2824,-87.1499"/>
</g>
<!-- Node20 -->
<g id="node21" class="node">
<title>Node20</title>
<polygon fill="#ffffff" stroke="#bfbfbf" points="547.5,-62 547.5,-81 697.5,-81 697.5,-62 547.5,-62"/>
<text text-anchor="middle" x="622.5" y="-69" font-family="Helvetica,sans-Serif" font-size="10.00" fill="#000000">boost/multi_index/member.hpp</text>
</g>
<!-- Node12&#45;&gt;Node20 -->
<g id="edge26" class="edge">
<title>Node12&#45;&gt;Node20</title>
<path fill="none" stroke="#191970" d="M622.5,-123.3906C622.5,-114.8657 622.5,-102.1392 622.5,-91.4235"/>
<polygon fill="#191970" stroke="#191970" points="626.0001,-91.2448 622.5,-81.2449 619.0001,-91.2449 626.0001,-91.2448"/>
</g>
<!-- Node21 -->
<g id="node22" class="node">
<title>Node21</title>
<polygon fill="#ffffff" stroke="#bfbfbf" points="716,-56.5 716,-86.5 817,-86.5 817,-56.5 716,-56.5"/>
<text text-anchor="start" x="724" y="-74.5" font-family="Helvetica,sans-Serif" font-size="10.00" fill="#000000">boost/range/iterator</text>
<text text-anchor="middle" x="766.5" y="-63.5" font-family="Helvetica,sans-Serif" font-size="10.00" fill="#000000">_range_core.hpp</text>
</g>
<!-- Node12&#45;&gt;Node21 -->
<g id="edge27" class="edge">
<title>Node12&#45;&gt;Node21</title>
<path fill="none" stroke="#191970" d="M645,-123.3906C665.4811,-114.6435 696.3197,-101.4728 721.8022,-90.5897"/>
<polygon fill="#191970" stroke="#191970" points="723.4519,-93.691 731.2736,-86.5446 720.7025,-87.2535 723.4519,-93.691"/>
</g>
<!-- Node22 -->
<g id="node23" class="node">
<title>Node22</title>
<polygon fill="#ffffff" stroke="#bfbfbf" points="129.5,-56.5 129.5,-86.5 223.5,-86.5 223.5,-56.5 129.5,-56.5"/>
<text text-anchor="start" x="137.5" y="-74.5" font-family="Helvetica,sans-Serif" font-size="10.00" fill="#000000">boost/utility/string</text>
<text text-anchor="middle" x="176.5" y="-63.5" font-family="Helvetica,sans-Serif" font-size="10.00" fill="#000000">_view.hpp</text>
</g>
<!-- Node12&#45;&gt;Node22 -->
<g id="edge28" class="edge">
<title>Node12&#45;&gt;Node22</title>
<path fill="none" stroke="#191970" d="M582.8931,-129.9769C512.8204,-124.249 362.5819,-110.2621 237.5,-87 236.231,-86.764 234.9493,-86.5168 233.6587,-86.2599"/>
<polygon fill="#191970" stroke="#191970" points="234.1645,-82.7891 223.6544,-84.1262 232.7044,-89.6352 234.1645,-82.7891"/>
</g>
<!-- Node13&#45;&gt;Node4 -->
<g id="edge15" class="edge">
<title>Node13&#45;&gt;Node4</title>
<path fill="none" stroke="#191970" d="M940.0281,-61.9917C947.0304,-59.8856 954.4995,-57.7594 961.5,-56 1032.0983,-38.257 1116.2494,-22.8637 1160.6021,-15.1901"/>
<polygon fill="#191970" stroke="#191970" points="1161.4673,-18.5929 1170.7315,-13.4524 1160.2837,-11.6936 1161.4673,-18.5929"/>
</g>
<!-- Node13&#45;&gt;Node7 -->
<g id="edge17" class="edge">
<title>Node13&#45;&gt;Node7</title>
<path fill="none" stroke="#191970" d="M882.9825,-61.9313C875.451,-59.6447 867.2313,-57.4491 859.5,-56 747.3539,-34.9802 392.9507,-16.7427 283.8103,-11.5067"/>
<polygon fill="#191970" stroke="#191970" points="283.8963,-8.0069 273.7412,-11.0272 283.5633,-14.999 283.8963,-8.0069"/>
</g>
<!-- Node14 -->
<g id="node15" class="node">
<title>Node14</title>
<polygon fill="#ffffff" stroke="#bfbfbf" points="891.5,-.5 891.5,-19.5 929.5,-19.5 929.5,-.5 891.5,-.5"/>
<text text-anchor="middle" x="910.5" y="-7.5" font-family="Helvetica,sans-Serif" font-size="10.00" fill="#000000">tuple</text>
</g>
<!-- Node13&#45;&gt;Node14 -->
<g id="edge16" class="edge">
<title>Node13&#45;&gt;Node14</title>
<path fill="none" stroke="#191970" d="M910.5,-61.8906C910.5,-53.3657 910.5,-40.6392 910.5,-29.9235"/>
<polygon fill="#191970" stroke="#191970" points="914.0001,-29.7448 910.5,-19.7449 907.0001,-29.7449 914.0001,-29.7448"/>
</g>
<!-- Node24&#45;&gt;Node4 -->
<g id="edge33" class="edge">
<title>Node24&#45;&gt;Node4</title>
<path fill="none" stroke="#191970" d="M59.2433,-124.5207C62.0185,-123.9272 64.8015,-123.4048 67.5,-123 165.2649,-108.3344 865.3421,-125.2528 956.5,-87 975.0556,-79.2135 971.7356,-65.4532 989.5,-56 1045.1705,-26.3752 1119.3378,-15.7525 1160.5517,-11.9993"/>
<polygon fill="#191970" stroke="#191970" points="1161.0989,-15.466 1170.7743,-11.1491 1160.5186,-8.4901 1161.0989,-15.466"/>
</g>
<!-- Node24&#45;&gt;Node6 -->
<g id="edge34" class="edge">
<title>Node24&#45;&gt;Node6</title>
<path fill="none" stroke="#191970" d="M33.25,-123.3906C36.6468,-114.6862 41.7531,-101.6015 45.988,-90.7494"/>
<polygon fill="#191970" stroke="#191970" points="49.3222,-91.8331 49.6971,-81.2449 42.8011,-89.2882 49.3222,-91.8331"/>
</g>
<!-- Node24&#45;&gt;Node7 -->
<g id="edge35" class="edge">
<title>Node24&#45;&gt;Node7</title>
<path fill="none" stroke="#191970" d="M25.1501,-123.4605C18.6198,-107.5401 8.6426,-75.3931 24.5,-56 48.7114,-26.3902 162.2951,-15.3852 219.0517,-11.6851"/>
<polygon fill="#191970" stroke="#191970" points="219.5113,-15.1636 229.2782,-11.0578 219.0826,-8.1768 219.5113,-15.1636"/>
</g>
<!-- Node25&#45;&gt;Node4 -->
<g id="edge40" class="edge">
<title>Node25&#45;&gt;Node4</title>
<path fill="none" stroke="#191970" d="M1163.0189,-123.4947C1165.4729,-114.1995 1169.2921,-99.6396 1172.5,-87 1177.4061,-67.6693 1182.8429,-45.5634 1186.6393,-30.011"/>
<polygon fill="#191970" stroke="#191970" points="1190.117,-30.5223 1189.0826,-19.978 1183.3158,-28.8659 1190.117,-30.5223"/>
</g>
<!-- Node25&#45;&gt;Node7 -->
<g id="edge41" class="edge">
<title>Node25&#45;&gt;Node7</title>
<path fill="none" stroke="#191970" d="M1118.9798,-129.1944C1048.6609,-122.3119 909.3964,-106.6678 864.5,-87 844.2186,-78.1153 846.097,-64.1263 825.5,-56 775.0496,-36.0955 397.6973,-16.8834 283.8936,-11.4916"/>
<polygon fill="#191970" stroke="#191970" points="283.8763,-7.987 273.7229,-11.0134 283.5475,-14.9793 283.8763,-7.987"/>
</g>
<!-- Node25&#45;&gt;Node9 -->
<g id="edge39" class="edge">
<title>Node25&#45;&gt;Node9</title>
<path fill="none" stroke="#191970" d="M1202.0462,-126.2945C1253.4728,-117.846 1343.6702,-102.5431 1420.5,-87 1432.5849,-84.5552 1445.8147,-81.6029 1457.3665,-78.9337"/>
<polygon fill="#191970" stroke="#191970" points="1458.481,-82.2677 1467.4226,-76.5846 1456.8886,-75.4512 1458.481,-82.2677"/>
</g>
<!-- Node25&#45;&gt;Node15 -->
<g id="edge37" class="edge">
<title>Node25&#45;&gt;Node15</title>
<path fill="none" stroke="#191970" d="M1156.5938,-123.3906C1153.0554,-114.6862 1147.7364,-101.6015 1143.325,-90.7494"/>
<polygon fill="#191970" stroke="#191970" points="1146.4695,-89.1907 1139.4613,-81.2449 1139.9848,-91.8268 1146.4695,-89.1907"/>
</g>
<!-- Node25&#45;&gt;Node17 -->
<g id="edge38" class="edge">
<title>Node25&#45;&gt;Node17</title>
<path fill="none" stroke="#191970" d="M1145.6563,-123.3906C1130.4582,-113.5519 1106.6152,-98.1167 1088.8794,-86.6351"/>
<polygon fill="#191970" stroke="#191970" points="1090.5361,-83.5382 1080.2395,-81.0419 1086.732,-89.4144 1090.5361,-83.5382"/>
</g>
</g>
</svg>
