<?xml version="1.0" encoding="UTF-8" standalone="no"?>
<!DOCTYPE svg PUBLIC "-//W3C//DTD SVG 1.1//EN"
 "http://www.w3.org/Graphics/SVG/1.1/DTD/svg11.dtd">
<!-- Generated by graphviz version 2.40.1 (20161225.0304)
 -->
<!-- Title: main Pages: 1 -->
<svg width="561pt" height="344pt"
 viewBox="0.00 0.00 561.00 343.50" xmlns="http://www.w3.org/2000/svg" xmlns:xlink="http://www.w3.org/1999/xlink">
<g id="graph0" class="graph" transform="scale(1 1) rotate(0) translate(4 339.5)">
<title>main</title>
<polygon fill="#ffffff" stroke="transparent" points="-4,4 -4,-339.5 557,-339.5 557,4 -4,4"/>
<!-- Node13 -->
<g id="node1" class="node">
<title>Node13</title>
<polygon fill="#bfbfbf" stroke="#000000" points="0,-152.5 0,-171.5 38,-171.5 38,-152.5 0,-152.5"/>
<text text-anchor="middle" x="19" y="-159.5" font-family="Helvetica,sans-Serif" font-size="10.00" fill="#000000">main</text>
</g>
<!-- Node14 -->
<g id="node2" class="node">
<title>Node14</title>
<g id="a_node2"><a xlink:href="namespacenuspell.html#aae159e86a8a1edad724249d330d985b1" target="_top" xlink:title="nuspell::install_ctype\l_facets_inplace">
<polygon fill="#ffffff" stroke="#000000" points="76.5,-305 76.5,-335 184.5,-335 184.5,-305 76.5,-305"/>
<text text-anchor="start" x="84.5" y="-323" font-family="Helvetica,sans-Serif" font-size="10.00" fill="#000000">nuspell::install_ctype</text>
<text text-anchor="middle" x="130.5" y="-312" font-family="Helvetica,sans-Serif" font-size="10.00" fill="#000000">_facets_inplace</text>
</a>
</g>
</g>
<!-- Node13&#45;&gt;Node14 -->
<g id="edge1" class="edge">
<title>Node13&#45;&gt;Node14</title>
<path fill="none" stroke="#191970" d="M20.4794,-171.7177C24.6121,-195.7231 38.4002,-258.5185 74,-295 75.4046,-296.4394 76.9066,-297.8021 78.4841,-299.0915"/>
<polygon fill="#191970" stroke="#191970" points="76.6921,-302.1085 86.9002,-304.9449 80.689,-296.3617 76.6921,-302.1085"/>
</g>
<!-- Node15 -->
<g id="node3" class="node">
<title>Node15</title>
<g id="a_node3"><a xlink:href="main_8cxx.html#af8c650bca476b3f8959df7215c4c134f" target="_top" xlink:title="Prints help information. ">
<polygon fill="#ffffff" stroke="#000000" points="101,-266.5 101,-285.5 160,-285.5 160,-266.5 101,-266.5"/>
<text text-anchor="middle" x="130.5" y="-273.5" font-family="Helvetica,sans-Serif" font-size="10.00" fill="#000000">print_help</text>
</a>
</g>
</g>
<!-- Node13&#45;&gt;Node15 -->
<g id="edge2" class="edge">
<title>Node13&#45;&gt;Node15</title>
<path fill="none" stroke="#191970" d="M21.9789,-171.6053C28.3752,-190.6719 45.2253,-233.4824 74,-257 79.0482,-261.1259 85.0335,-264.3717 91.1889,-266.9208"/>
<polygon fill="#191970" stroke="#191970" points="90.2969,-270.3185 100.8916,-270.3794 92.6473,-263.7249 90.2969,-270.3185"/>
</g>
<!-- Node16 -->
<g id="node4" class="node">
<title>Node16</title>
<g id="a_node4"><a xlink:href="main_8cxx.html#a6150c93934b2505d7e4521b40fa8d571" target="_top" xlink:title="Prints the version number to standard output. ">
<polygon fill="#ffffff" stroke="#000000" points="94.5,-228.5 94.5,-247.5 166.5,-247.5 166.5,-228.5 94.5,-228.5"/>
<text text-anchor="middle" x="130.5" y="-235.5" font-family="Helvetica,sans-Serif" font-size="10.00" fill="#000000">print_version</text>
</a>
</g>
</g>
<!-- Node13&#45;&gt;Node16 -->
<g id="edge3" class="edge">
<title>Node13&#45;&gt;Node16</title>
<path fill="none" stroke="#191970" d="M26.089,-171.8621C35.6354,-184.4754 53.776,-206.2125 74,-219 77.3963,-221.1475 81.0621,-223.0806 84.8375,-224.815"/>
<polygon fill="#191970" stroke="#191970" points="83.7771,-228.1631 94.357,-228.7258 86.4372,-221.6882 83.7771,-228.1631"/>
</g>
<!-- Node17 -->
<g id="node5" class="node">
<title>Node17</title>
<g id="a_node5"><a xlink:href="main_8cxx.html#a52c3a3f99e1d55b225a92fa017bada0d" target="_top" xlink:title="Lists dictionary paths and available dictionaries on the system to standard output. ">
<polygon fill="#ffffff" stroke="#000000" points="88.5,-190.5 88.5,-209.5 172.5,-209.5 172.5,-190.5 88.5,-190.5"/>
<text text-anchor="middle" x="130.5" y="-197.5" font-family="Helvetica,sans-Serif" font-size="10.00" fill="#000000">list_dictionaries</text>
</a>
</g>
</g>
<!-- Node13&#45;&gt;Node17 -->
<g id="edge4" class="edge">
<title>Node13&#45;&gt;Node17</title>
<path fill="none" stroke="#191970" d="M38.077,-168.6334C48.6542,-172.3004 62.0474,-176.9258 74,-181 79.9783,-183.0378 86.3173,-185.1838 92.5053,-187.2706"/>
<polygon fill="#191970" stroke="#191970" points="91.4373,-190.6041 102.0314,-190.4772 93.6705,-183.9698 91.4373,-190.6041"/>
</g>
<!-- Node18 -->
<g id="node6" class="node">
<title>Node18</title>
<g id="a_node6"><a xlink:href="main_8cxx.html#a4a642b8579e49cab4ef7293d66f1f5d5" target="_top" xlink:title="Normal loop, tokenize and check spelling. ">
<polygon fill="#ffffff" stroke="#000000" points="96,-152.5 96,-171.5 165,-171.5 165,-152.5 96,-152.5"/>
<text text-anchor="middle" x="130.5" y="-159.5" font-family="Helvetica,sans-Serif" font-size="10.00" fill="#000000">normal_loop</text>
</a>
</g>
</g>
<!-- Node13&#45;&gt;Node18 -->
<g id="edge5" class="edge">
<title>Node13&#45;&gt;Node18</title>
<path fill="none" stroke="#191970" d="M38.1675,-162C51.2645,-162 69.1841,-162 85.7533,-162"/>
<polygon fill="#191970" stroke="#191970" points="85.8403,-165.5001 95.8402,-162 85.8402,-158.5001 85.8403,-165.5001"/>
</g>
<!-- Node20 -->
<g id="node8" class="node">
<title>Node20</title>
<g id="a_node8"><a xlink:href="main_8cxx.html#aebf1b2aa274390a39317fbbca50d9d5e" target="_top" xlink:title="Prints misspelled words from an input stream to an output stream. ">
<polygon fill="#ffffff" stroke="#000000" points="74,-114.5 74,-133.5 187,-133.5 187,-114.5 74,-114.5"/>
<text text-anchor="middle" x="130.5" y="-121.5" font-family="Helvetica,sans-Serif" font-size="10.00" fill="#000000">misspelled_word_loop</text>
</a>
</g>
</g>
<!-- Node13&#45;&gt;Node20 -->
<g id="edge7" class="edge">
<title>Node13&#45;&gt;Node20</title>
<path fill="none" stroke="#191970" d="M38.077,-155.3666C48.6542,-151.6996 62.0474,-147.0742 74,-143 79.9783,-140.9622 86.3173,-138.8162 92.5053,-136.7294"/>
<polygon fill="#191970" stroke="#191970" points="93.6705,-140.0302 102.0314,-133.5228 91.4373,-133.3959 93.6705,-140.0302"/>
</g>
<!-- Node21 -->
<g id="node9" class="node">
<title>Node21</title>
<g id="a_node9"><a xlink:href="main_8cxx.html#a1f92dedeeb68a1a7bc2b720097d3b7a4" target="_top" xlink:title="misspelled_line_loop">
<polygon fill="#ffffff" stroke="#000000" points="77,-.5 77,-19.5 184,-19.5 184,-.5 77,-.5"/>
<text text-anchor="middle" x="130.5" y="-7.5" font-family="Helvetica,sans-Serif" font-size="10.00" fill="#000000">misspelled_line_loop</text>
</a>
</g>
</g>
<!-- Node13&#45;&gt;Node21 -->
<g id="edge9" class="edge">
<title>Node13&#45;&gt;Node21</title>
<path fill="none" stroke="#191970" d="M20.2228,-152.4317C23.8196,-128.2209 36.5747,-63.9731 74,-29 75.6895,-27.4212 77.5144,-25.9733 79.4384,-24.6454"/>
<polygon fill="#191970" stroke="#191970" points="81.4275,-27.5408 88.3943,-19.5587 77.9704,-21.4541 81.4275,-27.5408"/>
</g>
<!-- Node24 -->
<g id="node12" class="node">
<title>Node24</title>
<g id="a_node12"><a xlink:href="main_8cxx.html#a1248d9e693e561e175cf2e5b55499fff" target="_top" xlink:title="correct_word_loop">
<polygon fill="#ffffff" stroke="#000000" points="82.5,-76.5 82.5,-95.5 178.5,-95.5 178.5,-76.5 82.5,-76.5"/>
<text text-anchor="middle" x="130.5" y="-83.5" font-family="Helvetica,sans-Serif" font-size="10.00" fill="#000000">correct_word_loop</text>
</a>
</g>
</g>
<!-- Node13&#45;&gt;Node24 -->
<g id="edge13" class="edge">
<title>Node13&#45;&gt;Node24</title>
<path fill="none" stroke="#191970" d="M26.089,-152.1379C35.6354,-139.5246 53.776,-117.7875 74,-105 77.1598,-103.002 80.553,-101.1896 84.0506,-99.5501"/>
<polygon fill="#191970" stroke="#191970" points="85.5943,-102.6983 93.4648,-95.6057 82.8891,-96.2421 85.5943,-102.6983"/>
</g>
<!-- Node25 -->
<g id="node13" class="node">
<title>Node25</title>
<g id="a_node13"><a xlink:href="main_8cxx.html#a16580c4100b461806a9c49575bdd5428" target="_top" xlink:title="correct_line_loop">
<polygon fill="#ffffff" stroke="#000000" points="85.5,-38.5 85.5,-57.5 175.5,-57.5 175.5,-38.5 85.5,-38.5"/>
<text text-anchor="middle" x="130.5" y="-45.5" font-family="Helvetica,sans-Serif" font-size="10.00" fill="#000000">correct_line_loop</text>
</a>
</g>
</g>
<!-- Node13&#45;&gt;Node25 -->
<g id="edge15" class="edge">
<title>Node13&#45;&gt;Node25</title>
<path fill="none" stroke="#191970" d="M21.9789,-152.3947C28.3752,-133.3281 45.2253,-90.5176 74,-67 76.1422,-65.2492 78.4532,-63.6568 80.8743,-62.2089"/>
<polygon fill="#191970" stroke="#191970" points="82.6819,-65.2166 90.0187,-57.5732 79.5168,-58.9731 82.6819,-65.2166"/>
</g>
<!-- Node19 -->
<g id="node7" class="node">
<title>Node19</title>
<g id="a_node7"><a xlink:href="structnuspell_1_1_basic___dictionary.html#a4e779d078298481e1d27bf695c526729" target="_top" xlink:title="nuspell::Basic_Dictionary\l::spell">
<polygon fill="#ffffff" stroke="#000000" points="235,-71 235,-101 363,-101 363,-71 235,-71"/>
<text text-anchor="start" x="243" y="-89" font-family="Helvetica,sans-Serif" font-size="10.00" fill="#000000">nuspell::Basic_Dictionary</text>
<text text-anchor="middle" x="299" y="-78" font-family="Helvetica,sans-Serif" font-size="10.00" fill="#000000">::spell</text>
</a>
</g>
</g>
<!-- Node18&#45;&gt;Node19 -->
<g id="edge6" class="edge">
<title>Node18&#45;&gt;Node19</title>
<path fill="none" stroke="#191970" d="M161.5938,-152.452C169.9362,-149.6448 178.8896,-146.4059 187,-143 213.0501,-132.0603 241.405,-117.6025 263.0667,-105.9854"/>
<polygon fill="#191970" stroke="#191970" points="264.7842,-109.0357 271.9143,-101.1991 261.4535,-102.8789 264.7842,-109.0357"/>
</g>
<!-- Node20&#45;&gt;Node19 -->
<g id="edge8" class="edge">
<title>Node20&#45;&gt;Node19</title>
<path fill="none" stroke="#191970" d="M173.0197,-114.411C188.8136,-110.8492 207.2252,-106.697 225.0168,-102.6846"/>
<polygon fill="#191970" stroke="#191970" points="225.8317,-106.0888 234.8167,-100.4746 224.2917,-99.2603 225.8317,-106.0888"/>
</g>
<!-- Node21&#45;&gt;Node19 -->
<g id="edge12" class="edge">
<title>Node21&#45;&gt;Node19</title>
<path fill="none" stroke="#191970" d="M161.5938,-19.548C169.9362,-22.3552 178.8896,-25.5941 187,-29 213.0501,-39.9397 241.405,-54.3975 263.0667,-66.0146"/>
<polygon fill="#191970" stroke="#191970" points="261.4535,-69.1211 271.9143,-70.8009 264.7842,-62.9643 261.4535,-69.1211"/>
</g>
<!-- Node22 -->
<g id="node10" class="node">
<title>Node22</title>
<g id="a_node10"><a xlink:href="namespacenuspell.html#aa7e4995c62f0034c3f760c93a3d25dd9" target="_top" xlink:title="Splits on whitespace, outputs to vector of strings. ">
<polygon fill="#ffffff" stroke="#000000" points="223,-16.5 223,-35.5 375,-35.5 375,-16.5 223,-16.5"/>
<text text-anchor="middle" x="299" y="-23.5" font-family="Helvetica,sans-Serif" font-size="10.00" fill="#000000">nuspell::split_on_whitespace_v</text>
</a>
</g>
</g>
<!-- Node21&#45;&gt;Node22 -->
<g id="edge10" class="edge">
<title>Node21&#45;&gt;Node22</title>
<path fill="none" stroke="#191970" d="M184.2777,-15.1065C193.3561,-15.9685 202.9799,-16.8824 212.6408,-17.7997"/>
<polygon fill="#191970" stroke="#191970" points="212.4145,-21.2939 222.7006,-18.755 213.0762,-14.3252 212.4145,-21.2939"/>
</g>
<!-- Node23 -->
<g id="node11" class="node">
<title>Node23</title>
<g id="a_node11"><a xlink:href="namespacenuspell.html#aac7e2f7ff54b3d984e221a4c6524338d" target="_top" xlink:title="Splits on whitespace. ">
<polygon fill="#ffffff" stroke="#000000" points="411,-16.5 411,-35.5 553,-35.5 553,-16.5 411,-16.5"/>
<text text-anchor="middle" x="482" y="-23.5" font-family="Helvetica,sans-Serif" font-size="10.00" fill="#000000">nuspell::split_on_whitespace</text>
</a>
</g>
</g>
<!-- Node22&#45;&gt;Node23 -->
<g id="edge11" class="edge">
<title>Node22&#45;&gt;Node23</title>
<path fill="none" stroke="#191970" d="M375.0187,-26C383.5591,-26 392.2849,-26 400.8866,-26"/>
<polygon fill="#191970" stroke="#191970" points="400.9088,-29.5001 410.9087,-26 400.9087,-22.5001 400.9088,-29.5001"/>
</g>
<!-- Node24&#45;&gt;Node19 -->
<g id="edge14" class="edge">
<title>Node24&#45;&gt;Node19</title>
<path fill="none" stroke="#191970" d="M178.7853,-86C193.1447,-86 209.2201,-86 224.8274,-86"/>
<polygon fill="#191970" stroke="#191970" points="224.9933,-89.5001 234.9933,-86 224.9932,-82.5001 224.9933,-89.5001"/>
</g>
<!-- Node25&#45;&gt;Node19 -->
<g id="edge17" class="edge">
<title>Node25&#45;&gt;Node19</title>
<path fill="none" stroke="#191970" d="M173.0197,-57.589C188.8136,-61.1508 207.2252,-65.303 225.0168,-69.3154"/>
<polygon fill="#191970" stroke="#191970" points="224.2917,-72.7397 234.8167,-71.5254 225.8317,-65.9112 224.2917,-72.7397"/>
</g>
<!-- Node25&#45;&gt;Node22 -->
<g id="edge16" class="edge">
<title>Node25&#45;&gt;Node22</title>
<path fill="none" stroke="#191970" d="M175.6549,-42.1044C188.1275,-40.4759 202.069,-38.6557 215.9663,-36.8412"/>
<polygon fill="#191970" stroke="#191970" points="216.5936,-40.2891 226.0562,-35.5238 215.6872,-33.348 216.5936,-40.2891"/>
</g>
</g>
</svg>
