<?xml version="1.0" encoding="UTF-8" standalone="no"?>
<!DOCTYPE svg PUBLIC "-//W3C//DTD SVG 1.1//EN"
 "http://www.w3.org/Graphics/SVG/1.1/DTD/svg11.dtd">
<!-- Generated by graphviz version 2.40.1 (20161225.0304)
 -->
<!-- Title: nuspell::reset_failbit_istream Pages: 1 -->
<svg width="556pt" height="236pt"
 viewBox="0.00 0.00 556.00 236.19" xmlns="http://www.w3.org/2000/svg" xmlns:xlink="http://www.w3.org/1999/xlink">
<g id="graph0" class="graph" transform="scale(1 1) rotate(0) translate(4 232.1875)">
<title>nuspell::reset_failbit_istream</title>
<polygon fill="#ffffff" stroke="transparent" points="-4,4 -4,-232.1875 552,-232.1875 552,4 -4,4"/>
<!-- Node254 -->
<g id="node1" class="node">
<title>Node254</title>
<polygon fill="#bfbfbf" stroke="#000000" points="0,-109.6875 0,-139.6875 104,-139.6875 104,-109.6875 0,-109.6875"/>
<text text-anchor="start" x="8" y="-127.6875" font-family="Helvetica,sans-Serif" font-size="10.00" fill="#000000">nuspell::reset_failbit</text>
<text text-anchor="middle" x="52" y="-116.6875" font-family="Helvetica,sans-Serif" font-size="10.00" fill="#000000">_istream</text>
</g>
<!-- Node255 -->
<g id="node2" class="node">
<title>Node255</title>
<g id="a_node2"><a xlink:href="namespacenuspell.html#aee2d3cdfa70d7cf8304c9a9f487b9a52" target="_top" xlink:title="nuspell::read_to_slash\l_or_space">
<polygon fill="#ffffff" stroke="#000000" points="151.5,-197.6875 151.5,-227.6875 265.5,-227.6875 265.5,-197.6875 151.5,-197.6875"/>
<text text-anchor="start" x="159.5" y="-215.6875" font-family="Helvetica,sans-Serif" font-size="10.00" fill="#000000">nuspell::read_to_slash</text>
<text text-anchor="middle" x="208.5" y="-204.6875" font-family="Helvetica,sans-Serif" font-size="10.00" fill="#000000">_or_space</text>
</a>
</g>
</g>
<!-- Node254&#45;&gt;Node255 -->
<g id="edge1" class="edge">
<title>Node254&#45;&gt;Node255</title>
<path fill="none" stroke="#191970" d="M81.0083,-145.6076C97.805,-157.2577 119.6007,-171.6024 140,-182.6875 149.8104,-188.0185 160.7599,-193.1534 170.9761,-197.6222"/>
<polygon fill="#191970" stroke="#191970" points="82.9116,-142.6675 72.7143,-139.7925 78.8931,-148.3991 82.9116,-142.6675"/>
</g>
<!-- Node256 -->
<g id="node3" class="node">
<title>Node256</title>
<g id="a_node3"><a xlink:href="namespacenuspell.html#a431abe5c2853b6f099bfedd5b6a4bb9f" target="_top" xlink:title="Parses an affix from an input stream. ">
<polygon fill="#ffffff" stroke="#000000" points="313,-161.1875 313,-180.1875 414,-180.1875 414,-161.1875 313,-161.1875"/>
<text text-anchor="middle" x="363.5" y="-168.1875" font-family="Helvetica,sans-Serif" font-size="10.00" fill="#000000">nuspell::parse_affix</text>
</a>
</g>
</g>
<!-- Node254&#45;&gt;Node256 -->
<g id="edge8" class="edge">
<title>Node254&#45;&gt;Node256</title>
<path fill="none" stroke="#191970" d="M108.8348,-142.4737C119.1293,-145.225 129.8263,-147.781 140,-149.6875 198.8001,-160.706 267.4413,-166.0611 312.9814,-168.5829"/>
<polygon fill="#191970" stroke="#191970" points="109.6893,-139.0787 99.1184,-139.7909 107.8262,-145.8263 109.6893,-139.0787"/>
</g>
<!-- Node257 -->
<g id="node4" class="node">
<title>Node257</title>
<g id="a_node4"><a xlink:href="structnuspell_1_1_aff___data.html#a93b16b2b3938f607a18e3a67b9360b83" target="_top" xlink:title="Parses an input stream offering affix information. ">
<polygon fill="#ffffff" stroke="#000000" points="450,-117.6875 450,-147.6875 548,-147.6875 548,-117.6875 450,-117.6875"/>
<text text-anchor="start" x="458" y="-135.6875" font-family="Helvetica,sans-Serif" font-size="10.00" fill="#000000">nuspell::Aff_Data::</text>
<text text-anchor="middle" x="499" y="-124.6875" font-family="Helvetica,sans-Serif" font-size="10.00" fill="#000000">parse_aff</text>
</a>
</g>
</g>
<!-- Node254&#45;&gt;Node257 -->
<g id="edge12" class="edge">
<title>Node254&#45;&gt;Node257</title>
<path fill="none" stroke="#191970" d="M76.2174,-103.0961C93.004,-89.2498 116.4873,-71.9977 140,-61.6875 252.4854,-12.3634 303.3894,27.7084 414,-25.6875 453.7394,-44.8712 480.6034,-92.6631 492.3234,-117.365"/>
<polygon fill="#191970" stroke="#191970" points="73.9271,-100.4491 68.5438,-109.5745 78.4427,-105.7979 73.9271,-100.4491"/>
</g>
<!-- Node258 -->
<g id="node5" class="node">
<title>Node258</title>
<g id="a_node5"><a xlink:href="namespacenuspell.html#a20013c2e88adddb9211f5beb81f075b3" target="_top" xlink:title="Parses morhological fields. ">
<polygon fill="#ffffff" stroke="#000000" points="140,-109.6875 140,-139.6875 277,-139.6875 277,-109.6875 140,-109.6875"/>
<text text-anchor="start" x="148" y="-127.6875" font-family="Helvetica,sans-Serif" font-size="10.00" fill="#000000">nuspell::parse_morhological</text>
<text text-anchor="middle" x="208.5" y="-116.6875" font-family="Helvetica,sans-Serif" font-size="10.00" fill="#000000">_fields</text>
</a>
</g>
</g>
<!-- Node254&#45;&gt;Node258 -->
<g id="edge5" class="edge">
<title>Node254&#45;&gt;Node258</title>
<path fill="none" stroke="#191970" d="M114.2435,-124.6875C122.6776,-124.6875 131.3709,-124.6875 139.9084,-124.6875"/>
<polygon fill="#191970" stroke="#191970" points="114.1123,-121.1876 104.1122,-124.6875 114.1122,-128.1876 114.1123,-121.1876"/>
</g>
<!-- Node259 -->
<g id="node6" class="node">
<title>Node259</title>
<g id="a_node6"><a xlink:href="namespacenuspell.html#a2f6f1d95de158b3512f812a213175ab4" target="_top" xlink:title="nuspell::strip_bom">
<polygon fill="#ffffff" stroke="#000000" points="160.5,-71.1875 160.5,-90.1875 256.5,-90.1875 256.5,-71.1875 160.5,-71.1875"/>
<text text-anchor="middle" x="208.5" y="-78.1875" font-family="Helvetica,sans-Serif" font-size="10.00" fill="#000000">nuspell::strip_bom</text>
</a>
</g>
</g>
<!-- Node254&#45;&gt;Node259 -->
<g id="edge9" class="edge">
<title>Node254&#45;&gt;Node259</title>
<path fill="none" stroke="#191970" d="M113.7632,-107.3228C134.3803,-101.5263 156.597,-95.28 174.3307,-90.2942"/>
<polygon fill="#191970" stroke="#191970" points="112.7917,-103.9601 104.1122,-110.0361 114.6863,-110.6988 112.7917,-103.9601"/>
</g>
<!-- Node255&#45;&gt;Node256 -->
<g id="edge2" class="edge">
<title>Node255&#45;&gt;Node256</title>
<path fill="none" stroke="#191970" d="M273.6736,-195.0275C292.3488,-189.9672 312.004,-184.6412 328.1508,-180.266"/>
<polygon fill="#191970" stroke="#191970" points="272.7573,-191.6495 264.0208,-197.6431 274.5881,-198.4059 272.7573,-191.6495"/>
</g>
<!-- Node255&#45;&gt;Node257 -->
<g id="edge4" class="edge">
<title>Node255&#45;&gt;Node257</title>
<path fill="none" stroke="#191970" d="M275.7081,-213.1741C316.7676,-211.5367 369.7162,-205.9068 414,-189.6875 439.8602,-180.216 465.5656,-161.3181 481.8236,-147.8808"/>
<polygon fill="#191970" stroke="#191970" points="275.4174,-209.6816 265.5379,-213.5084 275.6475,-216.6779 275.4174,-209.6816"/>
</g>
<!-- Node256&#45;&gt;Node257 -->
<g id="edge3" class="edge">
<title>Node256&#45;&gt;Node257</title>
<path fill="none" stroke="#191970" d="M407.7057,-158.2903C421.2192,-154.5005 436.1599,-150.3105 449.9736,-146.4366"/>
<polygon fill="#191970" stroke="#191970" points="406.3758,-155.0282 397.6924,-161.0985 408.266,-161.7681 406.3758,-155.0282"/>
</g>
<!-- Node258&#45;&gt;Node256 -->
<g id="edge6" class="edge">
<title>Node258&#45;&gt;Node256</title>
<path fill="none" stroke="#191970" d="M268.8567,-142.5998C290.0893,-148.9011 313.1293,-155.7387 331.1602,-161.0899"/>
<polygon fill="#191970" stroke="#191970" points="269.8353,-139.2394 259.2528,-139.7496 267.8437,-145.9501 269.8353,-139.2394"/>
</g>
<!-- Node258&#45;&gt;Node257 -->
<g id="edge7" class="edge">
<title>Node258&#45;&gt;Node257</title>
<path fill="none" stroke="#191970" d="M287.4974,-126.863C339.2684,-128.2887 405.3305,-130.1079 449.7309,-131.3307"/>
<polygon fill="#191970" stroke="#191970" points="287.437,-123.3601 277.3444,-126.5834 287.2443,-130.3574 287.437,-123.3601"/>
</g>
<!-- Node259&#45;&gt;Node257 -->
<g id="edge10" class="edge">
<title>Node259&#45;&gt;Node257</title>
<path fill="none" stroke="#191970" d="M266.8361,-91.1297C320.4461,-100.726 399.0404,-114.7945 449.6159,-123.8476"/>
<polygon fill="#191970" stroke="#191970" points="267.2565,-87.6494 256.7963,-89.3326 266.0231,-94.5399 267.2565,-87.6494"/>
</g>
<!-- Node260 -->
<g id="node7" class="node">
<title>Node260</title>
<g id="a_node7"><a xlink:href="structnuspell_1_1_aff___data.html#ad77b0f3b5fc59f2c1ba29e5cbf8dc7ed" target="_top" xlink:title="Parses an input stream offering dictionary information. ">
<polygon fill="#ffffff" stroke="#000000" points="314.5,-35.6875 314.5,-65.6875 412.5,-65.6875 412.5,-35.6875 314.5,-35.6875"/>
<text text-anchor="start" x="322.5" y="-53.6875" font-family="Helvetica,sans-Serif" font-size="10.00" fill="#000000">nuspell::Aff_Data::</text>
<text text-anchor="middle" x="363.5" y="-42.6875" font-family="Helvetica,sans-Serif" font-size="10.00" fill="#000000">parse_dic</text>
</a>
</g>
</g>
<!-- Node259&#45;&gt;Node260 -->
<g id="edge11" class="edge">
<title>Node259&#45;&gt;Node260</title>
<path fill="none" stroke="#191970" d="M266.7806,-69.4074C282.4192,-66.3805 299.1722,-63.138 314.2674,-60.2164"/>
<polygon fill="#191970" stroke="#191970" points="265.846,-66.0232 256.6933,-71.3597 267.1762,-72.8957 265.846,-66.0232"/>
</g>
</g>
</svg>
