<?xml version="1.0" encoding="UTF-8" standalone="no"?>
<!DOCTYPE svg PUBLIC "-//W3C//DTD SVG 1.1//EN"
 "http://www.w3.org/Graphics/SVG/1.1/DTD/svg11.dtd">
<!-- Generated by graphviz version 2.40.1 (20161225.0304)
 -->
<!-- Title: nuspell::utf_to_utf_my Pages: 1 -->
<svg width="906pt" height="271pt"
 viewBox="0.00 0.00 906.00 270.79" xmlns="http://www.w3.org/2000/svg" xmlns:xlink="http://www.w3.org/1999/xlink">
<g id="graph0" class="graph" transform="scale(1 1) rotate(0) translate(4 266.7868)">
<title>nuspell::utf_to_utf_my</title>
<polygon fill="#ffffff" stroke="transparent" points="-4,4 -4,-266.7868 902,-266.7868 902,4 -4,4"/>
<!-- Node371 -->
<g id="node1" class="node">
<title>Node371</title>
<polygon fill="#bfbfbf" stroke="#000000" points="0,-120.7868 0,-139.7868 113,-139.7868 113,-120.7868 0,-120.7868"/>
<text text-anchor="middle" x="56.5" y="-127.7868" font-family="Helvetica,sans-Serif" font-size="10.00" fill="#000000">nuspell::utf_to_utf_my</text>
</g>
<!-- Node372 -->
<g id="node2" class="node">
<title>Node372</title>
<g id="a_node2"><a xlink:href="namespacenuspell.html#a79258aeb32a39ce719a014950b33e5d6" target="_top" xlink:title="nuspell::utf8_to_wide">
<polygon fill="#ffffff" stroke="#000000" points="445,-174.7868 445,-193.7868 554,-193.7868 554,-174.7868 445,-174.7868"/>
<text text-anchor="middle" x="499.5" y="-181.7868" font-family="Helvetica,sans-Serif" font-size="10.00" fill="#000000">nuspell::utf8_to_wide</text>
</a>
</g>
</g>
<!-- Node371&#45;&gt;Node372 -->
<g id="edge1" class="edge">
<title>Node371&#45;&gt;Node372</title>
<path fill="none" stroke="#191970" d="M123.1588,-138.4122C210.8467,-149.101 363.3185,-167.6868 444.67,-177.6032"/>
<polygon fill="#191970" stroke="#191970" points="123.4063,-134.9166 113.0562,-137.1807 122.5592,-141.8651 123.4063,-134.9166"/>
</g>
<!-- Node377 -->
<g id="node7" class="node">
<title>Node377</title>
<g id="a_node7"><a xlink:href="namespacenuspell.html#aff86f9ecb346e78687e56dab66a77469" target="_top" xlink:title="nuspell::utf8_to_32">
<polygon fill="#ffffff" stroke="#000000" points="149,-101.7868 149,-120.7868 248,-120.7868 248,-101.7868 149,-101.7868"/>
<text text-anchor="middle" x="198.5" y="-108.7868" font-family="Helvetica,sans-Serif" font-size="10.00" fill="#000000">nuspell::utf8_to_32</text>
</a>
</g>
</g>
<!-- Node371&#45;&gt;Node377 -->
<g id="edge6" class="edge">
<title>Node371&#45;&gt;Node377</title>
<path fill="none" stroke="#191970" d="M123.0501,-121.3822C131.6457,-120.2321 140.3285,-119.0703 148.5921,-117.9646"/>
<polygon fill="#191970" stroke="#191970" points="122.4776,-117.9275 113.0302,-122.7229 123.406,-124.8657 122.4776,-117.9275"/>
</g>
<!-- Node373 -->
<g id="node3" class="node">
<title>Node373</title>
<g id="a_node3"><a xlink:href="structnuspell_1_1_aff___data.html#a93b16b2b3938f607a18e3a67b9360b83" target="_top" xlink:title="Parses an input stream offering affix information. ">
<polygon fill="#ffffff" stroke="#000000" points="794.5,-62.2868 794.5,-92.2868 892.5,-92.2868 892.5,-62.2868 794.5,-62.2868"/>
<text text-anchor="start" x="802.5" y="-80.2868" font-family="Helvetica,sans-Serif" font-size="10.00" fill="#000000">nuspell::Aff_Data::</text>
<text text-anchor="middle" x="843.5" y="-69.2868" font-family="Helvetica,sans-Serif" font-size="10.00" fill="#000000">parse_aff</text>
</a>
</g>
</g>
<!-- Node372&#45;&gt;Node373 -->
<g id="edge2" class="edge">
<title>Node372&#45;&gt;Node373</title>
<path fill="none" stroke="#191970" d="M548.8785,-195.7641C601.9643,-205.5198 687.5409,-213.6276 753,-183.2868 793.8343,-164.3597 823.1056,-116.9794 836.0602,-92.4834"/>
<polygon fill="#191970" stroke="#191970" points="549.5151,-192.3224 539.0334,-193.8672 548.1906,-199.196 549.5151,-192.3224"/>
</g>
<!-- Node374 -->
<g id="node4" class="node">
<title>Node374</title>
<g id="a_node4"><a xlink:href="structnuspell_1_1_aff___data.html#ad77b0f3b5fc59f2c1ba29e5cbf8dc7ed" target="_top" xlink:title="Parses an input stream offering dictionary information. ">
<polygon fill="#ffffff" stroke="#000000" points="629.5,-144.2868 629.5,-174.2868 727.5,-174.2868 727.5,-144.2868 629.5,-144.2868"/>
<text text-anchor="start" x="637.5" y="-162.2868" font-family="Helvetica,sans-Serif" font-size="10.00" fill="#000000">nuspell::Aff_Data::</text>
<text text-anchor="middle" x="678.5" y="-151.2868" font-family="Helvetica,sans-Serif" font-size="10.00" fill="#000000">parse_dic</text>
</a>
</g>
</g>
<!-- Node372&#45;&gt;Node374 -->
<g id="edge3" class="edge">
<title>Node372&#45;&gt;Node374</title>
<path fill="none" stroke="#191970" d="M564.2033,-175.25C585.6766,-172.2509 609.2173,-168.9631 629.3248,-166.1548"/>
<polygon fill="#191970" stroke="#191970" points="563.5982,-171.8004 554.1785,-176.6501 564.5666,-178.7331 563.5982,-171.8004"/>
</g>
<!-- Node375 -->
<g id="node5" class="node">
<title>Node375</title>
<g id="a_node5"><a xlink:href="classnuspell_1_1_locale___input.html#a357636f55fc4301a1c49e421cfce7d7a" target="_top" xlink:title="nuspell::Locale_Input\l::cvt_for_u8_dict">
<polygon fill="#ffffff" stroke="#000000" points="624,-232.2868 624,-262.2868 733,-262.2868 733,-232.2868 624,-232.2868"/>
<text text-anchor="start" x="632" y="-250.2868" font-family="Helvetica,sans-Serif" font-size="10.00" fill="#000000">nuspell::Locale_Input</text>
<text text-anchor="middle" x="678.5" y="-239.2868" font-family="Helvetica,sans-Serif" font-size="10.00" fill="#000000">::cvt_for_u8_dict</text>
</a>
</g>
</g>
<!-- Node372&#45;&gt;Node375 -->
<g id="edge4" class="edge">
<title>Node372&#45;&gt;Node375</title>
<path fill="none" stroke="#191970" d="M536.3875,-197.2695C565.247,-207.4268 605.4222,-221.5666 635.6961,-232.2217"/>
<polygon fill="#191970" stroke="#191970" points="537.2811,-193.8736 526.6862,-193.8551 534.9571,-200.4766 537.2811,-193.8736"/>
</g>
<!-- Node376 -->
<g id="node6" class="node">
<title>Node376</title>
<g id="a_node6"><a xlink:href="classnuspell_1_1_locale___input.html#aadce92dd66b99a15e44acefa2f883385" target="_top" xlink:title="nuspell::Locale_Input\l::cvt_for_u8_dict">
<polygon fill="#ffffff" stroke="#000000" points="789,-232.2868 789,-262.2868 898,-262.2868 898,-232.2868 789,-232.2868"/>
<text text-anchor="start" x="797" y="-250.2868" font-family="Helvetica,sans-Serif" font-size="10.00" fill="#000000">nuspell::Locale_Input</text>
<text text-anchor="middle" x="843.5" y="-239.2868" font-family="Helvetica,sans-Serif" font-size="10.00" fill="#000000">::cvt_for_u8_dict</text>
</a>
</g>
</g>
<!-- Node375&#45;&gt;Node376 -->
<g id="edge5" class="edge">
<title>Node375&#45;&gt;Node376</title>
<path fill="none" stroke="#191970" d="M743.6404,-247.2868C758.5915,-247.2868 774.3393,-247.2868 788.7973,-247.2868"/>
<polygon fill="#191970" stroke="#191970" points="743.4426,-243.7869 733.4426,-247.2868 743.4426,-250.7869 743.4426,-243.7869"/>
</g>
<!-- Node378 -->
<g id="node8" class="node">
<title>Node378</title>
<g id="a_node8"><a xlink:href="namespacenuspell.html#adbb8e053a44129d0f51014facd48b7f9" target="_top" xlink:title="Decodes flags. ">
<polygon fill="#ffffff" stroke="#000000" points="284,-67.7868 284,-86.7868 395,-86.7868 395,-67.7868 284,-67.7868"/>
<text text-anchor="middle" x="339.5" y="-74.7868" font-family="Helvetica,sans-Serif" font-size="10.00" fill="#000000">nuspell::decode_flags</text>
</a>
</g>
</g>
<!-- Node377&#45;&gt;Node378 -->
<g id="edge7" class="edge">
<title>Node377&#45;&gt;Node378</title>
<path fill="none" stroke="#191970" d="M247.8872,-99.3778C264.831,-95.2921 283.5672,-90.7741 299.6575,-86.8942"/>
<polygon fill="#191970" stroke="#191970" points="247.0525,-95.9787 238.1516,-101.7254 248.6934,-102.7836 247.0525,-95.9787"/>
</g>
<!-- Node378&#45;&gt;Node373 -->
<g id="edge17" class="edge">
<title>Node378&#45;&gt;Node373</title>
<path fill="none" stroke="#191970" d="M368.5682,-63.6534C386.2491,-55.9198 409.4964,-46.7276 431,-41.2868 570.0338,-6.1085 615.2112,19.4893 753,-20.2868 781.1872,-28.4237 809.0541,-48.2291 826.259,-62.2001"/>
<polygon fill="#191970" stroke="#191970" points="367.0661,-60.4911 359.3645,-67.7668 369.9223,-66.8818 367.0661,-60.4911"/>
</g>
<!-- Node379 -->
<g id="node9" class="node">
<title>Node379</title>
<g id="a_node9"><a xlink:href="namespacenuspell.html#ac3ed6d85c13c609eb5c51628b9dbac76" target="_top" xlink:title="Decodes a single flag from an input stream. ">
<polygon fill="#ffffff" stroke="#000000" points="431,-67.7868 431,-86.7868 568,-86.7868 568,-67.7868 431,-67.7868"/>
<text text-anchor="middle" x="499.5" y="-74.7868" font-family="Helvetica,sans-Serif" font-size="10.00" fill="#000000">nuspell::decode_single_flag</text>
</a>
</g>
</g>
<!-- Node378&#45;&gt;Node379 -->
<g id="edge8" class="edge">
<title>Node378&#45;&gt;Node379</title>
<path fill="none" stroke="#191970" d="M405.1923,-77.2868C413.6503,-77.2868 422.329,-77.2868 430.8332,-77.2868"/>
<polygon fill="#191970" stroke="#191970" points="405.0112,-73.7869 395.0112,-77.2868 405.0112,-80.7869 405.0112,-73.7869"/>
</g>
<!-- Node381 -->
<g id="node11" class="node">
<title>Node381</title>
<g id="a_node11"><a xlink:href="namespacenuspell.html#a3d81c446c32c53cd03e595f8fde9c2ab" target="_top" xlink:title="nuspell::decode_flags\l_possible_alias">
<polygon fill="#ffffff" stroke="#000000" points="444,-106.2868 444,-136.2868 555,-136.2868 555,-106.2868 444,-106.2868"/>
<text text-anchor="start" x="452" y="-124.2868" font-family="Helvetica,sans-Serif" font-size="10.00" fill="#000000">nuspell::decode_flags</text>
<text text-anchor="middle" x="499.5" y="-113.2868" font-family="Helvetica,sans-Serif" font-size="10.00" fill="#000000">_possible_alias</text>
</a>
</g>
</g>
<!-- Node378&#45;&gt;Node381 -->
<g id="edge12" class="edge">
<title>Node378&#45;&gt;Node381</title>
<path fill="none" stroke="#191970" d="M384.0098,-89.5269C402.8215,-94.7002 424.917,-100.7764 444.7169,-106.2214"/>
<polygon fill="#191970" stroke="#191970" points="384.7877,-86.111 374.2176,-86.8341 382.9316,-92.8605 384.7877,-86.111"/>
</g>
<!-- Node382 -->
<g id="node12" class="node">
<title>Node382</title>
<g id="a_node12"><a xlink:href="namespacenuspell.html#a82f70879bf54a6f7118852b75d8ddbfc" target="_top" xlink:title="nuspell::parse_compound_rule">
<polygon fill="#ffffff" stroke="#000000" points="604,-29.7868 604,-48.7868 753,-48.7868 753,-29.7868 604,-29.7868"/>
<text text-anchor="middle" x="678.5" y="-36.7868" font-family="Helvetica,sans-Serif" font-size="10.00" fill="#000000">nuspell::parse_compound_rule</text>
</a>
</g>
</g>
<!-- Node378&#45;&gt;Node382 -->
<g id="edge15" class="edge">
<title>Node378&#45;&gt;Node382</title>
<path fill="none" stroke="#191970" d="M389.7936,-65.6367C403.1295,-62.8791 417.5589,-60.1902 431,-58.2868 488.7104,-50.1141 554.5244,-45.2737 603.7712,-42.5257"/>
<polygon fill="#191970" stroke="#191970" points="388.8995,-62.2484 379.8433,-67.7469 390.3518,-69.0961 388.8995,-62.2484"/>
</g>
<!-- Node379&#45;&gt;Node373 -->
<g id="edge11" class="edge">
<title>Node379&#45;&gt;Node373</title>
<path fill="none" stroke="#191970" d="M578.3083,-77.2868C644.8036,-77.2868 737.9188,-77.2868 794.2832,-77.2868"/>
<polygon fill="#191970" stroke="#191970" points="578.2868,-73.7869 568.2868,-77.2868 578.2867,-80.7869 578.2868,-73.7869"/>
</g>
<!-- Node380 -->
<g id="node10" class="node">
<title>Node380</title>
<g id="a_node10"><a xlink:href="namespacenuspell.html#a431abe5c2853b6f099bfedd5b6a4bb9f" target="_top" xlink:title="Parses an affix from an input stream. ">
<polygon fill="#ffffff" stroke="#000000" points="628,-105.7868 628,-124.7868 729,-124.7868 729,-105.7868 628,-105.7868"/>
<text text-anchor="middle" x="678.5" y="-112.7868" font-family="Helvetica,sans-Serif" font-size="10.00" fill="#000000">nuspell::parse_affix</text>
</a>
</g>
</g>
<!-- Node379&#45;&gt;Node380 -->
<g id="edge9" class="edge">
<title>Node379&#45;&gt;Node380</title>
<path fill="none" stroke="#191970" d="M554.5236,-88.9677C579.9082,-94.3567 609.6607,-100.6728 633.6556,-105.7667"/>
<polygon fill="#191970" stroke="#191970" points="555.1781,-85.5288 544.6693,-86.8758 553.7244,-92.3762 555.1781,-85.5288"/>
</g>
<!-- Node380&#45;&gt;Node373 -->
<g id="edge10" class="edge">
<title>Node380&#45;&gt;Node373</title>
<path fill="none" stroke="#191970" d="M729.937,-103.4407C750.4475,-98.717 773.9574,-93.3026 794.246,-88.6301"/>
<polygon fill="#191970" stroke="#191970" points="729.0959,-100.0427 720.1365,-105.6978 730.6669,-106.8641 729.0959,-100.0427"/>
</g>
<!-- Node381&#45;&gt;Node374 -->
<g id="edge14" class="edge">
<title>Node381&#45;&gt;Node374</title>
<path fill="none" stroke="#191970" d="M565.0666,-135.2059C586.2777,-139.7088 609.4244,-144.6227 629.2452,-148.8304"/>
<polygon fill="#191970" stroke="#191970" points="565.6644,-131.7549 555.1555,-133.1019 564.2107,-138.6023 565.6644,-131.7549"/>
</g>
<!-- Node381&#45;&gt;Node380 -->
<g id="edge13" class="edge">
<title>Node381&#45;&gt;Node380</title>
<path fill="none" stroke="#191970" d="M565.4121,-119.0774C585.9964,-118.3874 608.3734,-117.6374 627.7481,-116.9879"/>
<polygon fill="#191970" stroke="#191970" points="565.0326,-115.5881 555.1555,-119.4212 565.2672,-122.5841 565.0326,-115.5881"/>
</g>
<!-- Node382&#45;&gt;Node373 -->
<g id="edge16" class="edge">
<title>Node382&#45;&gt;Node373</title>
<path fill="none" stroke="#191970" d="M729.937,-51.1329C750.4475,-55.8565 773.9574,-61.2709 794.246,-65.9434"/>
<polygon fill="#191970" stroke="#191970" points="730.6669,-47.7094 720.1365,-48.8758 729.0959,-54.5308 730.6669,-47.7094"/>
</g>
</g>
</svg>
