<?xml version="1.0" encoding="UTF-8" standalone="no"?>
<!DOCTYPE svg PUBLIC "-//W3C//DTD SVG 1.1//EN"
 "http://www.w3.org/Graphics/SVG/1.1/DTD/svg11.dtd">
<!-- Generated by graphviz version 2.40.1 (20161225.0304)
 -->
<!-- Title: nuspell::is_all_bmp Pages: 1 -->
<svg width="747pt" height="192pt"
 viewBox="0.00 0.00 747.00 191.50" xmlns="http://www.w3.org/2000/svg" xmlns:xlink="http://www.w3.org/1999/xlink">
<g id="graph0" class="graph" transform="scale(1 1) rotate(0) translate(4 187.5)">
<title>nuspell::is_all_bmp</title>
<polygon fill="#ffffff" stroke="transparent" points="-4,4 -4,-187.5 743,-187.5 743,4 -4,4"/>
<!-- Node136 -->
<g id="node1" class="node">
<title>Node136</title>
<polygon fill="#bfbfbf" stroke="#000000" points="0,-107 0,-126 100,-126 100,-107 0,-107"/>
<text text-anchor="middle" x="50" y="-114" font-family="Helvetica,sans-Serif" font-size="10.00" fill="#000000">nuspell::is_all_bmp</text>
</g>
<!-- Node137 -->
<g id="node2" class="node">
<title>Node137</title>
<g id="a_node2"><a xlink:href="namespacenuspell.html#adbb8e053a44129d0f51014facd48b7f9" target="_top" xlink:title="Decodes flags. ">
<polygon fill="#ffffff" stroke="#000000" points="136,-107 136,-126 247,-126 247,-107 136,-107"/>
<text text-anchor="middle" x="191.5" y="-114" font-family="Helvetica,sans-Serif" font-size="10.00" fill="#000000">nuspell::decode_flags</text>
</a>
</g>
</g>
<!-- Node136&#45;&gt;Node137 -->
<g id="edge1" class="edge">
<title>Node136&#45;&gt;Node137</title>
<path fill="none" stroke="#191970" d="M110.3689,-116.5C118.7422,-116.5 127.3139,-116.5 135.6008,-116.5"/>
<polygon fill="#191970" stroke="#191970" points="110.2861,-113.0001 100.286,-116.5 110.286,-120.0001 110.2861,-113.0001"/>
</g>
<!-- Node138 -->
<g id="node3" class="node">
<title>Node138</title>
<g id="a_node3"><a xlink:href="namespacenuspell.html#ac3ed6d85c13c609eb5c51628b9dbac76" target="_top" xlink:title="Decodes a single flag from an input stream. ">
<polygon fill="#ffffff" stroke="#000000" points="283,-88 283,-107 420,-107 420,-88 283,-88"/>
<text text-anchor="middle" x="351.5" y="-95" font-family="Helvetica,sans-Serif" font-size="10.00" fill="#000000">nuspell::decode_single_flag</text>
</a>
</g>
</g>
<!-- Node137&#45;&gt;Node138 -->
<g id="edge2" class="edge">
<title>Node137&#45;&gt;Node138</title>
<path fill="none" stroke="#191970" d="M257.1923,-108.699C265.6503,-107.6946 274.329,-106.6641 282.8332,-105.6542"/>
<polygon fill="#191970" stroke="#191970" points="256.5287,-105.2532 247.0112,-109.908 257.3542,-112.2043 256.5287,-105.2532"/>
</g>
<!-- Node140 -->
<g id="node5" class="node">
<title>Node140</title>
<g id="a_node5"><a xlink:href="structnuspell_1_1_aff___data.html#a93b16b2b3938f607a18e3a67b9360b83" target="_top" xlink:title="Parses an input stream offering affix information. ">
<polygon fill="#ffffff" stroke="#000000" points="641,-101.5 641,-131.5 739,-131.5 739,-101.5 641,-101.5"/>
<text text-anchor="start" x="649" y="-119.5" font-family="Helvetica,sans-Serif" font-size="10.00" fill="#000000">nuspell::Aff_Data::</text>
<text text-anchor="middle" x="690" y="-108.5" font-family="Helvetica,sans-Serif" font-size="10.00" fill="#000000">parse_aff</text>
</a>
</g>
</g>
<!-- Node137&#45;&gt;Node140 -->
<g id="edge11" class="edge">
<title>Node137&#45;&gt;Node140</title>
<path fill="none" stroke="#191970" d="M257.1452,-118.9719C338.7145,-121.6566 482.1579,-125.1099 605,-121.5 616.5253,-121.1613 628.9184,-120.5648 640.5804,-119.8991"/>
<polygon fill="#191970" stroke="#191970" points="257.1369,-115.4697 247.0251,-118.6322 256.902,-122.4658 257.1369,-115.4697"/>
</g>
<!-- Node141 -->
<g id="node6" class="node">
<title>Node141</title>
<g id="a_node6"><a xlink:href="namespacenuspell.html#a3d81c446c32c53cd03e595f8fde9c2ab" target="_top" xlink:title="nuspell::decode_flags\l_possible_alias">
<polygon fill="#ffffff" stroke="#000000" points="296,-38.5 296,-68.5 407,-68.5 407,-38.5 296,-38.5"/>
<text text-anchor="start" x="304" y="-56.5" font-family="Helvetica,sans-Serif" font-size="10.00" fill="#000000">nuspell::decode_flags</text>
<text text-anchor="middle" x="351.5" y="-45.5" font-family="Helvetica,sans-Serif" font-size="10.00" fill="#000000">_possible_alias</text>
</a>
</g>
</g>
<!-- Node137&#45;&gt;Node141 -->
<g id="edge6" class="edge">
<title>Node137&#45;&gt;Node141</title>
<path fill="none" stroke="#191970" d="M223.1742,-102.9459C240.7276,-95.5354 262.9879,-86.3031 283,-78.5 291.4922,-75.1887 300.626,-71.7625 309.3688,-68.5479"/>
<polygon fill="#191970" stroke="#191970" points="221.7923,-99.7301 213.9507,-106.8548 224.5237,-106.1752 221.7923,-99.7301"/>
</g>
<!-- Node143 -->
<g id="node8" class="node">
<title>Node143</title>
<g id="a_node8"><a xlink:href="namespacenuspell.html#a82f70879bf54a6f7118852b75d8ddbfc" target="_top" xlink:title="nuspell::parse_compound_rule">
<polygon fill="#ffffff" stroke="#000000" points="456,-164 456,-183 605,-183 605,-164 456,-164"/>
<text text-anchor="middle" x="530.5" y="-171" font-family="Helvetica,sans-Serif" font-size="10.00" fill="#000000">nuspell::parse_compound_rule</text>
</a>
</g>
</g>
<!-- Node137&#45;&gt;Node143 -->
<g id="edge9" class="edge">
<title>Node137&#45;&gt;Node143</title>
<path fill="none" stroke="#191970" d="M222.867,-130.0128C240.2674,-136.9449 262.4799,-144.8811 283,-149.5 340.1732,-162.3692 406.306,-168.3386 455.8199,-171.107"/>
<polygon fill="#191970" stroke="#191970" points="223.8083,-126.6169 213.2271,-126.08 221.1641,-133.0982 223.8083,-126.6169"/>
</g>
<!-- Node139 -->
<g id="node4" class="node">
<title>Node139</title>
<g id="a_node4"><a xlink:href="namespacenuspell.html#a431abe5c2853b6f099bfedd5b6a4bb9f" target="_top" xlink:title="Parses an affix from an input stream. ">
<polygon fill="#ffffff" stroke="#000000" points="480,-50 480,-69 581,-69 581,-50 480,-50"/>
<text text-anchor="middle" x="530.5" y="-57" font-family="Helvetica,sans-Serif" font-size="10.00" fill="#000000">nuspell::parse_affix</text>
</a>
</g>
</g>
<!-- Node138&#45;&gt;Node139 -->
<g id="edge3" class="edge">
<title>Node138&#45;&gt;Node139</title>
<path fill="none" stroke="#191970" d="M406.5236,-85.819C431.9082,-80.4301 461.6607,-74.1139 485.6556,-69.0201"/>
<polygon fill="#191970" stroke="#191970" points="405.7244,-82.4106 396.6693,-87.911 407.1781,-89.258 405.7244,-82.4106"/>
</g>
<!-- Node138&#45;&gt;Node140 -->
<g id="edge5" class="edge">
<title>Node138&#45;&gt;Node140</title>
<path fill="none" stroke="#191970" d="M430.213,-101.9182C495.2547,-105.5689 585.5756,-110.6387 640.7849,-113.7376"/>
<polygon fill="#191970" stroke="#191970" points="430.181,-98.4109 420.0005,-101.3449 429.7886,-105.3999 430.181,-98.4109"/>
</g>
<!-- Node139&#45;&gt;Node140 -->
<g id="edge4" class="edge">
<title>Node139&#45;&gt;Node140</title>
<path fill="none" stroke="#191970" d="M571.25,-72.1511C582.249,-75.6954 594.1167,-79.6381 605,-83.5 620.6646,-89.0585 637.7787,-95.6089 652.5181,-101.4023"/>
<polygon fill="#191970" stroke="#191970" points="572.0369,-68.7283 561.4461,-69.0219 569.9084,-75.3969 572.0369,-68.7283"/>
</g>
<!-- Node141&#45;&gt;Node139 -->
<g id="edge7" class="edge">
<title>Node141&#45;&gt;Node139</title>
<path fill="none" stroke="#191970" d="M417.4121,-55.7093C437.9964,-56.3993 460.3734,-57.1494 479.7481,-57.7988"/>
<polygon fill="#191970" stroke="#191970" points="417.2672,-52.2026 407.1555,-55.3655 417.0326,-59.1987 417.2672,-52.2026"/>
</g>
<!-- Node142 -->
<g id="node7" class="node">
<title>Node142</title>
<g id="a_node7"><a xlink:href="structnuspell_1_1_aff___data.html#ad77b0f3b5fc59f2c1ba29e5cbf8dc7ed" target="_top" xlink:title="Parses an input stream offering dictionary information. ">
<polygon fill="#ffffff" stroke="#000000" points="481.5,-.5 481.5,-30.5 579.5,-30.5 579.5,-.5 481.5,-.5"/>
<text text-anchor="start" x="489.5" y="-18.5" font-family="Helvetica,sans-Serif" font-size="10.00" fill="#000000">nuspell::Aff_Data::</text>
<text text-anchor="middle" x="530.5" y="-7.5" font-family="Helvetica,sans-Serif" font-size="10.00" fill="#000000">parse_dic</text>
</a>
</g>
</g>
<!-- Node141&#45;&gt;Node142 -->
<g id="edge8" class="edge">
<title>Node141&#45;&gt;Node142</title>
<path fill="none" stroke="#191970" d="M417.0666,-39.5808C438.2777,-35.0779 461.4244,-30.1641 481.2452,-25.9563"/>
<polygon fill="#191970" stroke="#191970" points="416.2107,-36.1845 407.1555,-41.6849 417.6644,-43.0319 416.2107,-36.1845"/>
</g>
<!-- Node143&#45;&gt;Node140 -->
<g id="edge10" class="edge">
<title>Node143&#45;&gt;Node140</title>
<path fill="none" stroke="#191970" d="M571.25,-160.8489C582.249,-157.3046 594.1167,-153.3619 605,-149.5 620.6646,-143.9415 637.7787,-137.3911 652.5181,-131.5977"/>
<polygon fill="#191970" stroke="#191970" points="569.9084,-157.6031 561.4461,-163.9781 572.0369,-164.2717 569.9084,-157.6031"/>
</g>
</g>
</svg>
