<?xml version="1.0" encoding="UTF-8" standalone="no"?>
<!DOCTYPE svg PUBLIC "-//W3C//DTD SVG 1.1//EN"
 "http://www.w3.org/Graphics/SVG/1.1/DTD/svg11.dtd">
<!-- Generated by graphviz version 2.40.1 (20161225.0304)
 -->
<!-- Title: nuspell::get_locale_name Pages: 1 -->
<svg width="311pt" height="78pt"
 viewBox="0.00 0.00 311.00 77.50" xmlns="http://www.w3.org/2000/svg" xmlns:xlink="http://www.w3.org/1999/xlink">
<g id="graph0" class="graph" transform="scale(1 1) rotate(0) translate(4 73.5)">
<title>nuspell::get_locale_name</title>
<polygon fill="#ffffff" stroke="transparent" points="-4,4 -4,-73.5 307,-73.5 307,4 -4,4"/>
<!-- Node113 -->
<g id="node1" class="node">
<title>Node113</title>
<polygon fill="#bfbfbf" stroke="#000000" points="0,-22.5 0,-41.5 127,-41.5 127,-22.5 0,-22.5"/>
<text text-anchor="middle" x="63.5" y="-29.5" font-family="Helvetica,sans-Serif" font-size="10.00" fill="#000000">nuspell::get_locale_name</text>
</g>
<!-- Node114 -->
<g id="node2" class="node">
<title>Node114</title>
<g id="a_node2"><a xlink:href="structnuspell_1_1_aff___data.html#a6743ff25292b6edc4c3408e966ce4899" target="_top" xlink:title="nuspell::Aff_Data::\lset_encoding_and_language">
<polygon fill="#ffffff" stroke="#000000" points="163,-39 163,-69 303,-69 303,-39 163,-39"/>
<text text-anchor="start" x="171" y="-57" font-family="Helvetica,sans-Serif" font-size="10.00" fill="#000000">nuspell::Aff_Data::</text>
<text text-anchor="middle" x="233" y="-46" font-family="Helvetica,sans-Serif" font-size="10.00" fill="#000000">set_encoding_and_language</text>
</a>
</g>
</g>
<!-- Node113&#45;&gt;Node114 -->
<g id="edge1" class="edge">
<title>Node113&#45;&gt;Node114</title>
<path fill="none" stroke="#191970" d="M137.0399,-41.545C145.5878,-42.6545 154.2907,-43.784 162.7922,-44.8875"/>
<polygon fill="#191970" stroke="#191970" points="137.4651,-38.0709 127.0978,-40.2546 136.5641,-45.0127 137.4651,-38.0709"/>
</g>
<!-- Node115 -->
<g id="node3" class="node">
<title>Node115</title>
<g id="a_node3"><a xlink:href="regress_8cxx.html#a0ddf1224851353fc92bfbff6f499fa97" target="_top" xlink:title="main">
<polygon fill="#ffffff" stroke="#000000" points="214,-.5 214,-19.5 252,-19.5 252,-.5 214,-.5"/>
<text text-anchor="middle" x="233" y="-7.5" font-family="Helvetica,sans-Serif" font-size="10.00" fill="#000000">main</text>
</a>
</g>
</g>
<!-- Node113&#45;&gt;Node115 -->
<g id="edge2" class="edge">
<title>Node113&#45;&gt;Node115</title>
<path fill="none" stroke="#191970" d="M137.3277,-22.4176C165.3565,-18.7797 195.0062,-14.9313 213.7367,-12.5003"/>
<polygon fill="#191970" stroke="#191970" points="136.5641,-18.9873 127.0978,-23.7454 137.4651,-25.9291 136.5641,-18.9873"/>
</g>
</g>
</svg>
