<?xml version="1.0" encoding="UTF-8" standalone="no"?>
<!DOCTYPE svg PUBLIC "-//W3C//DTD SVG 1.1//EN"
 "http://www.w3.org/Graphics/SVG/1.1/DTD/svg11.dtd">
<!-- Generated by graphviz version 2.40.1 (20161225.0304)
 -->
<!-- Title: nuspell::get_char_mask Pages: 1 -->
<svg width="404pt" height="83pt"
 viewBox="0.00 0.00 404.00 83.00" xmlns="http://www.w3.org/2000/svg" xmlns:xlink="http://www.w3.org/1999/xlink">
<g id="graph0" class="graph" transform="scale(1 1) rotate(0) translate(4 79)">
<title>nuspell::get_char_mask</title>
<polygon fill="#ffffff" stroke="transparent" points="-4,4 -4,-79 400,-79 400,4 -4,4"/>
<!-- Node94 -->
<g id="node1" class="node">
<title>Node94</title>
<polygon fill="#bfbfbf" stroke="#000000" points="0,-28 0,-47 120,-47 120,-28 0,-28"/>
<text text-anchor="middle" x="60" y="-35" font-family="Helvetica,sans-Serif" font-size="10.00" fill="#000000">nuspell::get_char_mask</text>
</g>
<!-- Node95 -->
<g id="node2" class="node">
<title>Node95</title>
<g id="a_node2"><a xlink:href="namespacenuspell.html#a22e22ceec23aafebbe182feae2973671" target="_top" xlink:title="nuspell::fill_ctype">
<polygon fill="#ffffff" stroke="#000000" points="161,-50 161,-69 253,-69 253,-50 161,-50"/>
<text text-anchor="middle" x="207" y="-57" font-family="Helvetica,sans-Serif" font-size="10.00" fill="#000000">nuspell::fill_ctype</text>
</a>
</g>
</g>
<!-- Node94&#45;&gt;Node95 -->
<g id="edge1" class="edge">
<title>Node94&#45;&gt;Node95</title>
<path fill="none" stroke="#191970" d="M130.41,-48.0376C140.6618,-49.5718 150.9938,-51.1181 160.6065,-52.5568"/>
<polygon fill="#191970" stroke="#191970" points="130.6226,-44.5305 120.2147,-46.5117 129.5865,-51.4534 130.6226,-44.5305"/>
</g>
<!-- Node97 -->
<g id="node4" class="node">
<title>Node97</title>
<g id="a_node4"><a xlink:href="classnuspell_1_1my__ctype_3_01wchar__t_01_4.html#abebb1844eb23608d64524322e5d15f63" target="_top" xlink:title="nuspell::my_ctype\&lt;\l wchar_t \&gt;::do_is">
<polygon fill="#ffffff" stroke="#000000" points="156,-.5 156,-30.5 258,-30.5 258,-.5 156,-.5"/>
<text text-anchor="start" x="164" y="-18.5" font-family="Helvetica,sans-Serif" font-size="10.00" fill="#000000">nuspell::my_ctype&lt;</text>
<text text-anchor="middle" x="207" y="-7.5" font-family="Helvetica,sans-Serif" font-size="10.00" fill="#000000"> wchar_t &gt;::do_is</text>
</a>
</g>
</g>
<!-- Node94&#45;&gt;Node97 -->
<g id="edge3" class="edge">
<title>Node94&#45;&gt;Node97</title>
<path fill="none" stroke="#191970" d="M130.199,-26.994C138.7512,-25.7141 147.3631,-24.4252 155.5704,-23.1969"/>
<polygon fill="#191970" stroke="#191970" points="129.5865,-23.5466 120.2147,-28.4883 130.6226,-30.4695 129.5865,-23.5466"/>
</g>
<!-- Node96 -->
<g id="node3" class="node">
<title>Node96</title>
<g id="a_node3"><a xlink:href="classnuspell_1_1my__ctype_3_01char_01_4.html#a2ce43e45303b663747f2dfa63dc79847" target="_top" xlink:title="nuspell::my_ctype\&lt;\l char \&gt;::my_ctype">
<polygon fill="#ffffff" stroke="#000000" points="294,-44.5 294,-74.5 396,-74.5 396,-44.5 294,-44.5"/>
<text text-anchor="start" x="302" y="-62.5" font-family="Helvetica,sans-Serif" font-size="10.00" fill="#000000">nuspell::my_ctype&lt;</text>
<text text-anchor="middle" x="345" y="-51.5" font-family="Helvetica,sans-Serif" font-size="10.00" fill="#000000"> char &gt;::my_ctype</text>
</a>
</g>
</g>
<!-- Node95&#45;&gt;Node96 -->
<g id="edge2" class="edge">
<title>Node95&#45;&gt;Node96</title>
<path fill="none" stroke="#191970" d="M263.593,-59.5C273.5959,-59.5 283.9586,-59.5 293.8023,-59.5"/>
<polygon fill="#191970" stroke="#191970" points="263.3359,-56.0001 253.3359,-59.5 263.3359,-63.0001 263.3359,-56.0001"/>
</g>
</g>
</svg>
