<?xml version="1.0" encoding="UTF-8" standalone="no"?>
<!DOCTYPE svg PUBLIC "-//W3C//DTD SVG 1.1//EN"
 "http://www.w3.org/Graphics/SVG/1.1/DTD/svg11.dtd">
<!-- Generated by graphviz version 2.40.1 (20161225.0304)
 -->
<!-- Title: nuspell::get_default_search_paths Pages: 1 -->
<svg width="247pt" height="39pt"
 viewBox="0.00 0.00 247.00 39.00" xmlns="http://www.w3.org/2000/svg" xmlns:xlink="http://www.w3.org/1999/xlink">
<g id="graph0" class="graph" transform="scale(1 1) rotate(0) translate(4 35)">
<title>nuspell::get_default_search_paths</title>
<polygon fill="#ffffff" stroke="transparent" points="-4,4 -4,-35 243,-35 243,4 -4,4"/>
<!-- Node102 -->
<g id="node1" class="node">
<title>Node102</title>
<polygon fill="#bfbfbf" stroke="#000000" points="0,-.5 0,-30.5 101,-30.5 101,-.5 0,-.5"/>
<text text-anchor="start" x="8" y="-18.5" font-family="Helvetica,sans-Serif" font-size="10.00" fill="#000000">nuspell::get_default</text>
<text text-anchor="middle" x="50.5" y="-7.5" font-family="Helvetica,sans-Serif" font-size="10.00" fill="#000000">_search_paths</text>
</g>
<!-- Node103 -->
<g id="node2" class="node">
<title>Node103</title>
<g id="a_node2"><a xlink:href="classnuspell_1_1_finder.html#aa74d4af869f64d4aa3e39be572265fcb" target="_top" xlink:title="Adds the default search paths which have been found to the paths. ">
<polygon fill="#ffffff" stroke="#000000" points="137,-.5 137,-30.5 239,-30.5 239,-.5 137,-.5"/>
<text text-anchor="start" x="145" y="-18.5" font-family="Helvetica,sans-Serif" font-size="10.00" fill="#000000">nuspell::Finder::add</text>
<text text-anchor="middle" x="188" y="-7.5" font-family="Helvetica,sans-Serif" font-size="10.00" fill="#000000">_default_paths</text>
</a>
</g>
</g>
<!-- Node102&#45;&gt;Node103 -->
<g id="edge1" class="edge">
<title>Node102&#45;&gt;Node103</title>
<path fill="none" stroke="#191970" d="M111.5423,-15.5C120.025,-15.5 128.6662,-15.5 136.9405,-15.5"/>
<polygon fill="#191970" stroke="#191970" points="111.3093,-12.0001 101.3093,-15.5 111.3092,-19.0001 111.3093,-12.0001"/>
</g>
</g>
</svg>
