<?xml version="1.0" encoding="UTF-8" standalone="no"?>
<!DOCTYPE svg PUBLIC "-//W3C//DTD SVG 1.1//EN"
 "http://www.w3.org/Graphics/SVG/1.1/DTD/svg11.dtd">
<!-- Generated by graphviz version 2.40.1 (20161225.0304)
 -->
<!-- Title: nuspell::to_narrow Pages: 1 -->
<svg width="401pt" height="127pt"
 viewBox="0.00 0.00 401.00 126.50" xmlns="http://www.w3.org/2000/svg" xmlns:xlink="http://www.w3.org/1999/xlink">
<g id="graph0" class="graph" transform="scale(1 1) rotate(0) translate(4 122.5)">
<title>nuspell::to_narrow</title>
<polygon fill="#ffffff" stroke="transparent" points="-4,4 -4,-122.5 397,-122.5 397,4 -4,4"/>
<!-- Node321 -->
<g id="node1" class="node">
<title>Node321</title>
<polygon fill="#bfbfbf" stroke="#000000" points="0,-44.5 0,-63.5 96,-63.5 96,-44.5 0,-44.5"/>
<text text-anchor="middle" x="48" y="-51.5" font-family="Helvetica,sans-Serif" font-size="10.00" fill="#000000">nuspell::to_narrow</text>
</g>
<!-- Node322 -->
<g id="node2" class="node">
<title>Node322</title>
<g id="a_node2"><a xlink:href="classnuspell_1_1_locale___input.html#aee61c67e1b91158f66ffeb92e493facc" target="_top" xlink:title="nuspell::Locale_Input\l::cvt_for_byte_dict">
<polygon fill="#ffffff" stroke="#000000" points="135.5,-88 135.5,-118 244.5,-118 244.5,-88 135.5,-88"/>
<text text-anchor="start" x="143.5" y="-106" font-family="Helvetica,sans-Serif" font-size="10.00" fill="#000000">nuspell::Locale_Input</text>
<text text-anchor="middle" x="190" y="-95" font-family="Helvetica,sans-Serif" font-size="10.00" fill="#000000">::cvt_for_byte_dict</text>
</a>
</g>
</g>
<!-- Node321&#45;&gt;Node322 -->
<g id="edge1" class="edge">
<title>Node321&#45;&gt;Node322</title>
<path fill="none" stroke="#191970" d="M85.3796,-66.8986C104.111,-73.3622 126.9014,-81.2265 146.4235,-87.963"/>
<polygon fill="#191970" stroke="#191970" points="86.3109,-63.5175 75.7161,-63.564 84.0274,-70.1346 86.3109,-63.5175"/>
</g>
<!-- Node324 -->
<g id="node4" class="node">
<title>Node324</title>
<g id="a_node4"><a xlink:href="structnuspell_1_1_unicode___input.html#a33ac5d111c70b0b9fa7e72496334e6f7" target="_top" xlink:title="nuspell::Unicode_Input\l::cvt_for_byte_dict">
<polygon fill="#ffffff" stroke="#000000" points="132,-39 132,-69 248,-69 248,-39 132,-39"/>
<text text-anchor="start" x="140" y="-57" font-family="Helvetica,sans-Serif" font-size="10.00" fill="#000000">nuspell::Unicode_Input</text>
<text text-anchor="middle" x="190" y="-46" font-family="Helvetica,sans-Serif" font-size="10.00" fill="#000000">::cvt_for_byte_dict</text>
</a>
</g>
</g>
<!-- Node321&#45;&gt;Node324 -->
<g id="edge3" class="edge">
<title>Node321&#45;&gt;Node324</title>
<path fill="none" stroke="#191970" d="M106.2441,-54C114.7106,-54 123.4273,-54 131.8911,-54"/>
<polygon fill="#191970" stroke="#191970" points="106.0748,-50.5001 96.0747,-54 106.0747,-57.5001 106.0748,-50.5001"/>
</g>
<!-- Node325 -->
<g id="node5" class="node">
<title>Node325</title>
<g id="a_node5"><a xlink:href="regress_8cxx.html#adaa095873c4ebfe8c954f43bc50f7b76" target="_top" xlink:title="normal_loop">
<polygon fill="#ffffff" stroke="#000000" points="155.5,-.5 155.5,-19.5 224.5,-19.5 224.5,-.5 155.5,-.5"/>
<text text-anchor="middle" x="190" y="-7.5" font-family="Helvetica,sans-Serif" font-size="10.00" fill="#000000">normal_loop</text>
</a>
</g>
</g>
<!-- Node321&#45;&gt;Node325 -->
<g id="edge4" class="edge">
<title>Node321&#45;&gt;Node325</title>
<path fill="none" stroke="#191970" d="M88.4327,-41.4715C110.9405,-34.4973 138.5136,-25.9535 159.2482,-19.5287"/>
<polygon fill="#191970" stroke="#191970" points="87.3279,-38.1496 78.8119,-44.4527 89.3998,-44.836 87.3279,-38.1496"/>
</g>
<!-- Node323 -->
<g id="node3" class="node">
<title>Node323</title>
<g id="a_node3"><a xlink:href="classnuspell_1_1_locale___input.html#a5f609f46deca8b32c87fe21445d5ae2c" target="_top" xlink:title="nuspell::Locale_Input\l::cvt_for_byte_dict">
<polygon fill="#ffffff" stroke="#000000" points="284,-88 284,-118 393,-118 393,-88 284,-88"/>
<text text-anchor="start" x="292" y="-106" font-family="Helvetica,sans-Serif" font-size="10.00" fill="#000000">nuspell::Locale_Input</text>
<text text-anchor="middle" x="338.5" y="-95" font-family="Helvetica,sans-Serif" font-size="10.00" fill="#000000">::cvt_for_byte_dict</text>
</a>
</g>
</g>
<!-- Node322&#45;&gt;Node323 -->
<g id="edge2" class="edge">
<title>Node322&#45;&gt;Node323</title>
<path fill="none" stroke="#191970" d="M255.1552,-103C264.7325,-103 274.5147,-103 283.8515,-103"/>
<polygon fill="#191970" stroke="#191970" points="254.874,-99.5001 244.874,-103 254.874,-106.5001 254.874,-99.5001"/>
</g>
<!-- Node326 -->
<g id="node6" class="node">
<title>Node326</title>
<g id="a_node6"><a xlink:href="regress_8cxx.html#a0ddf1224851353fc92bfbff6f499fa97" target="_top" xlink:title="main">
<polygon fill="#ffffff" stroke="#000000" points="319.5,-.5 319.5,-19.5 357.5,-19.5 357.5,-.5 319.5,-.5"/>
<text text-anchor="middle" x="338.5" y="-7.5" font-family="Helvetica,sans-Serif" font-size="10.00" fill="#000000">main</text>
</a>
</g>
</g>
<!-- Node325&#45;&gt;Node326 -->
<g id="edge5" class="edge">
<title>Node325&#45;&gt;Node326</title>
<path fill="none" stroke="#191970" d="M234.8747,-10C263.1078,-10 298.0966,-10 319.3381,-10"/>
<polygon fill="#191970" stroke="#191970" points="234.8167,-6.5001 224.8167,-10 234.8166,-13.5001 234.8167,-6.5001"/>
</g>
</g>
</svg>
