<?xml version="1.0" encoding="UTF-8" standalone="no"?>
<!DOCTYPE svg PUBLIC "-//W3C//DTD SVG 1.1//EN"
 "http://www.w3.org/Graphics/SVG/1.1/DTD/svg11.dtd">
<!-- Generated by graphviz version 2.40.1 (20161225.0304)
 -->
<!-- Title: nuspell::parse_morhological_fields Pages: 1 -->
<svg width="285pt" height="39pt"
 viewBox="0.00 0.00 285.00 39.00" xmlns="http://www.w3.org/2000/svg" xmlns:xlink="http://www.w3.org/1999/xlink">
<g id="graph0" class="graph" transform="scale(1 1) rotate(0) translate(4 35)">
<title>nuspell::parse_morhological_fields</title>
<polygon fill="#ffffff" stroke="transparent" points="-4,4 -4,-35 281,-35 281,4 -4,4"/>
<!-- Node228 -->
<g id="node1" class="node">
<title>Node228</title>
<polygon fill="#bfbfbf" stroke="#000000" points="0,-.5 0,-30.5 137,-30.5 137,-.5 0,-.5"/>
<text text-anchor="start" x="8" y="-18.5" font-family="Helvetica,sans-Serif" font-size="10.00" fill="#000000">nuspell::parse_morhological</text>
<text text-anchor="middle" x="68.5" y="-7.5" font-family="Helvetica,sans-Serif" font-size="10.00" fill="#000000">_fields</text>
</g>
<!-- Node229 -->
<g id="node2" class="node">
<title>Node229</title>
<g id="a_node2"><a xlink:href="namespacenuspell.html#aca16d8679d9abbf9c15f5a5cb2916649" target="_top" xlink:title="nuspell::reset_failbit\l_istream">
<polygon fill="#ffffff" stroke="#000000" points="173,-.5 173,-30.5 277,-30.5 277,-.5 173,-.5"/>
<text text-anchor="start" x="181" y="-18.5" font-family="Helvetica,sans-Serif" font-size="10.00" fill="#000000">nuspell::reset_failbit</text>
<text text-anchor="middle" x="225" y="-7.5" font-family="Helvetica,sans-Serif" font-size="10.00" fill="#000000">_istream</text>
</a>
</g>
</g>
<!-- Node228&#45;&gt;Node229 -->
<g id="edge1" class="edge">
<title>Node228&#45;&gt;Node229</title>
<path fill="none" stroke="#191970" d="M137.1432,-15.5C145.6678,-15.5 154.3469,-15.5 162.7674,-15.5"/>
<polygon fill="#191970" stroke="#191970" points="162.8827,-19.0001 172.8827,-15.5 162.8826,-12.0001 162.8827,-19.0001"/>
</g>
</g>
</svg>
