<?xml version="1.0" encoding="UTF-8" standalone="no"?>
<!DOCTYPE svg PUBLIC "-//W3C//DTD SVG 1.1//EN"
 "http://www.w3.org/Graphics/SVG/1.1/DTD/svg11.dtd">
<!-- Generated by graphviz version 2.40.1 (20161225.0304)
 -->
<!-- Title: nuspell::Aff_Data Pages: 1 -->
<svg width="827pt" height="362pt"
 viewBox="0.00 0.00 827.00 361.50" xmlns="http://www.w3.org/2000/svg" xmlns:xlink="http://www.w3.org/1999/xlink">
<g id="graph0" class="graph" transform="scale(1 1) rotate(0) translate(4 357.5)">
<title>nuspell::Aff_Data</title>
<polygon fill="#ffffff" stroke="transparent" points="-4,4 -4,-357.5 823,-357.5 823,4 -4,4"/>
<!-- Node3 -->
<g id="node1" class="node">
<title>Node3</title>
<polygon fill="#bfbfbf" stroke="#000000" points="727,-160.5 727,-179.5 819,-179.5 819,-160.5 727,-160.5"/>
<text text-anchor="middle" x="773" y="-167.5" font-family="Helvetica,sans-Serif" font-size="10.00" fill="#000000">nuspell::Aff_Data</text>
</g>
<!-- Node4 -->
<g id="node2" class="node">
<title>Node4</title>
<g id="a_node2"><a xlink:href="structnuspell_1_1_aff___structures.html" target="_top" xlink:title="nuspell::Aff_Structures\l\&lt; char \&gt;">
<polygon fill="#ffffff" stroke="#000000" points="502,-250 502,-280 618,-280 618,-250 502,-250"/>
<text text-anchor="start" x="510" y="-268" font-family="Helvetica,sans-Serif" font-size="10.00" fill="#000000">nuspell::Aff_Structures</text>
<text text-anchor="middle" x="560" y="-257" font-family="Helvetica,sans-Serif" font-size="10.00" fill="#000000">&lt; char &gt;</text>
</a>
</g>
</g>
<!-- Node4&#45;&gt;Node3 -->
<g id="edge1" class="edge">
<title>Node4&#45;&gt;Node3</title>
<path fill="none" stroke="#9a32cd" stroke-dasharray="5,2" d="M618.0112,-246.6869C646.0618,-237.0563 679.8801,-224.2865 709,-210 727.1155,-201.1124 746.596,-188.4426 759.2435,-179.7573"/>
<polygon fill="#9a32cd" stroke="#9a32cd" points="616.696,-243.4369 608.3471,-249.9597 618.9414,-250.0671 616.696,-243.4369"/>
<text text-anchor="middle" x="672.5" y="-243" font-family="Helvetica,sans-Serif" font-size="10.00" fill="#000000"> structures</text>
</g>
<!-- Node5 -->
<g id="node3" class="node">
<title>Node5</title>
<g id="a_node3"><a xlink:href="classnuspell_1_1_break___table.html" target="_top" xlink:title="nuspell::Break_Table\l\&lt; char \&gt;">
<polygon fill="#ffffff" stroke="#000000" points="238,-323 238,-353 346,-353 346,-323 238,-323"/>
<text text-anchor="start" x="246" y="-341" font-family="Helvetica,sans-Serif" font-size="10.00" fill="#000000">nuspell::Break_Table</text>
<text text-anchor="middle" x="292" y="-330" font-family="Helvetica,sans-Serif" font-size="10.00" fill="#000000">&lt; char &gt;</text>
</a>
</g>
</g>
<!-- Node5&#45;&gt;Node4 -->
<g id="edge2" class="edge">
<title>Node5&#45;&gt;Node4</title>
<path fill="none" stroke="#9a32cd" stroke-dasharray="5,2" d="M356.5802,-333.1662C394.485,-328.9624 442.8657,-321.2031 484,-307 503.0946,-300.4069 523.0225,-289.2085 537.6797,-280.0324"/>
<polygon fill="#9a32cd" stroke="#9a32cd" points="355.7606,-329.7331 346.1817,-334.2601 356.493,-336.6946 355.7606,-329.7331"/>
<text text-anchor="middle" x="428.5" y="-333" font-family="Helvetica,sans-Serif" font-size="10.00" fill="#000000"> break_table</text>
</g>
<!-- Node6 -->
<g id="node4" class="node">
<title>Node6</title>
<g id="a_node4"><a xlink:href="classnuspell_1_1_substr___replacer.html" target="_top" xlink:title="nuspell::Substr_Replacer\l\&lt; char \&gt;">
<polygon fill="#ffffff" stroke="#000000" points="229,-274 229,-304 355,-304 355,-274 229,-274"/>
<text text-anchor="start" x="237" y="-292" font-family="Helvetica,sans-Serif" font-size="10.00" fill="#000000">nuspell::Substr_Replacer</text>
<text text-anchor="middle" x="292" y="-281" font-family="Helvetica,sans-Serif" font-size="10.00" fill="#000000">&lt; char &gt;</text>
</a>
</g>
</g>
<!-- Node6&#45;&gt;Node4 -->
<g id="edge3" class="edge">
<title>Node6&#45;&gt;Node4</title>
<path fill="none" stroke="#9a32cd" stroke-dasharray="5,2" d="M365.2902,-282.4367C408.2549,-278.5891 461.7784,-273.796 501.8293,-270.2093"/>
<polygon fill="#9a32cd" stroke="#9a32cd" points="364.8208,-278.9646 355.1729,-283.3427 365.4452,-285.9367 364.8208,-278.9646"/>
<text text-anchor="middle" x="428.5" y="-295" font-family="Helvetica,sans-Serif" font-size="10.00" fill="#000000"> input_substr_replacer</text>
<text text-anchor="middle" x="428.5" y="-284" font-family="Helvetica,sans-Serif" font-size="10.00" fill="#000000">output_substr_replacer</text>
</g>
<!-- Node7 -->
<g id="node5" class="node">
<title>Node7</title>
<g id="a_node5"><a xlink:href="classnuspell_1_1_affix___table.html" target="_top" xlink:title="nuspell::Affix_Table\l\&lt; char \&gt;">
<polygon fill="#ffffff" stroke="#000000" points="240.5,-225 240.5,-255 343.5,-255 343.5,-225 240.5,-225"/>
<text text-anchor="start" x="248.5" y="-243" font-family="Helvetica,sans-Serif" font-size="10.00" fill="#000000">nuspell::Affix_Table</text>
<text text-anchor="middle" x="292" y="-232" font-family="Helvetica,sans-Serif" font-size="10.00" fill="#000000">&lt; char &gt;</text>
</a>
</g>
</g>
<!-- Node7&#45;&gt;Node4 -->
<g id="edge4" class="edge">
<title>Node7&#45;&gt;Node4</title>
<path fill="none" stroke="#9a32cd" stroke-dasharray="5,2" d="M353.9254,-238.5924C391.6832,-238.5616 440.8235,-239.9987 484,-246 491.1396,-246.9924 498.5805,-248.3882 505.8919,-249.9779"/>
<polygon fill="#9a32cd" stroke="#9a32cd" points="353.5767,-235.0938 343.592,-238.6374 353.6072,-242.0937 353.5767,-235.0938"/>
<text text-anchor="middle" x="428.5" y="-260" font-family="Helvetica,sans-Serif" font-size="10.00" fill="#000000"> suffixes</text>
<text text-anchor="middle" x="428.5" y="-249" font-family="Helvetica,sans-Serif" font-size="10.00" fill="#000000">prefixes</text>
</g>
<!-- Node8 -->
<g id="node6" class="node">
<title>Node8</title>
<g id="a_node6"><a xlink:href="classnuspell_1_1_hash___multiset.html" target="_top" xlink:title="Affix_Table_Base\&lt; char\l , AffixT \&gt;">
<polygon fill="#ffffff" stroke="#000000" points="3.5,-240 3.5,-270 125.5,-270 125.5,-240 3.5,-240"/>
<text text-anchor="start" x="11.5" y="-258" font-family="Helvetica,sans-Serif" font-size="10.00" fill="#000000">Affix_Table_Base&lt; char</text>
<text text-anchor="middle" x="64.5" y="-247" font-family="Helvetica,sans-Serif" font-size="10.00" fill="#000000"> , AffixT &gt;</text>
</a>
</g>
</g>
<!-- Node8&#45;&gt;Node7 -->
<g id="edge5" class="edge">
<title>Node8&#45;&gt;Node7</title>
<path fill="none" stroke="#8b1a1a" d="M136.051,-250.2824C169.8454,-248.0541 209.4299,-245.4442 240.2611,-243.4114"/>
<polygon fill="#8b1a1a" stroke="#8b1a1a" points="135.5131,-246.8101 125.7651,-250.9605 135.9737,-253.795 135.5131,-246.8101"/>
</g>
<!-- Node9 -->
<g id="node7" class="node">
<title>Node9</title>
<g id="a_node7"><a xlink:href="classnuspell_1_1_string___set.html" target="_top" xlink:title="nuspell::String_Set\l\&lt; char16_t \&gt;">
<polygon fill="#ffffff" stroke="#000000" points="15,-181 15,-211 114,-211 114,-181 15,-181"/>
<text text-anchor="start" x="23" y="-199" font-family="Helvetica,sans-Serif" font-size="10.00" fill="#000000">nuspell::String_Set</text>
<text text-anchor="middle" x="64.5" y="-188" font-family="Helvetica,sans-Serif" font-size="10.00" fill="#000000">&lt; char16_t &gt;</text>
</a>
</g>
</g>
<!-- Node9&#45;&gt;Node3 -->
<g id="edge15" class="edge">
<title>Node9&#45;&gt;Node3</title>
<path fill="none" stroke="#9a32cd" stroke-dasharray="5,2" d="M124.0342,-193.8153C262.3241,-188.7404 602.9048,-176.242 726.9001,-171.6917"/>
<polygon fill="#9a32cd" stroke="#9a32cd" points="123.9036,-190.3176 114.0387,-194.1821 124.1604,-197.3129 123.9036,-190.3176"/>
<text text-anchor="middle" x="428.5" y="-187" font-family="Helvetica,sans-Serif" font-size="10.00" fill="#000000"> compound_syllable_num</text>
</g>
<!-- Node9&#45;&gt;Node7 -->
<g id="edge6" class="edge">
<title>Node9&#45;&gt;Node7</title>
<path fill="none" stroke="#9a32cd" stroke-dasharray="5,2" d="M124.0717,-207.5216C160.2238,-214.5136 205.9022,-223.3481 240.4889,-230.0374"/>
<polygon fill="#9a32cd" stroke="#9a32cd" points="124.6274,-204.0643 114.1447,-205.6016 123.2981,-210.9369 124.6274,-204.0643"/>
<text text-anchor="middle" x="179" y="-226" font-family="Helvetica,sans-Serif" font-size="10.00" fill="#000000"> all_cont_flags</text>
</g>
<!-- Node12 -->
<g id="node10" class="node">
<title>Node12</title>
<g id="a_node10"><a xlink:href="classnuspell_1_1_affix___table.html" target="_top" xlink:title="nuspell::Affix_Table\l\&lt; wchar_t \&gt;">
<polygon fill="#ffffff" stroke="#000000" points="240.5,-137 240.5,-167 343.5,-167 343.5,-137 240.5,-137"/>
<text text-anchor="start" x="248.5" y="-155" font-family="Helvetica,sans-Serif" font-size="10.00" fill="#000000">nuspell::Affix_Table</text>
<text text-anchor="middle" x="292" y="-144" font-family="Helvetica,sans-Serif" font-size="10.00" fill="#000000">&lt; wchar_t &gt;</text>
</a>
</g>
</g>
<!-- Node9&#45;&gt;Node12 -->
<g id="edge11" class="edge">
<title>Node9&#45;&gt;Node12</title>
<path fill="none" stroke="#9a32cd" stroke-dasharray="5,2" d="M119.3388,-178.017C128.5091,-175.4042 137.975,-172.945 147,-171 177.6515,-164.3943 212.475,-159.7402 240.3117,-156.692"/>
<polygon fill="#9a32cd" stroke="#9a32cd" points="118.1473,-174.719 109.5389,-180.8953 120.12,-181.4353 118.1473,-174.719"/>
<text text-anchor="middle" x="179" y="-174" font-family="Helvetica,sans-Serif" font-size="10.00" fill="#000000"> all_cont_flags</text>
</g>
<!-- Node10 -->
<g id="node8" class="node">
<title>Node10</title>
<g id="a_node8"><a xlink:href="structnuspell_1_1_aff___structures.html" target="_top" xlink:title="nuspell::Aff_Structures\l\&lt; wchar_t \&gt;">
<polygon fill="#ffffff" stroke="#000000" points="502,-112 502,-142 618,-142 618,-112 502,-112"/>
<text text-anchor="start" x="510" y="-130" font-family="Helvetica,sans-Serif" font-size="10.00" fill="#000000">nuspell::Aff_Structures</text>
<text text-anchor="middle" x="560" y="-119" font-family="Helvetica,sans-Serif" font-size="10.00" fill="#000000">&lt; wchar_t &gt;</text>
</a>
</g>
</g>
<!-- Node10&#45;&gt;Node3 -->
<g id="edge7" class="edge">
<title>Node10&#45;&gt;Node3</title>
<path fill="none" stroke="#9a32cd" stroke-dasharray="5,2" d="M628.4214,-140.8128C660.5234,-147.2935 697.9413,-154.8473 726.6673,-160.6464"/>
<polygon fill="#9a32cd" stroke="#9a32cd" points="628.6981,-137.2981 618.2032,-138.7499 627.3128,-144.1597 628.6981,-137.2981"/>
<text text-anchor="middle" x="672.5" y="-159" font-family="Helvetica,sans-Serif" font-size="10.00" fill="#000000"> wide_structures</text>
</g>
<!-- Node11 -->
<g id="node9" class="node">
<title>Node11</title>
<g id="a_node9"><a xlink:href="classnuspell_1_1_substr___replacer.html" target="_top" xlink:title="nuspell::Substr_Replacer\l\&lt; wchar_t \&gt;">
<polygon fill="#ffffff" stroke="#000000" points="229,-88 229,-118 355,-118 355,-88 229,-88"/>
<text text-anchor="start" x="237" y="-106" font-family="Helvetica,sans-Serif" font-size="10.00" fill="#000000">nuspell::Substr_Replacer</text>
<text text-anchor="middle" x="292" y="-95" font-family="Helvetica,sans-Serif" font-size="10.00" fill="#000000">&lt; wchar_t &gt;</text>
</a>
</g>
</g>
<!-- Node11&#45;&gt;Node10 -->
<g id="edge8" class="edge">
<title>Node11&#45;&gt;Node10</title>
<path fill="none" stroke="#9a32cd" stroke-dasharray="5,2" d="M365.4048,-99.7999C401.3262,-99.3374 445.1057,-100.4155 484,-106 493.3494,-107.3424 503.1801,-109.4868 512.5534,-111.9032"/>
<polygon fill="#9a32cd" stroke="#9a32cd" points="364.9473,-96.3072 355.0091,-99.979 365.0679,-103.3061 364.9473,-96.3072"/>
<text text-anchor="middle" x="428.5" y="-120" font-family="Helvetica,sans-Serif" font-size="10.00" fill="#000000"> input_substr_replacer</text>
<text text-anchor="middle" x="428.5" y="-109" font-family="Helvetica,sans-Serif" font-size="10.00" fill="#000000">output_substr_replacer</text>
</g>
<!-- Node12&#45;&gt;Node10 -->
<g id="edge9" class="edge">
<title>Node12&#45;&gt;Node10</title>
<path fill="none" stroke="#9a32cd" stroke-dasharray="5,2" d="M353.8066,-146.2345C398.4194,-142.0728 458.2523,-136.4914 501.9718,-132.4131"/>
<polygon fill="#9a32cd" stroke="#9a32cd" points="353.3048,-142.766 343.6731,-147.1797 353.955,-149.7357 353.3048,-142.766"/>
<text text-anchor="middle" x="428.5" y="-157" font-family="Helvetica,sans-Serif" font-size="10.00" fill="#000000"> suffixes</text>
<text text-anchor="middle" x="428.5" y="-146" font-family="Helvetica,sans-Serif" font-size="10.00" fill="#000000">prefixes</text>
</g>
<!-- Node13 -->
<g id="node11" class="node">
<title>Node13</title>
<g id="a_node11"><a xlink:href="classnuspell_1_1_hash___multiset.html" target="_top" xlink:title="Affix_Table_Base\&lt; wchar\l_t , AffixT \&gt;">
<polygon fill="#ffffff" stroke="#000000" points="0,-122 0,-152 129,-152 129,-122 0,-122"/>
<text text-anchor="start" x="8" y="-140" font-family="Helvetica,sans-Serif" font-size="10.00" fill="#000000">Affix_Table_Base&lt; wchar</text>
<text text-anchor="middle" x="64.5" y="-129" font-family="Helvetica,sans-Serif" font-size="10.00" fill="#000000">_t , AffixT &gt;</text>
</a>
</g>
</g>
<!-- Node13&#45;&gt;Node12 -->
<g id="edge10" class="edge">
<title>Node13&#45;&gt;Node12</title>
<path fill="none" stroke="#8b1a1a" d="M139.176,-141.9237C172.2617,-144.1052 210.3678,-146.6177 240.2522,-148.5881"/>
<polygon fill="#8b1a1a" stroke="#8b1a1a" points="139.2925,-138.4239 129.0838,-141.2583 138.8319,-145.4087 139.2925,-138.4239"/>
</g>
<!-- Node14 -->
<g id="node12" class="node">
<title>Node14</title>
<g id="a_node12"><a xlink:href="classnuspell_1_1_break___table.html" target="_top" xlink:title="nuspell::Break_Table\l\&lt; wchar_t \&gt;">
<polygon fill="#ffffff" stroke="#000000" points="238,-39 238,-69 346,-69 346,-39 238,-39"/>
<text text-anchor="start" x="246" y="-57" font-family="Helvetica,sans-Serif" font-size="10.00" fill="#000000">nuspell::Break_Table</text>
<text text-anchor="middle" x="292" y="-46" font-family="Helvetica,sans-Serif" font-size="10.00" fill="#000000">&lt; wchar_t &gt;</text>
</a>
</g>
</g>
<!-- Node14&#45;&gt;Node10 -->
<g id="edge12" class="edge">
<title>Node14&#45;&gt;Node10</title>
<path fill="none" stroke="#9a32cd" stroke-dasharray="5,2" d="M356.5802,-58.8338C394.485,-63.0376 442.8657,-70.7969 484,-85 503.0946,-91.5931 523.0225,-102.7915 537.6797,-111.9676"/>
<polygon fill="#9a32cd" stroke="#9a32cd" points="356.493,-55.3054 346.1817,-57.7399 355.7606,-62.2669 356.493,-55.3054"/>
<text text-anchor="middle" x="428.5" y="-88" font-family="Helvetica,sans-Serif" font-size="10.00" fill="#000000"> break_table</text>
</g>
<!-- Node15 -->
<g id="node13" class="node">
<title>Node15</title>
<g id="a_node13"><a xlink:href="classnuspell_1_1_word___list.html" target="_top" xlink:title="Map between words and word_flags. ">
<polygon fill="#ffffff" stroke="#000000" points="511,-25.5 511,-44.5 609,-44.5 609,-25.5 511,-25.5"/>
<text text-anchor="middle" x="560" y="-32.5" font-family="Helvetica,sans-Serif" font-size="10.00" fill="#000000">nuspell::Word_List</text>
</a>
</g>
</g>
<!-- Node15&#45;&gt;Node3 -->
<g id="edge13" class="edge">
<title>Node15&#45;&gt;Node3</title>
<path fill="none" stroke="#9a32cd" stroke-dasharray="5,2" d="M584.5542,-50.0889C614.1769,-68.3469 665.4318,-100.1125 709,-128 726.1259,-138.9621 745.6413,-151.8231 758.5728,-160.3977"/>
<polygon fill="#9a32cd" stroke="#9a32cd" points="586.084,-46.9206 575.7337,-44.6576 582.4137,-52.8812 586.084,-46.9206"/>
<text text-anchor="middle" x="672.5" y="-131" font-family="Helvetica,sans-Serif" font-size="10.00" fill="#000000"> words</text>
</g>
<!-- Node16 -->
<g id="node14" class="node">
<title>Node16</title>
<g id="a_node14"><a xlink:href="classnuspell_1_1_hash___multiset.html" target="_top" xlink:title="Word_List_Base">
<polygon fill="#ffffff" stroke="#000000" points="247.5,-.5 247.5,-19.5 336.5,-19.5 336.5,-.5 247.5,-.5"/>
<text text-anchor="middle" x="292" y="-7.5" font-family="Helvetica,sans-Serif" font-size="10.00" fill="#000000">Word_List_Base</text>
</a>
</g>
</g>
<!-- Node16&#45;&gt;Node15 -->
<g id="edge14" class="edge">
<title>Node16&#45;&gt;Node15</title>
<path fill="none" stroke="#191970" d="M346.7937,-15.1114C394.9452,-19.6031 464.3815,-26.0804 510.7892,-30.4094"/>
<polygon fill="#191970" stroke="#191970" points="346.8375,-11.6003 336.5556,-14.1563 346.1873,-18.5701 346.8375,-11.6003"/>
</g>
</g>
</svg>
