<?xml version="1.0" encoding="UTF-8" standalone="no"?>
<!DOCTYPE svg PUBLIC "-//W3C//DTD SVG 1.1//EN"
 "http://www.w3.org/Graphics/SVG/1.1/DTD/svg11.dtd">
<!-- Generated by graphviz version 2.40.1 (20161225.0304)
 -->
<!-- Title: nuspell::Aff_Data::set_encoding_and_language Pages: 1 -->
<svg width="311pt" height="78pt"
 viewBox="0.00 0.00 311.00 77.50" xmlns="http://www.w3.org/2000/svg" xmlns:xlink="http://www.w3.org/1999/xlink">
<g id="graph0" class="graph" transform="scale(1 1) rotate(0) translate(4 73.5)">
<title>nuspell::Aff_Data::set_encoding_and_language</title>
<polygon fill="#ffffff" stroke="transparent" points="-4,4 -4,-73.5 307,-73.5 307,4 -4,4"/>
<!-- Node57 -->
<g id="node1" class="node">
<title>Node57</title>
<polygon fill="#bfbfbf" stroke="#000000" points="0,-22.5 0,-52.5 140,-52.5 140,-22.5 0,-22.5"/>
<text text-anchor="start" x="8" y="-40.5" font-family="Helvetica,sans-Serif" font-size="10.00" fill="#000000">nuspell::Aff_Data::</text>
<text text-anchor="middle" x="70" y="-29.5" font-family="Helvetica,sans-Serif" font-size="10.00" fill="#000000">set_encoding_and_language</text>
</g>
<!-- Node58 -->
<g id="node2" class="node">
<title>Node58</title>
<g id="a_node2"><a xlink:href="namespacenuspell.html#a2def7204c1e34b676467a79a7272db63" target="_top" xlink:title="nuspell::get_locale_name">
<polygon fill="#ffffff" stroke="#000000" points="176,-50 176,-69 303,-69 303,-50 176,-50"/>
<text text-anchor="middle" x="239.5" y="-57" font-family="Helvetica,sans-Serif" font-size="10.00" fill="#000000">nuspell::get_locale_name</text>
</a>
</g>
</g>
<!-- Node57&#45;&gt;Node58 -->
<g id="edge1" class="edge">
<title>Node57&#45;&gt;Node58</title>
<path fill="none" stroke="#191970" d="M140.4107,-46.6389C148.7525,-47.7216 157.2851,-48.829 165.6726,-49.9177"/>
<polygon fill="#191970" stroke="#191970" points="165.4415,-53.417 175.8089,-51.2333 166.3426,-46.4752 165.4415,-53.417"/>
</g>
<!-- Node59 -->
<g id="node3" class="node">
<title>Node59</title>
<g id="a_node3"><a xlink:href="namespacenuspell.html#aae159e86a8a1edad724249d330d985b1" target="_top" xlink:title="nuspell::install_ctype\l_facets_inplace">
<polygon fill="#ffffff" stroke="#000000" points="185.5,-.5 185.5,-30.5 293.5,-30.5 293.5,-.5 185.5,-.5"/>
<text text-anchor="start" x="193.5" y="-18.5" font-family="Helvetica,sans-Serif" font-size="10.00" fill="#000000">nuspell::install_ctype</text>
<text text-anchor="middle" x="239.5" y="-7.5" font-family="Helvetica,sans-Serif" font-size="10.00" fill="#000000">_facets_inplace</text>
</a>
</g>
</g>
<!-- Node57&#45;&gt;Node59 -->
<g id="edge2" class="edge">
<title>Node57&#45;&gt;Node59</title>
<path fill="none" stroke="#191970" d="M140.4107,-28.3611C151.9011,-26.8698 163.7537,-25.3314 175.0903,-23.86"/>
<polygon fill="#191970" stroke="#191970" points="175.8648,-27.2889 185.3311,-22.5308 174.9638,-20.3471 175.8648,-27.2889"/>
</g>
</g>
</svg>
