<?xml version="1.0" encoding="UTF-8" standalone="no"?>
<!DOCTYPE svg PUBLIC "-//W3C//DTD SVG 1.1//EN"
 "http://www.w3.org/Graphics/SVG/1.1/DTD/svg11.dtd">
<!-- Generated by graphviz version 2.40.1 (20161225.0304)
 -->
<!-- Title: nuspell::Aff_Data::parse_aff Pages: 1 -->
<svg width="909pt" height="661pt"
 viewBox="0.00 0.00 909.00 661.01" xmlns="http://www.w3.org/2000/svg" xmlns:xlink="http://www.w3.org/1999/xlink">
<g id="graph0" class="graph" transform="scale(1 1) rotate(0) translate(4 657.0103)">
<title>nuspell::Aff_Data::parse_aff</title>
<polygon fill="#ffffff" stroke="transparent" points="-4,4 -4,-657.0103 905,-657.0103 905,4 -4,4"/>
<!-- Node6 -->
<g id="node1" class="node">
<title>Node6</title>
<polygon fill="#bfbfbf" stroke="#000000" points="0,-285 0,-315 98,-315 98,-285 0,-285"/>
<text text-anchor="start" x="8" y="-303" font-family="Helvetica,sans-Serif" font-size="10.00" fill="#000000">nuspell::Aff_Data::</text>
<text text-anchor="middle" x="49" y="-292" font-family="Helvetica,sans-Serif" font-size="10.00" fill="#000000">parse_aff</text>
</g>
<!-- Node7 -->
<g id="node2" class="node">
<title>Node7</title>
<g id="a_node2"><a xlink:href="namespacenuspell.html#a2f6f1d95de158b3512f812a213175ab4" target="_top" xlink:title="nuspell::strip_bom">
<polygon fill="#ffffff" stroke="#000000" points="330.5,-591.5 330.5,-610.5 426.5,-610.5 426.5,-591.5 330.5,-591.5"/>
<text text-anchor="middle" x="378.5" y="-598.5" font-family="Helvetica,sans-Serif" font-size="10.00" fill="#000000">nuspell::strip_bom</text>
</a>
</g>
</g>
<!-- Node6&#45;&gt;Node7 -->
<g id="edge1" class="edge">
<title>Node6&#45;&gt;Node7</title>
<path fill="none" stroke="#191970" d="M49.7583,-315.0849C52.7001,-356.9196 66.8564,-475.3706 134,-537 184.8667,-583.6893 265.58,-597.1619 320.2284,-600.6123"/>
<polygon fill="#191970" stroke="#191970" points="320.2817,-604.1201 330.4548,-601.1608 320.6566,-597.1302 320.2817,-604.1201"/>
</g>
<!-- Node8 -->
<g id="node3" class="node">
<title>Node8</title>
<g id="a_node3"><a xlink:href="namespacenuspell.html#aca16d8679d9abbf9c15f5a5cb2916649" target="_top" xlink:title="nuspell::reset_failbit\l_istream">
<polygon fill="#ffffff" stroke="#000000" points="492.5,-542 492.5,-572 596.5,-572 596.5,-542 492.5,-542"/>
<text text-anchor="start" x="500.5" y="-560" font-family="Helvetica,sans-Serif" font-size="10.00" fill="#000000">nuspell::reset_failbit</text>
<text text-anchor="middle" x="544.5" y="-549" font-family="Helvetica,sans-Serif" font-size="10.00" fill="#000000">_istream</text>
</a>
</g>
</g>
<!-- Node6&#45;&gt;Node8 -->
<g id="edge30" class="edge">
<title>Node6&#45;&gt;Node8</title>
<path fill="none" stroke="#191970" d="M51.5977,-315.1918C60.8982,-367.8531 94.1137,-541.4028 134,-579 238.0174,-677.0478 316.5035,-662.4465 453,-620 478.7978,-611.9776 503.7592,-593.872 521.0755,-579.1198"/>
<polygon fill="#191970" stroke="#191970" points="523.7371,-581.4399 528.9322,-572.2061 519.1128,-576.1848 523.7371,-581.4399"/>
</g>
<!-- Node9 -->
<g id="node4" class="node">
<title>Node9</title>
<g id="a_node4"><a xlink:href="classnuspell_1_1_encoding.html#a7790810b45e07073c4232ad06c900b59" target="_top" xlink:title="nuspell::Encoding::\lis_utf8">
<polygon fill="#ffffff" stroke="#000000" points="151,-203 151,-233 251,-233 251,-203 151,-203"/>
<text text-anchor="start" x="159" y="-221" font-family="Helvetica,sans-Serif" font-size="10.00" fill="#000000">nuspell::Encoding::</text>
<text text-anchor="middle" x="201" y="-210" font-family="Helvetica,sans-Serif" font-size="10.00" fill="#000000">is_utf8</text>
</a>
</g>
</g>
<!-- Node6&#45;&gt;Node9 -->
<g id="edge3" class="edge">
<title>Node6&#45;&gt;Node9</title>
<path fill="none" stroke="#191970" d="M71.9839,-284.8318C88.827,-273.9917 112.421,-259.372 134,-248 140.9764,-244.3235 148.4944,-240.6717 155.8847,-237.2474"/>
<polygon fill="#191970" stroke="#191970" points="157.4714,-240.3708 165.1271,-233.0468 154.5751,-233.9981 157.4714,-240.3708"/>
</g>
<!-- Node10 -->
<g id="node5" class="node">
<title>Node10</title>
<g id="a_node5"><a xlink:href="namespacenuspell.html#abf6e8a988616a08af6fdc01bf32e4129" target="_top" xlink:title="nuspell::validate_utf8">
<polygon fill="#ffffff" stroke="#000000" points="146.5,-164.5 146.5,-183.5 255.5,-183.5 255.5,-164.5 146.5,-164.5"/>
<text text-anchor="middle" x="201" y="-171.5" font-family="Helvetica,sans-Serif" font-size="10.00" fill="#000000">nuspell::validate_utf8</text>
</a>
</g>
</g>
<!-- Node6&#45;&gt;Node10 -->
<g id="edge4" class="edge">
<title>Node6&#45;&gt;Node10</title>
<path fill="none" stroke="#191970" d="M56.9805,-284.7342C69.9615,-261.4098 97.8736,-217.0792 134,-193 137.0999,-190.9338 140.4243,-189.0897 143.8741,-187.4443"/>
<polygon fill="#191970" stroke="#191970" points="145.3524,-190.6199 153.231,-183.5363 142.6546,-184.1607 145.3524,-190.6199"/>
</g>
<!-- Node11 -->
<g id="node6" class="node">
<title>Node11</title>
<g id="a_node6"><a xlink:href="namespacenuspell.html#a431abe5c2853b6f099bfedd5b6a4bb9f" target="_top" xlink:title="Parses an affix from an input stream. ">
<polygon fill="#ffffff" stroke="#000000" points="150.5,-432.5 150.5,-451.5 251.5,-451.5 251.5,-432.5 150.5,-432.5"/>
<text text-anchor="middle" x="201" y="-439.5" font-family="Helvetica,sans-Serif" font-size="10.00" fill="#000000">nuspell::parse_affix</text>
</a>
</g>
</g>
<!-- Node6&#45;&gt;Node11 -->
<g id="edge5" class="edge">
<title>Node6&#45;&gt;Node11</title>
<path fill="none" stroke="#191970" d="M61.8889,-315.0084C78.0025,-333.4419 106.7857,-365.3009 134,-390 148.4,-403.0691 165.7743,-416.4934 179.2214,-426.4281"/>
<polygon fill="#191970" stroke="#191970" points="177.2799,-429.3441 187.4203,-432.4139 181.4075,-423.6905 177.2799,-429.3441"/>
</g>
<!-- Node12 -->
<g id="node7" class="node">
<title>Node12</title>
<g id="a_node7"><a xlink:href="namespacenuspell.html#ac3ed6d85c13c609eb5c51628b9dbac76" target="_top" xlink:title="Decodes a single flag from an input stream. ">
<polygon fill="#ffffff" stroke="#000000" points="310,-366.5 310,-385.5 447,-385.5 447,-366.5 310,-366.5"/>
<text text-anchor="middle" x="378.5" y="-373.5" font-family="Helvetica,sans-Serif" font-size="10.00" fill="#000000">nuspell::decode_single_flag</text>
</a>
</g>
</g>
<!-- Node6&#45;&gt;Node12 -->
<g id="edge23" class="edge">
<title>Node6&#45;&gt;Node12</title>
<path fill="none" stroke="#191970" d="M67.9962,-315.1209C84.4427,-327.3174 109.3964,-343.7527 134,-352 187.4232,-369.9078 250.8175,-375.7246 299.6663,-377.1604"/>
<polygon fill="#191970" stroke="#191970" points="299.78,-380.664 309.8605,-377.403 299.9467,-373.6659 299.78,-380.664"/>
</g>
<!-- Node13 -->
<g id="node8" class="node">
<title>Node13</title>
<g id="a_node8"><a xlink:href="namespacenuspell.html#adbb8e053a44129d0f51014facd48b7f9" target="_top" xlink:title="Decodes flags. ">
<polygon fill="#ffffff" stroke="#000000" points="489,-366.5 489,-385.5 600,-385.5 600,-366.5 489,-366.5"/>
<text text-anchor="middle" x="544.5" y="-373.5" font-family="Helvetica,sans-Serif" font-size="10.00" fill="#000000">nuspell::decode_flags</text>
</a>
</g>
</g>
<!-- Node6&#45;&gt;Node13 -->
<g id="edge27" class="edge">
<title>Node6&#45;&gt;Node13</title>
<path fill="none" stroke="#191970" d="M98.4029,-308.3877C110.0656,-310.2983 122.4631,-312.2727 134,-314 275.4831,-335.1826 311.9869,-332.8864 453,-357 465.6188,-359.1579 479.1516,-361.7906 491.836,-364.4004"/>
<polygon fill="#191970" stroke="#191970" points="491.289,-367.8616 501.7932,-366.479 492.7195,-361.0093 491.289,-367.8616"/>
</g>
<!-- Node22 -->
<g id="node17" class="node">
<title>Node22</title>
<g id="a_node17"><a xlink:href="namespacenuspell.html#aee2d3cdfa70d7cf8304c9a9f487b9a52" target="_top" xlink:title="nuspell::read_to_slash\l_or_space">
<polygon fill="#ffffff" stroke="#000000" points="321.5,-542 321.5,-572 435.5,-572 435.5,-542 321.5,-542"/>
<text text-anchor="start" x="329.5" y="-560" font-family="Helvetica,sans-Serif" font-size="10.00" fill="#000000">nuspell::read_to_slash</text>
<text text-anchor="middle" x="378.5" y="-549" font-family="Helvetica,sans-Serif" font-size="10.00" fill="#000000">_or_space</text>
</a>
</g>
</g>
<!-- Node6&#45;&gt;Node22 -->
<g id="edge29" class="edge">
<title>Node6&#45;&gt;Node22</title>
<path fill="none" stroke="#191970" d="M50.915,-315.0083C56.4541,-351.9675 75.9814,-447.9279 134,-497 183.456,-538.8299 257.5902,-552.3366 311.2561,-556.2945"/>
<polygon fill="#191970" stroke="#191970" points="311.1607,-559.7955 321.3651,-556.9458 311.6109,-552.81 311.1607,-559.7955"/>
</g>
<!-- Node24 -->
<g id="node19" class="node">
<title>Node24</title>
<g id="a_node19"><a xlink:href="namespacenuspell.html#a20013c2e88adddb9211f5beb81f075b3" target="_top" xlink:title="Parses morhological fields. ">
<polygon fill="#ffffff" stroke="#000000" points="310,-493 310,-523 447,-523 447,-493 310,-493"/>
<text text-anchor="start" x="318" y="-511" font-family="Helvetica,sans-Serif" font-size="10.00" fill="#000000">nuspell::parse_morhological</text>
<text text-anchor="middle" x="378.5" y="-500" font-family="Helvetica,sans-Serif" font-size="10.00" fill="#000000">_fields</text>
</a>
</g>
</g>
<!-- Node6&#45;&gt;Node24 -->
<g id="edge28" class="edge">
<title>Node6&#45;&gt;Node24</title>
<path fill="none" stroke="#191970" d="M52.3677,-315.3121C60.364,-347.8111 83.708,-423.7524 134,-461 181.5445,-496.2128 248.1431,-507.2071 299.8291,-509.8144"/>
<polygon fill="#191970" stroke="#191970" points="299.8226,-513.317 309.9574,-510.2288 300.1088,-506.3229 299.8226,-513.317"/>
</g>
<!-- Node25 -->
<g id="node20" class="node">
<title>Node25</title>
<g id="a_node20"><a xlink:href="namespacenuspell.html#ae580b4a878894da57f49c6faf107e183" target="_top" xlink:title="Parses vector of class T from an input stream. ">
<polygon fill="#ffffff" stroke="#000000" points="134,-126.5 134,-145.5 268,-145.5 268,-126.5 134,-126.5"/>
<text text-anchor="middle" x="201" y="-133.5" font-family="Helvetica,sans-Serif" font-size="10.00" fill="#000000">nuspell::parse_vector_of_T</text>
</a>
</g>
</g>
<!-- Node6&#45;&gt;Node25 -->
<g id="edge24" class="edge">
<title>Node6&#45;&gt;Node25</title>
<path fill="none" stroke="#191970" d="M53.6633,-284.7C63.4985,-255.0488 89.2254,-189.639 134,-155 136.331,-153.1967 138.8255,-151.5645 141.4312,-150.0873"/>
<polygon fill="#191970" stroke="#191970" points="143.1609,-153.1388 150.6434,-145.6379 140.1164,-146.8355 143.1609,-153.1388"/>
</g>
<!-- Node26 -->
<g id="node21" class="node">
<title>Node26</title>
<g id="a_node21"><a xlink:href="classnuspell_1_1_encoding.html#a29493899412bb5bf3b418725309220ef" target="_top" xlink:title="nuspell::Encoding::\lempty">
<polygon fill="#ffffff" stroke="#000000" points="151,-77 151,-107 251,-107 251,-77 151,-77"/>
<text text-anchor="start" x="159" y="-95" font-family="Helvetica,sans-Serif" font-size="10.00" fill="#000000">nuspell::Encoding::</text>
<text text-anchor="middle" x="201" y="-84" font-family="Helvetica,sans-Serif" font-size="10.00" fill="#000000">empty</text>
</a>
</g>
</g>
<!-- Node6&#45;&gt;Node26 -->
<g id="edge25" class="edge">
<title>Node6&#45;&gt;Node26</title>
<path fill="none" stroke="#191970" d="M51.9274,-284.9103C59.3917,-250.3606 82.3152,-164.8174 134,-117 136.4606,-114.7235 139.1474,-112.6492 141.9854,-110.7596"/>
<polygon fill="#191970" stroke="#191970" points="143.966,-113.6577 150.8778,-105.6279 140.4671,-107.5948 143.966,-113.6577"/>
</g>
<!-- Node27 -->
<g id="node22" class="node">
<title>Node27</title>
<g id="a_node22"><a xlink:href="namespacenuspell.html#aac49d4bd3ea9b66410ee5b793a12780e" target="_top" xlink:title="Parses flag type. ">
<polygon fill="#ffffff" stroke="#000000" points="140,-38.5 140,-57.5 262,-57.5 262,-38.5 140,-38.5"/>
<text text-anchor="middle" x="201" y="-45.5" font-family="Helvetica,sans-Serif" font-size="10.00" fill="#000000">nuspell::parse_flag_type</text>
</a>
</g>
</g>
<!-- Node6&#45;&gt;Node27 -->
<g id="edge26" class="edge">
<title>Node6&#45;&gt;Node27</title>
<path fill="none" stroke="#191970" d="M49.924,-284.9271C53.2815,-243.677 68.3861,-127.9616 134,-67 135.6912,-65.4287 137.5029,-63.986 139.4077,-62.6616"/>
<polygon fill="#191970" stroke="#191970" points="141.3361,-65.5905 148.2701,-57.5798 137.8541,-59.518 141.3361,-65.5905"/>
</g>
<!-- Node28 -->
<g id="node23" class="node">
<title>Node28</title>
<g id="a_node23"><a xlink:href="namespacenuspell.html#a82f70879bf54a6f7118852b75d8ddbfc" target="_top" xlink:title="nuspell::parse_compound_rule">
<polygon fill="#ffffff" stroke="#000000" points="304,-290.5 304,-309.5 453,-309.5 453,-290.5 304,-290.5"/>
<text text-anchor="middle" x="378.5" y="-297.5" font-family="Helvetica,sans-Serif" font-size="10.00" fill="#000000">nuspell::parse_compound_rule</text>
</a>
</g>
</g>
<!-- Node6&#45;&gt;Node28 -->
<g id="edge31" class="edge">
<title>Node6&#45;&gt;Node28</title>
<path fill="none" stroke="#191970" d="M98.3295,-300C149.8585,-300 231.6607,-300 293.6009,-300"/>
<polygon fill="#191970" stroke="#191970" points="293.7523,-303.5001 303.7523,-300 293.7522,-296.5001 293.7523,-303.5001"/>
</g>
<!-- Node29 -->
<g id="node24" class="node">
<title>Node29</title>
<g id="a_node24"><a xlink:href="namespacenuspell.html#a79258aeb32a39ce719a014950b33e5d6" target="_top" xlink:title="nuspell::utf8_to_wide">
<polygon fill="#ffffff" stroke="#000000" points="490,-252.5 490,-271.5 599,-271.5 599,-252.5 490,-252.5"/>
<text text-anchor="middle" x="544.5" y="-259.5" font-family="Helvetica,sans-Serif" font-size="10.00" fill="#000000">nuspell::utf8_to_wide</text>
</a>
</g>
</g>
<!-- Node6&#45;&gt;Node29 -->
<g id="edge33" class="edge">
<title>Node6&#45;&gt;Node29</title>
<path fill="none" stroke="#191970" d="M98.3219,-296.2175C188.3708,-289.3116 379.3502,-274.6654 479.7397,-266.9665"/>
<polygon fill="#191970" stroke="#191970" points="480.0515,-270.4529 489.7545,-266.1984 479.5161,-263.4734 480.0515,-270.4529"/>
</g>
<!-- Node30 -->
<g id="node25" class="node">
<title>Node30</title>
<g id="a_node25"><a xlink:href="namespacenuspell.html#a7f9d46d315680708283bd79ad729333d" target="_top" xlink:title="nuspell::erase_chars">
<polygon fill="#ffffff" stroke="#000000" points="147.5,-.5 147.5,-19.5 254.5,-19.5 254.5,-.5 147.5,-.5"/>
<text text-anchor="middle" x="201" y="-7.5" font-family="Helvetica,sans-Serif" font-size="10.00" fill="#000000">nuspell::erase_chars</text>
</a>
</g>
</g>
<!-- Node6&#45;&gt;Node30 -->
<g id="edge35" class="edge">
<title>Node6&#45;&gt;Node30</title>
<path fill="none" stroke="#191970" d="M51.7813,-284.9386C61.5586,-233.5326 95.828,-66.1324 134,-29 135.495,-27.5457 137.0927,-26.2012 138.7725,-24.9582"/>
<polygon fill="#191970" stroke="#191970" points="140.9956,-27.7054 147.7603,-19.5513 137.3871,-21.7071 140.9956,-27.7054"/>
</g>
<!-- Node7&#45;&gt;Node8 -->
<g id="edge2" class="edge">
<title>Node7&#45;&gt;Node8</title>
<path fill="none" stroke="#191970" d="M416.4323,-591.4586C428.1659,-588.4716 441.1269,-585.1358 453,-582 462.553,-579.477 472.6543,-576.7633 482.5221,-574.087"/>
<polygon fill="#191970" stroke="#191970" points="483.5526,-577.4339 492.2832,-571.4315 481.715,-570.6794 483.5526,-577.4339"/>
</g>
<!-- Node11&#45;&gt;Node8 -->
<g id="edge20" class="edge">
<title>Node11&#45;&gt;Node8</title>
<path fill="none" stroke="#191970" d="M251.9186,-443.0232C304.405,-445.7557 387.5736,-454.839 453,-484 480.0416,-496.0526 505.9386,-518.0293 523.2359,-534.7313"/>
<polygon fill="#191970" stroke="#191970" points="520.9843,-537.4274 530.5514,-541.9793 525.9111,-532.4547 520.9843,-537.4274"/>
</g>
<!-- Node11&#45;&gt;Node12 -->
<g id="edge6" class="edge">
<title>Node11&#45;&gt;Node12</title>
<path fill="none" stroke="#191970" d="M219.9931,-432.427C240.3858,-422.4087 273.9174,-406.6802 304,-396 311.8058,-393.2287 320.1886,-390.6291 328.4139,-388.2799"/>
<polygon fill="#191970" stroke="#191970" points="329.6123,-391.58 338.3196,-385.5439 327.7486,-384.8327 329.6123,-391.58"/>
</g>
<!-- Node11&#45;&gt;Node22 -->
<g id="edge16" class="edge">
<title>Node11&#45;&gt;Node22</title>
<path fill="none" stroke="#191970" d="M209.3726,-451.6807C225.7606,-470.062 263.981,-510.2121 304,-533 307.0443,-534.7335 310.2311,-536.3613 313.5007,-537.8871"/>
<polygon fill="#191970" stroke="#191970" points="312.3155,-541.1872 322.885,-541.9199 315.0793,-534.7559 312.3155,-541.1872"/>
</g>
<!-- Node23 -->
<g id="node18" class="node">
<title>Node23</title>
<g id="a_node18"><a xlink:href="namespacenuspell.html#a3d81c446c32c53cd03e595f8fde9c2ab" target="_top" xlink:title="nuspell::decode_flags\l_possible_alias">
<polygon fill="#ffffff" stroke="#000000" points="323,-405 323,-435 434,-435 434,-405 323,-405"/>
<text text-anchor="start" x="331" y="-423" font-family="Helvetica,sans-Serif" font-size="10.00" fill="#000000">nuspell::decode_flags</text>
<text text-anchor="middle" x="378.5" y="-412" font-family="Helvetica,sans-Serif" font-size="10.00" fill="#000000">_possible_alias</text>
</a>
</g>
</g>
<!-- Node11&#45;&gt;Node23 -->
<g id="edge18" class="edge">
<title>Node11&#45;&gt;Node23</title>
<path fill="none" stroke="#191970" d="M251.8644,-435.6957C270.8816,-433.3386 292.7559,-430.6274 312.9155,-428.1288"/>
<polygon fill="#191970" stroke="#191970" points="313.471,-431.5868 322.9645,-426.8833 312.6099,-424.64 313.471,-431.5868"/>
</g>
<!-- Node11&#45;&gt;Node24 -->
<g id="edge21" class="edge">
<title>Node11&#45;&gt;Node24</title>
<path fill="none" stroke="#191970" d="M226.81,-451.597C253.3262,-461.4565 295.286,-477.0584 328.3597,-489.3563"/>
<polygon fill="#191970" stroke="#191970" points="327.2781,-492.6882 337.871,-492.8929 329.7178,-486.1271 327.2781,-492.6882"/>
</g>
<!-- Node12&#45;&gt;Node13 -->
<g id="edge7" class="edge">
<title>Node12&#45;&gt;Node13</title>
<path fill="none" stroke="#191970" d="M447.4568,-376C457.8122,-376 468.468,-376 478.7539,-376"/>
<polygon fill="#191970" stroke="#191970" points="478.8917,-379.5001 488.8917,-376 478.8916,-372.5001 478.8917,-379.5001"/>
</g>
<!-- Node14 -->
<g id="node9" class="node">
<title>Node14</title>
<g id="a_node9"><a xlink:href="namespacenuspell.html#aa37c89934a500dfd75dbb3cc18321834" target="_top" xlink:title="nuspell::is_all_ascii">
<polygon fill="#ffffff" stroke="#000000" points="643.5,-404.5 643.5,-423.5 744.5,-423.5 744.5,-404.5 643.5,-404.5"/>
<text text-anchor="middle" x="694" y="-411.5" font-family="Helvetica,sans-Serif" font-size="10.00" fill="#000000">nuspell::is_all_ascii</text>
</a>
</g>
</g>
<!-- Node13&#45;&gt;Node14 -->
<g id="edge8" class="edge">
<title>Node13&#45;&gt;Node14</title>
<path fill="none" stroke="#191970" d="M582.2252,-385.589C601.7756,-390.5583 625.8466,-396.6767 646.6374,-401.9613"/>
<polygon fill="#191970" stroke="#191970" points="645.9921,-405.4085 656.5461,-404.4799 647.7165,-398.6243 645.9921,-405.4085"/>
</g>
<!-- Node16 -->
<g id="node11" class="node">
<title>Node16</title>
<g id="a_node11"><a xlink:href="namespacenuspell.html#a7fc6228909d26abd20009c4fb388dc81" target="_top" xlink:title="nuspell::latin1_to_ucs2">
<polygon fill="#ffffff" stroke="#000000" points="636,-366.5 636,-385.5 752,-385.5 752,-366.5 636,-366.5"/>
<text text-anchor="middle" x="694" y="-373.5" font-family="Helvetica,sans-Serif" font-size="10.00" fill="#000000">nuspell::latin1_to_ucs2</text>
</a>
</g>
</g>
<!-- Node13&#45;&gt;Node16 -->
<g id="edge10" class="edge">
<title>Node13&#45;&gt;Node16</title>
<path fill="none" stroke="#191970" d="M600.1683,-376C608.4311,-376 617.0273,-376 625.5151,-376"/>
<polygon fill="#191970" stroke="#191970" points="625.7847,-379.5001 635.7847,-376 625.7847,-372.5001 625.7847,-379.5001"/>
</g>
<!-- Node17 -->
<g id="node12" class="node">
<title>Node17</title>
<g id="a_node12"><a xlink:href="namespacenuspell.html#aff86f9ecb346e78687e56dab66a77469" target="_top" xlink:title="nuspell::utf8_to_32">
<polygon fill="#ffffff" stroke="#000000" points="644.5,-290.5 644.5,-309.5 743.5,-309.5 743.5,-290.5 644.5,-290.5"/>
<text text-anchor="middle" x="694" y="-297.5" font-family="Helvetica,sans-Serif" font-size="10.00" fill="#000000">nuspell::utf8_to_32</text>
</a>
</g>
</g>
<!-- Node13&#45;&gt;Node17 -->
<g id="edge11" class="edge">
<title>Node13&#45;&gt;Node17</title>
<path fill="none" stroke="#191970" d="M557.5673,-366.4427C574.8264,-354.159 606.493,-332.7778 636,-319 640.6804,-316.8145 645.6816,-314.7724 650.7115,-312.8983"/>
<polygon fill="#191970" stroke="#191970" points="652.0727,-316.1298 660.3432,-309.5079 649.7484,-309.5269 652.0727,-316.1298"/>
</g>
<!-- Node19 -->
<g id="node14" class="node">
<title>Node19</title>
<g id="a_node14"><a xlink:href="namespacenuspell.html#acc7be34831c982c0065b2929a9b14f2b" target="_top" xlink:title="nuspell::is_all_bmp">
<polygon fill="#ffffff" stroke="#000000" points="644,-328.5 644,-347.5 744,-347.5 744,-328.5 644,-328.5"/>
<text text-anchor="middle" x="694" y="-335.5" font-family="Helvetica,sans-Serif" font-size="10.00" fill="#000000">nuspell::is_all_bmp</text>
</a>
</g>
</g>
<!-- Node13&#45;&gt;Node19 -->
<g id="edge13" class="edge">
<title>Node13&#45;&gt;Node19</title>
<path fill="none" stroke="#191970" d="M582.2252,-366.411C601.7756,-361.4417 625.8466,-355.3233 646.6374,-350.0387"/>
<polygon fill="#191970" stroke="#191970" points="647.7165,-353.3757 656.5461,-347.5201 645.9921,-346.5915 647.7165,-353.3757"/>
</g>
<!-- Node21 -->
<g id="node16" class="node">
<title>Node21</title>
<g id="a_node16"><a xlink:href="namespacenuspell.html#aac45dd40db821861bbd1ee9c2fc40a5e" target="_top" xlink:title="nuspell::u32_to_ucs2\l_skip_non_bmp">
<polygon fill="#ffffff" stroke="#000000" points="639.5,-443 639.5,-473 748.5,-473 748.5,-443 639.5,-443"/>
<text text-anchor="start" x="647.5" y="-461" font-family="Helvetica,sans-Serif" font-size="10.00" fill="#000000">nuspell::u32_to_ucs2</text>
<text text-anchor="middle" x="694" y="-450" font-family="Helvetica,sans-Serif" font-size="10.00" fill="#000000">_skip_non_bmp</text>
</a>
</g>
</g>
<!-- Node13&#45;&gt;Node21 -->
<g id="edge15" class="edge">
<title>Node13&#45;&gt;Node21</title>
<path fill="none" stroke="#191970" d="M558.3766,-385.5632C575.9775,-397.4757 607.4774,-418.0765 636,-433 639.7162,-434.9444 643.6167,-436.8658 647.5635,-438.7278"/>
<polygon fill="#191970" stroke="#191970" points="646.2419,-441.972 656.7917,-442.9473 649.1527,-435.6059 646.2419,-441.972"/>
</g>
<!-- Node15 -->
<g id="node10" class="node">
<title>Node15</title>
<g id="a_node10"><a xlink:href="namespacenuspell.html#a165544e1cd96cd0635c078d21ff32ff4" target="_top" xlink:title="nuspell::is_ascii">
<polygon fill="#ffffff" stroke="#000000" points="801.5,-404.5 801.5,-423.5 887.5,-423.5 887.5,-404.5 801.5,-404.5"/>
<text text-anchor="middle" x="844.5" y="-411.5" font-family="Helvetica,sans-Serif" font-size="10.00" fill="#000000">nuspell::is_ascii</text>
</a>
</g>
</g>
<!-- Node14&#45;&gt;Node15 -->
<g id="edge9" class="edge">
<title>Node14&#45;&gt;Node15</title>
<path fill="none" stroke="#191970" d="M744.533,-414C759.5197,-414 775.9778,-414 791.1377,-414"/>
<polygon fill="#191970" stroke="#191970" points="791.3917,-417.5001 801.3916,-414 791.3916,-410.5001 791.3917,-417.5001"/>
</g>
<!-- Node18 -->
<g id="node13" class="node">
<title>Node18</title>
<g id="a_node13"><a xlink:href="namespacenuspell.html#aae8baee1ca83bf5a5e0d07a4e8fdbf81" target="_top" xlink:title="nuspell::utf_to_utf_my">
<polygon fill="#ffffff" stroke="#000000" points="788,-271.5 788,-290.5 901,-290.5 901,-271.5 788,-271.5"/>
<text text-anchor="middle" x="844.5" y="-278.5" font-family="Helvetica,sans-Serif" font-size="10.00" fill="#000000">nuspell::utf_to_utf_my</text>
</a>
</g>
</g>
<!-- Node17&#45;&gt;Node18 -->
<g id="edge12" class="edge">
<title>Node17&#45;&gt;Node18</title>
<path fill="none" stroke="#191970" d="M743.6964,-293.726C754.623,-292.3466 766.3652,-290.8642 777.8376,-289.4158"/>
<polygon fill="#191970" stroke="#191970" points="778.3399,-292.8803 787.8227,-288.1553 777.4631,-285.9354 778.3399,-292.8803"/>
</g>
<!-- Node20 -->
<g id="node15" class="node">
<title>Node20</title>
<g id="a_node15"><a xlink:href="namespacenuspell.html#a8ed3c64b945233d09aee1622100ce1db" target="_top" xlink:title="nuspell::is_bmp">
<polygon fill="#ffffff" stroke="#000000" points="802,-328.5 802,-347.5 887,-347.5 887,-328.5 802,-328.5"/>
<text text-anchor="middle" x="844.5" y="-335.5" font-family="Helvetica,sans-Serif" font-size="10.00" fill="#000000">nuspell::is_bmp</text>
</a>
</g>
</g>
<!-- Node19&#45;&gt;Node20 -->
<g id="edge14" class="edge">
<title>Node19&#45;&gt;Node20</title>
<path fill="none" stroke="#191970" d="M744.1143,-338C759.2601,-338 775.9407,-338 791.2815,-338"/>
<polygon fill="#191970" stroke="#191970" points="791.6528,-341.5001 801.6528,-338 791.6527,-334.5001 791.6528,-341.5001"/>
</g>
<!-- Node22&#45;&gt;Node8 -->
<g id="edge17" class="edge">
<title>Node22&#45;&gt;Node8</title>
<path fill="none" stroke="#191970" d="M435.6278,-557C450.563,-557 466.7401,-557 481.9416,-557"/>
<polygon fill="#191970" stroke="#191970" points="482.2827,-560.5001 492.2827,-557 482.2826,-553.5001 482.2827,-560.5001"/>
</g>
<!-- Node23&#45;&gt;Node13 -->
<g id="edge19" class="edge">
<title>Node23&#45;&gt;Node13</title>
<path fill="none" stroke="#191970" d="M434.2374,-405.2262C455.1871,-399.6733 478.7436,-393.4294 498.6884,-388.1428"/>
<polygon fill="#191970" stroke="#191970" points="499.6887,-391.4986 508.4581,-385.5533 497.8951,-384.7323 499.6887,-391.4986"/>
</g>
<!-- Node24&#45;&gt;Node8 -->
<g id="edge22" class="edge">
<title>Node24&#45;&gt;Node8</title>
<path fill="none" stroke="#191970" d="M429.66,-523.1014C446.7806,-528.1551 466.0315,-533.8376 483.8078,-539.0848"/>
<polygon fill="#191970" stroke="#191970" points="482.9272,-542.4741 493.5089,-541.9484 484.9089,-535.7605 482.9272,-542.4741"/>
</g>
<!-- Node28&#45;&gt;Node13 -->
<g id="edge32" class="edge">
<title>Node28&#45;&gt;Node13</title>
<path fill="none" stroke="#191970" d="M413.1688,-309.5498C425.9074,-313.4784 440.3118,-318.4215 453,-324 477.0715,-334.5832 502.9953,-349.7009 521.0816,-360.9102"/>
<polygon fill="#191970" stroke="#191970" points="519.4443,-364.0149 529.7738,-366.371 523.1681,-358.0876 519.4443,-364.0149"/>
</g>
<!-- Node29&#45;&gt;Node18 -->
<g id="edge34" class="edge">
<title>Node29&#45;&gt;Node18</title>
<path fill="none" stroke="#191970" d="M599.1758,-265.4628C649.4271,-268.6454 724.0496,-273.3715 777.7893,-276.775"/>
<polygon fill="#191970" stroke="#191970" points="777.7062,-280.2766 787.9074,-277.4158 778.1487,-273.2906 777.7062,-280.2766"/>
</g>
</g>
</svg>
