<?xml version="1.0" encoding="UTF-8" standalone="no"?>
<!DOCTYPE svg PUBLIC "-//W3C//DTD SVG 1.1//EN"
 "http://www.w3.org/Graphics/SVG/1.1/DTD/svg11.dtd">
<!-- Generated by graphviz version 2.40.1 (20161225.0304)
 -->
<!-- Title: nuspell::Dict_Base::spell_priv Pages: 1 -->
<svg width="250pt" height="66pt"
 viewBox="0.00 0.00 250.00 66.00" xmlns="http://www.w3.org/2000/svg" xmlns:xlink="http://www.w3.org/1999/xlink">
<g id="graph0" class="graph" transform="scale(1 1) rotate(0) translate(4 62)">
<title>nuspell::Dict_Base::spell_priv</title>
<polygon fill="#ffffff" stroke="transparent" points="-4,4 -4,-62 246,-62 246,4 -4,4"/>
<!-- Node40 -->
<g id="node1" class="node">
<title>Node40</title>
<polygon fill="#bfbfbf" stroke="#000000" points="0,-14 0,-44 99,-44 99,-14 0,-14"/>
<text text-anchor="start" x="8" y="-32" font-family="Helvetica,sans-Serif" font-size="10.00" fill="#000000">nuspell::Dict_Base</text>
<text text-anchor="middle" x="49.5" y="-21" font-family="Helvetica,sans-Serif" font-size="10.00" fill="#000000">::spell_priv</text>
</g>
<!-- Node41 -->
<g id="node2" class="node">
<title>Node41</title>
<g id="a_node2"><a xlink:href="namespacenuspell.html#ac7e8eea65ba4b7e20168229192ca81dd" target="_top" xlink:title="Tests if word is a number. ">
<polygon fill="#ffffff" stroke="#000000" points="139.5,-38.5 139.5,-57.5 237.5,-57.5 237.5,-38.5 139.5,-38.5"/>
<text text-anchor="middle" x="188.5" y="-45.5" font-family="Helvetica,sans-Serif" font-size="10.00" fill="#000000">nuspell::is_number</text>
</a>
</g>
</g>
<!-- Node40&#45;&gt;Node41 -->
<g id="edge1" class="edge">
<title>Node40&#45;&gt;Node41</title>
<path fill="none" stroke="#191970" d="M99.2896,-35.8058C108.887,-37.1177 119.0312,-38.5043 128.9032,-39.8537"/>
<polygon fill="#191970" stroke="#191970" points="128.6761,-43.3551 139.058,-41.2417 129.6242,-36.4196 128.6761,-43.3551"/>
</g>
<!-- Node42 -->
<g id="node3" class="node">
<title>Node42</title>
<g id="a_node3"><a xlink:href="namespacenuspell.html#a7f9d46d315680708283bd79ad729333d" target="_top" xlink:title="nuspell::erase_chars">
<polygon fill="#ffffff" stroke="#000000" points="135,-.5 135,-19.5 242,-19.5 242,-.5 135,-.5"/>
<text text-anchor="middle" x="188.5" y="-7.5" font-family="Helvetica,sans-Serif" font-size="10.00" fill="#000000">nuspell::erase_chars</text>
</a>
</g>
</g>
<!-- Node40&#45;&gt;Node42 -->
<g id="edge2" class="edge">
<title>Node40&#45;&gt;Node42</title>
<path fill="none" stroke="#191970" d="M99.2896,-22.1942C107.5761,-21.0615 116.2703,-19.8731 124.8449,-18.7011"/>
<polygon fill="#191970" stroke="#191970" points="125.3904,-22.1591 134.8242,-17.337 124.4423,-15.2236 125.3904,-22.1591"/>
</g>
</g>
</svg>
