<?xml version="1.0" encoding="UTF-8" standalone="no"?>
<!DOCTYPE svg PUBLIC "-//W3C//DTD SVG 1.1//EN"
 "http://www.w3.org/Graphics/SVG/1.1/DTD/svg11.dtd">
<!-- Generated by graphviz version 2.40.1 (20161225.0304)
 -->
<!-- Title: src/nuspell/aff_data.hxx Pages: 1 -->
<svg width="1066pt" height="218pt"
 viewBox="0.00 0.00 1066.01 218.00" xmlns="http://www.w3.org/2000/svg" xmlns:xlink="http://www.w3.org/1999/xlink">
<g id="graph0" class="graph" transform="scale(1 1) rotate(0) translate(4 214)">
<title>src/nuspell/aff_data.hxx</title>
<polygon fill="#ffffff" stroke="transparent" points="-4,4 -4,-214 1062.0091,-214 1062.0091,4 -4,4"/>
<!-- Node0 -->
<g id="node1" class="node">
<title>Node0</title>
<polygon fill="#bfbfbf" stroke="#000000" points="458.0091,-190.5 458.0091,-209.5 579.0091,-209.5 579.0091,-190.5 458.0091,-190.5"/>
<text text-anchor="middle" x="518.5091" y="-197.5" font-family="Helvetica,sans-Serif" font-size="10.00" fill="#000000">src/nuspell/aff_data.hxx</text>
</g>
<!-- Node1 -->
<g id="node2" class="node">
<title>Node1</title>
<g id="a_node2"><a xlink:href="locale__utils_8hxx.html" target="_top" xlink:title="Encoding transformations, private header. ">
<polygon fill="#ffffff" stroke="#000000" points="82.5091,-134.5 82.5091,-153.5 166.5091,-153.5 166.5091,-134.5 82.5091,-134.5"/>
<text text-anchor="middle" x="124.5091" y="-141.5" font-family="Helvetica,sans-Serif" font-size="10.00" fill="#000000">locale_utils.hxx</text>
</a>
</g>
</g>
<!-- Node0&#45;&gt;Node1 -->
<g id="edge1" class="edge">
<title>Node0&#45;&gt;Node1</title>
<path fill="none" stroke="#191970" d="M457.81,-191.3727C380.9657,-180.4507 249.8502,-161.815 177.0823,-151.4723"/>
<polygon fill="#191970" stroke="#191970" points="177.1758,-147.9505 166.7828,-150.0084 176.1907,-154.8809 177.1758,-147.9505"/>
</g>
<!-- Node6 -->
<g id="node7" class="node">
<title>Node6</title>
<g id="a_node7"><a xlink:href="structures_8hxx.html" target="_top" xlink:title="Data structures, private header. ">
<polygon fill="#ffffff" stroke="#000000" points="479.0091,-134.5 479.0091,-153.5 558.0091,-153.5 558.0091,-134.5 479.0091,-134.5"/>
<text text-anchor="middle" x="518.5091" y="-141.5" font-family="Helvetica,sans-Serif" font-size="10.00" fill="#000000">structures.hxx</text>
</a>
</g>
</g>
<!-- Node0&#45;&gt;Node6 -->
<g id="edge6" class="edge">
<title>Node0&#45;&gt;Node6</title>
<path fill="none" stroke="#191970" d="M518.5091,-190.2455C518.5091,-182.9382 518.5091,-172.6944 518.5091,-163.7046"/>
<polygon fill="#191970" stroke="#191970" points="522.0092,-163.6426 518.5091,-153.6427 515.0092,-163.6427 522.0092,-163.6426"/>
</g>
<!-- Node20 -->
<g id="node21" class="node">
<title>Node20</title>
<polygon fill="#ffffff" stroke="#bfbfbf" points="576.0091,-134.5 576.0091,-153.5 621.0091,-153.5 621.0091,-134.5 576.0091,-134.5"/>
<text text-anchor="middle" x="598.5091" y="-141.5" font-family="Helvetica,sans-Serif" font-size="10.00" fill="#000000">iosfwd</text>
</g>
<!-- Node0&#45;&gt;Node20 -->
<g id="edge27" class="edge">
<title>Node0&#45;&gt;Node20</title>
<path fill="none" stroke="#191970" d="M532.444,-190.2455C544.6037,-181.7337 562.4555,-169.2375 576.5375,-159.3801"/>
<polygon fill="#191970" stroke="#191970" points="578.5486,-162.2447 584.7338,-153.6427 574.5343,-156.51 578.5486,-162.2447"/>
</g>
<!-- Node2 -->
<g id="node3" class="node">
<title>Node2</title>
<polygon fill="#ffffff" stroke="#bfbfbf" points="60.5091,-6 60.5091,-25 102.5091,-25 102.5091,-6 60.5091,-6"/>
<text text-anchor="middle" x="81.5091" y="-13" font-family="Helvetica,sans-Serif" font-size="10.00" fill="#000000">locale</text>
</g>
<!-- Node1&#45;&gt;Node2 -->
<g id="edge2" class="edge">
<title>Node1&#45;&gt;Node2</title>
<path fill="none" stroke="#191970" d="M86.872,-134.4397C55.7248,-125.6768 15.0901,-111.9756 5.5091,-98 -2.2814,-86.6362 -.9462,-79.172 5.5091,-67 15.1224,-48.8731 34.2859,-35.954 50.9636,-27.5888"/>
<polygon fill="#191970" stroke="#191970" points="52.8219,-30.5841 60.4049,-23.1848 49.8628,-24.2403 52.8219,-30.5841"/>
</g>
<!-- Node3 -->
<g id="node4" class="node">
<title>Node3</title>
<polygon fill="#ffffff" stroke="#bfbfbf" points="205.0091,-6 205.0091,-25 246.0091,-25 246.0091,-6 205.0091,-6"/>
<text text-anchor="middle" x="225.5091" y="-13" font-family="Helvetica,sans-Serif" font-size="10.00" fill="#000000">string</text>
</g>
<!-- Node1&#45;&gt;Node3 -->
<g id="edge3" class="edge">
<title>Node1&#45;&gt;Node3</title>
<path fill="none" stroke="#191970" d="M124.6501,-134.0258C125.3443,-118.3273 128.6658,-87.5314 143.5091,-67 156.473,-49.068 177.7835,-35.9612 195.4304,-27.4584"/>
<polygon fill="#191970" stroke="#191970" points="197.1265,-30.532 204.781,-23.2068 194.2291,-24.1598 197.1265,-30.532"/>
</g>
<!-- Node4 -->
<g id="node5" class="node">
<title>Node4</title>
<polygon fill="#ffffff" stroke="#bfbfbf" points="152.5091,-67.5 152.5091,-97.5 262.5091,-97.5 262.5091,-67.5 152.5091,-67.5"/>
<text text-anchor="start" x="160.5091" y="-85.5" font-family="Helvetica,sans-Serif" font-size="10.00" fill="#000000">boost/container/small</text>
<text text-anchor="middle" x="207.5091" y="-74.5" font-family="Helvetica,sans-Serif" font-size="10.00" fill="#000000">_vector.hpp</text>
</g>
<!-- Node1&#45;&gt;Node4 -->
<g id="edge4" class="edge">
<title>Node1&#45;&gt;Node4</title>
<path fill="none" stroke="#191970" d="M137.4778,-134.3906C148.5028,-126.2215 164.7349,-114.1941 178.7962,-103.7752"/>
<polygon fill="#191970" stroke="#191970" points="181.254,-106.3102 187.205,-97.5446 177.0865,-100.6859 181.254,-106.3102"/>
</g>
<!-- Node5 -->
<g id="node6" class="node">
<title>Node5</title>
<polygon fill="#ffffff" stroke="#bfbfbf" points="14.5091,-73 14.5091,-92 96.5091,-92 96.5091,-73 14.5091,-73"/>
<text text-anchor="middle" x="55.5091" y="-80" font-family="Helvetica,sans-Serif" font-size="10.00" fill="#000000">unicode/locid.h</text>
</g>
<!-- Node1&#45;&gt;Node5 -->
<g id="edge5" class="edge">
<title>Node1&#45;&gt;Node5</title>
<path fill="none" stroke="#191970" d="M113.7278,-134.3906C103.1565,-124.9683 86.8265,-110.4134 74.1488,-99.1137"/>
<polygon fill="#191970" stroke="#191970" points="76.2363,-96.2858 66.4423,-92.2449 71.5787,-101.5114 76.2363,-96.2858"/>
</g>
<!-- Node6&#45;&gt;Node3 -->
<g id="edge20" class="edge">
<title>Node6&#45;&gt;Node3</title>
<path fill="none" stroke="#191970" d="M478.9301,-140.1351C438.1724,-134.9306 373.702,-123.2253 323.5091,-98 290.2986,-81.3095 258.6833,-51.2506 240.7343,-32.3912"/>
<polygon fill="#191970" stroke="#191970" points="243.2898,-29.9996 233.9138,-25.0659 238.1667,-34.7697 243.2898,-29.9996"/>
</g>
<!-- Node6&#45;&gt;Node4 -->
<g id="edge24" class="edge">
<title>Node6&#45;&gt;Node4</title>
<path fill="none" stroke="#191970" d="M478.6041,-136.8334C430.5658,-128.1094 347.4886,-112.7141 276.5091,-98 275.258,-97.7407 273.9947,-97.4768 272.7221,-97.2092"/>
<polygon fill="#191970" stroke="#191970" points="273.3462,-93.7636 262.8357,-95.0978 271.8842,-100.6092 273.3462,-93.7636"/>
</g>
<!-- Node7 -->
<g id="node8" class="node">
<title>Node7</title>
<g id="a_node8"><a xlink:href="string__utils_8hxx.html" target="_top" xlink:title="String algorithms, private header. ">
<polygon fill="#ffffff" stroke="#000000" points="395.0091,-73 395.0091,-92 478.0091,-92 478.0091,-73 395.0091,-73"/>
<text text-anchor="middle" x="436.5091" y="-80" font-family="Helvetica,sans-Serif" font-size="10.00" fill="#000000">string_utils.hxx</text>
</a>
</g>
</g>
<!-- Node6&#45;&gt;Node7 -->
<g id="edge7" class="edge">
<title>Node6&#45;&gt;Node7</title>
<path fill="none" stroke="#191970" d="M505.6966,-134.3906C492.8189,-124.7324 472.7507,-109.6812 457.5371,-98.271"/>
<polygon fill="#191970" stroke="#191970" points="459.3316,-95.2419 449.2316,-92.0419 455.1316,-100.8419 459.3316,-95.2419"/>
</g>
<!-- Node8 -->
<g id="node9" class="node">
<title>Node8</title>
<polygon fill="#ffffff" stroke="#bfbfbf" points="326.5091,-6 326.5091,-25 382.5091,-25 382.5091,-6 326.5091,-6"/>
<text text-anchor="middle" x="354.5091" y="-13" font-family="Helvetica,sans-Serif" font-size="10.00" fill="#000000">algorithm</text>
</g>
<!-- Node6&#45;&gt;Node8 -->
<g id="edge16" class="edge">
<title>Node6&#45;&gt;Node8</title>
<path fill="none" stroke="#191970" d="M478.8858,-139.3852C449.6452,-134.033 410.7137,-122.5467 385.5091,-98 368.1807,-81.124 360.4323,-53.6305 357.0401,-35.068"/>
<polygon fill="#191970" stroke="#191970" points="360.4808,-34.4166 355.4752,-25.0788 353.5651,-35.5 360.4808,-34.4166"/>
</g>
<!-- Node9 -->
<g id="node10" class="node">
<title>Node9</title>
<polygon fill="#ffffff" stroke="#bfbfbf" points="719.0091,-6 719.0091,-25 766.0091,-25 766.0091,-6 719.0091,-6"/>
<text text-anchor="middle" x="742.5091" y="-13" font-family="Helvetica,sans-Serif" font-size="10.00" fill="#000000">iterator</text>
</g>
<!-- Node6&#45;&gt;Node9 -->
<g id="edge18" class="edge">
<title>Node6&#45;&gt;Node9</title>
<path fill="none" stroke="#191970" d="M557.9556,-134.4674C603.3833,-123.2615 673.126,-105.2713 683.5091,-98 706.8611,-81.6465 724.2742,-52.9805 733.9202,-34.1165"/>
<polygon fill="#191970" stroke="#191970" points="737.1172,-35.5457 738.3578,-25.0238 730.8264,-32.4755 737.1172,-35.5457"/>
</g>
<!-- Node11 -->
<g id="node12" class="node">
<title>Node11</title>
<polygon fill="#ffffff" stroke="#bfbfbf" points="264.5091,-6 264.5091,-25 308.5091,-25 308.5091,-6 264.5091,-6"/>
<text text-anchor="middle" x="286.5091" y="-13" font-family="Helvetica,sans-Serif" font-size="10.00" fill="#000000">vector</text>
</g>
<!-- Node6&#45;&gt;Node11 -->
<g id="edge23" class="edge">
<title>Node6&#45;&gt;Node11</title>
<path fill="none" stroke="#191970" d="M478.9172,-138.3795C445.8485,-132.3219 398.4711,-120.3747 362.5091,-98 335.5106,-81.2022 312.0347,-52.2704 298.5711,-33.5166"/>
<polygon fill="#191970" stroke="#191970" points="301.3828,-31.4296 292.7944,-25.2256 295.6394,-35.4313 301.3828,-31.4296"/>
</g>
<!-- Node14 -->
<g id="node15" class="node">
<title>Node14</title>
<polygon fill="#ffffff" stroke="#bfbfbf" points="496.5091,-73 496.5091,-92 540.5091,-92 540.5091,-73 496.5091,-73"/>
<text text-anchor="middle" x="518.5091" y="-80" font-family="Helvetica,sans-Serif" font-size="10.00" fill="#000000">cmath</text>
</g>
<!-- Node6&#45;&gt;Node14 -->
<g id="edge17" class="edge">
<title>Node6&#45;&gt;Node14</title>
<path fill="none" stroke="#191970" d="M518.5091,-134.3906C518.5091,-125.8657 518.5091,-113.1392 518.5091,-102.4235"/>
<polygon fill="#191970" stroke="#191970" points="522.0092,-102.2448 518.5091,-92.2449 515.0092,-102.2449 522.0092,-102.2448"/>
</g>
<!-- Node15 -->
<g id="node16" class="node">
<title>Node15</title>
<polygon fill="#ffffff" stroke="#bfbfbf" points="559.0091,-73 559.0091,-92 618.0091,-92 618.0091,-73 559.0091,-73"/>
<text text-anchor="middle" x="588.5091" y="-80" font-family="Helvetica,sans-Serif" font-size="10.00" fill="#000000">stdexcept</text>
</g>
<!-- Node6&#45;&gt;Node15 -->
<g id="edge19" class="edge">
<title>Node6&#45;&gt;Node15</title>
<path fill="none" stroke="#191970" d="M529.4466,-134.3906C540.1711,-124.9683 556.7377,-110.4134 569.5992,-99.1137"/>
<polygon fill="#191970" stroke="#191970" points="572.215,-101.4745 577.4174,-92.2449 567.5948,-96.2158 572.215,-101.4745"/>
</g>
<!-- Node16 -->
<g id="node17" class="node">
<title>Node16</title>
<polygon fill="#ffffff" stroke="#bfbfbf" points="636.5091,-73 636.5091,-92 674.5091,-92 674.5091,-73 636.5091,-73"/>
<text text-anchor="middle" x="655.5091" y="-80" font-family="Helvetica,sans-Serif" font-size="10.00" fill="#000000">tuple</text>
</g>
<!-- Node6&#45;&gt;Node16 -->
<g id="edge21" class="edge">
<title>Node6&#45;&gt;Node16</title>
<path fill="none" stroke="#191970" d="M542.8019,-134.3693C564.871,-125.4517 598.2043,-111.5596 626.5091,-98 627.3425,-97.6008 628.1864,-97.19 629.0363,-96.7709"/>
<polygon fill="#191970" stroke="#191970" points="630.8528,-99.7728 638.1545,-92.0959 627.6591,-93.5438 630.8528,-99.7728"/>
</g>
<!-- Node17 -->
<g id="node18" class="node">
<title>Node17</title>
<polygon fill="#ffffff" stroke="#bfbfbf" points="730.5091,-73 730.5091,-92 770.5091,-92 770.5091,-73 730.5091,-73"/>
<text text-anchor="middle" x="750.5091" y="-80" font-family="Helvetica,sans-Serif" font-size="10.00" fill="#000000">utility</text>
</g>
<!-- Node6&#45;&gt;Node17 -->
<g id="edge22" class="edge">
<title>Node6&#45;&gt;Node17</title>
<path fill="none" stroke="#191970" d="M558.3396,-135.7305C607.3473,-125.3841 687.6102,-107.8342 716.5091,-98 718.3515,-97.373 720.229,-96.6802 722.1081,-95.9454"/>
<polygon fill="#191970" stroke="#191970" points="723.513,-99.1514 731.3614,-92.0343 720.7878,-92.7037 723.513,-99.1514"/>
</g>
<!-- Node18 -->
<g id="node19" class="node">
<title>Node18</title>
<polygon fill="#ffffff" stroke="#bfbfbf" points="788.5091,-73 788.5091,-92 938.5091,-92 938.5091,-73 788.5091,-73"/>
<text text-anchor="middle" x="863.5091" y="-80" font-family="Helvetica,sans-Serif" font-size="10.00" fill="#000000">boost/multi_index/member.hpp</text>
</g>
<!-- Node6&#45;&gt;Node18 -->
<g id="edge25" class="edge">
<title>Node6&#45;&gt;Node18</title>
<path fill="none" stroke="#191970" d="M558.0381,-135.6408C560.9024,-135.0732 563.7487,-134.5206 566.5091,-134 660.855,-116.206 684.9654,-114.7114 779.5091,-98 786.9213,-96.6898 794.6965,-95.2899 802.3993,-93.8872"/>
<polygon fill="#191970" stroke="#191970" points="803.2402,-97.2915 812.4471,-92.0491 801.9804,-90.4058 803.2402,-97.2915"/>
</g>
<!-- Node19 -->
<g id="node20" class="node">
<title>Node19</title>
<polygon fill="#ffffff" stroke="#bfbfbf" points="957.0091,-67.5 957.0091,-97.5 1058.0091,-97.5 1058.0091,-67.5 957.0091,-67.5"/>
<text text-anchor="start" x="965.0091" y="-85.5" font-family="Helvetica,sans-Serif" font-size="10.00" fill="#000000">boost/range/iterator</text>
<text text-anchor="middle" x="1007.5091" y="-74.5" font-family="Helvetica,sans-Serif" font-size="10.00" fill="#000000">_range_core.hpp</text>
</g>
<!-- Node6&#45;&gt;Node19 -->
<g id="edge26" class="edge">
<title>Node6&#45;&gt;Node19</title>
<path fill="none" stroke="#191970" d="M558.2601,-135.3634C561.0456,-134.8677 563.8156,-134.4065 566.5091,-134 731.4891,-109.0991 778.2061,-126.6656 946.9278,-97.9058"/>
<polygon fill="#191970" stroke="#191970" points="947.6385,-101.3348 956.8935,-96.1778 946.4425,-94.4377 947.6385,-101.3348"/>
</g>
<!-- Node7&#45;&gt;Node2 -->
<g id="edge10" class="edge">
<title>Node7&#45;&gt;Node2</title>
<path fill="none" stroke="#191970" d="M394.7421,-74.6172C322.6904,-61.0187 176.6241,-33.4513 112.6765,-21.3823"/>
<polygon fill="#191970" stroke="#191970" points="113.2627,-17.9312 102.787,-19.5158 111.9644,-24.8098 113.2627,-17.9312"/>
</g>
<!-- Node7&#45;&gt;Node3 -->
<g id="edge12" class="edge">
<title>Node7&#45;&gt;Node3</title>
<path fill="none" stroke="#191970" d="M394.7558,-73.1357C357.5589,-64.2048 301.9842,-49.4039 255.5091,-31 254.3133,-30.5265 253.1022,-30.0203 251.8872,-29.4906"/>
<polygon fill="#191970" stroke="#191970" points="253.2192,-26.2485 242.6848,-25.1182 250.2151,-32.5711 253.2192,-26.2485"/>
</g>
<!-- Node7&#45;&gt;Node8 -->
<g id="edge8" class="edge">
<title>Node7&#45;&gt;Node8</title>
<path fill="none" stroke="#191970" d="M424.7605,-72.9005C411.6079,-62.1539 390.0755,-44.5603 374.3108,-31.6794"/>
<polygon fill="#191970" stroke="#191970" points="376.1942,-28.6986 366.2359,-25.0817 371.7651,-34.1193 376.1942,-28.6986"/>
</g>
<!-- Node7&#45;&gt;Node9 -->
<g id="edge9" class="edge">
<title>Node7&#45;&gt;Node9</title>
<path fill="none" stroke="#191970" d="M465.4543,-72.9668C472.6124,-70.8136 480.2973,-68.6727 487.5091,-67 584.8799,-44.4162 614.016,-60.5329 709.5091,-31 711.3685,-30.4249 713.2574,-29.7644 715.1419,-29.0472"/>
<polygon fill="#191970" stroke="#191970" points="716.5372,-32.2572 724.3697,-25.1225 713.7975,-25.8155 716.5372,-32.2572"/>
</g>
<!-- Node10 -->
<g id="node11" class="node">
<title>Node10</title>
<polygon fill="#ffffff" stroke="#bfbfbf" points="513.0091,-6 513.0091,-25 554.0091,-25 554.0091,-6 513.0091,-6"/>
<text text-anchor="middle" x="533.5091" y="-13" font-family="Helvetica,sans-Serif" font-size="10.00" fill="#000000">stack</text>
</g>
<!-- Node7&#45;&gt;Node10 -->
<g id="edge11" class="edge">
<title>Node7&#45;&gt;Node10</title>
<path fill="none" stroke="#191970" d="M450.4068,-72.9005C466.3254,-61.9052 492.6212,-43.7422 511.3689,-30.7927"/>
<polygon fill="#191970" stroke="#191970" points="513.3982,-33.6448 519.6371,-25.0817 509.4199,-27.8852 513.3982,-33.6448"/>
</g>
<!-- Node7&#45;&gt;Node11 -->
<g id="edge13" class="edge">
<title>Node7&#45;&gt;Node11</title>
<path fill="none" stroke="#191970" d="M413.5291,-72.9985C389.4385,-62.9346 350.5653,-46.4027 317.5091,-31 316.5,-30.5298 315.475,-30.0467 314.4414,-29.5549"/>
<polygon fill="#191970" stroke="#191970" points="315.6387,-26.2449 305.1158,-25.0117 312.5729,-32.5379 315.6387,-26.2449"/>
</g>
<!-- Node12 -->
<g id="node13" class="node">
<title>Node12</title>
<polygon fill="#ffffff" stroke="#bfbfbf" points="572.5091,-6 572.5091,-25 700.5091,-25 700.5091,-6 572.5091,-6"/>
<text text-anchor="middle" x="636.5091" y="-13" font-family="Helvetica,sans-Serif" font-size="10.00" fill="#000000">boost/functional/hash.hpp</text>
</g>
<!-- Node7&#45;&gt;Node12 -->
<g id="edge14" class="edge">
<title>Node7&#45;&gt;Node12</title>
<path fill="none" stroke="#191970" d="M465.1642,-72.9005C500.0653,-61.2086 559.1592,-41.4122 598.0088,-28.3976"/>
<polygon fill="#191970" stroke="#191970" points="599.5368,-31.577 607.9071,-25.0817 597.3132,-24.9395 599.5368,-31.577"/>
</g>
<!-- Node13 -->
<g id="node14" class="node">
<title>Node13</title>
<polygon fill="#ffffff" stroke="#bfbfbf" points="400.5091,-.5 400.5091,-30.5 494.5091,-30.5 494.5091,-.5 400.5091,-.5"/>
<text text-anchor="start" x="408.5091" y="-18.5" font-family="Helvetica,sans-Serif" font-size="10.00" fill="#000000">boost/utility/string</text>
<text text-anchor="middle" x="447.5091" y="-7.5" font-family="Helvetica,sans-Serif" font-size="10.00" fill="#000000">_view.hpp</text>
</g>
<!-- Node7&#45;&gt;Node13 -->
<g id="edge15" class="edge">
<title>Node7&#45;&gt;Node13</title>
<path fill="none" stroke="#191970" d="M438.0851,-72.9005C439.4627,-64.5099 441.5255,-51.9451 443.3704,-40.7085"/>
<polygon fill="#191970" stroke="#191970" points="446.8764,-40.9567 445.0428,-30.5218 439.9689,-39.8226 446.8764,-40.9567"/>
</g>
</g>
</svg>
