<?xml version="1.0" encoding="UTF-8" standalone="no"?>
<!DOCTYPE svg PUBLIC "-//W3C//DTD SVG 1.1//EN"
 "http://www.w3.org/Graphics/SVG/1.1/DTD/svg11.dtd">
<!-- Generated by graphviz version 2.40.1 (20161225.0304)
 -->
<!-- Title: src/nuspell/aff_data.hxx Pages: 1 -->
<svg width="1282pt" height="207pt"
 viewBox="0.00 0.00 1282.24 207.00" xmlns="http://www.w3.org/2000/svg" xmlns:xlink="http://www.w3.org/1999/xlink">
<g id="graph0" class="graph" transform="scale(1 1) rotate(0) translate(4 203)">
<title>src/nuspell/aff_data.hxx</title>
<polygon fill="#ffffff" stroke="transparent" points="-4,4 -4,-203 1278.2377,-203 1278.2377,4 -4,4"/>
<!-- Node0 -->
<g id="node1" class="node">
<title>Node0</title>
<polygon fill="#bfbfbf" stroke="#000000" points="185,-179.5 185,-198.5 306,-198.5 306,-179.5 185,-179.5"/>
<text text-anchor="middle" x="245.5" y="-186.5" font-family="Helvetica,sans-Serif" font-size="10.00" fill="#000000">src/nuspell/aff_data.hxx</text>
</g>
<!-- Node1 -->
<g id="node2" class="node">
<title>Node1</title>
<polygon fill="#ffffff" stroke="#bfbfbf" points="0,-123.5 0,-142.5 45,-142.5 45,-123.5 0,-123.5"/>
<text text-anchor="middle" x="22.5" y="-130.5" font-family="Helvetica,sans-Serif" font-size="10.00" fill="#000000">iosfwd</text>
</g>
<!-- Node0&#45;&gt;Node1 -->
<g id="edge1" class="edge">
<title>Node0&#45;&gt;Node1</title>
<path fill="none" stroke="#191970" d="M205.888,-179.4649C168.1897,-170.3287 109.8991,-156.0412 59.5,-143 58.0506,-142.6249 56.5701,-142.2386 55.0753,-141.8458"/>
<polygon fill="#191970" stroke="#191970" points="55.7415,-138.4013 45.1778,-139.2119 53.9413,-145.1659 55.7415,-138.4013"/>
</g>
<!-- Node2 -->
<g id="node3" class="node">
<title>Node2</title>
<polygon fill="#ffffff" stroke="#bfbfbf" points="211,-.5 211,-19.5 252,-19.5 252,-.5 211,-.5"/>
<text text-anchor="middle" x="231.5" y="-7.5" font-family="Helvetica,sans-Serif" font-size="10.00" fill="#000000">string</text>
</g>
<!-- Node0&#45;&gt;Node2 -->
<g id="edge2" class="edge">
<title>Node0&#45;&gt;Node2</title>
<path fill="none" stroke="#191970" d="M190.1116,-179.4924C151.3369,-171.5774 104.4163,-159.0259 92.5,-143 54.4936,-91.8862 150.253,-43.1178 201.5708,-21.5665"/>
<polygon fill="#191970" stroke="#191970" points="202.9664,-24.7771 210.8914,-17.7454 200.3111,-18.3002 202.9664,-24.7771"/>
</g>
<!-- Node3 -->
<g id="node4" class="node">
<title>Node3</title>
<polygon fill="#ffffff" stroke="#bfbfbf" points="102,-123.5 102,-142.5 185,-142.5 185,-123.5 102,-123.5"/>
<text text-anchor="middle" x="143.5" y="-130.5" font-family="Helvetica,sans-Serif" font-size="10.00" fill="#000000">unordered_map</text>
</g>
<!-- Node0&#45;&gt;Node3 -->
<g id="edge3" class="edge">
<title>Node0&#45;&gt;Node3</title>
<path fill="none" stroke="#191970" d="M227.733,-179.2455C211.7905,-170.4928 188.1741,-157.527 170.0011,-147.5496"/>
<polygon fill="#191970" stroke="#191970" points="171.5137,-144.3873 161.0634,-142.6427 168.1448,-150.5233 171.5137,-144.3873"/>
</g>
<!-- Node4 -->
<g id="node5" class="node">
<title>Node4</title>
<polygon fill="#ffffff" stroke="#bfbfbf" points="241.5,-62 241.5,-81 281.5,-81 281.5,-62 241.5,-62"/>
<text text-anchor="middle" x="261.5" y="-69" font-family="Helvetica,sans-Serif" font-size="10.00" fill="#000000">utility</text>
</g>
<!-- Node0&#45;&gt;Node4 -->
<g id="edge4" class="edge">
<title>Node0&#45;&gt;Node4</title>
<path fill="none" stroke="#191970" d="M262.2373,-179.2988C274.2584,-171.2823 289.523,-158.6887 296.5,-143 304.8563,-124.2096 291.6743,-103.1072 279.1687,-88.7286"/>
<polygon fill="#191970" stroke="#191970" points="281.4351,-86.0275 272.0517,-81.1079 276.3192,-90.8053 281.4351,-86.0275"/>
</g>
<!-- Node5 -->
<g id="node6" class="node">
<title>Node5</title>
<polygon fill="#ffffff" stroke="#bfbfbf" points="1088.5,-.5 1088.5,-19.5 1132.5,-19.5 1132.5,-.5 1088.5,-.5"/>
<text text-anchor="middle" x="1110.5" y="-7.5" font-family="Helvetica,sans-Serif" font-size="10.00" fill="#000000">vector</text>
</g>
<!-- Node0&#45;&gt;Node5 -->
<g id="edge5" class="edge">
<title>Node0&#45;&gt;Node5</title>
<path fill="none" stroke="#191970" d="M306.2532,-187.5764C516.0894,-182.0395 1201.0381,-158.5755 1265.5,-87 1303.9425,-44.3153 1198.5247,-22.441 1142.6747,-14.1002"/>
<polygon fill="#191970" stroke="#191970" points="1142.94,-10.6027 1132.5457,-12.6543 1141.9507,-17.5324 1142.94,-10.6027"/>
</g>
<!-- Node6 -->
<g id="node7" class="node">
<title>Node6</title>
<g id="a_node7"><a xlink:href="locale__utils_8hxx.html" target="_top" xlink:title="Encoding transformations. ">
<polygon fill="#ffffff" stroke="#000000" points="203.5,-123.5 203.5,-142.5 287.5,-142.5 287.5,-123.5 203.5,-123.5"/>
<text text-anchor="middle" x="245.5" y="-130.5" font-family="Helvetica,sans-Serif" font-size="10.00" fill="#000000">locale_utils.hxx</text>
</a>
</g>
</g>
<!-- Node0&#45;&gt;Node6 -->
<g id="edge6" class="edge">
<title>Node0&#45;&gt;Node6</title>
<path fill="none" stroke="#191970" d="M245.5,-179.2455C245.5,-171.9382 245.5,-161.6944 245.5,-152.7046"/>
<polygon fill="#191970" stroke="#191970" points="249.0001,-152.6426 245.5,-142.6427 242.0001,-152.6427 249.0001,-152.6426"/>
</g>
<!-- Node8 -->
<g id="node9" class="node">
<title>Node8</title>
<g id="a_node9"><a xlink:href="structures_8hxx.html" target="_top" xlink:title="Data structures. ">
<polygon fill="#ffffff" stroke="#000000" points="644,-123.5 644,-142.5 723,-142.5 723,-123.5 644,-123.5"/>
<text text-anchor="middle" x="683.5" y="-130.5" font-family="Helvetica,sans-Serif" font-size="10.00" fill="#000000">structures.hxx</text>
</a>
</g>
</g>
<!-- Node0&#45;&gt;Node8 -->
<g id="edge9" class="edge">
<title>Node0&#45;&gt;Node8</title>
<path fill="none" stroke="#191970" d="M306.402,-181.2134C393.6862,-170.0538 552.7136,-149.7215 633.5102,-139.3914"/>
<polygon fill="#191970" stroke="#191970" points="634.431,-142.8022 643.9064,-138.0622 633.5432,-135.8588 634.431,-142.8022"/>
</g>
<!-- Node6&#45;&gt;Node2 -->
<g id="edge8" class="edge">
<title>Node6&#45;&gt;Node2</title>
<path fill="none" stroke="#191970" d="M217.8041,-123.4275C201.4537,-116.1781 182.1261,-104.4435 172.5,-87 165.8432,-74.9371 166.454,-68.3803 172.5,-56 178.9041,-42.8865 191.0521,-32.4229 202.6685,-24.8092"/>
<polygon fill="#191970" stroke="#191970" points="204.6098,-27.7252 211.3439,-19.5457 200.9789,-21.7405 204.6098,-27.7252"/>
</g>
<!-- Node7 -->
<g id="node8" class="node">
<title>Node7</title>
<polygon fill="#ffffff" stroke="#bfbfbf" points="181.5,-62 181.5,-81 223.5,-81 223.5,-62 181.5,-62"/>
<text text-anchor="middle" x="202.5" y="-69" font-family="Helvetica,sans-Serif" font-size="10.00" fill="#000000">locale</text>
</g>
<!-- Node6&#45;&gt;Node7 -->
<g id="edge7" class="edge">
<title>Node6&#45;&gt;Node7</title>
<path fill="none" stroke="#191970" d="M238.7813,-123.3906C232.507,-114.417 222.9777,-100.7879 215.2596,-89.7491"/>
<polygon fill="#191970" stroke="#191970" points="217.9121,-87.4348 209.3135,-81.2449 212.1753,-91.4459 217.9121,-87.4348"/>
</g>
<!-- Node8&#45;&gt;Node2 -->
<g id="edge18" class="edge">
<title>Node8&#45;&gt;Node2</title>
<path fill="none" stroke="#191970" d="M643.9718,-130.6136C563.7269,-125.3267 384.582,-111.1471 328.5,-87 308.4809,-78.3804 307.54,-69.5905 290.5,-56 277.877,-45.9323 263.6009,-34.7953 252.2538,-26.0015"/>
<polygon fill="#191970" stroke="#191970" points="254.2748,-23.1399 244.2234,-19.7901 249.992,-28.6769 254.2748,-23.1399"/>
</g>
<!-- Node8&#45;&gt;Node4 -->
<g id="edge19" class="edge">
<title>Node8&#45;&gt;Node4</title>
<path fill="none" stroke="#191970" d="M643.7049,-129.853C558.3996,-122.8516 360.4149,-105.1665 295.5,-87 293.5321,-86.4493 291.5338,-85.7994 289.5422,-85.0832"/>
<polygon fill="#191970" stroke="#191970" points="290.3943,-81.6501 279.8137,-81.0999 287.7419,-88.1281 290.3943,-81.6501"/>
</g>
<!-- Node8&#45;&gt;Node5 -->
<g id="edge20" class="edge">
<title>Node8&#45;&gt;Node5</title>
<path fill="none" stroke="#191970" d="M723.0673,-131.0835C820.1266,-126.0284 1064.1157,-111.0456 1091.5,-87 1107.6174,-72.8476 1111.155,-47.4074 1111.4547,-29.657"/>
<polygon fill="#191970" stroke="#191970" points="1114.9524,-29.4772 1111.2952,-19.5336 1107.9533,-29.5875 1114.9524,-29.4772"/>
</g>
<!-- Node9 -->
<g id="node10" class="node">
<title>Node9</title>
<g id="a_node10"><a xlink:href="condition_8hxx.html" target="_top" xlink:title="Condition matching. ">
<polygon fill="#ffffff" stroke="#000000" points="1008.5,-62 1008.5,-81 1082.5,-81 1082.5,-62 1008.5,-62"/>
<text text-anchor="middle" x="1045.5" y="-69" font-family="Helvetica,sans-Serif" font-size="10.00" fill="#000000">condition.hxx</text>
</a>
</g>
</g>
<!-- Node8&#45;&gt;Node9 -->
<g id="edge10" class="edge">
<title>Node8&#45;&gt;Node9</title>
<path fill="none" stroke="#191970" d="M723.097,-129.5513C783.3762,-123.7831 901.5034,-110.44 999.5,-87 1002.9654,-86.1711 1006.5409,-85.1932 1010.0956,-84.1381"/>
<polygon fill="#191970" stroke="#191970" points="1011.4717,-87.3738 1019.9498,-81.0199 1009.3598,-80.6999 1011.4717,-87.3738"/>
</g>
<!-- Node11 -->
<g id="node12" class="node">
<title>Node11</title>
<polygon fill="#ffffff" stroke="#bfbfbf" points="1138.5,-62 1138.5,-81 1194.5,-81 1194.5,-62 1138.5,-62"/>
<text text-anchor="middle" x="1166.5" y="-69" font-family="Helvetica,sans-Serif" font-size="10.00" fill="#000000">algorithm</text>
</g>
<!-- Node8&#45;&gt;Node11 -->
<g id="edge14" class="edge">
<title>Node8&#45;&gt;Node11</title>
<path fill="none" stroke="#191970" d="M723.2788,-132.1619C801.2509,-129.7956 979.24,-120.8182 1124.5,-87 1127.6794,-86.2598 1130.946,-85.3453 1134.1857,-84.3336"/>
<polygon fill="#191970" stroke="#191970" points="1135.3757,-87.6257 1143.7097,-81.0839 1133.1152,-81.0007 1135.3757,-87.6257"/>
</g>
<!-- Node12 -->
<g id="node13" class="node">
<title>Node12</title>
<polygon fill="#ffffff" stroke="#bfbfbf" points="1212.5,-62 1212.5,-81 1256.5,-81 1256.5,-62 1212.5,-62"/>
<text text-anchor="middle" x="1234.5" y="-69" font-family="Helvetica,sans-Serif" font-size="10.00" fill="#000000">cmath</text>
</g>
<!-- Node8&#45;&gt;Node12 -->
<g id="edge15" class="edge">
<title>Node8&#45;&gt;Node12</title>
<path fill="none" stroke="#191970" d="M723.0585,-131.4146C828.2744,-126.8938 1113.1372,-112.5874 1203.5,-87 1205.2115,-86.5154 1206.9412,-85.9359 1208.6619,-85.2901"/>
<polygon fill="#191970" stroke="#191970" points="1210.499,-88.3049 1218.2318,-81.0624 1207.6703,-81.9019 1210.499,-88.3049"/>
</g>
<!-- Node13 -->
<g id="node14" class="node">
<title>Node13</title>
<polygon fill="#ffffff" stroke="#bfbfbf" points="338,-62 338,-81 385,-81 385,-62 338,-62"/>
<text text-anchor="middle" x="361.5" y="-69" font-family="Helvetica,sans-Serif" font-size="10.00" fill="#000000">iterator</text>
</g>
<!-- Node8&#45;&gt;Node13 -->
<g id="edge16" class="edge">
<title>Node8&#45;&gt;Node13</title>
<path fill="none" stroke="#191970" d="M643.7278,-130.3985C587.0563,-125.8659 480.3158,-114.2544 393.5,-87 391.8399,-86.4788 390.1574,-85.8845 388.4776,-85.2395"/>
<polygon fill="#191970" stroke="#191970" points="389.6268,-81.9227 379.0604,-81.1467 386.8366,-88.3426 389.6268,-81.9227"/>
</g>
<!-- Node14 -->
<g id="node15" class="node">
<title>Node14</title>
<polygon fill="#ffffff" stroke="#bfbfbf" points="403,-62 403,-81 462,-81 462,-62 403,-62"/>
<text text-anchor="middle" x="432.5" y="-69" font-family="Helvetica,sans-Serif" font-size="10.00" fill="#000000">stdexcept</text>
</g>
<!-- Node8&#45;&gt;Node14 -->
<g id="edge17" class="edge">
<title>Node8&#45;&gt;Node14</title>
<path fill="none" stroke="#191970" d="M643.9302,-126.4275C600.9686,-118.8272 530.5799,-105.0157 471.5,-87 469.2067,-86.3007 466.8586,-85.5251 464.5077,-84.7043"/>
<polygon fill="#191970" stroke="#191970" points="465.5534,-81.3591 454.9605,-81.1559 463.1146,-87.9205 465.5534,-81.3591"/>
</g>
<!-- Node15 -->
<g id="node16" class="node">
<title>Node15</title>
<polygon fill="#ffffff" stroke="#bfbfbf" points="480.5,-56.5 480.5,-86.5 590.5,-86.5 590.5,-56.5 480.5,-56.5"/>
<text text-anchor="start" x="488.5" y="-74.5" font-family="Helvetica,sans-Serif" font-size="10.00" fill="#000000">boost/container/small</text>
<text text-anchor="middle" x="535.5" y="-63.5" font-family="Helvetica,sans-Serif" font-size="10.00" fill="#000000">_vector.hpp</text>
</g>
<!-- Node8&#45;&gt;Node15 -->
<g id="edge21" class="edge">
<title>Node8&#45;&gt;Node15</title>
<path fill="none" stroke="#191970" d="M660.375,-123.3906C639.2322,-114.6049 607.3503,-101.3567 581.0936,-90.446"/>
<polygon fill="#191970" stroke="#191970" points="582.2824,-87.1499 571.7049,-86.5446 579.5963,-93.614 582.2824,-87.1499"/>
</g>
<!-- Node16 -->
<g id="node17" class="node">
<title>Node16</title>
<polygon fill="#ffffff" stroke="#bfbfbf" points="608.5,-62 608.5,-81 758.5,-81 758.5,-62 608.5,-62"/>
<text text-anchor="middle" x="683.5" y="-69" font-family="Helvetica,sans-Serif" font-size="10.00" fill="#000000">boost/multi_index/member.hpp</text>
</g>
<!-- Node8&#45;&gt;Node16 -->
<g id="edge22" class="edge">
<title>Node8&#45;&gt;Node16</title>
<path fill="none" stroke="#191970" d="M683.5,-123.3906C683.5,-114.8657 683.5,-102.1392 683.5,-91.4235"/>
<polygon fill="#191970" stroke="#191970" points="687.0001,-91.2448 683.5,-81.2449 680.0001,-91.2449 687.0001,-91.2448"/>
</g>
<!-- Node17 -->
<g id="node18" class="node">
<title>Node17</title>
<polygon fill="#ffffff" stroke="#bfbfbf" points="777,-56.5 777,-86.5 878,-86.5 878,-56.5 777,-56.5"/>
<text text-anchor="start" x="785" y="-74.5" font-family="Helvetica,sans-Serif" font-size="10.00" fill="#000000">boost/range/iterator</text>
<text text-anchor="middle" x="827.5" y="-63.5" font-family="Helvetica,sans-Serif" font-size="10.00" fill="#000000">_range_core.hpp</text>
</g>
<!-- Node8&#45;&gt;Node17 -->
<g id="edge23" class="edge">
<title>Node8&#45;&gt;Node17</title>
<path fill="none" stroke="#191970" d="M706,-123.3906C726.4811,-114.6435 757.3197,-101.4728 782.8022,-90.5897"/>
<polygon fill="#191970" stroke="#191970" points="784.4519,-93.691 792.2736,-86.5446 781.7025,-87.2535 784.4519,-93.691"/>
</g>
<!-- Node18 -->
<g id="node19" class="node">
<title>Node18</title>
<polygon fill="#ffffff" stroke="#bfbfbf" points="896.5,-56.5 896.5,-86.5 990.5,-86.5 990.5,-56.5 896.5,-56.5"/>
<text text-anchor="start" x="904.5" y="-74.5" font-family="Helvetica,sans-Serif" font-size="10.00" fill="#000000">boost/utility/string</text>
<text text-anchor="middle" x="943.5" y="-63.5" font-family="Helvetica,sans-Serif" font-size="10.00" fill="#000000">_view.hpp</text>
</g>
<!-- Node8&#45;&gt;Node18 -->
<g id="edge24" class="edge">
<title>Node8&#45;&gt;Node18</title>
<path fill="none" stroke="#191970" d="M723.2947,-124.5083C764.3093,-115.6331 830.0459,-101.0653 886.5,-87 886.5995,-86.9752 886.6991,-86.9504 886.7988,-86.9255"/>
<polygon fill="#191970" stroke="#191970" points="887.4383,-90.3745 896.2632,-84.5117 885.7084,-83.5916 887.4383,-90.3745"/>
</g>
<!-- Node9&#45;&gt;Node2 -->
<g id="edge11" class="edge">
<title>Node9&#45;&gt;Node2</title>
<path fill="none" stroke="#191970" d="M1020.997,-61.906C1014.1392,-59.5899 1006.6137,-57.3859 999.5,-56 854.5756,-27.7649 387.2025,-13.9908 262.3855,-10.7582"/>
<polygon fill="#191970" stroke="#191970" points="262.1246,-7.2505 252.0386,-10.4942 261.946,-14.2482 262.1246,-7.2505"/>
</g>
<!-- Node9&#45;&gt;Node5 -->
<g id="edge13" class="edge">
<title>Node9&#45;&gt;Node5</title>
<path fill="none" stroke="#191970" d="M1055.6563,-61.8906C1065.5199,-52.5581 1080.7055,-38.1902 1092.5987,-26.9374"/>
<polygon fill="#191970" stroke="#191970" points="1095.3421,-29.1601 1100.2006,-19.7449 1090.5311,-24.0753 1095.3421,-29.1601"/>
</g>
<!-- Node10 -->
<g id="node11" class="node">
<title>Node10</title>
<polygon fill="#ffffff" stroke="#bfbfbf" points="1026.5,-.5 1026.5,-19.5 1064.5,-19.5 1064.5,-.5 1026.5,-.5"/>
<text text-anchor="middle" x="1045.5" y="-7.5" font-family="Helvetica,sans-Serif" font-size="10.00" fill="#000000">tuple</text>
</g>
<!-- Node9&#45;&gt;Node10 -->
<g id="edge12" class="edge">
<title>Node9&#45;&gt;Node10</title>
<path fill="none" stroke="#191970" d="M1045.5,-61.8906C1045.5,-53.3657 1045.5,-40.6392 1045.5,-29.9235"/>
<polygon fill="#191970" stroke="#191970" points="1049.0001,-29.7448 1045.5,-19.7449 1042.0001,-29.7449 1049.0001,-29.7448"/>
</g>
</g>
</svg>
