<?xml version="1.0" encoding="UTF-8" standalone="no"?>
<!DOCTYPE svg PUBLIC "-//W3C//DTD SVG 1.1//EN"
 "http://www.w3.org/Graphics/SVG/1.1/DTD/svg11.dtd">
<!-- Generated by graphviz version 2.40.1 (20161225.0304)
 -->
<!-- Title: src/nuspell/aff_data.cxx Pages: 1 -->
<svg width="1618pt" height="218pt"
 viewBox="0.00 0.00 1617.50 218.00" xmlns="http://www.w3.org/2000/svg" xmlns:xlink="http://www.w3.org/1999/xlink">
<g id="graph0" class="graph" transform="scale(1 1) rotate(0) translate(4 214)">
<title>src/nuspell/aff_data.cxx</title>
<polygon fill="#ffffff" stroke="transparent" points="-4,4 -4,-214 1613.5,-214 1613.5,4 -4,4"/>
<!-- Node0 -->
<g id="node1" class="node">
<title>Node0</title>
<polygon fill="#bfbfbf" stroke="#000000" points="1012.5,-190.5 1012.5,-209.5 1133.5,-209.5 1133.5,-190.5 1012.5,-190.5"/>
<text text-anchor="middle" x="1073" y="-197.5" font-family="Helvetica,sans-Serif" font-size="10.00" fill="#000000">src/nuspell/aff_data.cxx</text>
</g>
<!-- Node1 -->
<g id="node2" class="node">
<title>Node1</title>
<g id="a_node2"><a xlink:href="aff__data_8hxx.html" target="_top" xlink:title="Affixing data structures. ">
<polygon fill="#ffffff" stroke="#000000" points="676.5,-129 676.5,-148 747.5,-148 747.5,-129 676.5,-129"/>
<text text-anchor="middle" x="712" y="-136" font-family="Helvetica,sans-Serif" font-size="10.00" fill="#000000">aff_data.hxx</text>
</a>
</g>
</g>
<!-- Node0&#45;&gt;Node1 -->
<g id="edge1" class="edge">
<title>Node0&#45;&gt;Node1</title>
<path fill="none" stroke="#191970" d="M1016.9898,-190.4581C945.649,-178.3045 823.7211,-157.5328 757.7039,-146.2861"/>
<polygon fill="#191970" stroke="#191970" points="758.0507,-142.7949 747.605,-144.5657 756.8751,-149.6954 758.0507,-142.7949"/>
</g>
<!-- Node4 -->
<g id="node5" class="node">
<title>Node4</title>
<polygon fill="#ffffff" stroke="#bfbfbf" points="435.5,-67.5 435.5,-86.5 518.5,-86.5 518.5,-67.5 435.5,-67.5"/>
<text text-anchor="middle" x="477" y="-74.5" font-family="Helvetica,sans-Serif" font-size="10.00" fill="#000000">unordered_map</text>
</g>
<!-- Node0&#45;&gt;Node4 -->
<g id="edge34" class="edge">
<title>Node0&#45;&gt;Node4</title>
<path fill="none" stroke="#191970" d="M1012.3886,-198.2038C932.393,-194.6845 787.7016,-184.3295 668,-154 607.7111,-138.7242 541.1646,-108.6549 504.7023,-90.9502"/>
<polygon fill="#191970" stroke="#191970" points="506.1931,-87.7831 495.6739,-86.5194 503.1091,-94.0671 506.1931,-87.7831"/>
</g>
<!-- Node7 -->
<g id="node8" class="node">
<title>Node7</title>
<g id="a_node8"><a xlink:href="locale__utils_8hxx.html" target="_top" xlink:title="Encoding transformations. ">
<polygon fill="#ffffff" stroke="#000000" points="914,-67.5 914,-86.5 998,-86.5 998,-67.5 914,-67.5"/>
<text text-anchor="middle" x="956" y="-74.5" font-family="Helvetica,sans-Serif" font-size="10.00" fill="#000000">locale_utils.hxx</text>
</a>
</g>
</g>
<!-- Node0&#45;&gt;Node7 -->
<g id="edge22" class="edge">
<title>Node0&#45;&gt;Node7</title>
<path fill="none" stroke="#191970" d="M1054.1389,-190.346C1039.2986,-182.1045 1018.7346,-169.1921 1004,-154 987.2885,-136.7697 973.4654,-112.7712 965.0128,-96.166"/>
<polygon fill="#191970" stroke="#191970" points="968.0162,-94.3417 960.4661,-86.9089 961.7332,-97.4277 968.0162,-94.3417"/>
</g>
<!-- Node10 -->
<g id="node11" class="node">
<title>Node10</title>
<polygon fill="#ffffff" stroke="#bfbfbf" points="913,-6 913,-25 969,-25 969,-6 913,-6"/>
<text text-anchor="middle" x="941" y="-13" font-family="Helvetica,sans-Serif" font-size="10.00" fill="#000000">algorithm</text>
</g>
<!-- Node0&#45;&gt;Node10 -->
<g id="edge30" class="edge">
<title>Node0&#45;&gt;Node10</title>
<path fill="none" stroke="#191970" d="M1063.9621,-190.4456C1055.9727,-181.5794 1044.4606,-167.7199 1037,-154 1017.461,-118.0679 1030.7689,-100.2855 1007,-67 996.3994,-52.1552 980.3293,-39.4876 966.7006,-30.4306"/>
<polygon fill="#191970" stroke="#191970" points="968.4961,-27.4246 958.1792,-25.0135 964.7407,-33.332 968.4961,-27.4246"/>
</g>
<!-- Node18 -->
<g id="node19" class="node">
<title>Node18</title>
<g id="a_node19"><a xlink:href="string__utils_8hxx.html" target="_top" xlink:title="String algorithms. ">
<polygon fill="#ffffff" stroke="#000000" points="812.5,-67.5 812.5,-86.5 895.5,-86.5 895.5,-67.5 812.5,-67.5"/>
<text text-anchor="middle" x="854" y="-74.5" font-family="Helvetica,sans-Serif" font-size="10.00" fill="#000000">string_utils.hxx</text>
</a>
</g>
</g>
<!-- Node0&#45;&gt;Node18 -->
<g id="edge23" class="edge">
<title>Node0&#45;&gt;Node18</title>
<path fill="none" stroke="#191970" d="M1051.2992,-190.4466C1031.6101,-181.5811 1001.9347,-167.722 977,-154 940.9884,-134.1822 900.9181,-108.3488 876.5901,-92.2174"/>
<polygon fill="#191970" stroke="#191970" points="878.3401,-89.1777 868.0782,-86.5427 874.4571,-95.002 878.3401,-89.1777"/>
</g>
<!-- Node20 -->
<g id="node21" class="node">
<title>Node20</title>
<polygon fill="#ffffff" stroke="#bfbfbf" points="1046,-129 1046,-148 1100,-148 1100,-129 1046,-129"/>
<text text-anchor="middle" x="1073" y="-136" font-family="Helvetica,sans-Serif" font-size="10.00" fill="#000000">iostream</text>
</g>
<!-- Node0&#45;&gt;Node20 -->
<g id="edge31" class="edge">
<title>Node0&#45;&gt;Node20</title>
<path fill="none" stroke="#191970" d="M1073,-190.3906C1073,-181.8657 1073,-169.1392 1073,-158.4235"/>
<polygon fill="#191970" stroke="#191970" points="1076.5001,-158.2448 1073,-148.2449 1069.5001,-158.2449 1076.5001,-158.2448"/>
</g>
<!-- Node21 -->
<g id="node22" class="node">
<title>Node21</title>
<polygon fill="#ffffff" stroke="#bfbfbf" points="1118.5,-129 1118.5,-148 1159.5,-148 1159.5,-129 1118.5,-129"/>
<text text-anchor="middle" x="1139" y="-136" font-family="Helvetica,sans-Serif" font-size="10.00" fill="#000000">regex</text>
</g>
<!-- Node0&#45;&gt;Node21 -->
<g id="edge32" class="edge">
<title>Node0&#45;&gt;Node21</title>
<path fill="none" stroke="#191970" d="M1083.3125,-190.3906C1093.4242,-180.9683 1109.0442,-166.4134 1121.1707,-155.1137"/>
<polygon fill="#191970" stroke="#191970" points="1123.612,-157.6228 1128.5421,-148.2449 1118.8399,-152.5015 1123.612,-157.6228"/>
</g>
<!-- Node22 -->
<g id="node23" class="node">
<title>Node22</title>
<polygon fill="#ffffff" stroke="#bfbfbf" points="1178,-129 1178,-148 1230,-148 1230,-129 1178,-129"/>
<text text-anchor="middle" x="1204" y="-136" font-family="Helvetica,sans-Serif" font-size="10.00" fill="#000000">sstream</text>
</g>
<!-- Node0&#45;&gt;Node22 -->
<g id="edge33" class="edge">
<title>Node0&#45;&gt;Node22</title>
<path fill="none" stroke="#191970" d="M1093.4688,-190.3906C1115.1952,-180.1908 1149.7335,-163.9763 1174.4185,-152.3875"/>
<polygon fill="#191970" stroke="#191970" points="1176.1103,-155.4598 1183.675,-148.0419 1173.1355,-149.1234 1176.1103,-155.4598"/>
</g>
<!-- Node23 -->
<g id="node24" class="node">
<title>Node23</title>
<polygon fill="#ffffff" stroke="#bfbfbf" points="1248,-123.5 1248,-153.5 1358,-153.5 1358,-123.5 1248,-123.5"/>
<text text-anchor="start" x="1256" y="-141.5" font-family="Helvetica,sans-Serif" font-size="10.00" fill="#000000">boost/algorithm/string</text>
<text text-anchor="middle" x="1303" y="-130.5" font-family="Helvetica,sans-Serif" font-size="10.00" fill="#000000">/case_conv.hpp</text>
</g>
<!-- Node0&#45;&gt;Node23 -->
<g id="edge35" class="edge">
<title>Node0&#45;&gt;Node23</title>
<path fill="none" stroke="#191970" d="M1108.6851,-190.4581C1143.1448,-181.2439 1196.1298,-167.0762 1238.0723,-155.8611"/>
<polygon fill="#191970" stroke="#191970" points="1239.1751,-159.1893 1247.9315,-153.2248 1237.3668,-152.4268 1239.1751,-159.1893"/>
</g>
<!-- Node24 -->
<g id="node25" class="node">
<title>Node24</title>
<polygon fill="#ffffff" stroke="#bfbfbf" points="1376,-129 1376,-148 1464,-148 1464,-129 1376,-129"/>
<text text-anchor="middle" x="1420" y="-136" font-family="Helvetica,sans-Serif" font-size="10.00" fill="#000000">boost/locale.hpp</text>
</g>
<!-- Node0&#45;&gt;Node24 -->
<g id="edge36" class="edge">
<title>Node0&#45;&gt;Node24</title>
<path fill="none" stroke="#191970" d="M1133.6778,-192.8365C1193.4274,-185.2367 1287.0859,-171.8587 1367,-154 1371.2102,-153.0591 1375.5779,-151.9701 1379.9177,-150.8141"/>
<polygon fill="#191970" stroke="#191970" points="1381.2109,-154.0872 1389.9057,-148.0332 1379.3334,-147.3437 1381.2109,-154.0872"/>
</g>
<!-- Node25 -->
<g id="node26" class="node">
<title>Node25</title>
<polygon fill="#ffffff" stroke="#bfbfbf" points="1482.5,-129 1482.5,-148 1609.5,-148 1609.5,-129 1482.5,-129"/>
<text text-anchor="middle" x="1546" y="-136" font-family="Helvetica,sans-Serif" font-size="10.00" fill="#000000">boost/range/adaptors.hpp</text>
</g>
<!-- Node0&#45;&gt;Node25 -->
<g id="edge37" class="edge">
<title>Node0&#45;&gt;Node25</title>
<path fill="none" stroke="#191970" d="M1133.5582,-194.8366C1212.1233,-187.7261 1353.305,-173.5447 1473,-154 1479.8729,-152.8777 1487.0778,-151.5434 1494.1724,-150.1356"/>
<polygon fill="#191970" stroke="#191970" points="1495.3403,-153.4693 1504.4362,-148.0365 1493.9377,-146.6113 1495.3403,-153.4693"/>
</g>
<!-- Node2 -->
<g id="node3" class="node">
<title>Node2</title>
<polygon fill="#ffffff" stroke="#bfbfbf" points="575.5,-67.5 575.5,-86.5 620.5,-86.5 620.5,-67.5 575.5,-67.5"/>
<text text-anchor="middle" x="598" y="-74.5" font-family="Helvetica,sans-Serif" font-size="10.00" fill="#000000">iosfwd</text>
</g>
<!-- Node1&#45;&gt;Node2 -->
<g id="edge2" class="edge">
<title>Node1&#45;&gt;Node2</title>
<path fill="none" stroke="#191970" d="M694.1875,-128.8906C675.5315,-118.8262 646.0203,-102.9057 624.6026,-91.3514"/>
<polygon fill="#191970" stroke="#191970" points="626.1502,-88.2095 615.6874,-86.5419 622.8266,-94.3702 626.1502,-88.2095"/>
</g>
<!-- Node3 -->
<g id="node4" class="node">
<title>Node3</title>
<polygon fill="#ffffff" stroke="#bfbfbf" points="853.5,-6 853.5,-25 894.5,-25 894.5,-6 853.5,-6"/>
<text text-anchor="middle" x="874" y="-13" font-family="Helvetica,sans-Serif" font-size="10.00" fill="#000000">string</text>
</g>
<!-- Node1&#45;&gt;Node3 -->
<g id="edge3" class="edge">
<title>Node1&#45;&gt;Node3</title>
<path fill="none" stroke="#191970" d="M724.1242,-128.9133C741.647,-115.0954 775.1192,-88.8407 804,-67 820.0905,-54.8317 838.4691,-41.3251 852.3559,-31.1978"/>
<polygon fill="#191970" stroke="#191970" points="854.7379,-33.7931 860.7637,-25.0787 850.6187,-28.1333 854.7379,-33.7931"/>
</g>
<!-- Node1&#45;&gt;Node4 -->
<g id="edge4" class="edge">
<title>Node1&#45;&gt;Node4</title>
<path fill="none" stroke="#191970" d="M676.3086,-129.1595C635.3642,-118.4442 568.1094,-100.8435 523.1997,-89.0906"/>
<polygon fill="#191970" stroke="#191970" points="523.975,-85.6757 513.4146,-86.5298 522.2027,-92.4476 523.975,-85.6757"/>
</g>
<!-- Node5 -->
<g id="node6" class="node">
<title>Node5</title>
<polygon fill="#ffffff" stroke="#bfbfbf" points="0,-6 0,-25 40,-25 40,-6 0,-6"/>
<text text-anchor="middle" x="20" y="-13" font-family="Helvetica,sans-Serif" font-size="10.00" fill="#000000">utility</text>
</g>
<!-- Node1&#45;&gt;Node5 -->
<g id="edge5" class="edge">
<title>Node1&#45;&gt;Node5</title>
<path fill="none" stroke="#191970" d="M681.0589,-128.928C651.1849,-119.3735 604.8833,-103.7375 566,-87 548.1076,-79.2981 545.7503,-72.2805 527,-67 321.9308,-9.2481 253.5709,-90.4929 49,-31 47.5268,-30.5716 46.0433,-30.0623 44.5679,-29.4938"/>
<polygon fill="#191970" stroke="#191970" points="45.6876,-26.1547 35.144,-25.1138 42.7372,-32.5026 45.6876,-26.1547"/>
</g>
<!-- Node6 -->
<g id="node7" class="node">
<title>Node6</title>
<polygon fill="#ffffff" stroke="#bfbfbf" points="726,-6 726,-25 770,-25 770,-6 726,-6"/>
<text text-anchor="middle" x="748" y="-13" font-family="Helvetica,sans-Serif" font-size="10.00" fill="#000000">vector</text>
</g>
<!-- Node1&#45;&gt;Node6 -->
<g id="edge6" class="edge">
<title>Node1&#45;&gt;Node6</title>
<path fill="none" stroke="#191970" d="M714.8249,-128.8484C720.7396,-108.6397 734.5241,-61.5427 742.3358,-34.8528"/>
<polygon fill="#191970" stroke="#191970" points="745.7383,-35.6873 745.1883,-25.1068 739.0201,-33.721 745.7383,-35.6873"/>
</g>
<!-- Node1&#45;&gt;Node7 -->
<g id="edge7" class="edge">
<title>Node1&#45;&gt;Node7</title>
<path fill="none" stroke="#191970" d="M747.741,-129.4915C790.1635,-118.799 861.0752,-100.9257 908.1893,-89.0507"/>
<polygon fill="#191970" stroke="#191970" points="909.314,-92.3767 918.1552,-86.5387 907.6031,-85.589 909.314,-92.3767"/>
</g>
<!-- Node9 -->
<g id="node10" class="node">
<title>Node9</title>
<g id="a_node10"><a xlink:href="structures_8hxx.html" target="_top" xlink:title="Data structures. ">
<polygon fill="#ffffff" stroke="#000000" points="638.5,-67.5 638.5,-86.5 717.5,-86.5 717.5,-67.5 638.5,-67.5"/>
<text text-anchor="middle" x="678" y="-74.5" font-family="Helvetica,sans-Serif" font-size="10.00" fill="#000000">structures.hxx</text>
</a>
</g>
</g>
<!-- Node1&#45;&gt;Node9 -->
<g id="edge10" class="edge">
<title>Node1&#45;&gt;Node9</title>
<path fill="none" stroke="#191970" d="M706.6875,-128.8906C701.7761,-120.0068 694.3421,-106.5601 688.2725,-95.5811"/>
<polygon fill="#191970" stroke="#191970" points="691.2888,-93.8031 683.3874,-86.7449 685.1627,-97.1899 691.2888,-93.8031"/>
</g>
<!-- Node7&#45;&gt;Node3 -->
<g id="edge9" class="edge">
<title>Node7&#45;&gt;Node3</title>
<path fill="none" stroke="#191970" d="M943.1875,-67.3906C930.3099,-57.7324 910.2416,-42.6812 895.028,-31.271"/>
<polygon fill="#191970" stroke="#191970" points="896.8226,-28.2419 886.7225,-25.0419 892.6225,-33.8419 896.8226,-28.2419"/>
</g>
<!-- Node8 -->
<g id="node9" class="node">
<title>Node8</title>
<polygon fill="#ffffff" stroke="#bfbfbf" points="1047,-6 1047,-25 1089,-25 1089,-6 1047,-6"/>
<text text-anchor="middle" x="1068" y="-13" font-family="Helvetica,sans-Serif" font-size="10.00" fill="#000000">locale</text>
</g>
<!-- Node7&#45;&gt;Node8 -->
<g id="edge8" class="edge">
<title>Node7&#45;&gt;Node8</title>
<path fill="none" stroke="#191970" d="M973.5,-67.3906C991.7465,-57.3713 1020.5624,-41.5483 1041.5806,-30.0071"/>
<polygon fill="#191970" stroke="#191970" points="1043.542,-32.923 1050.6229,-25.0419 1040.1728,-26.7872 1043.542,-32.923"/>
</g>
<!-- Node9&#45;&gt;Node3 -->
<g id="edge15" class="edge">
<title>Node9&#45;&gt;Node3</title>
<path fill="none" stroke="#191970" d="M717.6112,-68.7067C751.9678,-60.9007 802.6866,-47.8916 845,-31 846.1929,-30.5238 847.4002,-30.0115 848.61,-29.4733"/>
<polygon fill="#191970" stroke="#191970" points="850.2974,-32.5442 857.7404,-25.0041 847.2199,-26.257 850.2974,-32.5442"/>
</g>
<!-- Node9&#45;&gt;Node5 -->
<g id="edge16" class="edge">
<title>Node9&#45;&gt;Node5</title>
<path fill="none" stroke="#191970" d="M638.4996,-68.4467C635.2947,-67.903 632.0986,-67.4103 629,-67 372.9612,-33.0955 297.4694,-101.4865 49,-31 47.524,-30.5813 46.0383,-30.0797 44.5612,-29.5172"/>
<polygon fill="#191970" stroke="#191970" points="45.6776,-26.1772 35.1322,-25.155 42.7384,-32.5303 45.6776,-26.1772"/>
</g>
<!-- Node9&#45;&gt;Node6 -->
<g id="edge17" class="edge">
<title>Node9&#45;&gt;Node6</title>
<path fill="none" stroke="#191970" d="M688.9375,-67.3906C699.662,-57.9683 716.2287,-43.4134 729.0901,-32.1137"/>
<polygon fill="#191970" stroke="#191970" points="731.7059,-34.4745 736.9083,-25.2449 727.0857,-29.2158 731.7059,-34.4745"/>
</g>
<!-- Node9&#45;&gt;Node10 -->
<g id="edge11" class="edge">
<title>Node9&#45;&gt;Node10</title>
<path fill="none" stroke="#191970" d="M717.7817,-71.3227C763.3906,-64.2599 840.0941,-50.6811 904,-31 906.1632,-30.3338 908.3735,-29.5869 910.584,-28.7906"/>
<polygon fill="#191970" stroke="#191970" points="912.0791,-31.9647 920.1319,-25.0797 909.5432,-25.4401 912.0791,-31.9647"/>
</g>
<!-- Node11 -->
<g id="node12" class="node">
<title>Node11</title>
<polygon fill="#ffffff" stroke="#bfbfbf" points="586,-6 586,-25 630,-25 630,-6 586,-6"/>
<text text-anchor="middle" x="608" y="-13" font-family="Helvetica,sans-Serif" font-size="10.00" fill="#000000">cmath</text>
</g>
<!-- Node9&#45;&gt;Node11 -->
<g id="edge12" class="edge">
<title>Node9&#45;&gt;Node11</title>
<path fill="none" stroke="#191970" d="M667.0625,-67.3906C656.338,-57.9683 639.7713,-43.4134 626.9099,-32.1137"/>
<polygon fill="#191970" stroke="#191970" points="628.9143,-29.2158 619.0917,-25.2449 624.2941,-34.4745 628.9143,-29.2158"/>
</g>
<!-- Node12 -->
<g id="node13" class="node">
<title>Node12</title>
<polygon fill="#ffffff" stroke="#bfbfbf" points="788.5,-6 788.5,-25 835.5,-25 835.5,-6 788.5,-6"/>
<text text-anchor="middle" x="812" y="-13" font-family="Helvetica,sans-Serif" font-size="10.00" fill="#000000">iterator</text>
</g>
<!-- Node9&#45;&gt;Node12 -->
<g id="edge13" class="edge">
<title>Node9&#45;&gt;Node12</title>
<path fill="none" stroke="#191970" d="M699.3135,-67.3804C719.7774,-58.1236 751.5446,-43.6996 779,-31 780.1633,-30.4619 781.3491,-29.9119 782.5465,-29.3554"/>
<polygon fill="#191970" stroke="#191970" points="784.1936,-32.4491 791.7732,-25.0463 781.2315,-26.1066 784.1936,-32.4491"/>
</g>
<!-- Node13 -->
<g id="node14" class="node">
<title>Node13</title>
<polygon fill="#ffffff" stroke="#bfbfbf" points="648.5,-6 648.5,-25 707.5,-25 707.5,-6 648.5,-6"/>
<text text-anchor="middle" x="678" y="-13" font-family="Helvetica,sans-Serif" font-size="10.00" fill="#000000">stdexcept</text>
</g>
<!-- Node9&#45;&gt;Node13 -->
<g id="edge14" class="edge">
<title>Node9&#45;&gt;Node13</title>
<path fill="none" stroke="#191970" d="M678,-67.3906C678,-58.8657 678,-46.1392 678,-35.4235"/>
<polygon fill="#191970" stroke="#191970" points="681.5001,-35.2448 678,-25.2449 674.5001,-35.2449 681.5001,-35.2448"/>
</g>
<!-- Node14 -->
<g id="node15" class="node">
<title>Node14</title>
<polygon fill="#ffffff" stroke="#bfbfbf" points="58,-.5 58,-30.5 168,-30.5 168,-.5 58,-.5"/>
<text text-anchor="start" x="66" y="-18.5" font-family="Helvetica,sans-Serif" font-size="10.00" fill="#000000">boost/container/small</text>
<text text-anchor="middle" x="113" y="-7.5" font-family="Helvetica,sans-Serif" font-size="10.00" fill="#000000">_vector.hpp</text>
</g>
<!-- Node9&#45;&gt;Node14 -->
<g id="edge18" class="edge">
<title>Node9&#45;&gt;Node14</title>
<path fill="none" stroke="#191970" d="M638.4914,-68.5067C635.2883,-67.9495 632.0949,-67.4374 629,-67 432.6731,-39.2536 377.7583,-62.0567 177.9793,-30.9867"/>
<polygon fill="#191970" stroke="#191970" points="178.4699,-27.5209 168.046,-29.4164 177.3768,-34.435 178.4699,-27.5209"/>
</g>
<!-- Node15 -->
<g id="node16" class="node">
<title>Node15</title>
<polygon fill="#ffffff" stroke="#bfbfbf" points="186,-6 186,-25 336,-25 336,-6 186,-6"/>
<text text-anchor="middle" x="261" y="-13" font-family="Helvetica,sans-Serif" font-size="10.00" fill="#000000">boost/multi_index/member.hpp</text>
</g>
<!-- Node9&#45;&gt;Node15 -->
<g id="edge19" class="edge">
<title>Node9&#45;&gt;Node15</title>
<path fill="none" stroke="#191970" d="M638.4669,-68.6662C635.2693,-68.0733 632.0838,-67.5094 629,-67 503.4688,-46.2647 470.7211,-50.5516 345,-31 336.9784,-29.7525 328.5465,-28.3298 320.2464,-26.8638"/>
<polygon fill="#191970" stroke="#191970" points="320.6854,-23.3867 310.2241,-25.0631 319.4475,-30.2764 320.6854,-23.3867"/>
</g>
<!-- Node16 -->
<g id="node17" class="node">
<title>Node16</title>
<polygon fill="#ffffff" stroke="#bfbfbf" points="354.5,-.5 354.5,-30.5 455.5,-30.5 455.5,-.5 354.5,-.5"/>
<text text-anchor="start" x="362.5" y="-18.5" font-family="Helvetica,sans-Serif" font-size="10.00" fill="#000000">boost/range/iterator</text>
<text text-anchor="middle" x="405" y="-7.5" font-family="Helvetica,sans-Serif" font-size="10.00" fill="#000000">_range_core.hpp</text>
</g>
<!-- Node9&#45;&gt;Node16 -->
<g id="edge20" class="edge">
<title>Node9&#45;&gt;Node16</title>
<path fill="none" stroke="#191970" d="M638.2433,-68.9111C597.3869,-60.488 531.7073,-46.6421 465.4764,-31.0617"/>
<polygon fill="#191970" stroke="#191970" points="466.2406,-27.646 455.7035,-28.7508 464.6297,-34.4581 466.2406,-27.646"/>
</g>
<!-- Node17 -->
<g id="node18" class="node">
<title>Node17</title>
<polygon fill="#ffffff" stroke="#bfbfbf" points="474,-.5 474,-30.5 568,-30.5 568,-.5 474,-.5"/>
<text text-anchor="start" x="482" y="-18.5" font-family="Helvetica,sans-Serif" font-size="10.00" fill="#000000">boost/utility/string</text>
<text text-anchor="middle" x="521" y="-7.5" font-family="Helvetica,sans-Serif" font-size="10.00" fill="#000000">_view.hpp</text>
</g>
<!-- Node9&#45;&gt;Node17 -->
<g id="edge21" class="edge">
<title>Node9&#45;&gt;Node17</title>
<path fill="none" stroke="#191970" d="M653.4688,-67.3906C630.9419,-58.5664 596.9227,-45.2404 569,-34.3026"/>
<polygon fill="#191970" stroke="#191970" points="569.9942,-30.9331 559.4065,-30.5446 567.441,-37.4509 569.9942,-30.9331"/>
</g>
<!-- Node18&#45;&gt;Node3 -->
<g id="edge28" class="edge">
<title>Node18&#45;&gt;Node3</title>
<path fill="none" stroke="#191970" d="M857.125,-67.3906C859.9265,-58.776 864.1233,-45.8708 867.6306,-35.0858"/>
<polygon fill="#191970" stroke="#191970" points="871.0667,-35.8371 870.8309,-25.2449 864.4098,-33.6722 871.0667,-35.8371"/>
</g>
<!-- Node18&#45;&gt;Node6 -->
<g id="edge29" class="edge">
<title>Node18&#45;&gt;Node6</title>
<path fill="none" stroke="#191970" d="M837.4375,-67.3906C820.2463,-57.4165 793.1418,-41.6908 773.2734,-30.1633"/>
<polygon fill="#191970" stroke="#191970" points="774.8523,-27.033 764.4462,-25.0419 771.3394,-33.0877 774.8523,-27.033"/>
</g>
<!-- Node18&#45;&gt;Node8 -->
<g id="edge26" class="edge">
<title>Node18&#45;&gt;Node8</title>
<path fill="none" stroke="#191970" d="M895.5158,-67.8002C941.3905,-57.4262 1012.2,-40.7387 1038,-31 1039.2341,-30.5342 1040.4829,-30.0305 1041.7345,-29.4992"/>
<polygon fill="#191970" stroke="#191970" points="1043.6205,-32.48 1051.1797,-25.0565 1040.641,-26.1458 1043.6205,-32.48"/>
</g>
<!-- Node18&#45;&gt;Node10 -->
<g id="edge24" class="edge">
<title>Node18&#45;&gt;Node10</title>
<path fill="none" stroke="#191970" d="M867.5938,-67.3906C881.3843,-57.6421 902.9472,-42.3994 919.141,-30.9521"/>
<polygon fill="#191970" stroke="#191970" points="921.3563,-33.6723 927.5017,-25.0419 917.3156,-27.9563 921.3563,-33.6723"/>
</g>
<!-- Node18&#45;&gt;Node12 -->
<g id="edge25" class="edge">
<title>Node18&#45;&gt;Node12</title>
<path fill="none" stroke="#191970" d="M847.4375,-67.3906C841.3092,-58.417 832.0015,-44.7879 824.4628,-33.7491"/>
<polygon fill="#191970" stroke="#191970" points="827.185,-31.529 818.655,-25.2449 821.4044,-35.4768 827.185,-31.529"/>
</g>
<!-- Node19 -->
<g id="node20" class="node">
<title>Node19</title>
<polygon fill="#ffffff" stroke="#bfbfbf" points="987.5,-6 987.5,-25 1028.5,-25 1028.5,-6 987.5,-6"/>
<text text-anchor="middle" x="1008" y="-13" font-family="Helvetica,sans-Serif" font-size="10.00" fill="#000000">stack</text>
</g>
<!-- Node18&#45;&gt;Node19 -->
<g id="edge27" class="edge">
<title>Node18&#45;&gt;Node19</title>
<path fill="none" stroke="#191970" d="M882.9609,-67.3769C908.3471,-58.6777 946.0763,-45.1057 978,-31 979.0188,-30.5498 980.0517,-30.0811 981.0909,-29.599"/>
<polygon fill="#191970" stroke="#191970" points="982.9617,-32.5803 990.4066,-25.0421 979.8858,-26.2923 982.9617,-32.5803"/>
</g>
</g>
</svg>
