<?xml version="1.0" encoding="UTF-8" standalone="no"?>
<!DOCTYPE svg PUBLIC "-//W3C//DTD SVG 1.1//EN"
 "http://www.w3.org/Graphics/SVG/1.1/DTD/svg11.dtd">
<!-- Generated by graphviz version 2.40.1 (20161225.0304)
 -->
<!-- Title: src/nuspell/aff_data.cxx Pages: 1 -->
<svg width="1525pt" height="274pt"
 viewBox="0.00 0.00 1525.45 274.00" xmlns="http://www.w3.org/2000/svg" xmlns:xlink="http://www.w3.org/1999/xlink">
<g id="graph0" class="graph" transform="scale(1 1) rotate(0) translate(4 270)">
<title>src/nuspell/aff_data.cxx</title>
<polygon fill="#ffffff" stroke="transparent" points="-4,4 -4,-270 1521.451,-270 1521.451,4 -4,4"/>
<!-- Node0 -->
<g id="node1" class="node">
<title>Node0</title>
<polygon fill="#bfbfbf" stroke="#000000" points="671.951,-246.5 671.951,-265.5 792.951,-265.5 792.951,-246.5 671.951,-246.5"/>
<text text-anchor="middle" x="732.451" y="-253.5" font-family="Helvetica,sans-Serif" font-size="10.00" fill="#000000">src/nuspell/aff_data.cxx</text>
</g>
<!-- Node1 -->
<g id="node2" class="node">
<title>Node1</title>
<g id="a_node2"><a xlink:href="aff__data_8hxx.html" target="_top" xlink:title="Affixing data structures. ">
<polygon fill="#ffffff" stroke="#000000" points="577.951,-185 577.951,-204 648.951,-204 648.951,-185 577.951,-185"/>
<text text-anchor="middle" x="613.451" y="-192" font-family="Helvetica,sans-Serif" font-size="10.00" fill="#000000">aff_data.hxx</text>
</a>
</g>
</g>
<!-- Node0&#45;&gt;Node1 -->
<g id="edge1" class="edge">
<title>Node0&#45;&gt;Node1</title>
<path fill="none" stroke="#191970" d="M713.8572,-246.3906C694.2956,-236.2811 663.3009,-220.2628 640.9201,-208.6962"/>
<polygon fill="#191970" stroke="#191970" points="642.4048,-205.5238 631.9141,-204.0419 639.191,-211.7425 642.4048,-205.5238"/>
</g>
<!-- Node4 -->
<g id="node5" class="node">
<title>Node4</title>
<polygon fill="#ffffff" stroke="#bfbfbf" points="873.951,-123.5 873.951,-142.5 956.951,-142.5 956.951,-123.5 873.951,-123.5"/>
<text text-anchor="middle" x="915.451" y="-130.5" font-family="Helvetica,sans-Serif" font-size="10.00" fill="#000000">unordered_map</text>
</g>
<!-- Node0&#45;&gt;Node4 -->
<g id="edge40" class="edge">
<title>Node0&#45;&gt;Node4</title>
<path fill="none" stroke="#191970" d="M721.7092,-246.408C705.7073,-230.9689 679.2448,-200.1957 696.451,-179 699.1238,-175.7074 800.0867,-155.4961 863.9785,-142.9843"/>
<polygon fill="#191970" stroke="#191970" points="864.751,-146.3996 873.8938,-141.0461 863.408,-139.5297 864.751,-146.3996"/>
</g>
<!-- Node7 -->
<g id="node8" class="node">
<title>Node7</title>
<g id="a_node8"><a xlink:href="locale__utils_8hxx.html" target="_top" xlink:title="Encoding transformations. ">
<polygon fill="#ffffff" stroke="#000000" points="173.451,-123.5 173.451,-142.5 257.451,-142.5 257.451,-123.5 173.451,-123.5"/>
<text text-anchor="middle" x="215.451" y="-130.5" font-family="Helvetica,sans-Serif" font-size="10.00" fill="#000000">locale_utils.hxx</text>
</a>
</g>
</g>
<!-- Node0&#45;&gt;Node7 -->
<g id="edge28" class="edge">
<title>Node0&#45;&gt;Node7</title>
<path fill="none" stroke="#191970" d="M671.8815,-250.9234C608.4588,-244.7156 506.3294,-232.1886 420.451,-210 356.6559,-193.5171 285.2816,-164.0606 245.8297,-146.7514"/>
<polygon fill="#191970" stroke="#191970" points="247.0724,-143.474 236.5114,-142.6278 244.2396,-149.8752 247.0724,-143.474"/>
</g>
<!-- Node14 -->
<g id="node15" class="node">
<title>Node14</title>
<polygon fill="#ffffff" stroke="#bfbfbf" points="425.451,-62 425.451,-81 481.451,-81 481.451,-62 425.451,-62"/>
<text text-anchor="middle" x="453.451" y="-69" font-family="Helvetica,sans-Serif" font-size="10.00" fill="#000000">algorithm</text>
</g>
<!-- Node0&#45;&gt;Node14 -->
<g id="edge36" class="edge">
<title>Node0&#45;&gt;Node14</title>
<path fill="none" stroke="#191970" d="M671.9378,-247.7994C639.5779,-241.3111 600.1856,-229.8876 569.451,-210 520.715,-178.4641 481.8174,-120.1365 464.0056,-90.2388"/>
<polygon fill="#191970" stroke="#191970" points="466.8423,-88.1545 458.7897,-81.2693 460.7911,-91.6734 466.8423,-88.1545"/>
</g>
<!-- Node22 -->
<g id="node23" class="node">
<title>Node22</title>
<g id="a_node23"><a xlink:href="string__utils_8hxx.html" target="_top" xlink:title="String algorithms. ">
<polygon fill="#ffffff" stroke="#000000" points="355.951,-123.5 355.951,-142.5 438.951,-142.5 438.951,-123.5 355.951,-123.5"/>
<text text-anchor="middle" x="397.451" y="-130.5" font-family="Helvetica,sans-Serif" font-size="10.00" fill="#000000">string_utils.hxx</text>
</a>
</g>
</g>
<!-- Node0&#45;&gt;Node22 -->
<g id="edge29" class="edge">
<title>Node0&#45;&gt;Node22</title>
<path fill="none" stroke="#191970" d="M671.6697,-251.1855C601.4106,-244.7153 490.8868,-231.4776 455.451,-210 432.627,-196.1664 415.7322,-169.6887 406.2363,-151.6874"/>
<polygon fill="#191970" stroke="#191970" points="409.339,-150.0667 401.7312,-142.6929 403.0802,-153.2015 409.339,-150.0667"/>
</g>
<!-- Node24 -->
<g id="node25" class="node">
<title>Node24</title>
<polygon fill="#ffffff" stroke="#bfbfbf" points="705.451,-185 705.451,-204 759.451,-204 759.451,-185 705.451,-185"/>
<text text-anchor="middle" x="732.451" y="-192" font-family="Helvetica,sans-Serif" font-size="10.00" fill="#000000">iostream</text>
</g>
<!-- Node0&#45;&gt;Node24 -->
<g id="edge37" class="edge">
<title>Node0&#45;&gt;Node24</title>
<path fill="none" stroke="#191970" d="M732.451,-246.3906C732.451,-237.8657 732.451,-225.1392 732.451,-214.4235"/>
<polygon fill="#191970" stroke="#191970" points="735.9511,-214.2448 732.451,-204.2449 728.9511,-214.2449 735.9511,-214.2448"/>
</g>
<!-- Node25 -->
<g id="node26" class="node">
<title>Node25</title>
<polygon fill="#ffffff" stroke="#bfbfbf" points="777.951,-185 777.951,-204 818.951,-204 818.951,-185 777.951,-185"/>
<text text-anchor="middle" x="798.451" y="-192" font-family="Helvetica,sans-Serif" font-size="10.00" fill="#000000">regex</text>
</g>
<!-- Node0&#45;&gt;Node25 -->
<g id="edge38" class="edge">
<title>Node0&#45;&gt;Node25</title>
<path fill="none" stroke="#191970" d="M742.7635,-246.3906C752.8752,-236.9683 768.4951,-222.4134 780.6217,-211.1137"/>
<polygon fill="#191970" stroke="#191970" points="783.063,-213.6228 787.9931,-204.2449 778.2909,-208.5015 783.063,-213.6228"/>
</g>
<!-- Node26 -->
<g id="node27" class="node">
<title>Node26</title>
<polygon fill="#ffffff" stroke="#bfbfbf" points="837.451,-185 837.451,-204 889.451,-204 889.451,-185 837.451,-185"/>
<text text-anchor="middle" x="863.451" y="-192" font-family="Helvetica,sans-Serif" font-size="10.00" fill="#000000">sstream</text>
</g>
<!-- Node0&#45;&gt;Node26 -->
<g id="edge39" class="edge">
<title>Node0&#45;&gt;Node26</title>
<path fill="none" stroke="#191970" d="M752.9197,-246.3906C774.6461,-236.1908 809.1845,-219.9763 833.8695,-208.3875"/>
<polygon fill="#191970" stroke="#191970" points="835.5612,-211.4598 843.1259,-204.0419 832.5864,-205.1234 835.5612,-211.4598"/>
</g>
<!-- Node27 -->
<g id="node28" class="node">
<title>Node27</title>
<polygon fill="#ffffff" stroke="#bfbfbf" points="907.451,-179.5 907.451,-209.5 1017.451,-209.5 1017.451,-179.5 907.451,-179.5"/>
<text text-anchor="start" x="915.451" y="-197.5" font-family="Helvetica,sans-Serif" font-size="10.00" fill="#000000">boost/algorithm/string</text>
<text text-anchor="middle" x="962.451" y="-186.5" font-family="Helvetica,sans-Serif" font-size="10.00" fill="#000000">/case_conv.hpp</text>
</g>
<!-- Node0&#45;&gt;Node27 -->
<g id="edge41" class="edge">
<title>Node0&#45;&gt;Node27</title>
<path fill="none" stroke="#191970" d="M768.1361,-246.4581C802.5958,-237.2439 855.5807,-223.0762 897.5232,-211.8611"/>
<polygon fill="#191970" stroke="#191970" points="898.626,-215.1893 907.3825,-209.2248 896.8178,-208.4268 898.626,-215.1893"/>
</g>
<!-- Node28 -->
<g id="node29" class="node">
<title>Node28</title>
<polygon fill="#ffffff" stroke="#bfbfbf" points="1035.451,-185 1035.451,-204 1123.451,-204 1123.451,-185 1035.451,-185"/>
<text text-anchor="middle" x="1079.451" y="-192" font-family="Helvetica,sans-Serif" font-size="10.00" fill="#000000">boost/locale.hpp</text>
</g>
<!-- Node0&#45;&gt;Node28 -->
<g id="edge42" class="edge">
<title>Node0&#45;&gt;Node28</title>
<path fill="none" stroke="#191970" d="M793.1288,-248.8365C852.8783,-241.2367 946.5368,-227.8587 1026.451,-210 1030.6612,-209.0591 1035.0289,-207.9701 1039.3686,-206.8141"/>
<polygon fill="#191970" stroke="#191970" points="1040.6619,-210.0872 1049.3567,-204.0332 1038.7843,-203.3437 1040.6619,-210.0872"/>
</g>
<!-- Node29 -->
<g id="node30" class="node">
<title>Node29</title>
<polygon fill="#ffffff" stroke="#bfbfbf" points="1141.951,-185 1141.951,-204 1268.951,-204 1268.951,-185 1141.951,-185"/>
<text text-anchor="middle" x="1205.451" y="-192" font-family="Helvetica,sans-Serif" font-size="10.00" fill="#000000">boost/range/adaptors.hpp</text>
</g>
<!-- Node0&#45;&gt;Node29 -->
<g id="edge43" class="edge">
<title>Node0&#45;&gt;Node29</title>
<path fill="none" stroke="#191970" d="M793.0091,-250.8366C871.5742,-243.7261 1012.756,-229.5447 1132.451,-210 1139.3239,-208.8777 1146.5288,-207.5434 1153.6233,-206.1356"/>
<polygon fill="#191970" stroke="#191970" points="1154.7912,-209.4693 1163.8871,-204.0365 1153.3886,-202.6113 1154.7912,-209.4693"/>
</g>
<!-- Node2 -->
<g id="node3" class="node">
<title>Node2</title>
<polygon fill="#ffffff" stroke="#bfbfbf" points="771.951,-123.5 771.951,-142.5 816.951,-142.5 816.951,-123.5 771.951,-123.5"/>
<text text-anchor="middle" x="794.451" y="-130.5" font-family="Helvetica,sans-Serif" font-size="10.00" fill="#000000">iosfwd</text>
</g>
<!-- Node1&#45;&gt;Node2 -->
<g id="edge2" class="edge">
<title>Node1&#45;&gt;Node2</title>
<path fill="none" stroke="#191970" d="M641.7322,-184.8906C674.4003,-173.7907 728.0326,-155.5676 762.269,-143.9347"/>
<polygon fill="#191970" stroke="#191970" points="763.4595,-147.2268 771.8019,-140.6957 761.2075,-140.599 763.4595,-147.2268"/>
</g>
<!-- Node3 -->
<g id="node4" class="node">
<title>Node3</title>
<polygon fill="#ffffff" stroke="#bfbfbf" points="488.951,-.5 488.951,-19.5 529.951,-19.5 529.951,-.5 488.951,-.5"/>
<text text-anchor="middle" x="509.451" y="-7.5" font-family="Helvetica,sans-Serif" font-size="10.00" fill="#000000">string</text>
</g>
<!-- Node1&#45;&gt;Node3 -->
<g id="edge3" class="edge">
<title>Node1&#45;&gt;Node3</title>
<path fill="none" stroke="#191970" d="M603.5534,-184.7944C585.9963,-167.0209 549.3774,-127.3498 529.451,-87 520.4452,-68.7638 515.1824,-46.0293 512.3364,-30.0057"/>
<polygon fill="#191970" stroke="#191970" points="515.7195,-28.9997 510.6722,-19.6844 508.8087,-30.114 515.7195,-28.9997"/>
</g>
<!-- Node1&#45;&gt;Node4 -->
<g id="edge4" class="edge">
<title>Node1&#45;&gt;Node4</title>
<path fill="none" stroke="#191970" d="M642.1053,-184.9705C649.0473,-182.8416 656.4781,-180.7106 663.451,-179 673.1253,-176.6266 792.7193,-155.0389 863.6164,-142.2978"/>
<polygon fill="#191970" stroke="#191970" points="864.4808,-145.6986 873.7044,-140.4855 863.2431,-138.8089 864.4808,-145.6986"/>
</g>
<!-- Node5 -->
<g id="node6" class="node">
<title>Node5</title>
<polygon fill="#ffffff" stroke="#bfbfbf" points="1477.451,-62 1477.451,-81 1517.451,-81 1517.451,-62 1477.451,-62"/>
<text text-anchor="middle" x="1497.451" y="-69" font-family="Helvetica,sans-Serif" font-size="10.00" fill="#000000">utility</text>
</g>
<!-- Node1&#45;&gt;Node5 -->
<g id="edge5" class="edge">
<title>Node1&#45;&gt;Node5</title>
<path fill="none" stroke="#191970" d="M649.2736,-186.9153C701.0613,-175.7671 794.1738,-154.9852 826.451,-143 844.7123,-136.2192 846.6602,-128.1346 865.451,-123 1124.4335,-52.2323 1210.0793,-159.9665 1468.451,-87 1470.1128,-86.5307 1471.7869,-85.9558 1473.4471,-85.307"/>
<polygon fill="#191970" stroke="#191970" points="1475.0564,-88.418 1482.6216,-81.0006 1472.082,-82.0813 1475.0564,-88.418"/>
</g>
<!-- Node6 -->
<g id="node7" class="node">
<title>Node6</title>
<polygon fill="#ffffff" stroke="#bfbfbf" points="629.451,-.5 629.451,-19.5 673.451,-19.5 673.451,-.5 629.451,-.5"/>
<text text-anchor="middle" x="651.451" y="-7.5" font-family="Helvetica,sans-Serif" font-size="10.00" fill="#000000">vector</text>
</g>
<!-- Node1&#45;&gt;Node6 -->
<g id="edge6" class="edge">
<title>Node1&#45;&gt;Node6</title>
<path fill="none" stroke="#191970" d="M615.4405,-184.8402C621.4299,-155.76 639.3742,-68.636 647.4431,-29.459"/>
<polygon fill="#191970" stroke="#191970" points="650.8918,-30.0646 649.4811,-19.5641 644.0357,-28.6525 650.8918,-30.0646"/>
</g>
<!-- Node1&#45;&gt;Node7 -->
<g id="edge7" class="edge">
<title>Node1&#45;&gt;Node7</title>
<path fill="none" stroke="#191970" d="M577.7808,-188.9882C507.3358,-178.1028 350.0761,-153.8026 267.8393,-141.0952"/>
<polygon fill="#191970" stroke="#191970" points="268.1292,-137.5985 257.7119,-139.5303 267.0601,-144.5164 268.1292,-137.5985"/>
</g>
<!-- Node11 -->
<g id="node12" class="node">
<title>Node11</title>
<g id="a_node12"><a xlink:href="structures_8hxx.html" target="_top" xlink:title="Data structures. ">
<polygon fill="#ffffff" stroke="#000000" points="674.951,-123.5 674.951,-142.5 753.951,-142.5 753.951,-123.5 674.951,-123.5"/>
<text text-anchor="middle" x="714.451" y="-130.5" font-family="Helvetica,sans-Serif" font-size="10.00" fill="#000000">structures.hxx</text>
</a>
</g>
</g>
<!-- Node1&#45;&gt;Node11 -->
<g id="edge12" class="edge">
<title>Node1&#45;&gt;Node11</title>
<path fill="none" stroke="#191970" d="M629.2322,-184.8906C645.5384,-174.9616 671.2049,-159.333 690.1123,-147.8201"/>
<polygon fill="#191970" stroke="#191970" points="692.0596,-150.7322 698.7805,-142.5419 688.419,-144.7533 692.0596,-150.7322"/>
</g>
<!-- Node7&#45;&gt;Node3 -->
<g id="edge9" class="edge">
<title>Node7&#45;&gt;Node3</title>
<path fill="none" stroke="#191970" d="M173.3379,-131.0242C100.0788,-126.1502 -38.5459,-109.7214 10.451,-56 42.0888,-21.3115 375.1597,-12.4163 478.8287,-10.4796"/>
<polygon fill="#191970" stroke="#191970" points="479.0135,-13.977 488.9495,-10.2993 478.8888,-6.9781 479.0135,-13.977"/>
</g>
<!-- Node8 -->
<g id="node9" class="node">
<title>Node8</title>
<polygon fill="#ffffff" stroke="#bfbfbf" points="229.451,-62 229.451,-81 271.451,-81 271.451,-62 229.451,-62"/>
<text text-anchor="middle" x="250.451" y="-69" font-family="Helvetica,sans-Serif" font-size="10.00" fill="#000000">locale</text>
</g>
<!-- Node7&#45;&gt;Node8 -->
<g id="edge8" class="edge">
<title>Node7&#45;&gt;Node8</title>
<path fill="none" stroke="#191970" d="M220.9197,-123.3906C225.9756,-114.5068 233.6282,-101.0601 239.8764,-90.0811"/>
<polygon fill="#191970" stroke="#191970" points="243.0008,-91.6672 244.9051,-81.2449 236.917,-88.2048 243.0008,-91.6672"/>
</g>
<!-- Node9 -->
<g id="node10" class="node">
<title>Node9</title>
<polygon fill="#ffffff" stroke="#bfbfbf" points="149.451,-62 149.451,-81 211.451,-81 211.451,-62 149.451,-62"/>
<text text-anchor="middle" x="180.451" y="-69" font-family="Helvetica,sans-Serif" font-size="10.00" fill="#000000">type_traits</text>
</g>
<!-- Node7&#45;&gt;Node9 -->
<g id="edge10" class="edge">
<title>Node7&#45;&gt;Node9</title>
<path fill="none" stroke="#191970" d="M209.9822,-123.3906C204.9263,-114.5068 197.2737,-101.0601 191.0255,-90.0811"/>
<polygon fill="#191970" stroke="#191970" points="193.9849,-88.2048 185.9968,-81.2449 187.9011,-91.6672 193.9849,-88.2048"/>
</g>
<!-- Node10 -->
<g id="node11" class="node">
<title>Node10</title>
<polygon fill="#ffffff" stroke="#bfbfbf" points="19.951,-56.5 19.951,-86.5 130.951,-86.5 130.951,-56.5 19.951,-56.5"/>
<text text-anchor="start" x="27.951" y="-74.5" font-family="Helvetica,sans-Serif" font-size="10.00" fill="#000000">boost/locale/encoding</text>
<text text-anchor="middle" x="75.451" y="-63.5" font-family="Helvetica,sans-Serif" font-size="10.00" fill="#000000">_utf.hpp</text>
</g>
<!-- Node7&#45;&gt;Node10 -->
<g id="edge11" class="edge">
<title>Node7&#45;&gt;Node10</title>
<path fill="none" stroke="#191970" d="M193.576,-123.3906C173.6637,-114.6435 143.6818,-101.4728 118.9071,-90.5897"/>
<polygon fill="#191970" stroke="#191970" points="120.2621,-87.3621 109.6988,-86.5446 117.4467,-93.771 120.2621,-87.3621"/>
</g>
<!-- Node11&#45;&gt;Node3 -->
<g id="edge21" class="edge">
<title>Node11&#45;&gt;Node3</title>
<path fill="none" stroke="#191970" d="M700.2588,-123.4047C678.0185,-108.4801 633.46,-79.0277 594.451,-56 575.7287,-44.9479 554.1838,-33.2996 537.4696,-24.4899"/>
<polygon fill="#191970" stroke="#191970" points="538.7269,-21.1973 528.2446,-19.6568 535.4783,-27.3979 538.7269,-21.1973"/>
</g>
<!-- Node11&#45;&gt;Node5 -->
<g id="edge22" class="edge">
<title>Node11&#45;&gt;Node5</title>
<path fill="none" stroke="#191970" d="M754.2136,-124.3646C757.3301,-123.8471 760.4363,-123.3824 763.451,-123 919.0748,-103.2603 1317.3027,-128.9838 1468.451,-87 1470.1149,-86.5378 1471.7904,-85.9685 1473.4517,-85.3237"/>
<polygon fill="#191970" stroke="#191970" points="1475.0563,-88.4371 1482.6291,-81.0275 1472.0885,-82.0974 1475.0563,-88.4371"/>
</g>
<!-- Node11&#45;&gt;Node6 -->
<g id="edge23" class="edge">
<title>Node11&#45;&gt;Node6</title>
<path fill="none" stroke="#191970" d="M709.5074,-123.3484C699.0646,-102.9601 674.6039,-55.2033 661.0013,-28.6459"/>
<polygon fill="#191970" stroke="#191970" points="664.0455,-26.9116 656.3715,-19.6068 657.8151,-30.1028 664.0455,-26.9116"/>
</g>
<!-- Node12 -->
<g id="node13" class="node">
<title>Node12</title>
<g id="a_node13"><a xlink:href="condition_8hxx.html" target="_top" xlink:title="Condition matching. ">
<polygon fill="#ffffff" stroke="#000000" points="1273.451,-62 1273.451,-81 1347.451,-81 1347.451,-62 1273.451,-62"/>
<text text-anchor="middle" x="1310.451" y="-69" font-family="Helvetica,sans-Serif" font-size="10.00" fill="#000000">condition.hxx</text>
</a>
</g>
</g>
<!-- Node11&#45;&gt;Node12 -->
<g id="edge13" class="edge">
<title>Node11&#45;&gt;Node12</title>
<path fill="none" stroke="#191970" d="M753.9559,-124.4802C757.1598,-123.9289 760.3544,-123.4254 763.451,-123 984.6145,-92.6166 1045.5881,-130.9945 1264.451,-87 1268.3367,-86.2189 1272.3472,-85.2017 1276.3056,-84.0614"/>
<polygon fill="#191970" stroke="#191970" points="1277.4442,-87.3725 1285.9368,-81.038 1275.3476,-80.6938 1277.4442,-87.3725"/>
</g>
<!-- Node11&#45;&gt;Node14 -->
<g id="edge17" class="edge">
<title>Node11&#45;&gt;Node14</title>
<path fill="none" stroke="#191970" d="M674.8107,-123.6595C625.1511,-111.9581 540.6441,-92.0455 491.6636,-80.5041"/>
<polygon fill="#191970" stroke="#191970" points="492.3124,-77.0612 481.7762,-78.1743 490.7069,-83.8746 492.3124,-77.0612"/>
</g>
<!-- Node15 -->
<g id="node16" class="node">
<title>Node15</title>
<polygon fill="#ffffff" stroke="#bfbfbf" points="717.451,-62 717.451,-81 761.451,-81 761.451,-62 717.451,-62"/>
<text text-anchor="middle" x="739.451" y="-69" font-family="Helvetica,sans-Serif" font-size="10.00" fill="#000000">cmath</text>
</g>
<!-- Node11&#45;&gt;Node15 -->
<g id="edge18" class="edge">
<title>Node11&#45;&gt;Node15</title>
<path fill="none" stroke="#191970" d="M718.3572,-123.3906C721.8956,-114.6862 727.2146,-101.6015 731.626,-90.7494"/>
<polygon fill="#191970" stroke="#191970" points="734.9661,-91.8268 735.4896,-81.2449 728.4814,-89.1907 734.9661,-91.8268"/>
</g>
<!-- Node16 -->
<g id="node17" class="node">
<title>Node16</title>
<polygon fill="#ffffff" stroke="#bfbfbf" points="537.951,-62 537.951,-81 584.951,-81 584.951,-62 537.951,-62"/>
<text text-anchor="middle" x="561.451" y="-69" font-family="Helvetica,sans-Serif" font-size="10.00" fill="#000000">iterator</text>
</g>
<!-- Node11&#45;&gt;Node16 -->
<g id="edge19" class="edge">
<title>Node11&#45;&gt;Node16</title>
<path fill="none" stroke="#191970" d="M690.5447,-123.3906C664.7204,-113.0103 623.3983,-96.4004 594.4804,-84.7766"/>
<polygon fill="#191970" stroke="#191970" points="595.7732,-81.5241 585.1893,-81.0419 593.1624,-88.019 595.7732,-81.5241"/>
</g>
<!-- Node17 -->
<g id="node18" class="node">
<title>Node17</title>
<polygon fill="#ffffff" stroke="#bfbfbf" points="779.951,-62 779.951,-81 838.951,-81 838.951,-62 779.951,-62"/>
<text text-anchor="middle" x="809.451" y="-69" font-family="Helvetica,sans-Serif" font-size="10.00" fill="#000000">stdexcept</text>
</g>
<!-- Node11&#45;&gt;Node17 -->
<g id="edge20" class="edge">
<title>Node11&#45;&gt;Node17</title>
<path fill="none" stroke="#191970" d="M729.2947,-123.3906C744.4928,-113.5519 768.3358,-98.1167 786.0716,-86.6351"/>
<polygon fill="#191970" stroke="#191970" points="788.2189,-89.4144 794.7114,-81.0419 784.4149,-83.5382 788.2189,-89.4144"/>
</g>
<!-- Node18 -->
<g id="node19" class="node">
<title>Node18</title>
<polygon fill="#ffffff" stroke="#bfbfbf" points="857.451,-56.5 857.451,-86.5 967.451,-86.5 967.451,-56.5 857.451,-56.5"/>
<text text-anchor="start" x="865.451" y="-74.5" font-family="Helvetica,sans-Serif" font-size="10.00" fill="#000000">boost/container/small</text>
<text text-anchor="middle" x="912.451" y="-63.5" font-family="Helvetica,sans-Serif" font-size="10.00" fill="#000000">_vector.hpp</text>
</g>
<!-- Node11&#45;&gt;Node18 -->
<g id="edge24" class="edge">
<title>Node11&#45;&gt;Node18</title>
<path fill="none" stroke="#191970" d="M745.3885,-123.3906C774.4184,-114.3737 818.5817,-100.6563 854.2113,-89.5896"/>
<polygon fill="#191970" stroke="#191970" points="855.503,-92.8534 864.0147,-86.5446 853.4265,-86.1684 855.503,-92.8534"/>
</g>
<!-- Node19 -->
<g id="node20" class="node">
<title>Node19</title>
<polygon fill="#ffffff" stroke="#bfbfbf" points="985.451,-62 985.451,-81 1135.451,-81 1135.451,-62 985.451,-62"/>
<text text-anchor="middle" x="1060.451" y="-69" font-family="Helvetica,sans-Serif" font-size="10.00" fill="#000000">boost/multi_index/member.hpp</text>
</g>
<!-- Node11&#45;&gt;Node19 -->
<g id="edge25" class="edge">
<title>Node11&#45;&gt;Node19</title>
<path fill="none" stroke="#191970" d="M754.0088,-124.8072C757.2008,-124.1826 760.3783,-123.573 763.451,-123 857.833,-105.3985 881.9073,-103.7114 976.451,-87 983.8632,-85.6898 991.6384,-84.2899 999.3411,-82.8872"/>
<polygon fill="#191970" stroke="#191970" points="1000.1821,-86.2915 1009.3889,-81.0491 998.9223,-79.4058 1000.1821,-86.2915"/>
</g>
<!-- Node20 -->
<g id="node21" class="node">
<title>Node20</title>
<polygon fill="#ffffff" stroke="#bfbfbf" points="1153.951,-56.5 1153.951,-86.5 1254.951,-86.5 1254.951,-56.5 1153.951,-56.5"/>
<text text-anchor="start" x="1161.951" y="-74.5" font-family="Helvetica,sans-Serif" font-size="10.00" fill="#000000">boost/range/iterator</text>
<text text-anchor="middle" x="1204.451" y="-63.5" font-family="Helvetica,sans-Serif" font-size="10.00" fill="#000000">_range_core.hpp</text>
</g>
<!-- Node11&#45;&gt;Node20 -->
<g id="edge26" class="edge">
<title>Node11&#45;&gt;Node20</title>
<path fill="none" stroke="#191970" d="M753.9669,-124.5572C757.1683,-123.9887 760.3594,-123.4602 763.451,-123 928.4814,-98.4356 975.1499,-115.6784 1143.8697,-86.9061"/>
<polygon fill="#191970" stroke="#191970" points="1144.5805,-90.3352 1153.8354,-85.1778 1143.3844,-83.4381 1144.5805,-90.3352"/>
</g>
<!-- Node21 -->
<g id="node22" class="node">
<title>Node21</title>
<polygon fill="#ffffff" stroke="#bfbfbf" points="1365.451,-56.5 1365.451,-86.5 1459.451,-86.5 1459.451,-56.5 1365.451,-56.5"/>
<text text-anchor="start" x="1373.451" y="-74.5" font-family="Helvetica,sans-Serif" font-size="10.00" fill="#000000">boost/utility/string</text>
<text text-anchor="middle" x="1412.451" y="-63.5" font-family="Helvetica,sans-Serif" font-size="10.00" fill="#000000">_view.hpp</text>
</g>
<!-- Node11&#45;&gt;Node21 -->
<g id="edge27" class="edge">
<title>Node11&#45;&gt;Node21</title>
<path fill="none" stroke="#191970" d="M754.2178,-124.397C757.3333,-123.8721 760.4382,-123.3969 763.451,-123 1021.9068,-88.9537 1094.1827,-129.4026 1355.0914,-86.9902"/>
<polygon fill="#191970" stroke="#191970" points="1355.9544,-90.3952 1365.2505,-85.3127 1354.8139,-83.4887 1355.9544,-90.3952"/>
</g>
<!-- Node12&#45;&gt;Node3 -->
<g id="edge14" class="edge">
<title>Node12&#45;&gt;Node3</title>
<path fill="none" stroke="#191970" d="M1285.9515,-61.8872C1279.0938,-59.5711 1271.5674,-57.3718 1264.451,-56 982.9637,-1.7403 906.3598,-40.864 620.451,-20 593.4193,-18.0274 562.7359,-15.2195 540.4906,-13.081"/>
<polygon fill="#191970" stroke="#191970" points="540.5924,-9.5745 530.3009,-12.0915 539.9158,-16.5417 540.5924,-9.5745"/>
</g>
<!-- Node12&#45;&gt;Node6 -->
<g id="edge16" class="edge">
<title>Node12&#45;&gt;Node6</title>
<path fill="none" stroke="#191970" d="M1285.9338,-61.9768C1279.076,-59.6611 1271.554,-57.4395 1264.451,-56 1151.5843,-33.1262 793.3657,-16.1271 683.6817,-11.3538"/>
<polygon fill="#191970" stroke="#191970" points="683.7109,-7.8519 673.5694,-10.9178 683.4093,-14.8454 683.7109,-7.8519"/>
</g>
<!-- Node13 -->
<g id="node14" class="node">
<title>Node13</title>
<polygon fill="#ffffff" stroke="#bfbfbf" points="1291.451,-.5 1291.451,-19.5 1329.451,-19.5 1329.451,-.5 1291.451,-.5"/>
<text text-anchor="middle" x="1310.451" y="-7.5" font-family="Helvetica,sans-Serif" font-size="10.00" fill="#000000">tuple</text>
</g>
<!-- Node12&#45;&gt;Node13 -->
<g id="edge15" class="edge">
<title>Node12&#45;&gt;Node13</title>
<path fill="none" stroke="#191970" d="M1310.451,-61.8906C1310.451,-53.3657 1310.451,-40.6392 1310.451,-29.9235"/>
<polygon fill="#191970" stroke="#191970" points="1313.9511,-29.7448 1310.451,-19.7449 1306.9511,-29.7449 1313.9511,-29.7448"/>
</g>
<!-- Node22&#45;&gt;Node3 -->
<g id="edge34" class="edge">
<title>Node22&#45;&gt;Node3</title>
<path fill="none" stroke="#191970" d="M391.3511,-123.0151C382.6229,-107.3018 369.1213,-76.4862 383.451,-56 394.6703,-39.9604 445.489,-25.1502 479.061,-16.8713"/>
<polygon fill="#191970" stroke="#191970" points="479.9569,-20.2558 488.8633,-14.5176 478.3225,-13.4493 479.9569,-20.2558"/>
</g>
<!-- Node22&#45;&gt;Node6 -->
<g id="edge35" class="edge">
<title>Node22&#45;&gt;Node6</title>
<path fill="none" stroke="#191970" d="M396.7931,-123.3667C396.2466,-107.0114 397.7074,-73.8537 416.451,-56 445.2146,-28.602 561.9924,-16.475 619.3491,-12.0874"/>
<polygon fill="#191970" stroke="#191970" points="619.6151,-15.5774 629.3327,-11.3563 619.1038,-8.5961 619.6151,-15.5774"/>
</g>
<!-- Node22&#45;&gt;Node8 -->
<g id="edge32" class="edge">
<title>Node22&#45;&gt;Node8</title>
<path fill="none" stroke="#191970" d="M370.6414,-123.3504C346.7153,-114.5288 310.8638,-100.7916 280.451,-87 279.4632,-86.5521 278.4616,-86.088 277.4532,-85.6123"/>
<polygon fill="#191970" stroke="#191970" points="278.9065,-82.4266 268.3892,-81.1466 275.8127,-88.7059 278.9065,-82.4266"/>
</g>
<!-- Node22&#45;&gt;Node14 -->
<g id="edge30" class="edge">
<title>Node22&#45;&gt;Node14</title>
<path fill="none" stroke="#191970" d="M406.201,-123.3906C414.6172,-114.1478 427.5307,-99.966 437.7319,-88.7628"/>
<polygon fill="#191970" stroke="#191970" points="440.4327,-90.9953 444.5776,-81.2449 435.2569,-86.2824 440.4327,-90.9953"/>
</g>
<!-- Node22&#45;&gt;Node16 -->
<g id="edge31" class="edge">
<title>Node22&#45;&gt;Node16</title>
<path fill="none" stroke="#191970" d="M423.076,-123.3906C451.4462,-112.7518 497.2664,-95.5692 528.3375,-83.9175"/>
<polygon fill="#191970" stroke="#191970" points="529.7321,-87.1326 537.8665,-80.3442 527.2742,-80.5783 529.7321,-87.1326"/>
</g>
<!-- Node23 -->
<g id="node24" class="node">
<title>Node23</title>
<polygon fill="#ffffff" stroke="#bfbfbf" points="289.951,-62 289.951,-81 330.951,-81 330.951,-62 289.951,-62"/>
<text text-anchor="middle" x="310.451" y="-69" font-family="Helvetica,sans-Serif" font-size="10.00" fill="#000000">stack</text>
</g>
<!-- Node22&#45;&gt;Node23 -->
<g id="edge33" class="edge">
<title>Node22&#45;&gt;Node23</title>
<path fill="none" stroke="#191970" d="M383.8572,-123.3906C370.0666,-113.6421 348.5038,-98.3994 332.31,-86.9521"/>
<polygon fill="#191970" stroke="#191970" points="334.1354,-83.9563 323.9492,-81.0419 330.0947,-89.6723 334.1354,-83.9563"/>
</g>
</g>
</svg>
