<?xml version="1.0" encoding="UTF-8" standalone="no"?>
<!DOCTYPE svg PUBLIC "-//W3C//DTD SVG 1.1//EN"
 "http://www.w3.org/Graphics/SVG/1.1/DTD/svg11.dtd">
<!-- Generated by graphviz version 2.40.1 (20161225.0304)
 -->
<!-- Title: src/nuspell/aff_data.hxx Pages: 1 -->
<svg width="1088pt" height="151pt"
 viewBox="0.00 0.00 1088.00 151.00" xmlns="http://www.w3.org/2000/svg" xmlns:xlink="http://www.w3.org/1999/xlink">
<g id="graph0" class="graph" transform="scale(1 1) rotate(0) translate(4 147)">
<title>src/nuspell/aff_data.hxx</title>
<polygon fill="#ffffff" stroke="transparent" points="-4,4 -4,-147 1084,-147 1084,4 -4,4"/>
<!-- Node0 -->
<g id="node1" class="node">
<title>Node0</title>
<polygon fill="#bfbfbf" stroke="#000000" points="153,-123.5 153,-142.5 274,-142.5 274,-123.5 153,-123.5"/>
<text text-anchor="middle" x="213.5" y="-130.5" font-family="Helvetica,sans-Serif" font-size="10.00" fill="#000000">src/nuspell/aff_data.hxx</text>
</g>
<!-- Node1 -->
<g id="node2" class="node">
<title>Node1</title>
<polygon fill="#ffffff" stroke="#bfbfbf" points="0,-67.5 0,-86.5 45,-86.5 45,-67.5 0,-67.5"/>
<text text-anchor="middle" x="22.5" y="-74.5" font-family="Helvetica,sans-Serif" font-size="10.00" fill="#000000">iosfwd</text>
</g>
<!-- Node0&#45;&gt;Node1 -->
<g id="edge1" class="edge">
<title>Node0&#45;&gt;Node1</title>
<path fill="none" stroke="#191970" d="M179.63,-123.4267C149.4128,-114.8359 103.7256,-101.7251 54.9911,-87.1047"/>
<polygon fill="#191970" stroke="#191970" points="55.7917,-83.6907 45.2073,-84.1614 53.7751,-90.3939 55.7917,-83.6907"/>
</g>
<!-- Node2 -->
<g id="node3" class="node">
<title>Node2</title>
<polygon fill="#ffffff" stroke="#bfbfbf" points="112,-6 112,-25 153,-25 153,-6 112,-6"/>
<text text-anchor="middle" x="132.5" y="-13" font-family="Helvetica,sans-Serif" font-size="10.00" fill="#000000">string</text>
</g>
<!-- Node0&#45;&gt;Node2 -->
<g id="edge2" class="edge">
<title>Node0&#45;&gt;Node2</title>
<path fill="none" stroke="#191970" d="M206.8714,-123.3845C193.3437,-103.761 162.3683,-58.8274 144.9617,-33.5772"/>
<polygon fill="#191970" stroke="#191970" points="147.7775,-31.4951 139.2202,-25.2484 142.0142,-35.4682 147.7775,-31.4951"/>
</g>
<!-- Node3 -->
<g id="node4" class="node">
<title>Node3</title>
<polygon fill="#ffffff" stroke="#bfbfbf" points="552,-67.5 552,-86.5 635,-86.5 635,-67.5 552,-67.5"/>
<text text-anchor="middle" x="593.5" y="-74.5" font-family="Helvetica,sans-Serif" font-size="10.00" fill="#000000">unordered_map</text>
</g>
<!-- Node0&#45;&gt;Node3 -->
<g id="edge3" class="edge">
<title>Node0&#45;&gt;Node3</title>
<path fill="none" stroke="#191970" d="M274.1838,-125.6294C338.3716,-117.588 442.8243,-103.8063 541.9128,-87.2007"/>
<polygon fill="#191970" stroke="#191970" points="542.5145,-90.6487 551.7921,-85.5325 541.3489,-83.7464 542.5145,-90.6487"/>
</g>
<!-- Node4 -->
<g id="node5" class="node">
<title>Node4</title>
<polygon fill="#ffffff" stroke="#bfbfbf" points="171.5,-6 171.5,-25 211.5,-25 211.5,-6 171.5,-6"/>
<text text-anchor="middle" x="191.5" y="-13" font-family="Helvetica,sans-Serif" font-size="10.00" fill="#000000">utility</text>
</g>
<!-- Node0&#45;&gt;Node4 -->
<g id="edge4" class="edge">
<title>Node0&#45;&gt;Node4</title>
<path fill="none" stroke="#191970" d="M211.6996,-123.3845C208.106,-104.1913 199.9791,-60.786 195.2009,-35.2663"/>
<polygon fill="#191970" stroke="#191970" points="198.6059,-34.4334 193.3252,-25.2484 191.7254,-35.7217 198.6059,-34.4334"/>
</g>
<!-- Node5 -->
<g id="node6" class="node">
<title>Node5</title>
<polygon fill="#ffffff" stroke="#bfbfbf" points="229.5,-6 229.5,-25 273.5,-25 273.5,-6 229.5,-6"/>
<text text-anchor="middle" x="251.5" y="-13" font-family="Helvetica,sans-Serif" font-size="10.00" fill="#000000">vector</text>
</g>
<!-- Node0&#45;&gt;Node5 -->
<g id="edge5" class="edge">
<title>Node0&#45;&gt;Node5</title>
<path fill="none" stroke="#191970" d="M216.6097,-123.3845C222.8447,-104.1053 236.9804,-60.3963 245.2182,-34.9241"/>
<polygon fill="#191970" stroke="#191970" points="248.6003,-35.8402 248.3473,-25.2484 241.94,-33.6862 248.6003,-35.8402"/>
</g>
<!-- Node6 -->
<g id="node7" class="node">
<title>Node6</title>
<g id="a_node7"><a xlink:href="locale__utils_8hxx.html" target="_top" xlink:title="Encoding transformations. ">
<polygon fill="#ffffff" stroke="#000000" points="63.5,-67.5 63.5,-86.5 147.5,-86.5 147.5,-67.5 63.5,-67.5"/>
<text text-anchor="middle" x="105.5" y="-74.5" font-family="Helvetica,sans-Serif" font-size="10.00" fill="#000000">locale_utils.hxx</text>
</a>
</g>
</g>
<!-- Node0&#45;&gt;Node6 -->
<g id="edge6" class="edge">
<title>Node0&#45;&gt;Node6</title>
<path fill="none" stroke="#191970" d="M194.6878,-123.2455C177.6527,-114.4125 152.3425,-101.2887 133.0319,-91.2758"/>
<polygon fill="#191970" stroke="#191970" points="134.5853,-88.1388 124.0966,-86.6427 131.363,-94.353 134.5853,-88.1388"/>
</g>
<!-- Node8 -->
<g id="node9" class="node">
<title>Node8</title>
<g id="a_node9"><a xlink:href="structures_8hxx.html" target="_top" xlink:title="Data structures. ">
<polygon fill="#ffffff" stroke="#000000" points="455,-67.5 455,-86.5 534,-86.5 534,-67.5 455,-67.5"/>
<text text-anchor="middle" x="494.5" y="-74.5" font-family="Helvetica,sans-Serif" font-size="10.00" fill="#000000">structures.hxx</text>
</a>
</g>
</g>
<!-- Node0&#45;&gt;Node8 -->
<g id="edge9" class="edge">
<title>Node0&#45;&gt;Node8</title>
<path fill="none" stroke="#191970" d="M261.4863,-123.4369C312.6266,-113.2452 393.2042,-97.1871 444.9391,-86.8769"/>
<polygon fill="#191970" stroke="#191970" points="445.7612,-90.282 454.8843,-84.8949 444.3931,-83.417 445.7612,-90.282"/>
</g>
<!-- Node6&#45;&gt;Node2 -->
<g id="edge8" class="edge">
<title>Node6&#45;&gt;Node2</title>
<path fill="none" stroke="#191970" d="M109.7188,-67.3906C113.5796,-58.5965 119.4034,-45.3312 124.1961,-34.4145"/>
<polygon fill="#191970" stroke="#191970" points="127.4066,-35.8083 128.2218,-25.2449 120.9971,-32.9943 127.4066,-35.8083"/>
</g>
<!-- Node7 -->
<g id="node8" class="node">
<title>Node7</title>
<polygon fill="#ffffff" stroke="#bfbfbf" points="51.5,-6 51.5,-25 93.5,-25 93.5,-6 51.5,-6"/>
<text text-anchor="middle" x="72.5" y="-13" font-family="Helvetica,sans-Serif" font-size="10.00" fill="#000000">locale</text>
</g>
<!-- Node6&#45;&gt;Node7 -->
<g id="edge7" class="edge">
<title>Node6&#45;&gt;Node7</title>
<path fill="none" stroke="#191970" d="M100.3438,-67.3906C95.5768,-58.5068 88.3615,-45.0601 82.4703,-34.0811"/>
<polygon fill="#191970" stroke="#191970" points="85.5412,-32.4016 77.7289,-25.2449 79.3731,-35.7114 85.5412,-32.4016"/>
</g>
<!-- Node8&#45;&gt;Node2 -->
<g id="edge14" class="edge">
<title>Node8&#45;&gt;Node2</title>
<path fill="none" stroke="#191970" d="M454.9624,-75.8274C391.7616,-73.0064 264.6921,-63.4293 162.5,-31 161.0332,-30.5345 159.5518,-30.0015 158.0742,-29.4198"/>
<polygon fill="#191970" stroke="#191970" points="159.1227,-26.0506 148.5732,-25.0715 156.2096,-32.4157 159.1227,-26.0506"/>
</g>
<!-- Node8&#45;&gt;Node4 -->
<g id="edge15" class="edge">
<title>Node8&#45;&gt;Node4</title>
<path fill="none" stroke="#191970" d="M454.9522,-74.3954C400.7925,-69.9298 301.0801,-58.474 220.5,-31 219.2539,-30.5751 217.9969,-30.101 216.7411,-29.59"/>
<polygon fill="#191970" stroke="#191970" points="217.8767,-26.2558 207.3393,-25.1542 214.8898,-32.5866 217.8767,-26.2558"/>
</g>
<!-- Node8&#45;&gt;Node5 -->
<g id="edge16" class="edge">
<title>Node8&#45;&gt;Node5</title>
<path fill="none" stroke="#191970" d="M454.6116,-71.3977C411.3774,-64.6271 340.7575,-51.5199 282.5,-31 281.0811,-30.5002 279.6438,-29.9503 278.205,-29.3647"/>
<polygon fill="#191970" stroke="#191970" points="279.4253,-26.0751 268.872,-25.1374 276.5371,-32.4515 279.4253,-26.0751"/>
</g>
<!-- Node9 -->
<g id="node10" class="node">
<title>Node9</title>
<polygon fill="#ffffff" stroke="#bfbfbf" points="819.5,-6 819.5,-25 875.5,-25 875.5,-6 819.5,-6"/>
<text text-anchor="middle" x="847.5" y="-13" font-family="Helvetica,sans-Serif" font-size="10.00" fill="#000000">algorithm</text>
</g>
<!-- Node8&#45;&gt;Node9 -->
<g id="edge10" class="edge">
<title>Node8&#45;&gt;Node9</title>
<path fill="none" stroke="#191970" d="M534.0376,-68.6933C537.2342,-68.0943 540.4182,-67.5216 543.5,-67 661.5613,-47.017 694.9509,-62.4034 810.5,-31 812.9699,-30.3288 815.4931,-29.5308 818.0035,-28.6564"/>
<polygon fill="#191970" stroke="#191970" points="819.4049,-31.8674 827.4819,-25.0109 816.892,-25.334 819.4049,-31.8674"/>
</g>
<!-- Node10 -->
<g id="node11" class="node">
<title>Node10</title>
<polygon fill="#ffffff" stroke="#bfbfbf" points="893.5,-6 893.5,-25 937.5,-25 937.5,-6 893.5,-6"/>
<text text-anchor="middle" x="915.5" y="-13" font-family="Helvetica,sans-Serif" font-size="10.00" fill="#000000">cmath</text>
</g>
<!-- Node8&#45;&gt;Node10 -->
<g id="edge11" class="edge">
<title>Node8&#45;&gt;Node10</title>
<path fill="none" stroke="#191970" d="M534.0216,-68.5948C537.2218,-68.0178 540.411,-67.4771 543.5,-67 694.1117,-43.7364 738.2246,-73.7622 884.5,-31 886.2074,-30.5009 887.9338,-29.9103 889.6521,-29.2561"/>
<polygon fill="#191970" stroke="#191970" points="891.4985,-32.2657 899.2158,-25.0066 888.6561,-25.8688 891.4985,-32.2657"/>
</g>
<!-- Node11 -->
<g id="node12" class="node">
<title>Node11</title>
<polygon fill="#ffffff" stroke="#bfbfbf" points="956,-6 956,-25 1003,-25 1003,-6 956,-6"/>
<text text-anchor="middle" x="979.5" y="-13" font-family="Helvetica,sans-Serif" font-size="10.00" fill="#000000">iterator</text>
</g>
<!-- Node8&#45;&gt;Node11 -->
<g id="edge12" class="edge">
<title>Node8&#45;&gt;Node11</title>
<path fill="none" stroke="#191970" d="M534.0134,-68.5397C537.2154,-67.9751 540.4073,-67.4523 543.5,-67 721.4319,-40.9802 772.9107,-77.942 946.5,-31 948.4705,-30.4671 950.4683,-29.8225 952.4552,-29.1028"/>
<polygon fill="#191970" stroke="#191970" points="954.2545,-32.1436 962.1221,-25.0477 951.5466,-25.6885 954.2545,-32.1436"/>
</g>
<!-- Node12 -->
<g id="node13" class="node">
<title>Node12</title>
<polygon fill="#ffffff" stroke="#bfbfbf" points="1021,-6 1021,-25 1080,-25 1080,-6 1021,-6"/>
<text text-anchor="middle" x="1050.5" y="-13" font-family="Helvetica,sans-Serif" font-size="10.00" fill="#000000">stdexcept</text>
</g>
<!-- Node8&#45;&gt;Node12 -->
<g id="edge13" class="edge">
<title>Node8&#45;&gt;Node12</title>
<path fill="none" stroke="#191970" d="M534.0072,-68.4969C537.2106,-67.9419 540.4045,-67.4329 543.5,-67 750.5423,-38.0421 809.041,-79.0575 1012.5,-31 1015.2953,-30.3397 1018.1526,-29.5031 1020.9829,-28.5619"/>
<polygon fill="#191970" stroke="#191970" points="1022.2239,-31.8347 1030.3732,-25.0641 1019.7804,-25.275 1022.2239,-31.8347"/>
</g>
<!-- Node13 -->
<g id="node14" class="node">
<title>Node13</title>
<polygon fill="#ffffff" stroke="#bfbfbf" points="291.5,-.5 291.5,-30.5 401.5,-30.5 401.5,-.5 291.5,-.5"/>
<text text-anchor="start" x="299.5" y="-18.5" font-family="Helvetica,sans-Serif" font-size="10.00" fill="#000000">boost/container/small</text>
<text text-anchor="middle" x="346.5" y="-7.5" font-family="Helvetica,sans-Serif" font-size="10.00" fill="#000000">_vector.hpp</text>
</g>
<!-- Node8&#45;&gt;Node13 -->
<g id="edge17" class="edge">
<title>Node8&#45;&gt;Node13</title>
<path fill="none" stroke="#191970" d="M471.375,-67.3906C450.2322,-58.6049 418.3503,-45.3567 392.0936,-34.446"/>
<polygon fill="#191970" stroke="#191970" points="393.2824,-31.1499 382.7049,-30.5446 390.5963,-37.614 393.2824,-31.1499"/>
</g>
<!-- Node14 -->
<g id="node15" class="node">
<title>Node14</title>
<polygon fill="#ffffff" stroke="#bfbfbf" points="419.5,-6 419.5,-25 569.5,-25 569.5,-6 419.5,-6"/>
<text text-anchor="middle" x="494.5" y="-13" font-family="Helvetica,sans-Serif" font-size="10.00" fill="#000000">boost/multi_index/member.hpp</text>
</g>
<!-- Node8&#45;&gt;Node14 -->
<g id="edge18" class="edge">
<title>Node8&#45;&gt;Node14</title>
<path fill="none" stroke="#191970" d="M494.5,-67.3906C494.5,-58.8657 494.5,-46.1392 494.5,-35.4235"/>
<polygon fill="#191970" stroke="#191970" points="498.0001,-35.2448 494.5,-25.2449 491.0001,-35.2449 498.0001,-35.2448"/>
</g>
<!-- Node15 -->
<g id="node16" class="node">
<title>Node15</title>
<polygon fill="#ffffff" stroke="#bfbfbf" points="588,-.5 588,-30.5 689,-30.5 689,-.5 588,-.5"/>
<text text-anchor="start" x="596" y="-18.5" font-family="Helvetica,sans-Serif" font-size="10.00" fill="#000000">boost/range/iterator</text>
<text text-anchor="middle" x="638.5" y="-7.5" font-family="Helvetica,sans-Serif" font-size="10.00" fill="#000000">_range_core.hpp</text>
</g>
<!-- Node8&#45;&gt;Node15 -->
<g id="edge19" class="edge">
<title>Node8&#45;&gt;Node15</title>
<path fill="none" stroke="#191970" d="M517,-67.3906C537.4811,-58.6435 568.3197,-45.4728 593.8022,-34.5897"/>
<polygon fill="#191970" stroke="#191970" points="595.4519,-37.691 603.2736,-30.5446 592.7025,-31.2535 595.4519,-37.691"/>
</g>
<!-- Node16 -->
<g id="node17" class="node">
<title>Node16</title>
<polygon fill="#ffffff" stroke="#bfbfbf" points="707.5,-.5 707.5,-30.5 801.5,-30.5 801.5,-.5 707.5,-.5"/>
<text text-anchor="start" x="715.5" y="-18.5" font-family="Helvetica,sans-Serif" font-size="10.00" fill="#000000">boost/utility/string</text>
<text text-anchor="middle" x="754.5" y="-7.5" font-family="Helvetica,sans-Serif" font-size="10.00" fill="#000000">_view.hpp</text>
</g>
<!-- Node8&#45;&gt;Node16 -->
<g id="edge20" class="edge">
<title>Node8&#45;&gt;Node16</title>
<path fill="none" stroke="#191970" d="M534.1231,-68.658C573.2329,-60.2926 634.9605,-46.7385 697.4564,-31.1993"/>
<polygon fill="#191970" stroke="#191970" points="698.6384,-34.5115 707.4898,-28.6888 696.9393,-27.7209 698.6384,-34.5115"/>
</g>
</g>
</svg>
