<?xml version="1.0" encoding="UTF-8" standalone="no"?>
<!DOCTYPE svg PUBLIC "-//W3C//DTD SVG 1.1//EN"
 "http://www.w3.org/Graphics/SVG/1.1/DTD/svg11.dtd">
<!-- Generated by graphviz version 2.40.1 (20161225.0304)
 -->
<!-- Title: src/nuspell/aff_data.cxx Pages: 1 -->
<svg width="1623pt" height="274pt"
 viewBox="0.00 0.00 1623.22 274.00" xmlns="http://www.w3.org/2000/svg" xmlns:xlink="http://www.w3.org/1999/xlink">
<g id="graph0" class="graph" transform="scale(1 1) rotate(0) translate(4 270)">
<title>src/nuspell/aff_data.cxx</title>
<polygon fill="#ffffff" stroke="transparent" points="-4,4 -4,-270 1619.2151,-270 1619.2151,4 -4,4"/>
<!-- Node0 -->
<g id="node1" class="node">
<title>Node0</title>
<polygon fill="#bfbfbf" stroke="#000000" points="1018.2151,-246.5 1018.2151,-265.5 1139.2151,-265.5 1139.2151,-246.5 1018.2151,-246.5"/>
<text text-anchor="middle" x="1078.7151" y="-253.5" font-family="Helvetica,sans-Serif" font-size="10.00" fill="#000000">src/nuspell/aff_data.cxx</text>
</g>
<!-- Node1 -->
<g id="node2" class="node">
<title>Node1</title>
<g id="a_node2"><a xlink:href="aff__data_8hxx.html" target="_top" xlink:title="Affixing data structures. ">
<polygon fill="#ffffff" stroke="#000000" points="693.2151,-185 693.2151,-204 764.2151,-204 764.2151,-185 693.2151,-185"/>
<text text-anchor="middle" x="728.7151" y="-192" font-family="Helvetica,sans-Serif" font-size="10.00" fill="#000000">aff_data.hxx</text>
</a>
</g>
</g>
<!-- Node0&#45;&gt;Node1 -->
<g id="edge1" class="edge">
<title>Node0&#45;&gt;Node1</title>
<path fill="none" stroke="#191970" d="M1024.4116,-246.4581C955.8416,-234.4094 839.069,-213.8908 774.6958,-202.5795"/>
<polygon fill="#191970" stroke="#191970" points="774.9043,-199.0626 764.4494,-200.779 773.6928,-205.9569 774.9043,-199.0626"/>
</g>
<!-- Node4 -->
<g id="node5" class="node">
<title>Node4</title>
<polygon fill="#ffffff" stroke="#bfbfbf" points="105.2151,-123.5 105.2151,-142.5 188.2151,-142.5 188.2151,-123.5 105.2151,-123.5"/>
<text text-anchor="middle" x="146.7151" y="-130.5" font-family="Helvetica,sans-Serif" font-size="10.00" fill="#000000">unordered_map</text>
</g>
<!-- Node0&#45;&gt;Node4 -->
<g id="edge38" class="edge">
<title>Node0&#45;&gt;Node4</title>
<path fill="none" stroke="#191970" d="M1018.0537,-249.8985C876.216,-235.2725 511.782,-195.6109 198.6056,-143.2492"/>
<polygon fill="#191970" stroke="#191970" points="198.8634,-139.7436 188.4218,-141.539 197.7041,-146.6469 198.8634,-139.7436"/>
</g>
<!-- Node7 -->
<g id="node8" class="node">
<title>Node7</title>
<g id="a_node8"><a xlink:href="locale__utils_8hxx.html" target="_top" xlink:title="Encoding transformations. ">
<polygon fill="#ffffff" stroke="#000000" points="1151.7151,-123.5 1151.7151,-142.5 1235.7151,-142.5 1235.7151,-123.5 1151.7151,-123.5"/>
<text text-anchor="middle" x="1193.7151" y="-130.5" font-family="Helvetica,sans-Serif" font-size="10.00" fill="#000000">locale_utils.hxx</text>
</a>
</g>
</g>
<!-- Node0&#45;&gt;Node7 -->
<g id="edge26" class="edge">
<title>Node0&#45;&gt;Node7</title>
<path fill="none" stroke="#191970" d="M1067.9386,-246.3313C1052.2216,-231.0514 1026.5531,-200.8189 1042.7151,-179 1054.6942,-162.8281 1102.6319,-150.0712 1141.324,-142.1339"/>
<polygon fill="#191970" stroke="#191970" points="1142.3173,-145.505 1151.443,-140.1225 1140.9525,-138.6393 1142.3173,-145.505"/>
</g>
<!-- Node12 -->
<g id="node13" class="node">
<title>Node12</title>
<polygon fill="#ffffff" stroke="#bfbfbf" points="919.7151,-62 919.7151,-81 975.7151,-81 975.7151,-62 919.7151,-62"/>
<text text-anchor="middle" x="947.7151" y="-69" font-family="Helvetica,sans-Serif" font-size="10.00" fill="#000000">algorithm</text>
</g>
<!-- Node0&#45;&gt;Node12 -->
<g id="edge34" class="edge">
<title>Node0&#45;&gt;Node12</title>
<path fill="none" stroke="#191970" d="M1053.5696,-246.4157C1036.6048,-238.8167 1014.8214,-226.6895 1000.7151,-210 970.6377,-174.4149 956.5986,-119.9256 950.9532,-91.0444"/>
<polygon fill="#191970" stroke="#191970" points="954.36,-90.2154 949.1309,-81.0009 947.4725,-91.4652 954.36,-90.2154"/>
</g>
<!-- Node20 -->
<g id="node21" class="node">
<title>Node20</title>
<g id="a_node21"><a xlink:href="string__utils_8hxx.html" target="_top" xlink:title="String algorithms. ">
<polygon fill="#ffffff" stroke="#000000" points="1028.2151,-123.5 1028.2151,-142.5 1111.2151,-142.5 1111.2151,-123.5 1028.2151,-123.5"/>
<text text-anchor="middle" x="1069.7151" y="-130.5" font-family="Helvetica,sans-Serif" font-size="10.00" fill="#000000">string_utils.hxx</text>
</a>
</g>
</g>
<!-- Node0&#45;&gt;Node20 -->
<g id="edge27" class="edge">
<title>Node0&#45;&gt;Node20</title>
<path fill="none" stroke="#191970" d="M1053.1889,-246.3698C1037.573,-238.9914 1018.8862,-227.1364 1009.7151,-210 1003.2139,-197.8525 1003.6188,-191.3556 1009.7151,-179 1016.1944,-165.8681 1028.4213,-155.4457 1040.1558,-147.8651"/>
<polygon fill="#191970" stroke="#191970" points="1042.1395,-150.7572 1048.9299,-142.6244 1038.5499,-144.7475 1042.1395,-150.7572"/>
</g>
<!-- Node22 -->
<g id="node23" class="node">
<title>Node22</title>
<polygon fill="#ffffff" stroke="#bfbfbf" points="1051.7151,-185 1051.7151,-204 1105.7151,-204 1105.7151,-185 1051.7151,-185"/>
<text text-anchor="middle" x="1078.7151" y="-192" font-family="Helvetica,sans-Serif" font-size="10.00" fill="#000000">iostream</text>
</g>
<!-- Node0&#45;&gt;Node22 -->
<g id="edge35" class="edge">
<title>Node0&#45;&gt;Node22</title>
<path fill="none" stroke="#191970" d="M1078.7151,-246.3906C1078.7151,-237.8657 1078.7151,-225.1392 1078.7151,-214.4235"/>
<polygon fill="#191970" stroke="#191970" points="1082.2152,-214.2448 1078.7151,-204.2449 1075.2152,-214.2449 1082.2152,-214.2448"/>
</g>
<!-- Node23 -->
<g id="node24" class="node">
<title>Node23</title>
<polygon fill="#ffffff" stroke="#bfbfbf" points="1124.2151,-185 1124.2151,-204 1165.2151,-204 1165.2151,-185 1124.2151,-185"/>
<text text-anchor="middle" x="1144.7151" y="-192" font-family="Helvetica,sans-Serif" font-size="10.00" fill="#000000">regex</text>
</g>
<!-- Node0&#45;&gt;Node23 -->
<g id="edge36" class="edge">
<title>Node0&#45;&gt;Node23</title>
<path fill="none" stroke="#191970" d="M1089.0276,-246.3906C1099.1393,-236.9683 1114.7593,-222.4134 1126.8858,-211.1137"/>
<polygon fill="#191970" stroke="#191970" points="1129.3271,-213.6228 1134.2572,-204.2449 1124.555,-208.5015 1129.3271,-213.6228"/>
</g>
<!-- Node24 -->
<g id="node25" class="node">
<title>Node24</title>
<polygon fill="#ffffff" stroke="#bfbfbf" points="1183.7151,-185 1183.7151,-204 1235.7151,-204 1235.7151,-185 1183.7151,-185"/>
<text text-anchor="middle" x="1209.7151" y="-192" font-family="Helvetica,sans-Serif" font-size="10.00" fill="#000000">sstream</text>
</g>
<!-- Node0&#45;&gt;Node24 -->
<g id="edge37" class="edge">
<title>Node0&#45;&gt;Node24</title>
<path fill="none" stroke="#191970" d="M1099.1838,-246.3906C1120.9103,-236.1908 1155.4486,-219.9763 1180.1336,-208.3875"/>
<polygon fill="#191970" stroke="#191970" points="1181.8254,-211.4598 1189.3901,-204.0419 1178.8506,-205.1234 1181.8254,-211.4598"/>
</g>
<!-- Node25 -->
<g id="node26" class="node">
<title>Node25</title>
<polygon fill="#ffffff" stroke="#bfbfbf" points="1253.7151,-179.5 1253.7151,-209.5 1363.7151,-209.5 1363.7151,-179.5 1253.7151,-179.5"/>
<text text-anchor="start" x="1261.7151" y="-197.5" font-family="Helvetica,sans-Serif" font-size="10.00" fill="#000000">boost/algorithm/string</text>
<text text-anchor="middle" x="1308.7151" y="-186.5" font-family="Helvetica,sans-Serif" font-size="10.00" fill="#000000">/case_conv.hpp</text>
</g>
<!-- Node0&#45;&gt;Node25 -->
<g id="edge39" class="edge">
<title>Node0&#45;&gt;Node25</title>
<path fill="none" stroke="#191970" d="M1114.4002,-246.4581C1148.8599,-237.2439 1201.8449,-223.0762 1243.7873,-211.8611"/>
<polygon fill="#191970" stroke="#191970" points="1244.8901,-215.1893 1253.6466,-209.2248 1243.0819,-208.4268 1244.8901,-215.1893"/>
</g>
<!-- Node26 -->
<g id="node27" class="node">
<title>Node26</title>
<polygon fill="#ffffff" stroke="#bfbfbf" points="1381.7151,-185 1381.7151,-204 1469.7151,-204 1469.7151,-185 1381.7151,-185"/>
<text text-anchor="middle" x="1425.7151" y="-192" font-family="Helvetica,sans-Serif" font-size="10.00" fill="#000000">boost/locale.hpp</text>
</g>
<!-- Node0&#45;&gt;Node26 -->
<g id="edge40" class="edge">
<title>Node0&#45;&gt;Node26</title>
<path fill="none" stroke="#191970" d="M1139.3929,-248.8365C1199.1425,-241.2367 1292.8009,-227.8587 1372.7151,-210 1376.9253,-209.0591 1381.293,-207.9701 1385.6328,-206.8141"/>
<polygon fill="#191970" stroke="#191970" points="1386.926,-210.0872 1395.6208,-204.0332 1385.0484,-203.3437 1386.926,-210.0872"/>
</g>
<!-- Node27 -->
<g id="node28" class="node">
<title>Node27</title>
<polygon fill="#ffffff" stroke="#bfbfbf" points="1488.2151,-185 1488.2151,-204 1615.2151,-204 1615.2151,-185 1488.2151,-185"/>
<text text-anchor="middle" x="1551.7151" y="-192" font-family="Helvetica,sans-Serif" font-size="10.00" fill="#000000">boost/range/adaptors.hpp</text>
</g>
<!-- Node0&#45;&gt;Node27 -->
<g id="edge41" class="edge">
<title>Node0&#45;&gt;Node27</title>
<path fill="none" stroke="#191970" d="M1139.2733,-250.8366C1217.8384,-243.7261 1359.0201,-229.5447 1478.7151,-210 1485.588,-208.8777 1492.7929,-207.5434 1499.8875,-206.1356"/>
<polygon fill="#191970" stroke="#191970" points="1501.0554,-209.4693 1510.1513,-204.0365 1499.6527,-202.6113 1501.0554,-209.4693"/>
</g>
<!-- Node2 -->
<g id="node3" class="node">
<title>Node2</title>
<polygon fill="#ffffff" stroke="#bfbfbf" points="206.2151,-123.5 206.2151,-142.5 251.2151,-142.5 251.2151,-123.5 206.2151,-123.5"/>
<text text-anchor="middle" x="228.7151" y="-130.5" font-family="Helvetica,sans-Serif" font-size="10.00" fill="#000000">iosfwd</text>
</g>
<!-- Node1&#45;&gt;Node2 -->
<g id="edge2" class="edge">
<title>Node1&#45;&gt;Node2</title>
<path fill="none" stroke="#191970" d="M693.1164,-189.5728C669.7171,-186.3961 638.4173,-182.2642 610.7151,-179 457.6084,-160.9593 417.2795,-171.2018 265.7151,-143 264.2432,-142.7261 262.7442,-142.4231 261.2342,-142.0983"/>
<polygon fill="#191970" stroke="#191970" points="261.8217,-138.64 251.2814,-139.7136 260.1906,-145.4474 261.8217,-138.64"/>
</g>
<!-- Node3 -->
<g id="node4" class="node">
<title>Node3</title>
<polygon fill="#ffffff" stroke="#bfbfbf" points="871.2151,-.5 871.2151,-19.5 912.2151,-19.5 912.2151,-.5 871.2151,-.5"/>
<text text-anchor="middle" x="891.7151" y="-7.5" font-family="Helvetica,sans-Serif" font-size="10.00" fill="#000000">string</text>
</g>
<!-- Node1&#45;&gt;Node3 -->
<g id="edge3" class="edge">
<title>Node1&#45;&gt;Node3</title>
<path fill="none" stroke="#191970" d="M749.542,-184.9174C781.3095,-169.183 841.4666,-134.7814 872.7151,-87 883.9817,-69.7724 888.569,-46.4062 890.4359,-29.9463"/>
<polygon fill="#191970" stroke="#191970" points="893.9372,-30.0869 891.3423,-19.8147 886.965,-29.463 893.9372,-30.0869"/>
</g>
<!-- Node1&#45;&gt;Node4 -->
<g id="edge4" class="edge">
<title>Node1&#45;&gt;Node4</title>
<path fill="none" stroke="#191970" d="M693.1346,-189.4127C669.7427,-186.1703 638.4444,-182.0253 610.7151,-179 430.3377,-159.3203 381.2628,-168.8021 198.3462,-143.1085"/>
<polygon fill="#191970" stroke="#191970" points="198.7904,-139.6365 188.3975,-141.6951 197.8058,-146.5669 198.7904,-139.6365"/>
</g>
<!-- Node5 -->
<g id="node6" class="node">
<title>Node5</title>
<polygon fill="#ffffff" stroke="#bfbfbf" points="823.7151,-62 823.7151,-81 863.7151,-81 863.7151,-62 823.7151,-62"/>
<text text-anchor="middle" x="843.7151" y="-69" font-family="Helvetica,sans-Serif" font-size="10.00" fill="#000000">utility</text>
</g>
<!-- Node1&#45;&gt;Node5 -->
<g id="edge5" class="edge">
<title>Node1&#45;&gt;Node5</title>
<path fill="none" stroke="#191970" d="M737.7389,-184.8484C757.2211,-164.011 803.4312,-114.5862 827.8933,-88.4224"/>
<polygon fill="#191970" stroke="#191970" points="830.4602,-90.8018 834.7331,-81.1068 825.347,-86.0211 830.4602,-90.8018"/>
</g>
<!-- Node6 -->
<g id="node7" class="node">
<title>Node6</title>
<polygon fill="#ffffff" stroke="#bfbfbf" points="242.7151,-.5 242.7151,-19.5 286.7151,-19.5 286.7151,-.5 242.7151,-.5"/>
<text text-anchor="middle" x="264.7151" y="-7.5" font-family="Helvetica,sans-Serif" font-size="10.00" fill="#000000">vector</text>
</g>
<!-- Node1&#45;&gt;Node6 -->
<g id="edge6" class="edge">
<title>Node1&#45;&gt;Node6</title>
<path fill="none" stroke="#191970" d="M693.1377,-188.9526C614.8377,-176.7709 421.6652,-146.8663 259.7151,-123 203.5333,-114.7206 43.9349,-129.8908 6.7151,-87 -2.315,-76.594 -2.131,-66.5628 6.7151,-56 35.1583,-22.037 169.6171,-13.1268 232.3451,-10.8072"/>
<polygon fill="#191970" stroke="#191970" points="232.6002,-14.3007 242.4772,-10.4672 232.3654,-7.3046 232.6002,-14.3007"/>
</g>
<!-- Node1&#45;&gt;Node7 -->
<g id="edge7" class="edge">
<title>Node1&#45;&gt;Node7</title>
<path fill="none" stroke="#191970" d="M764.3962,-189.8792C833.2884,-180.9426 989.4159,-160.6178 1120.7151,-143 1127.4445,-142.097 1134.5216,-141.1386 1141.5128,-140.1866"/>
<polygon fill="#191970" stroke="#191970" points="1142.2094,-143.624 1151.644,-138.8035 1141.2624,-136.6884 1142.2094,-143.624"/>
</g>
<!-- Node9 -->
<g id="node10" class="node">
<title>Node9</title>
<g id="a_node10"><a xlink:href="structures_8hxx.html" target="_top" xlink:title="Data structures. ">
<polygon fill="#ffffff" stroke="#000000" points="628.2151,-123.5 628.2151,-142.5 707.2151,-142.5 707.2151,-123.5 628.2151,-123.5"/>
<text text-anchor="middle" x="667.7151" y="-130.5" font-family="Helvetica,sans-Serif" font-size="10.00" fill="#000000">structures.hxx</text>
</a>
</g>
</g>
<!-- Node1&#45;&gt;Node9 -->
<g id="edge10" class="edge">
<title>Node1&#45;&gt;Node9</title>
<path fill="none" stroke="#191970" d="M719.1838,-184.8906C709.9272,-175.5581 695.6761,-161.1902 684.5148,-149.9374"/>
<polygon fill="#191970" stroke="#191970" points="686.9079,-147.38 677.3807,-142.7449 681.9379,-152.3095 686.9079,-147.38"/>
</g>
<!-- Node7&#45;&gt;Node3 -->
<g id="edge9" class="edge">
<title>Node7&#45;&gt;Node3</title>
<path fill="none" stroke="#191970" d="M1208.6116,-123.4765C1230.4229,-108.3954 1266.4266,-78.4304 1246.7151,-56 1225.394,-31.738 1004.5985,-16.5461 922.3596,-11.6927"/>
<polygon fill="#191970" stroke="#191970" points="922.5581,-8.1984 912.3724,-11.1142 922.1532,-15.1867 922.5581,-8.1984"/>
</g>
<!-- Node8 -->
<g id="node9" class="node">
<title>Node8</title>
<polygon fill="#ffffff" stroke="#bfbfbf" points="1195.7151,-62 1195.7151,-81 1237.7151,-81 1237.7151,-62 1195.7151,-62"/>
<text text-anchor="middle" x="1216.7151" y="-69" font-family="Helvetica,sans-Serif" font-size="10.00" fill="#000000">locale</text>
</g>
<!-- Node7&#45;&gt;Node8 -->
<g id="edge8" class="edge">
<title>Node7&#45;&gt;Node8</title>
<path fill="none" stroke="#191970" d="M1197.3088,-123.3906C1200.5641,-114.6862 1205.4576,-101.6015 1209.5161,-90.7494"/>
<polygon fill="#191970" stroke="#191970" points="1212.846,-91.8373 1213.0707,-81.2449 1206.2895,-89.3852 1212.846,-91.8373"/>
</g>
<!-- Node9&#45;&gt;Node3 -->
<g id="edge19" class="edge">
<title>Node9&#45;&gt;Node3</title>
<path fill="none" stroke="#191970" d="M696.5636,-123.3854C719.1823,-115.2517 751.0222,-102.4647 776.7151,-87 795.3892,-75.76 796.8676,-68.5112 814.7151,-56 830.9765,-44.6006 850.1453,-33.143 865.2892,-24.5141"/>
<polygon fill="#191970" stroke="#191970" points="867.1397,-27.4889 874.1362,-19.5328 863.7053,-21.3892 867.1397,-27.4889"/>
</g>
<!-- Node9&#45;&gt;Node5 -->
<g id="edge20" class="edge">
<title>Node9&#45;&gt;Node5</title>
<path fill="none" stroke="#191970" d="M700.8013,-123.4545C729.8223,-114.805 772.9985,-101.2624 809.7151,-87 811.2949,-86.3863 812.9063,-85.7365 814.5265,-85.0643"/>
<polygon fill="#191970" stroke="#191970" points="815.9617,-88.2569 823.7418,-81.0651 813.175,-81.8355 815.9617,-88.2569"/>
</g>
<!-- Node9&#45;&gt;Node6 -->
<g id="edge21" class="edge">
<title>Node9&#45;&gt;Node6</title>
<path fill="none" stroke="#191970" d="M627.9741,-131.6714C489.8125,-126.8626 37.6428,-109.4587 16.7151,-87 7.3223,-76.9201 7.9058,-66.5935 16.7151,-56 43.7882,-23.4435 171.4831,-13.8243 232.3258,-11.0665"/>
<polygon fill="#191970" stroke="#191970" points="232.6806,-14.5548 242.5258,-10.6405 232.3884,-7.5609 232.6806,-14.5548"/>
</g>
<!-- Node10 -->
<g id="node11" class="node">
<title>Node10</title>
<g id="a_node11"><a xlink:href="condition_8hxx.html" target="_top" xlink:title="Condition matching. ">
<polygon fill="#ffffff" stroke="#000000" points="553.7151,-62 553.7151,-81 627.7151,-81 627.7151,-62 553.7151,-62"/>
<text text-anchor="middle" x="590.7151" y="-69" font-family="Helvetica,sans-Serif" font-size="10.00" fill="#000000">condition.hxx</text>
</a>
</g>
</g>
<!-- Node9&#45;&gt;Node10 -->
<g id="edge11" class="edge">
<title>Node9&#45;&gt;Node10</title>
<path fill="none" stroke="#191970" d="M655.6838,-123.3906C643.7044,-113.8227 625.0985,-98.9621 610.8626,-87.5919"/>
<polygon fill="#191970" stroke="#191970" points="612.6598,-84.5479 602.6618,-81.0419 608.2912,-90.0175 612.6598,-84.5479"/>
</g>
<!-- Node9&#45;&gt;Node12 -->
<g id="edge15" class="edge">
<title>Node9&#45;&gt;Node12</title>
<path fill="none" stroke="#191970" d="M707.2384,-124.319C760.9418,-112.5234 856.3355,-91.5709 909.4034,-79.9149"/>
<polygon fill="#191970" stroke="#191970" points="910.4114,-83.277 919.4277,-77.7131 908.9097,-76.44 910.4114,-83.277"/>
</g>
<!-- Node13 -->
<g id="node14" class="node">
<title>Node13</title>
<polygon fill="#ffffff" stroke="#bfbfbf" points="645.7151,-62 645.7151,-81 689.7151,-81 689.7151,-62 645.7151,-62"/>
<text text-anchor="middle" x="667.7151" y="-69" font-family="Helvetica,sans-Serif" font-size="10.00" fill="#000000">cmath</text>
</g>
<!-- Node9&#45;&gt;Node13 -->
<g id="edge16" class="edge">
<title>Node9&#45;&gt;Node13</title>
<path fill="none" stroke="#191970" d="M667.7151,-123.3906C667.7151,-114.8657 667.7151,-102.1392 667.7151,-91.4235"/>
<polygon fill="#191970" stroke="#191970" points="671.2152,-91.2448 667.7151,-81.2449 664.2152,-91.2449 671.2152,-91.2448"/>
</g>
<!-- Node14 -->
<g id="node15" class="node">
<title>Node14</title>
<polygon fill="#ffffff" stroke="#bfbfbf" points="994.2151,-62 994.2151,-81 1041.2151,-81 1041.2151,-62 994.2151,-62"/>
<text text-anchor="middle" x="1017.7151" y="-69" font-family="Helvetica,sans-Serif" font-size="10.00" fill="#000000">iterator</text>
</g>
<!-- Node9&#45;&gt;Node14 -->
<g id="edge17" class="edge">
<title>Node9&#45;&gt;Node14</title>
<path fill="none" stroke="#191970" d="M707.5648,-130.9852C768.45,-127.0721 887.7757,-116.0978 984.7151,-87 986.6248,-86.4268 988.5641,-85.76 990.4969,-85.0312"/>
<polygon fill="#191970" stroke="#191970" points="992.1044,-88.1511 999.9388,-81.0186 989.3665,-81.7087 992.1044,-88.1511"/>
</g>
<!-- Node15 -->
<g id="node16" class="node">
<title>Node15</title>
<polygon fill="#ffffff" stroke="#bfbfbf" points="708.2151,-62 708.2151,-81 767.2151,-81 767.2151,-62 708.2151,-62"/>
<text text-anchor="middle" x="737.7151" y="-69" font-family="Helvetica,sans-Serif" font-size="10.00" fill="#000000">stdexcept</text>
</g>
<!-- Node9&#45;&gt;Node15 -->
<g id="edge18" class="edge">
<title>Node9&#45;&gt;Node15</title>
<path fill="none" stroke="#191970" d="M678.6526,-123.3906C689.3771,-113.9683 705.9437,-99.4134 718.8052,-88.1137"/>
<polygon fill="#191970" stroke="#191970" points="721.421,-90.4745 726.6234,-81.2449 716.8008,-85.2158 721.421,-90.4745"/>
</g>
<!-- Node16 -->
<g id="node17" class="node">
<title>Node16</title>
<polygon fill="#ffffff" stroke="#bfbfbf" points="25.7151,-56.5 25.7151,-86.5 135.7151,-86.5 135.7151,-56.5 25.7151,-56.5"/>
<text text-anchor="start" x="33.7151" y="-74.5" font-family="Helvetica,sans-Serif" font-size="10.00" fill="#000000">boost/container/small</text>
<text text-anchor="middle" x="80.7151" y="-63.5" font-family="Helvetica,sans-Serif" font-size="10.00" fill="#000000">_vector.hpp</text>
</g>
<!-- Node9&#45;&gt;Node16 -->
<g id="edge22" class="edge">
<title>Node9&#45;&gt;Node16</title>
<path fill="none" stroke="#191970" d="M628.0978,-131.5431C541.9929,-127.9422 331.2873,-116.7782 145.7027,-87.0033"/>
<polygon fill="#191970" stroke="#191970" points="146.1981,-83.538 135.7658,-85.3871 145.0742,-90.4472 146.1981,-83.538"/>
</g>
<!-- Node17 -->
<g id="node18" class="node">
<title>Node17</title>
<polygon fill="#ffffff" stroke="#bfbfbf" points="153.7151,-62 153.7151,-81 303.7151,-81 303.7151,-62 153.7151,-62"/>
<text text-anchor="middle" x="228.7151" y="-69" font-family="Helvetica,sans-Serif" font-size="10.00" fill="#000000">boost/multi_index/member.hpp</text>
</g>
<!-- Node9&#45;&gt;Node17 -->
<g id="edge23" class="edge">
<title>Node9&#45;&gt;Node17</title>
<path fill="none" stroke="#191970" d="M627.9522,-128.5524C562.2035,-121.0404 426.7577,-104.8973 312.7151,-87 304.6952,-85.7414 296.2643,-84.3123 287.9647,-82.8432"/>
<polygon fill="#191970" stroke="#191970" points="288.4045,-79.3662 277.9427,-81.0401 287.165,-86.2556 288.4045,-79.3662"/>
</g>
<!-- Node18 -->
<g id="node19" class="node">
<title>Node18</title>
<polygon fill="#ffffff" stroke="#bfbfbf" points="322.2151,-56.5 322.2151,-86.5 423.2151,-86.5 423.2151,-56.5 322.2151,-56.5"/>
<text text-anchor="start" x="330.2151" y="-74.5" font-family="Helvetica,sans-Serif" font-size="10.00" fill="#000000">boost/range/iterator</text>
<text text-anchor="middle" x="372.7151" y="-63.5" font-family="Helvetica,sans-Serif" font-size="10.00" fill="#000000">_range_core.hpp</text>
</g>
<!-- Node9&#45;&gt;Node18 -->
<g id="edge24" class="edge">
<title>Node9&#45;&gt;Node18</title>
<path fill="none" stroke="#191970" d="M628.0634,-125.9826C583.2367,-117.885 507.8601,-103.7749 433.4205,-87.0838"/>
<polygon fill="#191970" stroke="#191970" points="433.928,-83.6103 423.4025,-84.8204 432.3852,-90.4382 433.928,-83.6103"/>
</g>
<!-- Node19 -->
<g id="node20" class="node">
<title>Node19</title>
<polygon fill="#ffffff" stroke="#bfbfbf" points="441.7151,-56.5 441.7151,-86.5 535.7151,-86.5 535.7151,-56.5 441.7151,-56.5"/>
<text text-anchor="start" x="449.7151" y="-74.5" font-family="Helvetica,sans-Serif" font-size="10.00" fill="#000000">boost/utility/string</text>
<text text-anchor="middle" x="488.7151" y="-63.5" font-family="Helvetica,sans-Serif" font-size="10.00" fill="#000000">_view.hpp</text>
</g>
<!-- Node9&#45;&gt;Node19 -->
<g id="edge25" class="edge">
<title>Node9&#45;&gt;Node19</title>
<path fill="none" stroke="#191970" d="M639.7463,-123.3906C613.7264,-114.4508 574.2581,-100.8905 542.1937,-89.8739"/>
<polygon fill="#191970" stroke="#191970" points="543.0981,-86.4839 532.5034,-86.5446 540.8235,-93.1041 543.0981,-86.4839"/>
</g>
<!-- Node10&#45;&gt;Node3 -->
<g id="edge12" class="edge">
<title>Node10&#45;&gt;Node3</title>
<path fill="none" stroke="#191970" d="M616.7877,-61.9762C623.2451,-59.8227 630.1857,-57.6793 636.7151,-56 716.5082,-35.4775 812.6464,-20.7753 860.9018,-14.0695"/>
<polygon fill="#191970" stroke="#191970" points="861.5686,-17.511 871.0011,-12.6862 860.6186,-10.5757 861.5686,-17.511"/>
</g>
<!-- Node10&#45;&gt;Node6 -->
<g id="edge14" class="edge">
<title>Node10&#45;&gt;Node6</title>
<path fill="none" stroke="#191970" d="M564.6608,-61.9037C558.2029,-59.7525 551.2574,-57.6282 544.7151,-56 456.1628,-33.9616 349.1592,-19.732 296.7706,-13.5493"/>
<polygon fill="#191970" stroke="#191970" points="297.0812,-10.062 286.7444,-12.3862 296.2744,-17.0153 297.0812,-10.062"/>
</g>
<!-- Node11 -->
<g id="node12" class="node">
<title>Node11</title>
<polygon fill="#ffffff" stroke="#bfbfbf" points="571.7151,-.5 571.7151,-19.5 609.7151,-19.5 609.7151,-.5 571.7151,-.5"/>
<text text-anchor="middle" x="590.7151" y="-7.5" font-family="Helvetica,sans-Serif" font-size="10.00" fill="#000000">tuple</text>
</g>
<!-- Node10&#45;&gt;Node11 -->
<g id="edge13" class="edge">
<title>Node10&#45;&gt;Node11</title>
<path fill="none" stroke="#191970" d="M590.7151,-61.8906C590.7151,-53.3657 590.7151,-40.6392 590.7151,-29.9235"/>
<polygon fill="#191970" stroke="#191970" points="594.2152,-29.7448 590.7151,-19.7449 587.2152,-29.7449 594.2152,-29.7448"/>
</g>
<!-- Node20&#45;&gt;Node3 -->
<g id="edge32" class="edge">
<title>Node20&#45;&gt;Node3</title>
<path fill="none" stroke="#191970" d="M1075.7934,-123.3279C1084.8835,-107.4994 1099.3656,-75.843 1083.7151,-56 1063.9888,-30.9894 971.7006,-18.0483 922.6119,-12.8345"/>
<polygon fill="#191970" stroke="#191970" points="922.8528,-9.3411 912.5497,-11.81 922.1437,-16.3051 922.8528,-9.3411"/>
</g>
<!-- Node20&#45;&gt;Node6 -->
<g id="edge33" class="edge">
<title>Node20&#45;&gt;Node6</title>
<path fill="none" stroke="#191970" d="M1070.6038,-123.357C1071.545,-106.6787 1070.7247,-72.6384 1050.7151,-56 1035.9753,-43.7436 443.2241,-17.6329 297.0428,-11.3706"/>
<polygon fill="#191970" stroke="#191970" points="297.0636,-7.8684 286.9233,-10.9383 296.7648,-14.8621 297.0636,-7.8684"/>
</g>
<!-- Node20&#45;&gt;Node8 -->
<g id="edge30" class="edge">
<title>Node20&#45;&gt;Node8</title>
<path fill="none" stroke="#191970" d="M1096.5246,-123.3504C1120.4507,-114.5288 1156.3023,-100.7916 1186.7151,-87 1187.7028,-86.5521 1188.7045,-86.088 1189.7128,-85.6123"/>
<polygon fill="#191970" stroke="#191970" points="1191.3533,-88.7059 1198.7768,-81.1466 1188.2596,-82.4266 1191.3533,-88.7059"/>
</g>
<!-- Node20&#45;&gt;Node12 -->
<g id="edge28" class="edge">
<title>Node20&#45;&gt;Node12</title>
<path fill="none" stroke="#191970" d="M1050.6526,-123.3906C1030.5979,-113.2811 998.8217,-97.2628 975.8767,-85.6962"/>
<polygon fill="#191970" stroke="#191970" points="977.1488,-82.418 966.6437,-81.0419 973.9978,-88.6687 977.1488,-82.418"/>
</g>
<!-- Node20&#45;&gt;Node14 -->
<g id="edge29" class="edge">
<title>Node20&#45;&gt;Node14</title>
<path fill="none" stroke="#191970" d="M1061.5901,-123.3906C1053.8509,-114.2376 1042.0163,-100.2409 1032.5879,-89.09"/>
<polygon fill="#191970" stroke="#191970" points="1035.084,-86.6213 1025.9546,-81.2449 1029.7386,-91.1409 1035.084,-86.6213"/>
</g>
<!-- Node21 -->
<g id="node22" class="node">
<title>Node21</title>
<polygon fill="#ffffff" stroke="#bfbfbf" points="1136.2151,-62 1136.2151,-81 1177.2151,-81 1177.2151,-62 1136.2151,-62"/>
<text text-anchor="middle" x="1156.7151" y="-69" font-family="Helvetica,sans-Serif" font-size="10.00" fill="#000000">stack</text>
</g>
<!-- Node20&#45;&gt;Node21 -->
<g id="edge31" class="edge">
<title>Node20&#45;&gt;Node21</title>
<path fill="none" stroke="#191970" d="M1083.3088,-123.3906C1097.0994,-113.6421 1118.6623,-98.3994 1134.8561,-86.9521"/>
<polygon fill="#191970" stroke="#191970" points="1137.0713,-89.6723 1143.2168,-81.0419 1133.0307,-83.9563 1137.0713,-89.6723"/>
</g>
</g>
</svg>
