<?xml version="1.0" encoding="UTF-8" standalone="no"?>
<!DOCTYPE svg PUBLIC "-//W3C//DTD SVG 1.1//EN"
 "http://www.w3.org/Graphics/SVG/1.1/DTD/svg11.dtd">
<!-- Generated by graphviz version 2.40.1 (20161225.0304)
 -->
<!-- Title: src/nuspell/aff_data.hxx Pages: 1 -->
<svg width="1509pt" height="207pt"
 viewBox="0.00 0.00 1508.50 207.00" xmlns="http://www.w3.org/2000/svg" xmlns:xlink="http://www.w3.org/1999/xlink">
<g id="graph0" class="graph" transform="scale(1 1) rotate(0) translate(4 203)">
<title>src/nuspell/aff_data.hxx</title>
<polygon fill="#ffffff" stroke="transparent" points="-4,4 -4,-203 1504.5,-203 1504.5,4 -4,4"/>
<!-- Node0 -->
<g id="node1" class="node">
<title>Node0</title>
<polygon fill="#bfbfbf" stroke="#000000" points="305.5,-179.5 305.5,-198.5 426.5,-198.5 426.5,-179.5 305.5,-179.5"/>
<text text-anchor="middle" x="366" y="-186.5" font-family="Helvetica,sans-Serif" font-size="10.00" fill="#000000">src/nuspell/aff_data.hxx</text>
</g>
<!-- Node1 -->
<g id="node2" class="node">
<title>Node1</title>
<polygon fill="#ffffff" stroke="#bfbfbf" points="128.5,-123.5 128.5,-142.5 173.5,-142.5 173.5,-123.5 128.5,-123.5"/>
<text text-anchor="middle" x="151" y="-130.5" font-family="Helvetica,sans-Serif" font-size="10.00" fill="#000000">iosfwd</text>
</g>
<!-- Node0&#45;&gt;Node1 -->
<g id="edge1" class="edge">
<title>Node0&#45;&gt;Node1</title>
<path fill="none" stroke="#191970" d="M325.1222,-179.426C290.0265,-171.0495 237.8824,-158.2336 183.4957,-143.0258"/>
<polygon fill="#191970" stroke="#191970" points="184.2527,-139.6029 173.6783,-140.2611 182.3551,-146.3408 184.2527,-139.6029"/>
</g>
<!-- Node2 -->
<g id="node3" class="node">
<title>Node2</title>
<polygon fill="#ffffff" stroke="#bfbfbf" points="345.5,-.5 345.5,-19.5 386.5,-19.5 386.5,-.5 345.5,-.5"/>
<text text-anchor="middle" x="366" y="-7.5" font-family="Helvetica,sans-Serif" font-size="10.00" fill="#000000">string</text>
</g>
<!-- Node0&#45;&gt;Node2 -->
<g id="edge2" class="edge">
<title>Node0&#45;&gt;Node2</title>
<path fill="none" stroke="#191970" d="M360.5608,-179.2102C348.9607,-157.043 323.8812,-101.4085 337,-56 339.8938,-45.9836 345.6878,-36.0485 351.3413,-27.9887"/>
<polygon fill="#191970" stroke="#191970" points="354.2979,-29.88 357.5023,-19.7814 348.6997,-25.6776 354.2979,-29.88"/>
</g>
<!-- Node3 -->
<g id="node4" class="node">
<title>Node3</title>
<polygon fill="#ffffff" stroke="#bfbfbf" points="1417.5,-123.5 1417.5,-142.5 1500.5,-142.5 1500.5,-123.5 1417.5,-123.5"/>
<text text-anchor="middle" x="1459" y="-130.5" font-family="Helvetica,sans-Serif" font-size="10.00" fill="#000000">unordered_map</text>
</g>
<!-- Node0&#45;&gt;Node3 -->
<g id="edge3" class="edge">
<title>Node0&#45;&gt;Node3</title>
<path fill="none" stroke="#191970" d="M426.7811,-187.3625C618.9452,-182.0185 1211.9096,-164.2056 1403,-143 1404.4724,-142.8366 1405.9644,-142.658 1407.4689,-142.4666"/>
<polygon fill="#191970" stroke="#191970" points="1408.0908,-145.9135 1417.4991,-141.0417 1407.1062,-138.9831 1408.0908,-145.9135"/>
</g>
<!-- Node4 -->
<g id="node5" class="node">
<title>Node4</title>
<polygon fill="#ffffff" stroke="#bfbfbf" points="346,-62 346,-81 386,-81 386,-62 346,-62"/>
<text text-anchor="middle" x="366" y="-69" font-family="Helvetica,sans-Serif" font-size="10.00" fill="#000000">utility</text>
</g>
<!-- Node0&#45;&gt;Node4 -->
<g id="edge4" class="edge">
<title>Node0&#45;&gt;Node4</title>
<path fill="none" stroke="#191970" d="M366,-179.3845C366,-160.1913 366,-116.786 366,-91.2663"/>
<polygon fill="#191970" stroke="#191970" points="369.5001,-91.2483 366,-81.2484 362.5001,-91.2484 369.5001,-91.2483"/>
</g>
<!-- Node5 -->
<g id="node6" class="node">
<title>Node5</title>
<polygon fill="#ffffff" stroke="#bfbfbf" points="1050,-.5 1050,-19.5 1094,-19.5 1094,-.5 1050,-.5"/>
<text text-anchor="middle" x="1072" y="-7.5" font-family="Helvetica,sans-Serif" font-size="10.00" fill="#000000">vector</text>
</g>
<!-- Node0&#45;&gt;Node5 -->
<g id="edge5" class="edge">
<title>Node0&#45;&gt;Node5</title>
<path fill="none" stroke="#191970" d="M426.5912,-187.5428C634.217,-181.9237 1307.6398,-158.2945 1370,-87 1379.0709,-76.6295 1378.9685,-66.4591 1370,-56 1352.8269,-35.9727 1177.9188,-18.963 1104.3395,-12.6368"/>
<polygon fill="#191970" stroke="#191970" points="1104.5094,-9.1388 1094.2496,-11.7819 1103.9183,-16.1138 1104.5094,-9.1388"/>
</g>
<!-- Node6 -->
<g id="node7" class="node">
<title>Node6</title>
<g id="a_node7"><a xlink:href="locale__utils_8hxx.html" target="_top" xlink:title="Encoding transformations. ">
<polygon fill="#ffffff" stroke="#000000" points="192,-123.5 192,-142.5 276,-142.5 276,-123.5 192,-123.5"/>
<text text-anchor="middle" x="234" y="-130.5" font-family="Helvetica,sans-Serif" font-size="10.00" fill="#000000">locale_utils.hxx</text>
</a>
</g>
</g>
<!-- Node0&#45;&gt;Node6 -->
<g id="edge6" class="edge">
<title>Node0&#45;&gt;Node6</title>
<path fill="none" stroke="#191970" d="M343.3084,-179.3733C321.9289,-170.3032 289.6943,-156.6279 265.7638,-146.4755"/>
<polygon fill="#191970" stroke="#191970" points="266.9683,-143.1846 256.3955,-142.5011 264.2344,-149.6287 266.9683,-143.1846"/>
</g>
<!-- Node10 -->
<g id="node11" class="node">
<title>Node10</title>
<g id="a_node11"><a xlink:href="structures_8hxx.html" target="_top" xlink:title="Data structures. ">
<polygon fill="#ffffff" stroke="#000000" points="865.5,-123.5 865.5,-142.5 944.5,-142.5 944.5,-123.5 865.5,-123.5"/>
<text text-anchor="middle" x="905" y="-130.5" font-family="Helvetica,sans-Serif" font-size="10.00" fill="#000000">structures.hxx</text>
</a>
</g>
</g>
<!-- Node0&#45;&gt;Node10 -->
<g id="edge11" class="edge">
<title>Node0&#45;&gt;Node10</title>
<path fill="none" stroke="#191970" d="M426.5216,-182.712C533.962,-171.5494 756.0221,-148.4782 855.2297,-138.1709"/>
<polygon fill="#191970" stroke="#191970" points="855.7055,-141.6404 865.2902,-137.1257 854.982,-134.6779 855.7055,-141.6404"/>
</g>
<!-- Node6&#45;&gt;Node2 -->
<g id="edge8" class="edge">
<title>Node6&#45;&gt;Node2</title>
<path fill="none" stroke="#191970" d="M231.5612,-123.3463C228.1785,-107.5443 224.0385,-75.9251 239,-56 250.8356,-40.2378 301.8924,-25.3406 335.5553,-16.9694"/>
<polygon fill="#191970" stroke="#191970" points="336.4875,-20.3449 345.3813,-14.5872 334.8382,-13.542 336.4875,-20.3449"/>
</g>
<!-- Node7 -->
<g id="node8" class="node">
<title>Node7</title>
<polygon fill="#ffffff" stroke="#bfbfbf" points="248,-62 248,-81 290,-81 290,-62 248,-62"/>
<text text-anchor="middle" x="269" y="-69" font-family="Helvetica,sans-Serif" font-size="10.00" fill="#000000">locale</text>
</g>
<!-- Node6&#45;&gt;Node7 -->
<g id="edge7" class="edge">
<title>Node6&#45;&gt;Node7</title>
<path fill="none" stroke="#191970" d="M239.4688,-123.3906C244.5246,-114.5068 252.1772,-101.0601 258.4254,-90.0811"/>
<polygon fill="#191970" stroke="#191970" points="261.5498,-91.6672 263.4541,-81.2449 255.466,-88.2048 261.5498,-91.6672"/>
</g>
<!-- Node8 -->
<g id="node9" class="node">
<title>Node8</title>
<polygon fill="#ffffff" stroke="#bfbfbf" points="0,-62 0,-81 62,-81 62,-62 0,-62"/>
<text text-anchor="middle" x="31" y="-69" font-family="Helvetica,sans-Serif" font-size="10.00" fill="#000000">type_traits</text>
</g>
<!-- Node6&#45;&gt;Node8 -->
<g id="edge9" class="edge">
<title>Node6&#45;&gt;Node8</title>
<path fill="none" stroke="#191970" d="M196.4695,-123.4892C163.2329,-114.8108 113.5311,-101.2063 71,-87 68.7351,-86.2435 66.4101,-85.4333 64.0756,-84.5948"/>
<polygon fill="#191970" stroke="#191970" points="65.1474,-81.2593 54.5546,-81.0532 62.7069,-87.8201 65.1474,-81.2593"/>
</g>
<!-- Node9 -->
<g id="node10" class="node">
<title>Node9</title>
<polygon fill="#ffffff" stroke="#bfbfbf" points="80.5,-56.5 80.5,-86.5 191.5,-86.5 191.5,-56.5 80.5,-56.5"/>
<text text-anchor="start" x="88.5" y="-74.5" font-family="Helvetica,sans-Serif" font-size="10.00" fill="#000000">boost/locale/encoding</text>
<text text-anchor="middle" x="136" y="-63.5" font-family="Helvetica,sans-Serif" font-size="10.00" fill="#000000">_utf.hpp</text>
</g>
<!-- Node6&#45;&gt;Node9 -->
<g id="edge10" class="edge">
<title>Node6&#45;&gt;Node9</title>
<path fill="none" stroke="#191970" d="M218.6875,-123.3906C205.3016,-114.9903 185.4147,-102.5103 168.4986,-91.8945"/>
<polygon fill="#191970" stroke="#191970" points="170.3042,-88.8956 159.9735,-86.5446 166.5833,-94.8248 170.3042,-88.8956"/>
</g>
<!-- Node10&#45;&gt;Node2 -->
<g id="edge20" class="edge">
<title>Node10&#45;&gt;Node2</title>
<path fill="none" stroke="#191970" d="M865.455,-130.8237C758.8643,-124.7231 471.0548,-106.6158 433,-87 407.5156,-73.8638 387.4814,-46.5747 376.1879,-28.2698"/>
<polygon fill="#191970" stroke="#191970" points="379.1919,-26.4735 371.0963,-19.639 373.1629,-30.0303 379.1919,-26.4735"/>
</g>
<!-- Node10&#45;&gt;Node4 -->
<g id="edge21" class="edge">
<title>Node10&#45;&gt;Node4</title>
<path fill="none" stroke="#191970" d="M865.1389,-131.1007C761.8999,-125.9055 487.753,-110.2772 400,-87 397.8093,-86.4189 395.5833,-85.7077 393.3724,-84.9128"/>
<polygon fill="#191970" stroke="#191970" points="394.5128,-81.5975 383.9329,-81.0352 391.853,-88.0725 394.5128,-81.5975"/>
</g>
<!-- Node10&#45;&gt;Node5 -->
<g id="edge22" class="edge">
<title>Node10&#45;&gt;Node5</title>
<path fill="none" stroke="#191970" d="M944.5213,-125.2875C983.0978,-116.9818 1038.0997,-102.8132 1053,-87 1067.4848,-71.6278 1071.4327,-47.0307 1072.2706,-29.7836"/>
<polygon fill="#191970" stroke="#191970" points="1075.7718,-29.7431 1072.4515,-19.682 1068.7729,-29.6176 1075.7718,-29.7431"/>
</g>
<!-- Node11 -->
<g id="node12" class="node">
<title>Node11</title>
<g id="a_node12"><a xlink:href="condition_8hxx.html" target="_top" xlink:title="Condition matching. ">
<polygon fill="#ffffff" stroke="#000000" points="970,-62 970,-81 1044,-81 1044,-62 970,-62"/>
<text text-anchor="middle" x="1007" y="-69" font-family="Helvetica,sans-Serif" font-size="10.00" fill="#000000">condition.hxx</text>
</a>
</g>
</g>
<!-- Node10&#45;&gt;Node11 -->
<g id="edge12" class="edge">
<title>Node10&#45;&gt;Node11</title>
<path fill="none" stroke="#191970" d="M920.9375,-123.3906C937.4051,-113.4616 963.3258,-97.833 982.4204,-86.3201"/>
<polygon fill="#191970" stroke="#191970" points="984.4178,-89.2027 991.1744,-81.0419 980.8034,-83.2081 984.4178,-89.2027"/>
</g>
<!-- Node13 -->
<g id="node14" class="node">
<title>Node13</title>
<polygon fill="#ffffff" stroke="#bfbfbf" points="1100,-62 1100,-81 1156,-81 1156,-62 1100,-62"/>
<text text-anchor="middle" x="1128" y="-69" font-family="Helvetica,sans-Serif" font-size="10.00" fill="#000000">algorithm</text>
</g>
<!-- Node10&#45;&gt;Node13 -->
<g id="edge16" class="edge">
<title>Node10&#45;&gt;Node13</title>
<path fill="none" stroke="#191970" d="M944.5227,-124.2137C981.4149,-115.7162 1037.8528,-101.9574 1086,-87 1088.5561,-86.2059 1091.1845,-85.345 1093.8196,-84.4496"/>
<polygon fill="#191970" stroke="#191970" points="1095.0081,-87.7418 1103.2737,-81.1137 1092.6789,-81.1406 1095.0081,-87.7418"/>
</g>
<!-- Node14 -->
<g id="node15" class="node">
<title>Node14</title>
<polygon fill="#ffffff" stroke="#bfbfbf" points="1174,-62 1174,-81 1218,-81 1218,-62 1174,-62"/>
<text text-anchor="middle" x="1196" y="-69" font-family="Helvetica,sans-Serif" font-size="10.00" fill="#000000">cmath</text>
</g>
<!-- Node10&#45;&gt;Node14 -->
<g id="edge17" class="edge">
<title>Node10&#45;&gt;Node14</title>
<path fill="none" stroke="#191970" d="M944.6297,-129.573C996.3733,-124.2942 1089.2721,-112.0433 1165,-87 1166.6103,-86.4675 1168.2419,-85.8643 1169.8704,-85.2125"/>
<polygon fill="#191970" stroke="#191970" points="1171.317,-88.3996 1178.9967,-81.1008 1168.4416,-82.0174 1171.317,-88.3996"/>
</g>
<!-- Node15 -->
<g id="node16" class="node">
<title>Node15</title>
<polygon fill="#ffffff" stroke="#bfbfbf" points="1236.5,-62 1236.5,-81 1283.5,-81 1283.5,-62 1236.5,-62"/>
<text text-anchor="middle" x="1260" y="-69" font-family="Helvetica,sans-Serif" font-size="10.00" fill="#000000">iterator</text>
</g>
<!-- Node10&#45;&gt;Node15 -->
<g id="edge18" class="edge">
<title>Node10&#45;&gt;Node15</title>
<path fill="none" stroke="#191970" d="M944.7164,-131.1173C1006.3238,-127.3581 1128.1246,-116.5601 1227,-87 1228.9103,-86.4289 1230.8501,-85.7637 1232.7833,-85.0361"/>
<polygon fill="#191970" stroke="#191970" points="1234.3896,-88.1565 1242.226,-81.0262 1231.6535,-81.7134 1234.3896,-88.1565"/>
</g>
<!-- Node16 -->
<g id="node17" class="node">
<title>Node16</title>
<polygon fill="#ffffff" stroke="#bfbfbf" points="1301.5,-62 1301.5,-81 1360.5,-81 1360.5,-62 1301.5,-62"/>
<text text-anchor="middle" x="1331" y="-69" font-family="Helvetica,sans-Serif" font-size="10.00" fill="#000000">stdexcept</text>
</g>
<!-- Node10&#45;&gt;Node16 -->
<g id="edge19" class="edge">
<title>Node10&#45;&gt;Node16</title>
<path fill="none" stroke="#191970" d="M944.747,-131.8053C1015.7344,-128.8991 1168.5375,-119.132 1293,-87 1295.6258,-86.3221 1298.3109,-85.5031 1300.9795,-84.6"/>
<polygon fill="#191970" stroke="#191970" points="1302.2967,-87.8442 1310.4368,-81.0627 1299.8443,-81.2878 1302.2967,-87.8442"/>
</g>
<!-- Node17 -->
<g id="node18" class="node">
<title>Node17</title>
<polygon fill="#ffffff" stroke="#bfbfbf" points="442,-56.5 442,-86.5 552,-86.5 552,-56.5 442,-56.5"/>
<text text-anchor="start" x="450" y="-74.5" font-family="Helvetica,sans-Serif" font-size="10.00" fill="#000000">boost/container/small</text>
<text text-anchor="middle" x="497" y="-63.5" font-family="Helvetica,sans-Serif" font-size="10.00" fill="#000000">_vector.hpp</text>
</g>
<!-- Node10&#45;&gt;Node17 -->
<g id="edge23" class="edge">
<title>Node10&#45;&gt;Node17</title>
<path fill="none" stroke="#191970" d="M865.3181,-129.0591C802.8864,-122.5619 677.7608,-108.342 562.1606,-87.1019"/>
<polygon fill="#191970" stroke="#191970" points="562.5503,-83.6145 552.0789,-85.2269 561.2703,-90.4964 562.5503,-83.6145"/>
</g>
<!-- Node18 -->
<g id="node19" class="node">
<title>Node18</title>
<polygon fill="#ffffff" stroke="#bfbfbf" points="570,-62 570,-81 720,-81 720,-62 570,-62"/>
<text text-anchor="middle" x="645" y="-69" font-family="Helvetica,sans-Serif" font-size="10.00" fill="#000000">boost/multi_index/member.hpp</text>
</g>
<!-- Node10&#45;&gt;Node18 -->
<g id="edge24" class="edge">
<title>Node10&#45;&gt;Node18</title>
<path fill="none" stroke="#191970" d="M865.2286,-123.5925C819.5805,-112.795 744.6443,-95.0697 695.0632,-83.3419"/>
<polygon fill="#191970" stroke="#191970" points="695.7317,-79.9035 685.1946,-81.0076 694.1204,-86.7155 695.7317,-79.9035"/>
</g>
<!-- Node19 -->
<g id="node20" class="node">
<title>Node19</title>
<polygon fill="#ffffff" stroke="#bfbfbf" points="738.5,-56.5 738.5,-86.5 839.5,-86.5 839.5,-56.5 738.5,-56.5"/>
<text text-anchor="start" x="746.5" y="-74.5" font-family="Helvetica,sans-Serif" font-size="10.00" fill="#000000">boost/range/iterator</text>
<text text-anchor="middle" x="789" y="-63.5" font-family="Helvetica,sans-Serif" font-size="10.00" fill="#000000">_range_core.hpp</text>
</g>
<!-- Node10&#45;&gt;Node19 -->
<g id="edge25" class="edge">
<title>Node10&#45;&gt;Node19</title>
<path fill="none" stroke="#191970" d="M886.875,-123.3906C870.7397,-114.8361 846.6245,-102.0509 826.3691,-91.3121"/>
<polygon fill="#191970" stroke="#191970" points="827.8514,-88.1365 817.3768,-86.5446 824.5724,-94.3211 827.8514,-88.1365"/>
</g>
<!-- Node20 -->
<g id="node21" class="node">
<title>Node20</title>
<polygon fill="#ffffff" stroke="#bfbfbf" points="858,-56.5 858,-86.5 952,-86.5 952,-56.5 858,-56.5"/>
<text text-anchor="start" x="866" y="-74.5" font-family="Helvetica,sans-Serif" font-size="10.00" fill="#000000">boost/utility/string</text>
<text text-anchor="middle" x="905" y="-63.5" font-family="Helvetica,sans-Serif" font-size="10.00" fill="#000000">_view.hpp</text>
</g>
<!-- Node10&#45;&gt;Node20 -->
<g id="edge26" class="edge">
<title>Node10&#45;&gt;Node20</title>
<path fill="none" stroke="#191970" d="M905,-123.3906C905,-116.2234 905,-106.0862 905,-96.671"/>
<polygon fill="#191970" stroke="#191970" points="908.5001,-96.5446 905,-86.5446 901.5001,-96.5446 908.5001,-96.5446"/>
</g>
<!-- Node11&#45;&gt;Node2 -->
<g id="edge13" class="edge">
<title>Node11&#45;&gt;Node2</title>
<path fill="none" stroke="#191970" d="M982.4807,-61.9874C975.6229,-59.6718 968.1014,-57.4475 961,-56 851.1963,-33.6179 502.1135,-16.2163 396.538,-11.3596"/>
<polygon fill="#191970" stroke="#191970" points="396.6907,-7.863 386.5417,-10.9039 396.3719,-14.8558 396.6907,-7.863"/>
</g>
<!-- Node11&#45;&gt;Node5 -->
<g id="edge15" class="edge">
<title>Node11&#45;&gt;Node5</title>
<path fill="none" stroke="#191970" d="M1017.1563,-61.8906C1027.0199,-52.5581 1042.2055,-38.1902 1054.0987,-26.9374"/>
<polygon fill="#191970" stroke="#191970" points="1056.8421,-29.1601 1061.7006,-19.7449 1052.0311,-24.0753 1056.8421,-29.1601"/>
</g>
<!-- Node12 -->
<g id="node13" class="node">
<title>Node12</title>
<polygon fill="#ffffff" stroke="#bfbfbf" points="988,-.5 988,-19.5 1026,-19.5 1026,-.5 988,-.5"/>
<text text-anchor="middle" x="1007" y="-7.5" font-family="Helvetica,sans-Serif" font-size="10.00" fill="#000000">tuple</text>
</g>
<!-- Node11&#45;&gt;Node12 -->
<g id="edge14" class="edge">
<title>Node11&#45;&gt;Node12</title>
<path fill="none" stroke="#191970" d="M1007,-61.8906C1007,-53.3657 1007,-40.6392 1007,-29.9235"/>
<polygon fill="#191970" stroke="#191970" points="1010.5001,-29.7448 1007,-19.7449 1003.5001,-29.7449 1010.5001,-29.7448"/>
</g>
</g>
</svg>
