<?xml version="1.0" encoding="UTF-8" standalone="no"?>
<!DOCTYPE svg PUBLIC "-//W3C//DTD SVG 1.1//EN"
 "http://www.w3.org/Graphics/SVG/1.1/DTD/svg11.dtd">
<!-- Generated by graphviz version 2.40.1 (20161225.0304)
 -->
<!-- Title: My_Dictionary Pages: 1 -->
<svg width="1497pt" height="587pt"
 viewBox="0.00 0.00 1497.00 586.50" xmlns="http://www.w3.org/2000/svg" xmlns:xlink="http://www.w3.org/1999/xlink">
<g id="graph0" class="graph" transform="scale(1 1) rotate(0) translate(4 582.5)">
<title>My_Dictionary</title>
<polygon fill="#ffffff" stroke="transparent" points="-4,4 -4,-582.5 1493,-582.5 1493,4 -4,4"/>
<!-- Node4 -->
<g id="node1" class="node">
<title>Node4</title>
<polygon fill="#bfbfbf" stroke="#000000" points="1409,-262 1409,-281 1489,-281 1489,-262 1409,-262"/>
<text text-anchor="middle" x="1449" y="-269" font-family="Helvetica,sans-Serif" font-size="10.00" fill="#000000">My_Dictionary</text>
</g>
<!-- Node5 -->
<g id="node2" class="node">
<title>Node5</title>
<g id="a_node2"><a xlink:href="classnuspell_1_1_basic___dictionary.html" target="_top" xlink:title="Dictionary">
<polygon fill="#ffffff" stroke="#000000" points="1244.5,-284 1244.5,-303 1305.5,-303 1305.5,-284 1244.5,-284"/>
<text text-anchor="middle" x="1275" y="-291" font-family="Helvetica,sans-Serif" font-size="10.00" fill="#000000">Dictionary</text>
</a>
</g>
</g>
<!-- Node5&#45;&gt;Node4 -->
<g id="edge1" class="edge">
<title>Node5&#45;&gt;Node4</title>
<path fill="none" stroke="#191970" d="M1315.9682,-288.3201C1343.9818,-284.7782 1380.9384,-280.1055 1408.7889,-276.5842"/>
<polygon fill="#191970" stroke="#191970" points="1315.1891,-284.8907 1305.7072,-289.6175 1316.0673,-291.8354 1315.1891,-284.8907"/>
</g>
<!-- Node6 -->
<g id="node3" class="node">
<title>Node6</title>
<g id="a_node3"><a xlink:href="structnuspell_1_1_dict___base.html" target="_top" xlink:title="nuspell::Dict_Base">
<polygon fill="#ffffff" stroke="#000000" points="1027,-284 1027,-303 1126,-303 1126,-284 1027,-284"/>
<text text-anchor="middle" x="1076.5" y="-291" font-family="Helvetica,sans-Serif" font-size="10.00" fill="#000000">nuspell::Dict_Base</text>
</a>
</g>
</g>
<!-- Node6&#45;&gt;Node5 -->
<g id="edge2" class="edge">
<title>Node6&#45;&gt;Node5</title>
<path fill="none" stroke="#006400" d="M1136.3549,-293.5C1171.9289,-293.5 1215.5633,-293.5 1244.2659,-293.5"/>
<polygon fill="#006400" stroke="#006400" points="1136.0779,-290.0001 1126.0779,-293.5 1136.0779,-297.0001 1136.0779,-290.0001"/>
</g>
<!-- Node7 -->
<g id="node4" class="node">
<title>Node7</title>
<g id="a_node4"><a xlink:href="structnuspell_1_1_aff___data.html" target="_top" xlink:title="nuspell::Aff_Data">
<polygon fill="#ffffff" stroke="#000000" points="898,-284 898,-303 990,-303 990,-284 898,-284"/>
<text text-anchor="middle" x="944" y="-291" font-family="Helvetica,sans-Serif" font-size="10.00" fill="#000000">nuspell::Aff_Data</text>
</a>
</g>
</g>
<!-- Node7&#45;&gt;Node6 -->
<g id="edge3" class="edge">
<title>Node7&#45;&gt;Node6</title>
<path fill="none" stroke="#191970" d="M1000.4732,-293.5C1009.2267,-293.5 1018.213,-293.5 1026.8026,-293.5"/>
<polygon fill="#191970" stroke="#191970" points="1000.3421,-290.0001 990.3421,-293.5 1000.342,-297.0001 1000.3421,-290.0001"/>
</g>
<!-- Node8 -->
<g id="node5" class="node">
<title>Node8</title>
<g id="a_node5"><a xlink:href="structnuspell_1_1_aff___structures.html" target="_top" xlink:title="nuspell::Aff_Structures\l\&lt; char \&gt;">
<polygon fill="#ffffff" stroke="#000000" points="673,-392.5 673,-422.5 789,-422.5 789,-392.5 673,-392.5"/>
<text text-anchor="start" x="681" y="-410.5" font-family="Helvetica,sans-Serif" font-size="10.00" fill="#000000">nuspell::Aff_Structures</text>
<text text-anchor="middle" x="731" y="-399.5" font-family="Helvetica,sans-Serif" font-size="10.00" fill="#000000">&lt; char &gt;</text>
</a>
</g>
</g>
<!-- Node8&#45;&gt;Node7 -->
<g id="edge4" class="edge">
<title>Node8&#45;&gt;Node7</title>
<path fill="none" stroke="#9a32cd" stroke-dasharray="5,2" d="M768.3902,-387.4884C814.6726,-362.7175 891.6038,-321.543 926.1933,-303.0304"/>
<polygon fill="#9a32cd" stroke="#9a32cd" points="766.4498,-384.557 759.2848,-392.3617 769.753,-390.7287 766.4498,-384.557"/>
<text text-anchor="middle" x="843.5" y="-367.5" font-family="Helvetica,sans-Serif" font-size="10.00" fill="#000000"> structures</text>
</g>
<!-- Node9 -->
<g id="node6" class="node">
<title>Node9</title>
<g id="a_node6"><a xlink:href="classnuspell_1_1_break___table.html" target="_top" xlink:title="nuspell::Break_Table\l\&lt; char \&gt;">
<polygon fill="#ffffff" stroke="#000000" points="394,-371.5 394,-401.5 502,-401.5 502,-371.5 394,-371.5"/>
<text text-anchor="start" x="402" y="-389.5" font-family="Helvetica,sans-Serif" font-size="10.00" fill="#000000">nuspell::Break_Table</text>
<text text-anchor="middle" x="448" y="-378.5" font-family="Helvetica,sans-Serif" font-size="10.00" fill="#000000">&lt; char &gt;</text>
</a>
</g>
</g>
<!-- Node9&#45;&gt;Node8 -->
<g id="edge5" class="edge">
<title>Node9&#45;&gt;Node8</title>
<path fill="none" stroke="#9a32cd" stroke-dasharray="5,2" d="M512.2766,-387.4228C553.2133,-388.4728 607.3216,-390.7149 655,-395.5 660.8481,-396.0869 666.931,-396.8266 672.9953,-397.6491"/>
<polygon fill="#9a32cd" stroke="#9a32cd" points="512.2457,-383.9212 502.1647,-387.1807 512.0781,-390.9192 512.2457,-383.9212"/>
<text text-anchor="middle" x="592" y="-398.5" font-family="Helvetica,sans-Serif" font-size="10.00" fill="#000000"> break_table</text>
</g>
<!-- Node10 -->
<g id="node7" class="node">
<title>Node10</title>
<g id="a_node7"><a xlink:href="classnuspell_1_1_substr___replacer.html" target="_top" xlink:title="nuspell::Substr_Replacer\l\&lt; char \&gt;">
<polygon fill="#ffffff" stroke="#000000" points="385,-322.5 385,-352.5 511,-352.5 511,-322.5 385,-322.5"/>
<text text-anchor="start" x="393" y="-340.5" font-family="Helvetica,sans-Serif" font-size="10.00" fill="#000000">nuspell::Substr_Replacer</text>
<text text-anchor="middle" x="448" y="-329.5" font-family="Helvetica,sans-Serif" font-size="10.00" fill="#000000">&lt; char &gt;</text>
</a>
</g>
</g>
<!-- Node10&#45;&gt;Node8 -->
<g id="edge6" class="edge">
<title>Node10&#45;&gt;Node8</title>
<path fill="none" stroke="#9a32cd" stroke-dasharray="5,2" d="M521.1178,-338.9851C561.4961,-341.61 612.0266,-347.9056 655,-362.5 675.3272,-369.4034 696.151,-382.2145 710.849,-392.4071"/>
<polygon fill="#9a32cd" stroke="#9a32cd" points="521.2702,-335.4881 511.0817,-338.394 520.8586,-342.476 521.2702,-335.4881"/>
<text text-anchor="middle" x="592" y="-376.5" font-family="Helvetica,sans-Serif" font-size="10.00" fill="#000000"> input_substr_replacer</text>
<text text-anchor="middle" x="592" y="-365.5" font-family="Helvetica,sans-Serif" font-size="10.00" fill="#000000">output_substr_replacer</text>
</g>
<!-- Node11 -->
<g id="node8" class="node">
<title>Node11</title>
<g id="a_node8"><a xlink:href="classnuspell_1_1_affix___table.html" target="_top" xlink:title="nuspell::Affix_Table\l\&lt; char \&gt;">
<polygon fill="#ffffff" stroke="#000000" points="396.5,-420.5 396.5,-450.5 499.5,-450.5 499.5,-420.5 396.5,-420.5"/>
<text text-anchor="start" x="404.5" y="-438.5" font-family="Helvetica,sans-Serif" font-size="10.00" fill="#000000">nuspell::Affix_Table</text>
<text text-anchor="middle" x="448" y="-427.5" font-family="Helvetica,sans-Serif" font-size="10.00" fill="#000000">&lt; char &gt;</text>
</a>
</g>
</g>
<!-- Node11&#45;&gt;Node8 -->
<g id="edge7" class="edge">
<title>Node11&#45;&gt;Node8</title>
<path fill="none" stroke="#9a32cd" stroke-dasharray="5,2" d="M509.6386,-429.4015C558.1781,-424.599 625.3597,-417.952 672.9482,-413.2436"/>
<polygon fill="#9a32cd" stroke="#9a32cd" points="509.1843,-425.9293 499.5775,-430.3969 509.8735,-432.8952 509.1843,-425.9293"/>
<text text-anchor="middle" x="592" y="-441.5" font-family="Helvetica,sans-Serif" font-size="10.00" fill="#000000"> suffixes</text>
<text text-anchor="middle" x="592" y="-430.5" font-family="Helvetica,sans-Serif" font-size="10.00" fill="#000000">prefixes</text>
</g>
<!-- Node12 -->
<g id="node9" class="node">
<title>Node12</title>
<g id="a_node9"><a xlink:href="classnuspell_1_1_hash___multiset.html" target="_top" xlink:title="Affix_Table_Base\&lt; char\l , AffixT \&gt;">
<polygon fill="#ffffff" stroke="#000000" points="159.5,-382.5 159.5,-412.5 281.5,-412.5 281.5,-382.5 159.5,-382.5"/>
<text text-anchor="start" x="167.5" y="-400.5" font-family="Helvetica,sans-Serif" font-size="10.00" fill="#000000">Affix_Table_Base&lt; char</text>
<text text-anchor="middle" x="220.5" y="-389.5" font-family="Helvetica,sans-Serif" font-size="10.00" fill="#000000"> , AffixT &gt;</text>
</a>
</g>
</g>
<!-- Node12&#45;&gt;Node11 -->
<g id="edge8" class="edge">
<title>Node12&#45;&gt;Node11</title>
<path fill="none" stroke="#8b1a1a" d="M292.051,-409.4514C325.8454,-415.0962 365.4299,-421.7081 396.2611,-426.8579"/>
<polygon fill="#8b1a1a" stroke="#8b1a1a" points="292.2051,-405.9287 281.7651,-407.7333 291.0518,-412.833 292.2051,-405.9287"/>
</g>
<!-- Node13 -->
<g id="node10" class="node">
<title>Node13</title>
<polygon fill="#ffffff" stroke="#bfbfbf" points="3,-409 3,-428 62,-428 62,-409 3,-409"/>
<text text-anchor="middle" x="32.5" y="-416" font-family="Helvetica,sans-Serif" font-size="10.00" fill="#000000">KeyEqual</text>
</g>
<!-- Node13&#45;&gt;Node12 -->
<g id="edge9" class="edge">
<title>Node13&#45;&gt;Node12</title>
<path fill="none" stroke="#9a32cd" stroke-dasharray="5,2" d="M72.2489,-414.06C97.5205,-411.2371 130.7464,-407.5257 159.337,-404.332"/>
<polygon fill="#9a32cd" stroke="#9a32cd" points="71.8388,-410.5839 62.2892,-415.1725 72.6159,-417.5406 71.8388,-410.5839"/>
<text text-anchor="middle" x="110.5" y="-415.5" font-family="Helvetica,sans-Serif" font-size="10.00" fill="#000000"> equal</text>
</g>
<!-- Node24 -->
<g id="node21" class="node">
<title>Node24</title>
<g id="a_node21"><a xlink:href="classnuspell_1_1_hash___multiset.html" target="_top" xlink:title="Affix_Table_Base\&lt; wchar\l_t , AffixT \&gt;">
<polygon fill="#ffffff" stroke="#000000" points="156,-229.5 156,-259.5 285,-259.5 285,-229.5 156,-229.5"/>
<text text-anchor="start" x="164" y="-247.5" font-family="Helvetica,sans-Serif" font-size="10.00" fill="#000000">Affix_Table_Base&lt; wchar</text>
<text text-anchor="middle" x="220.5" y="-236.5" font-family="Helvetica,sans-Serif" font-size="10.00" fill="#000000">_t , AffixT &gt;</text>
</a>
</g>
</g>
<!-- Node13&#45;&gt;Node24 -->
<g id="edge21" class="edge">
<title>Node13&#45;&gt;Node24</title>
<path fill="none" stroke="#9a32cd" stroke-dasharray="5,2" d="M62.3575,-402.4978C63.302,-401.5445 64.1885,-400.5455 65,-399.5 82.855,-376.4957 67.1319,-360.9173 83,-336.5 100.3648,-309.7798 115.5886,-313.1547 138,-290.5 146.8849,-281.5187 145.7226,-275.8471 156,-268.5 160.7627,-265.0953 166.0652,-262.1146 171.5264,-259.5205"/>
<polygon fill="#9a32cd" stroke="#9a32cd" points="59.9178,-399.9658 54.262,-408.9247 64.2702,-405.4482 59.9178,-399.9658"/>
<text text-anchor="middle" x="110.5" y="-339.5" font-family="Helvetica,sans-Serif" font-size="10.00" fill="#000000"> equal</text>
</g>
<!-- Node27 -->
<g id="node24" class="node">
<title>Node27</title>
<g id="a_node24"><a xlink:href="classnuspell_1_1_hash___multiset.html" target="_top" xlink:title="Word_List_Base">
<polygon fill="#ffffff" stroke="#000000" points="176,-490 176,-509 265,-509 265,-490 176,-490"/>
<text text-anchor="middle" x="220.5" y="-497" font-family="Helvetica,sans-Serif" font-size="10.00" fill="#000000">Word_List_Base</text>
</a>
</g>
</g>
<!-- Node13&#45;&gt;Node27 -->
<g id="edge28" class="edge">
<title>Node13&#45;&gt;Node27</title>
<path fill="none" stroke="#9a32cd" stroke-dasharray="5,2" d="M39.2087,-437.4705C46.7619,-455.6695 60.9423,-482.1522 83,-494.5 111.0347,-510.1936 147.5659,-510.7769 175.9271,-507.7954"/>
<polygon fill="#9a32cd" stroke="#9a32cd" points="42.4658,-436.1889 35.6019,-428.1182 35.9347,-438.7078 42.4658,-436.1889"/>
<text text-anchor="middle" x="110.5" y="-512.5" font-family="Helvetica,sans-Serif" font-size="10.00" fill="#000000"> equal</text>
</g>
<!-- Node14 -->
<g id="node11" class="node">
<title>Node14</title>
<polygon fill="#ffffff" stroke="#bfbfbf" points="0,-371 0,-390 65,-390 65,-371 0,-371"/>
<text text-anchor="middle" x="32.5" y="-378" font-family="Helvetica,sans-Serif" font-size="10.00" fill="#000000">KeyExtract</text>
</g>
<!-- Node14&#45;&gt;Node12 -->
<g id="edge10" class="edge">
<title>Node14&#45;&gt;Node12</title>
<path fill="none" stroke="#9a32cd" stroke-dasharray="5,2" d="M75.6023,-379.14C94.7551,-378.9908 117.5489,-379.4373 138,-381.5 144.9677,-382.2028 152.223,-383.2045 159.4129,-384.3684"/>
<polygon fill="#9a32cd" stroke="#9a32cd" points="75.3264,-375.6433 65.3745,-379.2777 75.4207,-382.6427 75.3264,-375.6433"/>
<text text-anchor="middle" x="110.5" y="-384.5" font-family="Helvetica,sans-Serif" font-size="10.00" fill="#000000"> key_extract</text>
</g>
<!-- Node14&#45;&gt;Node24 -->
<g id="edge22" class="edge">
<title>Node14&#45;&gt;Node24</title>
<path fill="none" stroke="#9a32cd" stroke-dasharray="5,2" d="M62.5179,-364.4798C63.4103,-363.5334 64.243,-362.5405 65,-361.5 86.9499,-331.3271 57.0575,-306.3176 83,-279.5 93.4901,-268.656 125.4252,-260.1759 155.8798,-254.2803"/>
<polygon fill="#9a32cd" stroke="#9a32cd" points="60.2786,-361.7897 54.7767,-370.844 64.724,-367.197 60.2786,-361.7897"/>
<text text-anchor="middle" x="110.5" y="-282.5" font-family="Helvetica,sans-Serif" font-size="10.00" fill="#000000"> key_extract</text>
</g>
<!-- Node14&#45;&gt;Node27 -->
<g id="edge29" class="edge">
<title>Node14&#45;&gt;Node27</title>
<path fill="none" stroke="#9a32cd" stroke-dasharray="5,2" d="M62.3461,-396.5111C63.2937,-397.4619 64.184,-398.458 65,-399.5 82.4279,-421.7549 62.9071,-440.6182 83,-460.5 90.0111,-467.4374 141.3547,-480.8018 179.257,-489.9335"/>
<polygon fill="#9a32cd" stroke="#9a32cd" points="64.2509,-393.5552 54.2371,-390.0947 59.9073,-399.0445 64.2509,-393.5552"/>
<text text-anchor="middle" x="110.5" y="-482.5" font-family="Helvetica,sans-Serif" font-size="10.00" fill="#000000"> key_extract</text>
</g>
<!-- Node15 -->
<g id="node12" class="node">
<title>Node15</title>
<polygon fill="#ffffff" stroke="#bfbfbf" points="12.5,-333 12.5,-352 52.5,-352 52.5,-333 12.5,-333"/>
<text text-anchor="middle" x="32.5" y="-340" font-family="Helvetica,sans-Serif" font-size="10.00" fill="#000000">Hash</text>
</g>
<!-- Node15&#45;&gt;Node12 -->
<g id="edge11" class="edge">
<title>Node15&#45;&gt;Node12</title>
<path fill="none" stroke="#9a32cd" stroke-dasharray="5,2" d="M62.6625,-347.342C83.9546,-351.11 113.0228,-356.9636 138,-364.5 154.3932,-369.4463 172.0807,-376.3074 186.8581,-382.4928"/>
<polygon fill="#9a32cd" stroke="#9a32cd" points="63.0419,-343.856 52.5938,-345.6128 61.857,-350.755 63.0419,-343.856"/>
<text text-anchor="middle" x="110.5" y="-367.5" font-family="Helvetica,sans-Serif" font-size="10.00" fill="#000000"> hash</text>
</g>
<!-- Node15&#45;&gt;Node24 -->
<g id="edge23" class="edge">
<title>Node15&#45;&gt;Node24</title>
<path fill="none" stroke="#9a32cd" stroke-dasharray="5,2" d="M36.4309,-322.7807C42.208,-299.6602 55.4424,-262.359 83,-245.5 104.3819,-232.4191 131.3553,-229.9005 155.7364,-231.4802"/>
<polygon fill="#9a32cd" stroke="#9a32cd" points="32.9482,-322.3151 34.1639,-332.8399 39.7769,-323.8541 32.9482,-322.3151"/>
<text text-anchor="middle" x="110.5" y="-248.5" font-family="Helvetica,sans-Serif" font-size="10.00" fill="#000000"> hash</text>
</g>
<!-- Node15&#45;&gt;Node27 -->
<g id="edge30" class="edge">
<title>Node15&#45;&gt;Node27</title>
<path fill="none" stroke="#9a32cd" stroke-dasharray="5,2" d="M60.8589,-357.0444C62.374,-358.4231 63.7742,-359.9073 65,-361.5 83.283,-385.255 62.8294,-404.3254 83,-426.5 100.6066,-445.8559 114.5958,-435.8002 138,-447.5 163.5931,-460.294 191.3493,-478.8579 207.259,-489.9978"/>
<polygon fill="#9a32cd" stroke="#9a32cd" points="62.7423,-354.0858 52.6024,-351.0145 58.6138,-359.7388 62.7423,-354.0858"/>
<text text-anchor="middle" x="110.5" y="-450.5" font-family="Helvetica,sans-Serif" font-size="10.00" fill="#000000"> hash</text>
</g>
<!-- Node16 -->
<g id="node13" class="node">
<title>Node16</title>
<g id="a_node13"><a xlink:href="classnuspell_1_1_string___set.html" target="_top" xlink:title="nuspell::String_Set\l\&lt; char16_t \&gt;">
<polygon fill="#ffffff" stroke="#000000" points="171,-278.5 171,-308.5 270,-308.5 270,-278.5 171,-278.5"/>
<text text-anchor="start" x="179" y="-296.5" font-family="Helvetica,sans-Serif" font-size="10.00" fill="#000000">nuspell::String_Set</text>
<text text-anchor="middle" x="220.5" y="-285.5" font-family="Helvetica,sans-Serif" font-size="10.00" fill="#000000">&lt; char16_t &gt;</text>
</a>
</g>
</g>
<!-- Node16&#45;&gt;Node7 -->
<g id="edge31" class="edge">
<title>Node16&#45;&gt;Node7</title>
<path fill="none" stroke="#9a32cd" stroke-dasharray="5,2" d="M280.4098,-293.5C421.3423,-293.5 771.4701,-293.5 897.7017,-293.5"/>
<polygon fill="#9a32cd" stroke="#9a32cd" points="280.2291,-290.0001 270.2291,-293.5 280.2291,-297.0001 280.2291,-290.0001"/>
<text text-anchor="middle" x="592" y="-296.5" font-family="Helvetica,sans-Serif" font-size="10.00" fill="#000000"> compound_syllable_num</text>
</g>
<!-- Node16&#45;&gt;Node11 -->
<g id="edge12" class="edge">
<title>Node16&#45;&gt;Node11</title>
<path fill="none" stroke="#9a32cd" stroke-dasharray="5,2" d="M250.1376,-314.4333C279.7663,-335.3855 326.6068,-368.5768 367,-397.5 375.0235,-403.2451 376.3475,-405.7548 385,-410.5 391.5,-414.0647 398.6162,-417.389 405.6517,-420.3752"/>
<polygon fill="#9a32cd" stroke="#9a32cd" points="252.0753,-311.517 241.8893,-308.6023 248.0345,-317.2329 252.0753,-311.517"/>
<text text-anchor="middle" x="335" y="-400.5" font-family="Helvetica,sans-Serif" font-size="10.00" fill="#000000"> all_cont_flags</text>
</g>
<!-- Node23 -->
<g id="node20" class="node">
<title>Node23</title>
<g id="a_node20"><a xlink:href="classnuspell_1_1_affix___table.html" target="_top" xlink:title="nuspell::Affix_Table\l\&lt; wchar_t \&gt;">
<polygon fill="#ffffff" stroke="#000000" points="396.5,-49.5 396.5,-79.5 499.5,-79.5 499.5,-49.5 396.5,-49.5"/>
<text text-anchor="start" x="404.5" y="-67.5" font-family="Helvetica,sans-Serif" font-size="10.00" fill="#000000">nuspell::Affix_Table</text>
<text text-anchor="middle" x="448" y="-56.5" font-family="Helvetica,sans-Serif" font-size="10.00" fill="#000000">&lt; wchar_t &gt;</text>
</a>
</g>
</g>
<!-- Node16&#45;&gt;Node23 -->
<g id="edge24" class="edge">
<title>Node16&#45;&gt;Node23</title>
<path fill="none" stroke="#9a32cd" stroke-dasharray="5,2" d="M278.9989,-273.6701C281.1258,-272.0749 283.1394,-270.3547 285,-268.5 300.5487,-253.0012 292.1323,-241.5754 303,-222.5 325.8852,-182.331 344.9175,-181.1159 367,-140.5 378.6819,-119.0138 367.9744,-106.0571 385,-88.5 388.3407,-85.055 392.2273,-82.0979 396.3992,-79.5608"/>
<polygon fill="#9a32cd" stroke="#9a32cd" points="276.8558,-270.8862 270.3182,-279.2234 280.6281,-276.7828 276.8558,-270.8862"/>
<text text-anchor="middle" x="335" y="-225.5" font-family="Helvetica,sans-Serif" font-size="10.00" fill="#000000"> all_cont_flags</text>
</g>
<!-- Node28 -->
<g id="node25" class="node">
<title>Node28</title>
<g id="a_node25"><a xlink:href="classnuspell_1_1_compound___rule___table.html" target="_top" xlink:title="nuspell::Compound_Rule\l_Table">
<polygon fill="#ffffff" stroke="#000000" points="529,-239.5 529,-269.5 655,-269.5 655,-239.5 529,-239.5"/>
<text text-anchor="start" x="537" y="-257.5" font-family="Helvetica,sans-Serif" font-size="10.00" fill="#000000">nuspell::Compound_Rule</text>
<text text-anchor="middle" x="592" y="-246.5" font-family="Helvetica,sans-Serif" font-size="10.00" fill="#000000">_Table</text>
</a>
</g>
</g>
<!-- Node16&#45;&gt;Node28 -->
<g id="edge33" class="edge">
<title>Node16&#45;&gt;Node28</title>
<path fill="none" stroke="#9a32cd" stroke-dasharray="5,2" d="M272.6268,-275.5989C282.6052,-272.7743 293.0458,-270.2222 303,-268.5 379.968,-255.1833 470.0617,-252.8789 528.9372,-253.1218"/>
<polygon fill="#9a32cd" stroke="#9a32cd" points="271.4346,-272.3016 262.8376,-278.4937 273.4197,-279.0142 271.4346,-272.3016"/>
<text text-anchor="middle" x="335" y="-271.5" font-family="Helvetica,sans-Serif" font-size="10.00" fill="#000000"> all_flags</text>
</g>
<!-- Node17 -->
<g id="node14" class="node">
<title>Node17</title>
<g id="a_node14"><a xlink:href="classnuspell_1_1_phonetic___table.html" target="_top" xlink:title="nuspell::Phonetic_Table\l\&lt; char \&gt;">
<polygon fill="#ffffff" stroke="#000000" points="387.5,-518.5 387.5,-548.5 508.5,-548.5 508.5,-518.5 387.5,-518.5"/>
<text text-anchor="start" x="395.5" y="-536.5" font-family="Helvetica,sans-Serif" font-size="10.00" fill="#000000">nuspell::Phonetic_Table</text>
<text text-anchor="middle" x="448" y="-525.5" font-family="Helvetica,sans-Serif" font-size="10.00" fill="#000000">&lt; char &gt;</text>
</a>
</g>
</g>
<!-- Node17&#45;&gt;Node8 -->
<g id="edge13" class="edge">
<title>Node17&#45;&gt;Node8</title>
<path fill="none" stroke="#9a32cd" stroke-dasharray="5,2" d="M518.8316,-531.6321C560.7857,-527.8284 613.649,-518.1486 655,-494.5 685.641,-476.9764 710.0725,-442.4267 722.3499,-422.5444"/>
<polygon fill="#9a32cd" stroke="#9a32cd" points="518.3721,-528.1578 508.689,-532.4576 518.94,-535.1347 518.3721,-528.1578"/>
<text text-anchor="middle" x="592" y="-533.5" font-family="Helvetica,sans-Serif" font-size="10.00" fill="#000000"> phonetic_table</text>
</g>
<!-- Node18 -->
<g id="node15" class="node">
<title>Node18</title>
<g id="a_node15"><a xlink:href="classnuspell_1_1_replacement___table.html" target="_top" xlink:title="nuspell::Replacement\l_Table\&lt; char \&gt;">
<polygon fill="#ffffff" stroke="#000000" points="392.5,-469.5 392.5,-499.5 503.5,-499.5 503.5,-469.5 392.5,-469.5"/>
<text text-anchor="start" x="400.5" y="-487.5" font-family="Helvetica,sans-Serif" font-size="10.00" fill="#000000">nuspell::Replacement</text>
<text text-anchor="middle" x="448" y="-476.5" font-family="Helvetica,sans-Serif" font-size="10.00" fill="#000000">_Table&lt; char &gt;</text>
</a>
</g>
</g>
<!-- Node18&#45;&gt;Node8 -->
<g id="edge14" class="edge">
<title>Node18&#45;&gt;Node8</title>
<path fill="none" stroke="#9a32cd" stroke-dasharray="5,2" d="M513.9274,-481.2762C555.4203,-477.6416 609.5313,-469.9156 655,-453.5 675.4543,-446.1154 696.4323,-432.9108 711.1521,-422.5375"/>
<polygon fill="#9a32cd" stroke="#9a32cd" points="513.6141,-477.7901 503.9331,-482.0945 514.1853,-484.7668 513.6141,-477.7901"/>
<text text-anchor="middle" x="592" y="-482.5" font-family="Helvetica,sans-Serif" font-size="10.00" fill="#000000"> replacements</text>
</g>
<!-- Node19 -->
<g id="node16" class="node">
<title>Node19</title>
<g id="a_node16"><a xlink:href="structnuspell_1_1_aff___structures.html" target="_top" xlink:title="nuspell::Aff_Structures\l\&lt; wchar_t \&gt;">
<polygon fill="#ffffff" stroke="#000000" points="673,-122.5 673,-152.5 789,-152.5 789,-122.5 673,-122.5"/>
<text text-anchor="start" x="681" y="-140.5" font-family="Helvetica,sans-Serif" font-size="10.00" fill="#000000">nuspell::Aff_Structures</text>
<text text-anchor="middle" x="731" y="-129.5" font-family="Helvetica,sans-Serif" font-size="10.00" fill="#000000">&lt; wchar_t &gt;</text>
</a>
</g>
</g>
<!-- Node19&#45;&gt;Node7 -->
<g id="edge15" class="edge">
<title>Node19&#45;&gt;Node7</title>
<path fill="none" stroke="#9a32cd" stroke-dasharray="5,2" d="M768.545,-157.4597C799.6676,-174.7461 844.4102,-201.3458 880,-229.5 901.6896,-246.6581 923.806,-270.4738 935.5106,-283.683"/>
<polygon fill="#9a32cd" stroke="#9a32cd" points="770.1972,-154.374 759.7485,-152.6203 766.823,-160.5071 770.1972,-154.374"/>
<text text-anchor="middle" x="843.5" y="-232.5" font-family="Helvetica,sans-Serif" font-size="10.00" fill="#000000"> wide_structures</text>
</g>
<!-- Node20 -->
<g id="node17" class="node">
<title>Node20</title>
<g id="a_node17"><a xlink:href="classnuspell_1_1_replacement___table.html" target="_top" xlink:title="nuspell::Replacement\l_Table\&lt; wchar_t \&gt;">
<polygon fill="#ffffff" stroke="#000000" points="392.5,-196.5 392.5,-226.5 503.5,-226.5 503.5,-196.5 392.5,-196.5"/>
<text text-anchor="start" x="400.5" y="-214.5" font-family="Helvetica,sans-Serif" font-size="10.00" fill="#000000">nuspell::Replacement</text>
<text text-anchor="middle" x="448" y="-203.5" font-family="Helvetica,sans-Serif" font-size="10.00" fill="#000000">_Table&lt; wchar_t &gt;</text>
</a>
</g>
</g>
<!-- Node20&#45;&gt;Node19 -->
<g id="edge16" class="edge">
<title>Node20&#45;&gt;Node19</title>
<path fill="none" stroke="#9a32cd" stroke-dasharray="5,2" d="M513.6276,-202.1908C554.7832,-195.4511 608.6389,-184.9729 655,-170.5 670.3788,-165.6991 686.848,-158.7826 700.51,-152.5205"/>
<polygon fill="#9a32cd" stroke="#9a32cd" points="513.0365,-198.7408 503.7178,-203.7818 514.1462,-205.6523 513.0365,-198.7408"/>
<text text-anchor="middle" x="592" y="-202.5" font-family="Helvetica,sans-Serif" font-size="10.00" fill="#000000"> replacements</text>
</g>
<!-- Node21 -->
<g id="node18" class="node">
<title>Node21</title>
<g id="a_node18"><a xlink:href="classnuspell_1_1_phonetic___table.html" target="_top" xlink:title="nuspell::Phonetic_Table\l\&lt; wchar_t \&gt;">
<polygon fill="#ffffff" stroke="#000000" points="387.5,-147.5 387.5,-177.5 508.5,-177.5 508.5,-147.5 387.5,-147.5"/>
<text text-anchor="start" x="395.5" y="-165.5" font-family="Helvetica,sans-Serif" font-size="10.00" fill="#000000">nuspell::Phonetic_Table</text>
<text text-anchor="middle" x="448" y="-154.5" font-family="Helvetica,sans-Serif" font-size="10.00" fill="#000000">&lt; wchar_t &gt;</text>
</a>
</g>
</g>
<!-- Node21&#45;&gt;Node19 -->
<g id="edge17" class="edge">
<title>Node21&#45;&gt;Node19</title>
<path fill="none" stroke="#9a32cd" stroke-dasharray="5,2" d="M518.9246,-156.2346C566.4286,-152.0381 628.1973,-146.5815 672.8084,-142.6406"/>
<polygon fill="#9a32cd" stroke="#9a32cd" points="518.3638,-152.7704 508.7106,-157.1369 518.9798,-159.7432 518.3638,-152.7704"/>
<text text-anchor="middle" x="592" y="-158.5" font-family="Helvetica,sans-Serif" font-size="10.00" fill="#000000"> phonetic_table</text>
</g>
<!-- Node22 -->
<g id="node19" class="node">
<title>Node22</title>
<g id="a_node19"><a xlink:href="classnuspell_1_1_substr___replacer.html" target="_top" xlink:title="nuspell::Substr_Replacer\l\&lt; wchar_t \&gt;">
<polygon fill="#ffffff" stroke="#000000" points="385,-98.5 385,-128.5 511,-128.5 511,-98.5 385,-98.5"/>
<text text-anchor="start" x="393" y="-116.5" font-family="Helvetica,sans-Serif" font-size="10.00" fill="#000000">nuspell::Substr_Replacer</text>
<text text-anchor="middle" x="448" y="-105.5" font-family="Helvetica,sans-Serif" font-size="10.00" fill="#000000">&lt; wchar_t &gt;</text>
</a>
</g>
</g>
<!-- Node22&#45;&gt;Node19 -->
<g id="edge18" class="edge">
<title>Node22&#45;&gt;Node19</title>
<path fill="none" stroke="#9a32cd" stroke-dasharray="5,2" d="M521.378,-111.3461C561.0988,-111.1658 610.9238,-112.5329 655,-118.5 662.1431,-119.4671 669.586,-120.8481 676.8985,-122.4302"/>
<polygon fill="#9a32cd" stroke="#9a32cd" points="521.2172,-107.8472 511.2452,-111.4264 521.2727,-114.847 521.2172,-107.8472"/>
<text text-anchor="middle" x="592" y="-132.5" font-family="Helvetica,sans-Serif" font-size="10.00" fill="#000000"> input_substr_replacer</text>
<text text-anchor="middle" x="592" y="-121.5" font-family="Helvetica,sans-Serif" font-size="10.00" fill="#000000">output_substr_replacer</text>
</g>
<!-- Node23&#45;&gt;Node19 -->
<g id="edge19" class="edge">
<title>Node23&#45;&gt;Node19</title>
<path fill="none" stroke="#9a32cd" stroke-dasharray="5,2" d="M509.876,-62.8658C551.9756,-63.6395 608.3023,-68.4235 655,-85.5 677.5223,-93.736 699.7438,-110.1732 714.2846,-122.3733"/>
<polygon fill="#9a32cd" stroke="#9a32cd" points="509.8049,-59.3649 499.7659,-62.7516 509.7257,-66.3644 509.8049,-59.3649"/>
<text text-anchor="middle" x="592" y="-99.5" font-family="Helvetica,sans-Serif" font-size="10.00" fill="#000000"> suffixes</text>
<text text-anchor="middle" x="592" y="-88.5" font-family="Helvetica,sans-Serif" font-size="10.00" fill="#000000">prefixes</text>
</g>
<!-- Node24&#45;&gt;Node23 -->
<g id="edge20" class="edge">
<title>Node24&#45;&gt;Node23</title>
<path fill="none" stroke="#8b1a1a" d="M239.6413,-221.2588C268.2144,-187.8584 325.1073,-126.1692 385,-88.5 390.251,-85.1974 396.0281,-82.2336 401.8883,-79.6098"/>
<polygon fill="#8b1a1a" stroke="#8b1a1a" points="236.7873,-219.2133 233.0025,-229.1091 242.1323,-223.7335 236.7873,-219.2133"/>
</g>
<!-- Node25 -->
<g id="node22" class="node">
<title>Node25</title>
<g id="a_node22"><a xlink:href="classnuspell_1_1_break___table.html" target="_top" xlink:title="nuspell::Break_Table\l\&lt; wchar_t \&gt;">
<polygon fill="#ffffff" stroke="#000000" points="394,-.5 394,-30.5 502,-30.5 502,-.5 394,-.5"/>
<text text-anchor="start" x="402" y="-18.5" font-family="Helvetica,sans-Serif" font-size="10.00" fill="#000000">nuspell::Break_Table</text>
<text text-anchor="middle" x="448" y="-7.5" font-family="Helvetica,sans-Serif" font-size="10.00" fill="#000000">&lt; wchar_t &gt;</text>
</a>
</g>
</g>
<!-- Node25&#45;&gt;Node19 -->
<g id="edge25" class="edge">
<title>Node25&#45;&gt;Node19</title>
<path fill="none" stroke="#9a32cd" stroke-dasharray="5,2" d="M512.3696,-14.9025C555.2349,-17.0913 611.4653,-25.1131 655,-49.5 685.9967,-66.8634 710.2948,-101.9459 722.4541,-122.1768"/>
<polygon fill="#9a32cd" stroke="#9a32cd" points="512.4688,-11.4037 502.3314,-14.4832 512.1765,-18.3976 512.4688,-11.4037"/>
<text text-anchor="middle" x="592" y="-52.5" font-family="Helvetica,sans-Serif" font-size="10.00" fill="#000000"> break_table</text>
</g>
<!-- Node26 -->
<g id="node23" class="node">
<title>Node26</title>
<g id="a_node23"><a xlink:href="classnuspell_1_1_word___list.html" target="_top" xlink:title="Map between words and word_flags. ">
<polygon fill="#ffffff" stroke="#000000" points="543,-559 543,-578 641,-578 641,-559 543,-559"/>
<text text-anchor="middle" x="592" y="-566" font-family="Helvetica,sans-Serif" font-size="10.00" fill="#000000">nuspell::Word_List</text>
</a>
</g>
</g>
<!-- Node26&#45;&gt;Node7 -->
<g id="edge26" class="edge">
<title>Node26&#45;&gt;Node7</title>
<path fill="none" stroke="#9a32cd" stroke-dasharray="5,2" d="M632.9076,-555.5022C640.4232,-552.5751 648.0759,-549.2185 655,-545.5 764.4815,-486.704 791.9459,-467.1906 880,-379.5 904.7922,-354.8102 927.6865,-320.0032 938.0998,-303.254"/>
<polygon fill="#9a32cd" stroke="#9a32cd" points="631.6893,-552.221 623.5262,-558.9749 634.1194,-558.7856 631.6893,-552.221"/>
<text text-anchor="middle" x="731" y="-536.5" font-family="Helvetica,sans-Serif" font-size="10.00" fill="#000000"> words</text>
</g>
<!-- Node27&#45;&gt;Node26 -->
<g id="edge27" class="edge">
<title>Node27&#45;&gt;Node26</title>
<path fill="none" stroke="#191970" d="M250.8833,-513.1795C283.3489,-527.0848 336.6829,-547.9051 385,-557.5 438.3014,-568.0847 500.7423,-570.0099 542.9966,-569.8084"/>
<polygon fill="#191970" stroke="#191970" points="252.073,-509.8803 241.5064,-509.1061 249.2839,-516.3007 252.073,-509.8803"/>
</g>
<!-- Node28&#45;&gt;Node7 -->
<g id="edge32" class="edge">
<title>Node28&#45;&gt;Node7</title>
<path fill="none" stroke="#9a32cd" stroke-dasharray="5,2" d="M665.2617,-257.5707C723.7182,-260.81 807.5291,-267.222 880,-279.5 887.5134,-280.7729 895.4778,-282.3385 903.1425,-283.9564"/>
<polygon fill="#9a32cd" stroke="#9a32cd" points="665.1876,-254.0618 655.0145,-257.021 664.8126,-261.0518 665.1876,-254.0618"/>
<text text-anchor="middle" x="731" y="-270.5" font-family="Helvetica,sans-Serif" font-size="10.00" fill="#000000"> compound_rules</text>
</g>
<!-- Node29 -->
<g id="node26" class="node">
<title>Node29</title>
<g id="a_node26"><a xlink:href="classnuspell_1_1_hash___multiset.html" target="_top" xlink:title="nuspell::Hash_Multiset\l\&lt; string \&gt;">
<polygon fill="#ffffff" stroke="#000000" points="1217,-234.5 1217,-264.5 1333,-264.5 1333,-234.5 1217,-234.5"/>
<text text-anchor="start" x="1225" y="-252.5" font-family="Helvetica,sans-Serif" font-size="10.00" fill="#000000">nuspell::Hash_Multiset</text>
<text text-anchor="middle" x="1275" y="-241.5" font-family="Helvetica,sans-Serif" font-size="10.00" fill="#000000">&lt; string &gt;</text>
</a>
</g>
</g>
<!-- Node29&#45;&gt;Node4 -->
<g id="edge34" class="edge">
<title>Node29&#45;&gt;Node4</title>
<path fill="none" stroke="#9a32cd" stroke-dasharray="5,2" d="M1343.4593,-258.1558C1365.6071,-260.9561 1389.4362,-263.9689 1408.8376,-266.422"/>
<polygon fill="#9a32cd" stroke="#9a32cd" points="1343.7836,-254.669 1333.4235,-256.8869 1342.9055,-261.6137 1343.7836,-254.669"/>
<text text-anchor="middle" x="1371" y="-267.5" font-family="Helvetica,sans-Serif" font-size="10.00" fill="#000000"> personal</text>
</g>
<!-- Node30 -->
<g id="node27" class="node">
<title>Node30</title>
<g id="a_node27"><a xlink:href="structnuspell_1_1identity.html" target="_top" xlink:title="nuspell::identity">
<polygon fill="#ffffff" stroke="#000000" points="1034,-240 1034,-259 1119,-259 1119,-240 1034,-240"/>
<text text-anchor="middle" x="1076.5" y="-247" font-family="Helvetica,sans-Serif" font-size="10.00" fill="#000000">nuspell::identity</text>
</a>
</g>
</g>
<!-- Node30&#45;&gt;Node29 -->
<g id="edge35" class="edge">
<title>Node30&#45;&gt;Node29</title>
<path fill="none" stroke="#9a32cd" stroke-dasharray="5,2" d="M1129.099,-249.5C1156.0517,-249.5 1188.9459,-249.5 1216.6739,-249.5"/>
<polygon fill="#9a32cd" stroke="#9a32cd" points="1129.0833,-246.0001 1119.0832,-249.5 1129.0832,-253.0001 1129.0833,-246.0001"/>
<text text-anchor="middle" x="1171.5" y="-252.5" font-family="Helvetica,sans-Serif" font-size="10.00" fill="#000000"> key_extract</text>
</g>
</g>
</svg>
