<?xml version="1.0" encoding="UTF-8" standalone="no"?>
<!DOCTYPE svg PUBLIC "-//W3C//DTD SVG 1.1//EN"
 "http://www.w3.org/Graphics/SVG/1.1/DTD/svg11.dtd">
<!-- Generated by graphviz version 2.40.1 (20161225.0304)
 -->
<!-- Title: nuspell::Basic_Dictionary::spell Pages: 1 -->
<svg width="359pt" height="218pt"
 viewBox="0.00 0.00 359.00 218.00" xmlns="http://www.w3.org/2000/svg" xmlns:xlink="http://www.w3.org/1999/xlink">
<g id="graph0" class="graph" transform="scale(1 1) rotate(0) translate(4 214)">
<title>nuspell::Basic_Dictionary::spell</title>
<polygon fill="#ffffff" stroke="transparent" points="-4,4 -4,-214 355,-214 355,4 -4,4"/>
<!-- Node26 -->
<g id="node1" class="node">
<title>Node26</title>
<polygon fill="#bfbfbf" stroke="#000000" points="0,-90 0,-120 128,-120 128,-90 0,-90"/>
<text text-anchor="start" x="8" y="-108" font-family="Helvetica,sans-Serif" font-size="10.00" fill="#000000">nuspell::Basic_Dictionary</text>
<text text-anchor="middle" x="64" y="-97" font-family="Helvetica,sans-Serif" font-size="10.00" fill="#000000">::spell</text>
</g>
<!-- Node27 -->
<g id="node2" class="node">
<title>Node27</title>
<g id="a_node2"><a xlink:href="main_8cxx.html#a4a642b8579e49cab4ef7293d66f1f5d5" target="_top" xlink:title="Normal loop, tokenize and check spelling. ">
<polygon fill="#ffffff" stroke="#000000" points="186,-190.5 186,-209.5 255,-209.5 255,-190.5 186,-190.5"/>
<text text-anchor="middle" x="220.5" y="-197.5" font-family="Helvetica,sans-Serif" font-size="10.00" fill="#000000">normal_loop</text>
</a>
</g>
</g>
<!-- Node26&#45;&gt;Node27 -->
<g id="edge1" class="edge">
<title>Node26&#45;&gt;Node27</title>
<path fill="none" stroke="#191970" d="M88.2388,-127.0404C107.5907,-143.7057 136.0111,-166.1738 164,-181 170.9502,-184.6816 178.7533,-187.8519 186.2904,-190.4898"/>
<polygon fill="#191970" stroke="#191970" points="90.3583,-124.2442 80.528,-120.2926 85.7484,-129.512 90.3583,-124.2442"/>
</g>
<!-- Node29 -->
<g id="node4" class="node">
<title>Node29</title>
<g id="a_node4"><a xlink:href="main_8cxx.html#aebf1b2aa274390a39317fbbca50d9d5e" target="_top" xlink:title="Prints misspelled words from an input stream to an output stream. ">
<polygon fill="#ffffff" stroke="#000000" points="164,-152.5 164,-171.5 277,-171.5 277,-152.5 164,-152.5"/>
<text text-anchor="middle" x="220.5" y="-159.5" font-family="Helvetica,sans-Serif" font-size="10.00" fill="#000000">misspelled_word_loop</text>
</a>
</g>
</g>
<!-- Node26&#45;&gt;Node29 -->
<g id="edge3" class="edge">
<title>Node26&#45;&gt;Node29</title>
<path fill="none" stroke="#191970" d="M112.1962,-123.7466C128.5861,-130.0064 147.0444,-136.9301 164,-143 172.8664,-146.1741 182.5686,-149.4924 191.392,-152.4513"/>
<polygon fill="#191970" stroke="#191970" points="113.4023,-120.4607 102.8121,-120.1491 110.8966,-126.9969 113.4023,-120.4607"/>
</g>
<!-- Node30 -->
<g id="node5" class="node">
<title>Node30</title>
<g id="a_node5"><a xlink:href="main_8cxx.html#a1248d9e693e561e175cf2e5b55499fff" target="_top" xlink:title="correct_word_loop">
<polygon fill="#ffffff" stroke="#000000" points="172.5,-114.5 172.5,-133.5 268.5,-133.5 268.5,-114.5 172.5,-114.5"/>
<text text-anchor="middle" x="220.5" y="-121.5" font-family="Helvetica,sans-Serif" font-size="10.00" fill="#000000">correct_word_loop</text>
</a>
</g>
</g>
<!-- Node26&#45;&gt;Node30 -->
<g id="edge5" class="edge">
<title>Node26&#45;&gt;Node30</title>
<path fill="none" stroke="#191970" d="M138.17,-114.0047C149.6853,-115.4027 161.3188,-116.8151 172.0692,-118.1202"/>
<polygon fill="#191970" stroke="#191970" points="138.4551,-110.5137 128.1061,-112.7828 137.6114,-117.4626 138.4551,-110.5137"/>
</g>
<!-- Node31 -->
<g id="node6" class="node">
<title>Node31</title>
<g id="a_node6"><a xlink:href="main_8cxx.html#a3d8ece05cdc365860364604ebebab70d" target="_top" xlink:title="crude_parse_loop">
<polygon fill="#ffffff" stroke="#000000" points="174,-76.5 174,-95.5 267,-95.5 267,-76.5 174,-76.5"/>
<text text-anchor="middle" x="220.5" y="-83.5" font-family="Helvetica,sans-Serif" font-size="10.00" fill="#000000">crude_parse_loop</text>
</a>
</g>
</g>
<!-- Node26&#45;&gt;Node31 -->
<g id="edge7" class="edge">
<title>Node26&#45;&gt;Node31</title>
<path fill="none" stroke="#191970" d="M138.2703,-95.9832C150.4374,-94.506 162.7332,-93.0132 173.9768,-91.6482"/>
<polygon fill="#191970" stroke="#191970" points="137.6114,-92.5374 128.1061,-97.2172 138.4551,-99.4863 137.6114,-92.5374"/>
</g>
<!-- Node32 -->
<g id="node7" class="node">
<title>Node32</title>
<g id="a_node7"><a xlink:href="main_8cxx.html#a1f92dedeeb68a1a7bc2b720097d3b7a4" target="_top" xlink:title="misspelled_line_loop">
<polygon fill="#ffffff" stroke="#000000" points="167,-38.5 167,-57.5 274,-57.5 274,-38.5 167,-38.5"/>
<text text-anchor="middle" x="220.5" y="-45.5" font-family="Helvetica,sans-Serif" font-size="10.00" fill="#000000">misspelled_line_loop</text>
</a>
</g>
</g>
<!-- Node26&#45;&gt;Node32 -->
<g id="edge9" class="edge">
<title>Node26&#45;&gt;Node32</title>
<path fill="none" stroke="#191970" d="M112.1962,-86.2534C128.5861,-79.9936 147.0444,-73.0699 164,-67 172.8664,-63.8259 182.5686,-60.5076 191.392,-57.5487"/>
<polygon fill="#191970" stroke="#191970" points="110.8966,-83.0031 102.8121,-89.8509 113.4023,-89.5393 110.8966,-83.0031"/>
</g>
<!-- Node33 -->
<g id="node8" class="node">
<title>Node33</title>
<g id="a_node8"><a xlink:href="main_8cxx.html#a16580c4100b461806a9c49575bdd5428" target="_top" xlink:title="correct_line_loop">
<polygon fill="#ffffff" stroke="#000000" points="175.5,-.5 175.5,-19.5 265.5,-19.5 265.5,-.5 175.5,-.5"/>
<text text-anchor="middle" x="220.5" y="-7.5" font-family="Helvetica,sans-Serif" font-size="10.00" fill="#000000">correct_line_loop</text>
</a>
</g>
</g>
<!-- Node26&#45;&gt;Node33 -->
<g id="edge11" class="edge">
<title>Node26&#45;&gt;Node33</title>
<path fill="none" stroke="#191970" d="M88.2388,-82.9596C107.5907,-66.2943 136.0111,-43.8262 164,-29 170.9502,-25.3184 178.7533,-22.1481 186.2904,-19.5102"/>
<polygon fill="#191970" stroke="#191970" points="85.7484,-80.488 80.528,-89.7074 90.3583,-85.7558 85.7484,-80.488"/>
</g>
<!-- Node28 -->
<g id="node3" class="node">
<title>Node28</title>
<g id="a_node3"><a xlink:href="main_8cxx.html#a0ddf1224851353fc92bfbff6f499fa97" target="_top" xlink:title="main">
<polygon fill="#ffffff" stroke="#000000" points="313,-95.5 313,-114.5 351,-114.5 351,-95.5 313,-95.5"/>
<text text-anchor="middle" x="332" y="-102.5" font-family="Helvetica,sans-Serif" font-size="10.00" fill="#000000">main</text>
</a>
</g>
</g>
<!-- Node27&#45;&gt;Node28 -->
<g id="edge2" class="edge">
<title>Node27&#45;&gt;Node28</title>
<path fill="none" stroke="#191970" d="M264.3519,-188.3578C268.827,-186.2752 273.1397,-183.8406 277,-181 301.5312,-162.949 319.571,-130.7169 327.5135,-114.6532"/>
<polygon fill="#191970" stroke="#191970" points="262.9712,-185.1409 255.0311,-192.1555 265.6125,-191.6235 262.9712,-185.1409"/>
</g>
<!-- Node29&#45;&gt;Node28 -->
<g id="edge4" class="edge">
<title>Node29&#45;&gt;Node28</title>
<path fill="none" stroke="#191970" d="M263.4972,-148.962C268.1313,-147.1391 272.715,-145.1471 277,-143 292.772,-135.0972 309.2044,-123.1825 319.9527,-114.8061"/>
<polygon fill="#191970" stroke="#191970" points="262.1683,-145.7215 253.9937,-152.4614 264.5872,-152.2903 262.1683,-145.7215"/>
</g>
<!-- Node30&#45;&gt;Node28 -->
<g id="edge6" class="edge">
<title>Node30&#45;&gt;Node28</title>
<path fill="none" stroke="#191970" d="M278.6488,-114.0912C290.9988,-111.9868 303.1915,-109.9091 312.7968,-108.2723"/>
<polygon fill="#191970" stroke="#191970" points="278.027,-110.6467 268.757,-115.7768 279.2029,-117.5472 278.027,-110.6467"/>
</g>
<!-- Node31&#45;&gt;Node28 -->
<g id="edge8" class="edge">
<title>Node31&#45;&gt;Node28</title>
<path fill="none" stroke="#191970" d="M277.3466,-95.6869C290.1167,-97.8629 302.8101,-100.0259 312.7452,-101.7189"/>
<polygon fill="#191970" stroke="#191970" points="277.5859,-92.1773 267.14,-93.9476 276.4099,-99.0778 277.5859,-92.1773"/>
</g>
<!-- Node32&#45;&gt;Node28 -->
<g id="edge10" class="edge">
<title>Node32&#45;&gt;Node28</title>
<path fill="none" stroke="#191970" d="M263.4972,-61.038C268.1313,-62.8609 272.715,-64.8529 277,-67 292.772,-74.9028 309.2044,-86.8175 319.9527,-95.1939"/>
<polygon fill="#191970" stroke="#191970" points="264.5872,-57.7097 253.9937,-57.5386 262.1683,-64.2785 264.5872,-57.7097"/>
</g>
<!-- Node33&#45;&gt;Node28 -->
<g id="edge12" class="edge">
<title>Node33&#45;&gt;Node28</title>
<path fill="none" stroke="#191970" d="M268.5865,-23.7503C271.5394,-25.3237 274.3744,-27.068 277,-29 301.5312,-47.051 319.571,-79.2831 327.5135,-95.3468"/>
<polygon fill="#191970" stroke="#191970" points="270.0098,-20.5523 259.4648,-19.5255 267.0679,-26.9042 270.0098,-20.5523"/>
</g>
</g>
</svg>
