<?xml version="1.0" encoding="UTF-8" standalone="no"?>
<!DOCTYPE svg PUBLIC "-//W3C//DTD SVG 1.1//EN"
 "http://www.w3.org/Graphics/SVG/1.1/DTD/svg11.dtd">
<!-- Generated by graphviz version 2.40.1 (20161225.0304)
 -->
<!-- Title: nuspell::List_Strings::operator= Pages: 1 -->
<svg width="248pt" height="137pt"
 viewBox="0.00 0.00 248.00 137.00" xmlns="http://www.w3.org/2000/svg" xmlns:xlink="http://www.w3.org/1999/xlink">
<g id="graph0" class="graph" transform="scale(1 1) rotate(0) translate(4 133)">
<title>nuspell::List_Strings::operator=</title>
<polygon fill="#ffffff" stroke="transparent" points="-4,4 -4,-133 244,-133 244,4 -4,4"/>
<!-- Node141 -->
<g id="node1" class="node">
<title>Node141</title>
<polygon fill="#bfbfbf" stroke="#000000" points="0,-49.5 0,-79.5 105,-79.5 105,-49.5 0,-49.5"/>
<text text-anchor="start" x="8" y="-67.5" font-family="Helvetica,sans-Serif" font-size="10.00" fill="#000000">nuspell::List_Strings</text>
<text text-anchor="middle" x="52.5" y="-56.5" font-family="Helvetica,sans-Serif" font-size="10.00" fill="#000000">::operator=</text>
</g>
<!-- Node142 -->
<g id="node2" class="node">
<title>Node142</title>
<g id="a_node2"><a xlink:href="classnuspell_1_1_string___set.html#a3e481e3809e18632397a326b50334895" target="_top" xlink:title="nuspell::String_Set\l::clear">
<polygon fill="#ffffff" stroke="#000000" points="141,-98.5 141,-128.5 240,-128.5 240,-98.5 141,-98.5"/>
<text text-anchor="start" x="149" y="-116.5" font-family="Helvetica,sans-Serif" font-size="10.00" fill="#000000">nuspell::String_Set</text>
<text text-anchor="middle" x="190.5" y="-105.5" font-family="Helvetica,sans-Serif" font-size="10.00" fill="#000000">::clear</text>
</a>
</g>
</g>
<!-- Node141&#45;&gt;Node142 -->
<g id="edge1" class="edge">
<title>Node141&#45;&gt;Node142</title>
<path fill="none" stroke="#191970" d="M95.0306,-79.6014C108.6719,-84.4451 123.94,-89.8664 138.1965,-94.9285"/>
<polygon fill="#191970" stroke="#191970" points="137.2776,-98.3162 147.8723,-98.3641 139.6198,-91.7197 137.2776,-98.3162"/>
</g>
<!-- Node143 -->
<g id="node3" class="node">
<title>Node143</title>
<g id="a_node3"><a xlink:href="classnuspell_1_1_string___set.html#ac698158245a14d71e46f92af70098037" target="_top" xlink:title="nuspell::String_Set\l::insert">
<polygon fill="#ffffff" stroke="#000000" points="141,-49.5 141,-79.5 240,-79.5 240,-49.5 141,-49.5"/>
<text text-anchor="start" x="149" y="-67.5" font-family="Helvetica,sans-Serif" font-size="10.00" fill="#000000">nuspell::String_Set</text>
<text text-anchor="middle" x="190.5" y="-56.5" font-family="Helvetica,sans-Serif" font-size="10.00" fill="#000000">::insert</text>
</a>
</g>
</g>
<!-- Node141&#45;&gt;Node143 -->
<g id="edge2" class="edge">
<title>Node141&#45;&gt;Node143</title>
<path fill="none" stroke="#191970" d="M105.0656,-64.5C113.4049,-64.5 122.0843,-64.5 130.5771,-64.5"/>
<polygon fill="#191970" stroke="#191970" points="130.8084,-68.0001 140.8083,-64.5 130.8083,-61.0001 130.8084,-68.0001"/>
</g>
<!-- Node144 -->
<g id="node4" class="node">
<title>Node144</title>
<g id="a_node4"><a xlink:href="classnuspell_1_1_string___set.html#a18bc20de4ed5671de253d5ffa25bde27" target="_top" xlink:title="nuspell::String_Set\l::begin">
<polygon fill="#ffffff" stroke="#000000" points="141,-.5 141,-30.5 240,-30.5 240,-.5 141,-.5"/>
<text text-anchor="start" x="149" y="-18.5" font-family="Helvetica,sans-Serif" font-size="10.00" fill="#000000">nuspell::String_Set</text>
<text text-anchor="middle" x="190.5" y="-7.5" font-family="Helvetica,sans-Serif" font-size="10.00" fill="#000000">::begin</text>
</a>
</g>
</g>
<!-- Node141&#45;&gt;Node144 -->
<g id="edge3" class="edge">
<title>Node141&#45;&gt;Node144</title>
<path fill="none" stroke="#191970" d="M95.0306,-49.3986C108.6719,-44.5549 123.94,-39.1336 138.1965,-34.0715"/>
<polygon fill="#191970" stroke="#191970" points="139.6198,-37.2803 147.8723,-30.6359 137.2776,-30.6838 139.6198,-37.2803"/>
</g>
</g>
</svg>
