<?xml version="1.0" encoding="UTF-8" standalone="no"?>
<!DOCTYPE svg PUBLIC "-//W3C//DTD SVG 1.1//EN"
 "http://www.w3.org/Graphics/SVG/1.1/DTD/svg11.dtd">
<!-- Generated by graphviz version 2.40.1 (20161225.0304)
 -->
<!-- Title: nuspell::String_Set::clear Pages: 1 -->
<svg width="248pt" height="137pt"
 viewBox="0.00 0.00 248.00 137.00" xmlns="http://www.w3.org/2000/svg" xmlns:xlink="http://www.w3.org/1999/xlink">
<g id="graph0" class="graph" transform="scale(1 1) rotate(0) translate(4 133)">
<title>nuspell::String_Set::clear</title>
<polygon fill="#ffffff" stroke="transparent" points="-4,4 -4,-133 244,-133 244,4 -4,4"/>
<!-- Node51 -->
<g id="node1" class="node">
<title>Node51</title>
<polygon fill="#bfbfbf" stroke="#000000" points="0,-49.5 0,-79.5 99,-79.5 99,-49.5 0,-49.5"/>
<text text-anchor="start" x="8" y="-67.5" font-family="Helvetica,sans-Serif" font-size="10.00" fill="#000000">nuspell::String_Set</text>
<text text-anchor="middle" x="49.5" y="-56.5" font-family="Helvetica,sans-Serif" font-size="10.00" fill="#000000">::clear</text>
</g>
<!-- Node52 -->
<g id="node2" class="node">
<title>Node52</title>
<g id="a_node2"><a xlink:href="classnuspell_1_1_list___strings.html#a42c76cd55f1873495d3b154d1ae2e3e9" target="_top" xlink:title="nuspell::List_Strings\l::operator=">
<polygon fill="#ffffff" stroke="#000000" points="135,-98.5 135,-128.5 240,-128.5 240,-98.5 135,-98.5"/>
<text text-anchor="start" x="143" y="-116.5" font-family="Helvetica,sans-Serif" font-size="10.00" fill="#000000">nuspell::List_Strings</text>
<text text-anchor="middle" x="187.5" y="-105.5" font-family="Helvetica,sans-Serif" font-size="10.00" fill="#000000">::operator=</text>
</a>
</g>
</g>
<!-- Node51&#45;&gt;Node52 -->
<g id="edge1" class="edge">
<title>Node51&#45;&gt;Node52</title>
<path fill="none" stroke="#191970" d="M101.702,-83.0355C115.9537,-88.0959 131.2233,-93.5177 144.8723,-98.3641"/>
<polygon fill="#191970" stroke="#191970" points="102.6253,-79.6493 92.0306,-79.6014 100.283,-86.2458 102.6253,-79.6493"/>
</g>
<!-- Node53 -->
<g id="node3" class="node">
<title>Node53</title>
<g id="a_node3"><a xlink:href="classnuspell_1_1_list___strings.html#ab7b785b7377c62fd31cf1292c0dbd3ee" target="_top" xlink:title="nuspell::List_Strings\l::assign">
<polygon fill="#ffffff" stroke="#000000" points="135,-49.5 135,-79.5 240,-79.5 240,-49.5 135,-49.5"/>
<text text-anchor="start" x="143" y="-67.5" font-family="Helvetica,sans-Serif" font-size="10.00" fill="#000000">nuspell::List_Strings</text>
<text text-anchor="middle" x="187.5" y="-56.5" font-family="Helvetica,sans-Serif" font-size="10.00" fill="#000000">::assign</text>
</a>
</g>
</g>
<!-- Node51&#45;&gt;Node53 -->
<g id="edge2" class="edge">
<title>Node51&#45;&gt;Node53</title>
<path fill="none" stroke="#191970" d="M109.5249,-64.5C117.9935,-64.5 126.6455,-64.5 134.9591,-64.5"/>
<polygon fill="#191970" stroke="#191970" points="109.3212,-61.0001 99.3212,-64.5 109.3211,-68.0001 109.3212,-61.0001"/>
</g>
<!-- Node54 -->
<g id="node4" class="node">
<title>Node54</title>
<g id="a_node4"><a xlink:href="classnuspell_1_1_list___strings.html#aa6a3b1467aaf5782787a503cccaeaaed" target="_top" xlink:title="nuspell::List_Strings\l::emplace_back">
<polygon fill="#ffffff" stroke="#000000" points="135,-.5 135,-30.5 240,-30.5 240,-.5 135,-.5"/>
<text text-anchor="start" x="143" y="-18.5" font-family="Helvetica,sans-Serif" font-size="10.00" fill="#000000">nuspell::List_Strings</text>
<text text-anchor="middle" x="187.5" y="-7.5" font-family="Helvetica,sans-Serif" font-size="10.00" fill="#000000">::emplace_back</text>
</a>
</g>
</g>
<!-- Node51&#45;&gt;Node54 -->
<g id="edge3" class="edge">
<title>Node51&#45;&gt;Node54</title>
<path fill="none" stroke="#191970" d="M101.702,-45.9645C115.9537,-40.9041 131.2233,-35.4823 144.8723,-30.6359"/>
<polygon fill="#191970" stroke="#191970" points="100.283,-42.7542 92.0306,-49.3986 102.6253,-49.3507 100.283,-42.7542"/>
</g>
</g>
</svg>
