<?xml version="1.0" encoding="UTF-8" standalone="no"?>
<!DOCTYPE svg PUBLIC "-//W3C//DTD SVG 1.1//EN"
 "http://www.w3.org/Graphics/SVG/1.1/DTD/svg11.dtd">
<!-- Generated by graphviz version 2.40.1 (20161225.0304)
 -->
<!-- Title: nuspell::List_Strings::operator&lt; Pages: 1 -->
<svg width="411pt" height="135pt"
 viewBox="0.00 0.00 411.00 134.61" xmlns="http://www.w3.org/2000/svg" xmlns:xlink="http://www.w3.org/1999/xlink">
<g id="graph0" class="graph" transform="scale(1 1) rotate(0) translate(4 130.6095)">
<title>nuspell::List_Strings::operator&lt;</title>
<polygon fill="#ffffff" stroke="transparent" points="-4,4 -4,-130.6095 407,-130.6095 407,4 -4,4"/>
<!-- Node122 -->
<g id="node1" class="node">
<title>Node122</title>
<polygon fill="#bfbfbf" stroke="#000000" points="0,-61 0,-91 105,-91 105,-61 0,-61"/>
<text text-anchor="start" x="8" y="-79" font-family="Helvetica,sans-Serif" font-size="10.00" fill="#000000">nuspell::List_Strings</text>
<text text-anchor="middle" x="52.5" y="-68" font-family="Helvetica,sans-Serif" font-size="10.00" fill="#000000">::operator&lt;</text>
</g>
<!-- Node123 -->
<g id="node2" class="node">
<title>Node123</title>
<g id="a_node2"><a xlink:href="classnuspell_1_1_string___set.html#a18bc20de4ed5671de253d5ffa25bde27" target="_top" xlink:title="nuspell::String_Set\l::begin">
<polygon fill="#ffffff" stroke="#000000" points="304,-58 304,-88 403,-88 403,-58 304,-58"/>
<text text-anchor="start" x="312" y="-76" font-family="Helvetica,sans-Serif" font-size="10.00" fill="#000000">nuspell::String_Set</text>
<text text-anchor="middle" x="353.5" y="-65" font-family="Helvetica,sans-Serif" font-size="10.00" fill="#000000">::begin</text>
</a>
</g>
</g>
<!-- Node122&#45;&gt;Node123 -->
<g id="edge1" class="edge">
<title>Node122&#45;&gt;Node123</title>
<path fill="none" stroke="#191970" d="M77.4049,-91.1049C94.5922,-100.6161 118.345,-112.0071 141,-117 196.1217,-129.1481 213.1418,-130.2874 268,-117 287.2594,-112.3351 307.041,-102.5362 322.7197,-93.3673"/>
<polygon fill="#191970" stroke="#191970" points="324.7012,-96.2591 331.442,-88.0852 321.0752,-90.2714 324.7012,-96.2591"/>
</g>
<!-- Node124 -->
<g id="node3" class="node">
<title>Node124</title>
<g id="a_node3"><a xlink:href="classnuspell_1_1_string___set.html#a1ac519529575a85ad75d6ddebde856ef" target="_top" xlink:title="nuspell::String_Set::end">
<polygon fill="#ffffff" stroke="#000000" points="144,-88.5 144,-107.5 265,-107.5 265,-88.5 144,-88.5"/>
<text text-anchor="middle" x="204.5" y="-95.5" font-family="Helvetica,sans-Serif" font-size="10.00" fill="#000000">nuspell::String_Set::end</text>
</a>
</g>
</g>
<!-- Node122&#45;&gt;Node124 -->
<g id="edge2" class="edge">
<title>Node122&#45;&gt;Node124</title>
<path fill="none" stroke="#191970" d="M105.2356,-83.6328C114.4632,-84.9684 124.1972,-86.3772 133.817,-87.7696"/>
<polygon fill="#191970" stroke="#191970" points="133.3763,-91.2422 143.7745,-89.2108 134.3791,-84.3144 133.3763,-91.2422"/>
</g>
<!-- Node125 -->
<g id="node4" class="node">
<title>Node125</title>
<g id="a_node4"><a xlink:href="classnuspell_1_1_list___strings.html#a030dc1c73b6e38cab8fa96a7bb18483d" target="_top" xlink:title="nuspell::List_Strings\l::begin">
<polygon fill="#ffffff" stroke="#000000" points="152,-39 152,-69 257,-69 257,-39 152,-39"/>
<text text-anchor="start" x="160" y="-57" font-family="Helvetica,sans-Serif" font-size="10.00" fill="#000000">nuspell::List_Strings</text>
<text text-anchor="middle" x="204.5" y="-46" font-family="Helvetica,sans-Serif" font-size="10.00" fill="#000000">::begin</text>
</a>
</g>
</g>
<!-- Node122&#45;&gt;Node125 -->
<g id="edge3" class="edge">
<title>Node122&#45;&gt;Node125</title>
<path fill="none" stroke="#191970" d="M105.2356,-68.3672C117.0255,-66.6608 129.6421,-64.8347 141.7909,-63.0763"/>
<polygon fill="#191970" stroke="#191970" points="142.4621,-66.5157 151.8576,-61.6193 141.4593,-59.5879 142.4621,-66.5157"/>
</g>
<!-- Node126 -->
<g id="node5" class="node">
<title>Node126</title>
<g id="a_node5"><a xlink:href="classnuspell_1_1_list___strings.html#a084c5de71215f0b5c7924b0396ae2575" target="_top" xlink:title="nuspell::List_Strings::end">
<polygon fill="#ffffff" stroke="#000000" points="141,-.5 141,-19.5 268,-19.5 268,-.5 141,-.5"/>
<text text-anchor="middle" x="204.5" y="-7.5" font-family="Helvetica,sans-Serif" font-size="10.00" fill="#000000">nuspell::List_Strings::end</text>
</a>
</g>
</g>
<!-- Node122&#45;&gt;Node126 -->
<g id="edge4" class="edge">
<title>Node122&#45;&gt;Node126</title>
<path fill="none" stroke="#191970" d="M78.6462,-60.8737C95.9687,-51.2394 119.3985,-38.9358 141,-30 147.3148,-27.3878 154.0999,-24.9153 160.8011,-22.6575"/>
<polygon fill="#191970" stroke="#191970" points="162.0635,-25.9276 170.4948,-19.5117 159.9027,-19.2694 162.0635,-25.9276"/>
</g>
<!-- Node126&#45;&gt;Node123 -->
<g id="edge5" class="edge">
<title>Node126&#45;&gt;Node123</title>
<path fill="none" stroke="#191970" d="M238.4719,-19.5929C248.1269,-22.6163 258.5755,-26.1749 268,-30 284.5743,-36.727 302.329,-45.4006 317.3401,-53.1939"/>
<polygon fill="#191970" stroke="#191970" points="315.8177,-56.3477 326.2971,-57.9073 319.0775,-50.1531 315.8177,-56.3477"/>
</g>
</g>
</svg>
