<?xml version="1.0" encoding="UTF-8" standalone="no"?>
<!DOCTYPE svg PUBLIC "-//W3C//DTD SVG 1.1//EN"
 "http://www.w3.org/Graphics/SVG/1.1/DTD/svg11.dtd">
<!-- Generated by graphviz version 2.40.1 (20161225.0304)
 -->
<!-- Title: nuspell::Encoding::is_utf8 Pages: 1 -->
<svg width="244pt" height="88pt"
 viewBox="0.00 0.00 244.00 88.00" xmlns="http://www.w3.org/2000/svg" xmlns:xlink="http://www.w3.org/1999/xlink">
<g id="graph0" class="graph" transform="scale(1 1) rotate(0) translate(4 84)">
<title>nuspell::Encoding::is_utf8</title>
<polygon fill="#ffffff" stroke="transparent" points="-4,4 -4,-84 240,-84 240,4 -4,4"/>
<!-- Node9 -->
<g id="node1" class="node">
<title>Node9</title>
<polygon fill="#bfbfbf" stroke="#000000" points="0,-24.5 0,-54.5 100,-54.5 100,-24.5 0,-24.5"/>
<text text-anchor="start" x="8" y="-42.5" font-family="Helvetica,sans-Serif" font-size="10.00" fill="#000000">nuspell::Encoding::</text>
<text text-anchor="middle" x="50" y="-31.5" font-family="Helvetica,sans-Serif" font-size="10.00" fill="#000000">is_utf8</text>
</g>
<!-- Node10 -->
<g id="node2" class="node">
<title>Node10</title>
<g id="a_node2"><a xlink:href="structnuspell_1_1_aff___data.html#a93b16b2b3938f607a18e3a67b9360b83" target="_top" xlink:title="Parses an input stream offering affix information. ">
<polygon fill="#ffffff" stroke="#000000" points="137,-49.5 137,-79.5 235,-79.5 235,-49.5 137,-49.5"/>
<text text-anchor="start" x="145" y="-67.5" font-family="Helvetica,sans-Serif" font-size="10.00" fill="#000000">nuspell::Aff_Data::</text>
<text text-anchor="middle" x="186" y="-56.5" font-family="Helvetica,sans-Serif" font-size="10.00" fill="#000000">parse_aff</text>
</a>
</g>
</g>
<!-- Node9&#45;&gt;Node10 -->
<g id="edge1" class="edge">
<title>Node9&#45;&gt;Node10</title>
<path fill="none" stroke="#191970" d="M110.2054,-50.5672C119.1161,-52.2052 128.2077,-53.8764 136.8573,-55.4664"/>
<polygon fill="#191970" stroke="#191970" points="110.723,-47.1037 100.255,-48.738 109.4574,-53.9884 110.723,-47.1037"/>
</g>
<!-- Node11 -->
<g id="node3" class="node">
<title>Node11</title>
<g id="a_node3"><a xlink:href="classnuspell_1_1_encoding.html#accf008f7974c85962ca6528f74ec67ab" target="_top" xlink:title="nuspell::Encoding::\loperator Enc_Type">
<polygon fill="#ffffff" stroke="#000000" points="136,-.5 136,-30.5 236,-30.5 236,-.5 136,-.5"/>
<text text-anchor="start" x="144" y="-18.5" font-family="Helvetica,sans-Serif" font-size="10.00" fill="#000000">nuspell::Encoding::</text>
<text text-anchor="middle" x="186" y="-7.5" font-family="Helvetica,sans-Serif" font-size="10.00" fill="#000000">operator Enc_Type</text>
</a>
</g>
</g>
<!-- Node9&#45;&gt;Node11 -->
<g id="edge2" class="edge">
<title>Node9&#45;&gt;Node11</title>
<path fill="none" stroke="#191970" d="M110.2308,-28.871C118.8229,-27.3548 127.5826,-25.809 135.9516,-24.3321"/>
<polygon fill="#191970" stroke="#191970" points="109.4945,-25.4468 100.255,-30.6315 110.7111,-32.3403 109.4945,-25.4468"/>
</g>
</g>
</svg>
