<?xml version="1.0" encoding="UTF-8" standalone="no"?>
<!DOCTYPE svg PUBLIC "-//W3C//DTD SVG 1.1//EN"
 "http://www.w3.org/Graphics/SVG/1.1/DTD/svg11.dtd">
<!-- Generated by graphviz version 2.40.1 (20161225.0304)
 -->
<!-- Title: nuspell::List_Strings::clear Pages: 1 -->
<svg width="485pt" height="104pt"
 viewBox="0.00 0.00 485.00 104.00" xmlns="http://www.w3.org/2000/svg" xmlns:xlink="http://www.w3.org/1999/xlink">
<g id="graph0" class="graph" transform="scale(1 1) rotate(0) translate(4 100)">
<title>nuspell::List_Strings::clear</title>
<polygon fill="#ffffff" stroke="transparent" points="-4,4 -4,-100 481,-100 481,4 -4,4"/>
<!-- Node50 -->
<g id="node1" class="node">
<title>Node50</title>
<polygon fill="#bfbfbf" stroke="#000000" points="0,-33 0,-63 105,-63 105,-33 0,-33"/>
<text text-anchor="start" x="8" y="-51" font-family="Helvetica,sans-Serif" font-size="10.00" fill="#000000">nuspell::List_Strings</text>
<text text-anchor="middle" x="52.5" y="-40" font-family="Helvetica,sans-Serif" font-size="10.00" fill="#000000">::clear</text>
</g>
<!-- Node51 -->
<g id="node2" class="node">
<title>Node51</title>
<g id="a_node2"><a xlink:href="classnuspell_1_1_dictionary.html#a8a66dd365b5491f00e20827299816c3d" target="_top" xlink:title="nuspell::Dictionary\l::suggest">
<polygon fill="#ffffff" stroke="#000000" points="141,-33 141,-63 239,-63 239,-33 141,-33"/>
<text text-anchor="start" x="149" y="-51" font-family="Helvetica,sans-Serif" font-size="10.00" fill="#000000">nuspell::Dictionary</text>
<text text-anchor="middle" x="190" y="-40" font-family="Helvetica,sans-Serif" font-size="10.00" fill="#000000">::suggest</text>
</a>
</g>
</g>
<!-- Node50&#45;&gt;Node51 -->
<g id="edge1" class="edge">
<title>Node50&#45;&gt;Node51</title>
<path fill="none" stroke="#191970" d="M115.5098,-48C123.9826,-48 132.5724,-48 140.7598,-48"/>
<polygon fill="#191970" stroke="#191970" points="115.2679,-44.5001 105.2678,-48 115.2678,-51.5001 115.2679,-44.5001"/>
</g>
<!-- Node52 -->
<g id="node3" class="node">
<title>Node52</title>
<g id="a_node3"><a xlink:href="main_8cxx.html#a1b26793ef57883beab96fb3f93153e59" target="_top" xlink:title="Normal loop, tokenize and check spelling. ">
<polygon fill="#ffffff" stroke="#000000" points="304.5,-76.5 304.5,-95.5 373.5,-95.5 373.5,-76.5 304.5,-76.5"/>
<text text-anchor="middle" x="339" y="-83.5" font-family="Helvetica,sans-Serif" font-size="10.00" fill="#000000">normal_loop</text>
</a>
</g>
</g>
<!-- Node51&#45;&gt;Node52 -->
<g id="edge2" class="edge">
<title>Node51&#45;&gt;Node52</title>
<path fill="none" stroke="#191970" d="M248.8946,-63.0201C267.7257,-67.8227 287.9495,-72.9804 304.4565,-77.1903"/>
<polygon fill="#191970" stroke="#191970" points="249.7559,-59.6278 239.2011,-60.5479 248.026,-66.4107 249.7559,-59.6278"/>
</g>
<!-- Node54 -->
<g id="node5" class="node">
<title>Node54</title>
<g id="a_node5"><a xlink:href="main_8cxx.html#a4e73c17f0cea2b14e0f5a32e2e174f11" target="_top" xlink:title="Normal loop, tokenize and check spelling. ">
<polygon fill="#ffffff" stroke="#000000" points="300.5,-38.5 300.5,-57.5 377.5,-57.5 377.5,-38.5 300.5,-38.5"/>
<text text-anchor="middle" x="339" y="-45.5" font-family="Helvetica,sans-Serif" font-size="10.00" fill="#000000">segment_loop</text>
</a>
</g>
</g>
<!-- Node51&#45;&gt;Node54 -->
<g id="edge4" class="edge">
<title>Node51&#45;&gt;Node54</title>
<path fill="none" stroke="#191970" d="M249.6357,-48C266.6726,-48 284.7906,-48 300.2273,-48"/>
<polygon fill="#191970" stroke="#191970" points="249.2011,-44.5001 239.2011,-48 249.2011,-51.5001 249.2011,-44.5001"/>
</g>
<!-- Node55 -->
<g id="node6" class="node">
<title>Node55</title>
<g id="a_node6"><a xlink:href="main_8cxx.html#a42fbab96f4709cbe51a87aa1c800149d" target="_top" xlink:title="Normal loop, tokenize and check spelling. ">
<polygon fill="#ffffff" stroke="#000000" points="275,-.5 275,-19.5 403,-19.5 403,-.5 275,-.5"/>
<text text-anchor="middle" x="339" y="-7.5" font-family="Helvetica,sans-Serif" font-size="10.00" fill="#000000">segment_nosuggest_loop</text>
</a>
</g>
</g>
<!-- Node51&#45;&gt;Node55 -->
<g id="edge6" class="edge">
<title>Node51&#45;&gt;Node55</title>
<path fill="none" stroke="#191970" d="M248.9193,-32.9736C266.6903,-28.4414 285.6994,-23.5934 301.6534,-19.5246"/>
<polygon fill="#191970" stroke="#191970" points="248.026,-29.5893 239.2011,-35.4521 249.7559,-36.3722 248.026,-29.5893"/>
</g>
<!-- Node53 -->
<g id="node4" class="node">
<title>Node53</title>
<g id="a_node4"><a xlink:href="main_8cxx.html#a0ddf1224851353fc92bfbff6f499fa97" target="_top" xlink:title="main">
<polygon fill="#ffffff" stroke="#000000" points="439,-38.5 439,-57.5 477,-57.5 477,-38.5 439,-38.5"/>
<text text-anchor="middle" x="458" y="-45.5" font-family="Helvetica,sans-Serif" font-size="10.00" fill="#000000">main</text>
</a>
</g>
</g>
<!-- Node52&#45;&gt;Node53 -->
<g id="edge3" class="edge">
<title>Node52&#45;&gt;Node53</title>
<path fill="none" stroke="#191970" d="M382.2955,-73.4283C389.2353,-71.3322 396.3268,-69.1421 403,-67 415.0236,-63.1405 428.4185,-58.5201 438.9788,-54.802"/>
<polygon fill="#191970" stroke="#191970" points="380.8814,-70.1979 372.3027,-76.4154 382.8863,-76.9047 380.8814,-70.1979"/>
</g>
<!-- Node54&#45;&gt;Node53 -->
<g id="edge5" class="edge">
<title>Node54&#45;&gt;Node53</title>
<path fill="none" stroke="#191970" d="M387.7267,-48C405.7073,-48 425.0458,-48 438.8754,-48"/>
<polygon fill="#191970" stroke="#191970" points="387.6359,-44.5001 377.6359,-48 387.6359,-51.5001 387.6359,-44.5001"/>
</g>
<!-- Node55&#45;&gt;Node53 -->
<g id="edge7" class="edge">
<title>Node55&#45;&gt;Node53</title>
<path fill="none" stroke="#191970" d="M382.2955,-22.5717C389.2353,-24.6678 396.3268,-26.8579 403,-29 415.0236,-32.8595 428.4185,-37.4799 438.9788,-41.198"/>
<polygon fill="#191970" stroke="#191970" points="382.8863,-19.0953 372.3027,-19.5846 380.8814,-25.8021 382.8863,-19.0953"/>
</g>
</g>
</svg>
