<?xml version="1.0" encoding="UTF-8" standalone="no"?>
<!DOCTYPE svg PUBLIC "-//W3C//DTD SVG 1.1//EN"
 "http://www.w3.org/Graphics/SVG/1.1/DTD/svg11.dtd">
<!-- Generated by graphviz version 2.40.1 (20161225.0304)
 -->
<!-- Title: nuspell::v3::Dictionary Pages: 1 -->
<svg width="715pt" height="443pt"
 viewBox="0.00 0.00 715.00 443.00" xmlns="http://www.w3.org/2000/svg" xmlns:xlink="http://www.w3.org/1999/xlink">
<g id="graph0" class="graph" transform="scale(1 1) rotate(0) translate(4 439)">
<title>nuspell::v3::Dictionary</title>
<polygon fill="#ffffff" stroke="transparent" points="-4,4 -4,-439 711,-439 711,4 -4,4"/>
<!-- Node3 -->
<g id="node1" class="node">
<title>Node3</title>
<polygon fill="#bfbfbf" stroke="#000000" points="593,-214 593,-233 707,-233 707,-214 593,-214"/>
<text text-anchor="middle" x="650" y="-221" font-family="Helvetica,sans-Serif" font-size="10.00" fill="#000000">nuspell::v3::Dictionary</text>
</g>
<!-- Node4 -->
<g id="node2" class="node">
<title>Node4</title>
<g id="a_node2"><a xlink:href="structnuspell_1_1v3_1_1_dict___base.html" target="_top" xlink:title="nuspell::v3::Dict_Base">
<polygon fill="#ffffff" stroke="#000000" points="440,-214 440,-233 556,-233 556,-214 440,-214"/>
<text text-anchor="middle" x="498" y="-221" font-family="Helvetica,sans-Serif" font-size="10.00" fill="#000000">nuspell::v3::Dict_Base</text>
</a>
</g>
</g>
<!-- Node4&#45;&gt;Node3 -->
<g id="edge1" class="edge">
<title>Node4&#45;&gt;Node3</title>
<path fill="none" stroke="#8b1a1a" d="M566.5523,-223.5C575.3348,-223.5 584.2512,-223.5 592.8263,-223.5"/>
<polygon fill="#8b1a1a" stroke="#8b1a1a" points="566.3325,-220.0001 556.3325,-223.5 566.3324,-227.0001 566.3325,-220.0001"/>
</g>
<!-- Node5 -->
<g id="node3" class="node">
<title>Node5</title>
<g id="a_node3"><a xlink:href="structnuspell_1_1v3_1_1_aff___data.html" target="_top" xlink:title="nuspell::v3::Aff_Data">
<polygon fill="#ffffff" stroke="#000000" points="294,-214 294,-233 403,-233 403,-214 294,-214"/>
<text text-anchor="middle" x="348.5" y="-221" font-family="Helvetica,sans-Serif" font-size="10.00" fill="#000000">nuspell::v3::Aff_Data</text>
</a>
</g>
</g>
<!-- Node5&#45;&gt;Node4 -->
<g id="edge2" class="edge">
<title>Node5&#45;&gt;Node4</title>
<path fill="none" stroke="#191970" d="M413.5175,-223.5C422.3014,-223.5 431.2678,-223.5 439.9202,-223.5"/>
<polygon fill="#191970" stroke="#191970" points="413.3194,-220.0001 403.3194,-223.5 413.3193,-227.0001 413.3194,-220.0001"/>
</g>
<!-- Node6 -->
<g id="node4" class="node">
<title>Node6</title>
<g id="a_node4"><a xlink:href="classnuspell_1_1v3_1_1_compound___rule___table.html" target="_top" xlink:title="nuspell::v3::Compound\l_Rule_Table">
<polygon fill="#ffffff" stroke="#000000" points="20.5,-404.5 20.5,-434.5 137.5,-434.5 137.5,-404.5 20.5,-404.5"/>
<text text-anchor="start" x="28.5" y="-422.5" font-family="Helvetica,sans-Serif" font-size="10.00" fill="#000000">nuspell::v3::Compound</text>
<text text-anchor="middle" x="79" y="-411.5" font-family="Helvetica,sans-Serif" font-size="10.00" fill="#000000">_Rule_Table</text>
</a>
</g>
</g>
<!-- Node6&#45;&gt;Node5 -->
<g id="edge3" class="edge">
<title>Node6&#45;&gt;Node5</title>
<path fill="none" stroke="#9a32cd" stroke-dasharray="5,2" d="M148.0158,-419.195C189.0715,-415.6851 239.9997,-405.1148 276,-376.5 324.0917,-338.2743 341.9813,-260.4866 346.9291,-233.2124"/>
<polygon fill="#9a32cd" stroke="#9a32cd" points="147.5237,-415.7216 137.8057,-419.9419 148.0345,-422.7029 147.5237,-415.7216"/>
<text text-anchor="middle" x="226" y="-418.5" font-family="Helvetica,sans-Serif" font-size="10.00" fill="#000000"> compound_rules</text>
</g>
<!-- Node7 -->
<g id="node5" class="node">
<title>Node7</title>
<g id="a_node5"><a xlink:href="classnuspell_1_1v3_1_1_replacement___table.html" target="_top" xlink:title="nuspell::v3::Replacement\l_Table\&lt; wchar_t \&gt;">
<polygon fill="#ffffff" stroke="#000000" points="15,-355.5 15,-385.5 143,-385.5 143,-355.5 15,-355.5"/>
<text text-anchor="start" x="23" y="-373.5" font-family="Helvetica,sans-Serif" font-size="10.00" fill="#000000">nuspell::v3::Replacement</text>
<text text-anchor="middle" x="79" y="-362.5" font-family="Helvetica,sans-Serif" font-size="10.00" fill="#000000">_Table&lt; wchar_t &gt;</text>
</a>
</g>
</g>
<!-- Node7&#45;&gt;Node5 -->
<g id="edge4" class="edge">
<title>Node7&#45;&gt;Node5</title>
<path fill="none" stroke="#9a32cd" stroke-dasharray="5,2" d="M153.0797,-366.2372C192.3262,-361.0039 239.7661,-349.6935 276,-325.5 311.7753,-301.6126 335.5806,-253.6591 344.531,-233.1563"/>
<polygon fill="#9a32cd" stroke="#9a32cd" points="152.529,-362.7784 143.0297,-367.4701 153.3815,-369.7263 152.529,-362.7784"/>
<text text-anchor="middle" x="226" y="-364.5" font-family="Helvetica,sans-Serif" font-size="10.00" fill="#000000"> replacements</text>
</g>
<!-- Node8 -->
<g id="node6" class="node">
<title>Node8</title>
<g id="a_node6"><a xlink:href="classnuspell_1_1v3_1_1_phonetic___table.html" target="_top" xlink:title="nuspell::v3::Phonetic\l_Table\&lt; wchar_t \&gt;">
<polygon fill="#ffffff" stroke="#000000" points="25,-306.5 25,-336.5 133,-336.5 133,-306.5 25,-306.5"/>
<text text-anchor="start" x="33" y="-324.5" font-family="Helvetica,sans-Serif" font-size="10.00" fill="#000000">nuspell::v3::Phonetic</text>
<text text-anchor="middle" x="79" y="-313.5" font-family="Helvetica,sans-Serif" font-size="10.00" fill="#000000">_Table&lt; wchar_t &gt;</text>
</a>
</g>
</g>
<!-- Node8&#45;&gt;Node5 -->
<g id="edge5" class="edge">
<title>Node8&#45;&gt;Node5</title>
<path fill="none" stroke="#9a32cd" stroke-dasharray="5,2" d="M143.5061,-316.1767C183.1934,-311.045 234.2697,-301.0201 276,-281.5 301.697,-269.4797 326.3282,-246.5733 339.2132,-233.4306"/>
<polygon fill="#9a32cd" stroke="#9a32cd" points="142.9167,-312.7226 133.4145,-317.4086 143.765,-319.671 142.9167,-312.7226"/>
<text text-anchor="middle" x="226" y="-313.5" font-family="Helvetica,sans-Serif" font-size="10.00" fill="#000000"> phonetic_table</text>
</g>
<!-- Node9 -->
<g id="node7" class="node">
<title>Node9</title>
<g id="a_node7"><a xlink:href="classnuspell_1_1v3_1_1_substr___replacer.html" target="_top" xlink:title="nuspell::v3::Substr\l_Replacer\&lt; wchar_t \&gt;">
<polygon fill="#ffffff" stroke="#000000" points="22.5,-257.5 22.5,-287.5 135.5,-287.5 135.5,-257.5 22.5,-257.5"/>
<text text-anchor="start" x="30.5" y="-275.5" font-family="Helvetica,sans-Serif" font-size="10.00" fill="#000000">nuspell::v3::Substr</text>
<text text-anchor="middle" x="79" y="-264.5" font-family="Helvetica,sans-Serif" font-size="10.00" fill="#000000">_Replacer&lt; wchar_t &gt;</text>
</a>
</g>
</g>
<!-- Node9&#45;&gt;Node5 -->
<g id="edge6" class="edge">
<title>Node9&#45;&gt;Node5</title>
<path fill="none" stroke="#9a32cd" stroke-dasharray="5,2" d="M145.5404,-261.5794C183.7659,-255.1649 232.647,-246.7236 276,-238.5 284.966,-236.7992 294.5354,-234.8881 303.6837,-233.0141"/>
<polygon fill="#9a32cd" stroke="#9a32cd" points="144.8451,-258.147 135.5596,-263.2488 146,-265.0511 144.8451,-258.147"/>
<text text-anchor="middle" x="226" y="-269.5" font-family="Helvetica,sans-Serif" font-size="10.00" fill="#000000"> input_substr_replacer</text>
<text text-anchor="middle" x="226" y="-258.5" font-family="Helvetica,sans-Serif" font-size="10.00" fill="#000000">output_substr_replacer</text>
</g>
<!-- Node10 -->
<g id="node8" class="node">
<title>Node10</title>
<g id="a_node8"><a xlink:href="classnuspell_1_1v3_1_1_prefix___table.html" target="_top" xlink:title="nuspell::v3::Prefix\l_Table">
<polygon fill="#ffffff" stroke="#000000" points="31.5,-208.5 31.5,-238.5 126.5,-238.5 126.5,-208.5 31.5,-208.5"/>
<text text-anchor="start" x="39.5" y="-226.5" font-family="Helvetica,sans-Serif" font-size="10.00" fill="#000000">nuspell::v3::Prefix</text>
<text text-anchor="middle" x="79" y="-215.5" font-family="Helvetica,sans-Serif" font-size="10.00" fill="#000000">_Table</text>
</a>
</g>
</g>
<!-- Node10&#45;&gt;Node5 -->
<g id="edge7" class="edge">
<title>Node10&#45;&gt;Node5</title>
<path fill="none" stroke="#9a32cd" stroke-dasharray="5,2" d="M136.791,-223.5C183.3461,-223.5 248.338,-223.5 293.9956,-223.5"/>
<polygon fill="#9a32cd" stroke="#9a32cd" points="136.5609,-220.0001 126.5608,-223.5 136.5608,-227.0001 136.5609,-220.0001"/>
<text text-anchor="middle" x="226" y="-226.5" font-family="Helvetica,sans-Serif" font-size="10.00" fill="#000000"> prefixes</text>
</g>
<!-- Node11 -->
<g id="node9" class="node">
<title>Node11</title>
<g id="a_node9"><a xlink:href="classnuspell_1_1v3_1_1_encoding.html" target="_top" xlink:title="nuspell::v3::Encoding">
<polygon fill="#ffffff" stroke="#000000" points="24,-170 24,-189 134,-189 134,-170 24,-170"/>
<text text-anchor="middle" x="79" y="-177" font-family="Helvetica,sans-Serif" font-size="10.00" fill="#000000">nuspell::v3::Encoding</text>
</a>
</g>
</g>
<!-- Node11&#45;&gt;Node5 -->
<g id="edge8" class="edge">
<title>Node11&#45;&gt;Node5</title>
<path fill="none" stroke="#9a32cd" stroke-dasharray="5,2" d="M144.3572,-188.1547C182.7801,-193.4835 232.2514,-200.7609 276,-208.5 285.2395,-210.1345 295.1049,-212.0565 304.4879,-213.9692"/>
<polygon fill="#9a32cd" stroke="#9a32cd" points="144.7174,-184.6714 134.3333,-186.7739 143.7621,-191.6059 144.7174,-184.6714"/>
<text text-anchor="middle" x="226" y="-211.5" font-family="Helvetica,sans-Serif" font-size="10.00" fill="#000000"> encoding</text>
</g>
<!-- Node12 -->
<g id="node10" class="node">
<title>Node12</title>
<g id="a_node10"><a xlink:href="classnuspell_1_1v3_1_1_hash___multiset.html" target="_top" xlink:title="nuspell::v3::Hash_Multiset\l\&lt; std::pair\&lt; std::wstring,\l Flag_Set \&gt;, std::wstring,\l Extractor_First_of_Word_Pair \&gt;">
<polygon fill="#ffffff" stroke="#000000" points="0,-98.5 0,-150.5 158,-150.5 158,-98.5 0,-98.5"/>
<text text-anchor="start" x="8" y="-138.5" font-family="Helvetica,sans-Serif" font-size="10.00" fill="#000000">nuspell::v3::Hash_Multiset</text>
<text text-anchor="start" x="8" y="-127.5" font-family="Helvetica,sans-Serif" font-size="10.00" fill="#000000">&lt; std::pair&lt; std::wstring,</text>
<text text-anchor="start" x="8" y="-116.5" font-family="Helvetica,sans-Serif" font-size="10.00" fill="#000000"> Flag_Set &gt;, std::wstring,</text>
<text text-anchor="middle" x="79" y="-105.5" font-family="Helvetica,sans-Serif" font-size="10.00" fill="#000000"> Extractor_First_of_Word_Pair &gt;</text>
</a>
</g>
</g>
<!-- Node12&#45;&gt;Node5 -->
<g id="edge9" class="edge">
<title>Node12&#45;&gt;Node5</title>
<path fill="none" stroke="#9a32cd" stroke-dasharray="5,2" d="M168.1074,-142.4179C202.6044,-150.9046 241.9149,-162.5191 276,-177.5 298.517,-187.3966 322.1261,-203.6452 336.0656,-213.9464"/>
<polygon fill="#9a32cd" stroke="#9a32cd" points="168.5833,-138.9326 158.0419,-139.9959 166.9456,-145.7383 168.5833,-138.9326"/>
<text text-anchor="middle" x="226" y="-180.5" font-family="Helvetica,sans-Serif" font-size="10.00" fill="#000000"> words</text>
</g>
<!-- Node13 -->
<g id="node11" class="node">
<title>Node13</title>
<g id="a_node11"><a xlink:href="classnuspell_1_1v3_1_1_suffix___table.html" target="_top" xlink:title="nuspell::v3::Suffix\l_Table">
<polygon fill="#ffffff" stroke="#000000" points="31.5,-49.5 31.5,-79.5 126.5,-79.5 126.5,-49.5 31.5,-49.5"/>
<text text-anchor="start" x="39.5" y="-67.5" font-family="Helvetica,sans-Serif" font-size="10.00" fill="#000000">nuspell::v3::Suffix</text>
<text text-anchor="middle" x="79" y="-56.5" font-family="Helvetica,sans-Serif" font-size="10.00" fill="#000000">_Table</text>
</a>
</g>
</g>
<!-- Node13&#45;&gt;Node5 -->
<g id="edge10" class="edge">
<title>Node13&#45;&gt;Node5</title>
<path fill="none" stroke="#9a32cd" stroke-dasharray="5,2" d="M136.8012,-74.4029C178.453,-83.6779 234.4157,-100.7169 276,-130.5 308.2891,-153.6258 333.2753,-195.1096 343.4841,-213.8468"/>
<polygon fill="#9a32cd" stroke="#9a32cd" points="137.3174,-70.9342 126.8063,-72.2643 135.8526,-77.7793 137.3174,-70.9342"/>
<text text-anchor="middle" x="226" y="-133.5" font-family="Helvetica,sans-Serif" font-size="10.00" fill="#000000"> suffixes</text>
</g>
<!-- Node14 -->
<g id="node12" class="node">
<title>Node14</title>
<g id="a_node12"><a xlink:href="classnuspell_1_1v3_1_1_break___table.html" target="_top" xlink:title="nuspell::v3::Break\l_Table\&lt; wchar_t \&gt;">
<polygon fill="#ffffff" stroke="#000000" points="30,-.5 30,-30.5 128,-30.5 128,-.5 30,-.5"/>
<text text-anchor="start" x="38" y="-18.5" font-family="Helvetica,sans-Serif" font-size="10.00" fill="#000000">nuspell::v3::Break</text>
<text text-anchor="middle" x="79" y="-7.5" font-family="Helvetica,sans-Serif" font-size="10.00" fill="#000000">_Table&lt; wchar_t &gt;</text>
</a>
</g>
</g>
<!-- Node14&#45;&gt;Node5 -->
<g id="edge11" class="edge">
<title>Node14&#45;&gt;Node5</title>
<path fill="none" stroke="#9a32cd" stroke-dasharray="5,2" d="M138.3697,-19.163C180.9622,-24.6176 237.4138,-37.9815 276,-70.5 322.9759,-110.0888 341.5716,-187.014 346.8163,-213.9255"/>
<polygon fill="#9a32cd" stroke="#9a32cd" points="138.7485,-15.6835 128.4095,-17.9978 137.9351,-22.6361 138.7485,-15.6835"/>
<text text-anchor="middle" x="226" y="-73.5" font-family="Helvetica,sans-Serif" font-size="10.00" fill="#000000"> break_table</text>
</g>
</g>
</svg>
