<?xml version="1.0" encoding="UTF-8" standalone="no"?>
<!DOCTYPE svg PUBLIC "-//W3C//DTD SVG 1.1//EN"
 "http://www.w3.org/Graphics/SVG/1.1/DTD/svg11.dtd">
<!-- Generated by graphviz version 2.40.1 (20161225.0304)
 -->
<!-- Title: nuspell::String_Set::size Pages: 1 -->
<svg width="310pt" height="137pt"
 viewBox="0.00 0.00 310.00 137.00" xmlns="http://www.w3.org/2000/svg" xmlns:xlink="http://www.w3.org/1999/xlink">
<g id="graph0" class="graph" transform="scale(1 1) rotate(0) translate(4 133)">
<title>nuspell::String_Set::size</title>
<polygon fill="#ffffff" stroke="transparent" points="-4,4 -4,-133 306,-133 306,4 -4,4"/>
<!-- Node145 -->
<g id="node1" class="node">
<title>Node145</title>
<polygon fill="#bfbfbf" stroke="#000000" points="0,-49.5 0,-79.5 99,-79.5 99,-49.5 0,-49.5"/>
<text text-anchor="start" x="8" y="-67.5" font-family="Helvetica,sans-Serif" font-size="10.00" fill="#000000">nuspell::String_Set</text>
<text text-anchor="middle" x="49.5" y="-56.5" font-family="Helvetica,sans-Serif" font-size="10.00" fill="#000000">::size</text>
</g>
<!-- Node146 -->
<g id="node2" class="node">
<title>Node146</title>
<g id="a_node2"><a xlink:href="classnuspell_1_1_hash___multiset.html#a3b8cbfeea89a85f3fc7b148082fde426" target="_top" xlink:title="nuspell::Hash_Multiset\l::empty">
<polygon fill="#ffffff" stroke="#000000" points="160.5,-98.5 160.5,-128.5 276.5,-128.5 276.5,-98.5 160.5,-98.5"/>
<text text-anchor="start" x="168.5" y="-116.5" font-family="Helvetica,sans-Serif" font-size="10.00" fill="#000000">nuspell::Hash_Multiset</text>
<text text-anchor="middle" x="218.5" y="-105.5" font-family="Helvetica,sans-Serif" font-size="10.00" fill="#000000">::empty</text>
</a>
</g>
</g>
<!-- Node145&#45;&gt;Node146 -->
<g id="edge1" class="edge">
<title>Node145&#45;&gt;Node146</title>
<path fill="none" stroke="#191970" d="M108.9748,-81.9284C117.7012,-84.4745 126.5821,-87.0596 135,-89.5 144.996,-92.3979 155.6695,-95.4772 165.9292,-98.4296"/>
<polygon fill="#191970" stroke="#191970" points="109.8011,-78.5236 99.2209,-79.0801 107.8389,-85.2429 109.8011,-78.5236"/>
</g>
<!-- Node147 -->
<g id="node3" class="node">
<title>Node147</title>
<g id="a_node3"><a xlink:href="classnuspell_1_1_hash___multiset.html#ab3ead61cc282734748b90c838c624a2f" target="_top" xlink:title="nuspell::Hash_Multiset\l::rehash">
<polygon fill="#ffffff" stroke="#000000" points="160.5,-49.5 160.5,-79.5 276.5,-79.5 276.5,-49.5 160.5,-49.5"/>
<text text-anchor="start" x="168.5" y="-67.5" font-family="Helvetica,sans-Serif" font-size="10.00" fill="#000000">nuspell::Hash_Multiset</text>
<text text-anchor="middle" x="218.5" y="-56.5" font-family="Helvetica,sans-Serif" font-size="10.00" fill="#000000">::rehash</text>
</a>
</g>
</g>
<!-- Node145&#45;&gt;Node147 -->
<g id="edge2" class="edge">
<title>Node145&#45;&gt;Node147</title>
<path fill="none" stroke="#191970" d="M109.4119,-64.5C125.9943,-64.5 143.9606,-64.5 160.4359,-64.5"/>
<polygon fill="#191970" stroke="#191970" points="109.2915,-61.0001 99.2915,-64.5 109.2915,-68.0001 109.2915,-61.0001"/>
</g>
<!-- Node148 -->
<g id="node4" class="node">
<title>Node148</title>
<g id="a_node4"><a xlink:href="classnuspell_1_1_affix___table.html#a86f4ffa53af9bfb78150c350a322b2cd" target="_top" xlink:title="nuspell::Affix_Table\l\&lt; CharT \&gt;::has_continuation_flags">
<polygon fill="#ffffff" stroke="#000000" points="135,-.5 135,-30.5 302,-30.5 302,-.5 135,-.5"/>
<text text-anchor="start" x="143" y="-18.5" font-family="Helvetica,sans-Serif" font-size="10.00" fill="#000000">nuspell::Affix_Table</text>
<text text-anchor="middle" x="218.5" y="-7.5" font-family="Helvetica,sans-Serif" font-size="10.00" fill="#000000">&lt; CharT &gt;::has_continuation_flags</text>
</a>
</g>
</g>
<!-- Node145&#45;&gt;Node148 -->
<g id="edge3" class="edge">
<title>Node145&#45;&gt;Node148</title>
<path fill="none" stroke="#191970" d="M108.9548,-47.2616C127.795,-41.7991 148.4613,-35.8071 166.7179,-30.5137"/>
<polygon fill="#191970" stroke="#191970" points="107.9213,-43.9171 99.2915,-50.0634 109.8706,-50.6402 107.9213,-43.9171"/>
</g>
</g>
</svg>
