<?xml version="1.0" encoding="UTF-8" standalone="no"?>
<!DOCTYPE svg PUBLIC "-//W3C//DTD SVG 1.1//EN"
 "http://www.w3.org/Graphics/SVG/1.1/DTD/svg11.dtd">
<!-- Generated by graphviz version 2.40.1 (20161225.0304)
 -->
<!-- Title: nuspell::List_Strings::operator= Pages: 1 -->
<svg width="411pt" height="215pt"
 viewBox="0.00 0.00 411.00 214.50" xmlns="http://www.w3.org/2000/svg" xmlns:xlink="http://www.w3.org/1999/xlink">
<g id="graph0" class="graph" transform="scale(1 1) rotate(0) translate(4 210.5)">
<title>nuspell::List_Strings::operator=</title>
<polygon fill="#ffffff" stroke="transparent" points="-4,4 -4,-210.5 407,-210.5 407,4 -4,4"/>
<!-- Node132 -->
<g id="node1" class="node">
<title>Node132</title>
<polygon fill="#bfbfbf" stroke="#000000" points="0,-83 0,-113 105,-113 105,-83 0,-83"/>
<text text-anchor="start" x="8" y="-101" font-family="Helvetica,sans-Serif" font-size="10.00" fill="#000000">nuspell::List_Strings</text>
<text text-anchor="middle" x="52.5" y="-90" font-family="Helvetica,sans-Serif" font-size="10.00" fill="#000000">::operator=</text>
</g>
<!-- Node133 -->
<g id="node2" class="node">
<title>Node133</title>
<g id="a_node2"><a xlink:href="classnuspell_1_1_string___set.html#a3e481e3809e18632397a326b50334895" target="_top" xlink:title="nuspell::String_Set\l::clear">
<polygon fill="#ffffff" stroke="#000000" points="155,-176 155,-206 254,-206 254,-176 155,-176"/>
<text text-anchor="start" x="163" y="-194" font-family="Helvetica,sans-Serif" font-size="10.00" fill="#000000">nuspell::String_Set</text>
<text text-anchor="middle" x="204.5" y="-183" font-family="Helvetica,sans-Serif" font-size="10.00" fill="#000000">::clear</text>
</a>
</g>
</g>
<!-- Node132&#45;&gt;Node133 -->
<g id="edge1" class="edge">
<title>Node132&#45;&gt;Node133</title>
<path fill="none" stroke="#191970" d="M68.7185,-113.1075C85.6989,-128.3078 113.6521,-151.6385 141,-167 143.8771,-168.6161 146.8845,-170.1658 149.9592,-171.6442"/>
<polygon fill="#191970" stroke="#191970" points="148.7674,-174.946 159.3226,-175.8612 151.6419,-168.5634 148.7674,-174.946"/>
</g>
<!-- Node134 -->
<g id="node3" class="node">
<title>Node134</title>
<g id="a_node3"><a xlink:href="classnuspell_1_1_string___set.html#ac698158245a14d71e46f92af70098037" target="_top" xlink:title="nuspell::String_Set\l::insert">
<polygon fill="#ffffff" stroke="#000000" points="155,-127 155,-157 254,-157 254,-127 155,-127"/>
<text text-anchor="start" x="163" y="-145" font-family="Helvetica,sans-Serif" font-size="10.00" fill="#000000">nuspell::String_Set</text>
<text text-anchor="middle" x="204.5" y="-134" font-family="Helvetica,sans-Serif" font-size="10.00" fill="#000000">::insert</text>
</a>
</g>
</g>
<!-- Node132&#45;&gt;Node134 -->
<g id="edge2" class="edge">
<title>Node132&#45;&gt;Node134</title>
<path fill="none" stroke="#191970" d="M104.3846,-113.0192C117.5336,-116.8255 131.757,-120.9428 145.2406,-124.846"/>
<polygon fill="#191970" stroke="#191970" points="144.3232,-128.224 154.9021,-127.6427 146.2696,-121.5001 144.3232,-128.224"/>
</g>
<!-- Node135 -->
<g id="node4" class="node">
<title>Node135</title>
<g id="a_node4"><a xlink:href="classnuspell_1_1_string___set.html#a18bc20de4ed5671de253d5ffa25bde27" target="_top" xlink:title="nuspell::String_Set\l::begin">
<polygon fill="#ffffff" stroke="#000000" points="304,-39 304,-69 403,-69 403,-39 304,-39"/>
<text text-anchor="start" x="312" y="-57" font-family="Helvetica,sans-Serif" font-size="10.00" fill="#000000">nuspell::String_Set</text>
<text text-anchor="middle" x="353.5" y="-46" font-family="Helvetica,sans-Serif" font-size="10.00" fill="#000000">::begin</text>
</a>
</g>
</g>
<!-- Node132&#45;&gt;Node135 -->
<g id="edge3" class="edge">
<title>Node132&#45;&gt;Node135</title>
<path fill="none" stroke="#191970" d="M105.149,-96.2466C149.0251,-94.0969 213.0054,-89.3602 268,-79 277.9167,-77.1318 288.3327,-74.5919 298.3493,-71.8439"/>
<polygon fill="#191970" stroke="#191970" points="299.5375,-75.1449 308.1994,-69.0438 297.6234,-68.4116 299.5375,-75.1449"/>
</g>
<!-- Node136 -->
<g id="node5" class="node">
<title>Node136</title>
<g id="a_node5"><a xlink:href="classnuspell_1_1_list___strings.html#a030dc1c73b6e38cab8fa96a7bb18483d" target="_top" xlink:title="nuspell::List_Strings\l::begin">
<polygon fill="#ffffff" stroke="#000000" points="152,-39 152,-69 257,-69 257,-39 152,-39"/>
<text text-anchor="start" x="160" y="-57" font-family="Helvetica,sans-Serif" font-size="10.00" fill="#000000">nuspell::List_Strings</text>
<text text-anchor="middle" x="204.5" y="-46" font-family="Helvetica,sans-Serif" font-size="10.00" fill="#000000">::begin</text>
</a>
</g>
</g>
<!-- Node132&#45;&gt;Node136 -->
<g id="edge4" class="edge">
<title>Node132&#45;&gt;Node136</title>
<path fill="none" stroke="#191970" d="M104.3846,-82.9808C116.7892,-79.39 130.1498,-75.5224 142.9436,-71.819"/>
<polygon fill="#191970" stroke="#191970" points="143.9589,-75.1688 152.5913,-69.0262 142.0124,-68.4449 143.9589,-75.1688"/>
</g>
<!-- Node137 -->
<g id="node6" class="node">
<title>Node137</title>
<g id="a_node6"><a xlink:href="classnuspell_1_1_list___strings.html#a084c5de71215f0b5c7924b0396ae2575" target="_top" xlink:title="nuspell::List_Strings::end">
<polygon fill="#ffffff" stroke="#000000" points="141,-.5 141,-19.5 268,-19.5 268,-.5 141,-.5"/>
<text text-anchor="middle" x="204.5" y="-7.5" font-family="Helvetica,sans-Serif" font-size="10.00" fill="#000000">nuspell::List_Strings::end</text>
</a>
</g>
</g>
<!-- Node132&#45;&gt;Node137 -->
<g id="edge5" class="edge">
<title>Node132&#45;&gt;Node137</title>
<path fill="none" stroke="#191970" d="M68.5861,-82.8101C85.4609,-67.59 113.3314,-44.4094 141,-30 145.9975,-27.3974 151.3944,-25.0607 156.8574,-22.9831"/>
<polygon fill="#191970" stroke="#191970" points="158.4196,-26.1437 166.69,-19.5217 156.0952,-19.5409 158.4196,-26.1437"/>
</g>
<!-- Node137&#45;&gt;Node135 -->
<g id="edge6" class="edge">
<title>Node137&#45;&gt;Node135</title>
<path fill="none" stroke="#191970" d="M236.8308,-19.5473C253.5981,-24.4988 274.6146,-30.705 294.174,-36.4809"/>
<polygon fill="#191970" stroke="#191970" points="293.3535,-39.888 303.9353,-39.3634 295.336,-33.1746 293.3535,-39.888"/>
</g>
</g>
</svg>
