<?xml version="1.0" encoding="UTF-8" standalone="no"?>
<!DOCTYPE svg PUBLIC "-//W3C//DTD SVG 1.1//EN"
 "http://www.w3.org/Graphics/SVG/1.1/DTD/svg11.dtd">
<!-- Generated by graphviz version 2.40.1 (20161225.0304)
 -->
<!-- Title: nuspell::List_Strings::erase Pages: 1 -->
<svg width="270pt" height="127pt"
 viewBox="0.00 0.00 270.00 126.50" xmlns="http://www.w3.org/2000/svg" xmlns:xlink="http://www.w3.org/1999/xlink">
<g id="graph0" class="graph" transform="scale(1 1) rotate(0) translate(4 122.5)">
<title>nuspell::List_Strings::erase</title>
<polygon fill="#ffffff" stroke="transparent" points="-4,4 -4,-122.5 266,-122.5 266,4 -4,4"/>
<!-- Node88 -->
<g id="node1" class="node">
<title>Node88</title>
<polygon fill="#bfbfbf" stroke="#000000" points="0,-39 0,-69 105,-69 105,-39 0,-39"/>
<text text-anchor="start" x="8" y="-57" font-family="Helvetica,sans-Serif" font-size="10.00" fill="#000000">nuspell::List_Strings</text>
<text text-anchor="middle" x="52.5" y="-46" font-family="Helvetica,sans-Serif" font-size="10.00" fill="#000000">::erase</text>
</g>
<!-- Node89 -->
<g id="node2" class="node">
<title>Node89</title>
<g id="a_node2"><a xlink:href="classnuspell_1_1_string___set.html#a18bc20de4ed5671de253d5ffa25bde27" target="_top" xlink:title="nuspell::String_Set\l::begin">
<polygon fill="#ffffff" stroke="#000000" points="152,-88 152,-118 251,-118 251,-88 152,-88"/>
<text text-anchor="start" x="160" y="-106" font-family="Helvetica,sans-Serif" font-size="10.00" fill="#000000">nuspell::String_Set</text>
<text text-anchor="middle" x="201.5" y="-95" font-family="Helvetica,sans-Serif" font-size="10.00" fill="#000000">::begin</text>
</a>
</g>
</g>
<!-- Node88&#45;&gt;Node89 -->
<g id="edge1" class="edge">
<title>Node88&#45;&gt;Node89</title>
<path fill="none" stroke="#191970" d="M98.4207,-69.1014C113.5034,-74.0615 130.4281,-79.6274 146.1355,-84.7929"/>
<polygon fill="#191970" stroke="#191970" points="145.138,-88.1492 155.7309,-87.9484 147.3248,-81.4995 145.138,-88.1492"/>
</g>
<!-- Node90 -->
<g id="node3" class="node">
<title>Node90</title>
<g id="a_node3"><a xlink:href="classnuspell_1_1_string___set.html#a38f2e5910e7afb5940028d750e98796a" target="_top" xlink:title="nuspell::String_Set\l::cbegin">
<polygon fill="#ffffff" stroke="#000000" points="152,-39 152,-69 251,-69 251,-39 152,-39"/>
<text text-anchor="start" x="160" y="-57" font-family="Helvetica,sans-Serif" font-size="10.00" fill="#000000">nuspell::String_Set</text>
<text text-anchor="middle" x="201.5" y="-46" font-family="Helvetica,sans-Serif" font-size="10.00" fill="#000000">::cbegin</text>
</a>
</g>
</g>
<!-- Node88&#45;&gt;Node90 -->
<g id="edge2" class="edge">
<title>Node88&#45;&gt;Node90</title>
<path fill="none" stroke="#191970" d="M105.0318,-54C116.945,-54 129.6813,-54 141.8647,-54"/>
<polygon fill="#191970" stroke="#191970" points="141.9386,-57.5001 151.9385,-54 141.9385,-50.5001 141.9386,-57.5001"/>
</g>
<!-- Node91 -->
<g id="node4" class="node">
<title>Node91</title>
<g id="a_node4"><a xlink:href="classnuspell_1_1_string___set.html#a1ac519529575a85ad75d6ddebde856ef" target="_top" xlink:title="nuspell::String_Set::end">
<polygon fill="#ffffff" stroke="#000000" points="141,-.5 141,-19.5 262,-19.5 262,-.5 141,-.5"/>
<text text-anchor="middle" x="201.5" y="-7.5" font-family="Helvetica,sans-Serif" font-size="10.00" fill="#000000">nuspell::String_Set::end</text>
</a>
</g>
</g>
<!-- Node88&#45;&gt;Node91 -->
<g id="edge3" class="edge">
<title>Node88&#45;&gt;Node91</title>
<path fill="none" stroke="#191970" d="M103.3606,-38.9808C121.5428,-33.6115 141.8208,-27.6234 159.2027,-22.4905"/>
<polygon fill="#191970" stroke="#191970" points="160.4651,-25.7672 169.0644,-19.5783 158.4826,-19.0538 160.4651,-25.7672"/>
</g>
</g>
</svg>
