<?xml version="1.0" encoding="UTF-8" standalone="no"?>
<!DOCTYPE svg PUBLIC "-//W3C//DTD SVG 1.1//EN"
 "http://www.w3.org/Graphics/SVG/1.1/DTD/svg11.dtd">
<!-- Generated by graphviz version 2.40.1 (20161225.0304)
 -->
<!-- Title: nuspell::Hash_Multiset::insert Pages: 1 -->
<svg width="281pt" height="127pt"
 viewBox="0.00 0.00 281.00 126.50" xmlns="http://www.w3.org/2000/svg" xmlns:xlink="http://www.w3.org/1999/xlink">
<g id="graph0" class="graph" transform="scale(1 1) rotate(0) translate(4 122.5)">
<title>nuspell::Hash_Multiset::insert</title>
<polygon fill="#ffffff" stroke="transparent" points="-4,4 -4,-122.5 277,-122.5 277,4 -4,4"/>
<!-- Node20 -->
<g id="node1" class="node">
<title>Node20</title>
<polygon fill="#bfbfbf" stroke="#000000" points="0,-49.5 0,-79.5 116,-79.5 116,-49.5 0,-49.5"/>
<text text-anchor="start" x="8" y="-67.5" font-family="Helvetica,sans-Serif" font-size="10.00" fill="#000000">nuspell::Hash_Multiset</text>
<text text-anchor="middle" x="58" y="-56.5" font-family="Helvetica,sans-Serif" font-size="10.00" fill="#000000">::insert</text>
</g>
<!-- Node21 -->
<g id="node2" class="node">
<title>Node21</title>
<g id="a_node2"><a xlink:href="classnuspell_1_1_string___set.html#a1ac519529575a85ad75d6ddebde856ef" target="_top" xlink:title="nuspell::String_Set::end">
<polygon fill="#ffffff" stroke="#000000" points="152,-99 152,-118 273,-118 273,-99 152,-99"/>
<text text-anchor="middle" x="212.5" y="-106" font-family="Helvetica,sans-Serif" font-size="10.00" fill="#000000">nuspell::String_Set::end</text>
</a>
</g>
</g>
<!-- Node20&#45;&gt;Node21 -->
<g id="edge1" class="edge">
<title>Node20&#45;&gt;Node21</title>
<path fill="none" stroke="#191970" d="M110.738,-79.5192C129.7676,-84.9387 151.0111,-90.9886 169.1459,-96.1532"/>
<polygon fill="#191970" stroke="#191970" points="168.2909,-99.5488 178.8672,-98.9217 170.2082,-92.8165 168.2909,-99.5488"/>
</g>
<!-- Node22 -->
<g id="node3" class="node">
<title>Node22</title>
<g id="a_node3"><a xlink:href="classnuspell_1_1_string___set.html#a7f8872faa8c23278b86d274f78e4cb3a" target="_top" xlink:title="nuspell::String_Set\l::rbegin">
<polygon fill="#ffffff" stroke="#000000" points="163,-49.5 163,-79.5 262,-79.5 262,-49.5 163,-49.5"/>
<text text-anchor="start" x="171" y="-67.5" font-family="Helvetica,sans-Serif" font-size="10.00" fill="#000000">nuspell::String_Set</text>
<text text-anchor="middle" x="212.5" y="-56.5" font-family="Helvetica,sans-Serif" font-size="10.00" fill="#000000">::rbegin</text>
</a>
</g>
</g>
<!-- Node20&#45;&gt;Node22 -->
<g id="edge2" class="edge">
<title>Node20&#45;&gt;Node22</title>
<path fill="none" stroke="#191970" d="M116.4098,-64.5C128.1742,-64.5 140.5595,-64.5 152.3811,-64.5"/>
<polygon fill="#191970" stroke="#191970" points="152.595,-68.0001 162.595,-64.5 152.5949,-61.0001 152.595,-68.0001"/>
</g>
<!-- Node23 -->
<g id="node4" class="node">
<title>Node23</title>
<g id="a_node4"><a xlink:href="classnuspell_1_1_string___set.html#a09c06cd7c4693e87e444f9755e584c12" target="_top" xlink:title="nuspell::String_Set\l::rend">
<polygon fill="#ffffff" stroke="#000000" points="163,-.5 163,-30.5 262,-30.5 262,-.5 163,-.5"/>
<text text-anchor="start" x="171" y="-18.5" font-family="Helvetica,sans-Serif" font-size="10.00" fill="#000000">nuspell::String_Set</text>
<text text-anchor="middle" x="212.5" y="-7.5" font-family="Helvetica,sans-Serif" font-size="10.00" fill="#000000">::rend</text>
</a>
</g>
</g>
<!-- Node20&#45;&gt;Node23 -->
<g id="edge3" class="edge">
<title>Node20&#45;&gt;Node23</title>
<path fill="none" stroke="#191970" d="M105.6158,-49.3986C121.2552,-44.4385 138.8047,-38.8726 155.0919,-33.7071"/>
<polygon fill="#191970" stroke="#191970" points="156.5675,-36.911 165.0415,-30.5516 154.4512,-30.2385 156.5675,-36.911"/>
</g>
</g>
</svg>
