<?xml version="1.0" encoding="UTF-8" standalone="no"?>
<!DOCTYPE svg PUBLIC "-//W3C//DTD SVG 1.1//EN"
 "http://www.w3.org/Graphics/SVG/1.1/DTD/svg11.dtd">
<!-- Generated by graphviz version 2.40.1 (20161225.0304)
 -->
<!-- Title: nuspell::String_Set::end Pages: 1 -->
<svg width="302pt" height="433pt"
 viewBox="0.00 0.00 302.00 432.50" xmlns="http://www.w3.org/2000/svg" xmlns:xlink="http://www.w3.org/1999/xlink">
<g id="graph0" class="graph" transform="scale(1 1) rotate(0) translate(4 428.5)">
<title>nuspell::String_Set::end</title>
<polygon fill="#ffffff" stroke="transparent" points="-4,4 -4,-428.5 298,-428.5 298,4 -4,4"/>
<!-- Node56 -->
<g id="node1" class="node">
<title>Node56</title>
<polygon fill="#bfbfbf" stroke="#000000" points="0,-203.5 0,-222.5 121,-222.5 121,-203.5 0,-203.5"/>
<text text-anchor="middle" x="60.5" y="-210.5" font-family="Helvetica,sans-Serif" font-size="10.00" fill="#000000">nuspell::String_Set::end</text>
</g>
<!-- Node57 -->
<g id="node2" class="node">
<title>Node57</title>
<g id="a_node2"><a xlink:href="classnuspell_1_1_string___set.html#a74f43aeb2697f0566de81567c6e94e11" target="_top" xlink:title="nuspell::String_Set\l\&lt; char16_t \&gt;::sort_uniq">
<polygon fill="#ffffff" stroke="#000000" points="166.5,-394 166.5,-424 284.5,-424 284.5,-394 166.5,-394"/>
<text text-anchor="start" x="174.5" y="-412" font-family="Helvetica,sans-Serif" font-size="10.00" fill="#000000">nuspell::String_Set</text>
<text text-anchor="middle" x="225.5" y="-401" font-family="Helvetica,sans-Serif" font-size="10.00" fill="#000000">&lt; char16_t &gt;::sort_uniq</text>
</a>
</g>
</g>
<!-- Node56&#45;&gt;Node57 -->
<g id="edge1" class="edge">
<title>Node56&#45;&gt;Node57</title>
<path fill="none" stroke="#191970" d="M66.2767,-232.3819C77.7785,-267.7331 106.85,-342.9086 157,-385 161.0539,-388.4024 165.6213,-391.3345 170.4248,-393.8588"/>
<polygon fill="#191970" stroke="#191970" points="69.5954,-231.2675 63.2673,-222.7701 62.9152,-233.3591 69.5954,-231.2675"/>
</g>
<!-- Node58 -->
<g id="node3" class="node">
<title>Node58</title>
<g id="a_node3"><a xlink:href="classnuspell_1_1_string___set.html#ac698158245a14d71e46f92af70098037" target="_top" xlink:title="nuspell::String_Set\l\&lt; char16_t \&gt;::insert">
<polygon fill="#ffffff" stroke="#000000" points="174.5,-345 174.5,-375 276.5,-375 276.5,-345 174.5,-345"/>
<text text-anchor="start" x="182.5" y="-363" font-family="Helvetica,sans-Serif" font-size="10.00" fill="#000000">nuspell::String_Set</text>
<text text-anchor="middle" x="225.5" y="-352" font-family="Helvetica,sans-Serif" font-size="10.00" fill="#000000">&lt; char16_t &gt;::insert</text>
</a>
</g>
</g>
<!-- Node56&#45;&gt;Node58 -->
<g id="edge2" class="edge">
<title>Node56&#45;&gt;Node58</title>
<path fill="none" stroke="#191970" d="M70.4604,-231.5645C85.7031,-258.3039 117.273,-307.5621 157,-336 162.3282,-339.8141 168.3181,-343.0689 174.481,-345.8344"/>
<polygon fill="#191970" stroke="#191970" points="73.3479,-229.5546 65.435,-222.5092 67.2273,-232.9514 73.3479,-229.5546"/>
</g>
<!-- Node59 -->
<g id="node4" class="node">
<title>Node59</title>
<g id="a_node4"><a xlink:href="classnuspell_1_1_string___set.html#ac42caccbd9ed0fd43844544e4a6dc0e4" target="_top" xlink:title="nuspell::String_Set\l\&lt; char16_t \&gt;::lower_bound">
<polygon fill="#ffffff" stroke="#000000" points="159,-296 159,-326 292,-326 292,-296 159,-296"/>
<text text-anchor="start" x="167" y="-314" font-family="Helvetica,sans-Serif" font-size="10.00" fill="#000000">nuspell::String_Set</text>
<text text-anchor="middle" x="225.5" y="-303" font-family="Helvetica,sans-Serif" font-size="10.00" fill="#000000">&lt; char16_t &gt;::lower_bound</text>
</a>
</g>
</g>
<!-- Node56&#45;&gt;Node59 -->
<g id="edge3" class="edge">
<title>Node56&#45;&gt;Node59</title>
<path fill="none" stroke="#191970" d="M78.348,-229.505C96.8555,-245.9119 127.2047,-270.8927 157,-287 163.0968,-290.2959 169.7357,-293.2834 176.4023,-295.9428"/>
<polygon fill="#191970" stroke="#191970" points="80.494,-226.7274 70.7224,-222.6327 75.8077,-231.9273 80.494,-226.7274"/>
</g>
<!-- Node60 -->
<g id="node5" class="node">
<title>Node60</title>
<g id="a_node5"><a xlink:href="classnuspell_1_1_string___set.html#a787f62831f35de5f2347c68912205565" target="_top" xlink:title="nuspell::String_Set\l\&lt; char16_t \&gt;::upper_bound">
<polygon fill="#ffffff" stroke="#000000" points="158.5,-247 158.5,-277 292.5,-277 292.5,-247 158.5,-247"/>
<text text-anchor="start" x="166.5" y="-265" font-family="Helvetica,sans-Serif" font-size="10.00" fill="#000000">nuspell::String_Set</text>
<text text-anchor="middle" x="225.5" y="-254" font-family="Helvetica,sans-Serif" font-size="10.00" fill="#000000">&lt; char16_t &gt;::upper_bound</text>
</a>
</g>
</g>
<!-- Node56&#45;&gt;Node60 -->
<g id="edge4" class="edge">
<title>Node56&#45;&gt;Node60</title>
<path fill="none" stroke="#191970" d="M102.4372,-225.4541C124.477,-231.9992 151.6585,-240.0713 174.8653,-246.963"/>
<polygon fill="#191970" stroke="#191970" points="103.288,-222.0557 92.7054,-222.564 101.2952,-228.7661 103.288,-222.0557"/>
</g>
<!-- Node61 -->
<g id="node6" class="node">
<title>Node61</title>
<g id="a_node6"><a xlink:href="classnuspell_1_1_string___set.html#a4e8fd052284151b5e18c71906c450611" target="_top" xlink:title="nuspell::String_Set\l\&lt; char16_t \&gt;::equal_range">
<polygon fill="#ffffff" stroke="#000000" points="160,-198 160,-228 291,-228 291,-198 160,-198"/>
<text text-anchor="start" x="168" y="-216" font-family="Helvetica,sans-Serif" font-size="10.00" fill="#000000">nuspell::String_Set</text>
<text text-anchor="middle" x="225.5" y="-205" font-family="Helvetica,sans-Serif" font-size="10.00" fill="#000000">&lt; char16_t &gt;::equal_range</text>
</a>
</g>
</g>
<!-- Node56&#45;&gt;Node61 -->
<g id="edge5" class="edge">
<title>Node56&#45;&gt;Node61</title>
<path fill="none" stroke="#191970" d="M131.176,-213C140.6504,-213 150.3373,-213 159.7227,-213"/>
<polygon fill="#191970" stroke="#191970" points="131.003,-209.5001 121.003,-213 131.003,-216.5001 131.003,-209.5001"/>
</g>
<!-- Node62 -->
<g id="node7" class="node">
<title>Node62</title>
<g id="a_node7"><a xlink:href="classnuspell_1_1_hash___multiset.html#aad3b03ada05b0c7d540c83545e81ee23" target="_top" xlink:title="nuspell::Hash_Multiset\l::insert">
<polygon fill="#ffffff" stroke="#000000" points="167.5,-149 167.5,-179 283.5,-179 283.5,-149 167.5,-149"/>
<text text-anchor="start" x="175.5" y="-167" font-family="Helvetica,sans-Serif" font-size="10.00" fill="#000000">nuspell::Hash_Multiset</text>
<text text-anchor="middle" x="225.5" y="-156" font-family="Helvetica,sans-Serif" font-size="10.00" fill="#000000">::insert</text>
</a>
</g>
</g>
<!-- Node56&#45;&gt;Node62 -->
<g id="edge6" class="edge">
<title>Node56&#45;&gt;Node62</title>
<path fill="none" stroke="#191970" d="M102.4372,-200.5459C124.477,-194.0008 151.6585,-185.9287 174.8653,-179.037"/>
<polygon fill="#191970" stroke="#191970" points="101.2952,-197.2339 92.7054,-203.436 103.288,-203.9443 101.2952,-197.2339"/>
</g>
<!-- Node63 -->
<g id="node8" class="node">
<title>Node63</title>
<g id="a_node8"><a xlink:href="classnuspell_1_1_hash___multiset.html#ad3a00cea7680614167e392c7c6df5c90" target="_top" xlink:title="nuspell::Hash_Multiset\l::equal_range_nonconst\l_unsafe">
<polygon fill="#ffffff" stroke="#000000" points="165.5,-88.5 165.5,-129.5 285.5,-129.5 285.5,-88.5 165.5,-88.5"/>
<text text-anchor="start" x="173.5" y="-117.5" font-family="Helvetica,sans-Serif" font-size="10.00" fill="#000000">nuspell::Hash_Multiset</text>
<text text-anchor="start" x="173.5" y="-106.5" font-family="Helvetica,sans-Serif" font-size="10.00" fill="#000000">::equal_range_nonconst</text>
<text text-anchor="middle" x="225.5" y="-95.5" font-family="Helvetica,sans-Serif" font-size="10.00" fill="#000000">_unsafe</text>
</a>
</g>
</g>
<!-- Node56&#45;&gt;Node63 -->
<g id="edge7" class="edge">
<title>Node56&#45;&gt;Node63</title>
<path fill="none" stroke="#191970" d="M79.3062,-196.7607C98.1322,-181.0017 128.3432,-157.0341 157,-140 163.1714,-136.3316 169.8529,-132.8085 176.5404,-129.5377"/>
<polygon fill="#191970" stroke="#191970" points="76.8725,-194.2353 71.504,-203.3693 81.3968,-199.5767 76.8725,-194.2353"/>
</g>
<!-- Node64 -->
<g id="node9" class="node">
<title>Node64</title>
<g id="a_node9"><a xlink:href="classnuspell_1_1_hash___multiset.html#a615f7b3ae53f0cef400668746d8be501" target="_top" xlink:title="nuspell::Hash_Multiset\l::equal_range">
<polygon fill="#ffffff" stroke="#000000" points="167.5,-39 167.5,-69 283.5,-69 283.5,-39 167.5,-39"/>
<text text-anchor="start" x="175.5" y="-57" font-family="Helvetica,sans-Serif" font-size="10.00" fill="#000000">nuspell::Hash_Multiset</text>
<text text-anchor="middle" x="225.5" y="-46" font-family="Helvetica,sans-Serif" font-size="10.00" fill="#000000">::equal_range</text>
</a>
</g>
</g>
<!-- Node56&#45;&gt;Node64 -->
<g id="edge8" class="edge">
<title>Node56&#45;&gt;Node64</title>
<path fill="none" stroke="#191970" d="M69.4643,-194.0549C83.983,-165.2886 115.2774,-110.6065 157,-79 162.0455,-75.1778 167.7332,-71.895 173.6198,-69.0866"/>
<polygon fill="#191970" stroke="#191970" points="66.147,-192.8702 64.886,-203.3897 72.4319,-195.9526 66.147,-192.8702"/>
</g>
<!-- Node65 -->
<g id="node10" class="node">
<title>Node65</title>
<g id="a_node10"><a xlink:href="structnuspell_1_1sv__hash.html#ab76772bf628157212781d7ac2e95f3d8" target="_top" xlink:title="nuspell::sv_hash::operator()">
<polygon fill="#ffffff" stroke="#000000" points="157,-.5 157,-19.5 294,-19.5 294,-.5 157,-.5"/>
<text text-anchor="middle" x="225.5" y="-7.5" font-family="Helvetica,sans-Serif" font-size="10.00" fill="#000000">nuspell::sv_hash::operator()</text>
</a>
</g>
</g>
<!-- Node56&#45;&gt;Node65 -->
<g id="edge9" class="edge">
<title>Node56&#45;&gt;Node65</title>
<path fill="none" stroke="#191970" d="M65.3962,-193.1908C75.7164,-155.6198 103.2994,-73.8538 157,-30 162.3736,-25.6117 168.6741,-22.1863 175.2388,-19.5124"/>
<polygon fill="#191970" stroke="#191970" points="61.8856,-192.7805 62.7377,-203.341 68.6572,-194.5541 61.8856,-192.7805"/>
</g>
</g>
</svg>
