<?xml version="1.0" encoding="UTF-8" standalone="no"?>
<!DOCTYPE svg PUBLIC "-//W3C//DTD SVG 1.1//EN"
 "http://www.w3.org/Graphics/SVG/1.1/DTD/svg11.dtd">
<!-- Generated by graphviz version 2.40.1 (20161225.0304)
 -->
<!-- Title: nuspell::Basic_Dictionary::suggest Pages: 1 -->
<svg width="374pt" height="104pt"
 viewBox="0.00 0.00 374.00 104.00" xmlns="http://www.w3.org/2000/svg" xmlns:xlink="http://www.w3.org/1999/xlink">
<g id="graph0" class="graph" transform="scale(1 1) rotate(0) translate(4 100)">
<title>nuspell::Basic_Dictionary::suggest</title>
<polygon fill="#ffffff" stroke="transparent" points="-4,4 -4,-100 370,-100 370,4 -4,4"/>
<!-- Node31 -->
<g id="node1" class="node">
<title>Node31</title>
<polygon fill="#bfbfbf" stroke="#000000" points="0,-33 0,-63 128,-63 128,-33 0,-33"/>
<text text-anchor="start" x="8" y="-51" font-family="Helvetica,sans-Serif" font-size="10.00" fill="#000000">nuspell::Basic_Dictionary</text>
<text text-anchor="middle" x="64" y="-40" font-family="Helvetica,sans-Serif" font-size="10.00" fill="#000000">::suggest</text>
</g>
<!-- Node32 -->
<g id="node2" class="node">
<title>Node32</title>
<g id="a_node2"><a xlink:href="main_8cxx.html#a1b26793ef57883beab96fb3f93153e59" target="_top" xlink:title="Normal loop, tokenize and check spelling. ">
<polygon fill="#ffffff" stroke="#000000" points="193.5,-76.5 193.5,-95.5 262.5,-95.5 262.5,-76.5 193.5,-76.5"/>
<text text-anchor="middle" x="228" y="-83.5" font-family="Helvetica,sans-Serif" font-size="10.00" fill="#000000">normal_loop</text>
</a>
</g>
</g>
<!-- Node31&#45;&gt;Node32 -->
<g id="edge1" class="edge">
<title>Node31&#45;&gt;Node32</title>
<path fill="none" stroke="#191970" d="M138.273,-65.2096C157.3967,-69.6407 177.086,-74.2028 193.1305,-77.9205"/>
<polygon fill="#191970" stroke="#191970" points="138.8784,-61.7572 128.3464,-62.9095 137.2983,-68.5766 138.8784,-61.7572"/>
</g>
<!-- Node34 -->
<g id="node4" class="node">
<title>Node34</title>
<g id="a_node4"><a xlink:href="main_8cxx.html#a4e73c17f0cea2b14e0f5a32e2e174f11" target="_top" xlink:title="Normal loop, tokenize and check spelling. ">
<polygon fill="#ffffff" stroke="#000000" points="189.5,-38.5 189.5,-57.5 266.5,-57.5 266.5,-38.5 189.5,-38.5"/>
<text text-anchor="middle" x="228" y="-45.5" font-family="Helvetica,sans-Serif" font-size="10.00" fill="#000000">segment_loop</text>
</a>
</g>
</g>
<!-- Node31&#45;&gt;Node34 -->
<g id="edge3" class="edge">
<title>Node31&#45;&gt;Node34</title>
<path fill="none" stroke="#191970" d="M138.6069,-48C156.1646,-48 174.178,-48 189.3922,-48"/>
<polygon fill="#191970" stroke="#191970" points="138.3465,-44.5001 128.3464,-48 138.3464,-51.5001 138.3465,-44.5001"/>
</g>
<!-- Node35 -->
<g id="node5" class="node">
<title>Node35</title>
<g id="a_node5"><a xlink:href="main_8cxx.html#a42fbab96f4709cbe51a87aa1c800149d" target="_top" xlink:title="Normal loop, tokenize and check spelling. ">
<polygon fill="#ffffff" stroke="#000000" points="164,-.5 164,-19.5 292,-19.5 292,-.5 164,-.5"/>
<text text-anchor="middle" x="228" y="-7.5" font-family="Helvetica,sans-Serif" font-size="10.00" fill="#000000">segment_nosuggest_loop</text>
</a>
</g>
</g>
<!-- Node31&#45;&gt;Node35 -->
<g id="edge5" class="edge">
<title>Node31&#45;&gt;Node35</title>
<path fill="none" stroke="#191970" d="M138.1575,-30.8172C154.9442,-26.9276 172.1732,-22.9355 186.996,-19.5009"/>
<polygon fill="#191970" stroke="#191970" points="137.2983,-27.4234 128.3464,-33.0905 138.8784,-34.2428 137.2983,-27.4234"/>
</g>
<!-- Node33 -->
<g id="node3" class="node">
<title>Node33</title>
<g id="a_node3"><a xlink:href="main_8cxx.html#a0ddf1224851353fc92bfbff6f499fa97" target="_top" xlink:title="main">
<polygon fill="#ffffff" stroke="#000000" points="328,-38.5 328,-57.5 366,-57.5 366,-38.5 328,-38.5"/>
<text text-anchor="middle" x="347" y="-45.5" font-family="Helvetica,sans-Serif" font-size="10.00" fill="#000000">main</text>
</a>
</g>
</g>
<!-- Node32&#45;&gt;Node33 -->
<g id="edge2" class="edge">
<title>Node32&#45;&gt;Node33</title>
<path fill="none" stroke="#191970" d="M271.2955,-73.4283C278.2353,-71.3322 285.3268,-69.1421 292,-67 304.0236,-63.1405 317.4185,-58.5201 327.9788,-54.802"/>
<polygon fill="#191970" stroke="#191970" points="269.8814,-70.1979 261.3027,-76.4154 271.8863,-76.9047 269.8814,-70.1979"/>
</g>
<!-- Node34&#45;&gt;Node33 -->
<g id="edge4" class="edge">
<title>Node34&#45;&gt;Node33</title>
<path fill="none" stroke="#191970" d="M276.7267,-48C294.7073,-48 314.0458,-48 327.8754,-48"/>
<polygon fill="#191970" stroke="#191970" points="276.6359,-44.5001 266.6359,-48 276.6359,-51.5001 276.6359,-44.5001"/>
</g>
<!-- Node35&#45;&gt;Node33 -->
<g id="edge6" class="edge">
<title>Node35&#45;&gt;Node33</title>
<path fill="none" stroke="#191970" d="M271.2955,-22.5717C278.2353,-24.6678 285.3268,-26.8579 292,-29 304.0236,-32.8595 317.4185,-37.4799 327.9788,-41.198"/>
<polygon fill="#191970" stroke="#191970" points="271.8863,-19.0953 261.3027,-19.5846 269.8814,-25.8021 271.8863,-19.0953"/>
</g>
</g>
</svg>
