<?xml version="1.0" encoding="UTF-8" standalone="no"?>
<!DOCTYPE svg PUBLIC "-//W3C//DTD SVG 1.1//EN"
 "http://www.w3.org/Graphics/SVG/1.1/DTD/svg11.dtd">
<!-- Generated by graphviz version 2.40.1 (20161225.0304)
 -->
<!-- Title: nuspell::String_Set::end Pages: 1 -->
<svg width="302pt" height="751pt"
 viewBox="0.00 0.00 302.00 750.50" xmlns="http://www.w3.org/2000/svg" xmlns:xlink="http://www.w3.org/1999/xlink">
<g id="graph0" class="graph" transform="scale(1 1) rotate(0) translate(4 746.5)">
<title>nuspell::String_Set::end</title>
<polygon fill="#ffffff" stroke="transparent" points="-4,4 -4,-746.5 298,-746.5 298,4 -4,4"/>
<!-- Node82 -->
<g id="node1" class="node">
<title>Node82</title>
<polygon fill="#bfbfbf" stroke="#000000" points="0,-356.5 0,-375.5 121,-375.5 121,-356.5 0,-356.5"/>
<text text-anchor="middle" x="60.5" y="-363.5" font-family="Helvetica,sans-Serif" font-size="10.00" fill="#000000">nuspell::String_Set::end</text>
</g>
<!-- Node83 -->
<g id="node2" class="node">
<title>Node83</title>
<g id="a_node2"><a xlink:href="classnuspell_1_1_string___set.html#a74f43aeb2697f0566de81567c6e94e11" target="_top" xlink:title="nuspell::String_Set\l\&lt; char16_t \&gt;::sort_uniq">
<polygon fill="#ffffff" stroke="#000000" points="166.5,-712 166.5,-742 284.5,-742 284.5,-712 166.5,-712"/>
<text text-anchor="start" x="174.5" y="-730" font-family="Helvetica,sans-Serif" font-size="10.00" fill="#000000">nuspell::String_Set</text>
<text text-anchor="middle" x="225.5" y="-719" font-family="Helvetica,sans-Serif" font-size="10.00" fill="#000000">&lt; char16_t &gt;::sort_uniq</text>
</a>
</g>
</g>
<!-- Node82&#45;&gt;Node83 -->
<g id="edge1" class="edge">
<title>Node82&#45;&gt;Node83</title>
<path fill="none" stroke="#191970" d="M63.7368,-385.8505C74.6885,-450.7955 112.1832,-655.5001 157,-703 160.1997,-706.3912 163.9053,-709.3035 167.9039,-711.8045"/>
<polygon fill="#191970" stroke="#191970" points="67.1468,-385.0194 62.0553,-375.7281 60.2414,-386.1665 67.1468,-385.0194"/>
</g>
<!-- Node84 -->
<g id="node3" class="node">
<title>Node84</title>
<g id="a_node3"><a xlink:href="classnuspell_1_1_string___set.html#ac698158245a14d71e46f92af70098037" target="_top" xlink:title="nuspell::String_Set\l\&lt; char16_t \&gt;::insert">
<polygon fill="#ffffff" stroke="#000000" points="174.5,-663 174.5,-693 276.5,-693 276.5,-663 174.5,-663"/>
<text text-anchor="start" x="182.5" y="-681" font-family="Helvetica,sans-Serif" font-size="10.00" fill="#000000">nuspell::String_Set</text>
<text text-anchor="middle" x="225.5" y="-670" font-family="Helvetica,sans-Serif" font-size="10.00" fill="#000000">&lt; char16_t &gt;::insert</text>
</a>
</g>
</g>
<!-- Node82&#45;&gt;Node84 -->
<g id="edge2" class="edge">
<title>Node82&#45;&gt;Node84</title>
<path fill="none" stroke="#191970" d="M61.3792,-385.8728C64.7271,-437.4049 80.7432,-576.6922 157,-654 161.9555,-659.0238 168.0209,-662.9982 174.4733,-666.1418"/>
<polygon fill="#191970" stroke="#191970" points="64.8662,-385.5415 60.8163,-375.7513 57.877,-385.9302 64.8662,-385.5415"/>
</g>
<!-- Node85 -->
<g id="node4" class="node">
<title>Node85</title>
<g id="a_node4"><a xlink:href="classnuspell_1_1_string___set.html#ac42caccbd9ed0fd43844544e4a6dc0e4" target="_top" xlink:title="nuspell::String_Set\l\&lt; char16_t \&gt;::lower_bound">
<polygon fill="#ffffff" stroke="#000000" points="159,-614 159,-644 292,-644 292,-614 159,-614"/>
<text text-anchor="start" x="167" y="-632" font-family="Helvetica,sans-Serif" font-size="10.00" fill="#000000">nuspell::String_Set</text>
<text text-anchor="middle" x="225.5" y="-621" font-family="Helvetica,sans-Serif" font-size="10.00" fill="#000000">&lt; char16_t &gt;::lower_bound</text>
</a>
</g>
</g>
<!-- Node82&#45;&gt;Node85 -->
<g id="edge3" class="edge">
<title>Node82&#45;&gt;Node85</title>
<path fill="none" stroke="#191970" d="M62.9416,-385.7775C69.5586,-431.0168 91.9419,-542.9143 157,-605 160.5553,-608.3929 164.6172,-611.309 168.9487,-613.8149"/>
<polygon fill="#191970" stroke="#191970" points="66.3982,-385.2203 61.5827,-375.7831 59.462,-386.1635 66.3982,-385.2203"/>
</g>
<!-- Node86 -->
<g id="node5" class="node">
<title>Node86</title>
<g id="a_node5"><a xlink:href="classnuspell_1_1_string___set.html#a787f62831f35de5f2347c68912205565" target="_top" xlink:title="nuspell::String_Set\l\&lt; char16_t \&gt;::upper_bound">
<polygon fill="#ffffff" stroke="#000000" points="158.5,-565 158.5,-595 292.5,-595 292.5,-565 158.5,-565"/>
<text text-anchor="start" x="166.5" y="-583" font-family="Helvetica,sans-Serif" font-size="10.00" fill="#000000">nuspell::String_Set</text>
<text text-anchor="middle" x="225.5" y="-572" font-family="Helvetica,sans-Serif" font-size="10.00" fill="#000000">&lt; char16_t &gt;::upper_bound</text>
</a>
</g>
</g>
<!-- Node82&#45;&gt;Node86 -->
<g id="edge4" class="edge">
<title>Node82&#45;&gt;Node86</title>
<path fill="none" stroke="#191970" d="M65.2565,-385.7986C75.4594,-424.1106 103.0274,-508.7647 157,-556 160.8878,-559.4025 165.2874,-562.3308 169.935,-564.8494"/>
<polygon fill="#191970" stroke="#191970" points="68.5926,-384.7158 62.734,-375.8882 61.8089,-386.4426 68.5926,-384.7158"/>
</g>
<!-- Node87 -->
<g id="node6" class="node">
<title>Node87</title>
<g id="a_node6"><a xlink:href="classnuspell_1_1_string___set.html#a4e8fd052284151b5e18c71906c450611" target="_top" xlink:title="nuspell::String_Set\l\&lt; char16_t \&gt;::equal_range">
<polygon fill="#ffffff" stroke="#000000" points="160,-516 160,-546 291,-546 291,-516 160,-516"/>
<text text-anchor="start" x="168" y="-534" font-family="Helvetica,sans-Serif" font-size="10.00" fill="#000000">nuspell::String_Set</text>
<text text-anchor="middle" x="225.5" y="-523" font-family="Helvetica,sans-Serif" font-size="10.00" fill="#000000">&lt; char16_t &gt;::equal_range</text>
</a>
</g>
</g>
<!-- Node82&#45;&gt;Node87 -->
<g id="edge5" class="edge">
<title>Node82&#45;&gt;Node87</title>
<path fill="none" stroke="#191970" d="M68.8499,-384.9716C82.8929,-414.8045 113.9802,-472.7071 157,-506 161.9057,-509.7965 167.4431,-513.0556 173.1905,-515.8439"/>
<polygon fill="#191970" stroke="#191970" points="71.9418,-383.3167 64.6019,-375.6763 65.5752,-386.2263 71.9418,-383.3167"/>
</g>
<!-- Node88 -->
<g id="node7" class="node">
<title>Node88</title>
<g id="a_node7"><a xlink:href="classnuspell_1_1_break___table.html#abd26400df7f332bfca238da79d542b25" target="_top" xlink:title="nuspell::Break_Table\l\&lt; char \&gt;::middle_word\l_breaks">
<polygon fill="#ffffff" stroke="#000000" points="168.5,-455.5 168.5,-496.5 282.5,-496.5 282.5,-455.5 168.5,-455.5"/>
<text text-anchor="start" x="176.5" y="-484.5" font-family="Helvetica,sans-Serif" font-size="10.00" fill="#000000">nuspell::Break_Table</text>
<text text-anchor="start" x="176.5" y="-473.5" font-family="Helvetica,sans-Serif" font-size="10.00" fill="#000000">&lt; char &gt;::middle_word</text>
<text text-anchor="middle" x="225.5" y="-462.5" font-family="Helvetica,sans-Serif" font-size="10.00" fill="#000000">_breaks</text>
</a>
</g>
</g>
<!-- Node82&#45;&gt;Node88 -->
<g id="edge6" class="edge">
<title>Node82&#45;&gt;Node88</title>
<path fill="none" stroke="#191970" d="M77.5344,-382.666C95.9797,-400.0769 126.8251,-427.3961 157,-446 162.4151,-449.3386 168.2669,-452.4983 174.1897,-455.4251"/>
<polygon fill="#191970" stroke="#191970" points="79.8468,-380.0345 70.2027,-375.6478 75.0063,-385.0912 79.8468,-380.0345"/>
</g>
<!-- Node89 -->
<g id="node8" class="node">
<title>Node89</title>
<g id="a_node8"><a xlink:href="classnuspell_1_1_hash___multiset.html#aad3b03ada05b0c7d540c83545e81ee23" target="_top" xlink:title="nuspell::Hash_Multiset\l::insert">
<polygon fill="#ffffff" stroke="#000000" points="167.5,-406 167.5,-436 283.5,-436 283.5,-406 167.5,-406"/>
<text text-anchor="start" x="175.5" y="-424" font-family="Helvetica,sans-Serif" font-size="10.00" fill="#000000">nuspell::Hash_Multiset</text>
<text text-anchor="middle" x="225.5" y="-413" font-family="Helvetica,sans-Serif" font-size="10.00" fill="#000000">::insert</text>
</a>
</g>
</g>
<!-- Node82&#45;&gt;Node89 -->
<g id="edge7" class="edge">
<title>Node82&#45;&gt;Node89</title>
<path fill="none" stroke="#191970" d="M98.8474,-378.7825C123.1736,-386.8912 154.7605,-397.4202 180.3039,-405.9346"/>
<polygon fill="#191970" stroke="#191970" points="99.8345,-375.4222 89.2408,-375.5803 97.6208,-382.063 99.8345,-375.4222"/>
</g>
<!-- Node90 -->
<g id="node9" class="node">
<title>Node90</title>
<g id="a_node9"><a xlink:href="classnuspell_1_1_hash___multiset.html#ad3a00cea7680614167e392c7c6df5c90" target="_top" xlink:title="nuspell::Hash_Multiset\l::equal_range_nonconst\l_unsafe">
<polygon fill="#ffffff" stroke="#000000" points="165.5,-345.5 165.5,-386.5 285.5,-386.5 285.5,-345.5 165.5,-345.5"/>
<text text-anchor="start" x="173.5" y="-374.5" font-family="Helvetica,sans-Serif" font-size="10.00" fill="#000000">nuspell::Hash_Multiset</text>
<text text-anchor="start" x="173.5" y="-363.5" font-family="Helvetica,sans-Serif" font-size="10.00" fill="#000000">::equal_range_nonconst</text>
<text text-anchor="middle" x="225.5" y="-352.5" font-family="Helvetica,sans-Serif" font-size="10.00" fill="#000000">_unsafe</text>
</a>
</g>
</g>
<!-- Node82&#45;&gt;Node90 -->
<g id="edge8" class="edge">
<title>Node82&#45;&gt;Node90</title>
<path fill="none" stroke="#191970" d="M131.2908,-366C142.6124,-366 154.2343,-366 165.2801,-366"/>
<polygon fill="#191970" stroke="#191970" points="131.003,-362.5001 121.003,-366 131.003,-369.5001 131.003,-362.5001"/>
</g>
<!-- Node91 -->
<g id="node10" class="node">
<title>Node91</title>
<g id="a_node10"><a xlink:href="classnuspell_1_1_hash___multiset.html#a615f7b3ae53f0cef400668746d8be501" target="_top" xlink:title="nuspell::Hash_Multiset\l::equal_range">
<polygon fill="#ffffff" stroke="#000000" points="167.5,-296 167.5,-326 283.5,-326 283.5,-296 167.5,-296"/>
<text text-anchor="start" x="175.5" y="-314" font-family="Helvetica,sans-Serif" font-size="10.00" fill="#000000">nuspell::Hash_Multiset</text>
<text text-anchor="middle" x="225.5" y="-303" font-family="Helvetica,sans-Serif" font-size="10.00" fill="#000000">::equal_range</text>
</a>
</g>
</g>
<!-- Node82&#45;&gt;Node91 -->
<g id="edge9" class="edge">
<title>Node82&#45;&gt;Node91</title>
<path fill="none" stroke="#191970" d="M98.8474,-353.2175C123.1736,-345.1088 154.7605,-334.5798 180.3039,-326.0654"/>
<polygon fill="#191970" stroke="#191970" points="97.6208,-349.937 89.2408,-356.4197 99.8345,-356.5778 97.6208,-349.937"/>
</g>
<!-- Node92 -->
<g id="node11" class="node">
<title>Node92</title>
<g id="a_node11"><a xlink:href="structnuspell_1_1sv__hash.html#ab76772bf628157212781d7ac2e95f3d8" target="_top" xlink:title="nuspell::sv_hash::operator()">
<polygon fill="#ffffff" stroke="#000000" points="157,-257.5 157,-276.5 294,-276.5 294,-257.5 157,-257.5"/>
<text text-anchor="middle" x="225.5" y="-264.5" font-family="Helvetica,sans-Serif" font-size="10.00" fill="#000000">nuspell::sv_hash::operator()</text>
</a>
</g>
</g>
<!-- Node82&#45;&gt;Node92 -->
<g id="edge10" class="edge">
<title>Node82&#45;&gt;Node92</title>
<path fill="none" stroke="#191970" d="M77.0817,-348.8224C95.182,-330.9934 125.7728,-303.4579 157,-287 165.0007,-282.7833 174.0085,-279.3452 182.7985,-276.5845"/>
<polygon fill="#191970" stroke="#191970" points="74.2578,-346.6983 69.6868,-356.2564 79.2206,-351.635 74.2578,-346.6983"/>
</g>
<!-- Node93 -->
<g id="node12" class="node">
<title>Node93</title>
<g id="a_node12"><a xlink:href="classnuspell_1_1_list___strings.html#a54da064267bc6007e06e8f96b5b307e3" target="_top" xlink:title="nuspell::List_Strings\l::erase">
<polygon fill="#ffffff" stroke="#000000" points="173,-208 173,-238 278,-238 278,-208 173,-208"/>
<text text-anchor="start" x="181" y="-226" font-family="Helvetica,sans-Serif" font-size="10.00" fill="#000000">nuspell::List_Strings</text>
<text text-anchor="middle" x="225.5" y="-215" font-family="Helvetica,sans-Serif" font-size="10.00" fill="#000000">::erase</text>
</a>
</g>
</g>
<!-- Node82&#45;&gt;Node93 -->
<g id="edge11" class="edge">
<title>Node82&#45;&gt;Node93</title>
<path fill="none" stroke="#191970" d="M71.1598,-347.5092C86.8618,-321.7916 118.5463,-275.3145 157,-248 162.3669,-244.1878 168.3797,-240.8928 174.5547,-238.0622"/>
<polygon fill="#191970" stroke="#191970" points="68.0543,-345.8835 65.9437,-356.266 74.0683,-349.4659 68.0543,-345.8835"/>
</g>
<!-- Node94 -->
<g id="node13" class="node">
<title>Node94</title>
<g id="a_node13"><a xlink:href="classnuspell_1_1_list___strings.html#a5380856ecf4f33f865893951049454a7" target="_top" xlink:title="nuspell::List_Strings\l::operator==">
<polygon fill="#ffffff" stroke="#000000" points="173,-159 173,-189 278,-189 278,-159 173,-159"/>
<text text-anchor="start" x="181" y="-177" font-family="Helvetica,sans-Serif" font-size="10.00" fill="#000000">nuspell::List_Strings</text>
<text text-anchor="middle" x="225.5" y="-166" font-family="Helvetica,sans-Serif" font-size="10.00" fill="#000000">::operator==</text>
</a>
</g>
</g>
<!-- Node82&#45;&gt;Node94 -->
<g id="edge12" class="edge">
<title>Node82&#45;&gt;Node94</title>
<path fill="none" stroke="#191970" d="M66.8153,-346.3031C78.8769,-311.6983 108.403,-239.7987 157,-199 161.7509,-195.0114 167.1927,-191.6338 172.8869,-188.7795"/>
<polygon fill="#191970" stroke="#191970" points="63.3771,-345.5472 63.5109,-356.1412 70.0128,-347.7761 63.3771,-345.5472"/>
</g>
<!-- Node95 -->
<g id="node14" class="node">
<title>Node95</title>
<g id="a_node14"><a xlink:href="classnuspell_1_1_list___strings.html#a99b603000b99d86d8367d0e7cf88f9ba" target="_top" xlink:title="nuspell::List_Strings\l::operator\&lt;">
<polygon fill="#ffffff" stroke="#000000" points="173,-110 173,-140 278,-140 278,-110 173,-110"/>
<text text-anchor="start" x="181" y="-128" font-family="Helvetica,sans-Serif" font-size="10.00" fill="#000000">nuspell::List_Strings</text>
<text text-anchor="middle" x="225.5" y="-117" font-family="Helvetica,sans-Serif" font-size="10.00" fill="#000000">::operator&lt;</text>
</a>
</g>
</g>
<!-- Node82&#45;&gt;Node95 -->
<g id="edge13" class="edge">
<title>Node82&#45;&gt;Node95</title>
<path fill="none" stroke="#191970" d="M63.973,-346.2112C72.3539,-304.1979 97.5553,-205.4109 157,-150 161.6302,-145.684 167.0648,-142.1003 172.8129,-139.1274"/>
<polygon fill="#191970" stroke="#191970" points="60.4922,-345.7828 62.0786,-356.2581 67.371,-347.0799 60.4922,-345.7828"/>
</g>
<!-- Node96 -->
<g id="node15" class="node">
<title>Node96</title>
<g id="a_node15"><a xlink:href="classnuspell_1_1_list___strings.html#a9d8367f81cb8b33cafe18f14918ff8c8" target="_top" xlink:title="nuspell::List_Strings\l::operator\&gt;">
<polygon fill="#ffffff" stroke="#000000" points="173,-61 173,-91 278,-91 278,-61 173,-61"/>
<text text-anchor="start" x="181" y="-79" font-family="Helvetica,sans-Serif" font-size="10.00" fill="#000000">nuspell::List_Strings</text>
<text text-anchor="middle" x="225.5" y="-68" font-family="Helvetica,sans-Serif" font-size="10.00" fill="#000000">::operator&gt;</text>
</a>
</g>
</g>
<!-- Node82&#45;&gt;Node96 -->
<g id="edge14" class="edge">
<title>Node82&#45;&gt;Node96</title>
<path fill="none" stroke="#191970" d="M62.112,-346.1516C67.1016,-297.5743 86.5107,-171.5399 157,-101 161.5637,-96.433 167.0277,-92.6934 172.8522,-89.6329"/>
<polygon fill="#191970" stroke="#191970" points="58.6119,-345.9917 61.1711,-356.2728 65.5818,-346.6397 58.6119,-345.9917"/>
</g>
<!-- Node97 -->
<g id="node16" class="node">
<title>Node97</title>
<g id="a_node16"><a xlink:href="classnuspell_1_1_replacement___table.html#aee979a9cae9bd0b871a3f0a044657a61" target="_top" xlink:title="nuspell::Replacement\l_Table\&lt; char \&gt;::any_place\l_replacements">
<polygon fill="#ffffff" stroke="#000000" points="159,-.5 159,-41.5 292,-41.5 292,-.5 159,-.5"/>
<text text-anchor="start" x="167" y="-29.5" font-family="Helvetica,sans-Serif" font-size="10.00" fill="#000000">nuspell::Replacement</text>
<text text-anchor="start" x="167" y="-18.5" font-family="Helvetica,sans-Serif" font-size="10.00" fill="#000000">_Table&lt; char &gt;::any_place</text>
<text text-anchor="middle" x="225.5" y="-7.5" font-family="Helvetica,sans-Serif" font-size="10.00" fill="#000000">_replacements</text>
</a>
</g>
</g>
<!-- Node82&#45;&gt;Node97 -->
<g id="edge15" class="edge">
<title>Node82&#45;&gt;Node97</title>
<path fill="none" stroke="#191970" d="M61.147,-346.2222C63.9312,-292.3177 78.6965,-140.9209 157,-52 160.4507,-48.0814 164.4955,-44.6305 168.8643,-41.5969"/>
<polygon fill="#191970" stroke="#191970" points="57.6401,-346.309 60.7073,-356.4501 64.6337,-346.6097 57.6401,-346.309"/>
</g>
</g>
</svg>
