<?xml version="1.0" encoding="UTF-8" standalone="no"?>
<!DOCTYPE svg PUBLIC "-//W3C//DTD SVG 1.1//EN"
 "http://www.w3.org/Graphics/SVG/1.1/DTD/svg11.dtd">
<!-- Generated by graphviz version 2.40.1 (20161225.0304)
 -->
<!-- Title: nuspell::Condition::Condition Pages: 1 -->
<svg width="234pt" height="186pt"
 viewBox="0.00 0.00 234.00 186.00" xmlns="http://www.w3.org/2000/svg" xmlns:xlink="http://www.w3.org/1999/xlink">
<g id="graph0" class="graph" transform="scale(1 1) rotate(0) translate(4 182)">
<title>nuspell::Condition::Condition</title>
<polygon fill="#ffffff" stroke="transparent" points="-4,4 -4,-182 230,-182 230,4 -4,4"/>
<!-- Node5 -->
<g id="node1" class="node">
<title>Node5</title>
<polygon fill="#bfbfbf" stroke="#000000" points="0,-73.5 0,-103.5 95,-103.5 95,-73.5 0,-73.5"/>
<text text-anchor="start" x="8" y="-91.5" font-family="Helvetica,sans-Serif" font-size="10.00" fill="#000000">nuspell::Condition</text>
<text text-anchor="middle" x="47.5" y="-80.5" font-family="Helvetica,sans-Serif" font-size="10.00" fill="#000000">::Condition</text>
</g>
<!-- Node6 -->
<g id="node2" class="node">
<title>Node6</title>
<g id="a_node2"><a xlink:href="classnuspell_1_1_condition.html#a998b312d5d638cfcda9c96bc699d68e2" target="_top" xlink:title="nuspell::Condition\l::construct">
<polygon fill="#ffffff" stroke="#000000" points="131,-147.5 131,-177.5 226,-177.5 226,-147.5 131,-147.5"/>
<text text-anchor="start" x="139" y="-165.5" font-family="Helvetica,sans-Serif" font-size="10.00" fill="#000000">nuspell::Condition</text>
<text text-anchor="middle" x="178.5" y="-154.5" font-family="Helvetica,sans-Serif" font-size="10.00" fill="#000000">::construct</text>
</a>
</g>
</g>
<!-- Node5&#45;&gt;Node6 -->
<g id="edge1" class="edge">
<title>Node5&#45;&gt;Node6</title>
<path fill="none" stroke="#191970" d="M71.7117,-103.6249C88.2381,-113.793 110.7263,-127.327 131,-138.5 133.5414,-139.9006 136.1741,-141.3187 138.8375,-142.729"/>
<polygon fill="#191970" stroke="#191970" points="137.4365,-145.9455 147.923,-147.457 140.6679,-139.7359 137.4365,-145.9455"/>
</g>
<!-- Node7 -->
<g id="node3" class="node">
<title>Node7</title>
<g id="a_node3"><a xlink:href="classnuspell_1_1_condition.html#ace148eee45758990ebd2dc1f484a2ef3" target="_top" xlink:title="Checks if provided string matched the condition. ">
<polygon fill="#ffffff" stroke="#000000" points="131,-98.5 131,-128.5 226,-128.5 226,-98.5 131,-98.5"/>
<text text-anchor="start" x="139" y="-116.5" font-family="Helvetica,sans-Serif" font-size="10.00" fill="#000000">nuspell::Condition</text>
<text text-anchor="middle" x="178.5" y="-105.5" font-family="Helvetica,sans-Serif" font-size="10.00" fill="#000000">::match</text>
</a>
</g>
</g>
<!-- Node5&#45;&gt;Node7 -->
<g id="edge2" class="edge">
<title>Node5&#45;&gt;Node7</title>
<path fill="none" stroke="#191970" d="M95.1646,-97.5963C103.4724,-99.1818 112.1946,-100.8463 120.7387,-102.4769"/>
<polygon fill="#191970" stroke="#191970" points="120.1725,-105.9319 130.6514,-104.3686 121.4848,-99.056 120.1725,-105.9319"/>
</g>
<!-- Node8 -->
<g id="node4" class="node">
<title>Node8</title>
<g id="a_node4"><a xlink:href="classnuspell_1_1_condition.html#a4e58b08d9e8ac4c3a7a45701ad93b5e9" target="_top" xlink:title="nuspell::Condition\l::match_prefix">
<polygon fill="#ffffff" stroke="#000000" points="131,-49.5 131,-79.5 226,-79.5 226,-49.5 131,-49.5"/>
<text text-anchor="start" x="139" y="-67.5" font-family="Helvetica,sans-Serif" font-size="10.00" fill="#000000">nuspell::Condition</text>
<text text-anchor="middle" x="178.5" y="-56.5" font-family="Helvetica,sans-Serif" font-size="10.00" fill="#000000">::match_prefix</text>
</a>
</g>
</g>
<!-- Node5&#45;&gt;Node8 -->
<g id="edge3" class="edge">
<title>Node5&#45;&gt;Node8</title>
<path fill="none" stroke="#191970" d="M95.1646,-79.7676C103.4724,-78.2455 112.1946,-76.6475 120.7387,-75.0822"/>
<polygon fill="#191970" stroke="#191970" points="121.4458,-78.511 130.6514,-73.2662 120.1843,-71.6256 121.4458,-78.511"/>
</g>
<!-- Node9 -->
<g id="node5" class="node">
<title>Node9</title>
<g id="a_node5"><a xlink:href="classnuspell_1_1_condition.html#abf7a7167c9bd5b62f50bd73a14efefcb" target="_top" xlink:title="nuspell::Condition\l::match_suffix">
<polygon fill="#ffffff" stroke="#000000" points="131,-.5 131,-30.5 226,-30.5 226,-.5 131,-.5"/>
<text text-anchor="start" x="139" y="-18.5" font-family="Helvetica,sans-Serif" font-size="10.00" fill="#000000">nuspell::Condition</text>
<text text-anchor="middle" x="178.5" y="-7.5" font-family="Helvetica,sans-Serif" font-size="10.00" fill="#000000">::match_suffix</text>
</a>
</g>
</g>
<!-- Node5&#45;&gt;Node9 -->
<g id="edge4" class="edge">
<title>Node5&#45;&gt;Node9</title>
<path fill="none" stroke="#191970" d="M73.3117,-73.3313C89.7399,-63.7594 111.5166,-51.2224 131,-40.5 134.0731,-38.8088 137.2694,-37.0744 140.4862,-35.3462"/>
<polygon fill="#191970" stroke="#191970" points="142.3412,-38.3237 149.5211,-30.5326 139.0497,-32.1458 142.3412,-38.3237"/>
</g>
</g>
</svg>
