<?xml version="1.0" encoding="UTF-8" standalone="no"?>
<!DOCTYPE svg PUBLIC "-//W3C//DTD SVG 1.1//EN"
 "http://www.w3.org/Graphics/SVG/1.1/DTD/svg11.dtd">
<!-- Generated by graphviz version 2.40.1 (20161225.0304)
 -->
<!-- Title: nuspell::Dictionary Pages: 1 -->
<svg width="1269pt" height="587pt"
 viewBox="0.00 0.00 1269.00 586.50" xmlns="http://www.w3.org/2000/svg" xmlns:xlink="http://www.w3.org/1999/xlink">
<g id="graph0" class="graph" transform="scale(1 1) rotate(0) translate(4 582.5)">
<title>nuspell::Dictionary</title>
<polygon fill="#ffffff" stroke="transparent" points="-4,4 -4,-582.5 1265,-582.5 1265,4 -4,4"/>
<!-- Node4 -->
<g id="node1" class="node">
<title>Node4</title>
<polygon fill="#bfbfbf" stroke="#000000" points="1163,-284 1163,-303 1261,-303 1261,-284 1163,-284"/>
<text text-anchor="middle" x="1212" y="-291" font-family="Helvetica,sans-Serif" font-size="10.00" fill="#000000">nuspell::Dictionary</text>
</g>
<!-- Node5 -->
<g id="node2" class="node">
<title>Node5</title>
<g id="a_node2"><a xlink:href="structnuspell_1_1_dict___base.html" target="_top" xlink:title="nuspell::Dict_Base">
<polygon fill="#ffffff" stroke="#000000" points="1027,-284 1027,-303 1126,-303 1126,-284 1027,-284"/>
<text text-anchor="middle" x="1076.5" y="-291" font-family="Helvetica,sans-Serif" font-size="10.00" fill="#000000">nuspell::Dict_Base</text>
</a>
</g>
</g>
<!-- Node5&#45;&gt;Node4 -->
<g id="edge1" class="edge">
<title>Node5&#45;&gt;Node4</title>
<path fill="none" stroke="#006400" d="M1136.41,-293.5C1145.2207,-293.5 1154.2106,-293.5 1162.773,-293.5"/>
<polygon fill="#006400" stroke="#006400" points="1136.1858,-290.0001 1126.1858,-293.5 1136.1858,-297.0001 1136.1858,-290.0001"/>
</g>
<!-- Node6 -->
<g id="node3" class="node">
<title>Node6</title>
<g id="a_node3"><a xlink:href="structnuspell_1_1_aff___data.html" target="_top" xlink:title="nuspell::Aff_Data">
<polygon fill="#ffffff" stroke="#000000" points="898,-284 898,-303 990,-303 990,-284 898,-284"/>
<text text-anchor="middle" x="944" y="-291" font-family="Helvetica,sans-Serif" font-size="10.00" fill="#000000">nuspell::Aff_Data</text>
</a>
</g>
</g>
<!-- Node6&#45;&gt;Node5 -->
<g id="edge2" class="edge">
<title>Node6&#45;&gt;Node5</title>
<path fill="none" stroke="#191970" d="M1000.4732,-293.5C1009.2267,-293.5 1018.213,-293.5 1026.8026,-293.5"/>
<polygon fill="#191970" stroke="#191970" points="1000.3421,-290.0001 990.3421,-293.5 1000.342,-297.0001 1000.3421,-290.0001"/>
</g>
<!-- Node7 -->
<g id="node4" class="node">
<title>Node7</title>
<g id="a_node4"><a xlink:href="structnuspell_1_1_aff___structures.html" target="_top" xlink:title="nuspell::Aff_Structures\l\&lt; char \&gt;">
<polygon fill="#ffffff" stroke="#000000" points="673,-392.5 673,-422.5 789,-422.5 789,-392.5 673,-392.5"/>
<text text-anchor="start" x="681" y="-410.5" font-family="Helvetica,sans-Serif" font-size="10.00" fill="#000000">nuspell::Aff_Structures</text>
<text text-anchor="middle" x="731" y="-399.5" font-family="Helvetica,sans-Serif" font-size="10.00" fill="#000000">&lt; char &gt;</text>
</a>
</g>
</g>
<!-- Node7&#45;&gt;Node6 -->
<g id="edge3" class="edge">
<title>Node7&#45;&gt;Node6</title>
<path fill="none" stroke="#9a32cd" stroke-dasharray="5,2" d="M768.3902,-387.4884C814.6726,-362.7175 891.6038,-321.543 926.1933,-303.0304"/>
<polygon fill="#9a32cd" stroke="#9a32cd" points="766.4498,-384.557 759.2848,-392.3617 769.753,-390.7287 766.4498,-384.557"/>
<text text-anchor="middle" x="843.5" y="-366.5" font-family="Helvetica,sans-Serif" font-size="10.00" fill="#000000"> structures</text>
</g>
<!-- Node8 -->
<g id="node5" class="node">
<title>Node8</title>
<g id="a_node5"><a xlink:href="classnuspell_1_1_break___table.html" target="_top" xlink:title="nuspell::Break_Table\l\&lt; char \&gt;">
<polygon fill="#ffffff" stroke="#000000" points="394,-371.5 394,-401.5 502,-401.5 502,-371.5 394,-371.5"/>
<text text-anchor="start" x="402" y="-389.5" font-family="Helvetica,sans-Serif" font-size="10.00" fill="#000000">nuspell::Break_Table</text>
<text text-anchor="middle" x="448" y="-378.5" font-family="Helvetica,sans-Serif" font-size="10.00" fill="#000000">&lt; char &gt;</text>
</a>
</g>
</g>
<!-- Node8&#45;&gt;Node7 -->
<g id="edge4" class="edge">
<title>Node8&#45;&gt;Node7</title>
<path fill="none" stroke="#9a32cd" stroke-dasharray="5,2" d="M512.2766,-387.4228C553.2133,-388.4728 607.3216,-390.7149 655,-395.5 660.8481,-396.0869 666.931,-396.8266 672.9953,-397.6491"/>
<polygon fill="#9a32cd" stroke="#9a32cd" points="512.2457,-383.9212 502.1647,-387.1807 512.0781,-390.9192 512.2457,-383.9212"/>
<text text-anchor="middle" x="592" y="-398.5" font-family="Helvetica,sans-Serif" font-size="10.00" fill="#000000"> break_table</text>
</g>
<!-- Node9 -->
<g id="node6" class="node">
<title>Node9</title>
<g id="a_node6"><a xlink:href="classnuspell_1_1_substr___replacer.html" target="_top" xlink:title="nuspell::Substr_Replacer\l\&lt; char \&gt;">
<polygon fill="#ffffff" stroke="#000000" points="385,-322.5 385,-352.5 511,-352.5 511,-322.5 385,-322.5"/>
<text text-anchor="start" x="393" y="-340.5" font-family="Helvetica,sans-Serif" font-size="10.00" fill="#000000">nuspell::Substr_Replacer</text>
<text text-anchor="middle" x="448" y="-329.5" font-family="Helvetica,sans-Serif" font-size="10.00" fill="#000000">&lt; char &gt;</text>
</a>
</g>
</g>
<!-- Node9&#45;&gt;Node7 -->
<g id="edge5" class="edge">
<title>Node9&#45;&gt;Node7</title>
<path fill="none" stroke="#9a32cd" stroke-dasharray="5,2" d="M521.1649,-338.3937C561.5576,-340.7505 612.0868,-346.8082 655,-361.5 675.7201,-368.5938 696.8374,-381.9711 711.5361,-392.4785"/>
<polygon fill="#9a32cd" stroke="#9a32cd" points="521.2932,-334.8957 511.1248,-337.8712 520.9293,-341.8862 521.2932,-334.8957"/>
<text text-anchor="middle" x="592" y="-375.5" font-family="Helvetica,sans-Serif" font-size="10.00" fill="#000000"> input_substr_replacer</text>
<text text-anchor="middle" x="592" y="-364.5" font-family="Helvetica,sans-Serif" font-size="10.00" fill="#000000">output_substr_replacer</text>
</g>
<!-- Node10 -->
<g id="node7" class="node">
<title>Node10</title>
<g id="a_node7"><a xlink:href="classnuspell_1_1_affix___table.html" target="_top" xlink:title="nuspell::Affix_Table\l\&lt; char \&gt;">
<polygon fill="#ffffff" stroke="#000000" points="396.5,-420.5 396.5,-450.5 499.5,-450.5 499.5,-420.5 396.5,-420.5"/>
<text text-anchor="start" x="404.5" y="-438.5" font-family="Helvetica,sans-Serif" font-size="10.00" fill="#000000">nuspell::Affix_Table</text>
<text text-anchor="middle" x="448" y="-427.5" font-family="Helvetica,sans-Serif" font-size="10.00" fill="#000000">&lt; char &gt;</text>
</a>
</g>
</g>
<!-- Node10&#45;&gt;Node7 -->
<g id="edge6" class="edge">
<title>Node10&#45;&gt;Node7</title>
<path fill="none" stroke="#9a32cd" stroke-dasharray="5,2" d="M509.6386,-429.4015C558.1781,-424.599 625.3597,-417.952 672.9482,-413.2436"/>
<polygon fill="#9a32cd" stroke="#9a32cd" points="509.1843,-425.9293 499.5775,-430.3969 509.8735,-432.8952 509.1843,-425.9293"/>
<text text-anchor="middle" x="592" y="-440.5" font-family="Helvetica,sans-Serif" font-size="10.00" fill="#000000"> suffixes</text>
<text text-anchor="middle" x="592" y="-429.5" font-family="Helvetica,sans-Serif" font-size="10.00" fill="#000000">prefixes</text>
</g>
<!-- Node11 -->
<g id="node8" class="node">
<title>Node11</title>
<g id="a_node8"><a xlink:href="classnuspell_1_1_hash___multiset.html" target="_top" xlink:title="Affix_Table_Base\&lt; char\l , AffixT \&gt;">
<polygon fill="#ffffff" stroke="#000000" points="159.5,-382.5 159.5,-412.5 281.5,-412.5 281.5,-382.5 159.5,-382.5"/>
<text text-anchor="start" x="167.5" y="-400.5" font-family="Helvetica,sans-Serif" font-size="10.00" fill="#000000">Affix_Table_Base&lt; char</text>
<text text-anchor="middle" x="220.5" y="-389.5" font-family="Helvetica,sans-Serif" font-size="10.00" fill="#000000"> , AffixT &gt;</text>
</a>
</g>
</g>
<!-- Node11&#45;&gt;Node10 -->
<g id="edge7" class="edge">
<title>Node11&#45;&gt;Node10</title>
<path fill="none" stroke="#8b1a1a" d="M292.051,-409.4514C325.8454,-415.0962 365.4299,-421.7081 396.2611,-426.8579"/>
<polygon fill="#8b1a1a" stroke="#8b1a1a" points="292.2051,-405.9287 281.7651,-407.7333 291.0518,-412.833 292.2051,-405.9287"/>
</g>
<!-- Node12 -->
<g id="node9" class="node">
<title>Node12</title>
<polygon fill="#ffffff" stroke="#bfbfbf" points="3,-409 3,-428 62,-428 62,-409 3,-409"/>
<text text-anchor="middle" x="32.5" y="-416" font-family="Helvetica,sans-Serif" font-size="10.00" fill="#000000">KeyEqual</text>
</g>
<!-- Node12&#45;&gt;Node11 -->
<g id="edge8" class="edge">
<title>Node12&#45;&gt;Node11</title>
<path fill="none" stroke="#9a32cd" stroke-dasharray="5,2" d="M72.2489,-414.06C97.5205,-411.2371 130.7464,-407.5257 159.337,-404.332"/>
<polygon fill="#9a32cd" stroke="#9a32cd" points="71.8388,-410.5839 62.2892,-415.1725 72.6159,-417.5406 71.8388,-410.5839"/>
<text text-anchor="middle" x="110.5" y="-414.5" font-family="Helvetica,sans-Serif" font-size="10.00" fill="#000000"> equal</text>
</g>
<!-- Node23 -->
<g id="node20" class="node">
<title>Node23</title>
<g id="a_node20"><a xlink:href="classnuspell_1_1_hash___multiset.html" target="_top" xlink:title="Affix_Table_Base\&lt; wchar\l_t , AffixT \&gt;">
<polygon fill="#ffffff" stroke="#000000" points="156,-229.5 156,-259.5 285,-259.5 285,-229.5 156,-229.5"/>
<text text-anchor="start" x="164" y="-247.5" font-family="Helvetica,sans-Serif" font-size="10.00" fill="#000000">Affix_Table_Base&lt; wchar</text>
<text text-anchor="middle" x="220.5" y="-236.5" font-family="Helvetica,sans-Serif" font-size="10.00" fill="#000000">_t , AffixT &gt;</text>
</a>
</g>
</g>
<!-- Node12&#45;&gt;Node23 -->
<g id="edge20" class="edge">
<title>Node12&#45;&gt;Node23</title>
<path fill="none" stroke="#9a32cd" stroke-dasharray="5,2" d="M62.363,-402.5021C63.306,-401.5476 64.1907,-400.5472 65,-399.5 83.0689,-376.1205 66.8164,-360.222 83,-335.5 100.2985,-309.0748 115.4127,-312.5759 138,-290.5 146.7912,-281.9078 145.9665,-276.6021 156,-269.5 161.2933,-265.7532 167.2234,-262.4747 173.2861,-259.6336"/>
<polygon fill="#9a32cd" stroke="#9a32cd" points="59.9229,-399.9707 54.2739,-408.9339 64.2795,-405.4498 59.9229,-399.9707"/>
<text text-anchor="middle" x="110.5" y="-338.5" font-family="Helvetica,sans-Serif" font-size="10.00" fill="#000000"> equal</text>
</g>
<!-- Node26 -->
<g id="node23" class="node">
<title>Node26</title>
<g id="a_node23"><a xlink:href="classnuspell_1_1_hash___multiset.html" target="_top" xlink:title="Word_List_Base">
<polygon fill="#ffffff" stroke="#000000" points="176,-490 176,-509 265,-509 265,-490 176,-490"/>
<text text-anchor="middle" x="220.5" y="-497" font-family="Helvetica,sans-Serif" font-size="10.00" fill="#000000">Word_List_Base</text>
</a>
</g>
</g>
<!-- Node12&#45;&gt;Node26 -->
<g id="edge27" class="edge">
<title>Node12&#45;&gt;Node26</title>
<path fill="none" stroke="#9a32cd" stroke-dasharray="5,2" d="M39.2087,-437.4705C46.7619,-455.6695 60.9423,-482.1522 83,-494.5 111.0347,-510.1936 147.5659,-510.7769 175.9271,-507.7954"/>
<polygon fill="#9a32cd" stroke="#9a32cd" points="42.4658,-436.1889 35.6019,-428.1182 35.9347,-438.7078 42.4658,-436.1889"/>
<text text-anchor="middle" x="110.5" y="-511.5" font-family="Helvetica,sans-Serif" font-size="10.00" fill="#000000"> equal</text>
</g>
<!-- Node13 -->
<g id="node10" class="node">
<title>Node13</title>
<polygon fill="#ffffff" stroke="#bfbfbf" points="0,-371 0,-390 65,-390 65,-371 0,-371"/>
<text text-anchor="middle" x="32.5" y="-378" font-family="Helvetica,sans-Serif" font-size="10.00" fill="#000000">KeyExtract</text>
</g>
<!-- Node13&#45;&gt;Node11 -->
<g id="edge9" class="edge">
<title>Node13&#45;&gt;Node11</title>
<path fill="none" stroke="#9a32cd" stroke-dasharray="5,2" d="M75.6023,-379.14C94.7551,-378.9908 117.5489,-379.4373 138,-381.5 144.9677,-382.2028 152.223,-383.2045 159.4129,-384.3684"/>
<polygon fill="#9a32cd" stroke="#9a32cd" points="75.3264,-375.6433 65.3745,-379.2777 75.4207,-382.6427 75.3264,-375.6433"/>
<text text-anchor="middle" x="110.5" y="-384.5" font-family="Helvetica,sans-Serif" font-size="10.00" fill="#000000"> key_extract</text>
</g>
<!-- Node13&#45;&gt;Node23 -->
<g id="edge21" class="edge">
<title>Node13&#45;&gt;Node23</title>
<path fill="none" stroke="#9a32cd" stroke-dasharray="5,2" d="M62.5179,-364.4798C63.4103,-363.5334 64.243,-362.5405 65,-361.5 86.9499,-331.3271 57.0575,-306.3176 83,-279.5 93.4901,-268.656 125.4252,-260.1759 155.8798,-254.2803"/>
<polygon fill="#9a32cd" stroke="#9a32cd" points="60.2786,-361.7897 54.7767,-370.844 64.724,-367.197 60.2786,-361.7897"/>
<text text-anchor="middle" x="110.5" y="-282.5" font-family="Helvetica,sans-Serif" font-size="10.00" fill="#000000"> key_extract</text>
</g>
<!-- Node13&#45;&gt;Node26 -->
<g id="edge28" class="edge">
<title>Node13&#45;&gt;Node26</title>
<path fill="none" stroke="#9a32cd" stroke-dasharray="5,2" d="M62.3461,-396.5111C63.2937,-397.4619 64.184,-398.458 65,-399.5 82.4279,-421.7549 62.9071,-440.6182 83,-460.5 90.0111,-467.4374 141.3547,-480.8018 179.257,-489.9335"/>
<polygon fill="#9a32cd" stroke="#9a32cd" points="64.2509,-393.5552 54.2371,-390.0947 59.9073,-399.0445 64.2509,-393.5552"/>
<text text-anchor="middle" x="110.5" y="-481.5" font-family="Helvetica,sans-Serif" font-size="10.00" fill="#000000"> key_extract</text>
</g>
<!-- Node14 -->
<g id="node11" class="node">
<title>Node14</title>
<polygon fill="#ffffff" stroke="#bfbfbf" points="12.5,-333 12.5,-352 52.5,-352 52.5,-333 12.5,-333"/>
<text text-anchor="middle" x="32.5" y="-340" font-family="Helvetica,sans-Serif" font-size="10.00" fill="#000000">Hash</text>
</g>
<!-- Node14&#45;&gt;Node11 -->
<g id="edge10" class="edge">
<title>Node14&#45;&gt;Node11</title>
<path fill="none" stroke="#9a32cd" stroke-dasharray="5,2" d="M62.6943,-346.9075C84.0012,-350.4046 113.074,-355.9613 138,-363.5 154.9042,-368.6126 173.1131,-375.9141 188.1125,-382.4411"/>
<polygon fill="#9a32cd" stroke="#9a32cd" points="63.0418,-343.419 52.6175,-345.3117 61.9469,-350.3328 63.0418,-343.419"/>
<text text-anchor="middle" x="110.5" y="-366.5" font-family="Helvetica,sans-Serif" font-size="10.00" fill="#000000"> hash</text>
</g>
<!-- Node14&#45;&gt;Node23 -->
<g id="edge22" class="edge">
<title>Node14&#45;&gt;Node23</title>
<path fill="none" stroke="#9a32cd" stroke-dasharray="5,2" d="M36.4309,-322.7807C42.208,-299.6602 55.4424,-262.359 83,-245.5 104.3819,-232.4191 131.3553,-229.9005 155.7364,-231.4802"/>
<polygon fill="#9a32cd" stroke="#9a32cd" points="32.9482,-322.3151 34.1639,-332.8399 39.7769,-323.8541 32.9482,-322.3151"/>
<text text-anchor="middle" x="110.5" y="-248.5" font-family="Helvetica,sans-Serif" font-size="10.00" fill="#000000"> hash</text>
</g>
<!-- Node14&#45;&gt;Node26 -->
<g id="edge29" class="edge">
<title>Node14&#45;&gt;Node26</title>
<path fill="none" stroke="#9a32cd" stroke-dasharray="5,2" d="M60.8589,-357.0444C62.374,-358.4231 63.7742,-359.9073 65,-361.5 83.283,-385.255 62.8294,-404.3254 83,-426.5 100.6066,-445.8559 114.5958,-435.8002 138,-447.5 163.5931,-460.294 191.3493,-478.8579 207.259,-489.9978"/>
<polygon fill="#9a32cd" stroke="#9a32cd" points="62.7423,-354.0858 52.6024,-351.0145 58.6138,-359.7388 62.7423,-354.0858"/>
<text text-anchor="middle" x="110.5" y="-450.5" font-family="Helvetica,sans-Serif" font-size="10.00" fill="#000000"> hash</text>
</g>
<!-- Node15 -->
<g id="node12" class="node">
<title>Node15</title>
<g id="a_node12"><a xlink:href="classnuspell_1_1_string___set.html" target="_top" xlink:title="nuspell::String_Set\l\&lt; char16_t \&gt;">
<polygon fill="#ffffff" stroke="#000000" points="171,-278.5 171,-308.5 270,-308.5 270,-278.5 171,-278.5"/>
<text text-anchor="start" x="179" y="-296.5" font-family="Helvetica,sans-Serif" font-size="10.00" fill="#000000">nuspell::String_Set</text>
<text text-anchor="middle" x="220.5" y="-285.5" font-family="Helvetica,sans-Serif" font-size="10.00" fill="#000000">&lt; char16_t &gt;</text>
</a>
</g>
</g>
<!-- Node15&#45;&gt;Node6 -->
<g id="edge30" class="edge">
<title>Node15&#45;&gt;Node6</title>
<path fill="none" stroke="#9a32cd" stroke-dasharray="5,2" d="M280.4098,-293.5C421.3423,-293.5 771.4701,-293.5 897.7017,-293.5"/>
<polygon fill="#9a32cd" stroke="#9a32cd" points="280.2291,-290.0001 270.2291,-293.5 280.2291,-297.0001 280.2291,-290.0001"/>
<text text-anchor="middle" x="592" y="-296.5" font-family="Helvetica,sans-Serif" font-size="10.00" fill="#000000"> compound_syllable_num</text>
</g>
<!-- Node15&#45;&gt;Node10 -->
<g id="edge11" class="edge">
<title>Node15&#45;&gt;Node10</title>
<path fill="none" stroke="#9a32cd" stroke-dasharray="5,2" d="M251.6362,-314.3012C281.6605,-334.6129 328.1394,-366.7267 367,-396.5 375.2664,-402.8333 376.0116,-406.2413 385,-411.5 390.5563,-414.7507 396.633,-417.7125 402.7502,-420.3593"/>
<polygon fill="#9a32cd" stroke="#9a32cd" points="253.4967,-311.3344 243.249,-308.6447 249.5827,-317.1379 253.4967,-311.3344"/>
<text text-anchor="middle" x="335" y="-399.5" font-family="Helvetica,sans-Serif" font-size="10.00" fill="#000000"> all_cont_flags</text>
</g>
<!-- Node22 -->
<g id="node19" class="node">
<title>Node22</title>
<g id="a_node19"><a xlink:href="classnuspell_1_1_affix___table.html" target="_top" xlink:title="nuspell::Affix_Table\l\&lt; wchar_t \&gt;">
<polygon fill="#ffffff" stroke="#000000" points="396.5,-49.5 396.5,-79.5 499.5,-79.5 499.5,-49.5 396.5,-49.5"/>
<text text-anchor="start" x="404.5" y="-67.5" font-family="Helvetica,sans-Serif" font-size="10.00" fill="#000000">nuspell::Affix_Table</text>
<text text-anchor="middle" x="448" y="-56.5" font-family="Helvetica,sans-Serif" font-size="10.00" fill="#000000">&lt; wchar_t &gt;</text>
</a>
</g>
</g>
<!-- Node15&#45;&gt;Node22 -->
<g id="edge23" class="edge">
<title>Node15&#45;&gt;Node22</title>
<path fill="none" stroke="#9a32cd" stroke-dasharray="5,2" d="M278.8807,-274.705C281.0521,-273.1074 283.106,-271.3761 285,-269.5 300.892,-253.7587 291.9976,-241.9754 303,-222.5 325.7396,-182.2484 344.9175,-181.1159 367,-140.5 378.6819,-119.0138 367.9744,-106.0571 385,-88.5 388.3407,-85.055 392.2273,-82.0979 396.3992,-79.5608"/>
<polygon fill="#9a32cd" stroke="#9a32cd" points="276.6508,-271.9705 270.012,-280.2274 280.3509,-277.9127 276.6508,-271.9705"/>
<text text-anchor="middle" x="335" y="-225.5" font-family="Helvetica,sans-Serif" font-size="10.00" fill="#000000"> all_cont_flags</text>
</g>
<!-- Node27 -->
<g id="node24" class="node">
<title>Node27</title>
<g id="a_node24"><a xlink:href="classnuspell_1_1_compound___rule___table.html" target="_top" xlink:title="nuspell::Compound_Rule\l_Table">
<polygon fill="#ffffff" stroke="#000000" points="529,-239.5 529,-269.5 655,-269.5 655,-239.5 529,-239.5"/>
<text text-anchor="start" x="537" y="-257.5" font-family="Helvetica,sans-Serif" font-size="10.00" fill="#000000">nuspell::Compound_Rule</text>
<text text-anchor="middle" x="592" y="-246.5" font-family="Helvetica,sans-Serif" font-size="10.00" fill="#000000">_Table</text>
</a>
</g>
</g>
<!-- Node15&#45;&gt;Node27 -->
<g id="edge32" class="edge">
<title>Node15&#45;&gt;Node27</title>
<path fill="none" stroke="#9a32cd" stroke-dasharray="5,2" d="M272.6268,-275.5989C282.6052,-272.7743 293.0458,-270.2222 303,-268.5 379.968,-255.1833 470.0617,-252.8789 528.9372,-253.1218"/>
<polygon fill="#9a32cd" stroke="#9a32cd" points="271.4346,-272.3016 262.8376,-278.4937 273.4197,-279.0142 271.4346,-272.3016"/>
<text text-anchor="middle" x="335" y="-271.5" font-family="Helvetica,sans-Serif" font-size="10.00" fill="#000000"> all_flags</text>
</g>
<!-- Node16 -->
<g id="node13" class="node">
<title>Node16</title>
<g id="a_node13"><a xlink:href="classnuspell_1_1_phonetic___table.html" target="_top" xlink:title="nuspell::Phonetic_Table\l\&lt; char \&gt;">
<polygon fill="#ffffff" stroke="#000000" points="387.5,-518.5 387.5,-548.5 508.5,-548.5 508.5,-518.5 387.5,-518.5"/>
<text text-anchor="start" x="395.5" y="-536.5" font-family="Helvetica,sans-Serif" font-size="10.00" fill="#000000">nuspell::Phonetic_Table</text>
<text text-anchor="middle" x="448" y="-525.5" font-family="Helvetica,sans-Serif" font-size="10.00" fill="#000000">&lt; char &gt;</text>
</a>
</g>
</g>
<!-- Node16&#45;&gt;Node7 -->
<g id="edge12" class="edge">
<title>Node16&#45;&gt;Node7</title>
<path fill="none" stroke="#9a32cd" stroke-dasharray="5,2" d="M518.7958,-531.1445C560.7371,-527.0862 613.5996,-517.1475 655,-493.5 685.278,-476.2055 709.6751,-442.368 722.0827,-422.6866"/>
<polygon fill="#9a32cd" stroke="#9a32cd" points="518.3129,-527.6733 508.6566,-532.0328 518.9239,-534.6466 518.3129,-527.6733"/>
<text text-anchor="middle" x="592" y="-532.5" font-family="Helvetica,sans-Serif" font-size="10.00" fill="#000000"> phonetic_table</text>
</g>
<!-- Node17 -->
<g id="node14" class="node">
<title>Node17</title>
<g id="a_node14"><a xlink:href="classnuspell_1_1_replacement___table.html" target="_top" xlink:title="nuspell::Replacement\l_Table\&lt; char \&gt;">
<polygon fill="#ffffff" stroke="#000000" points="392.5,-469.5 392.5,-499.5 503.5,-499.5 503.5,-469.5 392.5,-469.5"/>
<text text-anchor="start" x="400.5" y="-487.5" font-family="Helvetica,sans-Serif" font-size="10.00" fill="#000000">nuspell::Replacement</text>
<text text-anchor="middle" x="448" y="-476.5" font-family="Helvetica,sans-Serif" font-size="10.00" fill="#000000">_Table&lt; char &gt;</text>
</a>
</g>
</g>
<!-- Node17&#45;&gt;Node7 -->
<g id="edge13" class="edge">
<title>Node17&#45;&gt;Node7</title>
<path fill="none" stroke="#9a32cd" stroke-dasharray="5,2" d="M513.8766,-480.7357C555.3499,-476.8144 609.458,-468.8144 655,-452.5 675.0655,-445.312 695.7471,-432.663 710.4601,-422.6025"/>
<polygon fill="#9a32cd" stroke="#9a32cd" points="513.5378,-477.2519 503.8875,-481.6248 514.1585,-484.2243 513.5378,-477.2519"/>
<text text-anchor="middle" x="592" y="-481.5" font-family="Helvetica,sans-Serif" font-size="10.00" fill="#000000"> replacements</text>
</g>
<!-- Node18 -->
<g id="node15" class="node">
<title>Node18</title>
<g id="a_node15"><a xlink:href="structnuspell_1_1_aff___structures.html" target="_top" xlink:title="nuspell::Aff_Structures\l\&lt; wchar_t \&gt;">
<polygon fill="#ffffff" stroke="#000000" points="673,-122.5 673,-152.5 789,-152.5 789,-122.5 673,-122.5"/>
<text text-anchor="start" x="681" y="-140.5" font-family="Helvetica,sans-Serif" font-size="10.00" fill="#000000">nuspell::Aff_Structures</text>
<text text-anchor="middle" x="731" y="-129.5" font-family="Helvetica,sans-Serif" font-size="10.00" fill="#000000">&lt; wchar_t &gt;</text>
</a>
</g>
</g>
<!-- Node18&#45;&gt;Node6 -->
<g id="edge14" class="edge">
<title>Node18&#45;&gt;Node6</title>
<path fill="none" stroke="#9a32cd" stroke-dasharray="5,2" d="M768.545,-157.4597C799.6676,-174.7461 844.4102,-201.3458 880,-229.5 901.6896,-246.6581 923.806,-270.4738 935.5106,-283.683"/>
<polygon fill="#9a32cd" stroke="#9a32cd" points="770.1972,-154.374 759.7485,-152.6203 766.823,-160.5071 770.1972,-154.374"/>
<text text-anchor="middle" x="843.5" y="-232.5" font-family="Helvetica,sans-Serif" font-size="10.00" fill="#000000"> wide_structures</text>
</g>
<!-- Node19 -->
<g id="node16" class="node">
<title>Node19</title>
<g id="a_node16"><a xlink:href="classnuspell_1_1_replacement___table.html" target="_top" xlink:title="nuspell::Replacement\l_Table\&lt; wchar_t \&gt;">
<polygon fill="#ffffff" stroke="#000000" points="392.5,-196.5 392.5,-226.5 503.5,-226.5 503.5,-196.5 392.5,-196.5"/>
<text text-anchor="start" x="400.5" y="-214.5" font-family="Helvetica,sans-Serif" font-size="10.00" fill="#000000">nuspell::Replacement</text>
<text text-anchor="middle" x="448" y="-203.5" font-family="Helvetica,sans-Serif" font-size="10.00" fill="#000000">_Table&lt; wchar_t &gt;</text>
</a>
</g>
</g>
<!-- Node19&#45;&gt;Node18 -->
<g id="edge15" class="edge">
<title>Node19&#45;&gt;Node18</title>
<path fill="none" stroke="#9a32cd" stroke-dasharray="5,2" d="M513.6276,-202.1908C554.7832,-195.4511 608.6389,-184.9729 655,-170.5 670.3788,-165.6991 686.848,-158.7826 700.51,-152.5205"/>
<polygon fill="#9a32cd" stroke="#9a32cd" points="513.0365,-198.7408 503.7178,-203.7818 514.1462,-205.6523 513.0365,-198.7408"/>
<text text-anchor="middle" x="592" y="-202.5" font-family="Helvetica,sans-Serif" font-size="10.00" fill="#000000"> replacements</text>
</g>
<!-- Node20 -->
<g id="node17" class="node">
<title>Node20</title>
<g id="a_node17"><a xlink:href="classnuspell_1_1_phonetic___table.html" target="_top" xlink:title="nuspell::Phonetic_Table\l\&lt; wchar_t \&gt;">
<polygon fill="#ffffff" stroke="#000000" points="387.5,-147.5 387.5,-177.5 508.5,-177.5 508.5,-147.5 387.5,-147.5"/>
<text text-anchor="start" x="395.5" y="-165.5" font-family="Helvetica,sans-Serif" font-size="10.00" fill="#000000">nuspell::Phonetic_Table</text>
<text text-anchor="middle" x="448" y="-154.5" font-family="Helvetica,sans-Serif" font-size="10.00" fill="#000000">&lt; wchar_t &gt;</text>
</a>
</g>
</g>
<!-- Node20&#45;&gt;Node18 -->
<g id="edge16" class="edge">
<title>Node20&#45;&gt;Node18</title>
<path fill="none" stroke="#9a32cd" stroke-dasharray="5,2" d="M518.9246,-156.2346C566.4286,-152.0381 628.1973,-146.5815 672.8084,-142.6406"/>
<polygon fill="#9a32cd" stroke="#9a32cd" points="518.3638,-152.7704 508.7106,-157.1369 518.9798,-159.7432 518.3638,-152.7704"/>
<text text-anchor="middle" x="592" y="-158.5" font-family="Helvetica,sans-Serif" font-size="10.00" fill="#000000"> phonetic_table</text>
</g>
<!-- Node21 -->
<g id="node18" class="node">
<title>Node21</title>
<g id="a_node18"><a xlink:href="classnuspell_1_1_substr___replacer.html" target="_top" xlink:title="nuspell::Substr_Replacer\l\&lt; wchar_t \&gt;">
<polygon fill="#ffffff" stroke="#000000" points="385,-98.5 385,-128.5 511,-128.5 511,-98.5 385,-98.5"/>
<text text-anchor="start" x="393" y="-116.5" font-family="Helvetica,sans-Serif" font-size="10.00" fill="#000000">nuspell::Substr_Replacer</text>
<text text-anchor="middle" x="448" y="-105.5" font-family="Helvetica,sans-Serif" font-size="10.00" fill="#000000">&lt; wchar_t &gt;</text>
</a>
</g>
</g>
<!-- Node21&#45;&gt;Node18 -->
<g id="edge17" class="edge">
<title>Node21&#45;&gt;Node18</title>
<path fill="none" stroke="#9a32cd" stroke-dasharray="5,2" d="M521.378,-111.3461C561.0988,-111.1658 610.9238,-112.5329 655,-118.5 662.1431,-119.4671 669.586,-120.8481 676.8985,-122.4302"/>
<polygon fill="#9a32cd" stroke="#9a32cd" points="521.2172,-107.8472 511.2452,-111.4264 521.2727,-114.847 521.2172,-107.8472"/>
<text text-anchor="middle" x="592" y="-132.5" font-family="Helvetica,sans-Serif" font-size="10.00" fill="#000000"> input_substr_replacer</text>
<text text-anchor="middle" x="592" y="-121.5" font-family="Helvetica,sans-Serif" font-size="10.00" fill="#000000">output_substr_replacer</text>
</g>
<!-- Node22&#45;&gt;Node18 -->
<g id="edge18" class="edge">
<title>Node22&#45;&gt;Node18</title>
<path fill="none" stroke="#9a32cd" stroke-dasharray="5,2" d="M509.876,-62.8658C551.9756,-63.6395 608.3023,-68.4235 655,-85.5 677.5223,-93.736 699.7438,-110.1732 714.2846,-122.3733"/>
<polygon fill="#9a32cd" stroke="#9a32cd" points="509.8049,-59.3649 499.7659,-62.7516 509.7257,-66.3644 509.8049,-59.3649"/>
<text text-anchor="middle" x="592" y="-99.5" font-family="Helvetica,sans-Serif" font-size="10.00" fill="#000000"> suffixes</text>
<text text-anchor="middle" x="592" y="-88.5" font-family="Helvetica,sans-Serif" font-size="10.00" fill="#000000">prefixes</text>
</g>
<!-- Node23&#45;&gt;Node22 -->
<g id="edge19" class="edge">
<title>Node23&#45;&gt;Node22</title>
<path fill="none" stroke="#8b1a1a" d="M239.6413,-221.2588C268.2144,-187.8584 325.1073,-126.1692 385,-88.5 390.251,-85.1974 396.0281,-82.2336 401.8883,-79.6098"/>
<polygon fill="#8b1a1a" stroke="#8b1a1a" points="236.7873,-219.2133 233.0025,-229.1091 242.1323,-223.7335 236.7873,-219.2133"/>
</g>
<!-- Node24 -->
<g id="node21" class="node">
<title>Node24</title>
<g id="a_node21"><a xlink:href="classnuspell_1_1_break___table.html" target="_top" xlink:title="nuspell::Break_Table\l\&lt; wchar_t \&gt;">
<polygon fill="#ffffff" stroke="#000000" points="394,-.5 394,-30.5 502,-30.5 502,-.5 394,-.5"/>
<text text-anchor="start" x="402" y="-18.5" font-family="Helvetica,sans-Serif" font-size="10.00" fill="#000000">nuspell::Break_Table</text>
<text text-anchor="middle" x="448" y="-7.5" font-family="Helvetica,sans-Serif" font-size="10.00" fill="#000000">&lt; wchar_t &gt;</text>
</a>
</g>
</g>
<!-- Node24&#45;&gt;Node18 -->
<g id="edge24" class="edge">
<title>Node24&#45;&gt;Node18</title>
<path fill="none" stroke="#9a32cd" stroke-dasharray="5,2" d="M512.3696,-14.9025C555.2349,-17.0913 611.4653,-25.1131 655,-49.5 685.9967,-66.8634 710.2948,-101.9459 722.4541,-122.1768"/>
<polygon fill="#9a32cd" stroke="#9a32cd" points="512.4688,-11.4037 502.3314,-14.4832 512.1765,-18.3976 512.4688,-11.4037"/>
<text text-anchor="middle" x="592" y="-52.5" font-family="Helvetica,sans-Serif" font-size="10.00" fill="#000000"> break_table</text>
</g>
<!-- Node25 -->
<g id="node22" class="node">
<title>Node25</title>
<g id="a_node22"><a xlink:href="classnuspell_1_1_word___list.html" target="_top" xlink:title="Map between words and word_flags. ">
<polygon fill="#ffffff" stroke="#000000" points="543,-559 543,-578 641,-578 641,-559 543,-559"/>
<text text-anchor="middle" x="592" y="-566" font-family="Helvetica,sans-Serif" font-size="10.00" fill="#000000">nuspell::Word_List</text>
</a>
</g>
</g>
<!-- Node25&#45;&gt;Node6 -->
<g id="edge25" class="edge">
<title>Node25&#45;&gt;Node6</title>
<path fill="none" stroke="#9a32cd" stroke-dasharray="5,2" d="M631.4553,-555.3608C639.4291,-552.1842 647.6238,-548.5278 655,-544.5 764.0692,-484.9427 791.7002,-465.9432 880,-378.5 904.6757,-354.0637 927.6246,-319.6771 938.0752,-303.1334"/>
<polygon fill="#9a32cd" stroke="#9a32cd" points="630.012,-552.165 621.9085,-558.9901 632.4996,-558.7081 630.012,-552.165"/>
<text text-anchor="middle" x="731" y="-534.5" font-family="Helvetica,sans-Serif" font-size="10.00" fill="#000000"> words</text>
</g>
<!-- Node26&#45;&gt;Node25 -->
<g id="edge26" class="edge">
<title>Node26&#45;&gt;Node25</title>
<path fill="none" stroke="#191970" d="M250.3073,-513.2319C282.6891,-527.4207 336.3231,-548.819 385,-558.5 438.2853,-569.0975 500.7291,-570.6725 542.9885,-570.1816"/>
<polygon fill="#191970" stroke="#191970" points="251.5286,-509.9446 240.9691,-509.0809 248.6852,-516.3411 251.5286,-509.9446"/>
</g>
<!-- Node27&#45;&gt;Node6 -->
<g id="edge31" class="edge">
<title>Node27&#45;&gt;Node6</title>
<path fill="none" stroke="#9a32cd" stroke-dasharray="5,2" d="M665.2617,-257.5707C723.7182,-260.81 807.5291,-267.222 880,-279.5 887.5134,-280.7729 895.4778,-282.3385 903.1425,-283.9564"/>
<polygon fill="#9a32cd" stroke="#9a32cd" points="665.1876,-254.0618 655.0145,-257.021 664.8126,-261.0518 665.1876,-254.0618"/>
<text text-anchor="middle" x="731" y="-269.5" font-family="Helvetica,sans-Serif" font-size="10.00" fill="#000000"> compound_rules</text>
</g>
</g>
</svg>
