<?xml version="1.0" encoding="UTF-8" standalone="no"?>
<!DOCTYPE svg PUBLIC "-//W3C//DTD SVG 1.1//EN"
 "http://www.w3.org/Graphics/SVG/1.1/DTD/svg11.dtd">
<!-- Generated by graphviz version 2.40.1 (20161225.0304)
 -->
<!-- Title: nuspell::List_Strings::operator&gt; Pages: 1 -->
<svg width="411pt" height="154pt"
 viewBox="0.00 0.00 411.00 153.50" xmlns="http://www.w3.org/2000/svg" xmlns:xlink="http://www.w3.org/1999/xlink">
<g id="graph0" class="graph" transform="scale(1 1) rotate(0) translate(4 149.5)">
<title>nuspell::List_Strings::operator&gt;</title>
<polygon fill="#ffffff" stroke="transparent" points="-4,4 -4,-149.5 407,-149.5 407,4 -4,4"/>
<!-- Node150 -->
<g id="node1" class="node">
<title>Node150</title>
<polygon fill="#bfbfbf" stroke="#000000" points="0,-52 0,-82 105,-82 105,-52 0,-52"/>
<text text-anchor="start" x="8" y="-70" font-family="Helvetica,sans-Serif" font-size="10.00" fill="#000000">nuspell::List_Strings</text>
<text text-anchor="middle" x="52.5" y="-59" font-family="Helvetica,sans-Serif" font-size="10.00" fill="#000000">::operator&gt;</text>
</g>
<!-- Node151 -->
<g id="node2" class="node">
<title>Node151</title>
<g id="a_node2"><a xlink:href="classnuspell_1_1_list___strings.html#a030dc1c73b6e38cab8fa96a7bb18483d" target="_top" xlink:title="nuspell::List_Strings\l::begin">
<polygon fill="#ffffff" stroke="#000000" points="152,-115 152,-145 257,-145 257,-115 152,-115"/>
<text text-anchor="start" x="160" y="-133" font-family="Helvetica,sans-Serif" font-size="10.00" fill="#000000">nuspell::List_Strings</text>
<text text-anchor="middle" x="204.5" y="-122" font-family="Helvetica,sans-Serif" font-size="10.00" fill="#000000">::begin</text>
</a>
</g>
</g>
<!-- Node150&#45;&gt;Node151 -->
<g id="edge1" class="edge">
<title>Node150&#45;&gt;Node151</title>
<path fill="none" stroke="#191970" d="M86.8605,-82.0426C103.2098,-89.1259 123.0624,-97.62 141,-105 145.999,-107.0567 151.2332,-109.1745 156.4598,-111.2661"/>
<polygon fill="#191970" stroke="#191970" points="155.2217,-114.5403 165.8073,-114.984 157.8089,-108.0359 155.2217,-114.5403"/>
</g>
<!-- Node152 -->
<g id="node3" class="node">
<title>Node152</title>
<g id="a_node3"><a xlink:href="classnuspell_1_1_list___strings.html#a084c5de71215f0b5c7924b0396ae2575" target="_top" xlink:title="nuspell::List_Strings::end">
<polygon fill="#ffffff" stroke="#000000" points="141,-76.5 141,-95.5 268,-95.5 268,-76.5 141,-76.5"/>
<text text-anchor="middle" x="204.5" y="-83.5" font-family="Helvetica,sans-Serif" font-size="10.00" fill="#000000">nuspell::List_Strings::end</text>
</a>
</g>
</g>
<!-- Node150&#45;&gt;Node152 -->
<g id="edge2" class="edge">
<title>Node150&#45;&gt;Node152</title>
<path fill="none" stroke="#191970" d="M105.2356,-73.592C113.4939,-74.6242 122.1578,-75.7072 130.7824,-76.7853"/>
<polygon fill="#191970" stroke="#191970" points="130.5054,-80.2778 140.8623,-78.0453 131.3737,-73.3319 130.5054,-80.2778"/>
</g>
<!-- Node153 -->
<g id="node4" class="node">
<title>Node153</title>
<g id="a_node4"><a xlink:href="classnuspell_1_1_string___set.html#a18bc20de4ed5671de253d5ffa25bde27" target="_top" xlink:title="nuspell::String_Set\l::begin">
<polygon fill="#ffffff" stroke="#000000" points="304,-52 304,-82 403,-82 403,-52 304,-52"/>
<text text-anchor="start" x="312" y="-70" font-family="Helvetica,sans-Serif" font-size="10.00" fill="#000000">nuspell::String_Set</text>
<text text-anchor="middle" x="353.5" y="-59" font-family="Helvetica,sans-Serif" font-size="10.00" fill="#000000">::begin</text>
</a>
</g>
</g>
<!-- Node150&#45;&gt;Node153 -->
<g id="edge4" class="edge">
<title>Node150&#45;&gt;Node153</title>
<path fill="none" stroke="#191970" d="M105.2746,-67C157.8621,-67 238.495,-67 293.489,-67"/>
<polygon fill="#191970" stroke="#191970" points="293.7881,-70.5001 303.7881,-67 293.788,-63.5001 293.7881,-70.5001"/>
</g>
<!-- Node154 -->
<g id="node5" class="node">
<title>Node154</title>
<g id="a_node5"><a xlink:href="classnuspell_1_1_string___set.html#a1ac519529575a85ad75d6ddebde856ef" target="_top" xlink:title="nuspell::String_Set::end">
<polygon fill="#ffffff" stroke="#000000" points="144,-.5 144,-19.5 265,-19.5 265,-.5 144,-.5"/>
<text text-anchor="middle" x="204.5" y="-7.5" font-family="Helvetica,sans-Serif" font-size="10.00" fill="#000000">nuspell::String_Set::end</text>
</a>
</g>
</g>
<!-- Node150&#45;&gt;Node154 -->
<g id="edge5" class="edge">
<title>Node150&#45;&gt;Node154</title>
<path fill="none" stroke="#191970" d="M92.8341,-51.8747C116.5843,-42.9684 146.3441,-31.8085 169.1678,-23.2496"/>
<polygon fill="#191970" stroke="#191970" points="170.6683,-26.425 178.8026,-19.6365 168.2104,-19.8707 170.6683,-26.425"/>
</g>
<!-- Node152&#45;&gt;Node153 -->
<g id="edge3" class="edge">
<title>Node152&#45;&gt;Node153</title>
<path fill="none" stroke="#191970" d="M268.1216,-77.8872C276.5566,-76.8116 285.1817,-75.7117 293.5518,-74.6444"/>
<polygon fill="#191970" stroke="#191970" points="294.1282,-78.0993 303.6051,-73.3624 293.2427,-71.1556 294.1282,-78.0993"/>
</g>
</g>
</svg>
