<?xml version="1.0" encoding="UTF-8" standalone="no"?>
<!DOCTYPE svg PUBLIC "-//W3C//DTD SVG 1.1//EN"
 "http://www.w3.org/Graphics/SVG/1.1/DTD/svg11.dtd">
<!-- Generated by graphviz version 2.40.1 (20161225.0304)
 -->
<!-- Title: nuspell::Basic_Dictionary::spell Pages: 1 -->
<svg width="365pt" height="256pt"
 viewBox="0.00 0.00 365.00 256.00" xmlns="http://www.w3.org/2000/svg" xmlns:xlink="http://www.w3.org/1999/xlink">
<g id="graph0" class="graph" transform="scale(1 1) rotate(0) translate(4 252)">
<title>nuspell::Basic_Dictionary::spell</title>
<polygon fill="#ffffff" stroke="transparent" points="-4,4 -4,-252 361,-252 361,4 -4,4"/>
<!-- Node26 -->
<g id="node1" class="node">
<title>Node26</title>
<polygon fill="#bfbfbf" stroke="#000000" points="0,-109 0,-139 128,-139 128,-109 0,-109"/>
<text text-anchor="start" x="8" y="-127" font-family="Helvetica,sans-Serif" font-size="10.00" fill="#000000">nuspell::Basic_Dictionary</text>
<text text-anchor="middle" x="64" y="-116" font-family="Helvetica,sans-Serif" font-size="10.00" fill="#000000">::spell</text>
</g>
<!-- Node27 -->
<g id="node2" class="node">
<title>Node27</title>
<g id="a_node2"><a xlink:href="main_8cxx.html#a4a642b8579e49cab4ef7293d66f1f5d5" target="_top" xlink:title="Normal loop, tokenize and check spelling. ">
<polygon fill="#ffffff" stroke="#000000" points="189,-228.5 189,-247.5 258,-247.5 258,-228.5 189,-228.5"/>
<text text-anchor="middle" x="223.5" y="-235.5" font-family="Helvetica,sans-Serif" font-size="10.00" fill="#000000">normal_loop</text>
</a>
</g>
</g>
<!-- Node26&#45;&gt;Node27 -->
<g id="edge1" class="edge">
<title>Node26&#45;&gt;Node27</title>
<path fill="none" stroke="#191970" d="M82.4872,-146.7009C101.0428,-168.1237 131.4743,-199.7487 164,-219 171.5587,-223.4738 180.2908,-227.0187 188.6972,-229.7746"/>
<polygon fill="#191970" stroke="#191970" points="85.1189,-144.3928 75.9775,-139.0371 79.7838,-148.9246 85.1189,-144.3928"/>
</g>
<!-- Node29 -->
<g id="node4" class="node">
<title>Node29</title>
<g id="a_node4"><a xlink:href="main_8cxx.html#aebf2c62d10a43ada729a73c94fa6f254" target="_top" xlink:title="normal_nosuggest_loop">
<polygon fill="#ffffff" stroke="#000000" points="164,-190.5 164,-209.5 283,-209.5 283,-190.5 164,-190.5"/>
<text text-anchor="middle" x="223.5" y="-197.5" font-family="Helvetica,sans-Serif" font-size="10.00" fill="#000000">normal_nosuggest_loop</text>
</a>
</g>
</g>
<!-- Node26&#45;&gt;Node29 -->
<g id="edge3" class="edge">
<title>Node26&#45;&gt;Node29</title>
<path fill="none" stroke="#191970" d="M95.7663,-144.3827C114.9948,-156.1374 140.3048,-170.6003 164,-181 172.0429,-184.53 180.9528,-187.7283 189.376,-190.4514"/>
<polygon fill="#191970" stroke="#191970" points="97.4635,-141.317 87.1187,-139.0286 93.7785,-147.2686 97.4635,-141.317"/>
</g>
<!-- Node30 -->
<g id="node5" class="node">
<title>Node30</title>
<g id="a_node5"><a xlink:href="main_8cxx.html#aebf1b2aa274390a39317fbbca50d9d5e" target="_top" xlink:title="Prints misspelled words from in to out. ">
<polygon fill="#ffffff" stroke="#000000" points="167,-152.5 167,-171.5 280,-171.5 280,-152.5 167,-152.5"/>
<text text-anchor="middle" x="223.5" y="-159.5" font-family="Helvetica,sans-Serif" font-size="10.00" fill="#000000">misspelled_word_loop</text>
</a>
</g>
</g>
<!-- Node26&#45;&gt;Node30 -->
<g id="edge5" class="edge">
<title>Node26&#45;&gt;Node30</title>
<path fill="none" stroke="#191970" d="M136.9205,-141.3729C152.9053,-145.1812 169.2586,-149.0773 183.3866,-152.4432"/>
<polygon fill="#191970" stroke="#191970" points="137.5775,-137.9316 127.0386,-139.0186 135.9552,-144.741 137.5775,-137.9316"/>
</g>
<!-- Node31 -->
<g id="node6" class="node">
<title>Node31</title>
<g id="a_node6"><a xlink:href="main_8cxx.html#a1248d9e693e561e175cf2e5b55499fff" target="_top" xlink:title="correct_word_loop">
<polygon fill="#ffffff" stroke="#000000" points="175.5,-114.5 175.5,-133.5 271.5,-133.5 271.5,-114.5 175.5,-114.5"/>
<text text-anchor="middle" x="223.5" y="-121.5" font-family="Helvetica,sans-Serif" font-size="10.00" fill="#000000">correct_word_loop</text>
</a>
</g>
</g>
<!-- Node26&#45;&gt;Node31 -->
<g id="edge7" class="edge">
<title>Node26&#45;&gt;Node31</title>
<path fill="none" stroke="#191970" d="M138.7181,-124C151.06,-124 163.5632,-124 175.0392,-124"/>
<polygon fill="#191970" stroke="#191970" points="138.415,-120.5001 128.415,-124 138.415,-127.5001 138.415,-120.5001"/>
</g>
<!-- Node32 -->
<g id="node7" class="node">
<title>Node32</title>
<g id="a_node7"><a xlink:href="main_8cxx.html#a3d8ece05cdc365860364604ebebab70d" target="_top" xlink:title="crude_parse_loop">
<polygon fill="#ffffff" stroke="#000000" points="177,-76.5 177,-95.5 270,-95.5 270,-76.5 177,-76.5"/>
<text text-anchor="middle" x="223.5" y="-83.5" font-family="Helvetica,sans-Serif" font-size="10.00" fill="#000000">crude_parse_loop</text>
</a>
</g>
</g>
<!-- Node26&#45;&gt;Node32 -->
<g id="edge9" class="edge">
<title>Node26&#45;&gt;Node32</title>
<path fill="none" stroke="#191970" d="M136.9205,-106.6271C152.9053,-102.8188 169.2586,-98.9227 183.3866,-95.5568"/>
<polygon fill="#191970" stroke="#191970" points="135.9552,-103.259 127.0386,-108.9814 137.5775,-110.0684 135.9552,-103.259"/>
</g>
<!-- Node33 -->
<g id="node8" class="node">
<title>Node33</title>
<g id="a_node8"><a xlink:href="main_8cxx.html#a1f92dedeeb68a1a7bc2b720097d3b7a4" target="_top" xlink:title="misspelled_line_loop">
<polygon fill="#ffffff" stroke="#000000" points="170,-38.5 170,-57.5 277,-57.5 277,-38.5 170,-38.5"/>
<text text-anchor="middle" x="223.5" y="-45.5" font-family="Helvetica,sans-Serif" font-size="10.00" fill="#000000">misspelled_line_loop</text>
</a>
</g>
</g>
<!-- Node26&#45;&gt;Node33 -->
<g id="edge11" class="edge">
<title>Node26&#45;&gt;Node33</title>
<path fill="none" stroke="#191970" d="M95.7663,-103.6173C114.9948,-91.8626 140.3048,-77.3997 164,-67 172.0429,-63.47 180.9528,-60.2717 189.376,-57.5486"/>
<polygon fill="#191970" stroke="#191970" points="93.7785,-100.7314 87.1187,-108.9714 97.4635,-106.683 93.7785,-100.7314"/>
</g>
<!-- Node34 -->
<g id="node9" class="node">
<title>Node34</title>
<g id="a_node9"><a xlink:href="main_8cxx.html#a16580c4100b461806a9c49575bdd5428" target="_top" xlink:title="correct_line_loop">
<polygon fill="#ffffff" stroke="#000000" points="178.5,-.5 178.5,-19.5 268.5,-19.5 268.5,-.5 178.5,-.5"/>
<text text-anchor="middle" x="223.5" y="-7.5" font-family="Helvetica,sans-Serif" font-size="10.00" fill="#000000">correct_line_loop</text>
</a>
</g>
</g>
<!-- Node26&#45;&gt;Node34 -->
<g id="edge13" class="edge">
<title>Node26&#45;&gt;Node34</title>
<path fill="none" stroke="#191970" d="M82.4872,-101.2991C101.0428,-79.8763 131.4743,-48.2513 164,-29 170.4389,-25.189 177.7293,-22.052 184.9445,-19.5026"/>
<polygon fill="#191970" stroke="#191970" points="79.7838,-99.0754 75.9775,-108.9629 85.1189,-103.6072 79.7838,-99.0754"/>
</g>
<!-- Node28 -->
<g id="node3" class="node">
<title>Node28</title>
<g id="a_node3"><a xlink:href="main_8cxx.html#a0ddf1224851353fc92bfbff6f499fa97" target="_top" xlink:title="main">
<polygon fill="#ffffff" stroke="#000000" points="319,-114.5 319,-133.5 357,-133.5 357,-114.5 319,-114.5"/>
<text text-anchor="middle" x="338" y="-121.5" font-family="Helvetica,sans-Serif" font-size="10.00" fill="#000000">main</text>
</a>
</g>
</g>
<!-- Node27&#45;&gt;Node28 -->
<g id="edge2" class="edge">
<title>Node27&#45;&gt;Node28</title>
<path fill="none" stroke="#191970" d="M267.5146,-228.0963C273.0641,-225.6881 278.3995,-222.7016 283,-219 311.9538,-195.7034 328.7102,-152.7772 335.0517,-133.643"/>
<polygon fill="#191970" stroke="#191970" points="266.2072,-224.8484 258.0649,-231.6272 268.6574,-231.4056 266.2072,-224.8484"/>
</g>
<!-- Node29&#45;&gt;Node28 -->
<g id="edge4" class="edge">
<title>Node29&#45;&gt;Node28</title>
<path fill="none" stroke="#191970" d="M272.2595,-186.6767C275.9983,-184.984 279.6256,-183.0976 283,-181 303.3213,-168.3677 321.4269,-146.5748 330.9409,-133.9099"/>
<polygon fill="#191970" stroke="#191970" points="270.7756,-183.5013 262.8171,-190.4951 273.3999,-189.9908 270.7756,-183.5013"/>
</g>
<!-- Node30&#45;&gt;Node28 -->
<g id="edge6" class="edge">
<title>Node30&#45;&gt;Node28</title>
<path fill="none" stroke="#191970" d="M263.749,-149.289C270.1954,-147.2124 276.7872,-145.0648 283,-143 294.9834,-139.0174 308.3773,-134.3941 318.9472,-130.7053"/>
<polygon fill="#191970" stroke="#191970" points="262.2695,-146.0877 253.8139,-152.4716 264.405,-152.754 262.2695,-146.0877"/>
</g>
<!-- Node31&#45;&gt;Node28 -->
<g id="edge8" class="edge">
<title>Node31&#45;&gt;Node28</title>
<path fill="none" stroke="#191970" d="M281.9369,-124C295.3306,-124 308.6375,-124 318.9239,-124"/>
<polygon fill="#191970" stroke="#191970" points="281.7265,-120.5001 271.7265,-124 281.7264,-127.5001 281.7265,-120.5001"/>
</g>
<!-- Node32&#45;&gt;Node28 -->
<g id="edge10" class="edge">
<title>Node32&#45;&gt;Node28</title>
<path fill="none" stroke="#191970" d="M263.749,-98.711C270.1954,-100.7876 276.7872,-102.9352 283,-105 294.9834,-108.9826 308.3773,-113.6059 318.9472,-117.2947"/>
<polygon fill="#191970" stroke="#191970" points="264.405,-95.246 253.8139,-95.5284 262.2695,-101.9123 264.405,-95.246"/>
</g>
<!-- Node33&#45;&gt;Node28 -->
<g id="edge12" class="edge">
<title>Node33&#45;&gt;Node28</title>
<path fill="none" stroke="#191970" d="M272.2595,-61.3233C275.9983,-63.016 279.6256,-64.9024 283,-67 303.3213,-79.6323 321.4269,-101.4252 330.9409,-114.0901"/>
<polygon fill="#191970" stroke="#191970" points="273.3999,-58.0092 262.8171,-57.5049 270.7756,-64.4987 273.3999,-58.0092"/>
</g>
<!-- Node34&#45;&gt;Node28 -->
<g id="edge14" class="edge">
<title>Node34&#45;&gt;Node28</title>
<path fill="none" stroke="#191970" d="M275.7587,-24.0515C278.3084,-25.5396 280.7427,-27.1837 283,-29 311.9538,-52.2966 328.7102,-95.2228 335.0517,-114.357"/>
<polygon fill="#191970" stroke="#191970" points="277.2476,-20.8831 266.7345,-19.5696 274.1339,-27.1525 277.2476,-20.8831"/>
</g>
</g>
</svg>
