<?xml version="1.0" encoding="UTF-8" standalone="no"?>
<!DOCTYPE svg PUBLIC "-//W3C//DTD SVG 1.1//EN"
 "http://www.w3.org/Graphics/SVG/1.1/DTD/svg11.dtd">
<!-- Generated by graphviz version 2.43.0 (0)
 -->
<!-- Title: My_Dictionary Pages: 1 -->
<svg width="893pt" height="443pt"
 viewBox="0.00 0.00 893.00 443.00" xmlns="http://www.w3.org/2000/svg" xmlns:xlink="http://www.w3.org/1999/xlink">
<g id="graph0" class="graph" transform="scale(1 1) rotate(0) translate(4 439)">
<title>My_Dictionary</title>
<polygon fill="white" stroke="transparent" points="-4,4 -4,-439 889,-439 889,4 -4,4"/>
<!-- Node1 -->
<g id="node1" class="node">
<title>Node1</title>
<g id="a_node1"><a xlink:title=" ">
<polygon fill="#bfbfbf" stroke="black" points="798,-214 798,-233 885,-233 885,-214 798,-214"/>
<text text-anchor="middle" x="841.5" y="-221" font-family="Helvetica,sans-Serif" font-size="10.00">My_Dictionary</text>
</a>
</g>
</g>
<!-- Node2 -->
<g id="node2" class="node">
<title>Node2</title>
<g id="a_node2"><a xlink:href="classnuspell_1_1v3_1_1_dictionary.html" target="_top" xlink:title="The only important public class.">
<polygon fill="white" stroke="black" points="635,-214 635,-233 761,-233 761,-214 635,-214"/>
<text text-anchor="middle" x="698" y="-221" font-family="Helvetica,sans-Serif" font-size="10.00">nuspell::v3::Dictionary</text>
</a>
</g>
</g>
<!-- Node2&#45;&gt;Node1 -->
<g id="edge1" class="edge">
<title>Node2&#45;&gt;Node1</title>
<path fill="none" stroke="midnightblue" d="M771.22,-223.5C780.24,-223.5 789.22,-223.5 797.59,-223.5"/>
<polygon fill="midnightblue" stroke="midnightblue" points="771.06,-220 761.06,-223.5 771.06,-227 771.06,-220"/>
</g>
<!-- Node3 -->
<g id="node3" class="node">
<title>Node3</title>
<g id="a_node3"><a xlink:href="structnuspell_1_1v3_1_1_dict___base.html" target="_top" xlink:title=" ">
<polygon fill="white" stroke="black" points="473,-214 473,-233 598,-233 598,-214 473,-214"/>
<text text-anchor="middle" x="535.5" y="-221" font-family="Helvetica,sans-Serif" font-size="10.00">nuspell::v3::Dict_Base</text>
</a>
</g>
</g>
<!-- Node3&#45;&gt;Node2 -->
<g id="edge2" class="edge">
<title>Node3&#45;&gt;Node2</title>
<path fill="none" stroke="#8b1a1a" d="M608.35,-223.5C617.17,-223.5 626.12,-223.5 634.77,-223.5"/>
<polygon fill="#8b1a1a" stroke="#8b1a1a" points="608.09,-220 598.09,-223.5 608.09,-227 608.09,-220"/>
</g>
<!-- Node4 -->
<g id="node4" class="node">
<title>Node4</title>
<g id="a_node4"><a xlink:href="structnuspell_1_1v3_1_1_aff___data.html" target="_top" xlink:title=" ">
<polygon fill="white" stroke="black" points="318,-214 318,-233 436,-233 436,-214 318,-214"/>
<text text-anchor="middle" x="377" y="-221" font-family="Helvetica,sans-Serif" font-size="10.00">nuspell::v3::Aff_Data</text>
</a>
</g>
</g>
<!-- Node4&#45;&gt;Node3 -->
<g id="edge3" class="edge">
<title>Node4&#45;&gt;Node3</title>
<path fill="none" stroke="midnightblue" d="M446.45,-223.5C455.21,-223.5 464.13,-223.5 472.77,-223.5"/>
<polygon fill="midnightblue" stroke="midnightblue" points="446.27,-220 436.27,-223.5 446.27,-227 446.27,-220"/>
</g>
<!-- Node5 -->
<g id="node5" class="node">
<title>Node5</title>
<g id="a_node5"><a xlink:href="classnuspell_1_1v3_1_1_compound___rule___table.html" target="_top" xlink:title=" ">
<polygon fill="white" stroke="black" points="21,-404.5 21,-434.5 149,-434.5 149,-404.5 21,-404.5"/>
<text text-anchor="start" x="29" y="-422.5" font-family="Helvetica,sans-Serif" font-size="10.00">nuspell::v3::Compound</text>
<text text-anchor="middle" x="85" y="-411.5" font-family="Helvetica,sans-Serif" font-size="10.00">_Rule_Table</text>
</a>
</g>
</g>
<!-- Node5&#45;&gt;Node4 -->
<g id="edge4" class="edge">
<title>Node5&#45;&gt;Node4</title>
<path fill="none" stroke="#9a32cd" stroke-dasharray="5,2" d="M159.38,-421.75C204.1,-419.52 260.12,-409.89 300,-379.5 350.32,-341.16 369.23,-260.75 374.39,-233.09"/>
<polygon fill="#9a32cd" stroke="#9a32cd" points="159.01,-418.27 149.15,-422.15 159.28,-425.26 159.01,-418.27"/>
<text text-anchor="middle" x="244" y="-421.5" font-family="Helvetica,sans-Serif" font-size="10.00"> compound_rules</text>
</g>
<!-- Node6 -->
<g id="node6" class="node">
<title>Node6</title>
<g id="a_node6"><a xlink:href="classnuspell_1_1v3_1_1_replacement___table.html" target="_top" xlink:title=" ">
<polygon fill="white" stroke="black" points="15,-355.5 15,-385.5 155,-385.5 155,-355.5 15,-355.5"/>
<text text-anchor="start" x="23" y="-373.5" font-family="Helvetica,sans-Serif" font-size="10.00">nuspell::v3::Replacement</text>
<text text-anchor="middle" x="85" y="-362.5" font-family="Helvetica,sans-Serif" font-size="10.00">_Table&lt; wchar_t &gt;</text>
</a>
</g>
</g>
<!-- Node6&#45;&gt;Node4 -->
<g id="edge5" class="edge">
<title>Node6&#45;&gt;Node4</title>
<path fill="none" stroke="#9a32cd" stroke-dasharray="5,2" d="M165.4,-367.79C208.11,-363.13 260.06,-352.04 300,-326.5 337.26,-302.67 362.52,-253.65 371.92,-233"/>
<polygon fill="#9a32cd" stroke="#9a32cd" points="164.92,-364.32 155.32,-368.79 165.62,-371.29 164.92,-364.32"/>
<text text-anchor="middle" x="244" y="-367.5" font-family="Helvetica,sans-Serif" font-size="10.00"> replacements</text>
</g>
<!-- Node7 -->
<g id="node7" class="node">
<title>Node7</title>
<g id="a_node7"><a xlink:href="classnuspell_1_1v3_1_1_phonetic___table.html" target="_top" xlink:title=" ">
<polygon fill="white" stroke="black" points="26,-306.5 26,-336.5 144,-336.5 144,-306.5 26,-306.5"/>
<text text-anchor="start" x="34" y="-324.5" font-family="Helvetica,sans-Serif" font-size="10.00">nuspell::v3::Phonetic</text>
<text text-anchor="middle" x="85" y="-313.5" font-family="Helvetica,sans-Serif" font-size="10.00">_Table&lt; wchar_t &gt;</text>
</a>
</g>
</g>
<!-- Node7&#45;&gt;Node4 -->
<g id="edge6" class="edge">
<title>Node7&#45;&gt;Node4</title>
<path fill="none" stroke="#9a32cd" stroke-dasharray="5,2" d="M154.22,-317.41C197.52,-312.83 253.87,-303.11 300,-282.5 327.15,-270.37 353.29,-246.58 366.69,-233.22"/>
<polygon fill="#9a32cd" stroke="#9a32cd" points="153.68,-313.95 144.07,-318.42 154.37,-320.91 153.68,-313.95"/>
<text text-anchor="middle" x="244" y="-314.5" font-family="Helvetica,sans-Serif" font-size="10.00"> phonetic_table</text>
</g>
<!-- Node8 -->
<g id="node8" class="node">
<title>Node8</title>
<g id="a_node8"><a xlink:href="classnuspell_1_1v3_1_1_substr___replacer.html" target="_top" xlink:title=" ">
<polygon fill="white" stroke="black" points="22.5,-257.5 22.5,-287.5 147.5,-287.5 147.5,-257.5 22.5,-257.5"/>
<text text-anchor="start" x="30.5" y="-275.5" font-family="Helvetica,sans-Serif" font-size="10.00">nuspell::v3::Substr</text>
<text text-anchor="middle" x="85" y="-264.5" font-family="Helvetica,sans-Serif" font-size="10.00">_Replacer&lt; wchar_t &gt;</text>
</a>
</g>
</g>
<!-- Node8&#45;&gt;Node4 -->
<g id="edge7" class="edge">
<title>Node8&#45;&gt;Node4</title>
<path fill="none" stroke="#9a32cd" stroke-dasharray="5,2" d="M157.95,-261.75C199.52,-255.37 252.78,-246.91 300,-238.5 309.4,-236.83 319.43,-234.93 329.02,-233.06"/>
<polygon fill="#9a32cd" stroke="#9a32cd" points="157.27,-258.32 147.91,-263.29 158.32,-265.24 157.27,-258.32"/>
<text text-anchor="middle" x="244" y="-270.5" font-family="Helvetica,sans-Serif" font-size="10.00"> input_substr_replacer</text>
<text text-anchor="middle" x="244" y="-259.5" font-family="Helvetica,sans-Serif" font-size="10.00">output_substr_replacer</text>
</g>
<!-- Node9 -->
<g id="node9" class="node">
<title>Node9</title>
<g id="a_node9"><a xlink:href="classnuspell_1_1v3_1_1_prefix___table.html" target="_top" xlink:title=" ">
<polygon fill="white" stroke="black" points="33,-208.5 33,-238.5 137,-238.5 137,-208.5 33,-208.5"/>
<text text-anchor="start" x="41" y="-226.5" font-family="Helvetica,sans-Serif" font-size="10.00">nuspell::v3::Prefix</text>
<text text-anchor="middle" x="85" y="-215.5" font-family="Helvetica,sans-Serif" font-size="10.00">_Table</text>
</a>
</g>
</g>
<!-- Node9&#45;&gt;Node4 -->
<g id="edge8" class="edge">
<title>Node9&#45;&gt;Node4</title>
<path fill="none" stroke="#9a32cd" stroke-dasharray="5,2" d="M147.28,-223.5C197.61,-223.5 268.41,-223.5 317.86,-223.5"/>
<polygon fill="#9a32cd" stroke="#9a32cd" points="147.18,-220 137.18,-223.5 147.18,-227 147.18,-220"/>
<text text-anchor="middle" x="244" y="-226.5" font-family="Helvetica,sans-Serif" font-size="10.00"> prefixes</text>
</g>
<!-- Node10 -->
<g id="node10" class="node">
<title>Node10</title>
<g id="a_node10"><a xlink:href="classnuspell_1_1v3_1_1_encoding.html" target="_top" xlink:title=" ">
<polygon fill="white" stroke="black" points="25,-170 25,-189 145,-189 145,-170 25,-170"/>
<text text-anchor="middle" x="85" y="-177" font-family="Helvetica,sans-Serif" font-size="10.00">nuspell::v3::Encoding</text>
</a>
</g>
</g>
<!-- Node10&#45;&gt;Node4 -->
<g id="edge9" class="edge">
<title>Node10&#45;&gt;Node4</title>
<path fill="none" stroke="#9a32cd" stroke-dasharray="5,2" d="M155.3,-187.82C197.27,-193.12 251.82,-200.49 300,-208.5 309.68,-210.11 320.03,-212.02 329.86,-213.93"/>
<polygon fill="#9a32cd" stroke="#9a32cd" points="155.54,-184.32 145.19,-186.55 154.67,-191.27 155.54,-184.32"/>
<text text-anchor="middle" x="244" y="-211.5" font-family="Helvetica,sans-Serif" font-size="10.00"> encoding</text>
</g>
<!-- Node11 -->
<g id="node11" class="node">
<title>Node11</title>
<g id="a_node11"><a xlink:href="classnuspell_1_1v3_1_1_hash___multiset.html" target="_top" xlink:title=" ">
<polygon fill="white" stroke="black" points="0,-98.5 0,-150.5 170,-150.5 170,-98.5 0,-98.5"/>
<text text-anchor="start" x="8" y="-138.5" font-family="Helvetica,sans-Serif" font-size="10.00">nuspell::v3::Hash_Multiset</text>
<text text-anchor="start" x="8" y="-127.5" font-family="Helvetica,sans-Serif" font-size="10.00">&lt; std::pair&lt; std::wstring,</text>
<text text-anchor="start" x="8" y="-116.5" font-family="Helvetica,sans-Serif" font-size="10.00"> Flag_Set &gt;, std::wstring,</text>
<text text-anchor="middle" x="85" y="-105.5" font-family="Helvetica,sans-Serif" font-size="10.00"> Extractor_First_of_Word_Pair &gt;</text>
</a>
</g>
</g>
<!-- Node11&#45;&gt;Node4 -->
<g id="edge10" class="edge">
<title>Node11&#45;&gt;Node4</title>
<path fill="none" stroke="#9a32cd" stroke-dasharray="5,2" d="M180.07,-140.65C218.17,-148.9 262.03,-160.62 300,-176.5 323.76,-186.44 348.66,-203.25 363.23,-213.84"/>
<polygon fill="#9a32cd" stroke="#9a32cd" points="180.51,-137.17 170,-138.52 179.06,-144.02 180.51,-137.17"/>
<text text-anchor="middle" x="244" y="-179.5" font-family="Helvetica,sans-Serif" font-size="10.00"> words</text>
</g>
<!-- Node12 -->
<g id="node12" class="node">
<title>Node12</title>
<g id="a_node12"><a xlink:href="classnuspell_1_1v3_1_1_suffix___table.html" target="_top" xlink:title=" ">
<polygon fill="white" stroke="black" points="33,-49.5 33,-79.5 137,-79.5 137,-49.5 33,-49.5"/>
<text text-anchor="start" x="41" y="-67.5" font-family="Helvetica,sans-Serif" font-size="10.00">nuspell::v3::Suffix</text>
<text text-anchor="middle" x="85" y="-56.5" font-family="Helvetica,sans-Serif" font-size="10.00">_Table</text>
</a>
</g>
</g>
<!-- Node12&#45;&gt;Node4 -->
<g id="edge11" class="edge">
<title>Node12&#45;&gt;Node4</title>
<path fill="none" stroke="#9a32cd" stroke-dasharray="5,2" d="M147.28,-72.35C192.55,-80.45 254.04,-96.48 300,-127.5 334.53,-150.81 360.74,-194.7 371.12,-213.99"/>
<polygon fill="#9a32cd" stroke="#9a32cd" points="147.75,-68.88 137.3,-70.64 146.57,-75.78 147.75,-68.88"/>
<text text-anchor="middle" x="244" y="-130.5" font-family="Helvetica,sans-Serif" font-size="10.00"> suffixes</text>
</g>
<!-- Node13 -->
<g id="node13" class="node">
<title>Node13</title>
<g id="a_node13"><a xlink:href="classnuspell_1_1v3_1_1_break___table.html" target="_top" xlink:title=" ">
<polygon fill="white" stroke="black" points="31,-0.5 31,-30.5 139,-30.5 139,-0.5 31,-0.5"/>
<text text-anchor="start" x="39" y="-18.5" font-family="Helvetica,sans-Serif" font-size="10.00">nuspell::v3::Break</text>
<text text-anchor="middle" x="85" y="-7.5" font-family="Helvetica,sans-Serif" font-size="10.00">_Table&lt; wchar_t &gt;</text>
</a>
</g>
</g>
<!-- Node13&#45;&gt;Node4 -->
<g id="edge12" class="edge">
<title>Node13&#45;&gt;Node4</title>
<path fill="none" stroke="#9a32cd" stroke-dasharray="5,2" d="M149.23,-16.16C195.5,-19.73 257.39,-31.32 300,-65.5 349.86,-105.49 369.06,-186.19 374.35,-213.9"/>
<polygon fill="#9a32cd" stroke="#9a32cd" points="149.23,-12.65 139.02,-15.48 148.76,-19.64 149.23,-12.65"/>
<text text-anchor="middle" x="244" y="-68.5" font-family="Helvetica,sans-Serif" font-size="10.00"> break_table</text>
</g>
</g>
</svg>
