<?xml version="1.0" encoding="UTF-8" standalone="no"?>
<!DOCTYPE svg PUBLIC "-//W3C//DTD SVG 1.1//EN"
 "http://www.w3.org/Graphics/SVG/1.1/DTD/svg11.dtd">
<!-- Generated by graphviz version 2.40.1 (20161225.0304)
 -->
<!-- Title: nuspell::Finder::search_dictionaries Pages: 1 -->
<svg width="396pt" height="137pt"
 viewBox="0.00 0.00 396.00 137.00" xmlns="http://www.w3.org/2000/svg" xmlns:xlink="http://www.w3.org/1999/xlink">
<g id="graph0" class="graph" transform="scale(1 1) rotate(0) translate(4 133)">
<title>nuspell::Finder::search_dictionaries</title>
<polygon fill="#ffffff" stroke="transparent" points="-4,4 -4,-133 392,-133 392,4 -4,4"/>
<!-- Node30 -->
<g id="node1" class="node">
<title>Node30</title>
<polygon fill="#bfbfbf" stroke="#000000" points="0,-49.5 0,-79.5 116,-79.5 116,-49.5 0,-49.5"/>
<text text-anchor="start" x="8" y="-67.5" font-family="Helvetica,sans-Serif" font-size="10.00" fill="#000000">nuspell::Finder::search</text>
<text text-anchor="middle" x="58" y="-56.5" font-family="Helvetica,sans-Serif" font-size="10.00" fill="#000000">_dictionaries</text>
</g>
<!-- Node31 -->
<g id="node2" class="node">
<title>Node31</title>
<g id="a_node2"><a xlink:href="namespacenuspell.html#adf3b41b78ea359884e579dd686895da2" target="_top" xlink:title="Searches path for dictionaries. ">
<polygon fill="#ffffff" stroke="#000000" points="152,-49.5 152,-79.5 259,-79.5 259,-49.5 152,-49.5"/>
<text text-anchor="start" x="160" y="-67.5" font-family="Helvetica,sans-Serif" font-size="10.00" fill="#000000">nuspell::search_path</text>
<text text-anchor="middle" x="205.5" y="-56.5" font-family="Helvetica,sans-Serif" font-size="10.00" fill="#000000">_for_dicts</text>
</a>
</g>
</g>
<!-- Node30&#45;&gt;Node31 -->
<g id="edge1" class="edge">
<title>Node30&#45;&gt;Node31</title>
<path fill="none" stroke="#191970" d="M116.2959,-64.5C124.6541,-64.5 133.2897,-64.5 141.7465,-64.5"/>
<polygon fill="#191970" stroke="#191970" points="141.9428,-68.0001 151.9428,-64.5 141.9427,-61.0001 141.9428,-68.0001"/>
</g>
<!-- Node32 -->
<g id="node3" class="node">
<title>Node32</title>
<g id="a_node3"><a xlink:href="structnuspell_1_1_directory.html#aa9697cf9e705f0acc37567e2f5435856" target="_top" xlink:title="nuspell::Directory\l::open">
<polygon fill="#ffffff" stroke="#000000" points="295,-98.5 295,-128.5 388,-128.5 388,-98.5 295,-98.5"/>
<text text-anchor="start" x="303" y="-116.5" font-family="Helvetica,sans-Serif" font-size="10.00" fill="#000000">nuspell::Directory</text>
<text text-anchor="middle" x="341.5" y="-105.5" font-family="Helvetica,sans-Serif" font-size="10.00" fill="#000000">::open</text>
</a>
</g>
</g>
<!-- Node31&#45;&gt;Node32 -->
<g id="edge2" class="edge">
<title>Node31&#45;&gt;Node32</title>
<path fill="none" stroke="#191970" d="M247.4142,-79.6014C260.8578,-84.4451 275.9047,-89.8664 289.9545,-94.9285"/>
<polygon fill="#191970" stroke="#191970" points="288.8957,-98.2672 299.4901,-98.3641 291.2685,-91.6816 288.8957,-98.2672"/>
</g>
<!-- Node33 -->
<g id="node4" class="node">
<title>Node33</title>
<g id="a_node4"><a xlink:href="structnuspell_1_1_directory.html#a9520b035588f693156225606c0af173b" target="_top" xlink:title="nuspell::Directory\l::next">
<polygon fill="#ffffff" stroke="#000000" points="295,-49.5 295,-79.5 388,-79.5 388,-49.5 295,-49.5"/>
<text text-anchor="start" x="303" y="-67.5" font-family="Helvetica,sans-Serif" font-size="10.00" fill="#000000">nuspell::Directory</text>
<text text-anchor="middle" x="341.5" y="-56.5" font-family="Helvetica,sans-Serif" font-size="10.00" fill="#000000">::next</text>
</a>
</g>
</g>
<!-- Node31&#45;&gt;Node33 -->
<g id="edge3" class="edge">
<title>Node31&#45;&gt;Node33</title>
<path fill="none" stroke="#191970" d="M259.2508,-64.5C267.5908,-64.5 276.2302,-64.5 284.6362,-64.5"/>
<polygon fill="#191970" stroke="#191970" points="284.7382,-68.0001 294.7382,-64.5 284.7381,-61.0001 284.7382,-68.0001"/>
</g>
<!-- Node34 -->
<g id="node5" class="node">
<title>Node34</title>
<g id="a_node5"><a xlink:href="structnuspell_1_1_directory.html#a776a738fc5045a5feae77b0c227b4465" target="_top" xlink:title="nuspell::Directory\l::entry_name">
<polygon fill="#ffffff" stroke="#000000" points="295,-.5 295,-30.5 388,-30.5 388,-.5 295,-.5"/>
<text text-anchor="start" x="303" y="-18.5" font-family="Helvetica,sans-Serif" font-size="10.00" fill="#000000">nuspell::Directory</text>
<text text-anchor="middle" x="341.5" y="-7.5" font-family="Helvetica,sans-Serif" font-size="10.00" fill="#000000">::entry_name</text>
</a>
</g>
</g>
<!-- Node31&#45;&gt;Node34 -->
<g id="edge4" class="edge">
<title>Node31&#45;&gt;Node34</title>
<path fill="none" stroke="#191970" d="M247.4142,-49.3986C260.8578,-44.5549 275.9047,-39.1336 289.9545,-34.0715"/>
<polygon fill="#191970" stroke="#191970" points="291.2685,-37.3184 299.4901,-30.6359 288.8957,-30.7328 291.2685,-37.3184"/>
</g>
</g>
</svg>
