<?xml version="1.0" encoding="UTF-8" standalone="no"?>
<!DOCTYPE svg PUBLIC "-//W3C//DTD SVG 1.1//EN"
 "http://www.w3.org/Graphics/SVG/1.1/DTD/svg11.dtd">
<!-- Generated by graphviz version 2.40.1 (20161225.0304)
 -->
<!-- Title: nuspell::String_Set::begin Pages: 1 -->
<svg width="421pt" height="1328pt"
 viewBox="0.00 0.00 421.00 1327.50" xmlns="http://www.w3.org/2000/svg" xmlns:xlink="http://www.w3.org/1999/xlink">
<g id="graph0" class="graph" transform="scale(1 1) rotate(0) translate(4 1323.5)">
<title>nuspell::String_Set::begin</title>
<polygon fill="#ffffff" stroke="transparent" points="-4,4 -4,-1323.5 417,-1323.5 417,4 -4,4"/>
<!-- Node11 -->
<g id="node1" class="node">
<title>Node11</title>
<polygon fill="#bfbfbf" stroke="#000000" points="0,-644 0,-674 99,-674 99,-644 0,-644"/>
<text text-anchor="start" x="8" y="-662" font-family="Helvetica,sans-Serif" font-size="10.00" fill="#000000">nuspell::String_Set</text>
<text text-anchor="middle" x="49.5" y="-651" font-family="Helvetica,sans-Serif" font-size="10.00" fill="#000000">::begin</text>
</g>
<!-- Node12 -->
<g id="node2" class="node">
<title>Node12</title>
<g id="a_node2"><a xlink:href="classnuspell_1_1_string___set.html#a74f43aeb2697f0566de81567c6e94e11" target="_top" xlink:title="nuspell::String_Set\l\&lt; char16_t \&gt;::sort_uniq">
<polygon fill="#ffffff" stroke="#000000" points="144.5,-1289 144.5,-1319 262.5,-1319 262.5,-1289 144.5,-1289"/>
<text text-anchor="start" x="152.5" y="-1307" font-family="Helvetica,sans-Serif" font-size="10.00" fill="#000000">nuspell::String_Set</text>
<text text-anchor="middle" x="203.5" y="-1296" font-family="Helvetica,sans-Serif" font-size="10.00" fill="#000000">&lt; char16_t &gt;::sort_uniq</text>
</a>
</g>
</g>
<!-- Node11&#45;&gt;Node12 -->
<g id="edge1" class="edge">
<title>Node11&#45;&gt;Node12</title>
<path fill="none" stroke="#191970" d="M51.443,-684.4611C60.1145,-795.3794 96.5428,-1232.9564 135,-1280 137.7914,-1283.4146 141.0999,-1286.3442 144.732,-1288.8575"/>
<polygon fill="#191970" stroke="#191970" points="54.9115,-683.9176 50.6489,-674.2181 47.9324,-684.4588 54.9115,-683.9176"/>
</g>
<!-- Node13 -->
<g id="node3" class="node">
<title>Node13</title>
<g id="a_node3"><a xlink:href="classnuspell_1_1_string___set.html#ab1f37692d007cd4991d39892bd92f8f9" target="_top" xlink:title="nuspell::String_Set\l\&lt; char16_t \&gt;::insert">
<polygon fill="#ffffff" stroke="#000000" points="152.5,-1240 152.5,-1270 254.5,-1270 254.5,-1240 152.5,-1240"/>
<text text-anchor="start" x="160.5" y="-1258" font-family="Helvetica,sans-Serif" font-size="10.00" fill="#000000">nuspell::String_Set</text>
<text text-anchor="middle" x="203.5" y="-1247" font-family="Helvetica,sans-Serif" font-size="10.00" fill="#000000">&lt; char16_t &gt;::insert</text>
</a>
</g>
</g>
<!-- Node11&#45;&gt;Node13 -->
<g id="edge2" class="edge">
<title>Node11&#45;&gt;Node13</title>
<path fill="none" stroke="#191970" d="M49.9128,-684.3493C52.027,-783.7687 64.5185,-1145.7915 135,-1231 139.6584,-1236.6317 145.7221,-1240.9435 152.3152,-1244.2444"/>
<polygon fill="#191970" stroke="#191970" points="53.4065,-683.9853 49.7119,-674.0555 46.4078,-684.122 53.4065,-683.9853"/>
</g>
<!-- Node14 -->
<g id="node4" class="node">
<title>Node14</title>
<g id="a_node4"><a xlink:href="classnuspell_1_1_string___set.html#a37d21f20fe6b33cf9e98c7b70d76f24f" target="_top" xlink:title="nuspell::String_Set\l\&lt; char16_t \&gt;::find">
<polygon fill="#ffffff" stroke="#000000" points="154,-1191 154,-1221 253,-1221 253,-1191 154,-1191"/>
<text text-anchor="start" x="162" y="-1209" font-family="Helvetica,sans-Serif" font-size="10.00" fill="#000000">nuspell::String_Set</text>
<text text-anchor="middle" x="203.5" y="-1198" font-family="Helvetica,sans-Serif" font-size="10.00" fill="#000000">&lt; char16_t &gt;::find</text>
</a>
</g>
</g>
<!-- Node11&#45;&gt;Node14 -->
<g id="edge3" class="edge">
<title>Node11&#45;&gt;Node14</title>
<path fill="none" stroke="#191970" d="M50.3029,-684.2758C53.7732,-778.0995 70.3734,-1104.9481 135,-1182 140.0207,-1187.9859 146.6273,-1192.4802 153.7572,-1195.8541"/>
<polygon fill="#191970" stroke="#191970" points="53.7917,-683.8923 49.9425,-674.0214 46.796,-684.1383 53.7917,-683.8923"/>
</g>
<!-- Node15 -->
<g id="node5" class="node">
<title>Node15</title>
<g id="a_node5"><a xlink:href="classnuspell_1_1_string___set.html#ac42caccbd9ed0fd43844544e4a6dc0e4" target="_top" xlink:title="nuspell::String_Set\l\&lt; char16_t \&gt;::lower_bound">
<polygon fill="#ffffff" stroke="#000000" points="137,-1142 137,-1172 270,-1172 270,-1142 137,-1142"/>
<text text-anchor="start" x="145" y="-1160" font-family="Helvetica,sans-Serif" font-size="10.00" fill="#000000">nuspell::String_Set</text>
<text text-anchor="middle" x="203.5" y="-1149" font-family="Helvetica,sans-Serif" font-size="10.00" fill="#000000">&lt; char16_t &gt;::lower_bound</text>
</a>
</g>
</g>
<!-- Node11&#45;&gt;Node15 -->
<g id="edge4" class="edge">
<title>Node11&#45;&gt;Node15</title>
<path fill="none" stroke="#191970" d="M50.7676,-684.1715C55.6798,-772.1141 76.2008,-1064.0531 135,-1133 137.9437,-1136.4517 141.414,-1139.4072 145.2047,-1141.9378"/>
<polygon fill="#191970" stroke="#191970" points="54.2548,-683.8375 50.2212,-674.0405 47.2649,-684.2146 54.2548,-683.8375"/>
</g>
<!-- Node16 -->
<g id="node6" class="node">
<title>Node16</title>
<g id="a_node6"><a xlink:href="classnuspell_1_1_string___set.html#a787f62831f35de5f2347c68912205565" target="_top" xlink:title="nuspell::String_Set\l\&lt; char16_t \&gt;::upper_bound">
<polygon fill="#ffffff" stroke="#000000" points="136.5,-1093 136.5,-1123 270.5,-1123 270.5,-1093 136.5,-1093"/>
<text text-anchor="start" x="144.5" y="-1111" font-family="Helvetica,sans-Serif" font-size="10.00" fill="#000000">nuspell::String_Set</text>
<text text-anchor="middle" x="203.5" y="-1100" font-family="Helvetica,sans-Serif" font-size="10.00" fill="#000000">&lt; char16_t &gt;::upper_bound</text>
</a>
</g>
</g>
<!-- Node11&#45;&gt;Node16 -->
<g id="edge5" class="edge">
<title>Node11&#45;&gt;Node16</title>
<path fill="none" stroke="#191970" d="M51.3656,-684.4794C57.8705,-766.7067 82.093,-1023.2083 135,-1084 137.9781,-1087.422 141.4733,-1090.3561 145.2811,-1092.872"/>
<polygon fill="#191970" stroke="#191970" points="54.8378,-683.9827 50.5798,-674.2811 47.8585,-684.5205 54.8378,-683.9827"/>
</g>
<!-- Node17 -->
<g id="node7" class="node">
<title>Node17</title>
<g id="a_node7"><a xlink:href="classnuspell_1_1_string___set.html#a4e8fd052284151b5e18c71906c450611" target="_top" xlink:title="nuspell::String_Set\l\&lt; char16_t \&gt;::equal_range">
<polygon fill="#ffffff" stroke="#000000" points="138,-1044 138,-1074 269,-1074 269,-1044 138,-1044"/>
<text text-anchor="start" x="146" y="-1062" font-family="Helvetica,sans-Serif" font-size="10.00" fill="#000000">nuspell::String_Set</text>
<text text-anchor="middle" x="203.5" y="-1051" font-family="Helvetica,sans-Serif" font-size="10.00" fill="#000000">&lt; char16_t &gt;::equal_range</text>
</a>
</g>
</g>
<!-- Node11&#45;&gt;Node17 -->
<g id="edge6" class="edge">
<title>Node11&#45;&gt;Node17</title>
<path fill="none" stroke="#191970" d="M52.1084,-684.152C60.3825,-759.4279 88.284,-981.0052 135,-1034 138.4323,-1037.8936 142.5222,-1041.1813 146.9711,-1043.9573"/>
<polygon fill="#191970" stroke="#191970" points="55.5814,-683.7122 51.0302,-674.1448 48.6217,-684.4622 55.5814,-683.7122"/>
</g>
<!-- Node18 -->
<g id="node8" class="node">
<title>Node18</title>
<g id="a_node8"><a xlink:href="classnuspell_1_1_break___table.html#ac59fb06ac79f9e7afe714e5692207b75" target="_top" xlink:title="nuspell::Break_Table\l\&lt; char \&gt;::start_word\l_breaks">
<polygon fill="#ffffff" stroke="#000000" points="149.5,-983.5 149.5,-1024.5 257.5,-1024.5 257.5,-983.5 149.5,-983.5"/>
<text text-anchor="start" x="157.5" y="-1012.5" font-family="Helvetica,sans-Serif" font-size="10.00" fill="#000000">nuspell::Break_Table</text>
<text text-anchor="start" x="157.5" y="-1001.5" font-family="Helvetica,sans-Serif" font-size="10.00" fill="#000000">&lt; char &gt;::start_word</text>
<text text-anchor="middle" x="203.5" y="-990.5" font-family="Helvetica,sans-Serif" font-size="10.00" fill="#000000">_breaks</text>
</a>
</g>
</g>
<!-- Node11&#45;&gt;Node18 -->
<g id="edge7" class="edge">
<title>Node11&#45;&gt;Node18</title>
<path fill="none" stroke="#191970" d="M53.4924,-684.3432C64.4443,-751.08 96.7067,-929.5855 135,-974 139.0693,-978.7198 144.0208,-982.7243 149.3806,-986.1159"/>
<polygon fill="#191970" stroke="#191970" points="56.9164,-683.5916 51.8641,-674.279 50.0063,-684.7097 56.9164,-683.5916"/>
</g>
<!-- Node19 -->
<g id="node9" class="node">
<title>Node19</title>
<g id="a_node9"><a xlink:href="classnuspell_1_1_break___table.html#ab68ee072ef4ea33d077472efab864469" target="_top" xlink:title="nuspell::Break_Table\l\&lt; char \&gt;::end_word_breaks">
<polygon fill="#ffffff" stroke="#000000" points="135.5,-934 135.5,-964 271.5,-964 271.5,-934 135.5,-934"/>
<text text-anchor="start" x="143.5" y="-952" font-family="Helvetica,sans-Serif" font-size="10.00" fill="#000000">nuspell::Break_Table</text>
<text text-anchor="middle" x="203.5" y="-941" font-family="Helvetica,sans-Serif" font-size="10.00" fill="#000000">&lt; char &gt;::end_word_breaks</text>
</a>
</g>
</g>
<!-- Node11&#45;&gt;Node19 -->
<g id="edge8" class="edge">
<title>Node11&#45;&gt;Node19</title>
<path fill="none" stroke="#191970" d="M54.7118,-684.3497C67.3449,-743.5909 101.067,-888.7579 135,-924 138.6879,-927.8302 143.0095,-931.0765 147.6576,-933.8274"/>
<polygon fill="#191970" stroke="#191970" points="58.0883,-683.3982 52.6031,-674.3338 51.2385,-684.8404 58.0883,-683.3982"/>
</g>
<!-- Node20 -->
<g id="node10" class="node">
<title>Node20</title>
<g id="a_node10"><a xlink:href="classnuspell_1_1_break___table.html#abd26400df7f332bfca238da79d542b25" target="_top" xlink:title="nuspell::Break_Table\l\&lt; char \&gt;::middle_word\l_breaks">
<polygon fill="#ffffff" stroke="#000000" points="146.5,-873.5 146.5,-914.5 260.5,-914.5 260.5,-873.5 146.5,-873.5"/>
<text text-anchor="start" x="154.5" y="-902.5" font-family="Helvetica,sans-Serif" font-size="10.00" fill="#000000">nuspell::Break_Table</text>
<text text-anchor="start" x="154.5" y="-891.5" font-family="Helvetica,sans-Serif" font-size="10.00" fill="#000000">&lt; char &gt;::middle_word</text>
<text text-anchor="middle" x="203.5" y="-880.5" font-family="Helvetica,sans-Serif" font-size="10.00" fill="#000000">_breaks</text>
</a>
</g>
</g>
<!-- Node11&#45;&gt;Node20 -->
<g id="edge9" class="edge">
<title>Node11&#45;&gt;Node20</title>
<path fill="none" stroke="#191970" d="M53.7441,-684.3006C62.0869,-726.6999 84.4072,-812.506 135,-864 138.4576,-867.5192 142.398,-870.6546 146.6017,-873.4427"/>
<polygon fill="#191970" stroke="#191970" points="57.147,-683.4555 51.8737,-674.2662 50.2655,-684.7383 57.147,-683.4555"/>
</g>
<!-- Node21 -->
<g id="node11" class="node">
<title>Node21</title>
<g id="a_node11"><a xlink:href="classnuspell_1_1_hash___multiset.html#ad3a00cea7680614167e392c7c6df5c90" target="_top" xlink:title="nuspell::Hash_Multiset\l\&lt; string \&gt;::equal_range\l_nonconst_unsafe">
<polygon fill="#ffffff" stroke="#000000" points="145,-813.5 145,-854.5 262,-854.5 262,-813.5 145,-813.5"/>
<text text-anchor="start" x="153" y="-842.5" font-family="Helvetica,sans-Serif" font-size="10.00" fill="#000000">nuspell::Hash_Multiset</text>
<text text-anchor="start" x="153" y="-831.5" font-family="Helvetica,sans-Serif" font-size="10.00" fill="#000000">&lt; string &gt;::equal_range</text>
<text text-anchor="middle" x="203.5" y="-820.5" font-family="Helvetica,sans-Serif" font-size="10.00" fill="#000000">_nonconst_unsafe</text>
</a>
</g>
</g>
<!-- Node11&#45;&gt;Node21 -->
<g id="edge10" class="edge">
<title>Node11&#45;&gt;Node21</title>
<path fill="none" stroke="#191970" d="M58.453,-683.6334C71.0818,-715.3055 96.9192,-770.2346 135,-804 138.8857,-807.4453 143.2294,-810.5464 147.7933,-813.3267"/>
<polygon fill="#191970" stroke="#191970" points="61.6864,-682.2907 54.8181,-674.2237 55.1567,-684.8132 61.6864,-682.2907"/>
</g>
<!-- Node22 -->
<g id="node12" class="node">
<title>Node22</title>
<g id="a_node12"><a xlink:href="classnuspell_1_1_hash___multiset.html#a615f7b3ae53f0cef400668746d8be501" target="_top" xlink:title="nuspell::Hash_Multiset\l\&lt; string \&gt;::equal_range">
<polygon fill="#ffffff" stroke="#000000" points="145,-764 145,-794 262,-794 262,-764 145,-764"/>
<text text-anchor="start" x="153" y="-782" font-family="Helvetica,sans-Serif" font-size="10.00" fill="#000000">nuspell::Hash_Multiset</text>
<text text-anchor="middle" x="203.5" y="-771" font-family="Helvetica,sans-Serif" font-size="10.00" fill="#000000">&lt; string &gt;::equal_range</text>
</a>
</g>
</g>
<!-- Node11&#45;&gt;Node22 -->
<g id="edge11" class="edge">
<title>Node11&#45;&gt;Node22</title>
<path fill="none" stroke="#191970" d="M65.4444,-682.4725C80.9809,-703.7608 106.3932,-734.6816 135,-754 140.5604,-757.755 146.7546,-761.0268 153.0816,-763.8544"/>
<polygon fill="#191970" stroke="#191970" points="68.2573,-680.3887 59.6026,-674.2775 62.5573,-684.452 68.2573,-680.3887"/>
</g>
<!-- Node23 -->
<g id="node13" class="node">
<title>Node23</title>
<g id="a_node13"><a xlink:href="structnuspell_1_1sv__hash.html#ab76772bf628157212781d7ac2e95f3d8" target="_top" xlink:title="nuspell::sv_hash::operator()">
<polygon fill="#ffffff" stroke="#000000" points="135,-725.5 135,-744.5 272,-744.5 272,-725.5 135,-725.5"/>
<text text-anchor="middle" x="203.5" y="-732.5" font-family="Helvetica,sans-Serif" font-size="10.00" fill="#000000">nuspell::sv_hash::operator()</text>
</a>
</g>
</g>
<!-- Node11&#45;&gt;Node23 -->
<g id="edge12" class="edge">
<title>Node11&#45;&gt;Node23</title>
<path fill="none" stroke="#191970" d="M79.701,-679.5062C95.6889,-689.8049 115.9172,-701.9763 135,-711 146.7335,-716.5484 160.114,-721.5172 171.9168,-725.4746"/>
<polygon fill="#191970" stroke="#191970" points="81.575,-676.5498 71.2892,-674.0093 77.7457,-682.4096 81.575,-676.5498"/>
</g>
<!-- Node24 -->
<g id="node14" class="node">
<title>Node24</title>
<g id="a_node14"><a xlink:href="classnuspell_1_1_list___strings.html#a42c76cd55f1873495d3b154d1ae2e3e9" target="_top" xlink:title="nuspell::List_Strings\l::operator=">
<polygon fill="#ffffff" stroke="#000000" points="308,-681 308,-711 413,-711 413,-681 308,-681"/>
<text text-anchor="start" x="316" y="-699" font-family="Helvetica,sans-Serif" font-size="10.00" fill="#000000">nuspell::List_Strings</text>
<text text-anchor="middle" x="360.5" y="-688" font-family="Helvetica,sans-Serif" font-size="10.00" fill="#000000">::operator=</text>
</a>
</g>
</g>
<!-- Node11&#45;&gt;Node24 -->
<g id="edge13" class="edge">
<title>Node11&#45;&gt;Node24</title>
<path fill="none" stroke="#191970" d="M109.1627,-666.0981C166.6961,-672.9429 252.9207,-683.2012 307.9362,-689.7464"/>
<polygon fill="#191970" stroke="#191970" points="109.4662,-662.6096 99.1228,-664.9037 108.6392,-669.5606 109.4662,-662.6096"/>
</g>
<!-- Node25 -->
<g id="node15" class="node">
<title>Node25</title>
<g id="a_node15"><a xlink:href="classnuspell_1_1_list___strings.html#ab7b785b7377c62fd31cf1292c0dbd3ee" target="_top" xlink:title="nuspell::List_Strings\l::assign">
<polygon fill="#ffffff" stroke="#000000" points="151,-486 151,-516 256,-516 256,-486 151,-486"/>
<text text-anchor="start" x="159" y="-504" font-family="Helvetica,sans-Serif" font-size="10.00" fill="#000000">nuspell::List_Strings</text>
<text text-anchor="middle" x="203.5" y="-493" font-family="Helvetica,sans-Serif" font-size="10.00" fill="#000000">::assign</text>
</a>
</g>
</g>
<!-- Node11&#45;&gt;Node25 -->
<g id="edge14" class="edge">
<title>Node11&#45;&gt;Node25</title>
<path fill="none" stroke="#191970" d="M60.401,-634.7807C74.1872,-606.5328 100.3664,-560.0145 135,-531 142.0659,-525.0805 150.4815,-520.1368 158.9545,-516.0831"/>
<polygon fill="#191970" stroke="#191970" points="57.1741,-633.4169 56.0479,-643.9517 63.4979,-636.4185 57.1741,-633.4169"/>
</g>
<!-- Node26 -->
<g id="node16" class="node">
<title>Node26</title>
<g id="a_node16"><a xlink:href="classnuspell_1_1_list___strings.html#a084c5de71215f0b5c7924b0396ae2575" target="_top" xlink:title="nuspell::List_Strings::end">
<polygon fill="#ffffff" stroke="#000000" points="140,-611.5 140,-630.5 267,-630.5 267,-611.5 140,-611.5"/>
<text text-anchor="middle" x="203.5" y="-618.5" font-family="Helvetica,sans-Serif" font-size="10.00" fill="#000000">nuspell::List_Strings::end</text>
</a>
</g>
</g>
<!-- Node11&#45;&gt;Node26 -->
<g id="edge15" class="edge">
<title>Node11&#45;&gt;Node26</title>
<path fill="none" stroke="#191970" d="M108.9955,-644.3193C127.7092,-639.7016 147.8795,-634.7245 164.7605,-630.5591"/>
<polygon fill="#191970" stroke="#191970" points="107.9445,-640.9736 99.0743,-646.7674 109.6216,-647.7697 107.9445,-640.9736"/>
</g>
<!-- Node27 -->
<g id="node17" class="node">
<title>Node27</title>
<g id="a_node17"><a xlink:href="classnuspell_1_1_list___strings.html#a5380856ecf4f33f865893951049454a7" target="_top" xlink:title="nuspell::List_Strings\l::operator==">
<polygon fill="#ffffff" stroke="#000000" points="308,-632 308,-662 413,-662 413,-632 308,-632"/>
<text text-anchor="start" x="316" y="-650" font-family="Helvetica,sans-Serif" font-size="10.00" fill="#000000">nuspell::List_Strings</text>
<text text-anchor="middle" x="360.5" y="-639" font-family="Helvetica,sans-Serif" font-size="10.00" fill="#000000">::operator==</text>
</a>
</g>
</g>
<!-- Node11&#45;&gt;Node27 -->
<g id="edge25" class="edge">
<title>Node11&#45;&gt;Node27</title>
<path fill="none" stroke="#191970" d="M109.1627,-656.6979C166.6961,-654.478 252.9207,-651.151 307.9362,-649.0282"/>
<polygon fill="#191970" stroke="#191970" points="108.9803,-653.2022 99.1228,-657.0853 109.2503,-660.197 108.9803,-653.2022"/>
</g>
<!-- Node28 -->
<g id="node18" class="node">
<title>Node28</title>
<g id="a_node18"><a xlink:href="classnuspell_1_1_list___strings.html#a99b603000b99d86d8367d0e7cf88f9ba" target="_top" xlink:title="nuspell::List_Strings\l::operator\&lt;">
<polygon fill="#ffffff" stroke="#000000" points="308,-582 308,-612 413,-612 413,-582 308,-582"/>
<text text-anchor="start" x="316" y="-600" font-family="Helvetica,sans-Serif" font-size="10.00" fill="#000000">nuspell::List_Strings</text>
<text text-anchor="middle" x="360.5" y="-589" font-family="Helvetica,sans-Serif" font-size="10.00" fill="#000000">::operator&lt;</text>
</a>
</g>
</g>
<!-- Node11&#45;&gt;Node28 -->
<g id="edge26" class="edge">
<title>Node11&#45;&gt;Node28</title>
<path fill="none" stroke="#191970" d="M73.8209,-637.3066C89.943,-624.3918 112.2502,-609.1643 135,-602 191.9597,-584.0624 261.0787,-585.7214 307.6575,-589.995"/>
<polygon fill="#191970" stroke="#191970" points="71.4552,-634.7213 65.9843,-643.7944 75.9191,-640.1133 71.4552,-634.7213"/>
</g>
<!-- Node29 -->
<g id="node19" class="node">
<title>Node29</title>
<g id="a_node19"><a xlink:href="classnuspell_1_1_list___strings.html#a9d8367f81cb8b33cafe18f14918ff8c8" target="_top" xlink:title="nuspell::List_Strings\l::operator\&gt;">
<polygon fill="#ffffff" stroke="#000000" points="308,-532 308,-562 413,-562 413,-532 308,-532"/>
<text text-anchor="start" x="316" y="-550" font-family="Helvetica,sans-Serif" font-size="10.00" fill="#000000">nuspell::List_Strings</text>
<text text-anchor="middle" x="360.5" y="-539" font-family="Helvetica,sans-Serif" font-size="10.00" fill="#000000">::operator&gt;</text>
</a>
</g>
</g>
<!-- Node11&#45;&gt;Node29 -->
<g id="edge27" class="edge">
<title>Node11&#45;&gt;Node29</title>
<path fill="none" stroke="#191970" d="M68.6729,-636.3747C84.6069,-619.1492 108.8352,-596.3611 135,-584 190.2416,-557.9021 260.624,-549.8138 307.9403,-547.5115"/>
<polygon fill="#191970" stroke="#191970" points="66.0433,-634.0645 61.9584,-643.8402 71.2479,-638.7455 66.0433,-634.0645"/>
</g>
<!-- Node30 -->
<g id="node20" class="node">
<title>Node30</title>
<g id="a_node20"><a xlink:href="classnuspell_1_1_list___strings.html#acef2cf657114c0f4bdbfaef0217724ed" target="_top" xlink:title="nuspell::List_Strings\l::resize">
<polygon fill="#ffffff" stroke="#000000" points="151,-437 151,-467 256,-467 256,-437 151,-437"/>
<text text-anchor="start" x="159" y="-455" font-family="Helvetica,sans-Serif" font-size="10.00" fill="#000000">nuspell::List_Strings</text>
<text text-anchor="middle" x="203.5" y="-444" font-family="Helvetica,sans-Serif" font-size="10.00" fill="#000000">::resize</text>
</a>
</g>
</g>
<!-- Node11&#45;&gt;Node30 -->
<g id="edge20" class="edge">
<title>Node11&#45;&gt;Node30</title>
<path fill="none" stroke="#191970" d="M54.6716,-633.8132C63.9839,-594.662 87.2208,-519.2219 135,-476 139.6724,-471.7732 145.1328,-468.282 150.895,-465.4003"/>
<polygon fill="#191970" stroke="#191970" points="51.1969,-633.311 52.4055,-643.8367 58.0246,-634.8546 51.1969,-633.311"/>
</g>
<!-- Node31 -->
<g id="node21" class="node">
<title>Node31</title>
<g id="a_node21"><a xlink:href="classnuspell_1_1_list___strings.html#a158091bb755401675f255ab7d2b0fb36" target="_top" xlink:title="nuspell::List_Strings\l::insert_priv">
<polygon fill="#ffffff" stroke="#000000" points="151,-388 151,-418 256,-418 256,-388 151,-388"/>
<text text-anchor="start" x="159" y="-406" font-family="Helvetica,sans-Serif" font-size="10.00" fill="#000000">nuspell::List_Strings</text>
<text text-anchor="middle" x="203.5" y="-395" font-family="Helvetica,sans-Serif" font-size="10.00" fill="#000000">::insert_priv</text>
</a>
</g>
</g>
<!-- Node11&#45;&gt;Node31 -->
<g id="edge21" class="edge">
<title>Node11&#45;&gt;Node31</title>
<path fill="none" stroke="#191970" d="M51.8,-633.96C57.4355,-586.9383 76.1004,-484.9595 135,-427 139.5807,-422.4924 145.0549,-418.8283 150.8848,-415.8505"/>
<polygon fill="#191970" stroke="#191970" points="48.321,-633.5785 50.7074,-643.9011 55.2791,-634.3433 48.321,-633.5785"/>
</g>
<!-- Node32 -->
<g id="node22" class="node">
<title>Node32</title>
<g id="a_node22"><a xlink:href="classnuspell_1_1_list___strings.html#a1facc292e578aff678244f26fce29759" target="_top" xlink:title="nuspell::List_Strings\l::emplace">
<polygon fill="#ffffff" stroke="#000000" points="151,-339 151,-369 256,-369 256,-339 151,-339"/>
<text text-anchor="start" x="159" y="-357" font-family="Helvetica,sans-Serif" font-size="10.00" fill="#000000">nuspell::List_Strings</text>
<text text-anchor="middle" x="203.5" y="-346" font-family="Helvetica,sans-Serif" font-size="10.00" fill="#000000">::emplace</text>
</a>
</g>
</g>
<!-- Node11&#45;&gt;Node32 -->
<g id="edge22" class="edge">
<title>Node11&#45;&gt;Node32</title>
<path fill="none" stroke="#191970" d="M54.1519,-633.7899C66.003,-572.0503 98.9529,-415.5798 135,-378 139.536,-373.2712 145.0555,-369.4732 150.9718,-366.423"/>
<polygon fill="#191970" stroke="#191970" points="50.6706,-633.3634 52.2493,-643.8399 57.5484,-634.6655 50.6706,-633.3634"/>
</g>
<!-- Node33 -->
<g id="node23" class="node">
<title>Node33</title>
<g id="a_node23"><a xlink:href="classnuspell_1_1_list___strings.html#a907352ec91886e80c264d6747b52f6fb" target="_top" xlink:title="nuspell::List_Strings\l::insert">
<polygon fill="#ffffff" stroke="#000000" points="151,-290 151,-320 256,-320 256,-290 151,-290"/>
<text text-anchor="start" x="159" y="-308" font-family="Helvetica,sans-Serif" font-size="10.00" fill="#000000">nuspell::List_Strings</text>
<text text-anchor="middle" x="203.5" y="-297" font-family="Helvetica,sans-Serif" font-size="10.00" fill="#000000">::insert</text>
</a>
</g>
</g>
<!-- Node11&#45;&gt;Node33 -->
<g id="edge23" class="edge">
<title>Node11&#45;&gt;Node33</title>
<path fill="none" stroke="#191970" d="M52.9451,-633.677C62.8275,-564.4842 93.2604,-374.3782 135,-329 139.436,-324.1773 144.8962,-320.3236 150.7814,-317.2442"/>
<polygon fill="#191970" stroke="#191970" points="49.4619,-633.3135 51.5369,-643.7032 56.3939,-634.2872 49.4619,-633.3135"/>
</g>
<!-- Node34 -->
<g id="node24" class="node">
<title>Node34</title>
<g id="a_node24"><a xlink:href="classnuspell_1_1_list___strings.html#a54da064267bc6007e06e8f96b5b307e3" target="_top" xlink:title="nuspell::List_Strings\l::erase">
<polygon fill="#ffffff" stroke="#000000" points="151,-241 151,-271 256,-271 256,-241 151,-241"/>
<text text-anchor="start" x="159" y="-259" font-family="Helvetica,sans-Serif" font-size="10.00" fill="#000000">nuspell::List_Strings</text>
<text text-anchor="middle" x="203.5" y="-248" font-family="Helvetica,sans-Serif" font-size="10.00" fill="#000000">::erase</text>
</a>
</g>
</g>
<!-- Node11&#45;&gt;Node34 -->
<g id="edge24" class="edge">
<title>Node11&#45;&gt;Node34</title>
<path fill="none" stroke="#191970" d="M52.04,-633.5544C60.1194,-557.4038 87.5257,-333.2801 135,-280 139.443,-275.0136 144.9824,-271.0633 150.9737,-267.9336"/>
<polygon fill="#191970" stroke="#191970" points="48.5404,-633.37 50.9881,-643.6782 55.5029,-634.0934 48.5404,-633.37"/>
</g>
<!-- Node35 -->
<g id="node25" class="node">
<title>Node35</title>
<g id="a_node25"><a xlink:href="classnuspell_1_1_replacement___table.html#a70eedbe7c89359ecaeb102e80e669550" target="_top" xlink:title="nuspell::Replacement\l_Table\&lt; char \&gt;::whole\l_word_replacements">
<polygon fill="#ffffff" stroke="#000000" points="146.5,-180.5 146.5,-221.5 260.5,-221.5 260.5,-180.5 146.5,-180.5"/>
<text text-anchor="start" x="154.5" y="-209.5" font-family="Helvetica,sans-Serif" font-size="10.00" fill="#000000">nuspell::Replacement</text>
<text text-anchor="start" x="154.5" y="-198.5" font-family="Helvetica,sans-Serif" font-size="10.00" fill="#000000">_Table&lt; char &gt;::whole</text>
<text text-anchor="middle" x="203.5" y="-187.5" font-family="Helvetica,sans-Serif" font-size="10.00" fill="#000000">_word_replacements</text>
</a>
</g>
</g>
<!-- Node11&#45;&gt;Node35 -->
<g id="edge28" class="edge">
<title>Node11&#45;&gt;Node35</title>
<path fill="none" stroke="#191970" d="M51.5292,-633.5004C58.5377,-551.1842 84.134,-294.2129 135,-231 138.2557,-226.9541 142.1663,-223.4401 146.4477,-220.3906"/>
<polygon fill="#191970" stroke="#191970" points="48.0211,-633.4529 50.6799,-643.7087 54.997,-634.0333 48.0211,-633.4529"/>
</g>
<!-- Node36 -->
<g id="node26" class="node">
<title>Node36</title>
<g id="a_node26"><a xlink:href="classnuspell_1_1_replacement___table.html#ab27fccc10bf7f5d3df7e756e9121e5b4" target="_top" xlink:title="nuspell::Replacement\l_Table\&lt; char \&gt;::start\l_word_replacements">
<polygon fill="#ffffff" stroke="#000000" points="148,-120.5 148,-161.5 259,-161.5 259,-120.5 148,-120.5"/>
<text text-anchor="start" x="156" y="-149.5" font-family="Helvetica,sans-Serif" font-size="10.00" fill="#000000">nuspell::Replacement</text>
<text text-anchor="start" x="156" y="-138.5" font-family="Helvetica,sans-Serif" font-size="10.00" fill="#000000">_Table&lt; char &gt;::start</text>
<text text-anchor="middle" x="203.5" y="-127.5" font-family="Helvetica,sans-Serif" font-size="10.00" fill="#000000">_word_replacements</text>
</a>
</g>
</g>
<!-- Node11&#45;&gt;Node36 -->
<g id="edge29" class="edge">
<title>Node11&#45;&gt;Node36</title>
<path fill="none" stroke="#191970" d="M50.8387,-633.5232C56.014,-543.8664 77.3735,-244.3799 135,-171 138.6084,-166.4052 143.0648,-162.4988 147.9595,-159.1808"/>
<polygon fill="#191970" stroke="#191970" points="47.3383,-633.4351 50.2741,-643.615 54.3273,-633.8261 47.3383,-633.4351"/>
</g>
<!-- Node37 -->
<g id="node27" class="node">
<title>Node37</title>
<g id="a_node27"><a xlink:href="classnuspell_1_1_replacement___table.html#a12c50f4771aac7ce67f944ce684c891b" target="_top" xlink:title="nuspell::Replacement\l_Table\&lt; char \&gt;::end_word\l_replacements">
<polygon fill="#ffffff" stroke="#000000" points="138,-60.5 138,-101.5 269,-101.5 269,-60.5 138,-60.5"/>
<text text-anchor="start" x="146" y="-89.5" font-family="Helvetica,sans-Serif" font-size="10.00" fill="#000000">nuspell::Replacement</text>
<text text-anchor="start" x="146" y="-78.5" font-family="Helvetica,sans-Serif" font-size="10.00" fill="#000000">_Table&lt; char &gt;::end_word</text>
<text text-anchor="middle" x="203.5" y="-67.5" font-family="Helvetica,sans-Serif" font-size="10.00" fill="#000000">_replacements</text>
</a>
</g>
</g>
<!-- Node11&#45;&gt;Node37 -->
<g id="edge30" class="edge">
<title>Node11&#45;&gt;Node37</title>
<path fill="none" stroke="#191970" d="M50.2943,-633.6205C53.7808,-537.1736 70.5628,-194.6484 135,-111 137.6938,-107.5031 140.8803,-104.4059 144.3812,-101.6638"/>
<polygon fill="#191970" stroke="#191970" points="46.7871,-633.7733 49.9406,-643.8879 53.7829,-634.0144 46.7871,-633.7733"/>
</g>
<!-- Node38 -->
<g id="node28" class="node">
<title>Node38</title>
<g id="a_node28"><a xlink:href="classnuspell_1_1_replacement___table.html#aee979a9cae9bd0b871a3f0a044657a61" target="_top" xlink:title="nuspell::Replacement\l_Table\&lt; char \&gt;::any_place\l_replacements">
<polygon fill="#ffffff" stroke="#000000" points="137,-.5 137,-41.5 270,-41.5 270,-.5 137,-.5"/>
<text text-anchor="start" x="145" y="-29.5" font-family="Helvetica,sans-Serif" font-size="10.00" fill="#000000">nuspell::Replacement</text>
<text text-anchor="start" x="145" y="-18.5" font-family="Helvetica,sans-Serif" font-size="10.00" fill="#000000">_Table&lt; char &gt;::any_place</text>
<text text-anchor="middle" x="203.5" y="-7.5" font-family="Helvetica,sans-Serif" font-size="10.00" fill="#000000">_replacements</text>
</a>
</g>
</g>
<!-- Node11&#45;&gt;Node38 -->
<g id="edge31" class="edge">
<title>Node11&#45;&gt;Node38</title>
<path fill="none" stroke="#191970" d="M49.8549,-633.8792C51.772,-531.2814 63.6855,-145.0327 135,-51 137.6674,-47.4829 140.8345,-44.3708 144.3216,-41.6183"/>
<polygon fill="#191970" stroke="#191970" points="46.3545,-633.8783 49.6828,-643.9367 53.3535,-633.9981 46.3545,-633.8783"/>
</g>
<!-- Node26&#45;&gt;Node24 -->
<g id="edge16" class="edge">
<title>Node26&#45;&gt;Node24</title>
<path fill="none" stroke="#191970" d="M231.6957,-634.9996C252.6733,-645.357 282.0412,-659.7345 308,-672 314.1616,-674.9114 320.7541,-677.9694 327.1139,-680.8908"/>
<polygon fill="#191970" stroke="#191970" points="233.2054,-631.8417 222.6901,-630.5457 230.1021,-638.1162 233.2054,-631.8417"/>
</g>
<!-- Node26&#45;&gt;Node27 -->
<g id="edge17" class="edge">
<title>Node26&#45;&gt;Node27</title>
<path fill="none" stroke="#191970" d="M271.2577,-632.221C283.5184,-634.2515 296.1354,-636.3409 307.8818,-638.2862"/>
<polygon fill="#191970" stroke="#191970" points="271.507,-628.7147 261.0695,-630.5338 270.3633,-635.6207 271.507,-628.7147"/>
</g>
<!-- Node26&#45;&gt;Node28 -->
<g id="edge18" class="edge">
<title>Node26&#45;&gt;Node28</title>
<path fill="none" stroke="#191970" d="M276.1629,-609.8923C286.8345,-608.261 297.6508,-606.6075 307.817,-605.0535"/>
<polygon fill="#191970" stroke="#191970" points="275.3579,-606.4746 266.0017,-611.4456 276.4158,-613.3942 275.3579,-606.4746"/>
</g>
<!-- Node26&#45;&gt;Node29 -->
<g id="edge19" class="edge">
<title>Node26&#45;&gt;Node29</title>
<path fill="none" stroke="#191970" d="M233.0816,-607.0571C260.2608,-594.2465 300.4485,-575.3045 328.3973,-562.1312"/>
<polygon fill="#191970" stroke="#191970" points="231.2569,-604.0478 223.7036,-611.4773 234.2414,-610.3797 231.2569,-604.0478"/>
</g>
</g>
</svg>
