<?xml version="1.0" encoding="UTF-8" standalone="no"?>
<!DOCTYPE svg PUBLIC "-//W3C//DTD SVG 1.1//EN"
 "http://www.w3.org/Graphics/SVG/1.1/DTD/svg11.dtd">
<!-- Generated by graphviz version 2.40.1 (20161225.0304)
 -->
<!-- Title: nuspell::String_Set::data Pages: 1 -->
<svg width="269pt" height="39pt"
 viewBox="0.00 0.00 269.00 39.00" xmlns="http://www.w3.org/2000/svg" xmlns:xlink="http://www.w3.org/1999/xlink">
<g id="graph0" class="graph" transform="scale(1 1) rotate(0) translate(4 35)">
<title>nuspell::String_Set::data</title>
<polygon fill="#ffffff" stroke="transparent" points="-4,4 -4,-35 265,-35 265,4 -4,4"/>
<!-- Node46 -->
<g id="node1" class="node">
<title>Node46</title>
<polygon fill="#bfbfbf" stroke="#000000" points="0,-.5 0,-30.5 99,-30.5 99,-.5 0,-.5"/>
<text text-anchor="start" x="8" y="-18.5" font-family="Helvetica,sans-Serif" font-size="10.00" fill="#000000">nuspell::String_Set</text>
<text text-anchor="middle" x="49.5" y="-7.5" font-family="Helvetica,sans-Serif" font-size="10.00" fill="#000000">::data</text>
</g>
<!-- Node47 -->
<g id="node2" class="node">
<title>Node47</title>
<g id="a_node2"><a xlink:href="classnuspell_1_1_compound___rule___table.html#afbc40d12841906d173777c77fa1357a1" target="_top" xlink:title="nuspell::Compound_Rule\l_Table::empty">
<polygon fill="#ffffff" stroke="#000000" points="135,-.5 135,-30.5 261,-30.5 261,-.5 135,-.5"/>
<text text-anchor="start" x="143" y="-18.5" font-family="Helvetica,sans-Serif" font-size="10.00" fill="#000000">nuspell::Compound_Rule</text>
<text text-anchor="middle" x="198" y="-7.5" font-family="Helvetica,sans-Serif" font-size="10.00" fill="#000000">_Table::empty</text>
</a>
</g>
</g>
<!-- Node46&#45;&gt;Node47 -->
<g id="edge1" class="edge">
<title>Node46&#45;&gt;Node47</title>
<path fill="none" stroke="#191970" d="M109.411,-15.5C117.7772,-15.5 126.3958,-15.5 134.8199,-15.5"/>
<polygon fill="#191970" stroke="#191970" points="109.3615,-12.0001 99.3615,-15.5 109.3614,-19.0001 109.3615,-12.0001"/>
</g>
</g>
</svg>
