<?xml version="1.0" encoding="UTF-8" standalone="no"?>
<!DOCTYPE svg PUBLIC "-//W3C//DTD SVG 1.1//EN"
 "http://www.w3.org/Graphics/SVG/1.1/DTD/svg11.dtd">
<!-- Generated by graphviz version 2.40.1 (20161225.0304)
 -->
<!-- Title: My_Dictionary::parse_personal_dict Pages: 1 -->
<svg width="419pt" height="116pt"
 viewBox="0.00 0.00 419.00 115.50" xmlns="http://www.w3.org/2000/svg" xmlns:xlink="http://www.w3.org/1999/xlink">
<g id="graph0" class="graph" transform="scale(1 1) rotate(0) translate(4 111.5)">
<title>My_Dictionary::parse_personal_dict</title>
<polygon fill="#ffffff" stroke="transparent" points="-4,4 -4,-111.5 415,-111.5 415,4 -4,4"/>
<!-- Node4 -->
<g id="node1" class="node">
<title>Node4</title>
<polygon fill="#bfbfbf" stroke="#000000" points="0,-44.5 0,-74.5 110,-74.5 110,-44.5 0,-44.5"/>
<text text-anchor="start" x="8" y="-62.5" font-family="Helvetica,sans-Serif" font-size="10.00" fill="#000000">My_Dictionary::parse</text>
<text text-anchor="middle" x="55" y="-51.5" font-family="Helvetica,sans-Serif" font-size="10.00" fill="#000000">_personal_dict</text>
</g>
<!-- Node5 -->
<g id="node2" class="node">
<title>Node5</title>
<g id="a_node2"><a xlink:href="namespacenuspell.html#a79258aeb32a39ce719a014950b33e5d6" target="_top" xlink:title="nuspell::utf8_to_wide">
<polygon fill="#ffffff" stroke="#000000" points="149.5,-88 149.5,-107 258.5,-107 258.5,-88 149.5,-88"/>
<text text-anchor="middle" x="204" y="-95" font-family="Helvetica,sans-Serif" font-size="10.00" fill="#000000">nuspell::utf8_to_wide</text>
</a>
</g>
</g>
<!-- Node4&#45;&gt;Node5 -->
<g id="edge1" class="edge">
<title>Node4&#45;&gt;Node5</title>
<path fill="none" stroke="#191970" d="M110.0588,-73.5418C125.2812,-77.4241 141.6679,-81.6032 156.4259,-85.367"/>
<polygon fill="#191970" stroke="#191970" points="155.7936,-88.8177 166.3484,-87.8976 157.5235,-82.0348 155.7936,-88.8177"/>
</g>
<!-- Node7 -->
<g id="node4" class="node">
<title>Node7</title>
<g id="a_node4"><a xlink:href="namespacenuspell.html#a9bf8e1a3f71282ed001fcf4f224ef9dd" target="_top" xlink:title="nuspell::to_narrow">
<polygon fill="#ffffff" stroke="#000000" points="156,-50 156,-69 252,-69 252,-50 156,-50"/>
<text text-anchor="middle" x="204" y="-57" font-family="Helvetica,sans-Serif" font-size="10.00" fill="#000000">nuspell::to_narrow</text>
</a>
</g>
</g>
<!-- Node4&#45;&gt;Node7 -->
<g id="edge3" class="edge">
<title>Node4&#45;&gt;Node7</title>
<path fill="none" stroke="#191970" d="M110.0588,-59.5C121.5999,-59.5 133.8104,-59.5 145.4728,-59.5"/>
<polygon fill="#191970" stroke="#191970" points="145.55,-63.0001 155.55,-59.5 145.5499,-56.0001 145.55,-63.0001"/>
</g>
<!-- Node8 -->
<g id="node5" class="node">
<title>Node8</title>
<g id="a_node5"><a xlink:href="classnuspell_1_1_hash___multiset.html#aad3b03ada05b0c7d540c83545e81ee23" target="_top" xlink:title="nuspell::Hash_Multiset\l::insert">
<polygon fill="#ffffff" stroke="#000000" points="146,-.5 146,-30.5 262,-30.5 262,-.5 146,-.5"/>
<text text-anchor="start" x="154" y="-18.5" font-family="Helvetica,sans-Serif" font-size="10.00" fill="#000000">nuspell::Hash_Multiset</text>
<text text-anchor="middle" x="204" y="-7.5" font-family="Helvetica,sans-Serif" font-size="10.00" fill="#000000">::insert</text>
</a>
</g>
</g>
<!-- Node4&#45;&gt;Node8 -->
<g id="edge4" class="edge">
<title>Node4&#45;&gt;Node8</title>
<path fill="none" stroke="#191970" d="M105.8606,-44.4808C117.9011,-40.9252 130.8606,-37.0982 143.2895,-33.4279"/>
<polygon fill="#191970" stroke="#191970" points="144.5165,-36.7151 153.1158,-30.5262 142.534,-30.0017 144.5165,-36.7151"/>
</g>
<!-- Node6 -->
<g id="node3" class="node">
<title>Node6</title>
<g id="a_node3"><a xlink:href="namespacenuspell.html#aae8baee1ca83bf5a5e0d07a4e8fdbf81" target="_top" xlink:title="nuspell::utf_to_utf_my">
<polygon fill="#ffffff" stroke="#000000" points="298,-88 298,-107 411,-107 411,-88 298,-88"/>
<text text-anchor="middle" x="354.5" y="-95" font-family="Helvetica,sans-Serif" font-size="10.00" fill="#000000">nuspell::utf_to_utf_my</text>
</a>
</g>
</g>
<!-- Node5&#45;&gt;Node6 -->
<g id="edge2" class="edge">
<title>Node5&#45;&gt;Node6</title>
<path fill="none" stroke="#191970" d="M258.7597,-97.5C268.1788,-97.5 278.0615,-97.5 287.7536,-97.5"/>
<polygon fill="#191970" stroke="#191970" points="287.7574,-101.0001 297.7574,-97.5 287.7574,-94.0001 287.7574,-101.0001"/>
</g>
</g>
</svg>
