<?xml version="1.0" encoding="UTF-8" standalone="no"?>
<!DOCTYPE svg PUBLIC "-//W3C//DTD SVG 1.1//EN"
 "http://www.w3.org/Graphics/SVG/1.1/DTD/svg11.dtd">
<!-- Generated by graphviz version 2.40.1 (20161225.0304)
 -->
<!-- Title: nuspell::String_Set::cbegin Pages: 1 -->
<svg width="248pt" height="235pt"
 viewBox="0.00 0.00 248.00 235.00" xmlns="http://www.w3.org/2000/svg" xmlns:xlink="http://www.w3.org/1999/xlink">
<g id="graph0" class="graph" transform="scale(1 1) rotate(0) translate(4 231)">
<title>nuspell::String_Set::cbegin</title>
<polygon fill="#ffffff" stroke="transparent" points="-4,4 -4,-231 244,-231 244,4 -4,4"/>
<!-- Node42 -->
<g id="node1" class="node">
<title>Node42</title>
<polygon fill="#bfbfbf" stroke="#000000" points="0,-98.5 0,-128.5 99,-128.5 99,-98.5 0,-98.5"/>
<text text-anchor="start" x="8" y="-116.5" font-family="Helvetica,sans-Serif" font-size="10.00" fill="#000000">nuspell::String_Set</text>
<text text-anchor="middle" x="49.5" y="-105.5" font-family="Helvetica,sans-Serif" font-size="10.00" fill="#000000">::cbegin</text>
</g>
<!-- Node43 -->
<g id="node2" class="node">
<title>Node43</title>
<g id="a_node2"><a xlink:href="classnuspell_1_1_list___strings.html#a228b6fe8ad79541576041d43f7a8e2b2" target="_top" xlink:title="nuspell::List_Strings\l::cend">
<polygon fill="#ffffff" stroke="#000000" points="135,-196.5 135,-226.5 240,-226.5 240,-196.5 135,-196.5"/>
<text text-anchor="start" x="143" y="-214.5" font-family="Helvetica,sans-Serif" font-size="10.00" fill="#000000">nuspell::List_Strings</text>
<text text-anchor="middle" x="187.5" y="-203.5" font-family="Helvetica,sans-Serif" font-size="10.00" fill="#000000">::cend</text>
</a>
</g>
</g>
<!-- Node42&#45;&gt;Node43 -->
<g id="edge1" class="edge">
<title>Node42&#45;&gt;Node43</title>
<path fill="none" stroke="#191970" d="M71.6835,-135.8453C88.1613,-151.6268 111.7228,-172.5439 135,-187.5 139.9745,-190.6962 145.4447,-193.694 150.9178,-196.415"/>
<polygon fill="#191970" stroke="#191970" points="73.8036,-133.0247 64.1958,-128.5592 68.9219,-138.0416 73.8036,-133.0247"/>
</g>
<!-- Node44 -->
<g id="node3" class="node">
<title>Node44</title>
<g id="a_node3"><a xlink:href="classnuspell_1_1_list___strings.html#a158091bb755401675f255ab7d2b0fb36" target="_top" xlink:title="nuspell::List_Strings\l::insert_priv">
<polygon fill="#ffffff" stroke="#000000" points="135,-147.5 135,-177.5 240,-177.5 240,-147.5 135,-147.5"/>
<text text-anchor="start" x="143" y="-165.5" font-family="Helvetica,sans-Serif" font-size="10.00" fill="#000000">nuspell::List_Strings</text>
<text text-anchor="middle" x="187.5" y="-154.5" font-family="Helvetica,sans-Serif" font-size="10.00" fill="#000000">::insert_priv</text>
</a>
</g>
</g>
<!-- Node42&#45;&gt;Node44 -->
<g id="edge2" class="edge">
<title>Node42&#45;&gt;Node44</title>
<path fill="none" stroke="#191970" d="M101.702,-132.0355C115.9537,-137.0959 131.2233,-142.5177 144.8723,-147.3641"/>
<polygon fill="#191970" stroke="#191970" points="102.6253,-128.6493 92.0306,-128.6014 100.283,-135.2458 102.6253,-128.6493"/>
</g>
<!-- Node45 -->
<g id="node4" class="node">
<title>Node45</title>
<g id="a_node4"><a xlink:href="classnuspell_1_1_list___strings.html#a1facc292e578aff678244f26fce29759" target="_top" xlink:title="nuspell::List_Strings\l::emplace">
<polygon fill="#ffffff" stroke="#000000" points="135,-98.5 135,-128.5 240,-128.5 240,-98.5 135,-98.5"/>
<text text-anchor="start" x="143" y="-116.5" font-family="Helvetica,sans-Serif" font-size="10.00" fill="#000000">nuspell::List_Strings</text>
<text text-anchor="middle" x="187.5" y="-105.5" font-family="Helvetica,sans-Serif" font-size="10.00" fill="#000000">::emplace</text>
</a>
</g>
</g>
<!-- Node42&#45;&gt;Node45 -->
<g id="edge3" class="edge">
<title>Node42&#45;&gt;Node45</title>
<path fill="none" stroke="#191970" d="M109.5249,-113.5C117.9935,-113.5 126.6455,-113.5 134.9591,-113.5"/>
<polygon fill="#191970" stroke="#191970" points="109.3212,-110.0001 99.3212,-113.5 109.3211,-117.0001 109.3212,-110.0001"/>
</g>
<!-- Node46 -->
<g id="node5" class="node">
<title>Node46</title>
<g id="a_node5"><a xlink:href="classnuspell_1_1_list___strings.html#a907352ec91886e80c264d6747b52f6fb" target="_top" xlink:title="nuspell::List_Strings\l::insert">
<polygon fill="#ffffff" stroke="#000000" points="135,-49.5 135,-79.5 240,-79.5 240,-49.5 135,-49.5"/>
<text text-anchor="start" x="143" y="-67.5" font-family="Helvetica,sans-Serif" font-size="10.00" fill="#000000">nuspell::List_Strings</text>
<text text-anchor="middle" x="187.5" y="-56.5" font-family="Helvetica,sans-Serif" font-size="10.00" fill="#000000">::insert</text>
</a>
</g>
</g>
<!-- Node42&#45;&gt;Node46 -->
<g id="edge4" class="edge">
<title>Node42&#45;&gt;Node46</title>
<path fill="none" stroke="#191970" d="M101.702,-94.9645C115.9537,-89.9041 131.2233,-84.4823 144.8723,-79.6359"/>
<polygon fill="#191970" stroke="#191970" points="100.283,-91.7542 92.0306,-98.3986 102.6253,-98.3507 100.283,-91.7542"/>
</g>
<!-- Node47 -->
<g id="node6" class="node">
<title>Node47</title>
<g id="a_node6"><a xlink:href="classnuspell_1_1_list___strings.html#a54da064267bc6007e06e8f96b5b307e3" target="_top" xlink:title="nuspell::List_Strings\l::erase">
<polygon fill="#ffffff" stroke="#000000" points="135,-.5 135,-30.5 240,-30.5 240,-.5 135,-.5"/>
<text text-anchor="start" x="143" y="-18.5" font-family="Helvetica,sans-Serif" font-size="10.00" fill="#000000">nuspell::List_Strings</text>
<text text-anchor="middle" x="187.5" y="-7.5" font-family="Helvetica,sans-Serif" font-size="10.00" fill="#000000">::erase</text>
</a>
</g>
</g>
<!-- Node42&#45;&gt;Node47 -->
<g id="edge5" class="edge">
<title>Node42&#45;&gt;Node47</title>
<path fill="none" stroke="#191970" d="M72.1085,-91.3051C88.6293,-75.834 112.0643,-55.3816 135,-40.5 140.5047,-36.9283 146.5986,-33.5587 152.6277,-30.5188"/>
<polygon fill="#191970" stroke="#191970" points="69.424,-89.0278 64.5862,-98.4536 74.2461,-94.102 69.424,-89.0278"/>
</g>
</g>
</svg>
