<?xml version="1.0" encoding="UTF-8" standalone="no"?>
<!DOCTYPE svg PUBLIC "-//W3C//DTD SVG 1.1//EN"
 "http://www.w3.org/Graphics/SVG/1.1/DTD/svg11.dtd">
<!-- Generated by graphviz version 2.40.1 (20161225.0304)
 -->
<!-- Title: nuspell::Hash_Multiset::equal_range Pages: 1 -->
<svg width="281pt" height="176pt"
 viewBox="0.00 0.00 281.00 176.00" xmlns="http://www.w3.org/2000/svg" xmlns:xlink="http://www.w3.org/1999/xlink">
<g id="graph0" class="graph" transform="scale(1 1) rotate(0) translate(4 172)">
<title>nuspell::Hash_Multiset::equal_range</title>
<polygon fill="#ffffff" stroke="transparent" points="-4,4 -4,-172 277,-172 277,4 -4,4"/>
<!-- Node8 -->
<g id="node1" class="node">
<title>Node8</title>
<polygon fill="#bfbfbf" stroke="#000000" points="0,-71.5 0,-101.5 116,-101.5 116,-71.5 0,-71.5"/>
<text text-anchor="start" x="8" y="-89.5" font-family="Helvetica,sans-Serif" font-size="10.00" fill="#000000">nuspell::Hash_Multiset</text>
<text text-anchor="middle" x="58" y="-78.5" font-family="Helvetica,sans-Serif" font-size="10.00" fill="#000000">::equal_range</text>
</g>
<!-- Node9 -->
<g id="node2" class="node">
<title>Node9</title>
<g id="a_node2"><a xlink:href="classnuspell_1_1_string___set.html#a18bc20de4ed5671de253d5ffa25bde27" target="_top" xlink:title="nuspell::String_Set\l::begin">
<polygon fill="#ffffff" stroke="#000000" points="163,-137.5 163,-167.5 262,-167.5 262,-137.5 163,-137.5"/>
<text text-anchor="start" x="171" y="-155.5" font-family="Helvetica,sans-Serif" font-size="10.00" fill="#000000">nuspell::String_Set</text>
<text text-anchor="middle" x="212.5" y="-144.5" font-family="Helvetica,sans-Serif" font-size="10.00" fill="#000000">::begin</text>
</a>
</g>
</g>
<!-- Node8&#45;&gt;Node9 -->
<g id="edge1" class="edge">
<title>Node8&#45;&gt;Node9</title>
<path fill="none" stroke="#191970" d="M92.3085,-101.655C110.0863,-109.4594 132.1707,-119.0795 152,-127.5 156.6534,-129.4761 161.5164,-131.5203 166.3756,-133.5492"/>
<polygon fill="#191970" stroke="#191970" points="165.0821,-136.8018 175.6595,-137.4104 167.7702,-130.3385 165.0821,-136.8018"/>
</g>
<!-- Node10 -->
<g id="node3" class="node">
<title>Node10</title>
<g id="a_node3"><a xlink:href="classnuspell_1_1_string___set.html#a1ac519529575a85ad75d6ddebde856ef" target="_top" xlink:title="nuspell::String_Set::end">
<polygon fill="#ffffff" stroke="#000000" points="152,-99 152,-118 273,-118 273,-99 152,-99"/>
<text text-anchor="middle" x="212.5" y="-106" font-family="Helvetica,sans-Serif" font-size="10.00" fill="#000000">nuspell::String_Set::end</text>
</a>
</g>
</g>
<!-- Node8&#45;&gt;Node10 -->
<g id="edge2" class="edge">
<title>Node8&#45;&gt;Node10</title>
<path fill="none" stroke="#191970" d="M116.4098,-94.8173C124.7628,-96.0067 133.4288,-97.2407 141.9838,-98.4589"/>
<polygon fill="#191970" stroke="#191970" points="141.5566,-101.9333 151.9502,-99.878 142.5435,-95.0032 141.5566,-101.9333"/>
</g>
<!-- Node11 -->
<g id="node4" class="node">
<title>Node11</title>
<g id="a_node4"><a xlink:href="classnuspell_1_1_string___set.html#a7f8872faa8c23278b86d274f78e4cb3a" target="_top" xlink:title="nuspell::String_Set\l::rbegin">
<polygon fill="#ffffff" stroke="#000000" points="163,-49.5 163,-79.5 262,-79.5 262,-49.5 163,-49.5"/>
<text text-anchor="start" x="171" y="-67.5" font-family="Helvetica,sans-Serif" font-size="10.00" fill="#000000">nuspell::String_Set</text>
<text text-anchor="middle" x="212.5" y="-56.5" font-family="Helvetica,sans-Serif" font-size="10.00" fill="#000000">::rbegin</text>
</a>
</g>
</g>
<!-- Node8&#45;&gt;Node11 -->
<g id="edge3" class="edge">
<title>Node8&#45;&gt;Node11</title>
<path fill="none" stroke="#191970" d="M116.4098,-78.1827C128.1742,-76.5076 140.5595,-74.744 152.3811,-73.0606"/>
<polygon fill="#191970" stroke="#191970" points="153.1883,-76.4811 162.595,-71.6062 152.2014,-69.551 153.1883,-76.4811"/>
</g>
<!-- Node12 -->
<g id="node5" class="node">
<title>Node12</title>
<g id="a_node5"><a xlink:href="classnuspell_1_1_string___set.html#a09c06cd7c4693e87e444f9755e584c12" target="_top" xlink:title="nuspell::String_Set\l::rend">
<polygon fill="#ffffff" stroke="#000000" points="163,-.5 163,-30.5 262,-30.5 262,-.5 163,-.5"/>
<text text-anchor="start" x="171" y="-18.5" font-family="Helvetica,sans-Serif" font-size="10.00" fill="#000000">nuspell::String_Set</text>
<text text-anchor="middle" x="212.5" y="-7.5" font-family="Helvetica,sans-Serif" font-size="10.00" fill="#000000">::rend</text>
</a>
</g>
</g>
<!-- Node8&#45;&gt;Node12 -->
<g id="edge4" class="edge">
<title>Node8&#45;&gt;Node12</title>
<path fill="none" stroke="#191970" d="M87.8279,-71.3041C106.1955,-62.0968 130.3014,-50.2806 152,-40.5 156.3678,-38.5312 160.9377,-36.5329 165.5246,-34.5682"/>
<polygon fill="#191970" stroke="#191970" points="167.0568,-37.7204 174.9047,-30.6028 164.3311,-31.2729 167.0568,-37.7204"/>
</g>
</g>
</svg>
