<?xml version="1.0" encoding="UTF-8" standalone="no"?>
<!DOCTYPE svg PUBLIC "-//W3C//DTD SVG 1.1//EN"
 "http://www.w3.org/Graphics/SVG/1.1/DTD/svg11.dtd">
<!-- Generated by graphviz version 2.40.1 (20161225.0304)
 -->
<!-- Title: nuspell::Finder::add_libreoffice_dir_paths Pages: 1 -->
<svg width="417pt" height="116pt"
 viewBox="0.00 0.00 417.00 116.00" xmlns="http://www.w3.org/2000/svg" xmlns:xlink="http://www.w3.org/1999/xlink">
<g id="graph0" class="graph" transform="scale(1 1) rotate(0) translate(4 112)">
<title>nuspell::Finder::add_libreoffice_dir_paths</title>
<polygon fill="#ffffff" stroke="transparent" points="-4,4 -4,-112 413,-112 413,4 -4,4"/>
<!-- Node6 -->
<g id="node1" class="node">
<title>Node6</title>
<polygon fill="#bfbfbf" stroke="#000000" points="0,-39 0,-69 109,-69 109,-39 0,-39"/>
<text text-anchor="start" x="8" y="-57" font-family="Helvetica,sans-Serif" font-size="10.00" fill="#000000">nuspell::Finder::add</text>
<text text-anchor="middle" x="54.5" y="-46" font-family="Helvetica,sans-Serif" font-size="10.00" fill="#000000">_libreoffice_dir_paths</text>
</g>
<!-- Node7 -->
<g id="node2" class="node">
<title>Node7</title>
<g id="a_node2"><a xlink:href="namespacenuspell.html#a18da8631cb0b014f0f918cf444946921" target="_top" xlink:title="Gets the LibreOffice search paths. ">
<polygon fill="#ffffff" stroke="#000000" points="145,-39 145,-69 259,-69 259,-39 145,-39"/>
<text text-anchor="start" x="153" y="-57" font-family="Helvetica,sans-Serif" font-size="10.00" fill="#000000">nuspell::get_libreoffice</text>
<text text-anchor="middle" x="202" y="-46" font-family="Helvetica,sans-Serif" font-size="10.00" fill="#000000">_paths</text>
</a>
</g>
</g>
<!-- Node6&#45;&gt;Node7 -->
<g id="edge1" class="edge">
<title>Node6&#45;&gt;Node7</title>
<path fill="none" stroke="#191970" d="M109.0045,-54C117.3802,-54 126.1121,-54 134.7252,-54"/>
<polygon fill="#191970" stroke="#191970" points="134.7533,-57.5001 144.7533,-54 134.7533,-50.5001 134.7533,-57.5001"/>
</g>
<!-- Node8 -->
<g id="node3" class="node">
<title>Node8</title>
<g id="a_node3"><a xlink:href="namespacenuspell.html#a9404cbb74ae904c74db6776eb092e1b1" target="_top" xlink:title="nuspell::prefix">
<polygon fill="#ffffff" stroke="#000000" points="313.5,-88.5 313.5,-107.5 390.5,-107.5 390.5,-88.5 313.5,-88.5"/>
<text text-anchor="middle" x="352" y="-95.5" font-family="Helvetica,sans-Serif" font-size="10.00" fill="#000000">nuspell::prefix</text>
</a>
</g>
</g>
<!-- Node7&#45;&gt;Node8 -->
<g id="edge2" class="edge">
<title>Node7&#45;&gt;Node8</title>
<path fill="none" stroke="#191970" d="M253.202,-69.0192C271.5062,-74.3885 291.9202,-80.3766 309.4188,-85.5095"/>
<polygon fill="#191970" stroke="#191970" points="308.7659,-88.9654 319.3468,-88.4217 310.7362,-82.2484 308.7659,-88.9654"/>
</g>
<!-- Node9 -->
<g id="node4" class="node">
<title>Node9</title>
<g id="a_node4"><a xlink:href="structnuspell_1_1_globber.html#a895d65e899b6619740bee3ed56f7b3bd" target="_top" xlink:title="nuspell::Globber::copy\l_glob_paths">
<polygon fill="#ffffff" stroke="#000000" points="295,-39 295,-69 409,-69 409,-39 295,-39"/>
<text text-anchor="start" x="303" y="-57" font-family="Helvetica,sans-Serif" font-size="10.00" fill="#000000">nuspell::Globber::copy</text>
<text text-anchor="middle" x="352" y="-46" font-family="Helvetica,sans-Serif" font-size="10.00" fill="#000000">_glob_paths</text>
</a>
</g>
</g>
<!-- Node7&#45;&gt;Node9 -->
<g id="edge3" class="edge">
<title>Node7&#45;&gt;Node9</title>
<path fill="none" stroke="#191970" d="M259.1365,-54C267.3769,-54 275.9229,-54 284.3442,-54"/>
<polygon fill="#191970" stroke="#191970" points="284.5255,-57.5001 294.5255,-54 284.5255,-50.5001 284.5255,-57.5001"/>
</g>
<!-- Node10 -->
<g id="node5" class="node">
<title>Node10</title>
<g id="a_node5"><a xlink:href="structnuspell_1_1_globber.html#a6165004632cc6ce235e0c588800894fa" target="_top" xlink:title="nuspell::Globber::glob">
<polygon fill="#ffffff" stroke="#000000" points="296.5,-.5 296.5,-19.5 407.5,-19.5 407.5,-.5 296.5,-.5"/>
<text text-anchor="middle" x="352" y="-7.5" font-family="Helvetica,sans-Serif" font-size="10.00" fill="#000000">nuspell::Globber::glob</text>
</a>
</g>
</g>
<!-- Node7&#45;&gt;Node10 -->
<g id="edge4" class="edge">
<title>Node7&#45;&gt;Node10</title>
<path fill="none" stroke="#191970" d="M253.202,-38.9808C271.5062,-33.6115 291.9202,-27.6234 309.4188,-22.4905"/>
<polygon fill="#191970" stroke="#191970" points="310.7362,-25.7516 319.3468,-19.5783 308.7659,-19.0346 310.7362,-25.7516"/>
</g>
</g>
</svg>
