<?xml version="1.0" encoding="UTF-8" standalone="no"?>
<!DOCTYPE svg PUBLIC "-//W3C//DTD SVG 1.1//EN"
 "http://www.w3.org/Graphics/SVG/1.1/DTD/svg11.dtd">
<!-- Generated by graphviz version 2.40.1 (20161225.0304)
 -->
<!-- Title: nuspell::List_Strings::begin Pages: 1 -->
<svg width="254pt" height="186pt"
 viewBox="0.00 0.00 254.00 186.00" xmlns="http://www.w3.org/2000/svg" xmlns:xlink="http://www.w3.org/1999/xlink">
<g id="graph0" class="graph" transform="scale(1 1) rotate(0) translate(4 182)">
<title>nuspell::List_Strings::begin</title>
<polygon fill="#ffffff" stroke="transparent" points="-4,4 -4,-182 250,-182 250,4 -4,4"/>
<!-- Node35 -->
<g id="node1" class="node">
<title>Node35</title>
<polygon fill="#bfbfbf" stroke="#000000" points="0,-73.5 0,-103.5 105,-103.5 105,-73.5 0,-73.5"/>
<text text-anchor="start" x="8" y="-91.5" font-family="Helvetica,sans-Serif" font-size="10.00" fill="#000000">nuspell::List_Strings</text>
<text text-anchor="middle" x="52.5" y="-80.5" font-family="Helvetica,sans-Serif" font-size="10.00" fill="#000000">::begin</text>
</g>
<!-- Node36 -->
<g id="node2" class="node">
<title>Node36</title>
<g id="a_node2"><a xlink:href="classnuspell_1_1_list___strings.html#a42c76cd55f1873495d3b154d1ae2e3e9" target="_top" xlink:title="nuspell::List_Strings\l::operator=">
<polygon fill="#ffffff" stroke="#000000" points="141,-147.5 141,-177.5 246,-177.5 246,-147.5 141,-147.5"/>
<text text-anchor="start" x="149" y="-165.5" font-family="Helvetica,sans-Serif" font-size="10.00" fill="#000000">nuspell::List_Strings</text>
<text text-anchor="middle" x="193.5" y="-154.5" font-family="Helvetica,sans-Serif" font-size="10.00" fill="#000000">::operator=</text>
</a>
</g>
</g>
<!-- Node35&#45;&gt;Node36 -->
<g id="edge1" class="edge">
<title>Node35&#45;&gt;Node36</title>
<path fill="none" stroke="#191970" d="M86.4078,-108.5561C102.7324,-117.9794 122.6943,-129.1663 141,-138.5 146.8926,-141.5045 153.2364,-144.5551 159.407,-147.4282"/>
<polygon fill="#191970" stroke="#191970" points="88.1515,-105.5214 77.7464,-103.5253 84.6357,-111.5745 88.1515,-105.5214"/>
</g>
<!-- Node37 -->
<g id="node3" class="node">
<title>Node37</title>
<g id="a_node3"><a xlink:href="classnuspell_1_1_list___strings.html#a5380856ecf4f33f865893951049454a7" target="_top" xlink:title="nuspell::List_Strings\l::operator==">
<polygon fill="#ffffff" stroke="#000000" points="141,-98.5 141,-128.5 246,-128.5 246,-98.5 141,-98.5"/>
<text text-anchor="start" x="149" y="-116.5" font-family="Helvetica,sans-Serif" font-size="10.00" fill="#000000">nuspell::List_Strings</text>
<text text-anchor="middle" x="193.5" y="-105.5" font-family="Helvetica,sans-Serif" font-size="10.00" fill="#000000">::operator==</text>
</a>
</g>
</g>
<!-- Node35&#45;&gt;Node37 -->
<g id="edge2" class="edge">
<title>Node35&#45;&gt;Node37</title>
<path fill="none" stroke="#191970" d="M115.0504,-99.5905C123.6995,-101.124 132.5102,-102.6862 140.953,-104.1831"/>
<polygon fill="#191970" stroke="#191970" points="115.4607,-96.1087 105.0032,-97.8091 114.2386,-103.0012 115.4607,-96.1087"/>
</g>
<!-- Node38 -->
<g id="node4" class="node">
<title>Node38</title>
<g id="a_node4"><a xlink:href="classnuspell_1_1_list___strings.html#a99b603000b99d86d8367d0e7cf88f9ba" target="_top" xlink:title="nuspell::List_Strings\l::operator\&lt;">
<polygon fill="#ffffff" stroke="#000000" points="141,-49.5 141,-79.5 246,-79.5 246,-49.5 141,-49.5"/>
<text text-anchor="start" x="149" y="-67.5" font-family="Helvetica,sans-Serif" font-size="10.00" fill="#000000">nuspell::List_Strings</text>
<text text-anchor="middle" x="193.5" y="-56.5" font-family="Helvetica,sans-Serif" font-size="10.00" fill="#000000">::operator&lt;</text>
</a>
</g>
</g>
<!-- Node35&#45;&gt;Node38 -->
<g id="edge3" class="edge">
<title>Node35&#45;&gt;Node38</title>
<path fill="none" stroke="#191970" d="M115.0504,-77.8531C123.6995,-76.3809 132.5102,-74.8812 140.953,-73.4442"/>
<polygon fill="#191970" stroke="#191970" points="114.2741,-74.4348 105.0032,-79.5633 115.4487,-81.3356 114.2741,-74.4348"/>
</g>
<!-- Node39 -->
<g id="node5" class="node">
<title>Node39</title>
<g id="a_node5"><a xlink:href="classnuspell_1_1_list___strings.html#a9d8367f81cb8b33cafe18f14918ff8c8" target="_top" xlink:title="nuspell::List_Strings\l::operator\&gt;">
<polygon fill="#ffffff" stroke="#000000" points="141,-.5 141,-30.5 246,-30.5 246,-.5 141,-.5"/>
<text text-anchor="start" x="149" y="-18.5" font-family="Helvetica,sans-Serif" font-size="10.00" fill="#000000">nuspell::List_Strings</text>
<text text-anchor="middle" x="193.5" y="-7.5" font-family="Helvetica,sans-Serif" font-size="10.00" fill="#000000">::operator&gt;</text>
</a>
</g>
</g>
<!-- Node35&#45;&gt;Node39 -->
<g id="edge4" class="edge">
<title>Node35&#45;&gt;Node39</title>
<path fill="none" stroke="#191970" d="M88.4354,-68.4543C104.4267,-59.6781 123.55,-49.3793 141,-40.5 147.4781,-37.2037 154.4652,-33.784 161.1624,-30.5711"/>
<polygon fill="#191970" stroke="#191970" points="86.4872,-65.5316 79.4182,-73.4234 89.8657,-71.6623 86.4872,-65.5316"/>
</g>
</g>
</svg>
