<?xml version="1.0" encoding="UTF-8" standalone="no"?>
<!DOCTYPE svg PUBLIC "-//W3C//DTD SVG 1.1//EN"
 "http://www.w3.org/Graphics/SVG/1.1/DTD/svg11.dtd">
<!-- Generated by graphviz version 2.40.1 (20161225.0304)
 -->
<!-- Title: nuspell::Basic_Dictionary::suggest Pages: 1 -->
<svg width="315pt" height="39pt"
 viewBox="0.00 0.00 315.00 39.00" xmlns="http://www.w3.org/2000/svg" xmlns:xlink="http://www.w3.org/1999/xlink">
<g id="graph0" class="graph" transform="scale(1 1) rotate(0) translate(4 35)">
<title>nuspell::Basic_Dictionary::suggest</title>
<polygon fill="#ffffff" stroke="transparent" points="-4,4 -4,-35 311,-35 311,4 -4,4"/>
<!-- Node37 -->
<g id="node1" class="node">
<title>Node37</title>
<polygon fill="#bfbfbf" stroke="#000000" points="0,-.5 0,-30.5 128,-30.5 128,-.5 0,-.5"/>
<text text-anchor="start" x="8" y="-18.5" font-family="Helvetica,sans-Serif" font-size="10.00" fill="#000000">nuspell::Basic_Dictionary</text>
<text text-anchor="middle" x="64" y="-7.5" font-family="Helvetica,sans-Serif" font-size="10.00" fill="#000000">::suggest</text>
</g>
<!-- Node38 -->
<g id="node2" class="node">
<title>Node38</title>
<g id="a_node2"><a xlink:href="main_8cxx.html#a4a642b8579e49cab4ef7293d66f1f5d5" target="_top" xlink:title="Normal loop, tokenize and check spelling. ">
<polygon fill="#ffffff" stroke="#000000" points="164,-6 164,-25 233,-25 233,-6 164,-6"/>
<text text-anchor="middle" x="198.5" y="-13" font-family="Helvetica,sans-Serif" font-size="10.00" fill="#000000">normal_loop</text>
</a>
</g>
</g>
<!-- Node37&#45;&gt;Node38 -->
<g id="edge1" class="edge">
<title>Node37&#45;&gt;Node38</title>
<path fill="none" stroke="#191970" d="M138.1979,-15.5C147.111,-15.5 155.8596,-15.5 163.8083,-15.5"/>
<polygon fill="#191970" stroke="#191970" points="138.0987,-12.0001 128.0987,-15.5 138.0986,-19.0001 138.0987,-12.0001"/>
</g>
<!-- Node39 -->
<g id="node3" class="node">
<title>Node39</title>
<g id="a_node3"><a xlink:href="main_8cxx.html#a0ddf1224851353fc92bfbff6f499fa97" target="_top" xlink:title="main">
<polygon fill="#ffffff" stroke="#000000" points="269,-6 269,-25 307,-25 307,-6 269,-6"/>
<text text-anchor="middle" x="288" y="-13" font-family="Helvetica,sans-Serif" font-size="10.00" fill="#000000">main</text>
</a>
</g>
</g>
<!-- Node38&#45;&gt;Node39 -->
<g id="edge2" class="edge">
<title>Node38&#45;&gt;Node39</title>
<path fill="none" stroke="#191970" d="M243.2688,-15.5C252.3428,-15.5 261.4158,-15.5 268.9954,-15.5"/>
<polygon fill="#191970" stroke="#191970" points="243.1031,-12.0001 233.103,-15.5 243.103,-19.0001 243.1031,-12.0001"/>
</g>
</g>
</svg>
