<?xml version="1.0" encoding="UTF-8" standalone="no"?>
<!DOCTYPE svg PUBLIC "-//W3C//DTD SVG 1.1//EN"
 "http://www.w3.org/Graphics/SVG/1.1/DTD/svg11.dtd">
<!-- Generated by graphviz version 2.40.1 (20161225.0304)
 -->
<!-- Title: nuspell::v3::Suffix&lt; CharT &gt; Pages: 1 -->
<svg width="105pt" height="117pt"
 viewBox="0.00 0.00 104.50 117.00" xmlns="http://www.w3.org/2000/svg" xmlns:xlink="http://www.w3.org/1999/xlink">
<g id="graph0" class="graph" transform="scale(1 1) rotate(0) translate(4 113)">
<title>nuspell::v3::Suffix&lt; CharT &gt;</title>
<polygon fill="#ffffff" stroke="transparent" points="-4,4 -4,-113 100.5,-113 100.5,4 -4,4"/>
<!-- Node1 -->
<g id="node1" class="node">
<title>Node1</title>
<polygon fill="#bfbfbf" stroke="#000000" points="0,-.5 0,-30.5 95,-30.5 95,-.5 0,-.5"/>
<text text-anchor="start" x="8" y="-18.5" font-family="Helvetica,sans-Serif" font-size="10.00" fill="#000000">nuspell::v3::Suffix</text>
<text text-anchor="middle" x="47.5" y="-7.5" font-family="Helvetica,sans-Serif" font-size="10.00" fill="#000000">&lt; CharT &gt;</text>
</g>
<!-- Node2 -->
<g id="node2" class="node">
<title>Node2</title>
<g id="a_node2"><a xlink:href="classnuspell_1_1v3_1_1_string___set.html" target="_top" xlink:title="nuspell::v3::String\l_Set\&lt; char16_t \&gt;">
<polygon fill="#ffffff" stroke="#000000" points="0,-78.5 0,-108.5 95,-108.5 95,-78.5 0,-78.5"/>
<text text-anchor="start" x="8" y="-96.5" font-family="Helvetica,sans-Serif" font-size="10.00" fill="#000000">nuspell::v3::String</text>
<text text-anchor="middle" x="47.5" y="-85.5" font-family="Helvetica,sans-Serif" font-size="10.00" fill="#000000">_Set&lt; char16_t &gt;</text>
</a>
</g>
</g>
<!-- Node2&#45;&gt;Node1 -->
<g id="edge1" class="edge">
<title>Node2&#45;&gt;Node1</title>
<path fill="none" stroke="#9a32cd" stroke-dasharray="5,2" d="M47.5,-68.2875C47.5,-55.9187 47.5,-41.4264 47.5,-30.7592"/>
<polygon fill="#9a32cd" stroke="#9a32cd" points="44.0001,-68.4608 47.5,-78.4608 51.0001,-68.4608 44.0001,-68.4608"/>
<text text-anchor="middle" x="72" y="-52" font-family="Helvetica,sans-Serif" font-size="10.00" fill="#000000"> cont_flags</text>
</g>
</g>
</svg>
