<?xml version="1.0" encoding="UTF-8" standalone="no"?>
<!DOCTYPE svg PUBLIC "-//W3C//DTD SVG 1.1//EN"
 "http://www.w3.org/Graphics/SVG/1.1/DTD/svg11.dtd">
<!-- Generated by graphviz version 2.40.1 (20161225.0304)
 -->
<!-- Title: nuspell::Basic_Dictionary::spell Pages: 1 -->
<svg width="430pt" height="104pt"
 viewBox="0.00 0.00 430.00 104.00" xmlns="http://www.w3.org/2000/svg" xmlns:xlink="http://www.w3.org/1999/xlink">
<g id="graph0" class="graph" transform="scale(1 1) rotate(0) translate(4 100)">
<title>nuspell::Basic_Dictionary::spell</title>
<polygon fill="#ffffff" stroke="transparent" points="-4,4 -4,-100 426,-100 426,4 -4,4"/>
<!-- Node7 -->
<g id="node1" class="node">
<title>Node7</title>
<polygon fill="#bfbfbf" stroke="#000000" points="0,-33 0,-63 128,-63 128,-33 0,-33"/>
<text text-anchor="start" x="8" y="-51" font-family="Helvetica,sans-Serif" font-size="10.00" fill="#000000">nuspell::Basic_Dictionary</text>
<text text-anchor="middle" x="64" y="-40" font-family="Helvetica,sans-Serif" font-size="10.00" fill="#000000">::spell</text>
</g>
<!-- Node8 -->
<g id="node2" class="node">
<title>Node8</title>
<g id="a_node2"><a xlink:href="namespacenuspell.html#a79258aeb32a39ce719a014950b33e5d6" target="_top" xlink:title="nuspell::utf8_to_wide">
<polygon fill="#ffffff" stroke="#000000" points="164,-76.5 164,-95.5 273,-95.5 273,-76.5 164,-76.5"/>
<text text-anchor="middle" x="218.5" y="-83.5" font-family="Helvetica,sans-Serif" font-size="10.00" fill="#000000">nuspell::utf8_to_wide</text>
</a>
</g>
</g>
<!-- Node7&#45;&gt;Node8 -->
<g id="edge1" class="edge">
<title>Node7&#45;&gt;Node8</title>
<path fill="none" stroke="#191970" d="M125.0625,-63.0186C139.8587,-66.6578 155.4845,-70.501 169.6345,-73.9813"/>
<polygon fill="#191970" stroke="#191970" points="169.0975,-77.4535 179.644,-76.4432 170.7694,-70.656 169.0975,-77.4535"/>
</g>
<!-- Node10 -->
<g id="node4" class="node">
<title>Node10</title>
<g id="a_node4"><a xlink:href="namespacenuspell.html#a7aade2ec1cb243eb5b3714007d59d63c" target="_top" xlink:title="nuspell::to_wide">
<polygon fill="#ffffff" stroke="#000000" points="175,-38.5 175,-57.5 262,-57.5 262,-38.5 175,-38.5"/>
<text text-anchor="middle" x="218.5" y="-45.5" font-family="Helvetica,sans-Serif" font-size="10.00" fill="#000000">nuspell::to_wide</text>
</a>
</g>
</g>
<!-- Node7&#45;&gt;Node10 -->
<g id="edge3" class="edge">
<title>Node7&#45;&gt;Node10</title>
<path fill="none" stroke="#191970" d="M128.1797,-48C140.3632,-48 152.9935,-48 164.8104,-48"/>
<polygon fill="#191970" stroke="#191970" points="164.9539,-51.5001 174.9539,-48 164.9538,-44.5001 164.9539,-51.5001"/>
</g>
<!-- Node11 -->
<g id="node5" class="node">
<title>Node11</title>
<g id="a_node5"><a xlink:href="namespacenuspell.html#a9bf8e1a3f71282ed001fcf4f224ef9dd" target="_top" xlink:title="nuspell::to_narrow">
<polygon fill="#ffffff" stroke="#000000" points="170.5,-.5 170.5,-19.5 266.5,-19.5 266.5,-.5 170.5,-.5"/>
<text text-anchor="middle" x="218.5" y="-7.5" font-family="Helvetica,sans-Serif" font-size="10.00" fill="#000000">nuspell::to_narrow</text>
</a>
</g>
</g>
<!-- Node7&#45;&gt;Node11 -->
<g id="edge4" class="edge">
<title>Node7&#45;&gt;Node11</title>
<path fill="none" stroke="#191970" d="M125.0625,-32.9814C139.8587,-29.3422 155.4845,-25.499 169.6345,-22.0187"/>
<polygon fill="#191970" stroke="#191970" points="170.7694,-25.344 179.644,-19.5568 169.0975,-18.5465 170.7694,-25.344"/>
</g>
<!-- Node9 -->
<g id="node3" class="node">
<title>Node9</title>
<g id="a_node3"><a xlink:href="namespacenuspell.html#aae8baee1ca83bf5a5e0d07a4e8fdbf81" target="_top" xlink:title="nuspell::utf_to_utf_my">
<polygon fill="#ffffff" stroke="#000000" points="309,-76.5 309,-95.5 422,-95.5 422,-76.5 309,-76.5"/>
<text text-anchor="middle" x="365.5" y="-83.5" font-family="Helvetica,sans-Serif" font-size="10.00" fill="#000000">nuspell::utf_to_utf_my</text>
</a>
</g>
</g>
<!-- Node8&#45;&gt;Node9 -->
<g id="edge2" class="edge">
<title>Node8&#45;&gt;Node9</title>
<path fill="none" stroke="#191970" d="M273.2374,-86C281.4781,-86 290.0561,-86 298.5179,-86"/>
<polygon fill="#191970" stroke="#191970" points="298.7514,-89.5001 308.7514,-86 298.7514,-82.5001 298.7514,-89.5001"/>
</g>
</g>
</svg>
