<?xml version="1.0" encoding="UTF-8" standalone="no"?>
<!DOCTYPE svg PUBLIC "-//W3C//DTD SVG 1.1//EN"
 "http://www.w3.org/Graphics/SVG/1.1/DTD/svg11.dtd">
<!-- Generated by graphviz version 2.40.1 (20161225.0304)
 -->
<!-- Title: nuspell::Dictionary::internal_to_external_encoding Pages: 1 -->
<svg width="386pt" height="110pt"
 viewBox="0.00 0.00 386.00 109.50" xmlns="http://www.w3.org/2000/svg" xmlns:xlink="http://www.w3.org/1999/xlink">
<g id="graph0" class="graph" transform="scale(1 1) rotate(0) translate(4 105.5)">
<title>nuspell::Dictionary::internal_to_external_encoding</title>
<polygon fill="#ffffff" stroke="transparent" points="-4,4 -4,-105.5 382,-105.5 382,4 -4,4"/>
<!-- Node15 -->
<g id="node1" class="node">
<title>Node15</title>
<polygon fill="#bfbfbf" stroke="#000000" points="0,-27.5 0,-68.5 107,-68.5 107,-27.5 0,-27.5"/>
<text text-anchor="start" x="8" y="-56.5" font-family="Helvetica,sans-Serif" font-size="10.00" fill="#000000">nuspell::Dictionary</text>
<text text-anchor="start" x="8" y="-45.5" font-family="Helvetica,sans-Serif" font-size="10.00" fill="#000000">::internal_to_external</text>
<text text-anchor="middle" x="53.5" y="-34.5" font-family="Helvetica,sans-Serif" font-size="10.00" fill="#000000">_encoding</text>
</g>
<!-- Node16 -->
<g id="node2" class="node">
<title>Node16</title>
<g id="a_node2"><a xlink:href="namespacenuspell.html#ad4e8221da9ce95908ecd5a60ac3ae08c" target="_top" xlink:title="nuspell::wide_to_utf8">
<polygon fill="#ffffff" stroke="#000000" points="143,-76.5 143,-95.5 252,-95.5 252,-76.5 143,-76.5"/>
<text text-anchor="middle" x="197.5" y="-83.5" font-family="Helvetica,sans-Serif" font-size="10.00" fill="#000000">nuspell::wide_to_utf8</text>
</a>
</g>
</g>
<!-- Node15&#45;&gt;Node16 -->
<g id="edge1" class="edge">
<title>Node15&#45;&gt;Node16</title>
<path fill="none" stroke="#191970" d="M107.1203,-62.1498C121.6624,-65.9873 137.2765,-70.1077 151.3664,-73.8259"/>
<polygon fill="#191970" stroke="#191970" points="150.7575,-77.2849 161.3196,-76.4524 152.5436,-70.5166 150.7575,-77.2849"/>
</g>
<!-- Node18 -->
<g id="node4" class="node">
<title>Node18</title>
<g id="a_node4"><a xlink:href="namespacenuspell.html#a9bf8e1a3f71282ed001fcf4f224ef9dd" target="_top" xlink:title="nuspell::to_narrow">
<polygon fill="#ffffff" stroke="#000000" points="149.5,-38.5 149.5,-57.5 245.5,-57.5 245.5,-38.5 149.5,-38.5"/>
<text text-anchor="middle" x="197.5" y="-45.5" font-family="Helvetica,sans-Serif" font-size="10.00" fill="#000000">nuspell::to_narrow</text>
</a>
</g>
</g>
<!-- Node15&#45;&gt;Node18 -->
<g id="edge3" class="edge">
<title>Node15&#45;&gt;Node18</title>
<path fill="none" stroke="#191970" d="M107.1203,-48C117.4356,-48 128.2902,-48 138.7577,-48"/>
<polygon fill="#191970" stroke="#191970" points="139.0618,-51.5001 149.0618,-48 139.0617,-44.5001 139.0618,-51.5001"/>
</g>
<!-- Node19 -->
<g id="node5" class="node">
<title>Node19</title>
<g id="a_node5"><a xlink:href="namespacenuspell.html#a7aade2ec1cb243eb5b3714007d59d63c" target="_top" xlink:title="nuspell::to_wide">
<polygon fill="#ffffff" stroke="#000000" points="154,-.5 154,-19.5 241,-19.5 241,-.5 154,-.5"/>
<text text-anchor="middle" x="197.5" y="-7.5" font-family="Helvetica,sans-Serif" font-size="10.00" fill="#000000">nuspell::to_wide</text>
</a>
</g>
</g>
<!-- Node15&#45;&gt;Node19 -->
<g id="edge4" class="edge">
<title>Node15&#45;&gt;Node19</title>
<path fill="none" stroke="#191970" d="M107.1203,-33.8502C121.6624,-30.0127 137.2765,-25.8923 151.3664,-22.1741"/>
<polygon fill="#191970" stroke="#191970" points="152.5436,-25.4834 161.3196,-19.5476 150.7575,-18.7151 152.5436,-25.4834"/>
</g>
<!-- Node17 -->
<g id="node3" class="node">
<title>Node17</title>
<g id="a_node3"><a xlink:href="namespacenuspell.html#ade7ffffeb6a7e872e46bb96f4b1e4eea" target="_top" xlink:title="nuspell::valid_utf\l_to_utf">
<polygon fill="#ffffff" stroke="#000000" points="288,-71 288,-101 378,-101 378,-71 288,-71"/>
<text text-anchor="start" x="296" y="-89" font-family="Helvetica,sans-Serif" font-size="10.00" fill="#000000">nuspell::valid_utf</text>
<text text-anchor="middle" x="333" y="-78" font-family="Helvetica,sans-Serif" font-size="10.00" fill="#000000">_to_utf</text>
</a>
</g>
</g>
<!-- Node16&#45;&gt;Node17 -->
<g id="edge2" class="edge">
<title>Node16&#45;&gt;Node17</title>
<path fill="none" stroke="#191970" d="M252.2225,-86C260.5774,-86 269.207,-86 277.5768,-86"/>
<polygon fill="#191970" stroke="#191970" points="277.6214,-89.5001 287.6214,-86 277.6214,-82.5001 277.6214,-89.5001"/>
</g>
</g>
</svg>
