<?xml version="1.0" encoding="UTF-8" standalone="no"?>
<!DOCTYPE svg PUBLIC "-//W3C//DTD SVG 1.1//EN"
 "http://www.w3.org/Graphics/SVG/1.1/DTD/svg11.dtd">
<!-- Generated by graphviz version 2.40.1 (20161225.0304)
 -->
<!-- Title: nuspell::Compound_Rule_Table::match_any_rule Pages: 1 -->
<svg width="466pt" height="88pt"
 viewBox="0.00 0.00 466.00 88.00" xmlns="http://www.w3.org/2000/svg" xmlns:xlink="http://www.w3.org/1999/xlink">
<g id="graph0" class="graph" transform="scale(1 1) rotate(0) translate(4 84)">
<title>nuspell::Compound_Rule_Table::match_any_rule</title>
<polygon fill="#ffffff" stroke="transparent" points="-4,4 -4,-84 462,-84 462,4 -4,4"/>
<!-- Node13 -->
<g id="node1" class="node">
<title>Node13</title>
<polygon fill="#bfbfbf" stroke="#000000" points="0,-24.5 0,-54.5 126,-54.5 126,-24.5 0,-24.5"/>
<text text-anchor="start" x="8" y="-42.5" font-family="Helvetica,sans-Serif" font-size="10.00" fill="#000000">nuspell::Compound_Rule</text>
<text text-anchor="middle" x="63" y="-31.5" font-family="Helvetica,sans-Serif" font-size="10.00" fill="#000000">_Table::match_any_rule</text>
</g>
<!-- Node14 -->
<g id="node2" class="node">
<title>Node14</title>
<g id="a_node2"><a xlink:href="namespacenuspell.html#aa400607867aa8ca4eb115542a84b7004" target="_top" xlink:title="nuspell::match_compund_rule">
<polygon fill="#ffffff" stroke="#000000" points="162,-30 162,-49 308,-49 308,-30 162,-30"/>
<text text-anchor="middle" x="235" y="-37" font-family="Helvetica,sans-Serif" font-size="10.00" fill="#000000">nuspell::match_compund_rule</text>
</a>
</g>
</g>
<!-- Node13&#45;&gt;Node14 -->
<g id="edge1" class="edge">
<title>Node13&#45;&gt;Node14</title>
<path fill="none" stroke="#191970" d="M126.0698,-39.5C134.408,-39.5 143.0565,-39.5 151.6693,-39.5"/>
<polygon fill="#191970" stroke="#191970" points="151.7428,-43.0001 161.7428,-39.5 151.7428,-36.0001 151.7428,-43.0001"/>
</g>
<!-- Node15 -->
<g id="node3" class="node">
<title>Node15</title>
<g id="a_node3"><a xlink:href="namespacenuspell.html#a99eaa02be11f51546c6f62386e45c986" target="_top" xlink:title="nuspell::match_simple\l_regex">
<polygon fill="#ffffff" stroke="#000000" points="344,-49.5 344,-79.5 458,-79.5 458,-49.5 344,-49.5"/>
<text text-anchor="start" x="352" y="-67.5" font-family="Helvetica,sans-Serif" font-size="10.00" fill="#000000">nuspell::match_simple</text>
<text text-anchor="middle" x="401" y="-56.5" font-family="Helvetica,sans-Serif" font-size="10.00" fill="#000000">_regex</text>
</a>
</g>
</g>
<!-- Node14&#45;&gt;Node15 -->
<g id="edge2" class="edge">
<title>Node14&#45;&gt;Node15</title>
<path fill="none" stroke="#191970" d="M298.231,-49.0227C309.853,-50.773 322.024,-52.606 333.7587,-54.3733"/>
<polygon fill="#191970" stroke="#191970" points="333.5242,-57.8774 343.9339,-55.9057 334.5667,-50.9554 333.5242,-57.8774"/>
</g>
<!-- Node16 -->
<g id="node4" class="node">
<title>Node16</title>
<g id="a_node4"><a xlink:href="classnuspell_1_1_string___set.html#ad1eeb2a3564c02c49f31b98299e493df" target="_top" xlink:title="nuspell::String_Set\l::contains">
<polygon fill="#ffffff" stroke="#000000" points="351.5,-.5 351.5,-30.5 450.5,-30.5 450.5,-.5 351.5,-.5"/>
<text text-anchor="start" x="359.5" y="-18.5" font-family="Helvetica,sans-Serif" font-size="10.00" fill="#000000">nuspell::String_Set</text>
<text text-anchor="middle" x="401" y="-7.5" font-family="Helvetica,sans-Serif" font-size="10.00" fill="#000000">::contains</text>
</a>
</g>
</g>
<!-- Node14&#45;&gt;Node16 -->
<g id="edge3" class="edge">
<title>Node14&#45;&gt;Node16</title>
<path fill="none" stroke="#191970" d="M301.0846,-29.9456C314.2829,-28.0374 328.0772,-26.0431 341.0548,-24.1668"/>
<polygon fill="#191970" stroke="#191970" points="341.8642,-27.5862 351.2604,-22.6913 340.8625,-20.6583 341.8642,-27.5862"/>
</g>
</g>
</svg>
