<?xml version="1.0" encoding="UTF-8" standalone="no"?>
<!DOCTYPE svg PUBLIC "-//W3C//DTD SVG 1.1//EN"
 "http://www.w3.org/Graphics/SVG/1.1/DTD/svg11.dtd">
<!-- Generated by graphviz version 2.40.1 (20161225.0304)
 -->
<!-- Title: nuspell::Finder::end Pages: 1 -->
<svg width="256pt" height="127pt"
 viewBox="0.00 0.00 256.00 126.50" xmlns="http://www.w3.org/2000/svg" xmlns:xlink="http://www.w3.org/1999/xlink">
<g id="graph0" class="graph" transform="scale(1 1) rotate(0) translate(4 122.5)">
<title>nuspell::Finder::end</title>
<polygon fill="#ffffff" stroke="transparent" points="-4,4 -4,-122.5 252,-122.5 252,4 -4,4"/>
<!-- Node24 -->
<g id="node1" class="node">
<title>Node24</title>
<polygon fill="#bfbfbf" stroke="#000000" points="0,-55 0,-74 102,-74 102,-55 0,-55"/>
<text text-anchor="middle" x="51" y="-62" font-family="Helvetica,sans-Serif" font-size="10.00" fill="#000000">nuspell::Finder::end</text>
</g>
<!-- Node25 -->
<g id="node2" class="node">
<title>Node25</title>
<g id="a_node2"><a xlink:href="classnuspell_1_1_finder.html#a2e83d2cd366f50ce1f38e30642e8ea67" target="_top" xlink:title="nuspell::Finder::find">
<polygon fill="#ffffff" stroke="#000000" points="142,-99 142,-118 244,-118 244,-99 142,-99"/>
<text text-anchor="middle" x="193" y="-106" font-family="Helvetica,sans-Serif" font-size="10.00" fill="#000000">nuspell::Finder::find</text>
</a>
</g>
</g>
<!-- Node24&#45;&gt;Node25 -->
<g id="edge1" class="edge">
<title>Node24&#45;&gt;Node25</title>
<path fill="none" stroke="#191970" d="M81.8119,-74.0473C102.5597,-80.4763 130.1346,-89.0206 152.6325,-95.9918"/>
<polygon fill="#191970" stroke="#191970" points="151.6603,-99.3546 162.2482,-98.9713 153.7322,-92.6683 151.6603,-99.3546"/>
</g>
<!-- Node26 -->
<g id="node3" class="node">
<title>Node26</title>
<g id="a_node3"><a xlink:href="classnuspell_1_1_finder.html#a05dd485575738371e3dd0eeb7f5179ea" target="_top" xlink:title="nuspell::Finder::equal\l_range">
<polygon fill="#ffffff" stroke="#000000" points="138,-49.5 138,-79.5 248,-79.5 248,-49.5 138,-49.5"/>
<text text-anchor="start" x="146" y="-67.5" font-family="Helvetica,sans-Serif" font-size="10.00" fill="#000000">nuspell::Finder::equal</text>
<text text-anchor="middle" x="193" y="-56.5" font-family="Helvetica,sans-Serif" font-size="10.00" fill="#000000">_range</text>
</a>
</g>
</g>
<!-- Node24&#45;&gt;Node26 -->
<g id="edge2" class="edge">
<title>Node24&#45;&gt;Node26</title>
<path fill="none" stroke="#191970" d="M102.2653,-64.5C110.6017,-64.5 119.3324,-64.5 127.9456,-64.5"/>
<polygon fill="#191970" stroke="#191970" points="127.9721,-68.0001 137.9721,-64.5 127.972,-61.0001 127.9721,-68.0001"/>
</g>
<!-- Node27 -->
<g id="node4" class="node">
<title>Node27</title>
<g id="a_node4"><a xlink:href="classnuspell_1_1_finder.html#a564300f4f6ea5513d856de978ad34f4e" target="_top" xlink:title="Gets the dictionary. ">
<polygon fill="#ffffff" stroke="#000000" points="143,-.5 143,-30.5 243,-30.5 243,-.5 143,-.5"/>
<text text-anchor="start" x="151" y="-18.5" font-family="Helvetica,sans-Serif" font-size="10.00" fill="#000000">nuspell::Finder::get</text>
<text text-anchor="middle" x="193" y="-7.5" font-family="Helvetica,sans-Serif" font-size="10.00" fill="#000000">_dictionary</text>
</a>
</g>
</g>
<!-- Node24&#45;&gt;Node27 -->
<g id="edge3" class="edge">
<title>Node24&#45;&gt;Node27</title>
<path fill="none" stroke="#191970" d="M78.7161,-54.936C96.0658,-48.9491 118.9914,-41.0382 139.753,-33.874"/>
<polygon fill="#191970" stroke="#191970" points="141.1122,-37.1075 149.4235,-30.537 138.8288,-30.4904 141.1122,-37.1075"/>
</g>
</g>
</svg>
