<?xml version="1.0" encoding="UTF-8" standalone="no"?>
<!DOCTYPE svg PUBLIC "-//W3C//DTD SVG 1.1//EN"
 "http://www.w3.org/Graphics/SVG/1.1/DTD/svg11.dtd">
<!-- Generated by graphviz version 2.40.1 (20161225.0304)
 -->
<!-- Title: nuspell::String_Set::count Pages: 1 -->
<svg width="259pt" height="88pt"
 viewBox="0.00 0.00 259.00 88.00" xmlns="http://www.w3.org/2000/svg" xmlns:xlink="http://www.w3.org/1999/xlink">
<g id="graph0" class="graph" transform="scale(1 1) rotate(0) translate(4 84)">
<title>nuspell::String_Set::count</title>
<polygon fill="#ffffff" stroke="transparent" points="-4,4 -4,-84 255,-84 255,4 -4,4"/>
<!-- Node64 -->
<g id="node1" class="node">
<title>Node64</title>
<polygon fill="#bfbfbf" stroke="#000000" points="0,-24.5 0,-54.5 99,-54.5 99,-24.5 0,-24.5"/>
<text text-anchor="start" x="8" y="-42.5" font-family="Helvetica,sans-Serif" font-size="10.00" fill="#000000">nuspell::String_Set</text>
<text text-anchor="middle" x="49.5" y="-31.5" font-family="Helvetica,sans-Serif" font-size="10.00" fill="#000000">::count</text>
</g>
<!-- Node65 -->
<g id="node2" class="node">
<title>Node65</title>
<g id="a_node2"><a xlink:href="classnuspell_1_1_string___set.html#ad1eeb2a3564c02c49f31b98299e493df" target="_top" xlink:title="nuspell::String_Set\l\&lt; char16_t \&gt;::contains">
<polygon fill="#ffffff" stroke="#000000" points="135.5,-49.5 135.5,-79.5 250.5,-79.5 250.5,-49.5 135.5,-49.5"/>
<text text-anchor="start" x="143.5" y="-67.5" font-family="Helvetica,sans-Serif" font-size="10.00" fill="#000000">nuspell::String_Set</text>
<text text-anchor="middle" x="193" y="-56.5" font-family="Helvetica,sans-Serif" font-size="10.00" fill="#000000">&lt; char16_t &gt;::contains</text>
</a>
</g>
</g>
<!-- Node64&#45;&gt;Node65 -->
<g id="edge1" class="edge">
<title>Node64&#45;&gt;Node65</title>
<path fill="none" stroke="#191970" d="M109.2939,-49.9171C117.9384,-51.4231 126.8213,-52.9706 135.4212,-54.4688"/>
<polygon fill="#191970" stroke="#191970" points="109.739,-46.442 99.2866,-48.1736 108.5375,-53.3381 109.739,-46.442"/>
</g>
<!-- Node66 -->
<g id="node3" class="node">
<title>Node66</title>
<g id="a_node3"><a xlink:href="classnuspell_1_1_hash___multiset.html#ab0cd523aa88f693b6e90ae55659ca0ed" target="_top" xlink:title="nuspell::Hash_Multiset\l::reserve">
<polygon fill="#ffffff" stroke="#000000" points="135,-.5 135,-30.5 251,-30.5 251,-.5 135,-.5"/>
<text text-anchor="start" x="143" y="-18.5" font-family="Helvetica,sans-Serif" font-size="10.00" fill="#000000">nuspell::Hash_Multiset</text>
<text text-anchor="middle" x="193" y="-7.5" font-family="Helvetica,sans-Serif" font-size="10.00" fill="#000000">::reserve</text>
</a>
</g>
</g>
<!-- Node64&#45;&gt;Node66 -->
<g id="edge2" class="edge">
<title>Node64&#45;&gt;Node66</title>
<path fill="none" stroke="#191970" d="M109.153,-29.5232C117.6749,-28.0979 126.4312,-26.6334 134.9223,-25.2133"/>
<polygon fill="#191970" stroke="#191970" points="108.5722,-26.0716 99.2866,-31.1733 109.727,-32.9757 108.5722,-26.0716"/>
</g>
</g>
</svg>
