<?xml version="1.0" encoding="UTF-8" standalone="no"?>
<!DOCTYPE svg PUBLIC "-//W3C//DTD SVG 1.1//EN"
 "http://www.w3.org/Graphics/SVG/1.1/DTD/svg11.dtd">
<!-- Generated by graphviz version 2.40.1 (20161225.0304)
 -->
<!-- Title: nuspell::Finder::add_default_dir_paths Pages: 1 -->
<svg width="518pt" height="66pt"
 viewBox="0.00 0.00 518.00 66.00" xmlns="http://www.w3.org/2000/svg" xmlns:xlink="http://www.w3.org/1999/xlink">
<g id="graph0" class="graph" transform="scale(1 1) rotate(0) translate(4 62)">
<title>nuspell::Finder::add_default_dir_paths</title>
<polygon fill="#ffffff" stroke="transparent" points="-4,4 -4,-62 514,-62 514,4 -4,4"/>
<!-- Node0 -->
<g id="node1" class="node">
<title>Node0</title>
<polygon fill="#bfbfbf" stroke="#000000" points="0,-14 0,-44 102,-44 102,-14 0,-14"/>
<text text-anchor="start" x="8" y="-32" font-family="Helvetica,sans-Serif" font-size="10.00" fill="#000000">nuspell::Finder::add</text>
<text text-anchor="middle" x="51" y="-21" font-family="Helvetica,sans-Serif" font-size="10.00" fill="#000000">_default_dir_paths</text>
</g>
<!-- Node1 -->
<g id="node2" class="node">
<title>Node1</title>
<g id="a_node2"><a xlink:href="namespacenuspell.html#a5fcde42a9d5b1fae08e198eb417df1a5" target="_top" xlink:title="Gets the default search paths. ">
<polygon fill="#ffffff" stroke="#000000" points="138,-14 138,-44 239,-44 239,-14 138,-14"/>
<text text-anchor="start" x="146" y="-32" font-family="Helvetica,sans-Serif" font-size="10.00" fill="#000000">nuspell::get_default</text>
<text text-anchor="middle" x="188.5" y="-21" font-family="Helvetica,sans-Serif" font-size="10.00" fill="#000000">_search_paths</text>
</a>
</g>
</g>
<!-- Node0&#45;&gt;Node1 -->
<g id="edge1" class="edge">
<title>Node0&#45;&gt;Node1</title>
<path fill="none" stroke="#191970" d="M102.1999,-29C110.4509,-29 119.0633,-29 127.5171,-29"/>
<polygon fill="#191970" stroke="#191970" points="127.7152,-32.5001 137.7151,-29 127.7151,-25.5001 127.7152,-32.5001"/>
</g>
<!-- Node2 -->
<g id="node3" class="node">
<title>Node2</title>
<g id="a_node3"><a xlink:href="namespacenuspell.html#a3fb4e305b46d4cd3a0ddb3400fb795c9" target="_top" xlink:title="Splits string on single char seperator. ">
<polygon fill="#ffffff" stroke="#000000" points="278,-38.5 278,-57.5 349,-57.5 349,-38.5 278,-38.5"/>
<text text-anchor="middle" x="313.5" y="-45.5" font-family="Helvetica,sans-Serif" font-size="10.00" fill="#000000">nuspell::split</text>
</a>
</g>
</g>
<!-- Node1&#45;&gt;Node2 -->
<g id="edge2" class="edge">
<title>Node1&#45;&gt;Node2</title>
<path fill="none" stroke="#191970" d="M239.3423,-36.728C248.6731,-38.1463 258.3633,-39.6192 267.5408,-41.0142"/>
<polygon fill="#191970" stroke="#191970" points="267.2257,-44.5064 277.6382,-42.549 268.2777,-37.5859 267.2257,-44.5064"/>
</g>
<!-- Node4 -->
<g id="node5" class="node">
<title>Node4</title>
<g id="a_node5"><a xlink:href="namespacenuspell.html#a9404cbb74ae904c74db6776eb092e1b1" target="_top" xlink:title="nuspell::prefix">
<polygon fill="#ffffff" stroke="#000000" points="275,-.5 275,-19.5 352,-19.5 352,-.5 275,-.5"/>
<text text-anchor="middle" x="313.5" y="-7.5" font-family="Helvetica,sans-Serif" font-size="10.00" fill="#000000">nuspell::prefix</text>
</a>
</g>
</g>
<!-- Node1&#45;&gt;Node4 -->
<g id="edge4" class="edge">
<title>Node1&#45;&gt;Node4</title>
<path fill="none" stroke="#191970" d="M239.3423,-21.272C247.7997,-19.9864 256.5524,-18.656 264.9509,-17.3795"/>
<polygon fill="#191970" stroke="#191970" points="265.6155,-20.8187 274.9759,-15.8557 264.5635,-13.8982 265.6155,-20.8187"/>
</g>
<!-- Node3 -->
<g id="node4" class="node">
<title>Node3</title>
<g id="a_node4"><a xlink:href="namespacenuspell.html#a5e34eda7ca7918b315117568464ebe46" target="_top" xlink:title="Splits string on set of single char seperators. ">
<polygon fill="#ffffff" stroke="#000000" points="388,-38.5 388,-57.5 510,-57.5 510,-38.5 388,-38.5"/>
<text text-anchor="middle" x="449" y="-45.5" font-family="Helvetica,sans-Serif" font-size="10.00" fill="#000000">nuspell::split_on_any_of</text>
</a>
</g>
</g>
<!-- Node2&#45;&gt;Node3 -->
<g id="edge3" class="edge">
<title>Node2&#45;&gt;Node3</title>
<path fill="none" stroke="#191970" d="M349.101,-48C358.0399,-48 367.9507,-48 377.9575,-48"/>
<polygon fill="#191970" stroke="#191970" points="377.9639,-51.5001 387.9639,-48 377.9639,-44.5001 377.9639,-51.5001"/>
</g>
</g>
</svg>
