<?xml version="1.0" encoding="UTF-8" standalone="no"?>
<!DOCTYPE svg PUBLIC "-//W3C//DTD SVG 1.1//EN"
 "http://www.w3.org/Graphics/SVG/1.1/DTD/svg11.dtd">
<!-- Generated by graphviz version 2.40.1 (20161225.0304)
 -->
<!-- Title: nuspell::Hash_Multiset&lt; Value, Key, KeyExtract, Hash, KeyEqual &gt; Pages: 1 -->
<svg width="216pt" height="117pt"
 viewBox="0.00 0.00 215.50 117.00" xmlns="http://www.w3.org/2000/svg" xmlns:xlink="http://www.w3.org/1999/xlink">
<g id="graph0" class="graph" transform="scale(1 1) rotate(0) translate(4 113)">
<title>nuspell::Hash_Multiset&lt; Value, Key, KeyExtract, Hash, KeyEqual &gt;</title>
<polygon fill="#ffffff" stroke="transparent" points="-4,4 -4,-113 211.5,-113 211.5,4 -4,4"/>
<!-- Node6 -->
<g id="node1" class="node">
<title>Node6</title>
<polygon fill="#bfbfbf" stroke="#000000" points="44,-.5 44,-41.5 175,-41.5 175,-.5 44,-.5"/>
<text text-anchor="start" x="52" y="-29.5" font-family="Helvetica,sans-Serif" font-size="10.00" fill="#000000">nuspell::Hash_Multiset</text>
<text text-anchor="start" x="52" y="-18.5" font-family="Helvetica,sans-Serif" font-size="10.00" fill="#000000">&lt; Value, Key, KeyExtract,</text>
<text text-anchor="middle" x="109.5" y="-7.5" font-family="Helvetica,sans-Serif" font-size="10.00" fill="#000000"> Hash, KeyEqual &gt;</text>
</g>
<!-- Node7 -->
<g id="node2" class="node">
<title>Node7</title>
<polygon fill="#ffffff" stroke="#bfbfbf" points="0,-89.5 0,-108.5 59,-108.5 59,-89.5 0,-89.5"/>
<text text-anchor="middle" x="29.5" y="-96.5" font-family="Helvetica,sans-Serif" font-size="10.00" fill="#000000">KeyEqual</text>
</g>
<!-- Node7&#45;&gt;Node6 -->
<g id="edge1" class="edge">
<title>Node7&#45;&gt;Node6</title>
<path fill="none" stroke="#9a32cd" stroke-dasharray="5,2" d="M46.6052,-82.3225C58.7612,-70.4704 75.1702,-54.4715 88.1797,-41.7873"/>
<polygon fill="#9a32cd" stroke="#9a32cd" points="44.0262,-79.9486 39.3096,-89.4357 48.913,-84.9606 44.0262,-79.9486"/>
<text text-anchor="middle" x="83" y="-63" font-family="Helvetica,sans-Serif" font-size="10.00" fill="#000000"> equal</text>
</g>
<!-- Node8 -->
<g id="node3" class="node">
<title>Node8</title>
<polygon fill="#ffffff" stroke="#bfbfbf" points="77,-89.5 77,-108.5 142,-108.5 142,-89.5 77,-89.5"/>
<text text-anchor="middle" x="109.5" y="-96.5" font-family="Helvetica,sans-Serif" font-size="10.00" fill="#000000">KeyExtract</text>
</g>
<!-- Node8&#45;&gt;Node6 -->
<g id="edge2" class="edge">
<title>Node8&#45;&gt;Node6</title>
<path fill="none" stroke="#9a32cd" stroke-dasharray="5,2" d="M109.5,-79.1881C109.5,-67.7521 109.5,-53.3843 109.5,-41.7873"/>
<polygon fill="#9a32cd" stroke="#9a32cd" points="106.0001,-79.4356 109.5,-89.4357 113.0001,-79.4357 106.0001,-79.4356"/>
<text text-anchor="middle" x="137" y="-63" font-family="Helvetica,sans-Serif" font-size="10.00" fill="#000000"> key_extract</text>
</g>
<!-- Node9 -->
<g id="node4" class="node">
<title>Node9</title>
<polygon fill="#ffffff" stroke="#bfbfbf" points="167.5,-89.5 167.5,-108.5 207.5,-108.5 207.5,-89.5 167.5,-89.5"/>
<text text-anchor="middle" x="187.5" y="-96.5" font-family="Helvetica,sans-Serif" font-size="10.00" fill="#000000">Hash</text>
</g>
<!-- Node9&#45;&gt;Node6 -->
<g id="edge3" class="edge">
<title>Node9&#45;&gt;Node6</title>
<path fill="none" stroke="#9a32cd" stroke-dasharray="5,2" d="M178.9997,-80.0335C175.4226,-73.267 170.8417,-65.8732 165.5,-60 159.3619,-53.2512 151.85,-47.0339 144.346,-41.6389"/>
<polygon fill="#9a32cd" stroke="#9a32cd" points="175.9644,-81.7945 183.4939,-89.2482 182.256,-78.7259 175.9644,-81.7945"/>
<text text-anchor="middle" x="186" y="-63" font-family="Helvetica,sans-Serif" font-size="10.00" fill="#000000"> hash</text>
</g>
</g>
</svg>
