<?xml version="1.0" encoding="UTF-8" standalone="no"?>
<!DOCTYPE svg PUBLIC "-//W3C//DTD SVG 1.1//EN"
 "http://www.w3.org/Graphics/SVG/1.1/DTD/svg11.dtd">
<!-- Generated by graphviz version 2.40.1 (20161225.0304)
 -->
<!-- Title: nuspell::Basic_Dictionary::internal_to_external_encoding Pages: 1 -->
<svg width="407pt" height="110pt"
 viewBox="0.00 0.00 407.00 109.50" xmlns="http://www.w3.org/2000/svg" xmlns:xlink="http://www.w3.org/1999/xlink">
<g id="graph0" class="graph" transform="scale(1 1) rotate(0) translate(4 105.5)">
<title>nuspell::Basic_Dictionary::internal_to_external_encoding</title>
<polygon fill="#ffffff" stroke="transparent" points="-4,4 -4,-105.5 403,-105.5 403,4 -4,4"/>
<!-- Node15 -->
<g id="node1" class="node">
<title>Node15</title>
<polygon fill="#bfbfbf" stroke="#000000" points="0,-27.5 0,-68.5 128,-68.5 128,-27.5 0,-27.5"/>
<text text-anchor="start" x="8" y="-56.5" font-family="Helvetica,sans-Serif" font-size="10.00" fill="#000000">nuspell::Basic_Dictionary</text>
<text text-anchor="start" x="8" y="-45.5" font-family="Helvetica,sans-Serif" font-size="10.00" fill="#000000">::internal_to_external</text>
<text text-anchor="middle" x="64" y="-34.5" font-family="Helvetica,sans-Serif" font-size="10.00" fill="#000000">_encoding</text>
</g>
<!-- Node16 -->
<g id="node2" class="node">
<title>Node16</title>
<g id="a_node2"><a xlink:href="namespacenuspell.html#ad4e8221da9ce95908ecd5a60ac3ae08c" target="_top" xlink:title="nuspell::wide_to_utf8">
<polygon fill="#ffffff" stroke="#000000" points="164,-76.5 164,-95.5 273,-95.5 273,-76.5 164,-76.5"/>
<text text-anchor="middle" x="218.5" y="-83.5" font-family="Helvetica,sans-Serif" font-size="10.00" fill="#000000">nuspell::wide_to_utf8</text>
</a>
</g>
</g>
<!-- Node15&#45;&gt;Node16 -->
<g id="edge1" class="edge">
<title>Node15&#45;&gt;Node16</title>
<path fill="none" stroke="#191970" d="M128.1797,-63.7853C142.0537,-67.1977 156.5071,-70.7526 169.679,-73.9922"/>
<polygon fill="#191970" stroke="#191970" points="168.9245,-77.4109 179.471,-76.4006 170.5964,-70.6135 168.9245,-77.4109"/>
</g>
<!-- Node18 -->
<g id="node4" class="node">
<title>Node18</title>
<g id="a_node4"><a xlink:href="namespacenuspell.html#a9bf8e1a3f71282ed001fcf4f224ef9dd" target="_top" xlink:title="nuspell::to_narrow">
<polygon fill="#ffffff" stroke="#000000" points="170.5,-38.5 170.5,-57.5 266.5,-57.5 266.5,-38.5 170.5,-38.5"/>
<text text-anchor="middle" x="218.5" y="-45.5" font-family="Helvetica,sans-Serif" font-size="10.00" fill="#000000">nuspell::to_narrow</text>
</a>
</g>
</g>
<!-- Node15&#45;&gt;Node18 -->
<g id="edge3" class="edge">
<title>Node15&#45;&gt;Node18</title>
<path fill="none" stroke="#191970" d="M128.1797,-48C138.7504,-48 149.6574,-48 160.0777,-48"/>
<polygon fill="#191970" stroke="#191970" points="160.3053,-51.5001 170.3053,-48 160.3052,-44.5001 160.3053,-51.5001"/>
</g>
<!-- Node19 -->
<g id="node5" class="node">
<title>Node19</title>
<g id="a_node5"><a xlink:href="namespacenuspell.html#a7aade2ec1cb243eb5b3714007d59d63c" target="_top" xlink:title="nuspell::to_wide">
<polygon fill="#ffffff" stroke="#000000" points="175,-.5 175,-19.5 262,-19.5 262,-.5 175,-.5"/>
<text text-anchor="middle" x="218.5" y="-7.5" font-family="Helvetica,sans-Serif" font-size="10.00" fill="#000000">nuspell::to_wide</text>
</a>
</g>
</g>
<!-- Node15&#45;&gt;Node19 -->
<g id="edge4" class="edge">
<title>Node15&#45;&gt;Node19</title>
<path fill="none" stroke="#191970" d="M128.1797,-32.2147C142.0537,-28.8023 156.5071,-25.2474 169.679,-22.0078"/>
<polygon fill="#191970" stroke="#191970" points="170.5964,-25.3865 179.471,-19.5994 168.9245,-18.5891 170.5964,-25.3865"/>
</g>
<!-- Node17 -->
<g id="node3" class="node">
<title>Node17</title>
<g id="a_node3"><a xlink:href="namespacenuspell.html#ade7ffffeb6a7e872e46bb96f4b1e4eea" target="_top" xlink:title="nuspell::valid_utf\l_to_utf">
<polygon fill="#ffffff" stroke="#000000" points="309,-71 309,-101 399,-101 399,-71 309,-71"/>
<text text-anchor="start" x="317" y="-89" font-family="Helvetica,sans-Serif" font-size="10.00" fill="#000000">nuspell::valid_utf</text>
<text text-anchor="middle" x="354" y="-78" font-family="Helvetica,sans-Serif" font-size="10.00" fill="#000000">_to_utf</text>
</a>
</g>
</g>
<!-- Node16&#45;&gt;Node17 -->
<g id="edge2" class="edge">
<title>Node16&#45;&gt;Node17</title>
<path fill="none" stroke="#191970" d="M273.2225,-86C281.5774,-86 290.207,-86 298.5768,-86"/>
<polygon fill="#191970" stroke="#191970" points="298.6214,-89.5001 308.6214,-86 298.6214,-82.5001 298.6214,-89.5001"/>
</g>
</g>
</svg>
