<?xml version="1.0" encoding="UTF-8" standalone="no"?>
<!DOCTYPE svg PUBLIC "-//W3C//DTD SVG 1.1//EN"
 "http://www.w3.org/Graphics/SVG/1.1/DTD/svg11.dtd">
<!-- Generated by graphviz version 2.40.1 (20161225.0304)
 -->
<!-- Title: nuspell::Prefix_Iter::operator++ Pages: 1 -->
<svg width="245pt" height="78pt"
 viewBox="0.00 0.00 245.00 77.50" xmlns="http://www.w3.org/2000/svg" xmlns:xlink="http://www.w3.org/1999/xlink">
<g id="graph0" class="graph" transform="scale(1 1) rotate(0) translate(4 73.5)">
<title>nuspell::Prefix_Iter::operator++</title>
<polygon fill="#ffffff" stroke="transparent" points="-4,4 -4,-73.5 241,-73.5 241,4 -4,4"/>
<!-- Node8 -->
<g id="node1" class="node">
<title>Node8</title>
<polygon fill="#bfbfbf" stroke="#000000" points="0,-22.5 0,-52.5 98,-52.5 98,-22.5 0,-22.5"/>
<text text-anchor="start" x="8" y="-40.5" font-family="Helvetica,sans-Serif" font-size="10.00" fill="#000000">nuspell::Prefix_Iter</text>
<text text-anchor="middle" x="49" y="-29.5" font-family="Helvetica,sans-Serif" font-size="10.00" fill="#000000">::operator++</text>
</g>
<!-- Node9 -->
<g id="node2" class="node">
<title>Node9</title>
<g id="a_node2"><a xlink:href="namespacenuspell.html#a9404cbb74ae904c74db6776eb092e1b1" target="_top" xlink:title="nuspell::prefix">
<polygon fill="#ffffff" stroke="#000000" points="147,-50 147,-69 224,-69 224,-50 147,-50"/>
<text text-anchor="middle" x="185.5" y="-57" font-family="Helvetica,sans-Serif" font-size="10.00" fill="#000000">nuspell::prefix</text>
</a>
</g>
</g>
<!-- Node8&#45;&gt;Node9 -->
<g id="edge1" class="edge">
<title>Node8&#45;&gt;Node9</title>
<path fill="none" stroke="#191970" d="M98.2796,-45.4425C110.6889,-47.4425 124.0071,-49.5891 136.4072,-51.5876"/>
<polygon fill="#191970" stroke="#191970" points="136.1377,-55.0893 146.5673,-53.2251 137.2516,-48.1784 136.1377,-55.0893"/>
</g>
<!-- Node10 -->
<g id="node3" class="node">
<title>Node10</title>
<g id="a_node3"><a xlink:href="classnuspell_1_1_affix___table.html#a6745385bd8dfb4045f99ecb06841e760" target="_top" xlink:title="nuspell::Affix_Table\l::equal_range">
<polygon fill="#ffffff" stroke="#000000" points="134,-.5 134,-30.5 237,-30.5 237,-.5 134,-.5"/>
<text text-anchor="start" x="142" y="-18.5" font-family="Helvetica,sans-Serif" font-size="10.00" fill="#000000">nuspell::Affix_Table</text>
<text text-anchor="middle" x="185.5" y="-7.5" font-family="Helvetica,sans-Serif" font-size="10.00" fill="#000000">::equal_range</text>
</a>
</g>
</g>
<!-- Node8&#45;&gt;Node10 -->
<g id="edge2" class="edge">
<title>Node8&#45;&gt;Node10</title>
<path fill="none" stroke="#191970" d="M98.2796,-29.5575C106.6225,-28.2129 115.3762,-26.802 123.9855,-25.4144"/>
<polygon fill="#191970" stroke="#191970" points="124.6768,-28.8483 133.9925,-23.8016 123.5629,-21.9374 124.6768,-28.8483"/>
</g>
</g>
</svg>
