<?xml version="1.0" encoding="UTF-8" standalone="no"?>
<!DOCTYPE svg PUBLIC "-//W3C//DTD SVG 1.1//EN"
 "http://www.w3.org/Graphics/SVG/1.1/DTD/svg11.dtd">
<!-- Generated by graphviz version 2.40.1 (20161225.0304)
 -->
<!-- Title: nuspell::Affix_Table&lt; CharT, AffixT &gt; Pages: 1 -->
<svg width="301pt" height="184pt"
 viewBox="0.00 0.00 301.00 184.00" xmlns="http://www.w3.org/2000/svg" xmlns:xlink="http://www.w3.org/1999/xlink">
<g id="graph0" class="graph" transform="scale(1 1) rotate(0) translate(4 180)">
<title>nuspell::Affix_Table&lt; CharT, AffixT &gt;</title>
<polygon fill="#ffffff" stroke="transparent" points="-4,4 -4,-180 297,-180 297,4 -4,4"/>
<!-- Node2 -->
<g id="node1" class="node">
<title>Node2</title>
<polygon fill="#bfbfbf" stroke="#000000" points="125,-.5 125,-30.5 228,-30.5 228,-.5 125,-.5"/>
<text text-anchor="start" x="133" y="-18.5" font-family="Helvetica,sans-Serif" font-size="10.00" fill="#000000">nuspell::Affix_Table</text>
<text text-anchor="middle" x="176.5" y="-7.5" font-family="Helvetica,sans-Serif" font-size="10.00" fill="#000000">&lt; CharT, AffixT &gt;</text>
</g>
<!-- Node3 -->
<g id="node2" class="node">
<title>Node3</title>
<g id="a_node2"><a xlink:href="classnuspell_1_1_hash___multiset.html" target="_top" xlink:title="Affix_Table_Base\&lt; CharT,\l AffixT \&gt;">
<polygon fill="#ffffff" stroke="#000000" points="43,-78.5 43,-108.5 176,-108.5 176,-78.5 43,-78.5"/>
<text text-anchor="start" x="51" y="-96.5" font-family="Helvetica,sans-Serif" font-size="10.00" fill="#000000">Affix_Table_Base&lt; CharT,</text>
<text text-anchor="middle" x="109.5" y="-85.5" font-family="Helvetica,sans-Serif" font-size="10.00" fill="#000000"> AffixT &gt;</text>
</a>
</g>
</g>
<!-- Node3&#45;&gt;Node2 -->
<g id="edge1" class="edge">
<title>Node3&#45;&gt;Node2</title>
<path fill="none" stroke="#8b1a1a" d="M129.2465,-70.5116C140.2604,-57.6894 153.6745,-42.0729 163.3928,-30.7592"/>
<polygon fill="#8b1a1a" stroke="#8b1a1a" points="126.2792,-68.5945 122.4183,-78.4608 131.5892,-73.1557 126.2792,-68.5945"/>
</g>
<!-- Node4 -->
<g id="node3" class="node">
<title>Node4</title>
<polygon fill="#ffffff" stroke="#bfbfbf" points="0,-156.5 0,-175.5 59,-175.5 59,-156.5 0,-156.5"/>
<text text-anchor="middle" x="29.5" y="-163.5" font-family="Helvetica,sans-Serif" font-size="10.00" fill="#000000">KeyEqual</text>
</g>
<!-- Node4&#45;&gt;Node3 -->
<g id="edge2" class="edge">
<title>Node4&#45;&gt;Node3</title>
<path fill="none" stroke="#9a32cd" stroke-dasharray="5,2" d="M48.0134,-149.2222C61.5242,-136.9781 79.6856,-120.5193 92.7629,-108.668"/>
<polygon fill="#9a32cd" stroke="#9a32cd" points="45.3487,-146.9136 40.2892,-156.2223 50.0494,-152.1006 45.3487,-146.9136"/>
<text text-anchor="middle" x="86" y="-130" font-family="Helvetica,sans-Serif" font-size="10.00" fill="#000000"> equal</text>
</g>
<!-- Node5 -->
<g id="node4" class="node">
<title>Node5</title>
<polygon fill="#ffffff" stroke="#bfbfbf" points="77,-156.5 77,-175.5 142,-175.5 142,-156.5 77,-156.5"/>
<text text-anchor="middle" x="109.5" y="-163.5" font-family="Helvetica,sans-Serif" font-size="10.00" fill="#000000">KeyExtract</text>
</g>
<!-- Node5&#45;&gt;Node3 -->
<g id="edge3" class="edge">
<title>Node5&#45;&gt;Node3</title>
<path fill="none" stroke="#9a32cd" stroke-dasharray="5,2" d="M109.5,-146.0177C109.5,-134.2164 109.5,-119.513 109.5,-108.668"/>
<polygon fill="#9a32cd" stroke="#9a32cd" points="106.0001,-146.2223 109.5,-156.2223 113.0001,-146.2224 106.0001,-146.2223"/>
<text text-anchor="middle" x="137" y="-130" font-family="Helvetica,sans-Serif" font-size="10.00" fill="#000000"> key_extract</text>
</g>
<!-- Node6 -->
<g id="node5" class="node">
<title>Node6</title>
<polygon fill="#ffffff" stroke="#bfbfbf" points="167.5,-156.5 167.5,-175.5 207.5,-175.5 207.5,-156.5 167.5,-156.5"/>
<text text-anchor="middle" x="187.5" y="-163.5" font-family="Helvetica,sans-Serif" font-size="10.00" fill="#000000">Hash</text>
</g>
<!-- Node6&#45;&gt;Node3 -->
<g id="edge4" class="edge">
<title>Node6&#45;&gt;Node3</title>
<path fill="none" stroke="#9a32cd" stroke-dasharray="5,2" d="M179.3562,-147.097C175.7845,-140.2344 171.1146,-132.7596 165.5,-127 158.5409,-119.8612 149.749,-113.6718 141.2067,-108.6226"/>
<polygon fill="#9a32cd" stroke="#9a32cd" points="176.3398,-148.9049 183.7854,-156.4424 182.6653,-145.9069 176.3398,-148.9049"/>
<text text-anchor="middle" x="187" y="-130" font-family="Helvetica,sans-Serif" font-size="10.00" fill="#000000"> hash</text>
</g>
<!-- Node7 -->
<g id="node6" class="node">
<title>Node7</title>
<g id="a_node6"><a xlink:href="classnuspell_1_1_string___set.html" target="_top" xlink:title="nuspell::String_Set\l\&lt; char16_t \&gt;">
<polygon fill="#ffffff" stroke="#000000" points="194,-78.5 194,-108.5 293,-108.5 293,-78.5 194,-78.5"/>
<text text-anchor="start" x="202" y="-96.5" font-family="Helvetica,sans-Serif" font-size="10.00" fill="#000000">nuspell::String_Set</text>
<text text-anchor="middle" x="243.5" y="-85.5" font-family="Helvetica,sans-Serif" font-size="10.00" fill="#000000">&lt; char16_t &gt;</text>
</a>
</g>
</g>
<!-- Node7&#45;&gt;Node2 -->
<g id="edge5" class="edge">
<title>Node7&#45;&gt;Node2</title>
<path fill="none" stroke="#9a32cd" stroke-dasharray="5,2" d="M223.7535,-70.5116C212.7396,-57.6894 199.3255,-42.0729 189.6072,-30.7592"/>
<polygon fill="#9a32cd" stroke="#9a32cd" points="221.4108,-73.1557 230.5817,-78.4608 226.7208,-68.5945 221.4108,-73.1557"/>
<text text-anchor="middle" x="245.5" y="-52" font-family="Helvetica,sans-Serif" font-size="10.00" fill="#000000"> all_cont_flags</text>
</g>
</g>
</svg>
