<?xml version="1.0" encoding="UTF-8" standalone="no"?>
<!DOCTYPE svg PUBLIC "-//W3C//DTD SVG 1.1//EN"
 "http://www.w3.org/Graphics/SVG/1.1/DTD/svg11.dtd">
<!-- Generated by graphviz version 2.43.0 (0)
 -->
<!-- Title: nuspell::v4::Dictionary Pages: 1 -->
<svg width="769pt" height="443pt"
 viewBox="0.00 0.00 769.00 443.00" xmlns="http://www.w3.org/2000/svg" xmlns:xlink="http://www.w3.org/1999/xlink">
<g id="graph0" class="graph" transform="scale(1 1) rotate(0) translate(4 439)">
<title>nuspell::v4::Dictionary</title>
<polygon fill="white" stroke="transparent" points="-4,4 -4,-439 765,-439 765,4 -4,4"/>
<!-- Node1 -->
<g id="node1" class="node">
<title>Node1</title>
<g id="a_node1"><a xlink:title="The only important public class.">
<polygon fill="#bfbfbf" stroke="black" points="635,-219 635,-238 761,-238 761,-219 635,-219"/>
<text text-anchor="middle" x="698" y="-226" font-family="Helvetica,sans-Serif" font-size="10.00">nuspell::v4::Dictionary</text>
</a>
</g>
</g>
<!-- Node2 -->
<g id="node2" class="node">
<title>Node2</title>
<g id="a_node2"><a xlink:href="structnuspell_1_1v4_1_1_dict___base.html" target="_top" xlink:title=" ">
<polygon fill="white" stroke="black" points="473,-219 473,-238 598,-238 598,-219 473,-219"/>
<text text-anchor="middle" x="535.5" y="-226" font-family="Helvetica,sans-Serif" font-size="10.00">nuspell::v4::Dict_Base</text>
</a>
</g>
</g>
<!-- Node2&#45;&gt;Node1 -->
<g id="edge1" class="edge">
<title>Node2&#45;&gt;Node1</title>
<path fill="none" stroke="#8b1a1a" d="M608.35,-228.5C617.17,-228.5 626.12,-228.5 634.77,-228.5"/>
<polygon fill="#8b1a1a" stroke="#8b1a1a" points="608.09,-225 598.09,-228.5 608.09,-232 608.09,-225"/>
</g>
<!-- Node3 -->
<g id="node3" class="node">
<title>Node3</title>
<g id="a_node3"><a xlink:href="structnuspell_1_1v4_1_1_aff___data.html" target="_top" xlink:title=" ">
<polygon fill="white" stroke="black" points="318,-219 318,-238 436,-238 436,-219 318,-219"/>
<text text-anchor="middle" x="377" y="-226" font-family="Helvetica,sans-Serif" font-size="10.00">nuspell::v4::Aff_Data</text>
</a>
</g>
</g>
<!-- Node3&#45;&gt;Node2 -->
<g id="edge2" class="edge">
<title>Node3&#45;&gt;Node2</title>
<path fill="none" stroke="midnightblue" d="M446.45,-228.5C455.21,-228.5 464.13,-228.5 472.77,-228.5"/>
<polygon fill="midnightblue" stroke="midnightblue" points="446.27,-225 436.27,-228.5 446.27,-232 446.27,-225"/>
</g>
<!-- Node4 -->
<g id="node4" class="node">
<title>Node4</title>
<g id="a_node4"><a xlink:href="classnuspell_1_1v4_1_1_replacement___table.html" target="_top" xlink:title=" ">
<polygon fill="white" stroke="black" points="15,-404.5 15,-434.5 155,-434.5 155,-404.5 15,-404.5"/>
<text text-anchor="start" x="23" y="-422.5" font-family="Helvetica,sans-Serif" font-size="10.00">nuspell::v4::Replacement</text>
<text text-anchor="middle" x="85" y="-411.5" font-family="Helvetica,sans-Serif" font-size="10.00">_Table&lt; wchar_t &gt;</text>
</a>
</g>
</g>
<!-- Node4&#45;&gt;Node3 -->
<g id="edge3" class="edge">
<title>Node4&#45;&gt;Node3</title>
<path fill="none" stroke="#9a32cd" stroke-dasharray="5,2" d="M165.41,-422.14C208.98,-419.75 261.75,-410.14 300,-381.5 349.62,-344.34 368.87,-265.88 374.27,-238.32"/>
<polygon fill="#9a32cd" stroke="#9a32cd" points="165.25,-418.64 155.41,-422.57 165.55,-425.64 165.25,-418.64"/>
<text text-anchor="middle" x="244" y="-422.5" font-family="Helvetica,sans-Serif" font-size="10.00"> replacements</text>
</g>
<!-- Node5 -->
<g id="node5" class="node">
<title>Node5</title>
<g id="a_node5"><a xlink:href="classnuspell_1_1v4_1_1_phonetic___table.html" target="_top" xlink:title=" ">
<polygon fill="white" stroke="black" points="26,-355.5 26,-385.5 144,-385.5 144,-355.5 26,-355.5"/>
<text text-anchor="start" x="34" y="-373.5" font-family="Helvetica,sans-Serif" font-size="10.00">nuspell::v4::Phonetic</text>
<text text-anchor="middle" x="85" y="-362.5" font-family="Helvetica,sans-Serif" font-size="10.00">_Table&lt; wchar_t &gt;</text>
</a>
</g>
</g>
<!-- Node5&#45;&gt;Node3 -->
<g id="edge4" class="edge">
<title>Node5&#45;&gt;Node3</title>
<path fill="none" stroke="#9a32cd" stroke-dasharray="5,2" d="M154.34,-370.74C198.82,-367.98 256.45,-358.66 300,-331.5 337.52,-308.1 362.63,-258.84 371.96,-238.06"/>
<polygon fill="#9a32cd" stroke="#9a32cd" points="154,-367.25 144.2,-371.27 154.37,-374.24 154,-367.25"/>
<text text-anchor="middle" x="244" y="-369.5" font-family="Helvetica,sans-Serif" font-size="10.00"> phonetic_table</text>
</g>
<!-- Node6 -->
<g id="node6" class="node">
<title>Node6</title>
<g id="a_node6"><a xlink:href="classnuspell_1_1v4_1_1_substr___replacer.html" target="_top" xlink:title=" ">
<polygon fill="white" stroke="black" points="22.5,-306.5 22.5,-336.5 147.5,-336.5 147.5,-306.5 22.5,-306.5"/>
<text text-anchor="start" x="30.5" y="-324.5" font-family="Helvetica,sans-Serif" font-size="10.00">nuspell::v4::Substr</text>
<text text-anchor="middle" x="85" y="-313.5" font-family="Helvetica,sans-Serif" font-size="10.00">_Replacer&lt; wchar_t &gt;</text>
</a>
</g>
</g>
<!-- Node6&#45;&gt;Node3 -->
<g id="edge5" class="edge">
<title>Node6&#45;&gt;Node3</title>
<path fill="none" stroke="#9a32cd" stroke-dasharray="5,2" d="M157.51,-311.82C199.94,-304.61 254.22,-292.8 300,-274.5 323.77,-265 348.67,-248.48 363.24,-238.04"/>
<polygon fill="#9a32cd" stroke="#9a32cd" points="156.83,-308.39 147.54,-313.47 157.97,-315.29 156.83,-308.39"/>
<text text-anchor="middle" x="244" y="-319.5" font-family="Helvetica,sans-Serif" font-size="10.00"> input_substr_replacer</text>
<text text-anchor="middle" x="244" y="-308.5" font-family="Helvetica,sans-Serif" font-size="10.00">output_substr_replacer</text>
</g>
<!-- Node7 -->
<g id="node7" class="node">
<title>Node7</title>
<g id="a_node7"><a xlink:href="classnuspell_1_1v4_1_1_compound___rule___table.html" target="_top" xlink:title=" ">
<polygon fill="white" stroke="black" points="21,-257.5 21,-287.5 149,-287.5 149,-257.5 21,-257.5"/>
<text text-anchor="start" x="29" y="-275.5" font-family="Helvetica,sans-Serif" font-size="10.00">nuspell::v4::Compound</text>
<text text-anchor="middle" x="85" y="-264.5" font-family="Helvetica,sans-Serif" font-size="10.00">_Rule_Table</text>
</a>
</g>
</g>
<!-- Node7&#45;&gt;Node3 -->
<g id="edge6" class="edge">
<title>Node7&#45;&gt;Node3</title>
<path fill="none" stroke="#9a32cd" stroke-dasharray="5,2" d="M159.36,-263.67C200.74,-258.41 253.36,-251.26 300,-243.5 309.68,-241.89 320.03,-239.98 329.86,-238.07"/>
<polygon fill="#9a32cd" stroke="#9a32cd" points="158.84,-260.21 149.36,-264.93 159.72,-267.15 158.84,-260.21"/>
<text text-anchor="middle" x="244" y="-262.5" font-family="Helvetica,sans-Serif" font-size="10.00"> compound_rules</text>
</g>
<!-- Node8 -->
<g id="node8" class="node">
<title>Node8</title>
<g id="a_node8"><a xlink:href="classnuspell_1_1v4_1_1_encoding.html" target="_top" xlink:title=" ">
<polygon fill="white" stroke="black" points="25,-219 25,-238 145,-238 145,-219 25,-219"/>
<text text-anchor="middle" x="85" y="-226" font-family="Helvetica,sans-Serif" font-size="10.00">nuspell::v4::Encoding</text>
</a>
</g>
</g>
<!-- Node8&#45;&gt;Node3 -->
<g id="edge7" class="edge">
<title>Node8&#45;&gt;Node3</title>
<path fill="none" stroke="#9a32cd" stroke-dasharray="5,2" d="M155.34,-228.5C204.84,-228.5 270.7,-228.5 317.54,-228.5"/>
<polygon fill="#9a32cd" stroke="#9a32cd" points="155.04,-225 145.04,-228.5 155.04,-232 155.04,-225"/>
<text text-anchor="middle" x="244" y="-231.5" font-family="Helvetica,sans-Serif" font-size="10.00"> encoding</text>
</g>
<!-- Node9 -->
<g id="node9" class="node">
<title>Node9</title>
<g id="a_node9"><a xlink:href="classnuspell_1_1v4_1_1_prefix___table.html" target="_top" xlink:title=" ">
<polygon fill="white" stroke="black" points="33,-169.5 33,-199.5 137,-199.5 137,-169.5 33,-169.5"/>
<text text-anchor="start" x="41" y="-187.5" font-family="Helvetica,sans-Serif" font-size="10.00">nuspell::v4::Prefix</text>
<text text-anchor="middle" x="85" y="-176.5" font-family="Helvetica,sans-Serif" font-size="10.00">_Table</text>
</a>
</g>
</g>
<!-- Node9&#45;&gt;Node3 -->
<g id="edge8" class="edge">
<title>Node9&#45;&gt;Node3</title>
<path fill="none" stroke="#9a32cd" stroke-dasharray="5,2" d="M147.15,-191.79C190.03,-197.15 248.64,-204.96 300,-213.5 309.68,-215.11 320.03,-217.02 329.86,-218.93"/>
<polygon fill="#9a32cd" stroke="#9a32cd" points="147.51,-188.31 137.15,-190.55 146.64,-195.26 147.51,-188.31"/>
<text text-anchor="middle" x="244" y="-216.5" font-family="Helvetica,sans-Serif" font-size="10.00"> prefixes</text>
</g>
<!-- Node10 -->
<g id="node10" class="node">
<title>Node10</title>
<g id="a_node10"><a xlink:href="classnuspell_1_1v4_1_1_hash___multiset.html" target="_top" xlink:title=" ">
<polygon fill="white" stroke="black" points="0,-98.5 0,-150.5 170,-150.5 170,-98.5 0,-98.5"/>
<text text-anchor="start" x="8" y="-138.5" font-family="Helvetica,sans-Serif" font-size="10.00">nuspell::v4::Hash_Multiset</text>
<text text-anchor="start" x="8" y="-127.5" font-family="Helvetica,sans-Serif" font-size="10.00">&lt; std::pair&lt; std::wstring,</text>
<text text-anchor="start" x="8" y="-116.5" font-family="Helvetica,sans-Serif" font-size="10.00"> Flag_Set &gt;, std::wstring,</text>
<text text-anchor="middle" x="85" y="-105.5" font-family="Helvetica,sans-Serif" font-size="10.00"> Extractor_First_of_Word_Pair &gt;</text>
</a>
</g>
</g>
<!-- Node10&#45;&gt;Node3 -->
<g id="edge9" class="edge">
<title>Node10&#45;&gt;Node3</title>
<path fill="none" stroke="#9a32cd" stroke-dasharray="5,2" d="M180.28,-143.29C218.31,-152.49 262.08,-165.15 300,-181.5 323.65,-191.7 348.58,-208.43 363.19,-218.94"/>
<polygon fill="#9a32cd" stroke="#9a32cd" points="180.76,-139.81 170.22,-140.91 179.15,-146.62 180.76,-139.81"/>
<text text-anchor="middle" x="244" y="-184.5" font-family="Helvetica,sans-Serif" font-size="10.00"> words</text>
</g>
<!-- Node11 -->
<g id="node11" class="node">
<title>Node11</title>
<g id="a_node11"><a xlink:href="classnuspell_1_1v4_1_1_break___table.html" target="_top" xlink:title=" ">
<polygon fill="white" stroke="black" points="31,-49.5 31,-79.5 139,-79.5 139,-49.5 31,-49.5"/>
<text text-anchor="start" x="39" y="-67.5" font-family="Helvetica,sans-Serif" font-size="10.00">nuspell::v4::Break</text>
<text text-anchor="middle" x="85" y="-56.5" font-family="Helvetica,sans-Serif" font-size="10.00">_Table&lt; wchar_t &gt;</text>
</a>
</g>
</g>
<!-- Node11&#45;&gt;Node3 -->
<g id="edge10" class="edge">
<title>Node11&#45;&gt;Node3</title>
<path fill="none" stroke="#9a32cd" stroke-dasharray="5,2" d="M149.22,-73.46C194.4,-82.26 254.91,-99.1 300,-130.5 334.63,-154.62 360.78,-199.25 371.14,-218.85"/>
<polygon fill="#9a32cd" stroke="#9a32cd" points="149.72,-70 139.25,-71.61 148.44,-76.88 149.72,-70"/>
<text text-anchor="middle" x="244" y="-133.5" font-family="Helvetica,sans-Serif" font-size="10.00"> break_table</text>
</g>
<!-- Node12 -->
<g id="node12" class="node">
<title>Node12</title>
<g id="a_node12"><a xlink:href="classnuspell_1_1v4_1_1_suffix___table.html" target="_top" xlink:title=" ">
<polygon fill="white" stroke="black" points="33,-0.5 33,-30.5 137,-30.5 137,-0.5 33,-0.5"/>
<text text-anchor="start" x="41" y="-18.5" font-family="Helvetica,sans-Serif" font-size="10.00">nuspell::v4::Suffix</text>
<text text-anchor="middle" x="85" y="-7.5" font-family="Helvetica,sans-Serif" font-size="10.00">_Table</text>
</a>
</g>
</g>
<!-- Node12&#45;&gt;Node3 -->
<g id="edge11" class="edge">
<title>Node12&#45;&gt;Node3</title>
<path fill="none" stroke="#9a32cd" stroke-dasharray="5,2" d="M147.55,-16.59C194.06,-20.43 257.02,-32.46 300,-67.5 350.31,-108.52 369.22,-190.58 374.39,-218.75"/>
<polygon fill="#9a32cd" stroke="#9a32cd" points="147.52,-13.08 137.29,-15.85 147.01,-20.06 147.52,-13.08"/>
<text text-anchor="middle" x="244" y="-70.5" font-family="Helvetica,sans-Serif" font-size="10.00"> suffixes</text>
</g>
</g>
</svg>
