<?xml version="1.0" encoding="UTF-8" standalone="no"?>
<!DOCTYPE svg PUBLIC "-//W3C//DTD SVG 1.1//EN"
 "http://www.w3.org/Graphics/SVG/1.1/DTD/svg11.dtd">
<!-- Generated by graphviz version 2.40.1 (20161225.0304)
 -->
<!-- Title: nuspell::List_Strings::swap Pages: 1 -->
<svg width="226pt" height="39pt"
 viewBox="0.00 0.00 226.00 39.00" xmlns="http://www.w3.org/2000/svg" xmlns:xlink="http://www.w3.org/1999/xlink">
<g id="graph0" class="graph" transform="scale(1 1) rotate(0) translate(4 35)">
<title>nuspell::List_Strings::swap</title>
<polygon fill="#ffffff" stroke="transparent" points="-4,4 -4,-35 222,-35 222,4 -4,4"/>
<!-- Node192 -->
<g id="node1" class="node">
<title>Node192</title>
<polygon fill="#bfbfbf" stroke="#000000" points="0,-.5 0,-30.5 105,-30.5 105,-.5 0,-.5"/>
<text text-anchor="start" x="8" y="-18.5" font-family="Helvetica,sans-Serif" font-size="10.00" fill="#000000">nuspell::List_Strings</text>
<text text-anchor="middle" x="52.5" y="-7.5" font-family="Helvetica,sans-Serif" font-size="10.00" fill="#000000">::swap</text>
</g>
<!-- Node193 -->
<g id="node2" class="node">
<title>Node193</title>
<g id="a_node2"><a xlink:href="namespacenuspell.html#a4e7a07dbabd9c03a5fdb85516e225ac2" target="_top" xlink:title="nuspell::swap">
<polygon fill="#ffffff" stroke="#000000" points="141,-6 141,-25 218,-25 218,-6 141,-6"/>
<text text-anchor="middle" x="179.5" y="-13" font-family="Helvetica,sans-Serif" font-size="10.00" fill="#000000">nuspell::swap</text>
</a>
</g>
</g>
<!-- Node192&#45;&gt;Node193 -->
<g id="edge1" class="edge">
<title>Node192&#45;&gt;Node193</title>
<path fill="none" stroke="#191970" d="M115.3454,-8.7503C123.9789,-8.7419 132.6285,-8.8999 140.6557,-9.2242"/>
<polygon fill="#191970" stroke="#191970" points="115.2258,-5.2511 105.2561,-8.8366 115.2857,-12.2509 115.2258,-5.2511"/>
</g>
<!-- Node193&#45;&gt;Node192 -->
<g id="edge2" class="edge">
<title>Node193&#45;&gt;Node192</title>
<path fill="none" stroke="#191970" d="M130.4354,-22.0925C122.1862,-22.2754 113.5939,-22.299 105.2561,-22.1634"/>
<polygon fill="#191970" stroke="#191970" points="130.769,-25.584 140.6557,-21.7758 130.5521,-18.5873 130.769,-25.584"/>
</g>
</g>
</svg>
