<?xml version="1.0" encoding="UTF-8" standalone="no"?>
<!DOCTYPE svg PUBLIC "-//W3C//DTD SVG 1.1//EN"
 "http://www.w3.org/Graphics/SVG/1.1/DTD/svg11.dtd">
<!-- Generated by graphviz version 2.40.1 (20161225.0304)
 -->
<!-- Title: nuspell::Word_List::equal_range Pages: 1 -->
<svg width="377pt" height="39pt"
 viewBox="0.00 0.00 377.00 39.00" xmlns="http://www.w3.org/2000/svg" xmlns:xlink="http://www.w3.org/1999/xlink">
<g id="graph0" class="graph" transform="scale(1 1) rotate(0) translate(4 35)">
<title>nuspell::Word_List::equal_range</title>
<polygon fill="#ffffff" stroke="transparent" points="-4,4 -4,-35 373,-35 373,4 -4,4"/>
<!-- Node0 -->
<g id="node1" class="node">
<title>Node0</title>
<polygon fill="#bfbfbf" stroke="#000000" points="0,-.5 0,-30.5 98,-30.5 98,-.5 0,-.5"/>
<text text-anchor="start" x="8" y="-18.5" font-family="Helvetica,sans-Serif" font-size="10.00" fill="#000000">nuspell::Word_List</text>
<text text-anchor="middle" x="49" y="-7.5" font-family="Helvetica,sans-Serif" font-size="10.00" fill="#000000">::equal_range</text>
</g>
<!-- Node1 -->
<g id="node2" class="node">
<title>Node1</title>
<g id="a_node2"><a xlink:href="namespacenuspell.html#ad4e8221da9ce95908ecd5a60ac3ae08c" target="_top" xlink:title="nuspell::wide_to_utf8">
<polygon fill="#ffffff" stroke="#000000" points="134,-6 134,-25 243,-25 243,-6 134,-6"/>
<text text-anchor="middle" x="188.5" y="-13" font-family="Helvetica,sans-Serif" font-size="10.00" fill="#000000">nuspell::wide_to_utf8</text>
</a>
</g>
</g>
<!-- Node0&#45;&gt;Node1 -->
<g id="edge1" class="edge">
<title>Node0&#45;&gt;Node1</title>
<path fill="none" stroke="#191970" d="M98.1825,-15.5C106.3246,-15.5 114.8774,-15.5 123.3398,-15.5"/>
<polygon fill="#191970" stroke="#191970" points="123.5834,-19.0001 133.5834,-15.5 123.5833,-12.0001 123.5834,-19.0001"/>
</g>
<!-- Node2 -->
<g id="node3" class="node">
<title>Node2</title>
<g id="a_node3"><a xlink:href="namespacenuspell.html#ade7ffffeb6a7e872e46bb96f4b1e4eea" target="_top" xlink:title="nuspell::valid_utf\l_to_utf">
<polygon fill="#ffffff" stroke="#000000" points="279,-.5 279,-30.5 369,-30.5 369,-.5 279,-.5"/>
<text text-anchor="start" x="287" y="-18.5" font-family="Helvetica,sans-Serif" font-size="10.00" fill="#000000">nuspell::valid_utf</text>
<text text-anchor="middle" x="324" y="-7.5" font-family="Helvetica,sans-Serif" font-size="10.00" fill="#000000">_to_utf</text>
</a>
</g>
</g>
<!-- Node1&#45;&gt;Node2 -->
<g id="edge2" class="edge">
<title>Node1&#45;&gt;Node2</title>
<path fill="none" stroke="#191970" d="M243.2225,-15.5C251.5774,-15.5 260.207,-15.5 268.5768,-15.5"/>
<polygon fill="#191970" stroke="#191970" points="268.6214,-19.0001 278.6214,-15.5 268.6214,-12.0001 268.6214,-19.0001"/>
</g>
</g>
</svg>
