<?xml version="1.0" encoding="UTF-8" standalone="no"?>
<!DOCTYPE svg PUBLIC "-//W3C//DTD SVG 1.1//EN"
 "http://www.w3.org/Graphics/SVG/1.1/DTD/svg11.dtd">
<!-- Generated by graphviz version 2.40.1 (20161225.0304)
 -->
<!-- Title: nuspell::Dictionary::suggest Pages: 1 -->
<svg width="344pt" height="104pt"
 viewBox="0.00 0.00 344.00 104.00" xmlns="http://www.w3.org/2000/svg" xmlns:xlink="http://www.w3.org/1999/xlink">
<g id="graph0" class="graph" transform="scale(1 1) rotate(0) translate(4 100)">
<title>nuspell::Dictionary::suggest</title>
<polygon fill="#ffffff" stroke="transparent" points="-4,4 -4,-100 340,-100 340,4 -4,4"/>
<!-- Node31 -->
<g id="node1" class="node">
<title>Node31</title>
<polygon fill="#bfbfbf" stroke="#000000" points="0,-33 0,-63 98,-63 98,-33 0,-33"/>
<text text-anchor="start" x="8" y="-51" font-family="Helvetica,sans-Serif" font-size="10.00" fill="#000000">nuspell::Dictionary</text>
<text text-anchor="middle" x="49" y="-40" font-family="Helvetica,sans-Serif" font-size="10.00" fill="#000000">::suggest</text>
</g>
<!-- Node32 -->
<g id="node2" class="node">
<title>Node32</title>
<g id="a_node2"><a xlink:href="main_8cxx.html#a1b26793ef57883beab96fb3f93153e59" target="_top" xlink:title="Normal loop, tokenize and check spelling. ">
<polygon fill="#ffffff" stroke="#000000" points="163.5,-76.5 163.5,-95.5 232.5,-95.5 232.5,-76.5 163.5,-76.5"/>
<text text-anchor="middle" x="198" y="-83.5" font-family="Helvetica,sans-Serif" font-size="10.00" fill="#000000">normal_loop</text>
</a>
</g>
</g>
<!-- Node31&#45;&gt;Node32 -->
<g id="edge1" class="edge">
<title>Node31&#45;&gt;Node32</title>
<path fill="none" stroke="#191970" d="M107.8946,-63.0201C126.7257,-67.8227 146.9495,-72.9804 163.4565,-77.1903"/>
<polygon fill="#191970" stroke="#191970" points="108.7559,-59.6278 98.2011,-60.5479 107.026,-66.4107 108.7559,-59.6278"/>
</g>
<!-- Node34 -->
<g id="node4" class="node">
<title>Node34</title>
<g id="a_node4"><a xlink:href="main_8cxx.html#a4e73c17f0cea2b14e0f5a32e2e174f11" target="_top" xlink:title="Normal loop, tokenize and check spelling. ">
<polygon fill="#ffffff" stroke="#000000" points="159.5,-38.5 159.5,-57.5 236.5,-57.5 236.5,-38.5 159.5,-38.5"/>
<text text-anchor="middle" x="198" y="-45.5" font-family="Helvetica,sans-Serif" font-size="10.00" fill="#000000">segment_loop</text>
</a>
</g>
</g>
<!-- Node31&#45;&gt;Node34 -->
<g id="edge3" class="edge">
<title>Node31&#45;&gt;Node34</title>
<path fill="none" stroke="#191970" d="M108.6357,-48C125.6726,-48 143.7906,-48 159.2273,-48"/>
<polygon fill="#191970" stroke="#191970" points="108.2011,-44.5001 98.2011,-48 108.2011,-51.5001 108.2011,-44.5001"/>
</g>
<!-- Node35 -->
<g id="node5" class="node">
<title>Node35</title>
<g id="a_node5"><a xlink:href="main_8cxx.html#a42fbab96f4709cbe51a87aa1c800149d" target="_top" xlink:title="Normal loop, tokenize and check spelling. ">
<polygon fill="#ffffff" stroke="#000000" points="134,-.5 134,-19.5 262,-19.5 262,-.5 134,-.5"/>
<text text-anchor="middle" x="198" y="-7.5" font-family="Helvetica,sans-Serif" font-size="10.00" fill="#000000">segment_nosuggest_loop</text>
</a>
</g>
</g>
<!-- Node31&#45;&gt;Node35 -->
<g id="edge5" class="edge">
<title>Node31&#45;&gt;Node35</title>
<path fill="none" stroke="#191970" d="M107.9193,-32.9736C125.6903,-28.4414 144.6994,-23.5934 160.6534,-19.5246"/>
<polygon fill="#191970" stroke="#191970" points="107.026,-29.5893 98.2011,-35.4521 108.7559,-36.3722 107.026,-29.5893"/>
</g>
<!-- Node33 -->
<g id="node3" class="node">
<title>Node33</title>
<g id="a_node3"><a xlink:href="main_8cxx.html#a0ddf1224851353fc92bfbff6f499fa97" target="_top" xlink:title="main">
<polygon fill="#ffffff" stroke="#000000" points="298,-38.5 298,-57.5 336,-57.5 336,-38.5 298,-38.5"/>
<text text-anchor="middle" x="317" y="-45.5" font-family="Helvetica,sans-Serif" font-size="10.00" fill="#000000">main</text>
</a>
</g>
</g>
<!-- Node32&#45;&gt;Node33 -->
<g id="edge2" class="edge">
<title>Node32&#45;&gt;Node33</title>
<path fill="none" stroke="#191970" d="M241.2955,-73.4283C248.2353,-71.3322 255.3268,-69.1421 262,-67 274.0236,-63.1405 287.4185,-58.5201 297.9788,-54.802"/>
<polygon fill="#191970" stroke="#191970" points="239.8814,-70.1979 231.3027,-76.4154 241.8863,-76.9047 239.8814,-70.1979"/>
</g>
<!-- Node34&#45;&gt;Node33 -->
<g id="edge4" class="edge">
<title>Node34&#45;&gt;Node33</title>
<path fill="none" stroke="#191970" d="M246.7267,-48C264.7073,-48 284.0458,-48 297.8754,-48"/>
<polygon fill="#191970" stroke="#191970" points="246.6359,-44.5001 236.6359,-48 246.6359,-51.5001 246.6359,-44.5001"/>
</g>
<!-- Node35&#45;&gt;Node33 -->
<g id="edge6" class="edge">
<title>Node35&#45;&gt;Node33</title>
<path fill="none" stroke="#191970" d="M241.2955,-22.5717C248.2353,-24.6678 255.3268,-26.8579 262,-29 274.0236,-32.8595 287.4185,-37.4799 297.9788,-41.198"/>
<polygon fill="#191970" stroke="#191970" points="241.8863,-19.0953 231.3027,-19.5846 239.8814,-25.8021 241.8863,-19.0953"/>
</g>
</g>
</svg>
