<?xml version="1.0" encoding="UTF-8" standalone="no"?>
<!DOCTYPE svg PUBLIC "-//W3C//DTD SVG 1.1//EN"
 "http://www.w3.org/Graphics/SVG/1.1/DTD/svg11.dtd">
<!-- Generated by graphviz version 2.40.1 (20161225.0304)
 -->
<!-- Title: nuspell::String_Set::insert Pages: 1 -->
<svg width="279pt" height="382pt"
 viewBox="0.00 0.00 279.00 382.00" xmlns="http://www.w3.org/2000/svg" xmlns:xlink="http://www.w3.org/1999/xlink">
<g id="graph0" class="graph" transform="scale(1 1) rotate(0) translate(4 378)">
<title>nuspell::String_Set::insert</title>
<polygon fill="#ffffff" stroke="transparent" points="-4,4 -4,-378 275,-378 275,4 -4,4"/>
<!-- Node116 -->
<g id="node1" class="node">
<title>Node116</title>
<polygon fill="#bfbfbf" stroke="#000000" points="0,-171.5 0,-201.5 99,-201.5 99,-171.5 0,-171.5"/>
<text text-anchor="start" x="8" y="-189.5" font-family="Helvetica,sans-Serif" font-size="10.00" fill="#000000">nuspell::String_Set</text>
<text text-anchor="middle" x="49.5" y="-178.5" font-family="Helvetica,sans-Serif" font-size="10.00" fill="#000000">::insert</text>
</g>
<!-- Node117 -->
<g id="node2" class="node">
<title>Node117</title>
<g id="a_node2"><a xlink:href="classnuspell_1_1_string___set.html#ab1f37692d007cd4991d39892bd92f8f9" target="_top" xlink:title="nuspell::String_Set\l\&lt; char16_t \&gt;::insert">
<polygon fill="#ffffff" stroke="#000000" points="152,-343.5 152,-373.5 254,-373.5 254,-343.5 152,-343.5"/>
<text text-anchor="start" x="160" y="-361.5" font-family="Helvetica,sans-Serif" font-size="10.00" fill="#000000">nuspell::String_Set</text>
<text text-anchor="middle" x="203" y="-350.5" font-family="Helvetica,sans-Serif" font-size="10.00" fill="#000000">&lt; char16_t &gt;::insert</text>
</a>
</g>
</g>
<!-- Node116&#45;&gt;Node117 -->
<g id="edge1" class="edge">
<title>Node116&#45;&gt;Node117</title>
<path fill="none" stroke="#191970" d="M57.7534,-211.5782C69.7509,-244.3075 95.0403,-301.3102 135,-334.5 140.0079,-338.6595 145.787,-342.1194 151.8174,-344.9924"/>
<polygon fill="#191970" stroke="#191970" points="60.9536,-210.1294 54.3234,-201.8656 54.3531,-212.4604 60.9536,-210.1294"/>
</g>
<!-- Node118 -->
<g id="node3" class="node">
<title>Node118</title>
<g id="a_node3"><a xlink:href="classnuspell_1_1_string___set.html#acd595401fd3c097080f9fb7d189eca01" target="_top" xlink:title="nuspell::String_Set\l\&lt; char16_t \&gt;::emplace">
<polygon fill="#ffffff" stroke="#000000" points="145.5,-294.5 145.5,-324.5 260.5,-324.5 260.5,-294.5 145.5,-294.5"/>
<text text-anchor="start" x="153.5" y="-312.5" font-family="Helvetica,sans-Serif" font-size="10.00" fill="#000000">nuspell::String_Set</text>
<text text-anchor="middle" x="203" y="-301.5" font-family="Helvetica,sans-Serif" font-size="10.00" fill="#000000">&lt; char16_t &gt;::emplace</text>
</a>
</g>
</g>
<!-- Node116&#45;&gt;Node118 -->
<g id="edge2" class="edge">
<title>Node116&#45;&gt;Node118</title>
<path fill="none" stroke="#191970" d="M64.6627,-210.3103C79.9593,-232.5845 105.4892,-265.3597 135,-285.5 139.9635,-288.8875 145.4563,-291.8484 151.1054,-294.4236"/>
<polygon fill="#191970" stroke="#191970" points="67.4112,-208.1243 58.9392,-201.7622 61.5946,-212.0189 67.4112,-208.1243"/>
</g>
<!-- Node119 -->
<g id="node4" class="node">
<title>Node119</title>
<g id="a_node4"><a xlink:href="classnuspell_1_1_string___set.html#a35b84b7cb4bb4c133fc09558ea787f9c" target="_top" xlink:title="nuspell::String_Set\l\&lt; char16_t \&gt;::emplace_hint">
<polygon fill="#ffffff" stroke="#000000" points="135,-245.5 135,-275.5 271,-275.5 271,-245.5 135,-245.5"/>
<text text-anchor="start" x="143" y="-263.5" font-family="Helvetica,sans-Serif" font-size="10.00" fill="#000000">nuspell::String_Set</text>
<text text-anchor="middle" x="203" y="-252.5" font-family="Helvetica,sans-Serif" font-size="10.00" fill="#000000">&lt; char16_t &gt;::emplace_hint</text>
</a>
</g>
</g>
<!-- Node116&#45;&gt;Node119 -->
<g id="edge3" class="edge">
<title>Node116&#45;&gt;Node119</title>
<path fill="none" stroke="#191970" d="M81.2557,-207.0146C97.0327,-216.6988 116.613,-227.973 135,-236.5 141.8145,-239.6602 149.17,-242.6574 156.4386,-245.3944"/>
<polygon fill="#191970" stroke="#191970" points="82.7829,-203.8426 72.4437,-201.5292 79.0836,-209.7853 82.7829,-203.8426"/>
</g>
<!-- Node120 -->
<g id="node5" class="node">
<title>Node120</title>
<g id="a_node5"><a xlink:href="classnuspell_1_1_string___set.html#a29bba9e9532fd76ef05c7fb7364a400c" target="_top" xlink:title="nuspell::String_Set\l\&lt; char16_t \&gt;::operator+=">
<polygon fill="#ffffff" stroke="#000000" points="140.5,-196.5 140.5,-226.5 265.5,-226.5 265.5,-196.5 140.5,-196.5"/>
<text text-anchor="start" x="148.5" y="-214.5" font-family="Helvetica,sans-Serif" font-size="10.00" fill="#000000">nuspell::String_Set</text>
<text text-anchor="middle" x="203" y="-203.5" font-family="Helvetica,sans-Serif" font-size="10.00" fill="#000000">&lt; char16_t &gt;::operator+=</text>
</a>
</g>
</g>
<!-- Node116&#45;&gt;Node120 -->
<g id="edge4" class="edge">
<title>Node116&#45;&gt;Node120</title>
<path fill="none" stroke="#191970" d="M109.3143,-196.2418C119.4582,-197.8938 130.0174,-199.6136 140.2344,-201.2776"/>
<polygon fill="#191970" stroke="#191970" points="109.7697,-192.7699 99.3371,-194.6168 108.6444,-199.6788 109.7697,-192.7699"/>
</g>
<!-- Node121 -->
<g id="node6" class="node">
<title>Node121</title>
<g id="a_node6"><a xlink:href="classnuspell_1_1_hash___multiset.html#add985b0c608c3468b03ad1eaaba93d80" target="_top" xlink:title="nuspell::Hash_Multiset\l::emplace">
<polygon fill="#ffffff" stroke="#000000" points="145,-147.5 145,-177.5 261,-177.5 261,-147.5 145,-147.5"/>
<text text-anchor="start" x="153" y="-165.5" font-family="Helvetica,sans-Serif" font-size="10.00" fill="#000000">nuspell::Hash_Multiset</text>
<text text-anchor="middle" x="203" y="-154.5" font-family="Helvetica,sans-Serif" font-size="10.00" fill="#000000">::emplace</text>
</a>
</g>
</g>
<!-- Node116&#45;&gt;Node121 -->
<g id="edge5" class="edge">
<title>Node116&#45;&gt;Node121</title>
<path fill="none" stroke="#191970" d="M109.4122,-177.1326C121.0696,-175.31 133.2721,-173.4021 144.8708,-171.5886"/>
<polygon fill="#191970" stroke="#191970" points="108.6763,-173.7051 99.3371,-178.7079 109.7577,-180.621 108.6763,-173.7051"/>
</g>
<!-- Node122 -->
<g id="node7" class="node">
<title>Node122</title>
<g id="a_node7"><a xlink:href="classnuspell_1_1_list___strings.html#a42c76cd55f1873495d3b154d1ae2e3e9" target="_top" xlink:title="nuspell::List_Strings\l::operator=">
<polygon fill="#ffffff" stroke="#000000" points="150.5,-98.5 150.5,-128.5 255.5,-128.5 255.5,-98.5 150.5,-98.5"/>
<text text-anchor="start" x="158.5" y="-116.5" font-family="Helvetica,sans-Serif" font-size="10.00" fill="#000000">nuspell::List_Strings</text>
<text text-anchor="middle" x="203" y="-105.5" font-family="Helvetica,sans-Serif" font-size="10.00" fill="#000000">::operator=</text>
</a>
</g>
</g>
<!-- Node116&#45;&gt;Node122 -->
<g id="edge6" class="edge">
<title>Node116&#45;&gt;Node122</title>
<path fill="none" stroke="#191970" d="M82.7546,-166.2014C98.3201,-157.1267 117.2952,-146.6612 135,-138.5 142.5391,-135.0247 150.7107,-131.6797 158.6874,-128.6288"/>
<polygon fill="#191970" stroke="#191970" points="80.853,-163.2595 74.0192,-171.3558 84.4104,-169.2883 80.853,-163.2595"/>
</g>
<!-- Node123 -->
<g id="node8" class="node">
<title>Node123</title>
<g id="a_node8"><a xlink:href="classnuspell_1_1_list___strings.html#ab7b785b7377c62fd31cf1292c0dbd3ee" target="_top" xlink:title="nuspell::List_Strings\l::assign">
<polygon fill="#ffffff" stroke="#000000" points="150.5,-49.5 150.5,-79.5 255.5,-79.5 255.5,-49.5 150.5,-49.5"/>
<text text-anchor="start" x="158.5" y="-67.5" font-family="Helvetica,sans-Serif" font-size="10.00" fill="#000000">nuspell::List_Strings</text>
<text text-anchor="middle" x="203" y="-56.5" font-family="Helvetica,sans-Serif" font-size="10.00" fill="#000000">::assign</text>
</a>
</g>
</g>
<!-- Node116&#45;&gt;Node123 -->
<g id="edge7" class="edge">
<title>Node116&#45;&gt;Node123</title>
<path fill="none" stroke="#191970" d="M65.0865,-162.902C80.53,-141.1561 106.0209,-109.3392 135,-89.5 140.5008,-85.7341 146.6386,-82.456 152.9137,-79.6251"/>
<polygon fill="#191970" stroke="#191970" points="62.1138,-161.0468 59.2925,-171.2591 67.8665,-165.0352 62.1138,-161.0468"/>
</g>
<!-- Node124 -->
<g id="node9" class="node">
<title>Node124</title>
<g id="a_node9"><a xlink:href="classnuspell_1_1_list___strings.html#a6bbd9ee23bea18b787fe62d2960771d2" target="_top" xlink:title="nuspell::List_Strings\l::insert">
<polygon fill="#ffffff" stroke="#000000" points="150.5,-.5 150.5,-30.5 255.5,-30.5 255.5,-.5 150.5,-.5"/>
<text text-anchor="start" x="158.5" y="-18.5" font-family="Helvetica,sans-Serif" font-size="10.00" fill="#000000">nuspell::List_Strings</text>
<text text-anchor="middle" x="203" y="-7.5" font-family="Helvetica,sans-Serif" font-size="10.00" fill="#000000">::insert</text>
</a>
</g>
</g>
<!-- Node116&#45;&gt;Node124 -->
<g id="edge8" class="edge">
<title>Node116&#45;&gt;Node124</title>
<path fill="none" stroke="#191970" d="M57.9097,-161.8366C70.0805,-129.6337 95.5614,-73.4944 135,-40.5 139.6307,-36.626 144.9155,-33.3258 150.4463,-30.5205"/>
<polygon fill="#191970" stroke="#191970" points="54.5632,-160.7974 54.425,-171.3914 61.1395,-163.1959 54.5632,-160.7974"/>
</g>
</g>
</svg>
