<?xml version="1.0" encoding="UTF-8" standalone="no"?>
<!DOCTYPE svg PUBLIC "-//W3C//DTD SVG 1.1//EN"
 "http://www.w3.org/Graphics/SVG/1.1/DTD/svg11.dtd">
<!-- Generated by graphviz version 2.40.1 (20161225.0304)
 -->
<!-- Title: nuspell::Word_List Pages: 1 -->
<svg width="216pt" height="152pt"
 viewBox="0.00 0.00 215.50 152.00" xmlns="http://www.w3.org/2000/svg" xmlns:xlink="http://www.w3.org/1999/xlink">
<g id="graph0" class="graph" transform="scale(1 1) rotate(0) translate(4 148)">
<title>nuspell::Word_List</title>
<polygon fill="#ffffff" stroke="transparent" points="-4,4 -4,-148 211.5,-148 211.5,4 -4,4"/>
<!-- Node2 -->
<g id="node1" class="node">
<title>Node2</title>
<polygon fill="#bfbfbf" stroke="#000000" points="60.5,-.5 60.5,-19.5 158.5,-19.5 158.5,-.5 60.5,-.5"/>
<text text-anchor="middle" x="109.5" y="-7.5" font-family="Helvetica,sans-Serif" font-size="10.00" fill="#000000">nuspell::Word_List</text>
</g>
<!-- Node3 -->
<g id="node2" class="node">
<title>Node3</title>
<g id="a_node2"><a xlink:href="classnuspell_1_1_hash___multiset.html" target="_top" xlink:title="Word_List_Base">
<polygon fill="#ffffff" stroke="#000000" points="65,-57.5 65,-76.5 154,-76.5 154,-57.5 65,-57.5"/>
<text text-anchor="middle" x="109.5" y="-64.5" font-family="Helvetica,sans-Serif" font-size="10.00" fill="#000000">Word_List_Base</text>
</a>
</g>
</g>
<!-- Node3&#45;&gt;Node2 -->
<g id="edge1" class="edge">
<title>Node3&#45;&gt;Node2</title>
<path fill="none" stroke="#191970" d="M109.5,-47.2342C109.5,-37.8491 109.5,-27.0651 109.5,-19.5265"/>
<polygon fill="#191970" stroke="#191970" points="106.0001,-47.3307 109.5,-57.3307 113.0001,-47.3308 106.0001,-47.3307"/>
</g>
<!-- Node4 -->
<g id="node3" class="node">
<title>Node4</title>
<polygon fill="#ffffff" stroke="#bfbfbf" points="0,-124.5 0,-143.5 59,-143.5 59,-124.5 0,-124.5"/>
<text text-anchor="middle" x="29.5" y="-131.5" font-family="Helvetica,sans-Serif" font-size="10.00" fill="#000000">KeyEqual</text>
</g>
<!-- Node4&#45;&gt;Node3 -->
<g id="edge2" class="edge">
<title>Node4&#45;&gt;Node3</title>
<path fill="none" stroke="#9a32cd" stroke-dasharray="5,2" d="M48.8442,-117.7992C64.2306,-104.9131 85.2365,-87.3207 98.0592,-76.5817"/>
<polygon fill="#9a32cd" stroke="#9a32cd" points="46.3813,-115.2965 40.962,-124.4005 50.8758,-120.6631 46.3813,-115.2965"/>
<text text-anchor="middle" x="87" y="-98" font-family="Helvetica,sans-Serif" font-size="10.00" fill="#000000"> equal</text>
</g>
<!-- Node5 -->
<g id="node4" class="node">
<title>Node5</title>
<polygon fill="#ffffff" stroke="#bfbfbf" points="77,-124.5 77,-143.5 142,-143.5 142,-124.5 77,-124.5"/>
<text text-anchor="middle" x="109.5" y="-131.5" font-family="Helvetica,sans-Serif" font-size="10.00" fill="#000000">KeyExtract</text>
</g>
<!-- Node5&#45;&gt;Node3 -->
<g id="edge3" class="edge">
<title>Node5&#45;&gt;Node3</title>
<path fill="none" stroke="#9a32cd" stroke-dasharray="5,2" d="M109.5,-114.1079C109.5,-101.714 109.5,-86.3263 109.5,-76.5817"/>
<polygon fill="#9a32cd" stroke="#9a32cd" points="106.0001,-114.4005 109.5,-124.4005 113.0001,-114.4006 106.0001,-114.4005"/>
<text text-anchor="middle" x="137" y="-98" font-family="Helvetica,sans-Serif" font-size="10.00" fill="#000000"> key_extract</text>
</g>
<!-- Node6 -->
<g id="node5" class="node">
<title>Node6</title>
<polygon fill="#ffffff" stroke="#bfbfbf" points="167.5,-124.5 167.5,-143.5 207.5,-143.5 207.5,-124.5 167.5,-124.5"/>
<text text-anchor="middle" x="187.5" y="-131.5" font-family="Helvetica,sans-Serif" font-size="10.00" fill="#000000">Hash</text>
</g>
<!-- Node6&#45;&gt;Node3 -->
<g id="edge4" class="edge">
<title>Node6&#45;&gt;Node3</title>
<path fill="none" stroke="#9a32cd" stroke-dasharray="5,2" d="M179.5833,-114.8671C176.0387,-107.9772 171.3279,-100.5438 165.5,-95 157.2306,-87.1337 146.3239,-81.0098 136.3344,-76.5224"/>
<polygon fill="#9a32cd" stroke="#9a32cd" points="176.5651,-116.6794 183.9365,-124.2894 182.9196,-113.7435 176.5651,-116.6794"/>
<text text-anchor="middle" x="186" y="-98" font-family="Helvetica,sans-Serif" font-size="10.00" fill="#000000"> hash</text>
</g>
</g>
</svg>
