<?xml version="1.0" encoding="UTF-8" standalone="no"?>
<!DOCTYPE svg PUBLIC "-//W3C//DTD SVG 1.1//EN"
 "http://www.w3.org/Graphics/SVG/1.1/DTD/svg11.dtd">
<!-- Generated by graphviz version 2.40.1 (20161225.0304)
 -->
<!-- Title: My_Dictionary::spell Pages: 1 -->
<svg width="352pt" height="294pt"
 viewBox="0.00 0.00 352.00 294.00" xmlns="http://www.w3.org/2000/svg" xmlns:xlink="http://www.w3.org/1999/xlink">
<g id="graph0" class="graph" transform="scale(1 1) rotate(0) translate(4 290)">
<title>My_Dictionary::spell</title>
<polygon fill="#ffffff" stroke="transparent" points="-4,4 -4,-290 348,-290 348,4 -4,4"/>
<!-- Node14 -->
<g id="node1" class="node">
<title>Node14</title>
<polygon fill="#bfbfbf" stroke="#000000" points="0,-133.5 0,-152.5 106,-152.5 106,-133.5 0,-133.5"/>
<text text-anchor="middle" x="53" y="-140.5" font-family="Helvetica,sans-Serif" font-size="10.00" fill="#000000">My_Dictionary::spell</text>
</g>
<!-- Node15 -->
<g id="node2" class="node">
<title>Node15</title>
<g id="a_node2"><a xlink:href="main_8cxx.html#a1b26793ef57883beab96fb3f93153e59" target="_top" xlink:title="Normal loop, tokenize and check spelling. ">
<polygon fill="#ffffff" stroke="#000000" points="171.5,-266.5 171.5,-285.5 240.5,-285.5 240.5,-266.5 171.5,-266.5"/>
<text text-anchor="middle" x="206" y="-273.5" font-family="Helvetica,sans-Serif" font-size="10.00" fill="#000000">normal_loop</text>
</a>
</g>
</g>
<!-- Node14&#45;&gt;Node15 -->
<g id="edge1" class="edge">
<title>Node14&#45;&gt;Node15</title>
<path fill="none" stroke="#191970" d="M62.5978,-161.5266C76.6455,-186.8286 105.1839,-231.9066 142,-257 150.7154,-262.9403 161.3216,-267.0582 171.3731,-269.8987"/>
<polygon fill="#191970" stroke="#191970" points="65.6076,-159.7336 57.7842,-152.5889 59.4446,-163.0529 65.6076,-159.7336"/>
</g>
<!-- Node17 -->
<g id="node4" class="node">
<title>Node17</title>
<g id="a_node4"><a xlink:href="main_8cxx.html#a79f57b910d5a04abbc65e13b699add8a" target="_top" xlink:title="Normal loop, tokenize and check spelling. ">
<polygon fill="#ffffff" stroke="#000000" points="146.5,-228.5 146.5,-247.5 265.5,-247.5 265.5,-228.5 146.5,-228.5"/>
<text text-anchor="middle" x="206" y="-235.5" font-family="Helvetica,sans-Serif" font-size="10.00" fill="#000000">normal_nosuggest_loop</text>
</a>
</g>
</g>
<!-- Node14&#45;&gt;Node17 -->
<g id="edge3" class="edge">
<title>Node14&#45;&gt;Node17</title>
<path fill="none" stroke="#191970" d="M68.8894,-160.2736C85.5672,-177.4457 113.3086,-203.4121 142,-219 148.9254,-222.7625 156.6873,-225.8668 164.3527,-228.397"/>
<polygon fill="#191970" stroke="#191970" points="71.0591,-157.4756 61.6352,-152.6341 65.983,-162.2958 71.0591,-157.4756"/>
</g>
<!-- Node18 -->
<g id="node5" class="node">
<title>Node18</title>
<g id="a_node5"><a xlink:href="main_8cxx.html#a28035349fd4dce4052b75f480fb2e470" target="_top" xlink:title="Prints misspelled words from in to out. ">
<polygon fill="#ffffff" stroke="#000000" points="149.5,-190.5 149.5,-209.5 262.5,-209.5 262.5,-190.5 149.5,-190.5"/>
<text text-anchor="middle" x="206" y="-197.5" font-family="Helvetica,sans-Serif" font-size="10.00" fill="#000000">misspelled_word_loop</text>
</a>
</g>
</g>
<!-- Node14&#45;&gt;Node18 -->
<g id="edge5" class="edge">
<title>Node14&#45;&gt;Node18</title>
<path fill="none" stroke="#191970" d="M83.0449,-156.8493C100.136,-164.4684 122.0501,-173.8066 142,-181 151.3768,-184.381 161.6763,-187.6346 171.2202,-190.4649"/>
<polygon fill="#191970" stroke="#191970" points="84.1457,-153.5065 73.5905,-152.5911 81.2711,-159.8891 84.1457,-153.5065"/>
</g>
<!-- Node19 -->
<g id="node6" class="node">
<title>Node19</title>
<g id="a_node6"><a xlink:href="main_8cxx.html#a2c5b3bbd78b6902b7996b7a453be4523" target="_top" xlink:title="Prints correct words from in to out. ">
<polygon fill="#ffffff" stroke="#000000" points="158,-152.5 158,-171.5 254,-171.5 254,-152.5 158,-152.5"/>
<text text-anchor="middle" x="206" y="-159.5" font-family="Helvetica,sans-Serif" font-size="10.00" fill="#000000">correct_word_loop</text>
</a>
</g>
</g>
<!-- Node14&#45;&gt;Node19 -->
<g id="edge7" class="edge">
<title>Node14&#45;&gt;Node19</title>
<path fill="none" stroke="#191970" d="M116.1079,-150.8369C130.0629,-152.5699 144.6316,-154.3791 157.8777,-156.024"/>
<polygon fill="#191970" stroke="#191970" points="116.4377,-147.3511 106.0826,-149.592 115.575,-154.2977 116.4377,-147.3511"/>
</g>
<!-- Node20 -->
<g id="node7" class="node">
<title>Node20</title>
<g id="a_node7"><a xlink:href="main_8cxx.html#a4e73c17f0cea2b14e0f5a32e2e174f11" target="_top" xlink:title="Normal loop, tokenize and check spelling. ">
<polygon fill="#ffffff" stroke="#000000" points="167.5,-114.5 167.5,-133.5 244.5,-133.5 244.5,-114.5 167.5,-114.5"/>
<text text-anchor="middle" x="206" y="-121.5" font-family="Helvetica,sans-Serif" font-size="10.00" fill="#000000">segment_loop</text>
</a>
</g>
</g>
<!-- Node14&#45;&gt;Node20 -->
<g id="edge9" class="edge">
<title>Node14&#45;&gt;Node20</title>
<path fill="none" stroke="#191970" d="M116.1892,-135.153C133.5885,-132.9923 151.9356,-130.7139 167.4796,-128.7836"/>
<polygon fill="#191970" stroke="#191970" points="115.575,-131.7023 106.0826,-136.408 116.4377,-138.6489 115.575,-131.7023"/>
</g>
<!-- Node21 -->
<g id="node8" class="node">
<title>Node21</title>
<g id="a_node8"><a xlink:href="main_8cxx.html#a42fbab96f4709cbe51a87aa1c800149d" target="_top" xlink:title="Normal loop, tokenize and check spelling. ">
<polygon fill="#ffffff" stroke="#000000" points="142,-76.5 142,-95.5 270,-95.5 270,-76.5 142,-76.5"/>
<text text-anchor="middle" x="206" y="-83.5" font-family="Helvetica,sans-Serif" font-size="10.00" fill="#000000">segment_nosuggest_loop</text>
</a>
</g>
</g>
<!-- Node14&#45;&gt;Node21 -->
<g id="edge11" class="edge">
<title>Node14&#45;&gt;Node21</title>
<path fill="none" stroke="#191970" d="M83.0449,-129.1507C100.136,-121.5316 122.0501,-112.1934 142,-105 151.3768,-101.619 161.6763,-98.3654 171.2202,-95.5351"/>
<polygon fill="#191970" stroke="#191970" points="81.2711,-126.1109 73.5905,-133.4089 84.1457,-132.4935 81.2711,-126.1109"/>
</g>
<!-- Node22 -->
<g id="node9" class="node">
<title>Node22</title>
<g id="a_node9"><a xlink:href="main_8cxx.html#a9fc952c4c72f78efc086ff2e4475735e" target="_top" xlink:title="misspelled_line_loop">
<polygon fill="#ffffff" stroke="#000000" points="152.5,-38.5 152.5,-57.5 259.5,-57.5 259.5,-38.5 152.5,-38.5"/>
<text text-anchor="middle" x="206" y="-45.5" font-family="Helvetica,sans-Serif" font-size="10.00" fill="#000000">misspelled_line_loop</text>
</a>
</g>
</g>
<!-- Node14&#45;&gt;Node22 -->
<g id="edge13" class="edge">
<title>Node14&#45;&gt;Node22</title>
<path fill="none" stroke="#191970" d="M68.8894,-125.7264C85.5672,-108.5543 113.3086,-82.5879 142,-67 148.9254,-63.2375 156.6873,-60.1332 164.3527,-57.603"/>
<polygon fill="#191970" stroke="#191970" points="65.983,-123.7042 61.6352,-133.3659 71.0591,-128.5244 65.983,-123.7042"/>
</g>
<!-- Node23 -->
<g id="node10" class="node">
<title>Node23</title>
<g id="a_node10"><a xlink:href="main_8cxx.html#aadf259cfd24fcfdebb1ce40e3266aef7" target="_top" xlink:title="correct_line_loop">
<polygon fill="#ffffff" stroke="#000000" points="161,-.5 161,-19.5 251,-19.5 251,-.5 161,-.5"/>
<text text-anchor="middle" x="206" y="-7.5" font-family="Helvetica,sans-Serif" font-size="10.00" fill="#000000">correct_line_loop</text>
</a>
</g>
</g>
<!-- Node14&#45;&gt;Node23 -->
<g id="edge15" class="edge">
<title>Node14&#45;&gt;Node23</title>
<path fill="none" stroke="#191970" d="M62.5978,-124.4734C76.6455,-99.1714 105.1839,-54.0934 142,-29 147.6506,-25.1486 154.0961,-22.0633 160.6699,-19.5954"/>
<polygon fill="#191970" stroke="#191970" points="59.4446,-122.9471 57.7842,-133.4111 65.6076,-126.2664 59.4446,-122.9471"/>
</g>
<!-- Node16 -->
<g id="node3" class="node">
<title>Node16</title>
<g id="a_node3"><a xlink:href="main_8cxx.html#a0ddf1224851353fc92bfbff6f499fa97" target="_top" xlink:title="main">
<polygon fill="#ffffff" stroke="#000000" points="306,-133.5 306,-152.5 344,-152.5 344,-133.5 306,-133.5"/>
<text text-anchor="middle" x="325" y="-140.5" font-family="Helvetica,sans-Serif" font-size="10.00" fill="#000000">main</text>
</a>
</g>
</g>
<!-- Node15&#45;&gt;Node16 -->
<g id="edge2" class="edge">
<title>Node15&#45;&gt;Node16</title>
<path fill="none" stroke="#191970" d="M250.4866,-268.0721C257.5386,-265.3905 264.3557,-261.802 270,-257 303.6416,-228.3791 318.3612,-174.4244 323.1333,-152.5617"/>
<polygon fill="#191970" stroke="#191970" points="249.2535,-264.7923 240.8127,-271.1956 251.4044,-271.4536 249.2535,-264.7923"/>
</g>
<!-- Node17&#45;&gt;Node16 -->
<g id="edge4" class="edge">
<title>Node17&#45;&gt;Node16</title>
<path fill="none" stroke="#191970" d="M260.9658,-224.4068C264.131,-222.7992 267.1718,-221.004 270,-219 294.8505,-201.3911 312.7431,-168.9553 320.5831,-152.7496"/>
<polygon fill="#191970" stroke="#191970" points="259.5235,-221.2175 251.7896,-228.4589 262.3513,-227.621 259.5235,-221.2175"/>
</g>
<!-- Node18&#45;&gt;Node16 -->
<g id="edge6" class="edge">
<title>Node18&#45;&gt;Node16</title>
<path fill="none" stroke="#191970" d="M255.1437,-187.1573C260.247,-185.3089 265.286,-183.2573 270,-181 286.1203,-173.2806 302.7491,-161.0973 313.4411,-152.6142"/>
<polygon fill="#191970" stroke="#191970" points="253.6814,-183.9563 245.319,-190.4618 255.9131,-190.5911 253.6814,-183.9563"/>
</g>
<!-- Node19&#45;&gt;Node16 -->
<g id="edge8" class="edge">
<title>Node19&#45;&gt;Node16</title>
<path fill="none" stroke="#191970" d="M263.9668,-152.7448C279.1365,-150.3227 294.4391,-147.8795 305.927,-146.0453"/>
<polygon fill="#191970" stroke="#191970" points="263.3819,-149.2938 254.0588,-154.3267 264.4856,-156.2062 263.3819,-149.2938"/>
</g>
<!-- Node20&#45;&gt;Node16 -->
<g id="edge10" class="edge">
<title>Node20&#45;&gt;Node16</title>
<path fill="none" stroke="#191970" d="M254.7267,-131.7799C272.7073,-134.6507 292.0458,-137.7384 305.8754,-139.9465"/>
<polygon fill="#191970" stroke="#191970" points="255.0627,-128.2893 244.6359,-130.1688 253.959,-135.2017 255.0627,-128.2893"/>
</g>
<!-- Node21&#45;&gt;Node16 -->
<g id="edge12" class="edge">
<title>Node21&#45;&gt;Node16</title>
<path fill="none" stroke="#191970" d="M255.1437,-98.8427C260.247,-100.6911 265.286,-102.7427 270,-105 286.1203,-112.7194 302.7491,-124.9027 313.4411,-133.3858"/>
<polygon fill="#191970" stroke="#191970" points="255.9131,-95.4089 245.319,-95.5382 253.6814,-102.0437 255.9131,-95.4089"/>
</g>
<!-- Node22&#45;&gt;Node16 -->
<g id="edge14" class="edge">
<title>Node22&#45;&gt;Node16</title>
<path fill="none" stroke="#191970" d="M260.9658,-61.5932C264.131,-63.2008 267.1718,-64.996 270,-67 294.8505,-84.6089 312.7431,-117.0447 320.5831,-133.2504"/>
<polygon fill="#191970" stroke="#191970" points="262.3513,-58.379 251.7896,-57.5411 259.5235,-64.7825 262.3513,-58.379"/>
</g>
<!-- Node23&#45;&gt;Node16 -->
<g id="edge16" class="edge">
<title>Node23&#45;&gt;Node16</title>
<path fill="none" stroke="#191970" d="M260.4715,-22.503C263.8734,-24.3746 267.0923,-26.5263 270,-29 303.6416,-57.6209 318.3612,-111.5756 323.1333,-133.4383"/>
<polygon fill="#191970" stroke="#191970" points="261.6719,-19.2018 251.127,-18.1742 258.7295,-25.5534 261.6719,-19.2018"/>
</g>
</g>
</svg>
