<?xml version="1.0" encoding="UTF-8" standalone="no"?>
<!DOCTYPE svg PUBLIC "-//W3C//DTD SVG 1.1//EN"
 "http://www.w3.org/Graphics/SVG/1.1/DTD/svg11.dtd">
<!-- Generated by graphviz version 2.40.1 (20161225.0304)
 -->
<!-- Title: nuspell::List_Strings::swap Pages: 1 -->
<svg width="226pt" height="39pt"
 viewBox="0.00 0.00 226.00 39.00" xmlns="http://www.w3.org/2000/svg" xmlns:xlink="http://www.w3.org/1999/xlink">
<g id="graph0" class="graph" transform="scale(1 1) rotate(0) translate(4 35)">
<title>nuspell::List_Strings::swap</title>
<polygon fill="#ffffff" stroke="transparent" points="-4,4 -4,-35 222,-35 222,4 -4,4"/>
<!-- Node188 -->
<g id="node1" class="node">
<title>Node188</title>
<polygon fill="#bfbfbf" stroke="#000000" points="0,-.5 0,-30.5 105,-30.5 105,-.5 0,-.5"/>
<text text-anchor="start" x="8" y="-18.5" font-family="Helvetica,sans-Serif" font-size="10.00" fill="#000000">nuspell::List_Strings</text>
<text text-anchor="middle" x="52.5" y="-7.5" font-family="Helvetica,sans-Serif" font-size="10.00" fill="#000000">::swap</text>
</g>
<!-- Node189 -->
<g id="node2" class="node">
<title>Node189</title>
<g id="a_node2"><a xlink:href="namespacenuspell.html#a4e7a07dbabd9c03a5fdb85516e225ac2" target="_top" xlink:title="nuspell::swap">
<polygon fill="#ffffff" stroke="#000000" points="141,-6 141,-25 218,-25 218,-6 141,-6"/>
<text text-anchor="middle" x="179.5" y="-13" font-family="Helvetica,sans-Serif" font-size="10.00" fill="#000000">nuspell::swap</text>
</a>
</g>
</g>
<!-- Node188&#45;&gt;Node189 -->
<g id="edge1" class="edge">
<title>Node188&#45;&gt;Node189</title>
<path fill="none" stroke="#191970" d="M105.2561,-8.8366C113.5939,-8.701 122.1862,-8.7246 130.4354,-8.9075"/>
<polygon fill="#191970" stroke="#191970" points="130.5521,-12.4127 140.6557,-9.2242 130.769,-5.416 130.5521,-12.4127"/>
</g>
<!-- Node189&#45;&gt;Node188 -->
<g id="edge2" class="edge">
<title>Node189&#45;&gt;Node188</title>
<path fill="none" stroke="#191970" d="M140.6557,-21.7758C132.6285,-22.1001 123.9789,-22.2581 115.3454,-22.2497"/>
<polygon fill="#191970" stroke="#191970" points="115.2857,-18.7491 105.2561,-22.1634 115.2258,-25.7489 115.2857,-18.7491"/>
</g>
</g>
</svg>
