<?xml version="1.0" encoding="UTF-8" standalone="no"?>
<!DOCTYPE svg PUBLIC "-//W3C//DTD SVG 1.1//EN"
 "http://www.w3.org/Graphics/SVG/1.1/DTD/svg11.dtd">
<!-- Generated by graphviz version 2.40.1 (20161225.0304)
 -->
<!-- Title: nuspell::List_Strings::clear Pages: 1 -->
<svg width="515pt" height="104pt"
 viewBox="0.00 0.00 515.00 104.00" xmlns="http://www.w3.org/2000/svg" xmlns:xlink="http://www.w3.org/1999/xlink">
<g id="graph0" class="graph" transform="scale(1 1) rotate(0) translate(4 100)">
<title>nuspell::List_Strings::clear</title>
<polygon fill="#ffffff" stroke="transparent" points="-4,4 -4,-100 511,-100 511,4 -4,4"/>
<!-- Node50 -->
<g id="node1" class="node">
<title>Node50</title>
<polygon fill="#bfbfbf" stroke="#000000" points="0,-33 0,-63 105,-63 105,-33 0,-33"/>
<text text-anchor="start" x="8" y="-51" font-family="Helvetica,sans-Serif" font-size="10.00" fill="#000000">nuspell::List_Strings</text>
<text text-anchor="middle" x="52.5" y="-40" font-family="Helvetica,sans-Serif" font-size="10.00" fill="#000000">::clear</text>
</g>
<!-- Node51 -->
<g id="node2" class="node">
<title>Node51</title>
<g id="a_node2"><a xlink:href="classnuspell_1_1_basic___dictionary.html#ac50138a9f4de879a541838170f957977" target="_top" xlink:title="nuspell::Basic_Dictionary\l::suggest">
<polygon fill="#ffffff" stroke="#000000" points="141,-33 141,-63 269,-63 269,-33 141,-33"/>
<text text-anchor="start" x="149" y="-51" font-family="Helvetica,sans-Serif" font-size="10.00" fill="#000000">nuspell::Basic_Dictionary</text>
<text text-anchor="middle" x="205" y="-40" font-family="Helvetica,sans-Serif" font-size="10.00" fill="#000000">::suggest</text>
</a>
</g>
</g>
<!-- Node50&#45;&gt;Node51 -->
<g id="edge1" class="edge">
<title>Node50&#45;&gt;Node51</title>
<path fill="none" stroke="#191970" d="M115.4972,-48C123.8806,-48 132.4844,-48 140.8865,-48"/>
<polygon fill="#191970" stroke="#191970" points="115.4091,-44.5001 105.4091,-48 115.4091,-51.5001 115.4091,-44.5001"/>
</g>
<!-- Node52 -->
<g id="node3" class="node">
<title>Node52</title>
<g id="a_node3"><a xlink:href="main_8cxx.html#a1b26793ef57883beab96fb3f93153e59" target="_top" xlink:title="Normal loop, tokenize and check spelling. ">
<polygon fill="#ffffff" stroke="#000000" points="334.5,-76.5 334.5,-95.5 403.5,-95.5 403.5,-76.5 334.5,-76.5"/>
<text text-anchor="middle" x="369" y="-83.5" font-family="Helvetica,sans-Serif" font-size="10.00" fill="#000000">normal_loop</text>
</a>
</g>
</g>
<!-- Node51&#45;&gt;Node52 -->
<g id="edge2" class="edge">
<title>Node51&#45;&gt;Node52</title>
<path fill="none" stroke="#191970" d="M279.273,-65.2096C298.3967,-69.6407 318.086,-74.2028 334.1305,-77.9205"/>
<polygon fill="#191970" stroke="#191970" points="279.8784,-61.7572 269.3464,-62.9095 278.2983,-68.5766 279.8784,-61.7572"/>
</g>
<!-- Node54 -->
<g id="node5" class="node">
<title>Node54</title>
<g id="a_node5"><a xlink:href="main_8cxx.html#a4e73c17f0cea2b14e0f5a32e2e174f11" target="_top" xlink:title="Normal loop, tokenize and check spelling. ">
<polygon fill="#ffffff" stroke="#000000" points="330.5,-38.5 330.5,-57.5 407.5,-57.5 407.5,-38.5 330.5,-38.5"/>
<text text-anchor="middle" x="369" y="-45.5" font-family="Helvetica,sans-Serif" font-size="10.00" fill="#000000">segment_loop</text>
</a>
</g>
</g>
<!-- Node51&#45;&gt;Node54 -->
<g id="edge4" class="edge">
<title>Node51&#45;&gt;Node54</title>
<path fill="none" stroke="#191970" d="M279.6069,-48C297.1646,-48 315.178,-48 330.3922,-48"/>
<polygon fill="#191970" stroke="#191970" points="279.3465,-44.5001 269.3464,-48 279.3464,-51.5001 279.3465,-44.5001"/>
</g>
<!-- Node55 -->
<g id="node6" class="node">
<title>Node55</title>
<g id="a_node6"><a xlink:href="main_8cxx.html#a42fbab96f4709cbe51a87aa1c800149d" target="_top" xlink:title="Normal loop, tokenize and check spelling. ">
<polygon fill="#ffffff" stroke="#000000" points="305,-.5 305,-19.5 433,-19.5 433,-.5 305,-.5"/>
<text text-anchor="middle" x="369" y="-7.5" font-family="Helvetica,sans-Serif" font-size="10.00" fill="#000000">segment_nosuggest_loop</text>
</a>
</g>
</g>
<!-- Node51&#45;&gt;Node55 -->
<g id="edge6" class="edge">
<title>Node51&#45;&gt;Node55</title>
<path fill="none" stroke="#191970" d="M279.1575,-30.8172C295.9442,-26.9276 313.1732,-22.9355 327.996,-19.5009"/>
<polygon fill="#191970" stroke="#191970" points="278.2983,-27.4234 269.3464,-33.0905 279.8784,-34.2428 278.2983,-27.4234"/>
</g>
<!-- Node53 -->
<g id="node4" class="node">
<title>Node53</title>
<g id="a_node4"><a xlink:href="main_8cxx.html#a0ddf1224851353fc92bfbff6f499fa97" target="_top" xlink:title="main">
<polygon fill="#ffffff" stroke="#000000" points="469,-38.5 469,-57.5 507,-57.5 507,-38.5 469,-38.5"/>
<text text-anchor="middle" x="488" y="-45.5" font-family="Helvetica,sans-Serif" font-size="10.00" fill="#000000">main</text>
</a>
</g>
</g>
<!-- Node52&#45;&gt;Node53 -->
<g id="edge3" class="edge">
<title>Node52&#45;&gt;Node53</title>
<path fill="none" stroke="#191970" d="M412.2955,-73.4283C419.2353,-71.3322 426.3268,-69.1421 433,-67 445.0236,-63.1405 458.4185,-58.5201 468.9788,-54.802"/>
<polygon fill="#191970" stroke="#191970" points="410.8814,-70.1979 402.3027,-76.4154 412.8863,-76.9047 410.8814,-70.1979"/>
</g>
<!-- Node54&#45;&gt;Node53 -->
<g id="edge5" class="edge">
<title>Node54&#45;&gt;Node53</title>
<path fill="none" stroke="#191970" d="M417.7267,-48C435.7073,-48 455.0458,-48 468.8754,-48"/>
<polygon fill="#191970" stroke="#191970" points="417.6359,-44.5001 407.6359,-48 417.6359,-51.5001 417.6359,-44.5001"/>
</g>
<!-- Node55&#45;&gt;Node53 -->
<g id="edge7" class="edge">
<title>Node55&#45;&gt;Node53</title>
<path fill="none" stroke="#191970" d="M412.2955,-22.5717C419.2353,-24.6678 426.3268,-26.8579 433,-29 445.0236,-32.8595 458.4185,-37.4799 468.9788,-41.198"/>
<polygon fill="#191970" stroke="#191970" points="412.8863,-19.0953 402.3027,-19.5846 410.8814,-25.8021 412.8863,-19.0953"/>
</g>
</g>
</svg>
