<?xml version="1.0" encoding="UTF-8" standalone="no"?>
<!DOCTYPE svg PUBLIC "-//W3C//DTD SVG 1.1//EN"
 "http://www.w3.org/Graphics/SVG/1.1/DTD/svg11.dtd">
<!-- Generated by graphviz version 2.40.1 (20161225.0304)
 -->
<!-- Title: nuspell::Basic_Dictionary Pages: 1 -->
<svg width="1143pt" height="596pt"
 viewBox="0.00 0.00 1143.00 595.50" xmlns="http://www.w3.org/2000/svg" xmlns:xlink="http://www.w3.org/1999/xlink">
<g id="graph0" class="graph" transform="scale(1 1) rotate(0) translate(4 591.5)">
<title>nuspell::Basic_Dictionary</title>
<polygon fill="#ffffff" stroke="transparent" points="-4,4 -4,-591.5 1139,-591.5 1139,4 -4,4"/>
<!-- Node3 -->
<g id="node1" class="node">
<title>Node3</title>
<polygon fill="#bfbfbf" stroke="#000000" points="1007,-284.5 1007,-303.5 1135,-303.5 1135,-284.5 1007,-284.5"/>
<text text-anchor="middle" x="1071" y="-291.5" font-family="Helvetica,sans-Serif" font-size="10.00" fill="#000000">nuspell::Basic_Dictionary</text>
</g>
<!-- Node4 -->
<g id="node2" class="node">
<title>Node4</title>
<g id="a_node2"><a xlink:href="structnuspell_1_1_dict___base.html" target="_top" xlink:title="nuspell::Dict_Base">
<polygon fill="#ffffff" stroke="#000000" points="871,-284.5 871,-303.5 970,-303.5 970,-284.5 871,-284.5"/>
<text text-anchor="middle" x="920.5" y="-291.5" font-family="Helvetica,sans-Serif" font-size="10.00" fill="#000000">nuspell::Dict_Base</text>
</a>
</g>
</g>
<!-- Node4&#45;&gt;Node3 -->
<g id="edge1" class="edge">
<title>Node4&#45;&gt;Node3</title>
<path fill="none" stroke="#006400" d="M980.2867,-294C989.0213,-294 998.0464,-294 1006.8633,-294"/>
<polygon fill="#006400" stroke="#006400" points="980.1965,-290.5001 970.1964,-294 980.1964,-297.5001 980.1965,-290.5001"/>
</g>
<!-- Node5 -->
<g id="node3" class="node">
<title>Node5</title>
<g id="a_node3"><a xlink:href="structnuspell_1_1_aff___data.html" target="_top" xlink:title="nuspell::Aff_Data">
<polygon fill="#ffffff" stroke="#000000" points="742,-284.5 742,-303.5 834,-303.5 834,-284.5 742,-284.5"/>
<text text-anchor="middle" x="788" y="-291.5" font-family="Helvetica,sans-Serif" font-size="10.00" fill="#000000">nuspell::Aff_Data</text>
</a>
</g>
</g>
<!-- Node5&#45;&gt;Node4 -->
<g id="edge2" class="edge">
<title>Node5&#45;&gt;Node4</title>
<path fill="none" stroke="#191970" d="M844.4732,-294C853.2267,-294 862.213,-294 870.8026,-294"/>
<polygon fill="#191970" stroke="#191970" points="844.3421,-290.5001 834.3421,-294 844.342,-297.5001 844.3421,-290.5001"/>
</g>
<!-- Node6 -->
<g id="node4" class="node">
<title>Node6</title>
<g id="a_node4"><a xlink:href="structnuspell_1_1_aff___structures.html" target="_top" xlink:title="nuspell::Aff_Structures\l\&lt; char \&gt;">
<polygon fill="#ffffff" stroke="#000000" points="517,-434 517,-464 633,-464 633,-434 517,-434"/>
<text text-anchor="start" x="525" y="-452" font-family="Helvetica,sans-Serif" font-size="10.00" fill="#000000">nuspell::Aff_Structures</text>
<text text-anchor="middle" x="575" y="-441" font-family="Helvetica,sans-Serif" font-size="10.00" fill="#000000">&lt; char &gt;</text>
</a>
</g>
</g>
<!-- Node6&#45;&gt;Node5 -->
<g id="edge3" class="edge">
<title>Node6&#45;&gt;Node5</title>
<path fill="none" stroke="#9a32cd" stroke-dasharray="5,2" d="M610.5607,-428.8639C641.5514,-410.7308 687.1731,-382.6036 724,-354 744.9294,-337.7441 766.9743,-315.8675 778.9494,-303.5207"/>
<polygon fill="#9a32cd" stroke="#9a32cd" points="608.7231,-425.8837 601.8335,-433.9325 612.2387,-431.9369 608.7231,-425.8837"/>
<text text-anchor="middle" x="687.5" y="-406" font-family="Helvetica,sans-Serif" font-size="10.00" fill="#000000"> structures</text>
</g>
<!-- Node7 -->
<g id="node5" class="node">
<title>Node7</title>
<g id="a_node5"><a xlink:href="classnuspell_1_1_break___table.html" target="_top" xlink:title="nuspell::Break_Table\l\&lt; char \&gt;">
<polygon fill="#ffffff" stroke="#000000" points="238,-410 238,-440 346,-440 346,-410 238,-410"/>
<text text-anchor="start" x="246" y="-428" font-family="Helvetica,sans-Serif" font-size="10.00" fill="#000000">nuspell::Break_Table</text>
<text text-anchor="middle" x="292" y="-417" font-family="Helvetica,sans-Serif" font-size="10.00" fill="#000000">&lt; char &gt;</text>
</a>
</g>
</g>
<!-- Node7&#45;&gt;Node6 -->
<g id="edge4" class="edge">
<title>Node7&#45;&gt;Node6</title>
<path fill="none" stroke="#9a32cd" stroke-dasharray="5,2" d="M356.1811,-429.4999C397.0806,-432.4815 451.1832,-436.6362 499,-441 504.8135,-441.5305 510.8737,-442.115 516.9241,-442.7193"/>
<polygon fill="#9a32cd" stroke="#9a32cd" points="356.3062,-425.9999 346.0793,-428.7678 355.8001,-432.9816 356.3062,-425.9999"/>
<text text-anchor="middle" x="436" y="-444" font-family="Helvetica,sans-Serif" font-size="10.00" fill="#000000"> break_table</text>
</g>
<!-- Node8 -->
<g id="node6" class="node">
<title>Node8</title>
<g id="a_node6"><a xlink:href="classnuspell_1_1_substr___replacer.html" target="_top" xlink:title="nuspell::Substr_Replacer\l\&lt; char \&gt;">
<polygon fill="#ffffff" stroke="#000000" points="229,-361 229,-391 355,-391 355,-361 229,-361"/>
<text text-anchor="start" x="237" y="-379" font-family="Helvetica,sans-Serif" font-size="10.00" fill="#000000">nuspell::Substr_Replacer</text>
<text text-anchor="middle" x="292" y="-368" font-family="Helvetica,sans-Serif" font-size="10.00" fill="#000000">&lt; char &gt;</text>
</a>
</g>
</g>
<!-- Node8&#45;&gt;Node6 -->
<g id="edge5" class="edge">
<title>Node8&#45;&gt;Node6</title>
<path fill="none" stroke="#9a32cd" stroke-dasharray="5,2" d="M365.1388,-378.771C405.5234,-382.0504 456.0534,-389.0724 499,-404 519.2775,-411.0481 540.1059,-423.8456 554.8183,-433.9962"/>
<polygon fill="#9a32cd" stroke="#9a32cd" points="365.3354,-375.276 355.1009,-378.0153 364.8099,-382.2562 365.3354,-375.276"/>
<text text-anchor="middle" x="436" y="-418" font-family="Helvetica,sans-Serif" font-size="10.00" fill="#000000"> input_substr_replacer</text>
<text text-anchor="middle" x="436" y="-407" font-family="Helvetica,sans-Serif" font-size="10.00" fill="#000000">output_substr_replacer</text>
</g>
<!-- Node9 -->
<g id="node7" class="node">
<title>Node9</title>
<g id="a_node7"><a xlink:href="classnuspell_1_1_affix___table.html" target="_top" xlink:title="nuspell::Affix_Table\l\&lt; char \&gt;">
<polygon fill="#ffffff" stroke="#000000" points="240.5,-557 240.5,-587 343.5,-587 343.5,-557 240.5,-557"/>
<text text-anchor="start" x="248.5" y="-575" font-family="Helvetica,sans-Serif" font-size="10.00" fill="#000000">nuspell::Affix_Table</text>
<text text-anchor="middle" x="292" y="-564" font-family="Helvetica,sans-Serif" font-size="10.00" fill="#000000">&lt; char &gt;</text>
</a>
</g>
</g>
<!-- Node9&#45;&gt;Node6 -->
<g id="edge6" class="edge">
<title>Node9&#45;&gt;Node6</title>
<path fill="none" stroke="#9a32cd" stroke-dasharray="5,2" d="M353.7379,-566.6263C396.6426,-560.816 453.974,-548.7921 499,-524 526.2808,-508.9788 550.486,-481.3731 563.9035,-464.1692"/>
<polygon fill="#9a32cd" stroke="#9a32cd" points="353.1868,-563.1681 343.711,-567.9072 354.074,-570.1117 353.1868,-563.1681"/>
<text text-anchor="middle" x="436" y="-577" font-family="Helvetica,sans-Serif" font-size="10.00" fill="#000000"> suffixes</text>
<text text-anchor="middle" x="436" y="-566" font-family="Helvetica,sans-Serif" font-size="10.00" fill="#000000">prefixes</text>
</g>
<!-- Node10 -->
<g id="node8" class="node">
<title>Node10</title>
<g id="a_node8"><a xlink:href="classnuspell_1_1_hash___multiset.html" target="_top" xlink:title="Affix_Table_Base\&lt; char\l , AffixT \&gt;">
<polygon fill="#ffffff" stroke="#000000" points="3.5,-557 3.5,-587 125.5,-587 125.5,-557 3.5,-557"/>
<text text-anchor="start" x="11.5" y="-575" font-family="Helvetica,sans-Serif" font-size="10.00" fill="#000000">Affix_Table_Base&lt; char</text>
<text text-anchor="middle" x="64.5" y="-564" font-family="Helvetica,sans-Serif" font-size="10.00" fill="#000000"> , AffixT &gt;</text>
</a>
</g>
</g>
<!-- Node10&#45;&gt;Node9 -->
<g id="edge7" class="edge">
<title>Node10&#45;&gt;Node9</title>
<path fill="none" stroke="#8b1a1a" d="M136.051,-572C169.8454,-572 209.4299,-572 240.2611,-572"/>
<polygon fill="#8b1a1a" stroke="#8b1a1a" points="135.7651,-568.5001 125.7651,-572 135.7651,-575.5001 135.7651,-568.5001"/>
</g>
<!-- Node11 -->
<g id="node9" class="node">
<title>Node11</title>
<g id="a_node9"><a xlink:href="classnuspell_1_1_string___set.html" target="_top" xlink:title="nuspell::String_Set\l\&lt; char16_t \&gt;">
<polygon fill="#ffffff" stroke="#000000" points="15,-298 15,-328 114,-328 114,-298 15,-298"/>
<text text-anchor="start" x="23" y="-316" font-family="Helvetica,sans-Serif" font-size="10.00" fill="#000000">nuspell::String_Set</text>
<text text-anchor="middle" x="64.5" y="-305" font-family="Helvetica,sans-Serif" font-size="10.00" fill="#000000">&lt; char16_t &gt;</text>
</a>
</g>
</g>
<!-- Node11&#45;&gt;Node5 -->
<g id="edge21" class="edge">
<title>Node11&#45;&gt;Node5</title>
<path fill="none" stroke="#9a32cd" stroke-dasharray="5,2" d="M124.1856,-309.7015C186.3121,-306.4066 286.4441,-301.4847 373,-299 506.965,-295.1543 665.3377,-294.2574 741.9315,-294.0545"/>
<polygon fill="#9a32cd" stroke="#9a32cd" points="123.9714,-306.2079 114.1722,-310.236 124.3445,-313.1979 123.9714,-306.2079"/>
<text text-anchor="middle" x="436" y="-302" font-family="Helvetica,sans-Serif" font-size="10.00" fill="#000000"> compound_syllable_num</text>
</g>
<!-- Node11&#45;&gt;Node9 -->
<g id="edge8" class="edge">
<title>Node11&#45;&gt;Node9</title>
<path fill="none" stroke="#9a32cd" stroke-dasharray="5,2" d="M75.4596,-337.4281C97.7785,-384.5775 152.9055,-488.6954 229,-548 233.3389,-551.3816 238.2082,-554.3304 243.2667,-556.8914"/>
<polygon fill="#9a32cd" stroke="#9a32cd" points="78.5901,-335.8594 71.1993,-328.2682 72.2431,-338.8115 78.5901,-335.8594"/>
<text text-anchor="middle" x="179" y="-530" font-family="Helvetica,sans-Serif" font-size="10.00" fill="#000000"> all_cont_flags</text>
</g>
<!-- Node18 -->
<g id="node16" class="node">
<title>Node18</title>
<g id="a_node16"><a xlink:href="classnuspell_1_1_affix___table.html" target="_top" xlink:title="nuspell::Affix_Table\l\&lt; wchar_t \&gt;">
<polygon fill="#ffffff" stroke="#000000" points="240.5,-235 240.5,-265 343.5,-265 343.5,-235 240.5,-235"/>
<text text-anchor="start" x="248.5" y="-253" font-family="Helvetica,sans-Serif" font-size="10.00" fill="#000000">nuspell::Affix_Table</text>
<text text-anchor="middle" x="292" y="-242" font-family="Helvetica,sans-Serif" font-size="10.00" fill="#000000">&lt; wchar_t &gt;</text>
</a>
</g>
</g>
<!-- Node11&#45;&gt;Node18 -->
<g id="edge17" class="edge">
<title>Node11&#45;&gt;Node18</title>
<path fill="none" stroke="#9a32cd" stroke-dasharray="5,2" d="M96.1145,-292.6816C110.9999,-284.0365 129.3341,-274.6613 147,-269 177.1012,-259.3536 212.2189,-254.5961 240.3545,-252.2537"/>
<polygon fill="#9a32cd" stroke="#9a32cd" points="94.1185,-289.797 87.3288,-297.9303 97.7085,-295.8063 94.1185,-289.797"/>
<text text-anchor="middle" x="179" y="-272" font-family="Helvetica,sans-Serif" font-size="10.00" fill="#000000"> all_cont_flags</text>
</g>
<!-- Node23 -->
<g id="node21" class="node">
<title>Node23</title>
<g id="a_node21"><a xlink:href="classnuspell_1_1_compound___rule___table.html" target="_top" xlink:title="nuspell::Compound_Rule\l_Table">
<polygon fill="#ffffff" stroke="#000000" points="373,-320 373,-350 499,-350 499,-320 373,-320"/>
<text text-anchor="start" x="381" y="-338" font-family="Helvetica,sans-Serif" font-size="10.00" fill="#000000">nuspell::Compound_Rule</text>
<text text-anchor="middle" x="436" y="-327" font-family="Helvetica,sans-Serif" font-size="10.00" fill="#000000">_Table</text>
</a>
</g>
</g>
<!-- Node11&#45;&gt;Node23 -->
<g id="edge23" class="edge">
<title>Node11&#45;&gt;Node23</title>
<path fill="none" stroke="#9a32cd" stroke-dasharray="5,2" d="M124.3665,-316.5453C192.5398,-320.5824 303.4407,-327.1499 372.9226,-331.2646"/>
<polygon fill="#9a32cd" stroke="#9a32cd" points="124.4061,-313.0416 114.2167,-315.9442 123.9922,-320.0293 124.4061,-313.0416"/>
<text text-anchor="middle" x="179" y="-325" font-family="Helvetica,sans-Serif" font-size="10.00" fill="#000000"> all_flags</text>
</g>
<!-- Node12 -->
<g id="node10" class="node">
<title>Node12</title>
<g id="a_node10"><a xlink:href="classnuspell_1_1_phonetic___table.html" target="_top" xlink:title="nuspell::Phonetic_Table\l\&lt; char \&gt;">
<polygon fill="#ffffff" stroke="#000000" points="231.5,-508 231.5,-538 352.5,-538 352.5,-508 231.5,-508"/>
<text text-anchor="start" x="239.5" y="-526" font-family="Helvetica,sans-Serif" font-size="10.00" fill="#000000">nuspell::Phonetic_Table</text>
<text text-anchor="middle" x="292" y="-515" font-family="Helvetica,sans-Serif" font-size="10.00" fill="#000000">&lt; char &gt;</text>
</a>
</g>
</g>
<!-- Node12&#45;&gt;Node6 -->
<g id="edge9" class="edge">
<title>Node12&#45;&gt;Node6</title>
<path fill="none" stroke="#9a32cd" stroke-dasharray="5,2" d="M362.6061,-512.2521C403.0315,-505.2136 454.4238,-494.7574 499,-481 513.774,-476.4403 529.6088,-470.0326 542.9799,-464.1476"/>
<polygon fill="#9a32cd" stroke="#9a32cd" points="361.8422,-508.8318 352.5755,-513.9679 363.0225,-515.7316 361.8422,-508.8318"/>
<text text-anchor="middle" x="436" y="-512" font-family="Helvetica,sans-Serif" font-size="10.00" fill="#000000"> phonetic_table</text>
</g>
<!-- Node13 -->
<g id="node11" class="node">
<title>Node13</title>
<g id="a_node11"><a xlink:href="classnuspell_1_1_replacement___table.html" target="_top" xlink:title="nuspell::Replacement\l_Table\&lt; char \&gt;">
<polygon fill="#ffffff" stroke="#000000" points="236.5,-459 236.5,-489 347.5,-489 347.5,-459 236.5,-459"/>
<text text-anchor="start" x="244.5" y="-477" font-family="Helvetica,sans-Serif" font-size="10.00" fill="#000000">nuspell::Replacement</text>
<text text-anchor="middle" x="292" y="-466" font-family="Helvetica,sans-Serif" font-size="10.00" fill="#000000">_Table&lt; char &gt;</text>
</a>
</g>
</g>
<!-- Node13&#45;&gt;Node6 -->
<g id="edge10" class="edge">
<title>Node13&#45;&gt;Node6</title>
<path fill="none" stroke="#9a32cd" stroke-dasharray="5,2" d="M357.5682,-468.2078C405.6444,-463.9607 470.3365,-458.2459 516.6324,-454.1562"/>
<polygon fill="#9a32cd" stroke="#9a32cd" points="357.2272,-464.7242 347.574,-469.0906 357.8433,-471.697 357.2272,-464.7242"/>
<text text-anchor="middle" x="436" y="-469" font-family="Helvetica,sans-Serif" font-size="10.00" fill="#000000"> replacements</text>
</g>
<!-- Node14 -->
<g id="node12" class="node">
<title>Node14</title>
<g id="a_node12"><a xlink:href="structnuspell_1_1_aff___structures.html" target="_top" xlink:title="nuspell::Aff_Structures\l\&lt; wchar_t \&gt;">
<polygon fill="#ffffff" stroke="#000000" points="517,-162 517,-192 633,-192 633,-162 517,-162"/>
<text text-anchor="start" x="525" y="-180" font-family="Helvetica,sans-Serif" font-size="10.00" fill="#000000">nuspell::Aff_Structures</text>
<text text-anchor="middle" x="575" y="-169" font-family="Helvetica,sans-Serif" font-size="10.00" fill="#000000">&lt; wchar_t &gt;</text>
</a>
</g>
</g>
<!-- Node14&#45;&gt;Node5 -->
<g id="edge11" class="edge">
<title>Node14&#45;&gt;Node5</title>
<path fill="none" stroke="#9a32cd" stroke-dasharray="5,2" d="M611.2247,-196.8981C657.5461,-222.3422 735.9047,-265.3843 770.5891,-284.4363"/>
<polygon fill="#9a32cd" stroke="#9a32cd" points="612.8598,-193.803 602.41,-192.0562 609.4897,-199.9384 612.8598,-193.803"/>
<text text-anchor="middle" x="687.5" y="-260" font-family="Helvetica,sans-Serif" font-size="10.00" fill="#000000"> wide_structures</text>
</g>
<!-- Node15 -->
<g id="node13" class="node">
<title>Node15</title>
<g id="a_node13"><a xlink:href="classnuspell_1_1_replacement___table.html" target="_top" xlink:title="nuspell::Replacement\l_Table\&lt; wchar_t \&gt;">
<polygon fill="#ffffff" stroke="#000000" points="236.5,-137 236.5,-167 347.5,-167 347.5,-137 236.5,-137"/>
<text text-anchor="start" x="244.5" y="-155" font-family="Helvetica,sans-Serif" font-size="10.00" fill="#000000">nuspell::Replacement</text>
<text text-anchor="middle" x="292" y="-144" font-family="Helvetica,sans-Serif" font-size="10.00" fill="#000000">_Table&lt; wchar_t &gt;</text>
</a>
</g>
</g>
<!-- Node15&#45;&gt;Node14 -->
<g id="edge12" class="edge">
<title>Node15&#45;&gt;Node14</title>
<path fill="none" stroke="#9a32cd" stroke-dasharray="5,2" d="M357.8553,-157.6402C398.5337,-161.1455 451.8006,-165.7742 499,-170 504.8069,-170.5199 510.8628,-171.0679 516.9106,-171.6189"/>
<polygon fill="#9a32cd" stroke="#9a32cd" points="358.0593,-154.1449 347.7959,-156.7741 357.4588,-161.1191 358.0593,-154.1449"/>
<text text-anchor="middle" x="436" y="-173" font-family="Helvetica,sans-Serif" font-size="10.00" fill="#000000"> replacements</text>
</g>
<!-- Node16 -->
<g id="node14" class="node">
<title>Node16</title>
<g id="a_node14"><a xlink:href="classnuspell_1_1_phonetic___table.html" target="_top" xlink:title="nuspell::Phonetic_Table\l\&lt; wchar_t \&gt;">
<polygon fill="#ffffff" stroke="#000000" points="231.5,-88 231.5,-118 352.5,-118 352.5,-88 231.5,-88"/>
<text text-anchor="start" x="239.5" y="-106" font-family="Helvetica,sans-Serif" font-size="10.00" fill="#000000">nuspell::Phonetic_Table</text>
<text text-anchor="middle" x="292" y="-95" font-family="Helvetica,sans-Serif" font-size="10.00" fill="#000000">&lt; wchar_t &gt;</text>
</a>
</g>
</g>
<!-- Node16&#45;&gt;Node14 -->
<g id="edge13" class="edge">
<title>Node16&#45;&gt;Node14</title>
<path fill="none" stroke="#9a32cd" stroke-dasharray="5,2" d="M362.6061,-113.7479C403.0315,-120.7864 454.4238,-131.2426 499,-145 513.774,-149.5597 529.6088,-155.9674 542.9799,-161.8524"/>
<polygon fill="#9a32cd" stroke="#9a32cd" points="363.0225,-110.2684 352.5755,-112.0321 361.8422,-117.1682 363.0225,-110.2684"/>
<text text-anchor="middle" x="436" y="-148" font-family="Helvetica,sans-Serif" font-size="10.00" fill="#000000"> phonetic_table</text>
</g>
<!-- Node17 -->
<g id="node15" class="node">
<title>Node17</title>
<g id="a_node15"><a xlink:href="classnuspell_1_1_substr___replacer.html" target="_top" xlink:title="nuspell::Substr_Replacer\l\&lt; wchar_t \&gt;">
<polygon fill="#ffffff" stroke="#000000" points="229,-39 229,-69 355,-69 355,-39 229,-39"/>
<text text-anchor="start" x="237" y="-57" font-family="Helvetica,sans-Serif" font-size="10.00" fill="#000000">nuspell::Substr_Replacer</text>
<text text-anchor="middle" x="292" y="-46" font-family="Helvetica,sans-Serif" font-size="10.00" fill="#000000">&lt; wchar_t &gt;</text>
</a>
</g>
</g>
<!-- Node17&#45;&gt;Node14 -->
<g id="edge14" class="edge">
<title>Node17&#45;&gt;Node14</title>
<path fill="none" stroke="#9a32cd" stroke-dasharray="5,2" d="M365.4457,-55.3735C406.9259,-58.9321 458.4252,-68.1995 499,-91 529.3984,-108.082 553.7513,-141.9975 566.1189,-161.7496"/>
<polygon fill="#9a32cd" stroke="#9a32cd" points="365.6392,-51.8782 355.4014,-54.6053 365.1053,-58.8578 365.6392,-51.8782"/>
<text text-anchor="middle" x="436" y="-105" font-family="Helvetica,sans-Serif" font-size="10.00" fill="#000000"> input_substr_replacer</text>
<text text-anchor="middle" x="436" y="-94" font-family="Helvetica,sans-Serif" font-size="10.00" fill="#000000">output_substr_replacer</text>
</g>
<!-- Node18&#45;&gt;Node14 -->
<g id="edge15" class="edge">
<title>Node18&#45;&gt;Node14</title>
<path fill="none" stroke="#9a32cd" stroke-dasharray="5,2" d="M353.7403,-241.1405C395.3215,-234.3563 451.1028,-223.6606 499,-209 513.9215,-204.4328 529.9144,-197.9535 543.3613,-192.0185"/>
<polygon fill="#9a32cd" stroke="#9a32cd" points="353.0779,-237.7019 343.7569,-242.7388 354.1845,-244.6138 353.0779,-237.7019"/>
<text text-anchor="middle" x="436" y="-252" font-family="Helvetica,sans-Serif" font-size="10.00" fill="#000000"> suffixes</text>
<text text-anchor="middle" x="436" y="-241" font-family="Helvetica,sans-Serif" font-size="10.00" fill="#000000">prefixes</text>
</g>
<!-- Node19 -->
<g id="node17" class="node">
<title>Node19</title>
<g id="a_node17"><a xlink:href="classnuspell_1_1_hash___multiset.html" target="_top" xlink:title="Affix_Table_Base\&lt; wchar\l_t , AffixT \&gt;">
<polygon fill="#ffffff" stroke="#000000" points="0,-220 0,-250 129,-250 129,-220 0,-220"/>
<text text-anchor="start" x="8" y="-238" font-family="Helvetica,sans-Serif" font-size="10.00" fill="#000000">Affix_Table_Base&lt; wchar</text>
<text text-anchor="middle" x="64.5" y="-227" font-family="Helvetica,sans-Serif" font-size="10.00" fill="#000000">_t , AffixT &gt;</text>
</a>
</g>
</g>
<!-- Node19&#45;&gt;Node18 -->
<g id="edge16" class="edge">
<title>Node19&#45;&gt;Node18</title>
<path fill="none" stroke="#8b1a1a" d="M139.176,-239.9237C172.2617,-242.1052 210.3678,-244.6177 240.2522,-246.5881"/>
<polygon fill="#8b1a1a" stroke="#8b1a1a" points="139.2925,-236.4239 129.0838,-239.2583 138.8319,-243.4087 139.2925,-236.4239"/>
</g>
<!-- Node20 -->
<g id="node18" class="node">
<title>Node20</title>
<g id="a_node18"><a xlink:href="classnuspell_1_1_break___table.html" target="_top" xlink:title="nuspell::Break_Table\l\&lt; wchar_t \&gt;">
<polygon fill="#ffffff" stroke="#000000" points="238,-186 238,-216 346,-216 346,-186 238,-186"/>
<text text-anchor="start" x="246" y="-204" font-family="Helvetica,sans-Serif" font-size="10.00" fill="#000000">nuspell::Break_Table</text>
<text text-anchor="middle" x="292" y="-193" font-family="Helvetica,sans-Serif" font-size="10.00" fill="#000000">&lt; wchar_t &gt;</text>
</a>
</g>
</g>
<!-- Node20&#45;&gt;Node14 -->
<g id="edge18" class="edge">
<title>Node20&#45;&gt;Node14</title>
<path fill="none" stroke="#9a32cd" stroke-dasharray="5,2" d="M356.2379,-195.5523C404.4228,-191.4659 469.8462,-185.9176 516.566,-181.9555"/>
<polygon fill="#9a32cd" stroke="#9a32cd" points="355.8988,-192.0684 346.2304,-196.401 356.4904,-199.0433 355.8988,-192.0684"/>
<text text-anchor="middle" x="436" y="-197" font-family="Helvetica,sans-Serif" font-size="10.00" fill="#000000"> break_table</text>
</g>
<!-- Node21 -->
<g id="node19" class="node">
<title>Node21</title>
<g id="a_node19"><a xlink:href="classnuspell_1_1_word___list.html" target="_top" xlink:title="Map between words and word_flags. ">
<polygon fill="#ffffff" stroke="#000000" points="526,-50.5 526,-69.5 624,-69.5 624,-50.5 526,-50.5"/>
<text text-anchor="middle" x="575" y="-57.5" font-family="Helvetica,sans-Serif" font-size="10.00" fill="#000000">nuspell::Word_List</text>
</a>
</g>
</g>
<!-- Node21&#45;&gt;Node5 -->
<g id="edge19" class="edge">
<title>Node21&#45;&gt;Node5</title>
<path fill="none" stroke="#9a32cd" stroke-dasharray="5,2" d="M593.8524,-76.7997C623.0847,-103.2352 680.5065,-156.7247 724,-207 747.0635,-233.6598 770.7681,-268.0827 781.7339,-284.4888"/>
<polygon fill="#9a32cd" stroke="#9a32cd" points="595.8358,-73.8761 586.0602,-69.7911 591.1547,-79.0807 595.8358,-73.8761"/>
<text text-anchor="middle" x="687.5" y="-210" font-family="Helvetica,sans-Serif" font-size="10.00" fill="#000000"> words</text>
</g>
<!-- Node22 -->
<g id="node20" class="node">
<title>Node22</title>
<g id="a_node20"><a xlink:href="classnuspell_1_1_hash___multiset.html" target="_top" xlink:title="Word_List_Base">
<polygon fill="#ffffff" stroke="#000000" points="247.5,-.5 247.5,-19.5 336.5,-19.5 336.5,-.5 247.5,-.5"/>
<text text-anchor="middle" x="292" y="-7.5" font-family="Helvetica,sans-Serif" font-size="10.00" fill="#000000">Word_List_Base</text>
</a>
</g>
</g>
<!-- Node22&#45;&gt;Node21 -->
<g id="edge20" class="edge">
<title>Node22&#45;&gt;Node21</title>
<path fill="none" stroke="#191970" d="M346.5881,-12.1216C388.685,-14.6388 448.1185,-20.1167 499,-32 517.8963,-36.4132 538.5047,-44.2049 553.4884,-50.4502"/>
<polygon fill="#191970" stroke="#191970" points="346.7238,-8.6238 336.5432,-11.5573 346.3311,-15.6127 346.7238,-8.6238"/>
</g>
<!-- Node23&#45;&gt;Node5 -->
<g id="edge22" class="edge">
<title>Node23&#45;&gt;Node5</title>
<path fill="none" stroke="#9a32cd" stroke-dasharray="5,2" d="M509.4324,-330.5937C567.814,-326.4948 651.4428,-319.294 724,-308 731.7546,-306.793 739.9784,-305.2195 747.8551,-303.5649"/>
<polygon fill="#9a32cd" stroke="#9a32cd" points="508.9331,-327.1197 499.1973,-331.2987 509.4142,-334.1032 508.9331,-327.1197"/>
<text text-anchor="middle" x="575" y="-333" font-family="Helvetica,sans-Serif" font-size="10.00" fill="#000000"> compound_rules</text>
</g>
</g>
</svg>
