<?xml version="1.0" encoding="UTF-8" standalone="no"?>
<!DOCTYPE svg PUBLIC "-//W3C//DTD SVG 1.1//EN"
 "http://www.w3.org/Graphics/SVG/1.1/DTD/svg11.dtd">
<!-- Generated by graphviz version 2.40.1 (20161225.0304)
 -->
<!-- Title: nuspell::Hash_Multiset::equal_range Pages: 1 -->
<svg width="504pt" height="294pt"
 viewBox="0.00 0.00 504.00 294.00" xmlns="http://www.w3.org/2000/svg" xmlns:xlink="http://www.w3.org/1999/xlink">
<g id="graph0" class="graph" transform="scale(1 1) rotate(0) translate(4 290)">
<title>nuspell::Hash_Multiset::equal_range</title>
<polygon fill="#ffffff" stroke="transparent" points="-4,4 -4,-290 500,-290 500,4 -4,4"/>
<!-- Node7 -->
<g id="node1" class="node">
<title>Node7</title>
<polygon fill="#bfbfbf" stroke="#000000" points="0,-128 0,-158 116,-158 116,-128 0,-128"/>
<text text-anchor="start" x="8" y="-146" font-family="Helvetica,sans-Serif" font-size="10.00" fill="#000000">nuspell::Hash_Multiset</text>
<text text-anchor="middle" x="58" y="-135" font-family="Helvetica,sans-Serif" font-size="10.00" fill="#000000">::equal_range</text>
</g>
<!-- Node8 -->
<g id="node2" class="node">
<title>Node8</title>
<g id="a_node2"><a xlink:href="class_my___dictionary.html#aea4b0e17845cec47e417eea4b64a0978" target="_top" xlink:title="My_Dictionary::spell">
<polygon fill="#ffffff" stroke="#000000" points="152,-133.5 152,-152.5 258,-152.5 258,-133.5 152,-133.5"/>
<text text-anchor="middle" x="205" y="-140.5" font-family="Helvetica,sans-Serif" font-size="10.00" fill="#000000">My_Dictionary::spell</text>
</a>
</g>
</g>
<!-- Node7&#45;&gt;Node8 -->
<g id="edge1" class="edge">
<title>Node7&#45;&gt;Node8</title>
<path fill="none" stroke="#191970" d="M126.3655,-143C134.845,-143 143.416,-143 151.6243,-143"/>
<polygon fill="#191970" stroke="#191970" points="126.0983,-139.5001 116.0983,-143 126.0983,-146.5001 126.0983,-139.5001"/>
</g>
<!-- Node9 -->
<g id="node3" class="node">
<title>Node9</title>
<g id="a_node3"><a xlink:href="main_8cxx.html#a1b26793ef57883beab96fb3f93153e59" target="_top" xlink:title="Normal loop, tokenize and check spelling. ">
<polygon fill="#ffffff" stroke="#000000" points="323.5,-266.5 323.5,-285.5 392.5,-285.5 392.5,-266.5 323.5,-266.5"/>
<text text-anchor="middle" x="358" y="-273.5" font-family="Helvetica,sans-Serif" font-size="10.00" fill="#000000">normal_loop</text>
</a>
</g>
</g>
<!-- Node8&#45;&gt;Node9 -->
<g id="edge2" class="edge">
<title>Node8&#45;&gt;Node9</title>
<path fill="none" stroke="#191970" d="M214.5978,-161.5266C228.6455,-186.8286 257.1839,-231.9066 294,-257 302.7154,-262.9403 313.3216,-267.0582 323.3731,-269.8987"/>
<polygon fill="#191970" stroke="#191970" points="217.6076,-159.7336 209.7842,-152.5889 211.4446,-163.0529 217.6076,-159.7336"/>
</g>
<!-- Node11 -->
<g id="node5" class="node">
<title>Node11</title>
<g id="a_node5"><a xlink:href="main_8cxx.html#a79f57b910d5a04abbc65e13b699add8a" target="_top" xlink:title="Normal loop, tokenize and check spelling. ">
<polygon fill="#ffffff" stroke="#000000" points="298.5,-228.5 298.5,-247.5 417.5,-247.5 417.5,-228.5 298.5,-228.5"/>
<text text-anchor="middle" x="358" y="-235.5" font-family="Helvetica,sans-Serif" font-size="10.00" fill="#000000">normal_nosuggest_loop</text>
</a>
</g>
</g>
<!-- Node8&#45;&gt;Node11 -->
<g id="edge4" class="edge">
<title>Node8&#45;&gt;Node11</title>
<path fill="none" stroke="#191970" d="M220.8894,-160.2736C237.5672,-177.4457 265.3086,-203.4121 294,-219 300.9254,-222.7625 308.6873,-225.8668 316.3527,-228.397"/>
<polygon fill="#191970" stroke="#191970" points="223.0591,-157.4756 213.6352,-152.6341 217.983,-162.2958 223.0591,-157.4756"/>
</g>
<!-- Node12 -->
<g id="node6" class="node">
<title>Node12</title>
<g id="a_node6"><a xlink:href="main_8cxx.html#a28035349fd4dce4052b75f480fb2e470" target="_top" xlink:title="Prints misspelled words from in to out. ">
<polygon fill="#ffffff" stroke="#000000" points="301.5,-190.5 301.5,-209.5 414.5,-209.5 414.5,-190.5 301.5,-190.5"/>
<text text-anchor="middle" x="358" y="-197.5" font-family="Helvetica,sans-Serif" font-size="10.00" fill="#000000">misspelled_word_loop</text>
</a>
</g>
</g>
<!-- Node8&#45;&gt;Node12 -->
<g id="edge6" class="edge">
<title>Node8&#45;&gt;Node12</title>
<path fill="none" stroke="#191970" d="M235.0449,-156.8493C252.136,-164.4684 274.0501,-173.8066 294,-181 303.3768,-184.381 313.6763,-187.6346 323.2202,-190.4649"/>
<polygon fill="#191970" stroke="#191970" points="236.1457,-153.5065 225.5905,-152.5911 233.2711,-159.8891 236.1457,-153.5065"/>
</g>
<!-- Node13 -->
<g id="node7" class="node">
<title>Node13</title>
<g id="a_node7"><a xlink:href="main_8cxx.html#a2c5b3bbd78b6902b7996b7a453be4523" target="_top" xlink:title="Prints correct words from in to out. ">
<polygon fill="#ffffff" stroke="#000000" points="310,-152.5 310,-171.5 406,-171.5 406,-152.5 310,-152.5"/>
<text text-anchor="middle" x="358" y="-159.5" font-family="Helvetica,sans-Serif" font-size="10.00" fill="#000000">correct_word_loop</text>
</a>
</g>
</g>
<!-- Node8&#45;&gt;Node13 -->
<g id="edge8" class="edge">
<title>Node8&#45;&gt;Node13</title>
<path fill="none" stroke="#191970" d="M268.1079,-150.8369C282.0629,-152.5699 296.6316,-154.3791 309.8777,-156.024"/>
<polygon fill="#191970" stroke="#191970" points="268.4377,-147.3511 258.0826,-149.592 267.575,-154.2977 268.4377,-147.3511"/>
</g>
<!-- Node14 -->
<g id="node8" class="node">
<title>Node14</title>
<g id="a_node8"><a xlink:href="main_8cxx.html#a4e73c17f0cea2b14e0f5a32e2e174f11" target="_top" xlink:title="Normal loop, tokenize and check spelling. ">
<polygon fill="#ffffff" stroke="#000000" points="319.5,-114.5 319.5,-133.5 396.5,-133.5 396.5,-114.5 319.5,-114.5"/>
<text text-anchor="middle" x="358" y="-121.5" font-family="Helvetica,sans-Serif" font-size="10.00" fill="#000000">segment_loop</text>
</a>
</g>
</g>
<!-- Node8&#45;&gt;Node14 -->
<g id="edge10" class="edge">
<title>Node8&#45;&gt;Node14</title>
<path fill="none" stroke="#191970" d="M268.1892,-135.153C285.5885,-132.9923 303.9356,-130.7139 319.4796,-128.7836"/>
<polygon fill="#191970" stroke="#191970" points="267.575,-131.7023 258.0826,-136.408 268.4377,-138.6489 267.575,-131.7023"/>
</g>
<!-- Node15 -->
<g id="node9" class="node">
<title>Node15</title>
<g id="a_node9"><a xlink:href="main_8cxx.html#a42fbab96f4709cbe51a87aa1c800149d" target="_top" xlink:title="Normal loop, tokenize and check spelling. ">
<polygon fill="#ffffff" stroke="#000000" points="294,-76.5 294,-95.5 422,-95.5 422,-76.5 294,-76.5"/>
<text text-anchor="middle" x="358" y="-83.5" font-family="Helvetica,sans-Serif" font-size="10.00" fill="#000000">segment_nosuggest_loop</text>
</a>
</g>
</g>
<!-- Node8&#45;&gt;Node15 -->
<g id="edge12" class="edge">
<title>Node8&#45;&gt;Node15</title>
<path fill="none" stroke="#191970" d="M235.0449,-129.1507C252.136,-121.5316 274.0501,-112.1934 294,-105 303.3768,-101.619 313.6763,-98.3654 323.2202,-95.5351"/>
<polygon fill="#191970" stroke="#191970" points="233.2711,-126.1109 225.5905,-133.4089 236.1457,-132.4935 233.2711,-126.1109"/>
</g>
<!-- Node16 -->
<g id="node10" class="node">
<title>Node16</title>
<g id="a_node10"><a xlink:href="main_8cxx.html#a9fc952c4c72f78efc086ff2e4475735e" target="_top" xlink:title="misspelled_line_loop">
<polygon fill="#ffffff" stroke="#000000" points="304.5,-38.5 304.5,-57.5 411.5,-57.5 411.5,-38.5 304.5,-38.5"/>
<text text-anchor="middle" x="358" y="-45.5" font-family="Helvetica,sans-Serif" font-size="10.00" fill="#000000">misspelled_line_loop</text>
</a>
</g>
</g>
<!-- Node8&#45;&gt;Node16 -->
<g id="edge14" class="edge">
<title>Node8&#45;&gt;Node16</title>
<path fill="none" stroke="#191970" d="M220.8894,-125.7264C237.5672,-108.5543 265.3086,-82.5879 294,-67 300.9254,-63.2375 308.6873,-60.1332 316.3527,-57.603"/>
<polygon fill="#191970" stroke="#191970" points="217.983,-123.7042 213.6352,-133.3659 223.0591,-128.5244 217.983,-123.7042"/>
</g>
<!-- Node17 -->
<g id="node11" class="node">
<title>Node17</title>
<g id="a_node11"><a xlink:href="main_8cxx.html#aadf259cfd24fcfdebb1ce40e3266aef7" target="_top" xlink:title="correct_line_loop">
<polygon fill="#ffffff" stroke="#000000" points="313,-.5 313,-19.5 403,-19.5 403,-.5 313,-.5"/>
<text text-anchor="middle" x="358" y="-7.5" font-family="Helvetica,sans-Serif" font-size="10.00" fill="#000000">correct_line_loop</text>
</a>
</g>
</g>
<!-- Node8&#45;&gt;Node17 -->
<g id="edge16" class="edge">
<title>Node8&#45;&gt;Node17</title>
<path fill="none" stroke="#191970" d="M214.5978,-124.4734C228.6455,-99.1714 257.1839,-54.0934 294,-29 299.6506,-25.1486 306.0961,-22.0633 312.6699,-19.5954"/>
<polygon fill="#191970" stroke="#191970" points="211.4446,-122.9471 209.7842,-133.4111 217.6076,-126.2664 211.4446,-122.9471"/>
</g>
<!-- Node10 -->
<g id="node4" class="node">
<title>Node10</title>
<g id="a_node4"><a xlink:href="main_8cxx.html#a0ddf1224851353fc92bfbff6f499fa97" target="_top" xlink:title="main">
<polygon fill="#ffffff" stroke="#000000" points="458,-133.5 458,-152.5 496,-152.5 496,-133.5 458,-133.5"/>
<text text-anchor="middle" x="477" y="-140.5" font-family="Helvetica,sans-Serif" font-size="10.00" fill="#000000">main</text>
</a>
</g>
</g>
<!-- Node9&#45;&gt;Node10 -->
<g id="edge3" class="edge">
<title>Node9&#45;&gt;Node10</title>
<path fill="none" stroke="#191970" d="M402.4866,-268.0721C409.5386,-265.3905 416.3557,-261.802 422,-257 455.6416,-228.3791 470.3612,-174.4244 475.1333,-152.5617"/>
<polygon fill="#191970" stroke="#191970" points="401.2535,-264.7923 392.8127,-271.1956 403.4044,-271.4536 401.2535,-264.7923"/>
</g>
<!-- Node11&#45;&gt;Node10 -->
<g id="edge5" class="edge">
<title>Node11&#45;&gt;Node10</title>
<path fill="none" stroke="#191970" d="M412.9658,-224.4068C416.131,-222.7992 419.1718,-221.004 422,-219 446.8505,-201.3911 464.7431,-168.9553 472.5831,-152.7496"/>
<polygon fill="#191970" stroke="#191970" points="411.5235,-221.2175 403.7896,-228.4589 414.3513,-227.621 411.5235,-221.2175"/>
</g>
<!-- Node12&#45;&gt;Node10 -->
<g id="edge7" class="edge">
<title>Node12&#45;&gt;Node10</title>
<path fill="none" stroke="#191970" d="M407.1437,-187.1573C412.247,-185.3089 417.286,-183.2573 422,-181 438.1203,-173.2806 454.7491,-161.0973 465.4411,-152.6142"/>
<polygon fill="#191970" stroke="#191970" points="405.6814,-183.9563 397.319,-190.4618 407.9131,-190.5911 405.6814,-183.9563"/>
</g>
<!-- Node13&#45;&gt;Node10 -->
<g id="edge9" class="edge">
<title>Node13&#45;&gt;Node10</title>
<path fill="none" stroke="#191970" d="M415.9668,-152.7448C431.1365,-150.3227 446.4391,-147.8795 457.927,-146.0453"/>
<polygon fill="#191970" stroke="#191970" points="415.3819,-149.2938 406.0588,-154.3267 416.4856,-156.2062 415.3819,-149.2938"/>
</g>
<!-- Node14&#45;&gt;Node10 -->
<g id="edge11" class="edge">
<title>Node14&#45;&gt;Node10</title>
<path fill="none" stroke="#191970" d="M406.7267,-131.7799C424.7073,-134.6507 444.0458,-137.7384 457.8754,-139.9465"/>
<polygon fill="#191970" stroke="#191970" points="407.0627,-128.2893 396.6359,-130.1688 405.959,-135.2017 407.0627,-128.2893"/>
</g>
<!-- Node15&#45;&gt;Node10 -->
<g id="edge13" class="edge">
<title>Node15&#45;&gt;Node10</title>
<path fill="none" stroke="#191970" d="M407.1437,-98.8427C412.247,-100.6911 417.286,-102.7427 422,-105 438.1203,-112.7194 454.7491,-124.9027 465.4411,-133.3858"/>
<polygon fill="#191970" stroke="#191970" points="407.9131,-95.4089 397.319,-95.5382 405.6814,-102.0437 407.9131,-95.4089"/>
</g>
<!-- Node16&#45;&gt;Node10 -->
<g id="edge15" class="edge">
<title>Node16&#45;&gt;Node10</title>
<path fill="none" stroke="#191970" d="M412.9658,-61.5932C416.131,-63.2008 419.1718,-64.996 422,-67 446.8505,-84.6089 464.7431,-117.0447 472.5831,-133.2504"/>
<polygon fill="#191970" stroke="#191970" points="414.3513,-58.379 403.7896,-57.5411 411.5235,-64.7825 414.3513,-58.379"/>
</g>
<!-- Node17&#45;&gt;Node10 -->
<g id="edge17" class="edge">
<title>Node17&#45;&gt;Node10</title>
<path fill="none" stroke="#191970" d="M412.4715,-22.503C415.8734,-24.3746 419.0923,-26.5263 422,-29 455.6416,-57.6209 470.3612,-111.5756 475.1333,-133.4383"/>
<polygon fill="#191970" stroke="#191970" points="413.6719,-19.2018 403.127,-18.1742 410.7295,-25.5534 413.6719,-19.2018"/>
</g>
</g>
</svg>
