<?xml version="1.0" encoding="UTF-8" standalone="no"?>
<!DOCTYPE svg PUBLIC "-//W3C//DTD SVG 1.1//EN"
 "http://www.w3.org/Graphics/SVG/1.1/DTD/svg11.dtd">
<!-- Generated by graphviz version 2.40.1 (20161225.0304)
 -->
<!-- Title: nuspell::List_Strings::end Pages: 1 -->
<svg width="276pt" height="186pt"
 viewBox="0.00 0.00 276.00 186.00" xmlns="http://www.w3.org/2000/svg" xmlns:xlink="http://www.w3.org/1999/xlink">
<g id="graph0" class="graph" transform="scale(1 1) rotate(0) translate(4 182)">
<title>nuspell::List_Strings::end</title>
<polygon fill="#ffffff" stroke="transparent" points="-4,4 -4,-182 272,-182 272,4 -4,4"/>
<!-- Node75 -->
<g id="node1" class="node">
<title>Node75</title>
<polygon fill="#bfbfbf" stroke="#000000" points="0,-79 0,-98 127,-98 127,-79 0,-79"/>
<text text-anchor="middle" x="63.5" y="-86" font-family="Helvetica,sans-Serif" font-size="10.00" fill="#000000">nuspell::List_Strings::end</text>
</g>
<!-- Node76 -->
<g id="node2" class="node">
<title>Node76</title>
<g id="a_node2"><a xlink:href="classnuspell_1_1_list___strings.html#a42c76cd55f1873495d3b154d1ae2e3e9" target="_top" xlink:title="nuspell::List_Strings\l::operator=">
<polygon fill="#ffffff" stroke="#000000" points="163,-147.5 163,-177.5 268,-177.5 268,-147.5 163,-147.5"/>
<text text-anchor="start" x="171" y="-165.5" font-family="Helvetica,sans-Serif" font-size="10.00" fill="#000000">nuspell::List_Strings</text>
<text text-anchor="middle" x="215.5" y="-154.5" font-family="Helvetica,sans-Serif" font-size="10.00" fill="#000000">::operator=</text>
</a>
</g>
</g>
<!-- Node75&#45;&gt;Node76 -->
<g id="edge1" class="edge">
<title>Node75&#45;&gt;Node76</title>
<path fill="none" stroke="#191970" d="M91.2091,-102.7679C111.0955,-112.9234 138.5824,-126.7887 163,-138.5 169.1446,-141.4471 175.7291,-144.522 182.0863,-147.4487"/>
<polygon fill="#191970" stroke="#191970" points="92.6002,-99.5481 82.1039,-98.1062 89.41,-105.7789 92.6002,-99.5481"/>
</g>
<!-- Node77 -->
<g id="node3" class="node">
<title>Node77</title>
<g id="a_node3"><a xlink:href="classnuspell_1_1_list___strings.html#a5380856ecf4f33f865893951049454a7" target="_top" xlink:title="nuspell::List_Strings\l::operator==">
<polygon fill="#ffffff" stroke="#000000" points="163,-98.5 163,-128.5 268,-128.5 268,-98.5 163,-98.5"/>
<text text-anchor="start" x="171" y="-116.5" font-family="Helvetica,sans-Serif" font-size="10.00" fill="#000000">nuspell::List_Strings</text>
<text text-anchor="middle" x="215.5" y="-105.5" font-family="Helvetica,sans-Serif" font-size="10.00" fill="#000000">::operator==</text>
</a>
</g>
</g>
<!-- Node75&#45;&gt;Node77 -->
<g id="edge2" class="edge">
<title>Node75&#45;&gt;Node77</title>
<path fill="none" stroke="#191970" d="M131.3908,-99.6663C141.9079,-101.396 152.6345,-103.1603 162.7527,-104.8245"/>
<polygon fill="#191970" stroke="#191970" points="131.8338,-96.1922 121.3983,-98.0227 130.6977,-103.0994 131.8338,-96.1922"/>
</g>
<!-- Node78 -->
<g id="node4" class="node">
<title>Node78</title>
<g id="a_node4"><a xlink:href="classnuspell_1_1_list___strings.html#a99b603000b99d86d8367d0e7cf88f9ba" target="_top" xlink:title="nuspell::List_Strings\l::operator\&lt;">
<polygon fill="#ffffff" stroke="#000000" points="163,-49.5 163,-79.5 268,-79.5 268,-49.5 163,-49.5"/>
<text text-anchor="start" x="171" y="-67.5" font-family="Helvetica,sans-Serif" font-size="10.00" fill="#000000">nuspell::List_Strings</text>
<text text-anchor="middle" x="215.5" y="-56.5" font-family="Helvetica,sans-Serif" font-size="10.00" fill="#000000">::operator&lt;</text>
</a>
</g>
</g>
<!-- Node75&#45;&gt;Node78 -->
<g id="edge3" class="edge">
<title>Node75&#45;&gt;Node78</title>
<path fill="none" stroke="#191970" d="M133.9672,-77.3736C143.5872,-75.8547 153.326,-74.3169 162.5628,-72.8585"/>
<polygon fill="#191970" stroke="#191970" points="133.3429,-73.9287 124.0112,-78.9456 134.4347,-80.8431 133.3429,-73.9287"/>
</g>
<!-- Node79 -->
<g id="node5" class="node">
<title>Node79</title>
<g id="a_node5"><a xlink:href="classnuspell_1_1_list___strings.html#a9d8367f81cb8b33cafe18f14918ff8c8" target="_top" xlink:title="nuspell::List_Strings\l::operator\&gt;">
<polygon fill="#ffffff" stroke="#000000" points="163,-.5 163,-30.5 268,-30.5 268,-.5 163,-.5"/>
<text text-anchor="start" x="171" y="-18.5" font-family="Helvetica,sans-Serif" font-size="10.00" fill="#000000">nuspell::List_Strings</text>
<text text-anchor="middle" x="215.5" y="-7.5" font-family="Helvetica,sans-Serif" font-size="10.00" fill="#000000">::operator&gt;</text>
</a>
</g>
</g>
<!-- Node75&#45;&gt;Node79 -->
<g id="edge4" class="edge">
<title>Node75&#45;&gt;Node79</title>
<path fill="none" stroke="#191970" d="M92.435,-74.4938C112.2795,-64.8996 139.2189,-51.8982 163,-40.5 169.7366,-37.2711 176.9654,-33.82 183.8389,-30.545"/>
<polygon fill="#191970" stroke="#191970" points="90.7866,-71.4031 83.3081,-78.908 93.8344,-77.7048 90.7866,-71.4031"/>
</g>
</g>
</svg>
