<?xml version="1.0" encoding="UTF-8" standalone="no"?>
<!DOCTYPE svg PUBLIC "-//W3C//DTD SVG 1.1//EN"
 "http://www.w3.org/Graphics/SVG/1.1/DTD/svg11.dtd">
<!-- Generated by graphviz version 2.40.1 (20161225.0304)
 -->
<!-- Title: nuspell::String_Set::lower_bound Pages: 1 -->
<svg width="245pt" height="39pt"
 viewBox="0.00 0.00 245.00 39.00" xmlns="http://www.w3.org/2000/svg" xmlns:xlink="http://www.w3.org/1999/xlink">
<g id="graph0" class="graph" transform="scale(1 1) rotate(0) translate(4 35)">
<title>nuspell::String_Set::lower_bound</title>
<polygon fill="#ffffff" stroke="transparent" points="-4,4 -4,-35 241,-35 241,4 -4,4"/>
<!-- Node140 -->
<g id="node1" class="node">
<title>Node140</title>
<polygon fill="#bfbfbf" stroke="#000000" points="0,-.5 0,-30.5 99,-30.5 99,-.5 0,-.5"/>
<text text-anchor="start" x="8" y="-18.5" font-family="Helvetica,sans-Serif" font-size="10.00" fill="#000000">nuspell::String_Set</text>
<text text-anchor="middle" x="49.5" y="-7.5" font-family="Helvetica,sans-Serif" font-size="10.00" fill="#000000">::lower_bound</text>
</g>
<!-- Node141 -->
<g id="node2" class="node">
<title>Node141</title>
<g id="a_node2"><a xlink:href="classnuspell_1_1_string___set.html#ac698158245a14d71e46f92af70098037" target="_top" xlink:title="nuspell::String_Set\l\&lt; char16_t \&gt;::insert">
<polygon fill="#ffffff" stroke="#000000" points="135,-.5 135,-30.5 237,-30.5 237,-.5 135,-.5"/>
<text text-anchor="start" x="143" y="-18.5" font-family="Helvetica,sans-Serif" font-size="10.00" fill="#000000">nuspell::String_Set</text>
<text text-anchor="middle" x="186" y="-7.5" font-family="Helvetica,sans-Serif" font-size="10.00" fill="#000000">&lt; char16_t &gt;::insert</text>
</a>
</g>
</g>
<!-- Node140&#45;&gt;Node141 -->
<g id="edge1" class="edge">
<title>Node140&#45;&gt;Node141</title>
<path fill="none" stroke="#191970" d="M109.3717,-15.5C117.8391,-15.5 126.4811,-15.5 134.7659,-15.5"/>
<polygon fill="#191970" stroke="#191970" points="109.1658,-12.0001 99.1658,-15.5 109.1657,-19.0001 109.1658,-12.0001"/>
</g>
</g>
</svg>
