<?xml version="1.0" encoding="UTF-8" standalone="no"?>
<!DOCTYPE svg PUBLIC "-//W3C//DTD SVG 1.1//EN"
 "http://www.w3.org/Graphics/SVG/1.1/DTD/svg11.dtd">
<!-- Generated by graphviz version 2.40.1 (20161225.0304)
 -->
<!-- Title: nuspell::Hash_Multiset::rehash Pages: 1 -->
<svg width="259pt" height="88pt"
 viewBox="0.00 0.00 259.00 88.00" xmlns="http://www.w3.org/2000/svg" xmlns:xlink="http://www.w3.org/1999/xlink">
<g id="graph0" class="graph" transform="scale(1 1) rotate(0) translate(4 84)">
<title>nuspell::Hash_Multiset::rehash</title>
<polygon fill="#ffffff" stroke="transparent" points="-4,4 -4,-84 255,-84 255,4 -4,4"/>
<!-- Node25 -->
<g id="node1" class="node">
<title>Node25</title>
<polygon fill="#bfbfbf" stroke="#000000" points="0,-24.5 0,-54.5 116,-54.5 116,-24.5 0,-24.5"/>
<text text-anchor="start" x="8" y="-42.5" font-family="Helvetica,sans-Serif" font-size="10.00" fill="#000000">nuspell::Hash_Multiset</text>
<text text-anchor="middle" x="58" y="-31.5" font-family="Helvetica,sans-Serif" font-size="10.00" fill="#000000">::rehash</text>
</g>
<!-- Node26 -->
<g id="node2" class="node">
<title>Node26</title>
<g id="a_node2"><a xlink:href="classnuspell_1_1_string___set.html#a10add0e75e7bd49f17c69718cee8dc86" target="_top" xlink:title="nuspell::String_Set\l::empty">
<polygon fill="#ffffff" stroke="#000000" points="152,-49.5 152,-79.5 251,-79.5 251,-49.5 152,-49.5"/>
<text text-anchor="start" x="160" y="-67.5" font-family="Helvetica,sans-Serif" font-size="10.00" fill="#000000">nuspell::String_Set</text>
<text text-anchor="middle" x="201.5" y="-56.5" font-family="Helvetica,sans-Serif" font-size="10.00" fill="#000000">::empty</text>
</a>
</g>
</g>
<!-- Node25&#45;&gt;Node26 -->
<g id="edge1" class="edge">
<title>Node25&#45;&gt;Node26</title>
<path fill="none" stroke="#191970" d="M116.3669,-49.6685C124.7521,-51.1293 133.39,-52.6342 141.8006,-54.0994"/>
<polygon fill="#191970" stroke="#191970" points="141.4622,-57.5931 151.9145,-55.8614 142.6636,-50.697 141.4622,-57.5931"/>
</g>
<!-- Node27 -->
<g id="node3" class="node">
<title>Node27</title>
<g id="a_node3"><a xlink:href="classnuspell_1_1_string___set.html#add6cff610d86d1a5dd3553f1e864a48d" target="_top" xlink:title="nuspell::String_Set\l::size">
<polygon fill="#ffffff" stroke="#000000" points="152,-.5 152,-30.5 251,-30.5 251,-.5 152,-.5"/>
<text text-anchor="start" x="160" y="-18.5" font-family="Helvetica,sans-Serif" font-size="10.00" fill="#000000">nuspell::String_Set</text>
<text text-anchor="middle" x="201.5" y="-7.5" font-family="Helvetica,sans-Serif" font-size="10.00" fill="#000000">::size</text>
</a>
</g>
</g>
<!-- Node25&#45;&gt;Node27 -->
<g id="edge2" class="edge">
<title>Node25&#45;&gt;Node27</title>
<path fill="none" stroke="#191970" d="M116.3669,-29.7383C124.7521,-28.3359 133.39,-26.8912 141.8006,-25.4846"/>
<polygon fill="#191970" stroke="#191970" points="142.6289,-28.8947 151.9145,-23.793 141.4741,-21.9906 142.6289,-28.8947"/>
</g>
</g>
</svg>
