<?xml version="1.0" encoding="UTF-8" standalone="no"?>
<!DOCTYPE svg PUBLIC "-//W3C//DTD SVG 1.1//EN"
 "http://www.w3.org/Graphics/SVG/1.1/DTD/svg11.dtd">
<!-- Generated by graphviz version 2.40.1 (20161225.0304)
 -->
<!-- Title: nuspell::String_Set::empty Pages: 1 -->
<svg width="259pt" height="39pt"
 viewBox="0.00 0.00 259.00 39.00" xmlns="http://www.w3.org/2000/svg" xmlns:xlink="http://www.w3.org/1999/xlink">
<g id="graph0" class="graph" transform="scale(1 1) rotate(0) translate(4 35)">
<title>nuspell::String_Set::empty</title>
<polygon fill="#ffffff" stroke="transparent" points="-4,4 -4,-35 255,-35 255,4 -4,4"/>
<!-- Node53 -->
<g id="node1" class="node">
<title>Node53</title>
<polygon fill="#bfbfbf" stroke="#000000" points="0,-.5 0,-30.5 99,-30.5 99,-.5 0,-.5"/>
<text text-anchor="start" x="8" y="-18.5" font-family="Helvetica,sans-Serif" font-size="10.00" fill="#000000">nuspell::String_Set</text>
<text text-anchor="middle" x="49.5" y="-7.5" font-family="Helvetica,sans-Serif" font-size="10.00" fill="#000000">::empty</text>
</g>
<!-- Node54 -->
<g id="node2" class="node">
<title>Node54</title>
<g id="a_node2"><a xlink:href="classnuspell_1_1_hash___multiset.html#ab3ead61cc282734748b90c838c624a2f" target="_top" xlink:title="nuspell::Hash_Multiset\l::rehash">
<polygon fill="#ffffff" stroke="#000000" points="135,-.5 135,-30.5 251,-30.5 251,-.5 135,-.5"/>
<text text-anchor="start" x="143" y="-18.5" font-family="Helvetica,sans-Serif" font-size="10.00" fill="#000000">nuspell::Hash_Multiset</text>
<text text-anchor="middle" x="193" y="-7.5" font-family="Helvetica,sans-Serif" font-size="10.00" fill="#000000">::rehash</text>
</a>
</g>
</g>
<!-- Node53&#45;&gt;Node54 -->
<g id="edge1" class="edge">
<title>Node53&#45;&gt;Node54</title>
<path fill="none" stroke="#191970" d="M109.4309,-15.5C117.8652,-15.5 126.5235,-15.5 134.9223,-15.5"/>
<polygon fill="#191970" stroke="#191970" points="109.2866,-12.0001 99.2866,-15.5 109.2866,-19.0001 109.2866,-12.0001"/>
</g>
</g>
</svg>
