<?xml version="1.0" encoding="UTF-8" standalone="no"?>
<!DOCTYPE svg PUBLIC "-//W3C//DTD SVG 1.1//EN"
 "http://www.w3.org/Graphics/SVG/1.1/DTD/svg11.dtd">
<!-- Generated by graphviz version 2.40.1 (20161225.0304)
 -->
<!-- Title: nuspell::String_Set::rbegin Pages: 1 -->
<svg width="260pt" height="149pt"
 viewBox="0.00 0.00 260.00 149.00" xmlns="http://www.w3.org/2000/svg" xmlns:xlink="http://www.w3.org/1999/xlink">
<g id="graph0" class="graph" transform="scale(1 1) rotate(0) translate(4 145)">
<title>nuspell::String_Set::rbegin</title>
<polygon fill="#ffffff" stroke="transparent" points="-4,4 -4,-145 256,-145 256,4 -4,4"/>
<!-- Node169 -->
<g id="node1" class="node">
<title>Node169</title>
<polygon fill="#bfbfbf" stroke="#000000" points="0,-55.5 0,-85.5 99,-85.5 99,-55.5 0,-55.5"/>
<text text-anchor="start" x="8" y="-73.5" font-family="Helvetica,sans-Serif" font-size="10.00" fill="#000000">nuspell::String_Set</text>
<text text-anchor="middle" x="49.5" y="-62.5" font-family="Helvetica,sans-Serif" font-size="10.00" fill="#000000">::rbegin</text>
</g>
<!-- Node170 -->
<g id="node2" class="node">
<title>Node170</title>
<g id="a_node2"><a xlink:href="classnuspell_1_1_hash___multiset.html#aad3b03ada05b0c7d540c83545e81ee23" target="_top" xlink:title="nuspell::Hash_Multiset\l\&lt; string \&gt;::insert">
<polygon fill="#ffffff" stroke="#000000" points="135.5,-110.5 135.5,-140.5 251.5,-140.5 251.5,-110.5 135.5,-110.5"/>
<text text-anchor="start" x="143.5" y="-128.5" font-family="Helvetica,sans-Serif" font-size="10.00" fill="#000000">nuspell::Hash_Multiset</text>
<text text-anchor="middle" x="193.5" y="-117.5" font-family="Helvetica,sans-Serif" font-size="10.00" fill="#000000">&lt; string &gt;::insert</text>
</a>
</g>
</g>
<!-- Node169&#45;&gt;Node170 -->
<g id="edge1" class="edge">
<title>Node169&#45;&gt;Node170</title>
<path fill="none" stroke="#191970" d="M98.4102,-89.181C116.5968,-96.1272 136.9816,-103.9131 154.1989,-110.4892"/>
<polygon fill="#191970" stroke="#191970" points="99.4393,-85.8275 88.8486,-85.529 96.9416,-92.3667 99.4393,-85.8275"/>
</g>
<!-- Node171 -->
<g id="node3" class="node">
<title>Node171</title>
<g id="a_node3"><a xlink:href="classnuspell_1_1_hash___multiset.html#ad3a00cea7680614167e392c7c6df5c90" target="_top" xlink:title="nuspell::Hash_Multiset\l\&lt; string \&gt;::equal_range\l_nonconst_unsafe">
<polygon fill="#ffffff" stroke="#000000" points="135,-50 135,-91 252,-91 252,-50 135,-50"/>
<text text-anchor="start" x="143" y="-79" font-family="Helvetica,sans-Serif" font-size="10.00" fill="#000000">nuspell::Hash_Multiset</text>
<text text-anchor="start" x="143" y="-68" font-family="Helvetica,sans-Serif" font-size="10.00" fill="#000000">&lt; string &gt;::equal_range</text>
<text text-anchor="middle" x="193.5" y="-57" font-family="Helvetica,sans-Serif" font-size="10.00" fill="#000000">_nonconst_unsafe</text>
</a>
</g>
</g>
<!-- Node169&#45;&gt;Node171 -->
<g id="edge2" class="edge">
<title>Node169&#45;&gt;Node171</title>
<path fill="none" stroke="#191970" d="M109.2566,-70.5C117.7407,-70.5 126.4585,-70.5 134.92,-70.5"/>
<polygon fill="#191970" stroke="#191970" points="109.0567,-67.0001 99.0566,-70.5 109.0566,-74.0001 109.0567,-67.0001"/>
</g>
<!-- Node172 -->
<g id="node4" class="node">
<title>Node172</title>
<g id="a_node4"><a xlink:href="classnuspell_1_1_hash___multiset.html#a615f7b3ae53f0cef400668746d8be501" target="_top" xlink:title="nuspell::Hash_Multiset\l\&lt; string \&gt;::equal_range">
<polygon fill="#ffffff" stroke="#000000" points="135,-.5 135,-30.5 252,-30.5 252,-.5 135,-.5"/>
<text text-anchor="start" x="143" y="-18.5" font-family="Helvetica,sans-Serif" font-size="10.00" fill="#000000">nuspell::Hash_Multiset</text>
<text text-anchor="middle" x="193.5" y="-7.5" font-family="Helvetica,sans-Serif" font-size="10.00" fill="#000000">&lt; string &gt;::equal_range</text>
</a>
</g>
</g>
<!-- Node169&#45;&gt;Node172 -->
<g id="edge3" class="edge">
<title>Node169&#45;&gt;Node172</title>
<path fill="none" stroke="#191970" d="M98.4102,-51.819C116.5968,-44.8728 136.9816,-37.0869 154.1989,-30.5108"/>
<polygon fill="#191970" stroke="#191970" points="96.9416,-48.6333 88.8486,-55.471 99.4393,-55.1725 96.9416,-48.6333"/>
</g>
</g>
</svg>
