<?xml version="1.0" encoding="UTF-8" standalone="no"?>
<!DOCTYPE svg PUBLIC "-//W3C//DTD SVG 1.1//EN"
 "http://www.w3.org/Graphics/SVG/1.1/DTD/svg11.dtd">
<!-- Generated by graphviz version 2.40.1 (20161225.0304)
 -->
<!-- Title: nuspell::Hash_Multiset::equal_range_nonconst_unsafe Pages: 1 -->
<svg width="285pt" height="176pt"
 viewBox="0.00 0.00 285.00 176.00" xmlns="http://www.w3.org/2000/svg" xmlns:xlink="http://www.w3.org/1999/xlink">
<g id="graph0" class="graph" transform="scale(1 1) rotate(0) translate(4 172)">
<title>nuspell::Hash_Multiset::equal_range_nonconst_unsafe</title>
<polygon fill="#ffffff" stroke="transparent" points="-4,4 -4,-172 281,-172 281,4 -4,4"/>
<!-- Node14 -->
<g id="node1" class="node">
<title>Node14</title>
<polygon fill="#bfbfbf" stroke="#000000" points="0,-66 0,-107 120,-107 120,-66 0,-66"/>
<text text-anchor="start" x="8" y="-95" font-family="Helvetica,sans-Serif" font-size="10.00" fill="#000000">nuspell::Hash_Multiset</text>
<text text-anchor="start" x="8" y="-84" font-family="Helvetica,sans-Serif" font-size="10.00" fill="#000000">::equal_range_nonconst</text>
<text text-anchor="middle" x="60" y="-73" font-family="Helvetica,sans-Serif" font-size="10.00" fill="#000000">_unsafe</text>
</g>
<!-- Node15 -->
<g id="node2" class="node">
<title>Node15</title>
<g id="a_node2"><a xlink:href="classnuspell_1_1_string___set.html#a18bc20de4ed5671de253d5ffa25bde27" target="_top" xlink:title="nuspell::String_Set\l::begin">
<polygon fill="#ffffff" stroke="#000000" points="167,-137.5 167,-167.5 266,-167.5 266,-137.5 167,-137.5"/>
<text text-anchor="start" x="175" y="-155.5" font-family="Helvetica,sans-Serif" font-size="10.00" fill="#000000">nuspell::String_Set</text>
<text text-anchor="middle" x="216.5" y="-144.5" font-family="Helvetica,sans-Serif" font-size="10.00" fill="#000000">::begin</text>
</a>
</g>
</g>
<!-- Node14&#45;&gt;Node15 -->
<g id="edge1" class="edge">
<title>Node14&#45;&gt;Node15</title>
<path fill="none" stroke="#191970" d="M107.807,-107.0486C123.179,-113.6208 140.2942,-120.9014 156,-127.5 160.7248,-129.4851 165.6623,-131.5465 170.5909,-133.5958"/>
<polygon fill="#191970" stroke="#191970" points="169.4218,-136.9 179.9997,-137.4985 172.1038,-130.4341 169.4218,-136.9"/>
</g>
<!-- Node16 -->
<g id="node3" class="node">
<title>Node16</title>
<g id="a_node3"><a xlink:href="classnuspell_1_1_string___set.html#a1ac519529575a85ad75d6ddebde856ef" target="_top" xlink:title="nuspell::String_Set::end">
<polygon fill="#ffffff" stroke="#000000" points="156,-99 156,-118 277,-118 277,-99 156,-99"/>
<text text-anchor="middle" x="216.5" y="-106" font-family="Helvetica,sans-Serif" font-size="10.00" fill="#000000">nuspell::String_Set::end</text>
</a>
</g>
</g>
<!-- Node14&#45;&gt;Node16 -->
<g id="edge2" class="edge">
<title>Node14&#45;&gt;Node16</title>
<path fill="none" stroke="#191970" d="M120.0594,-94.9429C128.4853,-96.1273 137.2092,-97.3537 145.8101,-98.5628"/>
<polygon fill="#191970" stroke="#191970" points="145.4351,-102.0444 155.825,-99.9706 146.4096,-95.1125 145.4351,-102.0444"/>
</g>
<!-- Node17 -->
<g id="node4" class="node">
<title>Node17</title>
<g id="a_node4"><a xlink:href="classnuspell_1_1_string___set.html#a7f8872faa8c23278b86d274f78e4cb3a" target="_top" xlink:title="nuspell::String_Set\l::rbegin">
<polygon fill="#ffffff" stroke="#000000" points="167,-49.5 167,-79.5 266,-79.5 266,-49.5 167,-49.5"/>
<text text-anchor="start" x="175" y="-67.5" font-family="Helvetica,sans-Serif" font-size="10.00" fill="#000000">nuspell::String_Set</text>
<text text-anchor="middle" x="216.5" y="-56.5" font-family="Helvetica,sans-Serif" font-size="10.00" fill="#000000">::rbegin</text>
</a>
</g>
</g>
<!-- Node14&#45;&gt;Node17 -->
<g id="edge3" class="edge">
<title>Node14&#45;&gt;Node17</title>
<path fill="none" stroke="#191970" d="M120.0594,-78.0571C131.9266,-76.3889 144.3847,-74.6376 156.2578,-72.9685"/>
<polygon fill="#191970" stroke="#191970" points="157.0964,-76.3852 166.5118,-71.5271 156.1219,-69.4533 157.0964,-76.3852"/>
</g>
<!-- Node18 -->
<g id="node5" class="node">
<title>Node18</title>
<g id="a_node5"><a xlink:href="classnuspell_1_1_string___set.html#a09c06cd7c4693e87e444f9755e584c12" target="_top" xlink:title="nuspell::String_Set\l::rend">
<polygon fill="#ffffff" stroke="#000000" points="167,-.5 167,-30.5 266,-30.5 266,-.5 167,-.5"/>
<text text-anchor="start" x="175" y="-18.5" font-family="Helvetica,sans-Serif" font-size="10.00" fill="#000000">nuspell::String_Set</text>
<text text-anchor="middle" x="216.5" y="-7.5" font-family="Helvetica,sans-Serif" font-size="10.00" fill="#000000">::rend</text>
</a>
</g>
</g>
<!-- Node14&#45;&gt;Node18 -->
<g id="edge4" class="edge">
<title>Node14&#45;&gt;Node18</title>
<path fill="none" stroke="#191970" d="M101.8242,-65.8441C118.573,-57.7339 138.1073,-48.4764 156,-40.5 160.4375,-38.5218 165.0801,-36.5071 169.7355,-34.5233"/>
<polygon fill="#191970" stroke="#191970" points="171.3909,-37.6239 179.2478,-30.5162 168.6734,-31.1729 171.3909,-37.6239"/>
</g>
</g>
</svg>
