<?xml version="1.0" encoding="UTF-8" standalone="no"?>
<!DOCTYPE svg PUBLIC "-//W3C//DTD SVG 1.1//EN"
 "http://www.w3.org/Graphics/SVG/1.1/DTD/svg11.dtd">
<!-- Generated by graphviz version 2.40.1 (20161225.0304)
 -->
<!-- Title: nuspell::Suffix::check_condition Pages: 1 -->
<svg width="381pt" height="39pt"
 viewBox="0.00 0.00 381.00 39.00" xmlns="http://www.w3.org/2000/svg" xmlns:xlink="http://www.w3.org/1999/xlink">
<g id="graph0" class="graph" transform="scale(1 1) rotate(0) translate(4 35)">
<title>nuspell::Suffix::check_condition</title>
<polygon fill="#ffffff" stroke="transparent" points="-4,4 -4,-35 377,-35 377,4 -4,4"/>
<!-- Node4 -->
<g id="node1" class="node">
<title>Node4</title>
<polygon fill="#bfbfbf" stroke="#000000" points="0,-.5 0,-30.5 111,-30.5 111,-.5 0,-.5"/>
<text text-anchor="start" x="8" y="-18.5" font-family="Helvetica,sans-Serif" font-size="10.00" fill="#000000">nuspell::Suffix::check</text>
<text text-anchor="middle" x="55.5" y="-7.5" font-family="Helvetica,sans-Serif" font-size="10.00" fill="#000000">_condition</text>
</g>
<!-- Node5 -->
<g id="node2" class="node">
<title>Node5</title>
<g id="a_node2"><a xlink:href="classnuspell_1_1_condition.html#abf7a7167c9bd5b62f50bd73a14efefcb" target="_top" xlink:title="nuspell::Condition\l::match_suffix">
<polygon fill="#ffffff" stroke="#000000" points="147,-.5 147,-30.5 242,-30.5 242,-.5 147,-.5"/>
<text text-anchor="start" x="155" y="-18.5" font-family="Helvetica,sans-Serif" font-size="10.00" fill="#000000">nuspell::Condition</text>
<text text-anchor="middle" x="194.5" y="-7.5" font-family="Helvetica,sans-Serif" font-size="10.00" fill="#000000">::match_suffix</text>
</a>
</g>
</g>
<!-- Node4&#45;&gt;Node5 -->
<g id="edge1" class="edge">
<title>Node4&#45;&gt;Node5</title>
<path fill="none" stroke="#191970" d="M111.2357,-15.5C119.6123,-15.5 128.2669,-15.5 136.6859,-15.5"/>
<polygon fill="#191970" stroke="#191970" points="136.8039,-19.0001 146.8039,-15.5 136.8038,-12.0001 136.8039,-19.0001"/>
</g>
<!-- Node6 -->
<g id="node3" class="node">
<title>Node6</title>
<g id="a_node3"><a xlink:href="classnuspell_1_1_condition.html#ace148eee45758990ebd2dc1f484a2ef3" target="_top" xlink:title="Checks if provided string matched the condition. ">
<polygon fill="#ffffff" stroke="#000000" points="278,-.5 278,-30.5 373,-30.5 373,-.5 278,-.5"/>
<text text-anchor="start" x="286" y="-18.5" font-family="Helvetica,sans-Serif" font-size="10.00" fill="#000000">nuspell::Condition</text>
<text text-anchor="middle" x="325.5" y="-7.5" font-family="Helvetica,sans-Serif" font-size="10.00" fill="#000000">::match</text>
</a>
</g>
</g>
<!-- Node5&#45;&gt;Node6 -->
<g id="edge2" class="edge">
<title>Node5&#45;&gt;Node6</title>
<path fill="none" stroke="#191970" d="M242.1646,-15.5C250.3821,-15.5 259.0051,-15.5 267.46,-15.5"/>
<polygon fill="#191970" stroke="#191970" points="267.6514,-19.0001 277.6514,-15.5 267.6513,-12.0001 267.6514,-19.0001"/>
</g>
</g>
</svg>
