<?xml version="1.0" encoding="UTF-8" standalone="no"?>
<!DOCTYPE svg PUBLIC "-//W3C//DTD SVG 1.1//EN"
 "http://www.w3.org/Graphics/SVG/1.1/DTD/svg11.dtd">
<!-- Generated by graphviz version 2.40.1 (20161225.0304)
 -->
<!-- Title: nuspell::Condition::match_prefix Pages: 1 -->
<svg width="250pt" height="88pt"
 viewBox="0.00 0.00 250.00 88.00" xmlns="http://www.w3.org/2000/svg" xmlns:xlink="http://www.w3.org/1999/xlink">
<g id="graph0" class="graph" transform="scale(1 1) rotate(0) translate(4 84)">
<title>nuspell::Condition::match_prefix</title>
<polygon fill="#ffffff" stroke="transparent" points="-4,4 -4,-84 246,-84 246,4 -4,4"/>
<!-- Node18 -->
<g id="node1" class="node">
<title>Node18</title>
<polygon fill="#bfbfbf" stroke="#000000" points="0,-24.5 0,-54.5 95,-54.5 95,-24.5 0,-24.5"/>
<text text-anchor="start" x="8" y="-42.5" font-family="Helvetica,sans-Serif" font-size="10.00" fill="#000000">nuspell::Condition</text>
<text text-anchor="middle" x="47.5" y="-31.5" font-family="Helvetica,sans-Serif" font-size="10.00" fill="#000000">::match_prefix</text>
</g>
<!-- Node19 -->
<g id="node2" class="node">
<title>Node19</title>
<g id="a_node2"><a xlink:href="classnuspell_1_1_condition.html#a3d6031595d3c6cecb04684554d93c1ab" target="_top" xlink:title="nuspell::Condition\l::Condition">
<polygon fill="#ffffff" stroke="#000000" points="139,-49.5 139,-79.5 234,-79.5 234,-49.5 139,-49.5"/>
<text text-anchor="start" x="147" y="-67.5" font-family="Helvetica,sans-Serif" font-size="10.00" fill="#000000">nuspell::Condition</text>
<text text-anchor="middle" x="186.5" y="-56.5" font-family="Helvetica,sans-Serif" font-size="10.00" fill="#000000">::Condition</text>
</a>
</g>
</g>
<!-- Node18&#45;&gt;Node19 -->
<g id="edge1" class="edge">
<title>Node18&#45;&gt;Node19</title>
<path fill="none" stroke="#191970" d="M105.3452,-49.9038C116.4047,-51.8929 127.8695,-53.9549 138.5759,-55.8806"/>
<polygon fill="#191970" stroke="#191970" points="105.7976,-46.4291 95.3359,-48.1036 104.5584,-53.3185 105.7976,-46.4291"/>
</g>
<!-- Node20 -->
<g id="node3" class="node">
<title>Node20</title>
<g id="a_node3"><a xlink:href="classnuspell_1_1_prefix.html#a08ae6fbb195985d44c462b8de9304509" target="_top" xlink:title="nuspell::Prefix::check\l_condition">
<polygon fill="#ffffff" stroke="#000000" points="131,-.5 131,-30.5 242,-30.5 242,-.5 131,-.5"/>
<text text-anchor="start" x="139" y="-18.5" font-family="Helvetica,sans-Serif" font-size="10.00" fill="#000000">nuspell::Prefix::check</text>
<text text-anchor="middle" x="186.5" y="-7.5" font-family="Helvetica,sans-Serif" font-size="10.00" fill="#000000">_condition</text>
</a>
</g>
</g>
<!-- Node18&#45;&gt;Node20 -->
<g id="edge2" class="edge">
<title>Node18&#45;&gt;Node20</title>
<path fill="none" stroke="#191970" d="M105.4632,-29.492C113.8887,-28.0372 122.5469,-26.5423 130.9237,-25.0959"/>
<polygon fill="#191970" stroke="#191970" points="104.5946,-26.0901 95.3359,-31.2406 105.7856,-32.988 104.5946,-26.0901"/>
</g>
</g>
</svg>
