<?xml version="1.0" encoding="UTF-8" standalone="no"?>
<!DOCTYPE svg PUBLIC "-//W3C//DTD SVG 1.1//EN"
 "http://www.w3.org/Graphics/SVG/1.1/DTD/svg11.dtd">
<!-- Generated by graphviz version 2.40.1 (20161225.0304)
 -->
<!-- Title: nuspell::String_Set::rbegin Pages: 1 -->
<svg width="263pt" height="149pt"
 viewBox="0.00 0.00 263.00 149.00" xmlns="http://www.w3.org/2000/svg" xmlns:xlink="http://www.w3.org/1999/xlink">
<g id="graph0" class="graph" transform="scale(1 1) rotate(0) translate(4 145)">
<title>nuspell::String_Set::rbegin</title>
<polygon fill="#ffffff" stroke="transparent" points="-4,4 -4,-145 259,-145 259,4 -4,4"/>
<!-- Node131 -->
<g id="node1" class="node">
<title>Node131</title>
<polygon fill="#bfbfbf" stroke="#000000" points="0,-55.5 0,-85.5 99,-85.5 99,-55.5 0,-55.5"/>
<text text-anchor="start" x="8" y="-73.5" font-family="Helvetica,sans-Serif" font-size="10.00" fill="#000000">nuspell::String_Set</text>
<text text-anchor="middle" x="49.5" y="-62.5" font-family="Helvetica,sans-Serif" font-size="10.00" fill="#000000">::rbegin</text>
</g>
<!-- Node132 -->
<g id="node2" class="node">
<title>Node132</title>
<g id="a_node2"><a xlink:href="classnuspell_1_1_hash___multiset.html#aad3b03ada05b0c7d540c83545e81ee23" target="_top" xlink:title="nuspell::Hash_Multiset\l::insert">
<polygon fill="#ffffff" stroke="#000000" points="137,-110.5 137,-140.5 253,-140.5 253,-110.5 137,-110.5"/>
<text text-anchor="start" x="145" y="-128.5" font-family="Helvetica,sans-Serif" font-size="10.00" fill="#000000">nuspell::Hash_Multiset</text>
<text text-anchor="middle" x="195" y="-117.5" font-family="Helvetica,sans-Serif" font-size="10.00" fill="#000000">::insert</text>
</a>
</g>
</g>
<!-- Node131&#45;&gt;Node132 -->
<g id="edge1" class="edge">
<title>Node131&#45;&gt;Node132</title>
<path fill="none" stroke="#191970" d="M98.6657,-89.085C117.1058,-96.0555 137.8127,-103.8828 155.2896,-110.4892"/>
<polygon fill="#191970" stroke="#191970" points="99.8501,-85.791 89.2585,-85.529 97.375,-92.3388 99.8501,-85.791"/>
</g>
<!-- Node133 -->
<g id="node3" class="node">
<title>Node133</title>
<g id="a_node3"><a xlink:href="classnuspell_1_1_hash___multiset.html#ad3a00cea7680614167e392c7c6df5c90" target="_top" xlink:title="nuspell::Hash_Multiset\l::equal_range_nonconst\l_unsafe">
<polygon fill="#ffffff" stroke="#000000" points="135,-50 135,-91 255,-91 255,-50 135,-50"/>
<text text-anchor="start" x="143" y="-79" font-family="Helvetica,sans-Serif" font-size="10.00" fill="#000000">nuspell::Hash_Multiset</text>
<text text-anchor="start" x="143" y="-68" font-family="Helvetica,sans-Serif" font-size="10.00" fill="#000000">::equal_range_nonconst</text>
<text text-anchor="middle" x="195" y="-57" font-family="Helvetica,sans-Serif" font-size="10.00" fill="#000000">_unsafe</text>
</a>
</g>
</g>
<!-- Node131&#45;&gt;Node133 -->
<g id="edge2" class="edge">
<title>Node131&#45;&gt;Node133</title>
<path fill="none" stroke="#191970" d="M109.3446,-70.5C117.8137,-70.5 126.5239,-70.5 134.996,-70.5"/>
<polygon fill="#191970" stroke="#191970" points="109.1659,-67.0001 99.1659,-70.5 109.1659,-74.0001 109.1659,-67.0001"/>
</g>
<!-- Node134 -->
<g id="node4" class="node">
<title>Node134</title>
<g id="a_node4"><a xlink:href="classnuspell_1_1_hash___multiset.html#a615f7b3ae53f0cef400668746d8be501" target="_top" xlink:title="nuspell::Hash_Multiset\l::equal_range">
<polygon fill="#ffffff" stroke="#000000" points="137,-.5 137,-30.5 253,-30.5 253,-.5 137,-.5"/>
<text text-anchor="start" x="145" y="-18.5" font-family="Helvetica,sans-Serif" font-size="10.00" fill="#000000">nuspell::Hash_Multiset</text>
<text text-anchor="middle" x="195" y="-7.5" font-family="Helvetica,sans-Serif" font-size="10.00" fill="#000000">::equal_range</text>
</a>
</g>
</g>
<!-- Node131&#45;&gt;Node134 -->
<g id="edge3" class="edge">
<title>Node131&#45;&gt;Node134</title>
<path fill="none" stroke="#191970" d="M98.6657,-51.915C117.1058,-44.9445 137.8127,-37.1172 155.2896,-30.5108"/>
<polygon fill="#191970" stroke="#191970" points="97.375,-48.6612 89.2585,-55.471 99.8501,-55.209 97.375,-48.6612"/>
</g>
</g>
</svg>
