<?xml version="1.0" encoding="UTF-8" standalone="no"?>
<!DOCTYPE svg PUBLIC "-//W3C//DTD SVG 1.1//EN"
 "http://www.w3.org/Graphics/SVG/1.1/DTD/svg11.dtd">
<!-- Generated by graphviz version 2.40.1 (20161225.0304)
 -->
<!-- Title: nuspell::Finder::add_libreoffice_paths Pages: 1 -->
<svg width="410pt" height="116pt"
 viewBox="0.00 0.00 410.00 116.00" xmlns="http://www.w3.org/2000/svg" xmlns:xlink="http://www.w3.org/1999/xlink">
<g id="graph0" class="graph" transform="scale(1 1) rotate(0) translate(4 112)">
<title>nuspell::Finder::add_libreoffice_paths</title>
<polygon fill="#ffffff" stroke="transparent" points="-4,4 -4,-112 406,-112 406,4 -4,4"/>
<!-- Node12 -->
<g id="node1" class="node">
<title>Node12</title>
<polygon fill="#bfbfbf" stroke="#000000" points="0,-39 0,-69 102,-69 102,-39 0,-39"/>
<text text-anchor="start" x="8" y="-57" font-family="Helvetica,sans-Serif" font-size="10.00" fill="#000000">nuspell::Finder::add</text>
<text text-anchor="middle" x="51" y="-46" font-family="Helvetica,sans-Serif" font-size="10.00" fill="#000000">_libreoffice_paths</text>
</g>
<!-- Node13 -->
<g id="node2" class="node">
<title>Node13</title>
<g id="a_node2"><a xlink:href="namespacenuspell.html#a18da8631cb0b014f0f918cf444946921" target="_top" xlink:title="Gets the LibreOffice search paths. ">
<polygon fill="#ffffff" stroke="#000000" points="138,-39 138,-69 252,-69 252,-39 138,-39"/>
<text text-anchor="start" x="146" y="-57" font-family="Helvetica,sans-Serif" font-size="10.00" fill="#000000">nuspell::get_libreoffice</text>
<text text-anchor="middle" x="195" y="-46" font-family="Helvetica,sans-Serif" font-size="10.00" fill="#000000">_paths</text>
</a>
</g>
</g>
<!-- Node12&#45;&gt;Node13 -->
<g id="edge1" class="edge">
<title>Node12&#45;&gt;Node13</title>
<path fill="none" stroke="#191970" d="M102.1745,-54C110.3355,-54 118.887,-54 127.3578,-54"/>
<polygon fill="#191970" stroke="#191970" points="127.6187,-57.5001 137.6186,-54 127.6186,-50.5001 127.6187,-57.5001"/>
</g>
<!-- Node14 -->
<g id="node3" class="node">
<title>Node14</title>
<g id="a_node3"><a xlink:href="namespacenuspell.html#a9404cbb74ae904c74db6776eb092e1b1" target="_top" xlink:title="nuspell::prefix">
<polygon fill="#ffffff" stroke="#000000" points="306.5,-88.5 306.5,-107.5 383.5,-107.5 383.5,-88.5 306.5,-88.5"/>
<text text-anchor="middle" x="345" y="-95.5" font-family="Helvetica,sans-Serif" font-size="10.00" fill="#000000">nuspell::prefix</text>
</a>
</g>
</g>
<!-- Node13&#45;&gt;Node14 -->
<g id="edge2" class="edge">
<title>Node13&#45;&gt;Node14</title>
<path fill="none" stroke="#191970" d="M246.202,-69.0192C264.5062,-74.3885 284.9202,-80.3766 302.4188,-85.5095"/>
<polygon fill="#191970" stroke="#191970" points="301.7659,-88.9654 312.3468,-88.4217 303.7362,-82.2484 301.7659,-88.9654"/>
</g>
<!-- Node15 -->
<g id="node4" class="node">
<title>Node15</title>
<g id="a_node4"><a xlink:href="structnuspell_1_1_globber.html#a895d65e899b6619740bee3ed56f7b3bd" target="_top" xlink:title="nuspell::Globber::copy\l_glob_paths">
<polygon fill="#ffffff" stroke="#000000" points="288,-39 288,-69 402,-69 402,-39 288,-39"/>
<text text-anchor="start" x="296" y="-57" font-family="Helvetica,sans-Serif" font-size="10.00" fill="#000000">nuspell::Globber::copy</text>
<text text-anchor="middle" x="345" y="-46" font-family="Helvetica,sans-Serif" font-size="10.00" fill="#000000">_glob_paths</text>
</a>
</g>
</g>
<!-- Node13&#45;&gt;Node15 -->
<g id="edge3" class="edge">
<title>Node13&#45;&gt;Node15</title>
<path fill="none" stroke="#191970" d="M252.1365,-54C260.3769,-54 268.9229,-54 277.3442,-54"/>
<polygon fill="#191970" stroke="#191970" points="277.5255,-57.5001 287.5255,-54 277.5255,-50.5001 277.5255,-57.5001"/>
</g>
<!-- Node16 -->
<g id="node5" class="node">
<title>Node16</title>
<g id="a_node5"><a xlink:href="structnuspell_1_1_globber.html#a6165004632cc6ce235e0c588800894fa" target="_top" xlink:title="nuspell::Globber::glob">
<polygon fill="#ffffff" stroke="#000000" points="289.5,-.5 289.5,-19.5 400.5,-19.5 400.5,-.5 289.5,-.5"/>
<text text-anchor="middle" x="345" y="-7.5" font-family="Helvetica,sans-Serif" font-size="10.00" fill="#000000">nuspell::Globber::glob</text>
</a>
</g>
</g>
<!-- Node13&#45;&gt;Node16 -->
<g id="edge4" class="edge">
<title>Node13&#45;&gt;Node16</title>
<path fill="none" stroke="#191970" d="M246.202,-38.9808C264.5062,-33.6115 284.9202,-27.6234 302.4188,-22.4905"/>
<polygon fill="#191970" stroke="#191970" points="303.7362,-25.7516 312.3468,-19.5783 301.7659,-19.0346 303.7362,-25.7516"/>
</g>
</g>
</svg>
