<?xml version="1.0" encoding="UTF-8" standalone="no"?>
<!DOCTYPE svg PUBLIC "-//W3C//DTD SVG 1.1//EN"
 "http://www.w3.org/Graphics/SVG/1.1/DTD/svg11.dtd">
<!-- Generated by graphviz version 2.40.1 (20161225.0304)
 -->
<!-- Title: nuspell::Condition::Condition Pages: 1 -->
<svg width="234pt" height="39pt"
 viewBox="0.00 0.00 234.00 39.00" xmlns="http://www.w3.org/2000/svg" xmlns:xlink="http://www.w3.org/1999/xlink">
<g id="graph0" class="graph" transform="scale(1 1) rotate(0) translate(4 35)">
<title>nuspell::Condition::Condition</title>
<polygon fill="#ffffff" stroke="transparent" points="-4,4 -4,-35 230,-35 230,4 -4,4"/>
<!-- Node2 -->
<g id="node1" class="node">
<title>Node2</title>
<polygon fill="#bfbfbf" stroke="#000000" points="0,-.5 0,-30.5 95,-30.5 95,-.5 0,-.5"/>
<text text-anchor="start" x="8" y="-18.5" font-family="Helvetica,sans-Serif" font-size="10.00" fill="#000000">nuspell::Condition</text>
<text text-anchor="middle" x="47.5" y="-7.5" font-family="Helvetica,sans-Serif" font-size="10.00" fill="#000000">::Condition</text>
</g>
<!-- Node3 -->
<g id="node2" class="node">
<title>Node3</title>
<g id="a_node2"><a xlink:href="classnuspell_1_1_condition.html#a998b312d5d638cfcda9c96bc699d68e2" target="_top" xlink:title="nuspell::Condition\l::construct">
<polygon fill="#ffffff" stroke="#000000" points="131,-.5 131,-30.5 226,-30.5 226,-.5 131,-.5"/>
<text text-anchor="start" x="139" y="-18.5" font-family="Helvetica,sans-Serif" font-size="10.00" fill="#000000">nuspell::Condition</text>
<text text-anchor="middle" x="178.5" y="-7.5" font-family="Helvetica,sans-Serif" font-size="10.00" fill="#000000">::construct</text>
</a>
</g>
</g>
<!-- Node2&#45;&gt;Node3 -->
<g id="edge1" class="edge">
<title>Node2&#45;&gt;Node3</title>
<path fill="none" stroke="#191970" d="M95.1646,-15.5C103.3821,-15.5 112.0051,-15.5 120.46,-15.5"/>
<polygon fill="#191970" stroke="#191970" points="120.6514,-19.0001 130.6514,-15.5 120.6513,-12.0001 120.6514,-19.0001"/>
</g>
</g>
</svg>
