<?xml version="1.0" encoding="UTF-8" standalone="no"?>
<!DOCTYPE svg PUBLIC "-//W3C//DTD SVG 1.1//EN"
 "http://www.w3.org/Graphics/SVG/1.1/DTD/svg11.dtd">
<!-- Generated by graphviz version 2.40.1 (20161225.0304)
 -->
<!-- Title: nuspell::Suffix_Iter&lt; CharT &gt; Pages: 1 -->
<svg width="301pt" height="284pt"
 viewBox="0.00 0.00 301.00 284.00" xmlns="http://www.w3.org/2000/svg" xmlns:xlink="http://www.w3.org/1999/xlink">
<g id="graph0" class="graph" transform="scale(1 1) rotate(0) translate(4 280)">
<title>nuspell::Suffix_Iter&lt; CharT &gt;</title>
<polygon fill="#ffffff" stroke="transparent" points="-4,4 -4,-280 297,-280 297,4 -4,4"/>
<!-- Node1 -->
<g id="node1" class="node">
<title>Node1</title>
<polygon fill="#bfbfbf" stroke="#000000" points="127.5,-.5 127.5,-30.5 225.5,-30.5 225.5,-.5 127.5,-.5"/>
<text text-anchor="start" x="135.5" y="-18.5" font-family="Helvetica,sans-Serif" font-size="10.00" fill="#000000">nuspell::Suffix_Iter</text>
<text text-anchor="middle" x="176.5" y="-7.5" font-family="Helvetica,sans-Serif" font-size="10.00" fill="#000000">&lt; CharT &gt;</text>
</g>
<!-- Node2 -->
<g id="node2" class="node">
<title>Node2</title>
<g id="a_node2"><a xlink:href="classnuspell_1_1_affix___table.html" target="_top" xlink:title="nuspell::Affix_Table\l\&lt; CharT \&gt;">
<polygon fill="#ffffff" stroke="#000000" points="125,-100.5 125,-130.5 228,-130.5 228,-100.5 125,-100.5"/>
<text text-anchor="start" x="133" y="-118.5" font-family="Helvetica,sans-Serif" font-size="10.00" fill="#000000">nuspell::Affix_Table</text>
<text text-anchor="middle" x="176.5" y="-107.5" font-family="Helvetica,sans-Serif" font-size="10.00" fill="#000000">&lt; CharT &gt;</text>
</a>
</g>
</g>
<!-- Node2&#45;&gt;Node1 -->
<g id="edge1" class="edge">
<title>Node2&#45;&gt;Node1</title>
<path fill="none" stroke="#9a32cd" stroke-dasharray="5,2" d="M176.5,-90.0599C176.5,-71.2363 176.5,-46.2342 176.5,-30.5031"/>
<polygon fill="#9a32cd" stroke="#9a32cd" points="173.0001,-90.3121 176.5,-100.3122 180.0001,-90.3122 173.0001,-90.3121"/>
<text text-anchor="middle" x="183.5" y="-74" font-family="Helvetica,sans-Serif" font-size="10.00" fill="#000000"> tbl</text>
<text text-anchor="middle" x="183.5" y="-63" font-family="Helvetica,sans-Serif" font-size="10.00" fill="#000000">a</text>
<text text-anchor="middle" x="183.5" y="-52" font-family="Helvetica,sans-Serif" font-size="10.00" fill="#000000">b</text>
</g>
<!-- Node3 -->
<g id="node3" class="node">
<title>Node3</title>
<g id="a_node3"><a xlink:href="classnuspell_1_1_hash___multiset.html" target="_top" xlink:title="Affix_Table_Base\&lt; CharT,\l AffixT \&gt;">
<polygon fill="#ffffff" stroke="#000000" points="43,-178.5 43,-208.5 176,-208.5 176,-178.5 43,-178.5"/>
<text text-anchor="start" x="51" y="-196.5" font-family="Helvetica,sans-Serif" font-size="10.00" fill="#000000">Affix_Table_Base&lt; CharT,</text>
<text text-anchor="middle" x="109.5" y="-185.5" font-family="Helvetica,sans-Serif" font-size="10.00" fill="#000000"> AffixT &gt;</text>
</a>
</g>
</g>
<!-- Node3&#45;&gt;Node2 -->
<g id="edge2" class="edge">
<title>Node3&#45;&gt;Node2</title>
<path fill="none" stroke="#8b1a1a" d="M129.2465,-170.5116C140.2604,-157.6894 153.6745,-142.0729 163.3928,-130.7592"/>
<polygon fill="#8b1a1a" stroke="#8b1a1a" points="126.2792,-168.5945 122.4183,-178.4608 131.5892,-173.1557 126.2792,-168.5945"/>
</g>
<!-- Node4 -->
<g id="node4" class="node">
<title>Node4</title>
<polygon fill="#ffffff" stroke="#bfbfbf" points="0,-256.5 0,-275.5 59,-275.5 59,-256.5 0,-256.5"/>
<text text-anchor="middle" x="29.5" y="-263.5" font-family="Helvetica,sans-Serif" font-size="10.00" fill="#000000">KeyEqual</text>
</g>
<!-- Node4&#45;&gt;Node3 -->
<g id="edge3" class="edge">
<title>Node4&#45;&gt;Node3</title>
<path fill="none" stroke="#9a32cd" stroke-dasharray="5,2" d="M48.0134,-249.2222C61.5242,-236.9781 79.6856,-220.5193 92.7629,-208.668"/>
<polygon fill="#9a32cd" stroke="#9a32cd" points="45.3487,-246.9136 40.2892,-256.2223 50.0494,-252.1006 45.3487,-246.9136"/>
<text text-anchor="middle" x="86" y="-230" font-family="Helvetica,sans-Serif" font-size="10.00" fill="#000000"> equal</text>
</g>
<!-- Node5 -->
<g id="node5" class="node">
<title>Node5</title>
<polygon fill="#ffffff" stroke="#bfbfbf" points="77,-256.5 77,-275.5 142,-275.5 142,-256.5 77,-256.5"/>
<text text-anchor="middle" x="109.5" y="-263.5" font-family="Helvetica,sans-Serif" font-size="10.00" fill="#000000">KeyExtract</text>
</g>
<!-- Node5&#45;&gt;Node3 -->
<g id="edge4" class="edge">
<title>Node5&#45;&gt;Node3</title>
<path fill="none" stroke="#9a32cd" stroke-dasharray="5,2" d="M109.5,-246.0177C109.5,-234.2164 109.5,-219.513 109.5,-208.668"/>
<polygon fill="#9a32cd" stroke="#9a32cd" points="106.0001,-246.2223 109.5,-256.2223 113.0001,-246.2224 106.0001,-246.2223"/>
<text text-anchor="middle" x="137" y="-230" font-family="Helvetica,sans-Serif" font-size="10.00" fill="#000000"> key_extract</text>
</g>
<!-- Node6 -->
<g id="node6" class="node">
<title>Node6</title>
<polygon fill="#ffffff" stroke="#bfbfbf" points="167.5,-256.5 167.5,-275.5 207.5,-275.5 207.5,-256.5 167.5,-256.5"/>
<text text-anchor="middle" x="187.5" y="-263.5" font-family="Helvetica,sans-Serif" font-size="10.00" fill="#000000">Hash</text>
</g>
<!-- Node6&#45;&gt;Node3 -->
<g id="edge5" class="edge">
<title>Node6&#45;&gt;Node3</title>
<path fill="none" stroke="#9a32cd" stroke-dasharray="5,2" d="M179.3562,-247.097C175.7845,-240.2344 171.1146,-232.7596 165.5,-227 158.5409,-219.8612 149.749,-213.6718 141.2067,-208.6226"/>
<polygon fill="#9a32cd" stroke="#9a32cd" points="176.3398,-248.9049 183.7854,-256.4424 182.6653,-245.9069 176.3398,-248.9049"/>
<text text-anchor="middle" x="187" y="-230" font-family="Helvetica,sans-Serif" font-size="10.00" fill="#000000"> hash</text>
</g>
<!-- Node7 -->
<g id="node7" class="node">
<title>Node7</title>
<g id="a_node7"><a xlink:href="classnuspell_1_1_string___set.html" target="_top" xlink:title="nuspell::String_Set\l\&lt; char16_t \&gt;">
<polygon fill="#ffffff" stroke="#000000" points="194,-178.5 194,-208.5 293,-208.5 293,-178.5 194,-178.5"/>
<text text-anchor="start" x="202" y="-196.5" font-family="Helvetica,sans-Serif" font-size="10.00" fill="#000000">nuspell::String_Set</text>
<text text-anchor="middle" x="243.5" y="-185.5" font-family="Helvetica,sans-Serif" font-size="10.00" fill="#000000">&lt; char16_t &gt;</text>
</a>
</g>
</g>
<!-- Node7&#45;&gt;Node2 -->
<g id="edge6" class="edge">
<title>Node7&#45;&gt;Node2</title>
<path fill="none" stroke="#9a32cd" stroke-dasharray="5,2" d="M223.7535,-170.5116C212.7396,-157.6894 199.3255,-142.0729 189.6072,-130.7592"/>
<polygon fill="#9a32cd" stroke="#9a32cd" points="221.4108,-173.1557 230.5817,-178.4608 226.7208,-168.5945 221.4108,-173.1557"/>
<text text-anchor="middle" x="245.5" y="-152" font-family="Helvetica,sans-Serif" font-size="10.00" fill="#000000"> all_cont_flags</text>
</g>
</g>
</svg>
