<?xml version="1.0" encoding="UTF-8" standalone="no"?>
<!DOCTYPE svg PUBLIC "-//W3C//DTD SVG 1.1//EN"
 "http://www.w3.org/Graphics/SVG/1.1/DTD/svg11.dtd">
<!-- Generated by graphviz version 2.40.1 (20161225.0304)
 -->
<!-- Title: nuspell::Basic_Dictionary::spell Pages: 1 -->
<svg width="359pt" height="180pt"
 viewBox="0.00 0.00 359.00 180.00" xmlns="http://www.w3.org/2000/svg" xmlns:xlink="http://www.w3.org/1999/xlink">
<g id="graph0" class="graph" transform="scale(1 1) rotate(0) translate(4 176)">
<title>nuspell::Basic_Dictionary::spell</title>
<polygon fill="#ffffff" stroke="transparent" points="-4,4 -4,-176 355,-176 355,4 -4,4"/>
<!-- Node12 -->
<g id="node1" class="node">
<title>Node12</title>
<polygon fill="#bfbfbf" stroke="#000000" points="0,-71 0,-101 128,-101 128,-71 0,-71"/>
<text text-anchor="start" x="8" y="-89" font-family="Helvetica,sans-Serif" font-size="10.00" fill="#000000">nuspell::Basic_Dictionary</text>
<text text-anchor="middle" x="64" y="-78" font-family="Helvetica,sans-Serif" font-size="10.00" fill="#000000">::spell</text>
</g>
<!-- Node13 -->
<g id="node2" class="node">
<title>Node13</title>
<g id="a_node2"><a xlink:href="main_8cxx.html#a4a642b8579e49cab4ef7293d66f1f5d5" target="_top" xlink:title="Normal loop, tokenize and check spelling. ">
<polygon fill="#ffffff" stroke="#000000" points="186,-152.5 186,-171.5 255,-171.5 255,-152.5 186,-152.5"/>
<text text-anchor="middle" x="220.5" y="-159.5" font-family="Helvetica,sans-Serif" font-size="10.00" fill="#000000">normal_loop</text>
</a>
</g>
</g>
<!-- Node12&#45;&gt;Node13 -->
<g id="edge1" class="edge">
<title>Node12&#45;&gt;Node13</title>
<path fill="none" stroke="#191970" d="M96.2109,-106.4845C115.4115,-118.151 140.5426,-132.4898 164,-143 171.7442,-146.4698 180.3242,-149.6662 188.41,-152.4083"/>
<polygon fill="#191970" stroke="#191970" points="97.9167,-103.4247 87.5648,-101.1685 94.2503,-109.3878 97.9167,-103.4247"/>
</g>
<!-- Node15 -->
<g id="node4" class="node">
<title>Node15</title>
<g id="a_node4"><a xlink:href="main_8cxx.html#aebf1b2aa274390a39317fbbca50d9d5e" target="_top" xlink:title="Prints misspelled words from an input stream to an output stream. ">
<polygon fill="#ffffff" stroke="#000000" points="164,-114.5 164,-133.5 277,-133.5 277,-114.5 164,-114.5"/>
<text text-anchor="middle" x="220.5" y="-121.5" font-family="Helvetica,sans-Serif" font-size="10.00" fill="#000000">misspelled_word_loop</text>
</a>
</g>
</g>
<!-- Node12&#45;&gt;Node15 -->
<g id="edge3" class="edge">
<title>Node12&#45;&gt;Node15</title>
<path fill="none" stroke="#191970" d="M135.993,-103.4807C151.5356,-107.2547 167.4096,-111.109 181.141,-114.4432"/>
<polygon fill="#191970" stroke="#191970" points="136.3965,-99.9771 125.8529,-101.0186 134.7447,-106.7794 136.3965,-99.9771"/>
</g>
<!-- Node16 -->
<g id="node5" class="node">
<title>Node16</title>
<g id="a_node5"><a xlink:href="main_8cxx.html#a1248d9e693e561e175cf2e5b55499fff" target="_top" xlink:title="correct_word_loop">
<polygon fill="#ffffff" stroke="#000000" points="172.5,-76.5 172.5,-95.5 268.5,-95.5 268.5,-76.5 172.5,-76.5"/>
<text text-anchor="middle" x="220.5" y="-83.5" font-family="Helvetica,sans-Serif" font-size="10.00" fill="#000000">correct_word_loop</text>
</a>
</g>
</g>
<!-- Node12&#45;&gt;Node16 -->
<g id="edge5" class="edge">
<title>Node12&#45;&gt;Node16</title>
<path fill="none" stroke="#191970" d="M138.17,-86C149.6853,-86 161.3188,-86 172.0692,-86"/>
<polygon fill="#191970" stroke="#191970" points="138.1061,-82.5001 128.1061,-86 138.1061,-89.5001 138.1061,-82.5001"/>
</g>
<!-- Node17 -->
<g id="node6" class="node">
<title>Node17</title>
<g id="a_node6"><a xlink:href="main_8cxx.html#a1f92dedeeb68a1a7bc2b720097d3b7a4" target="_top" xlink:title="misspelled_line_loop">
<polygon fill="#ffffff" stroke="#000000" points="167,-38.5 167,-57.5 274,-57.5 274,-38.5 167,-38.5"/>
<text text-anchor="middle" x="220.5" y="-45.5" font-family="Helvetica,sans-Serif" font-size="10.00" fill="#000000">misspelled_line_loop</text>
</a>
</g>
</g>
<!-- Node12&#45;&gt;Node17 -->
<g id="edge7" class="edge">
<title>Node12&#45;&gt;Node17</title>
<path fill="none" stroke="#191970" d="M135.993,-68.5193C151.5356,-64.7453 167.4096,-60.891 181.141,-57.5568"/>
<polygon fill="#191970" stroke="#191970" points="134.7447,-65.2206 125.8529,-70.9814 136.3965,-72.0229 134.7447,-65.2206"/>
</g>
<!-- Node18 -->
<g id="node7" class="node">
<title>Node18</title>
<g id="a_node7"><a xlink:href="main_8cxx.html#a16580c4100b461806a9c49575bdd5428" target="_top" xlink:title="correct_line_loop">
<polygon fill="#ffffff" stroke="#000000" points="175.5,-.5 175.5,-19.5 265.5,-19.5 265.5,-.5 175.5,-.5"/>
<text text-anchor="middle" x="220.5" y="-7.5" font-family="Helvetica,sans-Serif" font-size="10.00" fill="#000000">correct_line_loop</text>
</a>
</g>
</g>
<!-- Node12&#45;&gt;Node18 -->
<g id="edge9" class="edge">
<title>Node12&#45;&gt;Node18</title>
<path fill="none" stroke="#191970" d="M96.2109,-65.5155C115.4115,-53.849 140.5426,-39.5102 164,-29 171.7442,-25.5302 180.3242,-22.3338 188.41,-19.5917"/>
<polygon fill="#191970" stroke="#191970" points="94.2503,-62.6122 87.5648,-70.8315 97.9167,-68.5753 94.2503,-62.6122"/>
</g>
<!-- Node14 -->
<g id="node3" class="node">
<title>Node14</title>
<g id="a_node3"><a xlink:href="main_8cxx.html#a0ddf1224851353fc92bfbff6f499fa97" target="_top" xlink:title="main">
<polygon fill="#ffffff" stroke="#000000" points="313,-76.5 313,-95.5 351,-95.5 351,-76.5 313,-76.5"/>
<text text-anchor="middle" x="332" y="-83.5" font-family="Helvetica,sans-Serif" font-size="10.00" fill="#000000">main</text>
</a>
</g>
</g>
<!-- Node13&#45;&gt;Node14 -->
<g id="edge2" class="edge">
<title>Node13&#45;&gt;Node14</title>
<path fill="none" stroke="#191970" d="M264.6668,-149.4894C268.9685,-147.5856 273.1568,-145.43 277,-143 297.224,-130.2125 315.3646,-108.4754 324.911,-95.8621"/>
<polygon fill="#191970" stroke="#191970" points="263.1616,-146.3211 255.1582,-153.2636 265.7441,-152.8273 263.1616,-146.3211"/>
</g>
<!-- Node15&#45;&gt;Node14 -->
<g id="edge4" class="edge">
<title>Node15&#45;&gt;Node14</title>
<path fill="none" stroke="#191970" d="M258.4947,-111.2706C264.6827,-109.1838 271.0217,-107.0378 277,-105 288.9526,-100.9258 302.3458,-96.3004 312.923,-92.6334"/>
<polygon fill="#191970" stroke="#191970" points="257.3295,-107.9698 248.9686,-114.4772 259.5627,-114.6041 257.3295,-107.9698"/>
</g>
<!-- Node16&#45;&gt;Node14 -->
<g id="edge6" class="edge">
<title>Node16&#45;&gt;Node14</title>
<path fill="none" stroke="#191970" d="M279.0156,-86C291.24,-86 303.2866,-86 312.7968,-86"/>
<polygon fill="#191970" stroke="#191970" points="278.7571,-82.5001 268.757,-86 278.757,-89.5001 278.7571,-82.5001"/>
</g>
<!-- Node17&#45;&gt;Node14 -->
<g id="edge8" class="edge">
<title>Node17&#45;&gt;Node14</title>
<path fill="none" stroke="#191970" d="M258.4947,-60.7294C264.6827,-62.8162 271.0217,-64.9622 277,-67 288.9526,-71.0742 302.3458,-75.6996 312.923,-79.3666"/>
<polygon fill="#191970" stroke="#191970" points="259.5627,-57.3959 248.9686,-57.5228 257.3295,-64.0302 259.5627,-57.3959"/>
</g>
<!-- Node18&#45;&gt;Node14 -->
<g id="edge10" class="edge">
<title>Node18&#45;&gt;Node14</title>
<path fill="none" stroke="#191970" d="M266.9494,-23.5501C270.447,-25.1896 273.8402,-27.002 277,-29 297.224,-41.7875 315.3646,-63.5246 324.911,-76.1379"/>
<polygon fill="#191970" stroke="#191970" points="268.1109,-20.2421 257.5352,-19.6057 265.4057,-26.6983 268.1109,-20.2421"/>
</g>
</g>
</svg>
