<?xml version="1.0" encoding="UTF-8" standalone="no"?>
<!DOCTYPE svg PUBLIC "-//W3C//DTD SVG 1.1//EN"
 "http://www.w3.org/Graphics/SVG/1.1/DTD/svg11.dtd">
<!-- Generated by graphviz version 2.40.1 (20161225.0304)
 -->
<!-- Title: src/nuspell/condition.hxx Pages: 1 -->
<svg width="168pt" height="84pt"
 viewBox="0.00 0.00 167.50 84.00" xmlns="http://www.w3.org/2000/svg" xmlns:xlink="http://www.w3.org/1999/xlink">
<g id="graph0" class="graph" transform="scale(1 1) rotate(0) translate(4 80)">
<title>src/nuspell/condition.hxx</title>
<polygon fill="#ffffff" stroke="transparent" points="-4,4 -4,-80 163.5,-80 163.5,4 -4,4"/>
<!-- Node0 -->
<g id="node1" class="node">
<title>Node0</title>
<polygon fill="#bfbfbf" stroke="#000000" points="16,-56.5 16,-75.5 141,-75.5 141,-56.5 16,-56.5"/>
<text text-anchor="middle" x="78.5" y="-63.5" font-family="Helvetica,sans-Serif" font-size="10.00" fill="#000000">src/nuspell/condition.hxx</text>
</g>
<!-- Node1 -->
<g id="node2" class="node">
<title>Node1</title>
<polygon fill="#ffffff" stroke="#bfbfbf" points="0,-.5 0,-19.5 41,-19.5 41,-.5 0,-.5"/>
<text text-anchor="middle" x="20.5" y="-7.5" font-family="Helvetica,sans-Serif" font-size="10.00" fill="#000000">string</text>
</g>
<!-- Node0&#45;&gt;Node1 -->
<g id="edge1" class="edge">
<title>Node0&#45;&gt;Node1</title>
<path fill="none" stroke="#191970" d="M68.3972,-56.2455C59.9972,-48.1352 47.8506,-36.4075 37.8916,-26.7919"/>
<polygon fill="#191970" stroke="#191970" points="40.1122,-24.0707 30.4871,-19.6427 35.25,-29.1066 40.1122,-24.0707"/>
</g>
<!-- Node2 -->
<g id="node3" class="node">
<title>Node2</title>
<polygon fill="#ffffff" stroke="#bfbfbf" points="59.5,-.5 59.5,-19.5 97.5,-19.5 97.5,-.5 59.5,-.5"/>
<text text-anchor="middle" x="78.5" y="-7.5" font-family="Helvetica,sans-Serif" font-size="10.00" fill="#000000">tuple</text>
</g>
<!-- Node0&#45;&gt;Node2 -->
<g id="edge2" class="edge">
<title>Node0&#45;&gt;Node2</title>
<path fill="none" stroke="#191970" d="M78.5,-56.2455C78.5,-48.9382 78.5,-38.6944 78.5,-29.7046"/>
<polygon fill="#191970" stroke="#191970" points="82.0001,-29.6426 78.5,-19.6427 75.0001,-29.6427 82.0001,-29.6426"/>
</g>
<!-- Node3 -->
<g id="node4" class="node">
<title>Node3</title>
<polygon fill="#ffffff" stroke="#bfbfbf" points="115.5,-.5 115.5,-19.5 159.5,-19.5 159.5,-.5 115.5,-.5"/>
<text text-anchor="middle" x="137.5" y="-7.5" font-family="Helvetica,sans-Serif" font-size="10.00" fill="#000000">vector</text>
</g>
<!-- Node0&#45;&gt;Node3 -->
<g id="edge3" class="edge">
<title>Node0&#45;&gt;Node3</title>
<path fill="none" stroke="#191970" d="M88.777,-56.2455C97.3218,-48.1352 109.6778,-36.4075 119.8085,-26.7919"/>
<polygon fill="#191970" stroke="#191970" points="122.4972,-29.0655 127.3408,-19.6427 117.6782,-23.9884 122.4972,-29.0655"/>
</g>
</g>
</svg>
