<?xml version="1.0" encoding="UTF-8" standalone="no"?>
<!DOCTYPE svg PUBLIC "-//W3C//DTD SVG 1.1//EN"
 "http://www.w3.org/Graphics/SVG/1.1/DTD/svg11.dtd">
<!-- Generated by graphviz version 2.40.1 (20161225.0304)
 -->
<!-- Title: src/nuspell/condition.cxx Pages: 1 -->
<svg width="427pt" height="140pt"
 viewBox="0.00 0.00 427.00 140.00" xmlns="http://www.w3.org/2000/svg" xmlns:xlink="http://www.w3.org/1999/xlink">
<g id="graph0" class="graph" transform="scale(1 1) rotate(0) translate(4 136)">
<title>src/nuspell/condition.cxx</title>
<polygon fill="#ffffff" stroke="transparent" points="-4,4 -4,-136 423,-136 423,4 -4,4"/>
<!-- Node0 -->
<g id="node1" class="node">
<title>Node0</title>
<polygon fill="#bfbfbf" stroke="#000000" points="138.5,-112.5 138.5,-131.5 263.5,-131.5 263.5,-112.5 138.5,-112.5"/>
<text text-anchor="middle" x="201" y="-119.5" font-family="Helvetica,sans-Serif" font-size="10.00" fill="#000000">src/nuspell/condition.cxx</text>
</g>
<!-- Node1 -->
<g id="node2" class="node">
<title>Node1</title>
<g id="a_node2"><a xlink:href="condition_8hxx.html" target="_top" xlink:title="Condition matching. ">
<polygon fill="#ffffff" stroke="#000000" points="54,-56.5 54,-75.5 128,-75.5 128,-56.5 54,-56.5"/>
<text text-anchor="middle" x="91" y="-63.5" font-family="Helvetica,sans-Serif" font-size="10.00" fill="#000000">condition.hxx</text>
</a>
</g>
</g>
<!-- Node0&#45;&gt;Node1 -->
<g id="edge1" class="edge">
<title>Node0&#45;&gt;Node1</title>
<path fill="none" stroke="#191970" d="M181.8395,-112.2455C164.4889,-103.4125 138.7099,-90.2887 119.0417,-80.2758"/>
<polygon fill="#191970" stroke="#191970" points="120.4405,-77.0605 109.941,-75.6427 117.2647,-83.2986 120.4405,-77.0605"/>
</g>
<!-- Node5 -->
<g id="node6" class="node">
<title>Node5</title>
<g id="a_node6"><a xlink:href="string__utils_8hxx.html" target="_top" xlink:title="String algorithms. ">
<polygon fill="#ffffff" stroke="#000000" points="159.5,-56.5 159.5,-75.5 242.5,-75.5 242.5,-56.5 159.5,-56.5"/>
<text text-anchor="middle" x="201" y="-63.5" font-family="Helvetica,sans-Serif" font-size="10.00" fill="#000000">string_utils.hxx</text>
</a>
</g>
</g>
<!-- Node0&#45;&gt;Node5 -->
<g id="edge5" class="edge">
<title>Node0&#45;&gt;Node5</title>
<path fill="none" stroke="#191970" d="M201,-112.2455C201,-104.9382 201,-94.6944 201,-85.7046"/>
<polygon fill="#191970" stroke="#191970" points="204.5001,-85.6426 201,-75.6427 197.5001,-85.6427 204.5001,-85.6426"/>
</g>
<!-- Node10 -->
<g id="node11" class="node">
<title>Node10</title>
<polygon fill="#ffffff" stroke="#bfbfbf" points="260.5,-56.5 260.5,-75.5 319.5,-75.5 319.5,-56.5 260.5,-56.5"/>
<text text-anchor="middle" x="290" y="-63.5" font-family="Helvetica,sans-Serif" font-size="10.00" fill="#000000">stdexcept</text>
</g>
<!-- Node0&#45;&gt;Node10 -->
<g id="edge12" class="edge">
<title>Node0&#45;&gt;Node10</title>
<path fill="none" stroke="#191970" d="M216.5026,-112.2455C230.158,-103.6534 250.2657,-91.0014 265.9989,-81.1018"/>
<polygon fill="#191970" stroke="#191970" points="268.0751,-83.9307 274.675,-75.6427 264.3471,-78.006 268.0751,-83.9307"/>
</g>
<!-- Node2 -->
<g id="node3" class="node">
<title>Node2</title>
<polygon fill="#ffffff" stroke="#bfbfbf" points="118.5,-.5 118.5,-19.5 159.5,-19.5 159.5,-.5 118.5,-.5"/>
<text text-anchor="middle" x="139" y="-7.5" font-family="Helvetica,sans-Serif" font-size="10.00" fill="#000000">string</text>
</g>
<!-- Node1&#45;&gt;Node2 -->
<g id="edge2" class="edge">
<title>Node1&#45;&gt;Node2</title>
<path fill="none" stroke="#191970" d="M99.361,-56.2455C106.175,-48.2958 115.9681,-36.8706 124.1152,-27.3656"/>
<polygon fill="#191970" stroke="#191970" points="126.8843,-29.513 130.7349,-19.6427 121.5695,-24.9575 126.8843,-29.513"/>
</g>
<!-- Node3 -->
<g id="node4" class="node">
<title>Node3</title>
<polygon fill="#ffffff" stroke="#bfbfbf" points="0,-.5 0,-19.5 38,-19.5 38,-.5 0,-.5"/>
<text text-anchor="middle" x="19" y="-7.5" font-family="Helvetica,sans-Serif" font-size="10.00" fill="#000000">tuple</text>
</g>
<!-- Node1&#45;&gt;Node3 -->
<g id="edge3" class="edge">
<title>Node1&#45;&gt;Node3</title>
<path fill="none" stroke="#191970" d="M78.4586,-56.2455C67.7213,-47.8943 52.0527,-35.7076 39.4953,-25.9408"/>
<polygon fill="#191970" stroke="#191970" points="41.4401,-23.0194 31.3977,-19.6427 37.1425,-28.5449 41.4401,-23.0194"/>
</g>
<!-- Node4 -->
<g id="node5" class="node">
<title>Node4</title>
<polygon fill="#ffffff" stroke="#bfbfbf" points="56,-.5 56,-19.5 100,-19.5 100,-.5 56,-.5"/>
<text text-anchor="middle" x="78" y="-7.5" font-family="Helvetica,sans-Serif" font-size="10.00" fill="#000000">vector</text>
</g>
<!-- Node1&#45;&gt;Node4 -->
<g id="edge4" class="edge">
<title>Node1&#45;&gt;Node4</title>
<path fill="none" stroke="#191970" d="M88.7356,-56.2455C87.0206,-48.8579 84.6088,-38.4689 82.5056,-29.4087"/>
<polygon fill="#191970" stroke="#191970" points="85.9092,-28.5922 80.2385,-19.6427 79.0905,-30.1751 85.9092,-28.5922"/>
</g>
<!-- Node5&#45;&gt;Node2 -->
<g id="edge10" class="edge">
<title>Node5&#45;&gt;Node2</title>
<path fill="none" stroke="#191970" d="M190.2004,-56.2455C181.1322,-48.0549 167.9794,-36.1749 157.2755,-26.5069"/>
<polygon fill="#191970" stroke="#191970" points="159.4429,-23.7482 149.6758,-19.6427 154.7509,-28.9429 159.4429,-23.7482"/>
</g>
<!-- Node5&#45;&gt;Node4 -->
<g id="edge11" class="edge">
<title>Node5&#45;&gt;Node4</title>
<path fill="none" stroke="#191970" d="M179.8555,-56.3733C160.1108,-47.3838 130.4302,-33.8706 108.1945,-23.7471"/>
<polygon fill="#191970" stroke="#191970" points="109.42,-20.4594 98.8685,-19.5011 106.5194,-26.8302 109.42,-20.4594"/>
</g>
<!-- Node6 -->
<g id="node7" class="node">
<title>Node6</title>
<polygon fill="#ffffff" stroke="#bfbfbf" points="363,-.5 363,-19.5 419,-19.5 419,-.5 363,-.5"/>
<text text-anchor="middle" x="391" y="-7.5" font-family="Helvetica,sans-Serif" font-size="10.00" fill="#000000">algorithm</text>
</g>
<!-- Node5&#45;&gt;Node6 -->
<g id="edge6" class="edge">
<title>Node5&#45;&gt;Node6</title>
<path fill="none" stroke="#191970" d="M233.6622,-56.3733C266.7852,-46.6107 318.0101,-31.5128 352.9479,-21.2154"/>
<polygon fill="#191970" stroke="#191970" points="354.1825,-24.5004 362.785,-18.316 352.2035,-17.786 354.1825,-24.5004"/>
</g>
<!-- Node7 -->
<g id="node8" class="node">
<title>Node7</title>
<polygon fill="#ffffff" stroke="#bfbfbf" points="177.5,-.5 177.5,-19.5 224.5,-19.5 224.5,-.5 177.5,-.5"/>
<text text-anchor="middle" x="201" y="-7.5" font-family="Helvetica,sans-Serif" font-size="10.00" fill="#000000">iterator</text>
</g>
<!-- Node5&#45;&gt;Node7 -->
<g id="edge7" class="edge">
<title>Node5&#45;&gt;Node7</title>
<path fill="none" stroke="#191970" d="M201,-56.2455C201,-48.9382 201,-38.6944 201,-29.7046"/>
<polygon fill="#191970" stroke="#191970" points="204.5001,-29.6426 201,-19.6427 197.5001,-29.6427 204.5001,-29.6426"/>
</g>
<!-- Node8 -->
<g id="node9" class="node">
<title>Node8</title>
<polygon fill="#ffffff" stroke="#bfbfbf" points="243,-.5 243,-19.5 285,-19.5 285,-.5 243,-.5"/>
<text text-anchor="middle" x="264" y="-7.5" font-family="Helvetica,sans-Serif" font-size="10.00" fill="#000000">locale</text>
</g>
<!-- Node5&#45;&gt;Node8 -->
<g id="edge8" class="edge">
<title>Node5&#45;&gt;Node8</title>
<path fill="none" stroke="#191970" d="M211.9738,-56.2455C221.1882,-48.0549 234.5532,-36.1749 245.4297,-26.5069"/>
<polygon fill="#191970" stroke="#191970" points="248.0032,-28.9023 253.152,-19.6427 243.3526,-23.6704 248.0032,-28.9023"/>
</g>
<!-- Node9 -->
<g id="node10" class="node">
<title>Node9</title>
<polygon fill="#ffffff" stroke="#bfbfbf" points="303.5,-.5 303.5,-19.5 344.5,-19.5 344.5,-.5 303.5,-.5"/>
<text text-anchor="middle" x="324" y="-7.5" font-family="Helvetica,sans-Serif" font-size="10.00" fill="#000000">stack</text>
</g>
<!-- Node5&#45;&gt;Node9 -->
<g id="edge9" class="edge">
<title>Node5&#45;&gt;Node9</title>
<path fill="none" stroke="#191970" d="M222.1445,-56.3733C241.8892,-47.3838 271.5698,-33.8706 293.8055,-23.7471"/>
<polygon fill="#191970" stroke="#191970" points="295.4806,-26.8302 303.1315,-19.5011 292.58,-20.4594 295.4806,-26.8302"/>
</g>
</g>
</svg>
