<?xml version="1.0" encoding="UTF-8" standalone="no"?>
<!DOCTYPE svg PUBLIC "-//W3C//DTD SVG 1.1//EN"
 "http://www.w3.org/Graphics/SVG/1.1/DTD/svg11.dtd">
<!-- Generated by graphviz version 2.43.0 (0)
 -->
<!-- Title: src/nuspell/dictionary.hxx Pages: 1 -->
<svg width="718pt" height="196pt"
 viewBox="0.00 0.00 717.50 196.00" xmlns="http://www.w3.org/2000/svg" xmlns:xlink="http://www.w3.org/1999/xlink">
<g id="graph0" class="graph" transform="scale(1 1) rotate(0) translate(4 192)">
<title>src/nuspell/dictionary.hxx</title>
<polygon fill="white" stroke="transparent" points="-4,4 -4,-192 713.5,-192 713.5,4 -4,4"/>
<!-- Node1 -->
<g id="node1" class="node">
<title>Node1</title>
<g id="a_node1"><a xlink:title="Dictionary spelling.">
<polygon fill="#bfbfbf" stroke="black" points="372,-168.5 372,-187.5 512,-187.5 512,-168.5 372,-168.5"/>
<text text-anchor="middle" x="442" y="-175.5" font-family="Helvetica,sans-Serif" font-size="10.00">src/nuspell/dictionary.hxx</text>
</a>
</g>
</g>
<!-- Node2 -->
<g id="node2" class="node">
<title>Node2</title>
<g id="a_node2"><a xlink:href="aff__data_8hxx_source.html" target="_top" xlink:title=" ">
<polygon fill="white" stroke="black" points="363,-112.5 363,-131.5 441,-131.5 441,-112.5 363,-112.5"/>
<text text-anchor="middle" x="402" y="-119.5" font-family="Helvetica,sans-Serif" font-size="10.00">aff_data.hxx</text>
</a>
</g>
</g>
<!-- Node1&#45;&gt;Node2 -->
<g id="edge1" class="edge">
<title>Node1&#45;&gt;Node2</title>
<path fill="none" stroke="midnightblue" d="M435.39,-168.08C429.74,-160.46 421.46,-149.26 414.55,-139.94"/>
<polygon fill="midnightblue" stroke="midnightblue" points="417.25,-137.7 408.48,-131.75 411.62,-141.87 417.25,-137.7"/>
</g>
<!-- Node17 -->
<g id="node17" class="node">
<title>Node17</title>
<g id="a_node17"><a xlink:title=" ">
<polygon fill="white" stroke="#bfbfbf" points="459,-112.5 459,-131.5 505,-131.5 505,-112.5 459,-112.5"/>
<text text-anchor="middle" x="482" y="-119.5" font-family="Helvetica,sans-Serif" font-size="10.00">locale</text>
</a>
</g>
</g>
<!-- Node1&#45;&gt;Node17 -->
<g id="edge16" class="edge">
<title>Node1&#45;&gt;Node17</title>
<path fill="none" stroke="midnightblue" d="M448.61,-168.08C454.26,-160.46 462.54,-149.26 469.45,-139.94"/>
<polygon fill="midnightblue" stroke="midnightblue" points="472.38,-141.87 475.52,-131.75 466.75,-137.7 472.38,-141.87"/>
</g>
<!-- Node3 -->
<g id="node3" class="node">
<title>Node3</title>
<g id="a_node3"><a xlink:title=" ">
<polygon fill="white" stroke="#bfbfbf" points="200,-56.5 200,-75.5 298,-75.5 298,-56.5 200,-56.5"/>
<text text-anchor="middle" x="249" y="-63.5" font-family="Helvetica,sans-Serif" font-size="10.00">nuspell_export.h</text>
</a>
</g>
</g>
<!-- Node2&#45;&gt;Node3 -->
<g id="edge2" class="edge">
<title>Node2&#45;&gt;Node3</title>
<path fill="none" stroke="midnightblue" d="M377.76,-112.44C352.13,-103.4 311.51,-89.06 282.76,-78.92"/>
<polygon fill="midnightblue" stroke="midnightblue" points="283.72,-75.54 273.13,-75.52 281.39,-82.15 283.72,-75.54"/>
</g>
<!-- Node4 -->
<g id="node4" class="node">
<title>Node4</title>
<g id="a_node4"><a xlink:href="structures_8hxx_source.html" target="_top" xlink:title=" ">
<polygon fill="white" stroke="black" points="316,-56.5 316,-75.5 402,-75.5 402,-56.5 316,-56.5"/>
<text text-anchor="middle" x="359" y="-63.5" font-family="Helvetica,sans-Serif" font-size="10.00">structures.hxx</text>
</a>
</g>
</g>
<!-- Node2&#45;&gt;Node4 -->
<g id="edge3" class="edge">
<title>Node2&#45;&gt;Node4</title>
<path fill="none" stroke="midnightblue" d="M394.9,-112.08C388.76,-104.38 379.73,-93.03 372.26,-83.65"/>
<polygon fill="midnightblue" stroke="midnightblue" points="374.94,-81.39 365.97,-75.75 369.46,-85.75 374.94,-81.39"/>
</g>
<!-- Node15 -->
<g id="node15" class="node">
<title>Node15</title>
<g id="a_node15"><a xlink:title=" ">
<polygon fill="white" stroke="#bfbfbf" points="420.5,-56.5 420.5,-75.5 469.5,-75.5 469.5,-56.5 420.5,-56.5"/>
<text text-anchor="middle" x="445" y="-63.5" font-family="Helvetica,sans-Serif" font-size="10.00">iosfwd</text>
</a>
</g>
</g>
<!-- Node2&#45;&gt;Node15 -->
<g id="edge14" class="edge">
<title>Node2&#45;&gt;Node15</title>
<path fill="none" stroke="midnightblue" d="M409.1,-112.08C415.24,-104.38 424.27,-93.03 431.74,-83.65"/>
<polygon fill="midnightblue" stroke="midnightblue" points="434.54,-85.75 438.03,-75.75 429.06,-81.39 434.54,-85.75"/>
</g>
<!-- Node16 -->
<g id="node16" class="node">
<title>Node16</title>
<g id="a_node16"><a xlink:title=" ">
<polygon fill="white" stroke="#bfbfbf" points="488,-56.5 488,-75.5 578,-75.5 578,-56.5 488,-56.5"/>
<text text-anchor="middle" x="533" y="-63.5" font-family="Helvetica,sans-Serif" font-size="10.00">unicode/locid.h</text>
</a>
</g>
</g>
<!-- Node2&#45;&gt;Node16 -->
<g id="edge15" class="edge">
<title>Node2&#45;&gt;Node16</title>
<path fill="none" stroke="midnightblue" d="M422.76,-112.44C444.32,-103.56 478.26,-89.56 502.79,-79.45"/>
<polygon fill="midnightblue" stroke="midnightblue" points="504.43,-82.56 512.34,-75.52 501.76,-76.09 504.43,-82.56"/>
</g>
<!-- Node5 -->
<g id="node5" class="node">
<title>Node5</title>
<g id="a_node5"><a xlink:title=" ">
<polygon fill="white" stroke="#bfbfbf" points="0,-0.5 0,-19.5 64,-19.5 64,-0.5 0,-0.5"/>
<text text-anchor="middle" x="32" y="-7.5" font-family="Helvetica,sans-Serif" font-size="10.00">algorithm</text>
</a>
</g>
</g>
<!-- Node4&#45;&gt;Node5 -->
<g id="edge4" class="edge">
<title>Node4&#45;&gt;Node5</title>
<path fill="none" stroke="midnightblue" d="M315.88,-57.47C312.88,-56.97 309.89,-56.47 307,-56 206.3,-39.54 178.13,-39.29 74.15,-20.12"/>
<polygon fill="midnightblue" stroke="midnightblue" points="74.66,-16.65 64.19,-18.27 73.38,-23.54 74.66,-16.65"/>
</g>
<!-- Node6 -->
<g id="node6" class="node">
<title>Node6</title>
<g id="a_node6"><a xlink:title=" ">
<polygon fill="white" stroke="#bfbfbf" points="82.5,-0.5 82.5,-19.5 129.5,-19.5 129.5,-0.5 82.5,-0.5"/>
<text text-anchor="middle" x="106" y="-7.5" font-family="Helvetica,sans-Serif" font-size="10.00">cmath</text>
</a>
</g>
</g>
<!-- Node4&#45;&gt;Node6 -->
<g id="edge5" class="edge">
<title>Node4&#45;&gt;Node6</title>
<path fill="none" stroke="midnightblue" d="M315.6,-57.14C272.98,-49.2 205.92,-36.13 139.51,-20.24"/>
<polygon fill="midnightblue" stroke="midnightblue" points="140.26,-16.82 129.71,-17.88 138.61,-23.63 140.26,-16.82"/>
</g>
<!-- Node7 -->
<g id="node7" class="node">
<title>Node7</title>
<g id="a_node7"><a xlink:title=" ">
<polygon fill="white" stroke="#bfbfbf" points="147.5,-0.5 147.5,-19.5 212.5,-19.5 212.5,-0.5 147.5,-0.5"/>
<text text-anchor="middle" x="180" y="-7.5" font-family="Helvetica,sans-Serif" font-size="10.00">functional</text>
</a>
</g>
</g>
<!-- Node4&#45;&gt;Node7 -->
<g id="edge6" class="edge">
<title>Node4&#45;&gt;Node7</title>
<path fill="none" stroke="midnightblue" d="M330.64,-56.44C300.26,-47.28 251.89,-32.69 218.18,-22.52"/>
<polygon fill="midnightblue" stroke="midnightblue" points="218.82,-19.05 208.23,-19.52 216.79,-25.76 218.82,-19.05"/>
</g>
<!-- Node8 -->
<g id="node8" class="node">
<title>Node8</title>
<g id="a_node8"><a xlink:title=" ">
<polygon fill="white" stroke="#bfbfbf" points="230.5,-0.5 230.5,-19.5 283.5,-19.5 283.5,-0.5 230.5,-0.5"/>
<text text-anchor="middle" x="257" y="-7.5" font-family="Helvetica,sans-Serif" font-size="10.00">iterator</text>
</a>
</g>
</g>
<!-- Node4&#45;&gt;Node8 -->
<g id="edge7" class="edge">
<title>Node4&#45;&gt;Node8</title>
<path fill="none" stroke="midnightblue" d="M342.61,-56.32C326.33,-47.7 301.13,-34.36 282.28,-24.39"/>
<polygon fill="midnightblue" stroke="midnightblue" points="283.82,-21.24 273.35,-19.65 280.55,-27.43 283.82,-21.24"/>
</g>
<!-- Node9 -->
<g id="node9" class="node">
<title>Node9</title>
<g id="a_node9"><a xlink:title=" ">
<polygon fill="white" stroke="#bfbfbf" points="301.5,-0.5 301.5,-19.5 344.5,-19.5 344.5,-0.5 301.5,-0.5"/>
<text text-anchor="middle" x="323" y="-7.5" font-family="Helvetica,sans-Serif" font-size="10.00">stack</text>
</a>
</g>
</g>
<!-- Node4&#45;&gt;Node9 -->
<g id="edge8" class="edge">
<title>Node4&#45;&gt;Node9</title>
<path fill="none" stroke="midnightblue" d="M353.06,-56.08C348.02,-48.53 340.66,-37.49 334.49,-28.23"/>
<polygon fill="midnightblue" stroke="midnightblue" points="337.29,-26.13 328.83,-19.75 331.47,-30.01 337.29,-26.13"/>
</g>
<!-- Node10 -->
<g id="node10" class="node">
<title>Node10</title>
<g id="a_node10"><a xlink:title=" ">
<polygon fill="white" stroke="#bfbfbf" points="362.5,-0.5 362.5,-19.5 427.5,-19.5 427.5,-0.5 362.5,-0.5"/>
<text text-anchor="middle" x="395" y="-7.5" font-family="Helvetica,sans-Serif" font-size="10.00">stdexcept</text>
</a>
</g>
</g>
<!-- Node4&#45;&gt;Node10 -->
<g id="edge9" class="edge">
<title>Node4&#45;&gt;Node10</title>
<path fill="none" stroke="midnightblue" d="M364.94,-56.08C369.98,-48.53 377.34,-37.49 383.51,-28.23"/>
<polygon fill="midnightblue" stroke="midnightblue" points="386.53,-30.01 389.17,-19.75 380.71,-26.13 386.53,-30.01"/>
</g>
<!-- Node11 -->
<g id="node11" class="node">
<title>Node11</title>
<g id="a_node11"><a xlink:title=" ">
<polygon fill="white" stroke="#bfbfbf" points="446,-0.5 446,-19.5 490,-19.5 490,-0.5 446,-0.5"/>
<text text-anchor="middle" x="468" y="-7.5" font-family="Helvetica,sans-Serif" font-size="10.00">string</text>
</a>
</g>
</g>
<!-- Node4&#45;&gt;Node11 -->
<g id="edge10" class="edge">
<title>Node4&#45;&gt;Node11</title>
<path fill="none" stroke="midnightblue" d="M376.51,-56.32C394.07,-47.62 421.33,-34.12 441.53,-24.11"/>
<polygon fill="midnightblue" stroke="midnightblue" points="443.12,-27.23 450.53,-19.65 440.02,-20.96 443.12,-27.23"/>
</g>
<!-- Node12 -->
<g id="node12" class="node">
<title>Node12</title>
<g id="a_node12"><a xlink:title=" ">
<polygon fill="white" stroke="#bfbfbf" points="508.5,-0.5 508.5,-19.5 581.5,-19.5 581.5,-0.5 508.5,-0.5"/>
<text text-anchor="middle" x="545" y="-7.5" font-family="Helvetica,sans-Serif" font-size="10.00">string_view</text>
</a>
</g>
</g>
<!-- Node4&#45;&gt;Node12 -->
<g id="edge11" class="edge">
<title>Node4&#45;&gt;Node12</title>
<path fill="none" stroke="midnightblue" d="M388.47,-56.44C420.17,-47.24 470.73,-32.56 505.77,-22.39"/>
<polygon fill="midnightblue" stroke="midnightblue" points="507.04,-25.67 515.67,-19.52 505.09,-18.94 507.04,-25.67"/>
</g>
<!-- Node13 -->
<g id="node13" class="node">
<title>Node13</title>
<g id="a_node13"><a xlink:title=" ">
<polygon fill="white" stroke="#bfbfbf" points="599.5,-0.5 599.5,-19.5 644.5,-19.5 644.5,-0.5 599.5,-0.5"/>
<text text-anchor="middle" x="622" y="-7.5" font-family="Helvetica,sans-Serif" font-size="10.00">utility</text>
</a>
</g>
</g>
<!-- Node4&#45;&gt;Node13 -->
<g id="edge12" class="edge">
<title>Node4&#45;&gt;Node13</title>
<path fill="none" stroke="midnightblue" d="M402.04,-57.14C454.87,-47.41 542.37,-31.02 589.43,-20.18"/>
<polygon fill="midnightblue" stroke="midnightblue" points="590.45,-23.54 599.38,-17.83 588.84,-16.73 590.45,-23.54"/>
</g>
<!-- Node14 -->
<g id="node14" class="node">
<title>Node14</title>
<g id="a_node14"><a xlink:title=" ">
<polygon fill="white" stroke="#bfbfbf" points="662.5,-0.5 662.5,-19.5 709.5,-19.5 709.5,-0.5 662.5,-0.5"/>
<text text-anchor="middle" x="686" y="-7.5" font-family="Helvetica,sans-Serif" font-size="10.00">vector</text>
</a>
</g>
</g>
<!-- Node4&#45;&gt;Node14 -->
<g id="edge13" class="edge">
<title>Node4&#45;&gt;Node14</title>
<path fill="none" stroke="midnightblue" d="M402.09,-57.61C405.44,-57.06 408.77,-56.51 412,-56 516.24,-39.4 545.95,-42.56 652.46,-20.12"/>
<polygon fill="midnightblue" stroke="midnightblue" points="653.27,-23.53 662.32,-18.02 651.81,-16.68 653.27,-23.53"/>
</g>
</g>
</svg>
