<?xml version="1.0" encoding="UTF-8" standalone="no"?>
<!DOCTYPE svg PUBLIC "-//W3C//DTD SVG 1.1//EN"
 "http://www.w3.org/Graphics/SVG/1.1/DTD/svg11.dtd">
<!-- Generated by graphviz version 2.40.1 (20161225.0304)
 -->
<!-- Title: src/nuspell/dictionary.hxx Pages: 1 -->
<svg width="1401pt" height="263pt"
 viewBox="0.00 0.00 1400.50 263.00" xmlns="http://www.w3.org/2000/svg" xmlns:xlink="http://www.w3.org/1999/xlink">
<g id="graph0" class="graph" transform="scale(1 1) rotate(0) translate(4 259)">
<title>src/nuspell/dictionary.hxx</title>
<polygon fill="#ffffff" stroke="transparent" points="-4,4 -4,-259 1396.5,-259 1396.5,4 -4,4"/>
<!-- Node0 -->
<g id="node1" class="node">
<title>Node0</title>
<polygon fill="#bfbfbf" stroke="#000000" points="1231.5,-235.5 1231.5,-254.5 1359.5,-254.5 1359.5,-235.5 1231.5,-235.5"/>
<text text-anchor="middle" x="1295.5" y="-242.5" font-family="Helvetica,sans-Serif" font-size="10.00" fill="#000000">src/nuspell/dictionary.hxx</text>
</g>
<!-- Node1 -->
<g id="node2" class="node">
<title>Node1</title>
<g id="a_node2"><a xlink:href="aff__data_8hxx.html" target="_top" xlink:title="Affixing data structures. ">
<polygon fill="#ffffff" stroke="#000000" points="442,-179.5 442,-198.5 513,-198.5 513,-179.5 442,-179.5"/>
<text text-anchor="middle" x="477.5" y="-186.5" font-family="Helvetica,sans-Serif" font-size="10.00" fill="#000000">aff_data.hxx</text>
</a>
</g>
</g>
<!-- Node0&#45;&gt;Node1 -->
<g id="edge1" class="edge">
<title>Node0&#45;&gt;Node1</title>
<path fill="none" stroke="#191970" d="M1231.3129,-240.6058C1072.0047,-229.6996 661.4413,-201.5926 523.4908,-192.1485"/>
<polygon fill="#191970" stroke="#191970" points="523.4892,-188.6403 513.2734,-191.449 523.011,-195.624 523.4892,-188.6403"/>
</g>
<!-- Node7 -->
<g id="node8" class="node">
<title>Node7</title>
<g id="a_node8"><a xlink:href="locale__utils_8hxx.html" target="_top" xlink:title="Encoding transformations. ">
<polygon fill="#ffffff" stroke="#000000" points="1202.5,-123.5 1202.5,-142.5 1286.5,-142.5 1286.5,-123.5 1202.5,-123.5"/>
<text text-anchor="middle" x="1244.5" y="-130.5" font-family="Helvetica,sans-Serif" font-size="10.00" fill="#000000">locale_utils.hxx</text>
</a>
</g>
</g>
<!-- Node0&#45;&gt;Node7 -->
<g id="edge26" class="edge">
<title>Node0&#45;&gt;Node7</title>
<path fill="none" stroke="#191970" d="M1291.1518,-235.4509C1282.7209,-216.936 1264.0162,-175.8591 1253.0237,-151.7187"/>
<polygon fill="#191970" stroke="#191970" points="1256.1667,-150.1753 1248.8372,-142.5249 1249.7961,-153.0762 1256.1667,-150.1753"/>
</g>
<!-- Node8 -->
<g id="node9" class="node">
<title>Node8</title>
<polygon fill="#ffffff" stroke="#bfbfbf" points="1279.5,-62 1279.5,-81 1321.5,-81 1321.5,-62 1279.5,-62"/>
<text text-anchor="middle" x="1300.5" y="-69" font-family="Helvetica,sans-Serif" font-size="10.00" fill="#000000">locale</text>
</g>
<!-- Node0&#45;&gt;Node8 -->
<g id="edge28" class="edge">
<title>Node0&#45;&gt;Node8</title>
<path fill="none" stroke="#191970" d="M1295.7759,-235.4248C1296.5663,-207.999 1298.8507,-128.732 1299.9266,-91.3964"/>
<polygon fill="#191970" stroke="#191970" points="1303.4291,-91.3562 1300.2187,-81.2595 1296.432,-91.1545 1303.4291,-91.3562"/>
</g>
<!-- Node20 -->
<g id="node21" class="node">
<title>Node20</title>
<polygon fill="#ffffff" stroke="#bfbfbf" points="1342.5,-179.5 1342.5,-198.5 1392.5,-198.5 1392.5,-179.5 1342.5,-179.5"/>
<text text-anchor="middle" x="1367.5" y="-186.5" font-family="Helvetica,sans-Serif" font-size="10.00" fill="#000000">fstream</text>
</g>
<!-- Node0&#45;&gt;Node20 -->
<g id="edge27" class="edge">
<title>Node0&#45;&gt;Node20</title>
<path fill="none" stroke="#191970" d="M1308.0414,-235.2455C1318.7787,-226.8943 1334.4473,-214.7076 1347.0047,-204.9408"/>
<polygon fill="#191970" stroke="#191970" points="1349.3575,-207.5449 1355.1023,-198.6427 1345.0599,-202.0194 1349.3575,-207.5449"/>
</g>
<!-- Node2 -->
<g id="node3" class="node">
<title>Node2</title>
<polygon fill="#ffffff" stroke="#bfbfbf" points="415,-123.5 415,-142.5 460,-142.5 460,-123.5 415,-123.5"/>
<text text-anchor="middle" x="437.5" y="-130.5" font-family="Helvetica,sans-Serif" font-size="10.00" fill="#000000">iosfwd</text>
</g>
<!-- Node1&#45;&gt;Node2 -->
<g id="edge2" class="edge">
<title>Node1&#45;&gt;Node2</title>
<path fill="none" stroke="#191970" d="M470.5325,-179.2455C464.9689,-171.4564 457.022,-160.3308 450.3171,-150.9439"/>
<polygon fill="#191970" stroke="#191970" points="453.0481,-148.7457 444.3876,-142.6427 447.352,-152.8144 453.0481,-148.7457"/>
</g>
<!-- Node3 -->
<g id="node4" class="node">
<title>Node3</title>
<polygon fill="#ffffff" stroke="#bfbfbf" points="1143,-.5 1143,-19.5 1184,-19.5 1184,-.5 1143,-.5"/>
<text text-anchor="middle" x="1163.5" y="-7.5" font-family="Helvetica,sans-Serif" font-size="10.00" fill="#000000">string</text>
</g>
<!-- Node1&#45;&gt;Node3 -->
<g id="edge3" class="edge">
<title>Node1&#45;&gt;Node3</title>
<path fill="none" stroke="#191970" d="M513.2447,-186.0501C646.0268,-174.7648 1105.6349,-132.6635 1151.5,-87 1166.2862,-72.2788 1167.6123,-47.3504 1166.3296,-29.8552"/>
<polygon fill="#191970" stroke="#191970" points="1169.7772,-29.1808 1165.2251,-19.6138 1162.8176,-29.9314 1169.7772,-29.1808"/>
</g>
<!-- Node4 -->
<g id="node5" class="node">
<title>Node4</title>
<polygon fill="#ffffff" stroke="#bfbfbf" points="0,-123.5 0,-142.5 83,-142.5 83,-123.5 0,-123.5"/>
<text text-anchor="middle" x="41.5" y="-130.5" font-family="Helvetica,sans-Serif" font-size="10.00" fill="#000000">unordered_map</text>
</g>
<!-- Node1&#45;&gt;Node4 -->
<g id="edge4" class="edge">
<title>Node1&#45;&gt;Node4</title>
<path fill="none" stroke="#191970" d="M441.7848,-185.3542C374.3427,-178.3194 223.6855,-161.8888 97.5,-143 96.0349,-142.7807 94.5493,-142.5527 93.0505,-142.3179"/>
<polygon fill="#191970" stroke="#191970" points="93.48,-138.8418 83.0471,-140.6873 92.3537,-145.7506 93.48,-138.8418"/>
</g>
<!-- Node5 -->
<g id="node6" class="node">
<title>Node5</title>
<polygon fill="#ffffff" stroke="#bfbfbf" points="139.5,-62 139.5,-81 179.5,-81 179.5,-62 139.5,-62"/>
<text text-anchor="middle" x="159.5" y="-69" font-family="Helvetica,sans-Serif" font-size="10.00" fill="#000000">utility</text>
</g>
<!-- Node1&#45;&gt;Node5 -->
<g id="edge5" class="edge">
<title>Node1&#45;&gt;Node5</title>
<path fill="none" stroke="#191970" d="M451.7461,-179.484C393.3395,-157.903 251.1047,-105.3476 189.1538,-82.457"/>
<polygon fill="#191970" stroke="#191970" points="190.1754,-79.1032 179.5821,-78.9203 187.7492,-85.6693 190.1754,-79.1032"/>
</g>
<!-- Node6 -->
<g id="node7" class="node">
<title>Node6</title>
<polygon fill="#ffffff" stroke="#bfbfbf" points="185.5,-.5 185.5,-19.5 229.5,-19.5 229.5,-.5 185.5,-.5"/>
<text text-anchor="middle" x="207.5" y="-7.5" font-family="Helvetica,sans-Serif" font-size="10.00" fill="#000000">vector</text>
</g>
<!-- Node1&#45;&gt;Node6 -->
<g id="edge6" class="edge">
<title>Node1&#45;&gt;Node6</title>
<path fill="none" stroke="#191970" d="M441.7246,-184.0466C360.6903,-172.0041 167.3048,-138.3581 130.5,-87 122.4744,-75.801 123.7002,-67.9829 130.5,-56 140.265,-38.7916 159.3056,-27.3334 176.0085,-20.1566"/>
<polygon fill="#191970" stroke="#191970" points="177.4692,-23.3428 185.4849,-16.4147 174.8983,-16.832 177.4692,-23.3428"/>
</g>
<!-- Node1&#45;&gt;Node7 -->
<g id="edge7" class="edge">
<title>Node1&#45;&gt;Node7</title>
<path fill="none" stroke="#191970" d="M513.1412,-188.1066C617.3863,-185.1903 930.6279,-174.2663 1188.5,-143 1189.7684,-142.8462 1191.0517,-142.6824 1192.345,-142.51"/>
<polygon fill="#191970" stroke="#191970" points="1192.9902,-145.953 1202.3789,-141.0435 1191.9778,-139.0266 1192.9902,-145.953"/>
</g>
<!-- Node9 -->
<g id="node10" class="node">
<title>Node9</title>
<g id="a_node10"><a xlink:href="structures_8hxx.html" target="_top" xlink:title="Data structures. ">
<polygon fill="#ffffff" stroke="#000000" points="478,-123.5 478,-142.5 557,-142.5 557,-123.5 478,-123.5"/>
<text text-anchor="middle" x="517.5" y="-130.5" font-family="Helvetica,sans-Serif" font-size="10.00" fill="#000000">structures.hxx</text>
</a>
</g>
</g>
<!-- Node1&#45;&gt;Node9 -->
<g id="edge10" class="edge">
<title>Node1&#45;&gt;Node9</title>
<path fill="none" stroke="#191970" d="M484.4675,-179.2455C490.0311,-171.4564 497.978,-160.3308 504.6829,-150.9439"/>
<polygon fill="#191970" stroke="#191970" points="507.648,-152.8144 510.6124,-142.6427 501.9519,-148.7457 507.648,-152.8144"/>
</g>
<!-- Node7&#45;&gt;Node3 -->
<g id="edge9" class="edge">
<title>Node7&#45;&gt;Node3</title>
<path fill="none" stroke="#191970" d="M1238.7841,-123.3902C1229.9805,-108.6922 1212.4477,-79.8252 1196.5,-56 1190.2367,-46.6429 1182.9704,-36.4484 1176.8532,-28.0399"/>
<polygon fill="#191970" stroke="#191970" points="1179.5038,-25.7357 1170.7681,-19.7408 1173.8587,-29.8749 1179.5038,-25.7357"/>
</g>
<!-- Node7&#45;&gt;Node8 -->
<g id="edge8" class="edge">
<title>Node7&#45;&gt;Node8</title>
<path fill="none" stroke="#191970" d="M1253.25,-123.3906C1261.6662,-114.1478 1274.5797,-99.966 1284.781,-88.7628"/>
<polygon fill="#191970" stroke="#191970" points="1287.4818,-90.9953 1291.6266,-81.2449 1282.306,-86.2824 1287.4818,-90.9953"/>
</g>
<!-- Node9&#45;&gt;Node3 -->
<g id="edge19" class="edge">
<title>Node9&#45;&gt;Node3</title>
<path fill="none" stroke="#191970" d="M557.4359,-132.251C685.2343,-129.5439 1078.5652,-118.6937 1125.5,-87 1145.0305,-73.8116 1154.9307,-47.5487 1159.6467,-29.3881"/>
<polygon fill="#191970" stroke="#191970" points="1163.0779,-30.0841 1161.9057,-19.5543 1156.2556,-28.5168 1163.0779,-30.0841"/>
</g>
<!-- Node9&#45;&gt;Node5 -->
<g id="edge20" class="edge">
<title>Node9&#45;&gt;Node5</title>
<path fill="none" stroke="#191970" d="M477.9646,-124.6802C474.7675,-124.0841 471.5828,-123.5157 468.5,-123 346.9242,-102.6631 312.0002,-120.9408 193.5,-87 191.5355,-86.4373 189.5397,-85.7785 187.55,-85.0556"/>
<polygon fill="#191970" stroke="#191970" points="188.4057,-81.6231 177.826,-81.0567 185.7433,-88.0971 188.4057,-81.6231"/>
</g>
<!-- Node9&#45;&gt;Node6 -->
<g id="edge21" class="edge">
<title>Node9&#45;&gt;Node6</title>
<path fill="none" stroke="#191970" d="M477.9543,-124.7399C474.7596,-124.1304 471.5782,-123.5426 468.5,-123 414.9561,-113.5607 266.7133,-123.5915 226.5,-87 210.7196,-72.6409 207.0815,-47.454 206.668,-29.8078"/>
<polygon fill="#191970" stroke="#191970" points="210.1685,-29.7553 206.7569,-19.7248 203.1688,-29.6935 210.1685,-29.7553"/>
</g>
<!-- Node10 -->
<g id="node11" class="node">
<title>Node10</title>
<g id="a_node11"><a xlink:href="condition_8hxx.html" target="_top" xlink:title="Condition matching. ">
<polygon fill="#ffffff" stroke="#000000" points="1042.5,-62 1042.5,-81 1116.5,-81 1116.5,-62 1042.5,-62"/>
<text text-anchor="middle" x="1079.5" y="-69" font-family="Helvetica,sans-Serif" font-size="10.00" fill="#000000">condition.hxx</text>
</a>
</g>
</g>
<!-- Node9&#45;&gt;Node10 -->
<g id="edge11" class="edge">
<title>Node9&#45;&gt;Node10</title>
<path fill="none" stroke="#191970" d="M557.3422,-130.6688C661.9315,-124.3542 942.51,-106.1048 1033.5,-87 1037.1804,-86.2272 1040.9755,-85.2529 1044.7334,-84.1707"/>
<polygon fill="#191970" stroke="#191970" points="1045.9908,-87.4447 1054.4898,-81.1188 1043.9009,-80.764 1045.9908,-87.4447"/>
</g>
<!-- Node12 -->
<g id="node13" class="node">
<title>Node12</title>
<polygon fill="#ffffff" stroke="#bfbfbf" points="235.5,-62 235.5,-81 291.5,-81 291.5,-62 235.5,-62"/>
<text text-anchor="middle" x="263.5" y="-69" font-family="Helvetica,sans-Serif" font-size="10.00" fill="#000000">algorithm</text>
</g>
<!-- Node9&#45;&gt;Node12 -->
<g id="edge15" class="edge">
<title>Node9&#45;&gt;Node12</title>
<path fill="none" stroke="#191970" d="M477.6665,-124.7575C417.3582,-112.2494 308.9545,-89.6412 300.5,-87 298.3395,-86.3251 296.1313,-85.5717 293.9222,-84.7706"/>
<polygon fill="#191970" stroke="#191970" points="294.9659,-81.421 284.3775,-81.0492 292.423,-87.9428 294.9659,-81.421"/>
</g>
<!-- Node13 -->
<g id="node14" class="node">
<title>Node13</title>
<polygon fill="#ffffff" stroke="#bfbfbf" points="309.5,-62 309.5,-81 353.5,-81 353.5,-62 309.5,-62"/>
<text text-anchor="middle" x="331.5" y="-69" font-family="Helvetica,sans-Serif" font-size="10.00" fill="#000000">cmath</text>
</g>
<!-- Node9&#45;&gt;Node13 -->
<g id="edge16" class="edge">
<title>Node9&#45;&gt;Node13</title>
<path fill="none" stroke="#191970" d="M478.6475,-123.4933C446.9079,-115.2481 401.14,-102.2575 362.5,-87 361.1358,-86.4613 359.7504,-85.8847 358.3601,-85.2823"/>
<polygon fill="#191970" stroke="#191970" points="359.8316,-82.1067 349.2886,-81.06 356.8777,-88.4529 359.8316,-82.1067"/>
</g>
<!-- Node14 -->
<g id="node15" class="node">
<title>Node14</title>
<polygon fill="#ffffff" stroke="#bfbfbf" points="372,-62 372,-81 419,-81 419,-62 372,-62"/>
<text text-anchor="middle" x="395.5" y="-69" font-family="Helvetica,sans-Serif" font-size="10.00" fill="#000000">iterator</text>
</g>
<!-- Node9&#45;&gt;Node14 -->
<g id="edge17" class="edge">
<title>Node9&#45;&gt;Node14</title>
<path fill="none" stroke="#191970" d="M498.4375,-123.3906C478.3828,-113.2811 446.6066,-97.2628 423.6616,-85.6962"/>
<polygon fill="#191970" stroke="#191970" points="424.9337,-82.418 414.4286,-81.0419 421.7827,-88.6687 424.9337,-82.418"/>
</g>
<!-- Node15 -->
<g id="node16" class="node">
<title>Node15</title>
<polygon fill="#ffffff" stroke="#bfbfbf" points="437,-62 437,-81 496,-81 496,-62 437,-62"/>
<text text-anchor="middle" x="466.5" y="-69" font-family="Helvetica,sans-Serif" font-size="10.00" fill="#000000">stdexcept</text>
</g>
<!-- Node9&#45;&gt;Node15 -->
<g id="edge18" class="edge">
<title>Node9&#45;&gt;Node15</title>
<path fill="none" stroke="#191970" d="M509.5313,-123.3906C501.9409,-114.2376 490.3339,-100.2409 481.0868,-89.09"/>
<polygon fill="#191970" stroke="#191970" points="483.6587,-86.7083 474.5811,-81.2449 478.2703,-91.1766 483.6587,-86.7083"/>
</g>
<!-- Node16 -->
<g id="node17" class="node">
<title>Node16</title>
<polygon fill="#ffffff" stroke="#bfbfbf" points="514.5,-56.5 514.5,-86.5 624.5,-86.5 624.5,-56.5 514.5,-56.5"/>
<text text-anchor="start" x="522.5" y="-74.5" font-family="Helvetica,sans-Serif" font-size="10.00" fill="#000000">boost/container/small</text>
<text text-anchor="middle" x="569.5" y="-63.5" font-family="Helvetica,sans-Serif" font-size="10.00" fill="#000000">_vector.hpp</text>
</g>
<!-- Node9&#45;&gt;Node16 -->
<g id="edge22" class="edge">
<title>Node9&#45;&gt;Node16</title>
<path fill="none" stroke="#191970" d="M525.625,-123.3906C532.2064,-115.6068 541.7496,-104.3202 550.256,-94.2597"/>
<polygon fill="#191970" stroke="#191970" points="552.9954,-96.4407 556.7794,-86.5446 547.65,-91.921 552.9954,-96.4407"/>
</g>
<!-- Node17 -->
<g id="node18" class="node">
<title>Node17</title>
<polygon fill="#ffffff" stroke="#bfbfbf" points="642.5,-62 642.5,-81 792.5,-81 792.5,-62 642.5,-62"/>
<text text-anchor="middle" x="717.5" y="-69" font-family="Helvetica,sans-Serif" font-size="10.00" fill="#000000">boost/multi_index/member.hpp</text>
</g>
<!-- Node9&#45;&gt;Node17 -->
<g id="edge23" class="edge">
<title>Node9&#45;&gt;Node17</title>
<path fill="none" stroke="#191970" d="M548.75,-123.3906C583.2411,-112.7846 638.8812,-95.6753 676.7662,-84.0257"/>
<polygon fill="#191970" stroke="#191970" points="677.9399,-87.3266 686.4694,-81.0419 675.8824,-80.6357 677.9399,-87.3266"/>
</g>
<!-- Node18 -->
<g id="node19" class="node">
<title>Node18</title>
<polygon fill="#ffffff" stroke="#bfbfbf" points="811,-56.5 811,-86.5 912,-86.5 912,-56.5 811,-56.5"/>
<text text-anchor="start" x="819" y="-74.5" font-family="Helvetica,sans-Serif" font-size="10.00" fill="#000000">boost/range/iterator</text>
<text text-anchor="middle" x="861.5" y="-63.5" font-family="Helvetica,sans-Serif" font-size="10.00" fill="#000000">_range_core.hpp</text>
</g>
<!-- Node9&#45;&gt;Node18 -->
<g id="edge24" class="edge">
<title>Node9&#45;&gt;Node18</title>
<path fill="none" stroke="#191970" d="M557.2242,-127.7453C610.4493,-120.4462 708.0126,-106.1631 800.9868,-86.9917"/>
<polygon fill="#191970" stroke="#191970" points="801.763,-90.4052 810.8383,-84.938 800.3344,-83.5525 801.763,-90.4052"/>
</g>
<!-- Node19 -->
<g id="node20" class="node">
<title>Node19</title>
<polygon fill="#ffffff" stroke="#bfbfbf" points="930.5,-56.5 930.5,-86.5 1024.5,-86.5 1024.5,-56.5 930.5,-56.5"/>
<text text-anchor="start" x="938.5" y="-74.5" font-family="Helvetica,sans-Serif" font-size="10.00" fill="#000000">boost/utility/string</text>
<text text-anchor="middle" x="977.5" y="-63.5" font-family="Helvetica,sans-Serif" font-size="10.00" fill="#000000">_view.hpp</text>
</g>
<!-- Node9&#45;&gt;Node19 -->
<g id="edge25" class="edge">
<title>Node9&#45;&gt;Node19</title>
<path fill="none" stroke="#191970" d="M557.272,-130.4717C629.9239,-125.4086 788.7542,-112.2801 920.5,-87 920.6007,-86.9807 920.7015,-86.9613 920.8024,-86.9418"/>
<polygon fill="#191970" stroke="#191970" points="921.2971,-90.4149 930.3517,-84.9136 919.8427,-83.5676 921.2971,-90.4149"/>
</g>
<!-- Node10&#45;&gt;Node3 -->
<g id="edge12" class="edge">
<title>Node10&#45;&gt;Node3</title>
<path fill="none" stroke="#191970" d="M1092.625,-61.8906C1105.94,-52.1421 1126.7594,-36.8994 1142.3947,-25.4521"/>
<polygon fill="#191970" stroke="#191970" points="1144.4661,-28.2734 1150.4672,-19.5419 1140.3309,-22.6253 1144.4661,-28.2734"/>
</g>
<!-- Node10&#45;&gt;Node6 -->
<g id="edge14" class="edge">
<title>Node10&#45;&gt;Node6</title>
<path fill="none" stroke="#191970" d="M1055.0008,-61.8862C1048.143,-59.5701 1040.6166,-57.371 1033.5,-56 877.2916,-25.9062 372.9301,-13.4501 239.9108,-10.6408"/>
<polygon fill="#191970" stroke="#191970" points="239.6592,-7.1349 229.5887,-10.4266 239.5139,-14.1334 239.6592,-7.1349"/>
</g>
<!-- Node11 -->
<g id="node12" class="node">
<title>Node11</title>
<polygon fill="#ffffff" stroke="#bfbfbf" points="1060.5,-.5 1060.5,-19.5 1098.5,-19.5 1098.5,-.5 1060.5,-.5"/>
<text text-anchor="middle" x="1079.5" y="-7.5" font-family="Helvetica,sans-Serif" font-size="10.00" fill="#000000">tuple</text>
</g>
<!-- Node10&#45;&gt;Node11 -->
<g id="edge13" class="edge">
<title>Node10&#45;&gt;Node11</title>
<path fill="none" stroke="#191970" d="M1079.5,-61.8906C1079.5,-53.3657 1079.5,-40.6392 1079.5,-29.9235"/>
<polygon fill="#191970" stroke="#191970" points="1083.0001,-29.7448 1079.5,-19.7449 1076.0001,-29.7449 1083.0001,-29.7448"/>
</g>
</g>
</svg>
