<?xml version="1.0" encoding="UTF-8" standalone="no"?>
<!DOCTYPE svg PUBLIC "-//W3C//DTD SVG 1.1//EN"
 "http://www.w3.org/Graphics/SVG/1.1/DTD/svg11.dtd">
<!-- Generated by graphviz version 2.43.0 (0)
 -->
<!-- Title: src/nuspell/dictionary.hxx Pages: 1 -->
<svg width="868pt" height="364pt"
 viewBox="0.00 0.00 867.50 364.00" xmlns="http://www.w3.org/2000/svg" xmlns:xlink="http://www.w3.org/1999/xlink">
<g id="graph0" class="graph" transform="scale(1 1) rotate(0) translate(4 360)">
<title>src/nuspell/dictionary.hxx</title>
<polygon fill="white" stroke="transparent" points="-4,4 -4,-360 863.5,-360 863.5,4 -4,4"/>
<!-- Node1 -->
<g id="node1" class="node">
<title>Node1</title>
<g id="a_node1"><a xlink:title="Dictionary spelling.">
<polygon fill="#bfbfbf" stroke="black" points="412,-336.5 412,-355.5 552,-355.5 552,-336.5 412,-336.5"/>
<text text-anchor="middle" x="482" y="-343.5" font-family="Helvetica,sans-Serif" font-size="10.00">src/nuspell/dictionary.hxx</text>
</a>
</g>
</g>
<!-- Node2 -->
<g id="node2" class="node">
<title>Node2</title>
<g id="a_node2"><a xlink:href="suggester_8hxx_source.html" target="_top" xlink:title=" ">
<polygon fill="white" stroke="black" points="439.5,-280.5 439.5,-299.5 524.5,-299.5 524.5,-280.5 439.5,-280.5"/>
<text text-anchor="middle" x="482" y="-287.5" font-family="Helvetica,sans-Serif" font-size="10.00">suggester.hxx</text>
</a>
</g>
</g>
<!-- Node1&#45;&gt;Node2 -->
<g id="edge1" class="edge">
<title>Node1&#45;&gt;Node2</title>
<path fill="none" stroke="midnightblue" d="M482,-336.08C482,-329.01 482,-318.86 482,-309.99"/>
<polygon fill="midnightblue" stroke="midnightblue" points="485.5,-309.75 482,-299.75 478.5,-309.75 485.5,-309.75"/>
</g>
<!-- Node3 -->
<g id="node3" class="node">
<title>Node3</title>
<g id="a_node3"><a xlink:href="checker_8hxx_source.html" target="_top" xlink:title=" ">
<polygon fill="white" stroke="black" points="445,-224.5 445,-243.5 519,-243.5 519,-224.5 445,-224.5"/>
<text text-anchor="middle" x="482" y="-231.5" font-family="Helvetica,sans-Serif" font-size="10.00">checker.hxx</text>
</a>
</g>
</g>
<!-- Node2&#45;&gt;Node3 -->
<g id="edge2" class="edge">
<title>Node2&#45;&gt;Node3</title>
<path fill="none" stroke="midnightblue" d="M482,-280.08C482,-273.01 482,-262.86 482,-253.99"/>
<polygon fill="midnightblue" stroke="midnightblue" points="485.5,-253.75 482,-243.75 478.5,-253.75 485.5,-253.75"/>
</g>
<!-- Node4 -->
<g id="node4" class="node">
<title>Node4</title>
<g id="a_node4"><a xlink:href="aff__data_8hxx_source.html" target="_top" xlink:title=" ">
<polygon fill="white" stroke="black" points="443.5,-168.5 443.5,-187.5 520.5,-187.5 520.5,-168.5 443.5,-168.5"/>
<text text-anchor="middle" x="482" y="-175.5" font-family="Helvetica,sans-Serif" font-size="10.00">aff_data.hxx</text>
</a>
</g>
</g>
<!-- Node3&#45;&gt;Node4 -->
<g id="edge3" class="edge">
<title>Node3&#45;&gt;Node4</title>
<path fill="none" stroke="midnightblue" d="M482,-224.08C482,-217.01 482,-206.86 482,-197.99"/>
<polygon fill="midnightblue" stroke="midnightblue" points="485.5,-197.75 482,-187.75 478.5,-197.75 485.5,-197.75"/>
</g>
<!-- Node5 -->
<g id="node5" class="node">
<title>Node5</title>
<g id="a_node5"><a xlink:title=" ">
<polygon fill="white" stroke="#bfbfbf" points="281,-112.5 281,-131.5 379,-131.5 379,-112.5 281,-112.5"/>
<text text-anchor="middle" x="330" y="-119.5" font-family="Helvetica,sans-Serif" font-size="10.00">nuspell_export.h</text>
</a>
</g>
</g>
<!-- Node4&#45;&gt;Node5 -->
<g id="edge4" class="edge">
<title>Node4&#45;&gt;Node5</title>
<path fill="none" stroke="midnightblue" d="M457.92,-168.44C432.46,-159.4 392.11,-145.06 363.54,-134.92"/>
<polygon fill="midnightblue" stroke="midnightblue" points="364.57,-131.57 353.97,-131.52 362.22,-138.16 364.57,-131.57"/>
</g>
<!-- Node6 -->
<g id="node6" class="node">
<title>Node6</title>
<g id="a_node6"><a xlink:href="structures_8hxx_source.html" target="_top" xlink:title=" ">
<polygon fill="white" stroke="black" points="397,-112.5 397,-131.5 483,-131.5 483,-112.5 397,-112.5"/>
<text text-anchor="middle" x="440" y="-119.5" font-family="Helvetica,sans-Serif" font-size="10.00">structures.hxx</text>
</a>
</g>
</g>
<!-- Node4&#45;&gt;Node6 -->
<g id="edge5" class="edge">
<title>Node4&#45;&gt;Node6</title>
<path fill="none" stroke="midnightblue" d="M475.06,-168.08C469.07,-160.38 460.25,-149.03 452.95,-139.65"/>
<polygon fill="midnightblue" stroke="midnightblue" points="455.71,-137.5 446.81,-131.75 450.18,-141.79 455.71,-137.5"/>
</g>
<!-- Node21 -->
<g id="node21" class="node">
<title>Node21</title>
<g id="a_node21"><a xlink:title=" ">
<polygon fill="white" stroke="#bfbfbf" points="501,-112.5 501,-131.5 549,-131.5 549,-112.5 501,-112.5"/>
<text text-anchor="middle" x="525" y="-119.5" font-family="Helvetica,sans-Serif" font-size="10.00">iosfwd</text>
</a>
</g>
</g>
<!-- Node4&#45;&gt;Node21 -->
<g id="edge22" class="edge">
<title>Node4&#45;&gt;Node21</title>
<path fill="none" stroke="midnightblue" d="M489.1,-168.08C495.24,-160.38 504.27,-149.03 511.74,-139.65"/>
<polygon fill="midnightblue" stroke="midnightblue" points="514.54,-141.75 518.03,-131.75 509.06,-137.39 514.54,-141.75"/>
</g>
<!-- Node22 -->
<g id="node22" class="node">
<title>Node22</title>
<g id="a_node22"><a xlink:title=" ">
<polygon fill="white" stroke="#bfbfbf" points="567,-112.5 567,-131.5 657,-131.5 657,-112.5 567,-112.5"/>
<text text-anchor="middle" x="612" y="-119.5" font-family="Helvetica,sans-Serif" font-size="10.00">unicode/locid.h</text>
</a>
</g>
</g>
<!-- Node4&#45;&gt;Node22 -->
<g id="edge23" class="edge">
<title>Node4&#45;&gt;Node22</title>
<path fill="none" stroke="midnightblue" d="M502.6,-168.44C523.99,-159.56 557.68,-145.56 582.02,-135.45"/>
<polygon fill="midnightblue" stroke="midnightblue" points="583.61,-138.58 591.5,-131.52 580.92,-132.12 583.61,-138.58"/>
</g>
<!-- Node7 -->
<g id="node7" class="node">
<title>Node7</title>
<g id="a_node7"><a xlink:href="unicode_8hxx_source.html" target="_top" xlink:title=" ">
<polygon fill="white" stroke="black" points="117,-56.5 117,-75.5 193,-75.5 193,-56.5 117,-56.5"/>
<text text-anchor="middle" x="155" y="-63.5" font-family="Helvetica,sans-Serif" font-size="10.00">unicode.hxx</text>
</a>
</g>
</g>
<!-- Node6&#45;&gt;Node7 -->
<g id="edge6" class="edge">
<title>Node6&#45;&gt;Node7</title>
<path fill="none" stroke="midnightblue" d="M397,-112.9C351.38,-104.3 276.91,-90.24 203.15,-76.21"/>
<polygon fill="midnightblue" stroke="midnightblue" points="203.7,-72.76 193.22,-74.33 202.39,-79.63 203.7,-72.76"/>
</g>
<!-- Node8 -->
<g id="node8" class="node">
<title>Node8</title>
<g id="a_node8"><a xlink:title=" ">
<polygon fill="white" stroke="#bfbfbf" points="0,-0.5 0,-19.5 44,-19.5 44,-0.5 0,-0.5"/>
<text text-anchor="middle" x="22" y="-7.5" font-family="Helvetica,sans-Serif" font-size="10.00">string</text>
</a>
</g>
</g>
<!-- Node6&#45;&gt;Node8 -->
<g id="edge18" class="edge">
<title>Node6&#45;&gt;Node8</title>
<path fill="none" stroke="midnightblue" d="M396.9,-113.37C393.89,-112.89 390.9,-112.43 388,-112 257.33,-92.73 212.98,-131.23 93,-76 69.14,-65.02 47.82,-43.02 34.91,-27.68"/>
<polygon fill="midnightblue" stroke="midnightblue" points="37.34,-25.11 28.33,-19.54 31.9,-29.52 37.34,-25.11"/>
</g>
<!-- Node9 -->
<g id="node9" class="node">
<title>Node9</title>
<g id="a_node9"><a xlink:title=" ">
<polygon fill="white" stroke="#bfbfbf" points="62.5,-0.5 62.5,-19.5 135.5,-19.5 135.5,-0.5 62.5,-0.5"/>
<text text-anchor="middle" x="99" y="-7.5" font-family="Helvetica,sans-Serif" font-size="10.00">string_view</text>
</a>
</g>
</g>
<!-- Node6&#45;&gt;Node9 -->
<g id="edge19" class="edge">
<title>Node6&#45;&gt;Node9</title>
<path fill="none" stroke="midnightblue" d="M396.89,-113.39C393.89,-112.91 390.9,-112.44 388,-112 325.97,-102.65 152.57,-120.14 108,-76 96,-64.12 94.88,-44.21 96.06,-29.55"/>
<polygon fill="midnightblue" stroke="midnightblue" points="99.54,-29.93 97.27,-19.58 92.59,-29.08 99.54,-29.93"/>
</g>
<!-- Node12 -->
<g id="node12" class="node">
<title>Node12</title>
<g id="a_node12"><a xlink:title=" ">
<polygon fill="white" stroke="#bfbfbf" points="211,-56.5 211,-75.5 275,-75.5 275,-56.5 211,-56.5"/>
<text text-anchor="middle" x="243" y="-63.5" font-family="Helvetica,sans-Serif" font-size="10.00">algorithm</text>
</a>
</g>
</g>
<!-- Node6&#45;&gt;Node12 -->
<g id="edge11" class="edge">
<title>Node6&#45;&gt;Node12</title>
<path fill="none" stroke="midnightblue" d="M408.78,-112.44C375.07,-103.2 321.2,-88.44 284.07,-78.26"/>
<polygon fill="midnightblue" stroke="midnightblue" points="284.64,-74.78 274.07,-75.52 282.79,-81.54 284.64,-74.78"/>
</g>
<!-- Node13 -->
<g id="node13" class="node">
<title>Node13</title>
<g id="a_node13"><a xlink:title=" ">
<polygon fill="white" stroke="#bfbfbf" points="293.5,-56.5 293.5,-75.5 340.5,-75.5 340.5,-56.5 293.5,-56.5"/>
<text text-anchor="middle" x="317" y="-63.5" font-family="Helvetica,sans-Serif" font-size="10.00">cmath</text>
</a>
</g>
</g>
<!-- Node6&#45;&gt;Node13 -->
<g id="edge12" class="edge">
<title>Node6&#45;&gt;Node13</title>
<path fill="none" stroke="midnightblue" d="M420.51,-112.44C400.36,-103.6 368.68,-89.69 345.67,-79.59"/>
<polygon fill="midnightblue" stroke="midnightblue" points="346.96,-76.33 336.4,-75.52 344.15,-82.74 346.96,-76.33"/>
</g>
<!-- Node14 -->
<g id="node14" class="node">
<title>Node14</title>
<g id="a_node14"><a xlink:title=" ">
<polygon fill="white" stroke="#bfbfbf" points="359,-56.5 359,-75.5 433,-75.5 433,-56.5 359,-56.5"/>
<text text-anchor="middle" x="396" y="-63.5" font-family="Helvetica,sans-Serif" font-size="10.00">forward_list</text>
</a>
</g>
</g>
<!-- Node6&#45;&gt;Node14 -->
<g id="edge13" class="edge">
<title>Node6&#45;&gt;Node14</title>
<path fill="none" stroke="midnightblue" d="M432.73,-112.08C426.46,-104.38 417.21,-93.03 409.57,-83.65"/>
<polygon fill="midnightblue" stroke="midnightblue" points="412.16,-81.29 403.13,-75.75 406.73,-85.71 412.16,-81.29"/>
</g>
<!-- Node15 -->
<g id="node15" class="node">
<title>Node15</title>
<g id="a_node15"><a xlink:title=" ">
<polygon fill="white" stroke="#bfbfbf" points="451.5,-56.5 451.5,-75.5 516.5,-75.5 516.5,-56.5 451.5,-56.5"/>
<text text-anchor="middle" x="484" y="-63.5" font-family="Helvetica,sans-Serif" font-size="10.00">functional</text>
</a>
</g>
</g>
<!-- Node6&#45;&gt;Node15 -->
<g id="edge14" class="edge">
<title>Node6&#45;&gt;Node15</title>
<path fill="none" stroke="midnightblue" d="M447.27,-112.08C453.54,-104.38 462.79,-93.03 470.43,-83.65"/>
<polygon fill="midnightblue" stroke="midnightblue" points="473.27,-85.71 476.87,-75.75 467.84,-81.29 473.27,-85.71"/>
</g>
<!-- Node16 -->
<g id="node16" class="node">
<title>Node16</title>
<g id="a_node16"><a xlink:title=" ">
<polygon fill="white" stroke="#bfbfbf" points="534.5,-56.5 534.5,-75.5 587.5,-75.5 587.5,-56.5 534.5,-56.5"/>
<text text-anchor="middle" x="561" y="-63.5" font-family="Helvetica,sans-Serif" font-size="10.00">iterator</text>
</a>
</g>
</g>
<!-- Node6&#45;&gt;Node16 -->
<g id="edge15" class="edge">
<title>Node6&#45;&gt;Node16</title>
<path fill="none" stroke="midnightblue" d="M459.17,-112.44C478.91,-103.64 509.89,-89.81 532.49,-79.72"/>
<polygon fill="midnightblue" stroke="midnightblue" points="534.21,-82.79 541.92,-75.52 531.36,-76.4 534.21,-82.79"/>
</g>
<!-- Node17 -->
<g id="node17" class="node">
<title>Node17</title>
<g id="a_node17"><a xlink:title=" ">
<polygon fill="white" stroke="#bfbfbf" points="605.5,-56.5 605.5,-75.5 648.5,-75.5 648.5,-56.5 605.5,-56.5"/>
<text text-anchor="middle" x="627" y="-63.5" font-family="Helvetica,sans-Serif" font-size="10.00">stack</text>
</a>
</g>
</g>
<!-- Node6&#45;&gt;Node17 -->
<g id="edge16" class="edge">
<title>Node6&#45;&gt;Node17</title>
<path fill="none" stroke="midnightblue" d="M470.13,-112.48C499.78,-104.07 546.6,-90.73 595.56,-76.4"/>
<polygon fill="midnightblue" stroke="midnightblue" points="596.77,-79.69 605.38,-73.52 594.8,-72.98 596.77,-79.69"/>
</g>
<!-- Node18 -->
<g id="node18" class="node">
<title>Node18</title>
<g id="a_node18"><a xlink:title=" ">
<polygon fill="white" stroke="#bfbfbf" points="666.5,-56.5 666.5,-75.5 731.5,-75.5 731.5,-56.5 666.5,-56.5"/>
<text text-anchor="middle" x="699" y="-63.5" font-family="Helvetica,sans-Serif" font-size="10.00">stdexcept</text>
</a>
</g>
</g>
<!-- Node6&#45;&gt;Node18 -->
<g id="edge17" class="edge">
<title>Node6&#45;&gt;Node18</title>
<path fill="none" stroke="midnightblue" d="M482.23,-112.45C524.03,-103.94 590.11,-90.4 656.16,-76.37"/>
<polygon fill="midnightblue" stroke="midnightblue" points="657.28,-79.71 666.33,-74.21 655.82,-72.87 657.28,-79.71"/>
</g>
<!-- Node19 -->
<g id="node19" class="node">
<title>Node19</title>
<g id="a_node19"><a xlink:title=" ">
<polygon fill="white" stroke="#bfbfbf" points="749.5,-56.5 749.5,-75.5 794.5,-75.5 794.5,-56.5 749.5,-56.5"/>
<text text-anchor="middle" x="772" y="-63.5" font-family="Helvetica,sans-Serif" font-size="10.00">utility</text>
</a>
</g>
</g>
<!-- Node6&#45;&gt;Node19 -->
<g id="edge20" class="edge">
<title>Node6&#45;&gt;Node19</title>
<path fill="none" stroke="midnightblue" d="M483.11,-113.44C486.12,-112.95 489.1,-112.46 492,-112 599.31,-94.96 629.99,-99.37 739.62,-76.06"/>
<polygon fill="midnightblue" stroke="midnightblue" points="740.37,-79.48 749.41,-73.95 738.89,-72.64 740.37,-79.48"/>
</g>
<!-- Node20 -->
<g id="node20" class="node">
<title>Node20</title>
<g id="a_node20"><a xlink:title=" ">
<polygon fill="white" stroke="#bfbfbf" points="812.5,-56.5 812.5,-75.5 859.5,-75.5 859.5,-56.5 812.5,-56.5"/>
<text text-anchor="middle" x="836" y="-63.5" font-family="Helvetica,sans-Serif" font-size="10.00">vector</text>
</a>
</g>
</g>
<!-- Node6&#45;&gt;Node20 -->
<g id="edge21" class="edge">
<title>Node6&#45;&gt;Node20</title>
<path fill="none" stroke="midnightblue" d="M483.1,-113.35C486.11,-112.87 489.1,-112.42 492,-112 626.92,-92.56 665.26,-102.49 802.3,-76.07"/>
<polygon fill="midnightblue" stroke="midnightblue" points="803.19,-79.47 812.34,-74.11 801.85,-72.6 803.19,-79.47"/>
</g>
<!-- Node7&#45;&gt;Node8 -->
<g id="edge7" class="edge">
<title>Node7&#45;&gt;Node8</title>
<path fill="none" stroke="midnightblue" d="M133.93,-56.44C111.94,-47.52 77.27,-33.44 52.34,-23.32"/>
<polygon fill="midnightblue" stroke="midnightblue" points="53.56,-20.04 42.98,-19.52 50.92,-26.52 53.56,-20.04"/>
</g>
<!-- Node7&#45;&gt;Node9 -->
<g id="edge8" class="edge">
<title>Node7&#45;&gt;Node9</title>
<path fill="none" stroke="midnightblue" d="M146,-56.32C137.81,-48.42 125.49,-36.55 115.53,-26.94"/>
<polygon fill="midnightblue" stroke="midnightblue" points="117.79,-24.26 108.16,-19.83 112.93,-29.29 117.79,-24.26"/>
</g>
<!-- Node10 -->
<g id="node10" class="node">
<title>Node10</title>
<g id="a_node10"><a xlink:title=" ">
<polygon fill="white" stroke="#bfbfbf" points="154,-0.5 154,-19.5 246,-19.5 246,-0.5 154,-0.5"/>
<text text-anchor="middle" x="200" y="-7.5" font-family="Helvetica,sans-Serif" font-size="10.00">unicode/utf16.h</text>
</a>
</g>
</g>
<!-- Node7&#45;&gt;Node10 -->
<g id="edge9" class="edge">
<title>Node7&#45;&gt;Node10</title>
<path fill="none" stroke="midnightblue" d="M162.43,-56.08C168.85,-48.38 178.31,-37.03 186.12,-27.65"/>
<polygon fill="midnightblue" stroke="midnightblue" points="188.99,-29.67 192.71,-19.75 183.62,-25.19 188.99,-29.67"/>
</g>
<!-- Node11 -->
<g id="node11" class="node">
<title>Node11</title>
<g id="a_node11"><a xlink:title=" ">
<polygon fill="white" stroke="#bfbfbf" points="264,-0.5 264,-19.5 350,-19.5 350,-0.5 264,-0.5"/>
<text text-anchor="middle" x="307" y="-7.5" font-family="Helvetica,sans-Serif" font-size="10.00">unicode/utf8.h</text>
</a>
</g>
</g>
<!-- Node7&#45;&gt;Node11 -->
<g id="edge10" class="edge">
<title>Node7&#45;&gt;Node11</title>
<path fill="none" stroke="midnightblue" d="M179.08,-56.44C204.54,-47.4 244.89,-33.06 273.46,-22.92"/>
<polygon fill="midnightblue" stroke="midnightblue" points="274.78,-26.16 283.03,-19.52 272.43,-19.57 274.78,-26.16"/>
</g>
</g>
</svg>
