<?xml version="1.0" encoding="UTF-8" standalone="no"?>
<!DOCTYPE svg PUBLIC "-//W3C//DTD SVG 1.1//EN"
 "http://www.w3.org/Graphics/SVG/1.1/DTD/svg11.dtd">
<!-- Generated by graphviz version 2.43.0 (0)
 -->
<!-- Title: src/nuspell/dictionary.hxx Pages: 1 -->
<svg width="951pt" height="364pt"
 viewBox="0.00 0.00 950.50 364.00" xmlns="http://www.w3.org/2000/svg" xmlns:xlink="http://www.w3.org/1999/xlink">
<g id="graph0" class="graph" transform="scale(1 1) rotate(0) translate(4 360)">
<title>src/nuspell/dictionary.hxx</title>
<polygon fill="white" stroke="transparent" points="-4,4 -4,-360 946.5,-360 946.5,4 -4,4"/>
<!-- Node1 -->
<g id="node1" class="node">
<title>Node1</title>
<g id="a_node1"><a xlink:title="Dictionary spelling.">
<polygon fill="#bfbfbf" stroke="black" points="542,-336.5 542,-355.5 682,-355.5 682,-336.5 542,-336.5"/>
<text text-anchor="middle" x="612" y="-343.5" font-family="Helvetica,sans-Serif" font-size="10.00">src/nuspell/dictionary.hxx</text>
</a>
</g>
</g>
<!-- Node2 -->
<g id="node2" class="node">
<title>Node2</title>
<g id="a_node2"><a xlink:href="suggester_8hxx_source.html" target="_top" xlink:title=" ">
<polygon fill="white" stroke="black" points="522.5,-280.5 522.5,-299.5 607.5,-299.5 607.5,-280.5 522.5,-280.5"/>
<text text-anchor="middle" x="565" y="-287.5" font-family="Helvetica,sans-Serif" font-size="10.00">suggester.hxx</text>
</a>
</g>
</g>
<!-- Node1&#45;&gt;Node2 -->
<g id="edge1" class="edge">
<title>Node1&#45;&gt;Node2</title>
<path fill="none" stroke="midnightblue" d="M604.24,-336.08C597.46,-328.3 587.46,-316.8 579.24,-307.37"/>
<polygon fill="midnightblue" stroke="midnightblue" points="581.82,-305 572.62,-299.75 576.54,-309.59 581.82,-305"/>
</g>
<!-- Node24 -->
<g id="node24" class="node">
<title>Node24</title>
<g id="a_node24"><a xlink:title=" ">
<polygon fill="white" stroke="#bfbfbf" points="626,-280.5 626,-299.5 694,-299.5 694,-280.5 626,-280.5"/>
<text text-anchor="middle" x="660" y="-287.5" font-family="Helvetica,sans-Serif" font-size="10.00">filesystem</text>
</a>
</g>
</g>
<!-- Node1&#45;&gt;Node24 -->
<g id="edge25" class="edge">
<title>Node1&#45;&gt;Node24</title>
<path fill="none" stroke="midnightblue" d="M619.93,-336.08C626.85,-328.3 637.07,-316.8 645.45,-307.37"/>
<polygon fill="midnightblue" stroke="midnightblue" points="648.19,-309.55 652.22,-299.75 642.96,-304.9 648.19,-309.55"/>
</g>
<!-- Node3 -->
<g id="node3" class="node">
<title>Node3</title>
<g id="a_node3"><a xlink:href="checker_8hxx_source.html" target="_top" xlink:title=" ">
<polygon fill="white" stroke="black" points="528,-224.5 528,-243.5 602,-243.5 602,-224.5 528,-224.5"/>
<text text-anchor="middle" x="565" y="-231.5" font-family="Helvetica,sans-Serif" font-size="10.00">checker.hxx</text>
</a>
</g>
</g>
<!-- Node2&#45;&gt;Node3 -->
<g id="edge2" class="edge">
<title>Node2&#45;&gt;Node3</title>
<path fill="none" stroke="midnightblue" d="M565,-280.08C565,-273.01 565,-262.86 565,-253.99"/>
<polygon fill="midnightblue" stroke="midnightblue" points="568.5,-253.75 565,-243.75 561.5,-253.75 568.5,-253.75"/>
</g>
<!-- Node4 -->
<g id="node4" class="node">
<title>Node4</title>
<g id="a_node4"><a xlink:href="aff__data_8hxx_source.html" target="_top" xlink:title=" ">
<polygon fill="white" stroke="black" points="526.5,-168.5 526.5,-187.5 603.5,-187.5 603.5,-168.5 526.5,-168.5"/>
<text text-anchor="middle" x="565" y="-175.5" font-family="Helvetica,sans-Serif" font-size="10.00">aff_data.hxx</text>
</a>
</g>
</g>
<!-- Node3&#45;&gt;Node4 -->
<g id="edge3" class="edge">
<title>Node3&#45;&gt;Node4</title>
<path fill="none" stroke="midnightblue" d="M565,-224.08C565,-217.01 565,-206.86 565,-197.99"/>
<polygon fill="midnightblue" stroke="midnightblue" points="568.5,-197.75 565,-187.75 561.5,-197.75 568.5,-197.75"/>
</g>
<!-- Node5 -->
<g id="node5" class="node">
<title>Node5</title>
<g id="a_node5"><a xlink:title=" ">
<polygon fill="white" stroke="#bfbfbf" points="364,-112.5 364,-131.5 462,-131.5 462,-112.5 364,-112.5"/>
<text text-anchor="middle" x="413" y="-119.5" font-family="Helvetica,sans-Serif" font-size="10.00">nuspell_export.h</text>
</a>
</g>
</g>
<!-- Node4&#45;&gt;Node5 -->
<g id="edge4" class="edge">
<title>Node4&#45;&gt;Node5</title>
<path fill="none" stroke="midnightblue" d="M540.92,-168.44C515.46,-159.4 475.11,-145.06 446.54,-134.92"/>
<polygon fill="midnightblue" stroke="midnightblue" points="447.57,-131.57 436.97,-131.52 445.22,-138.16 447.57,-131.57"/>
</g>
<!-- Node6 -->
<g id="node6" class="node">
<title>Node6</title>
<g id="a_node6"><a xlink:href="structures_8hxx_source.html" target="_top" xlink:title=" ">
<polygon fill="white" stroke="black" points="480,-112.5 480,-131.5 566,-131.5 566,-112.5 480,-112.5"/>
<text text-anchor="middle" x="523" y="-119.5" font-family="Helvetica,sans-Serif" font-size="10.00">structures.hxx</text>
</a>
</g>
</g>
<!-- Node4&#45;&gt;Node6 -->
<g id="edge5" class="edge">
<title>Node4&#45;&gt;Node6</title>
<path fill="none" stroke="midnightblue" d="M558.06,-168.08C552.07,-160.38 543.25,-149.03 535.95,-139.65"/>
<polygon fill="midnightblue" stroke="midnightblue" points="538.71,-137.5 529.81,-131.75 533.18,-141.79 538.71,-137.5"/>
</g>
<!-- Node22 -->
<g id="node22" class="node">
<title>Node22</title>
<g id="a_node22"><a xlink:title=" ">
<polygon fill="white" stroke="#bfbfbf" points="584,-112.5 584,-131.5 632,-131.5 632,-112.5 584,-112.5"/>
<text text-anchor="middle" x="608" y="-119.5" font-family="Helvetica,sans-Serif" font-size="10.00">iosfwd</text>
</a>
</g>
</g>
<!-- Node4&#45;&gt;Node22 -->
<g id="edge23" class="edge">
<title>Node4&#45;&gt;Node22</title>
<path fill="none" stroke="midnightblue" d="M572.1,-168.08C578.24,-160.38 587.27,-149.03 594.74,-139.65"/>
<polygon fill="midnightblue" stroke="midnightblue" points="597.54,-141.75 601.03,-131.75 592.06,-137.39 597.54,-141.75"/>
</g>
<!-- Node23 -->
<g id="node23" class="node">
<title>Node23</title>
<g id="a_node23"><a xlink:title=" ">
<polygon fill="white" stroke="#bfbfbf" points="650,-112.5 650,-131.5 740,-131.5 740,-112.5 650,-112.5"/>
<text text-anchor="middle" x="695" y="-119.5" font-family="Helvetica,sans-Serif" font-size="10.00">unicode/locid.h</text>
</a>
</g>
</g>
<!-- Node4&#45;&gt;Node23 -->
<g id="edge24" class="edge">
<title>Node4&#45;&gt;Node23</title>
<path fill="none" stroke="midnightblue" d="M585.6,-168.44C606.99,-159.56 640.68,-145.56 665.02,-135.45"/>
<polygon fill="midnightblue" stroke="midnightblue" points="666.61,-138.58 674.5,-131.52 663.92,-132.12 666.61,-138.58"/>
</g>
<!-- Node7 -->
<g id="node7" class="node">
<title>Node7</title>
<g id="a_node7"><a xlink:href="unicode_8hxx_source.html" target="_top" xlink:title=" ">
<polygon fill="white" stroke="black" points="162,-56.5 162,-75.5 238,-75.5 238,-56.5 162,-56.5"/>
<text text-anchor="middle" x="200" y="-63.5" font-family="Helvetica,sans-Serif" font-size="10.00">unicode.hxx</text>
</a>
</g>
</g>
<!-- Node6&#45;&gt;Node7 -->
<g id="edge6" class="edge">
<title>Node6&#45;&gt;Node7</title>
<path fill="none" stroke="midnightblue" d="M479.87,-113.51C476.87,-112.99 473.89,-112.49 471,-112 373.74,-95.59 349.26,-92.41 252,-76 250.73,-75.79 249.44,-75.57 248.14,-75.35"/>
<polygon fill="midnightblue" stroke="midnightblue" points="248.5,-71.86 238.05,-73.62 247.32,-78.76 248.5,-71.86"/>
</g>
<!-- Node9 -->
<g id="node9" class="node">
<title>Node9</title>
<g id="a_node9"><a xlink:title=" ">
<polygon fill="white" stroke="#bfbfbf" points="0,-0.5 0,-19.5 44,-19.5 44,-0.5 0,-0.5"/>
<text text-anchor="middle" x="22" y="-7.5" font-family="Helvetica,sans-Serif" font-size="10.00">string</text>
</a>
</g>
</g>
<!-- Node6&#45;&gt;Node9 -->
<g id="edge19" class="edge">
<title>Node6&#45;&gt;Node9</title>
<path fill="none" stroke="midnightblue" d="M479.9,-113.34C476.89,-112.87 473.9,-112.42 471,-112 330.2,-91.86 289.43,-116.22 153,-76 112.62,-64.1 69.59,-40.34 44.28,-25.08"/>
<polygon fill="midnightblue" stroke="midnightblue" points="45.85,-21.94 35.5,-19.7 42.19,-27.91 45.85,-21.94"/>
</g>
<!-- Node10 -->
<g id="node10" class="node">
<title>Node10</title>
<g id="a_node10"><a xlink:title=" ">
<polygon fill="white" stroke="#bfbfbf" points="368.5,-0.5 368.5,-19.5 441.5,-19.5 441.5,-0.5 368.5,-0.5"/>
<text text-anchor="middle" x="405" y="-7.5" font-family="Helvetica,sans-Serif" font-size="10.00">string_view</text>
</a>
</g>
</g>
<!-- Node6&#45;&gt;Node10 -->
<g id="edge20" class="edge">
<title>Node6&#45;&gt;Node10</title>
<path fill="none" stroke="midnightblue" d="M479.97,-113.22C411.83,-100.85 286.56,-77.88 285,-76 279.33,-69.16 279.94,-63.31 285,-56 293.94,-43.1 329.46,-30.76 359.55,-22.27"/>
<polygon fill="midnightblue" stroke="midnightblue" points="360.78,-25.56 369.51,-19.54 358.94,-18.81 360.78,-25.56"/>
</g>
<!-- Node13 -->
<g id="node13" class="node">
<title>Node13</title>
<g id="a_node13"><a xlink:title=" ">
<polygon fill="white" stroke="#bfbfbf" points="294,-56.5 294,-75.5 358,-75.5 358,-56.5 294,-56.5"/>
<text text-anchor="middle" x="326" y="-63.5" font-family="Helvetica,sans-Serif" font-size="10.00">algorithm</text>
</a>
</g>
</g>
<!-- Node6&#45;&gt;Node13 -->
<g id="edge12" class="edge">
<title>Node6&#45;&gt;Node13</title>
<path fill="none" stroke="midnightblue" d="M491.78,-112.44C458.07,-103.2 404.2,-88.44 367.07,-78.26"/>
<polygon fill="midnightblue" stroke="midnightblue" points="367.64,-74.78 357.07,-75.52 365.79,-81.54 367.64,-74.78"/>
</g>
<!-- Node14 -->
<g id="node14" class="node">
<title>Node14</title>
<g id="a_node14"><a xlink:title=" ">
<polygon fill="white" stroke="#bfbfbf" points="376.5,-56.5 376.5,-75.5 423.5,-75.5 423.5,-56.5 376.5,-56.5"/>
<text text-anchor="middle" x="400" y="-63.5" font-family="Helvetica,sans-Serif" font-size="10.00">cmath</text>
</a>
</g>
</g>
<!-- Node6&#45;&gt;Node14 -->
<g id="edge13" class="edge">
<title>Node6&#45;&gt;Node14</title>
<path fill="none" stroke="midnightblue" d="M503.51,-112.44C483.36,-103.6 451.68,-89.69 428.67,-79.59"/>
<polygon fill="midnightblue" stroke="midnightblue" points="429.96,-76.33 419.4,-75.52 427.15,-82.74 429.96,-76.33"/>
</g>
<!-- Node15 -->
<g id="node15" class="node">
<title>Node15</title>
<g id="a_node15"><a xlink:title=" ">
<polygon fill="white" stroke="#bfbfbf" points="442,-56.5 442,-75.5 516,-75.5 516,-56.5 442,-56.5"/>
<text text-anchor="middle" x="479" y="-63.5" font-family="Helvetica,sans-Serif" font-size="10.00">forward_list</text>
</a>
</g>
</g>
<!-- Node6&#45;&gt;Node15 -->
<g id="edge14" class="edge">
<title>Node6&#45;&gt;Node15</title>
<path fill="none" stroke="midnightblue" d="M515.73,-112.08C509.46,-104.38 500.21,-93.03 492.57,-83.65"/>
<polygon fill="midnightblue" stroke="midnightblue" points="495.16,-81.29 486.13,-75.75 489.73,-85.71 495.16,-81.29"/>
</g>
<!-- Node16 -->
<g id="node16" class="node">
<title>Node16</title>
<g id="a_node16"><a xlink:title=" ">
<polygon fill="white" stroke="#bfbfbf" points="534.5,-56.5 534.5,-75.5 599.5,-75.5 599.5,-56.5 534.5,-56.5"/>
<text text-anchor="middle" x="567" y="-63.5" font-family="Helvetica,sans-Serif" font-size="10.00">functional</text>
</a>
</g>
</g>
<!-- Node6&#45;&gt;Node16 -->
<g id="edge15" class="edge">
<title>Node6&#45;&gt;Node16</title>
<path fill="none" stroke="midnightblue" d="M530.27,-112.08C536.54,-104.38 545.79,-93.03 553.43,-83.65"/>
<polygon fill="midnightblue" stroke="midnightblue" points="556.27,-85.71 559.87,-75.75 550.84,-81.29 556.27,-85.71"/>
</g>
<!-- Node17 -->
<g id="node17" class="node">
<title>Node17</title>
<g id="a_node17"><a xlink:title=" ">
<polygon fill="white" stroke="#bfbfbf" points="617.5,-56.5 617.5,-75.5 670.5,-75.5 670.5,-56.5 617.5,-56.5"/>
<text text-anchor="middle" x="644" y="-63.5" font-family="Helvetica,sans-Serif" font-size="10.00">iterator</text>
</a>
</g>
</g>
<!-- Node6&#45;&gt;Node17 -->
<g id="edge16" class="edge">
<title>Node6&#45;&gt;Node17</title>
<path fill="none" stroke="midnightblue" d="M542.17,-112.44C561.91,-103.64 592.89,-89.81 615.49,-79.72"/>
<polygon fill="midnightblue" stroke="midnightblue" points="617.21,-82.79 624.92,-75.52 614.36,-76.4 617.21,-82.79"/>
</g>
<!-- Node18 -->
<g id="node18" class="node">
<title>Node18</title>
<g id="a_node18"><a xlink:title=" ">
<polygon fill="white" stroke="#bfbfbf" points="688.5,-56.5 688.5,-75.5 731.5,-75.5 731.5,-56.5 688.5,-56.5"/>
<text text-anchor="middle" x="710" y="-63.5" font-family="Helvetica,sans-Serif" font-size="10.00">stack</text>
</a>
</g>
</g>
<!-- Node6&#45;&gt;Node18 -->
<g id="edge17" class="edge">
<title>Node6&#45;&gt;Node18</title>
<path fill="none" stroke="midnightblue" d="M553.13,-112.48C582.78,-104.07 629.6,-90.73 678.56,-76.4"/>
<polygon fill="midnightblue" stroke="midnightblue" points="679.77,-79.69 688.38,-73.52 677.8,-72.98 679.77,-79.69"/>
</g>
<!-- Node19 -->
<g id="node19" class="node">
<title>Node19</title>
<g id="a_node19"><a xlink:title=" ">
<polygon fill="white" stroke="#bfbfbf" points="749.5,-56.5 749.5,-75.5 814.5,-75.5 814.5,-56.5 749.5,-56.5"/>
<text text-anchor="middle" x="782" y="-63.5" font-family="Helvetica,sans-Serif" font-size="10.00">stdexcept</text>
</a>
</g>
</g>
<!-- Node6&#45;&gt;Node19 -->
<g id="edge18" class="edge">
<title>Node6&#45;&gt;Node19</title>
<path fill="none" stroke="midnightblue" d="M565.23,-112.45C607.03,-103.94 673.11,-90.4 739.16,-76.37"/>
<polygon fill="midnightblue" stroke="midnightblue" points="740.28,-79.71 749.33,-74.21 738.82,-72.87 740.28,-79.71"/>
</g>
<!-- Node20 -->
<g id="node20" class="node">
<title>Node20</title>
<g id="a_node20"><a xlink:title=" ">
<polygon fill="white" stroke="#bfbfbf" points="832.5,-56.5 832.5,-75.5 877.5,-75.5 877.5,-56.5 832.5,-56.5"/>
<text text-anchor="middle" x="855" y="-63.5" font-family="Helvetica,sans-Serif" font-size="10.00">utility</text>
</a>
</g>
</g>
<!-- Node6&#45;&gt;Node20 -->
<g id="edge21" class="edge">
<title>Node6&#45;&gt;Node20</title>
<path fill="none" stroke="midnightblue" d="M566.11,-113.44C569.12,-112.95 572.1,-112.46 575,-112 682.31,-94.96 712.99,-99.37 822.62,-76.06"/>
<polygon fill="midnightblue" stroke="midnightblue" points="823.37,-79.48 832.41,-73.95 821.89,-72.64 823.37,-79.48"/>
</g>
<!-- Node21 -->
<g id="node21" class="node">
<title>Node21</title>
<g id="a_node21"><a xlink:title=" ">
<polygon fill="white" stroke="#bfbfbf" points="895.5,-56.5 895.5,-75.5 942.5,-75.5 942.5,-56.5 895.5,-56.5"/>
<text text-anchor="middle" x="919" y="-63.5" font-family="Helvetica,sans-Serif" font-size="10.00">vector</text>
</a>
</g>
</g>
<!-- Node6&#45;&gt;Node21 -->
<g id="edge22" class="edge">
<title>Node6&#45;&gt;Node21</title>
<path fill="none" stroke="midnightblue" d="M566.1,-113.35C569.11,-112.87 572.1,-112.42 575,-112 709.92,-92.56 748.26,-102.49 885.3,-76.07"/>
<polygon fill="midnightblue" stroke="midnightblue" points="886.19,-79.47 895.34,-74.11 884.85,-72.6 886.19,-79.47"/>
</g>
<!-- Node8 -->
<g id="node8" class="node">
<title>Node8</title>
<g id="a_node8"><a xlink:href="defines_8hxx_source.html" target="_top" xlink:title=" ">
<polygon fill="white" stroke="black" points="62.5,-0.5 62.5,-19.5 135.5,-19.5 135.5,-0.5 62.5,-0.5"/>
<text text-anchor="middle" x="99" y="-7.5" font-family="Helvetica,sans-Serif" font-size="10.00">defines.hxx</text>
</a>
</g>
</g>
<!-- Node7&#45;&gt;Node8 -->
<g id="edge7" class="edge">
<title>Node7&#45;&gt;Node8</title>
<path fill="none" stroke="midnightblue" d="M183.77,-56.32C167.65,-47.7 142.7,-34.36 124.04,-24.39"/>
<polygon fill="midnightblue" stroke="midnightblue" points="125.66,-21.28 115.19,-19.65 122.36,-27.46 125.66,-21.28"/>
</g>
<!-- Node7&#45;&gt;Node9 -->
<g id="edge8" class="edge">
<title>Node7&#45;&gt;Node9</title>
<path fill="none" stroke="midnightblue" d="M171.8,-56.44C139.72,-46.71 87.48,-30.86 53.93,-20.69"/>
<polygon fill="midnightblue" stroke="midnightblue" points="54.75,-17.28 44.17,-17.73 52.72,-23.98 54.75,-17.28"/>
</g>
<!-- Node7&#45;&gt;Node10 -->
<g id="edge9" class="edge">
<title>Node7&#45;&gt;Node10</title>
<path fill="none" stroke="midnightblue" d="M232.48,-56.44C267.72,-47.16 324.1,-32.31 362.76,-22.13"/>
<polygon fill="midnightblue" stroke="midnightblue" points="363.89,-25.45 372.67,-19.52 362.11,-18.68 363.89,-25.45"/>
</g>
<!-- Node11 -->
<g id="node11" class="node">
<title>Node11</title>
<g id="a_node11"><a xlink:title=" ">
<polygon fill="white" stroke="#bfbfbf" points="154,-0.5 154,-19.5 246,-19.5 246,-0.5 154,-0.5"/>
<text text-anchor="middle" x="200" y="-7.5" font-family="Helvetica,sans-Serif" font-size="10.00">unicode/utf16.h</text>
</a>
</g>
</g>
<!-- Node7&#45;&gt;Node11 -->
<g id="edge10" class="edge">
<title>Node7&#45;&gt;Node11</title>
<path fill="none" stroke="midnightblue" d="M200,-56.08C200,-49.01 200,-38.86 200,-29.99"/>
<polygon fill="midnightblue" stroke="midnightblue" points="203.5,-29.75 200,-19.75 196.5,-29.75 203.5,-29.75"/>
</g>
<!-- Node12 -->
<g id="node12" class="node">
<title>Node12</title>
<g id="a_node12"><a xlink:title=" ">
<polygon fill="white" stroke="#bfbfbf" points="264,-0.5 264,-19.5 350,-19.5 350,-0.5 264,-0.5"/>
<text text-anchor="middle" x="307" y="-7.5" font-family="Helvetica,sans-Serif" font-size="10.00">unicode/utf8.h</text>
</a>
</g>
</g>
<!-- Node7&#45;&gt;Node12 -->
<g id="edge11" class="edge">
<title>Node7&#45;&gt;Node12</title>
<path fill="none" stroke="midnightblue" d="M217.19,-56.32C234.35,-47.66 260.95,-34.24 280.75,-24.25"/>
<polygon fill="midnightblue" stroke="midnightblue" points="282.5,-27.28 289.85,-19.65 279.35,-21.04 282.5,-27.28"/>
</g>
</g>
</svg>
