<?xml version="1.0" encoding="UTF-8" standalone="no"?>
<!DOCTYPE svg PUBLIC "-//W3C//DTD SVG 1.1//EN"
 "http://www.w3.org/Graphics/SVG/1.1/DTD/svg11.dtd">
<!-- Generated by graphviz version 2.40.1 (20161225.0304)
 -->
<!-- Title: src/nuspell/dictionary.cxx Pages: 1 -->
<svg width="1504pt" height="319pt"
 viewBox="0.00 0.00 1503.50 319.00" xmlns="http://www.w3.org/2000/svg" xmlns:xlink="http://www.w3.org/1999/xlink">
<g id="graph0" class="graph" transform="scale(1 1) rotate(0) translate(4 315)">
<title>src/nuspell/dictionary.cxx</title>
<polygon fill="#ffffff" stroke="transparent" points="-4,4 -4,-315 1499.5,-315 1499.5,4 -4,4"/>
<!-- Node0 -->
<g id="node1" class="node">
<title>Node0</title>
<polygon fill="#bfbfbf" stroke="#000000" points="1128.5,-291.5 1128.5,-310.5 1256.5,-310.5 1256.5,-291.5 1128.5,-291.5"/>
<text text-anchor="middle" x="1192.5" y="-298.5" font-family="Helvetica,sans-Serif" font-size="10.00" fill="#000000">src/nuspell/dictionary.cxx</text>
</g>
<!-- Node1 -->
<g id="node2" class="node">
<title>Node1</title>
<g id="a_node2"><a xlink:href="dictionary_8hxx.html" target="_top" xlink:title="Dictionary spelling. ">
<polygon fill="#ffffff" stroke="#000000" points="1112,-235.5 1112,-254.5 1189,-254.5 1189,-235.5 1112,-235.5"/>
<text text-anchor="middle" x="1150.5" y="-242.5" font-family="Helvetica,sans-Serif" font-size="10.00" fill="#000000">dictionary.hxx</text>
</a>
</g>
</g>
<!-- Node0&#45;&gt;Node1 -->
<g id="edge1" class="edge">
<title>Node0&#45;&gt;Node1</title>
<path fill="none" stroke="#191970" d="M1185.1842,-291.2455C1179.2821,-283.3761 1170.8258,-272.101 1163.7406,-262.6542"/>
<polygon fill="#191970" stroke="#191970" points="1166.5321,-260.5427 1157.732,-254.6427 1160.932,-264.7427 1166.5321,-260.5427"/>
</g>
<!-- Node16 -->
<g id="node17" class="node">
<title>Node16</title>
<polygon fill="#ffffff" stroke="#bfbfbf" points="0,-62 0,-81 59,-81 59,-62 0,-62"/>
<text text-anchor="middle" x="29.5" y="-69" font-family="Helvetica,sans-Serif" font-size="10.00" fill="#000000">stdexcept</text>
</g>
<!-- Node0&#45;&gt;Node16 -->
<g id="edge38" class="edge">
<title>Node0&#45;&gt;Node16</title>
<path fill="none" stroke="#191970" d="M1128.3635,-298.3946C964.2999,-290.1911 517.5633,-258.1336 166.5,-143 124.0838,-129.0893 78.9324,-103.0581 52.5184,-86.5375"/>
<polygon fill="#191970" stroke="#191970" points="54.3106,-83.5297 43.992,-81.1261 50.5596,-89.4398 54.3106,-83.5297"/>
</g>
<!-- Node22 -->
<g id="node23" class="node">
<title>Node22</title>
<g id="a_node23"><a xlink:href="string__utils_8hxx.html" target="_top" xlink:title="String algorithms. ">
<polygon fill="#ffffff" stroke="#000000" points="1074,-123.5 1074,-142.5 1157,-142.5 1157,-123.5 1074,-123.5"/>
<text text-anchor="middle" x="1115.5" y="-130.5" font-family="Helvetica,sans-Serif" font-size="10.00" fill="#000000">string_utils.hxx</text>
</a>
</g>
</g>
<!-- Node0&#45;&gt;Node22 -->
<g id="edge30" class="edge">
<title>Node0&#45;&gt;Node22</title>
<path fill="none" stroke="#191970" d="M1154.4024,-291.4497C1135.6054,-284.6063 1114.6252,-273.2734 1103.5,-255 1084.0453,-223.0452 1096.9654,-177.4528 1106.9728,-152.0174"/>
<polygon fill="#191970" stroke="#191970" points="1110.2231,-153.3165 1110.851,-142.7403 1103.7647,-150.6166 1110.2231,-153.3165"/>
</g>
<!-- Node24 -->
<g id="node25" class="node">
<title>Node24</title>
<polygon fill="#ffffff" stroke="#bfbfbf" points="1207.5,-235.5 1207.5,-254.5 1261.5,-254.5 1261.5,-235.5 1207.5,-235.5"/>
<text text-anchor="middle" x="1234.5" y="-242.5" font-family="Helvetica,sans-Serif" font-size="10.00" fill="#000000">iostream</text>
</g>
<!-- Node0&#45;&gt;Node24 -->
<g id="edge37" class="edge">
<title>Node0&#45;&gt;Node24</title>
<path fill="none" stroke="#191970" d="M1199.8158,-291.2455C1205.7179,-283.3761 1214.1742,-272.101 1221.2594,-262.6542"/>
<polygon fill="#191970" stroke="#191970" points="1224.068,-264.7427 1227.268,-254.6427 1218.4679,-260.5427 1224.068,-264.7427"/>
</g>
<!-- Node25 -->
<g id="node26" class="node">
<title>Node25</title>
<polygon fill="#ffffff" stroke="#bfbfbf" points="1279.5,-235.5 1279.5,-254.5 1367.5,-254.5 1367.5,-235.5 1279.5,-235.5"/>
<text text-anchor="middle" x="1323.5" y="-242.5" font-family="Helvetica,sans-Serif" font-size="10.00" fill="#000000">boost/locale.hpp</text>
</g>
<!-- Node0&#45;&gt;Node25 -->
<g id="edge39" class="edge">
<title>Node0&#45;&gt;Node25</title>
<path fill="none" stroke="#191970" d="M1215.0197,-291.3733C1236.2372,-282.3032 1268.2276,-268.6279 1291.9769,-258.4755"/>
<polygon fill="#191970" stroke="#191970" points="1293.4548,-261.6502 1301.2742,-254.5011 1290.7033,-255.2136 1293.4548,-261.6502"/>
</g>
<!-- Node26 -->
<g id="node27" class="node">
<title>Node26</title>
<polygon fill="#ffffff" stroke="#bfbfbf" points="1385.5,-235.5 1385.5,-254.5 1495.5,-254.5 1495.5,-235.5 1385.5,-235.5"/>
<text text-anchor="middle" x="1440.5" y="-242.5" font-family="Helvetica,sans-Serif" font-size="10.00" fill="#000000">boost/scope_exit.hpp</text>
</g>
<!-- Node0&#45;&gt;Node26 -->
<g id="edge40" class="edge">
<title>Node0&#45;&gt;Node26</title>
<path fill="none" stroke="#191970" d="M1234.8509,-291.4369C1277.2942,-281.8529 1342.7119,-267.0812 1388.3313,-256.78"/>
<polygon fill="#191970" stroke="#191970" points="1389.3403,-260.1404 1398.3237,-254.5237 1387.7984,-253.3123 1389.3403,-260.1404"/>
</g>
<!-- Node2 -->
<g id="node3" class="node">
<title>Node2</title>
<g id="a_node3"><a xlink:href="aff__data_8hxx.html" target="_top" xlink:title="Affixing data structures. ">
<polygon fill="#ffffff" stroke="#000000" points="712,-179.5 712,-198.5 783,-198.5 783,-179.5 712,-179.5"/>
<text text-anchor="middle" x="747.5" y="-186.5" font-family="Helvetica,sans-Serif" font-size="10.00" fill="#000000">aff_data.hxx</text>
</a>
</g>
</g>
<!-- Node1&#45;&gt;Node2 -->
<g id="edge2" class="edge">
<title>Node1&#45;&gt;Node2</title>
<path fill="none" stroke="#191970" d="M1111.8587,-239.6305C1037.196,-229.2555 873.4318,-206.4992 793.3804,-195.3754"/>
<polygon fill="#191970" stroke="#191970" points="793.5065,-191.8594 783.1199,-193.9497 792.543,-198.7928 793.5065,-191.8594"/>
</g>
<!-- Node8 -->
<g id="node9" class="node">
<title>Node8</title>
<g id="a_node9"><a xlink:href="locale__utils_8hxx.html" target="_top" xlink:title="Encoding transformations. ">
<polygon fill="#ffffff" stroke="#000000" points="1224.5,-123.5 1224.5,-142.5 1308.5,-142.5 1308.5,-123.5 1224.5,-123.5"/>
<text text-anchor="middle" x="1266.5" y="-130.5" font-family="Helvetica,sans-Serif" font-size="10.00" fill="#000000">locale_utils.hxx</text>
</a>
</g>
</g>
<!-- Node1&#45;&gt;Node8 -->
<g id="edge27" class="edge">
<title>Node1&#45;&gt;Node8</title>
<path fill="none" stroke="#191970" d="M1165.0057,-235.2027C1177.6049,-226.3918 1196.0474,-212.7539 1210.5,-199 1226.3948,-183.8736 1242.3759,-164.5311 1253.1739,-150.703"/>
<polygon fill="#191970" stroke="#191970" points="1256.1502,-152.5739 1259.4682,-142.512 1250.5997,-148.3086 1256.1502,-152.5739"/>
</g>
<!-- Node9 -->
<g id="node10" class="node">
<title>Node9</title>
<polygon fill="#ffffff" stroke="#bfbfbf" points="1245.5,-62 1245.5,-81 1287.5,-81 1287.5,-62 1245.5,-62"/>
<text text-anchor="middle" x="1266.5" y="-69" font-family="Helvetica,sans-Serif" font-size="10.00" fill="#000000">locale</text>
</g>
<!-- Node1&#45;&gt;Node9 -->
<g id="edge29" class="edge">
<title>Node1&#45;&gt;Node9</title>
<path fill="none" stroke="#191970" d="M1156.4868,-235.2386C1162.0908,-226.0008 1170.6097,-211.6967 1177.5,-199 1195.5128,-165.808 1193.4934,-153.6901 1215.5,-123 1224.6417,-110.2511 1236.975,-97.7055 1247.2231,-88.1887"/>
<polygon fill="#191970" stroke="#191970" points="1249.8193,-90.5602 1254.8941,-81.2598 1245.1271,-85.3655 1249.8193,-90.5602"/>
</g>
<!-- Node21 -->
<g id="node22" class="node">
<title>Node21</title>
<polygon fill="#ffffff" stroke="#bfbfbf" points="1118.5,-179.5 1118.5,-198.5 1168.5,-198.5 1168.5,-179.5 1118.5,-179.5"/>
<text text-anchor="middle" x="1143.5" y="-186.5" font-family="Helvetica,sans-Serif" font-size="10.00" fill="#000000">fstream</text>
</g>
<!-- Node1&#45;&gt;Node21 -->
<g id="edge28" class="edge">
<title>Node1&#45;&gt;Node21</title>
<path fill="none" stroke="#191970" d="M1149.2807,-235.2455C1148.3673,-227.9382 1147.0868,-217.6944 1145.9631,-208.7046"/>
<polygon fill="#191970" stroke="#191970" points="1149.4187,-208.1313 1144.7053,-198.6427 1142.4728,-208.9996 1149.4187,-208.1313"/>
</g>
<!-- Node3 -->
<g id="node4" class="node">
<title>Node3</title>
<polygon fill="#ffffff" stroke="#bfbfbf" points="596,-123.5 596,-142.5 641,-142.5 641,-123.5 596,-123.5"/>
<text text-anchor="middle" x="618.5" y="-130.5" font-family="Helvetica,sans-Serif" font-size="10.00" fill="#000000">iosfwd</text>
</g>
<!-- Node2&#45;&gt;Node3 -->
<g id="edge3" class="edge">
<title>Node2&#45;&gt;Node3</title>
<path fill="none" stroke="#191970" d="M725.3241,-179.3733C704.5234,-170.3435 673.2083,-156.7494 649.8542,-146.6111"/>
<polygon fill="#191970" stroke="#191970" points="650.9532,-143.2727 640.3865,-142.5011 648.1657,-149.6938 650.9532,-143.2727"/>
</g>
<!-- Node4 -->
<g id="node5" class="node">
<title>Node4</title>
<polygon fill="#ffffff" stroke="#bfbfbf" points="1025,-.5 1025,-19.5 1066,-19.5 1066,-.5 1025,-.5"/>
<text text-anchor="middle" x="1045.5" y="-7.5" font-family="Helvetica,sans-Serif" font-size="10.00" fill="#000000">string</text>
</g>
<!-- Node2&#45;&gt;Node4 -->
<g id="edge4" class="edge">
<title>Node2&#45;&gt;Node4</title>
<path fill="none" stroke="#191970" d="M783.3456,-186.4114C842.9177,-180.1273 962.1063,-158.7943 1026.5,-87 1040.6027,-71.2765 1044.6264,-46.7491 1045.5864,-29.6143"/>
<polygon fill="#191970" stroke="#191970" points="1049.0859,-29.6772 1045.85,-19.5886 1042.0883,-29.4932 1049.0859,-29.6772"/>
</g>
<!-- Node5 -->
<g id="node6" class="node">
<title>Node5</title>
<polygon fill="#ffffff" stroke="#bfbfbf" points="756,-123.5 756,-142.5 839,-142.5 839,-123.5 756,-123.5"/>
<text text-anchor="middle" x="797.5" y="-130.5" font-family="Helvetica,sans-Serif" font-size="10.00" fill="#000000">unordered_map</text>
</g>
<!-- Node2&#45;&gt;Node5 -->
<g id="edge5" class="edge">
<title>Node2&#45;&gt;Node5</title>
<path fill="none" stroke="#191970" d="M756.2093,-179.2455C763.3073,-171.2958 773.5084,-159.8706 781.995,-150.3656"/>
<polygon fill="#191970" stroke="#191970" points="784.8411,-152.4331 788.8905,-142.6427 779.6195,-147.771 784.8411,-152.4331"/>
</g>
<!-- Node6 -->
<g id="node7" class="node">
<title>Node6</title>
<polygon fill="#ffffff" stroke="#bfbfbf" points="115.5,-62 115.5,-81 155.5,-81 155.5,-62 115.5,-62"/>
<text text-anchor="middle" x="135.5" y="-69" font-family="Helvetica,sans-Serif" font-size="10.00" fill="#000000">utility</text>
</g>
<!-- Node2&#45;&gt;Node6 -->
<g id="edge6" class="edge">
<title>Node2&#45;&gt;Node6</title>
<path fill="none" stroke="#191970" d="M711.6949,-186.6935C618.9329,-179.8821 364.1241,-155.8289 164.5,-87 163.2553,-86.5708 161.9996,-86.0932 160.7448,-85.5793"/>
<polygon fill="#191970" stroke="#191970" points="161.8827,-82.2458 151.3465,-81.1331 158.8892,-88.5735 161.8827,-82.2458"/>
</g>
<!-- Node7 -->
<g id="node8" class="node">
<title>Node7</title>
<polygon fill="#ffffff" stroke="#bfbfbf" points="770.5,-.5 770.5,-19.5 814.5,-19.5 814.5,-.5 770.5,-.5"/>
<text text-anchor="middle" x="792.5" y="-7.5" font-family="Helvetica,sans-Serif" font-size="10.00" fill="#000000">vector</text>
</g>
<!-- Node2&#45;&gt;Node7 -->
<g id="edge7" class="edge">
<title>Node2&#45;&gt;Node7</title>
<path fill="none" stroke="#191970" d="M711.5273,-187.4374C564.4246,-180.4203 20.4264,-148.0386 106.5,-56 129.0762,-31.8592 626.2457,-15.0535 759.7517,-10.9647"/>
<polygon fill="#191970" stroke="#191970" points="760.2411,-14.4516 770.1304,-10.6501 760.0289,-7.4548 760.2411,-14.4516"/>
</g>
<!-- Node2&#45;&gt;Node8 -->
<g id="edge8" class="edge">
<title>Node2&#45;&gt;Node8</title>
<path fill="none" stroke="#191970" d="M783.173,-185.1509C872.9359,-175.4655 1108.5101,-150.0471 1214.0481,-138.6596"/>
<polygon fill="#191970" stroke="#191970" points="1214.5817,-142.1224 1224.1485,-137.5697 1213.8307,-135.1628 1214.5817,-142.1224"/>
</g>
<!-- Node10 -->
<g id="node11" class="node">
<title>Node10</title>
<g id="a_node11"><a xlink:href="structures_8hxx.html" target="_top" xlink:title="Data structures. ">
<polygon fill="#ffffff" stroke="#000000" points="659,-123.5 659,-142.5 738,-142.5 738,-123.5 659,-123.5"/>
<text text-anchor="middle" x="698.5" y="-130.5" font-family="Helvetica,sans-Serif" font-size="10.00" fill="#000000">structures.hxx</text>
</a>
</g>
</g>
<!-- Node2&#45;&gt;Node10 -->
<g id="edge11" class="edge">
<title>Node2&#45;&gt;Node10</title>
<path fill="none" stroke="#191970" d="M738.9649,-179.2455C732.0088,-171.2958 722.0117,-159.8706 713.6949,-150.3656"/>
<polygon fill="#191970" stroke="#191970" points="716.1564,-147.8637 706.9373,-142.6427 710.8884,-152.4732 716.1564,-147.8637"/>
</g>
<!-- Node8&#45;&gt;Node4 -->
<g id="edge10" class="edge">
<title>Node8&#45;&gt;Node4</title>
<path fill="none" stroke="#191970" d="M1275.8345,-123.4751C1290.006,-107.8584 1313.5841,-76.4995 1296.5,-56 1268.8074,-22.771 1137.3166,-13.4705 1076.4941,-10.9278"/>
<polygon fill="#191970" stroke="#191970" points="1076.4671,-7.4243 1066.3405,-10.5392 1076.1993,-14.4192 1076.4671,-7.4243"/>
</g>
<!-- Node8&#45;&gt;Node9 -->
<g id="edge9" class="edge">
<title>Node8&#45;&gt;Node9</title>
<path fill="none" stroke="#191970" d="M1266.5,-123.3906C1266.5,-114.8657 1266.5,-102.1392 1266.5,-91.4235"/>
<polygon fill="#191970" stroke="#191970" points="1270.0001,-91.2448 1266.5,-81.2449 1263.0001,-91.2449 1270.0001,-91.2448"/>
</g>
<!-- Node10&#45;&gt;Node4 -->
<g id="edge20" class="edge">
<title>Node10&#45;&gt;Node4</title>
<path fill="none" stroke="#191970" d="M738.0503,-124.7485C740.9096,-124.1556 743.749,-123.5679 746.5,-123 824.693,-106.8579 850.3663,-121.2264 922.5,-87 942.1917,-77.6566 942.3909,-68.1295 960.5,-56 978.2138,-44.1353 999.2834,-32.7162 1016.0138,-24.2233"/>
<polygon fill="#191970" stroke="#191970" points="1017.9245,-27.1812 1025.3048,-19.5797 1014.795,-20.9197 1017.9245,-27.1812"/>
</g>
<!-- Node10&#45;&gt;Node6 -->
<g id="edge21" class="edge">
<title>Node10&#45;&gt;Node6</title>
<path fill="none" stroke="#191970" d="M658.994,-124.4882C655.7903,-123.9352 652.596,-123.4291 649.5,-123 435.3976,-93.3295 372.0825,-147.2471 164.5,-87 163.0266,-86.5724 161.5429,-86.0637 160.0674,-85.4957"/>
<polygon fill="#191970" stroke="#191970" points="161.1868,-82.1565 150.643,-81.1172 158.2373,-88.5048 161.1868,-82.1565"/>
</g>
<!-- Node10&#45;&gt;Node7 -->
<g id="edge22" class="edge">
<title>Node10&#45;&gt;Node7</title>
<path fill="none" stroke="#191970" d="M713.3185,-123.4751C725.559,-115.0355 742.7688,-101.7836 754.5,-87 768.4864,-69.3744 779.1899,-45.7655 785.6197,-29.356"/>
<polygon fill="#191970" stroke="#191970" points="788.9886,-30.3399 789.2193,-19.7475 782.4335,-27.8841 788.9886,-30.3399"/>
</g>
<!-- Node11 -->
<g id="node12" class="node">
<title>Node11</title>
<g id="a_node12"><a xlink:href="condition_8hxx.html" target="_top" xlink:title="Condition matching. ">
<polygon fill="#ffffff" stroke="#000000" points="839.5,-62 839.5,-81 913.5,-81 913.5,-62 839.5,-62"/>
<text text-anchor="middle" x="876.5" y="-69" font-family="Helvetica,sans-Serif" font-size="10.00" fill="#000000">condition.hxx</text>
</a>
</g>
</g>
<!-- Node10&#45;&gt;Node11 -->
<g id="edge12" class="edge">
<title>Node10&#45;&gt;Node11</title>
<path fill="none" stroke="#191970" d="M726.3125,-123.3906C756.7483,-112.8749 805.6877,-95.966 839.3826,-84.3243"/>
<polygon fill="#191970" stroke="#191970" points="840.574,-87.6157 848.8828,-81.0419 838.288,-80.9995 840.574,-87.6157"/>
</g>
<!-- Node13 -->
<g id="node14" class="node">
<title>Node13</title>
<polygon fill="#ffffff" stroke="#bfbfbf" points="1073.5,-62 1073.5,-81 1129.5,-81 1129.5,-62 1073.5,-62"/>
<text text-anchor="middle" x="1101.5" y="-69" font-family="Helvetica,sans-Serif" font-size="10.00" fill="#000000">algorithm</text>
</g>
<!-- Node10&#45;&gt;Node13 -->
<g id="edge16" class="edge">
<title>Node10&#45;&gt;Node13</title>
<path fill="none" stroke="#191970" d="M738.0068,-124.5163C740.8763,-123.9779 743.7299,-123.4659 746.5,-123 870.2309,-102.1894 902.7525,-107.7117 1026.5,-87 1038.5696,-84.9799 1051.655,-82.4088 1063.4657,-79.9441"/>
<polygon fill="#191970" stroke="#191970" points="1064.4042,-83.3229 1073.459,-77.822 1062.9501,-76.4756 1064.4042,-83.3229"/>
</g>
<!-- Node14 -->
<g id="node15" class="node">
<title>Node14</title>
<polygon fill="#ffffff" stroke="#bfbfbf" points="173.5,-62 173.5,-81 217.5,-81 217.5,-62 173.5,-62"/>
<text text-anchor="middle" x="195.5" y="-69" font-family="Helvetica,sans-Serif" font-size="10.00" fill="#000000">cmath</text>
</g>
<!-- Node10&#45;&gt;Node14 -->
<g id="edge17" class="edge">
<title>Node10&#45;&gt;Node14</title>
<path fill="none" stroke="#191970" d="M658.9887,-124.5253C655.7862,-123.9639 652.5937,-123.4458 649.5,-123 462.7492,-96.0902 408.1271,-138.1037 226.5,-87 224.7877,-86.5182 223.0574,-85.941 221.3362,-85.2968"/>
<polygon fill="#191970" stroke="#191970" points="222.327,-81.9084 211.7651,-81.0733 219.5009,-88.3126 222.327,-81.9084"/>
</g>
<!-- Node15 -->
<g id="node16" class="node">
<title>Node15</title>
<polygon fill="#ffffff" stroke="#bfbfbf" points="970,-62 970,-81 1017,-81 1017,-62 970,-62"/>
<text text-anchor="middle" x="993.5" y="-69" font-family="Helvetica,sans-Serif" font-size="10.00" fill="#000000">iterator</text>
</g>
<!-- Node10&#45;&gt;Node15 -->
<g id="edge18" class="edge">
<title>Node10&#45;&gt;Node15</title>
<path fill="none" stroke="#191970" d="M738.0309,-124.6507C740.8947,-124.0807 743.7404,-123.525 746.5,-123 839.0963,-105.3853 864.8863,-112.9518 955.5,-87 957.9573,-86.2962 960.4721,-85.4853 962.9801,-84.6111"/>
<polygon fill="#191970" stroke="#191970" points="964.3668,-87.8287 972.483,-81.0185 961.8914,-81.281 964.3668,-87.8287"/>
</g>
<!-- Node10&#45;&gt;Node16 -->
<g id="edge19" class="edge">
<title>Node10&#45;&gt;Node16</title>
<path fill="none" stroke="#191970" d="M658.9977,-124.4612C655.7932,-123.9142 652.5977,-123.4168 649.5,-123 409.7973,-90.7449 346.2456,-118.9347 106.5,-87 94.3729,-85.3846 81.2885,-82.9977 69.4073,-80.5785"/>
<polygon fill="#191970" stroke="#191970" points="69.8361,-77.0923 59.3303,-78.4628 68.3977,-83.9429 69.8361,-77.0923"/>
</g>
<!-- Node17 -->
<g id="node18" class="node">
<title>Node17</title>
<polygon fill="#ffffff" stroke="#bfbfbf" points="235.5,-56.5 235.5,-86.5 345.5,-86.5 345.5,-56.5 235.5,-56.5"/>
<text text-anchor="start" x="243.5" y="-74.5" font-family="Helvetica,sans-Serif" font-size="10.00" fill="#000000">boost/container/small</text>
<text text-anchor="middle" x="290.5" y="-63.5" font-family="Helvetica,sans-Serif" font-size="10.00" fill="#000000">_vector.hpp</text>
</g>
<!-- Node10&#45;&gt;Node17 -->
<g id="edge23" class="edge">
<title>Node10&#45;&gt;Node17</title>
<path fill="none" stroke="#191970" d="M658.9695,-124.6503C655.7714,-124.0609 652.585,-123.5022 649.5,-123 522.3152,-102.2955 486.211,-110.1727 355.5605,-87.0618"/>
<polygon fill="#191970" stroke="#191970" points="356.0327,-83.5907 345.5714,-85.2676 354.7951,-90.4804 356.0327,-83.5907"/>
</g>
<!-- Node18 -->
<g id="node19" class="node">
<title>Node18</title>
<polygon fill="#ffffff" stroke="#bfbfbf" points="363.5,-62 363.5,-81 513.5,-81 513.5,-62 363.5,-62"/>
<text text-anchor="middle" x="438.5" y="-69" font-family="Helvetica,sans-Serif" font-size="10.00" fill="#000000">boost/multi_index/member.hpp</text>
</g>
<!-- Node10&#45;&gt;Node18 -->
<g id="edge24" class="edge">
<title>Node10&#45;&gt;Node18</title>
<path fill="none" stroke="#191970" d="M658.7286,-123.5925C613.0805,-112.795 538.1443,-95.0697 488.5632,-83.3419"/>
<polygon fill="#191970" stroke="#191970" points="489.2317,-79.9035 478.6946,-81.0076 487.6204,-86.7155 489.2317,-79.9035"/>
</g>
<!-- Node19 -->
<g id="node20" class="node">
<title>Node19</title>
<polygon fill="#ffffff" stroke="#bfbfbf" points="532,-56.5 532,-86.5 633,-86.5 633,-56.5 532,-56.5"/>
<text text-anchor="start" x="540" y="-74.5" font-family="Helvetica,sans-Serif" font-size="10.00" fill="#000000">boost/range/iterator</text>
<text text-anchor="middle" x="582.5" y="-63.5" font-family="Helvetica,sans-Serif" font-size="10.00" fill="#000000">_range_core.hpp</text>
</g>
<!-- Node10&#45;&gt;Node19 -->
<g id="edge25" class="edge">
<title>Node10&#45;&gt;Node19</title>
<path fill="none" stroke="#191970" d="M680.375,-123.3906C664.2397,-114.8361 640.1245,-102.0509 619.8691,-91.3121"/>
<polygon fill="#191970" stroke="#191970" points="621.3514,-88.1365 610.8768,-86.5446 618.0724,-94.3211 621.3514,-88.1365"/>
</g>
<!-- Node20 -->
<g id="node21" class="node">
<title>Node20</title>
<polygon fill="#ffffff" stroke="#bfbfbf" points="651.5,-56.5 651.5,-86.5 745.5,-86.5 745.5,-56.5 651.5,-56.5"/>
<text text-anchor="start" x="659.5" y="-74.5" font-family="Helvetica,sans-Serif" font-size="10.00" fill="#000000">boost/utility/string</text>
<text text-anchor="middle" x="698.5" y="-63.5" font-family="Helvetica,sans-Serif" font-size="10.00" fill="#000000">_view.hpp</text>
</g>
<!-- Node10&#45;&gt;Node20 -->
<g id="edge26" class="edge">
<title>Node10&#45;&gt;Node20</title>
<path fill="none" stroke="#191970" d="M698.5,-123.3906C698.5,-116.2234 698.5,-106.0862 698.5,-96.671"/>
<polygon fill="#191970" stroke="#191970" points="702.0001,-96.5446 698.5,-86.5446 695.0001,-96.5446 702.0001,-96.5446"/>
</g>
<!-- Node11&#45;&gt;Node4 -->
<g id="edge13" class="edge">
<title>Node11&#45;&gt;Node4</title>
<path fill="none" stroke="#191970" d="M902.9063,-61.8906C933.3143,-50.825 983.1757,-32.6801 1015.1547,-21.0428"/>
<polygon fill="#191970" stroke="#191970" points="1016.6616,-24.2191 1024.8618,-17.5103 1014.2678,-17.6411 1016.6616,-24.2191"/>
</g>
<!-- Node11&#45;&gt;Node7 -->
<g id="edge15" class="edge">
<title>Node11&#45;&gt;Node7</title>
<path fill="none" stroke="#191970" d="M863.375,-61.8906C850.06,-52.1421 829.2406,-36.8994 813.6053,-25.4521"/>
<polygon fill="#191970" stroke="#191970" points="815.6691,-22.6253 805.5328,-19.5419 811.5339,-28.2734 815.6691,-22.6253"/>
</g>
<!-- Node12 -->
<g id="node13" class="node">
<title>Node12</title>
<polygon fill="#ffffff" stroke="#bfbfbf" points="857.5,-.5 857.5,-19.5 895.5,-19.5 895.5,-.5 857.5,-.5"/>
<text text-anchor="middle" x="876.5" y="-7.5" font-family="Helvetica,sans-Serif" font-size="10.00" fill="#000000">tuple</text>
</g>
<!-- Node11&#45;&gt;Node12 -->
<g id="edge14" class="edge">
<title>Node11&#45;&gt;Node12</title>
<path fill="none" stroke="#191970" d="M876.5,-61.8906C876.5,-53.3657 876.5,-40.6392 876.5,-29.9235"/>
<polygon fill="#191970" stroke="#191970" points="880.0001,-29.7448 876.5,-19.7449 873.0001,-29.7449 880.0001,-29.7448"/>
</g>
<!-- Node22&#45;&gt;Node4 -->
<g id="edge35" class="edge">
<title>Node22&#45;&gt;Node4</title>
<path fill="none" stroke="#191970" d="M1123.1485,-123.3288C1134.2362,-108.0453 1152.0431,-77.808 1138.5,-56 1124.8818,-34.0711 1097.3678,-22.2786 1075.7827,-16.1458"/>
<polygon fill="#191970" stroke="#191970" points="1076.6091,-12.7445 1066.0521,-13.64 1074.8634,-19.5233 1076.6091,-12.7445"/>
</g>
<!-- Node22&#45;&gt;Node7 -->
<g id="edge36" class="edge">
<title>Node22&#45;&gt;Node7</title>
<path fill="none" stroke="#191970" d="M1073.8781,-130.9123C1004.3344,-126.6784 868.3955,-114.9911 830.5,-87 811.7323,-73.1375 801.7091,-47.4434 796.7531,-29.5669"/>
<polygon fill="#191970" stroke="#191970" points="800.0914,-28.487 794.2892,-19.6222 793.2968,-30.1704 800.0914,-28.487"/>
</g>
<!-- Node22&#45;&gt;Node9 -->
<g id="edge33" class="edge">
<title>Node22&#45;&gt;Node9</title>
<path fill="none" stroke="#191970" d="M1143.254,-123.4631C1168.0164,-114.7155 1205.1049,-101.0237 1236.5,-87 1237.517,-86.5457 1238.5483,-86.0735 1239.5862,-85.5885"/>
<polygon fill="#191970" stroke="#191970" points="1241.4618,-88.5667 1248.8958,-81.0178 1238.3768,-82.2832 1241.4618,-88.5667"/>
</g>
<!-- Node22&#45;&gt;Node13 -->
<g id="edge31" class="edge">
<title>Node22&#45;&gt;Node13</title>
<path fill="none" stroke="#191970" d="M1113.3125,-123.3906C1111.3514,-114.776 1108.4137,-101.8708 1105.9585,-91.0858"/>
<polygon fill="#191970" stroke="#191970" points="1109.3507,-90.2185 1103.7183,-81.2449 1102.5254,-91.7723 1109.3507,-90.2185"/>
</g>
<!-- Node22&#45;&gt;Node15 -->
<g id="edge32" class="edge">
<title>Node22&#45;&gt;Node15</title>
<path fill="none" stroke="#191970" d="M1096.4375,-123.3906C1076.3828,-113.2811 1044.6066,-97.2628 1021.6616,-85.6962"/>
<polygon fill="#191970" stroke="#191970" points="1022.9337,-82.418 1012.4286,-81.0419 1019.7827,-88.6687 1022.9337,-82.418"/>
</g>
<!-- Node23 -->
<g id="node24" class="node">
<title>Node23</title>
<polygon fill="#ffffff" stroke="#bfbfbf" points="1186,-62 1186,-81 1227,-81 1227,-62 1186,-62"/>
<text text-anchor="middle" x="1206.5" y="-69" font-family="Helvetica,sans-Serif" font-size="10.00" fill="#000000">stack</text>
</g>
<!-- Node22&#45;&gt;Node23 -->
<g id="edge34" class="edge">
<title>Node22&#45;&gt;Node23</title>
<path fill="none" stroke="#191970" d="M1129.7188,-123.3906C1144.1434,-113.6421 1166.6976,-98.3994 1183.636,-86.9521"/>
<polygon fill="#191970" stroke="#191970" points="1186.0556,-89.5412 1192.3811,-81.0419 1182.1359,-83.7415 1186.0556,-89.5412"/>
</g>
</g>
</svg>
