<?xml version="1.0" encoding="UTF-8" standalone="no"?>
<!DOCTYPE svg PUBLIC "-//W3C//DTD SVG 1.1//EN"
 "http://www.w3.org/Graphics/SVG/1.1/DTD/svg11.dtd">
<!-- Generated by graphviz version 2.40.1 (20161225.0304)
 -->
<!-- Title: src/nuspell/dictionary.hxx Pages: 1 -->
<svg width="390pt" height="84pt"
 viewBox="0.00 0.00 390.00 84.00" xmlns="http://www.w3.org/2000/svg" xmlns:xlink="http://www.w3.org/1999/xlink">
<g id="graph0" class="graph" transform="scale(1 1) rotate(0) translate(4 80)">
<title>src/nuspell/dictionary.hxx</title>
<polygon fill="#ffffff" stroke="transparent" points="-4,4 -4,-80 386,-80 386,4 -4,4"/>
<!-- Node19 -->
<g id="node1" class="node">
<title>Node19</title>
<polygon fill="#bfbfbf" stroke="#000000" points="136,-56.5 136,-75.5 264,-75.5 264,-56.5 136,-56.5"/>
<text text-anchor="middle" x="200" y="-63.5" font-family="Helvetica,sans-Serif" font-size="10.00" fill="#000000">src/nuspell/dictionary.hxx</text>
</g>
<!-- Node20 -->
<g id="node2" class="node">
<title>Node20</title>
<g id="a_node2"><a xlink:href="dictionary_8cxx.html" target="_top" xlink:title="Dictionary spelling. ">
<polygon fill="#ffffff" stroke="#000000" points="0,-.5 0,-19.5 128,-19.5 128,-.5 0,-.5"/>
<text text-anchor="middle" x="64" y="-7.5" font-family="Helvetica,sans-Serif" font-size="10.00" fill="#000000">src/nuspell/dictionary.cxx</text>
</a>
</g>
</g>
<!-- Node19&#45;&gt;Node20 -->
<g id="edge1" class="edge">
<title>Node19&#45;&gt;Node20</title>
<path fill="none" stroke="#191970" d="M167.2601,-52.5189C142.4917,-42.3201 109.095,-28.5685 87.0742,-19.5011"/>
<polygon fill="#191970" stroke="#191970" points="166.0413,-55.8021 176.6208,-56.3733 168.7066,-49.3293 166.0413,-55.8021"/>
</g>
<!-- Node21 -->
<g id="node3" class="node">
<title>Node21</title>
<g id="a_node3"><a xlink:href="main_8cxx.html" target="_top" xlink:title="Command line spell checking. ">
<polygon fill="#ffffff" stroke="#000000" points="146.5,-.5 146.5,-19.5 253.5,-19.5 253.5,-.5 146.5,-.5"/>
<text text-anchor="middle" x="200" y="-7.5" font-family="Helvetica,sans-Serif" font-size="10.00" fill="#000000">src/nuspell/main.cxx</text>
</a>
</g>
</g>
<!-- Node19&#45;&gt;Node21 -->
<g id="edge2" class="edge">
<title>Node19&#45;&gt;Node21</title>
<path fill="none" stroke="#191970" d="M200,-46.1575C200,-37.155 200,-26.9199 200,-19.6427"/>
<polygon fill="#191970" stroke="#191970" points="196.5001,-46.2455 200,-56.2455 203.5001,-46.2456 196.5001,-46.2455"/>
</g>
<!-- Node22 -->
<g id="node4" class="node">
<title>Node22</title>
<g id="a_node4"><a xlink:href="verify_8cxx.html" target="_top" xlink:title="Command line spell check for verification testing. ">
<polygon fill="#ffffff" stroke="#000000" points="272,-.5 272,-19.5 382,-19.5 382,-.5 272,-.5"/>
<text text-anchor="middle" x="327" y="-7.5" font-family="Helvetica,sans-Serif" font-size="10.00" fill="#000000">src/nuspell/verify.cxx</text>
</a>
</g>
</g>
<!-- Node19&#45;&gt;Node22 -->
<g id="edge3" class="edge">
<title>Node19&#45;&gt;Node22</title>
<path fill="none" stroke="#191970" d="M231.1892,-52.2473C254.2537,-42.0771 285.0712,-28.4883 305.4528,-19.5011"/>
<polygon fill="#191970" stroke="#191970" points="229.5699,-49.1361 221.8321,-56.3733 232.3942,-55.5411 229.5699,-49.1361"/>
</g>
</g>
</svg>
