<?xml version="1.0" encoding="UTF-8" standalone="no"?>
<!DOCTYPE svg PUBLIC "-//W3C//DTD SVG 1.1//EN"
 "http://www.w3.org/Graphics/SVG/1.1/DTD/svg11.dtd">
<!-- Generated by graphviz version 2.40.1 (20161225.0304)
 -->
<!-- Title: src/nuspell/dictionary.cxx Pages: 1 -->
<svg width="1569pt" height="319pt"
 viewBox="0.00 0.00 1568.50 319.00" xmlns="http://www.w3.org/2000/svg" xmlns:xlink="http://www.w3.org/1999/xlink">
<g id="graph0" class="graph" transform="scale(1 1) rotate(0) translate(4 315)">
<title>src/nuspell/dictionary.cxx</title>
<polygon fill="#ffffff" stroke="transparent" points="-4,4 -4,-315 1564.5,-315 1564.5,4 -4,4"/>
<!-- Node0 -->
<g id="node1" class="node">
<title>Node0</title>
<polygon fill="#bfbfbf" stroke="#000000" points="1193.5,-291.5 1193.5,-310.5 1321.5,-310.5 1321.5,-291.5 1193.5,-291.5"/>
<text text-anchor="middle" x="1257.5" y="-298.5" font-family="Helvetica,sans-Serif" font-size="10.00" fill="#000000">src/nuspell/dictionary.cxx</text>
</g>
<!-- Node1 -->
<g id="node2" class="node">
<title>Node1</title>
<g id="a_node2"><a xlink:href="dictionary_8hxx.html" target="_top" xlink:title="Dictionary spelling. ">
<polygon fill="#ffffff" stroke="#000000" points="1177,-235.5 1177,-254.5 1254,-254.5 1254,-235.5 1177,-235.5"/>
<text text-anchor="middle" x="1215.5" y="-242.5" font-family="Helvetica,sans-Serif" font-size="10.00" fill="#000000">dictionary.hxx</text>
</a>
</g>
</g>
<!-- Node0&#45;&gt;Node1 -->
<g id="edge1" class="edge">
<title>Node0&#45;&gt;Node1</title>
<path fill="none" stroke="#191970" d="M1250.1842,-291.2455C1244.2821,-283.3761 1235.8258,-272.101 1228.7406,-262.6542"/>
<polygon fill="#191970" stroke="#191970" points="1231.5321,-260.5427 1222.732,-254.6427 1225.932,-264.7427 1231.5321,-260.5427"/>
</g>
<!-- Node18 -->
<g id="node19" class="node">
<title>Node18</title>
<polygon fill="#ffffff" stroke="#bfbfbf" points="0,-62 0,-81 59,-81 59,-62 0,-62"/>
<text text-anchor="middle" x="29.5" y="-69" font-family="Helvetica,sans-Serif" font-size="10.00" fill="#000000">stdexcept</text>
</g>
<!-- Node0&#45;&gt;Node18 -->
<g id="edge40" class="edge">
<title>Node0&#45;&gt;Node18</title>
<path fill="none" stroke="#191970" d="M1193.4588,-296.0917C1028.9612,-282.4546 579.064,-238.6406 216.5,-143 159.515,-127.968 95.9813,-101.482 59.5727,-85.3094"/>
<polygon fill="#191970" stroke="#191970" points="60.6075,-81.9377 50.0508,-81.0394 57.7432,-88.3248 60.6075,-81.9377"/>
</g>
<!-- Node24 -->
<g id="node25" class="node">
<title>Node24</title>
<g id="a_node25"><a xlink:href="string__utils_8hxx.html" target="_top" xlink:title="String algorithms. ">
<polygon fill="#ffffff" stroke="#000000" points="1109,-123.5 1109,-142.5 1192,-142.5 1192,-123.5 1109,-123.5"/>
<text text-anchor="middle" x="1150.5" y="-130.5" font-family="Helvetica,sans-Serif" font-size="10.00" fill="#000000">string_utils.hxx</text>
</a>
</g>
</g>
<!-- Node0&#45;&gt;Node24 -->
<g id="edge32" class="edge">
<title>Node0&#45;&gt;Node24</title>
<path fill="none" stroke="#191970" d="M1222.2572,-291.4243C1203.3409,-284.438 1181.3369,-272.9765 1168.5,-255 1146.7154,-224.4932 1146.3097,-178.6471 1148.2293,-152.7147"/>
<polygon fill="#191970" stroke="#191970" points="1151.7265,-152.907 1149.1725,-142.6246 1144.7569,-152.2554 1151.7265,-152.907"/>
</g>
<!-- Node26 -->
<g id="node27" class="node">
<title>Node26</title>
<polygon fill="#ffffff" stroke="#bfbfbf" points="1272.5,-235.5 1272.5,-254.5 1326.5,-254.5 1326.5,-235.5 1272.5,-235.5"/>
<text text-anchor="middle" x="1299.5" y="-242.5" font-family="Helvetica,sans-Serif" font-size="10.00" fill="#000000">iostream</text>
</g>
<!-- Node0&#45;&gt;Node26 -->
<g id="edge39" class="edge">
<title>Node0&#45;&gt;Node26</title>
<path fill="none" stroke="#191970" d="M1264.8158,-291.2455C1270.7179,-283.3761 1279.1742,-272.101 1286.2594,-262.6542"/>
<polygon fill="#191970" stroke="#191970" points="1289.068,-264.7427 1292.268,-254.6427 1283.4679,-260.5427 1289.068,-264.7427"/>
</g>
<!-- Node27 -->
<g id="node28" class="node">
<title>Node27</title>
<polygon fill="#ffffff" stroke="#bfbfbf" points="1344.5,-235.5 1344.5,-254.5 1432.5,-254.5 1432.5,-235.5 1344.5,-235.5"/>
<text text-anchor="middle" x="1388.5" y="-242.5" font-family="Helvetica,sans-Serif" font-size="10.00" fill="#000000">boost/locale.hpp</text>
</g>
<!-- Node0&#45;&gt;Node27 -->
<g id="edge41" class="edge">
<title>Node0&#45;&gt;Node27</title>
<path fill="none" stroke="#191970" d="M1280.0197,-291.3733C1301.2372,-282.3032 1333.2276,-268.6279 1356.9769,-258.4755"/>
<polygon fill="#191970" stroke="#191970" points="1358.4548,-261.6502 1366.2742,-254.5011 1355.7033,-255.2136 1358.4548,-261.6502"/>
</g>
<!-- Node28 -->
<g id="node29" class="node">
<title>Node28</title>
<polygon fill="#ffffff" stroke="#bfbfbf" points="1450.5,-235.5 1450.5,-254.5 1560.5,-254.5 1560.5,-235.5 1450.5,-235.5"/>
<text text-anchor="middle" x="1505.5" y="-242.5" font-family="Helvetica,sans-Serif" font-size="10.00" fill="#000000">boost/scope_exit.hpp</text>
</g>
<!-- Node0&#45;&gt;Node28 -->
<g id="edge42" class="edge">
<title>Node0&#45;&gt;Node28</title>
<path fill="none" stroke="#191970" d="M1299.8509,-291.4369C1342.2942,-281.8529 1407.7119,-267.0812 1453.3313,-256.78"/>
<polygon fill="#191970" stroke="#191970" points="1454.3403,-260.1404 1463.3237,-254.5237 1452.7984,-253.3123 1454.3403,-260.1404"/>
</g>
<!-- Node2 -->
<g id="node3" class="node">
<title>Node2</title>
<g id="a_node3"><a xlink:href="aff__data_8hxx.html" target="_top" xlink:title="Affixing data structures. ">
<polygon fill="#ffffff" stroke="#000000" points="925,-179.5 925,-198.5 996,-198.5 996,-179.5 925,-179.5"/>
<text text-anchor="middle" x="960.5" y="-186.5" font-family="Helvetica,sans-Serif" font-size="10.00" fill="#000000">aff_data.hxx</text>
</a>
</g>
</g>
<!-- Node1&#45;&gt;Node2 -->
<g id="edge2" class="edge">
<title>Node1&#45;&gt;Node2</title>
<path fill="none" stroke="#191970" d="M1176.771,-236.4948C1130.9846,-226.4398 1054.8776,-209.7261 1006.2346,-199.0437"/>
<polygon fill="#191970" stroke="#191970" points="1006.8104,-195.5868 996.2924,-196.8603 1005.3089,-202.4239 1006.8104,-195.5868"/>
</g>
<!-- Node8 -->
<g id="node9" class="node">
<title>Node8</title>
<g id="a_node9"><a xlink:href="locale__utils_8hxx.html" target="_top" xlink:title="Encoding transformations. ">
<polygon fill="#ffffff" stroke="#000000" points="1294.5,-123.5 1294.5,-142.5 1378.5,-142.5 1378.5,-123.5 1294.5,-123.5"/>
<text text-anchor="middle" x="1336.5" y="-130.5" font-family="Helvetica,sans-Serif" font-size="10.00" fill="#000000">locale_utils.hxx</text>
</a>
</g>
</g>
<!-- Node1&#45;&gt;Node8 -->
<g id="edge29" class="edge">
<title>Node1&#45;&gt;Node8</title>
<path fill="none" stroke="#191970" d="M1231.294,-235.4201C1244.9943,-226.7485 1265.0038,-213.1929 1280.5,-199 1296.6809,-184.1801 1312.6217,-164.7944 1323.3323,-150.8727"/>
<polygon fill="#191970" stroke="#191970" points="1326.3336,-152.706 1329.5653,-142.616 1320.7468,-148.4884 1326.3336,-152.706"/>
</g>
<!-- Node9 -->
<g id="node10" class="node">
<title>Node9</title>
<polygon fill="#ffffff" stroke="#bfbfbf" points="1245.5,-62 1245.5,-81 1287.5,-81 1287.5,-62 1245.5,-62"/>
<text text-anchor="middle" x="1266.5" y="-69" font-family="Helvetica,sans-Serif" font-size="10.00" fill="#000000">locale</text>
</g>
<!-- Node1&#45;&gt;Node9 -->
<g id="edge31" class="edge">
<title>Node1&#45;&gt;Node9</title>
<path fill="none" stroke="#191970" d="M1224.3516,-235.1978C1231.7861,-226.3838 1242.0444,-212.744 1247.5,-199 1261.8204,-162.9232 1265.4578,-117.2082 1266.3145,-91.4735"/>
<polygon fill="#191970" stroke="#191970" points="1269.8204,-91.2363 1266.5408,-81.1618 1262.8221,-91.0826 1269.8204,-91.2363"/>
</g>
<!-- Node23 -->
<g id="node24" class="node">
<title>Node23</title>
<polygon fill="#ffffff" stroke="#bfbfbf" points="1188.5,-179.5 1188.5,-198.5 1238.5,-198.5 1238.5,-179.5 1188.5,-179.5"/>
<text text-anchor="middle" x="1213.5" y="-186.5" font-family="Helvetica,sans-Serif" font-size="10.00" fill="#000000">fstream</text>
</g>
<!-- Node1&#45;&gt;Node23 -->
<g id="edge30" class="edge">
<title>Node1&#45;&gt;Node23</title>
<path fill="none" stroke="#191970" d="M1215.1516,-235.2455C1214.8907,-227.9382 1214.5248,-217.6944 1214.2037,-208.7046"/>
<polygon fill="#191970" stroke="#191970" points="1217.6992,-208.5113 1213.8444,-198.6427 1210.7036,-208.7613 1217.6992,-208.5113"/>
</g>
<!-- Node3 -->
<g id="node4" class="node">
<title>Node3</title>
<polygon fill="#ffffff" stroke="#bfbfbf" points="868,-123.5 868,-142.5 913,-142.5 913,-123.5 868,-123.5"/>
<text text-anchor="middle" x="890.5" y="-130.5" font-family="Helvetica,sans-Serif" font-size="10.00" fill="#000000">iosfwd</text>
</g>
<!-- Node2&#45;&gt;Node3 -->
<g id="edge3" class="edge">
<title>Node2&#45;&gt;Node3</title>
<path fill="none" stroke="#191970" d="M948.3069,-179.2455C937.8679,-170.8943 922.6345,-158.7076 910.426,-148.9408"/>
<polygon fill="#191970" stroke="#191970" points="912.5485,-146.1566 902.5533,-142.6427 908.1756,-151.6227 912.5485,-146.1566"/>
</g>
<!-- Node4 -->
<g id="node5" class="node">
<title>Node4</title>
<polygon fill="#ffffff" stroke="#bfbfbf" points="959,-.5 959,-19.5 1000,-19.5 1000,-.5 959,-.5"/>
<text text-anchor="middle" x="979.5" y="-7.5" font-family="Helvetica,sans-Serif" font-size="10.00" fill="#000000">string</text>
</g>
<!-- Node2&#45;&gt;Node4 -->
<g id="edge4" class="edge">
<title>Node2&#45;&gt;Node4</title>
<path fill="none" stroke="#191970" d="M961.5215,-179.3762C964.5113,-151.2097 973.2892,-68.5126 977.3695,-30.0713"/>
<polygon fill="#191970" stroke="#191970" points="980.8983,-29.985 978.4734,-19.6714 973.9374,-29.2461 980.8983,-29.985"/>
</g>
<!-- Node5 -->
<g id="node6" class="node">
<title>Node5</title>
<polygon fill="#ffffff" stroke="#bfbfbf" points="1008,-123.5 1008,-142.5 1091,-142.5 1091,-123.5 1008,-123.5"/>
<text text-anchor="middle" x="1049.5" y="-130.5" font-family="Helvetica,sans-Serif" font-size="10.00" fill="#000000">unordered_map</text>
</g>
<!-- Node2&#45;&gt;Node5 -->
<g id="edge5" class="edge">
<title>Node2&#45;&gt;Node5</title>
<path fill="none" stroke="#191970" d="M976.0026,-179.2455C989.658,-170.6534 1009.7657,-158.0014 1025.4989,-148.1018"/>
<polygon fill="#191970" stroke="#191970" points="1027.5751,-150.9307 1034.175,-142.6427 1023.8471,-145.006 1027.5751,-150.9307"/>
</g>
<!-- Node6 -->
<g id="node7" class="node">
<title>Node6</title>
<polygon fill="#ffffff" stroke="#bfbfbf" points="911.5,-62 911.5,-81 951.5,-81 951.5,-62 911.5,-62"/>
<text text-anchor="middle" x="931.5" y="-69" font-family="Helvetica,sans-Serif" font-size="10.00" fill="#000000">utility</text>
</g>
<!-- Node2&#45;&gt;Node6 -->
<g id="edge6" class="edge">
<title>Node2&#45;&gt;Node6</title>
<path fill="none" stroke="#191970" d="M958.1268,-179.3845C953.3898,-160.1913 942.677,-116.786 936.3785,-91.2663"/>
<polygon fill="#191970" stroke="#191970" points="939.7003,-90.1184 933.906,-81.2484 932.9042,-91.7957 939.7003,-90.1184"/>
</g>
<!-- Node7 -->
<g id="node8" class="node">
<title>Node7</title>
<polygon fill="#ffffff" stroke="#bfbfbf" points="473.5,-.5 473.5,-19.5 517.5,-19.5 517.5,-.5 473.5,-.5"/>
<text text-anchor="middle" x="495.5" y="-7.5" font-family="Helvetica,sans-Serif" font-size="10.00" fill="#000000">vector</text>
</g>
<!-- Node2&#45;&gt;Node7 -->
<g id="edge7" class="edge">
<title>Node2&#45;&gt;Node7</title>
<path fill="none" stroke="#191970" d="M924.8626,-187.4792C770.1279,-180.5182 161.8242,-149.3253 106.5,-87 97.3536,-76.6961 97.3475,-66.2985 106.5,-56 130.1045,-29.4397 374.4522,-15.5872 463.3707,-11.3962"/>
<polygon fill="#191970" stroke="#191970" points="463.5905,-14.8899 473.4186,-10.9328 463.2679,-7.8973 463.5905,-14.8899"/>
</g>
<!-- Node2&#45;&gt;Node8 -->
<g id="edge8" class="edge">
<title>Node2&#45;&gt;Node8</title>
<path fill="none" stroke="#191970" d="M996.2121,-183.6812C1062.9654,-173.7392 1206.8992,-152.3022 1284.46,-140.7506"/>
<polygon fill="#191970" stroke="#191970" points="1285.1173,-144.1914 1294.4926,-139.2564 1284.0861,-137.2678 1285.1173,-144.1914"/>
</g>
<!-- Node12 -->
<g id="node13" class="node">
<title>Node12</title>
<g id="a_node13"><a xlink:href="structures_8hxx.html" target="_top" xlink:title="Data structures. ">
<polygon fill="#ffffff" stroke="#000000" points="635,-123.5 635,-142.5 714,-142.5 714,-123.5 635,-123.5"/>
<text text-anchor="middle" x="674.5" y="-130.5" font-family="Helvetica,sans-Serif" font-size="10.00" fill="#000000">structures.hxx</text>
</a>
</g>
</g>
<!-- Node2&#45;&gt;Node12 -->
<g id="edge13" class="edge">
<title>Node2&#45;&gt;Node12</title>
<path fill="none" stroke="#191970" d="M924.8562,-182.0208C874.2853,-172.1188 781.5012,-153.9513 724.1957,-142.7306"/>
<polygon fill="#191970" stroke="#191970" points="724.7603,-139.2748 714.2741,-140.7879 723.4152,-146.1443 724.7603,-139.2748"/>
</g>
<!-- Node8&#45;&gt;Node4 -->
<g id="edge10" class="edge">
<title>Node8&#45;&gt;Node4</title>
<path fill="none" stroke="#191970" d="M1378.582,-128.616C1441.0488,-120.5559 1546.8354,-100.0095 1506.5,-56 1472.8663,-19.3026 1118.2232,-11.7703 1010.4138,-10.324"/>
<polygon fill="#191970" stroke="#191970" points="1010.2458,-6.8217 1000.2026,-10.1956 1010.1577,-13.8212 1010.2458,-6.8217"/>
</g>
<!-- Node8&#45;&gt;Node9 -->
<g id="edge9" class="edge">
<title>Node8&#45;&gt;Node9</title>
<path fill="none" stroke="#191970" d="M1325.5625,-123.3906C1314.838,-113.9683 1298.2713,-99.4134 1285.4099,-88.1137"/>
<polygon fill="#191970" stroke="#191970" points="1287.4143,-85.2158 1277.5917,-81.2449 1282.7941,-90.4745 1287.4143,-85.2158"/>
</g>
<!-- Node10 -->
<g id="node11" class="node">
<title>Node10</title>
<polygon fill="#ffffff" stroke="#bfbfbf" points="1305.5,-62 1305.5,-81 1367.5,-81 1367.5,-62 1305.5,-62"/>
<text text-anchor="middle" x="1336.5" y="-69" font-family="Helvetica,sans-Serif" font-size="10.00" fill="#000000">type_traits</text>
</g>
<!-- Node8&#45;&gt;Node10 -->
<g id="edge11" class="edge">
<title>Node8&#45;&gt;Node10</title>
<path fill="none" stroke="#191970" d="M1336.5,-123.3906C1336.5,-114.8657 1336.5,-102.1392 1336.5,-91.4235"/>
<polygon fill="#191970" stroke="#191970" points="1340.0001,-91.2448 1336.5,-81.2449 1333.0001,-91.2449 1340.0001,-91.2448"/>
</g>
<!-- Node11 -->
<g id="node12" class="node">
<title>Node11</title>
<polygon fill="#ffffff" stroke="#bfbfbf" points="1386,-56.5 1386,-86.5 1497,-86.5 1497,-56.5 1386,-56.5"/>
<text text-anchor="start" x="1394" y="-74.5" font-family="Helvetica,sans-Serif" font-size="10.00" fill="#000000">boost/locale/encoding</text>
<text text-anchor="middle" x="1441.5" y="-63.5" font-family="Helvetica,sans-Serif" font-size="10.00" fill="#000000">_utf.hpp</text>
</g>
<!-- Node8&#45;&gt;Node11 -->
<g id="edge12" class="edge">
<title>Node8&#45;&gt;Node11</title>
<path fill="none" stroke="#191970" d="M1352.9063,-123.3906C1367.3799,-114.9132 1388.9472,-102.2809 1407.1781,-91.6028"/>
<polygon fill="#191970" stroke="#191970" points="1408.9542,-94.6188 1415.8141,-86.5446 1405.4163,-88.5786 1408.9542,-94.6188"/>
</g>
<!-- Node12&#45;&gt;Node4 -->
<g id="edge22" class="edge">
<title>Node12&#45;&gt;Node4</title>
<path fill="none" stroke="#191970" d="M714.0989,-128.6344C753.8044,-123.0828 815.8641,-111.152 864.5,-87 884.0214,-77.3059 884.6525,-68.5112 902.5,-56 918.7614,-44.6006 937.9302,-33.143 953.0741,-24.5141"/>
<polygon fill="#191970" stroke="#191970" points="954.9246,-27.4889 961.9211,-19.5328 951.4902,-21.3892 954.9246,-27.4889"/>
</g>
<!-- Node12&#45;&gt;Node6 -->
<g id="edge23" class="edge">
<title>Node12&#45;&gt;Node6</title>
<path fill="none" stroke="#191970" d="M714.269,-127.5545C759.4207,-120.7419 834.9322,-107.4278 897.5,-87 899.3501,-86.396 901.2334,-85.7207 903.1169,-84.999"/>
<polygon fill="#191970" stroke="#191970" points="904.5083,-88.211 912.3813,-81.121 901.8054,-81.7538 904.5083,-88.211"/>
</g>
<!-- Node12&#45;&gt;Node7 -->
<g id="edge24" class="edge">
<title>Node12&#45;&gt;Node7</title>
<path fill="none" stroke="#191970" d="M634.6784,-131.5829C535.1086,-127.6318 281.4989,-114.9009 256.5,-87 247.3059,-76.7386 247.7265,-66.6232 256.5,-56 282.3373,-24.7156 403.9123,-14.4816 463.0429,-11.3208"/>
<polygon fill="#191970" stroke="#191970" points="463.5063,-14.8022 473.32,-10.8094 463.1584,-7.8108 463.5063,-14.8022"/>
</g>
<!-- Node13 -->
<g id="node14" class="node">
<title>Node13</title>
<g id="a_node14"><a xlink:href="condition_8hxx.html" target="_top" xlink:title="Condition matching. ">
<polygon fill="#ffffff" stroke="#000000" points="781.5,-62 781.5,-81 855.5,-81 855.5,-62 781.5,-62"/>
<text text-anchor="middle" x="818.5" y="-69" font-family="Helvetica,sans-Serif" font-size="10.00" fill="#000000">condition.hxx</text>
</a>
</g>
</g>
<!-- Node12&#45;&gt;Node13 -->
<g id="edge14" class="edge">
<title>Node12&#45;&gt;Node13</title>
<path fill="none" stroke="#191970" d="M697,-123.3906C721.0938,-113.1005 759.5213,-96.6888 786.7008,-85.0809"/>
<polygon fill="#191970" stroke="#191970" points="788.3363,-88.1883 796.158,-81.0419 785.5869,-81.7508 788.3363,-88.1883"/>
</g>
<!-- Node15 -->
<g id="node16" class="node">
<title>Node15</title>
<polygon fill="#ffffff" stroke="#bfbfbf" points="1073.5,-62 1073.5,-81 1129.5,-81 1129.5,-62 1073.5,-62"/>
<text text-anchor="middle" x="1101.5" y="-69" font-family="Helvetica,sans-Serif" font-size="10.00" fill="#000000">algorithm</text>
</g>
<!-- Node12&#45;&gt;Node15 -->
<g id="edge18" class="edge">
<title>Node12&#45;&gt;Node15</title>
<path fill="none" stroke="#191970" d="M714.0681,-131.8294C785.1154,-128.9575 938.5517,-119.2374 1063.5,-87 1066.1259,-86.3225 1068.8111,-85.5038 1071.4797,-84.6009"/>
<polygon fill="#191970" stroke="#191970" points="1072.7968,-87.8451 1080.9371,-81.0638 1070.3446,-81.2887 1072.7968,-87.8451"/>
</g>
<!-- Node16 -->
<g id="node17" class="node">
<title>Node16</title>
<polygon fill="#ffffff" stroke="#bfbfbf" points="265.5,-62 265.5,-81 309.5,-81 309.5,-62 265.5,-62"/>
<text text-anchor="middle" x="287.5" y="-69" font-family="Helvetica,sans-Serif" font-size="10.00" fill="#000000">cmath</text>
</g>
<!-- Node12&#45;&gt;Node16 -->
<g id="edge19" class="edge">
<title>Node12&#45;&gt;Node16</title>
<path fill="none" stroke="#191970" d="M634.9322,-129.568C555.0164,-122.3617 376.9902,-104.8419 318.5,-87 316.8381,-86.4931 315.1568,-85.9033 313.4815,-85.2558"/>
<polygon fill="#191970" stroke="#191970" points="314.6892,-81.9624 304.1302,-81.0916 311.8416,-88.357 314.6892,-81.9624"/>
</g>
<!-- Node17 -->
<g id="node18" class="node">
<title>Node17</title>
<polygon fill="#ffffff" stroke="#bfbfbf" points="1008,-62 1008,-81 1055,-81 1055,-62 1008,-62"/>
<text text-anchor="middle" x="1031.5" y="-69" font-family="Helvetica,sans-Serif" font-size="10.00" fill="#000000">iterator</text>
</g>
<!-- Node12&#45;&gt;Node17 -->
<g id="edge20" class="edge">
<title>Node12&#45;&gt;Node17</title>
<path fill="none" stroke="#191970" d="M714.4114,-127.2949C769.8008,-119.2149 873.0403,-103.5669 960.5,-87 972.7723,-84.6753 986.1709,-81.8306 997.9893,-79.2157"/>
<polygon fill="#191970" stroke="#191970" points="998.9072,-82.5969 1007.9004,-76.9958 997.3772,-75.7662 998.9072,-82.5969"/>
</g>
<!-- Node12&#45;&gt;Node18 -->
<g id="edge21" class="edge">
<title>Node12&#45;&gt;Node18</title>
<path fill="none" stroke="#191970" d="M634.7273,-131.393C541.8606,-127.2892 303.6641,-114.7298 106.5,-87 94.385,-85.2961 81.3042,-82.8827 69.4226,-80.4665"/>
<polygon fill="#191970" stroke="#191970" points="69.8489,-76.98 59.3443,-78.3601 68.4168,-83.8319 69.8489,-76.98"/>
</g>
<!-- Node19 -->
<g id="node20" class="node">
<title>Node19</title>
<polygon fill="#ffffff" stroke="#bfbfbf" points="327.5,-56.5 327.5,-86.5 437.5,-86.5 437.5,-56.5 327.5,-56.5"/>
<text text-anchor="start" x="335.5" y="-74.5" font-family="Helvetica,sans-Serif" font-size="10.00" fill="#000000">boost/container/small</text>
<text text-anchor="middle" x="382.5" y="-63.5" font-family="Helvetica,sans-Serif" font-size="10.00" fill="#000000">_vector.hpp</text>
</g>
<!-- Node12&#45;&gt;Node19 -->
<g id="edge25" class="edge">
<title>Node12&#45;&gt;Node19</title>
<path fill="none" stroke="#191970" d="M634.8607,-125.4831C591.3484,-117.1255 519.1866,-102.9538 447.7054,-87.2232"/>
<polygon fill="#191970" stroke="#191970" points="448.1466,-83.7363 437.6266,-84.9937 446.6346,-90.571 448.1466,-83.7363"/>
</g>
<!-- Node20 -->
<g id="node21" class="node">
<title>Node20</title>
<polygon fill="#ffffff" stroke="#bfbfbf" points="455.5,-62 455.5,-81 605.5,-81 605.5,-62 455.5,-62"/>
<text text-anchor="middle" x="530.5" y="-69" font-family="Helvetica,sans-Serif" font-size="10.00" fill="#000000">boost/multi_index/member.hpp</text>
</g>
<!-- Node12&#45;&gt;Node20 -->
<g id="edge26" class="edge">
<title>Node12&#45;&gt;Node20</title>
<path fill="none" stroke="#191970" d="M652,-123.3906C627.9062,-113.1005 589.4787,-96.6888 562.2992,-85.0809"/>
<polygon fill="#191970" stroke="#191970" points="563.4131,-81.7508 552.842,-81.0419 560.6637,-88.1883 563.4131,-81.7508"/>
</g>
<!-- Node21 -->
<g id="node22" class="node">
<title>Node21</title>
<polygon fill="#ffffff" stroke="#bfbfbf" points="624,-56.5 624,-86.5 725,-86.5 725,-56.5 624,-56.5"/>
<text text-anchor="start" x="632" y="-74.5" font-family="Helvetica,sans-Serif" font-size="10.00" fill="#000000">boost/range/iterator</text>
<text text-anchor="middle" x="674.5" y="-63.5" font-family="Helvetica,sans-Serif" font-size="10.00" fill="#000000">_range_core.hpp</text>
</g>
<!-- Node12&#45;&gt;Node21 -->
<g id="edge27" class="edge">
<title>Node12&#45;&gt;Node21</title>
<path fill="none" stroke="#191970" d="M674.5,-123.3906C674.5,-116.2234 674.5,-106.0862 674.5,-96.671"/>
<polygon fill="#191970" stroke="#191970" points="678.0001,-96.5446 674.5,-86.5446 671.0001,-96.5446 678.0001,-96.5446"/>
</g>
<!-- Node22 -->
<g id="node23" class="node">
<title>Node22</title>
<polygon fill="#ffffff" stroke="#bfbfbf" points="115.5,-56.5 115.5,-86.5 209.5,-86.5 209.5,-56.5 115.5,-56.5"/>
<text text-anchor="start" x="123.5" y="-74.5" font-family="Helvetica,sans-Serif" font-size="10.00" fill="#000000">boost/utility/string</text>
<text text-anchor="middle" x="162.5" y="-63.5" font-family="Helvetica,sans-Serif" font-size="10.00" fill="#000000">_view.hpp</text>
</g>
<!-- Node12&#45;&gt;Node22 -->
<g id="edge28" class="edge">
<title>Node12&#45;&gt;Node22</title>
<path fill="none" stroke="#191970" d="M634.7147,-130.9144C555.7932,-126.3436 374.0427,-113.6542 223.5,-87 222.229,-86.775 220.9455,-86.5377 219.6532,-86.2898"/>
<polygon fill="#191970" stroke="#191970" points="220.1427,-82.8168 209.6396,-84.208 218.7178,-89.6703 220.1427,-82.8168"/>
</g>
<!-- Node13&#45;&gt;Node4 -->
<g id="edge15" class="edge">
<title>Node13&#45;&gt;Node4</title>
<path fill="none" stroke="#191970" d="M843.6563,-61.8906C872.1021,-51.0247 918.4178,-33.3326 948.9257,-21.679"/>
<polygon fill="#191970" stroke="#191970" points="950.5244,-24.815 958.6171,-17.977 948.0265,-18.2759 950.5244,-24.815"/>
</g>
<!-- Node13&#45;&gt;Node7 -->
<g id="edge17" class="edge">
<title>Node13&#45;&gt;Node7</title>
<path fill="none" stroke="#191970" d="M789.278,-61.9206C782.1969,-59.7935 774.616,-57.6759 767.5,-56 681.7622,-35.8082 578.8272,-20.8867 527.6577,-14.0846"/>
<polygon fill="#191970" stroke="#191970" points="527.9198,-10.5891 517.5492,-12.7574 527.0085,-17.5295 527.9198,-10.5891"/>
</g>
<!-- Node14 -->
<g id="node15" class="node">
<title>Node14</title>
<polygon fill="#ffffff" stroke="#bfbfbf" points="799.5,-.5 799.5,-19.5 837.5,-19.5 837.5,-.5 799.5,-.5"/>
<text text-anchor="middle" x="818.5" y="-7.5" font-family="Helvetica,sans-Serif" font-size="10.00" fill="#000000">tuple</text>
</g>
<!-- Node13&#45;&gt;Node14 -->
<g id="edge16" class="edge">
<title>Node13&#45;&gt;Node14</title>
<path fill="none" stroke="#191970" d="M818.5,-61.8906C818.5,-53.3657 818.5,-40.6392 818.5,-29.9235"/>
<polygon fill="#191970" stroke="#191970" points="822.0001,-29.7448 818.5,-19.7449 815.0001,-29.7449 822.0001,-29.7448"/>
</g>
<!-- Node24&#45;&gt;Node4 -->
<g id="edge37" class="edge">
<title>Node24&#45;&gt;Node4</title>
<path fill="none" stroke="#191970" d="M1151.9983,-123.3725C1153.9152,-107.3224 1155.2183,-74.9892 1138.5,-56 1121.5994,-36.8038 1051.3275,-22.0627 1010.0771,-14.8622"/>
<polygon fill="#191970" stroke="#191970" points="1010.4634,-11.3778 1000.0188,-13.1553 1009.2922,-18.2792 1010.4634,-11.3778"/>
</g>
<!-- Node24&#45;&gt;Node7 -->
<g id="edge38" class="edge">
<title>Node24&#45;&gt;Node7</title>
<path fill="none" stroke="#191970" d="M1108.807,-124.3759C1106.0005,-123.8835 1103.2121,-123.4192 1100.5,-123 955.5679,-100.5978 908.1151,-142.8186 772.5,-87 752.0245,-78.5724 753.6147,-65.2558 733.5,-56 664.692,-24.3378 574.9967,-14.459 527.7939,-11.3839"/>
<polygon fill="#191970" stroke="#191970" points="527.7552,-7.8756 517.5668,-10.7821 527.3439,-14.8636 527.7552,-7.8756"/>
</g>
<!-- Node24&#45;&gt;Node9 -->
<g id="edge35" class="edge">
<title>Node24&#45;&gt;Node9</title>
<path fill="none" stroke="#191970" d="M1168.625,-123.3906C1187.6083,-113.3262 1217.6373,-97.4057 1239.4307,-85.8514"/>
<polygon fill="#191970" stroke="#191970" points="1241.3066,-88.8184 1248.5023,-81.0419 1238.0277,-82.6338 1241.3066,-88.8184"/>
</g>
<!-- Node24&#45;&gt;Node15 -->
<g id="edge33" class="edge">
<title>Node24&#45;&gt;Node15</title>
<path fill="none" stroke="#191970" d="M1142.8438,-123.3906C1135.5511,-114.2376 1124.3993,-100.2409 1115.5148,-89.09"/>
<polygon fill="#191970" stroke="#191970" points="1118.233,-86.8849 1109.2642,-81.2449 1112.7583,-91.247 1118.233,-86.8849"/>
</g>
<!-- Node24&#45;&gt;Node17 -->
<g id="edge34" class="edge">
<title>Node24&#45;&gt;Node17</title>
<path fill="none" stroke="#191970" d="M1131.9063,-123.3906C1112.3447,-113.2811 1081.3499,-97.2628 1058.9691,-85.6962"/>
<polygon fill="#191970" stroke="#191970" points="1060.4539,-82.5238 1049.9632,-81.0419 1057.24,-88.7425 1060.4539,-82.5238"/>
</g>
<!-- Node25 -->
<g id="node26" class="node">
<title>Node25</title>
<polygon fill="#ffffff" stroke="#bfbfbf" points="1186,-62 1186,-81 1227,-81 1227,-62 1186,-62"/>
<text text-anchor="middle" x="1206.5" y="-69" font-family="Helvetica,sans-Serif" font-size="10.00" fill="#000000">stack</text>
</g>
<!-- Node24&#45;&gt;Node25 -->
<g id="edge36" class="edge">
<title>Node24&#45;&gt;Node25</title>
<path fill="none" stroke="#191970" d="M1159.25,-123.3906C1167.6662,-114.1478 1180.5797,-99.966 1190.781,-88.7628"/>
<polygon fill="#191970" stroke="#191970" points="1193.4818,-90.9953 1197.6266,-81.2449 1188.306,-86.2824 1193.4818,-90.9953"/>
</g>
</g>
</svg>
