<?xml version="1.0" encoding="UTF-8" standalone="no"?>
<!DOCTYPE svg PUBLIC "-//W3C//DTD SVG 1.1//EN"
 "http://www.w3.org/Graphics/SVG/1.1/DTD/svg11.dtd">
<!-- Generated by graphviz version 2.43.0 (0)
 -->
<!-- Title: nuspell/dictionary.hxx Pages: 1 -->
<svg width="951pt" height="357pt"
 viewBox="0.00 0.00 950.50 357.00" xmlns="http://www.w3.org/2000/svg" xmlns:xlink="http://www.w3.org/1999/xlink">
<g id="graph0" class="graph" transform="scale(1 1) rotate(0) translate(4 353)">
<title>nuspell/dictionary.hxx</title>
<!-- Node1 -->
<g id="Node000001" class="node">
<title>Node1</title>
<g id="a_Node000001"><a xlink:title="Dictionary spelling.">
<polygon fill="#999999" stroke="#666666" points="673.5,-349 550.5,-349 550.5,-330 673.5,-330 673.5,-349"/>
<text text-anchor="middle" x="612" y="-337" font-family="Helvetica,sans-Serif" font-size="10.00">nuspell/dictionary.hxx</text>
</a>
</g>
</g>
<!-- Node2 -->
<g id="Node000002" class="node">
<title>Node2</title>
<g id="a_Node000002"><a xlink:href="suggester_8hxx_source.html" target="_top" xlink:title=" ">
<polygon fill="white" stroke="#666666" points="607.5,-294 522.5,-294 522.5,-275 607.5,-275 607.5,-294"/>
<text text-anchor="middle" x="565" y="-282" font-family="Helvetica,sans-Serif" font-size="10.00">suggester.hxx</text>
</a>
</g>
</g>
<!-- Node1&#45;&gt;Node2 -->
<g id="edge1_Node000001_Node000002" class="edge">
<title>Node1&#45;&gt;Node2</title>
<g id="a_edge1_Node000001_Node000002"><a xlink:title=" ">
<path fill="none" stroke="#63b8ff" d="M604.24,-329.75C597.53,-322.18 587.66,-311.05 579.49,-301.84"/>
<polygon fill="#63b8ff" stroke="#63b8ff" points="581.87,-299.25 572.62,-294.09 576.63,-303.89 581.87,-299.25"/>
</a>
</g>
</g>
<!-- Node24 -->
<g id="Node000024" class="node">
<title>Node24</title>
<g id="a_Node000024"><a xlink:title=" ">
<polygon fill="#e0e0e0" stroke="#999999" points="694,-294 626,-294 626,-275 694,-275 694,-294"/>
<text text-anchor="middle" x="660" y="-282" font-family="Helvetica,sans-Serif" font-size="10.00">filesystem</text>
</a>
</g>
</g>
<!-- Node1&#45;&gt;Node24 -->
<g id="edge25_Node000001_Node000024" class="edge">
<title>Node1&#45;&gt;Node24</title>
<g id="a_edge25_Node000001_Node000024"><a xlink:title=" ">
<path fill="none" stroke="#63b8ff" d="M619.93,-329.75C626.85,-322.11 637.07,-310.82 645.45,-301.56"/>
<polygon fill="#63b8ff" stroke="#63b8ff" points="648.1,-303.85 652.22,-294.09 642.91,-299.15 648.1,-303.85"/>
</a>
</g>
</g>
<!-- Node3 -->
<g id="Node000003" class="node">
<title>Node3</title>
<g id="a_Node000003"><a xlink:href="checker_8hxx_source.html" target="_top" xlink:title=" ">
<polygon fill="white" stroke="#666666" points="602,-239 528,-239 528,-220 602,-220 602,-239"/>
<text text-anchor="middle" x="565" y="-227" font-family="Helvetica,sans-Serif" font-size="10.00">checker.hxx</text>
</a>
</g>
</g>
<!-- Node2&#45;&gt;Node3 -->
<g id="edge2_Node000002_Node000003" class="edge">
<title>Node2&#45;&gt;Node3</title>
<g id="a_edge2_Node000002_Node000003"><a xlink:title=" ">
<path fill="none" stroke="#63b8ff" d="M565,-274.75C565,-267.8 565,-257.85 565,-249.13"/>
<polygon fill="#63b8ff" stroke="#63b8ff" points="568.5,-249.09 565,-239.09 561.5,-249.09 568.5,-249.09"/>
</a>
</g>
</g>
<!-- Node4 -->
<g id="Node000004" class="node">
<title>Node4</title>
<g id="a_Node000004"><a xlink:href="aff__data_8hxx_source.html" target="_top" xlink:title=" ">
<polygon fill="white" stroke="#666666" points="603.5,-184 526.5,-184 526.5,-165 603.5,-165 603.5,-184"/>
<text text-anchor="middle" x="565" y="-172" font-family="Helvetica,sans-Serif" font-size="10.00">aff_data.hxx</text>
</a>
</g>
</g>
<!-- Node3&#45;&gt;Node4 -->
<g id="edge3_Node000003_Node000004" class="edge">
<title>Node3&#45;&gt;Node4</title>
<g id="a_edge3_Node000003_Node000004"><a xlink:title=" ">
<path fill="none" stroke="#63b8ff" d="M565,-219.75C565,-212.8 565,-202.85 565,-194.13"/>
<polygon fill="#63b8ff" stroke="#63b8ff" points="568.5,-194.09 565,-184.09 561.5,-194.09 568.5,-194.09"/>
</a>
</g>
</g>
<!-- Node5 -->
<g id="Node000005" class="node">
<title>Node5</title>
<g id="a_Node000005"><a xlink:title=" ">
<polygon fill="#e0e0e0" stroke="#999999" points="462,-129 364,-129 364,-110 462,-110 462,-129"/>
<text text-anchor="middle" x="413" y="-117" font-family="Helvetica,sans-Serif" font-size="10.00">nuspell_export.h</text>
</a>
</g>
</g>
<!-- Node4&#45;&gt;Node5 -->
<g id="edge4_Node000004_Node000005" class="edge">
<title>Node4&#45;&gt;Node5</title>
<g id="a_edge4_Node000004_Node000005"><a xlink:title=" ">
<path fill="none" stroke="#63b8ff" d="M540.58,-164.98C515.28,-156.16 475.55,-142.31 447.14,-132.41"/>
<polygon fill="#63b8ff" stroke="#63b8ff" points="448.21,-129.07 437.61,-129.08 445.9,-135.68 448.21,-129.07"/>
</a>
</g>
</g>
<!-- Node6 -->
<g id="Node000006" class="node">
<title>Node6</title>
<g id="a_Node000006"><a xlink:href="structures_8hxx_source.html" target="_top" xlink:title=" ">
<polygon fill="white" stroke="#666666" points="566,-129 480,-129 480,-110 566,-110 566,-129"/>
<text text-anchor="middle" x="523" y="-117" font-family="Helvetica,sans-Serif" font-size="10.00">structures.hxx</text>
</a>
</g>
</g>
<!-- Node4&#45;&gt;Node6 -->
<g id="edge5_Node000004_Node000006" class="edge">
<title>Node4&#45;&gt;Node6</title>
<g id="a_edge5_Node000004_Node000006"><a xlink:title=" ">
<path fill="none" stroke="#63b8ff" d="M558.06,-164.75C552.13,-157.26 543.43,-146.28 536.18,-137.13"/>
<polygon fill="#63b8ff" stroke="#63b8ff" points="538.76,-134.75 529.81,-129.09 533.27,-139.1 538.76,-134.75"/>
</a>
</g>
</g>
<!-- Node22 -->
<g id="Node000022" class="node">
<title>Node22</title>
<g id="a_Node000022"><a xlink:title=" ">
<polygon fill="#e0e0e0" stroke="#999999" points="632,-129 584,-129 584,-110 632,-110 632,-129"/>
<text text-anchor="middle" x="608" y="-117" font-family="Helvetica,sans-Serif" font-size="10.00">iosfwd</text>
</a>
</g>
</g>
<!-- Node4&#45;&gt;Node22 -->
<g id="edge23_Node000004_Node000022" class="edge">
<title>Node4&#45;&gt;Node22</title>
<g id="a_edge23_Node000004_Node000022"><a xlink:title=" ">
<path fill="none" stroke="#63b8ff" d="M572.1,-164.75C578.17,-157.26 587.09,-146.28 594.51,-137.13"/>
<polygon fill="#63b8ff" stroke="#63b8ff" points="597.45,-139.06 601.03,-129.09 592.01,-134.65 597.45,-139.06"/>
</a>
</g>
</g>
<!-- Node23 -->
<g id="Node000023" class="node">
<title>Node23</title>
<g id="a_Node000023"><a xlink:title=" ">
<polygon fill="#e0e0e0" stroke="#999999" points="740,-129 650,-129 650,-110 740,-110 740,-129"/>
<text text-anchor="middle" x="695" y="-117" font-family="Helvetica,sans-Serif" font-size="10.00">unicode/locid.h</text>
</a>
</g>
</g>
<!-- Node4&#45;&gt;Node23 -->
<g id="edge24_Node000004_Node000023" class="edge">
<title>Node4&#45;&gt;Node23</title>
<g id="a_edge24_Node000004_Node000023"><a xlink:title=" ">
<path fill="none" stroke="#63b8ff" d="M585.89,-164.98C607.08,-156.34 640.13,-142.87 664.3,-133.02"/>
<polygon fill="#63b8ff" stroke="#63b8ff" points="665.79,-136.19 673.73,-129.17 663.15,-129.7 665.79,-136.19"/>
</a>
</g>
</g>
<!-- Node7 -->
<g id="Node000007" class="node">
<title>Node7</title>
<g id="a_Node000007"><a xlink:href="unicode_8hxx_source.html" target="_top" xlink:title=" ">
<polygon fill="white" stroke="#666666" points="238,-74 162,-74 162,-55 238,-55 238,-74"/>
<text text-anchor="middle" x="200" y="-62" font-family="Helvetica,sans-Serif" font-size="10.00">unicode.hxx</text>
</a>
</g>
</g>
<!-- Node6&#45;&gt;Node7 -->
<g id="edge6_Node000006_Node000007" class="edge">
<title>Node6&#45;&gt;Node7</title>
<g id="a_edge6_Node000006_Node000007"><a xlink:title=" ">
<path fill="none" stroke="#63b8ff" d="M479.77,-111.41C419.69,-101.55 311.25,-83.75 248.48,-73.45"/>
<polygon fill="#63b8ff" stroke="#63b8ff" points="248.87,-69.97 238.44,-71.81 247.74,-76.88 248.87,-69.97"/>
</a>
</g>
</g>
<!-- Node9 -->
<g id="Node000009" class="node">
<title>Node9</title>
<g id="a_Node000009"><a xlink:title=" ">
<polygon fill="#e0e0e0" stroke="#999999" points="44,-19 0,-19 0,0 44,0 44,-19"/>
<text text-anchor="middle" x="22" y="-7" font-family="Helvetica,sans-Serif" font-size="10.00">string</text>
</a>
</g>
</g>
<!-- Node6&#45;&gt;Node9 -->
<g id="edge19_Node000006_Node000009" class="edge">
<title>Node6&#45;&gt;Node9</title>
<g id="a_edge19_Node000006_Node000009"><a xlink:title=" ">
<path fill="none" stroke="#63b8ff" d="M479.89,-111.29C476.89,-110.83 473.9,-110.4 471,-110 330.1,-90.52 289.62,-113.59 153,-74 112.96,-62.4 70.14,-39.39 44.74,-24.49"/>
<polygon fill="#63b8ff" stroke="#63b8ff" points="46.28,-21.33 35.9,-19.21 42.69,-27.34 46.28,-21.33"/>
</a>
</g>
</g>
<!-- Node10 -->
<g id="Node000010" class="node">
<title>Node10</title>
<g id="a_Node000010"><a xlink:title=" ">
<polygon fill="#e0e0e0" stroke="#999999" points="441.5,-19 368.5,-19 368.5,0 441.5,0 441.5,-19"/>
<text text-anchor="middle" x="405" y="-7" font-family="Helvetica,sans-Serif" font-size="10.00">string_view</text>
</a>
</g>
</g>
<!-- Node6&#45;&gt;Node10 -->
<g id="edge20_Node000006_Node000010" class="edge">
<title>Node6&#45;&gt;Node10</title>
<g id="a_edge20_Node000006_Node000010"><a xlink:title=" ">
<path fill="none" stroke="#63b8ff" d="M479.77,-111.13C412.01,-99.49 288.12,-77.75 285,-74 279.61,-67.5 280.18,-61.93 285,-55 293.89,-42.22 329.02,-30.09 358.98,-21.74"/>
<polygon fill="#63b8ff" stroke="#63b8ff" points="360.17,-25.04 368.9,-19.05 358.34,-18.29 360.17,-25.04"/>
</a>
</g>
</g>
<!-- Node13 -->
<g id="Node000013" class="node">
<title>Node13</title>
<g id="a_Node000013"><a xlink:title=" ">
<polygon fill="#e0e0e0" stroke="#999999" points="358,-74 294,-74 294,-55 358,-55 358,-74"/>
<text text-anchor="middle" x="326" y="-62" font-family="Helvetica,sans-Serif" font-size="10.00">algorithm</text>
</a>
</g>
</g>
<!-- Node6&#45;&gt;Node13 -->
<g id="edge12_Node000006_Node000013" class="edge">
<title>Node6&#45;&gt;Node13</title>
<g id="a_edge12_Node000006_Node000013"><a xlink:title=" ">
<path fill="none" stroke="#63b8ff" d="M491.35,-109.98C457.84,-100.97 404.8,-86.7 367.86,-76.76"/>
<polygon fill="#63b8ff" stroke="#63b8ff" points="368.47,-73.3 357.9,-74.08 366.65,-80.06 368.47,-73.3"/>
</a>
</g>
</g>
<!-- Node14 -->
<g id="Node000014" class="node">
<title>Node14</title>
<g id="a_Node000014"><a xlink:title=" ">
<polygon fill="#e0e0e0" stroke="#999999" points="423.5,-74 376.5,-74 376.5,-55 423.5,-55 423.5,-74"/>
<text text-anchor="middle" x="400" y="-62" font-family="Helvetica,sans-Serif" font-size="10.00">cmath</text>
</a>
</g>
</g>
<!-- Node6&#45;&gt;Node14 -->
<g id="edge13_Node000006_Node000014" class="edge">
<title>Node6&#45;&gt;Node14</title>
<g id="a_edge13_Node000006_Node000014"><a xlink:title=" ">
<path fill="none" stroke="#63b8ff" d="M503.24,-109.98C483.27,-101.38 452.2,-87.99 429.35,-78.15"/>
<polygon fill="#63b8ff" stroke="#63b8ff" points="430.69,-74.91 420.12,-74.17 427.92,-81.34 430.69,-74.91"/>
</a>
</g>
</g>
<!-- Node15 -->
<g id="Node000015" class="node">
<title>Node15</title>
<g id="a_Node000015"><a xlink:title=" ">
<polygon fill="#e0e0e0" stroke="#999999" points="516,-74 442,-74 442,-55 516,-55 516,-74"/>
<text text-anchor="middle" x="479" y="-62" font-family="Helvetica,sans-Serif" font-size="10.00">forward_list</text>
</a>
</g>
</g>
<!-- Node6&#45;&gt;Node15 -->
<g id="edge14_Node000006_Node000015" class="edge">
<title>Node6&#45;&gt;Node15</title>
<g id="a_edge14_Node000006_Node000015"><a xlink:title=" ">
<path fill="none" stroke="#63b8ff" d="M515.73,-109.75C509.46,-102.18 500.21,-91.05 492.57,-81.84"/>
<polygon fill="#63b8ff" stroke="#63b8ff" points="495.21,-79.55 486.13,-74.09 489.83,-84.02 495.21,-79.55"/>
</a>
</g>
</g>
<!-- Node16 -->
<g id="Node000016" class="node">
<title>Node16</title>
<g id="a_Node000016"><a xlink:title=" ">
<polygon fill="#e0e0e0" stroke="#999999" points="599.5,-74 534.5,-74 534.5,-55 599.5,-55 599.5,-74"/>
<text text-anchor="middle" x="567" y="-62" font-family="Helvetica,sans-Serif" font-size="10.00">functional</text>
</a>
</g>
</g>
<!-- Node6&#45;&gt;Node16 -->
<g id="edge15_Node000006_Node000016" class="edge">
<title>Node6&#45;&gt;Node16</title>
<g id="a_edge15_Node000006_Node000016"><a xlink:title=" ">
<path fill="none" stroke="#63b8ff" d="M530.27,-109.75C536.54,-102.18 545.79,-91.05 553.43,-81.84"/>
<polygon fill="#63b8ff" stroke="#63b8ff" points="556.17,-84.02 559.87,-74.09 550.79,-79.55 556.17,-84.02"/>
</a>
</g>
</g>
<!-- Node17 -->
<g id="Node000017" class="node">
<title>Node17</title>
<g id="a_Node000017"><a xlink:title=" ">
<polygon fill="#e0e0e0" stroke="#999999" points="670.5,-74 617.5,-74 617.5,-55 670.5,-55 670.5,-74"/>
<text text-anchor="middle" x="644" y="-62" font-family="Helvetica,sans-Serif" font-size="10.00">iterator</text>
</a>
</g>
</g>
<!-- Node6&#45;&gt;Node17 -->
<g id="edge16_Node000006_Node000017" class="edge">
<title>Node6&#45;&gt;Node17</title>
<g id="a_edge16_Node000006_Node000017"><a xlink:title=" ">
<path fill="none" stroke="#63b8ff" d="M542.44,-109.98C561.99,-101.42 592.38,-88.11 614.82,-78.28"/>
<polygon fill="#63b8ff" stroke="#63b8ff" points="616.45,-81.39 624.21,-74.17 613.64,-74.98 616.45,-81.39"/>
</a>
</g>
</g>
<!-- Node18 -->
<g id="Node000018" class="node">
<title>Node18</title>
<g id="a_Node000018"><a xlink:title=" ">
<polygon fill="#e0e0e0" stroke="#999999" points="731.5,-74 688.5,-74 688.5,-55 731.5,-55 731.5,-74"/>
<text text-anchor="middle" x="710" y="-62" font-family="Helvetica,sans-Serif" font-size="10.00">stack</text>
</a>
</g>
</g>
<!-- Node6&#45;&gt;Node18 -->
<g id="edge17_Node000006_Node000018" class="edge">
<title>Node6&#45;&gt;Node18</title>
<g id="a_edge17_Node000006_Node000018"><a xlink:title=" ">
<path fill="none" stroke="#63b8ff" d="M553.04,-109.98C587.53,-100.21 643.82,-84.26 678.79,-74.35"/>
<polygon fill="#63b8ff" stroke="#63b8ff" points="679.82,-77.69 688.48,-71.6 677.91,-70.96 679.82,-77.69"/>
</a>
</g>
</g>
<!-- Node19 -->
<g id="Node000019" class="node">
<title>Node19</title>
<g id="a_Node000019"><a xlink:title=" ">
<polygon fill="#e0e0e0" stroke="#999999" points="814.5,-74 749.5,-74 749.5,-55 814.5,-55 814.5,-74"/>
<text text-anchor="middle" x="782" y="-62" font-family="Helvetica,sans-Serif" font-size="10.00">stdexcept</text>
</a>
</g>
</g>
<!-- Node6&#45;&gt;Node19 -->
<g id="edge18_Node000006_Node000019" class="edge">
<title>Node6&#45;&gt;Node19</title>
<g id="a_edge18_Node000006_Node000019"><a xlink:title=" ">
<path fill="none" stroke="#63b8ff" d="M565.21,-109.92C606.98,-101.43 673.05,-87.97 739.15,-74.38"/>
<polygon fill="#63b8ff" stroke="#63b8ff" points="740.24,-77.73 749.33,-72.28 738.83,-70.87 740.24,-77.73"/>
</a>
</g>
</g>
<!-- Node20 -->
<g id="Node000020" class="node">
<title>Node20</title>
<g id="a_Node000020"><a xlink:title=" ">
<polygon fill="#e0e0e0" stroke="#999999" points="877.5,-74 832.5,-74 832.5,-55 877.5,-55 877.5,-74"/>
<text text-anchor="middle" x="855" y="-62" font-family="Helvetica,sans-Serif" font-size="10.00">utility</text>
</a>
</g>
</g>
<!-- Node6&#45;&gt;Node20 -->
<g id="edge21_Node000006_Node000020" class="edge">
<title>Node6&#45;&gt;Node20</title>
<g id="a_edge21_Node000006_Node000020"><a xlink:title=" ">
<path fill="none" stroke="#63b8ff" d="M566.12,-111.39C569.12,-110.91 572.11,-110.45 575,-110 682.38,-93.46 712.83,-96.63 822.59,-74.08"/>
<polygon fill="#63b8ff" stroke="#63b8ff" points="823.31,-77.51 832.39,-72.05 821.89,-70.66 823.31,-77.51"/>
</a>
</g>
</g>
<!-- Node21 -->
<g id="Node000021" class="node">
<title>Node21</title>
<g id="a_Node000021"><a xlink:title=" ">
<polygon fill="#e0e0e0" stroke="#999999" points="942.5,-74 895.5,-74 895.5,-55 942.5,-55 942.5,-74"/>
<text text-anchor="middle" x="919" y="-62" font-family="Helvetica,sans-Serif" font-size="10.00">vector</text>
</a>
</g>
</g>
<!-- Node6&#45;&gt;Node21 -->
<g id="edge22_Node000006_Node000021" class="edge">
<title>Node6&#45;&gt;Node21</title>
<g id="a_edge22_Node000006_Node000021"><a xlink:title=" ">
<path fill="none" stroke="#63b8ff" d="M566.11,-111.29C569.11,-110.84 572.1,-110.4 575,-110 710.01,-91.19 748.08,-99.57 885.27,-74.09"/>
<polygon fill="#63b8ff" stroke="#63b8ff" points="886.14,-77.49 895.32,-72.2 884.85,-70.61 886.14,-77.49"/>
</a>
</g>
</g>
<!-- Node8 -->
<g id="Node000008" class="node">
<title>Node8</title>
<g id="a_Node000008"><a xlink:href="defines_8hxx_source.html" target="_top" xlink:title=" ">
<polygon fill="white" stroke="#666666" points="135.5,-19 62.5,-19 62.5,0 135.5,0 135.5,-19"/>
<text text-anchor="middle" x="99" y="-7" font-family="Helvetica,sans-Serif" font-size="10.00">defines.hxx</text>
</a>
</g>
</g>
<!-- Node7&#45;&gt;Node8 -->
<g id="edge7_Node000007_Node000008" class="edge">
<title>Node7&#45;&gt;Node8</title>
<g id="a_edge7_Node000007_Node000008"><a xlink:title=" ">
<path fill="none" stroke="#63b8ff" d="M183.77,-54.98C167.82,-46.61 143.22,-33.7 124.62,-23.95"/>
<polygon fill="#63b8ff" stroke="#63b8ff" points="126,-20.72 115.52,-19.17 122.75,-26.92 126,-20.72"/>
</a>
</g>
</g>
<!-- Node7&#45;&gt;Node9 -->
<g id="edge8_Node000007_Node000009" class="edge">
<title>Node7&#45;&gt;Node9</title>
<g id="a_edge8_Node000007_Node000009"><a xlink:title=" ">
<path fill="none" stroke="#63b8ff" d="M171.4,-54.98C139.25,-45.41 87.19,-29.91 53.79,-19.96"/>
<polygon fill="#63b8ff" stroke="#63b8ff" points="54.65,-16.57 44.06,-17.07 52.65,-23.28 54.65,-16.57"/>
</a>
</g>
</g>
<!-- Node7&#45;&gt;Node10 -->
<g id="edge9_Node000007_Node000010" class="edge">
<title>Node7&#45;&gt;Node10</title>
<g id="a_edge9_Node000007_Node000010"><a xlink:title=" ">
<path fill="none" stroke="#63b8ff" d="M232.94,-54.98C267.95,-45.93 323.47,-31.58 361.93,-21.64"/>
<polygon fill="#63b8ff" stroke="#63b8ff" points="363,-24.97 371.81,-19.08 361.25,-18.2 363,-24.97"/>
</a>
</g>
</g>
<!-- Node11 -->
<g id="Node000011" class="node">
<title>Node11</title>
<g id="a_Node000011"><a xlink:title=" ">
<polygon fill="#e0e0e0" stroke="#999999" points="246,-19 154,-19 154,0 246,0 246,-19"/>
<text text-anchor="middle" x="200" y="-7" font-family="Helvetica,sans-Serif" font-size="10.00">unicode/utf16.h</text>
</a>
</g>
</g>
<!-- Node7&#45;&gt;Node11 -->
<g id="edge10_Node000007_Node000011" class="edge">
<title>Node7&#45;&gt;Node11</title>
<g id="a_edge10_Node000007_Node000011"><a xlink:title=" ">
<path fill="none" stroke="#63b8ff" d="M200,-54.75C200,-47.8 200,-37.85 200,-29.13"/>
<polygon fill="#63b8ff" stroke="#63b8ff" points="203.5,-29.09 200,-19.09 196.5,-29.09 203.5,-29.09"/>
</a>
</g>
</g>
<!-- Node12 -->
<g id="Node000012" class="node">
<title>Node12</title>
<g id="a_Node000012"><a xlink:title=" ">
<polygon fill="#e0e0e0" stroke="#999999" points="350,-19 264,-19 264,0 350,0 350,-19"/>
<text text-anchor="middle" x="307" y="-7" font-family="Helvetica,sans-Serif" font-size="10.00">unicode/utf8.h</text>
</a>
</g>
</g>
<!-- Node7&#45;&gt;Node12 -->
<g id="edge11_Node000007_Node000012" class="edge">
<title>Node7&#45;&gt;Node12</title>
<g id="a_edge11_Node000007_Node000012"><a xlink:title=" ">
<path fill="none" stroke="#63b8ff" d="M217.19,-54.98C234.25,-46.54 260.63,-33.47 280.4,-23.68"/>
<polygon fill="#63b8ff" stroke="#63b8ff" points="282.09,-26.75 289.5,-19.17 278.98,-20.47 282.09,-26.75"/>
</a>
</g>
</g>
</g>
</svg>
