<?xml version="1.0" encoding="UTF-8" standalone="no"?>
<!DOCTYPE svg PUBLIC "-//W3C//DTD SVG 1.1//EN"
 "http://www.w3.org/Graphics/SVG/1.1/DTD/svg11.dtd">
<!-- Generated by graphviz version 2.40.1 (20161225.0304)
 -->
<!-- Title: src/nuspell/dictionary.hxx Pages: 1 -->
<svg width="1104pt" height="207pt"
 viewBox="0.00 0.00 1104.00 207.00" xmlns="http://www.w3.org/2000/svg" xmlns:xlink="http://www.w3.org/1999/xlink">
<g id="graph0" class="graph" transform="scale(1 1) rotate(0) translate(4 203)">
<title>src/nuspell/dictionary.hxx</title>
<polygon fill="#ffffff" stroke="transparent" points="-4,4 -4,-203 1100,-203 1100,4 -4,4"/>
<!-- Node0 -->
<g id="node1" class="node">
<title>Node0</title>
<polygon fill="#bfbfbf" stroke="#000000" points="935,-179.5 935,-198.5 1063,-198.5 1063,-179.5 935,-179.5"/>
<text text-anchor="middle" x="999" y="-186.5" font-family="Helvetica,sans-Serif" font-size="10.00" fill="#000000">src/nuspell/dictionary.hxx</text>
</g>
<!-- Node1 -->
<g id="node2" class="node">
<title>Node1</title>
<g id="a_node2"><a xlink:href="aff__data_8hxx.html" target="_top" xlink:title="Affixing data structures. ">
<polygon fill="#ffffff" stroke="#000000" points="737.5,-123.5 737.5,-142.5 808.5,-142.5 808.5,-123.5 737.5,-123.5"/>
<text text-anchor="middle" x="773" y="-130.5" font-family="Helvetica,sans-Serif" font-size="10.00" fill="#000000">aff_data.hxx</text>
</a>
</g>
</g>
<!-- Node0&#45;&gt;Node1 -->
<g id="edge1" class="edge">
<title>Node0&#45;&gt;Node1</title>
<path fill="none" stroke="#191970" d="M960.406,-179.4369C921.1563,-169.7113 860.3471,-154.6435 818.7099,-144.3264"/>
<polygon fill="#191970" stroke="#191970" points="819.3728,-140.8848 808.8245,-141.8769 817.6891,-147.6793 819.3728,-140.8848"/>
</g>
<!-- Node7 -->
<g id="node8" class="node">
<title>Node7</title>
<g id="a_node8"><a xlink:href="locale__utils_8hxx.html" target="_top" xlink:title="Encoding transformations. ">
<polygon fill="#ffffff" stroke="#000000" points="906,-67.5 906,-86.5 990,-86.5 990,-67.5 906,-67.5"/>
<text text-anchor="middle" x="948" y="-74.5" font-family="Helvetica,sans-Serif" font-size="10.00" fill="#000000">locale_utils.hxx</text>
</a>
</g>
</g>
<!-- Node0&#45;&gt;Node7 -->
<g id="edge22" class="edge">
<title>Node0&#45;&gt;Node7</title>
<path fill="none" stroke="#191970" d="M994.6518,-179.4509C986.2209,-160.936 967.5162,-119.8591 956.5237,-95.7187"/>
<polygon fill="#191970" stroke="#191970" points="959.6667,-94.1753 952.3372,-86.5249 953.2961,-97.0762 959.6667,-94.1753"/>
</g>
<!-- Node8 -->
<g id="node9" class="node">
<title>Node8</title>
<polygon fill="#ffffff" stroke="#bfbfbf" points="992,-6 992,-25 1034,-25 1034,-6 992,-6"/>
<text text-anchor="middle" x="1013" y="-13" font-family="Helvetica,sans-Serif" font-size="10.00" fill="#000000">locale</text>
</g>
<!-- Node0&#45;&gt;Node8 -->
<g id="edge24" class="edge">
<title>Node0&#45;&gt;Node8</title>
<path fill="none" stroke="#191970" d="M999.7726,-179.4248C1001.9857,-151.999 1008.3819,-72.732 1011.3945,-35.3964"/>
<polygon fill="#191970" stroke="#191970" points="1014.8968,-35.5087 1012.2125,-25.2595 1007.9194,-34.9456 1014.8968,-35.5087"/>
</g>
<!-- Node18 -->
<g id="node19" class="node">
<title>Node18</title>
<polygon fill="#ffffff" stroke="#bfbfbf" points="1046,-123.5 1046,-142.5 1096,-142.5 1096,-123.5 1046,-123.5"/>
<text text-anchor="middle" x="1071" y="-130.5" font-family="Helvetica,sans-Serif" font-size="10.00" fill="#000000">fstream</text>
</g>
<!-- Node0&#45;&gt;Node18 -->
<g id="edge23" class="edge">
<title>Node0&#45;&gt;Node18</title>
<path fill="none" stroke="#191970" d="M1011.5414,-179.2455C1022.2787,-170.8943 1037.9473,-158.7076 1050.5047,-148.9408"/>
<polygon fill="#191970" stroke="#191970" points="1052.8575,-151.5449 1058.6023,-142.6427 1048.5599,-146.0194 1052.8575,-151.5449"/>
</g>
<!-- Node2 -->
<g id="node3" class="node">
<title>Node2</title>
<polygon fill="#ffffff" stroke="#bfbfbf" points="567.5,-67.5 567.5,-86.5 612.5,-86.5 612.5,-67.5 567.5,-67.5"/>
<text text-anchor="middle" x="590" y="-74.5" font-family="Helvetica,sans-Serif" font-size="10.00" fill="#000000">iosfwd</text>
</g>
<!-- Node1&#45;&gt;Node2 -->
<g id="edge2" class="edge">
<title>Node1&#45;&gt;Node2</title>
<path fill="none" stroke="#191970" d="M741.4562,-123.4626C712.8636,-114.8016 669.3151,-101.571 622.4491,-87.124"/>
<polygon fill="#191970" stroke="#191970" points="623.3068,-83.7259 612.7194,-84.1219 621.2429,-90.4147 623.3068,-83.7259"/>
</g>
<!-- Node3 -->
<g id="node4" class="node">
<title>Node3</title>
<polygon fill="#ffffff" stroke="#bfbfbf" points="927.5,-6 927.5,-25 968.5,-25 968.5,-6 927.5,-6"/>
<text text-anchor="middle" x="948" y="-13" font-family="Helvetica,sans-Serif" font-size="10.00" fill="#000000">string</text>
</g>
<!-- Node1&#45;&gt;Node3 -->
<g id="edge3" class="edge">
<title>Node1&#45;&gt;Node3</title>
<path fill="none" stroke="#191970" d="M793.417,-123.4187C811.2359,-114.7462 837.5283,-101.19 859,-87 884.7202,-70.0023 912.0423,-47.2637 929.5242,-32.0359"/>
<polygon fill="#191970" stroke="#191970" points="932.0718,-34.4563 937.2656,-25.2219 927.4467,-29.2018 932.0718,-34.4563"/>
</g>
<!-- Node4 -->
<g id="node5" class="node">
<title>Node4</title>
<polygon fill="#ffffff" stroke="#bfbfbf" points="766.5,-67.5 766.5,-86.5 849.5,-86.5 849.5,-67.5 766.5,-67.5"/>
<text text-anchor="middle" x="808" y="-74.5" font-family="Helvetica,sans-Serif" font-size="10.00" fill="#000000">unordered_map</text>
</g>
<!-- Node1&#45;&gt;Node4 -->
<g id="edge4" class="edge">
<title>Node1&#45;&gt;Node4</title>
<path fill="none" stroke="#191970" d="M779.0965,-123.2455C783.9145,-115.5367 790.7751,-104.5598 796.6032,-95.2348"/>
<polygon fill="#191970" stroke="#191970" points="799.6413,-96.9777 801.9733,-86.6427 793.7053,-93.2677 799.6413,-96.9777"/>
</g>
<!-- Node5 -->
<g id="node6" class="node">
<title>Node5</title>
<polygon fill="#ffffff" stroke="#bfbfbf" points="869,-6 869,-25 909,-25 909,-6 869,-6"/>
<text text-anchor="middle" x="889" y="-13" font-family="Helvetica,sans-Serif" font-size="10.00" fill="#000000">utility</text>
</g>
<!-- Node1&#45;&gt;Node5 -->
<g id="edge5" class="edge">
<title>Node1&#45;&gt;Node5</title>
<path fill="none" stroke="#191970" d="M766.3066,-123.1078C757.8904,-109.3131 745.9195,-84.0745 758,-67 785.7662,-27.7553 816.0081,-50.3861 860,-31 860.9926,-30.5626 861.9975,-30.1048 863.0076,-29.6319"/>
<polygon fill="#191970" stroke="#191970" points="864.6586,-32.7196 872.0386,-25.1179 861.5289,-26.4582 864.6586,-32.7196"/>
</g>
<!-- Node6 -->
<g id="node7" class="node">
<title>Node6</title>
<polygon fill="#ffffff" stroke="#bfbfbf" points="0,-6 0,-25 44,-25 44,-6 0,-6"/>
<text text-anchor="middle" x="22" y="-13" font-family="Helvetica,sans-Serif" font-size="10.00" fill="#000000">vector</text>
</g>
<!-- Node1&#45;&gt;Node6 -->
<g id="edge6" class="edge">
<title>Node1&#45;&gt;Node6</title>
<path fill="none" stroke="#191970" d="M737.2753,-131.9881C630.761,-128.1212 307.0116,-110.1846 53,-31 51.3413,-30.4829 49.6623,-29.8853 47.9888,-29.2318"/>
<polygon fill="#191970" stroke="#191970" points="49.2001,-25.9395 38.6426,-25.0516 46.3421,-32.3295 49.2001,-25.9395"/>
</g>
<!-- Node1&#45;&gt;Node7 -->
<g id="edge7" class="edge">
<title>Node1&#45;&gt;Node7</title>
<path fill="none" stroke="#191970" d="M803.0836,-123.3733C832.1834,-114.0613 876.4523,-99.8953 908.403,-89.671"/>
<polygon fill="#191970" stroke="#191970" points="909.8515,-92.8824 918.309,-86.5011 907.718,-86.2155 909.8515,-92.8824"/>
</g>
<!-- Node9 -->
<g id="node10" class="node">
<title>Node9</title>
<g id="a_node10"><a xlink:href="structures_8hxx.html" target="_top" xlink:title="Data structures. ">
<polygon fill="#ffffff" stroke="#000000" points="630.5,-67.5 630.5,-86.5 709.5,-86.5 709.5,-67.5 630.5,-67.5"/>
<text text-anchor="middle" x="670" y="-74.5" font-family="Helvetica,sans-Serif" font-size="10.00" fill="#000000">structures.hxx</text>
</a>
</g>
</g>
<!-- Node1&#45;&gt;Node9 -->
<g id="edge10" class="edge">
<title>Node1&#45;&gt;Node9</title>
<path fill="none" stroke="#191970" d="M755.0588,-123.2455C738.96,-114.4928 715.1121,-101.527 696.7609,-91.5496"/>
<polygon fill="#191970" stroke="#191970" points="698.1929,-88.3444 687.7356,-86.6427 694.8493,-94.4942 698.1929,-88.3444"/>
</g>
<!-- Node7&#45;&gt;Node3 -->
<g id="edge9" class="edge">
<title>Node7&#45;&gt;Node3</title>
<path fill="none" stroke="#191970" d="M948,-67.3906C948,-58.8657 948,-46.1392 948,-35.4235"/>
<polygon fill="#191970" stroke="#191970" points="951.5001,-35.2448 948,-25.2449 944.5001,-35.2449 951.5001,-35.2448"/>
</g>
<!-- Node7&#45;&gt;Node8 -->
<g id="edge8" class="edge">
<title>Node7&#45;&gt;Node8</title>
<path fill="none" stroke="#191970" d="M958.1563,-67.3906C968.0199,-58.0581 983.2055,-43.6902 995.0987,-32.4374"/>
<polygon fill="#191970" stroke="#191970" points="997.8421,-34.6601 1002.7006,-25.2449 993.0311,-29.5753 997.8421,-34.6601"/>
</g>
<!-- Node9&#45;&gt;Node3 -->
<g id="edge15" class="edge">
<title>Node9&#45;&gt;Node3</title>
<path fill="none" stroke="#191970" d="M709.7504,-71.0805C769.6545,-61.914 880.0961,-43.9892 918,-31 919.4211,-30.513 920.8583,-29.9682 922.2942,-29.382"/>
<polygon fill="#191970" stroke="#191970" points="923.9619,-32.4669 931.5648,-25.0881 921.0198,-26.1151 923.9619,-32.4669"/>
</g>
<!-- Node9&#45;&gt;Node5 -->
<g id="edge16" class="edge">
<title>Node9&#45;&gt;Node5</title>
<path fill="none" stroke="#191970" d="M709.5482,-68.6615C756.7766,-58.4879 832.806,-41.3663 860,-31 861.2002,-30.5425 862.4135,-30.0456 863.6282,-29.5199"/>
<polygon fill="#191970" stroke="#191970" points="865.2965,-32.6011 872.7772,-25.0984 862.2505,-26.2985 865.2965,-32.6011"/>
</g>
<!-- Node9&#45;&gt;Node6 -->
<g id="edge17" class="edge">
<title>Node9&#45;&gt;Node6</title>
<path fill="none" stroke="#191970" d="M630.2627,-68.2674C627.4739,-67.7945 624.6994,-67.3647 622,-67 370.8869,-33.0738 297.654,-96.979 53,-31 51.2825,-30.5368 49.5483,-29.9739 47.8241,-29.3405"/>
<polygon fill="#191970" stroke="#191970" points="48.8095,-25.9511 38.2453,-25.145 46.001,-32.3631 48.8095,-25.9511"/>
</g>
<!-- Node10 -->
<g id="node11" class="node">
<title>Node10</title>
<polygon fill="#ffffff" stroke="#bfbfbf" points="590,-6 590,-25 646,-25 646,-6 590,-6"/>
<text text-anchor="middle" x="618" y="-13" font-family="Helvetica,sans-Serif" font-size="10.00" fill="#000000">algorithm</text>
</g>
<!-- Node9&#45;&gt;Node10 -->
<g id="edge11" class="edge">
<title>Node9&#45;&gt;Node10</title>
<path fill="none" stroke="#191970" d="M661.875,-67.3906C654.1358,-58.2376 642.3013,-44.2409 632.8728,-33.09"/>
<polygon fill="#191970" stroke="#191970" points="635.3689,-30.6213 626.2396,-25.2449 630.0235,-35.1409 635.3689,-30.6213"/>
</g>
<!-- Node11 -->
<g id="node12" class="node">
<title>Node11</title>
<polygon fill="#ffffff" stroke="#bfbfbf" points="664,-6 664,-25 708,-25 708,-6 664,-6"/>
<text text-anchor="middle" x="686" y="-13" font-family="Helvetica,sans-Serif" font-size="10.00" fill="#000000">cmath</text>
</g>
<!-- Node9&#45;&gt;Node11 -->
<g id="edge12" class="edge">
<title>Node9&#45;&gt;Node11</title>
<path fill="none" stroke="#191970" d="M672.5,-67.3906C674.7412,-58.776 678.0986,-45.8708 680.9045,-35.0858"/>
<polygon fill="#191970" stroke="#191970" points="684.3341,-35.804 683.4648,-25.2449 677.5596,-34.0414 684.3341,-35.804"/>
</g>
<!-- Node12 -->
<g id="node13" class="node">
<title>Node12</title>
<polygon fill="#ffffff" stroke="#bfbfbf" points="726.5,-6 726.5,-25 773.5,-25 773.5,-6 726.5,-6"/>
<text text-anchor="middle" x="750" y="-13" font-family="Helvetica,sans-Serif" font-size="10.00" fill="#000000">iterator</text>
</g>
<!-- Node9&#45;&gt;Node12 -->
<g id="edge13" class="edge">
<title>Node9&#45;&gt;Node12</title>
<path fill="none" stroke="#191970" d="M682.5,-67.3906C695.0636,-57.7324 714.6423,-42.6812 729.4849,-31.271"/>
<polygon fill="#191970" stroke="#191970" points="731.7928,-33.9115 737.5878,-25.0419 727.5265,-28.3618 731.7928,-33.9115"/>
</g>
<!-- Node13 -->
<g id="node14" class="node">
<title>Node13</title>
<polygon fill="#ffffff" stroke="#bfbfbf" points="791.5,-6 791.5,-25 850.5,-25 850.5,-6 791.5,-6"/>
<text text-anchor="middle" x="821" y="-13" font-family="Helvetica,sans-Serif" font-size="10.00" fill="#000000">stdexcept</text>
</g>
<!-- Node9&#45;&gt;Node13 -->
<g id="edge14" class="edge">
<title>Node9&#45;&gt;Node13</title>
<path fill="none" stroke="#191970" d="M693.3752,-67.49C716.2277,-58.1913 752.0079,-43.6289 783,-31 784.633,-30.3346 786.3055,-29.6529 787.9945,-28.9644"/>
<polygon fill="#191970" stroke="#191970" points="789.7511,-32.028 797.6894,-25.0113 787.1081,-25.5461 789.7511,-32.028"/>
</g>
<!-- Node14 -->
<g id="node15" class="node">
<title>Node14</title>
<polygon fill="#ffffff" stroke="#bfbfbf" points="62,-.5 62,-30.5 172,-30.5 172,-.5 62,-.5"/>
<text text-anchor="start" x="70" y="-18.5" font-family="Helvetica,sans-Serif" font-size="10.00" fill="#000000">boost/container/small</text>
<text text-anchor="middle" x="117" y="-7.5" font-family="Helvetica,sans-Serif" font-size="10.00" fill="#000000">_vector.hpp</text>
</g>
<!-- Node9&#45;&gt;Node14 -->
<g id="edge18" class="edge">
<title>Node9&#45;&gt;Node14</title>
<path fill="none" stroke="#191970" d="M630.2548,-68.3239C627.4679,-67.8376 624.696,-67.3893 622,-67 430.5984,-39.3587 376.9277,-61.4784 182.0394,-30.9985"/>
<polygon fill="#191970" stroke="#191970" points="182.4728,-27.5235 172.0471,-29.4094 181.3733,-34.4367 182.4728,-27.5235"/>
</g>
<!-- Node15 -->
<g id="node16" class="node">
<title>Node15</title>
<polygon fill="#ffffff" stroke="#bfbfbf" points="190,-6 190,-25 340,-25 340,-6 190,-6"/>
<text text-anchor="middle" x="265" y="-13" font-family="Helvetica,sans-Serif" font-size="10.00" fill="#000000">boost/multi_index/member.hpp</text>
</g>
<!-- Node9&#45;&gt;Node15 -->
<g id="edge19" class="edge">
<title>Node9&#45;&gt;Node15</title>
<path fill="none" stroke="#191970" d="M630.4912,-68.528C627.6222,-67.9869 624.7693,-67.4711 622,-67 501.7837,-46.5507 470.4627,-49.9436 350,-31 341.7991,-29.7103 333.1714,-28.2539 324.6847,-26.763"/>
<polygon fill="#191970" stroke="#191970" points="325.28,-23.314 314.821,-25.005 324.0517,-30.2054 325.28,-23.314"/>
</g>
<!-- Node16 -->
<g id="node17" class="node">
<title>Node16</title>
<polygon fill="#ffffff" stroke="#bfbfbf" points="358.5,-.5 358.5,-30.5 459.5,-30.5 459.5,-.5 358.5,-.5"/>
<text text-anchor="start" x="366.5" y="-18.5" font-family="Helvetica,sans-Serif" font-size="10.00" fill="#000000">boost/range/iterator</text>
<text text-anchor="middle" x="409" y="-7.5" font-family="Helvetica,sans-Serif" font-size="10.00" fill="#000000">_range_core.hpp</text>
</g>
<!-- Node9&#45;&gt;Node16 -->
<g id="edge20" class="edge">
<title>Node9&#45;&gt;Node16</title>
<path fill="none" stroke="#191970" d="M630.2599,-68.2476C591.719,-59.683 531.3462,-46.067 469.6279,-31.1171"/>
<polygon fill="#191970" stroke="#191970" points="470.2579,-27.6684 459.7141,-28.7069 468.6042,-34.4703 470.2579,-27.6684"/>
</g>
<!-- Node17 -->
<g id="node18" class="node">
<title>Node17</title>
<polygon fill="#ffffff" stroke="#bfbfbf" points="478,-.5 478,-30.5 572,-30.5 572,-.5 478,-.5"/>
<text text-anchor="start" x="486" y="-18.5" font-family="Helvetica,sans-Serif" font-size="10.00" fill="#000000">boost/utility/string</text>
<text text-anchor="middle" x="525" y="-7.5" font-family="Helvetica,sans-Serif" font-size="10.00" fill="#000000">_view.hpp</text>
</g>
<!-- Node9&#45;&gt;Node17 -->
<g id="edge21" class="edge">
<title>Node9&#45;&gt;Node17</title>
<path fill="none" stroke="#191970" d="M647.3438,-67.3906C626.7204,-58.6435 595.6677,-45.4728 570.0082,-34.5897"/>
<polygon fill="#191970" stroke="#191970" points="571.0438,-31.2272 560.471,-30.5446 568.3105,-37.6715 571.0438,-31.2272"/>
</g>
</g>
</svg>
