<?xml version="1.0" encoding="UTF-8" standalone="no"?>
<!DOCTYPE svg PUBLIC "-//W3C//DTD SVG 1.1//EN"
 "http://www.w3.org/Graphics/SVG/1.1/DTD/svg11.dtd">
<!-- Generated by graphviz version 2.43.0 (0)
 -->
<!-- Title: src/nuspell/dictionary.hxx Pages: 1 -->
<svg width="868pt" height="364pt"
 viewBox="0.00 0.00 867.50 364.00" xmlns="http://www.w3.org/2000/svg" xmlns:xlink="http://www.w3.org/1999/xlink">
<g id="graph0" class="graph" transform="scale(1 1) rotate(0) translate(4 360)">
<title>src/nuspell/dictionary.hxx</title>
<polygon fill="white" stroke="transparent" points="-4,4 -4,-360 863.5,-360 863.5,4 -4,4"/>
<!-- Node1 -->
<g id="node1" class="node">
<title>Node1</title>
<g id="a_node1"><a xlink:title="Dictionary spelling.">
<polygon fill="#bfbfbf" stroke="black" points="460,-336.5 460,-355.5 600,-355.5 600,-336.5 460,-336.5"/>
<text text-anchor="middle" x="530" y="-343.5" font-family="Helvetica,sans-Serif" font-size="10.00">src/nuspell/dictionary.hxx</text>
</a>
</g>
</g>
<!-- Node2 -->
<g id="node2" class="node">
<title>Node2</title>
<g id="a_node2"><a xlink:href="suggester_8hxx_source.html" target="_top" xlink:title=" ">
<polygon fill="white" stroke="black" points="440,-280.5 440,-299.5 526,-299.5 526,-280.5 440,-280.5"/>
<text text-anchor="middle" x="483" y="-287.5" font-family="Helvetica,sans-Serif" font-size="10.00">suggester.hxx</text>
</a>
</g>
</g>
<!-- Node1&#45;&gt;Node2 -->
<g id="edge1" class="edge">
<title>Node1&#45;&gt;Node2</title>
<path fill="none" stroke="midnightblue" d="M522.24,-336.08C515.46,-328.3 505.46,-316.8 497.24,-307.37"/>
<polygon fill="midnightblue" stroke="midnightblue" points="499.82,-305 490.62,-299.75 494.54,-309.59 499.82,-305"/>
</g>
<!-- Node23 -->
<g id="node23" class="node">
<title>Node23</title>
<g id="a_node23"><a xlink:title=" ">
<polygon fill="white" stroke="#bfbfbf" points="544,-280.5 544,-299.5 612,-299.5 612,-280.5 544,-280.5"/>
<text text-anchor="middle" x="578" y="-287.5" font-family="Helvetica,sans-Serif" font-size="10.00">filesystem</text>
</a>
</g>
</g>
<!-- Node1&#45;&gt;Node23 -->
<g id="edge24" class="edge">
<title>Node1&#45;&gt;Node23</title>
<path fill="none" stroke="midnightblue" d="M537.93,-336.08C544.85,-328.3 555.07,-316.8 563.45,-307.37"/>
<polygon fill="midnightblue" stroke="midnightblue" points="566.19,-309.55 570.22,-299.75 560.96,-304.9 566.19,-309.55"/>
</g>
<!-- Node3 -->
<g id="node3" class="node">
<title>Node3</title>
<g id="a_node3"><a xlink:href="checker_8hxx_source.html" target="_top" xlink:title=" ">
<polygon fill="white" stroke="black" points="445.5,-224.5 445.5,-243.5 520.5,-243.5 520.5,-224.5 445.5,-224.5"/>
<text text-anchor="middle" x="483" y="-231.5" font-family="Helvetica,sans-Serif" font-size="10.00">checker.hxx</text>
</a>
</g>
</g>
<!-- Node2&#45;&gt;Node3 -->
<g id="edge2" class="edge">
<title>Node2&#45;&gt;Node3</title>
<path fill="none" stroke="midnightblue" d="M483,-280.08C483,-273.01 483,-262.86 483,-253.99"/>
<polygon fill="midnightblue" stroke="midnightblue" points="486.5,-253.75 483,-243.75 479.5,-253.75 486.5,-253.75"/>
</g>
<!-- Node4 -->
<g id="node4" class="node">
<title>Node4</title>
<g id="a_node4"><a xlink:href="aff__data_8hxx_source.html" target="_top" xlink:title=" ">
<polygon fill="white" stroke="black" points="444,-168.5 444,-187.5 522,-187.5 522,-168.5 444,-168.5"/>
<text text-anchor="middle" x="483" y="-175.5" font-family="Helvetica,sans-Serif" font-size="10.00">aff_data.hxx</text>
</a>
</g>
</g>
<!-- Node3&#45;&gt;Node4 -->
<g id="edge3" class="edge">
<title>Node3&#45;&gt;Node4</title>
<path fill="none" stroke="midnightblue" d="M483,-224.08C483,-217.01 483,-206.86 483,-197.99"/>
<polygon fill="midnightblue" stroke="midnightblue" points="486.5,-197.75 483,-187.75 479.5,-197.75 486.5,-197.75"/>
</g>
<!-- Node5 -->
<g id="node5" class="node">
<title>Node5</title>
<g id="a_node5"><a xlink:title=" ">
<polygon fill="white" stroke="#bfbfbf" points="281,-112.5 281,-131.5 379,-131.5 379,-112.5 281,-112.5"/>
<text text-anchor="middle" x="330" y="-119.5" font-family="Helvetica,sans-Serif" font-size="10.00">nuspell_export.h</text>
</a>
</g>
</g>
<!-- Node4&#45;&gt;Node5 -->
<g id="edge4" class="edge">
<title>Node4&#45;&gt;Node5</title>
<path fill="none" stroke="midnightblue" d="M458.76,-168.44C433.13,-159.4 392.51,-145.06 363.76,-134.92"/>
<polygon fill="midnightblue" stroke="midnightblue" points="364.72,-131.54 354.13,-131.52 362.39,-138.15 364.72,-131.54"/>
</g>
<!-- Node6 -->
<g id="node6" class="node">
<title>Node6</title>
<g id="a_node6"><a xlink:href="structures_8hxx_source.html" target="_top" xlink:title=" ">
<polygon fill="white" stroke="black" points="397,-112.5 397,-131.5 483,-131.5 483,-112.5 397,-112.5"/>
<text text-anchor="middle" x="440" y="-119.5" font-family="Helvetica,sans-Serif" font-size="10.00">structures.hxx</text>
</a>
</g>
</g>
<!-- Node4&#45;&gt;Node6 -->
<g id="edge5" class="edge">
<title>Node4&#45;&gt;Node6</title>
<path fill="none" stroke="midnightblue" d="M475.9,-168.08C469.76,-160.38 460.73,-149.03 453.26,-139.65"/>
<polygon fill="midnightblue" stroke="midnightblue" points="455.94,-137.39 446.97,-131.75 450.46,-141.75 455.94,-137.39"/>
</g>
<!-- Node21 -->
<g id="node21" class="node">
<title>Node21</title>
<g id="a_node21"><a xlink:title=" ">
<polygon fill="white" stroke="#bfbfbf" points="501.5,-112.5 501.5,-131.5 550.5,-131.5 550.5,-112.5 501.5,-112.5"/>
<text text-anchor="middle" x="526" y="-119.5" font-family="Helvetica,sans-Serif" font-size="10.00">iosfwd</text>
</a>
</g>
</g>
<!-- Node4&#45;&gt;Node21 -->
<g id="edge22" class="edge">
<title>Node4&#45;&gt;Node21</title>
<path fill="none" stroke="midnightblue" d="M490.1,-168.08C496.24,-160.38 505.27,-149.03 512.74,-139.65"/>
<polygon fill="midnightblue" stroke="midnightblue" points="515.54,-141.75 519.03,-131.75 510.06,-137.39 515.54,-141.75"/>
</g>
<!-- Node22 -->
<g id="node22" class="node">
<title>Node22</title>
<g id="a_node22"><a xlink:title=" ">
<polygon fill="white" stroke="#bfbfbf" points="569,-112.5 569,-131.5 659,-131.5 659,-112.5 569,-112.5"/>
<text text-anchor="middle" x="614" y="-119.5" font-family="Helvetica,sans-Serif" font-size="10.00">unicode/locid.h</text>
</a>
</g>
</g>
<!-- Node4&#45;&gt;Node22 -->
<g id="edge23" class="edge">
<title>Node4&#45;&gt;Node22</title>
<path fill="none" stroke="midnightblue" d="M503.76,-168.44C525.32,-159.56 559.26,-145.56 583.79,-135.45"/>
<polygon fill="midnightblue" stroke="midnightblue" points="585.43,-138.56 593.34,-131.52 582.76,-132.09 585.43,-138.56"/>
</g>
<!-- Node7 -->
<g id="node7" class="node">
<title>Node7</title>
<g id="a_node7"><a xlink:href="unicode_8hxx_source.html" target="_top" xlink:title=" ">
<polygon fill="white" stroke="black" points="117,-56.5 117,-75.5 193,-75.5 193,-56.5 117,-56.5"/>
<text text-anchor="middle" x="155" y="-63.5" font-family="Helvetica,sans-Serif" font-size="10.00">unicode.hxx</text>
</a>
</g>
</g>
<!-- Node6&#45;&gt;Node7 -->
<g id="edge6" class="edge">
<title>Node6&#45;&gt;Node7</title>
<path fill="none" stroke="midnightblue" d="M397,-112.9C351.38,-104.3 276.91,-90.24 203.15,-76.21"/>
<polygon fill="midnightblue" stroke="midnightblue" points="203.7,-72.76 193.22,-74.33 202.39,-79.63 203.7,-72.76"/>
</g>
<!-- Node8 -->
<g id="node8" class="node">
<title>Node8</title>
<g id="a_node8"><a xlink:title=" ">
<polygon fill="white" stroke="#bfbfbf" points="0,-0.5 0,-19.5 44,-19.5 44,-0.5 0,-0.5"/>
<text text-anchor="middle" x="22" y="-7.5" font-family="Helvetica,sans-Serif" font-size="10.00">string</text>
</a>
</g>
</g>
<!-- Node6&#45;&gt;Node8 -->
<g id="edge18" class="edge">
<title>Node6&#45;&gt;Node8</title>
<path fill="none" stroke="midnightblue" d="M396.9,-113.37C393.89,-112.89 390.9,-112.43 388,-112 257.33,-92.73 212.98,-131.23 93,-76 69.14,-65.02 47.82,-43.02 34.91,-27.68"/>
<polygon fill="midnightblue" stroke="midnightblue" points="37.34,-25.11 28.33,-19.54 31.9,-29.52 37.34,-25.11"/>
</g>
<!-- Node9 -->
<g id="node9" class="node">
<title>Node9</title>
<g id="a_node9"><a xlink:title=" ">
<polygon fill="white" stroke="#bfbfbf" points="62.5,-0.5 62.5,-19.5 135.5,-19.5 135.5,-0.5 62.5,-0.5"/>
<text text-anchor="middle" x="99" y="-7.5" font-family="Helvetica,sans-Serif" font-size="10.00">string_view</text>
</a>
</g>
</g>
<!-- Node6&#45;&gt;Node9 -->
<g id="edge19" class="edge">
<title>Node6&#45;&gt;Node9</title>
<path fill="none" stroke="midnightblue" d="M396.89,-113.39C393.89,-112.91 390.9,-112.44 388,-112 325.97,-102.65 152.57,-120.14 108,-76 96,-64.12 94.88,-44.21 96.06,-29.55"/>
<polygon fill="midnightblue" stroke="midnightblue" points="99.54,-29.93 97.27,-19.58 92.59,-29.08 99.54,-29.93"/>
</g>
<!-- Node12 -->
<g id="node12" class="node">
<title>Node12</title>
<g id="a_node12"><a xlink:title=" ">
<polygon fill="white" stroke="#bfbfbf" points="211,-56.5 211,-75.5 275,-75.5 275,-56.5 211,-56.5"/>
<text text-anchor="middle" x="243" y="-63.5" font-family="Helvetica,sans-Serif" font-size="10.00">algorithm</text>
</a>
</g>
</g>
<!-- Node6&#45;&gt;Node12 -->
<g id="edge11" class="edge">
<title>Node6&#45;&gt;Node12</title>
<path fill="none" stroke="midnightblue" d="M408.78,-112.44C375.07,-103.2 321.2,-88.44 284.07,-78.26"/>
<polygon fill="midnightblue" stroke="midnightblue" points="284.64,-74.78 274.07,-75.52 282.79,-81.54 284.64,-74.78"/>
</g>
<!-- Node13 -->
<g id="node13" class="node">
<title>Node13</title>
<g id="a_node13"><a xlink:title=" ">
<polygon fill="white" stroke="#bfbfbf" points="293.5,-56.5 293.5,-75.5 340.5,-75.5 340.5,-56.5 293.5,-56.5"/>
<text text-anchor="middle" x="317" y="-63.5" font-family="Helvetica,sans-Serif" font-size="10.00">cmath</text>
</a>
</g>
</g>
<!-- Node6&#45;&gt;Node13 -->
<g id="edge12" class="edge">
<title>Node6&#45;&gt;Node13</title>
<path fill="none" stroke="midnightblue" d="M420.51,-112.44C400.36,-103.6 368.68,-89.69 345.67,-79.59"/>
<polygon fill="midnightblue" stroke="midnightblue" points="346.96,-76.33 336.4,-75.52 344.15,-82.74 346.96,-76.33"/>
</g>
<!-- Node14 -->
<g id="node14" class="node">
<title>Node14</title>
<g id="a_node14"><a xlink:title=" ">
<polygon fill="white" stroke="#bfbfbf" points="359,-56.5 359,-75.5 433,-75.5 433,-56.5 359,-56.5"/>
<text text-anchor="middle" x="396" y="-63.5" font-family="Helvetica,sans-Serif" font-size="10.00">forward_list</text>
</a>
</g>
</g>
<!-- Node6&#45;&gt;Node14 -->
<g id="edge13" class="edge">
<title>Node6&#45;&gt;Node14</title>
<path fill="none" stroke="midnightblue" d="M432.73,-112.08C426.46,-104.38 417.21,-93.03 409.57,-83.65"/>
<polygon fill="midnightblue" stroke="midnightblue" points="412.16,-81.29 403.13,-75.75 406.73,-85.71 412.16,-81.29"/>
</g>
<!-- Node15 -->
<g id="node15" class="node">
<title>Node15</title>
<g id="a_node15"><a xlink:title=" ">
<polygon fill="white" stroke="#bfbfbf" points="451.5,-56.5 451.5,-75.5 516.5,-75.5 516.5,-56.5 451.5,-56.5"/>
<text text-anchor="middle" x="484" y="-63.5" font-family="Helvetica,sans-Serif" font-size="10.00">functional</text>
</a>
</g>
</g>
<!-- Node6&#45;&gt;Node15 -->
<g id="edge14" class="edge">
<title>Node6&#45;&gt;Node15</title>
<path fill="none" stroke="midnightblue" d="M447.27,-112.08C453.54,-104.38 462.79,-93.03 470.43,-83.65"/>
<polygon fill="midnightblue" stroke="midnightblue" points="473.27,-85.71 476.87,-75.75 467.84,-81.29 473.27,-85.71"/>
</g>
<!-- Node16 -->
<g id="node16" class="node">
<title>Node16</title>
<g id="a_node16"><a xlink:title=" ">
<polygon fill="white" stroke="#bfbfbf" points="534.5,-56.5 534.5,-75.5 587.5,-75.5 587.5,-56.5 534.5,-56.5"/>
<text text-anchor="middle" x="561" y="-63.5" font-family="Helvetica,sans-Serif" font-size="10.00">iterator</text>
</a>
</g>
</g>
<!-- Node6&#45;&gt;Node16 -->
<g id="edge15" class="edge">
<title>Node6&#45;&gt;Node16</title>
<path fill="none" stroke="midnightblue" d="M459.17,-112.44C478.91,-103.64 509.89,-89.81 532.49,-79.72"/>
<polygon fill="midnightblue" stroke="midnightblue" points="534.21,-82.79 541.92,-75.52 531.36,-76.4 534.21,-82.79"/>
</g>
<!-- Node17 -->
<g id="node17" class="node">
<title>Node17</title>
<g id="a_node17"><a xlink:title=" ">
<polygon fill="white" stroke="#bfbfbf" points="605.5,-56.5 605.5,-75.5 648.5,-75.5 648.5,-56.5 605.5,-56.5"/>
<text text-anchor="middle" x="627" y="-63.5" font-family="Helvetica,sans-Serif" font-size="10.00">stack</text>
</a>
</g>
</g>
<!-- Node6&#45;&gt;Node17 -->
<g id="edge16" class="edge">
<title>Node6&#45;&gt;Node17</title>
<path fill="none" stroke="midnightblue" d="M470.13,-112.48C499.78,-104.07 546.6,-90.73 595.56,-76.4"/>
<polygon fill="midnightblue" stroke="midnightblue" points="596.77,-79.69 605.38,-73.52 594.8,-72.98 596.77,-79.69"/>
</g>
<!-- Node18 -->
<g id="node18" class="node">
<title>Node18</title>
<g id="a_node18"><a xlink:title=" ">
<polygon fill="white" stroke="#bfbfbf" points="666.5,-56.5 666.5,-75.5 731.5,-75.5 731.5,-56.5 666.5,-56.5"/>
<text text-anchor="middle" x="699" y="-63.5" font-family="Helvetica,sans-Serif" font-size="10.00">stdexcept</text>
</a>
</g>
</g>
<!-- Node6&#45;&gt;Node18 -->
<g id="edge17" class="edge">
<title>Node6&#45;&gt;Node18</title>
<path fill="none" stroke="midnightblue" d="M482.23,-112.45C524.03,-103.94 590.11,-90.4 656.16,-76.37"/>
<polygon fill="midnightblue" stroke="midnightblue" points="657.28,-79.71 666.33,-74.21 655.82,-72.87 657.28,-79.71"/>
</g>
<!-- Node19 -->
<g id="node19" class="node">
<title>Node19</title>
<g id="a_node19"><a xlink:title=" ">
<polygon fill="white" stroke="#bfbfbf" points="749.5,-56.5 749.5,-75.5 794.5,-75.5 794.5,-56.5 749.5,-56.5"/>
<text text-anchor="middle" x="772" y="-63.5" font-family="Helvetica,sans-Serif" font-size="10.00">utility</text>
</a>
</g>
</g>
<!-- Node6&#45;&gt;Node19 -->
<g id="edge20" class="edge">
<title>Node6&#45;&gt;Node19</title>
<path fill="none" stroke="midnightblue" d="M483.08,-113.59C486.44,-113.05 489.77,-112.51 493,-112 599.8,-95.18 630.37,-99.31 739.32,-76.13"/>
<polygon fill="midnightblue" stroke="midnightblue" points="740.37,-79.48 749.41,-73.95 738.89,-72.64 740.37,-79.48"/>
</g>
<!-- Node20 -->
<g id="node20" class="node">
<title>Node20</title>
<g id="a_node20"><a xlink:title=" ">
<polygon fill="white" stroke="#bfbfbf" points="812.5,-56.5 812.5,-75.5 859.5,-75.5 859.5,-56.5 812.5,-56.5"/>
<text text-anchor="middle" x="836" y="-63.5" font-family="Helvetica,sans-Serif" font-size="10.00">vector</text>
</a>
</g>
</g>
<!-- Node6&#45;&gt;Node20 -->
<g id="edge21" class="edge">
<title>Node6&#45;&gt;Node20</title>
<path fill="none" stroke="midnightblue" d="M483.07,-113.49C486.43,-112.96 489.77,-112.46 493,-112 627.52,-92.81 665.71,-102.44 802.33,-76.07"/>
<polygon fill="midnightblue" stroke="midnightblue" points="803.2,-79.47 812.34,-74.11 801.85,-72.6 803.2,-79.47"/>
</g>
<!-- Node7&#45;&gt;Node8 -->
<g id="edge7" class="edge">
<title>Node7&#45;&gt;Node8</title>
<path fill="none" stroke="midnightblue" d="M133.93,-56.44C111.94,-47.52 77.27,-33.44 52.34,-23.32"/>
<polygon fill="midnightblue" stroke="midnightblue" points="53.56,-20.04 42.98,-19.52 50.92,-26.52 53.56,-20.04"/>
</g>
<!-- Node7&#45;&gt;Node9 -->
<g id="edge8" class="edge">
<title>Node7&#45;&gt;Node9</title>
<path fill="none" stroke="midnightblue" d="M146,-56.32C137.81,-48.42 125.49,-36.55 115.53,-26.94"/>
<polygon fill="midnightblue" stroke="midnightblue" points="117.79,-24.26 108.16,-19.83 112.93,-29.29 117.79,-24.26"/>
</g>
<!-- Node10 -->
<g id="node10" class="node">
<title>Node10</title>
<g id="a_node10"><a xlink:title=" ">
<polygon fill="white" stroke="#bfbfbf" points="154,-0.5 154,-19.5 246,-19.5 246,-0.5 154,-0.5"/>
<text text-anchor="middle" x="200" y="-7.5" font-family="Helvetica,sans-Serif" font-size="10.00">unicode/utf16.h</text>
</a>
</g>
</g>
<!-- Node7&#45;&gt;Node10 -->
<g id="edge9" class="edge">
<title>Node7&#45;&gt;Node10</title>
<path fill="none" stroke="midnightblue" d="M162.43,-56.08C168.85,-48.38 178.31,-37.03 186.12,-27.65"/>
<polygon fill="midnightblue" stroke="midnightblue" points="188.99,-29.67 192.71,-19.75 183.62,-25.19 188.99,-29.67"/>
</g>
<!-- Node11 -->
<g id="node11" class="node">
<title>Node11</title>
<g id="a_node11"><a xlink:title=" ">
<polygon fill="white" stroke="#bfbfbf" points="264,-0.5 264,-19.5 350,-19.5 350,-0.5 264,-0.5"/>
<text text-anchor="middle" x="307" y="-7.5" font-family="Helvetica,sans-Serif" font-size="10.00">unicode/utf8.h</text>
</a>
</g>
</g>
<!-- Node7&#45;&gt;Node11 -->
<g id="edge10" class="edge">
<title>Node7&#45;&gt;Node11</title>
<path fill="none" stroke="midnightblue" d="M179.08,-56.44C204.54,-47.4 244.89,-33.06 273.46,-22.92"/>
<polygon fill="midnightblue" stroke="midnightblue" points="274.78,-26.16 283.03,-19.52 272.43,-19.57 274.78,-26.16"/>
</g>
</g>
</svg>
