<?xml version="1.0" encoding="UTF-8" standalone="no"?>
<!DOCTYPE svg PUBLIC "-//W3C//DTD SVG 1.1//EN"
 "http://www.w3.org/Graphics/SVG/1.1/DTD/svg11.dtd">
<!-- Generated by graphviz version 2.40.1 (20161225.0304)
 -->
<!-- Title: src/nuspell/dictionary.cxx Pages: 1 -->
<svg width="1483pt" height="263pt"
 viewBox="0.00 0.00 1482.50 263.00" xmlns="http://www.w3.org/2000/svg" xmlns:xlink="http://www.w3.org/1999/xlink">
<g id="graph0" class="graph" transform="scale(1 1) rotate(0) translate(4 259)">
<title>src/nuspell/dictionary.cxx</title>
<polygon fill="#ffffff" stroke="transparent" points="-4,4 -4,-259 1478.5,-259 1478.5,4 -4,4"/>
<!-- Node0 -->
<g id="node1" class="node">
<title>Node0</title>
<polygon fill="#bfbfbf" stroke="#000000" points="1003.5,-235.5 1003.5,-254.5 1131.5,-254.5 1131.5,-235.5 1003.5,-235.5"/>
<text text-anchor="middle" x="1067.5" y="-242.5" font-family="Helvetica,sans-Serif" font-size="10.00" fill="#000000">src/nuspell/dictionary.cxx</text>
</g>
<!-- Node1 -->
<g id="node2" class="node">
<title>Node1</title>
<g id="a_node2"><a xlink:href="dictionary_8hxx.html" target="_top" xlink:title="Dictionary spelling. ">
<polygon fill="#ffffff" stroke="#000000" points="945,-179.5 945,-198.5 1022,-198.5 1022,-179.5 945,-179.5"/>
<text text-anchor="middle" x="983.5" y="-186.5" font-family="Helvetica,sans-Serif" font-size="10.00" fill="#000000">dictionary.hxx</text>
</a>
</g>
</g>
<!-- Node0&#45;&gt;Node1 -->
<g id="edge1" class="edge">
<title>Node0&#45;&gt;Node1</title>
<path fill="none" stroke="#191970" d="M1052.8683,-235.2455C1040.1006,-226.7337 1021.3562,-214.2375 1006.5701,-204.3801"/>
<polygon fill="#191970" stroke="#191970" points="1008.226,-201.2775 997.964,-198.6427 1004.3431,-207.1019 1008.226,-201.2775"/>
</g>
<!-- Node14 -->
<g id="node15" class="node">
<title>Node14</title>
<polygon fill="#ffffff" stroke="#bfbfbf" points="0,-6 0,-25 59,-25 59,-6 0,-6"/>
<text text-anchor="middle" x="29.5" y="-13" font-family="Helvetica,sans-Serif" font-size="10.00" fill="#000000">stdexcept</text>
</g>
<!-- Node0&#45;&gt;Node14 -->
<g id="edge34" class="edge">
<title>Node0&#45;&gt;Node14</title>
<path fill="none" stroke="#191970" d="M1004.4969,-235.4898C845.2228,-210.5971 414.4582,-137.9683 67.5,-31 65.2021,-30.2915 62.8496,-29.5005 60.4968,-28.6609"/>
<polygon fill="#191970" stroke="#191970" points="61.5537,-25.3181 50.9629,-25.0238 59.0586,-31.8583 61.5537,-25.3181"/>
</g>
<!-- Node20 -->
<g id="node21" class="node">
<title>Node20</title>
<g id="a_node21"><a xlink:href="string__utils_8hxx.html" target="_top" xlink:title="String algorithms. ">
<polygon fill="#ffffff" stroke="#000000" points="875,-67.5 875,-86.5 958,-86.5 958,-67.5 875,-67.5"/>
<text text-anchor="middle" x="916.5" y="-74.5" font-family="Helvetica,sans-Serif" font-size="10.00" fill="#000000">string_utils.hxx</text>
</a>
</g>
</g>
<!-- Node0&#45;&gt;Node20 -->
<g id="edge26" class="edge">
<title>Node0&#45;&gt;Node20</title>
<path fill="none" stroke="#191970" d="M1026.367,-235.429C992.536,-226.7116 948.3095,-213.0836 936.5,-199 912.2336,-170.0607 911.8772,-123.2656 914.0264,-96.8333"/>
<polygon fill="#191970" stroke="#191970" points="917.5413,-96.8643 915.0757,-86.5604 910.5776,-96.1529 917.5413,-96.8643"/>
</g>
<!-- Node22 -->
<g id="node23" class="node">
<title>Node22</title>
<polygon fill="#ffffff" stroke="#bfbfbf" points="1040.5,-179.5 1040.5,-198.5 1094.5,-198.5 1094.5,-179.5 1040.5,-179.5"/>
<text text-anchor="middle" x="1067.5" y="-186.5" font-family="Helvetica,sans-Serif" font-size="10.00" fill="#000000">iostream</text>
</g>
<!-- Node0&#45;&gt;Node22 -->
<g id="edge33" class="edge">
<title>Node0&#45;&gt;Node22</title>
<path fill="none" stroke="#191970" d="M1067.5,-235.2455C1067.5,-227.9382 1067.5,-217.6944 1067.5,-208.7046"/>
<polygon fill="#191970" stroke="#191970" points="1071.0001,-208.6426 1067.5,-198.6427 1064.0001,-208.6427 1071.0001,-208.6426"/>
</g>
<!-- Node23 -->
<g id="node24" class="node">
<title>Node23</title>
<polygon fill="#ffffff" stroke="#bfbfbf" points="1112.5,-179.5 1112.5,-198.5 1200.5,-198.5 1200.5,-179.5 1112.5,-179.5"/>
<text text-anchor="middle" x="1156.5" y="-186.5" font-family="Helvetica,sans-Serif" font-size="10.00" fill="#000000">boost/locale.hpp</text>
</g>
<!-- Node0&#45;&gt;Node23 -->
<g id="edge35" class="edge">
<title>Node0&#45;&gt;Node23</title>
<path fill="none" stroke="#191970" d="M1083.0026,-235.2455C1096.658,-226.6534 1116.7657,-214.0014 1132.4989,-204.1018"/>
<polygon fill="#191970" stroke="#191970" points="1134.5751,-206.9307 1141.175,-198.6427 1130.8471,-201.006 1134.5751,-206.9307"/>
</g>
<!-- Node24 -->
<g id="node25" class="node">
<title>Node24</title>
<polygon fill="#ffffff" stroke="#bfbfbf" points="1219,-179.5 1219,-198.5 1346,-198.5 1346,-179.5 1219,-179.5"/>
<text text-anchor="middle" x="1282.5" y="-186.5" font-family="Helvetica,sans-Serif" font-size="10.00" fill="#000000">boost/range/adaptors.hpp</text>
</g>
<!-- Node0&#45;&gt;Node24 -->
<g id="edge36" class="edge">
<title>Node0&#45;&gt;Node24</title>
<path fill="none" stroke="#191970" d="M1104.4598,-235.3733C1140.9075,-225.8799 1196.7246,-211.3415 1236.1289,-201.0781"/>
<polygon fill="#191970" stroke="#191970" points="1237.2276,-204.4087 1246.0225,-198.5011 1235.4631,-197.6348 1237.2276,-204.4087"/>
</g>
<!-- Node25 -->
<g id="node26" class="node">
<title>Node25</title>
<polygon fill="#ffffff" stroke="#bfbfbf" points="1364.5,-179.5 1364.5,-198.5 1474.5,-198.5 1474.5,-179.5 1364.5,-179.5"/>
<text text-anchor="middle" x="1419.5" y="-186.5" font-family="Helvetica,sans-Serif" font-size="10.00" fill="#000000">boost/scope_exit.hpp</text>
</g>
<!-- Node0&#45;&gt;Node25 -->
<g id="edge37" class="edge">
<title>Node0&#45;&gt;Node25</title>
<path fill="none" stroke="#191970" d="M1127.611,-235.4369C1190.6098,-225.4144 1289.27,-209.7184 1354.1608,-199.3949"/>
<polygon fill="#191970" stroke="#191970" points="1354.9489,-202.8136 1364.2747,-197.7858 1353.849,-195.9005 1354.9489,-202.8136"/>
</g>
<!-- Node2 -->
<g id="node3" class="node">
<title>Node2</title>
<g id="a_node3"><a xlink:href="aff__data_8hxx.html" target="_top" xlink:title="Affixing data structures. ">
<polygon fill="#ffffff" stroke="#000000" points="745,-123.5 745,-142.5 816,-142.5 816,-123.5 745,-123.5"/>
<text text-anchor="middle" x="780.5" y="-130.5" font-family="Helvetica,sans-Serif" font-size="10.00" fill="#000000">aff_data.hxx</text>
</a>
</g>
</g>
<!-- Node1&#45;&gt;Node2 -->
<g id="edge2" class="edge">
<title>Node1&#45;&gt;Node2</title>
<path fill="none" stroke="#191970" d="M948.6031,-179.3733C914.4089,-169.9404 862.1585,-155.5265 824.9958,-145.2747"/>
<polygon fill="#191970" stroke="#191970" points="825.5123,-141.7865 814.9416,-142.5011 823.6507,-148.5345 825.5123,-141.7865"/>
</g>
<!-- Node8 -->
<g id="node9" class="node">
<title>Node8</title>
<g id="a_node9"><a xlink:href="locale__utils_8hxx.html" target="_top" xlink:title="Encoding transformations. ">
<polygon fill="#ffffff" stroke="#000000" points="1014.5,-67.5 1014.5,-86.5 1098.5,-86.5 1098.5,-67.5 1014.5,-67.5"/>
<text text-anchor="middle" x="1056.5" y="-74.5" font-family="Helvetica,sans-Serif" font-size="10.00" fill="#000000">locale_utils.hxx</text>
</a>
</g>
</g>
<!-- Node1&#45;&gt;Node8 -->
<g id="edge23" class="edge">
<title>Node1&#45;&gt;Node8</title>
<path fill="none" stroke="#191970" d="M991.0942,-179.3385C998.1901,-170.1714 1008.9439,-155.915 1017.5,-143 1027.9103,-127.2862 1038.7383,-108.7592 1046.3357,-95.341"/>
<polygon fill="#191970" stroke="#191970" points="1049.4065,-97.0207 1051.2447,-86.5866 1043.3009,-93.597 1049.4065,-97.0207"/>
</g>
<!-- Node9 -->
<g id="node10" class="node">
<title>Node9</title>
<polygon fill="#ffffff" stroke="#bfbfbf" points="1045.5,-6 1045.5,-25 1087.5,-25 1087.5,-6 1045.5,-6"/>
<text text-anchor="middle" x="1066.5" y="-13" font-family="Helvetica,sans-Serif" font-size="10.00" fill="#000000">locale</text>
</g>
<!-- Node1&#45;&gt;Node9 -->
<g id="edge25" class="edge">
<title>Node1&#45;&gt;Node9</title>
<path fill="none" stroke="#191970" d="M1004.1318,-179.3645C1033.474,-164.3658 1086.073,-132.3703 1107.5,-87 1116.7104,-67.4977 1100.8621,-46.1744 1086.2702,-31.935"/>
<polygon fill="#191970" stroke="#191970" points="1088.6328,-29.3527 1078.8935,-25.1816 1083.906,-34.5158 1088.6328,-29.3527"/>
</g>
<!-- Node19 -->
<g id="node20" class="node">
<title>Node19</title>
<polygon fill="#ffffff" stroke="#bfbfbf" points="958.5,-123.5 958.5,-142.5 1008.5,-142.5 1008.5,-123.5 958.5,-123.5"/>
<text text-anchor="middle" x="983.5" y="-130.5" font-family="Helvetica,sans-Serif" font-size="10.00" fill="#000000">fstream</text>
</g>
<!-- Node1&#45;&gt;Node19 -->
<g id="edge24" class="edge">
<title>Node1&#45;&gt;Node19</title>
<path fill="none" stroke="#191970" d="M983.5,-179.2455C983.5,-171.9382 983.5,-161.6944 983.5,-152.7046"/>
<polygon fill="#191970" stroke="#191970" points="987.0001,-152.6426 983.5,-142.6427 980.0001,-152.6427 987.0001,-152.6426"/>
</g>
<!-- Node3 -->
<g id="node4" class="node">
<title>Node3</title>
<polygon fill="#ffffff" stroke="#bfbfbf" points="672,-67.5 672,-86.5 717,-86.5 717,-67.5 672,-67.5"/>
<text text-anchor="middle" x="694.5" y="-74.5" font-family="Helvetica,sans-Serif" font-size="10.00" fill="#000000">iosfwd</text>
</g>
<!-- Node2&#45;&gt;Node3 -->
<g id="edge3" class="edge">
<title>Node2&#45;&gt;Node3</title>
<path fill="none" stroke="#191970" d="M765.5199,-123.2455C752.3249,-114.6534 732.8949,-102.0014 717.6921,-92.1018"/>
<polygon fill="#191970" stroke="#191970" points="719.5983,-89.1665 709.3084,-86.6427 715.7785,-95.0325 719.5983,-89.1665"/>
</g>
<!-- Node4 -->
<g id="node5" class="node">
<title>Node4</title>
<polygon fill="#ffffff" stroke="#bfbfbf" points="986,-6 986,-25 1027,-25 1027,-6 986,-6"/>
<text text-anchor="middle" x="1006.5" y="-13" font-family="Helvetica,sans-Serif" font-size="10.00" fill="#000000">string</text>
</g>
<!-- Node2&#45;&gt;Node4 -->
<g id="edge4" class="edge">
<title>Node2&#45;&gt;Node4</title>
<path fill="none" stroke="#191970" d="M816.2363,-127.72C863.6385,-120.1333 944.059,-105.0551 967.5,-87 984.5919,-73.8353 995.1638,-50.9645 1000.9161,-34.6338"/>
<polygon fill="#191970" stroke="#191970" points="1004.28,-35.6061 1004.0204,-25.0145 997.6183,-33.4563 1004.28,-35.6061"/>
</g>
<!-- Node5 -->
<g id="node6" class="node">
<title>Node5</title>
<polygon fill="#ffffff" stroke="#bfbfbf" points="774,-67.5 774,-86.5 857,-86.5 857,-67.5 774,-67.5"/>
<text text-anchor="middle" x="815.5" y="-74.5" font-family="Helvetica,sans-Serif" font-size="10.00" fill="#000000">unordered_map</text>
</g>
<!-- Node2&#45;&gt;Node5 -->
<g id="edge5" class="edge">
<title>Node2&#45;&gt;Node5</title>
<path fill="none" stroke="#191970" d="M786.5965,-123.2455C791.4145,-115.5367 798.2751,-104.5598 804.1032,-95.2348"/>
<polygon fill="#191970" stroke="#191970" points="807.1413,-96.9777 809.4733,-86.6427 801.2053,-93.2677 807.1413,-96.9777"/>
</g>
<!-- Node6 -->
<g id="node7" class="node">
<title>Node6</title>
<polygon fill="#ffffff" stroke="#bfbfbf" points="666.5,-6 666.5,-25 706.5,-25 706.5,-6 666.5,-6"/>
<text text-anchor="middle" x="686.5" y="-13" font-family="Helvetica,sans-Serif" font-size="10.00" fill="#000000">utility</text>
</g>
<!-- Node2&#45;&gt;Node6 -->
<g id="edge6" class="edge">
<title>Node2&#45;&gt;Node6</title>
<path fill="none" stroke="#191970" d="M744.9805,-123.9081C713.8783,-115.1435 672.1774,-101.1593 662.5,-87 651.2592,-70.5533 661.8558,-48.4019 672.3041,-33.1353"/>
<polygon fill="#191970" stroke="#191970" points="675.157,-35.1637 678.2725,-25.0373 669.5221,-31.0106 675.157,-35.1637"/>
</g>
<!-- Node7 -->
<g id="node8" class="node">
<title>Node7</title>
<polygon fill="#ffffff" stroke="#bfbfbf" points="724.5,-6 724.5,-25 768.5,-25 768.5,-6 724.5,-6"/>
<text text-anchor="middle" x="746.5" y="-13" font-family="Helvetica,sans-Serif" font-size="10.00" fill="#000000">vector</text>
</g>
<!-- Node2&#45;&gt;Node7 -->
<g id="edge7" class="edge">
<title>Node2&#45;&gt;Node7</title>
<path fill="none" stroke="#191970" d="M776.8137,-123.2113C773.3949,-113.9543 768.2804,-99.6371 764.5,-87 759.2962,-69.605 754.333,-49.5357 750.9413,-35.096"/>
<polygon fill="#191970" stroke="#191970" points="754.3369,-34.2445 748.6761,-25.2887 747.5165,-35.8199 754.3369,-34.2445"/>
</g>
<!-- Node2&#45;&gt;Node8 -->
<g id="edge8" class="edge">
<title>Node2&#45;&gt;Node8</title>
<path fill="none" stroke="#191970" d="M816.0171,-125.7936C863.8516,-116.0881 949.3212,-98.7464 1004.4277,-87.5654"/>
<polygon fill="#191970" stroke="#191970" points="1005.2437,-90.9712 1014.3481,-85.5526 1003.8518,-84.111 1005.2437,-90.9712"/>
</g>
<!-- Node10 -->
<g id="node11" class="node">
<title>Node10</title>
<g id="a_node11"><a xlink:href="structures_8hxx.html" target="_top" xlink:title="Data structures. ">
<polygon fill="#ffffff" stroke="#000000" points="535,-67.5 535,-86.5 614,-86.5 614,-67.5 535,-67.5"/>
<text text-anchor="middle" x="574.5" y="-74.5" font-family="Helvetica,sans-Serif" font-size="10.00" fill="#000000">structures.hxx</text>
</a>
</g>
</g>
<!-- Node2&#45;&gt;Node10 -->
<g id="edge11" class="edge">
<title>Node2&#45;&gt;Node10</title>
<path fill="none" stroke="#191970" d="M745.0873,-123.3733C710.2395,-113.9001 656.9118,-99.4032 619.1707,-89.1435"/>
<polygon fill="#191970" stroke="#191970" points="620.0185,-85.747 609.4506,-86.5011 618.1822,-92.5019 620.0185,-85.747"/>
</g>
<!-- Node8&#45;&gt;Node4 -->
<g id="edge10" class="edge">
<title>Node8&#45;&gt;Node4</title>
<path fill="none" stroke="#191970" d="M1048.6875,-67.3906C1041.246,-58.2376 1029.8666,-44.2409 1020.8008,-33.09"/>
<polygon fill="#191970" stroke="#191970" points="1023.4467,-30.7962 1014.4226,-25.2449 1018.0153,-35.212 1023.4467,-30.7962"/>
</g>
<!-- Node8&#45;&gt;Node9 -->
<g id="edge9" class="edge">
<title>Node8&#45;&gt;Node9</title>
<path fill="none" stroke="#191970" d="M1058.0625,-67.3906C1059.4487,-58.8657 1061.518,-46.1392 1063.2604,-35.4235"/>
<polygon fill="#191970" stroke="#191970" points="1066.7651,-35.677 1064.9155,-25.2449 1059.8558,-34.5535 1066.7651,-35.677"/>
</g>
<!-- Node10&#45;&gt;Node4 -->
<g id="edge16" class="edge">
<title>Node10&#45;&gt;Node4</title>
<path fill="none" stroke="#191970" d="M614.1827,-72.4826C715.7044,-60.924 976.9584,-31.1689 977.5,-31 978.9306,-30.5539 980.3728,-30.0364 981.809,-29.4667"/>
<polygon fill="#191970" stroke="#191970" points="983.445,-32.5654 991.0176,-25.1556 980.477,-26.2257 983.445,-32.5654"/>
</g>
<!-- Node10&#45;&gt;Node6 -->
<g id="edge17" class="edge">
<title>Node10&#45;&gt;Node6</title>
<path fill="none" stroke="#191970" d="M592,-67.3906C610.2465,-57.3713 639.0624,-41.5483 660.0806,-30.0071"/>
<polygon fill="#191970" stroke="#191970" points="662.042,-32.923 669.1229,-25.0419 658.6728,-26.7872 662.042,-32.923"/>
</g>
<!-- Node10&#45;&gt;Node7 -->
<g id="edge18" class="edge">
<title>Node10&#45;&gt;Node7</title>
<path fill="none" stroke="#191970" d="M608.3372,-67.4994C637.2204,-59.0269 679.6504,-45.7152 715.5,-31 716.6898,-30.5116 717.8971,-29.9967 719.1106,-29.4631"/>
<polygon fill="#191970" stroke="#191970" points="720.7767,-32.5477 728.3488,-25.1373 717.8083,-26.2083 720.7767,-32.5477"/>
</g>
<!-- Node11 -->
<g id="node12" class="node">
<title>Node11</title>
<polygon fill="#ffffff" stroke="#bfbfbf" points="852.5,-6 852.5,-25 908.5,-25 908.5,-6 852.5,-6"/>
<text text-anchor="middle" x="880.5" y="-13" font-family="Helvetica,sans-Serif" font-size="10.00" fill="#000000">algorithm</text>
</g>
<!-- Node10&#45;&gt;Node11 -->
<g id="edge12" class="edge">
<title>Node10&#45;&gt;Node11</title>
<path fill="none" stroke="#191970" d="M614.157,-72.9232C667.0005,-66.8751 763.0721,-53.7229 842.5,-31 844.9575,-30.297 847.4725,-29.4866 849.9805,-28.6127"/>
<polygon fill="#191970" stroke="#191970" points="851.367,-31.8304 859.4836,-25.0208 848.892,-25.2825 851.367,-31.8304"/>
</g>
<!-- Node12 -->
<g id="node13" class="node">
<title>Node12</title>
<polygon fill="#ffffff" stroke="#bfbfbf" points="308.5,-6 308.5,-25 352.5,-25 352.5,-6 308.5,-6"/>
<text text-anchor="middle" x="330.5" y="-13" font-family="Helvetica,sans-Serif" font-size="10.00" fill="#000000">cmath</text>
</g>
<!-- Node10&#45;&gt;Node12 -->
<g id="edge13" class="edge">
<title>Node10&#45;&gt;Node12</title>
<path fill="none" stroke="#191970" d="M534.8191,-71.4841C491.4165,-64.7528 420.2084,-51.6466 361.5,-31 360.0809,-30.5009 358.6433,-29.9515 357.2044,-29.3663"/>
<polygon fill="#191970" stroke="#191970" points="358.4243,-26.0767 347.8709,-25.1405 355.5371,-32.4535 358.4243,-26.0767"/>
</g>
<!-- Node13 -->
<g id="node14" class="node">
<title>Node13</title>
<polygon fill="#ffffff" stroke="#bfbfbf" points="787,-6 787,-25 834,-25 834,-6 787,-6"/>
<text text-anchor="middle" x="810.5" y="-13" font-family="Helvetica,sans-Serif" font-size="10.00" fill="#000000">iterator</text>
</g>
<!-- Node10&#45;&gt;Node13 -->
<g id="edge14" class="edge">
<title>Node10&#45;&gt;Node13</title>
<path fill="none" stroke="#191970" d="M614.1161,-70.6433C655.5504,-63.3914 722.136,-50.0239 777.5,-31 779.1462,-30.4343 780.8195,-29.8114 782.4951,-29.1499"/>
<polygon fill="#191970" stroke="#191970" points="784.1499,-32.2478 791.9443,-25.0717 781.376,-25.8209 784.1499,-32.2478"/>
</g>
<!-- Node10&#45;&gt;Node14 -->
<g id="edge15" class="edge">
<title>Node10&#45;&gt;Node14</title>
<path fill="none" stroke="#191970" d="M534.9084,-74.9275C431.677,-69.2812 156.1633,-52.5929 67.5,-31 64.7093,-30.3204 61.8553,-29.4704 59.027,-28.5207"/>
<polygon fill="#191970" stroke="#191970" points="60.2324,-25.2348 49.6399,-25.0094 57.7799,-31.7911 60.2324,-25.2348"/>
</g>
<!-- Node15 -->
<g id="node16" class="node">
<title>Node15</title>
<polygon fill="#ffffff" stroke="#bfbfbf" points="370.5,-.5 370.5,-30.5 480.5,-30.5 480.5,-.5 370.5,-.5"/>
<text text-anchor="start" x="378.5" y="-18.5" font-family="Helvetica,sans-Serif" font-size="10.00" fill="#000000">boost/container/small</text>
<text text-anchor="middle" x="425.5" y="-7.5" font-family="Helvetica,sans-Serif" font-size="10.00" fill="#000000">_vector.hpp</text>
</g>
<!-- Node10&#45;&gt;Node15 -->
<g id="edge19" class="edge">
<title>Node10&#45;&gt;Node15</title>
<path fill="none" stroke="#191970" d="M551.2188,-67.3906C529.9331,-58.6049 497.8358,-45.3567 471.4016,-34.446"/>
<polygon fill="#191970" stroke="#191970" points="472.5284,-31.1247 461.9495,-30.5446 469.8577,-37.5952 472.5284,-31.1247"/>
</g>
<!-- Node16 -->
<g id="node17" class="node">
<title>Node16</title>
<polygon fill="#ffffff" stroke="#bfbfbf" points="498.5,-6 498.5,-25 648.5,-25 648.5,-6 498.5,-6"/>
<text text-anchor="middle" x="573.5" y="-13" font-family="Helvetica,sans-Serif" font-size="10.00" fill="#000000">boost/multi_index/member.hpp</text>
</g>
<!-- Node10&#45;&gt;Node16 -->
<g id="edge20" class="edge">
<title>Node10&#45;&gt;Node16</title>
<path fill="none" stroke="#191970" d="M574.3438,-67.3906C574.2051,-58.8657 573.9982,-46.1392 573.824,-35.4235"/>
<polygon fill="#191970" stroke="#191970" points="577.3207,-35.1866 573.6585,-25.2449 570.3216,-35.3005 577.3207,-35.1866"/>
</g>
<!-- Node17 -->
<g id="node18" class="node">
<title>Node17</title>
<polygon fill="#ffffff" stroke="#bfbfbf" points="77,-.5 77,-30.5 178,-30.5 178,-.5 77,-.5"/>
<text text-anchor="start" x="85" y="-18.5" font-family="Helvetica,sans-Serif" font-size="10.00" fill="#000000">boost/range/iterator</text>
<text text-anchor="middle" x="127.5" y="-7.5" font-family="Helvetica,sans-Serif" font-size="10.00" fill="#000000">_range_core.hpp</text>
</g>
<!-- Node10&#45;&gt;Node17 -->
<g id="edge21" class="edge">
<title>Node10&#45;&gt;Node17</title>
<path fill="none" stroke="#191970" d="M534.9565,-74.0671C466.3419,-68.5956 320.6876,-55.2946 188.0624,-30.9398"/>
<polygon fill="#191970" stroke="#191970" points="188.6032,-27.4804 178.1314,-29.0906 187.3217,-34.3621 188.6032,-27.4804"/>
</g>
<!-- Node18 -->
<g id="node19" class="node">
<title>Node18</title>
<polygon fill="#ffffff" stroke="#bfbfbf" points="196.5,-.5 196.5,-30.5 290.5,-30.5 290.5,-.5 196.5,-.5"/>
<text text-anchor="start" x="204.5" y="-18.5" font-family="Helvetica,sans-Serif" font-size="10.00" fill="#000000">boost/utility/string</text>
<text text-anchor="middle" x="243.5" y="-7.5" font-family="Helvetica,sans-Serif" font-size="10.00" fill="#000000">_view.hpp</text>
</g>
<!-- Node10&#45;&gt;Node18 -->
<g id="edge22" class="edge">
<title>Node10&#45;&gt;Node18</title>
<path fill="none" stroke="#191970" d="M534.6296,-71.6625C482.8486,-64.4387 389.5017,-50.424 300.7311,-31.1468"/>
<polygon fill="#191970" stroke="#191970" points="301.2878,-27.6856 290.7695,-28.9567 299.7847,-34.5224 301.2878,-27.6856"/>
</g>
<!-- Node20&#45;&gt;Node4 -->
<g id="edge31" class="edge">
<title>Node20&#45;&gt;Node4</title>
<path fill="none" stroke="#191970" d="M930.5625,-67.3906C944.8286,-57.6421 967.135,-42.3994 983.8872,-30.9521"/>
<polygon fill="#191970" stroke="#191970" points="986.2545,-33.5736 992.5362,-25.0419 982.3051,-27.7941 986.2545,-33.5736"/>
</g>
<!-- Node20&#45;&gt;Node7 -->
<g id="edge32" class="edge">
<title>Node20&#45;&gt;Node7</title>
<path fill="none" stroke="#191970" d="M883.1522,-67.4416C854.6844,-58.9333 812.8594,-45.6016 777.5,-31 776.3112,-30.5091 775.1048,-29.9921 773.892,-29.4568"/>
<polygon fill="#191970" stroke="#191970" points="775.1964,-26.2027 764.6566,-25.124 772.2233,-32.54 775.1964,-26.2027"/>
</g>
<!-- Node20&#45;&gt;Node9 -->
<g id="edge29" class="edge">
<title>Node20&#45;&gt;Node9</title>
<path fill="none" stroke="#191970" d="M944.018,-67.4348C968.5714,-58.6688 1005.3507,-44.9655 1036.5,-31 1037.5164,-30.5443 1038.5472,-30.0709 1039.5846,-29.5849"/>
<polygon fill="#191970" stroke="#191970" points="1041.4619,-32.5621 1048.892,-25.0094 1038.3737,-26.2801 1041.4619,-32.5621"/>
</g>
<!-- Node20&#45;&gt;Node11 -->
<g id="edge27" class="edge">
<title>Node20&#45;&gt;Node11</title>
<path fill="none" stroke="#191970" d="M910.875,-67.3906C905.6747,-58.5068 897.8034,-45.0601 891.3767,-34.0811"/>
<polygon fill="#191970" stroke="#191970" points="894.2767,-32.1069 886.2043,-25.2449 888.2356,-35.6432 894.2767,-32.1069"/>
</g>
<!-- Node20&#45;&gt;Node13 -->
<g id="edge28" class="edge">
<title>Node20&#45;&gt;Node13</title>
<path fill="none" stroke="#191970" d="M899.9375,-67.3906C882.7463,-57.4165 855.6418,-41.6908 835.7734,-30.1633"/>
<polygon fill="#191970" stroke="#191970" points="837.3523,-27.033 826.9462,-25.0419 833.8394,-33.0877 837.3523,-27.033"/>
</g>
<!-- Node21 -->
<g id="node22" class="node">
<title>Node21</title>
<polygon fill="#ffffff" stroke="#bfbfbf" points="927,-6 927,-25 968,-25 968,-6 927,-6"/>
<text text-anchor="middle" x="947.5" y="-13" font-family="Helvetica,sans-Serif" font-size="10.00" fill="#000000">stack</text>
</g>
<!-- Node20&#45;&gt;Node21 -->
<g id="edge30" class="edge">
<title>Node20&#45;&gt;Node21</title>
<path fill="none" stroke="#191970" d="M921.3438,-67.3906C925.7766,-58.5965 932.4631,-45.3312 937.9659,-34.4145"/>
<polygon fill="#191970" stroke="#191970" points="941.2122,-35.75 942.588,-25.2449 934.9614,-32.5992 941.2122,-35.75"/>
</g>
</g>
</svg>
