<?xml version="1.0" encoding="UTF-8" standalone="no"?>
<!DOCTYPE svg PUBLIC "-//W3C//DTD SVG 1.1//EN"
 "http://www.w3.org/Graphics/SVG/1.1/DTD/svg11.dtd">
<!-- Generated by graphviz version 2.40.1 (20161225.0304)
 -->
<!-- Title: src/nuspell/dictionary.hxx Pages: 1 -->
<svg width="1093pt" height="207pt"
 viewBox="0.00 0.00 1093.00 207.00" xmlns="http://www.w3.org/2000/svg" xmlns:xlink="http://www.w3.org/1999/xlink">
<g id="graph0" class="graph" transform="scale(1 1) rotate(0) translate(4 203)">
<title>src/nuspell/dictionary.hxx</title>
<polygon fill="#ffffff" stroke="transparent" points="-4,4 -4,-203 1089,-203 1089,4 -4,4"/>
<!-- Node0 -->
<g id="node1" class="node">
<title>Node0</title>
<polygon fill="#bfbfbf" stroke="#000000" points="354,-179.5 354,-198.5 482,-198.5 482,-179.5 354,-179.5"/>
<text text-anchor="middle" x="418" y="-186.5" font-family="Helvetica,sans-Serif" font-size="10.00" fill="#000000">src/nuspell/dictionary.hxx</text>
</g>
<!-- Node1 -->
<g id="node2" class="node">
<title>Node1</title>
<g id="a_node2"><a xlink:href="aff__data_8hxx.html" target="_top" xlink:title="Affixing data structures, private header. ">
<polygon fill="#ffffff" stroke="#000000" points="382.5,-123.5 382.5,-142.5 453.5,-142.5 453.5,-123.5 382.5,-123.5"/>
<text text-anchor="middle" x="418" y="-130.5" font-family="Helvetica,sans-Serif" font-size="10.00" fill="#000000">aff_data.hxx</text>
</a>
</g>
</g>
<!-- Node0&#45;&gt;Node1 -->
<g id="edge1" class="edge">
<title>Node0&#45;&gt;Node1</title>
<path fill="none" stroke="#191970" d="M418,-179.2455C418,-171.9382 418,-161.6944 418,-152.7046"/>
<polygon fill="#191970" stroke="#191970" points="421.5001,-152.6426 418,-142.6427 414.5001,-152.6427 421.5001,-152.6426"/>
</g>
<!-- Node2 -->
<g id="node3" class="node">
<title>Node2</title>
<g id="a_node3"><a xlink:href="locale__utils_8hxx.html" target="_top" xlink:title="Encoding transformations, private header. ">
<polygon fill="#ffffff" stroke="#000000" points="39,-67.5 39,-86.5 123,-86.5 123,-67.5 39,-67.5"/>
<text text-anchor="middle" x="81" y="-74.5" font-family="Helvetica,sans-Serif" font-size="10.00" fill="#000000">locale_utils.hxx</text>
</a>
</g>
</g>
<!-- Node1&#45;&gt;Node2 -->
<g id="edge2" class="edge">
<title>Node1&#45;&gt;Node2</title>
<path fill="none" stroke="#191970" d="M382.2541,-127.06C322.6378,-117.1535 202.6425,-97.2136 133.4411,-85.7142"/>
<polygon fill="#191970" stroke="#191970" points="133.6389,-82.1992 123.2004,-84.0125 132.4914,-89.1045 133.6389,-82.1992"/>
</g>
<!-- Node5 -->
<g id="node6" class="node">
<title>Node5</title>
<g id="a_node6"><a xlink:href="structures_8hxx.html" target="_top" xlink:title="Data structures, private header. ">
<polygon fill="#ffffff" stroke="#000000" points="378.5,-67.5 378.5,-86.5 457.5,-86.5 457.5,-67.5 378.5,-67.5"/>
<text text-anchor="middle" x="418" y="-74.5" font-family="Helvetica,sans-Serif" font-size="10.00" fill="#000000">structures.hxx</text>
</a>
</g>
</g>
<!-- Node1&#45;&gt;Node5 -->
<g id="edge5" class="edge">
<title>Node1&#45;&gt;Node5</title>
<path fill="none" stroke="#191970" d="M418,-123.2455C418,-115.9382 418,-105.6944 418,-96.7046"/>
<polygon fill="#191970" stroke="#191970" points="421.5001,-96.6426 418,-86.6427 414.5001,-96.6427 421.5001,-96.6426"/>
</g>
<!-- Node17 -->
<g id="node18" class="node">
<title>Node17</title>
<polygon fill="#ffffff" stroke="#bfbfbf" points="475.5,-67.5 475.5,-86.5 520.5,-86.5 520.5,-67.5 475.5,-67.5"/>
<text text-anchor="middle" x="498" y="-74.5" font-family="Helvetica,sans-Serif" font-size="10.00" fill="#000000">iosfwd</text>
</g>
<!-- Node1&#45;&gt;Node17 -->
<g id="edge18" class="edge">
<title>Node1&#45;&gt;Node17</title>
<path fill="none" stroke="#191970" d="M431.9349,-123.2455C444.0947,-114.7337 461.9464,-102.2375 476.0285,-92.3801"/>
<polygon fill="#191970" stroke="#191970" points="478.0395,-95.2447 484.2248,-86.6427 474.0253,-89.51 478.0395,-95.2447"/>
</g>
<!-- Node3 -->
<g id="node4" class="node">
<title>Node3</title>
<polygon fill="#ffffff" stroke="#bfbfbf" points="0,-6 0,-25 42,-25 42,-6 0,-6"/>
<text text-anchor="middle" x="21" y="-13" font-family="Helvetica,sans-Serif" font-size="10.00" fill="#000000">locale</text>
</g>
<!-- Node2&#45;&gt;Node3 -->
<g id="edge3" class="edge">
<title>Node2&#45;&gt;Node3</title>
<path fill="none" stroke="#191970" d="M71.625,-67.3906C62.5201,-58.0581 48.5026,-43.6902 37.5243,-32.4374"/>
<polygon fill="#191970" stroke="#191970" points="39.9957,-29.9586 30.5072,-25.2449 34.9852,-34.8468 39.9957,-29.9586"/>
</g>
<!-- Node4 -->
<g id="node5" class="node">
<title>Node4</title>
<polygon fill="#ffffff" stroke="#bfbfbf" points="60.5,-6 60.5,-25 101.5,-25 101.5,-6 60.5,-6"/>
<text text-anchor="middle" x="81" y="-13" font-family="Helvetica,sans-Serif" font-size="10.00" fill="#000000">string</text>
</g>
<!-- Node2&#45;&gt;Node4 -->
<g id="edge4" class="edge">
<title>Node2&#45;&gt;Node4</title>
<path fill="none" stroke="#191970" d="M81,-67.3906C81,-58.8657 81,-46.1392 81,-35.4235"/>
<polygon fill="#191970" stroke="#191970" points="84.5001,-35.2448 81,-25.2449 77.5001,-35.2449 84.5001,-35.2448"/>
</g>
<!-- Node5&#45;&gt;Node4 -->
<g id="edge10" class="edge">
<title>Node5&#45;&gt;Node4</title>
<path fill="none" stroke="#191970" d="M378.2882,-75.1984C318.8502,-71.5842 203.8137,-61.0187 111,-31 109.5358,-30.5264 108.0564,-29.987 106.5804,-29.4002"/>
<polygon fill="#191970" stroke="#191970" points="107.6324,-26.0318 97.0844,-25.0364 104.7095,-32.3924 107.6324,-26.0318"/>
</g>
<!-- Node6 -->
<g id="node7" class="node">
<title>Node6</title>
<polygon fill="#ffffff" stroke="#bfbfbf" points="120,-6 120,-25 176,-25 176,-6 120,-6"/>
<text text-anchor="middle" x="148" y="-13" font-family="Helvetica,sans-Serif" font-size="10.00" fill="#000000">algorithm</text>
</g>
<!-- Node5&#45;&gt;Node6 -->
<g id="edge6" class="edge">
<title>Node5&#45;&gt;Node6</title>
<path fill="none" stroke="#191970" d="M378.2389,-71.6501C331.3736,-64.7739 251.4585,-51.2536 185,-31 182.8349,-30.3402 180.6231,-29.598 178.4115,-28.8052"/>
<polygon fill="#191970" stroke="#191970" points="179.4502,-25.4541 168.8613,-25.1019 176.9195,-31.9806 179.4502,-25.4541"/>
</g>
<!-- Node7 -->
<g id="node8" class="node">
<title>Node7</title>
<polygon fill="#ffffff" stroke="#bfbfbf" points="194,-6 194,-25 238,-25 238,-6 194,-6"/>
<text text-anchor="middle" x="216" y="-13" font-family="Helvetica,sans-Serif" font-size="10.00" fill="#000000">cmath</text>
</g>
<!-- Node5&#45;&gt;Node7 -->
<g id="edge7" class="edge">
<title>Node5&#45;&gt;Node7</title>
<path fill="none" stroke="#191970" d="M378.2381,-68.6908C343.1174,-60.7922 290.8242,-47.6567 247,-31 245.629,-30.4789 244.238,-29.9165 242.8433,-29.3254"/>
<polygon fill="#191970" stroke="#191970" points="244.3042,-26.1449 233.757,-25.1416 241.3764,-32.5033 244.3042,-26.1449"/>
</g>
<!-- Node8 -->
<g id="node9" class="node">
<title>Node8</title>
<polygon fill="#ffffff" stroke="#bfbfbf" points="256.5,-6 256.5,-25 303.5,-25 303.5,-6 256.5,-6"/>
<text text-anchor="middle" x="280" y="-13" font-family="Helvetica,sans-Serif" font-size="10.00" fill="#000000">iterator</text>
</g>
<!-- Node5&#45;&gt;Node8 -->
<g id="edge8" class="edge">
<title>Node5&#45;&gt;Node8</title>
<path fill="none" stroke="#191970" d="M395.1333,-67.4018C373.5828,-58.2793 340.4428,-44.0532 312,-31 310.9901,-30.5365 309.9641,-30.0616 308.9291,-29.5792"/>
<polygon fill="#191970" stroke="#191970" points="310.1047,-26.263 299.5697,-25.1384 307.104,-32.5872 310.1047,-26.263"/>
</g>
<!-- Node9 -->
<g id="node10" class="node">
<title>Node9</title>
<polygon fill="#ffffff" stroke="#bfbfbf" points="321.5,-6 321.5,-25 380.5,-25 380.5,-6 321.5,-6"/>
<text text-anchor="middle" x="351" y="-13" font-family="Helvetica,sans-Serif" font-size="10.00" fill="#000000">stdexcept</text>
</g>
<!-- Node5&#45;&gt;Node9 -->
<g id="edge9" class="edge">
<title>Node5&#45;&gt;Node9</title>
<path fill="none" stroke="#191970" d="M407.5313,-67.3906C397.2663,-57.9683 381.4097,-43.4134 369.0994,-32.1137"/>
<polygon fill="#191970" stroke="#191970" points="371.3501,-29.4287 361.6163,-25.2449 366.6166,-34.5856 371.3501,-29.4287"/>
</g>
<!-- Node10 -->
<g id="node11" class="node">
<title>Node10</title>
<polygon fill="#ffffff" stroke="#bfbfbf" points="399,-6 399,-25 437,-25 437,-6 399,-6"/>
<text text-anchor="middle" x="418" y="-13" font-family="Helvetica,sans-Serif" font-size="10.00" fill="#000000">tuple</text>
</g>
<!-- Node5&#45;&gt;Node10 -->
<g id="edge11" class="edge">
<title>Node5&#45;&gt;Node10</title>
<path fill="none" stroke="#191970" d="M418,-67.3906C418,-58.8657 418,-46.1392 418,-35.4235"/>
<polygon fill="#191970" stroke="#191970" points="421.5001,-35.2448 418,-25.2449 414.5001,-35.2449 421.5001,-35.2448"/>
</g>
<!-- Node11 -->
<g id="node12" class="node">
<title>Node11</title>
<polygon fill="#ffffff" stroke="#bfbfbf" points="455,-6 455,-25 495,-25 495,-6 455,-6"/>
<text text-anchor="middle" x="475" y="-13" font-family="Helvetica,sans-Serif" font-size="10.00" fill="#000000">utility</text>
</g>
<!-- Node5&#45;&gt;Node11 -->
<g id="edge12" class="edge">
<title>Node5&#45;&gt;Node11</title>
<path fill="none" stroke="#191970" d="M426.9063,-67.3906C435.4728,-58.1478 448.6169,-43.966 459.0003,-32.7628"/>
<polygon fill="#191970" stroke="#191970" points="461.7375,-34.9584 465.9682,-25.2449 456.6035,-30.2 461.7375,-34.9584"/>
</g>
<!-- Node12 -->
<g id="node13" class="node">
<title>Node12</title>
<polygon fill="#ffffff" stroke="#bfbfbf" points="513,-6 513,-25 557,-25 557,-6 513,-6"/>
<text text-anchor="middle" x="535" y="-13" font-family="Helvetica,sans-Serif" font-size="10.00" fill="#000000">vector</text>
</g>
<!-- Node5&#45;&gt;Node12 -->
<g id="edge13" class="edge">
<title>Node5&#45;&gt;Node12</title>
<path fill="none" stroke="#191970" d="M436.2813,-67.3906C455.5141,-57.2811 485.9879,-41.2628 507.9925,-29.6962"/>
<polygon fill="#191970" stroke="#191970" points="509.624,-32.7928 516.8471,-25.0419 506.367,-26.5967 509.624,-32.7928"/>
</g>
<!-- Node13 -->
<g id="node14" class="node">
<title>Node13</title>
<polygon fill="#ffffff" stroke="#bfbfbf" points="575,-.5 575,-30.5 685,-30.5 685,-.5 575,-.5"/>
<text text-anchor="start" x="583" y="-18.5" font-family="Helvetica,sans-Serif" font-size="10.00" fill="#000000">boost/container/small</text>
<text text-anchor="middle" x="630" y="-7.5" font-family="Helvetica,sans-Serif" font-size="10.00" fill="#000000">_vector.hpp</text>
</g>
<!-- Node5&#45;&gt;Node13 -->
<g id="edge14" class="edge">
<title>Node5&#45;&gt;Node13</title>
<path fill="none" stroke="#191970" d="M451.125,-67.3906C482.3404,-58.3352 529.898,-44.539 568.131,-33.4479"/>
<polygon fill="#191970" stroke="#191970" points="569.5101,-36.6922 578.139,-30.5446 567.5598,-29.9693 569.5101,-36.6922"/>
</g>
<!-- Node14 -->
<g id="node15" class="node">
<title>Node14</title>
<polygon fill="#ffffff" stroke="#bfbfbf" points="703,-6 703,-25 853,-25 853,-6 703,-6"/>
<text text-anchor="middle" x="778" y="-13" font-family="Helvetica,sans-Serif" font-size="10.00" fill="#000000">boost/multi_index/member.hpp</text>
</g>
<!-- Node5&#45;&gt;Node14 -->
<g id="edge15" class="edge">
<title>Node5&#45;&gt;Node14</title>
<path fill="none" stroke="#191970" d="M457.5515,-68.7727C460.745,-68.1558 463.9245,-67.5574 467,-67 567.5122,-48.7827 593.3206,-48.2694 694,-31 701.6049,-29.6955 709.5885,-28.281 717.4826,-26.8551"/>
<polygon fill="#191970" stroke="#191970" points="718.1872,-30.2845 727.3988,-25.0503 716.9336,-23.3976 718.1872,-30.2845"/>
</g>
<!-- Node15 -->
<g id="node16" class="node">
<title>Node15</title>
<polygon fill="#ffffff" stroke="#bfbfbf" points="871.5,-.5 871.5,-30.5 972.5,-30.5 972.5,-.5 871.5,-.5"/>
<text text-anchor="start" x="879.5" y="-18.5" font-family="Helvetica,sans-Serif" font-size="10.00" fill="#000000">boost/range/iterator</text>
<text text-anchor="middle" x="922" y="-7.5" font-family="Helvetica,sans-Serif" font-size="10.00" fill="#000000">_range_core.hpp</text>
</g>
<!-- Node5&#45;&gt;Node15 -->
<g id="edge16" class="edge">
<title>Node5&#45;&gt;Node15</title>
<path fill="none" stroke="#191970" d="M457.5143,-68.5458C460.7161,-67.9799 463.9077,-67.455 467,-67 638.169,-41.8123 686.5288,-60.4255 861.3349,-30.9158"/>
<polygon fill="#191970" stroke="#191970" points="862.1231,-34.3317 871.3865,-29.1899 860.9384,-27.4327 862.1231,-34.3317"/>
</g>
<!-- Node16 -->
<g id="node17" class="node">
<title>Node16</title>
<polygon fill="#ffffff" stroke="#bfbfbf" points="991,-.5 991,-30.5 1085,-30.5 1085,-.5 991,-.5"/>
<text text-anchor="start" x="999" y="-18.5" font-family="Helvetica,sans-Serif" font-size="10.00" fill="#000000">boost/utility/string</text>
<text text-anchor="middle" x="1038" y="-7.5" font-family="Helvetica,sans-Serif" font-size="10.00" fill="#000000">_view.hpp</text>
</g>
<!-- Node5&#45;&gt;Node16 -->
<g id="edge17" class="edge">
<title>Node5&#45;&gt;Node16</title>
<path fill="none" stroke="#191970" d="M457.504,-68.4735C460.7081,-67.9237 463.903,-67.4224 467,-67 691.1234,-36.4319 754.0812,-68.8532 980.9174,-30.9583"/>
<polygon fill="#191970" stroke="#191970" points="981.5212,-34.406 990.7943,-29.2815 980.3495,-27.5048 981.5212,-34.406"/>
</g>
</g>
</svg>
