<?xml version="1.0" encoding="UTF-8" standalone="no"?>
<!DOCTYPE svg PUBLIC "-//W3C//DTD SVG 1.1//EN"
 "http://www.w3.org/Graphics/SVG/1.1/DTD/svg11.dtd">
<!-- Generated by graphviz version 2.40.1 (20161225.0304)
 -->
<!-- Title: src/nuspell/dictionary.hxx Pages: 1 -->
<svg width="1509pt" height="263pt"
 viewBox="0.00 0.00 1508.50 263.00" xmlns="http://www.w3.org/2000/svg" xmlns:xlink="http://www.w3.org/1999/xlink">
<g id="graph0" class="graph" transform="scale(1 1) rotate(0) translate(4 259)">
<title>src/nuspell/dictionary.hxx</title>
<polygon fill="#ffffff" stroke="transparent" points="-4,4 -4,-259 1504.5,-259 1504.5,4 -4,4"/>
<!-- Node0 -->
<g id="node1" class="node">
<title>Node0</title>
<polygon fill="#bfbfbf" stroke="#000000" points="1266.5,-235.5 1266.5,-254.5 1394.5,-254.5 1394.5,-235.5 1266.5,-235.5"/>
<text text-anchor="middle" x="1330.5" y="-242.5" font-family="Helvetica,sans-Serif" font-size="10.00" fill="#000000">src/nuspell/dictionary.hxx</text>
</g>
<!-- Node1 -->
<g id="node2" class="node">
<title>Node1</title>
<g id="a_node2"><a xlink:href="aff__data_8hxx.html" target="_top" xlink:title="Affixing data structures. ">
<polygon fill="#ffffff" stroke="#000000" points="443,-179.5 443,-198.5 514,-198.5 514,-179.5 443,-179.5"/>
<text text-anchor="middle" x="478.5" y="-186.5" font-family="Helvetica,sans-Serif" font-size="10.00" fill="#000000">aff_data.hxx</text>
</a>
</g>
</g>
<!-- Node0&#45;&gt;Node1 -->
<g id="edge1" class="edge">
<title>Node0&#45;&gt;Node1</title>
<path fill="none" stroke="#191970" d="M1266.4615,-240.7909C1101.8503,-229.9714 666.9105,-201.3838 524.417,-192.018"/>
<polygon fill="#191970" stroke="#191970" points="524.4856,-188.5151 514.2776,-191.3516 524.0265,-195.5 524.4856,-188.5151"/>
</g>
<!-- Node7 -->
<g id="node8" class="node">
<title>Node7</title>
<g id="a_node8"><a xlink:href="locale__utils_8hxx.html" target="_top" xlink:title="Encoding transformations. ">
<polygon fill="#ffffff" stroke="#000000" points="1237.5,-123.5 1237.5,-142.5 1321.5,-142.5 1321.5,-123.5 1237.5,-123.5"/>
<text text-anchor="middle" x="1279.5" y="-130.5" font-family="Helvetica,sans-Serif" font-size="10.00" fill="#000000">locale_utils.hxx</text>
</a>
</g>
</g>
<!-- Node0&#45;&gt;Node7 -->
<g id="edge28" class="edge">
<title>Node0&#45;&gt;Node7</title>
<path fill="none" stroke="#191970" d="M1326.1518,-235.4509C1317.7209,-216.936 1299.0162,-175.8591 1288.0237,-151.7187"/>
<polygon fill="#191970" stroke="#191970" points="1291.1667,-150.1753 1283.8372,-142.5249 1284.7961,-153.0762 1291.1667,-150.1753"/>
</g>
<!-- Node8 -->
<g id="node9" class="node">
<title>Node8</title>
<polygon fill="#ffffff" stroke="#bfbfbf" points="1458.5,-62 1458.5,-81 1500.5,-81 1500.5,-62 1458.5,-62"/>
<text text-anchor="middle" x="1479.5" y="-69" font-family="Helvetica,sans-Serif" font-size="10.00" fill="#000000">locale</text>
</g>
<!-- Node0&#45;&gt;Node8 -->
<g id="edge30" class="edge">
<title>Node0&#45;&gt;Node8</title>
<path fill="none" stroke="#191970" d="M1335.1233,-235.0702C1341.6,-221.6679 1354.1974,-197.3562 1368.5,-179 1396.4015,-143.1907 1435.9164,-107.7515 1459.5004,-87.8395"/>
<polygon fill="#191970" stroke="#191970" points="1461.9812,-90.3279 1467.4175,-81.2341 1457.4968,-84.953 1461.9812,-90.3279"/>
</g>
<!-- Node22 -->
<g id="node23" class="node">
<title>Node22</title>
<polygon fill="#ffffff" stroke="#bfbfbf" points="1377.5,-179.5 1377.5,-198.5 1427.5,-198.5 1427.5,-179.5 1377.5,-179.5"/>
<text text-anchor="middle" x="1402.5" y="-186.5" font-family="Helvetica,sans-Serif" font-size="10.00" fill="#000000">fstream</text>
</g>
<!-- Node0&#45;&gt;Node22 -->
<g id="edge29" class="edge">
<title>Node0&#45;&gt;Node22</title>
<path fill="none" stroke="#191970" d="M1343.0414,-235.2455C1353.7787,-226.8943 1369.4473,-214.7076 1382.0047,-204.9408"/>
<polygon fill="#191970" stroke="#191970" points="1384.3575,-207.5449 1390.1023,-198.6427 1380.0599,-202.0194 1384.3575,-207.5449"/>
</g>
<!-- Node2 -->
<g id="node3" class="node">
<title>Node2</title>
<polygon fill="#ffffff" stroke="#bfbfbf" points="416,-123.5 416,-142.5 461,-142.5 461,-123.5 416,-123.5"/>
<text text-anchor="middle" x="438.5" y="-130.5" font-family="Helvetica,sans-Serif" font-size="10.00" fill="#000000">iosfwd</text>
</g>
<!-- Node1&#45;&gt;Node2 -->
<g id="edge2" class="edge">
<title>Node1&#45;&gt;Node2</title>
<path fill="none" stroke="#191970" d="M471.5325,-179.2455C465.9689,-171.4564 458.022,-160.3308 451.3171,-150.9439"/>
<polygon fill="#191970" stroke="#191970" points="454.0481,-148.7457 445.3876,-142.6427 448.352,-152.8144 454.0481,-148.7457"/>
</g>
<!-- Node3 -->
<g id="node4" class="node">
<title>Node3</title>
<polygon fill="#ffffff" stroke="#bfbfbf" points="1143,-.5 1143,-19.5 1184,-19.5 1184,-.5 1143,-.5"/>
<text text-anchor="middle" x="1163.5" y="-7.5" font-family="Helvetica,sans-Serif" font-size="10.00" fill="#000000">string</text>
</g>
<!-- Node1&#45;&gt;Node3 -->
<g id="edge3" class="edge">
<title>Node1&#45;&gt;Node3</title>
<path fill="none" stroke="#191970" d="M514.1919,-186.0462C646.7778,-174.747 1105.7065,-132.6023 1151.5,-87 1166.2846,-72.2772 1167.611,-47.3491 1166.3288,-29.8545"/>
<polygon fill="#191970" stroke="#191970" points="1169.7765,-29.1806 1165.2247,-19.6134 1162.8169,-29.9309 1169.7765,-29.1806"/>
</g>
<!-- Node4 -->
<g id="node5" class="node">
<title>Node4</title>
<polygon fill="#ffffff" stroke="#bfbfbf" points="0,-123.5 0,-142.5 83,-142.5 83,-123.5 0,-123.5"/>
<text text-anchor="middle" x="41.5" y="-130.5" font-family="Helvetica,sans-Serif" font-size="10.00" fill="#000000">unordered_map</text>
</g>
<!-- Node1&#45;&gt;Node4 -->
<g id="edge4" class="edge">
<title>Node1&#45;&gt;Node4</title>
<path fill="none" stroke="#191970" d="M442.9542,-185.387C375.4638,-178.3767 224.1804,-161.9426 97.5,-143 96.0349,-142.7809 94.5492,-142.5532 93.0504,-142.3186"/>
<polygon fill="#191970" stroke="#191970" points="93.4796,-138.8424 83.0469,-140.6887 92.3539,-145.7513 93.4796,-138.8424"/>
</g>
<!-- Node5 -->
<g id="node6" class="node">
<title>Node5</title>
<polygon fill="#ffffff" stroke="#bfbfbf" points="139.5,-62 139.5,-81 179.5,-81 179.5,-62 139.5,-62"/>
<text text-anchor="middle" x="159.5" y="-69" font-family="Helvetica,sans-Serif" font-size="10.00" fill="#000000">utility</text>
</g>
<!-- Node1&#45;&gt;Node5 -->
<g id="edge5" class="edge">
<title>Node1&#45;&gt;Node5</title>
<path fill="none" stroke="#191970" d="M452.6651,-179.484C394.0749,-157.903 251.3928,-105.3476 189.247,-82.457"/>
<polygon fill="#191970" stroke="#191970" points="190.2387,-79.0924 179.6453,-78.9203 187.8192,-85.661 190.2387,-79.0924"/>
</g>
<!-- Node6 -->
<g id="node7" class="node">
<title>Node6</title>
<polygon fill="#ffffff" stroke="#bfbfbf" points="185.5,-.5 185.5,-19.5 229.5,-19.5 229.5,-.5 185.5,-.5"/>
<text text-anchor="middle" x="207.5" y="-7.5" font-family="Helvetica,sans-Serif" font-size="10.00" fill="#000000">vector</text>
</g>
<!-- Node1&#45;&gt;Node6 -->
<g id="edge6" class="edge">
<title>Node1&#45;&gt;Node6</title>
<path fill="none" stroke="#191970" d="M442.9291,-184.1053C361.8523,-172.1313 167.4956,-138.5244 130.5,-87 122.4642,-75.8084 123.7002,-67.9829 130.5,-56 140.265,-38.7916 159.3056,-27.3334 176.0085,-20.1566"/>
<polygon fill="#191970" stroke="#191970" points="177.4692,-23.3428 185.4849,-16.4147 174.8983,-16.832 177.4692,-23.3428"/>
</g>
<!-- Node1&#45;&gt;Node7 -->
<g id="edge7" class="edge">
<title>Node1&#45;&gt;Node7</title>
<path fill="none" stroke="#191970" d="M514.0414,-187.4279C618.7281,-182.6458 934.9894,-167.1117 1196.5,-143 1206.4723,-142.0805 1217.0986,-140.9302 1227.302,-139.7404"/>
<polygon fill="#191970" stroke="#191970" points="1227.8096,-143.2047 1237.3244,-138.5444 1226.9801,-136.254 1227.8096,-143.2047"/>
</g>
<!-- Node11 -->
<g id="node12" class="node">
<title>Node11</title>
<g id="a_node12"><a xlink:href="structures_8hxx.html" target="_top" xlink:title="Data structures. ">
<polygon fill="#ffffff" stroke="#000000" points="479,-123.5 479,-142.5 558,-142.5 558,-123.5 479,-123.5"/>
<text text-anchor="middle" x="518.5" y="-130.5" font-family="Helvetica,sans-Serif" font-size="10.00" fill="#000000">structures.hxx</text>
</a>
</g>
</g>
<!-- Node1&#45;&gt;Node11 -->
<g id="edge12" class="edge">
<title>Node1&#45;&gt;Node11</title>
<path fill="none" stroke="#191970" d="M485.4675,-179.2455C491.0311,-171.4564 498.978,-160.3308 505.6829,-150.9439"/>
<polygon fill="#191970" stroke="#191970" points="508.648,-152.8144 511.6124,-142.6427 502.9519,-148.7457 508.648,-152.8144"/>
</g>
<!-- Node7&#45;&gt;Node3 -->
<g id="edge9" class="edge">
<title>Node7&#45;&gt;Node3</title>
<path fill="none" stroke="#191970" d="M1270.3977,-123.3484C1250.7461,-102.511 1204.1341,-53.0862 1179.4593,-26.9224"/>
<polygon fill="#191970" stroke="#191970" points="1181.9674,-24.4805 1172.56,-19.6068 1176.8748,-29.2832 1181.9674,-24.4805"/>
</g>
<!-- Node7&#45;&gt;Node8 -->
<g id="edge8" class="edge">
<title>Node7&#45;&gt;Node8</title>
<path fill="none" stroke="#191970" d="M1321.5142,-124.2562C1356.4129,-116.3748 1407.0353,-103.4986 1449.5,-87 1450.6988,-86.5342 1451.9124,-86.0345 1453.1295,-85.51"/>
<polygon fill="#191970" stroke="#191970" points="1454.7936,-88.5948 1462.3399,-81.1582 1451.8031,-82.2657 1454.7936,-88.5948"/>
</g>
<!-- Node9 -->
<g id="node10" class="node">
<title>Node9</title>
<polygon fill="#ffffff" stroke="#bfbfbf" points="1248.5,-62 1248.5,-81 1310.5,-81 1310.5,-62 1248.5,-62"/>
<text text-anchor="middle" x="1279.5" y="-69" font-family="Helvetica,sans-Serif" font-size="10.00" fill="#000000">type_traits</text>
</g>
<!-- Node7&#45;&gt;Node9 -->
<g id="edge10" class="edge">
<title>Node7&#45;&gt;Node9</title>
<path fill="none" stroke="#191970" d="M1279.5,-123.3906C1279.5,-114.8657 1279.5,-102.1392 1279.5,-91.4235"/>
<polygon fill="#191970" stroke="#191970" points="1283.0001,-91.2448 1279.5,-81.2449 1276.0001,-91.2449 1283.0001,-91.2448"/>
</g>
<!-- Node10 -->
<g id="node11" class="node">
<title>Node10</title>
<polygon fill="#ffffff" stroke="#bfbfbf" points="1329,-56.5 1329,-86.5 1440,-86.5 1440,-56.5 1329,-56.5"/>
<text text-anchor="start" x="1337" y="-74.5" font-family="Helvetica,sans-Serif" font-size="10.00" fill="#000000">boost/locale/encoding</text>
<text text-anchor="middle" x="1384.5" y="-63.5" font-family="Helvetica,sans-Serif" font-size="10.00" fill="#000000">_utf.hpp</text>
</g>
<!-- Node7&#45;&gt;Node10 -->
<g id="edge11" class="edge">
<title>Node7&#45;&gt;Node10</title>
<path fill="none" stroke="#191970" d="M1295.9063,-123.3906C1310.3799,-114.9132 1331.9472,-102.2809 1350.1781,-91.6028"/>
<polygon fill="#191970" stroke="#191970" points="1351.9542,-94.6188 1358.8141,-86.5446 1348.4163,-88.5786 1351.9542,-94.6188"/>
</g>
<!-- Node11&#45;&gt;Node3 -->
<g id="edge21" class="edge">
<title>Node11&#45;&gt;Node3</title>
<path fill="none" stroke="#191970" d="M558.3703,-132.2471C685.9589,-129.5278 1078.6439,-118.6448 1125.5,-87 1145.0297,-73.8104 1154.93,-47.5478 1159.6464,-29.3876"/>
<polygon fill="#191970" stroke="#191970" points="1163.0775,-30.0838 1161.9055,-19.554 1156.2552,-28.5164 1163.0775,-30.0838"/>
</g>
<!-- Node11&#45;&gt;Node5 -->
<g id="edge22" class="edge">
<title>Node11&#45;&gt;Node5</title>
<path fill="none" stroke="#191970" d="M478.9649,-124.6786C475.7677,-124.0828 472.5829,-123.515 469.5,-123 347.4848,-102.6188 312.4318,-121.0344 193.5,-87 191.5354,-86.4378 189.5395,-85.7793 187.5497,-85.0566"/>
<polygon fill="#191970" stroke="#191970" points="188.4052,-81.6241 177.8255,-81.0584 185.7432,-88.0982 188.4052,-81.6241"/>
</g>
<!-- Node11&#45;&gt;Node6 -->
<g id="edge23" class="edge">
<title>Node11&#45;&gt;Node6</title>
<path fill="none" stroke="#191970" d="M478.9547,-124.7379C475.7599,-124.1288 472.5783,-123.5417 469.5,-123 415.7368,-113.5387 266.8869,-123.7273 226.5,-87 210.7153,-72.6456 207.0781,-47.4577 206.666,-29.81"/>
<polygon fill="#191970" stroke="#191970" points="210.1665,-29.7568 206.7558,-19.726 203.1668,-29.6944 210.1665,-29.7568"/>
</g>
<!-- Node12 -->
<g id="node13" class="node">
<title>Node12</title>
<g id="a_node13"><a xlink:href="condition_8hxx.html" target="_top" xlink:title="Condition matching. ">
<polygon fill="#ffffff" stroke="#000000" points="1042.5,-62 1042.5,-81 1116.5,-81 1116.5,-62 1042.5,-62"/>
<text text-anchor="middle" x="1079.5" y="-69" font-family="Helvetica,sans-Serif" font-size="10.00" fill="#000000">condition.hxx</text>
</a>
</g>
</g>
<!-- Node11&#45;&gt;Node12 -->
<g id="edge13" class="edge">
<title>Node11&#45;&gt;Node12</title>
<path fill="none" stroke="#191970" d="M558.265,-130.6656C662.6517,-124.343 942.6866,-106.0759 1033.5,-87 1037.1804,-86.2269 1040.9754,-85.2524 1044.7333,-84.1701"/>
<polygon fill="#191970" stroke="#191970" points="1045.9907,-87.4441 1054.4896,-81.118 1043.9007,-80.7633 1045.9907,-87.4441"/>
</g>
<!-- Node14 -->
<g id="node15" class="node">
<title>Node14</title>
<polygon fill="#ffffff" stroke="#bfbfbf" points="235.5,-62 235.5,-81 291.5,-81 291.5,-62 235.5,-62"/>
<text text-anchor="middle" x="263.5" y="-69" font-family="Helvetica,sans-Serif" font-size="10.00" fill="#000000">algorithm</text>
</g>
<!-- Node11&#45;&gt;Node14 -->
<g id="edge17" class="edge">
<title>Node11&#45;&gt;Node14</title>
<path fill="none" stroke="#191970" d="M478.9757,-124.8611C418.4891,-112.3767 309.0161,-89.6561 300.5,-87 298.3392,-86.3261 296.1307,-85.5734 293.9215,-84.7729"/>
<polygon fill="#191970" stroke="#191970" points="294.9648,-81.4232 284.3764,-81.0527 292.4227,-87.9453 294.9648,-81.4232"/>
</g>
<!-- Node15 -->
<g id="node16" class="node">
<title>Node15</title>
<polygon fill="#ffffff" stroke="#bfbfbf" points="309.5,-62 309.5,-81 353.5,-81 353.5,-62 309.5,-62"/>
<text text-anchor="middle" x="331.5" y="-69" font-family="Helvetica,sans-Serif" font-size="10.00" fill="#000000">cmath</text>
</g>
<!-- Node11&#45;&gt;Node15 -->
<g id="edge18" class="edge">
<title>Node11&#45;&gt;Node15</title>
<path fill="none" stroke="#191970" d="M479.069,-123.4399C447.1356,-115.208 401.2512,-102.2623 362.5,-87 361.1353,-86.4625 359.7495,-85.8869 358.3589,-85.2852"/>
<polygon fill="#191970" stroke="#191970" points="359.8297,-82.1093 349.2864,-81.0655 356.8776,-88.4563 359.8297,-82.1093"/>
</g>
<!-- Node16 -->
<g id="node17" class="node">
<title>Node16</title>
<polygon fill="#ffffff" stroke="#bfbfbf" points="372,-62 372,-81 419,-81 419,-62 372,-62"/>
<text text-anchor="middle" x="395.5" y="-69" font-family="Helvetica,sans-Serif" font-size="10.00" fill="#000000">iterator</text>
</g>
<!-- Node11&#45;&gt;Node16 -->
<g id="edge19" class="edge">
<title>Node11&#45;&gt;Node16</title>
<path fill="none" stroke="#191970" d="M499.2813,-123.3906C478.9719,-113.2359 446.7393,-97.1196 423.5832,-85.5416"/>
<polygon fill="#191970" stroke="#191970" points="425.0933,-82.3836 414.5838,-81.0419 421.9628,-88.6446 425.0933,-82.3836"/>
</g>
<!-- Node17 -->
<g id="node18" class="node">
<title>Node17</title>
<polygon fill="#ffffff" stroke="#bfbfbf" points="437,-62 437,-81 496,-81 496,-62 437,-62"/>
<text text-anchor="middle" x="466.5" y="-69" font-family="Helvetica,sans-Serif" font-size="10.00" fill="#000000">stdexcept</text>
</g>
<!-- Node11&#45;&gt;Node17 -->
<g id="edge20" class="edge">
<title>Node11&#45;&gt;Node17</title>
<path fill="none" stroke="#191970" d="M510.375,-123.3906C502.6358,-114.2376 490.8013,-100.2409 481.3728,-89.09"/>
<polygon fill="#191970" stroke="#191970" points="483.8689,-86.6213 474.7396,-81.2449 478.5235,-91.1409 483.8689,-86.6213"/>
</g>
<!-- Node18 -->
<g id="node19" class="node">
<title>Node18</title>
<polygon fill="#ffffff" stroke="#bfbfbf" points="514.5,-56.5 514.5,-86.5 624.5,-86.5 624.5,-56.5 514.5,-56.5"/>
<text text-anchor="start" x="522.5" y="-74.5" font-family="Helvetica,sans-Serif" font-size="10.00" fill="#000000">boost/container/small</text>
<text text-anchor="middle" x="569.5" y="-63.5" font-family="Helvetica,sans-Serif" font-size="10.00" fill="#000000">_vector.hpp</text>
</g>
<!-- Node11&#45;&gt;Node18 -->
<g id="edge24" class="edge">
<title>Node11&#45;&gt;Node18</title>
<path fill="none" stroke="#191970" d="M526.4688,-123.3906C532.9236,-115.6068 542.2832,-104.3202 550.6261,-94.2597"/>
<polygon fill="#191970" stroke="#191970" points="553.3348,-96.4764 557.024,-86.5446 547.9464,-92.008 553.3348,-96.4764"/>
</g>
<!-- Node19 -->
<g id="node20" class="node">
<title>Node19</title>
<polygon fill="#ffffff" stroke="#bfbfbf" points="642.5,-62 642.5,-81 792.5,-81 792.5,-62 642.5,-62"/>
<text text-anchor="middle" x="717.5" y="-69" font-family="Helvetica,sans-Serif" font-size="10.00" fill="#000000">boost/multi_index/member.hpp</text>
</g>
<!-- Node11&#45;&gt;Node19 -->
<g id="edge25" class="edge">
<title>Node11&#45;&gt;Node19</title>
<path fill="none" stroke="#191970" d="M549.5938,-123.3906C583.9124,-112.7846 639.2743,-95.6753 676.9698,-84.0257"/>
<polygon fill="#191970" stroke="#191970" points="678.1039,-87.3386 686.6246,-81.0419 676.037,-80.6507 678.1039,-87.3386"/>
</g>
<!-- Node20 -->
<g id="node21" class="node">
<title>Node20</title>
<polygon fill="#ffffff" stroke="#bfbfbf" points="811,-56.5 811,-86.5 912,-86.5 912,-56.5 811,-56.5"/>
<text text-anchor="start" x="819" y="-74.5" font-family="Helvetica,sans-Serif" font-size="10.00" fill="#000000">boost/range/iterator</text>
<text text-anchor="middle" x="861.5" y="-63.5" font-family="Helvetica,sans-Serif" font-size="10.00" fill="#000000">_range_core.hpp</text>
</g>
<!-- Node11&#45;&gt;Node20 -->
<g id="edge26" class="edge">
<title>Node11&#45;&gt;Node20</title>
<path fill="none" stroke="#191970" d="M558.0836,-127.7344C611.1203,-120.423 708.3391,-106.1259 801.0176,-86.9861"/>
<polygon fill="#191970" stroke="#191970" points="801.7642,-90.4058 810.8379,-84.936 800.3336,-83.5535 801.7642,-90.4058"/>
</g>
<!-- Node21 -->
<g id="node22" class="node">
<title>Node21</title>
<polygon fill="#ffffff" stroke="#bfbfbf" points="930.5,-56.5 930.5,-86.5 1024.5,-86.5 1024.5,-56.5 930.5,-56.5"/>
<text text-anchor="start" x="938.5" y="-74.5" font-family="Helvetica,sans-Serif" font-size="10.00" fill="#000000">boost/utility/string</text>
<text text-anchor="middle" x="977.5" y="-63.5" font-family="Helvetica,sans-Serif" font-size="10.00" fill="#000000">_view.hpp</text>
</g>
<!-- Node11&#45;&gt;Node21 -->
<g id="edge27" class="edge">
<title>Node11&#45;&gt;Node21</title>
<path fill="none" stroke="#191970" d="M558.1732,-130.4632C630.6445,-125.3863 789.0804,-112.2366 920.5,-87 920.6007,-86.9807 920.7015,-86.9612 920.8024,-86.9417"/>
<polygon fill="#191970" stroke="#191970" points="921.2975,-90.4148 930.3515,-84.9125 919.8424,-83.5676 921.2975,-90.4148"/>
</g>
<!-- Node12&#45;&gt;Node3 -->
<g id="edge14" class="edge">
<title>Node12&#45;&gt;Node3</title>
<path fill="none" stroke="#191970" d="M1092.625,-61.8906C1105.94,-52.1421 1126.7594,-36.8994 1142.3947,-25.4521"/>
<polygon fill="#191970" stroke="#191970" points="1144.4661,-28.2734 1150.4672,-19.5419 1140.3309,-22.6253 1144.4661,-28.2734"/>
</g>
<!-- Node12&#45;&gt;Node6 -->
<g id="edge16" class="edge">
<title>Node12&#45;&gt;Node6</title>
<path fill="none" stroke="#191970" d="M1055.0008,-61.8862C1048.143,-59.5701 1040.6166,-57.371 1033.5,-56 877.2916,-25.9062 372.9301,-13.4501 239.9108,-10.6408"/>
<polygon fill="#191970" stroke="#191970" points="239.6592,-7.1349 229.5887,-10.4266 239.5139,-14.1334 239.6592,-7.1349"/>
</g>
<!-- Node13 -->
<g id="node14" class="node">
<title>Node13</title>
<polygon fill="#ffffff" stroke="#bfbfbf" points="1060.5,-.5 1060.5,-19.5 1098.5,-19.5 1098.5,-.5 1060.5,-.5"/>
<text text-anchor="middle" x="1079.5" y="-7.5" font-family="Helvetica,sans-Serif" font-size="10.00" fill="#000000">tuple</text>
</g>
<!-- Node12&#45;&gt;Node13 -->
<g id="edge15" class="edge">
<title>Node12&#45;&gt;Node13</title>
<path fill="none" stroke="#191970" d="M1079.5,-61.8906C1079.5,-53.3657 1079.5,-40.6392 1079.5,-29.9235"/>
<polygon fill="#191970" stroke="#191970" points="1083.0001,-29.7448 1079.5,-19.7449 1076.0001,-29.7449 1083.0001,-29.7448"/>
</g>
</g>
</svg>
