<?xml version="1.0" encoding="UTF-8" standalone="no"?>
<!DOCTYPE svg PUBLIC "-//W3C//DTD SVG 1.1//EN"
 "http://www.w3.org/Graphics/SVG/1.1/DTD/svg11.dtd">
<!-- Generated by graphviz version 2.40.1 (20161225.0304)
 -->
<!-- Title: src/nuspell/dictionary.hxx Pages: 1 -->
<svg width="900pt" height="274pt"
 viewBox="0.00 0.00 899.50 274.00" xmlns="http://www.w3.org/2000/svg" xmlns:xlink="http://www.w3.org/1999/xlink">
<g id="graph0" class="graph" transform="scale(1 1) rotate(0) translate(4 270)">
<title>src/nuspell/dictionary.hxx</title>
<polygon fill="#ffffff" stroke="transparent" points="-4,4 -4,-270 895.5,-270 895.5,4 -4,4"/>
<!-- Node0 -->
<g id="node1" class="node">
<title>Node0</title>
<polygon fill="#bfbfbf" stroke="#000000" points="446,-246.5 446,-265.5 574,-265.5 574,-246.5 446,-246.5"/>
<text text-anchor="middle" x="510" y="-253.5" font-family="Helvetica,sans-Serif" font-size="10.00" fill="#000000">src/nuspell/dictionary.hxx</text>
</g>
<!-- Node1 -->
<g id="node2" class="node">
<title>Node1</title>
<g id="a_node2"><a xlink:href="aff__data_8hxx.html" target="_top" xlink:title="Affixing data structures, private header. ">
<polygon fill="#ffffff" stroke="#000000" points="474.5,-190.5 474.5,-209.5 545.5,-209.5 545.5,-190.5 474.5,-190.5"/>
<text text-anchor="middle" x="510" y="-197.5" font-family="Helvetica,sans-Serif" font-size="10.00" fill="#000000">aff_data.hxx</text>
</a>
</g>
</g>
<!-- Node0&#45;&gt;Node1 -->
<g id="edge1" class="edge">
<title>Node0&#45;&gt;Node1</title>
<path fill="none" stroke="#191970" d="M510,-246.2455C510,-238.9382 510,-228.6944 510,-219.7046"/>
<polygon fill="#191970" stroke="#191970" points="513.5001,-219.6426 510,-209.6427 506.5001,-219.6427 513.5001,-219.6426"/>
</g>
<!-- Node2 -->
<g id="node3" class="node">
<title>Node2</title>
<g id="a_node3"><a xlink:href="structures_8hxx.html" target="_top" xlink:title="Data structures, private header. ">
<polygon fill="#ffffff" stroke="#000000" points="390.5,-134.5 390.5,-153.5 469.5,-153.5 469.5,-134.5 390.5,-134.5"/>
<text text-anchor="middle" x="430" y="-141.5" font-family="Helvetica,sans-Serif" font-size="10.00" fill="#000000">structures.hxx</text>
</a>
</g>
</g>
<!-- Node1&#45;&gt;Node2 -->
<g id="edge2" class="edge">
<title>Node1&#45;&gt;Node2</title>
<path fill="none" stroke="#191970" d="M496.0651,-190.2455C483.9053,-181.7337 466.0536,-169.2375 451.9715,-159.3801"/>
<polygon fill="#191970" stroke="#191970" points="453.9747,-156.51 443.7752,-153.6427 449.9605,-162.2447 453.9747,-156.51"/>
</g>
<!-- Node18 -->
<g id="node19" class="node">
<title>Node18</title>
<polygon fill="#ffffff" stroke="#bfbfbf" points="487.5,-134.5 487.5,-153.5 532.5,-153.5 532.5,-134.5 487.5,-134.5"/>
<text text-anchor="middle" x="510" y="-141.5" font-family="Helvetica,sans-Serif" font-size="10.00" fill="#000000">iosfwd</text>
</g>
<!-- Node1&#45;&gt;Node18 -->
<g id="edge22" class="edge">
<title>Node1&#45;&gt;Node18</title>
<path fill="none" stroke="#191970" d="M510,-190.2455C510,-182.9382 510,-172.6944 510,-163.7046"/>
<polygon fill="#191970" stroke="#191970" points="513.5001,-163.6426 510,-153.6427 506.5001,-163.6427 513.5001,-163.6426"/>
</g>
<!-- Node19 -->
<g id="node20" class="node">
<title>Node19</title>
<polygon fill="#ffffff" stroke="#bfbfbf" points="551,-134.5 551,-153.5 633,-153.5 633,-134.5 551,-134.5"/>
<text text-anchor="middle" x="592" y="-141.5" font-family="Helvetica,sans-Serif" font-size="10.00" fill="#000000">unicode/locid.h</text>
</g>
<!-- Node1&#45;&gt;Node19 -->
<g id="edge23" class="edge">
<title>Node1&#45;&gt;Node19</title>
<path fill="none" stroke="#191970" d="M524.2833,-190.2455C536.747,-181.7337 555.0451,-169.2375 569.4792,-159.3801"/>
<polygon fill="#191970" stroke="#191970" points="571.5962,-162.1726 577.8804,-153.6427 567.6485,-156.392 571.5962,-162.1726"/>
</g>
<!-- Node3 -->
<g id="node4" class="node">
<title>Node3</title>
<g id="a_node4"><a xlink:href="string__utils_8hxx.html" target="_top" xlink:title="String algorithms, private header. ">
<polygon fill="#ffffff" stroke="#000000" points="230.5,-73 230.5,-92 313.5,-92 313.5,-73 230.5,-73"/>
<text text-anchor="middle" x="272" y="-80" font-family="Helvetica,sans-Serif" font-size="10.00" fill="#000000">string_utils.hxx</text>
</a>
</g>
</g>
<!-- Node2&#45;&gt;Node3 -->
<g id="edge3" class="edge">
<title>Node2&#45;&gt;Node3</title>
<path fill="none" stroke="#191970" d="M405.3125,-134.3906C378.6443,-124.0103 335.9718,-107.4004 306.1089,-95.7766"/>
<polygon fill="#191970" stroke="#191970" points="307.1027,-92.4076 296.5141,-92.0419 304.5635,-98.9309 307.1027,-92.4076"/>
</g>
<!-- Node4 -->
<g id="node5" class="node">
<title>Node4</title>
<polygon fill="#ffffff" stroke="#bfbfbf" points="0,-6 0,-25 56,-25 56,-6 0,-6"/>
<text text-anchor="middle" x="28" y="-13" font-family="Helvetica,sans-Serif" font-size="10.00" fill="#000000">algorithm</text>
</g>
<!-- Node2&#45;&gt;Node4 -->
<g id="edge12" class="edge">
<title>Node2&#45;&gt;Node4</title>
<path fill="none" stroke="#191970" d="M390.4845,-141.7702C337.4565,-137.7566 241.0278,-126.8401 164,-98 119.8126,-81.4557 74.0287,-50.247 48.4616,-31.3174"/>
<polygon fill="#191970" stroke="#191970" points="50.3931,-28.3907 40.2971,-25.178 46.186,-33.9855 50.3931,-28.3907"/>
</g>
<!-- Node5 -->
<g id="node6" class="node">
<title>Node5</title>
<polygon fill="#ffffff" stroke="#bfbfbf" points="74.5,-6 74.5,-25 121.5,-25 121.5,-6 74.5,-6"/>
<text text-anchor="middle" x="98" y="-13" font-family="Helvetica,sans-Serif" font-size="10.00" fill="#000000">iterator</text>
</g>
<!-- Node2&#45;&gt;Node5 -->
<g id="edge14" class="edge">
<title>Node2&#45;&gt;Node5</title>
<path fill="none" stroke="#191970" d="M390.1334,-139.7216C347.0471,-134.0829 277.0326,-121.9367 221,-98 180.9531,-80.8923 140.0594,-50.3119 116.9672,-31.5729"/>
<polygon fill="#191970" stroke="#191970" points="118.9687,-28.6869 109.0273,-25.0236 114.5144,-34.0869 118.9687,-28.6869"/>
</g>
<!-- Node8 -->
<g id="node9" class="node">
<title>Node8</title>
<polygon fill="#ffffff" stroke="#bfbfbf" points="518.5,-6 518.5,-25 559.5,-25 559.5,-6 518.5,-6"/>
<text text-anchor="middle" x="539" y="-13" font-family="Helvetica,sans-Serif" font-size="10.00" fill="#000000">string</text>
</g>
<!-- Node2&#45;&gt;Node8 -->
<g id="edge16" class="edge">
<title>Node2&#45;&gt;Node8</title>
<path fill="none" stroke="#191970" d="M407.234,-134.3999C392.5403,-126.8573 374.6158,-114.8029 366,-98 359.7136,-85.74 357.5299,-77.8667 366,-67 406.2908,-15.309 447.7033,-54.1953 509,-31 510.2337,-30.5332 511.4822,-30.0287 512.7335,-29.4967"/>
<polygon fill="#191970" stroke="#191970" points="514.6205,-32.4769 522.1778,-25.0514 511.6394,-26.1434 514.6205,-32.4769"/>
</g>
<!-- Node9 -->
<g id="node10" class="node">
<title>Node9</title>
<polygon fill="#ffffff" stroke="#bfbfbf" points="578,-6 578,-25 622,-25 622,-6 578,-6"/>
<text text-anchor="middle" x="600" y="-13" font-family="Helvetica,sans-Serif" font-size="10.00" fill="#000000">vector</text>
</g>
<!-- Node2&#45;&gt;Node9 -->
<g id="edge19" class="edge">
<title>Node2&#45;&gt;Node9</title>
<path fill="none" stroke="#191970" d="M420.0611,-134.0422C405.6239,-118.366 382.3053,-87.6003 399,-67 447.6258,-6.9986 496.0918,-56.4761 569,-31 570.4201,-30.5038 571.8585,-29.9567 573.298,-29.3733"/>
<polygon fill="#191970" stroke="#191970" points="574.963,-32.4617 582.6336,-25.1534 572.0797,-26.0831 574.963,-32.4617"/>
</g>
<!-- Node12 -->
<g id="node13" class="node">
<title>Node12</title>
<polygon fill="#ffffff" stroke="#bfbfbf" points="408,-73 408,-92 452,-92 452,-73 408,-73"/>
<text text-anchor="middle" x="430" y="-80" font-family="Helvetica,sans-Serif" font-size="10.00" fill="#000000">cmath</text>
</g>
<!-- Node2&#45;&gt;Node12 -->
<g id="edge13" class="edge">
<title>Node2&#45;&gt;Node12</title>
<path fill="none" stroke="#191970" d="M430,-134.3906C430,-125.8657 430,-113.1392 430,-102.4235"/>
<polygon fill="#191970" stroke="#191970" points="433.5001,-102.2448 430,-92.2449 426.5001,-102.2449 433.5001,-102.2448"/>
</g>
<!-- Node13 -->
<g id="node14" class="node">
<title>Node13</title>
<polygon fill="#ffffff" stroke="#bfbfbf" points="470.5,-73 470.5,-92 529.5,-92 529.5,-73 470.5,-73"/>
<text text-anchor="middle" x="500" y="-80" font-family="Helvetica,sans-Serif" font-size="10.00" fill="#000000">stdexcept</text>
</g>
<!-- Node2&#45;&gt;Node13 -->
<g id="edge15" class="edge">
<title>Node2&#45;&gt;Node13</title>
<path fill="none" stroke="#191970" d="M440.9375,-134.3906C451.662,-124.9683 468.2287,-110.4134 481.0901,-99.1137"/>
<polygon fill="#191970" stroke="#191970" points="483.7059,-101.4745 488.9083,-92.2449 479.0857,-96.2158 483.7059,-101.4745"/>
</g>
<!-- Node14 -->
<g id="node15" class="node">
<title>Node14</title>
<polygon fill="#ffffff" stroke="#bfbfbf" points="548,-73 548,-92 586,-92 586,-73 548,-73"/>
<text text-anchor="middle" x="567" y="-80" font-family="Helvetica,sans-Serif" font-size="10.00" fill="#000000">tuple</text>
</g>
<!-- Node2&#45;&gt;Node14 -->
<g id="edge17" class="edge">
<title>Node2&#45;&gt;Node14</title>
<path fill="none" stroke="#191970" d="M454.5742,-134.4974C476.8856,-125.666 510.5517,-111.8286 539,-98 539.6934,-97.663 540.3938,-97.3169 541.0985,-96.9639"/>
<polygon fill="#191970" stroke="#191970" points="543.0524,-99.8908 550.2733,-92.1378 539.7936,-93.6956 543.0524,-99.8908"/>
</g>
<!-- Node15 -->
<g id="node16" class="node">
<title>Node15</title>
<polygon fill="#ffffff" stroke="#bfbfbf" points="604,-73 604,-92 644,-92 644,-73 604,-73"/>
<text text-anchor="middle" x="624" y="-80" font-family="Helvetica,sans-Serif" font-size="10.00" fill="#000000">utility</text>
</g>
<!-- Node2&#45;&gt;Node15 -->
<g id="edge18" class="edge">
<title>Node2&#45;&gt;Node15</title>
<path fill="none" stroke="#191970" d="M469.8061,-135.4892C503.7349,-127.628 553.4594,-114.6578 595,-98 596.0332,-97.5857 597.0773,-97.1445 598.1246,-96.6831"/>
<polygon fill="#191970" stroke="#191970" points="599.9689,-99.6781 607.4303,-92.1563 596.9068,-93.3834 599.9689,-99.6781"/>
</g>
<!-- Node16 -->
<g id="node17" class="node">
<title>Node16</title>
<polygon fill="#ffffff" stroke="#bfbfbf" points="662,-67.5 662,-97.5 772,-97.5 772,-67.5 662,-67.5"/>
<text text-anchor="start" x="670" y="-85.5" font-family="Helvetica,sans-Serif" font-size="10.00" fill="#000000">boost/container/small</text>
<text text-anchor="middle" x="717" y="-74.5" font-family="Helvetica,sans-Serif" font-size="10.00" fill="#000000">_vector.hpp</text>
</g>
<!-- Node2&#45;&gt;Node16 -->
<g id="edge20" class="edge">
<title>Node2&#45;&gt;Node16</title>
<path fill="none" stroke="#191970" d="M469.7527,-135.8769C523.1981,-124.9452 615.0269,-106.1225 651.9349,-98.1587"/>
<polygon fill="#191970" stroke="#191970" points="652.8527,-101.5407 661.87,-95.9784 651.3521,-94.7034 652.8527,-101.5407"/>
</g>
<!-- Node17 -->
<g id="node18" class="node">
<title>Node17</title>
<polygon fill="#ffffff" stroke="#bfbfbf" points="790.5,-67.5 790.5,-97.5 891.5,-97.5 891.5,-67.5 790.5,-67.5"/>
<text text-anchor="start" x="798.5" y="-85.5" font-family="Helvetica,sans-Serif" font-size="10.00" fill="#000000">boost/range/iterator</text>
<text text-anchor="middle" x="841" y="-74.5" font-family="Helvetica,sans-Serif" font-size="10.00" fill="#000000">_range_core.hpp</text>
</g>
<!-- Node2&#45;&gt;Node17 -->
<g id="edge21" class="edge">
<title>Node2&#45;&gt;Node17</title>
<path fill="none" stroke="#191970" d="M469.5289,-135.6408C472.7274,-135.0535 475.9143,-134.4979 479,-134 609.1884,-112.9928 646.3504,-122.4676 780.1396,-97.9917"/>
<polygon fill="#191970" stroke="#191970" points="781.1769,-101.3589 790.3684,-96.0893 779.897,-94.4769 781.1769,-101.3589"/>
</g>
<!-- Node3&#45;&gt;Node4 -->
<g id="edge4" class="edge">
<title>Node3&#45;&gt;Node4</title>
<path fill="none" stroke="#191970" d="M230.2301,-74.0749C188.0392,-65.108 121.2398,-49.6544 65,-31 62.9053,-30.3052 60.7624,-29.545 58.6151,-28.7461"/>
<polygon fill="#191970" stroke="#191970" points="59.8972,-25.4894 49.3103,-25.0796 57.3309,-32.002 59.8972,-25.4894"/>
</g>
<!-- Node3&#45;&gt;Node5 -->
<g id="edge5" class="edge">
<title>Node3&#45;&gt;Node5</title>
<path fill="none" stroke="#191970" d="M243.6256,-72.9687C214.9472,-63.1413 169.4922,-47.0322 131,-31 129.6488,-30.4372 128.2724,-29.8496 126.8864,-29.2463"/>
<polygon fill="#191970" stroke="#191970" points="128.3204,-26.0536 117.7656,-25.1326 125.4424,-32.4346 128.3204,-26.0536"/>
</g>
<!-- Node6 -->
<g id="node7" class="node">
<title>Node6</title>
<polygon fill="#ffffff" stroke="#bfbfbf" points="140,-6 140,-25 182,-25 182,-6 140,-6"/>
<text text-anchor="middle" x="161" y="-13" font-family="Helvetica,sans-Serif" font-size="10.00" fill="#000000">locale</text>
</g>
<!-- Node3&#45;&gt;Node6 -->
<g id="edge6" class="edge">
<title>Node3&#45;&gt;Node6</title>
<path fill="none" stroke="#191970" d="M256.0964,-72.9005C237.633,-61.7559 206.9701,-43.2477 185.4668,-30.2682"/>
<polygon fill="#191970" stroke="#191970" points="187.2441,-27.2529 176.8741,-25.0817 183.6267,-33.2458 187.2441,-27.2529"/>
</g>
<!-- Node7 -->
<g id="node8" class="node">
<title>Node7</title>
<polygon fill="#ffffff" stroke="#bfbfbf" points="200.5,-6 200.5,-25 241.5,-25 241.5,-6 200.5,-6"/>
<text text-anchor="middle" x="221" y="-13" font-family="Helvetica,sans-Serif" font-size="10.00" fill="#000000">stack</text>
</g>
<!-- Node3&#45;&gt;Node7 -->
<g id="edge7" class="edge">
<title>Node3&#45;&gt;Node7</title>
<path fill="none" stroke="#191970" d="M264.6929,-72.9005C256.8157,-62.552 244.1054,-45.8542 234.4194,-33.1295"/>
<polygon fill="#191970" stroke="#191970" points="237.1354,-30.9188 228.2935,-25.0817 231.5654,-35.1586 237.1354,-30.9188"/>
</g>
<!-- Node3&#45;&gt;Node8 -->
<g id="edge8" class="edge">
<title>Node3&#45;&gt;Node8</title>
<path fill="none" stroke="#191970" d="M304.7643,-72.9958C312.3652,-70.9123 320.4426,-68.7949 328,-67 407.8004,-48.0474 431.5829,-58.0906 509,-31 510.4179,-30.5038 511.8526,-29.9517 513.2864,-29.3597"/>
<polygon fill="#191970" stroke="#191970" points="514.9618,-32.4405 522.5507,-25.0473 512.0077,-26.0944 514.9618,-32.4405"/>
</g>
<!-- Node3&#45;&gt;Node9 -->
<g id="edge9" class="edge">
<title>Node3&#45;&gt;Node9</title>
<path fill="none" stroke="#191970" d="M313.702,-75.5985C392.5995,-62.4954 556.9445,-34.9639 569,-31 570.6112,-30.4702 572.2435,-29.8692 573.8726,-29.219"/>
<polygon fill="#191970" stroke="#191970" points="575.3172,-32.4071 583.0004,-25.1119 572.4448,-26.0235 575.3172,-32.4071"/>
</g>
<!-- Node10 -->
<g id="node11" class="node">
<title>Node10</title>
<polygon fill="#ffffff" stroke="#bfbfbf" points="260,-6 260,-25 388,-25 388,-6 260,-6"/>
<text text-anchor="middle" x="324" y="-13" font-family="Helvetica,sans-Serif" font-size="10.00" fill="#000000">boost/functional/hash.hpp</text>
</g>
<!-- Node3&#45;&gt;Node10 -->
<g id="edge10" class="edge">
<title>Node3&#45;&gt;Node10</title>
<path fill="none" stroke="#191970" d="M279.4503,-72.9005C287.4821,-62.552 300.4415,-45.8542 310.3174,-33.1295"/>
<polygon fill="#191970" stroke="#191970" points="313.1972,-35.1275 316.5635,-25.0817 307.6672,-30.8356 313.1972,-35.1275"/>
</g>
<!-- Node11 -->
<g id="node12" class="node">
<title>Node11</title>
<polygon fill="#ffffff" stroke="#bfbfbf" points="406,-.5 406,-30.5 500,-30.5 500,-.5 406,-.5"/>
<text text-anchor="start" x="414" y="-18.5" font-family="Helvetica,sans-Serif" font-size="10.00" fill="#000000">boost/utility/string</text>
<text text-anchor="middle" x="453" y="-7.5" font-family="Helvetica,sans-Serif" font-size="10.00" fill="#000000">_view.hpp</text>
</g>
<!-- Node3&#45;&gt;Node11 -->
<g id="edge11" class="edge">
<title>Node3&#45;&gt;Node11</title>
<path fill="none" stroke="#191970" d="M297.9329,-72.9005C325.1571,-62.8231 368.6468,-46.7247 402.651,-34.1375"/>
<polygon fill="#191970" stroke="#191970" points="404.2557,-37.2756 412.4188,-30.5218 401.8257,-30.7109 404.2557,-37.2756"/>
</g>
</g>
</svg>
