<?xml version="1.0" encoding="UTF-8" standalone="no"?>
<!DOCTYPE svg PUBLIC "-//W3C//DTD SVG 1.1//EN"
 "http://www.w3.org/Graphics/SVG/1.1/DTD/svg11.dtd">
<!-- Generated by graphviz version 2.43.0 (0)
 -->
<!-- Title: src/nuspell/dictionary.hxx Pages: 1 -->
<svg width="887pt" height="364pt"
 viewBox="0.00 0.00 886.50 364.00" xmlns="http://www.w3.org/2000/svg" xmlns:xlink="http://www.w3.org/1999/xlink">
<g id="graph0" class="graph" transform="scale(1 1) rotate(0) translate(4 360)">
<title>src/nuspell/dictionary.hxx</title>
<polygon fill="white" stroke="transparent" points="-4,4 -4,-360 882.5,-360 882.5,4 -4,4"/>
<!-- Node1 -->
<g id="node1" class="node">
<title>Node1</title>
<g id="a_node1"><a xlink:title="Dictionary spelling.">
<polygon fill="#bfbfbf" stroke="black" points="507.5,-336.5 507.5,-355.5 633.5,-355.5 633.5,-336.5 507.5,-336.5"/>
<text text-anchor="middle" x="570.5" y="-343.5" font-family="Helvetica,sans-Serif" font-size="10.00">src/nuspell/dictionary.hxx</text>
</a>
</g>
</g>
<!-- Node2 -->
<g id="node2" class="node">
<title>Node2</title>
<g id="a_node2"><a xlink:href="suggester_8hxx_source.html" target="_top" xlink:title=" ">
<polygon fill="white" stroke="black" points="488,-280.5 488,-299.5 565,-299.5 565,-280.5 488,-280.5"/>
<text text-anchor="middle" x="526.5" y="-287.5" font-family="Helvetica,sans-Serif" font-size="10.00">suggester.hxx</text>
</a>
</g>
</g>
<!-- Node1&#45;&gt;Node2 -->
<g id="edge1" class="edge">
<title>Node1&#45;&gt;Node2</title>
<path fill="none" stroke="midnightblue" d="M563.23,-336.08C556.96,-328.38 547.71,-317.03 540.07,-307.65"/>
<polygon fill="midnightblue" stroke="midnightblue" points="542.66,-305.29 533.63,-299.75 537.23,-309.71 542.66,-305.29"/>
</g>
<!-- Node24 -->
<g id="node24" class="node">
<title>Node24</title>
<g id="a_node24"><a xlink:title=" ">
<polygon fill="white" stroke="#bfbfbf" points="583.5,-280.5 583.5,-299.5 645.5,-299.5 645.5,-280.5 583.5,-280.5"/>
<text text-anchor="middle" x="614.5" y="-287.5" font-family="Helvetica,sans-Serif" font-size="10.00">filesystem</text>
</a>
</g>
</g>
<!-- Node1&#45;&gt;Node24 -->
<g id="edge25" class="edge">
<title>Node1&#45;&gt;Node24</title>
<path fill="none" stroke="midnightblue" d="M577.77,-336.08C584.04,-328.38 593.29,-317.03 600.93,-307.65"/>
<polygon fill="midnightblue" stroke="midnightblue" points="603.77,-309.71 607.37,-299.75 598.34,-305.29 603.77,-309.71"/>
</g>
<!-- Node3 -->
<g id="node3" class="node">
<title>Node3</title>
<g id="a_node3"><a xlink:href="checker_8hxx_source.html" target="_top" xlink:title=" ">
<polygon fill="white" stroke="black" points="492,-224.5 492,-243.5 561,-243.5 561,-224.5 492,-224.5"/>
<text text-anchor="middle" x="526.5" y="-231.5" font-family="Helvetica,sans-Serif" font-size="10.00">checker.hxx</text>
</a>
</g>
</g>
<!-- Node2&#45;&gt;Node3 -->
<g id="edge2" class="edge">
<title>Node2&#45;&gt;Node3</title>
<path fill="none" stroke="midnightblue" d="M526.5,-280.08C526.5,-273.01 526.5,-262.86 526.5,-253.99"/>
<polygon fill="midnightblue" stroke="midnightblue" points="530,-253.75 526.5,-243.75 523,-253.75 530,-253.75"/>
</g>
<!-- Node4 -->
<g id="node4" class="node">
<title>Node4</title>
<g id="a_node4"><a xlink:href="aff__data_8hxx_source.html" target="_top" xlink:title=" ">
<polygon fill="white" stroke="black" points="491,-168.5 491,-187.5 562,-187.5 562,-168.5 491,-168.5"/>
<text text-anchor="middle" x="526.5" y="-175.5" font-family="Helvetica,sans-Serif" font-size="10.00">aff_data.hxx</text>
</a>
</g>
</g>
<!-- Node3&#45;&gt;Node4 -->
<g id="edge3" class="edge">
<title>Node3&#45;&gt;Node4</title>
<path fill="none" stroke="midnightblue" d="M526.5,-224.08C526.5,-217.01 526.5,-206.86 526.5,-197.99"/>
<polygon fill="midnightblue" stroke="midnightblue" points="530,-197.75 526.5,-187.75 523,-197.75 530,-197.75"/>
</g>
<!-- Node5 -->
<g id="node5" class="node">
<title>Node5</title>
<g id="a_node5"><a xlink:title=" ">
<polygon fill="white" stroke="#bfbfbf" points="341.5,-112.5 341.5,-131.5 429.5,-131.5 429.5,-112.5 341.5,-112.5"/>
<text text-anchor="middle" x="385.5" y="-119.5" font-family="Helvetica,sans-Serif" font-size="10.00">nuspell_export.h</text>
</a>
</g>
</g>
<!-- Node4&#45;&gt;Node5 -->
<g id="edge4" class="edge">
<title>Node4&#45;&gt;Node5</title>
<path fill="none" stroke="midnightblue" d="M504.16,-168.44C480.75,-159.48 443.76,-145.31 417.31,-135.18"/>
<polygon fill="midnightblue" stroke="midnightblue" points="418.33,-131.82 407.74,-131.52 415.82,-138.36 418.33,-131.82"/>
</g>
<!-- Node6 -->
<g id="node6" class="node">
<title>Node6</title>
<g id="a_node6"><a xlink:href="structures_8hxx_source.html" target="_top" xlink:title=" ">
<polygon fill="white" stroke="black" points="447,-112.5 447,-131.5 526,-131.5 526,-112.5 447,-112.5"/>
<text text-anchor="middle" x="486.5" y="-119.5" font-family="Helvetica,sans-Serif" font-size="10.00">structures.hxx</text>
</a>
</g>
</g>
<!-- Node4&#45;&gt;Node6 -->
<g id="edge5" class="edge">
<title>Node4&#45;&gt;Node6</title>
<path fill="none" stroke="midnightblue" d="M519.89,-168.08C514.24,-160.46 505.96,-149.26 499.05,-139.94"/>
<polygon fill="midnightblue" stroke="midnightblue" points="501.75,-137.7 492.98,-131.75 496.12,-141.87 501.75,-137.7"/>
</g>
<!-- Node22 -->
<g id="node22" class="node">
<title>Node22</title>
<g id="a_node22"><a xlink:title=" ">
<polygon fill="white" stroke="#bfbfbf" points="544,-112.5 544,-131.5 589,-131.5 589,-112.5 544,-112.5"/>
<text text-anchor="middle" x="566.5" y="-119.5" font-family="Helvetica,sans-Serif" font-size="10.00">iosfwd</text>
</a>
</g>
</g>
<!-- Node4&#45;&gt;Node22 -->
<g id="edge23" class="edge">
<title>Node4&#45;&gt;Node22</title>
<path fill="none" stroke="midnightblue" d="M533.11,-168.08C538.76,-160.46 547.04,-149.26 553.95,-139.94"/>
<polygon fill="midnightblue" stroke="midnightblue" points="556.88,-141.87 560.02,-131.75 551.25,-137.7 556.88,-141.87"/>
</g>
<!-- Node23 -->
<g id="node23" class="node">
<title>Node23</title>
<g id="a_node23"><a xlink:title=" ">
<polygon fill="white" stroke="#bfbfbf" points="607.5,-112.5 607.5,-131.5 689.5,-131.5 689.5,-112.5 607.5,-112.5"/>
<text text-anchor="middle" x="648.5" y="-119.5" font-family="Helvetica,sans-Serif" font-size="10.00">unicode/locid.h</text>
</a>
</g>
</g>
<!-- Node4&#45;&gt;Node23 -->
<g id="edge24" class="edge">
<title>Node4&#45;&gt;Node23</title>
<path fill="none" stroke="midnightblue" d="M545.83,-168.44C565.82,-159.6 597.24,-145.69 620.06,-135.59"/>
<polygon fill="midnightblue" stroke="midnightblue" points="621.53,-138.76 629.26,-131.52 618.7,-132.36 621.53,-138.76"/>
</g>
<!-- Node7 -->
<g id="node7" class="node">
<title>Node7</title>
<g id="a_node7"><a xlink:href="unicode_8hxx_source.html" target="_top" xlink:title=" ">
<polygon fill="white" stroke="black" points="151,-56.5 151,-75.5 220,-75.5 220,-56.5 151,-56.5"/>
<text text-anchor="middle" x="185.5" y="-63.5" font-family="Helvetica,sans-Serif" font-size="10.00">unicode.hxx</text>
</a>
</g>
</g>
<!-- Node6&#45;&gt;Node7 -->
<g id="edge6" class="edge">
<title>Node6&#45;&gt;Node7</title>
<path fill="none" stroke="midnightblue" d="M446.95,-113.55C444.09,-113.02 441.25,-112.5 438.5,-112 347.92,-95.52 325.11,-92.32 234.5,-76 233.04,-75.74 231.55,-75.47 230.05,-75.2"/>
<polygon fill="midnightblue" stroke="midnightblue" points="230.49,-71.72 220.03,-73.37 229.24,-78.61 230.49,-71.72"/>
</g>
<!-- Node9 -->
<g id="node9" class="node">
<title>Node9</title>
<g id="a_node9"><a xlink:title=" ">
<polygon fill="white" stroke="#bfbfbf" points="0,-0.5 0,-19.5 41,-19.5 41,-0.5 0,-0.5"/>
<text text-anchor="middle" x="20.5" y="-7.5" font-family="Helvetica,sans-Serif" font-size="10.00">string</text>
</a>
</g>
</g>
<!-- Node6&#45;&gt;Node9 -->
<g id="edge19" class="edge">
<title>Node6&#45;&gt;Node9</title>
<path fill="none" stroke="midnightblue" d="M446.98,-113.38C444.12,-112.89 441.27,-112.43 438.5,-112 307.53,-91.78 268.9,-115.83 142.5,-76 104.71,-64.09 64.93,-40.51 41.43,-25.27"/>
<polygon fill="midnightblue" stroke="midnightblue" points="43.26,-22.27 32.98,-19.68 39.4,-28.11 43.26,-22.27"/>
</g>
<!-- Node10 -->
<g id="node10" class="node">
<title>Node10</title>
<g id="a_node10"><a xlink:title=" ">
<polygon fill="white" stroke="#bfbfbf" points="341.5,-0.5 341.5,-19.5 407.5,-19.5 407.5,-0.5 341.5,-0.5"/>
<text text-anchor="middle" x="374.5" y="-7.5" font-family="Helvetica,sans-Serif" font-size="10.00">string_view</text>
</a>
</g>
</g>
<!-- Node6&#45;&gt;Node10 -->
<g id="edge20" class="edge">
<title>Node6&#45;&gt;Node10</title>
<path fill="none" stroke="midnightblue" d="M446.97,-113.53C384.67,-101.67 270.35,-79.5 267.5,-76 261.88,-69.11 262.58,-63.4 267.5,-56 275.44,-44.04 307.7,-31.45 334.74,-22.64"/>
<polygon fill="midnightblue" stroke="midnightblue" points="335.93,-25.93 344.41,-19.57 333.82,-19.26 335.93,-25.93"/>
</g>
<!-- Node13 -->
<g id="node13" class="node">
<title>Node13</title>
<g id="a_node13"><a xlink:title=" ">
<polygon fill="white" stroke="#bfbfbf" points="276.5,-56.5 276.5,-75.5 332.5,-75.5 332.5,-56.5 276.5,-56.5"/>
<text text-anchor="middle" x="304.5" y="-63.5" font-family="Helvetica,sans-Serif" font-size="10.00">algorithm</text>
</a>
</g>
</g>
<!-- Node6&#45;&gt;Node13 -->
<g id="edge12" class="edge">
<title>Node6&#45;&gt;Node13</title>
<path fill="none" stroke="midnightblue" d="M457.66,-112.44C426.46,-103.19 376.59,-88.39 342.28,-78.21"/>
<polygon fill="midnightblue" stroke="midnightblue" points="343.19,-74.83 332.61,-75.34 341.2,-81.54 343.19,-74.83"/>
</g>
<!-- Node14 -->
<g id="node14" class="node">
<title>Node14</title>
<g id="a_node14"><a xlink:title=" ">
<polygon fill="white" stroke="#bfbfbf" points="350.5,-56.5 350.5,-75.5 394.5,-75.5 394.5,-56.5 350.5,-56.5"/>
<text text-anchor="middle" x="372.5" y="-63.5" font-family="Helvetica,sans-Serif" font-size="10.00">cmath</text>
</a>
</g>
</g>
<!-- Node6&#45;&gt;Node14 -->
<g id="edge13" class="edge">
<title>Node6&#45;&gt;Node14</title>
<path fill="none" stroke="midnightblue" d="M468.44,-112.44C449.93,-103.68 420.92,-89.94 399.64,-79.86"/>
<polygon fill="midnightblue" stroke="midnightblue" points="401.01,-76.63 390.48,-75.52 398.02,-82.96 401.01,-76.63"/>
</g>
<!-- Node15 -->
<g id="node15" class="node">
<title>Node15</title>
<g id="a_node15"><a xlink:title=" ">
<polygon fill="white" stroke="#bfbfbf" points="413,-56.5 413,-75.5 480,-75.5 480,-56.5 413,-56.5"/>
<text text-anchor="middle" x="446.5" y="-63.5" font-family="Helvetica,sans-Serif" font-size="10.00">forward_list</text>
</a>
</g>
</g>
<!-- Node6&#45;&gt;Node15 -->
<g id="edge14" class="edge">
<title>Node6&#45;&gt;Node15</title>
<path fill="none" stroke="midnightblue" d="M479.89,-112.08C474.24,-104.46 465.96,-93.26 459.05,-83.94"/>
<polygon fill="midnightblue" stroke="midnightblue" points="461.75,-81.7 452.98,-75.75 456.12,-85.87 461.75,-81.7"/>
</g>
<!-- Node16 -->
<g id="node16" class="node">
<title>Node16</title>
<g id="a_node16"><a xlink:title=" ">
<polygon fill="white" stroke="#bfbfbf" points="498,-56.5 498,-75.5 557,-75.5 557,-56.5 498,-56.5"/>
<text text-anchor="middle" x="527.5" y="-63.5" font-family="Helvetica,sans-Serif" font-size="10.00">functional</text>
</a>
</g>
</g>
<!-- Node6&#45;&gt;Node16 -->
<g id="edge15" class="edge">
<title>Node6&#45;&gt;Node16</title>
<path fill="none" stroke="midnightblue" d="M493.27,-112.08C499.06,-104.46 507.56,-93.26 514.64,-83.94"/>
<polygon fill="midnightblue" stroke="midnightblue" points="517.6,-85.83 520.86,-75.75 512.02,-81.6 517.6,-85.83"/>
</g>
<!-- Node17 -->
<g id="node17" class="node">
<title>Node17</title>
<g id="a_node17"><a xlink:title=" ">
<polygon fill="white" stroke="#bfbfbf" points="575,-56.5 575,-75.5 622,-75.5 622,-56.5 575,-56.5"/>
<text text-anchor="middle" x="598.5" y="-63.5" font-family="Helvetica,sans-Serif" font-size="10.00">iterator</text>
</a>
</g>
</g>
<!-- Node6&#45;&gt;Node17 -->
<g id="edge16" class="edge">
<title>Node6&#45;&gt;Node17</title>
<path fill="none" stroke="midnightblue" d="M504.49,-112.32C522.54,-103.62 550.55,-90.12 571.3,-80.11"/>
<polygon fill="midnightblue" stroke="midnightblue" points="573.06,-83.15 580.55,-75.65 570.02,-76.84 573.06,-83.15"/>
</g>
<!-- Node18 -->
<g id="node18" class="node">
<title>Node18</title>
<g id="a_node18"><a xlink:title=" ">
<polygon fill="white" stroke="#bfbfbf" points="640,-56.5 640,-75.5 681,-75.5 681,-56.5 640,-56.5"/>
<text text-anchor="middle" x="660.5" y="-63.5" font-family="Helvetica,sans-Serif" font-size="10.00">stack</text>
</a>
</g>
</g>
<!-- Node6&#45;&gt;Node18 -->
<g id="edge17" class="edge">
<title>Node6&#45;&gt;Node18</title>
<path fill="none" stroke="midnightblue" d="M514.07,-112.44C545.63,-102.65 597.18,-86.65 629.94,-76.48"/>
<polygon fill="midnightblue" stroke="midnightblue" points="631.36,-79.71 639.87,-73.4 629.28,-73.02 631.36,-79.71"/>
</g>
<!-- Node19 -->
<g id="node19" class="node">
<title>Node19</title>
<g id="a_node19"><a xlink:title=" ">
<polygon fill="white" stroke="#bfbfbf" points="699,-56.5 699,-75.5 758,-75.5 758,-56.5 699,-56.5"/>
<text text-anchor="middle" x="728.5" y="-63.5" font-family="Helvetica,sans-Serif" font-size="10.00">stdexcept</text>
</a>
</g>
</g>
<!-- Node6&#45;&gt;Node19 -->
<g id="edge18" class="edge">
<title>Node6&#45;&gt;Node19</title>
<path fill="none" stroke="midnightblue" d="M526.03,-112.47C565.07,-104 626.74,-90.52 688.7,-76.39"/>
<polygon fill="midnightblue" stroke="midnightblue" points="689.67,-79.76 698.64,-74.12 688.11,-72.93 689.67,-79.76"/>
</g>
<!-- Node20 -->
<g id="node20" class="node">
<title>Node20</title>
<g id="a_node20"><a xlink:title=" ">
<polygon fill="white" stroke="#bfbfbf" points="776.5,-56.5 776.5,-75.5 816.5,-75.5 816.5,-56.5 776.5,-56.5"/>
<text text-anchor="middle" x="796.5" y="-63.5" font-family="Helvetica,sans-Serif" font-size="10.00">utility</text>
</a>
</g>
</g>
<!-- Node6&#45;&gt;Node20 -->
<g id="edge21" class="edge">
<title>Node6&#45;&gt;Node20</title>
<path fill="none" stroke="midnightblue" d="M526.06,-113.64C529.25,-113.07 532.43,-112.52 535.5,-112 635.27,-95.1 664.11,-99.25 766.51,-75.94"/>
<polygon fill="midnightblue" stroke="midnightblue" points="767.37,-79.34 776.32,-73.68 765.79,-72.52 767.37,-79.34"/>
</g>
<!-- Node21 -->
<g id="node21" class="node">
<title>Node21</title>
<g id="a_node21"><a xlink:title=" ">
<polygon fill="white" stroke="#bfbfbf" points="834.5,-56.5 834.5,-75.5 878.5,-75.5 878.5,-56.5 834.5,-56.5"/>
<text text-anchor="middle" x="856.5" y="-63.5" font-family="Helvetica,sans-Serif" font-size="10.00">vector</text>
</a>
</g>
</g>
<!-- Node6&#45;&gt;Node21 -->
<g id="edge22" class="edge">
<title>Node6&#45;&gt;Node21</title>
<path fill="none" stroke="midnightblue" d="M526.05,-113.53C529.24,-112.99 532.42,-112.47 535.5,-112 660.61,-92.76 696.48,-101.7 824.09,-76"/>
<polygon fill="midnightblue" stroke="midnightblue" points="825.16,-79.35 834.26,-73.92 823.76,-72.49 825.16,-79.35"/>
</g>
<!-- Node8 -->
<g id="node8" class="node">
<title>Node8</title>
<g id="a_node8"><a xlink:href="defines_8hxx_source.html" target="_top" xlink:title=" ">
<polygon fill="white" stroke="black" points="59,-0.5 59,-19.5 126,-19.5 126,-0.5 59,-0.5"/>
<text text-anchor="middle" x="92.5" y="-7.5" font-family="Helvetica,sans-Serif" font-size="10.00">defines.hxx</text>
</a>
</g>
</g>
<!-- Node7&#45;&gt;Node8 -->
<g id="edge7" class="edge">
<title>Node7&#45;&gt;Node8</title>
<path fill="none" stroke="midnightblue" d="M170.56,-56.32C155.91,-47.82 133.37,-34.73 116.26,-24.8"/>
<polygon fill="midnightblue" stroke="midnightblue" points="117.81,-21.65 107.4,-19.65 114.3,-27.7 117.81,-21.65"/>
</g>
<!-- Node7&#45;&gt;Node9 -->
<g id="edge8" class="edge">
<title>Node7&#45;&gt;Node9</title>
<path fill="none" stroke="midnightblue" d="M159.36,-56.44C129.96,-46.82 82.29,-31.22 51.17,-21.04"/>
<polygon fill="midnightblue" stroke="midnightblue" points="51.89,-17.59 41.3,-17.81 49.71,-24.24 51.89,-17.59"/>
</g>
<!-- Node7&#45;&gt;Node10 -->
<g id="edge9" class="edge">
<title>Node7&#45;&gt;Node10</title>
<path fill="none" stroke="midnightblue" d="M215.45,-56.44C247.66,-47.24 299.03,-32.56 334.64,-22.39"/>
<polygon fill="midnightblue" stroke="midnightblue" points="336.04,-25.63 344.69,-19.52 334.12,-18.9 336.04,-25.63"/>
</g>
<!-- Node11 -->
<g id="node11" class="node">
<title>Node11</title>
<g id="a_node11"><a xlink:title=" ">
<polygon fill="white" stroke="#bfbfbf" points="144,-0.5 144,-19.5 227,-19.5 227,-0.5 144,-0.5"/>
<text text-anchor="middle" x="185.5" y="-7.5" font-family="Helvetica,sans-Serif" font-size="10.00">unicode/utf16.h</text>
</a>
</g>
</g>
<!-- Node7&#45;&gt;Node11 -->
<g id="edge10" class="edge">
<title>Node7&#45;&gt;Node11</title>
<path fill="none" stroke="midnightblue" d="M185.5,-56.08C185.5,-49.01 185.5,-38.86 185.5,-29.99"/>
<polygon fill="midnightblue" stroke="midnightblue" points="189,-29.75 185.5,-19.75 182,-29.75 189,-29.75"/>
</g>
<!-- Node12 -->
<g id="node12" class="node">
<title>Node12</title>
<g id="a_node12"><a xlink:title=" ">
<polygon fill="white" stroke="#bfbfbf" points="245.5,-0.5 245.5,-19.5 323.5,-19.5 323.5,-0.5 245.5,-0.5"/>
<text text-anchor="middle" x="284.5" y="-7.5" font-family="Helvetica,sans-Serif" font-size="10.00">unicode/utf8.h</text>
</a>
</g>
</g>
<!-- Node7&#45;&gt;Node12 -->
<g id="edge11" class="edge">
<title>Node7&#45;&gt;Node12</title>
<path fill="none" stroke="midnightblue" d="M201.41,-56.32C217.14,-47.74 241.44,-34.49 259.71,-24.52"/>
<polygon fill="midnightblue" stroke="midnightblue" points="261.53,-27.52 268.63,-19.65 258.18,-21.37 261.53,-27.52"/>
</g>
</g>
</svg>
