<?xml version="1.0" encoding="UTF-8" standalone="no"?>
<!DOCTYPE svg PUBLIC "-//W3C//DTD SVG 1.1//EN"
 "http://www.w3.org/Graphics/SVG/1.1/DTD/svg11.dtd">
<!-- Generated by graphviz version 2.40.1 (20161225.0304)
 -->
<!-- Title: src/nuspell/dictionary.cxx Pages: 1 -->
<svg width="1236pt" height="274pt"
 viewBox="0.00 0.00 1235.50 274.00" xmlns="http://www.w3.org/2000/svg" xmlns:xlink="http://www.w3.org/1999/xlink">
<g id="graph0" class="graph" transform="scale(1 1) rotate(0) translate(4 270)">
<title>src/nuspell/dictionary.cxx</title>
<polygon fill="#ffffff" stroke="transparent" points="-4,4 -4,-270 1231.5,-270 1231.5,4 -4,4"/>
<!-- Node0 -->
<g id="node1" class="node">
<title>Node0</title>
<polygon fill="#bfbfbf" stroke="#000000" points="860.5,-246.5 860.5,-265.5 988.5,-265.5 988.5,-246.5 860.5,-246.5"/>
<text text-anchor="middle" x="924.5" y="-253.5" font-family="Helvetica,sans-Serif" font-size="10.00" fill="#000000">src/nuspell/dictionary.cxx</text>
</g>
<!-- Node1 -->
<g id="node2" class="node">
<title>Node1</title>
<g id="a_node2"><a xlink:href="dictionary_8hxx.html" target="_top" xlink:title="Dictionary spelling. ">
<polygon fill="#ffffff" stroke="#000000" points="844,-185 844,-204 921,-204 921,-185 844,-185"/>
<text text-anchor="middle" x="882.5" y="-192" font-family="Helvetica,sans-Serif" font-size="10.00" fill="#000000">dictionary.hxx</text>
</a>
</g>
</g>
<!-- Node0&#45;&gt;Node1 -->
<g id="edge1" class="edge">
<title>Node0&#45;&gt;Node1</title>
<path fill="none" stroke="#191970" d="M917.9375,-246.3906C911.8092,-237.417 902.5015,-223.7879 894.9628,-212.7491"/>
<polygon fill="#191970" stroke="#191970" points="897.685,-210.529 889.155,-204.2449 891.9044,-214.4768 897.685,-210.529"/>
</g>
<!-- Node14 -->
<g id="node15" class="node">
<title>Node14</title>
<polygon fill="#ffffff" stroke="#bfbfbf" points="0,-6 0,-25 59,-25 59,-6 0,-6"/>
<text text-anchor="middle" x="29.5" y="-13" font-family="Helvetica,sans-Serif" font-size="10.00" fill="#000000">stdexcept</text>
</g>
<!-- Node0&#45;&gt;Node14 -->
<g id="edge34" class="edge">
<title>Node0&#45;&gt;Node14</title>
<path fill="none" stroke="#191970" d="M880.7572,-246.4794C753.772,-218.42 374.6746,-131.6702 68.5,-31 66.363,-30.2974 64.1742,-29.5387 61.9772,-28.7479"/>
<polygon fill="#191970" stroke="#191970" points="63.0191,-25.4003 52.4273,-25.1476 60.5497,-31.9503 63.0191,-25.4003"/>
</g>
<!-- Node20 -->
<g id="node21" class="node">
<title>Node20</title>
<g id="a_node21"><a xlink:href="string__utils_8hxx.html" target="_top" xlink:title="String algorithms. ">
<polygon fill="#ffffff" stroke="#000000" points="754,-67.5 754,-86.5 837,-86.5 837,-67.5 754,-67.5"/>
<text text-anchor="middle" x="795.5" y="-74.5" font-family="Helvetica,sans-Serif" font-size="10.00" fill="#000000">string_utils.hxx</text>
</a>
</g>
</g>
<!-- Node0&#45;&gt;Node20 -->
<g id="edge26" class="edge">
<title>Node0&#45;&gt;Node20</title>
<path fill="none" stroke="#191970" d="M891.57,-246.4706C872.387,-239.3335 849.1636,-227.703 834.5,-210 806.9789,-176.7745 798.8775,-124.8493 796.4934,-96.7163"/>
<polygon fill="#191970" stroke="#191970" points="799.9727,-96.2917 795.7978,-86.5541 792.989,-96.7698 799.9727,-96.2917"/>
</g>
<!-- Node22 -->
<g id="node23" class="node">
<title>Node22</title>
<polygon fill="#ffffff" stroke="#bfbfbf" points="939.5,-185 939.5,-204 993.5,-204 993.5,-185 939.5,-185"/>
<text text-anchor="middle" x="966.5" y="-192" font-family="Helvetica,sans-Serif" font-size="10.00" fill="#000000">iostream</text>
</g>
<!-- Node0&#45;&gt;Node22 -->
<g id="edge33" class="edge">
<title>Node0&#45;&gt;Node22</title>
<path fill="none" stroke="#191970" d="M931.0625,-246.3906C937.1908,-237.417 946.4985,-223.7879 954.0372,-212.7491"/>
<polygon fill="#191970" stroke="#191970" points="957.0956,-214.4768 959.845,-204.2449 951.315,-210.529 957.0956,-214.4768"/>
</g>
<!-- Node23 -->
<g id="node24" class="node">
<title>Node23</title>
<polygon fill="#ffffff" stroke="#bfbfbf" points="1011.5,-179.5 1011.5,-209.5 1121.5,-209.5 1121.5,-179.5 1011.5,-179.5"/>
<text text-anchor="start" x="1019.5" y="-197.5" font-family="Helvetica,sans-Serif" font-size="10.00" fill="#000000">boost/algorithm/string</text>
<text text-anchor="middle" x="1066.5" y="-186.5" font-family="Helvetica,sans-Serif" font-size="10.00" fill="#000000">/case_conv.hpp</text>
</g>
<!-- Node0&#45;&gt;Node23 -->
<g id="edge35" class="edge">
<title>Node0&#45;&gt;Node23</title>
<path fill="none" stroke="#191970" d="M946.6875,-246.3906C966.8842,-237.6435 997.2944,-224.4728 1022.423,-213.5897"/>
<polygon fill="#191970" stroke="#191970" points="1023.9776,-216.7306 1031.7629,-209.5446 1021.1955,-210.3072 1023.9776,-216.7306"/>
</g>
<!-- Node24 -->
<g id="node25" class="node">
<title>Node24</title>
<polygon fill="#ffffff" stroke="#bfbfbf" points="1139.5,-185 1139.5,-204 1227.5,-204 1227.5,-185 1139.5,-185"/>
<text text-anchor="middle" x="1183.5" y="-192" font-family="Helvetica,sans-Serif" font-size="10.00" fill="#000000">boost/locale.hpp</text>
</g>
<!-- Node0&#45;&gt;Node24 -->
<g id="edge36" class="edge">
<title>Node0&#45;&gt;Node24</title>
<path fill="none" stroke="#191970" d="M971.3405,-246.4445C1013.2285,-237.6848 1076.2059,-223.9855 1130.5,-210 1134.3586,-209.0061 1138.3612,-207.9263 1142.3595,-206.8148"/>
<polygon fill="#191970" stroke="#191970" points="1143.5421,-210.1174 1152.2046,-204.0173 1141.6287,-203.384 1143.5421,-210.1174"/>
</g>
<!-- Node2 -->
<g id="node3" class="node">
<title>Node2</title>
<g id="a_node3"><a xlink:href="aff__data_8hxx.html" target="_top" xlink:title="Affixing data structures. ">
<polygon fill="#ffffff" stroke="#000000" points="842,-123.5 842,-142.5 913,-142.5 913,-123.5 842,-123.5"/>
<text text-anchor="middle" x="877.5" y="-130.5" font-family="Helvetica,sans-Serif" font-size="10.00" fill="#000000">aff_data.hxx</text>
</a>
</g>
</g>
<!-- Node1&#45;&gt;Node2 -->
<g id="edge2" class="edge">
<title>Node1&#45;&gt;Node2</title>
<path fill="none" stroke="#191970" d="M881.7188,-184.8906C881.0257,-176.3657 879.991,-163.6392 879.1198,-152.9235"/>
<polygon fill="#191970" stroke="#191970" points="882.5912,-152.4283 878.2923,-142.7449 875.6142,-152.9956 882.5912,-152.4283"/>
</g>
<!-- Node8 -->
<g id="node9" class="node">
<title>Node8</title>
<g id="a_node9"><a xlink:href="locale__utils_8hxx.html" target="_top" xlink:title="Encoding transformations. ">
<polygon fill="#ffffff" stroke="#000000" points="1057.5,-67.5 1057.5,-86.5 1141.5,-86.5 1141.5,-67.5 1057.5,-67.5"/>
<text text-anchor="middle" x="1099.5" y="-74.5" font-family="Helvetica,sans-Serif" font-size="10.00" fill="#000000">locale_utils.hxx</text>
</a>
</g>
</g>
<!-- Node1&#45;&gt;Node8 -->
<g id="edge23" class="edge">
<title>Node1&#45;&gt;Node8</title>
<path fill="none" stroke="#191970" d="M904.3314,-184.8621C926.3739,-174.952 961.2485,-158.7797 990.5,-143 1020.6542,-126.7333 1054.2171,-105.9926 1076.0279,-92.1449"/>
<polygon fill="#191970" stroke="#191970" points="1078.066,-94.9962 1084.6116,-86.6653 1074.2994,-89.096 1078.066,-94.9962"/>
</g>
<!-- Node9 -->
<g id="node10" class="node">
<title>Node9</title>
<polygon fill="#ffffff" stroke="#bfbfbf" points="1078.5,-6 1078.5,-25 1120.5,-25 1120.5,-6 1078.5,-6"/>
<text text-anchor="middle" x="1099.5" y="-13" font-family="Helvetica,sans-Serif" font-size="10.00" fill="#000000">locale</text>
</g>
<!-- Node1&#45;&gt;Node9 -->
<g id="edge25" class="edge">
<title>Node1&#45;&gt;Node9</title>
<path fill="none" stroke="#191970" d="M911.3853,-184.9913C977.7668,-162.8534 1136.5832,-108.148 1150.5,-87 1163.438,-67.3393 1142.2317,-45.393 1123.3529,-31.0653"/>
<polygon fill="#191970" stroke="#191970" points="1125.1393,-28.0393 1114.9737,-25.054 1121.0588,-33.7271 1125.1393,-28.0393"/>
</g>
<!-- Node19 -->
<g id="node20" class="node">
<title>Node19</title>
<polygon fill="#ffffff" stroke="#bfbfbf" points="931.5,-123.5 931.5,-142.5 981.5,-142.5 981.5,-123.5 931.5,-123.5"/>
<text text-anchor="middle" x="956.5" y="-130.5" font-family="Helvetica,sans-Serif" font-size="10.00" fill="#000000">fstream</text>
</g>
<!-- Node1&#45;&gt;Node19 -->
<g id="edge24" class="edge">
<title>Node1&#45;&gt;Node19</title>
<path fill="none" stroke="#191970" d="M894.0625,-184.8906C905.5079,-175.3786 923.2473,-160.6357 936.897,-149.2917"/>
<polygon fill="#191970" stroke="#191970" points="939.3208,-151.8283 944.7745,-142.7449 934.8467,-146.4447 939.3208,-151.8283"/>
</g>
<!-- Node3 -->
<g id="node4" class="node">
<title>Node3</title>
<polygon fill="#ffffff" stroke="#bfbfbf" points="855,-67.5 855,-86.5 900,-86.5 900,-67.5 855,-67.5"/>
<text text-anchor="middle" x="877.5" y="-74.5" font-family="Helvetica,sans-Serif" font-size="10.00" fill="#000000">iosfwd</text>
</g>
<!-- Node2&#45;&gt;Node3 -->
<g id="edge3" class="edge">
<title>Node2&#45;&gt;Node3</title>
<path fill="none" stroke="#191970" d="M877.5,-123.2455C877.5,-115.9382 877.5,-105.6944 877.5,-96.7046"/>
<polygon fill="#191970" stroke="#191970" points="881.0001,-96.6426 877.5,-86.6427 874.0001,-96.6427 881.0001,-96.6426"/>
</g>
<!-- Node4 -->
<g id="node5" class="node">
<title>Node4</title>
<polygon fill="#ffffff" stroke="#bfbfbf" points="998,-6 998,-25 1039,-25 1039,-6 998,-6"/>
<text text-anchor="middle" x="1018.5" y="-13" font-family="Helvetica,sans-Serif" font-size="10.00" fill="#000000">string</text>
</g>
<!-- Node2&#45;&gt;Node4 -->
<g id="edge4" class="edge">
<title>Node2&#45;&gt;Node4</title>
<path fill="none" stroke="#191970" d="M913.1273,-125.1998C948.1624,-116.7706 998.1391,-102.4551 1010.5,-87 1022.0513,-72.5572 1022.9169,-50.9034 1021.5932,-35.2111"/>
<polygon fill="#191970" stroke="#191970" points="1025.0372,-34.5352 1020.364,-25.0267 1018.0876,-35.3741 1025.0372,-34.5352"/>
</g>
<!-- Node5 -->
<g id="node6" class="node">
<title>Node5</title>
<polygon fill="#ffffff" stroke="#bfbfbf" points="918,-67.5 918,-86.5 1001,-86.5 1001,-67.5 918,-67.5"/>
<text text-anchor="middle" x="959.5" y="-74.5" font-family="Helvetica,sans-Serif" font-size="10.00" fill="#000000">unordered_map</text>
</g>
<!-- Node2&#45;&gt;Node5 -->
<g id="edge5" class="edge">
<title>Node2&#45;&gt;Node5</title>
<path fill="none" stroke="#191970" d="M891.7833,-123.2455C904.247,-114.7337 922.5451,-102.2375 936.9792,-92.3801"/>
<polygon fill="#191970" stroke="#191970" points="939.0962,-95.1726 945.3804,-86.6427 935.1485,-89.392 939.0962,-95.1726"/>
</g>
<!-- Node6 -->
<g id="node7" class="node">
<title>Node6</title>
<polygon fill="#ffffff" stroke="#bfbfbf" points="667.5,-6 667.5,-25 707.5,-25 707.5,-6 667.5,-6"/>
<text text-anchor="middle" x="687.5" y="-13" font-family="Helvetica,sans-Serif" font-size="10.00" fill="#000000">utility</text>
</g>
<!-- Node2&#45;&gt;Node6 -->
<g id="edge6" class="edge">
<title>Node2&#45;&gt;Node6</title>
<path fill="none" stroke="#191970" d="M841.8005,-128.5184C810.5771,-123.092 765.3649,-111.4333 733.5,-87 715.8204,-73.4437 702.9977,-51.0176 695.4505,-34.8935"/>
<polygon fill="#191970" stroke="#191970" points="698.4878,-33.106 691.2548,-25.3643 692.0813,-35.9268 698.4878,-33.106"/>
</g>
<!-- Node7 -->
<g id="node8" class="node">
<title>Node7</title>
<polygon fill="#ffffff" stroke="#bfbfbf" points="725.5,-6 725.5,-25 769.5,-25 769.5,-6 725.5,-6"/>
<text text-anchor="middle" x="747.5" y="-13" font-family="Helvetica,sans-Serif" font-size="10.00" fill="#000000">vector</text>
</g>
<!-- Node2&#45;&gt;Node7 -->
<g id="edge7" class="edge">
<title>Node2&#45;&gt;Node7</title>
<path fill="none" stroke="#191970" d="M841.8435,-125.5444C806.5019,-117.3457 756.0166,-103.1691 744.5,-87 733.8415,-72.0356 736.4975,-50.5022 740.6424,-34.9819"/>
<polygon fill="#191970" stroke="#191970" points="744.0097,-35.9394 743.6046,-25.3523 737.3191,-33.8813 744.0097,-35.9394"/>
</g>
<!-- Node2&#45;&gt;Node8 -->
<g id="edge8" class="edge">
<title>Node2&#45;&gt;Node8</title>
<path fill="none" stroke="#191970" d="M913.1681,-124.0026C950.7607,-114.5198 1010.1801,-99.5311 1051.7855,-89.0361"/>
<polygon fill="#191970" stroke="#191970" points="1052.8512,-92.377 1061.6914,-86.5373 1051.139,-85.5896 1052.8512,-92.377"/>
</g>
<!-- Node10 -->
<g id="node11" class="node">
<title>Node10</title>
<g id="a_node11"><a xlink:href="structures_8hxx.html" target="_top" xlink:title="Data structures. ">
<polygon fill="#ffffff" stroke="#000000" points="571,-67.5 571,-86.5 650,-86.5 650,-67.5 571,-67.5"/>
<text text-anchor="middle" x="610.5" y="-74.5" font-family="Helvetica,sans-Serif" font-size="10.00" fill="#000000">structures.hxx</text>
</a>
</g>
</g>
<!-- Node2&#45;&gt;Node10 -->
<g id="edge11" class="edge">
<title>Node2&#45;&gt;Node10</title>
<path fill="none" stroke="#191970" d="M841.7682,-125.5057C795.0446,-115.706 712.9521,-98.4881 660.1889,-87.4216"/>
<polygon fill="#191970" stroke="#191970" points="660.8756,-83.9896 650.37,-85.3623 659.4386,-90.8405 660.8756,-83.9896"/>
</g>
<!-- Node8&#45;&gt;Node4 -->
<g id="edge10" class="edge">
<title>Node8&#45;&gt;Node4</title>
<path fill="none" stroke="#191970" d="M1086.8438,-67.3906C1074.1232,-57.7324 1054.2996,-42.6812 1039.2716,-31.271"/>
<polygon fill="#191970" stroke="#191970" points="1041.1484,-28.3015 1031.0674,-25.0419 1036.9154,-33.8766 1041.1484,-28.3015"/>
</g>
<!-- Node8&#45;&gt;Node9 -->
<g id="edge9" class="edge">
<title>Node8&#45;&gt;Node9</title>
<path fill="none" stroke="#191970" d="M1099.5,-67.3906C1099.5,-58.8657 1099.5,-46.1392 1099.5,-35.4235"/>
<polygon fill="#191970" stroke="#191970" points="1103.0001,-35.2448 1099.5,-25.2449 1096.0001,-35.2449 1103.0001,-35.2448"/>
</g>
<!-- Node10&#45;&gt;Node4 -->
<g id="edge16" class="edge">
<title>Node10&#45;&gt;Node4</title>
<path fill="none" stroke="#191970" d="M650.2127,-73.222C731.873,-65.2571 916.1087,-46.2231 977.5,-31 981.1099,-30.1049 984.8359,-28.9865 988.502,-27.7629"/>
<polygon fill="#191970" stroke="#191970" points="989.7252,-31.0425 997.9458,-24.3588 987.3514,-24.4572 989.7252,-31.0425"/>
</g>
<!-- Node10&#45;&gt;Node6 -->
<g id="edge17" class="edge">
<title>Node10&#45;&gt;Node6</title>
<path fill="none" stroke="#191970" d="M622.5313,-67.3906C634.5107,-57.8227 653.1166,-42.9621 667.3525,-31.5919"/>
<polygon fill="#191970" stroke="#191970" points="669.9239,-34.0175 675.5532,-25.0419 665.5553,-28.5479 669.9239,-34.0175"/>
</g>
<!-- Node10&#45;&gt;Node7 -->
<g id="edge18" class="edge">
<title>Node10&#45;&gt;Node7</title>
<path fill="none" stroke="#191970" d="M633.4045,-67.4835C654.9818,-58.4189 688.1399,-44.2318 716.5,-31 717.5088,-30.5293 718.5337,-30.0458 719.567,-29.5536"/>
<polygon fill="#191970" stroke="#191970" points="721.4361,-32.5362 728.8918,-25.0087 718.3692,-26.2438 721.4361,-32.5362"/>
</g>
<!-- Node11 -->
<g id="node12" class="node">
<title>Node11</title>
<polygon fill="#ffffff" stroke="#bfbfbf" points="787.5,-6 787.5,-25 843.5,-25 843.5,-6 787.5,-6"/>
<text text-anchor="middle" x="815.5" y="-13" font-family="Helvetica,sans-Serif" font-size="10.00" fill="#000000">algorithm</text>
</g>
<!-- Node10&#45;&gt;Node11 -->
<g id="edge12" class="edge">
<title>Node10&#45;&gt;Node11</title>
<path fill="none" stroke="#191970" d="M650.3161,-67.6434C684.6377,-59.2123 735.3305,-45.8824 778.5,-31 780.3765,-30.3531 782.2938,-29.6581 784.2195,-28.9338"/>
<polygon fill="#191970" stroke="#191970" points="785.7584,-32.0889 793.7685,-25.1543 783.1822,-25.5802 785.7584,-32.0889"/>
</g>
<!-- Node12 -->
<g id="node13" class="node">
<title>Node12</title>
<polygon fill="#ffffff" stroke="#bfbfbf" points="77.5,-6 77.5,-25 121.5,-25 121.5,-6 77.5,-6"/>
<text text-anchor="middle" x="99.5" y="-13" font-family="Helvetica,sans-Serif" font-size="10.00" fill="#000000">cmath</text>
</g>
<!-- Node10&#45;&gt;Node12 -->
<g id="edge13" class="edge">
<title>Node10&#45;&gt;Node12</title>
<path fill="none" stroke="#191970" d="M570.7594,-75.0699C471.1618,-69.9326 212.9759,-54.6801 130.5,-31 128.7902,-30.5091 127.062,-29.9249 125.3423,-29.2754"/>
<polygon fill="#191970" stroke="#191970" points="126.3358,-25.8876 115.775,-25.0383 123.5011,-32.288 126.3358,-25.8876"/>
</g>
<!-- Node13 -->
<g id="node14" class="node">
<title>Node13</title>
<polygon fill="#ffffff" stroke="#bfbfbf" points="862,-6 862,-25 909,-25 909,-6 862,-6"/>
<text text-anchor="middle" x="885.5" y="-13" font-family="Helvetica,sans-Serif" font-size="10.00" fill="#000000">iterator</text>
</g>
<!-- Node10&#45;&gt;Node13 -->
<g id="edge14" class="edge">
<title>Node10&#45;&gt;Node13</title>
<path fill="none" stroke="#191970" d="M650.2395,-72.5585C698.8222,-66.4239 783.1371,-53.4851 852.5,-31 854.3515,-30.3998 856.2344,-29.7202 858.1143,-28.9888"/>
<polygon fill="#191970" stroke="#191970" points="859.5244,-32.1924 867.3312,-25.0297 856.7616,-25.7607 859.5244,-32.1924"/>
</g>
<!-- Node10&#45;&gt;Node14 -->
<g id="edge15" class="edge">
<title>Node10&#45;&gt;Node14</title>
<path fill="none" stroke="#191970" d="M570.9536,-75.1504C462.869,-69.8558 164.2083,-53.559 68.5,-31 65.6412,-30.3262 62.7156,-29.4802 59.8153,-28.533"/>
<polygon fill="#191970" stroke="#191970" points="60.7789,-25.1591 50.1849,-25.0258 58.3835,-31.7365 60.7789,-25.1591"/>
</g>
<!-- Node15 -->
<g id="node16" class="node">
<title>Node15</title>
<polygon fill="#ffffff" stroke="#bfbfbf" points="139.5,-.5 139.5,-30.5 249.5,-30.5 249.5,-.5 139.5,-.5"/>
<text text-anchor="start" x="147.5" y="-18.5" font-family="Helvetica,sans-Serif" font-size="10.00" fill="#000000">boost/container/small</text>
<text text-anchor="middle" x="194.5" y="-7.5" font-family="Helvetica,sans-Serif" font-size="10.00" fill="#000000">_vector.hpp</text>
</g>
<!-- Node10&#45;&gt;Node15 -->
<g id="edge19" class="edge">
<title>Node10&#45;&gt;Node15</title>
<path fill="none" stroke="#191970" d="M570.9539,-73.2354C507.3778,-66.8784 378.3571,-52.7227 259.5693,-31.0804"/>
<polygon fill="#191970" stroke="#191970" points="260.0459,-27.6094 249.577,-29.2374 258.7762,-34.4933 260.0459,-27.6094"/>
</g>
<!-- Node16 -->
<g id="node17" class="node">
<title>Node16</title>
<polygon fill="#ffffff" stroke="#bfbfbf" points="267.5,-6 267.5,-25 417.5,-25 417.5,-6 267.5,-6"/>
<text text-anchor="middle" x="342.5" y="-13" font-family="Helvetica,sans-Serif" font-size="10.00" fill="#000000">boost/multi_index/member.hpp</text>
</g>
<!-- Node10&#45;&gt;Node16 -->
<g id="edge20" class="edge">
<title>Node10&#45;&gt;Node16</title>
<path fill="none" stroke="#191970" d="M570.9557,-67.9255C523.9987,-57.1499 445.5562,-39.1491 393.9228,-27.3004"/>
<polygon fill="#191970" stroke="#191970" points="394.5004,-23.842 383.9709,-25.0166 392.9347,-30.6647 394.5004,-23.842"/>
</g>
<!-- Node17 -->
<g id="node18" class="node">
<title>Node17</title>
<polygon fill="#ffffff" stroke="#bfbfbf" points="436,-.5 436,-30.5 537,-30.5 537,-.5 436,-.5"/>
<text text-anchor="start" x="444" y="-18.5" font-family="Helvetica,sans-Serif" font-size="10.00" fill="#000000">boost/range/iterator</text>
<text text-anchor="middle" x="486.5" y="-7.5" font-family="Helvetica,sans-Serif" font-size="10.00" fill="#000000">_range_core.hpp</text>
</g>
<!-- Node10&#45;&gt;Node17 -->
<g id="edge21" class="edge">
<title>Node10&#45;&gt;Node17</title>
<path fill="none" stroke="#191970" d="M591.125,-67.3906C573.7216,-58.7591 547.6334,-45.8202 525.8621,-35.0224"/>
<polygon fill="#191970" stroke="#191970" points="527.3476,-31.8523 516.8338,-30.5446 524.2374,-38.1234 527.3476,-31.8523"/>
</g>
<!-- Node18 -->
<g id="node19" class="node">
<title>Node18</title>
<polygon fill="#ffffff" stroke="#bfbfbf" points="555.5,-.5 555.5,-30.5 649.5,-30.5 649.5,-.5 555.5,-.5"/>
<text text-anchor="start" x="563.5" y="-18.5" font-family="Helvetica,sans-Serif" font-size="10.00" fill="#000000">boost/utility/string</text>
<text text-anchor="middle" x="602.5" y="-7.5" font-family="Helvetica,sans-Serif" font-size="10.00" fill="#000000">_view.hpp</text>
</g>
<!-- Node10&#45;&gt;Node18 -->
<g id="edge22" class="edge">
<title>Node10&#45;&gt;Node18</title>
<path fill="none" stroke="#191970" d="M609.25,-67.3906C608.3177,-60.2234 606.999,-50.0862 605.7743,-40.671"/>
<polygon fill="#191970" stroke="#191970" points="609.2178,-40.0095 604.457,-30.5446 602.2763,-40.9126 609.2178,-40.0095"/>
</g>
<!-- Node20&#45;&gt;Node4 -->
<g id="edge31" class="edge">
<title>Node20&#45;&gt;Node4</title>
<path fill="none" stroke="#191970" d="M837.0769,-67.913C874.2118,-59.461 929.9299,-45.9501 977.5,-31 981.0482,-29.8849 984.7359,-28.6306 988.3807,-27.3309"/>
<polygon fill="#191970" stroke="#191970" points="989.6359,-30.5985 997.8026,-23.849 987.2094,-24.0325 989.6359,-30.5985"/>
</g>
<!-- Node20&#45;&gt;Node7 -->
<g id="edge32" class="edge">
<title>Node20&#45;&gt;Node7</title>
<path fill="none" stroke="#191970" d="M788,-67.3906C780.9262,-58.3273 770.1458,-44.5149 761.4854,-33.4188"/>
<polygon fill="#191970" stroke="#191970" points="764.0176,-30.9746 755.1057,-25.2449 758.4994,-35.2815 764.0176,-30.9746"/>
</g>
<!-- Node20&#45;&gt;Node9 -->
<g id="edge29" class="edge">
<title>Node20&#45;&gt;Node9</title>
<path fill="none" stroke="#191970" d="M837.2286,-68.5833C840.0265,-68.0409 842.8033,-67.5087 845.5,-67 935.5418,-50.0139 959.3946,-52.3606 1048.5,-31 1054.9962,-29.4427 1061.884,-27.5312 1068.426,-25.5891"/>
<polygon fill="#191970" stroke="#191970" points="1069.78,-28.8349 1078.3157,-22.5585 1067.729,-22.1421 1069.78,-28.8349"/>
</g>
<!-- Node20&#45;&gt;Node11 -->
<g id="edge27" class="edge">
<title>Node20&#45;&gt;Node11</title>
<path fill="none" stroke="#191970" d="M798.625,-67.3906C801.4265,-58.776 805.6233,-45.8708 809.1306,-35.0858"/>
<polygon fill="#191970" stroke="#191970" points="812.5667,-35.8371 812.3309,-25.2449 805.9098,-33.6722 812.5667,-35.8371"/>
</g>
<!-- Node20&#45;&gt;Node13 -->
<g id="edge28" class="edge">
<title>Node20&#45;&gt;Node13</title>
<path fill="none" stroke="#191970" d="M809.5625,-67.3906C823.8286,-57.6421 846.135,-42.3994 862.8872,-30.9521"/>
<polygon fill="#191970" stroke="#191970" points="865.2545,-33.5736 871.5362,-25.0419 861.3051,-27.7941 865.2545,-33.5736"/>
</g>
<!-- Node21 -->
<g id="node22" class="node">
<title>Node21</title>
<polygon fill="#ffffff" stroke="#bfbfbf" points="927,-6 927,-25 968,-25 968,-6 927,-6"/>
<text text-anchor="middle" x="947.5" y="-13" font-family="Helvetica,sans-Serif" font-size="10.00" fill="#000000">stack</text>
</g>
<!-- Node20&#45;&gt;Node21 -->
<g id="edge30" class="edge">
<title>Node20&#45;&gt;Node21</title>
<path fill="none" stroke="#191970" d="M824.2699,-67.4575C849.4788,-58.81 886.9199,-45.2685 918.5,-31 919.4885,-30.5534 920.4899,-30.0877 921.497,-29.6082"/>
<polygon fill="#191970" stroke="#191970" points="923.1597,-32.6897 930.5143,-25.0633 920.0091,-26.4388 923.1597,-32.6897"/>
</g>
</g>
</svg>
