<?xml version="1.0" encoding="UTF-8" standalone="no"?>
<!DOCTYPE svg PUBLIC "-//W3C//DTD SVG 1.1//EN"
 "http://www.w3.org/Graphics/SVG/1.1/DTD/svg11.dtd">
<!-- Generated by graphviz version 2.43.0 (0)
 -->
<!-- Title: nuspell/finder.hxx Pages: 1 -->
<svg width="474pt" height="82pt"
 viewBox="0.00 0.00 474.00 82.00" xmlns="http://www.w3.org/2000/svg" xmlns:xlink="http://www.w3.org/1999/xlink">
<g id="graph0" class="graph" transform="scale(1 1) rotate(0) translate(4 78)">
<title>nuspell/finder.hxx</title>
<!-- Node1 -->
<g id="Node000001" class="node">
<title>Node1</title>
<g id="a_Node000001"><a xlink:title="Finding dictionaries.">
<polygon fill="#999999" stroke="#666666" points="330,-74 227,-74 227,-55 330,-55 330,-74"/>
<text text-anchor="middle" x="278.5" y="-62" font-family="Helvetica,sans-Serif" font-size="10.00">nuspell/finder.hxx</text>
</a>
</g>
</g>
<!-- Node2 -->
<g id="Node000002" class="node">
<title>Node2</title>
<g id="a_Node000002"><a xlink:href="defines_8hxx_source.html" target="_top" xlink:title=" ">
<polygon fill="white" stroke="#666666" points="73,-19 0,-19 0,0 73,0 73,-19"/>
<text text-anchor="middle" x="36.5" y="-7" font-family="Helvetica,sans-Serif" font-size="10.00">defines.hxx</text>
</a>
</g>
</g>
<!-- Node1&#45;&gt;Node2 -->
<g id="edge1_Node000001_Node000002" class="edge">
<title>Node1&#45;&gt;Node2</title>
<g id="a_edge1_Node000001_Node000002"><a xlink:title=" ">
<path fill="none" stroke="#63b8ff" d="M239.62,-54.98C197.01,-45.65 128.69,-30.69 83.21,-20.73"/>
<polygon fill="#63b8ff" stroke="#63b8ff" points="83.82,-17.28 73.3,-18.56 82.32,-24.12 83.82,-17.28"/>
</a>
</g>
</g>
<!-- Node3 -->
<g id="Node000003" class="node">
<title>Node3</title>
<g id="a_Node000003"><a xlink:title=" ">
<polygon fill="#e0e0e0" stroke="#999999" points="189.5,-19 91.5,-19 91.5,0 189.5,0 189.5,-19"/>
<text text-anchor="middle" x="140.5" y="-7" font-family="Helvetica,sans-Serif" font-size="10.00">nuspell_export.h</text>
</a>
</g>
</g>
<!-- Node1&#45;&gt;Node3 -->
<g id="edge2_Node000001_Node000003" class="edge">
<title>Node1&#45;&gt;Node3</title>
<g id="a_edge2_Node000001_Node000003"><a xlink:title=" ">
<path fill="none" stroke="#63b8ff" d="M256.33,-54.98C233.73,-46.3 198.44,-32.75 172.75,-22.88"/>
<polygon fill="#63b8ff" stroke="#63b8ff" points="173.67,-19.49 163.08,-19.17 171.16,-26.02 173.67,-19.49"/>
</a>
</g>
</g>
<!-- Node4 -->
<g id="Node000004" class="node">
<title>Node4</title>
<g id="a_Node000004"><a xlink:title=" ">
<polygon fill="#e0e0e0" stroke="#999999" points="275.5,-19 207.5,-19 207.5,0 275.5,0 275.5,-19"/>
<text text-anchor="middle" x="241.5" y="-7" font-family="Helvetica,sans-Serif" font-size="10.00">filesystem</text>
</a>
</g>
</g>
<!-- Node1&#45;&gt;Node4 -->
<g id="edge3_Node000001_Node000004" class="edge">
<title>Node1&#45;&gt;Node4</title>
<g id="a_edge3_Node000001_Node000004"><a xlink:title=" ">
<path fill="none" stroke="#63b8ff" d="M272.39,-54.75C267.22,-47.34 259.65,-36.5 253.31,-27.41"/>
<polygon fill="#63b8ff" stroke="#63b8ff" points="256.09,-25.29 247.5,-19.09 250.35,-29.29 256.09,-25.29"/>
</a>
</g>
</g>
<!-- Node5 -->
<g id="Node000005" class="node">
<title>Node5</title>
<g id="a_Node000005"><a xlink:title=" ">
<polygon fill="#e0e0e0" stroke="#999999" points="337.5,-19 293.5,-19 293.5,0 337.5,0 337.5,-19"/>
<text text-anchor="middle" x="315.5" y="-7" font-family="Helvetica,sans-Serif" font-size="10.00">string</text>
</a>
</g>
</g>
<!-- Node1&#45;&gt;Node5 -->
<g id="edge4_Node000001_Node000005" class="edge">
<title>Node1&#45;&gt;Node5</title>
<g id="a_edge4_Node000001_Node000005"><a xlink:title=" ">
<path fill="none" stroke="#63b8ff" d="M284.61,-54.75C289.78,-47.34 297.35,-36.5 303.69,-27.41"/>
<polygon fill="#63b8ff" stroke="#63b8ff" points="306.65,-29.29 309.5,-19.09 300.91,-25.29 306.65,-29.29"/>
</a>
</g>
</g>
<!-- Node6 -->
<g id="Node000006" class="node">
<title>Node6</title>
<g id="a_Node000006"><a xlink:title=" ">
<polygon fill="#e0e0e0" stroke="#999999" points="401,-19 356,-19 356,0 401,0 401,-19"/>
<text text-anchor="middle" x="378.5" y="-7" font-family="Helvetica,sans-Serif" font-size="10.00">utility</text>
</a>
</g>
</g>
<!-- Node1&#45;&gt;Node6 -->
<g id="edge5_Node000001_Node000006" class="edge">
<title>Node1&#45;&gt;Node6</title>
<g id="a_edge5_Node000001_Node000006"><a xlink:title=" ">
<path fill="none" stroke="#63b8ff" d="M294.57,-54.98C310.36,-46.61 334.72,-33.7 353.13,-23.95"/>
<polygon fill="#63b8ff" stroke="#63b8ff" points="354.94,-26.95 362.14,-19.17 351.67,-20.76 354.94,-26.95"/>
</a>
</g>
</g>
<!-- Node7 -->
<g id="Node000007" class="node">
<title>Node7</title>
<g id="a_Node000007"><a xlink:title=" ">
<polygon fill="#e0e0e0" stroke="#999999" points="466,-19 419,-19 419,0 466,0 466,-19"/>
<text text-anchor="middle" x="442.5" y="-7" font-family="Helvetica,sans-Serif" font-size="10.00">vector</text>
</a>
</g>
</g>
<!-- Node1&#45;&gt;Node7 -->
<g id="edge6_Node000001_Node000007" class="edge">
<title>Node1&#45;&gt;Node7</title>
<g id="a_edge6_Node000001_Node000007"><a xlink:title=" ">
<path fill="none" stroke="#63b8ff" d="M304.85,-54.98C333.16,-45.84 378.22,-31.27 409.02,-21.32"/>
<polygon fill="#63b8ff" stroke="#63b8ff" points="410.44,-24.54 418.88,-18.13 408.29,-17.88 410.44,-24.54"/>
</a>
</g>
</g>
</g>
</svg>
