<?xml version="1.0" encoding="UTF-8" standalone="no"?>
<!DOCTYPE svg PUBLIC "-//W3C//DTD SVG 1.1//EN"
 "http://www.w3.org/Graphics/SVG/1.1/DTD/svg11.dtd">
<!-- Generated by graphviz version 2.40.1 (20161225.0304)
 -->
<!-- Title: src/nuspell/finder.cxx Pages: 1 -->
<svg width="623pt" height="140pt"
 viewBox="0.00 0.00 623.00 140.00" xmlns="http://www.w3.org/2000/svg" xmlns:xlink="http://www.w3.org/1999/xlink">
<g id="graph0" class="graph" transform="scale(1 1) rotate(0) translate(4 136)">
<title>src/nuspell/finder.cxx</title>
<polygon fill="#ffffff" stroke="transparent" points="-4,4 -4,-136 619,-136 619,4 -4,4"/>
<!-- Node0 -->
<g id="node1" class="node">
<title>Node0</title>
<polygon fill="#bfbfbf" stroke="#000000" points="256,-112.5 256,-131.5 366,-131.5 366,-112.5 256,-112.5"/>
<text text-anchor="middle" x="311" y="-119.5" font-family="Helvetica,sans-Serif" font-size="10.00" fill="#000000">src/nuspell/finder.cxx</text>
</g>
<!-- Node1 -->
<g id="node2" class="node">
<title>Node1</title>
<g id="a_node2"><a xlink:href="finder_8hxx.html" target="_top" xlink:title="Finding dictionaries. ">
<polygon fill="#ffffff" stroke="#000000" points="49.5,-56.5 49.5,-75.5 108.5,-75.5 108.5,-56.5 49.5,-56.5"/>
<text text-anchor="middle" x="79" y="-63.5" font-family="Helvetica,sans-Serif" font-size="10.00" fill="#000000">finder.hxx</text>
</a>
</g>
</g>
<!-- Node0&#45;&gt;Node1 -->
<g id="edge1" class="edge">
<title>Node0&#45;&gt;Node1</title>
<path fill="none" stroke="#191970" d="M271.3814,-112.4369C228.6083,-102.1123 160.8931,-85.7673 118.26,-75.4766"/>
<polygon fill="#191970" stroke="#191970" points="119.058,-72.0687 108.5159,-73.1245 117.4154,-78.8733 119.058,-72.0687"/>
</g>
<!-- Node3 -->
<g id="node4" class="node">
<title>Node3</title>
<polygon fill="#ffffff" stroke="#bfbfbf" points="0,-.5 0,-19.5 40,-19.5 40,-.5 0,-.5"/>
<text text-anchor="middle" x="20" y="-7.5" font-family="Helvetica,sans-Serif" font-size="10.00" fill="#000000">utility</text>
</g>
<!-- Node0&#45;&gt;Node3 -->
<g id="edge18" class="edge">
<title>Node0&#45;&gt;Node3</title>
<path fill="none" stroke="#191970" d="M255.8867,-119.3712C186.1343,-114.9335 71.2831,-103.5678 40,-76 26.9723,-64.5195 22.2866,-44.8641 20.6723,-29.9811"/>
<polygon fill="#191970" stroke="#191970" points="24.1452,-29.4732 19.9492,-19.7447 17.1626,-29.9665 24.1452,-29.4732"/>
</g>
<!-- Node5 -->
<g id="node6" class="node">
<title>Node5</title>
<g id="a_node6"><a xlink:href="string__utils_8hxx.html" target="_top" xlink:title="String algorithms. ">
<polygon fill="#ffffff" stroke="#000000" points="199.5,-56.5 199.5,-75.5 282.5,-75.5 282.5,-56.5 199.5,-56.5"/>
<text text-anchor="middle" x="241" y="-63.5" font-family="Helvetica,sans-Serif" font-size="10.00" fill="#000000">string_utils.hxx</text>
</a>
</g>
</g>
<!-- Node0&#45;&gt;Node5 -->
<g id="edge5" class="edge">
<title>Node0&#45;&gt;Node5</title>
<path fill="none" stroke="#191970" d="M298.8069,-112.2455C288.3679,-103.8943 273.1345,-91.7076 260.926,-81.9408"/>
<polygon fill="#191970" stroke="#191970" points="263.0485,-79.1566 253.0533,-75.6427 258.6756,-84.6227 263.0485,-79.1566"/>
</g>
<!-- Node6 -->
<g id="node7" class="node">
<title>Node6</title>
<polygon fill="#ffffff" stroke="#bfbfbf" points="180,-.5 180,-19.5 236,-19.5 236,-.5 180,-.5"/>
<text text-anchor="middle" x="208" y="-7.5" font-family="Helvetica,sans-Serif" font-size="10.00" fill="#000000">algorithm</text>
</g>
<!-- Node0&#45;&gt;Node6 -->
<g id="edge12" class="edge">
<title>Node0&#45;&gt;Node6</title>
<path fill="none" stroke="#191970" d="M272.4287,-112.4404C240.805,-103.7303 199.7289,-90.1067 190,-76 180.2481,-61.8598 187.2595,-42.6319 195.2061,-28.5778"/>
<polygon fill="#191970" stroke="#191970" points="198.3554,-30.1413 200.6625,-19.8007 192.4104,-26.4455 198.3554,-30.1413"/>
</g>
<!-- Node7 -->
<g id="node8" class="node">
<title>Node7</title>
<polygon fill="#ffffff" stroke="#bfbfbf" points="374.5,-.5 374.5,-19.5 421.5,-19.5 421.5,-.5 374.5,-.5"/>
<text text-anchor="middle" x="398" y="-7.5" font-family="Helvetica,sans-Serif" font-size="10.00" fill="#000000">iterator</text>
</g>
<!-- Node0&#45;&gt;Node7 -->
<g id="edge15" class="edge">
<title>Node0&#45;&gt;Node7</title>
<path fill="none" stroke="#191970" d="M311.743,-112.1351C313.2137,-98.3729 317.5273,-73.1726 330,-56 339.5957,-42.7884 354.2211,-32.1893 367.4528,-24.5102"/>
<polygon fill="#191970" stroke="#191970" points="369.2182,-27.534 376.3117,-19.6642 365.8588,-21.3928 369.2182,-27.534"/>
</g>
<!-- Node10 -->
<g id="node11" class="node">
<title>Node10</title>
<polygon fill="#ffffff" stroke="#bfbfbf" points="339,-56.5 339,-75.5 377,-75.5 377,-56.5 339,-56.5"/>
<text text-anchor="middle" x="358" y="-63.5" font-family="Helvetica,sans-Serif" font-size="10.00" fill="#000000">array</text>
</g>
<!-- Node0&#45;&gt;Node10 -->
<g id="edge13" class="edge">
<title>Node0&#45;&gt;Node10</title>
<path fill="none" stroke="#191970" d="M319.1868,-112.2455C325.8589,-104.2958 335.4479,-92.8706 343.4253,-83.3656"/>
<polygon fill="#191970" stroke="#191970" points="346.1592,-85.5525 349.907,-75.6427 340.7974,-81.0524 346.1592,-85.5525"/>
</g>
<!-- Node11 -->
<g id="node12" class="node">
<title>Node11</title>
<polygon fill="#ffffff" stroke="#bfbfbf" points="395,-56.5 395,-75.5 449,-75.5 449,-56.5 395,-56.5"/>
<text text-anchor="middle" x="422" y="-63.5" font-family="Helvetica,sans-Serif" font-size="10.00" fill="#000000">iostream</text>
</g>
<!-- Node0&#45;&gt;Node11 -->
<g id="edge14" class="edge">
<title>Node0&#45;&gt;Node11</title>
<path fill="none" stroke="#191970" d="M330.0816,-112.3733C347.7402,-103.4644 374.2053,-90.1127 394.2098,-80.0203"/>
<polygon fill="#191970" stroke="#191970" points="395.8158,-83.1303 403.1674,-75.5011 392.6628,-76.8806 395.8158,-83.1303"/>
</g>
<!-- Node12 -->
<g id="node13" class="node">
<title>Node12</title>
<polygon fill="#ffffff" stroke="#bfbfbf" points="467,-56.5 467,-75.5 519,-75.5 519,-56.5 467,-56.5"/>
<text text-anchor="middle" x="493" y="-63.5" font-family="Helvetica,sans-Serif" font-size="10.00" fill="#000000">sstream</text>
</g>
<!-- Node0&#45;&gt;Node12 -->
<g id="edge16" class="edge">
<title>Node0&#45;&gt;Node12</title>
<path fill="none" stroke="#191970" d="M342.2869,-112.3733C374.1555,-102.5676 423.5171,-87.3793 456.9926,-77.0792"/>
<polygon fill="#191970" stroke="#191970" points="458.3061,-80.3371 466.8346,-74.0509 456.2474,-73.6466 458.3061,-80.3371"/>
</g>
<!-- Node13 -->
<g id="node14" class="node">
<title>Node13</title>
<polygon fill="#ffffff" stroke="#bfbfbf" points="537,-56.5 537,-75.5 615,-75.5 615,-56.5 537,-56.5"/>
<text text-anchor="middle" x="576" y="-63.5" font-family="Helvetica,sans-Serif" font-size="10.00" fill="#000000">unordered_set</text>
</g>
<!-- Node0&#45;&gt;Node13 -->
<g id="edge17" class="edge">
<title>Node0&#45;&gt;Node13</title>
<path fill="none" stroke="#191970" d="M356.254,-112.4369C403.7294,-102.4043 478.1059,-86.6871 526.9562,-76.364"/>
<polygon fill="#191970" stroke="#191970" points="527.9137,-79.739 536.974,-74.247 526.4664,-72.8903 527.9137,-79.739"/>
</g>
<!-- Node2 -->
<g id="node3" class="node">
<title>Node2</title>
<polygon fill="#ffffff" stroke="#bfbfbf" points="58.5,-.5 58.5,-19.5 99.5,-19.5 99.5,-.5 58.5,-.5"/>
<text text-anchor="middle" x="79" y="-7.5" font-family="Helvetica,sans-Serif" font-size="10.00" fill="#000000">string</text>
</g>
<!-- Node1&#45;&gt;Node2 -->
<g id="edge2" class="edge">
<title>Node1&#45;&gt;Node2</title>
<path fill="none" stroke="#191970" d="M79,-56.2455C79,-48.9382 79,-38.6944 79,-29.7046"/>
<polygon fill="#191970" stroke="#191970" points="82.5001,-29.6426 79,-19.6427 75.5001,-29.6427 82.5001,-29.6426"/>
</g>
<!-- Node1&#45;&gt;Node3 -->
<g id="edge3" class="edge">
<title>Node1&#45;&gt;Node3</title>
<path fill="none" stroke="#191970" d="M68.723,-56.2455C60.1782,-48.1352 47.8222,-36.4075 37.6915,-26.7919"/>
<polygon fill="#191970" stroke="#191970" points="39.8218,-23.9884 30.1592,-19.6427 35.0028,-29.0655 39.8218,-23.9884"/>
</g>
<!-- Node4 -->
<g id="node5" class="node">
<title>Node4</title>
<polygon fill="#ffffff" stroke="#bfbfbf" points="118,-.5 118,-19.5 162,-19.5 162,-.5 118,-.5"/>
<text text-anchor="middle" x="140" y="-7.5" font-family="Helvetica,sans-Serif" font-size="10.00" fill="#000000">vector</text>
</g>
<!-- Node1&#45;&gt;Node4 -->
<g id="edge4" class="edge">
<title>Node1&#45;&gt;Node4</title>
<path fill="none" stroke="#191970" d="M89.6254,-56.2455C98.5473,-48.0549 111.488,-36.1749 122.0192,-26.5069"/>
<polygon fill="#191970" stroke="#191970" points="124.4968,-28.9837 129.4964,-19.6427 119.7629,-23.8271 124.4968,-28.9837"/>
</g>
<!-- Node5&#45;&gt;Node2 -->
<g id="edge10" class="edge">
<title>Node5&#45;&gt;Node2</title>
<path fill="none" stroke="#191970" d="M213.1512,-56.3733C184.2165,-46.3711 139.0808,-30.7687 109.2771,-20.4662"/>
<polygon fill="#191970" stroke="#191970" points="110.3979,-17.1504 99.8031,-17.1912 108.1109,-23.7663 110.3979,-17.1504"/>
</g>
<!-- Node5&#45;&gt;Node4 -->
<g id="edge11" class="edge">
<title>Node5&#45;&gt;Node4</title>
<path fill="none" stroke="#191970" d="M223.4071,-56.2455C207.621,-47.4928 184.2361,-34.527 166.2413,-24.5496"/>
<polygon fill="#191970" stroke="#191970" points="167.8341,-21.4308 157.3913,-19.6427 164.4397,-27.5528 167.8341,-21.4308"/>
</g>
<!-- Node5&#45;&gt;Node6 -->
<g id="edge6" class="edge">
<title>Node5&#45;&gt;Node6</title>
<path fill="none" stroke="#191970" d="M235.2518,-56.2455C230.7565,-48.617 224.3752,-37.7881 218.9175,-28.5267"/>
<polygon fill="#191970" stroke="#191970" points="221.7747,-26.4811 213.6823,-19.6427 215.7439,-30.035 221.7747,-26.4811"/>
</g>
<!-- Node5&#45;&gt;Node7 -->
<g id="edge7" class="edge">
<title>Node5&#45;&gt;Node7</title>
<path fill="none" stroke="#191970" d="M267.9893,-56.3733C294.8111,-46.8062 335.9974,-32.1156 364.8059,-21.8399"/>
<polygon fill="#191970" stroke="#191970" points="366.1929,-25.0613 374.4358,-18.4051 363.8412,-18.4681 366.1929,-25.0613"/>
</g>
<!-- Node8 -->
<g id="node9" class="node">
<title>Node8</title>
<polygon fill="#ffffff" stroke="#bfbfbf" points="314,-.5 314,-19.5 356,-19.5 356,-.5 314,-.5"/>
<text text-anchor="middle" x="335" y="-7.5" font-family="Helvetica,sans-Serif" font-size="10.00" fill="#000000">locale</text>
</g>
<!-- Node5&#45;&gt;Node8 -->
<g id="edge8" class="edge">
<title>Node5&#45;&gt;Node8</title>
<path fill="none" stroke="#191970" d="M257.3736,-56.2455C271.9308,-47.5731 293.431,-34.7645 310.1152,-24.825"/>
<polygon fill="#191970" stroke="#191970" points="312.0144,-27.7676 318.8141,-19.6427 308.4317,-21.7539 312.0144,-27.7676"/>
</g>
<!-- Node9 -->
<g id="node10" class="node">
<title>Node9</title>
<polygon fill="#ffffff" stroke="#bfbfbf" points="254.5,-.5 254.5,-19.5 295.5,-19.5 295.5,-.5 254.5,-.5"/>
<text text-anchor="middle" x="275" y="-7.5" font-family="Helvetica,sans-Serif" font-size="10.00" fill="#000000">stack</text>
</g>
<!-- Node5&#45;&gt;Node9 -->
<g id="edge9" class="edge">
<title>Node5&#45;&gt;Node9</title>
<path fill="none" stroke="#191970" d="M246.9223,-56.2455C251.6027,-48.5367 258.2673,-37.5598 263.9289,-28.2348"/>
<polygon fill="#191970" stroke="#191970" points="266.9475,-30.007 269.1455,-19.6427 260.9639,-26.3741 266.9475,-30.007"/>
</g>
</g>
</svg>
