<?xml version="1.0" encoding="UTF-8" standalone="no"?>
<!DOCTYPE svg PUBLIC "-//W3C//DTD SVG 1.1//EN"
 "http://www.w3.org/Graphics/SVG/1.1/DTD/svg11.dtd">
<!-- Generated by graphviz version 2.43.0 (0)
 -->
<!-- Title: Graphical Class Hierarchy Pages: 1 -->
<svg width="253pt" height="88pt"
 viewBox="0.00 0.00 253.00 88.00" xmlns="http://www.w3.org/2000/svg" xmlns:xlink="http://www.w3.org/1999/xlink">
<g id="graph0" class="graph" transform="scale(1 1) rotate(0) translate(4 84)">
<title>Graphical Class Hierarchy</title>
<polygon fill="white" stroke="transparent" points="-4,4 -4,-84 249,-84 249,4 -4,4"/>
<!-- Node21 -->
<g id="node1" class="node">
<title>Node21</title>
<g id="a_node1"><a xlink:title=" ">
<polygon fill="white" stroke="#bfbfbf" points="0,-30 0,-49 83,-49 83,-30 0,-30"/>
<text text-anchor="middle" x="41.5" y="-37" font-family="Helvetica,sans-Serif" font-size="10.00">runtime_error</text>
</a>
</g>
</g>
<!-- Node0 -->
<g id="node2" class="node">
<title>Node0</title>
<g id="a_node2"><a xlink:href="structnuspell_1_1v3_1_1_condition___exception.html" target="_top" xlink:title=" ">
<polygon fill="white" stroke="black" points="121,-49.5 121,-79.5 243,-79.5 243,-49.5 121,-49.5"/>
<text text-anchor="start" x="129" y="-67.5" font-family="Helvetica,sans-Serif" font-size="10.00">nuspell::v3::Condition</text>
<text text-anchor="middle" x="182" y="-56.5" font-family="Helvetica,sans-Serif" font-size="10.00">_Exception</text>
</a>
</g>
</g>
<!-- Node21&#45;&gt;Node0 -->
<g id="edge1" class="edge">
<title>Node21&#45;&gt;Node0</title>
<path fill="none" stroke="midnightblue" d="M93.26,-48.66C102.27,-50.29 111.74,-52 120.98,-53.67"/>
<polygon fill="midnightblue" stroke="midnightblue" points="93.77,-45.2 83.31,-46.87 92.52,-52.09 93.77,-45.2"/>
</g>
<!-- Node23 -->
<g id="node3" class="node">
<title>Node23</title>
<g id="a_node3"><a xlink:href="classnuspell_1_1v3_1_1_dictionary___loading___error.html" target="_top" xlink:title="The only important public exception.">
<polygon fill="white" stroke="black" points="119,-0.5 119,-30.5 245,-30.5 245,-0.5 119,-0.5"/>
<text text-anchor="start" x="127" y="-18.5" font-family="Helvetica,sans-Serif" font-size="10.00">nuspell::v3::Dictionary</text>
<text text-anchor="middle" x="182" y="-7.5" font-family="Helvetica,sans-Serif" font-size="10.00">_Loading_Error</text>
</a>
</g>
</g>
<!-- Node21&#45;&gt;Node23 -->
<g id="edge2" class="edge">
<title>Node21&#45;&gt;Node23</title>
<path fill="none" stroke="midnightblue" d="M93.26,-30.7C101.6,-29.26 110.33,-27.75 118.92,-26.26"/>
<polygon fill="midnightblue" stroke="midnightblue" points="92.56,-27.27 83.31,-32.43 93.76,-34.17 92.56,-27.27"/>
</g>
</g>
</svg>
