<?xml version="1.0" encoding="UTF-8" standalone="no"?>
<!DOCTYPE svg PUBLIC "-//W3C//DTD SVG 1.1//EN"
 "http://www.w3.org/Graphics/SVG/1.1/DTD/svg11.dtd">
<!-- Generated by graphviz version 2.40.1 (20161225.0304)
 -->
<!-- Title: Graphical Class Hierarchy Pages: 1 -->
<svg width="187pt" height="88pt"
 viewBox="0.00 0.00 187.00 88.00" xmlns="http://www.w3.org/2000/svg" xmlns:xlink="http://www.w3.org/1999/xlink">
<g id="graph0" class="graph" transform="scale(1 1) rotate(0) translate(4 84)">
<title>Graphical Class Hierarchy</title>
<polygon fill="#ffffff" stroke="transparent" points="-4,4 -4,-84 183,-84 183,4 -4,4"/>
<!-- Node33 -->
<g id="node1" class="node">
<title>Node33</title>
<polygon fill="#ffffff" stroke="#bfbfbf" points="0,-30 0,-49 41,-49 41,-30 0,-30"/>
<text text-anchor="middle" x="20.5" y="-37" font-family="Helvetica,sans-Serif" font-size="10.00" fill="#000000">ctype</text>
</g>
<!-- Node0 -->
<g id="node2" class="node">
<title>Node0</title>
<g id="a_node2"><a xlink:href="classnuspell_1_1my__ctype_3_01char_01_4.html" target="_top" xlink:title="nuspell::my_ctype\&lt;\l char \&gt;">
<polygon fill="#ffffff" stroke="#000000" points="77,-49.5 77,-79.5 179,-79.5 179,-49.5 77,-49.5"/>
<text text-anchor="start" x="85" y="-67.5" font-family="Helvetica,sans-Serif" font-size="10.00" fill="#000000">nuspell::my_ctype&lt;</text>
<text text-anchor="middle" x="128" y="-56.5" font-family="Helvetica,sans-Serif" font-size="10.00" fill="#000000"> char &gt;</text>
</a>
</g>
</g>
<!-- Node33&#45;&gt;Node0 -->
<g id="edge1" class="edge">
<title>Node33&#45;&gt;Node0</title>
<path fill="none" stroke="#191970" d="M51.1191,-46.6207C59.0677,-48.4692 67.8504,-50.5117 76.5524,-52.5354"/>
<polygon fill="#191970" stroke="#191970" points="51.76,-43.1764 41.2271,-44.3203 50.1743,-49.9945 51.76,-43.1764"/>
</g>
<!-- Node35 -->
<g id="node3" class="node">
<title>Node35</title>
<g id="a_node3"><a xlink:href="classnuspell_1_1my__ctype_3_01wchar__t_01_4.html" target="_top" xlink:title="nuspell::my_ctype\&lt;\l wchar_t \&gt;">
<polygon fill="#ffffff" stroke="#000000" points="77,-.5 77,-30.5 179,-30.5 179,-.5 77,-.5"/>
<text text-anchor="start" x="85" y="-18.5" font-family="Helvetica,sans-Serif" font-size="10.00" fill="#000000">nuspell::my_ctype&lt;</text>
<text text-anchor="middle" x="128" y="-7.5" font-family="Helvetica,sans-Serif" font-size="10.00" fill="#000000"> wchar_t &gt;</text>
</a>
</g>
</g>
<!-- Node33&#45;&gt;Node35 -->
<g id="edge2" class="edge">
<title>Node33&#45;&gt;Node35</title>
<path fill="none" stroke="#191970" d="M51.1191,-32.6641C59.0677,-30.8895 67.8504,-28.9288 76.5524,-26.986"/>
<polygon fill="#191970" stroke="#191970" points="50.2242,-29.2777 41.2271,-34.8726 51.7495,-36.1095 50.2242,-29.2777"/>
</g>
</g>
</svg>
