<?xml version="1.0" encoding="UTF-8" standalone="no"?>
<!DOCTYPE svg PUBLIC "-//W3C//DTD SVG 1.1//EN"
 "http://www.w3.org/Graphics/SVG/1.1/DTD/svg11.dtd">
<!-- Generated by graphviz version 2.40.1 (20161225.0304)
 -->
<!-- Title: Graphical Class Hierarchy Pages: 1 -->
<svg width="232pt" height="88pt"
 viewBox="0.00 0.00 232.00 88.00" xmlns="http://www.w3.org/2000/svg" xmlns:xlink="http://www.w3.org/1999/xlink">
<g id="graph0" class="graph" transform="scale(1 1) rotate(0) translate(4 84)">
<title>Graphical Class Hierarchy</title>
<polygon fill="#ffffff" stroke="transparent" points="-4,4 -4,-84 228,-84 228,4 -4,4"/>
<!-- Node12 -->
<g id="node1" class="node">
<title>Node12</title>
<polygon fill="#ffffff" stroke="#bfbfbf" points="0,-30 0,-49 74,-49 74,-30 0,-30"/>
<text text-anchor="middle" x="37" y="-37" font-family="Helvetica,sans-Serif" font-size="10.00" fill="#000000">runtime_error</text>
</g>
<!-- Node0 -->
<g id="node2" class="node">
<title>Node0</title>
<g id="a_node2"><a xlink:href="structnuspell_1_1_condition___exception.html" target="_top" xlink:title="nuspell::Condition\l_Exception">
<polygon fill="#ffffff" stroke="#000000" points="119.5,-49.5 119.5,-79.5 214.5,-79.5 214.5,-49.5 119.5,-49.5"/>
<text text-anchor="start" x="127.5" y="-67.5" font-family="Helvetica,sans-Serif" font-size="10.00" fill="#000000">nuspell::Condition</text>
<text text-anchor="middle" x="167" y="-56.5" font-family="Helvetica,sans-Serif" font-size="10.00" fill="#000000">_Exception</text>
</a>
</g>
</g>
<!-- Node12&#45;&gt;Node0 -->
<g id="edge1" class="edge">
<title>Node12&#45;&gt;Node0</title>
<path fill="none" stroke="#191970" d="M84.368,-48.6092C95.6648,-50.7817 107.7303,-53.102 119.053,-55.2794"/>
<polygon fill="#191970" stroke="#191970" points="84.7338,-45.1155 74.2528,-46.664 83.4119,-51.9896 84.7338,-45.1155"/>
</g>
<!-- Node14 -->
<g id="node3" class="node">
<title>Node14</title>
<g id="a_node3"><a xlink:href="classnuspell_1_1v2_1_1_dictionary___loading___error.html" target="_top" xlink:title="nuspell::v2::Dictionary\l_Loading_Error">
<polygon fill="#ffffff" stroke="#000000" points="110,-.5 110,-30.5 224,-30.5 224,-.5 110,-.5"/>
<text text-anchor="start" x="118" y="-18.5" font-family="Helvetica,sans-Serif" font-size="10.00" fill="#000000">nuspell::v2::Dictionary</text>
<text text-anchor="middle" x="167" y="-7.5" font-family="Helvetica,sans-Serif" font-size="10.00" fill="#000000">_Loading_Error</text>
</a>
</g>
</g>
<!-- Node12&#45;&gt;Node14 -->
<g id="edge2" class="edge">
<title>Node12&#45;&gt;Node14</title>
<path fill="none" stroke="#191970" d="M84.1747,-30.7908C92.515,-29.2511 101.2796,-27.633 109.8589,-26.0491"/>
<polygon fill="#191970" stroke="#191970" points="83.4512,-27.3652 74.2528,-32.6226 84.7221,-34.2488 83.4512,-27.3652"/>
</g>
</g>
</svg>
