<?xml version="1.0" encoding="UTF-8" standalone="no"?>
<!DOCTYPE svg PUBLIC "-//W3C//DTD SVG 1.1//EN"
 "http://www.w3.org/Graphics/SVG/1.1/DTD/svg11.dtd">
<!-- Generated by graphviz version 2.40.1 (20161225.0304)
 -->
<!-- Title: Graphical Class Hierarchy Pages: 1 -->
<svg width="485pt" height="28pt"
 viewBox="0.00 0.00 485.00 28.00" xmlns="http://www.w3.org/2000/svg" xmlns:xlink="http://www.w3.org/1999/xlink">
<g id="graph0" class="graph" transform="scale(1 1) rotate(0) translate(4 24)">
<title>Graphical Class Hierarchy</title>
<polygon fill="#ffffff" stroke="transparent" points="-4,4 -4,-24 481,-24 481,4 -4,4"/>
<!-- Node0 -->
<g id="node1" class="node">
<title>Node0</title>
<g id="a_node1"><a xlink:href="structnuspell_1_1_aff___data.html" target="_top" xlink:title="nuspell::Aff_Data">
<polygon fill="#ffffff" stroke="#000000" points="0,-.5 0,-19.5 92,-19.5 92,-.5 0,-.5"/>
<text text-anchor="middle" x="46" y="-7.5" font-family="Helvetica,sans-Serif" font-size="10.00" fill="#000000">nuspell::Aff_Data</text>
</a>
</g>
</g>
<!-- Node1 -->
<g id="node2" class="node">
<title>Node1</title>
<g id="a_node2"><a xlink:href="structnuspell_1_1_dict___base.html" target="_top" xlink:title="nuspell::Dict_Base">
<polygon fill="#ffffff" stroke="#000000" points="128,-.5 128,-19.5 227,-19.5 227,-.5 128,-.5"/>
<text text-anchor="middle" x="177.5" y="-7.5" font-family="Helvetica,sans-Serif" font-size="10.00" fill="#000000">nuspell::Dict_Base</text>
</a>
</g>
</g>
<!-- Node0&#45;&gt;Node1 -->
<g id="edge1" class="edge">
<title>Node0&#45;&gt;Node1</title>
<path fill="none" stroke="#191970" d="M102.5457,-10C111.0108,-10 119.6835,-10 127.9875,-10"/>
<polygon fill="#191970" stroke="#191970" points="102.362,-6.5001 92.362,-10 102.3619,-13.5001 102.362,-6.5001"/>
</g>
<!-- Node2 -->
<g id="node3" class="node">
<title>Node2</title>
<g id="a_node3"><a xlink:href="classnuspell_1_1_dictionary.html" target="_top" xlink:title="nuspell::Dictionary">
<polygon fill="#ffffff" stroke="#000000" points="263,-.5 263,-19.5 361,-19.5 361,-.5 263,-.5"/>
<text text-anchor="middle" x="312" y="-7.5" font-family="Helvetica,sans-Serif" font-size="10.00" fill="#000000">nuspell::Dictionary</text>
</a>
</g>
</g>
<!-- Node1&#45;&gt;Node2 -->
<g id="edge2" class="edge">
<title>Node1&#45;&gt;Node2</title>
<path fill="none" stroke="#006400" d="M237.4769,-10C245.9962,-10 254.673,-10 262.9518,-10"/>
<polygon fill="#006400" stroke="#006400" points="237.2007,-6.5001 227.2007,-10 237.2007,-13.5001 237.2007,-6.5001"/>
</g>
<!-- Node3 -->
<g id="node4" class="node">
<title>Node3</title>
<g id="a_node4"><a xlink:href="class_my___dictionary.html" target="_top" xlink:title="My_Dictionary">
<polygon fill="#ffffff" stroke="#000000" points="397,-.5 397,-19.5 477,-19.5 477,-.5 397,-.5"/>
<text text-anchor="middle" x="437" y="-7.5" font-family="Helvetica,sans-Serif" font-size="10.00" fill="#000000">My_Dictionary</text>
</a>
</g>
</g>
<!-- Node2&#45;&gt;Node3 -->
<g id="edge3" class="edge">
<title>Node2&#45;&gt;Node3</title>
<path fill="none" stroke="#191970" d="M371.2074,-10C379.933,-10 388.7445,-10 396.959,-10"/>
<polygon fill="#191970" stroke="#191970" points="371.0446,-6.5001 361.0445,-10 371.0445,-13.5001 371.0446,-6.5001"/>
</g>
</g>
</svg>
