<?xml version="1.0" encoding="UTF-8" standalone="no"?>
<!DOCTYPE svg PUBLIC "-//W3C//DTD SVG 1.1//EN"
 "http://www.w3.org/Graphics/SVG/1.1/DTD/svg11.dtd">
<!-- Generated by graphviz version 2.40.1 (20161225.0304)
 -->
<!-- Title: Graphical Class Hierarchy Pages: 1 -->
<svg width="404pt" height="66pt"
 viewBox="0.00 0.00 404.00 66.00" xmlns="http://www.w3.org/2000/svg" xmlns:xlink="http://www.w3.org/1999/xlink">
<g id="graph0" class="graph" transform="scale(1 1) rotate(0) translate(4 62)">
<title>Graphical Class Hierarchy</title>
<polygon fill="#ffffff" stroke="transparent" points="-4,4 -4,-62 400,-62 400,4 -4,4"/>
<!-- Node47 -->
<g id="node1" class="node">
<title>Node47</title>
<g id="a_node1"><a xlink:href="structnuspell_1_1_aff___data.html" target="_top" xlink:title="nuspell::Aff_Data">
<polygon fill="#ffffff" stroke="#000000" points="0,-38.5 0,-57.5 92,-57.5 92,-38.5 0,-38.5"/>
<text text-anchor="middle" x="46" y="-45.5" font-family="Helvetica,sans-Serif" font-size="10.00" fill="#000000">nuspell::Aff_Data</text>
</a>
</g>
</g>
<!-- Node48 -->
<g id="node2" class="node">
<title>Node48</title>
<g id="a_node2"><a xlink:href="structnuspell_1_1_dict___base.html" target="_top" xlink:title="nuspell::Dict_Base">
<polygon fill="#ffffff" stroke="#000000" points="130.5,-38.5 130.5,-57.5 229.5,-57.5 229.5,-38.5 130.5,-38.5"/>
<text text-anchor="middle" x="180" y="-45.5" font-family="Helvetica,sans-Serif" font-size="10.00" fill="#000000">nuspell::Dict_Base</text>
</a>
</g>
</g>
<!-- Node47&#45;&gt;Node48 -->
<g id="edge1" class="edge">
<title>Node47&#45;&gt;Node48</title>
<path fill="none" stroke="#191970" d="M102.37,-48C111.5906,-48 121.0869,-48 130.1361,-48"/>
<polygon fill="#191970" stroke="#191970" points="102.1152,-44.5001 92.1152,-48 102.1152,-51.5001 102.1152,-44.5001"/>
</g>
<!-- Node0 -->
<g id="node3" class="node">
<title>Node0</title>
<g id="a_node3"><a xlink:href="structnuspell_1_1_basic___dictionary.html" target="_top" xlink:title="nuspell::Basic_Dictionary\l\&lt; InputEncodingTraits \&gt;">
<polygon fill="#ffffff" stroke="#000000" points="268,-14 268,-44 396,-44 396,-14 268,-14"/>
<text text-anchor="start" x="276" y="-32" font-family="Helvetica,sans-Serif" font-size="10.00" fill="#000000">nuspell::Basic_Dictionary</text>
<text text-anchor="middle" x="332" y="-21" font-family="Helvetica,sans-Serif" font-size="10.00" fill="#000000">&lt; InputEncodingTraits &gt;</text>
</a>
</g>
</g>
<!-- Node48&#45;&gt;Node0 -->
<g id="edge2" class="edge">
<title>Node48&#45;&gt;Node0</title>
<path fill="none" stroke="#006400" d="M239.9852,-40.5019C249.1828,-39.3521 258.7084,-38.1615 267.9892,-37.0014"/>
<polygon fill="#006400" stroke="#006400" points="239.2591,-37.0653 229.7705,-41.7787 240.1274,-44.0112 239.2591,-37.0653"/>
</g>
<!-- Node18 -->
<g id="node4" class="node">
<title>Node18</title>
<polygon fill="#ffffff" stroke="#bfbfbf" points="128,-.5 128,-19.5 232,-19.5 232,-.5 128,-.5"/>
<text text-anchor="middle" x="180" y="-7.5" font-family="Helvetica,sans-Serif" font-size="10.00" fill="#000000">InputEncodingTraits</text>
</g>
<!-- Node18&#45;&gt;Node0 -->
<g id="edge3" class="edge">
<title>Node18&#45;&gt;Node0</title>
<path fill="none" stroke="#191970" d="M242.3845,-17.7981C250.7602,-18.845 259.3639,-19.9205 267.7707,-20.9713"/>
<polygon fill="#191970" stroke="#191970" points="242.6667,-14.3062 232.3098,-16.5387 241.7984,-21.2521 242.6667,-14.3062"/>
</g>
</g>
</svg>
