<?xml version="1.0" encoding="UTF-8" standalone="no"?>
<!DOCTYPE svg PUBLIC "-//W3C//DTD SVG 1.1//EN"
 "http://www.w3.org/Graphics/SVG/1.1/DTD/svg11.dtd">
<!-- Generated by graphviz version 2.43.0 (0)
 -->
<!-- Title: Graphical Class Hierarchy Pages: 1 -->
<svg width="280pt" height="137pt"
 viewBox="0.00 0.00 280.00 137.00" xmlns="http://www.w3.org/2000/svg" xmlns:xlink="http://www.w3.org/1999/xlink">
<g id="graph0" class="graph" transform="scale(1 1) rotate(0) translate(4 133)">
<title>Graphical Class Hierarchy</title>
<polygon fill="white" stroke="transparent" points="-4,4 -4,-133 276,-133 276,4 -4,4"/>
<!-- Node93 -->
<g id="node1" class="node">
<title>Node93</title>
<g id="a_node1"><a xlink:href="structnuspell_1_1v4_1_1_affixing___result___base.html" target="_top" xlink:title=" ">
<polygon fill="white" stroke="black" points="0,-73.5 0,-103.5 113,-103.5 113,-73.5 0,-73.5"/>
<text text-anchor="start" x="8" y="-91.5" font-family="Helvetica,sans-Serif" font-size="10.00">nuspell::v4::Affixing</text>
<text text-anchor="middle" x="56.5" y="-80.5" font-family="Helvetica,sans-Serif" font-size="10.00">_Result_Base</text>
</a>
</g>
</g>
<!-- Node1 -->
<g id="node2" class="node">
<title>Node1</title>
<g id="a_node2"><a xlink:href="structnuspell_1_1v4_1_1_affixing___result.html" target="_top" xlink:title=" ">
<polygon fill="white" stroke="black" points="154,-98.5 154,-128.5 267,-128.5 267,-98.5 154,-98.5"/>
<text text-anchor="start" x="162" y="-116.5" font-family="Helvetica,sans-Serif" font-size="10.00">nuspell::v4::Affixing</text>
<text text-anchor="middle" x="210.5" y="-105.5" font-family="Helvetica,sans-Serif" font-size="10.00">_Result&lt; T1, T2 &gt;</text>
</a>
</g>
</g>
<!-- Node93&#45;&gt;Node1 -->
<g id="edge1" class="edge">
<title>Node93&#45;&gt;Node1</title>
<path fill="none" stroke="midnightblue" d="M123.29,-99.32C133.45,-100.99 143.86,-102.7 153.77,-104.33"/>
<polygon fill="midnightblue" stroke="midnightblue" points="123.67,-95.84 113.24,-97.67 122.54,-102.74 123.67,-95.84"/>
</g>
<!-- Node2 -->
<g id="node3" class="node">
<title>Node2</title>
<g id="a_node3"><a xlink:href="structnuspell_1_1v4_1_1_affixing___result_3_01_t1_00_01void_01_4.html" target="_top" xlink:title=" ">
<polygon fill="white" stroke="black" points="153.5,-49.5 153.5,-79.5 267.5,-79.5 267.5,-49.5 153.5,-49.5"/>
<text text-anchor="start" x="161.5" y="-67.5" font-family="Helvetica,sans-Serif" font-size="10.00">nuspell::v4::Affixing</text>
<text text-anchor="middle" x="210.5" y="-56.5" font-family="Helvetica,sans-Serif" font-size="10.00">_Result&lt; T1, void &gt;</text>
</a>
</g>
</g>
<!-- Node93&#45;&gt;Node2 -->
<g id="edge2" class="edge">
<title>Node93&#45;&gt;Node2</title>
<path fill="none" stroke="midnightblue" d="M123.16,-78.13C133.19,-76.55 143.46,-74.93 153.26,-73.38"/>
<polygon fill="midnightblue" stroke="midnightblue" points="122.57,-74.68 113.24,-79.7 123.66,-81.6 122.57,-74.68"/>
</g>
<!-- Node3 -->
<g id="node4" class="node">
<title>Node3</title>
<g id="a_node4"><a xlink:href="structnuspell_1_1v4_1_1_affixing___result_3_01void_00_01void_01_4.html" target="_top" xlink:title=" ">
<polygon fill="white" stroke="black" points="149,-0.5 149,-30.5 272,-30.5 272,-0.5 149,-0.5"/>
<text text-anchor="start" x="157" y="-18.5" font-family="Helvetica,sans-Serif" font-size="10.00">nuspell::v4::Affixing</text>
<text text-anchor="middle" x="210.5" y="-7.5" font-family="Helvetica,sans-Serif" font-size="10.00">_Result&lt; void, void &gt;</text>
</a>
</g>
</g>
<!-- Node93&#45;&gt;Node3 -->
<g id="edge3" class="edge">
<title>Node93&#45;&gt;Node3</title>
<path fill="none" stroke="midnightblue" d="M104.13,-69.07C107.16,-67.58 110.14,-66.05 113,-64.5 129.89,-55.31 132.03,-49.55 149,-40.5 155.62,-36.97 162.85,-33.6 169.93,-30.54"/>
<polygon fill="midnightblue" stroke="midnightblue" points="102.51,-65.97 94.96,-73.4 105.5,-72.3 102.51,-65.97"/>
</g>
<!-- Node0 -->
<g id="node5" class="node">
<title>Node0</title>
<g id="a_node5"><a xlink:href="structnuspell_1_1v4_1_1_affixing___result___base.html" target="_top" xlink:title=" ">
<polygon fill="white" stroke="black" points="0,-24.5 0,-54.5 113,-54.5 113,-24.5 0,-24.5"/>
<text text-anchor="start" x="8" y="-42.5" font-family="Helvetica,sans-Serif" font-size="10.00">nuspell::v4::Affixing</text>
<text text-anchor="middle" x="56.5" y="-31.5" font-family="Helvetica,sans-Serif" font-size="10.00">_Result_Base</text>
</a>
</g>
</g>
<!-- Node0&#45;&gt;Node1 -->
<g id="edge4" class="edge">
<title>Node0&#45;&gt;Node1</title>
<path fill="none" stroke="midnightblue" d="M102.8,-59.06C106.29,-60.83 109.73,-62.65 113,-64.5 129.95,-74.1 131.83,-80.29 149,-89.5 154.97,-92.7 161.47,-95.73 167.92,-98.47"/>
<polygon fill="midnightblue" stroke="midnightblue" points="104.03,-55.77 93.51,-54.56 100.98,-62.07 104.03,-55.77"/>
</g>
<!-- Node0&#45;&gt;Node2 -->
<g id="edge5" class="edge">
<title>Node0&#45;&gt;Node2</title>
<path fill="none" stroke="midnightblue" d="M123.16,-50.3C133.19,-51.95 143.46,-53.64 153.26,-55.25"/>
<polygon fill="midnightblue" stroke="midnightblue" points="123.67,-46.84 113.24,-48.67 122.54,-53.74 123.67,-46.84"/>
</g>
<!-- Node0&#45;&gt;Node3 -->
<g id="edge6" class="edge">
<title>Node0&#45;&gt;Node3</title>
<path fill="none" stroke="midnightblue" d="M123.16,-29.13C131.72,-27.78 140.44,-26.4 148.91,-25.07"/>
<polygon fill="midnightblue" stroke="midnightblue" points="122.57,-25.68 113.24,-30.7 123.66,-32.6 122.57,-25.68"/>
</g>
</g>
</svg>
