<?xml version="1.0" encoding="UTF-8" standalone="no"?>
<!DOCTYPE svg PUBLIC "-//W3C//DTD SVG 1.1//EN"
 "http://www.w3.org/Graphics/SVG/1.1/DTD/svg11.dtd">
<!-- Generated by graphviz version 2.43.0 (0)
 -->
<!-- Title: Graphical Class Hierarchy Pages: 1 -->
<svg width="449pt" height="66pt"
 viewBox="0.00 0.00 449.00 66.00" xmlns="http://www.w3.org/2000/svg" xmlns:xlink="http://www.w3.org/1999/xlink">
<g id="graph0" class="graph" transform="scale(1 1) rotate(0) translate(4 62)">
<title>Graphical Class Hierarchy</title>
<polygon fill="white" stroke="transparent" points="-4,4 -4,-62 445,-62 445,4 -4,4"/>
<!-- Node99 -->
<g id="node1" class="node">
<title>Node99</title>
<g id="a_node1"><a xlink:href="structnuspell_1_1v4_1_1_aff___data.html" target="_top" xlink:title=" ">
<polygon fill="white" stroke="black" points="0,-38.5 0,-57.5 118,-57.5 118,-38.5 0,-38.5"/>
<text text-anchor="middle" x="59" y="-45.5" font-family="Helvetica,sans-Serif" font-size="10.00">nuspell::v4::Aff_Data</text>
</a>
</g>
</g>
<!-- Node1 -->
<g id="node2" class="node">
<title>Node1</title>
<g id="a_node2"><a xlink:href="structnuspell_1_1v4_1_1_dict___base.html" target="_top" xlink:title=" ">
<polygon fill="white" stroke="black" points="154,-19.5 154,-38.5 279,-38.5 279,-19.5 154,-19.5"/>
<text text-anchor="middle" x="216.5" y="-26.5" font-family="Helvetica,sans-Serif" font-size="10.00">nuspell::v4::Dict_Base</text>
</a>
</g>
</g>
<!-- Node99&#45;&gt;Node1 -->
<g id="edge1" class="edge">
<title>Node99&#45;&gt;Node1</title>
<path fill="none" stroke="midnightblue" d="M128.28,-39.66C136.83,-38.61 145.53,-37.55 153.97,-36.52"/>
<polygon fill="midnightblue" stroke="midnightblue" points="127.85,-36.18 118.34,-40.87 128.7,-43.13 127.85,-36.18"/>
</g>
<!-- Node2 -->
<g id="node3" class="node">
<title>Node2</title>
<g id="a_node3"><a xlink:href="classnuspell_1_1v4_1_1_dictionary.html" target="_top" xlink:title="The only important public class.">
<polygon fill="white" stroke="black" points="315,-19.5 315,-38.5 441,-38.5 441,-19.5 315,-19.5"/>
<text text-anchor="middle" x="378" y="-26.5" font-family="Helvetica,sans-Serif" font-size="10.00">nuspell::v4::Dictionary</text>
</a>
</g>
</g>
<!-- Node1&#45;&gt;Node2 -->
<g id="edge2" class="edge">
<title>Node1&#45;&gt;Node2</title>
<path fill="none" stroke="#8b1a1a" d="M289.19,-29C297.79,-29 306.52,-29 314.97,-29"/>
<polygon fill="#8b1a1a" stroke="#8b1a1a" points="289.17,-25.5 279.17,-29 289.17,-32.5 289.17,-25.5"/>
</g>
<!-- Node0 -->
<g id="node4" class="node">
<title>Node0</title>
<g id="a_node4"><a xlink:href="structnuspell_1_1v4_1_1_aff___data.html" target="_top" xlink:title=" ">
<polygon fill="white" stroke="black" points="0,-0.5 0,-19.5 118,-19.5 118,-0.5 0,-0.5"/>
<text text-anchor="middle" x="59" y="-7.5" font-family="Helvetica,sans-Serif" font-size="10.00">nuspell::v4::Aff_Data</text>
</a>
</g>
</g>
<!-- Node0&#45;&gt;Node1 -->
<g id="edge3" class="edge">
<title>Node0&#45;&gt;Node1</title>
<path fill="none" stroke="midnightblue" d="M128.28,-18.34C136.83,-19.39 145.53,-20.45 153.97,-21.48"/>
<polygon fill="midnightblue" stroke="midnightblue" points="128.7,-14.87 118.34,-17.13 127.85,-21.82 128.7,-14.87"/>
</g>
</g>
</svg>
