<?xml version="1.0" encoding="UTF-8" standalone="no"?>
<!DOCTYPE svg PUBLIC "-//W3C//DTD SVG 1.1//EN"
 "http://www.w3.org/Graphics/SVG/1.1/DTD/svg11.dtd">
<!-- Generated by graphviz version 2.40.1 (20161225.0304)
 -->
<!-- Title: Graphical Class Hierarchy Pages: 1 -->
<svg width="278pt" height="127pt"
 viewBox="0.00 0.00 278.00 126.50" xmlns="http://www.w3.org/2000/svg" xmlns:xlink="http://www.w3.org/1999/xlink">
<g id="graph0" class="graph" transform="scale(1 1) rotate(0) translate(4 122.5)">
<title>Graphical Class Hierarchy</title>
<polygon fill="#ffffff" stroke="transparent" points="-4,4 -4,-122.5 274,-122.5 274,4 -4,4"/>
<!-- Node0 -->
<g id="node1" class="node">
<title>Node0</title>
<g id="a_node1"><a xlink:href="classnuspell_1_1_hash___multiset.html" target="_top" xlink:title="nuspell::Hash_Multiset\l\&lt; Value, Key, KeyExtract,\l Hash, KeyEqual \&gt;">
<polygon fill="#ffffff" stroke="#000000" points="0,-33.5 0,-74.5 131,-74.5 131,-33.5 0,-33.5"/>
<text text-anchor="start" x="8" y="-62.5" font-family="Helvetica,sans-Serif" font-size="10.00" fill="#000000">nuspell::Hash_Multiset</text>
<text text-anchor="start" x="8" y="-51.5" font-family="Helvetica,sans-Serif" font-size="10.00" fill="#000000">&lt; Value, Key, KeyExtract,</text>
<text text-anchor="middle" x="65.5" y="-40.5" font-family="Helvetica,sans-Serif" font-size="10.00" fill="#000000"> Hash, KeyEqual &gt;</text>
</a>
</g>
</g>
<!-- Node1 -->
<g id="node2" class="node">
<title>Node1</title>
<g id="a_node2"><a xlink:href="classnuspell_1_1_affix___table.html" target="_top" xlink:title="nuspell::Affix_Table\l\&lt; wchar_t \&gt;">
<polygon fill="#ffffff" stroke="#000000" points="167,-88 167,-118 270,-118 270,-88 167,-88"/>
<text text-anchor="start" x="175" y="-106" font-family="Helvetica,sans-Serif" font-size="10.00" fill="#000000">nuspell::Affix_Table</text>
<text text-anchor="middle" x="218.5" y="-95" font-family="Helvetica,sans-Serif" font-size="10.00" fill="#000000">&lt; wchar_t &gt;</text>
</a>
</g>
</g>
<!-- Node0&#45;&gt;Node1 -->
<g id="edge1" class="edge">
<title>Node0&#45;&gt;Node1</title>
<path fill="none" stroke="#8b1a1a" d="M139.7694,-77.7856C150.5144,-81.2268 161.3182,-84.6869 171.3318,-87.8939"/>
<polygon fill="#8b1a1a" stroke="#8b1a1a" points="140.5334,-74.3552 129.9423,-74.6384 138.3983,-81.0217 140.5334,-74.3552"/>
</g>
<!-- Node2 -->
<g id="node3" class="node">
<title>Node2</title>
<g id="a_node3"><a xlink:href="classnuspell_1_1_affix___table.html" target="_top" xlink:title="nuspell::Affix_Table\l\&lt; CharT, AffixT \&gt;">
<polygon fill="#ffffff" stroke="#000000" points="167,-39 167,-69 270,-69 270,-39 167,-39"/>
<text text-anchor="start" x="175" y="-57" font-family="Helvetica,sans-Serif" font-size="10.00" fill="#000000">nuspell::Affix_Table</text>
<text text-anchor="middle" x="218.5" y="-46" font-family="Helvetica,sans-Serif" font-size="10.00" fill="#000000">&lt; CharT, AffixT &gt;</text>
</a>
</g>
</g>
<!-- Node0&#45;&gt;Node2 -->
<g id="edge2" class="edge">
<title>Node0&#45;&gt;Node2</title>
<path fill="none" stroke="#8b1a1a" d="M141.3079,-54C149.8822,-54 158.468,-54 166.6345,-54"/>
<polygon fill="#8b1a1a" stroke="#8b1a1a" points="141.2737,-50.5001 131.2737,-54 141.2737,-57.5001 141.2737,-50.5001"/>
</g>
<!-- Node3 -->
<g id="node4" class="node">
<title>Node3</title>
<g id="a_node4"><a xlink:href="classnuspell_1_1_word___list.html" target="_top" xlink:title="Map between words and word_flags. ">
<polygon fill="#ffffff" stroke="#000000" points="169.5,-.5 169.5,-19.5 267.5,-19.5 267.5,-.5 169.5,-.5"/>
<text text-anchor="middle" x="218.5" y="-7.5" font-family="Helvetica,sans-Serif" font-size="10.00" fill="#000000">nuspell::Word_List</text>
</a>
</g>
</g>
<!-- Node0&#45;&gt;Node3 -->
<g id="edge3" class="edge">
<title>Node0&#45;&gt;Node3</title>
<path fill="none" stroke="#191970" d="M140.9326,-32.307C156.4946,-27.8316 172.1155,-23.3393 185.2188,-19.5711"/>
<polygon fill="#191970" stroke="#191970" points="139.9168,-28.9571 131.2737,-35.0847 141.8515,-35.6845 139.9168,-28.9571"/>
</g>
</g>
</svg>
