<?xml version="1.0" encoding="UTF-8" standalone="no"?>
<!DOCTYPE svg PUBLIC "-//W3C//DTD SVG 1.1//EN"
 "http://www.w3.org/Graphics/SVG/1.1/DTD/svg11.dtd">
<!-- Generated by graphviz version 2.40.1 (20161225.0304)
 -->
<!-- Title: Graphical Class Hierarchy Pages: 1 -->
<svg width="257pt" height="137pt"
 viewBox="0.00 0.00 257.00 137.00" xmlns="http://www.w3.org/2000/svg" xmlns:xlink="http://www.w3.org/1999/xlink">
<g id="graph0" class="graph" transform="scale(1 1) rotate(0) translate(4 133)">
<title>Graphical Class Hierarchy</title>
<polygon fill="#ffffff" stroke="transparent" points="-4,4 -4,-133 253,-133 253,4 -4,4"/>
<!-- Node0 -->
<g id="node1" class="node">
<title>Node0</title>
<g id="a_node1"><a xlink:href="structnuspell_1_1v3_1_1_affixing___result___base.html" target="_top" xlink:title="nuspell::v3::Affixing\l_Result_Base">
<polygon fill="#ffffff" stroke="#000000" points="0,-49.5 0,-79.5 103,-79.5 103,-49.5 0,-49.5"/>
<text text-anchor="start" x="8" y="-67.5" font-family="Helvetica,sans-Serif" font-size="10.00" fill="#000000">nuspell::v3::Affixing</text>
<text text-anchor="middle" x="51.5" y="-56.5" font-family="Helvetica,sans-Serif" font-size="10.00" fill="#000000">_Result_Base</text>
</a>
</g>
</g>
<!-- Node1 -->
<g id="node2" class="node">
<title>Node1</title>
<g id="a_node2"><a xlink:href="structnuspell_1_1v3_1_1_affixing___result.html" target="_top" xlink:title="nuspell::v3::Affixing\l_Result\&lt; T1, T2 \&gt;">
<polygon fill="#ffffff" stroke="#000000" points="142.5,-98.5 142.5,-128.5 245.5,-128.5 245.5,-98.5 142.5,-98.5"/>
<text text-anchor="start" x="150.5" y="-116.5" font-family="Helvetica,sans-Serif" font-size="10.00" fill="#000000">nuspell::v3::Affixing</text>
<text text-anchor="middle" x="194" y="-105.5" font-family="Helvetica,sans-Serif" font-size="10.00" fill="#000000">_Result&lt; T1, T2 &gt;</text>
</a>
</g>
</g>
<!-- Node0&#45;&gt;Node1 -->
<g id="edge1" class="edge">
<title>Node0&#45;&gt;Node1</title>
<path fill="none" stroke="#191970" d="M104.9801,-82.8896C119.8173,-87.9916 135.7527,-93.4711 149.9823,-98.3641"/>
<polygon fill="#191970" stroke="#191970" points="106.0121,-79.5434 95.4175,-79.6014 103.7359,-86.163 106.0121,-79.5434"/>
</g>
<!-- Node2 -->
<g id="node3" class="node">
<title>Node2</title>
<g id="a_node3"><a xlink:href="structnuspell_1_1v3_1_1_affixing___result_3_01_t1_00_01void_01_4.html" target="_top" xlink:title="nuspell::v3::Affixing\l_Result\&lt; T1, void \&gt;">
<polygon fill="#ffffff" stroke="#000000" points="142,-49.5 142,-79.5 246,-79.5 246,-49.5 142,-49.5"/>
<text text-anchor="start" x="150" y="-67.5" font-family="Helvetica,sans-Serif" font-size="10.00" fill="#000000">nuspell::v3::Affixing</text>
<text text-anchor="middle" x="194" y="-56.5" font-family="Helvetica,sans-Serif" font-size="10.00" fill="#000000">_Result&lt; T1, void &gt;</text>
</a>
</g>
</g>
<!-- Node0&#45;&gt;Node2 -->
<g id="edge2" class="edge">
<title>Node0&#45;&gt;Node2</title>
<path fill="none" stroke="#191970" d="M113.5205,-64.5C123.0046,-64.5 132.7105,-64.5 141.9509,-64.5"/>
<polygon fill="#191970" stroke="#191970" points="113.3489,-61.0001 103.3489,-64.5 113.3488,-68.0001 113.3489,-61.0001"/>
</g>
<!-- Node3 -->
<g id="node4" class="node">
<title>Node3</title>
<g id="a_node4"><a xlink:href="structnuspell_1_1v3_1_1_affixing___result_3_01void_00_01void_01_4.html" target="_top" xlink:title="nuspell::v3::Affixing\l_Result\&lt; void, void \&gt;">
<polygon fill="#ffffff" stroke="#000000" points="139,-.5 139,-30.5 249,-30.5 249,-.5 139,-.5"/>
<text text-anchor="start" x="147" y="-18.5" font-family="Helvetica,sans-Serif" font-size="10.00" fill="#000000">nuspell::v3::Affixing</text>
<text text-anchor="middle" x="194" y="-7.5" font-family="Helvetica,sans-Serif" font-size="10.00" fill="#000000">_Result&lt; void, void &gt;</text>
</a>
</g>
</g>
<!-- Node0&#45;&gt;Node3 -->
<g id="edge3" class="edge">
<title>Node0&#45;&gt;Node3</title>
<path fill="none" stroke="#191970" d="M104.9801,-46.1104C119.8173,-41.0084 135.7527,-35.5289 149.9823,-30.6359"/>
<polygon fill="#191970" stroke="#191970" points="103.7359,-42.837 95.4175,-49.3986 106.0121,-49.4566 103.7359,-42.837"/>
</g>
</g>
</svg>
