<?xml version="1.0" encoding="UTF-8" standalone="no"?>
<!DOCTYPE svg PUBLIC "-//W3C//DTD SVG 1.1//EN"
 "http://www.w3.org/Graphics/SVG/1.1/DTD/svg11.dtd">
<!-- Generated by graphviz version 2.40.1 (20161225.0304)
 -->
<!-- Title: Graphical Class Hierarchy Pages: 1 -->
<svg width="419pt" height="28pt"
 viewBox="0.00 0.00 419.00 28.00" xmlns="http://www.w3.org/2000/svg" xmlns:xlink="http://www.w3.org/1999/xlink">
<g id="graph0" class="graph" transform="scale(1 1) rotate(0) translate(4 24)">
<title>Graphical Class Hierarchy</title>
<polygon fill="#ffffff" stroke="transparent" points="-4,4 -4,-24 415,-24 415,4 -4,4"/>
<!-- Node0 -->
<g id="node1" class="node">
<title>Node0</title>
<g id="a_node1"><a xlink:href="structnuspell_1_1v3_1_1_aff___data.html" target="_top" xlink:title="nuspell::v3::Aff_Data">
<polygon fill="#ffffff" stroke="#000000" points="0,-.5 0,-19.5 109,-19.5 109,-.5 0,-.5"/>
<text text-anchor="middle" x="54.5" y="-7.5" font-family="Helvetica,sans-Serif" font-size="10.00" fill="#000000">nuspell::v3::Aff_Data</text>
</a>
</g>
</g>
<!-- Node1 -->
<g id="node2" class="node">
<title>Node1</title>
<g id="a_node2"><a xlink:href="structnuspell_1_1v3_1_1_dict___base.html" target="_top" xlink:title="nuspell::v3::Dict_Base">
<polygon fill="#ffffff" stroke="#000000" points="145,-.5 145,-19.5 261,-19.5 261,-.5 145,-.5"/>
<text text-anchor="middle" x="203" y="-7.5" font-family="Helvetica,sans-Serif" font-size="10.00" fill="#000000">nuspell::v3::Dict_Base</text>
</a>
</g>
</g>
<!-- Node0&#45;&gt;Node1 -->
<g id="edge1" class="edge">
<title>Node0&#45;&gt;Node1</title>
<path fill="none" stroke="#191970" d="M119.544,-10C127.9714,-10 136.5594,-10 144.8648,-10"/>
<polygon fill="#191970" stroke="#191970" points="119.374,-6.5001 109.374,-10 119.374,-13.5001 119.374,-6.5001"/>
</g>
<!-- Node2 -->
<g id="node3" class="node">
<title>Node2</title>
<g id="a_node3"><a xlink:href="classnuspell_1_1v3_1_1_dictionary.html" target="_top" xlink:title="The only important public class. ">
<polygon fill="#ffffff" stroke="#000000" points="297,-.5 297,-19.5 411,-19.5 411,-.5 297,-.5"/>
<text text-anchor="middle" x="354" y="-7.5" font-family="Helvetica,sans-Serif" font-size="10.00" fill="#000000">nuspell::v3::Dictionary</text>
</a>
</g>
</g>
<!-- Node1&#45;&gt;Node2 -->
<g id="edge2" class="edge">
<title>Node1&#45;&gt;Node2</title>
<path fill="none" stroke="#8b1a1a" d="M271.5708,-10C279.9955,-10 288.5363,-10 296.7687,-10"/>
<polygon fill="#8b1a1a" stroke="#8b1a1a" points="271.3806,-6.5001 261.3805,-10 271.3805,-13.5001 271.3806,-6.5001"/>
</g>
</g>
</svg>
