<?xml version="1.0" encoding="UTF-8" standalone="no"?>
<!DOCTYPE svg PUBLIC "-//W3C//DTD SVG 1.1//EN"
 "http://www.w3.org/Graphics/SVG/1.1/DTD/svg11.dtd">
<!-- Generated by graphviz version 2.43.0 (0)
 -->
<!-- Title: Graphical Class Hierarchy Pages: 1 -->
<svg width="274pt" height="88pt"
 viewBox="0.00 0.00 274.00 88.00" xmlns="http://www.w3.org/2000/svg" xmlns:xlink="http://www.w3.org/1999/xlink">
<g id="graph0" class="graph" transform="scale(1 1) rotate(0) translate(4 84)">
<title>Graphical Class Hierarchy</title>
<polygon fill="white" stroke="transparent" points="-4,4 -4,-84 270,-84 270,4 -4,4"/>
<!-- Node61 -->
<g id="node1" class="node">
<title>Node61</title>
<g id="a_node1"><a xlink:title=" ">
<polygon fill="white" stroke="#bfbfbf" points="0,-30 0,-49 104,-49 104,-30 0,-30"/>
<text text-anchor="middle" x="52" y="-37" font-family="Helvetica,sans-Serif" font-size="10.00">std::runtime_error</text>
</a>
</g>
</g>
<!-- Node0 -->
<g id="node2" class="node">
<title>Node0</title>
<g id="a_node2"><a xlink:href="structnuspell_1_1v5_1_1_condition___exception.html" target="_top" xlink:title=" ">
<polygon fill="white" stroke="black" points="142,-49.5 142,-79.5 264,-79.5 264,-49.5 142,-49.5"/>
<text text-anchor="start" x="150" y="-67.5" font-family="Helvetica,sans-Serif" font-size="10.00">nuspell::v5::Condition</text>
<text text-anchor="middle" x="203" y="-56.5" font-family="Helvetica,sans-Serif" font-size="10.00">_Exception</text>
</a>
</g>
</g>
<!-- Node61&#45;&gt;Node0 -->
<g id="edge1" class="edge">
<title>Node61&#45;&gt;Node0</title>
<path fill="none" stroke="midnightblue" d="M114.4,-49.8C123.49,-51.33 132.84,-52.9 141.91,-54.42"/>
<polygon fill="midnightblue" stroke="midnightblue" points="114.72,-46.31 104.28,-48.1 113.56,-53.21 114.72,-46.31"/>
</g>
<!-- Node63 -->
<g id="node3" class="node">
<title>Node63</title>
<g id="a_node3"><a xlink:href="classnuspell_1_1v5_1_1_dictionary___loading___error.html" target="_top" xlink:title="The only important public exception.">
<polygon fill="white" stroke="black" points="140,-0.5 140,-30.5 266,-30.5 266,-0.5 140,-0.5"/>
<text text-anchor="start" x="148" y="-18.5" font-family="Helvetica,sans-Serif" font-size="10.00">nuspell::v5::Dictionary</text>
<text text-anchor="middle" x="203" y="-7.5" font-family="Helvetica,sans-Serif" font-size="10.00">_Loading_Error</text>
</a>
</g>
</g>
<!-- Node61&#45;&gt;Node63 -->
<g id="edge2" class="edge">
<title>Node61&#45;&gt;Node63</title>
<path fill="none" stroke="midnightblue" d="M114.38,-29.61C122.78,-28.26 131.41,-26.87 139.82,-25.52"/>
<polygon fill="midnightblue" stroke="midnightblue" points="113.59,-26.19 104.28,-31.24 114.71,-33.11 113.59,-26.19"/>
</g>
</g>
</svg>
