<?xml version="1.0" encoding="UTF-8" standalone="no"?>
<!DOCTYPE svg PUBLIC "-//W3C//DTD SVG 1.1//EN"
 "http://www.w3.org/Graphics/SVG/1.1/DTD/svg11.dtd">
<!-- Generated by graphviz version 2.43.0 (0)
 -->
<!-- Title: Graphical Class Hierarchy Pages: 1 -->
<svg width="328pt" height="137pt"
 viewBox="0.00 0.00 328.00 137.00" xmlns="http://www.w3.org/2000/svg" xmlns:xlink="http://www.w3.org/1999/xlink">
<g id="graph0" class="graph" transform="scale(1 1) rotate(0) translate(4 133)">
<title>Graphical Class Hierarchy</title>
<polygon fill="white" stroke="transparent" points="-4,4 -4,-133 324,-133 324,4 -4,4"/>
<!-- Node0 -->
<g id="node1" class="node">
<title>Node0</title>
<g id="a_node1"><a xlink:href="structnuspell_1_1v5_1_1_affixing___result___base.html" target="_top" xlink:title=" ">
<polygon fill="white" stroke="black" points="0,-77 0,-96 161,-96 161,-77 0,-77"/>
<text text-anchor="middle" x="80.5" y="-84" font-family="Helvetica,sans-Serif" font-size="10.00">nuspell::Affixing_Result_Base</text>
</a>
</g>
</g>
<!-- Node1 -->
<g id="node2" class="node">
<title>Node1</title>
<g id="a_node2"><a xlink:href="structnuspell_1_1v5_1_1_affixing___result.html" target="_top" xlink:title=" ">
<polygon fill="white" stroke="black" points="202,-98.5 202,-128.5 315,-128.5 315,-98.5 202,-98.5"/>
<text text-anchor="start" x="210" y="-116.5" font-family="Helvetica,sans-Serif" font-size="10.00">nuspell::v5::Affixing</text>
<text text-anchor="middle" x="258.5" y="-105.5" font-family="Helvetica,sans-Serif" font-size="10.00">_Result&lt; T1, T2 &gt;</text>
</a>
</g>
</g>
<!-- Node0&#45;&gt;Node1 -->
<g id="edge1" class="edge">
<title>Node0&#45;&gt;Node1</title>
<path fill="none" stroke="midnightblue" d="M153.49,-97.54C169.63,-100.02 186.51,-102.61 201.87,-104.97"/>
<polygon fill="midnightblue" stroke="midnightblue" points="153.97,-94.08 143.55,-96.02 152.9,-101 153.97,-94.08"/>
</g>
<!-- Node2 -->
<g id="node3" class="node">
<title>Node2</title>
<g id="a_node3"><a xlink:href="structnuspell_1_1v5_1_1_affixing___result_3_01_t1_00_01void_01_4.html" target="_top" xlink:title=" ">
<polygon fill="white" stroke="black" points="201.5,-49.5 201.5,-79.5 315.5,-79.5 315.5,-49.5 201.5,-49.5"/>
<text text-anchor="start" x="209.5" y="-67.5" font-family="Helvetica,sans-Serif" font-size="10.00">nuspell::v5::Affixing</text>
<text text-anchor="middle" x="258.5" y="-56.5" font-family="Helvetica,sans-Serif" font-size="10.00">_Result&lt; T1, void &gt;</text>
</a>
</g>
</g>
<!-- Node0&#45;&gt;Node2 -->
<g id="edge2" class="edge">
<title>Node0&#45;&gt;Node2</title>
<path fill="none" stroke="midnightblue" d="M167.7,-75.73C179.14,-74.29 190.63,-72.86 201.38,-71.52"/>
<polygon fill="midnightblue" stroke="midnightblue" points="167.16,-72.27 157.67,-76.98 168.03,-79.21 167.16,-72.27"/>
</g>
<!-- Node3 -->
<g id="node4" class="node">
<title>Node3</title>
<g id="a_node4"><a xlink:href="structnuspell_1_1v5_1_1_affixing___result_3_01void_00_01void_01_4.html" target="_top" xlink:title=" ">
<polygon fill="white" stroke="black" points="197,-0.5 197,-30.5 320,-30.5 320,-0.5 197,-0.5"/>
<text text-anchor="start" x="205" y="-18.5" font-family="Helvetica,sans-Serif" font-size="10.00">nuspell::v5::Affixing</text>
<text text-anchor="middle" x="258.5" y="-7.5" font-family="Helvetica,sans-Serif" font-size="10.00">_Result&lt; void, void &gt;</text>
</a>
</g>
</g>
<!-- Node0&#45;&gt;Node3 -->
<g id="edge3" class="edge">
<title>Node0&#45;&gt;Node3</title>
<path fill="none" stroke="midnightblue" d="M141.86,-74.04C148.45,-71.88 154.96,-69.38 161,-66.5 179.05,-57.89 179.55,-49.27 197,-39.5 202.72,-36.3 208.95,-33.31 215.17,-30.61"/>
<polygon fill="midnightblue" stroke="midnightblue" points="140.74,-70.72 132.18,-76.96 142.76,-77.42 140.74,-70.72"/>
</g>
<!-- Node10 -->
<g id="node5" class="node">
<title>Node10</title>
<g id="a_node5"><a xlink:href="structnuspell_1_1v5_1_1_affixing___result___base.html" target="_top" xlink:title=" ">
<polygon fill="white" stroke="black" points="24,-27.5 24,-57.5 137,-57.5 137,-27.5 24,-27.5"/>
<text text-anchor="start" x="32" y="-45.5" font-family="Helvetica,sans-Serif" font-size="10.00">nuspell::v5::Affixing</text>
<text text-anchor="middle" x="80.5" y="-34.5" font-family="Helvetica,sans-Serif" font-size="10.00">_Result_Base</text>
</a>
</g>
</g>
<!-- Node10&#45;&gt;Node1 -->
<g id="edge4" class="edge">
<title>Node10&#45;&gt;Node1</title>
<path fill="none" stroke="midnightblue" d="M145.32,-61.04C150.69,-63.06 155.98,-65.22 161,-67.5 178.07,-75.26 180.22,-81.12 197,-89.5 203.27,-92.63 210.05,-95.65 216.73,-98.43"/>
<polygon fill="midnightblue" stroke="midnightblue" points="146.22,-57.64 135.62,-57.56 143.85,-64.23 146.22,-57.64"/>
</g>
<!-- Node10&#45;&gt;Node2 -->
<g id="edge5" class="edge">
<title>Node10&#45;&gt;Node2</title>
<path fill="none" stroke="midnightblue" d="M147.44,-50.74C165.15,-52.96 184.14,-55.33 201.27,-57.47"/>
<polygon fill="midnightblue" stroke="midnightblue" points="147.54,-47.23 137.19,-49.46 146.68,-54.17 147.54,-47.23"/>
</g>
<!-- Node10&#45;&gt;Node3 -->
<g id="edge6" class="edge">
<title>Node10&#45;&gt;Node3</title>
<path fill="none" stroke="midnightblue" d="M147.19,-32.42C163.51,-29.92 180.93,-27.25 196.99,-24.78"/>
<polygon fill="midnightblue" stroke="midnightblue" points="146.54,-28.98 137.19,-33.96 147.6,-35.9 146.54,-28.98"/>
</g>
</g>
</svg>
