<?xml version="1.0" encoding="UTF-8" standalone="no"?>
<!DOCTYPE svg PUBLIC "-//W3C//DTD SVG 1.1//EN"
 "http://www.w3.org/Graphics/SVG/1.1/DTD/svg11.dtd">
<!-- Generated by graphviz version 2.43.0 (0)
 -->
<!-- Title: Graphical Class Hierarchy Pages: 1 -->
<svg width="600pt" height="66pt"
 viewBox="0.00 0.00 600.00 66.00" xmlns="http://www.w3.org/2000/svg" xmlns:xlink="http://www.w3.org/1999/xlink">
<g id="graph0" class="graph" transform="scale(1 1) rotate(0) translate(4 62)">
<title>Graphical Class Hierarchy</title>
<polygon fill="white" stroke="transparent" points="-4,4 -4,-62 596,-62 596,4 -4,4"/>
<!-- Node93 -->
<g id="node1" class="node">
<title>Node93</title>
<g id="a_node1"><a xlink:href="structnuspell_1_1v5_1_1_aff___data.html" target="_top" xlink:title=" ">
<polygon fill="white" stroke="black" points="0,-38.5 0,-57.5 118,-57.5 118,-38.5 0,-38.5"/>
<text text-anchor="middle" x="59" y="-45.5" font-family="Helvetica,sans-Serif" font-size="10.00">nuspell::v5::Aff_Data</text>
</a>
</g>
</g>
<!-- Node1 -->
<g id="node2" class="node">
<title>Node1</title>
<g id="a_node2"><a xlink:href="structnuspell_1_1v5_1_1_checker.html" target="_top" xlink:title=" ">
<polygon fill="white" stroke="black" points="154,-19.5 154,-38.5 269,-38.5 269,-19.5 154,-19.5"/>
<text text-anchor="middle" x="211.5" y="-26.5" font-family="Helvetica,sans-Serif" font-size="10.00">nuspell::v5::Checker</text>
</a>
</g>
</g>
<!-- Node93&#45;&gt;Node1 -->
<g id="edge1" class="edge">
<title>Node93&#45;&gt;Node1</title>
<path fill="none" stroke="midnightblue" d="M128.21,-39.39C136.82,-38.3 145.55,-37.2 153.95,-36.14"/>
<polygon fill="midnightblue" stroke="midnightblue" points="127.67,-35.93 118.19,-40.65 128.55,-42.87 127.67,-35.93"/>
</g>
<!-- Node2 -->
<g id="node3" class="node">
<title>Node2</title>
<g id="a_node3"><a xlink:href="structnuspell_1_1v5_1_1_suggester.html" target="_top" xlink:title=" ">
<polygon fill="white" stroke="black" points="305,-19.5 305,-38.5 430,-38.5 430,-19.5 305,-19.5"/>
<text text-anchor="middle" x="367.5" y="-26.5" font-family="Helvetica,sans-Serif" font-size="10.00">nuspell::v5::Suggester</text>
</a>
</g>
</g>
<!-- Node1&#45;&gt;Node2 -->
<g id="edge2" class="edge">
<title>Node1&#45;&gt;Node2</title>
<path fill="none" stroke="midnightblue" d="M279.57,-29C288,-29 296.58,-29 304.91,-29"/>
<polygon fill="midnightblue" stroke="midnightblue" points="279.41,-25.5 269.41,-29 279.41,-32.5 279.41,-25.5"/>
</g>
<!-- Node3 -->
<g id="node4" class="node">
<title>Node3</title>
<g id="a_node4"><a xlink:href="classnuspell_1_1v5_1_1_dictionary.html" target="_top" xlink:title="The only important public class.">
<polygon fill="white" stroke="black" points="466,-19.5 466,-38.5 592,-38.5 592,-19.5 466,-19.5"/>
<text text-anchor="middle" x="529" y="-26.5" font-family="Helvetica,sans-Serif" font-size="10.00">nuspell::v5::Dictionary</text>
</a>
</g>
</g>
<!-- Node2&#45;&gt;Node3 -->
<g id="edge3" class="edge">
<title>Node2&#45;&gt;Node3</title>
<path fill="none" stroke="#8b1a1a" d="M440.19,-29C448.79,-29 457.52,-29 465.97,-29"/>
<polygon fill="#8b1a1a" stroke="#8b1a1a" points="440.17,-25.5 430.17,-29 440.17,-32.5 440.17,-25.5"/>
</g>
<!-- Node0 -->
<g id="node5" class="node">
<title>Node0</title>
<g id="a_node5"><a xlink:href="structnuspell_1_1v5_1_1_aff___data.html" target="_top" xlink:title=" ">
<polygon fill="white" stroke="black" points="0,-0.5 0,-19.5 118,-19.5 118,-0.5 0,-0.5"/>
<text text-anchor="middle" x="59" y="-7.5" font-family="Helvetica,sans-Serif" font-size="10.00">nuspell::v5::Aff_Data</text>
</a>
</g>
</g>
<!-- Node0&#45;&gt;Node1 -->
<g id="edge4" class="edge">
<title>Node0&#45;&gt;Node1</title>
<path fill="none" stroke="midnightblue" d="M128.21,-18.61C136.82,-19.7 145.55,-20.8 153.95,-21.86"/>
<polygon fill="midnightblue" stroke="midnightblue" points="128.55,-15.13 118.19,-17.35 127.67,-22.07 128.55,-15.13"/>
</g>
</g>
</svg>
