<?xml version="1.0" encoding="UTF-8" standalone="no"?>
<!DOCTYPE svg PUBLIC "-//W3C//DTD SVG 1.1//EN"
 "http://www.w3.org/Graphics/SVG/1.1/DTD/svg11.dtd">
<!-- Generated by graphviz version 2.43.0 (0)
 -->
<!-- Title: Graphical Class Hierarchy Pages: 1 -->
<svg width="256pt" height="88pt"
 viewBox="0.00 0.00 256.00 88.00" xmlns="http://www.w3.org/2000/svg" xmlns:xlink="http://www.w3.org/1999/xlink">
<g id="graph0" class="graph" transform="scale(1 1) rotate(0) translate(4 84)">
<title>Graphical Class Hierarchy</title>
<polygon fill="white" stroke="transparent" points="-4,4 -4,-84 252,-84 252,4 -4,4"/>
<!-- Node36 -->
<g id="node1" class="node">
<title>Node36</title>
<g id="a_node1"><a xlink:title=" ">
<polygon fill="white" stroke="#bfbfbf" points="0,-30 0,-49 104,-49 104,-30 0,-30"/>
<text text-anchor="middle" x="52" y="-37" font-family="Helvetica,sans-Serif" font-size="10.00">std::runtime_error</text>
</a>
</g>
</g>
<!-- Node0 -->
<g id="node2" class="node">
<title>Node0</title>
<g id="a_node2"><a xlink:href="structnuspell_1_1_condition___exception.html" target="_top" xlink:title=" ">
<polygon fill="white" stroke="black" points="142,-49.5 142,-79.5 246,-79.5 246,-49.5 142,-49.5"/>
<text text-anchor="start" x="150" y="-67.5" font-family="Helvetica,sans-Serif" font-size="10.00">nuspell::Condition</text>
<text text-anchor="middle" x="194" y="-56.5" font-family="Helvetica,sans-Serif" font-size="10.00">_Exception</text>
</a>
</g>
</g>
<!-- Node36&#45;&gt;Node0 -->
<g id="edge1" class="edge">
<title>Node36&#45;&gt;Node0</title>
<path fill="none" stroke="midnightblue" d="M114.47,-50.48C123.55,-52.1 132.83,-53.75 141.67,-55.33"/>
<polygon fill="midnightblue" stroke="midnightblue" points="114.8,-46.98 104.34,-48.67 113.56,-53.87 114.8,-46.98"/>
</g>
<!-- Node38 -->
<g id="node3" class="node">
<title>Node38</title>
<g id="a_node3"><a xlink:href="classnuspell_1_1_dictionary___loading___error.html" target="_top" xlink:title="The only important public exception.">
<polygon fill="white" stroke="black" points="140,-0.5 140,-30.5 248,-30.5 248,-0.5 140,-0.5"/>
<text text-anchor="start" x="148" y="-18.5" font-family="Helvetica,sans-Serif" font-size="10.00">nuspell::Dictionary</text>
<text text-anchor="middle" x="194" y="-7.5" font-family="Helvetica,sans-Serif" font-size="10.00">_Loading_Error</text>
</a>
</g>
</g>
<!-- Node36&#45;&gt;Node38 -->
<g id="edge2" class="edge">
<title>Node36&#45;&gt;Node38</title>
<path fill="none" stroke="midnightblue" d="M114.22,-29C122.74,-27.54 131.44,-26.05 139.79,-24.62"/>
<polygon fill="midnightblue" stroke="midnightblue" points="113.6,-25.56 104.34,-30.7 114.78,-32.46 113.6,-25.56"/>
</g>
</g>
</svg>
