<?xml version="1.0" encoding="UTF-8" standalone="no"?>
<!DOCTYPE svg PUBLIC "-//W3C//DTD SVG 1.1//EN"
 "http://www.w3.org/Graphics/SVG/1.1/DTD/svg11.dtd">
<!-- Generated by graphviz version 2.40.1 (20161225.0304)
 -->
<!-- Title: Graphical Class Hierarchy Pages: 1 -->
<svg width="278pt" height="225pt"
 viewBox="0.00 0.00 278.00 224.50" xmlns="http://www.w3.org/2000/svg" xmlns:xlink="http://www.w3.org/1999/xlink">
<g id="graph0" class="graph" transform="scale(1 1) rotate(0) translate(4 220.5)">
<title>Graphical Class Hierarchy</title>
<polygon fill="#ffffff" stroke="transparent" points="-4,4 -4,-220.5 274,-220.5 274,4 -4,4"/>
<!-- Node0 -->
<g id="node1" class="node">
<title>Node0</title>
<g id="a_node1"><a xlink:href="classnuspell_1_1_hash___multiset.html" target="_top" xlink:title="nuspell::Hash_Multiset\l\&lt; Value, Key, KeyExtract,\l Hash, KeyEqual \&gt;">
<polygon fill="#ffffff" stroke="#000000" points="0,-82.5 0,-123.5 131,-123.5 131,-82.5 0,-82.5"/>
<text text-anchor="start" x="8" y="-111.5" font-family="Helvetica,sans-Serif" font-size="10.00" fill="#000000">nuspell::Hash_Multiset</text>
<text text-anchor="start" x="8" y="-100.5" font-family="Helvetica,sans-Serif" font-size="10.00" fill="#000000">&lt; Value, Key, KeyExtract,</text>
<text text-anchor="middle" x="65.5" y="-89.5" font-family="Helvetica,sans-Serif" font-size="10.00" fill="#000000"> Hash, KeyEqual &gt;</text>
</a>
</g>
</g>
<!-- Node1 -->
<g id="node2" class="node">
<title>Node1</title>
<g id="a_node2"><a xlink:href="classnuspell_1_1_affix___table.html" target="_top" xlink:title="nuspell::Affix_Table\l\&lt; char \&gt;">
<polygon fill="#ffffff" stroke="#000000" points="167,-186 167,-216 270,-216 270,-186 167,-186"/>
<text text-anchor="start" x="175" y="-204" font-family="Helvetica,sans-Serif" font-size="10.00" fill="#000000">nuspell::Affix_Table</text>
<text text-anchor="middle" x="218.5" y="-193" font-family="Helvetica,sans-Serif" font-size="10.00" fill="#000000">&lt; char &gt;</text>
</a>
</g>
</g>
<!-- Node0&#45;&gt;Node1 -->
<g id="edge1" class="edge">
<title>Node0&#45;&gt;Node1</title>
<path fill="none" stroke="#8b1a1a" d="M98.7311,-129.7569C118.0297,-144.6406 143.1701,-162.9404 167,-177 172.2674,-180.1077 178.0041,-183.1179 183.6738,-185.8954"/>
<polygon fill="#8b1a1a" stroke="#8b1a1a" points="100.8787,-126.9933 90.8387,-123.6097 96.5773,-132.5158 100.8787,-126.9933"/>
</g>
<!-- Node2 -->
<g id="node3" class="node">
<title>Node2</title>
<g id="a_node3"><a xlink:href="classnuspell_1_1_affix___table.html" target="_top" xlink:title="nuspell::Affix_Table\l\&lt; CharT \&gt;">
<polygon fill="#ffffff" stroke="#000000" points="167,-137 167,-167 270,-167 270,-137 167,-137"/>
<text text-anchor="start" x="175" y="-155" font-family="Helvetica,sans-Serif" font-size="10.00" fill="#000000">nuspell::Affix_Table</text>
<text text-anchor="middle" x="218.5" y="-144" font-family="Helvetica,sans-Serif" font-size="10.00" fill="#000000">&lt; CharT &gt;</text>
</a>
</g>
</g>
<!-- Node0&#45;&gt;Node2 -->
<g id="edge2" class="edge">
<title>Node0&#45;&gt;Node2</title>
<path fill="none" stroke="#8b1a1a" d="M139.7694,-126.7856C150.5144,-130.2268 161.3182,-133.6869 171.3318,-136.8939"/>
<polygon fill="#8b1a1a" stroke="#8b1a1a" points="140.5334,-123.3552 129.9423,-123.6384 138.3983,-130.0217 140.5334,-123.3552"/>
</g>
<!-- Node3 -->
<g id="node4" class="node">
<title>Node3</title>
<g id="a_node4"><a xlink:href="classnuspell_1_1_affix___table.html" target="_top" xlink:title="nuspell::Affix_Table\l\&lt; wchar_t \&gt;">
<polygon fill="#ffffff" stroke="#000000" points="167,-88 167,-118 270,-118 270,-88 167,-88"/>
<text text-anchor="start" x="175" y="-106" font-family="Helvetica,sans-Serif" font-size="10.00" fill="#000000">nuspell::Affix_Table</text>
<text text-anchor="middle" x="218.5" y="-95" font-family="Helvetica,sans-Serif" font-size="10.00" fill="#000000">&lt; wchar_t &gt;</text>
</a>
</g>
</g>
<!-- Node0&#45;&gt;Node3 -->
<g id="edge3" class="edge">
<title>Node0&#45;&gt;Node3</title>
<path fill="none" stroke="#8b1a1a" d="M141.3079,-103C149.8822,-103 158.468,-103 166.6345,-103"/>
<polygon fill="#8b1a1a" stroke="#8b1a1a" points="141.2737,-99.5001 131.2737,-103 141.2737,-106.5001 141.2737,-99.5001"/>
</g>
<!-- Node4 -->
<g id="node5" class="node">
<title>Node4</title>
<g id="a_node5"><a xlink:href="classnuspell_1_1_affix___table.html" target="_top" xlink:title="nuspell::Affix_Table\l\&lt; CharT, AffixT \&gt;">
<polygon fill="#ffffff" stroke="#000000" points="167,-39 167,-69 270,-69 270,-39 167,-39"/>
<text text-anchor="start" x="175" y="-57" font-family="Helvetica,sans-Serif" font-size="10.00" fill="#000000">nuspell::Affix_Table</text>
<text text-anchor="middle" x="218.5" y="-46" font-family="Helvetica,sans-Serif" font-size="10.00" fill="#000000">&lt; CharT, AffixT &gt;</text>
</a>
</g>
</g>
<!-- Node0&#45;&gt;Node4 -->
<g id="edge4" class="edge">
<title>Node0&#45;&gt;Node4</title>
<path fill="none" stroke="#8b1a1a" d="M139.7694,-79.2144C150.5144,-75.7732 161.3182,-72.3131 171.3318,-69.1061"/>
<polygon fill="#8b1a1a" stroke="#8b1a1a" points="138.3983,-75.9783 129.9423,-82.3616 140.5334,-82.6448 138.3983,-75.9783"/>
</g>
<!-- Node5 -->
<g id="node6" class="node">
<title>Node5</title>
<g id="a_node6"><a xlink:href="classnuspell_1_1_word___list.html" target="_top" xlink:title="Map between words and word_flags. ">
<polygon fill="#ffffff" stroke="#000000" points="169.5,-.5 169.5,-19.5 267.5,-19.5 267.5,-.5 169.5,-.5"/>
<text text-anchor="middle" x="218.5" y="-7.5" font-family="Helvetica,sans-Serif" font-size="10.00" fill="#000000">nuspell::Word_List</text>
</a>
</g>
</g>
<!-- Node0&#45;&gt;Node5 -->
<g id="edge5" class="edge">
<title>Node0&#45;&gt;Node5</title>
<path fill="none" stroke="#191970" d="M98.7002,-75.8405C117.8729,-61.0145 142.9002,-43.0709 167,-30 174.2509,-26.0674 182.4421,-22.5199 190.1235,-19.5426"/>
<polygon fill="#191970" stroke="#191970" points="96.3075,-73.2688 90.5951,-82.1918 100.6251,-78.7787 96.3075,-73.2688"/>
</g>
</g>
</svg>
