<?xml version="1.0" encoding="UTF-8" standalone="no"?>
<!DOCTYPE svg PUBLIC "-//W3C//DTD SVG 1.1//EN"
 "http://www.w3.org/Graphics/SVG/1.1/DTD/svg11.dtd">
<!-- Generated by graphviz version 2.43.0 (0)
 -->
<!-- Title: Graphical Class Hierarchy Pages: 1 -->
<svg width="235pt" height="88pt"
 viewBox="0.00 0.00 235.00 88.00" xmlns="http://www.w3.org/2000/svg" xmlns:xlink="http://www.w3.org/1999/xlink">
<g id="graph0" class="graph" transform="scale(1 1) rotate(0) translate(4 84)">
<title>Graphical Class Hierarchy</title>
<polygon fill="white" stroke="transparent" points="-4,4 -4,-84 231,-84 231,4 -4,4"/>
<!-- Node36 -->
<g id="node1" class="node">
<title>Node36</title>
<g id="a_node1"><a xlink:title=" ">
<polygon fill="white" stroke="#bfbfbf" points="0,-30 0,-49 93,-49 93,-30 0,-30"/>
<text text-anchor="middle" x="46.5" y="-37" font-family="Helvetica,sans-Serif" font-size="10.00">std::runtime_error</text>
</a>
</g>
</g>
<!-- Node0 -->
<g id="node2" class="node">
<title>Node0</title>
<g id="a_node2"><a xlink:href="structnuspell_1_1_condition___exception.html" target="_top" xlink:title=" ">
<polygon fill="white" stroke="black" points="130.5,-49.5 130.5,-79.5 225.5,-79.5 225.5,-49.5 130.5,-49.5"/>
<text text-anchor="start" x="138.5" y="-67.5" font-family="Helvetica,sans-Serif" font-size="10.00">nuspell::Condition</text>
<text text-anchor="middle" x="178" y="-56.5" font-family="Helvetica,sans-Serif" font-size="10.00">_Exception</text>
</a>
</g>
</g>
<!-- Node36&#45;&gt;Node0 -->
<g id="edge1" class="edge">
<title>Node36&#45;&gt;Node0</title>
<path fill="none" stroke="midnightblue" d="M103.25,-50.26C112.32,-52.01 121.63,-53.81 130.44,-55.51"/>
<polygon fill="midnightblue" stroke="midnightblue" points="103.64,-46.77 93.16,-48.31 102.31,-53.65 103.64,-46.77"/>
</g>
<!-- Node38 -->
<g id="node3" class="node">
<title>Node38</title>
<g id="a_node3"><a xlink:href="classnuspell_1_1_dictionary___loading___error.html" target="_top" xlink:title="The only important public exception.">
<polygon fill="white" stroke="black" points="129,-0.5 129,-30.5 227,-30.5 227,-0.5 129,-0.5"/>
<text text-anchor="start" x="137" y="-18.5" font-family="Helvetica,sans-Serif" font-size="10.00">nuspell::Dictionary</text>
<text text-anchor="middle" x="178" y="-7.5" font-family="Helvetica,sans-Serif" font-size="10.00">_Loading_Error</text>
</a>
</g>
</g>
<!-- Node36&#45;&gt;Node38 -->
<g id="edge2" class="edge">
<title>Node36&#45;&gt;Node38</title>
<path fill="none" stroke="midnightblue" d="M103.04,-29.21C111.57,-27.63 120.32,-26 128.68,-24.45"/>
<polygon fill="midnightblue" stroke="midnightblue" points="102.35,-25.77 93.16,-31.04 103.63,-32.66 102.35,-25.77"/>
</g>
</g>
</svg>
