<?xml version="1.0" encoding="UTF-8" standalone="no"?>
<!DOCTYPE svg PUBLIC "-//W3C//DTD SVG 1.1//EN"
 "http://www.w3.org/Graphics/SVG/1.1/DTD/svg11.dtd">
<!-- Generated by graphviz version 2.40.1 (20161225.0304)
 -->
<!-- Title: src/nuspell/locale_utils.cxx Pages: 1 -->
<svg width="777pt" height="162pt"
 viewBox="0.00 0.00 777.00 162.00" xmlns="http://www.w3.org/2000/svg" xmlns:xlink="http://www.w3.org/1999/xlink">
<g id="graph0" class="graph" transform="scale(1 1) rotate(0) translate(4 158)">
<title>src/nuspell/locale_utils.cxx</title>
<polygon fill="#ffffff" stroke="transparent" points="-4,4 -4,-158 773,-158 773,4 -4,4"/>
<!-- Node0 -->
<g id="node1" class="node">
<title>Node0</title>
<polygon fill="#bfbfbf" stroke="#000000" points="310,-123.5 310,-153.5 402,-153.5 402,-123.5 310,-123.5"/>
<text text-anchor="start" x="318" y="-141.5" font-family="Helvetica,sans-Serif" font-size="10.00" fill="#000000">src/nuspell/locale</text>
<text text-anchor="middle" x="356" y="-130.5" font-family="Helvetica,sans-Serif" font-size="10.00" fill="#000000">_utils.cxx</text>
</g>
<!-- Node1 -->
<g id="node2" class="node">
<title>Node1</title>
<g id="a_node2"><a xlink:href="locale__utils_8hxx.html" target="_top" xlink:title="Encoding transformations. ">
<polygon fill="#ffffff" stroke="#000000" points="9,-62 9,-81 93,-81 93,-62 9,-62"/>
<text text-anchor="middle" x="51" y="-69" font-family="Helvetica,sans-Serif" font-size="10.00" fill="#000000">locale_utils.hxx</text>
</a>
</g>
</g>
<!-- Node0&#45;&gt;Node1 -->
<g id="edge1" class="edge">
<title>Node0&#45;&gt;Node1</title>
<path fill="none" stroke="#191970" d="M309.8176,-130.4998C258.6885,-121.3268 173.9778,-105.191 102,-87 98.222,-86.0452 94.3069,-84.9851 90.4022,-83.8802"/>
<polygon fill="#191970" stroke="#191970" points="91.3813,-80.52 80.8011,-81.0759 89.4187,-87.2393 91.3813,-80.52"/>
</g>
<!-- Node4 -->
<g id="node5" class="node">
<title>Node4</title>
<polygon fill="#ffffff" stroke="#bfbfbf" points="111,-62 111,-81 167,-81 167,-62 111,-62"/>
<text text-anchor="middle" x="139" y="-69" font-family="Helvetica,sans-Serif" font-size="10.00" fill="#000000">algorithm</text>
</g>
<!-- Node0&#45;&gt;Node4 -->
<g id="edge4" class="edge">
<title>Node0&#45;&gt;Node4</title>
<path fill="none" stroke="#191970" d="M309.6601,-126.8544C273.0251,-117.2621 220.7756,-102.7224 176,-87 174.1272,-86.3424 172.2128,-85.6391 170.2894,-84.9085"/>
<polygon fill="#191970" stroke="#191970" points="171.3318,-81.5564 160.7463,-81.112 168.7442,-88.0606 171.3318,-81.5564"/>
</g>
<!-- Node5 -->
<g id="node6" class="node">
<title>Node5</title>
<polygon fill="#ffffff" stroke="#bfbfbf" points="185,-62 185,-81 225,-81 225,-62 185,-62"/>
<text text-anchor="middle" x="205" y="-69" font-family="Helvetica,sans-Serif" font-size="10.00" fill="#000000">limits</text>
</g>
<!-- Node0&#45;&gt;Node5 -->
<g id="edge5" class="edge">
<title>Node0&#45;&gt;Node5</title>
<path fill="none" stroke="#191970" d="M317.958,-123.4869C293.6883,-113.653 261.7011,-100.2157 234,-87 233.166,-86.6021 232.3214,-86.1925 231.4711,-85.7744"/>
<polygon fill="#191970" stroke="#191970" points="232.8464,-82.5465 222.3501,-81.1052 229.6566,-88.7775 232.8464,-82.5465"/>
</g>
<!-- Node6 -->
<g id="node7" class="node">
<title>Node6</title>
<polygon fill="#ffffff" stroke="#bfbfbf" points="243,-56.5 243,-86.5 353,-86.5 353,-56.5 243,-56.5"/>
<text text-anchor="start" x="251" y="-74.5" font-family="Helvetica,sans-Serif" font-size="10.00" fill="#000000">boost/algorithm/string</text>
<text text-anchor="middle" x="298" y="-63.5" font-family="Helvetica,sans-Serif" font-size="10.00" fill="#000000">/case_conv.hpp</text>
</g>
<!-- Node0&#45;&gt;Node6 -->
<g id="edge6" class="edge">
<title>Node0&#45;&gt;Node6</title>
<path fill="none" stroke="#191970" d="M342.8389,-123.2967C335.4232,-114.7303 326.0143,-103.8614 317.7323,-94.2943"/>
<polygon fill="#191970" stroke="#191970" points="320.3003,-91.913 311.109,-86.6432 315.0078,-96.4946 320.3003,-91.913"/>
</g>
<!-- Node7 -->
<g id="node8" class="node">
<title>Node7</title>
<polygon fill="#ffffff" stroke="#bfbfbf" points="371,-62 371,-81 459,-81 459,-62 371,-62"/>
<text text-anchor="middle" x="415" y="-69" font-family="Helvetica,sans-Serif" font-size="10.00" fill="#000000">boost/locale.hpp</text>
</g>
<!-- Node0&#45;&gt;Node7 -->
<g id="edge7" class="edge">
<title>Node0&#45;&gt;Node7</title>
<path fill="none" stroke="#191970" d="M369.388,-123.2967C378.402,-113.0605 390.3111,-99.5366 399.7,-88.8746"/>
<polygon fill="#191970" stroke="#191970" points="402.6038,-90.873 406.5859,-81.055 397.3504,-86.2468 402.6038,-90.873"/>
</g>
<!-- Node8 -->
<g id="node9" class="node">
<title>Node8</title>
<polygon fill="#ffffff" stroke="#bfbfbf" points="477,-62 477,-81 563,-81 563,-62 477,-62"/>
<text text-anchor="middle" x="520" y="-69" font-family="Helvetica,sans-Serif" font-size="10.00" fill="#000000">unicode/uchar.h</text>
</g>
<!-- Node0&#45;&gt;Node8 -->
<g id="edge8" class="edge">
<title>Node0&#45;&gt;Node8</title>
<path fill="none" stroke="#191970" d="M392.8048,-123.4639C421.0656,-111.9183 459.742,-96.1176 487.0046,-84.9798"/>
<polygon fill="#191970" stroke="#191970" points="488.5583,-88.126 496.4919,-81.1039 485.9109,-81.6459 488.5583,-88.126"/>
</g>
<!-- Node9 -->
<g id="node10" class="node">
<title>Node9</title>
<polygon fill="#ffffff" stroke="#bfbfbf" points="581.5,-62 581.5,-81 664.5,-81 664.5,-62 581.5,-62"/>
<text text-anchor="middle" x="623" y="-69" font-family="Helvetica,sans-Serif" font-size="10.00" fill="#000000">unicode/ucnv.h</text>
</g>
<!-- Node0&#45;&gt;Node9 -->
<g id="edge9" class="edge">
<title>Node0&#45;&gt;Node9</title>
<path fill="none" stroke="#191970" d="M402.1345,-128.3575C446.0086,-118.5098 513.7665,-102.7756 572,-87 575.5589,-86.0359 579.2454,-84.9964 582.9335,-83.9284"/>
<polygon fill="#191970" stroke="#191970" points="584.0162,-87.2582 592.6137,-81.0668 582.0317,-80.5453 584.0162,-87.2582"/>
</g>
<!-- Node10 -->
<g id="node11" class="node">
<title>Node10</title>
<polygon fill="#ffffff" stroke="#bfbfbf" points="683,-62 683,-81 769,-81 769,-62 683,-62"/>
<text text-anchor="middle" x="726" y="-69" font-family="Helvetica,sans-Serif" font-size="10.00" fill="#000000">unicode/unistr.h</text>
</g>
<!-- Node0&#45;&gt;Node10 -->
<g id="edge10" class="edge">
<title>Node0&#45;&gt;Node10</title>
<path fill="none" stroke="#191970" d="M402.1752,-132.9251C464.3767,-124.9833 578.3237,-108.9104 674,-87 678.1322,-86.0537 682.4184,-84.9612 686.6768,-83.803"/>
<polygon fill="#191970" stroke="#191970" points="687.8138,-87.1186 696.4771,-81.0196 685.9012,-80.3849 687.8138,-87.1186"/>
</g>
<!-- Node2 -->
<g id="node3" class="node">
<title>Node2</title>
<polygon fill="#ffffff" stroke="#bfbfbf" points="0,-.5 0,-19.5 42,-19.5 42,-.5 0,-.5"/>
<text text-anchor="middle" x="21" y="-7.5" font-family="Helvetica,sans-Serif" font-size="10.00" fill="#000000">locale</text>
</g>
<!-- Node1&#45;&gt;Node2 -->
<g id="edge2" class="edge">
<title>Node1&#45;&gt;Node2</title>
<path fill="none" stroke="#191970" d="M46.3125,-61.8906C42.0227,-53.0965 35.5518,-39.8312 30.2266,-28.9145"/>
<polygon fill="#191970" stroke="#191970" points="33.2836,-27.1981 25.7536,-19.7449 26.9922,-30.2671 33.2836,-27.1981"/>
</g>
<!-- Node3 -->
<g id="node4" class="node">
<title>Node3</title>
<polygon fill="#ffffff" stroke="#bfbfbf" points="60.5,-.5 60.5,-19.5 101.5,-19.5 101.5,-.5 60.5,-.5"/>
<text text-anchor="middle" x="81" y="-7.5" font-family="Helvetica,sans-Serif" font-size="10.00" fill="#000000">string</text>
</g>
<!-- Node1&#45;&gt;Node3 -->
<g id="edge3" class="edge">
<title>Node1&#45;&gt;Node3</title>
<path fill="none" stroke="#191970" d="M55.6875,-61.8906C59.9773,-53.0965 66.4482,-39.8312 71.7734,-28.9145"/>
<polygon fill="#191970" stroke="#191970" points="75.0078,-30.2671 76.2464,-19.7449 68.7164,-27.1981 75.0078,-30.2671"/>
</g>
</g>
</svg>
