<?xml version="1.0" encoding="UTF-8" standalone="no"?>
<!DOCTYPE svg PUBLIC "-//W3C//DTD SVG 1.1//EN"
 "http://www.w3.org/Graphics/SVG/1.1/DTD/svg11.dtd">
<!-- Generated by graphviz version 2.40.1 (20161225.0304)
 -->
<!-- Title: src/nuspell/locale_utils.hxx Pages: 1 -->
<svg width="110pt" height="95pt"
 viewBox="0.00 0.00 109.50 95.00" xmlns="http://www.w3.org/2000/svg" xmlns:xlink="http://www.w3.org/1999/xlink">
<g id="graph0" class="graph" transform="scale(1 1) rotate(0) translate(4 91)">
<title>src/nuspell/locale_utils.hxx</title>
<polygon fill="#ffffff" stroke="transparent" points="-4,4 -4,-91 105.5,-91 105.5,4 -4,4"/>
<!-- Node0 -->
<g id="node1" class="node">
<title>Node0</title>
<polygon fill="#bfbfbf" stroke="#000000" points="5,-56.5 5,-86.5 97,-86.5 97,-56.5 5,-56.5"/>
<text text-anchor="start" x="13" y="-74.5" font-family="Helvetica,sans-Serif" font-size="10.00" fill="#000000">src/nuspell/locale</text>
<text text-anchor="middle" x="51" y="-63.5" font-family="Helvetica,sans-Serif" font-size="10.00" fill="#000000">_utils.hxx</text>
</g>
<!-- Node1 -->
<g id="node2" class="node">
<title>Node1</title>
<polygon fill="#ffffff" stroke="#bfbfbf" points="0,-.5 0,-19.5 42,-19.5 42,-.5 0,-.5"/>
<text text-anchor="middle" x="21" y="-7.5" font-family="Helvetica,sans-Serif" font-size="10.00" fill="#000000">locale</text>
</g>
<!-- Node0&#45;&gt;Node1 -->
<g id="edge1" class="edge">
<title>Node0&#45;&gt;Node1</title>
<path fill="none" stroke="#191970" d="M43.5843,-56.2977C39.5501,-48.0277 34.5227,-37.7215 30.236,-28.9339"/>
<polygon fill="#191970" stroke="#191970" points="33.3334,-27.3001 25.8034,-19.8469 27.042,-30.3691 33.3334,-27.3001"/>
</g>
<!-- Node2 -->
<g id="node3" class="node">
<title>Node2</title>
<polygon fill="#ffffff" stroke="#bfbfbf" points="60.5,-.5 60.5,-19.5 101.5,-19.5 101.5,-.5 60.5,-.5"/>
<text text-anchor="middle" x="81" y="-7.5" font-family="Helvetica,sans-Serif" font-size="10.00" fill="#000000">string</text>
</g>
<!-- Node0&#45;&gt;Node2 -->
<g id="edge2" class="edge">
<title>Node0&#45;&gt;Node2</title>
<path fill="none" stroke="#191970" d="M58.4157,-56.2977C62.4499,-48.0277 67.4773,-37.7215 71.764,-28.9339"/>
<polygon fill="#191970" stroke="#191970" points="74.958,-30.3691 76.1966,-19.8469 68.6666,-27.3001 74.958,-30.3691"/>
</g>
</g>
</svg>
