<?xml version="1.0" encoding="UTF-8" standalone="no"?>
<!DOCTYPE svg PUBLIC "-//W3C//DTD SVG 1.1//EN"
 "http://www.w3.org/Graphics/SVG/1.1/DTD/svg11.dtd">
<!-- Generated by graphviz version 2.40.1 (20161225.0304)
 -->
<!-- Title: src/nuspell/locale_utils.hxx Pages: 1 -->
<svg width="320pt" height="106pt"
 viewBox="0.00 0.00 319.50 106.00" xmlns="http://www.w3.org/2000/svg" xmlns:xlink="http://www.w3.org/1999/xlink">
<g id="graph0" class="graph" transform="scale(1 1) rotate(0) translate(4 102)">
<title>src/nuspell/locale_utils.hxx</title>
<polygon fill="#ffffff" stroke="transparent" points="-4,4 -4,-102 315.5,-102 315.5,4 -4,4"/>
<!-- Node0 -->
<g id="node1" class="node">
<title>Node0</title>
<polygon fill="#bfbfbf" stroke="#000000" points="70,-67.5 70,-97.5 162,-97.5 162,-67.5 70,-67.5"/>
<text text-anchor="start" x="78" y="-85.5" font-family="Helvetica,sans-Serif" font-size="10.00" fill="#000000">src/nuspell/locale</text>
<text text-anchor="middle" x="116" y="-74.5" font-family="Helvetica,sans-Serif" font-size="10.00" fill="#000000">_utils.hxx</text>
</g>
<!-- Node1 -->
<g id="node2" class="node">
<title>Node1</title>
<polygon fill="#ffffff" stroke="#bfbfbf" points="0,-6 0,-25 42,-25 42,-6 0,-6"/>
<text text-anchor="middle" x="21" y="-13" font-family="Helvetica,sans-Serif" font-size="10.00" fill="#000000">locale</text>
</g>
<!-- Node0&#45;&gt;Node1 -->
<g id="edge1" class="edge">
<title>Node0&#45;&gt;Node1</title>
<path fill="none" stroke="#191970" d="M94.443,-67.2967C79.0668,-56.4524 58.4586,-41.9182 42.9862,-31.006"/>
<polygon fill="#191970" stroke="#191970" points="44.7374,-27.9582 34.5481,-25.055 40.703,-33.6787 44.7374,-27.9582"/>
</g>
<!-- Node2 -->
<g id="node3" class="node">
<title>Node2</title>
<polygon fill="#ffffff" stroke="#bfbfbf" points="60.5,-6 60.5,-25 101.5,-25 101.5,-6 60.5,-6"/>
<text text-anchor="middle" x="81" y="-13" font-family="Helvetica,sans-Serif" font-size="10.00" fill="#000000">string</text>
</g>
<!-- Node0&#45;&gt;Node2 -->
<g id="edge2" class="edge">
<title>Node0&#45;&gt;Node2</title>
<path fill="none" stroke="#191970" d="M108.058,-67.2967C102.9225,-57.4658 96.2029,-44.6026 90.7449,-34.1545"/>
<polygon fill="#191970" stroke="#191970" points="93.7239,-32.2979 85.9914,-25.055 87.5194,-35.5391 93.7239,-32.2979"/>
</g>
<!-- Node3 -->
<g id="node4" class="node">
<title>Node3</title>
<polygon fill="#ffffff" stroke="#bfbfbf" points="120,-6 120,-25 182,-25 182,-6 120,-6"/>
<text text-anchor="middle" x="151" y="-13" font-family="Helvetica,sans-Serif" font-size="10.00" fill="#000000">type_traits</text>
</g>
<!-- Node0&#45;&gt;Node3 -->
<g id="edge3" class="edge">
<title>Node0&#45;&gt;Node3</title>
<path fill="none" stroke="#191970" d="M123.942,-67.2967C129.0775,-57.4658 135.7971,-44.6026 141.2551,-34.1545"/>
<polygon fill="#191970" stroke="#191970" points="144.4806,-35.5391 146.0086,-25.055 138.2761,-32.2979 144.4806,-35.5391"/>
</g>
<!-- Node4 -->
<g id="node5" class="node">
<title>Node4</title>
<polygon fill="#ffffff" stroke="#bfbfbf" points="200.5,-.5 200.5,-30.5 311.5,-30.5 311.5,-.5 200.5,-.5"/>
<text text-anchor="start" x="208.5" y="-18.5" font-family="Helvetica,sans-Serif" font-size="10.00" fill="#000000">boost/locale/encoding</text>
<text text-anchor="middle" x="256" y="-7.5" font-family="Helvetica,sans-Serif" font-size="10.00" fill="#000000">_utf.hpp</text>
</g>
<!-- Node0&#45;&gt;Node4 -->
<g id="edge4" class="edge">
<title>Node0&#45;&gt;Node4</title>
<path fill="none" stroke="#191970" d="M147.4187,-67.4639C167.363,-57.9191 193.3839,-45.4663 214.9529,-35.144"/>
<polygon fill="#191970" stroke="#191970" points="216.6924,-38.1917 224.2017,-30.7177 213.6706,-31.8775 216.6924,-38.1917"/>
</g>
</g>
</svg>
