<?xml version="1.0" encoding="UTF-8" standalone="no"?>
<!DOCTYPE svg PUBLIC "-//W3C//DTD SVG 1.1//EN"
 "http://www.w3.org/Graphics/SVG/1.1/DTD/svg11.dtd">
<!-- Generated by graphviz version 2.40.1 (20161225.0304)
 -->
<!-- Title: src/nuspell/locale_utils.hxx Pages: 1 -->
<svg width="403pt" height="218pt"
 viewBox="0.00 0.00 402.50 218.00" xmlns="http://www.w3.org/2000/svg" xmlns:xlink="http://www.w3.org/1999/xlink">
<g id="graph0" class="graph" transform="scale(1 1) rotate(0) translate(4 214)">
<title>src/nuspell/locale_utils.hxx</title>
<polygon fill="#ffffff" stroke="transparent" points="-4,4 -4,-214 398.5,-214 398.5,4 -4,4"/>
<!-- Node3 -->
<g id="node1" class="node">
<title>Node3</title>
<polygon fill="#bfbfbf" stroke="#000000" points="130.5,-179.5 130.5,-209.5 222.5,-209.5 222.5,-179.5 130.5,-179.5"/>
<text text-anchor="start" x="138.5" y="-197.5" font-family="Helvetica,sans-Serif" font-size="10.00" fill="#000000">src/nuspell/locale</text>
<text text-anchor="middle" x="176.5" y="-186.5" font-family="Helvetica,sans-Serif" font-size="10.00" fill="#000000">_utils.hxx</text>
</g>
<!-- Node4 -->
<g id="node2" class="node">
<title>Node4</title>
<g id="a_node2"><a xlink:href="aff__data_8hxx.html" target="_top" xlink:title="Affixing data structures. ">
<polygon fill="#ffffff" stroke="#000000" points="72,-118 72,-137 193,-137 193,-118 72,-118"/>
<text text-anchor="middle" x="132.5" y="-125" font-family="Helvetica,sans-Serif" font-size="10.00" fill="#000000">src/nuspell/aff_data.hxx</text>
</a>
</g>
</g>
<!-- Node3&#45;&gt;Node4 -->
<g id="edge1" class="edge">
<title>Node3&#45;&gt;Node4</title>
<path fill="none" stroke="#191970" d="M160.9639,-170.8428C153.3227,-159.2073 144.5398,-145.8334 138.7749,-137.055"/>
<polygon fill="#191970" stroke="#191970" points="158.1008,-172.8592 166.5157,-179.2967 163.9519,-169.0167 158.1008,-172.8592"/>
</g>
<!-- Node5 -->
<g id="node3" class="node">
<title>Node5</title>
<g id="a_node3"><a xlink:href="aff__data_8cxx.html" target="_top" xlink:title="Affixing data structures. ">
<polygon fill="#ffffff" stroke="#000000" points="0,-56.5 0,-75.5 121,-75.5 121,-56.5 0,-56.5"/>
<text text-anchor="middle" x="60.5" y="-63.5" font-family="Helvetica,sans-Serif" font-size="10.00" fill="#000000">src/nuspell/aff_data.cxx</text>
</a>
</g>
</g>
<!-- Node3&#45;&gt;Node5 -->
<g id="edge7" class="edge">
<title>Node3&#45;&gt;Node5</title>
<path fill="none" stroke="#191970" d="M120.8259,-182.9018C98.8848,-175.3481 75.7916,-163.0144 62.5,-143 48.8877,-122.5028 53.8099,-91.692 57.6554,-75.9823"/>
<polygon fill="#191970" stroke="#191970" points="119.8654,-186.2689 130.4555,-185.9507 121.9784,-179.5954 119.8654,-186.2689"/>
</g>
<!-- Node6 -->
<g id="node4" class="node">
<title>Node6</title>
<g id="a_node4"><a xlink:href="dictionary_8hxx.html" target="_top" xlink:title="Dictionary spelling. ">
<polygon fill="#ffffff" stroke="#000000" points="148.5,-56.5 148.5,-75.5 276.5,-75.5 276.5,-56.5 148.5,-56.5"/>
<text text-anchor="middle" x="212.5" y="-63.5" font-family="Helvetica,sans-Serif" font-size="10.00" fill="#000000">src/nuspell/dictionary.hxx</text>
</a>
</g>
</g>
<!-- Node3&#45;&gt;Node6 -->
<g id="edge8" class="edge">
<title>Node3&#45;&gt;Node6</title>
<path fill="none" stroke="#191970" d="M190.1412,-170.3404C194.3754,-161.9166 198.669,-152.2529 201.5,-143 208.6905,-119.4985 211.2167,-90.4949 212.0764,-75.6909"/>
<polygon fill="#191970" stroke="#191970" points="187.0201,-168.7558 185.467,-179.2362 193.2168,-172.0118 187.0201,-168.7558"/>
</g>
<!-- Node10 -->
<g id="node8" class="node">
<title>Node10</title>
<g id="a_node8"><a xlink:href="locale__utils_8cxx.html" target="_top" xlink:title="Encoding transformations. ">
<polygon fill="#ffffff" stroke="#000000" points="249.5,-112.5 249.5,-142.5 341.5,-142.5 341.5,-112.5 249.5,-112.5"/>
<text text-anchor="start" x="257.5" y="-130.5" font-family="Helvetica,sans-Serif" font-size="10.00" fill="#000000">src/nuspell/locale</text>
<text text-anchor="middle" x="295.5" y="-119.5" font-family="Helvetica,sans-Serif" font-size="10.00" fill="#000000">_utils.cxx</text>
</a>
</g>
</g>
<!-- Node3&#45;&gt;Node10 -->
<g id="edge9" class="edge">
<title>Node3&#45;&gt;Node10</title>
<path fill="none" stroke="#191970" d="M212.278,-174.3561C230.3173,-164.1995 251.8354,-152.0843 268.4715,-142.7177"/>
<polygon fill="#191970" stroke="#191970" points="210.2026,-171.5079 203.2059,-179.4639 213.6369,-177.6076 210.2026,-171.5079"/>
</g>
<!-- Node4&#45;&gt;Node5 -->
<g id="edge2" class="edge">
<title>Node4&#45;&gt;Node5</title>
<path fill="none" stroke="#191970" d="M113.6152,-111.3692C100.3723,-100.0576 83.1024,-85.3062 71.9086,-75.7449"/>
<polygon fill="#191970" stroke="#191970" points="111.373,-114.057 121.25,-117.8906 115.9195,-108.7344 111.373,-114.057"/>
</g>
<!-- Node4&#45;&gt;Node6 -->
<g id="edge3" class="edge">
<title>Node4&#45;&gt;Node6</title>
<path fill="none" stroke="#191970" d="M153.119,-111.6491C167.9836,-100.222 187.557,-85.1749 200.0878,-75.5419"/>
<polygon fill="#191970" stroke="#191970" points="150.7949,-109.021 145,-117.8906 155.0613,-114.5707 150.7949,-109.021"/>
</g>
<!-- Node7 -->
<g id="node5" class="node">
<title>Node7</title>
<g id="a_node5"><a xlink:href="dictionary_8cxx.html" target="_top" xlink:title="Dictionary spelling. ">
<polygon fill="#ffffff" stroke="#000000" points="12.5,-.5 12.5,-19.5 140.5,-19.5 140.5,-.5 12.5,-.5"/>
<text text-anchor="middle" x="76.5" y="-7.5" font-family="Helvetica,sans-Serif" font-size="10.00" fill="#000000">src/nuspell/dictionary.cxx</text>
</a>
</g>
</g>
<!-- Node6&#45;&gt;Node7 -->
<g id="edge4" class="edge">
<title>Node6&#45;&gt;Node7</title>
<path fill="none" stroke="#191970" d="M179.7601,-52.5189C154.9917,-42.3201 121.595,-28.5685 99.5742,-19.5011"/>
<polygon fill="#191970" stroke="#191970" points="178.5413,-55.8021 189.1208,-56.3733 181.2066,-49.3293 178.5413,-55.8021"/>
</g>
<!-- Node8 -->
<g id="node6" class="node">
<title>Node8</title>
<g id="a_node6"><a xlink:href="main_8cxx.html" target="_top" xlink:title="Command line spell checking. ">
<polygon fill="#ffffff" stroke="#000000" points="159,-.5 159,-19.5 266,-19.5 266,-.5 159,-.5"/>
<text text-anchor="middle" x="212.5" y="-7.5" font-family="Helvetica,sans-Serif" font-size="10.00" fill="#000000">src/nuspell/main.cxx</text>
</a>
</g>
</g>
<!-- Node6&#45;&gt;Node8 -->
<g id="edge5" class="edge">
<title>Node6&#45;&gt;Node8</title>
<path fill="none" stroke="#191970" d="M212.5,-46.1575C212.5,-37.155 212.5,-26.9199 212.5,-19.6427"/>
<polygon fill="#191970" stroke="#191970" points="209.0001,-46.2455 212.5,-56.2455 216.0001,-46.2456 209.0001,-46.2455"/>
</g>
<!-- Node9 -->
<g id="node7" class="node">
<title>Node9</title>
<g id="a_node7"><a xlink:href="verify_8cxx.html" target="_top" xlink:title="Command line spell check for verification testing. ">
<polygon fill="#ffffff" stroke="#000000" points="284.5,-.5 284.5,-19.5 394.5,-19.5 394.5,-.5 284.5,-.5"/>
<text text-anchor="middle" x="339.5" y="-7.5" font-family="Helvetica,sans-Serif" font-size="10.00" fill="#000000">src/nuspell/verify.cxx</text>
</a>
</g>
</g>
<!-- Node6&#45;&gt;Node9 -->
<g id="edge6" class="edge">
<title>Node6&#45;&gt;Node9</title>
<path fill="none" stroke="#191970" d="M243.6892,-52.2473C266.7537,-42.0771 297.5712,-28.4883 317.9528,-19.5011"/>
<polygon fill="#191970" stroke="#191970" points="242.0699,-49.1361 234.3321,-56.3733 244.8942,-55.5411 242.0699,-49.1361"/>
</g>
</g>
</svg>
