<?xml version="1.0" encoding="UTF-8" standalone="no"?>
<!DOCTYPE svg PUBLIC "-//W3C//DTD SVG 1.1//EN"
 "http://www.w3.org/Graphics/SVG/1.1/DTD/svg11.dtd">
<!-- Generated by graphviz version 2.40.1 (20161225.0304)
 -->
<!-- Title: src/nuspell/locale_utils.hxx Pages: 1 -->
<svg width="403pt" height="106pt"
 viewBox="0.00 0.00 403.00 106.00" xmlns="http://www.w3.org/2000/svg" xmlns:xlink="http://www.w3.org/1999/xlink">
<g id="graph0" class="graph" transform="scale(1 1) rotate(0) translate(4 102)">
<title>src/nuspell/locale_utils.hxx</title>
<polygon fill="#ffffff" stroke="transparent" points="-4,4 -4,-102 399,-102 399,4 -4,4"/>
<!-- Node0 -->
<g id="node1" class="node">
<title>Node0</title>
<polygon fill="#bfbfbf" stroke="#000000" points="97,-67.5 97,-97.5 189,-97.5 189,-67.5 97,-67.5"/>
<text text-anchor="start" x="105" y="-85.5" font-family="Helvetica,sans-Serif" font-size="10.00" fill="#000000">src/nuspell/locale</text>
<text text-anchor="middle" x="143" y="-74.5" font-family="Helvetica,sans-Serif" font-size="10.00" fill="#000000">_utils.hxx</text>
</g>
<!-- Node1 -->
<g id="node2" class="node">
<title>Node1</title>
<polygon fill="#ffffff" stroke="#bfbfbf" points="0,-6 0,-25 42,-25 42,-6 0,-6"/>
<text text-anchor="middle" x="21" y="-13" font-family="Helvetica,sans-Serif" font-size="10.00" fill="#000000">locale</text>
</g>
<!-- Node0&#45;&gt;Node1 -->
<g id="edge1" class="edge">
<title>Node0&#45;&gt;Node1</title>
<path fill="none" stroke="#191970" d="M115.6208,-67.4639C95.243,-56.2728 67.5854,-41.0838 47.4368,-30.0186"/>
<polygon fill="#191970" stroke="#191970" points="48.9377,-26.8498 38.4877,-25.1039 45.5681,-32.9855 48.9377,-26.8498"/>
</g>
<!-- Node2 -->
<g id="node3" class="node">
<title>Node2</title>
<polygon fill="#ffffff" stroke="#bfbfbf" points="60.5,-6 60.5,-25 101.5,-25 101.5,-6 60.5,-6"/>
<text text-anchor="middle" x="81" y="-13" font-family="Helvetica,sans-Serif" font-size="10.00" fill="#000000">string</text>
</g>
<!-- Node0&#45;&gt;Node2 -->
<g id="edge2" class="edge">
<title>Node0&#45;&gt;Node2</title>
<path fill="none" stroke="#191970" d="M128.9312,-67.2967C119.3651,-56.9591 106.6962,-43.2684 96.7857,-32.5588"/>
<polygon fill="#191970" stroke="#191970" points="99.2027,-30.0175 89.8419,-25.055 94.065,-34.7718 99.2027,-30.0175"/>
</g>
<!-- Node3 -->
<g id="node4" class="node">
<title>Node3</title>
<polygon fill="#ffffff" stroke="#bfbfbf" points="119.5,-6 119.5,-25 166.5,-25 166.5,-6 119.5,-6"/>
<text text-anchor="middle" x="143" y="-13" font-family="Helvetica,sans-Serif" font-size="10.00" fill="#000000">clocale</text>
</g>
<!-- Node0&#45;&gt;Node3 -->
<g id="edge3" class="edge">
<title>Node0&#45;&gt;Node3</title>
<path fill="none" stroke="#191970" d="M143,-67.2967C143,-57.7699 143,-45.3954 143,-35.1306"/>
<polygon fill="#191970" stroke="#191970" points="146.5001,-35.0549 143,-25.055 139.5001,-35.055 146.5001,-35.0549"/>
</g>
<!-- Node4 -->
<g id="node5" class="node">
<title>Node4</title>
<polygon fill="#ffffff" stroke="#bfbfbf" points="185,-.5 185,-30.5 295,-30.5 295,-.5 185,-.5"/>
<text text-anchor="start" x="193" y="-18.5" font-family="Helvetica,sans-Serif" font-size="10.00" fill="#000000">boost/container/small</text>
<text text-anchor="middle" x="240" y="-7.5" font-family="Helvetica,sans-Serif" font-size="10.00" fill="#000000">_vector.hpp</text>
</g>
<!-- Node0&#45;&gt;Node4 -->
<g id="edge4" class="edge">
<title>Node0&#45;&gt;Node4</title>
<path fill="none" stroke="#191970" d="M165.0108,-67.2967C178.157,-58.2163 195.0487,-46.5488 209.471,-36.587"/>
<polygon fill="#191970" stroke="#191970" points="211.8374,-39.2063 218.0763,-30.6432 207.8591,-33.4467 211.8374,-39.2063"/>
</g>
<!-- Node5 -->
<g id="node6" class="node">
<title>Node5</title>
<polygon fill="#ffffff" stroke="#bfbfbf" points="313,-6 313,-25 395,-25 395,-6 313,-6"/>
<text text-anchor="middle" x="354" y="-13" font-family="Helvetica,sans-Serif" font-size="10.00" fill="#000000">unicode/locid.h</text>
</g>
<!-- Node0&#45;&gt;Node5 -->
<g id="edge5" class="edge">
<title>Node0&#45;&gt;Node5</title>
<path fill="none" stroke="#191970" d="M189.0441,-67.8794C226.5074,-55.9834 278.822,-39.3717 314.4235,-28.0669"/>
<polygon fill="#191970" stroke="#191970" points="315.5238,-31.3899 323.9955,-25.0275 313.4052,-24.7181 315.5238,-31.3899"/>
</g>
</g>
</svg>
