<?xml version="1.0" encoding="UTF-8" standalone="no"?>
<!DOCTYPE svg PUBLIC "-//W3C//DTD SVG 1.1//EN"
 "http://www.w3.org/Graphics/SVG/1.1/DTD/svg11.dtd">
<!-- Generated by graphviz version 2.40.1 (20161225.0304)
 -->
<!-- Title: src/nuspell/locale_utils.cxx Pages: 1 -->
<svg width="714pt" height="162pt"
 viewBox="0.00 0.00 714.00 162.00" xmlns="http://www.w3.org/2000/svg" xmlns:xlink="http://www.w3.org/1999/xlink">
<g id="graph0" class="graph" transform="scale(1 1) rotate(0) translate(4 158)">
<title>src/nuspell/locale_utils.cxx</title>
<polygon fill="#ffffff" stroke="transparent" points="-4,4 -4,-158 710,-158 710,4 -4,4"/>
<!-- Node0 -->
<g id="node1" class="node">
<title>Node0</title>
<polygon fill="#bfbfbf" stroke="#000000" points="306,-123.5 306,-153.5 398,-153.5 398,-123.5 306,-123.5"/>
<text text-anchor="start" x="314" y="-141.5" font-family="Helvetica,sans-Serif" font-size="10.00" fill="#000000">src/nuspell/locale</text>
<text text-anchor="middle" x="352" y="-130.5" font-family="Helvetica,sans-Serif" font-size="10.00" fill="#000000">_utils.cxx</text>
</g>
<!-- Node1 -->
<g id="node2" class="node">
<title>Node1</title>
<g id="a_node2"><a xlink:href="locale__utils_8hxx.html" target="_top" xlink:title="Encoding transformations. ">
<polygon fill="#ffffff" stroke="#000000" points="74,-67.5 74,-86.5 158,-86.5 158,-67.5 74,-67.5"/>
<text text-anchor="middle" x="116" y="-74.5" font-family="Helvetica,sans-Serif" font-size="10.00" fill="#000000">locale_utils.hxx</text>
</a>
</g>
</g>
<!-- Node0&#45;&gt;Node1 -->
<g id="edge1" class="edge">
<title>Node0&#45;&gt;Node1</title>
<path fill="none" stroke="#191970" d="M305.9366,-126.4962C264.5462,-115.7101 204.0606,-99.948 162.528,-89.1249"/>
<polygon fill="#191970" stroke="#191970" points="163.222,-85.6889 152.6625,-86.554 161.4567,-92.4627 163.222,-85.6889"/>
</g>
<!-- Node6 -->
<g id="node7" class="node">
<title>Node6</title>
<polygon fill="#ffffff" stroke="#bfbfbf" points="176,-67.5 176,-86.5 232,-86.5 232,-67.5 176,-67.5"/>
<text text-anchor="middle" x="204" y="-74.5" font-family="Helvetica,sans-Serif" font-size="10.00" fill="#000000">algorithm</text>
</g>
<!-- Node0&#45;&gt;Node6 -->
<g id="edge6" class="edge">
<title>Node0&#45;&gt;Node6</title>
<path fill="none" stroke="#191970" d="M315.7951,-123.4554C291.5342,-113.374 259.8644,-100.2139 236.4288,-90.4755"/>
<polygon fill="#191970" stroke="#191970" points="237.5123,-87.1356 226.9347,-86.5303 234.8261,-93.5997 237.5123,-87.1356"/>
</g>
<!-- Node7 -->
<g id="node8" class="node">
<title>Node7</title>
<polygon fill="#ffffff" stroke="#bfbfbf" points="250,-67.5 250,-86.5 290,-86.5 290,-67.5 250,-67.5"/>
<text text-anchor="middle" x="270" y="-74.5" font-family="Helvetica,sans-Serif" font-size="10.00" fill="#000000">limits</text>
</g>
<!-- Node0&#45;&gt;Node7 -->
<g id="edge7" class="edge">
<title>Node0&#45;&gt;Node7</title>
<path fill="none" stroke="#191970" d="M331.7303,-123.2977C319.3994,-114.0495 303.6734,-102.2551 291.1803,-92.8853"/>
<polygon fill="#191970" stroke="#191970" points="293.2293,-90.047 283.1292,-86.8469 289.0292,-95.647 293.2293,-90.047"/>
</g>
<!-- Node8 -->
<g id="node9" class="node">
<title>Node8</title>
<polygon fill="#ffffff" stroke="#bfbfbf" points="308,-67.5 308,-86.5 396,-86.5 396,-67.5 308,-67.5"/>
<text text-anchor="middle" x="352" y="-74.5" font-family="Helvetica,sans-Serif" font-size="10.00" fill="#000000">boost/locale.hpp</text>
</g>
<!-- Node0&#45;&gt;Node8 -->
<g id="edge8" class="edge">
<title>Node0&#45;&gt;Node8</title>
<path fill="none" stroke="#191970" d="M352,-123.2977C352,-115.3834 352,-105.6043 352,-97.0759"/>
<polygon fill="#191970" stroke="#191970" points="355.5001,-96.8469 352,-86.8469 348.5001,-96.847 355.5001,-96.8469"/>
</g>
<!-- Node9 -->
<g id="node10" class="node">
<title>Node9</title>
<polygon fill="#ffffff" stroke="#bfbfbf" points="414,-67.5 414,-86.5 500,-86.5 500,-67.5 414,-67.5"/>
<text text-anchor="middle" x="457" y="-74.5" font-family="Helvetica,sans-Serif" font-size="10.00" fill="#000000">unicode/uchar.h</text>
</g>
<!-- Node0&#45;&gt;Node9 -->
<g id="edge9" class="edge">
<title>Node0&#45;&gt;Node9</title>
<path fill="none" stroke="#191970" d="M377.6859,-123.4554C394.1297,-113.8241 415.3708,-101.3828 431.7323,-91.7996"/>
<polygon fill="#191970" stroke="#191970" points="433.8688,-94.6045 440.7287,-86.5303 430.331,-88.5643 433.8688,-94.6045"/>
</g>
<!-- Node10 -->
<g id="node11" class="node">
<title>Node10</title>
<polygon fill="#ffffff" stroke="#bfbfbf" points="518.5,-67.5 518.5,-86.5 601.5,-86.5 601.5,-67.5 518.5,-67.5"/>
<text text-anchor="middle" x="560" y="-74.5" font-family="Helvetica,sans-Serif" font-size="10.00" fill="#000000">unicode/ucnv.h</text>
</g>
<!-- Node0&#45;&gt;Node10 -->
<g id="edge10" class="edge">
<title>Node0&#45;&gt;Node10</title>
<path fill="none" stroke="#191970" d="M398.1619,-124.8512C434.0005,-114.2547 483.2749,-99.6856 518.0109,-89.415"/>
<polygon fill="#191970" stroke="#191970" points="519.2485,-92.699 527.8457,-86.5072 517.2636,-85.9863 519.2485,-92.699"/>
</g>
<!-- Node11 -->
<g id="node12" class="node">
<title>Node11</title>
<polygon fill="#ffffff" stroke="#bfbfbf" points="620,-67.5 620,-86.5 706,-86.5 706,-67.5 620,-67.5"/>
<text text-anchor="middle" x="663" y="-74.5" font-family="Helvetica,sans-Serif" font-size="10.00" fill="#000000">unicode/unistr.h</text>
</g>
<!-- Node0&#45;&gt;Node11 -->
<g id="edge11" class="edge">
<title>Node0&#45;&gt;Node11</title>
<path fill="none" stroke="#191970" d="M398.224,-129.3592C454.6883,-118.1935 550.0221,-99.3413 609.5744,-87.5649"/>
<polygon fill="#191970" stroke="#191970" points="610.4052,-90.9684 619.5362,-85.5949 609.0472,-84.1014 610.4052,-90.9684"/>
</g>
<!-- Node2 -->
<g id="node3" class="node">
<title>Node2</title>
<polygon fill="#ffffff" stroke="#bfbfbf" points="0,-6 0,-25 42,-25 42,-6 0,-6"/>
<text text-anchor="middle" x="21" y="-13" font-family="Helvetica,sans-Serif" font-size="10.00" fill="#000000">locale</text>
</g>
<!-- Node1&#45;&gt;Node2 -->
<g id="edge2" class="edge">
<title>Node1&#45;&gt;Node2</title>
<path fill="none" stroke="#191970" d="M101.1563,-67.3906C85.9582,-57.5519 62.1152,-42.1167 44.3794,-30.6351"/>
<polygon fill="#191970" stroke="#191970" points="46.0361,-27.5382 35.7395,-25.0419 42.232,-33.4144 46.0361,-27.5382"/>
</g>
<!-- Node3 -->
<g id="node4" class="node">
<title>Node3</title>
<polygon fill="#ffffff" stroke="#bfbfbf" points="60.5,-6 60.5,-25 101.5,-25 101.5,-6 60.5,-6"/>
<text text-anchor="middle" x="81" y="-13" font-family="Helvetica,sans-Serif" font-size="10.00" fill="#000000">string</text>
</g>
<!-- Node1&#45;&gt;Node3 -->
<g id="edge3" class="edge">
<title>Node1&#45;&gt;Node3</title>
<path fill="none" stroke="#191970" d="M110.5313,-67.3906C105.4754,-58.5068 97.8228,-45.0601 91.5746,-34.0811"/>
<polygon fill="#191970" stroke="#191970" points="94.534,-32.2048 86.5459,-25.2449 88.4502,-35.6672 94.534,-32.2048"/>
</g>
<!-- Node4 -->
<g id="node5" class="node">
<title>Node4</title>
<polygon fill="#ffffff" stroke="#bfbfbf" points="120,-6 120,-25 182,-25 182,-6 120,-6"/>
<text text-anchor="middle" x="151" y="-13" font-family="Helvetica,sans-Serif" font-size="10.00" fill="#000000">type_traits</text>
</g>
<!-- Node1&#45;&gt;Node4 -->
<g id="edge4" class="edge">
<title>Node1&#45;&gt;Node4</title>
<path fill="none" stroke="#191970" d="M121.4688,-67.3906C126.5246,-58.5068 134.1772,-45.0601 140.4254,-34.0811"/>
<polygon fill="#191970" stroke="#191970" points="143.5498,-35.6672 145.4541,-25.2449 137.466,-32.2048 143.5498,-35.6672"/>
</g>
<!-- Node5 -->
<g id="node6" class="node">
<title>Node5</title>
<polygon fill="#ffffff" stroke="#bfbfbf" points="200.5,-.5 200.5,-30.5 311.5,-30.5 311.5,-.5 200.5,-.5"/>
<text text-anchor="start" x="208.5" y="-18.5" font-family="Helvetica,sans-Serif" font-size="10.00" fill="#000000">boost/locale/encoding</text>
<text text-anchor="middle" x="256" y="-7.5" font-family="Helvetica,sans-Serif" font-size="10.00" fill="#000000">_utf.hpp</text>
</g>
<!-- Node1&#45;&gt;Node5 -->
<g id="edge5" class="edge">
<title>Node1&#45;&gt;Node5</title>
<path fill="none" stroke="#191970" d="M137.875,-67.3906C157.7872,-58.6435 187.7691,-45.4728 212.5438,-34.5897"/>
<polygon fill="#191970" stroke="#191970" points="214.0043,-37.771 221.7521,-30.5446 211.1889,-31.3621 214.0043,-37.771"/>
</g>
</g>
</svg>
