<?xml version="1.0" encoding="UTF-8" standalone="no"?>
<!DOCTYPE svg PUBLIC "-//W3C//DTD SVG 1.1//EN"
 "http://www.w3.org/Graphics/SVG/1.1/DTD/svg11.dtd">
<!-- Generated by graphviz version 2.40.1 (20161225.0304)
 -->
<!-- Title: src/nuspell/main.cxx Pages: 1 -->
<svg width="1609pt" height="319pt"
 viewBox="0.00 0.00 1609.21 319.00" xmlns="http://www.w3.org/2000/svg" xmlns:xlink="http://www.w3.org/1999/xlink">
<g id="graph0" class="graph" transform="scale(1 1) rotate(0) translate(4 315)">
<title>src/nuspell/main.cxx</title>
<polygon fill="#ffffff" stroke="transparent" points="-4,4 -4,-315 1605.2135,-315 1605.2135,4 -4,4"/>
<!-- Node0 -->
<g id="node1" class="node">
<title>Node0</title>
<polygon fill="#bfbfbf" stroke="#000000" points="1186.7135,-291.5 1186.7135,-310.5 1293.7135,-310.5 1293.7135,-291.5 1186.7135,-291.5"/>
<text text-anchor="middle" x="1240.2135" y="-298.5" font-family="Helvetica,sans-Serif" font-size="10.00" fill="#000000">src/nuspell/main.cxx</text>
</g>
<!-- Node1 -->
<g id="node2" class="node">
<title>Node1</title>
<g id="a_node2"><a xlink:href="dictionary_8hxx.html" target="_top" xlink:title="Dictionary spelling. ">
<polygon fill="#ffffff" stroke="#000000" points="1235.7135,-235.5 1235.7135,-254.5 1312.7135,-254.5 1312.7135,-235.5 1235.7135,-235.5"/>
<text text-anchor="middle" x="1274.2135" y="-242.5" font-family="Helvetica,sans-Serif" font-size="10.00" fill="#000000">dictionary.hxx</text>
</a>
</g>
</g>
<!-- Node0&#45;&gt;Node1 -->
<g id="edge1" class="edge">
<title>Node0&#45;&gt;Node1</title>
<path fill="none" stroke="#191970" d="M1246.1359,-291.2455C1250.8162,-283.5367 1257.4808,-272.5598 1263.1424,-263.2348"/>
<polygon fill="#191970" stroke="#191970" points="1266.161,-265.007 1268.3591,-254.6427 1260.1775,-261.3741 1266.161,-265.007"/>
</g>
<!-- Node4 -->
<g id="node5" class="node">
<title>Node4</title>
<polygon fill="#ffffff" stroke="#bfbfbf" points="1152.7135,-.5 1152.7135,-19.5 1193.7135,-19.5 1193.7135,-.5 1152.7135,-.5"/>
<text text-anchor="middle" x="1173.2135" y="-7.5" font-family="Helvetica,sans-Serif" font-size="10.00" fill="#000000">string</text>
</g>
<!-- Node0&#45;&gt;Node4 -->
<g id="edge45" class="edge">
<title>Node0&#45;&gt;Node4</title>
<path fill="none" stroke="#191970" d="M1260.6921,-291.4535C1277.8715,-283.0007 1302.6639,-269.7415 1322.2135,-255 1383.8751,-208.5037 1464.2258,-194.5705 1435.2135,-123 1419.6274,-84.5506 1406.3212,-76.4334 1370.2135,-56 1316.7611,-25.7511 1244.4105,-15.3635 1203.9224,-11.8176"/>
<polygon fill="#191970" stroke="#191970" points="1204.1128,-8.3218 1193.8677,-11.0216 1203.5603,-15.2999 1204.1128,-8.3218"/>
</g>
<!-- Node5 -->
<g id="node6" class="node">
<title>Node5</title>
<polygon fill="#ffffff" stroke="#bfbfbf" points="1164.7135,-123.5 1164.7135,-142.5 1247.7135,-142.5 1247.7135,-123.5 1164.7135,-123.5"/>
<text text-anchor="middle" x="1206.2135" y="-130.5" font-family="Helvetica,sans-Serif" font-size="10.00" fill="#000000">unordered_map</text>
</g>
<!-- Node0&#45;&gt;Node5 -->
<g id="edge46" class="edge">
<title>Node0&#45;&gt;Node5</title>
<path fill="none" stroke="#191970" d="M1237.1227,-291.2062C1234.2772,-281.9455 1230.076,-267.6259 1227.2135,-255 1219.0911,-219.1729 1212.4531,-176.7994 1208.9384,-152.5938"/>
<polygon fill="#191970" stroke="#191970" points="1212.3844,-151.9655 1207.51,-142.5585 1205.4542,-152.952 1212.3844,-151.9655"/>
</g>
<!-- Node9 -->
<g id="node10" class="node">
<title>Node9</title>
<polygon fill="#ffffff" stroke="#bfbfbf" points="1261.2135,-62 1261.2135,-81 1303.2135,-81 1303.2135,-62 1261.2135,-62"/>
<text text-anchor="middle" x="1282.2135" y="-69" font-family="Helvetica,sans-Serif" font-size="10.00" fill="#000000">locale</text>
</g>
<!-- Node0&#45;&gt;Node9 -->
<g id="edge44" class="edge">
<title>Node0&#45;&gt;Node9</title>
<path fill="none" stroke="#191970" d="M1232.7536,-291.091C1208.4342,-258.2308 1134.1933,-153.2226 1155.2135,-123 1181.4701,-85.2487 1210.1535,-105.5882 1252.2135,-87 1253.2323,-86.5497 1254.2652,-86.0809 1255.3043,-85.5988"/>
<polygon fill="#191970" stroke="#191970" points="1257.1752,-88.58 1264.6199,-81.0417 1254.0991,-82.2921 1257.1752,-88.58"/>
</g>
<!-- Node21 -->
<g id="node22" class="node">
<title>Node21</title>
<polygon fill="#ffffff" stroke="#bfbfbf" points="1091.2135,-179.5 1091.2135,-198.5 1141.2135,-198.5 1141.2135,-179.5 1091.2135,-179.5"/>
<text text-anchor="middle" x="1116.2135" y="-186.5" font-family="Helvetica,sans-Serif" font-size="10.00" fill="#000000">fstream</text>
</g>
<!-- Node0&#45;&gt;Node21 -->
<g id="edge42" class="edge">
<title>Node0&#45;&gt;Node21</title>
<path fill="none" stroke="#191970" d="M1214.4826,-291.4271C1196.3098,-283.6991 1172.2549,-271.4113 1155.2135,-255 1141.3279,-241.6277 1130.6702,-222.2592 1124.033,-207.9604"/>
<polygon fill="#191970" stroke="#191970" points="1127.1486,-206.3506 1119.9219,-198.603 1120.7399,-209.1663 1127.1486,-206.3506"/>
</g>
<!-- Node22 -->
<g id="node23" class="node">
<title>Node22</title>
<g id="a_node23"><a xlink:href="finder_8hxx.html" target="_top" xlink:title="Finding dictionaries. ">
<polygon fill="#ffffff" stroke="#000000" points="416.7135,-123.5 416.7135,-142.5 475.7135,-142.5 475.7135,-123.5 416.7135,-123.5"/>
<text text-anchor="middle" x="446.2135" y="-130.5" font-family="Helvetica,sans-Serif" font-size="10.00" fill="#000000">finder.hxx</text>
</a>
</g>
</g>
<!-- Node0&#45;&gt;Node22 -->
<g id="edge30" class="edge">
<title>Node0&#45;&gt;Node22</title>
<path fill="none" stroke="#191970" d="M1195.2497,-291.4862C1053.7699,-261.551 619.1953,-169.6007 485.6604,-141.3464"/>
<polygon fill="#191970" stroke="#191970" points="486.3552,-137.916 475.8472,-139.2701 484.9061,-144.7644 486.3552,-137.916"/>
</g>
<!-- Node23 -->
<g id="node24" class="node">
<title>Node23</title>
<g id="a_node24"><a xlink:href="string__utils_8hxx.html" target="_top" xlink:title="String algorithms. ">
<polygon fill="#ffffff" stroke="#000000" points="1024.7135,-123.5 1024.7135,-142.5 1107.7135,-142.5 1107.7135,-123.5 1024.7135,-123.5"/>
<text text-anchor="middle" x="1066.2135" y="-130.5" font-family="Helvetica,sans-Serif" font-size="10.00" fill="#000000">string_utils.hxx</text>
</a>
</g>
</g>
<!-- Node0&#45;&gt;Node23 -->
<g id="edge34" class="edge">
<title>Node0&#45;&gt;Node23</title>
<path fill="none" stroke="#191970" d="M1210.8383,-291.4782C1189.093,-283.6315 1159.354,-271.1736 1136.2135,-255 1107.8741,-235.1927 1098.8665,-229.3008 1082.2135,-199 1074.3166,-184.6313 1070.2779,-166.3978 1068.2358,-152.7383"/>
<polygon fill="#191970" stroke="#191970" points="1071.6718,-152.0094 1066.9493,-142.5253 1064.7267,-152.8844 1071.6718,-152.0094"/>
</g>
<!-- Node25 -->
<g id="node26" class="node">
<title>Node25</title>
<polygon fill="#ffffff" stroke="#bfbfbf" points="1375.7135,-235.5 1375.7135,-254.5 1422.7135,-254.5 1422.7135,-235.5 1375.7135,-235.5"/>
<text text-anchor="middle" x="1399.2135" y="-242.5" font-family="Helvetica,sans-Serif" font-size="10.00" fill="#000000">clocale</text>
</g>
<!-- Node0&#45;&gt;Node25 -->
<g id="edge41" class="edge">
<title>Node0&#45;&gt;Node25</title>
<path fill="none" stroke="#191970" d="M1267.5466,-291.3733C1294.7895,-281.7783 1336.6651,-267.0296 1365.8522,-256.7499"/>
<polygon fill="#191970" stroke="#191970" points="1367.3327,-259.9393 1375.6021,-253.316 1365.0073,-253.3368 1367.3327,-259.9393"/>
</g>
<!-- Node26 -->
<g id="node27" class="node">
<title>Node26</title>
<polygon fill="#ffffff" stroke="#bfbfbf" points="1441.2135,-235.5 1441.2135,-254.5 1495.2135,-254.5 1495.2135,-235.5 1441.2135,-235.5"/>
<text text-anchor="middle" x="1468.2135" y="-242.5" font-family="Helvetica,sans-Serif" font-size="10.00" fill="#000000">iostream</text>
</g>
<!-- Node0&#45;&gt;Node26 -->
<g id="edge43" class="edge">
<title>Node0&#45;&gt;Node26</title>
<path fill="none" stroke="#191970" d="M1281.8934,-291.4677C1318.7259,-282.9426 1374.1373,-269.8716 1431.1983,-255.201"/>
<polygon fill="#191970" stroke="#191970" points="1432.3079,-258.5293 1441.1147,-252.6393 1430.5571,-251.7518 1432.3079,-258.5293"/>
</g>
<!-- Node27 -->
<g id="node28" class="node">
<title>Node27</title>
<polygon fill="#ffffff" stroke="#bfbfbf" points="1513.2135,-235.5 1513.2135,-254.5 1601.2135,-254.5 1601.2135,-235.5 1513.2135,-235.5"/>
<text text-anchor="middle" x="1557.2135" y="-242.5" font-family="Helvetica,sans-Serif" font-size="10.00" fill="#000000">boost/locale.hpp</text>
</g>
<!-- Node0&#45;&gt;Node27 -->
<g id="edge47" class="edge">
<title>Node0&#45;&gt;Node27</title>
<path fill="none" stroke="#191970" d="M1293.849,-291.8804C1345.0277,-283.1275 1424.5729,-269.391 1502.9305,-255.2155"/>
<polygon fill="#191970" stroke="#191970" points="1503.7604,-258.6222 1512.9757,-253.3946 1502.5118,-251.7344 1503.7604,-258.6222"/>
</g>
<!-- Node2 -->
<g id="node3" class="node">
<title>Node2</title>
<g id="a_node3"><a xlink:href="aff__data_8hxx.html" target="_top" xlink:title="Affixing data structures. ">
<polygon fill="#ffffff" stroke="#000000" points="828.7135,-179.5 828.7135,-198.5 899.7135,-198.5 899.7135,-179.5 828.7135,-179.5"/>
<text text-anchor="middle" x="864.2135" y="-186.5" font-family="Helvetica,sans-Serif" font-size="10.00" fill="#000000">aff_data.hxx</text>
</a>
</g>
</g>
<!-- Node1&#45;&gt;Node2 -->
<g id="edge2" class="edge">
<title>Node1&#45;&gt;Node2</title>
<path fill="none" stroke="#191970" d="M1235.6417,-239.7317C1159.6528,-229.3527 990.9264,-206.3071 909.675,-195.2094"/>
<polygon fill="#191970" stroke="#191970" points="910.1255,-191.7385 899.7438,-193.8529 909.1782,-198.6741 910.1255,-191.7385"/>
</g>
<!-- Node8 -->
<g id="node9" class="node">
<title>Node8</title>
<g id="a_node9"><a xlink:href="locale__utils_8hxx.html" target="_top" xlink:title="Encoding transformations. ">
<polygon fill="#ffffff" stroke="#000000" points="1342.2135,-123.5 1342.2135,-142.5 1426.2135,-142.5 1426.2135,-123.5 1342.2135,-123.5"/>
<text text-anchor="middle" x="1384.2135" y="-130.5" font-family="Helvetica,sans-Serif" font-size="10.00" fill="#000000">locale_utils.hxx</text>
</a>
</g>
</g>
<!-- Node1&#45;&gt;Node8 -->
<g id="edge27" class="edge">
<title>Node1&#45;&gt;Node8</title>
<path fill="none" stroke="#191970" d="M1283.5921,-235.4509C1302.2635,-216.4401 1344.297,-173.6423 1367.6978,-149.816"/>
<polygon fill="#191970" stroke="#191970" points="1370.3487,-152.1119 1374.8587,-142.5249 1365.3546,-147.2069 1370.3487,-152.1119"/>
</g>
<!-- Node1&#45;&gt;Node9 -->
<g id="edge29" class="edge">
<title>Node1&#45;&gt;Node9</title>
<path fill="none" stroke="#191970" d="M1274.655,-235.4248C1275.9196,-207.999 1279.5746,-128.732 1281.2961,-91.3964"/>
<polygon fill="#191970" stroke="#191970" points="1284.7991,-91.4102 1281.7635,-81.2595 1277.8065,-91.0877 1284.7991,-91.4102"/>
</g>
<!-- Node1&#45;&gt;Node21 -->
<g id="edge28" class="edge">
<title>Node1&#45;&gt;Node21</title>
<path fill="none" stroke="#191970" d="M1247.0524,-235.3733C1220.5333,-225.9741 1180.061,-211.6295 1151.1563,-201.3848"/>
<polygon fill="#191970" stroke="#191970" points="1152.0514,-197.9887 1141.4566,-197.9469 1149.7129,-204.5866 1152.0514,-197.9887"/>
</g>
<!-- Node3 -->
<g id="node4" class="node">
<title>Node3</title>
<polygon fill="#ffffff" stroke="#bfbfbf" points="591.7135,-123.5 591.7135,-142.5 636.7135,-142.5 636.7135,-123.5 591.7135,-123.5"/>
<text text-anchor="middle" x="614.2135" y="-130.5" font-family="Helvetica,sans-Serif" font-size="10.00" fill="#000000">iosfwd</text>
</g>
<!-- Node2&#45;&gt;Node3 -->
<g id="edge3" class="edge">
<title>Node2&#45;&gt;Node3</title>
<path fill="none" stroke="#191970" d="M828.6695,-182.7228C787.0776,-175.1174 715.9878,-161.3119 646.5961,-143.1818"/>
<polygon fill="#191970" stroke="#191970" points="647.3817,-139.7693 636.8191,-140.595 645.5912,-146.5364 647.3817,-139.7693"/>
</g>
<!-- Node2&#45;&gt;Node4 -->
<g id="edge4" class="edge">
<title>Node2&#45;&gt;Node4</title>
<path fill="none" stroke="#191970" d="M899.7213,-187.8452C984.1678,-184.6243 1194.5961,-173.6706 1257.2135,-143 1298.2955,-122.8776 1339.0014,-93.0817 1312.2135,-56 1299.4109,-38.2777 1241.0527,-23.6026 1204.1418,-15.8815"/>
<polygon fill="#191970" stroke="#191970" points="1204.3991,-12.3624 1193.9025,-13.802 1203.0058,-19.2223 1204.3991,-12.3624"/>
</g>
<!-- Node2&#45;&gt;Node5 -->
<g id="edge5" class="edge">
<title>Node2&#45;&gt;Node5</title>
<path fill="none" stroke="#191970" d="M899.8457,-183.1655C960.587,-173.2196 1084.4058,-152.9451 1154.6141,-141.449"/>
<polygon fill="#191970" stroke="#191970" points="1155.2669,-144.8888 1164.5699,-139.8188 1154.1357,-137.9808 1155.2669,-144.8888"/>
</g>
<!-- Node6 -->
<g id="node7" class="node">
<title>Node6</title>
<polygon fill="#ffffff" stroke="#bfbfbf" points="15.2135,-62 15.2135,-81 55.2135,-81 55.2135,-62 15.2135,-62"/>
<text text-anchor="middle" x="35.2135" y="-69" font-family="Helvetica,sans-Serif" font-size="10.00" fill="#000000">utility</text>
</g>
<!-- Node2&#45;&gt;Node6 -->
<g id="edge6" class="edge">
<title>Node2&#45;&gt;Node6</title>
<path fill="none" stroke="#191970" d="M828.5468,-186.3607C751.4439,-180.4467 563.5731,-164.9128 407.2135,-143 268.1276,-123.508 233.4701,-116.7569 96.2135,-87 86.0687,-84.8006 75.0529,-82.0991 65.2096,-79.571"/>
<polygon fill="#191970" stroke="#191970" points="66.0217,-76.1657 55.4619,-77.0275 64.2543,-82.939 66.0217,-76.1657"/>
</g>
<!-- Node7 -->
<g id="node8" class="node">
<title>Node7</title>
<polygon fill="#ffffff" stroke="#bfbfbf" points="99.2135,-.5 99.2135,-19.5 143.2135,-19.5 143.2135,-.5 99.2135,-.5"/>
<text text-anchor="middle" x="121.2135" y="-7.5" font-family="Helvetica,sans-Serif" font-size="10.00" fill="#000000">vector</text>
</g>
<!-- Node2&#45;&gt;Node7 -->
<g id="edge7" class="edge">
<title>Node2&#45;&gt;Node7</title>
<path fill="none" stroke="#191970" d="M828.5331,-187.6209C672.9184,-181.2336 59.0193,-152.0301 6.2135,-87 -2.4715,-76.3044 -1.5107,-67.4089 6.2135,-56 24.5188,-28.9625 61.5676,-17.8155 88.6848,-13.2207"/>
<polygon fill="#191970" stroke="#191970" points="89.5093,-16.6371 98.8916,-11.7154 88.4879,-9.712 89.5093,-16.6371"/>
</g>
<!-- Node2&#45;&gt;Node8 -->
<g id="edge8" class="edge">
<title>Node2&#45;&gt;Node8</title>
<path fill="none" stroke="#191970" d="M899.8343,-186.4202C977.743,-180.5693 1169.0493,-165.0666 1328.2135,-143 1329.4791,-142.8245 1330.7599,-142.6413 1332.0509,-142.4514"/>
<polygon fill="#191970" stroke="#191970" points="1332.7313,-145.8877 1342.0722,-140.888 1331.6522,-138.9714 1332.7313,-145.8877"/>
</g>
<!-- Node10 -->
<g id="node11" class="node">
<title>Node10</title>
<g id="a_node11"><a xlink:href="structures_8hxx.html" target="_top" xlink:title="Data structures. ">
<polygon fill="#ffffff" stroke="#000000" points="654.7135,-123.5 654.7135,-142.5 733.7135,-142.5 733.7135,-123.5 654.7135,-123.5"/>
<text text-anchor="middle" x="694.2135" y="-130.5" font-family="Helvetica,sans-Serif" font-size="10.00" fill="#000000">structures.hxx</text>
</a>
</g>
</g>
<!-- Node2&#45;&gt;Node10 -->
<g id="edge11" class="edge">
<title>Node2&#45;&gt;Node10</title>
<path fill="none" stroke="#191970" d="M834.9895,-179.3733C806.7211,-170.0613 763.717,-155.8953 732.6791,-145.671"/>
<polygon fill="#191970" stroke="#191970" points="733.6493,-142.3056 723.0562,-142.5011 731.4591,-148.9542 733.6493,-142.3056"/>
</g>
<!-- Node8&#45;&gt;Node4 -->
<g id="edge10" class="edge">
<title>Node8&#45;&gt;Node4</title>
<path fill="none" stroke="#191970" d="M1382.0508,-123.3448C1377.8683,-106.9564 1367.0899,-73.7502 1345.2135,-56 1323.5931,-38.4574 1247.2285,-22.8254 1203.8726,-15.102"/>
<polygon fill="#191970" stroke="#191970" points="1204.3235,-11.6279 1193.8706,-13.3562 1203.1198,-18.5236 1204.3235,-11.6279"/>
</g>
<!-- Node8&#45;&gt;Node9 -->
<g id="edge9" class="edge">
<title>Node8&#45;&gt;Node9</title>
<path fill="none" stroke="#191970" d="M1368.276,-123.3906C1351.8084,-113.4616 1325.8877,-97.833 1306.7932,-86.3201"/>
<polygon fill="#191970" stroke="#191970" points="1308.4102,-83.2081 1298.0391,-81.0419 1304.7957,-89.2027 1308.4102,-83.2081"/>
</g>
<!-- Node10&#45;&gt;Node4 -->
<g id="edge20" class="edge">
<title>Node10&#45;&gt;Node4</title>
<path fill="none" stroke="#191970" d="M733.7721,-128.6861C799.6969,-121.1228 928.9674,-104.5931 971.2135,-87 992.9627,-77.9427 993.0314,-66.314 1014.2135,-56 1056.5269,-35.3969 1109.7755,-22.3286 1142.65,-15.5868"/>
<polygon fill="#191970" stroke="#191970" points="1143.4404,-18.9982 1152.5679,-13.6186 1142.0778,-12.1321 1143.4404,-18.9982"/>
</g>
<!-- Node10&#45;&gt;Node6 -->
<g id="edge21" class="edge">
<title>Node10&#45;&gt;Node6</title>
<path fill="none" stroke="#191970" d="M654.7109,-124.4633C651.5065,-123.9158 648.3111,-123.4178 645.2135,-123 407.7181,-90.9678 344.5338,-120.3052 107.2135,-87 93.2257,-85.037 77.9029,-81.8819 65.0019,-78.929"/>
<polygon fill="#191970" stroke="#191970" points="65.7826,-75.5172 55.2465,-76.6309 64.1775,-82.3307 65.7826,-75.5172"/>
</g>
<!-- Node10&#45;&gt;Node7 -->
<g id="edge22" class="edge">
<title>Node10&#45;&gt;Node7</title>
<path fill="none" stroke="#191970" d="M654.7089,-124.4782C651.5049,-123.9274 648.3102,-123.4245 645.2135,-123 589.4813,-115.3596 183.2378,-123.2404 140.2135,-87 123.8087,-73.1818 120.3335,-47.6691 120.1267,-29.8107"/>
<polygon fill="#191970" stroke="#191970" points="123.63,-29.6901 120.3467,-19.6169 116.6316,-29.539 123.63,-29.6901"/>
</g>
<!-- Node11 -->
<g id="node12" class="node">
<title>Node11</title>
<g id="a_node12"><a xlink:href="condition_8hxx.html" target="_top" xlink:title="Condition matching. ">
<polygon fill="#ffffff" stroke="#000000" points="855.2135,-62 855.2135,-81 929.2135,-81 929.2135,-62 855.2135,-62"/>
<text text-anchor="middle" x="892.2135" y="-69" font-family="Helvetica,sans-Serif" font-size="10.00" fill="#000000">condition.hxx</text>
</a>
</g>
</g>
<!-- Node10&#45;&gt;Node11 -->
<g id="edge12" class="edge">
<title>Node10&#45;&gt;Node11</title>
<path fill="none" stroke="#191970" d="M725.151,-123.3906C759.2972,-112.7846 814.3809,-95.6753 851.887,-84.0257"/>
<polygon fill="#191970" stroke="#191970" points="852.9816,-87.3507 861.4933,-81.0419 850.9051,-80.6658 852.9816,-87.3507"/>
</g>
<!-- Node13 -->
<g id="node14" class="node">
<title>Node13</title>
<polygon fill="#ffffff" stroke="#bfbfbf" points="1023.2135,-62 1023.2135,-81 1079.2135,-81 1079.2135,-62 1023.2135,-62"/>
<text text-anchor="middle" x="1051.2135" y="-69" font-family="Helvetica,sans-Serif" font-size="10.00" fill="#000000">algorithm</text>
</g>
<!-- Node10&#45;&gt;Node13 -->
<g id="edge16" class="edge">
<title>Node10&#45;&gt;Node13</title>
<path fill="none" stroke="#191970" d="M734.0204,-129.8676C794.2967,-124.5257 912.0034,-111.7467 1009.2135,-87 1012.2052,-86.2384 1015.2796,-85.34 1018.339,-84.3656"/>
<polygon fill="#191970" stroke="#191970" points="1019.6192,-87.6267 1027.9405,-81.0688 1017.3459,-81.0061 1019.6192,-87.6267"/>
</g>
<!-- Node14 -->
<g id="node15" class="node">
<title>Node14</title>
<polygon fill="#ffffff" stroke="#bfbfbf" points="149.2135,-62 149.2135,-81 193.2135,-81 193.2135,-62 149.2135,-62"/>
<text text-anchor="middle" x="171.2135" y="-69" font-family="Helvetica,sans-Serif" font-size="10.00" fill="#000000">cmath</text>
</g>
<!-- Node10&#45;&gt;Node14 -->
<g id="edge17" class="edge">
<title>Node10&#45;&gt;Node14</title>
<path fill="none" stroke="#191970" d="M654.7041,-124.5122C651.5012,-123.9538 648.3081,-123.4399 645.2135,-123 449.6416,-95.1999 392.4696,-140.14 202.2135,-87 200.5003,-86.5215 198.7693,-85.9468 197.0476,-85.3045"/>
<polygon fill="#191970" stroke="#191970" points="198.0374,-81.9159 187.4751,-81.0859 195.2144,-88.3215 198.0374,-81.9159"/>
</g>
<!-- Node15 -->
<g id="node16" class="node">
<title>Node15</title>
<polygon fill="#ffffff" stroke="#bfbfbf" points="1097.7135,-62 1097.7135,-81 1144.7135,-81 1144.7135,-62 1097.7135,-62"/>
<text text-anchor="middle" x="1121.2135" y="-69" font-family="Helvetica,sans-Serif" font-size="10.00" fill="#000000">iterator</text>
</g>
<!-- Node10&#45;&gt;Node15 -->
<g id="edge18" class="edge">
<title>Node10&#45;&gt;Node15</title>
<path fill="none" stroke="#191970" d="M733.9876,-129.9932C820.2818,-123.2042 1022.2323,-105.8068 1088.2135,-87 1090.131,-86.4535 1092.0762,-85.8067 1094.0134,-85.0928"/>
<polygon fill="#191970" stroke="#191970" points="1095.606,-88.2199 1103.4655,-81.115 1092.8908,-81.7679 1095.606,-88.2199"/>
</g>
<!-- Node16 -->
<g id="node17" class="node">
<title>Node16</title>
<polygon fill="#ffffff" stroke="#bfbfbf" points="211.7135,-62 211.7135,-81 270.7135,-81 270.7135,-62 211.7135,-62"/>
<text text-anchor="middle" x="241.2135" y="-69" font-family="Helvetica,sans-Serif" font-size="10.00" fill="#000000">stdexcept</text>
</g>
<!-- Node10&#45;&gt;Node16 -->
<g id="edge19" class="edge">
<title>Node10&#45;&gt;Node16</title>
<path fill="none" stroke="#191970" d="M654.6955,-124.5712C651.4945,-123.9996 648.3042,-123.4665 645.2135,-123 484.0301,-98.6701 438.6162,-125.479 280.2135,-87 277.4258,-86.3228 274.5729,-85.4872 271.741,-84.558"/>
<polygon fill="#191970" stroke="#191970" points="272.9122,-81.2598 262.3181,-81.1322 270.5204,-87.8385 272.9122,-81.2598"/>
</g>
<!-- Node17 -->
<g id="node18" class="node">
<title>Node17</title>
<polygon fill="#ffffff" stroke="#bfbfbf" points="289.2135,-56.5 289.2135,-86.5 399.2135,-86.5 399.2135,-56.5 289.2135,-56.5"/>
<text text-anchor="start" x="297.2135" y="-74.5" font-family="Helvetica,sans-Serif" font-size="10.00" fill="#000000">boost/container/small</text>
<text text-anchor="middle" x="344.2135" y="-63.5" font-family="Helvetica,sans-Serif" font-size="10.00" fill="#000000">_vector.hpp</text>
</g>
<!-- Node10&#45;&gt;Node17 -->
<g id="edge23" class="edge">
<title>Node10&#45;&gt;Node17</title>
<path fill="none" stroke="#191970" d="M654.666,-124.7504C651.4717,-124.1385 648.2909,-123.5474 645.2135,-123 543.4939,-104.9068 514.4927,-107.3837 409.3764,-87.1287"/>
<polygon fill="#191970" stroke="#191970" points="409.7897,-83.6434 399.3046,-85.1639 408.4494,-90.5139 409.7897,-83.6434"/>
</g>
<!-- Node18 -->
<g id="node19" class="node">
<title>Node18</title>
<polygon fill="#ffffff" stroke="#bfbfbf" points="417.2135,-62 417.2135,-81 567.2135,-81 567.2135,-62 417.2135,-62"/>
<text text-anchor="middle" x="492.2135" y="-69" font-family="Helvetica,sans-Serif" font-size="10.00" fill="#000000">boost/multi_index/member.hpp</text>
</g>
<!-- Node10&#45;&gt;Node18 -->
<g id="edge24" class="edge">
<title>Node10&#45;&gt;Node18</title>
<path fill="none" stroke="#191970" d="M662.651,-123.3906C627.8151,-112.7846 571.6186,-95.6753 533.3547,-84.0257"/>
<polygon fill="#191970" stroke="#191970" points="534.1403,-80.6063 523.5544,-81.0419 532.1014,-87.3028 534.1403,-80.6063"/>
</g>
<!-- Node19 -->
<g id="node20" class="node">
<title>Node19</title>
<polygon fill="#ffffff" stroke="#bfbfbf" points="585.7135,-56.5 585.7135,-86.5 686.7135,-86.5 686.7135,-56.5 585.7135,-56.5"/>
<text text-anchor="start" x="593.7135" y="-74.5" font-family="Helvetica,sans-Serif" font-size="10.00" fill="#000000">boost/range/iterator</text>
<text text-anchor="middle" x="636.2135" y="-63.5" font-family="Helvetica,sans-Serif" font-size="10.00" fill="#000000">_range_core.hpp</text>
</g>
<!-- Node10&#45;&gt;Node19 -->
<g id="edge25" class="edge">
<title>Node10&#45;&gt;Node19</title>
<path fill="none" stroke="#191970" d="M685.151,-123.3906C677.7375,-115.5298 666.9548,-104.0964 657.3965,-93.9612"/>
<polygon fill="#191970" stroke="#191970" points="659.8093,-91.4183 650.4019,-86.5446 654.7167,-96.221 659.8093,-91.4183"/>
</g>
<!-- Node20 -->
<g id="node21" class="node">
<title>Node20</title>
<polygon fill="#ffffff" stroke="#bfbfbf" points="705.2135,-56.5 705.2135,-86.5 799.2135,-86.5 799.2135,-56.5 705.2135,-56.5"/>
<text text-anchor="start" x="713.2135" y="-74.5" font-family="Helvetica,sans-Serif" font-size="10.00" fill="#000000">boost/utility/string</text>
<text text-anchor="middle" x="752.2135" y="-63.5" font-family="Helvetica,sans-Serif" font-size="10.00" fill="#000000">_view.hpp</text>
</g>
<!-- Node10&#45;&gt;Node20 -->
<g id="edge26" class="edge">
<title>Node10&#45;&gt;Node20</title>
<path fill="none" stroke="#191970" d="M703.276,-123.3906C710.6895,-115.5298 721.4722,-104.0964 731.0306,-93.9612"/>
<polygon fill="#191970" stroke="#191970" points="733.7104,-96.221 738.0251,-86.5446 728.6178,-91.4183 733.7104,-96.221"/>
</g>
<!-- Node11&#45;&gt;Node4 -->
<g id="edge13" class="edge">
<title>Node11&#45;&gt;Node4</title>
<path fill="none" stroke="#191970" d="M921.7417,-61.9917C928.744,-59.8856 936.2131,-57.7594 943.2135,-56 1013.8118,-38.257 1097.963,-22.8637 1142.3157,-15.1901"/>
<polygon fill="#191970" stroke="#191970" points="1143.1808,-18.5929 1152.4451,-13.4524 1141.9972,-11.6936 1143.1808,-18.5929"/>
</g>
<!-- Node11&#45;&gt;Node7 -->
<g id="edge15" class="edge">
<title>Node11&#45;&gt;Node7</title>
<path fill="none" stroke="#191970" d="M864.9727,-61.9514C857.3693,-59.6356 849.0443,-57.4203 841.2135,-56 706.3269,-31.5347 275.7075,-15.2763 153.7074,-11.0771"/>
<polygon fill="#191970" stroke="#191970" points="153.6345,-7.5727 143.5211,-10.73 153.396,-14.5687 153.6345,-7.5727"/>
</g>
<!-- Node12 -->
<g id="node13" class="node">
<title>Node12</title>
<polygon fill="#ffffff" stroke="#bfbfbf" points="873.2135,-.5 873.2135,-19.5 911.2135,-19.5 911.2135,-.5 873.2135,-.5"/>
<text text-anchor="middle" x="892.2135" y="-7.5" font-family="Helvetica,sans-Serif" font-size="10.00" fill="#000000">tuple</text>
</g>
<!-- Node11&#45;&gt;Node12 -->
<g id="edge14" class="edge">
<title>Node11&#45;&gt;Node12</title>
<path fill="none" stroke="#191970" d="M892.2135,-61.8906C892.2135,-53.3657 892.2135,-40.6392 892.2135,-29.9235"/>
<polygon fill="#191970" stroke="#191970" points="895.7136,-29.7448 892.2135,-19.7449 888.7136,-29.7449 895.7136,-29.7448"/>
</g>
<!-- Node22&#45;&gt;Node4 -->
<g id="edge31" class="edge">
<title>Node22&#45;&gt;Node4</title>
<path fill="none" stroke="#191970" d="M475.8694,-130.7615C579.018,-122.9061 917.0253,-96.5561 938.2135,-87 956.5573,-78.7268 953.4491,-65.4532 971.2135,-56 1026.884,-26.3752 1101.0513,-15.7525 1142.2652,-11.9993"/>
<polygon fill="#191970" stroke="#191970" points="1142.8124,-15.466 1152.4879,-11.1491 1142.2321,-8.4901 1142.8124,-15.466"/>
</g>
<!-- Node22&#45;&gt;Node6 -->
<g id="edge32" class="edge">
<title>Node22&#45;&gt;Node6</title>
<path fill="none" stroke="#191970" d="M416.2786,-132.4374C351.6787,-130.5574 194.8779,-122.3984 69.2135,-87 67.2466,-86.4459 65.249,-85.7935 63.2579,-85.0754"/>
<polygon fill="#191970" stroke="#191970" points="64.111,-81.6425 53.5307,-81.0878 61.4558,-88.1194 64.111,-81.6425"/>
</g>
<!-- Node22&#45;&gt;Node7 -->
<g id="edge33" class="edge">
<title>Node22&#45;&gt;Node7</title>
<path fill="none" stroke="#191970" d="M416.5037,-131.1711C337.6118,-126.0138 127.4822,-110.2048 107.2135,-87 93.241,-71.0035 101.5526,-45.8322 110.1436,-28.6554"/>
<polygon fill="#191970" stroke="#191970" points="113.3675,-30.053 115.0678,-19.5955 107.2172,-26.7102 113.3675,-30.053"/>
</g>
<!-- Node23&#45;&gt;Node4 -->
<g id="edge39" class="edge">
<title>Node23&#45;&gt;Node4</title>
<path fill="none" stroke="#191970" d="M1098.2524,-123.3637C1116.8713,-116.1875 1139.3274,-104.5536 1153.2135,-87 1166.1634,-70.63 1170.7937,-46.7536 1172.4141,-29.9382"/>
<polygon fill="#191970" stroke="#191970" points="1175.9303,-29.8192 1173.1203,-19.6038 1168.9466,-29.3419 1175.9303,-29.8192"/>
</g>
<!-- Node23&#45;&gt;Node7 -->
<g id="edge40" class="edge">
<title>Node23&#45;&gt;Node7</title>
<path fill="none" stroke="#191970" d="M1024.6075,-130.2053C978.917,-125.8212 904.3212,-114.7266 846.2135,-87 826.5423,-77.6137 828.4902,-63.9949 808.2135,-56 746.8916,-31.8212 281.235,-15.1588 153.5219,-11.01"/>
<polygon fill="#191970" stroke="#191970" points="153.342,-7.5025 143.2347,-10.6792 153.117,-14.4988 153.342,-7.5025"/>
</g>
<!-- Node23&#45;&gt;Node9 -->
<g id="edge37" class="edge">
<title>Node23&#45;&gt;Node9</title>
<path fill="none" stroke="#191970" d="M1108.0589,-125.5712C1146.3206,-118.0985 1204.1083,-105.0888 1252.2135,-87 1253.4482,-86.5357 1254.6975,-86.0334 1255.9495,-85.5031"/>
<polygon fill="#191970" stroke="#191970" points="1257.834,-88.4849 1265.3962,-81.0644 1254.8571,-82.1494 1257.834,-88.4849"/>
</g>
<!-- Node23&#45;&gt;Node13 -->
<g id="edge35" class="edge">
<title>Node23&#45;&gt;Node13</title>
<path fill="none" stroke="#191970" d="M1063.8698,-123.3906C1061.7687,-114.776 1058.6211,-101.8708 1055.9906,-91.0858"/>
<polygon fill="#191970" stroke="#191970" points="1059.3603,-90.1307 1053.5903,-81.2449 1052.5596,-91.7894 1059.3603,-90.1307"/>
</g>
<!-- Node23&#45;&gt;Node15 -->
<g id="edge36" class="edge">
<title>Node23&#45;&gt;Node15</title>
<path fill="none" stroke="#191970" d="M1074.8073,-123.3906C1083.0732,-114.1478 1095.7561,-99.966 1105.7752,-88.7628"/>
<polygon fill="#191970" stroke="#191970" points="1108.4413,-91.0321 1112.4986,-81.2449 1103.2235,-86.3657 1108.4413,-91.0321"/>
</g>
<!-- Node24 -->
<g id="node25" class="node">
<title>Node24</title>
<polygon fill="#ffffff" stroke="#bfbfbf" points="1201.7135,-62 1201.7135,-81 1242.7135,-81 1242.7135,-62 1201.7135,-62"/>
<text text-anchor="middle" x="1222.2135" y="-69" font-family="Helvetica,sans-Serif" font-size="10.00" fill="#000000">stack</text>
</g>
<!-- Node23&#45;&gt;Node24 -->
<g id="edge38" class="edge">
<title>Node23&#45;&gt;Node24</title>
<path fill="none" stroke="#191970" d="M1092.8105,-123.3551C1117.4344,-114.3157 1154.9962,-100.2467 1187.2135,-87 1188.8193,-86.3398 1190.4618,-85.6529 1192.1168,-84.9516"/>
<polygon fill="#191970" stroke="#191970" points="1193.7762,-88.0473 1201.5643,-80.8642 1190.9966,-81.6228 1193.7762,-88.0473"/>
</g>
</g>
</svg>
