<?xml version="1.0" encoding="UTF-8" standalone="no"?>
<!DOCTYPE svg PUBLIC "-//W3C//DTD SVG 1.1//EN"
 "http://www.w3.org/Graphics/SVG/1.1/DTD/svg11.dtd">
<!-- Generated by graphviz version 2.40.1 (20161225.0304)
 -->
<!-- Title: normal_loop Pages: 1 -->
<svg width="393pt" height="88pt"
 viewBox="0.00 0.00 393.00 88.00" xmlns="http://www.w3.org/2000/svg" xmlns:xlink="http://www.w3.org/1999/xlink">
<g id="graph0" class="graph" transform="scale(1 1) rotate(0) translate(4 84)">
<title>normal_loop</title>
<polygon fill="#ffffff" stroke="transparent" points="-4,4 -4,-84 389,-84 389,4 -4,4"/>
<!-- Node47 -->
<g id="node1" class="node">
<title>Node47</title>
<polygon fill="#bfbfbf" stroke="#000000" points="0,-30 0,-49 69,-49 69,-30 0,-30"/>
<text text-anchor="middle" x="34.5" y="-37" font-family="Helvetica,sans-Serif" font-size="10.00" fill="#000000">normal_loop</text>
</g>
<!-- Node48 -->
<g id="node2" class="node">
<title>Node48</title>
<g id="a_node2"><a xlink:href="class_my___dictionary.html#aea4b0e17845cec47e417eea4b64a0978" target="_top" xlink:title="My_Dictionary::spell">
<polygon fill="#ffffff" stroke="#000000" points="116,-53 116,-72 222,-72 222,-53 116,-53"/>
<text text-anchor="middle" x="169" y="-60" font-family="Helvetica,sans-Serif" font-size="10.00" fill="#000000">My_Dictionary::spell</text>
</a>
</g>
</g>
<!-- Node47&#45;&gt;Node48 -->
<g id="edge1" class="edge">
<title>Node47&#45;&gt;Node48</title>
<path fill="none" stroke="#191970" d="M69.1371,-45.4231C80.3763,-47.345 93.2191,-49.5412 105.8669,-51.704"/>
<polygon fill="#191970" stroke="#191970" points="105.4872,-55.1898 115.9341,-53.4255 106.6671,-48.29 105.4872,-55.1898"/>
</g>
<!-- Node50 -->
<g id="node4" class="node">
<title>Node50</title>
<g id="a_node4"><a xlink:href="classnuspell_1_1_basic___dictionary.html#ac50138a9f4de879a541838170f957977" target="_top" xlink:title="nuspell::Basic_Dictionary\l::suggest">
<polygon fill="#ffffff" stroke="#000000" points="105,-2.5 105,-32.5 233,-32.5 233,-2.5 105,-2.5"/>
<text text-anchor="start" x="113" y="-20.5" font-family="Helvetica,sans-Serif" font-size="10.00" fill="#000000">nuspell::Basic_Dictionary</text>
<text text-anchor="middle" x="169" y="-9.5" font-family="Helvetica,sans-Serif" font-size="10.00" fill="#000000">::suggest</text>
</a>
</g>
</g>
<!-- Node47&#45;&gt;Node50 -->
<g id="edge3" class="edge">
<title>Node47&#45;&gt;Node50</title>
<path fill="none" stroke="#191970" d="M69.1371,-33.8345C77.1109,-32.5302 85.8918,-31.0939 94.8376,-29.6306"/>
<polygon fill="#191970" stroke="#191970" points="95.6697,-33.0411 104.9736,-27.9727 94.5397,-26.1329 95.6697,-33.0411"/>
</g>
<!-- Node49 -->
<g id="node3" class="node">
<title>Node49</title>
<g id="a_node3"><a xlink:href="classnuspell_1_1_hash___multiset.html#a615f7b3ae53f0cef400668746d8be501" target="_top" xlink:title="nuspell::Hash_Multiset\l::equal_range">
<polygon fill="#ffffff" stroke="#000000" points="269,-49.5 269,-79.5 385,-79.5 385,-49.5 269,-49.5"/>
<text text-anchor="start" x="277" y="-67.5" font-family="Helvetica,sans-Serif" font-size="10.00" fill="#000000">nuspell::Hash_Multiset</text>
<text text-anchor="middle" x="327" y="-56.5" font-family="Helvetica,sans-Serif" font-size="10.00" fill="#000000">::equal_range</text>
</a>
</g>
</g>
<!-- Node48&#45;&gt;Node49 -->
<g id="edge2" class="edge">
<title>Node48&#45;&gt;Node49</title>
<path fill="none" stroke="#191970" d="M222.0512,-63.1715C233.8178,-63.3205 246.4483,-63.4804 258.7266,-63.6358"/>
<polygon fill="#191970" stroke="#191970" points="258.8873,-67.138 268.9308,-63.7649 258.9759,-60.1386 258.8873,-67.138"/>
</g>
<!-- Node51 -->
<g id="node5" class="node">
<title>Node51</title>
<g id="a_node5"><a xlink:href="classnuspell_1_1_list___strings.html#a3baa052822894e35652f895e6324d4fb" target="_top" xlink:title="nuspell::List_Strings\l::clear">
<polygon fill="#ffffff" stroke="#000000" points="274.5,-.5 274.5,-30.5 379.5,-30.5 379.5,-.5 274.5,-.5"/>
<text text-anchor="start" x="282.5" y="-18.5" font-family="Helvetica,sans-Serif" font-size="10.00" fill="#000000">nuspell::List_Strings</text>
<text text-anchor="middle" x="327" y="-7.5" font-family="Helvetica,sans-Serif" font-size="10.00" fill="#000000">::clear</text>
</a>
</g>
</g>
<!-- Node50&#45;&gt;Node51 -->
<g id="edge4" class="edge">
<title>Node50&#45;&gt;Node51</title>
<path fill="none" stroke="#191970" d="M233.2646,-16.6865C243.517,-16.5567 254.1125,-16.4226 264.3273,-16.2933"/>
<polygon fill="#191970" stroke="#191970" points="264.4334,-19.7924 274.3883,-16.166 264.3448,-12.7929 264.4334,-19.7924"/>
</g>
</g>
</svg>
