<?xml version="1.0" encoding="UTF-8" standalone="no"?>
<!DOCTYPE svg PUBLIC "-//W3C//DTD SVG 1.1//EN"
 "http://www.w3.org/Graphics/SVG/1.1/DTD/svg11.dtd">
<!-- Generated by graphviz version 2.40.1 (20161225.0304)
 -->
<!-- Title: main Pages: 1 -->
<svg width="576pt" height="458pt"
 viewBox="0.00 0.00 576.00 457.50" xmlns="http://www.w3.org/2000/svg" xmlns:xlink="http://www.w3.org/1999/xlink">
<g id="graph0" class="graph" transform="scale(1 1) rotate(0) translate(4 453.5)">
<title>main</title>
<polygon fill="#ffffff" stroke="transparent" points="-4,4 -4,-453.5 572,-453.5 572,4 -4,4"/>
<!-- Node15 -->
<g id="node1" class="node">
<title>Node15</title>
<polygon fill="#bfbfbf" stroke="#000000" points="0,-209.5 0,-228.5 38,-228.5 38,-209.5 0,-209.5"/>
<text text-anchor="middle" x="19" y="-216.5" font-family="Helvetica,sans-Serif" font-size="10.00" fill="#000000">main</text>
</g>
<!-- Node16 -->
<g id="node2" class="node">
<title>Node16</title>
<g id="a_node2"><a xlink:href="namespacenuspell.html#aae159e86a8a1edad724249d330d985b1" target="_top" xlink:title="nuspell::install_ctype\l_facets_inplace">
<polygon fill="#ffffff" stroke="#000000" points="84,-419 84,-449 192,-449 192,-419 84,-419"/>
<text text-anchor="start" x="92" y="-437" font-family="Helvetica,sans-Serif" font-size="10.00" fill="#000000">nuspell::install_ctype</text>
<text text-anchor="middle" x="138" y="-426" font-family="Helvetica,sans-Serif" font-size="10.00" fill="#000000">_facets_inplace</text>
</a>
</g>
</g>
<!-- Node15&#45;&gt;Node16 -->
<g id="edge1" class="edge">
<title>Node15&#45;&gt;Node16</title>
<path fill="none" stroke="#191970" d="M20.6911,-228.9698C26.8258,-264.0982 48.8742,-381.4873 74,-409 75.2167,-410.3323 76.513,-411.5944 77.8753,-412.7899"/>
<polygon fill="#191970" stroke="#191970" points="76.1616,-415.872 86.3039,-418.9354 80.2856,-410.2158 76.1616,-415.872"/>
</g>
<!-- Node17 -->
<g id="node3" class="node">
<title>Node17</title>
<g id="a_node3"><a xlink:href="main_8cxx.html#af8c650bca476b3f8959df7215c4c134f" target="_top" xlink:title="Prints help information to standard output. ">
<polygon fill="#ffffff" stroke="#000000" points="108.5,-380.5 108.5,-399.5 167.5,-399.5 167.5,-380.5 108.5,-380.5"/>
<text text-anchor="middle" x="138" y="-387.5" font-family="Helvetica,sans-Serif" font-size="10.00" fill="#000000">print_help</text>
</a>
</g>
</g>
<!-- Node15&#45;&gt;Node17 -->
<g id="edge2" class="edge">
<title>Node15&#45;&gt;Node17</title>
<path fill="none" stroke="#191970" d="M19.5968,-228.8035C21.7665,-255.6382 31.5336,-330.9518 74,-371 80.8117,-377.4238 89.6971,-381.6854 98.6694,-384.5097"/>
<polygon fill="#191970" stroke="#191970" points="97.7846,-387.896 108.3452,-387.0446 99.5587,-381.1245 97.7846,-387.896"/>
</g>
<!-- Node18 -->
<g id="node4" class="node">
<title>Node18</title>
<g id="a_node4"><a xlink:href="main_8cxx.html#a6150c93934b2505d7e4521b40fa8d571" target="_top" xlink:title="Prints the version number to standard output. ">
<polygon fill="#ffffff" stroke="#000000" points="102,-342.5 102,-361.5 174,-361.5 174,-342.5 102,-342.5"/>
<text text-anchor="middle" x="138" y="-349.5" font-family="Helvetica,sans-Serif" font-size="10.00" fill="#000000">print_version</text>
</a>
</g>
</g>
<!-- Node15&#45;&gt;Node18 -->
<g id="edge3" class="edge">
<title>Node15&#45;&gt;Node18</title>
<path fill="none" stroke="#191970" d="M20.8667,-228.5617C25.6388,-250.4244 40.3584,-304.3791 74,-333 79.2788,-337.491 85.5834,-340.9206 92.1466,-343.5396"/>
<polygon fill="#191970" stroke="#191970" points="91.2638,-346.9358 101.858,-346.8261 93.5077,-340.3052 91.2638,-346.9358"/>
</g>
<!-- Node19 -->
<g id="node5" class="node">
<title>Node19</title>
<g id="a_node5"><a xlink:href="main_8cxx.html#a52c3a3f99e1d55b225a92fa017bada0d" target="_top" xlink:title="Lists dictionary paths and available dictionaries on the system to standard output. ">
<polygon fill="#ffffff" stroke="#000000" points="96,-304.5 96,-323.5 180,-323.5 180,-304.5 96,-304.5"/>
<text text-anchor="middle" x="138" y="-311.5" font-family="Helvetica,sans-Serif" font-size="10.00" fill="#000000">list_dictionaries</text>
</a>
</g>
</g>
<!-- Node15&#45;&gt;Node19 -->
<g id="edge4" class="edge">
<title>Node15&#45;&gt;Node19</title>
<path fill="none" stroke="#191970" d="M23.4169,-228.7496C31.2569,-244.9553 49.1495,-277.3911 74,-295 77.7724,-297.6731 81.9231,-299.9745 86.2427,-301.9551"/>
<polygon fill="#191970" stroke="#191970" points="85.302,-305.3478 95.8873,-305.7983 87.8933,-298.8451 85.302,-305.3478"/>
</g>
<!-- Node20 -->
<g id="node6" class="node">
<title>Node20</title>
<g id="a_node6"><a xlink:href="main_8cxx.html#a1b26793ef57883beab96fb3f93153e59" target="_top" xlink:title="Normal loop, tokenize and check spelling. ">
<polygon fill="#ffffff" stroke="#000000" points="103.5,-266.5 103.5,-285.5 172.5,-285.5 172.5,-266.5 103.5,-266.5"/>
<text text-anchor="middle" x="138" y="-273.5" font-family="Helvetica,sans-Serif" font-size="10.00" fill="#000000">normal_loop</text>
</a>
</g>
</g>
<!-- Node15&#45;&gt;Node20 -->
<g id="edge5" class="edge">
<title>Node15&#45;&gt;Node20</title>
<path fill="none" stroke="#191970" d="M30.5589,-228.6142C41.2509,-237.0973 57.8797,-249.2806 74,-257 80.1807,-259.9597 86.9203,-262.5658 93.631,-264.8237"/>
<polygon fill="#191970" stroke="#191970" points="92.7843,-268.2262 103.3736,-267.8832 94.8817,-261.5478 92.7843,-268.2262"/>
</g>
<!-- Node25 -->
<g id="node11" class="node">
<title>Node25</title>
<g id="a_node11"><a xlink:href="main_8cxx.html#a79f57b910d5a04abbc65e13b699add8a" target="_top" xlink:title="Normal loop, tokenize and check spelling. ">
<polygon fill="#ffffff" stroke="#000000" points="78.5,-152.5 78.5,-171.5 197.5,-171.5 197.5,-152.5 78.5,-152.5"/>
<text text-anchor="middle" x="138" y="-159.5" font-family="Helvetica,sans-Serif" font-size="10.00" fill="#000000">normal_nosuggest_loop</text>
</a>
</g>
</g>
<!-- Node15&#45;&gt;Node25 -->
<g id="edge10" class="edge">
<title>Node15&#45;&gt;Node25</title>
<path fill="none" stroke="#191970" d="M30.5589,-209.3858C41.2509,-200.9027 57.8797,-188.7194 74,-181 78.714,-178.7427 83.753,-176.6911 88.8563,-174.8427"/>
<polygon fill="#191970" stroke="#191970" points="90.3186,-178.0437 98.681,-171.5382 88.0869,-171.4089 90.3186,-178.0437"/>
</g>
<!-- Node26 -->
<g id="node12" class="node">
<title>Node26</title>
<g id="a_node12"><a xlink:href="main_8cxx.html#a4e73c17f0cea2b14e0f5a32e2e174f11" target="_top" xlink:title="Normal loop, tokenize and check spelling. ">
<polygon fill="#ffffff" stroke="#000000" points="99.5,-228.5 99.5,-247.5 176.5,-247.5 176.5,-228.5 99.5,-228.5"/>
<text text-anchor="middle" x="138" y="-235.5" font-family="Helvetica,sans-Serif" font-size="10.00" fill="#000000">segment_loop</text>
</a>
</g>
</g>
<!-- Node15&#45;&gt;Node26 -->
<g id="edge12" class="edge">
<title>Node15&#45;&gt;Node26</title>
<path fill="none" stroke="#191970" d="M38.1194,-222.0527C51.9139,-224.2552 71.1912,-227.333 89.1347,-230.198"/>
<polygon fill="#191970" stroke="#191970" points="88.7805,-233.6857 99.2073,-231.8062 89.8843,-226.7732 88.7805,-233.6857"/>
</g>
<!-- Node27 -->
<g id="node13" class="node">
<title>Node27</title>
<g id="a_node13"><a xlink:href="main_8cxx.html#a42fbab96f4709cbe51a87aa1c800149d" target="_top" xlink:title="Normal loop, tokenize and check spelling. ">
<polygon fill="#ffffff" stroke="#000000" points="74,-190.5 74,-209.5 202,-209.5 202,-190.5 74,-190.5"/>
<text text-anchor="middle" x="138" y="-197.5" font-family="Helvetica,sans-Serif" font-size="10.00" fill="#000000">segment_nosuggest_loop</text>
</a>
</g>
</g>
<!-- Node15&#45;&gt;Node27 -->
<g id="edge15" class="edge">
<title>Node15&#45;&gt;Node27</title>
<path fill="none" stroke="#191970" d="M38.1194,-215.9473C46.5701,-214.5981 57.0785,-212.9202 68.0773,-211.1641"/>
<polygon fill="#191970" stroke="#191970" points="68.9481,-214.5695 78.2712,-209.5365 67.8444,-207.6571 68.9481,-214.5695"/>
</g>
<!-- Node28 -->
<g id="node14" class="node">
<title>Node28</title>
<g id="a_node14"><a xlink:href="main_8cxx.html#a28035349fd4dce4052b75f480fb2e470" target="_top" xlink:title="Prints misspelled words from in to out. ">
<polygon fill="#ffffff" stroke="#000000" points="81.5,-114.5 81.5,-133.5 194.5,-133.5 194.5,-114.5 81.5,-114.5"/>
<text text-anchor="middle" x="138" y="-121.5" font-family="Helvetica,sans-Serif" font-size="10.00" fill="#000000">misspelled_word_loop</text>
</a>
</g>
</g>
<!-- Node15&#45;&gt;Node28 -->
<g id="edge18" class="edge">
<title>Node15&#45;&gt;Node28</title>
<path fill="none" stroke="#191970" d="M23.4169,-209.2504C31.2569,-193.0447 49.1495,-160.6089 74,-143 76.8282,-140.996 79.869,-139.2008 83.0342,-137.5932"/>
<polygon fill="#191970" stroke="#191970" points="84.4765,-140.7825 92.2104,-133.5411 81.6487,-134.379 84.4765,-140.7825"/>
</g>
<!-- Node29 -->
<g id="node15" class="node">
<title>Node29</title>
<g id="a_node15"><a xlink:href="main_8cxx.html#a9fc952c4c72f78efc086ff2e4475735e" target="_top" xlink:title="misspelled_line_loop">
<polygon fill="#ffffff" stroke="#000000" points="84.5,-38.5 84.5,-57.5 191.5,-57.5 191.5,-38.5 84.5,-38.5"/>
<text text-anchor="middle" x="138" y="-45.5" font-family="Helvetica,sans-Serif" font-size="10.00" fill="#000000">misspelled_line_loop</text>
</a>
</g>
</g>
<!-- Node15&#45;&gt;Node29 -->
<g id="edge20" class="edge">
<title>Node15&#45;&gt;Node29</title>
<path fill="none" stroke="#191970" d="M19.5968,-209.1965C21.7665,-182.3618 31.5336,-107.0482 74,-67 75.6785,-65.417 77.483,-63.9654 79.3837,-62.6342"/>
<polygon fill="#191970" stroke="#191970" points="81.3206,-65.5577 88.241,-57.5353 77.8282,-59.4911 81.3206,-65.5577"/>
</g>
<!-- Node32 -->
<g id="node18" class="node">
<title>Node32</title>
<g id="a_node18"><a xlink:href="main_8cxx.html#a2c5b3bbd78b6902b7996b7a453be4523" target="_top" xlink:title="Prints correct words from in to out. ">
<polygon fill="#ffffff" stroke="#000000" points="90,-76.5 90,-95.5 186,-95.5 186,-76.5 90,-76.5"/>
<text text-anchor="middle" x="138" y="-83.5" font-family="Helvetica,sans-Serif" font-size="10.00" fill="#000000">correct_word_loop</text>
</a>
</g>
</g>
<!-- Node15&#45;&gt;Node32 -->
<g id="edge24" class="edge">
<title>Node15&#45;&gt;Node32</title>
<path fill="none" stroke="#191970" d="M20.8667,-209.4383C25.6388,-187.5756 40.3584,-133.6209 74,-105 76.047,-103.2585 78.2482,-101.6766 80.5589,-100.2397"/>
<polygon fill="#191970" stroke="#191970" points="82.6538,-103.0961 89.9197,-95.3852 79.4311,-96.882 82.6538,-103.0961"/>
</g>
<!-- Node33 -->
<g id="node19" class="node">
<title>Node33</title>
<g id="a_node19"><a xlink:href="main_8cxx.html#aadf259cfd24fcfdebb1ce40e3266aef7" target="_top" xlink:title="correct_line_loop">
<polygon fill="#ffffff" stroke="#000000" points="93,-.5 93,-19.5 183,-19.5 183,-.5 93,-.5"/>
<text text-anchor="middle" x="138" y="-7.5" font-family="Helvetica,sans-Serif" font-size="10.00" fill="#000000">correct_line_loop</text>
</a>
</g>
</g>
<!-- Node15&#45;&gt;Node33 -->
<g id="edge26" class="edge">
<title>Node15&#45;&gt;Node33</title>
<path fill="none" stroke="#191970" d="M20.5322,-209.4391C26.2855,-174.6645 47.6226,-55.5577 74,-29 76.8587,-26.1218 80.132,-23.6754 83.6531,-21.5966"/>
<polygon fill="#191970" stroke="#191970" points="85.351,-24.6631 92.8211,-17.1498 82.2962,-18.3648 85.351,-24.6631"/>
</g>
<!-- Node21 -->
<g id="node7" class="node">
<title>Node21</title>
<g id="a_node7"><a xlink:href="class_my___dictionary.html#aea4b0e17845cec47e417eea4b64a0978" target="_top" xlink:title="My_Dictionary::spell">
<polygon fill="#ffffff" stroke="#000000" points="261,-133.5 261,-152.5 367,-152.5 367,-133.5 261,-133.5"/>
<text text-anchor="middle" x="314" y="-140.5" font-family="Helvetica,sans-Serif" font-size="10.00" fill="#000000">My_Dictionary::spell</text>
</a>
</g>
</g>
<!-- Node20&#45;&gt;Node21 -->
<g id="edge6" class="edge">
<title>Node20&#45;&gt;Node21</title>
<path fill="none" stroke="#191970" d="M172.502,-269.7122C182.5493,-266.8652 193.1844,-262.7906 202,-257 222.8323,-243.3161 220.8613,-232.0969 238,-214 256.6085,-194.3511 279.4774,-173.3738 295.2401,-159.3581"/>
<polygon fill="#191970" stroke="#191970" points="297.5939,-161.9489 302.775,-152.7074 292.9616,-156.7009 297.5939,-161.9489"/>
</g>
<!-- Node23 -->
<g id="node9" class="node">
<title>Node23</title>
<g id="a_node9"><a xlink:href="classnuspell_1_1_dictionary.html#a8a66dd365b5491f00e20827299816c3d" target="_top" xlink:title="nuspell::Dictionary\l::suggest">
<polygon fill="#ffffff" stroke="#000000" points="265,-223 265,-253 363,-253 363,-223 265,-223"/>
<text text-anchor="start" x="273" y="-241" font-family="Helvetica,sans-Serif" font-size="10.00" fill="#000000">nuspell::Dictionary</text>
<text text-anchor="middle" x="314" y="-230" font-family="Helvetica,sans-Serif" font-size="10.00" fill="#000000">::suggest</text>
</a>
</g>
</g>
<!-- Node20&#45;&gt;Node23 -->
<g id="edge8" class="edge">
<title>Node20&#45;&gt;Node23</title>
<path fill="none" stroke="#191970" d="M172.7719,-268.4924C196.2374,-263.426 227.7909,-256.6133 255.121,-250.7125"/>
<polygon fill="#191970" stroke="#191970" points="255.9399,-254.1164 264.976,-248.5847 254.4626,-247.2741 255.9399,-254.1164"/>
</g>
<!-- Node22 -->
<g id="node8" class="node">
<title>Node22</title>
<g id="a_node8"><a xlink:href="classnuspell_1_1_hash___multiset.html#a615f7b3ae53f0cef400668746d8be501" target="_top" xlink:title="nuspell::Hash_Multiset\l::equal_range">
<polygon fill="#ffffff" stroke="#000000" points="439,-128 439,-158 555,-158 555,-128 439,-128"/>
<text text-anchor="start" x="447" y="-146" font-family="Helvetica,sans-Serif" font-size="10.00" fill="#000000">nuspell::Hash_Multiset</text>
<text text-anchor="middle" x="497" y="-135" font-family="Helvetica,sans-Serif" font-size="10.00" fill="#000000">::equal_range</text>
</a>
</g>
</g>
<!-- Node21&#45;&gt;Node22 -->
<g id="edge7" class="edge">
<title>Node21&#45;&gt;Node22</title>
<path fill="none" stroke="#191970" d="M367.4231,-143C386.5562,-143 408.3927,-143 428.6169,-143"/>
<polygon fill="#191970" stroke="#191970" points="428.7086,-146.5001 438.7086,-143 428.7086,-139.5001 428.7086,-146.5001"/>
</g>
<!-- Node24 -->
<g id="node10" class="node">
<title>Node24</title>
<g id="a_node10"><a xlink:href="classnuspell_1_1_list___strings.html#a3baa052822894e35652f895e6324d4fb" target="_top" xlink:title="nuspell::List_Strings\l::clear">
<polygon fill="#ffffff" stroke="#000000" points="444.5,-223 444.5,-253 549.5,-253 549.5,-223 444.5,-223"/>
<text text-anchor="start" x="452.5" y="-241" font-family="Helvetica,sans-Serif" font-size="10.00" fill="#000000">nuspell::List_Strings</text>
<text text-anchor="middle" x="497" y="-230" font-family="Helvetica,sans-Serif" font-size="10.00" fill="#000000">::clear</text>
</a>
</g>
</g>
<!-- Node23&#45;&gt;Node24 -->
<g id="edge9" class="edge">
<title>Node23&#45;&gt;Node24</title>
<path fill="none" stroke="#191970" d="M363.0406,-238C384.898,-238 410.9087,-238 434.1697,-238"/>
<polygon fill="#191970" stroke="#191970" points="434.2933,-241.5001 444.2932,-238 434.2932,-234.5001 434.2933,-241.5001"/>
</g>
<!-- Node25&#45;&gt;Node21 -->
<g id="edge11" class="edge">
<title>Node25&#45;&gt;Node21</title>
<path fill="none" stroke="#191970" d="M197.5856,-155.5675C214.7584,-153.7136 233.5486,-151.6851 250.9254,-149.8092"/>
<polygon fill="#191970" stroke="#191970" points="251.4039,-153.278 260.9704,-148.7248 250.6525,-146.3184 251.4039,-153.278"/>
</g>
<!-- Node26&#45;&gt;Node21 -->
<g id="edge13" class="edge">
<title>Node26&#45;&gt;Node21</title>
<path fill="none" stroke="#191970" d="M176.6203,-228.6224C185.1646,-225.9776 194.0393,-222.771 202,-219 236.7164,-202.5546 272.7663,-176.121 294.2897,-159.1619"/>
<polygon fill="#191970" stroke="#191970" points="296.6932,-161.7214 302.3174,-152.7426 292.3215,-156.2544 296.6932,-161.7214"/>
</g>
<!-- Node26&#45;&gt;Node23 -->
<g id="edge14" class="edge">
<title>Node26&#45;&gt;Node23</title>
<path fill="none" stroke="#191970" d="M176.6239,-238C199.4925,-238 228.9387,-238 254.7,-238"/>
<polygon fill="#191970" stroke="#191970" points="254.7402,-241.5001 264.7402,-238 254.7401,-234.5001 254.7402,-241.5001"/>
</g>
<!-- Node27&#45;&gt;Node21 -->
<g id="edge16" class="edge">
<title>Node27&#45;&gt;Node21</title>
<path fill="none" stroke="#191970" d="M170.9618,-190.4785C180.9562,-187.5205 191.9486,-184.1959 202,-181 227.2838,-172.961 255.5769,-163.3565 277.4004,-155.8147"/>
<polygon fill="#191970" stroke="#191970" points="278.6365,-159.0906 286.9381,-152.5077 276.3433,-152.4768 278.6365,-159.0906"/>
</g>
<!-- Node27&#45;&gt;Node23 -->
<g id="edge17" class="edge">
<title>Node27&#45;&gt;Node23</title>
<path fill="none" stroke="#191970" d="M182.4122,-209.589C204.4209,-214.3409 231.2959,-220.1434 255.0073,-225.2629"/>
<polygon fill="#191970" stroke="#191970" points="254.4388,-228.7208 264.9523,-227.4101 255.9162,-221.8784 254.4388,-228.7208"/>
</g>
<!-- Node28&#45;&gt;Node21 -->
<g id="edge19" class="edge">
<title>Node28&#45;&gt;Node21</title>
<path fill="none" stroke="#191970" d="M194.6563,-130.1163C212.5465,-132.0476 232.4247,-134.1936 250.7454,-136.1714"/>
<polygon fill="#191970" stroke="#191970" points="250.4229,-139.6568 260.7409,-137.2504 251.1743,-132.6973 250.4229,-139.6568"/>
</g>
<!-- Node29&#45;&gt;Node21 -->
<g id="edge23" class="edge">
<title>Node29&#45;&gt;Node21</title>
<path fill="none" stroke="#191970" d="M177.2955,-57.5875C185.6311,-60.1916 194.2488,-63.3282 202,-67 236.7164,-83.4454 272.7663,-109.879 294.2897,-126.8381"/>
<polygon fill="#191970" stroke="#191970" points="292.3215,-129.7456 302.3174,-133.2574 296.6932,-124.2786 292.3215,-129.7456"/>
</g>
<!-- Node30 -->
<g id="node16" class="node">
<title>Node30</title>
<g id="a_node16"><a xlink:href="namespacenuspell.html#aa7e4995c62f0034c3f760c93a3d25dd9" target="_top" xlink:title="Splits on whitespace, outputs to vector of strings. ">
<polygon fill="#ffffff" stroke="#000000" points="238,-19.5 238,-38.5 390,-38.5 390,-19.5 238,-19.5"/>
<text text-anchor="middle" x="314" y="-26.5" font-family="Helvetica,sans-Serif" font-size="10.00" fill="#000000">nuspell::split_on_whitespace_v</text>
</a>
</g>
</g>
<!-- Node29&#45;&gt;Node30 -->
<g id="edge21" class="edge">
<title>Node29&#45;&gt;Node30</title>
<path fill="none" stroke="#191970" d="M191.7621,-42.1961C203.1348,-40.9684 215.4114,-39.6431 227.6455,-38.3224"/>
<polygon fill="#191970" stroke="#191970" points="228.3249,-41.7694 237.8914,-37.2163 227.5735,-34.8099 228.3249,-41.7694"/>
</g>
<!-- Node31 -->
<g id="node17" class="node">
<title>Node31</title>
<g id="a_node17"><a xlink:href="namespacenuspell.html#aac7e2f7ff54b3d984e221a4c6524338d" target="_top" xlink:title="Splits on whitespace. ">
<polygon fill="#ffffff" stroke="#000000" points="426,-19.5 426,-38.5 568,-38.5 568,-19.5 426,-19.5"/>
<text text-anchor="middle" x="497" y="-26.5" font-family="Helvetica,sans-Serif" font-size="10.00" fill="#000000">nuspell::split_on_whitespace</text>
</a>
</g>
</g>
<!-- Node30&#45;&gt;Node31 -->
<g id="edge22" class="edge">
<title>Node30&#45;&gt;Node31</title>
<path fill="none" stroke="#191970" d="M390.0187,-29C398.5591,-29 407.2849,-29 415.8866,-29"/>
<polygon fill="#191970" stroke="#191970" points="415.9088,-32.5001 425.9087,-29 415.9087,-25.5001 415.9088,-32.5001"/>
</g>
<!-- Node32&#45;&gt;Node21 -->
<g id="edge25" class="edge">
<title>Node32&#45;&gt;Node21</title>
<path fill="none" stroke="#191970" d="M170.9618,-95.5215C180.9562,-98.4795 191.9486,-101.8041 202,-105 227.2838,-113.039 255.5769,-122.6435 277.4004,-130.1853"/>
<polygon fill="#191970" stroke="#191970" points="276.3433,-133.5232 286.9381,-133.4923 278.6365,-126.9094 276.3433,-133.5232"/>
</g>
<!-- Node33&#45;&gt;Node21 -->
<g id="edge28" class="edge">
<title>Node33&#45;&gt;Node21</title>
<path fill="none" stroke="#191970" d="M181.2726,-19.5803C188.4646,-22.0783 195.643,-25.1772 202,-29 244.5647,-54.5966 282.3672,-100.1399 301.254,-125.2168"/>
<polygon fill="#191970" stroke="#191970" points="298.5776,-127.4846 307.3302,-133.4548 304.211,-123.3295 298.5776,-127.4846"/>
</g>
<!-- Node33&#45;&gt;Node30 -->
<g id="edge27" class="edge">
<title>Node33&#45;&gt;Node30</title>
<path fill="none" stroke="#191970" d="M183.3244,-14.893C196.9429,-16.3632 212.3607,-18.0276 227.7091,-19.6845"/>
<polygon fill="#191970" stroke="#191970" points="227.4476,-23.1765 237.7655,-20.7701 228.199,-16.217 227.4476,-23.1765"/>
</g>
</g>
</svg>
