<?xml version="1.0" encoding="UTF-8" standalone="no"?>
<!DOCTYPE svg PUBLIC "-//W3C//DTD SVG 1.1//EN"
 "http://www.w3.org/Graphics/SVG/1.1/DTD/svg11.dtd">
<!-- Generated by graphviz version 2.40.1 (20161225.0304)
 -->
<!-- Title: correct_word_loop Pages: 1 -->
<svg width="562pt" height="104pt"
 viewBox="0.00 0.00 562.00 104.00" xmlns="http://www.w3.org/2000/svg" xmlns:xlink="http://www.w3.org/1999/xlink">
<g id="graph0" class="graph" transform="scale(1 1) rotate(0) translate(4 100)">
<title>correct_word_loop</title>
<polygon fill="#ffffff" stroke="transparent" points="-4,4 -4,-100 558,-100 558,4 -4,4"/>
<!-- Node10 -->
<g id="node1" class="node">
<title>Node10</title>
<polygon fill="#bfbfbf" stroke="#000000" points="0,-38.5 0,-57.5 96,-57.5 96,-38.5 0,-38.5"/>
<text text-anchor="middle" x="48" y="-45.5" font-family="Helvetica,sans-Serif" font-size="10.00" fill="#000000">correct_word_loop</text>
</g>
<!-- Node11 -->
<g id="node2" class="node">
<title>Node11</title>
<g id="a_node2"><a xlink:href="classnuspell_1_1_basic___dictionary.html#a05ed25f4b65c93f0389295303e43e509" target="_top" xlink:title="nuspell::Basic_Dictionary\l::spell">
<polygon fill="#ffffff" stroke="#000000" points="132,-33 132,-63 260,-63 260,-33 132,-33"/>
<text text-anchor="start" x="140" y="-51" font-family="Helvetica,sans-Serif" font-size="10.00" fill="#000000">nuspell::Basic_Dictionary</text>
<text text-anchor="middle" x="196" y="-40" font-family="Helvetica,sans-Serif" font-size="10.00" fill="#000000">::spell</text>
</a>
</g>
</g>
<!-- Node10&#45;&gt;Node11 -->
<g id="edge1" class="edge">
<title>Node10&#45;&gt;Node11</title>
<path fill="none" stroke="#191970" d="M96.0514,-48C104.2412,-48 112.9166,-48 121.5994,-48"/>
<polygon fill="#191970" stroke="#191970" points="121.7669,-51.5001 131.7669,-48 121.7668,-44.5001 121.7669,-51.5001"/>
</g>
<!-- Node12 -->
<g id="node3" class="node">
<title>Node12</title>
<g id="a_node3"><a xlink:href="namespacenuspell.html#a79258aeb32a39ce719a014950b33e5d6" target="_top" xlink:title="nuspell::utf8_to_wide">
<polygon fill="#ffffff" stroke="#000000" points="296,-76.5 296,-95.5 405,-95.5 405,-76.5 296,-76.5"/>
<text text-anchor="middle" x="350.5" y="-83.5" font-family="Helvetica,sans-Serif" font-size="10.00" fill="#000000">nuspell::utf8_to_wide</text>
</a>
</g>
</g>
<!-- Node11&#45;&gt;Node12 -->
<g id="edge2" class="edge">
<title>Node11&#45;&gt;Node12</title>
<path fill="none" stroke="#191970" d="M257.0625,-63.0186C271.8587,-66.6578 287.4845,-70.501 301.6345,-73.9813"/>
<polygon fill="#191970" stroke="#191970" points="301.0975,-77.4535 311.644,-76.4432 302.7694,-70.656 301.0975,-77.4535"/>
</g>
<!-- Node14 -->
<g id="node5" class="node">
<title>Node14</title>
<g id="a_node5"><a xlink:href="namespacenuspell.html#a7aade2ec1cb243eb5b3714007d59d63c" target="_top" xlink:title="nuspell::to_wide">
<polygon fill="#ffffff" stroke="#000000" points="307,-38.5 307,-57.5 394,-57.5 394,-38.5 307,-38.5"/>
<text text-anchor="middle" x="350.5" y="-45.5" font-family="Helvetica,sans-Serif" font-size="10.00" fill="#000000">nuspell::to_wide</text>
</a>
</g>
</g>
<!-- Node11&#45;&gt;Node14 -->
<g id="edge4" class="edge">
<title>Node11&#45;&gt;Node14</title>
<path fill="none" stroke="#191970" d="M260.1797,-48C272.3632,-48 284.9935,-48 296.8104,-48"/>
<polygon fill="#191970" stroke="#191970" points="296.9539,-51.5001 306.9539,-48 296.9538,-44.5001 296.9539,-51.5001"/>
</g>
<!-- Node15 -->
<g id="node6" class="node">
<title>Node15</title>
<g id="a_node6"><a xlink:href="namespacenuspell.html#a9bf8e1a3f71282ed001fcf4f224ef9dd" target="_top" xlink:title="nuspell::to_narrow">
<polygon fill="#ffffff" stroke="#000000" points="302.5,-.5 302.5,-19.5 398.5,-19.5 398.5,-.5 302.5,-.5"/>
<text text-anchor="middle" x="350.5" y="-7.5" font-family="Helvetica,sans-Serif" font-size="10.00" fill="#000000">nuspell::to_narrow</text>
</a>
</g>
</g>
<!-- Node11&#45;&gt;Node15 -->
<g id="edge5" class="edge">
<title>Node11&#45;&gt;Node15</title>
<path fill="none" stroke="#191970" d="M257.0625,-32.9814C271.8587,-29.3422 287.4845,-25.499 301.6345,-22.0187"/>
<polygon fill="#191970" stroke="#191970" points="302.7694,-25.344 311.644,-19.5568 301.0975,-18.5465 302.7694,-25.344"/>
</g>
<!-- Node13 -->
<g id="node4" class="node">
<title>Node13</title>
<g id="a_node4"><a xlink:href="namespacenuspell.html#aae8baee1ca83bf5a5e0d07a4e8fdbf81" target="_top" xlink:title="nuspell::utf_to_utf_my">
<polygon fill="#ffffff" stroke="#000000" points="441,-76.5 441,-95.5 554,-95.5 554,-76.5 441,-76.5"/>
<text text-anchor="middle" x="497.5" y="-83.5" font-family="Helvetica,sans-Serif" font-size="10.00" fill="#000000">nuspell::utf_to_utf_my</text>
</a>
</g>
</g>
<!-- Node12&#45;&gt;Node13 -->
<g id="edge3" class="edge">
<title>Node12&#45;&gt;Node13</title>
<path fill="none" stroke="#191970" d="M405.2374,-86C413.4781,-86 422.0561,-86 430.5179,-86"/>
<polygon fill="#191970" stroke="#191970" points="430.7514,-89.5001 440.7514,-86 430.7514,-82.5001 430.7514,-89.5001"/>
</g>
</g>
</svg>
