<?xml version="1.0" encoding="UTF-8" standalone="no"?>
<!DOCTYPE svg PUBLIC "-//W3C//DTD SVG 1.1//EN"
 "http://www.w3.org/Graphics/SVG/1.1/DTD/svg11.dtd">
<!-- Generated by graphviz version 2.40.1 (20161225.0304)
 -->
<!-- Title: misspelled_word_loop Pages: 1 -->
<svg width="415pt" height="39pt"
 viewBox="0.00 0.00 415.00 39.00" xmlns="http://www.w3.org/2000/svg" xmlns:xlink="http://www.w3.org/1999/xlink">
<g id="graph0" class="graph" transform="scale(1 1) rotate(0) translate(4 35)">
<title>misspelled_word_loop</title>
<polygon fill="#ffffff" stroke="transparent" points="-4,4 -4,-35 411,-35 411,4 -4,4"/>
<!-- Node42 -->
<g id="node1" class="node">
<title>Node42</title>
<polygon fill="#bfbfbf" stroke="#000000" points="0,-6 0,-25 113,-25 113,-6 0,-6"/>
<text text-anchor="middle" x="56.5" y="-13" font-family="Helvetica,sans-Serif" font-size="10.00" fill="#000000">misspelled_word_loop</text>
</g>
<!-- Node43 -->
<g id="node2" class="node">
<title>Node43</title>
<g id="a_node2"><a xlink:href="class_my___dictionary.html#aea4b0e17845cec47e417eea4b64a0978" target="_top" xlink:title="My_Dictionary::spell">
<polygon fill="#ffffff" stroke="#000000" points="149,-6 149,-25 255,-25 255,-6 149,-6"/>
<text text-anchor="middle" x="202" y="-13" font-family="Helvetica,sans-Serif" font-size="10.00" fill="#000000">My_Dictionary::spell</text>
</a>
</g>
</g>
<!-- Node42&#45;&gt;Node43 -->
<g id="edge1" class="edge">
<title>Node42&#45;&gt;Node43</title>
<path fill="none" stroke="#191970" d="M113.1707,-15.5C121.453,-15.5 130.0279,-15.5 138.4365,-15.5"/>
<polygon fill="#191970" stroke="#191970" points="138.5797,-19.0001 148.5797,-15.5 138.5796,-12.0001 138.5797,-19.0001"/>
</g>
<!-- Node44 -->
<g id="node3" class="node">
<title>Node44</title>
<g id="a_node3"><a xlink:href="classnuspell_1_1_hash___multiset.html#a615f7b3ae53f0cef400668746d8be501" target="_top" xlink:title="nuspell::Hash_Multiset\l::equal_range">
<polygon fill="#ffffff" stroke="#000000" points="291,-.5 291,-30.5 407,-30.5 407,-.5 291,-.5"/>
<text text-anchor="start" x="299" y="-18.5" font-family="Helvetica,sans-Serif" font-size="10.00" fill="#000000">nuspell::Hash_Multiset</text>
<text text-anchor="middle" x="349" y="-7.5" font-family="Helvetica,sans-Serif" font-size="10.00" fill="#000000">::equal_range</text>
</a>
</g>
</g>
<!-- Node43&#45;&gt;Node44 -->
<g id="edge2" class="edge">
<title>Node43&#45;&gt;Node44</title>
<path fill="none" stroke="#191970" d="M255.0704,-15.5C263.4048,-15.5 272.1199,-15.5 280.7385,-15.5"/>
<polygon fill="#191970" stroke="#191970" points="280.783,-19.0001 290.783,-15.5 280.7829,-12.0001 280.783,-19.0001"/>
</g>
</g>
</svg>
