<?xml version="1.0" encoding="UTF-8" standalone="no"?>
<!DOCTYPE svg PUBLIC "-//W3C//DTD SVG 1.1//EN"
 "http://www.w3.org/Graphics/SVG/1.1/DTD/svg11.dtd">
<!-- Generated by graphviz version 2.40.1 (20161225.0304)
 -->
<!-- Title: correct_line_loop Pages: 1 -->
<svg width="464pt" height="78pt"
 viewBox="0.00 0.00 464.00 77.50" xmlns="http://www.w3.org/2000/svg" xmlns:xlink="http://www.w3.org/1999/xlink">
<g id="graph0" class="graph" transform="scale(1 1) rotate(0) translate(4 73.5)">
<title>correct_line_loop</title>
<polygon fill="#ffffff" stroke="transparent" points="-4,4 -4,-73.5 460,-73.5 460,4 -4,4"/>
<!-- Node0 -->
<g id="node1" class="node">
<title>Node0</title>
<polygon fill="#bfbfbf" stroke="#000000" points="0,-28 0,-47 90,-47 90,-28 0,-28"/>
<text text-anchor="middle" x="45" y="-35" font-family="Helvetica,sans-Serif" font-size="10.00" fill="#000000">correct_line_loop</text>
</g>
<!-- Node1 -->
<g id="node2" class="node">
<title>Node1</title>
<g id="a_node2"><a xlink:href="namespacenuspell.html#aa7e4995c62f0034c3f760c93a3d25dd9" target="_top" xlink:title="Splits on whitespace, outputs to vector of strings. ">
<polygon fill="#ffffff" stroke="#000000" points="126,-48 126,-67 278,-67 278,-48 126,-48"/>
<text text-anchor="middle" x="202" y="-55" font-family="Helvetica,sans-Serif" font-size="10.00" fill="#000000">nuspell::split_on_whitespace_v</text>
</a>
</g>
</g>
<!-- Node0&#45;&gt;Node1 -->
<g id="edge1" class="edge">
<title>Node0&#45;&gt;Node1</title>
<path fill="none" stroke="#191970" d="M90.4109,-43.2848C98.9238,-44.3693 108.0722,-45.5347 117.3357,-46.7147"/>
<polygon fill="#191970" stroke="#191970" points="117.0461,-50.206 127.4082,-47.9979 117.9307,-43.2622 117.0461,-50.206"/>
</g>
<!-- Node3 -->
<g id="node4" class="node">
<title>Node3</title>
<g id="a_node4"><a xlink:href="class_my___dictionary.html#aea4b0e17845cec47e417eea4b64a0978" target="_top" xlink:title="My_Dictionary::spell">
<polygon fill="#ffffff" stroke="#000000" points="149,-9 149,-28 255,-28 255,-9 149,-9"/>
<text text-anchor="middle" x="202" y="-16" font-family="Helvetica,sans-Serif" font-size="10.00" fill="#000000">My_Dictionary::spell</text>
</a>
</g>
</g>
<!-- Node0&#45;&gt;Node3 -->
<g id="edge3" class="edge">
<title>Node0&#45;&gt;Node3</title>
<path fill="none" stroke="#191970" d="M90.4109,-32.0044C105.5603,-30.171 122.7223,-28.0941 138.9645,-26.1285"/>
<polygon fill="#191970" stroke="#191970" points="139.4254,-29.5983 148.9325,-24.9222 138.5844,-22.649 139.4254,-29.5983"/>
</g>
<!-- Node2 -->
<g id="node3" class="node">
<title>Node2</title>
<g id="a_node3"><a xlink:href="namespacenuspell.html#aac7e2f7ff54b3d984e221a4c6524338d" target="_top" xlink:title="Splits on whitespace. ">
<polygon fill="#ffffff" stroke="#000000" points="314,-50 314,-69 456,-69 456,-50 314,-50"/>
<text text-anchor="middle" x="385" y="-57" font-family="Helvetica,sans-Serif" font-size="10.00" fill="#000000">nuspell::split_on_whitespace</text>
</a>
</g>
</g>
<!-- Node1&#45;&gt;Node2 -->
<g id="edge2" class="edge">
<title>Node1&#45;&gt;Node2</title>
<path fill="none" stroke="#191970" d="M278.0187,-58.3308C286.5591,-58.4241 295.2849,-58.5195 303.8866,-58.6135"/>
<polygon fill="#191970" stroke="#191970" points="303.871,-62.1135 313.9087,-58.723 303.9476,-55.1139 303.871,-62.1135"/>
</g>
<!-- Node4 -->
<g id="node5" class="node">
<title>Node4</title>
<g id="a_node5"><a xlink:href="classnuspell_1_1_hash___multiset.html#a615f7b3ae53f0cef400668746d8be501" target="_top" xlink:title="nuspell::Hash_Multiset\l::equal_range">
<polygon fill="#ffffff" stroke="#000000" points="327,-.5 327,-30.5 443,-30.5 443,-.5 327,-.5"/>
<text text-anchor="start" x="335" y="-18.5" font-family="Helvetica,sans-Serif" font-size="10.00" fill="#000000">nuspell::Hash_Multiset</text>
<text text-anchor="middle" x="385" y="-7.5" font-family="Helvetica,sans-Serif" font-size="10.00" fill="#000000">::equal_range</text>
</a>
</g>
</g>
<!-- Node3&#45;&gt;Node4 -->
<g id="edge4" class="edge">
<title>Node3&#45;&gt;Node4</title>
<path fill="none" stroke="#191970" d="M255.4231,-17.6242C274.5562,-17.3106 296.3927,-16.9526 316.6169,-16.621"/>
<polygon fill="#191970" stroke="#191970" points="316.7673,-20.1191 326.7086,-16.4556 316.6525,-13.1201 316.7673,-20.1191"/>
</g>
</g>
</svg>
