<?xml version="1.0" encoding="UTF-8" standalone="no"?>
<!DOCTYPE svg PUBLIC "-//W3C//DTD SVG 1.1//EN"
 "http://www.w3.org/Graphics/SVG/1.1/DTD/svg11.dtd">
<!-- Generated by graphviz version 2.40.1 (20161225.0304)
 -->
<!-- Title: crude_parse_loop Pages: 1 -->
<svg width="479pt" height="78pt"
 viewBox="0.00 0.00 479.00 77.50" xmlns="http://www.w3.org/2000/svg" xmlns:xlink="http://www.w3.org/1999/xlink">
<g id="graph0" class="graph" transform="scale(1 1) rotate(0) translate(4 73.5)">
<title>crude_parse_loop</title>
<polygon fill="#ffffff" stroke="transparent" points="-4,4 -4,-73.5 475,-73.5 475,4 -4,4"/>
<!-- Node10 -->
<g id="node1" class="node">
<title>Node10</title>
<polygon fill="#bfbfbf" stroke="#000000" points="0,-28 0,-47 93,-47 93,-28 0,-28"/>
<text text-anchor="middle" x="46.5" y="-35" font-family="Helvetica,sans-Serif" font-size="10.00" fill="#000000">crude_parse_loop</text>
</g>
<!-- Node11 -->
<g id="node2" class="node">
<title>Node11</title>
<g id="a_node2"><a xlink:href="namespacenuspell.html#ae7511832ec3d132234e782cd89bc18e3" target="_top" xlink:title="nuspell::parse_on_whitespace_v">
<polygon fill="#ffffff" stroke="#000000" points="129,-50 129,-69 287,-69 287,-50 129,-50"/>
<text text-anchor="middle" x="208" y="-57" font-family="Helvetica,sans-Serif" font-size="10.00" fill="#000000">nuspell::parse_on_whitespace_v</text>
</a>
</g>
</g>
<!-- Node10&#45;&gt;Node11 -->
<g id="edge1" class="edge">
<title>Node10&#45;&gt;Node11</title>
<path fill="none" stroke="#191970" d="M93.2125,-43.8633C104.2023,-45.3604 116.2216,-46.9977 128.2126,-48.6311"/>
<polygon fill="#191970" stroke="#191970" points="127.8743,-52.1173 138.2552,-49.9992 128.8191,-45.1813 127.8743,-52.1173"/>
</g>
<!-- Node13 -->
<g id="node4" class="node">
<title>Node13</title>
<g id="a_node4"><a xlink:href="classnuspell_1_1_basic___dictionary.html#a05ed25f4b65c93f0389295303e43e509" target="_top" xlink:title="nuspell::Basic_Dictionary\l::spell">
<polygon fill="#ffffff" stroke="#000000" points="144,-.5 144,-30.5 272,-30.5 272,-.5 144,-.5"/>
<text text-anchor="start" x="152" y="-18.5" font-family="Helvetica,sans-Serif" font-size="10.00" fill="#000000">nuspell::Basic_Dictionary</text>
<text text-anchor="middle" x="208" y="-7.5" font-family="Helvetica,sans-Serif" font-size="10.00" fill="#000000">::spell</text>
</a>
</g>
</g>
<!-- Node10&#45;&gt;Node13 -->
<g id="edge3" class="edge">
<title>Node10&#45;&gt;Node13</title>
<path fill="none" stroke="#191970" d="M93.2125,-31.1367C105.9563,-29.4007 120.0845,-27.4761 133.9475,-25.5876"/>
<polygon fill="#191970" stroke="#191970" points="134.5355,-29.04 143.9716,-24.2221 133.5907,-22.104 134.5355,-29.04"/>
</g>
<!-- Node12 -->
<g id="node3" class="node">
<title>Node12</title>
<g id="a_node3"><a xlink:href="namespacenuspell.html#a18195df0ca9db9b03c0824af311d4f9b" target="_top" xlink:title="Parses on whitespace. ">
<polygon fill="#ffffff" stroke="#000000" points="323,-50 323,-69 471,-69 471,-50 323,-50"/>
<text text-anchor="middle" x="397" y="-57" font-family="Helvetica,sans-Serif" font-size="10.00" fill="#000000">nuspell::parse_on_whitespace</text>
</a>
</g>
</g>
<!-- Node11&#45;&gt;Node12 -->
<g id="edge2" class="edge">
<title>Node11&#45;&gt;Node12</title>
<path fill="none" stroke="#191970" d="M287.0579,-59.5C295.4719,-59.5 304.0537,-59.5 312.5268,-59.5"/>
<polygon fill="#191970" stroke="#191970" points="312.7896,-63.0001 322.7896,-59.5 312.7896,-56.0001 312.7896,-63.0001"/>
</g>
</g>
</svg>
