<?xml version="1.0" encoding="UTF-8" standalone="no"?>
<!DOCTYPE svg PUBLIC "-//W3C//DTD SVG 1.1//EN"
 "http://www.w3.org/Graphics/SVG/1.1/DTD/svg11.dtd">
<!-- Generated by graphviz version 2.40.1 (20161225.0304)
 -->
<!-- Title: segment_loop Pages: 1 -->
<svg width="379pt" height="88pt"
 viewBox="0.00 0.00 379.00 88.00" xmlns="http://www.w3.org/2000/svg" xmlns:xlink="http://www.w3.org/1999/xlink">
<g id="graph0" class="graph" transform="scale(1 1) rotate(0) translate(4 84)">
<title>segment_loop</title>
<polygon fill="#ffffff" stroke="transparent" points="-4,4 -4,-84 375,-84 375,4 -4,4"/>
<!-- Node65 -->
<g id="node1" class="node">
<title>Node65</title>
<polygon fill="#bfbfbf" stroke="#000000" points="0,-30 0,-49 77,-49 77,-30 0,-30"/>
<text text-anchor="middle" x="38.5" y="-37" font-family="Helvetica,sans-Serif" font-size="10.00" fill="#000000">segment_loop</text>
</g>
<!-- Node66 -->
<g id="node2" class="node">
<title>Node66</title>
<g id="a_node2"><a xlink:href="class_my___dictionary.html#aea4b0e17845cec47e417eea4b64a0978" target="_top" xlink:title="My_Dictionary::spell">
<polygon fill="#ffffff" stroke="#000000" points="113,-53 113,-72 219,-72 219,-53 113,-53"/>
<text text-anchor="middle" x="166" y="-60" font-family="Helvetica,sans-Serif" font-size="10.00" fill="#000000">My_Dictionary::spell</text>
</a>
</g>
</g>
<!-- Node65&#45;&gt;Node66 -->
<g id="edge1" class="edge">
<title>Node65&#45;&gt;Node66</title>
<path fill="none" stroke="#191970" d="M77.1002,-46.4632C85.3011,-47.9426 94.1633,-49.5412 103.0061,-51.1364"/>
<polygon fill="#191970" stroke="#191970" points="102.4829,-54.5984 112.9454,-52.9294 103.7256,-47.7096 102.4829,-54.5984"/>
</g>
<!-- Node68 -->
<g id="node4" class="node">
<title>Node68</title>
<g id="a_node4"><a xlink:href="classnuspell_1_1_dictionary.html#a8a66dd365b5491f00e20827299816c3d" target="_top" xlink:title="nuspell::Dictionary\l::suggest">
<polygon fill="#ffffff" stroke="#000000" points="117,-2.5 117,-32.5 215,-32.5 215,-2.5 117,-2.5"/>
<text text-anchor="start" x="125" y="-20.5" font-family="Helvetica,sans-Serif" font-size="10.00" fill="#000000">nuspell::Dictionary</text>
<text text-anchor="middle" x="166" y="-9.5" font-family="Helvetica,sans-Serif" font-size="10.00" fill="#000000">::suggest</text>
</a>
</g>
</g>
<!-- Node65&#45;&gt;Node68 -->
<g id="edge3" class="edge">
<title>Node65&#45;&gt;Node68</title>
<path fill="none" stroke="#191970" d="M77.1002,-32.8396C86.4452,-31.2271 96.6489,-29.4665 106.704,-27.7315"/>
<polygon fill="#191970" stroke="#191970" points="107.4132,-31.1609 116.6724,-26.0114 106.2229,-24.2628 107.4132,-31.1609"/>
</g>
<!-- Node67 -->
<g id="node3" class="node">
<title>Node67</title>
<g id="a_node3"><a xlink:href="classnuspell_1_1_hash___multiset.html#a615f7b3ae53f0cef400668746d8be501" target="_top" xlink:title="nuspell::Hash_Multiset\l::equal_range">
<polygon fill="#ffffff" stroke="#000000" points="255,-49.5 255,-79.5 371,-79.5 371,-49.5 255,-49.5"/>
<text text-anchor="start" x="263" y="-67.5" font-family="Helvetica,sans-Serif" font-size="10.00" fill="#000000">nuspell::Hash_Multiset</text>
<text text-anchor="middle" x="313" y="-56.5" font-family="Helvetica,sans-Serif" font-size="10.00" fill="#000000">::equal_range</text>
</a>
</g>
</g>
<!-- Node66&#45;&gt;Node67 -->
<g id="edge2" class="edge">
<title>Node66&#45;&gt;Node67</title>
<path fill="none" stroke="#191970" d="M219.0704,-63.222C227.4048,-63.3354 236.1199,-63.454 244.7385,-63.5713"/>
<polygon fill="#191970" stroke="#191970" points="244.7362,-67.0715 254.783,-63.7079 244.8315,-60.0721 244.7362,-67.0715"/>
</g>
<!-- Node69 -->
<g id="node5" class="node">
<title>Node69</title>
<g id="a_node5"><a xlink:href="classnuspell_1_1_list___strings.html#a3baa052822894e35652f895e6324d4fb" target="_top" xlink:title="nuspell::List_Strings\l::clear">
<polygon fill="#ffffff" stroke="#000000" points="260.5,-.5 260.5,-30.5 365.5,-30.5 365.5,-.5 260.5,-.5"/>
<text text-anchor="start" x="268.5" y="-18.5" font-family="Helvetica,sans-Serif" font-size="10.00" fill="#000000">nuspell::List_Strings</text>
<text text-anchor="middle" x="313" y="-7.5" font-family="Helvetica,sans-Serif" font-size="10.00" fill="#000000">::clear</text>
</a>
</g>
</g>
<!-- Node68&#45;&gt;Node69 -->
<g id="edge4" class="edge">
<title>Node68&#45;&gt;Node69</title>
<path fill="none" stroke="#191970" d="M215.3578,-16.8285C226.5827,-16.6757 238.6528,-16.5115 250.3481,-16.3524"/>
<polygon fill="#191970" stroke="#191970" points="250.5473,-19.8501 260.4987,-16.2143 250.452,-12.8508 250.5473,-19.8501"/>
</g>
</g>
</svg>
