<?xml version="1.0" encoding="UTF-8" standalone="no"?>
<!DOCTYPE svg PUBLIC "-//W3C//DTD SVG 1.1//EN"
 "http://www.w3.org/Graphics/SVG/1.1/DTD/svg11.dtd">
<!-- Generated by graphviz version 2.40.1 (20161225.0304)
 -->
<!-- Title: main Pages: 1 -->
<svg width="579pt" height="420pt"
 viewBox="0.00 0.00 579.00 419.50" xmlns="http://www.w3.org/2000/svg" xmlns:xlink="http://www.w3.org/1999/xlink">
<g id="graph0" class="graph" transform="scale(1 1) rotate(0) translate(4 415.5)">
<title>main</title>
<polygon fill="#ffffff" stroke="transparent" points="-4,4 -4,-415.5 575,-415.5 575,4 -4,4"/>
<!-- Node19 -->
<g id="node1" class="node">
<title>Node19</title>
<polygon fill="#bfbfbf" stroke="#000000" points="0,-190.5 0,-209.5 38,-209.5 38,-190.5 0,-190.5"/>
<text text-anchor="middle" x="19" y="-197.5" font-family="Helvetica,sans-Serif" font-size="10.00" fill="#000000">main</text>
</g>
<!-- Node20 -->
<g id="node2" class="node">
<title>Node20</title>
<g id="a_node2"><a xlink:href="namespacenuspell.html#aae159e86a8a1edad724249d330d985b1" target="_top" xlink:title="nuspell::install_ctype\l_facets_inplace">
<polygon fill="#ffffff" stroke="#000000" points="79.5,-381 79.5,-411 187.5,-411 187.5,-381 79.5,-381"/>
<text text-anchor="start" x="87.5" y="-399" font-family="Helvetica,sans-Serif" font-size="10.00" fill="#000000">nuspell::install_ctype</text>
<text text-anchor="middle" x="133.5" y="-388" font-family="Helvetica,sans-Serif" font-size="10.00" fill="#000000">_facets_inplace</text>
</a>
</g>
</g>
<!-- Node19&#45;&gt;Node20 -->
<g id="edge1" class="edge">
<title>Node19&#45;&gt;Node20</title>
<path fill="none" stroke="#191970" d="M19.4021,-209.9039C21.0838,-238.5854 29.7397,-322.7314 74,-371 75.3347,-372.4555 76.7676,-373.8291 78.2789,-375.1252"/>
<polygon fill="#191970" stroke="#191970" points="76.2388,-377.9691 86.3969,-380.9797 80.3333,-372.2915 76.2388,-377.9691"/>
</g>
<!-- Node21 -->
<g id="node3" class="node">
<title>Node21</title>
<g id="a_node3"><a xlink:href="main_8cxx.html#af8c650bca476b3f8959df7215c4c134f" target="_top" xlink:title="Prints help information to standard output. ">
<polygon fill="#ffffff" stroke="#000000" points="104,-342.5 104,-361.5 163,-361.5 163,-342.5 104,-342.5"/>
<text text-anchor="middle" x="133.5" y="-349.5" font-family="Helvetica,sans-Serif" font-size="10.00" fill="#000000">print_help</text>
</a>
</g>
</g>
<!-- Node19&#45;&gt;Node21 -->
<g id="edge2" class="edge">
<title>Node19&#45;&gt;Node21</title>
<path fill="none" stroke="#191970" d="M20.191,-209.6026C23.7133,-233.8936 36.308,-298.3144 74,-333 79.6503,-338.1997 86.7274,-341.9765 94.0095,-344.7199"/>
<polygon fill="#191970" stroke="#191970" points="93.3622,-348.1857 103.952,-347.8567 95.4684,-341.51 93.3622,-348.1857"/>
</g>
<!-- Node22 -->
<g id="node4" class="node">
<title>Node22</title>
<g id="a_node4"><a xlink:href="main_8cxx.html#a6150c93934b2505d7e4521b40fa8d571" target="_top" xlink:title="Prints the version number to standard output. ">
<polygon fill="#ffffff" stroke="#000000" points="97.5,-304.5 97.5,-323.5 169.5,-323.5 169.5,-304.5 97.5,-304.5"/>
<text text-anchor="middle" x="133.5" y="-311.5" font-family="Helvetica,sans-Serif" font-size="10.00" fill="#000000">print_version</text>
</a>
</g>
</g>
<!-- Node19&#45;&gt;Node22 -->
<g id="edge3" class="edge">
<title>Node19&#45;&gt;Node22</title>
<path fill="none" stroke="#191970" d="M21.9483,-209.643C28.2898,-228.7772 45.0462,-271.7034 74,-295 78.1186,-298.3139 82.8263,-301.0547 87.7494,-303.3205"/>
<polygon fill="#191970" stroke="#191970" points="86.797,-306.7071 97.3838,-307.118 89.3639,-300.1947 86.797,-306.7071"/>
</g>
<!-- Node23 -->
<g id="node5" class="node">
<title>Node23</title>
<g id="a_node5"><a xlink:href="main_8cxx.html#a52c3a3f99e1d55b225a92fa017bada0d" target="_top" xlink:title="Lists dictionary paths and available dictionaries on the system to standard output. ">
<polygon fill="#ffffff" stroke="#000000" points="91.5,-266.5 91.5,-285.5 175.5,-285.5 175.5,-266.5 91.5,-266.5"/>
<text text-anchor="middle" x="133.5" y="-273.5" font-family="Helvetica,sans-Serif" font-size="10.00" fill="#000000">list_dictionaries</text>
</a>
</g>
</g>
<!-- Node19&#45;&gt;Node23 -->
<g id="edge4" class="edge">
<title>Node19&#45;&gt;Node23</title>
<path fill="none" stroke="#191970" d="M26.0591,-209.9099C35.5731,-222.5748 53.6787,-244.3677 74,-257 77.3744,-259.0976 81.0017,-260.984 84.7405,-262.6767"/>
<polygon fill="#191970" stroke="#191970" points="83.6001,-265.9908 94.1829,-266.4951 86.2244,-259.5013 83.6001,-265.9908"/>
</g>
<!-- Node24 -->
<g id="node6" class="node">
<title>Node24</title>
<g id="a_node6"><a xlink:href="main_8cxx.html#a4a642b8579e49cab4ef7293d66f1f5d5" target="_top" xlink:title="Normal loop, tokenize and check spelling. ">
<polygon fill="#ffffff" stroke="#000000" points="99,-76.5 99,-95.5 168,-95.5 168,-76.5 99,-76.5"/>
<text text-anchor="middle" x="133.5" y="-83.5" font-family="Helvetica,sans-Serif" font-size="10.00" fill="#000000">normal_loop</text>
</a>
</g>
</g>
<!-- Node19&#45;&gt;Node24 -->
<g id="edge5" class="edge">
<title>Node19&#45;&gt;Node24</title>
<path fill="none" stroke="#191970" d="M21.9483,-190.357C28.2898,-171.2228 45.0462,-128.2966 74,-105 78.6005,-101.2984 83.9359,-98.3119 89.4854,-95.9037"/>
<polygon fill="#191970" stroke="#191970" points="90.7928,-99.1516 98.9351,-92.3728 88.3426,-92.5944 90.7928,-99.1516"/>
</g>
<!-- Node28 -->
<g id="node10" class="node">
<title>Node28</title>
<g id="a_node10"><a xlink:href="main_8cxx.html#aebf2c62d10a43ada729a73c94fa6f254" target="_top" xlink:title="normal_nosuggest_loop">
<polygon fill="#ffffff" stroke="#000000" points="74,-190.5 74,-209.5 193,-209.5 193,-190.5 74,-190.5"/>
<text text-anchor="middle" x="133.5" y="-197.5" font-family="Helvetica,sans-Serif" font-size="10.00" fill="#000000">normal_nosuggest_loop</text>
</a>
</g>
</g>
<!-- Node19&#45;&gt;Node28 -->
<g id="edge9" class="edge">
<title>Node19&#45;&gt;Node28</title>
<path fill="none" stroke="#191970" d="M38.1647,-200C45.4581,-200 54.2607,-200 63.532,-200"/>
<polygon fill="#191970" stroke="#191970" points="63.727,-203.5001 73.727,-200 63.727,-196.5001 63.727,-203.5001"/>
</g>
<!-- Node29 -->
<g id="node11" class="node">
<title>Node29</title>
<g id="a_node11"><a xlink:href="main_8cxx.html#a3d8ece05cdc365860364604ebebab70d" target="_top" xlink:title="crude_parse_loop">
<polygon fill="#ffffff" stroke="#000000" points="87,-228.5 87,-247.5 180,-247.5 180,-228.5 87,-228.5"/>
<text text-anchor="middle" x="133.5" y="-235.5" font-family="Helvetica,sans-Serif" font-size="10.00" fill="#000000">crude_parse_loop</text>
</a>
</g>
</g>
<!-- Node19&#45;&gt;Node29 -->
<g id="edge11" class="edge">
<title>Node19&#45;&gt;Node29</title>
<path fill="none" stroke="#191970" d="M38.0528,-206.7053C48.6227,-210.3941 62.0166,-215.0174 74,-219 80.2128,-221.0648 86.8046,-223.2124 93.251,-225.289"/>
<polygon fill="#191970" stroke="#191970" points="92.595,-228.754 103.1861,-228.4716 94.7305,-222.0877 92.595,-228.754"/>
</g>
<!-- Node32 -->
<g id="node14" class="node">
<title>Node32</title>
<g id="a_node14"><a xlink:href="main_8cxx.html#aebf1b2aa274390a39317fbbca50d9d5e" target="_top" xlink:title="Prints misspelled words from in to out. ">
<polygon fill="#ffffff" stroke="#000000" points="77,-152.5 77,-171.5 190,-171.5 190,-152.5 77,-152.5"/>
<text text-anchor="middle" x="133.5" y="-159.5" font-family="Helvetica,sans-Serif" font-size="10.00" fill="#000000">misspelled_word_loop</text>
</a>
</g>
</g>
<!-- Node19&#45;&gt;Node32 -->
<g id="edge15" class="edge">
<title>Node19&#45;&gt;Node32</title>
<path fill="none" stroke="#191970" d="M38.0528,-193.2947C48.6227,-189.6059 62.0166,-184.9826 74,-181 80.2128,-178.9352 86.8046,-176.7876 93.251,-174.711"/>
<polygon fill="#191970" stroke="#191970" points="94.7305,-177.9123 103.1861,-171.5284 92.595,-171.246 94.7305,-177.9123"/>
</g>
<!-- Node33 -->
<g id="node15" class="node">
<title>Node33</title>
<g id="a_node15"><a xlink:href="main_8cxx.html#a1f92dedeeb68a1a7bc2b720097d3b7a4" target="_top" xlink:title="misspelled_line_loop">
<polygon fill="#ffffff" stroke="#000000" points="80,-.5 80,-19.5 187,-19.5 187,-.5 80,-.5"/>
<text text-anchor="middle" x="133.5" y="-7.5" font-family="Helvetica,sans-Serif" font-size="10.00" fill="#000000">misspelled_line_loop</text>
</a>
</g>
</g>
<!-- Node19&#45;&gt;Node33 -->
<g id="edge17" class="edge">
<title>Node19&#45;&gt;Node33</title>
<path fill="none" stroke="#191970" d="M20.9543,-190.0687C27.6054,-157.1978 50.27,-52.6804 74,-29 75.468,-27.5351 77.0487,-26.183 78.7171,-24.9351"/>
<polygon fill="#191970" stroke="#191970" points="80.9251,-27.6903 87.6742,-19.5232 77.3051,-21.699 80.9251,-27.6903"/>
</g>
<!-- Node36 -->
<g id="node18" class="node">
<title>Node36</title>
<g id="a_node18"><a xlink:href="main_8cxx.html#a1248d9e693e561e175cf2e5b55499fff" target="_top" xlink:title="correct_word_loop">
<polygon fill="#ffffff" stroke="#000000" points="85.5,-114.5 85.5,-133.5 181.5,-133.5 181.5,-114.5 85.5,-114.5"/>
<text text-anchor="middle" x="133.5" y="-121.5" font-family="Helvetica,sans-Serif" font-size="10.00" fill="#000000">correct_word_loop</text>
</a>
</g>
</g>
<!-- Node19&#45;&gt;Node36 -->
<g id="edge21" class="edge">
<title>Node19&#45;&gt;Node36</title>
<path fill="none" stroke="#191970" d="M26.0591,-190.0901C35.5731,-177.4252 53.6787,-155.6323 74,-143 77.3744,-140.9024 81.0017,-139.016 84.7405,-137.3233"/>
<polygon fill="#191970" stroke="#191970" points="86.2244,-140.4987 94.1829,-133.5049 83.6001,-134.0092 86.2244,-140.4987"/>
</g>
<!-- Node37 -->
<g id="node19" class="node">
<title>Node37</title>
<g id="a_node19"><a xlink:href="main_8cxx.html#a16580c4100b461806a9c49575bdd5428" target="_top" xlink:title="correct_line_loop">
<polygon fill="#ffffff" stroke="#000000" points="88.5,-38.5 88.5,-57.5 178.5,-57.5 178.5,-38.5 88.5,-38.5"/>
<text text-anchor="middle" x="133.5" y="-45.5" font-family="Helvetica,sans-Serif" font-size="10.00" fill="#000000">correct_line_loop</text>
</a>
</g>
</g>
<!-- Node19&#45;&gt;Node37 -->
<g id="edge23" class="edge">
<title>Node19&#45;&gt;Node37</title>
<path fill="none" stroke="#191970" d="M20.191,-190.3974C23.7133,-166.1064 36.308,-101.6856 74,-67 75.718,-65.419 77.568,-63.9695 79.5155,-62.6407"/>
<polygon fill="#191970" stroke="#191970" points="81.5682,-65.502 88.5725,-57.5527 78.1398,-59.3991 81.5682,-65.502"/>
</g>
<!-- Node25 -->
<g id="node7" class="node">
<title>Node25</title>
<g id="a_node7"><a xlink:href="classnuspell_1_1_basic___dictionary.html#a05ed25f4b65c93f0389295303e43e509" target="_top" xlink:title="nuspell::Basic_Dictionary\l::spell">
<polygon fill="#ffffff" stroke="#000000" points="244,-114 244,-144 372,-144 372,-114 244,-114"/>
<text text-anchor="start" x="252" y="-132" font-family="Helvetica,sans-Serif" font-size="10.00" fill="#000000">nuspell::Basic_Dictionary</text>
<text text-anchor="middle" x="308" y="-121" font-family="Helvetica,sans-Serif" font-size="10.00" fill="#000000">::spell</text>
</a>
</g>
</g>
<!-- Node24&#45;&gt;Node25 -->
<g id="edge6" class="edge">
<title>Node24&#45;&gt;Node25</title>
<path fill="none" stroke="#191970" d="M168.3933,-94.5983C188.0615,-99.445 213.3625,-105.6796 237.0111,-111.507"/>
<polygon fill="#191970" stroke="#191970" points="236.4769,-114.98 247.0239,-113.9744 238.1518,-108.1833 236.4769,-114.98"/>
</g>
<!-- Node26 -->
<g id="node8" class="node">
<title>Node26</title>
<g id="a_node8"><a xlink:href="classnuspell_1_1_basic___dictionary.html#ac50138a9f4de879a541838170f957977" target="_top" xlink:title="nuspell::Basic_Dictionary\l::suggest">
<polygon fill="#ffffff" stroke="#000000" points="244,-65 244,-95 372,-95 372,-65 244,-65"/>
<text text-anchor="start" x="252" y="-83" font-family="Helvetica,sans-Serif" font-size="10.00" fill="#000000">nuspell::Basic_Dictionary</text>
<text text-anchor="middle" x="308" y="-72" font-family="Helvetica,sans-Serif" font-size="10.00" fill="#000000">::suggest</text>
</a>
</g>
</g>
<!-- Node24&#45;&gt;Node26 -->
<g id="edge7" class="edge">
<title>Node24&#45;&gt;Node26</title>
<path fill="none" stroke="#191970" d="M168.3933,-84.8002C187.1096,-84.1567 210.9267,-83.3378 233.5669,-82.5593"/>
<polygon fill="#191970" stroke="#191970" points="233.9899,-86.0469 243.8637,-82.2053 233.7493,-79.0511 233.9899,-86.0469"/>
</g>
<!-- Node27 -->
<g id="node9" class="node">
<title>Node27</title>
<g id="a_node9"><a xlink:href="classnuspell_1_1_list___strings.html#a3baa052822894e35652f895e6324d4fb" target="_top" xlink:title="nuspell::List_Strings\l::clear">
<polygon fill="#ffffff" stroke="#000000" points="444.5,-65 444.5,-95 549.5,-95 549.5,-65 444.5,-65"/>
<text text-anchor="start" x="452.5" y="-83" font-family="Helvetica,sans-Serif" font-size="10.00" fill="#000000">nuspell::List_Strings</text>
<text text-anchor="middle" x="497" y="-72" font-family="Helvetica,sans-Serif" font-size="10.00" fill="#000000">::clear</text>
</a>
</g>
</g>
<!-- Node26&#45;&gt;Node27 -->
<g id="edge8" class="edge">
<title>Node26&#45;&gt;Node27</title>
<path fill="none" stroke="#191970" d="M372.2505,-80C392.2079,-80 414.1774,-80 434.0455,-80"/>
<polygon fill="#191970" stroke="#191970" points="434.222,-83.5001 444.2219,-80 434.2219,-76.5001 434.222,-83.5001"/>
</g>
<!-- Node28&#45;&gt;Node25 -->
<g id="edge10" class="edge">
<title>Node28&#45;&gt;Node25</title>
<path fill="none" stroke="#191970" d="M165.8509,-190.4174C174.7238,-187.587 184.295,-184.3451 193,-181 218.2998,-171.2779 245.9994,-158.8107 267.873,-148.5209"/>
<polygon fill="#191970" stroke="#191970" points="269.6374,-151.5579 277.1744,-144.1117 266.639,-145.2326 269.6374,-151.5579"/>
</g>
<!-- Node29&#45;&gt;Node25 -->
<g id="edge14" class="edge">
<title>Node29&#45;&gt;Node25</title>
<path fill="none" stroke="#191970" d="M170.5179,-228.4281C178.158,-225.8369 186.0028,-222.7015 193,-219 227.9284,-200.5232 262.9531,-171.1845 285.01,-151.0587"/>
<polygon fill="#191970" stroke="#191970" points="287.567,-153.461 292.5252,-144.098 282.8103,-148.3254 287.567,-153.461"/>
</g>
<!-- Node30 -->
<g id="node12" class="node">
<title>Node30</title>
<g id="a_node12"><a xlink:href="namespacenuspell.html#ae7511832ec3d132234e782cd89bc18e3" target="_top" xlink:title="nuspell::parse_on_whitespace_v">
<polygon fill="#ffffff" stroke="#000000" points="229,-228.5 229,-247.5 387,-247.5 387,-228.5 229,-228.5"/>
<text text-anchor="middle" x="308" y="-235.5" font-family="Helvetica,sans-Serif" font-size="10.00" fill="#000000">nuspell::parse_on_whitespace_v</text>
</a>
</g>
</g>
<!-- Node29&#45;&gt;Node30 -->
<g id="edge12" class="edge">
<title>Node29&#45;&gt;Node30</title>
<path fill="none" stroke="#191970" d="M180.2628,-238C192.1692,-238 205.3681,-238 218.6322,-238"/>
<polygon fill="#191970" stroke="#191970" points="218.7679,-241.5001 228.7678,-238 218.7678,-234.5001 218.7679,-241.5001"/>
</g>
<!-- Node31 -->
<g id="node13" class="node">
<title>Node31</title>
<g id="a_node13"><a xlink:href="namespacenuspell.html#a18195df0ca9db9b03c0824af311d4f9b" target="_top" xlink:title="Parses on whitespace. ">
<polygon fill="#ffffff" stroke="#000000" points="423,-228.5 423,-247.5 571,-247.5 571,-228.5 423,-228.5"/>
<text text-anchor="middle" x="497" y="-235.5" font-family="Helvetica,sans-Serif" font-size="10.00" fill="#000000">nuspell::parse_on_whitespace</text>
</a>
</g>
</g>
<!-- Node30&#45;&gt;Node31 -->
<g id="edge13" class="edge">
<title>Node30&#45;&gt;Node31</title>
<path fill="none" stroke="#191970" d="M387.0579,-238C395.4719,-238 404.0537,-238 412.5268,-238"/>
<polygon fill="#191970" stroke="#191970" points="412.7896,-241.5001 422.7896,-238 412.7896,-234.5001 412.7896,-241.5001"/>
</g>
<!-- Node32&#45;&gt;Node25 -->
<g id="edge16" class="edge">
<title>Node32&#45;&gt;Node25</title>
<path fill="none" stroke="#191970" d="M183.9726,-152.455C199.6233,-149.4953 217.2063,-146.1702 234.1048,-142.9744"/>
<polygon fill="#191970" stroke="#191970" points="234.7801,-146.4089 243.9555,-141.1116 233.4793,-139.5308 234.7801,-146.4089"/>
</g>
<!-- Node33&#45;&gt;Node25 -->
<g id="edge20" class="edge">
<title>Node33&#45;&gt;Node25</title>
<path fill="none" stroke="#191970" d="M177.6208,-19.5045C183.1891,-21.9745 188.5012,-25.0845 193,-29 220.8904,-53.2742 201.0779,-79.7622 229,-104 230.9487,-105.6915 233.0121,-107.2688 235.1647,-108.7394"/>
<polygon fill="#191970" stroke="#191970" points="233.4695,-111.8033 243.8549,-113.8996 237.0435,-105.7845 233.4695,-111.8033"/>
</g>
<!-- Node34 -->
<g id="node16" class="node">
<title>Node34</title>
<g id="a_node16"><a xlink:href="namespacenuspell.html#aa7e4995c62f0034c3f760c93a3d25dd9" target="_top" xlink:title="Splits on whitespace, outputs to vector of strings. ">
<polygon fill="#ffffff" stroke="#000000" points="232,-16.5 232,-35.5 384,-35.5 384,-16.5 232,-16.5"/>
<text text-anchor="middle" x="308" y="-23.5" font-family="Helvetica,sans-Serif" font-size="10.00" fill="#000000">nuspell::split_on_whitespace_v</text>
</a>
</g>
</g>
<!-- Node33&#45;&gt;Node34 -->
<g id="edge18" class="edge">
<title>Node33&#45;&gt;Node34</title>
<path fill="none" stroke="#191970" d="M187.2796,-14.9311C198.2005,-15.9324 209.9459,-17.0094 221.6693,-18.0843"/>
<polygon fill="#191970" stroke="#191970" points="221.6668,-21.5987 231.9446,-19.0264 222.306,-14.6279 221.6668,-21.5987"/>
</g>
<!-- Node35 -->
<g id="node17" class="node">
<title>Node35</title>
<g id="a_node17"><a xlink:href="namespacenuspell.html#aac7e2f7ff54b3d984e221a4c6524338d" target="_top" xlink:title="Splits on whitespace. ">
<polygon fill="#ffffff" stroke="#000000" points="426,-16.5 426,-35.5 568,-35.5 568,-16.5 426,-16.5"/>
<text text-anchor="middle" x="497" y="-23.5" font-family="Helvetica,sans-Serif" font-size="10.00" fill="#000000">nuspell::split_on_whitespace</text>
</a>
</g>
</g>
<!-- Node34&#45;&gt;Node35 -->
<g id="edge19" class="edge">
<title>Node34&#45;&gt;Node35</title>
<path fill="none" stroke="#191970" d="M384.0566,-26C394.5504,-26 405.36,-26 415.9401,-26"/>
<polygon fill="#191970" stroke="#191970" points="415.9958,-29.5001 425.9958,-26 415.9958,-22.5001 415.9958,-29.5001"/>
</g>
<!-- Node36&#45;&gt;Node25 -->
<g id="edge22" class="edge">
<title>Node36&#45;&gt;Node25</title>
<path fill="none" stroke="#191970" d="M181.6448,-125.3795C197.7519,-125.841 216.1007,-126.3668 233.7269,-126.8718"/>
<polygon fill="#191970" stroke="#191970" points="233.9028,-130.3782 243.999,-127.1662 234.1034,-123.3811 233.9028,-130.3782"/>
</g>
<!-- Node37&#45;&gt;Node25 -->
<g id="edge25" class="edge">
<title>Node37&#45;&gt;Node25</title>
<path fill="none" stroke="#191970" d="M172.8041,-57.5259C179.8019,-60.0539 186.8217,-63.1772 193,-67 212.5109,-79.0724 209.4734,-91.953 229,-104 232.4147,-106.1067 236.023,-108.0511 239.7423,-109.8435"/>
<polygon fill="#191970" stroke="#191970" points="238.606,-113.1674 249.1687,-113.992 241.4257,-106.7604 238.606,-113.1674"/>
</g>
<!-- Node37&#45;&gt;Node34 -->
<g id="edge24" class="edge">
<title>Node37&#45;&gt;Node34</title>
<path fill="none" stroke="#191970" d="M178.8923,-42.2772C192.1842,-40.6014 207.1748,-38.7115 222.112,-36.8283"/>
<polygon fill="#191970" stroke="#191970" points="222.9395,-40.2517 232.4232,-35.5283 222.0639,-33.3067 222.9395,-40.2517"/>
</g>
</g>
</svg>
