<?xml version="1.0" encoding="UTF-8" standalone="no"?>
<!DOCTYPE svg PUBLIC "-//W3C//DTD SVG 1.1//EN"
 "http://www.w3.org/Graphics/SVG/1.1/DTD/svg11.dtd">
<!-- Generated by graphviz version 2.40.1 (20161225.0304)
 -->
<!-- Title: correct_line_loop Pages: 1 -->
<svg width="613pt" height="142pt"
 viewBox="0.00 0.00 613.00 142.00" xmlns="http://www.w3.org/2000/svg" xmlns:xlink="http://www.w3.org/1999/xlink">
<g id="graph0" class="graph" transform="scale(1 1) rotate(0) translate(4 138)">
<title>correct_line_loop</title>
<polygon fill="#ffffff" stroke="transparent" points="-4,4 -4,-138 609,-138 609,4 -4,4"/>
<!-- Node0 -->
<g id="node1" class="node">
<title>Node0</title>
<polygon fill="#bfbfbf" stroke="#000000" points="0,-76.5 0,-95.5 90,-95.5 90,-76.5 0,-76.5"/>
<text text-anchor="middle" x="45" y="-83.5" font-family="Helvetica,sans-Serif" font-size="10.00" fill="#000000">correct_line_loop</text>
</g>
<!-- Node1 -->
<g id="node2" class="node">
<title>Node1</title>
<g id="a_node2"><a xlink:href="namespacenuspell.html#aa7e4995c62f0034c3f760c93a3d25dd9" target="_top" xlink:title="Splits on whitespace, outputs to vector of strings. ">
<polygon fill="#ffffff" stroke="#000000" points="126,-106.5 126,-125.5 278,-125.5 278,-106.5 126,-106.5"/>
<text text-anchor="middle" x="202" y="-113.5" font-family="Helvetica,sans-Serif" font-size="10.00" fill="#000000">nuspell::split_on_whitespace_v</text>
</a>
</g>
</g>
<!-- Node0&#45;&gt;Node1 -->
<g id="edge1" class="edge">
<title>Node0&#45;&gt;Node1</title>
<path fill="none" stroke="#191970" d="M90.4109,-94.6772C106.536,-97.7585 124.9412,-101.2754 142.0904,-104.5523"/>
<polygon fill="#191970" stroke="#191970" points="141.5365,-108.0097 152.0157,-106.4489 142.8504,-101.1341 141.5365,-108.0097"/>
</g>
<!-- Node3 -->
<g id="node4" class="node">
<title>Node3</title>
<g id="a_node4"><a xlink:href="classnuspell_1_1_basic___dictionary.html#a05ed25f4b65c93f0389295303e43e509" target="_top" xlink:title="nuspell::Basic_Dictionary\l::spell">
<polygon fill="#ffffff" stroke="#000000" points="138,-49 138,-79 266,-79 266,-49 138,-49"/>
<text text-anchor="start" x="146" y="-67" font-family="Helvetica,sans-Serif" font-size="10.00" fill="#000000">nuspell::Basic_Dictionary</text>
<text text-anchor="middle" x="202" y="-56" font-family="Helvetica,sans-Serif" font-size="10.00" fill="#000000">::spell</text>
</a>
</g>
</g>
<!-- Node0&#45;&gt;Node3 -->
<g id="edge3" class="edge">
<title>Node0&#45;&gt;Node3</title>
<path fill="none" stroke="#191970" d="M90.4109,-79.6367C102.0588,-78.0045 114.8964,-76.2056 127.591,-74.4267"/>
<polygon fill="#191970" stroke="#191970" points="128.2981,-77.8619 137.7156,-73.008 127.3267,-70.9297 128.2981,-77.8619"/>
</g>
<!-- Node2 -->
<g id="node3" class="node">
<title>Node2</title>
<g id="a_node3"><a xlink:href="namespacenuspell.html#aac7e2f7ff54b3d984e221a4c6524338d" target="_top" xlink:title="Splits on whitespace. ">
<polygon fill="#ffffff" stroke="#000000" points="314,-114.5 314,-133.5 456,-133.5 456,-114.5 314,-114.5"/>
<text text-anchor="middle" x="385" y="-121.5" font-family="Helvetica,sans-Serif" font-size="10.00" fill="#000000">nuspell::split_on_whitespace</text>
</a>
</g>
</g>
<!-- Node1&#45;&gt;Node2 -->
<g id="edge2" class="edge">
<title>Node1&#45;&gt;Node2</title>
<path fill="none" stroke="#191970" d="M278.0187,-119.3232C286.5591,-119.6966 295.2849,-120.078 303.8866,-120.4541"/>
<polygon fill="#191970" stroke="#191970" points="303.7654,-123.952 313.9087,-120.8922 304.0712,-116.9587 303.7654,-123.952"/>
</g>
<!-- Node4 -->
<g id="node5" class="node">
<title>Node4</title>
<g id="a_node5"><a xlink:href="namespacenuspell.html#a79258aeb32a39ce719a014950b33e5d6" target="_top" xlink:title="nuspell::utf8_to_wide">
<polygon fill="#ffffff" stroke="#000000" points="330.5,-76.5 330.5,-95.5 439.5,-95.5 439.5,-76.5 330.5,-76.5"/>
<text text-anchor="middle" x="385" y="-83.5" font-family="Helvetica,sans-Serif" font-size="10.00" fill="#000000">nuspell::utf8_to_wide</text>
</a>
</g>
</g>
<!-- Node3&#45;&gt;Node4 -->
<g id="edge4" class="edge">
<title>Node3&#45;&gt;Node4</title>
<path fill="none" stroke="#191970" d="M266.0045,-71.6945C283.5812,-73.8076 302.6501,-76.1 320.2674,-78.2179"/>
<polygon fill="#191970" stroke="#191970" points="320.1039,-81.7234 330.4502,-79.4421 320.9395,-74.7734 320.1039,-81.7234"/>
</g>
<!-- Node6 -->
<g id="node7" class="node">
<title>Node6</title>
<g id="a_node7"><a xlink:href="namespacenuspell.html#a7aade2ec1cb243eb5b3714007d59d63c" target="_top" xlink:title="nuspell::to_wide">
<polygon fill="#ffffff" stroke="#000000" points="341.5,-38.5 341.5,-57.5 428.5,-57.5 428.5,-38.5 341.5,-38.5"/>
<text text-anchor="middle" x="385" y="-45.5" font-family="Helvetica,sans-Serif" font-size="10.00" fill="#000000">nuspell::to_wide</text>
</a>
</g>
</g>
<!-- Node3&#45;&gt;Node6 -->
<g id="edge6" class="edge">
<title>Node3&#45;&gt;Node6</title>
<path fill="none" stroke="#191970" d="M266.0045,-58.404C287.3425,-56.5384 310.8796,-54.4805 331.349,-52.6908"/>
<polygon fill="#191970" stroke="#191970" points="331.7786,-56.1667 341.4357,-51.8089 331.1689,-49.1933 331.7786,-56.1667"/>
</g>
<!-- Node7 -->
<g id="node8" class="node">
<title>Node7</title>
<g id="a_node8"><a xlink:href="namespacenuspell.html#a9bf8e1a3f71282ed001fcf4f224ef9dd" target="_top" xlink:title="nuspell::to_narrow">
<polygon fill="#ffffff" stroke="#000000" points="337,-.5 337,-19.5 433,-19.5 433,-.5 337,-.5"/>
<text text-anchor="middle" x="385" y="-7.5" font-family="Helvetica,sans-Serif" font-size="10.00" fill="#000000">nuspell::to_narrow</text>
</a>
</g>
</g>
<!-- Node3&#45;&gt;Node7 -->
<g id="edge7" class="edge">
<title>Node3&#45;&gt;Node7</title>
<path fill="none" stroke="#191970" d="M248.7335,-48.9215C268.772,-42.5794 292.4773,-35.2398 314,-29 321.8416,-26.7266 330.1987,-24.4027 338.3237,-22.1955"/>
<polygon fill="#191970" stroke="#191970" points="339.3225,-25.5514 348.0691,-19.5725 337.5031,-18.7919 339.3225,-25.5514"/>
</g>
<!-- Node5 -->
<g id="node6" class="node">
<title>Node5</title>
<g id="a_node6"><a xlink:href="namespacenuspell.html#aae8baee1ca83bf5a5e0d07a4e8fdbf81" target="_top" xlink:title="nuspell::utf_to_utf_my">
<polygon fill="#ffffff" stroke="#000000" points="492,-76.5 492,-95.5 605,-95.5 605,-76.5 492,-76.5"/>
<text text-anchor="middle" x="548.5" y="-83.5" font-family="Helvetica,sans-Serif" font-size="10.00" fill="#000000">nuspell::utf_to_utf_my</text>
</a>
</g>
</g>
<!-- Node4&#45;&gt;Node5 -->
<g id="edge5" class="edge">
<title>Node4&#45;&gt;Node5</title>
<path fill="none" stroke="#191970" d="M439.898,-86C453.3352,-86 467.8612,-86 481.7847,-86"/>
<polygon fill="#191970" stroke="#191970" points="481.7924,-89.5001 491.7924,-86 481.7924,-82.5001 481.7924,-89.5001"/>
</g>
</g>
</svg>
