<?xml version="1.0" encoding="UTF-8" standalone="no"?>
<!DOCTYPE svg PUBLIC "-//W3C//DTD SVG 1.1//EN"
 "http://www.w3.org/Graphics/SVG/1.1/DTD/svg11.dtd">
<!-- Generated by graphviz version 2.40.1 (20161225.0304)
 -->
<!-- Title: segment_loop Pages: 1 -->
<svg width="401pt" height="88pt"
 viewBox="0.00 0.00 401.00 88.00" xmlns="http://www.w3.org/2000/svg" xmlns:xlink="http://www.w3.org/1999/xlink">
<g id="graph0" class="graph" transform="scale(1 1) rotate(0) translate(4 84)">
<title>segment_loop</title>
<polygon fill="#ffffff" stroke="transparent" points="-4,4 -4,-84 397,-84 397,4 -4,4"/>
<!-- Node65 -->
<g id="node1" class="node">
<title>Node65</title>
<polygon fill="#bfbfbf" stroke="#000000" points="0,-30 0,-49 77,-49 77,-30 0,-30"/>
<text text-anchor="middle" x="38.5" y="-37" font-family="Helvetica,sans-Serif" font-size="10.00" fill="#000000">segment_loop</text>
</g>
<!-- Node66 -->
<g id="node2" class="node">
<title>Node66</title>
<g id="a_node2"><a xlink:href="class_my___dictionary.html#aea4b0e17845cec47e417eea4b64a0978" target="_top" xlink:title="My_Dictionary::spell">
<polygon fill="#ffffff" stroke="#000000" points="124,-53 124,-72 230,-72 230,-53 124,-53"/>
<text text-anchor="middle" x="177" y="-60" font-family="Helvetica,sans-Serif" font-size="10.00" fill="#000000">My_Dictionary::spell</text>
</a>
</g>
</g>
<!-- Node65&#45;&gt;Node66 -->
<g id="edge1" class="edge">
<title>Node65&#45;&gt;Node66</title>
<path fill="none" stroke="#191970" d="M77.08,-45.9068C88.5115,-47.8052 101.3403,-49.9356 113.8974,-52.0209"/>
<polygon fill="#191970" stroke="#191970" points="113.4395,-55.4927 123.8778,-53.6783 114.5863,-48.5872 113.4395,-55.4927"/>
</g>
<!-- Node68 -->
<g id="node4" class="node">
<title>Node68</title>
<g id="a_node4"><a xlink:href="classnuspell_1_1_basic___dictionary.html#ac50138a9f4de879a541838170f957977" target="_top" xlink:title="nuspell::Basic_Dictionary\l::suggest">
<polygon fill="#ffffff" stroke="#000000" points="113,-2.5 113,-32.5 241,-32.5 241,-2.5 113,-2.5"/>
<text text-anchor="start" x="121" y="-20.5" font-family="Helvetica,sans-Serif" font-size="10.00" fill="#000000">nuspell::Basic_Dictionary</text>
<text text-anchor="middle" x="177" y="-9.5" font-family="Helvetica,sans-Serif" font-size="10.00" fill="#000000">::suggest</text>
</a>
</g>
</g>
<!-- Node65&#45;&gt;Node68 -->
<g id="edge3" class="edge">
<title>Node65&#45;&gt;Node68</title>
<path fill="none" stroke="#191970" d="M77.08,-33.3718C85.1635,-32.0877 93.9457,-30.6927 102.8365,-29.2805"/>
<polygon fill="#191970" stroke="#191970" points="103.5621,-32.7092 112.8891,-27.6837 102.4639,-25.7959 103.5621,-32.7092"/>
</g>
<!-- Node67 -->
<g id="node3" class="node">
<title>Node67</title>
<g id="a_node3"><a xlink:href="classnuspell_1_1_hash___multiset.html#a615f7b3ae53f0cef400668746d8be501" target="_top" xlink:title="nuspell::Hash_Multiset\l::equal_range">
<polygon fill="#ffffff" stroke="#000000" points="277,-49.5 277,-79.5 393,-79.5 393,-49.5 277,-49.5"/>
<text text-anchor="start" x="285" y="-67.5" font-family="Helvetica,sans-Serif" font-size="10.00" fill="#000000">nuspell::Hash_Multiset</text>
<text text-anchor="middle" x="335" y="-56.5" font-family="Helvetica,sans-Serif" font-size="10.00" fill="#000000">::equal_range</text>
</a>
</g>
</g>
<!-- Node66&#45;&gt;Node67 -->
<g id="edge2" class="edge">
<title>Node66&#45;&gt;Node67</title>
<path fill="none" stroke="#191970" d="M230.0512,-63.1715C241.8178,-63.3205 254.4483,-63.4804 266.7266,-63.6358"/>
<polygon fill="#191970" stroke="#191970" points="266.8873,-67.138 276.9308,-63.7649 266.9759,-60.1386 266.8873,-67.138"/>
</g>
<!-- Node69 -->
<g id="node5" class="node">
<title>Node69</title>
<g id="a_node5"><a xlink:href="classnuspell_1_1_list___strings.html#a3baa052822894e35652f895e6324d4fb" target="_top" xlink:title="nuspell::List_Strings\l::clear">
<polygon fill="#ffffff" stroke="#000000" points="282.5,-.5 282.5,-30.5 387.5,-30.5 387.5,-.5 282.5,-.5"/>
<text text-anchor="start" x="290.5" y="-18.5" font-family="Helvetica,sans-Serif" font-size="10.00" fill="#000000">nuspell::List_Strings</text>
<text text-anchor="middle" x="335" y="-7.5" font-family="Helvetica,sans-Serif" font-size="10.00" fill="#000000">::clear</text>
</a>
</g>
</g>
<!-- Node68&#45;&gt;Node69 -->
<g id="edge4" class="edge">
<title>Node68&#45;&gt;Node69</title>
<path fill="none" stroke="#191970" d="M241.2646,-16.6865C251.517,-16.5567 262.1125,-16.4226 272.3273,-16.2933"/>
<polygon fill="#191970" stroke="#191970" points="272.4334,-19.7924 282.3883,-16.166 272.3448,-12.7929 272.4334,-19.7924"/>
</g>
</g>
</svg>
