<?xml version="1.0" encoding="UTF-8" standalone="no"?>
<!DOCTYPE svg PUBLIC "-//W3C//DTD SVG 1.1//EN"
 "http://www.w3.org/Graphics/SVG/1.1/DTD/svg11.dtd">
<!-- Generated by graphviz version 2.40.1 (20161225.0304)
 -->
<!-- Title: misspelled_line_loop Pages: 1 -->
<svg width="630pt" height="142pt"
 viewBox="0.00 0.00 630.00 142.00" xmlns="http://www.w3.org/2000/svg" xmlns:xlink="http://www.w3.org/1999/xlink">
<g id="graph0" class="graph" transform="scale(1 1) rotate(0) translate(4 138)">
<title>misspelled_line_loop</title>
<polygon fill="#ffffff" stroke="transparent" points="-4,4 -4,-138 626,-138 626,4 -4,4"/>
<!-- Node39 -->
<g id="node1" class="node">
<title>Node39</title>
<polygon fill="#bfbfbf" stroke="#000000" points="0,-76.5 0,-95.5 107,-95.5 107,-76.5 0,-76.5"/>
<text text-anchor="middle" x="53.5" y="-83.5" font-family="Helvetica,sans-Serif" font-size="10.00" fill="#000000">misspelled_line_loop</text>
</g>
<!-- Node40 -->
<g id="node2" class="node">
<title>Node40</title>
<g id="a_node2"><a xlink:href="namespacenuspell.html#aa7e4995c62f0034c3f760c93a3d25dd9" target="_top" xlink:title="Splits on whitespace, outputs to vector of strings. ">
<polygon fill="#ffffff" stroke="#000000" points="143,-106.5 143,-125.5 295,-125.5 295,-106.5 143,-106.5"/>
<text text-anchor="middle" x="219" y="-113.5" font-family="Helvetica,sans-Serif" font-size="10.00" fill="#000000">nuspell::split_on_whitespace_v</text>
</a>
</g>
</g>
<!-- Node39&#45;&gt;Node40 -->
<g id="edge1" class="edge">
<title>Node39&#45;&gt;Node40</title>
<path fill="none" stroke="#191970" d="M106.3203,-95.5747C122.2233,-98.4574 139.8307,-101.6491 156.3089,-104.636"/>
<polygon fill="#191970" stroke="#191970" points="155.9336,-108.125 166.3976,-106.4648 157.1822,-101.2372 155.9336,-108.125"/>
</g>
<!-- Node42 -->
<g id="node4" class="node">
<title>Node42</title>
<g id="a_node4"><a xlink:href="classnuspell_1_1_basic___dictionary.html#a05ed25f4b65c93f0389295303e43e509" target="_top" xlink:title="nuspell::Basic_Dictionary\l::spell">
<polygon fill="#ffffff" stroke="#000000" points="155,-49 155,-79 283,-79 283,-49 155,-49"/>
<text text-anchor="start" x="163" y="-67" font-family="Helvetica,sans-Serif" font-size="10.00" fill="#000000">nuspell::Basic_Dictionary</text>
<text text-anchor="middle" x="219" y="-56" font-family="Helvetica,sans-Serif" font-size="10.00" fill="#000000">::spell</text>
</a>
</g>
</g>
<!-- Node39&#45;&gt;Node42 -->
<g id="edge3" class="edge">
<title>Node39&#45;&gt;Node42</title>
<path fill="none" stroke="#191970" d="M107.2331,-78.8572C119.2236,-77.2633 132.1449,-75.5457 144.7967,-73.8639"/>
<polygon fill="#191970" stroke="#191970" points="145.411,-77.3131 154.8626,-72.5258 144.4885,-70.3741 145.411,-77.3131"/>
</g>
<!-- Node41 -->
<g id="node3" class="node">
<title>Node41</title>
<g id="a_node3"><a xlink:href="namespacenuspell.html#aac7e2f7ff54b3d984e221a4c6524338d" target="_top" xlink:title="Splits on whitespace. ">
<polygon fill="#ffffff" stroke="#000000" points="331,-114.5 331,-133.5 473,-133.5 473,-114.5 331,-114.5"/>
<text text-anchor="middle" x="402" y="-121.5" font-family="Helvetica,sans-Serif" font-size="10.00" fill="#000000">nuspell::split_on_whitespace</text>
</a>
</g>
</g>
<!-- Node40&#45;&gt;Node41 -->
<g id="edge2" class="edge">
<title>Node40&#45;&gt;Node41</title>
<path fill="none" stroke="#191970" d="M295.0187,-119.3232C303.5591,-119.6966 312.2849,-120.078 320.8866,-120.4541"/>
<polygon fill="#191970" stroke="#191970" points="320.7654,-123.952 330.9087,-120.8922 321.0712,-116.9587 320.7654,-123.952"/>
</g>
<!-- Node43 -->
<g id="node5" class="node">
<title>Node43</title>
<g id="a_node5"><a xlink:href="namespacenuspell.html#a79258aeb32a39ce719a014950b33e5d6" target="_top" xlink:title="nuspell::utf8_to_wide">
<polygon fill="#ffffff" stroke="#000000" points="347.5,-76.5 347.5,-95.5 456.5,-95.5 456.5,-76.5 347.5,-76.5"/>
<text text-anchor="middle" x="402" y="-83.5" font-family="Helvetica,sans-Serif" font-size="10.00" fill="#000000">nuspell::utf8_to_wide</text>
</a>
</g>
</g>
<!-- Node42&#45;&gt;Node43 -->
<g id="edge4" class="edge">
<title>Node42&#45;&gt;Node43</title>
<path fill="none" stroke="#191970" d="M283.0045,-71.6945C300.5812,-73.8076 319.6501,-76.1 337.2674,-78.2179"/>
<polygon fill="#191970" stroke="#191970" points="337.1039,-81.7234 347.4502,-79.4421 337.9395,-74.7734 337.1039,-81.7234"/>
</g>
<!-- Node45 -->
<g id="node7" class="node">
<title>Node45</title>
<g id="a_node7"><a xlink:href="namespacenuspell.html#a7aade2ec1cb243eb5b3714007d59d63c" target="_top" xlink:title="nuspell::to_wide">
<polygon fill="#ffffff" stroke="#000000" points="358.5,-38.5 358.5,-57.5 445.5,-57.5 445.5,-38.5 358.5,-38.5"/>
<text text-anchor="middle" x="402" y="-45.5" font-family="Helvetica,sans-Serif" font-size="10.00" fill="#000000">nuspell::to_wide</text>
</a>
</g>
</g>
<!-- Node42&#45;&gt;Node45 -->
<g id="edge6" class="edge">
<title>Node42&#45;&gt;Node45</title>
<path fill="none" stroke="#191970" d="M283.0045,-58.404C304.3425,-56.5384 327.8796,-54.4805 348.349,-52.6908"/>
<polygon fill="#191970" stroke="#191970" points="348.7786,-56.1667 358.4357,-51.8089 348.1689,-49.1933 348.7786,-56.1667"/>
</g>
<!-- Node46 -->
<g id="node8" class="node">
<title>Node46</title>
<g id="a_node8"><a xlink:href="namespacenuspell.html#a9bf8e1a3f71282ed001fcf4f224ef9dd" target="_top" xlink:title="nuspell::to_narrow">
<polygon fill="#ffffff" stroke="#000000" points="354,-.5 354,-19.5 450,-19.5 450,-.5 354,-.5"/>
<text text-anchor="middle" x="402" y="-7.5" font-family="Helvetica,sans-Serif" font-size="10.00" fill="#000000">nuspell::to_narrow</text>
</a>
</g>
</g>
<!-- Node42&#45;&gt;Node46 -->
<g id="edge7" class="edge">
<title>Node42&#45;&gt;Node46</title>
<path fill="none" stroke="#191970" d="M265.7335,-48.9215C285.772,-42.5794 309.4773,-35.2398 331,-29 338.8416,-26.7266 347.1987,-24.4027 355.3237,-22.1955"/>
<polygon fill="#191970" stroke="#191970" points="356.3225,-25.5514 365.0691,-19.5725 354.5031,-18.7919 356.3225,-25.5514"/>
</g>
<!-- Node44 -->
<g id="node6" class="node">
<title>Node44</title>
<g id="a_node6"><a xlink:href="namespacenuspell.html#aae8baee1ca83bf5a5e0d07a4e8fdbf81" target="_top" xlink:title="nuspell::utf_to_utf_my">
<polygon fill="#ffffff" stroke="#000000" points="509,-76.5 509,-95.5 622,-95.5 622,-76.5 509,-76.5"/>
<text text-anchor="middle" x="565.5" y="-83.5" font-family="Helvetica,sans-Serif" font-size="10.00" fill="#000000">nuspell::utf_to_utf_my</text>
</a>
</g>
</g>
<!-- Node43&#45;&gt;Node44 -->
<g id="edge5" class="edge">
<title>Node43&#45;&gt;Node44</title>
<path fill="none" stroke="#191970" d="M456.898,-86C470.3352,-86 484.8612,-86 498.7847,-86"/>
<polygon fill="#191970" stroke="#191970" points="498.7924,-89.5001 508.7924,-86 498.7924,-82.5001 498.7924,-89.5001"/>
</g>
</g>
</svg>
