<?xml version="1.0" encoding="UTF-8" standalone="no"?>
<!DOCTYPE svg PUBLIC "-//W3C//DTD SVG 1.1//EN"
 "http://www.w3.org/Graphics/SVG/1.1/DTD/svg11.dtd">
<!-- Generated by graphviz version 2.40.1 (20161225.0304)
 -->
<!-- Title: src/nuspell/main.cxx Pages: 1 -->
<svg width="1878pt" height="319pt"
 viewBox="0.00 0.00 1878.04 319.00" xmlns="http://www.w3.org/2000/svg" xmlns:xlink="http://www.w3.org/1999/xlink">
<g id="graph0" class="graph" transform="scale(1 1) rotate(0) translate(4 315)">
<title>src/nuspell/main.cxx</title>
<polygon fill="#ffffff" stroke="transparent" points="-4,4 -4,-315 1874.0359,-315 1874.0359,4 -4,4"/>
<!-- Node0 -->
<g id="node1" class="node">
<title>Node0</title>
<polygon fill="#bfbfbf" stroke="#000000" points="1504.5359,-291.5 1504.5359,-310.5 1611.5359,-310.5 1611.5359,-291.5 1504.5359,-291.5"/>
<text text-anchor="middle" x="1558.0359" y="-298.5" font-family="Helvetica,sans-Serif" font-size="10.00" fill="#000000">src/nuspell/main.cxx</text>
</g>
<!-- Node1 -->
<g id="node2" class="node">
<title>Node1</title>
<g id="a_node2"><a xlink:href="dictionary_8hxx.html" target="_top" xlink:title="Dictionary spelling. ">
<polygon fill="#ffffff" stroke="#000000" points="1433.5359,-235.5 1433.5359,-254.5 1510.5359,-254.5 1510.5359,-235.5 1433.5359,-235.5"/>
<text text-anchor="middle" x="1472.0359" y="-242.5" font-family="Helvetica,sans-Serif" font-size="10.00" fill="#000000">dictionary.hxx</text>
</a>
</g>
</g>
<!-- Node0&#45;&gt;Node1 -->
<g id="edge1" class="edge">
<title>Node0&#45;&gt;Node1</title>
<path fill="none" stroke="#191970" d="M1543.0558,-291.2455C1529.8608,-282.6534 1510.4308,-270.0014 1495.228,-260.1018"/>
<polygon fill="#191970" stroke="#191970" points="1497.1342,-257.1665 1486.8443,-254.6427 1493.3144,-263.0325 1497.1342,-257.1665"/>
</g>
<!-- Node4 -->
<g id="node5" class="node">
<title>Node4</title>
<polygon fill="#ffffff" stroke="#bfbfbf" points="1151.5359,-.5 1151.5359,-19.5 1192.5359,-19.5 1192.5359,-.5 1151.5359,-.5"/>
<text text-anchor="middle" x="1172.0359" y="-7.5" font-family="Helvetica,sans-Serif" font-size="10.00" fill="#000000">string</text>
</g>
<!-- Node0&#45;&gt;Node4 -->
<g id="edge47" class="edge">
<title>Node0&#45;&gt;Node4</title>
<path fill="none" stroke="#191970" d="M1567.0984,-291.3829C1583.4109,-273.0212 1616.0359,-231.0423 1616.0359,-189 1616.0359,-189 1616.0359,-189 1616.0359,-133 1616.0359,-97.7513 1623.5745,-79.1986 1597.0359,-56 1567.4406,-30.1294 1295.7498,-15.5738 1202.9421,-11.3236"/>
<polygon fill="#191970" stroke="#191970" points="1202.9327,-7.8198 1192.7856,-10.8672 1202.6184,-14.8127 1202.9327,-7.8198"/>
</g>
<!-- Node5 -->
<g id="node6" class="node">
<title>Node5</title>
<polygon fill="#ffffff" stroke="#bfbfbf" points="81.5359,-123.5 81.5359,-142.5 164.5359,-142.5 164.5359,-123.5 81.5359,-123.5"/>
<text text-anchor="middle" x="123.0359" y="-130.5" font-family="Helvetica,sans-Serif" font-size="10.00" fill="#000000">unordered_map</text>
</g>
<!-- Node0&#45;&gt;Node5 -->
<g id="edge48" class="edge">
<title>Node0&#45;&gt;Node5</title>
<path fill="none" stroke="#191970" d="M1504.3643,-296.8135C1351.0678,-284.6175 898.2096,-246.9265 524.0359,-199 369.0053,-179.1427 327.7866,-172.6987 174.8726,-144.0739"/>
<polygon fill="#191970" stroke="#191970" points="175.11,-140.5576 164.6365,-142.156 173.8208,-147.4379 175.11,-140.5576"/>
</g>
<!-- Node9 -->
<g id="node10" class="node">
<title>Node9</title>
<polygon fill="#ffffff" stroke="#bfbfbf" points="1546.0359,-62 1546.0359,-81 1588.0359,-81 1588.0359,-62 1546.0359,-62"/>
<text text-anchor="middle" x="1567.0359" y="-69" font-family="Helvetica,sans-Serif" font-size="10.00" fill="#000000">locale</text>
</g>
<!-- Node0&#45;&gt;Node9 -->
<g id="edge46" class="edge">
<title>Node0&#45;&gt;Node9</title>
<path fill="none" stroke="#191970" d="M1558.4111,-291.4309C1559.7634,-256.9475 1564.4047,-138.5953 1566.2603,-91.2785"/>
<polygon fill="#191970" stroke="#191970" points="1569.7644,-91.2395 1566.659,-81.11 1562.7698,-90.9651 1569.7644,-91.2395"/>
</g>
<!-- Node23 -->
<g id="node24" class="node">
<title>Node23</title>
<polygon fill="#ffffff" stroke="#bfbfbf" points="1500.0359,-179.5 1500.0359,-198.5 1550.0359,-198.5 1550.0359,-179.5 1500.0359,-179.5"/>
<text text-anchor="middle" x="1525.0359" y="-186.5" font-family="Helvetica,sans-Serif" font-size="10.00" fill="#000000">fstream</text>
</g>
<!-- Node0&#45;&gt;Node23 -->
<g id="edge44" class="edge">
<title>Node0&#45;&gt;Node23</title>
<path fill="none" stroke="#191970" d="M1555.2223,-291.4509C1549.8157,-273.1013 1537.8796,-232.5908 1530.7429,-208.3693"/>
<polygon fill="#191970" stroke="#191970" points="1534.026,-207.128 1527.8423,-198.5249 1527.3114,-209.1064 1534.026,-207.128"/>
</g>
<!-- Node24 -->
<g id="node25" class="node">
<title>Node24</title>
<g id="a_node25"><a xlink:href="finder_8hxx.html" target="_top" xlink:title="Finding dictionaries. ">
<polygon fill="#ffffff" stroke="#000000" points="4.5359,-123.5 4.5359,-142.5 63.5359,-142.5 63.5359,-123.5 4.5359,-123.5"/>
<text text-anchor="middle" x="34.0359" y="-130.5" font-family="Helvetica,sans-Serif" font-size="10.00" fill="#000000">finder.hxx</text>
</a>
</g>
</g>
<!-- Node0&#45;&gt;Node24 -->
<g id="edge32" class="edge">
<title>Node0&#45;&gt;Node24</title>
<path fill="none" stroke="#191970" d="M1504.2919,-298.5381C1385.3358,-292.8684 1090.8412,-277.6185 845.0359,-255 636.4334,-235.8049 584.1568,-230.3749 377.0359,-199 243.9627,-178.8419 208.2119,-173.2627 73.7119,-143.2769"/>
<polygon fill="#191970" stroke="#191970" points="74.377,-139.8392 63.8545,-141.0752 72.8511,-146.6709 74.377,-139.8392"/>
</g>
<!-- Node25 -->
<g id="node26" class="node">
<title>Node25</title>
<g id="a_node26"><a xlink:href="string__utils_8hxx.html" target="_top" xlink:title="String algorithms. ">
<polygon fill="#ffffff" stroke="#000000" points="1200.5359,-123.5 1200.5359,-142.5 1283.5359,-142.5 1283.5359,-123.5 1200.5359,-123.5"/>
<text text-anchor="middle" x="1242.0359" y="-130.5" font-family="Helvetica,sans-Serif" font-size="10.00" fill="#000000">string_utils.hxx</text>
</a>
</g>
</g>
<!-- Node0&#45;&gt;Node25 -->
<g id="edge36" class="edge">
<title>Node0&#45;&gt;Node25</title>
<path fill="none" stroke="#191970" d="M1522.6058,-291.4345C1495.226,-283.41 1456.7725,-270.7434 1425.0359,-255 1361.9213,-223.6911 1294.7216,-174.1375 1262.1122,-148.9032"/>
<polygon fill="#191970" stroke="#191970" points="1264.2637,-146.1426 1254.2263,-142.7512 1259.958,-151.6618 1264.2637,-146.1426"/>
</g>
<!-- Node27 -->
<g id="node28" class="node">
<title>Node27</title>
<polygon fill="#ffffff" stroke="#bfbfbf" points="1644.5359,-235.5 1644.5359,-254.5 1691.5359,-254.5 1691.5359,-235.5 1644.5359,-235.5"/>
<text text-anchor="middle" x="1668.0359" y="-242.5" font-family="Helvetica,sans-Serif" font-size="10.00" fill="#000000">clocale</text>
</g>
<!-- Node0&#45;&gt;Node27 -->
<g id="edge43" class="edge">
<title>Node0&#45;&gt;Node27</title>
<path fill="none" stroke="#191970" d="M1577.1964,-291.2455C1594.547,-282.4125 1620.3259,-269.2887 1639.9942,-259.2758"/>
<polygon fill="#191970" stroke="#191970" points="1641.7712,-262.2986 1649.0949,-254.6427 1638.5954,-256.0605 1641.7712,-262.2986"/>
</g>
<!-- Node28 -->
<g id="node29" class="node">
<title>Node28</title>
<polygon fill="#ffffff" stroke="#bfbfbf" points="1710.0359,-235.5 1710.0359,-254.5 1764.0359,-254.5 1764.0359,-235.5 1710.0359,-235.5"/>
<text text-anchor="middle" x="1737.0359" y="-242.5" font-family="Helvetica,sans-Serif" font-size="10.00" fill="#000000">iostream</text>
</g>
<!-- Node0&#45;&gt;Node28 -->
<g id="edge45" class="edge">
<title>Node0&#45;&gt;Node28</title>
<path fill="none" stroke="#191970" d="M1588.8071,-291.3733C1619.6974,-281.7093 1667.2988,-266.8172 1700.185,-256.5288"/>
<polygon fill="#191970" stroke="#191970" points="1701.385,-259.8207 1709.8838,-253.4945 1699.2949,-253.14 1701.385,-259.8207"/>
</g>
<!-- Node29 -->
<g id="node30" class="node">
<title>Node29</title>
<polygon fill="#ffffff" stroke="#bfbfbf" points="1782.0359,-235.5 1782.0359,-254.5 1870.0359,-254.5 1870.0359,-235.5 1782.0359,-235.5"/>
<text text-anchor="middle" x="1826.0359" y="-242.5" font-family="Helvetica,sans-Serif" font-size="10.00" fill="#000000">boost/locale.hpp</text>
</g>
<!-- Node0&#45;&gt;Node29 -->
<g id="edge49" class="edge">
<title>Node0&#45;&gt;Node29</title>
<path fill="none" stroke="#191970" d="M1603.8022,-291.4369C1650.377,-281.7048 1722.5521,-266.6235 1771.9297,-256.3058"/>
<polygon fill="#191970" stroke="#191970" points="1772.722,-259.7159 1781.7946,-254.2444 1771.2901,-252.8639 1772.722,-259.7159"/>
</g>
<!-- Node2 -->
<g id="node3" class="node">
<title>Node2</title>
<g id="a_node3"><a xlink:href="aff__data_8hxx.html" target="_top" xlink:title="Affixing data structures. ">
<polygon fill="#ffffff" stroke="#000000" points="533.5359,-179.5 533.5359,-198.5 604.5359,-198.5 604.5359,-179.5 533.5359,-179.5"/>
<text text-anchor="middle" x="569.0359" y="-186.5" font-family="Helvetica,sans-Serif" font-size="10.00" fill="#000000">aff_data.hxx</text>
</a>
</g>
</g>
<!-- Node1&#45;&gt;Node2 -->
<g id="edge2" class="edge">
<title>Node1&#45;&gt;Node2</title>
<path fill="none" stroke="#191970" d="M1433.524,-242.6117C1288.0735,-233.5915 772.4646,-201.6157 615.027,-191.8522"/>
<polygon fill="#191970" stroke="#191970" points="614.9483,-188.3406 604.7508,-191.2149 614.5149,-195.3272 614.9483,-188.3406"/>
</g>
<!-- Node8 -->
<g id="node9" class="node">
<title>Node8</title>
<g id="a_node9"><a xlink:href="locale__utils_8hxx.html" target="_top" xlink:title="Encoding transformations. ">
<polygon fill="#ffffff" stroke="#000000" points="1360.0359,-123.5 1360.0359,-142.5 1444.0359,-142.5 1444.0359,-123.5 1360.0359,-123.5"/>
<text text-anchor="middle" x="1402.0359" y="-130.5" font-family="Helvetica,sans-Serif" font-size="10.00" fill="#000000">locale_utils.hxx</text>
</a>
</g>
</g>
<!-- Node1&#45;&gt;Node8 -->
<g id="edge29" class="edge">
<title>Node1&#45;&gt;Node8</title>
<path fill="none" stroke="#191970" d="M1466.0677,-235.4509C1454.3926,-216.7707 1428.3632,-175.1238 1413.3335,-151.0761"/>
<polygon fill="#191970" stroke="#191970" points="1416.257,-149.1499 1407.9889,-142.5249 1410.321,-152.8599 1416.257,-149.1499"/>
</g>
<!-- Node1&#45;&gt;Node9 -->
<g id="edge31" class="edge">
<title>Node1&#45;&gt;Node9</title>
<path fill="none" stroke="#191970" d="M1473.7803,-235.2342C1476.3758,-222.0179 1481.9486,-197.9161 1491.0359,-179 1507.5768,-144.5686 1534.9113,-109.2776 1551.8969,-88.9237"/>
<polygon fill="#191970" stroke="#191970" points="1554.6818,-91.0513 1558.4813,-81.1612 1549.3435,-86.5233 1554.6818,-91.0513"/>
</g>
<!-- Node1&#45;&gt;Node23 -->
<g id="edge30" class="edge">
<title>Node1&#45;&gt;Node23</title>
<path fill="none" stroke="#191970" d="M1481.2678,-235.2455C1488.8676,-227.2155 1499.8236,-215.6394 1508.8726,-206.0781"/>
<polygon fill="#191970" stroke="#191970" points="1511.5779,-208.3115 1515.9098,-198.6427 1506.4939,-203.4998 1511.5779,-208.3115"/>
</g>
<!-- Node3 -->
<g id="node4" class="node">
<title>Node3</title>
<polygon fill="#ffffff" stroke="#bfbfbf" points="586.5359,-123.5 586.5359,-142.5 631.5359,-142.5 631.5359,-123.5 586.5359,-123.5"/>
<text text-anchor="middle" x="609.0359" y="-130.5" font-family="Helvetica,sans-Serif" font-size="10.00" fill="#000000">iosfwd</text>
</g>
<!-- Node2&#45;&gt;Node3 -->
<g id="edge3" class="edge">
<title>Node2&#45;&gt;Node3</title>
<path fill="none" stroke="#191970" d="M576.0034,-179.2455C581.567,-171.4564 589.5139,-160.3308 596.2188,-150.9439"/>
<polygon fill="#191970" stroke="#191970" points="599.1839,-152.8144 602.1483,-142.6427 593.4878,-148.7457 599.1839,-152.8144"/>
</g>
<!-- Node2&#45;&gt;Node4 -->
<g id="edge4" class="edge">
<title>Node2&#45;&gt;Node4</title>
<path fill="none" stroke="#191970" d="M604.8367,-187.6657C718.9446,-182.6839 1071.3061,-161.4478 1152.0359,-87 1167.7688,-72.4913 1171.7833,-47.3359 1172.5013,-29.7379"/>
<polygon fill="#191970" stroke="#191970" points="1176.0015,-29.7178 1172.5926,-19.6864 1169.0018,-29.6541 1176.0015,-29.7178"/>
</g>
<!-- Node2&#45;&gt;Node5 -->
<g id="edge5" class="edge">
<title>Node2&#45;&gt;Node5</title>
<path fill="none" stroke="#191970" d="M533.4521,-185.5166C464.7664,-178.6349 309.1986,-162.2806 179.0359,-143 177.5705,-142.7829 176.0845,-142.557 174.5855,-142.3239"/>
<polygon fill="#191970" stroke="#191970" points="175.0122,-138.8475 164.5809,-140.7015 173.8916,-145.7572 175.0122,-138.8475"/>
</g>
<!-- Node6 -->
<g id="node7" class="node">
<title>Node6</title>
<polygon fill="#ffffff" stroke="#bfbfbf" points="14.0359,-62 14.0359,-81 54.0359,-81 54.0359,-62 14.0359,-62"/>
<text text-anchor="middle" x="34.0359" y="-69" font-family="Helvetica,sans-Serif" font-size="10.00" fill="#000000">utility</text>
</g>
<!-- Node2&#45;&gt;Node6 -->
<g id="edge6" class="edge">
<title>Node2&#45;&gt;Node6</title>
<path fill="none" stroke="#191970" d="M533.3616,-187.8184C468.9883,-184.9253 329.6292,-175.1679 217.0359,-143 196.3813,-137.099 192.9967,-130.937 173.0359,-123 127.1937,-104.7717 113.868,-105.2537 68.0359,-87 66.4614,-86.3729 64.8541,-85.7124 63.2373,-85.0318"/>
<polygon fill="#191970" stroke="#191970" points="64.5966,-81.8063 54.0319,-81.0072 61.7924,-88.2201 64.5966,-81.8063"/>
</g>
<!-- Node7 -->
<g id="node8" class="node">
<title>Node7</title>
<polygon fill="#ffffff" stroke="#bfbfbf" points="98.0359,-.5 98.0359,-19.5 142.0359,-19.5 142.0359,-.5 98.0359,-.5"/>
<text text-anchor="middle" x="120.0359" y="-7.5" font-family="Helvetica,sans-Serif" font-size="10.00" fill="#000000">vector</text>
</g>
<!-- Node2&#45;&gt;Node7 -->
<g id="edge7" class="edge">
<title>Node2&#45;&gt;Node7</title>
<path fill="none" stroke="#191970" d="M533.2114,-183.4866C431.2788,-167.4465 145.2821,-119.8611 119.0359,-87 106.2373,-70.9757 109.1359,-46.508 113.5152,-29.4694"/>
<polygon fill="#191970" stroke="#191970" points="116.9811,-30.0906 116.4568,-19.5087 110.2678,-28.1079 116.9811,-30.0906"/>
</g>
<!-- Node2&#45;&gt;Node8 -->
<g id="edge8" class="edge">
<title>Node2&#45;&gt;Node8</title>
<path fill="none" stroke="#191970" d="M604.7938,-187.0692C710.1247,-181.3077 1028.3803,-163.368 1292.0359,-143 1310.9028,-141.5425 1331.5693,-139.7227 1349.8445,-138.0366"/>
<polygon fill="#191970" stroke="#191970" points="1350.3774,-141.5022 1360.0097,-137.09 1349.7282,-134.5324 1350.3774,-141.5022"/>
</g>
<!-- Node12 -->
<g id="node13" class="node">
<title>Node12</title>
<g id="a_node13"><a xlink:href="structures_8hxx.html" target="_top" xlink:title="Data structures. ">
<polygon fill="#ffffff" stroke="#000000" points="489.5359,-123.5 489.5359,-142.5 568.5359,-142.5 568.5359,-123.5 489.5359,-123.5"/>
<text text-anchor="middle" x="529.0359" y="-130.5" font-family="Helvetica,sans-Serif" font-size="10.00" fill="#000000">structures.hxx</text>
</a>
</g>
</g>
<!-- Node2&#45;&gt;Node12 -->
<g id="edge13" class="edge">
<title>Node2&#45;&gt;Node12</title>
<path fill="none" stroke="#191970" d="M562.0684,-179.2455C556.5048,-171.4564 548.5579,-160.3308 541.853,-150.9439"/>
<polygon fill="#191970" stroke="#191970" points="544.584,-148.7457 535.9235,-142.6427 538.8879,-152.8144 544.584,-148.7457"/>
</g>
<!-- Node8&#45;&gt;Node4 -->
<g id="edge10" class="edge">
<title>Node8&#45;&gt;Node4</title>
<path fill="none" stroke="#191970" d="M1444.2027,-124.0979C1464.4663,-117.4716 1486.9307,-106.138 1499.0359,-87 1506.401,-75.356 1508.0743,-66.3988 1499.0359,-56 1479.7292,-33.7873 1281.0062,-17.613 1203.1141,-12.0815"/>
<polygon fill="#191970" stroke="#191970" points="1203.176,-8.5774 1192.9564,-11.3721 1202.6882,-15.5604 1203.176,-8.5774"/>
</g>
<!-- Node8&#45;&gt;Node9 -->
<g id="edge9" class="edge">
<title>Node8&#45;&gt;Node9</title>
<path fill="none" stroke="#191970" d="M1430.9297,-123.4864C1457.4312,-114.593 1497.6655,-100.6681 1532.0359,-87 1533.6067,-86.3753 1535.2109,-85.7218 1536.8264,-85.0512"/>
<polygon fill="#191970" stroke="#191970" points="1538.2292,-88.258 1546.0476,-81.1079 1535.4769,-81.8218 1538.2292,-88.258"/>
</g>
<!-- Node10 -->
<g id="node11" class="node">
<title>Node10</title>
<polygon fill="#ffffff" stroke="#bfbfbf" points="1298.0359,-62 1298.0359,-81 1360.0359,-81 1360.0359,-62 1298.0359,-62"/>
<text text-anchor="middle" x="1329.0359" y="-69" font-family="Helvetica,sans-Serif" font-size="10.00" fill="#000000">type_traits</text>
</g>
<!-- Node8&#45;&gt;Node10 -->
<g id="edge11" class="edge">
<title>Node8&#45;&gt;Node10</title>
<path fill="none" stroke="#191970" d="M1390.6296,-123.3906C1379.339,-113.8786 1361.8392,-99.1357 1348.374,-87.7917"/>
<polygon fill="#191970" stroke="#191970" points="1350.5058,-85.0111 1340.603,-81.2449 1345.9957,-90.3646 1350.5058,-85.0111"/>
</g>
<!-- Node11 -->
<g id="node12" class="node">
<title>Node11</title>
<polygon fill="#ffffff" stroke="#bfbfbf" points="1378.5359,-56.5 1378.5359,-86.5 1489.5359,-86.5 1489.5359,-56.5 1378.5359,-56.5"/>
<text text-anchor="start" x="1386.5359" y="-74.5" font-family="Helvetica,sans-Serif" font-size="10.00" fill="#000000">boost/locale/encoding</text>
<text text-anchor="middle" x="1434.0359" y="-63.5" font-family="Helvetica,sans-Serif" font-size="10.00" fill="#000000">_utf.hpp</text>
</g>
<!-- Node8&#45;&gt;Node11 -->
<g id="edge12" class="edge">
<title>Node8&#45;&gt;Node11</title>
<path fill="none" stroke="#191970" d="M1407.0359,-123.3906C1410.9256,-115.9151 1416.4964,-105.2087 1421.5686,-95.4605"/>
<polygon fill="#191970" stroke="#191970" points="1424.6968,-97.0311 1426.2078,-86.5446 1418.4871,-93.8 1424.6968,-97.0311"/>
</g>
<!-- Node12&#45;&gt;Node4 -->
<g id="edge22" class="edge">
<title>Node12&#45;&gt;Node4</title>
<path fill="none" stroke="#191970" d="M568.7856,-124.3546C571.5714,-123.8609 574.3419,-123.4027 577.0359,-123 750.5068,-97.0713 805.7577,-148.4584 970.0359,-87 992.102,-78.7448 991.8537,-66.314 1013.0359,-56 1055.3492,-35.3969 1108.5979,-22.3286 1141.4723,-15.5868"/>
<polygon fill="#191970" stroke="#191970" points="1142.2628,-18.9982 1151.3902,-13.6186 1140.9002,-12.1321 1142.2628,-18.9982"/>
</g>
<!-- Node12&#45;&gt;Node6 -->
<g id="edge23" class="edge">
<title>Node12&#45;&gt;Node6</title>
<path fill="none" stroke="#191970" d="M489.4884,-130.077C414.4186,-124.2238 246.2338,-109.6512 106.0359,-87 92.0918,-84.7471 76.7749,-81.5523 63.8666,-78.648"/>
<polygon fill="#191970" stroke="#191970" points="64.6328,-75.233 54.103,-76.4047 63.0653,-82.0552 64.6328,-75.233"/>
</g>
<!-- Node12&#45;&gt;Node7 -->
<g id="edge24" class="edge">
<title>Node12&#45;&gt;Node7</title>
<path fill="none" stroke="#191970" d="M489.4917,-130.8656C395.5757,-125.4435 165.0087,-109.9246 139.0359,-87 122.9549,-72.8063 119.4094,-47.375 119.0979,-29.638"/>
<polygon fill="#191970" stroke="#191970" points="122.5992,-29.5747 119.2497,-19.5233 115.6,-29.4696 122.5992,-29.5747"/>
</g>
<!-- Node13 -->
<g id="node14" class="node">
<title>Node13</title>
<g id="a_node14"><a xlink:href="condition_8hxx.html" target="_top" xlink:title="Condition matching. ">
<polygon fill="#ffffff" stroke="#000000" points="380.0359,-62 380.0359,-81 454.0359,-81 454.0359,-62 380.0359,-62"/>
<text text-anchor="middle" x="417.0359" y="-69" font-family="Helvetica,sans-Serif" font-size="10.00" fill="#000000">condition.hxx</text>
</a>
</g>
</g>
<!-- Node12&#45;&gt;Node13 -->
<g id="edge14" class="edge">
<title>Node12&#45;&gt;Node13</title>
<path fill="none" stroke="#191970" d="M511.5359,-123.3906C493.2894,-113.3713 464.4735,-97.5483 443.4553,-86.0071"/>
<polygon fill="#191970" stroke="#191970" points="444.8631,-82.7872 434.413,-81.0419 441.4938,-88.923 444.8631,-82.7872"/>
</g>
<!-- Node15 -->
<g id="node16" class="node">
<title>Node15</title>
<polygon fill="#ffffff" stroke="#bfbfbf" points="1022.0359,-62 1022.0359,-81 1078.0359,-81 1078.0359,-62 1022.0359,-62"/>
<text text-anchor="middle" x="1050.0359" y="-69" font-family="Helvetica,sans-Serif" font-size="10.00" fill="#000000">algorithm</text>
</g>
<!-- Node12&#45;&gt;Node15 -->
<g id="edge18" class="edge">
<title>Node12&#45;&gt;Node15</title>
<path fill="none" stroke="#191970" d="M568.782,-124.3298C571.5686,-123.842 574.3403,-123.3919 577.0359,-123 767.2589,-95.3462 820.381,-128.6555 1008.0359,-87 1011.2986,-86.2757 1014.6502,-85.3575 1017.9688,-84.3308"/>
<polygon fill="#191970" stroke="#191970" points="1019.3684,-87.5515 1027.7036,-81.0113 1017.1091,-80.9261 1019.3684,-87.5515"/>
</g>
<!-- Node16 -->
<g id="node17" class="node">
<title>Node16</title>
<polygon fill="#ffffff" stroke="#bfbfbf" points="472.0359,-62 472.0359,-81 516.0359,-81 516.0359,-62 472.0359,-62"/>
<text text-anchor="middle" x="494.0359" y="-69" font-family="Helvetica,sans-Serif" font-size="10.00" fill="#000000">cmath</text>
</g>
<!-- Node12&#45;&gt;Node16 -->
<g id="edge19" class="edge">
<title>Node12&#45;&gt;Node16</title>
<path fill="none" stroke="#191970" d="M523.5671,-123.3906C518.5113,-114.5068 510.8587,-101.0601 504.6105,-90.0811"/>
<polygon fill="#191970" stroke="#191970" points="507.5698,-88.2048 499.5817,-81.2449 501.4861,-91.6672 507.5698,-88.2048"/>
</g>
<!-- Node17 -->
<g id="node18" class="node">
<title>Node17</title>
<polygon fill="#ffffff" stroke="#bfbfbf" points="1096.5359,-62 1096.5359,-81 1143.5359,-81 1143.5359,-62 1096.5359,-62"/>
<text text-anchor="middle" x="1120.0359" y="-69" font-family="Helvetica,sans-Serif" font-size="10.00" fill="#000000">iterator</text>
</g>
<!-- Node12&#45;&gt;Node17 -->
<g id="edge20" class="edge">
<title>Node12&#45;&gt;Node17</title>
<path fill="none" stroke="#191970" d="M568.7763,-124.2899C571.5643,-123.8117 574.3378,-123.3745 577.0359,-123 802.1084,-91.7566 867.1412,-144.2722 1087.0359,-87 1089.0113,-86.4855 1091.0127,-85.8546 1093.0022,-85.1449"/>
<polygon fill="#191970" stroke="#191970" points="1094.7918,-88.1909 1102.6752,-81.1125 1092.0983,-81.7298 1094.7918,-88.1909"/>
</g>
<!-- Node18 -->
<g id="node19" class="node">
<title>Node18</title>
<polygon fill="#ffffff" stroke="#bfbfbf" points="534.5359,-62 534.5359,-81 593.5359,-81 593.5359,-62 534.5359,-62"/>
<text text-anchor="middle" x="564.0359" y="-69" font-family="Helvetica,sans-Serif" font-size="10.00" fill="#000000">stdexcept</text>
</g>
<!-- Node12&#45;&gt;Node18 -->
<g id="edge21" class="edge">
<title>Node12&#45;&gt;Node18</title>
<path fill="none" stroke="#191970" d="M534.5046,-123.3906C539.5605,-114.5068 547.2131,-101.0601 553.4613,-90.0811"/>
<polygon fill="#191970" stroke="#191970" points="556.5857,-91.6672 558.49,-81.2449 550.5019,-88.2048 556.5857,-91.6672"/>
</g>
<!-- Node19 -->
<g id="node20" class="node">
<title>Node19</title>
<polygon fill="#ffffff" stroke="#bfbfbf" points="612.0359,-56.5 612.0359,-86.5 722.0359,-86.5 722.0359,-56.5 612.0359,-56.5"/>
<text text-anchor="start" x="620.0359" y="-74.5" font-family="Helvetica,sans-Serif" font-size="10.00" fill="#000000">boost/container/small</text>
<text text-anchor="middle" x="667.0359" y="-63.5" font-family="Helvetica,sans-Serif" font-size="10.00" fill="#000000">_vector.hpp</text>
</g>
<!-- Node12&#45;&gt;Node19 -->
<g id="edge25" class="edge">
<title>Node12&#45;&gt;Node19</title>
<path fill="none" stroke="#191970" d="M550.5984,-123.3906C570.1397,-114.682 599.5196,-101.5888 623.8775,-90.7336"/>
<polygon fill="#191970" stroke="#191970" points="625.568,-93.8122 633.2773,-86.5446 622.7185,-87.4183 625.568,-93.8122"/>
</g>
<!-- Node20 -->
<g id="node21" class="node">
<title>Node20</title>
<polygon fill="#ffffff" stroke="#bfbfbf" points="740.0359,-62 740.0359,-81 890.0359,-81 890.0359,-62 740.0359,-62"/>
<text text-anchor="middle" x="815.0359" y="-69" font-family="Helvetica,sans-Serif" font-size="10.00" fill="#000000">boost/multi_index/member.hpp</text>
</g>
<!-- Node12&#45;&gt;Node20 -->
<g id="edge26" class="edge">
<title>Node12&#45;&gt;Node20</title>
<path fill="none" stroke="#191970" d="M568.803,-124.4487C618.653,-113.7292 704.3416,-95.3031 760.3412,-83.2613"/>
<polygon fill="#191970" stroke="#191970" points="761.396,-86.6145 770.4367,-81.0904 759.9244,-79.771 761.396,-86.6145"/>
</g>
<!-- Node21 -->
<g id="node22" class="node">
<title>Node21</title>
<polygon fill="#ffffff" stroke="#bfbfbf" points="148.5359,-56.5 148.5359,-86.5 249.5359,-86.5 249.5359,-56.5 148.5359,-56.5"/>
<text text-anchor="start" x="156.5359" y="-74.5" font-family="Helvetica,sans-Serif" font-size="10.00" fill="#000000">boost/range/iterator</text>
<text text-anchor="middle" x="199.0359" y="-63.5" font-family="Helvetica,sans-Serif" font-size="10.00" fill="#000000">_range_core.hpp</text>
</g>
<!-- Node12&#45;&gt;Node21 -->
<g id="edge27" class="edge">
<title>Node12&#45;&gt;Node21</title>
<path fill="none" stroke="#191970" d="M489.4887,-127.3275C438.6074,-119.7954 347.3093,-105.4919 259.5555,-87.0051"/>
<polygon fill="#191970" stroke="#191970" points="260.2134,-83.5668 249.7038,-84.9086 258.7563,-90.4135 260.2134,-83.5668"/>
</g>
<!-- Node22 -->
<g id="node23" class="node">
<title>Node22</title>
<polygon fill="#ffffff" stroke="#bfbfbf" points="268.0359,-56.5 268.0359,-86.5 362.0359,-86.5 362.0359,-56.5 268.0359,-56.5"/>
<text text-anchor="start" x="276.0359" y="-74.5" font-family="Helvetica,sans-Serif" font-size="10.00" fill="#000000">boost/utility/string</text>
<text text-anchor="middle" x="315.0359" y="-63.5" font-family="Helvetica,sans-Serif" font-size="10.00" fill="#000000">_view.hpp</text>
</g>
<!-- Node12&#45;&gt;Node22 -->
<g id="edge28" class="edge">
<title>Node12&#45;&gt;Node22</title>
<path fill="none" stroke="#191970" d="M495.5984,-123.3906C462.5456,-113.8918 411.3414,-99.1766 371.8901,-87.8389"/>
<polygon fill="#191970" stroke="#191970" points="372.7092,-84.4327 362.1315,-85.0345 370.7758,-91.1604 372.7092,-84.4327"/>
</g>
<!-- Node13&#45;&gt;Node4 -->
<g id="edge15" class="edge">
<title>Node13&#45;&gt;Node4</title>
<path fill="none" stroke="#191970" d="M441.5435,-61.9293C448.4013,-59.6134 455.9256,-57.4036 463.0359,-56 595.935,-29.7651 1022.7012,-14.6863 1141.2387,-10.9324"/>
<polygon fill="#191970" stroke="#191970" points="1141.5352,-14.425 1151.4209,-10.614 1141.3164,-7.4284 1141.5352,-14.425"/>
</g>
<!-- Node13&#45;&gt;Node7 -->
<g id="edge17" class="edge">
<title>Node13&#45;&gt;Node7</title>
<path fill="none" stroke="#191970" d="M390.9599,-61.9891C384.5027,-59.8352 377.5629,-57.6884 371.0359,-56 293.4797,-35.9377 200.2567,-21.2668 152.1938,-14.3804"/>
<polygon fill="#191970" stroke="#191970" points="152.4814,-10.8863 142.09,-12.9526 151.5018,-17.8175 152.4814,-10.8863"/>
</g>
<!-- Node14 -->
<g id="node15" class="node">
<title>Node14</title>
<polygon fill="#ffffff" stroke="#bfbfbf" points="398.0359,-.5 398.0359,-19.5 436.0359,-19.5 436.0359,-.5 398.0359,-.5"/>
<text text-anchor="middle" x="417.0359" y="-7.5" font-family="Helvetica,sans-Serif" font-size="10.00" fill="#000000">tuple</text>
</g>
<!-- Node13&#45;&gt;Node14 -->
<g id="edge16" class="edge">
<title>Node13&#45;&gt;Node14</title>
<path fill="none" stroke="#191970" d="M417.0359,-61.8906C417.0359,-53.3657 417.0359,-40.6392 417.0359,-29.9235"/>
<polygon fill="#191970" stroke="#191970" points="420.536,-29.7448 417.0359,-19.7449 413.536,-29.7449 420.536,-29.7448"/>
</g>
<!-- Node24&#45;&gt;Node4 -->
<g id="edge33" class="edge">
<title>Node24&#45;&gt;Node4</title>
<path fill="none" stroke="#191970" d="M63.7805,-124.5294C66.5554,-123.9341 69.338,-123.4089 72.0359,-123 435.7856,-67.8707 540.6192,-170.0093 899.0359,-87 932.5803,-79.2311 937.3277,-66.7589 970.0359,-56 1029.47,-36.45 1101.4025,-22.229 1141.4049,-15.1218"/>
<polygon fill="#191970" stroke="#191970" points="1142.0835,-18.5563 1151.3323,-13.3881 1140.8792,-11.6607 1142.0835,-18.5563"/>
</g>
<!-- Node24&#45;&gt;Node6 -->
<g id="edge34" class="edge">
<title>Node24&#45;&gt;Node6</title>
<path fill="none" stroke="#191970" d="M34.0359,-123.3906C34.0359,-114.8657 34.0359,-102.1392 34.0359,-91.4235"/>
<polygon fill="#191970" stroke="#191970" points="37.536,-91.2448 34.0359,-81.2449 30.536,-91.2449 37.536,-91.2448"/>
</g>
<!-- Node24&#45;&gt;Node7 -->
<g id="edge35" class="edge">
<title>Node24&#45;&gt;Node7</title>
<path fill="none" stroke="#191970" d="M24.9476,-123.3185C11.7286,-108.021 -9.6996,-77.7648 5.0359,-56 23.3412,-28.9625 60.39,-17.8155 87.5072,-13.2207"/>
<polygon fill="#191970" stroke="#191970" points="88.3316,-16.6371 97.714,-11.7154 87.3103,-9.712 88.3316,-16.6371"/>
</g>
<!-- Node25&#45;&gt;Node4 -->
<g id="edge41" class="edge">
<title>Node25&#45;&gt;Node4</title>
<path fill="none" stroke="#191970" d="M1236.5431,-123.3484C1224.94,-102.9601 1197.7613,-55.2033 1182.6474,-28.6459"/>
<polygon fill="#191970" stroke="#191970" points="1185.4913,-26.5667 1177.5032,-19.6068 1179.4075,-30.0291 1185.4913,-26.5667"/>
</g>
<!-- Node25&#45;&gt;Node7 -->
<g id="edge42" class="edge">
<title>Node25&#45;&gt;Node7</title>
<path fill="none" stroke="#191970" d="M1200.4844,-125.5235C1154.4625,-117.0406 1078.1546,-102.3758 1013.0359,-87 961.9345,-74.934 950.8529,-64.4816 899.0359,-56 824.5926,-43.8148 290.0626,-18.0148 152.3367,-11.5124"/>
<polygon fill="#191970" stroke="#191970" points="152.1911,-8.0018 142.0374,-11.0272 151.8616,-14.994 152.1911,-8.0018"/>
</g>
<!-- Node25&#45;&gt;Node9 -->
<g id="edge39" class="edge">
<title>Node25&#45;&gt;Node9</title>
<path fill="none" stroke="#191970" d="M1283.5457,-126.1876C1334.4495,-117.6913 1423.3031,-102.4001 1499.0359,-87 1511.1183,-84.5431 1524.3476,-81.5883 1535.8997,-78.9205"/>
<polygon fill="#191970" stroke="#191970" points="1537.0134,-82.2548 1545.9563,-76.5737 1535.4225,-75.4379 1537.0134,-82.2548"/>
</g>
<!-- Node25&#45;&gt;Node15 -->
<g id="edge37" class="edge">
<title>Node25&#45;&gt;Node15</title>
<path fill="none" stroke="#191970" d="M1205.9743,-123.4895C1174.3309,-114.8625 1127.2223,-101.3332 1087.0359,-87 1085.1664,-86.3332 1083.2545,-85.6228 1081.333,-84.8867"/>
<polygon fill="#191970" stroke="#191970" points="1082.3799,-81.536 1071.795,-81.0756 1079.7825,-88.0363 1082.3799,-81.536"/>
</g>
<!-- Node25&#45;&gt;Node17 -->
<g id="edge38" class="edge">
<title>Node25&#45;&gt;Node17</title>
<path fill="none" stroke="#191970" d="M1222.9734,-123.3906C1202.9187,-113.2811 1171.1425,-97.2628 1148.1975,-85.6962"/>
<polygon fill="#191970" stroke="#191970" points="1149.4696,-82.418 1138.9645,-81.0419 1146.3186,-88.6687 1149.4696,-82.418"/>
</g>
<!-- Node26 -->
<g id="node27" class="node">
<title>Node26</title>
<polygon fill="#ffffff" stroke="#bfbfbf" points="1238.5359,-62 1238.5359,-81 1279.5359,-81 1279.5359,-62 1238.5359,-62"/>
<text text-anchor="middle" x="1259.0359" y="-69" font-family="Helvetica,sans-Serif" font-size="10.00" fill="#000000">stack</text>
</g>
<!-- Node25&#45;&gt;Node26 -->
<g id="edge40" class="edge">
<title>Node25&#45;&gt;Node26</title>
<path fill="none" stroke="#191970" d="M1244.6921,-123.3906C1247.0734,-114.776 1250.6407,-101.8708 1253.6219,-91.0858"/>
<polygon fill="#191970" stroke="#191970" points="1257.0513,-91.8159 1256.3422,-81.2449 1250.3043,-89.9509 1257.0513,-91.8159"/>
</g>
</g>
</svg>
