<?xml version="1.0" encoding="UTF-8" standalone="no"?>
<!DOCTYPE svg PUBLIC "-//W3C//DTD SVG 1.1//EN"
 "http://www.w3.org/Graphics/SVG/1.1/DTD/svg11.dtd">
<!-- Generated by graphviz version 2.40.1 (20161225.0304)
 -->
<!-- Title: misspelled_line_loop Pages: 1 -->
<svg width="481pt" height="78pt"
 viewBox="0.00 0.00 481.00 77.50" xmlns="http://www.w3.org/2000/svg" xmlns:xlink="http://www.w3.org/1999/xlink">
<g id="graph0" class="graph" transform="scale(1 1) rotate(0) translate(4 73.5)">
<title>misspelled_line_loop</title>
<polygon fill="#ffffff" stroke="transparent" points="-4,4 -4,-73.5 477,-73.5 477,4 -4,4"/>
<!-- Node35 -->
<g id="node1" class="node">
<title>Node35</title>
<polygon fill="#bfbfbf" stroke="#000000" points="0,-28 0,-47 107,-47 107,-28 0,-28"/>
<text text-anchor="middle" x="53.5" y="-35" font-family="Helvetica,sans-Serif" font-size="10.00" fill="#000000">misspelled_line_loop</text>
</g>
<!-- Node36 -->
<g id="node2" class="node">
<title>Node36</title>
<g id="a_node2"><a xlink:href="namespacenuspell.html#aa7e4995c62f0034c3f760c93a3d25dd9" target="_top" xlink:title="Splits on whitespace, outputs to vector of strings. ">
<polygon fill="#ffffff" stroke="#000000" points="143,-48 143,-67 295,-67 295,-48 143,-48"/>
<text text-anchor="middle" x="219" y="-55" font-family="Helvetica,sans-Serif" font-size="10.00" fill="#000000">nuspell::split_on_whitespace_v</text>
</a>
</g>
</g>
<!-- Node35&#45;&gt;Node36 -->
<g id="edge1" class="edge">
<title>Node35&#45;&gt;Node36</title>
<path fill="none" stroke="#191970" d="M107.2331,-43.9934C115.4416,-44.9854 124.0863,-46.0301 132.7821,-47.0809"/>
<polygon fill="#191970" stroke="#191970" points="132.643,-50.5895 142.9907,-48.3146 133.4829,-43.6401 132.643,-50.5895"/>
</g>
<!-- Node38 -->
<g id="node4" class="node">
<title>Node38</title>
<g id="a_node4"><a xlink:href="class_my___dictionary.html#aea4b0e17845cec47e417eea4b64a0978" target="_top" xlink:title="My_Dictionary::spell">
<polygon fill="#ffffff" stroke="#000000" points="166,-9 166,-28 272,-28 272,-9 166,-9"/>
<text text-anchor="middle" x="219" y="-16" font-family="Helvetica,sans-Serif" font-size="10.00" fill="#000000">My_Dictionary::spell</text>
</a>
</g>
</g>
<!-- Node35&#45;&gt;Node38 -->
<g id="edge3" class="edge">
<title>Node35&#45;&gt;Node38</title>
<path fill="none" stroke="#191970" d="M107.2331,-31.3312C122.6407,-29.5624 139.5849,-27.6171 155.5197,-25.7878"/>
<polygon fill="#191970" stroke="#191970" points="156.2836,-29.2231 165.8191,-24.6054 155.4852,-22.2688 156.2836,-29.2231"/>
</g>
<!-- Node37 -->
<g id="node3" class="node">
<title>Node37</title>
<g id="a_node3"><a xlink:href="namespacenuspell.html#aac7e2f7ff54b3d984e221a4c6524338d" target="_top" xlink:title="Splits on whitespace. ">
<polygon fill="#ffffff" stroke="#000000" points="331,-50 331,-69 473,-69 473,-50 331,-50"/>
<text text-anchor="middle" x="402" y="-57" font-family="Helvetica,sans-Serif" font-size="10.00" fill="#000000">nuspell::split_on_whitespace</text>
</a>
</g>
</g>
<!-- Node36&#45;&gt;Node37 -->
<g id="edge2" class="edge">
<title>Node36&#45;&gt;Node37</title>
<path fill="none" stroke="#191970" d="M295.0187,-58.3308C303.5591,-58.4241 312.2849,-58.5195 320.8866,-58.6135"/>
<polygon fill="#191970" stroke="#191970" points="320.871,-62.1135 330.9087,-58.723 320.9476,-55.1139 320.871,-62.1135"/>
</g>
<!-- Node39 -->
<g id="node5" class="node">
<title>Node39</title>
<g id="a_node5"><a xlink:href="classnuspell_1_1_hash___multiset.html#a615f7b3ae53f0cef400668746d8be501" target="_top" xlink:title="nuspell::Hash_Multiset\l::equal_range">
<polygon fill="#ffffff" stroke="#000000" points="344,-.5 344,-30.5 460,-30.5 460,-.5 344,-.5"/>
<text text-anchor="start" x="352" y="-18.5" font-family="Helvetica,sans-Serif" font-size="10.00" fill="#000000">nuspell::Hash_Multiset</text>
<text text-anchor="middle" x="402" y="-7.5" font-family="Helvetica,sans-Serif" font-size="10.00" fill="#000000">::equal_range</text>
</a>
</g>
</g>
<!-- Node38&#45;&gt;Node39 -->
<g id="edge4" class="edge">
<title>Node38&#45;&gt;Node39</title>
<path fill="none" stroke="#191970" d="M272.4231,-17.6242C291.5562,-17.3106 313.3927,-16.9526 333.6169,-16.621"/>
<polygon fill="#191970" stroke="#191970" points="333.7673,-20.1191 343.7086,-16.4556 333.6525,-13.1201 333.7673,-20.1191"/>
</g>
</g>
</svg>
