<?xml version="1.0" encoding="UTF-8" standalone="no"?>
<!DOCTYPE svg PUBLIC "-//W3C//DTD SVG 1.1//EN"
 "http://www.w3.org/Graphics/SVG/1.1/DTD/svg11.dtd">
<!-- Generated by graphviz version 2.40.1 (20161225.0304)
 -->
<!-- Title: src/nuspell/main.cxx Pages: 1 -->
<svg width="1544pt" height="263pt"
 viewBox="0.00 0.00 1544.00 263.00" xmlns="http://www.w3.org/2000/svg" xmlns:xlink="http://www.w3.org/1999/xlink">
<g id="graph0" class="graph" transform="scale(1 1) rotate(0) translate(4 259)">
<title>src/nuspell/main.cxx</title>
<polygon fill="#ffffff" stroke="transparent" points="-4,4 -4,-259 1540,-259 1540,4 -4,4"/>
<!-- Node0 -->
<g id="node1" class="node">
<title>Node0</title>
<polygon fill="#bfbfbf" stroke="#000000" points="1107.5,-235.5 1107.5,-254.5 1214.5,-254.5 1214.5,-235.5 1107.5,-235.5"/>
<text text-anchor="middle" x="1161" y="-242.5" font-family="Helvetica,sans-Serif" font-size="10.00" fill="#000000">src/nuspell/main.cxx</text>
</g>
<!-- Node1 -->
<g id="node2" class="node">
<title>Node1</title>
<g id="a_node2"><a xlink:href="dictionary_8hxx.html" target="_top" xlink:title="Dictionary spelling. ">
<polygon fill="#ffffff" stroke="#000000" points="1156.5,-179.5 1156.5,-198.5 1233.5,-198.5 1233.5,-179.5 1156.5,-179.5"/>
<text text-anchor="middle" x="1195" y="-186.5" font-family="Helvetica,sans-Serif" font-size="10.00" fill="#000000">dictionary.hxx</text>
</a>
</g>
</g>
<!-- Node0&#45;&gt;Node1 -->
<g id="edge1" class="edge">
<title>Node0&#45;&gt;Node1</title>
<path fill="none" stroke="#191970" d="M1166.9223,-235.2455C1171.6027,-227.5367 1178.2673,-216.5598 1183.9289,-207.2348"/>
<polygon fill="#191970" stroke="#191970" points="1186.9475,-209.007 1189.1455,-198.6427 1180.9639,-205.3741 1186.9475,-209.007"/>
</g>
<!-- Node4 -->
<g id="node5" class="node">
<title>Node4</title>
<polygon fill="#ffffff" stroke="#bfbfbf" points="866.5,-6 866.5,-25 907.5,-25 907.5,-6 866.5,-6"/>
<text text-anchor="middle" x="887" y="-13" font-family="Helvetica,sans-Serif" font-size="10.00" fill="#000000">string</text>
</g>
<!-- Node0&#45;&gt;Node4 -->
<g id="edge41" class="edge">
<title>Node0&#45;&gt;Node4</title>
<path fill="none" stroke="#191970" d="M1107.3841,-238.4414C1028.34,-225.4943 883.58,-188.4609 825,-87 812.4365,-65.2399 837.009,-43.9622 858.8323,-30.3559"/>
<polygon fill="#191970" stroke="#191970" points="860.7577,-33.2837 867.5917,-25.1876 857.2005,-27.2549 860.7577,-33.2837"/>
</g>
<!-- Node5 -->
<g id="node6" class="node">
<title>Node5</title>
<polygon fill="#ffffff" stroke="#bfbfbf" points="1051.5,-67.5 1051.5,-86.5 1134.5,-86.5 1134.5,-67.5 1051.5,-67.5"/>
<text text-anchor="middle" x="1093" y="-74.5" font-family="Helvetica,sans-Serif" font-size="10.00" fill="#000000">unordered_map</text>
</g>
<!-- Node0&#45;&gt;Node5 -->
<g id="edge42" class="edge">
<title>Node0&#45;&gt;Node5</title>
<path fill="none" stroke="#191970" d="M1157.1492,-235.4862C1146.3069,-208.6994 1115.3657,-132.2565 1100.7831,-96.2289"/>
<polygon fill="#191970" stroke="#191970" points="1103.9743,-94.7842 1096.978,-86.8279 1097.4856,-97.4106 1103.9743,-94.7842"/>
</g>
<!-- Node9 -->
<g id="node10" class="node">
<title>Node9</title>
<polygon fill="#ffffff" stroke="#bfbfbf" points="1209,-6 1209,-25 1251,-25 1251,-6 1209,-6"/>
<text text-anchor="middle" x="1230" y="-13" font-family="Helvetica,sans-Serif" font-size="10.00" fill="#000000">locale</text>
</g>
<!-- Node0&#45;&gt;Node9 -->
<g id="edge40" class="edge">
<title>Node0&#45;&gt;Node9</title>
<path fill="none" stroke="#191970" d="M1191.8586,-235.3874C1209.6491,-228.2198 1230.8362,-216.5866 1243,-199 1276.6479,-150.3514 1275.42,-124.1059 1260,-67 1256.7294,-54.8876 1249.827,-42.696 1243.4669,-33.2173"/>
<polygon fill="#191970" stroke="#191970" points="1246.3136,-31.1809 1237.6714,-25.052 1240.6052,-35.2325 1246.3136,-31.1809"/>
</g>
<!-- Node19 -->
<g id="node20" class="node">
<title>Node19</title>
<polygon fill="#ffffff" stroke="#bfbfbf" points="1012,-123.5 1012,-142.5 1062,-142.5 1062,-123.5 1012,-123.5"/>
<text text-anchor="middle" x="1037" y="-130.5" font-family="Helvetica,sans-Serif" font-size="10.00" fill="#000000">fstream</text>
</g>
<!-- Node0&#45;&gt;Node19 -->
<g id="edge38" class="edge">
<title>Node0&#45;&gt;Node19</title>
<path fill="none" stroke="#191970" d="M1135.2691,-235.4271C1117.0962,-227.6991 1093.0414,-215.4113 1076,-199 1062.1143,-185.6277 1051.4567,-166.2592 1044.8194,-151.9604"/>
<polygon fill="#191970" stroke="#191970" points="1047.9351,-150.3506 1040.7083,-142.603 1041.5263,-153.1663 1047.9351,-150.3506"/>
</g>
<!-- Node20 -->
<g id="node21" class="node">
<title>Node20</title>
<g id="a_node21"><a xlink:href="finder_8hxx.html" target="_top" xlink:title="Finding dictionaries. ">
<polygon fill="#ffffff" stroke="#000000" points="834.5,-67.5 834.5,-86.5 893.5,-86.5 893.5,-67.5 834.5,-67.5"/>
<text text-anchor="middle" x="864" y="-74.5" font-family="Helvetica,sans-Serif" font-size="10.00" fill="#000000">finder.hxx</text>
</a>
</g>
</g>
<!-- Node0&#45;&gt;Node20 -->
<g id="edge26" class="edge">
<title>Node0&#45;&gt;Node20</title>
<path fill="none" stroke="#191970" d="M1136.5629,-235.3865C1115.1767,-226.6934 1083.4771,-213.125 1057,-199 992.7893,-164.7448 921.4134,-116.8753 886.1745,-92.5371"/>
<polygon fill="#191970" stroke="#191970" points="887.835,-89.4292 877.6241,-86.6027 883.8437,-95.1798 887.835,-89.4292"/>
</g>
<!-- Node21 -->
<g id="node22" class="node">
<title>Node21</title>
<g id="a_node22"><a xlink:href="string__utils_8hxx.html" target="_top" xlink:title="String algorithms. ">
<polygon fill="#ffffff" stroke="#000000" points="911.5,-67.5 911.5,-86.5 994.5,-86.5 994.5,-67.5 911.5,-67.5"/>
<text text-anchor="middle" x="953" y="-74.5" font-family="Helvetica,sans-Serif" font-size="10.00" fill="#000000">string_utils.hxx</text>
</a>
</g>
</g>
<!-- Node0&#45;&gt;Node21 -->
<g id="edge30" class="edge">
<title>Node0&#45;&gt;Node21</title>
<path fill="none" stroke="#191970" d="M1154.9866,-235.4963C1138.5642,-209.7795 1092.7338,-139.6411 1071,-123 1050.9261,-107.6299 1025.0793,-96.7868 1002.6952,-89.5049"/>
<polygon fill="#191970" stroke="#191970" points="1003.6033,-86.1221 993.0153,-86.5029 1001.5298,-92.808 1003.6033,-86.1221"/>
</g>
<!-- Node23 -->
<g id="node24" class="node">
<title>Node23</title>
<polygon fill="#ffffff" stroke="#bfbfbf" points="1310.5,-179.5 1310.5,-198.5 1357.5,-198.5 1357.5,-179.5 1310.5,-179.5"/>
<text text-anchor="middle" x="1334" y="-186.5" font-family="Helvetica,sans-Serif" font-size="10.00" fill="#000000">clocale</text>
</g>
<!-- Node0&#45;&gt;Node23 -->
<g id="edge37" class="edge">
<title>Node0&#45;&gt;Node23</title>
<path fill="none" stroke="#191970" d="M1190.7398,-235.3733C1221.3377,-225.4687 1268.9005,-210.0727 1300.7306,-199.7693"/>
<polygon fill="#191970" stroke="#191970" points="1302.0347,-203.026 1310.4708,-196.6164 1299.8789,-196.3662 1302.0347,-203.026"/>
</g>
<!-- Node24 -->
<g id="node25" class="node">
<title>Node24</title>
<polygon fill="#ffffff" stroke="#bfbfbf" points="1376,-179.5 1376,-198.5 1430,-198.5 1430,-179.5 1376,-179.5"/>
<text text-anchor="middle" x="1403" y="-186.5" font-family="Helvetica,sans-Serif" font-size="10.00" fill="#000000">iostream</text>
</g>
<!-- Node0&#45;&gt;Node24 -->
<g id="edge39" class="edge">
<title>Node0&#45;&gt;Node24</title>
<path fill="none" stroke="#191970" d="M1206.977,-235.4389C1246.6227,-227.0359 1305.6272,-214.1539 1365.8471,-199.2006"/>
<polygon fill="#191970" stroke="#191970" points="1367.06,-202.5052 1375.9126,-196.6845 1365.3623,-195.7142 1367.06,-202.5052"/>
</g>
<!-- Node25 -->
<g id="node26" class="node">
<title>Node25</title>
<polygon fill="#ffffff" stroke="#bfbfbf" points="1448,-179.5 1448,-198.5 1536,-198.5 1536,-179.5 1448,-179.5"/>
<text text-anchor="middle" x="1492" y="-186.5" font-family="Helvetica,sans-Serif" font-size="10.00" fill="#000000">boost/locale.hpp</text>
</g>
<!-- Node0&#45;&gt;Node25 -->
<g id="edge43" class="edge">
<title>Node0&#45;&gt;Node25</title>
<path fill="none" stroke="#191970" d="M1214.6149,-236.4955C1268.5116,-227.8635 1354.2445,-213.9086 1437.8487,-199.1762"/>
<polygon fill="#191970" stroke="#191970" points="1438.5292,-202.6102 1447.7672,-197.4228 1437.3106,-195.7171 1438.5292,-202.6102"/>
</g>
<!-- Node2 -->
<g id="node3" class="node">
<title>Node2</title>
<g id="a_node3"><a xlink:href="aff__data_8hxx.html" target="_top" xlink:title="Affixing data structures. ">
<polygon fill="#ffffff" stroke="#000000" points="706.5,-123.5 706.5,-142.5 777.5,-142.5 777.5,-123.5 706.5,-123.5"/>
<text text-anchor="middle" x="742" y="-130.5" font-family="Helvetica,sans-Serif" font-size="10.00" fill="#000000">aff_data.hxx</text>
</a>
</g>
</g>
<!-- Node1&#45;&gt;Node2 -->
<g id="edge2" class="edge">
<title>Node1&#45;&gt;Node2</title>
<path fill="none" stroke="#191970" d="M1156.3775,-184.2255C1073.1265,-173.934 877.0959,-149.7006 787.7787,-138.6592"/>
<polygon fill="#191970" stroke="#191970" points="788.0389,-135.1648 777.685,-137.4114 787.18,-142.1119 788.0389,-135.1648"/>
</g>
<!-- Node8 -->
<g id="node9" class="node">
<title>Node8</title>
<g id="a_node9"><a xlink:href="locale__utils_8hxx.html" target="_top" xlink:title="Encoding transformations. ">
<polygon fill="#ffffff" stroke="#000000" points="1153,-67.5 1153,-86.5 1237,-86.5 1237,-67.5 1153,-67.5"/>
<text text-anchor="middle" x="1195" y="-74.5" font-family="Helvetica,sans-Serif" font-size="10.00" fill="#000000">locale_utils.hxx</text>
</a>
</g>
</g>
<!-- Node1&#45;&gt;Node8 -->
<g id="edge23" class="edge">
<title>Node1&#45;&gt;Node8</title>
<path fill="none" stroke="#191970" d="M1195,-179.4509C1195,-161.184 1195,-120.9553 1195,-96.6976"/>
<polygon fill="#191970" stroke="#191970" points="1198.5001,-96.5249 1195,-86.5249 1191.5001,-96.5249 1198.5001,-96.5249"/>
</g>
<!-- Node1&#45;&gt;Node9 -->
<g id="edge25" class="edge">
<title>Node1&#45;&gt;Node9</title>
<path fill="none" stroke="#191970" d="M1201.6983,-179.4571C1213.4507,-162.0634 1237.3573,-123.6109 1246,-87 1250.186,-69.2677 1244.679,-48.9951 1239.0152,-34.5759"/>
<polygon fill="#191970" stroke="#191970" points="1242.1634,-33.0369 1234.9997,-25.231 1235.732,-35.8005 1242.1634,-33.0369"/>
</g>
<!-- Node1&#45;&gt;Node19 -->
<g id="edge24" class="edge">
<title>Node1&#45;&gt;Node19</title>
<path fill="none" stroke="#191970" d="M1167.8388,-179.3733C1141.3197,-169.9741 1100.8474,-155.6295 1071.9428,-145.3848"/>
<polygon fill="#191970" stroke="#191970" points="1072.8378,-141.9887 1062.2431,-141.9469 1070.4993,-148.5866 1072.8378,-141.9887"/>
</g>
<!-- Node3 -->
<g id="node4" class="node">
<title>Node3</title>
<polygon fill="#ffffff" stroke="#bfbfbf" points="732.5,-67.5 732.5,-86.5 777.5,-86.5 777.5,-67.5 732.5,-67.5"/>
<text text-anchor="middle" x="755" y="-74.5" font-family="Helvetica,sans-Serif" font-size="10.00" fill="#000000">iosfwd</text>
</g>
<!-- Node2&#45;&gt;Node3 -->
<g id="edge3" class="edge">
<title>Node2&#45;&gt;Node3</title>
<path fill="none" stroke="#191970" d="M744.2644,-123.2455C745.9794,-115.8579 748.3912,-105.4689 750.4944,-96.4087"/>
<polygon fill="#191970" stroke="#191970" points="753.9095,-97.1751 752.7615,-86.6427 747.0908,-95.5922 753.9095,-97.1751"/>
</g>
<!-- Node2&#45;&gt;Node4 -->
<g id="edge4" class="edge">
<title>Node2&#45;&gt;Node4</title>
<path fill="none" stroke="#191970" d="M734.1864,-123.0432C724.3157,-109.1717 710.0851,-83.8425 723,-67 760.5246,-18.0636 799.4986,-53.2812 857,-31 858.2299,-30.5234 859.4754,-30.0109 860.7242,-29.4724"/>
<polygon fill="#191970" stroke="#191970" points="862.6206,-32.4469 870.1589,-25.0022 859.6233,-26.121 862.6206,-32.4469"/>
</g>
<!-- Node2&#45;&gt;Node5 -->
<g id="edge5" class="edge">
<title>Node2&#45;&gt;Node5</title>
<path fill="none" stroke="#191970" d="M777.9156,-127.6603C833.5015,-119.3373 943.6983,-102.6029 1037,-87 1038.4611,-86.7557 1039.9433,-86.5056 1041.439,-86.2514"/>
<polygon fill="#191970" stroke="#191970" points="1042.1681,-89.6774 1051.4278,-84.5286 1040.9784,-82.7792 1042.1681,-89.6774"/>
</g>
<!-- Node6 -->
<g id="node7" class="node">
<title>Node6</title>
<polygon fill="#ffffff" stroke="#bfbfbf" points="668,-6 668,-25 708,-25 708,-6 668,-6"/>
<text text-anchor="middle" x="688" y="-13" font-family="Helvetica,sans-Serif" font-size="10.00" fill="#000000">utility</text>
</g>
<!-- Node2&#45;&gt;Node6 -->
<g id="edge6" class="edge">
<title>Node2&#45;&gt;Node6</title>
<path fill="none" stroke="#191970" d="M725.3233,-123.485C713.1003,-115.4875 697.4008,-102.8328 690,-87 682.4574,-70.8637 682.7392,-50.3632 684.4452,-35.4548"/>
<polygon fill="#191970" stroke="#191970" points="687.945,-35.709 685.9215,-25.3093 681.018,-34.701 687.945,-35.709"/>
</g>
<!-- Node7 -->
<g id="node8" class="node">
<title>Node7</title>
<polygon fill="#ffffff" stroke="#bfbfbf" points="926,-6 926,-25 970,-25 970,-6 926,-6"/>
<text text-anchor="middle" x="948" y="-13" font-family="Helvetica,sans-Serif" font-size="10.00" fill="#000000">vector</text>
</g>
<!-- Node2&#45;&gt;Node7 -->
<g id="edge7" class="edge">
<title>Node2&#45;&gt;Node7</title>
<path fill="none" stroke="#191970" d="M777.7099,-132.1474C842.3359,-129.7693 974.6434,-120.7913 1003,-87 1018.838,-68.1265 994.4378,-45.447 973.2745,-30.7674"/>
<polygon fill="#191970" stroke="#191970" points="975.0981,-27.7774 964.825,-25.1863 971.24,-33.6182 975.0981,-27.7774"/>
</g>
<!-- Node2&#45;&gt;Node8 -->
<g id="edge8" class="edge">
<title>Node2&#45;&gt;Node8</title>
<path fill="none" stroke="#191970" d="M777.6192,-129.8856C846.2608,-123.6768 1001.8123,-108.6028 1142.6327,-87.1128"/>
<polygon fill="#191970" stroke="#191970" points="1143.3946,-90.5368 1152.7449,-85.5545 1142.3284,-83.6185 1143.3946,-90.5368"/>
</g>
<!-- Node10 -->
<g id="node11" class="node">
<title>Node10</title>
<g id="a_node11"><a xlink:href="structures_8hxx.html" target="_top" xlink:title="Data structures. ">
<polygon fill="#ffffff" stroke="#000000" points="558.5,-67.5 558.5,-86.5 637.5,-86.5 637.5,-67.5 558.5,-67.5"/>
<text text-anchor="middle" x="598" y="-74.5" font-family="Helvetica,sans-Serif" font-size="10.00" fill="#000000">structures.hxx</text>
</a>
</g>
</g>
<!-- Node2&#45;&gt;Node10 -->
<g id="edge11" class="edge">
<title>Node2&#45;&gt;Node10</title>
<path fill="none" stroke="#191970" d="M717.2455,-123.3733C693.7151,-114.2226 658.1313,-100.3844 631.9574,-90.2057"/>
<polygon fill="#191970" stroke="#191970" points="633.0201,-86.8636 622.4315,-86.5011 630.4829,-93.3877 633.0201,-86.8636"/>
</g>
<!-- Node8&#45;&gt;Node4 -->
<g id="edge10" class="edge">
<title>Node8&#45;&gt;Node4</title>
<path fill="none" stroke="#191970" d="M1152.9979,-68.6388C1149.9552,-68.0716 1146.9318,-67.5197 1144,-67 1043.4185,-49.1695 1014.0574,-62.8502 917,-31 915.5378,-30.5202 914.0601,-29.9758 912.5853,-29.3851"/>
<polygon fill="#191970" stroke="#191970" points="913.6401,-26.0174 903.0933,-25.0093 910.7095,-32.3744 913.6401,-26.0174"/>
</g>
<!-- Node8&#45;&gt;Node9 -->
<g id="edge9" class="edge">
<title>Node8&#45;&gt;Node9</title>
<path fill="none" stroke="#191970" d="M1200.4688,-67.3906C1205.5246,-58.5068 1213.1772,-45.0601 1219.4254,-34.0811"/>
<polygon fill="#191970" stroke="#191970" points="1222.5498,-35.6672 1224.4541,-25.2449 1216.466,-32.2048 1222.5498,-35.6672"/>
</g>
<!-- Node10&#45;&gt;Node4 -->
<g id="edge16" class="edge">
<title>Node10&#45;&gt;Node4</title>
<path fill="none" stroke="#191970" d="M637.7342,-71.4364C699.8637,-62.4857 817.0397,-44.5238 857,-31 858.423,-30.5184 859.8616,-29.978 861.2986,-29.3952"/>
<polygon fill="#191970" stroke="#191970" points="862.9618,-32.4824 870.573,-25.1121 860.0269,-26.1274 862.9618,-32.4824"/>
</g>
<!-- Node10&#45;&gt;Node6 -->
<g id="edge17" class="edge">
<title>Node10&#45;&gt;Node6</title>
<path fill="none" stroke="#191970" d="M612.0625,-67.3906C626.3286,-57.6421 648.635,-42.3994 665.3872,-30.9521"/>
<polygon fill="#191970" stroke="#191970" points="667.7545,-33.5736 674.0362,-25.0419 663.8051,-27.7941 667.7545,-33.5736"/>
</g>
<!-- Node10&#45;&gt;Node7 -->
<g id="edge18" class="edge">
<title>Node10&#45;&gt;Node7</title>
<path fill="none" stroke="#191970" d="M637.5151,-72.8171C710.7253,-64.8143 864.6653,-46.7315 916,-31 917.8591,-30.4303 919.7453,-29.7661 921.6236,-29.0393"/>
<polygon fill="#191970" stroke="#191970" points="923.0291,-32.2447 930.7889,-25.0312 920.2243,-25.8312 923.0291,-32.2447"/>
</g>
<!-- Node11 -->
<g id="node12" class="node">
<title>Node11</title>
<polygon fill="#ffffff" stroke="#bfbfbf" points="792,-6 792,-25 848,-25 848,-6 792,-6"/>
<text text-anchor="middle" x="820" y="-13" font-family="Helvetica,sans-Serif" font-size="10.00" fill="#000000">algorithm</text>
</g>
<!-- Node10&#45;&gt;Node11 -->
<g id="edge12" class="edge">
<title>Node10&#45;&gt;Node11</title>
<path fill="none" stroke="#191970" d="M637.5845,-68.8154C675.1624,-60.6451 733.0221,-47.021 782,-31 784.1458,-30.2981 786.3427,-29.5325 788.545,-28.7296"/>
<polygon fill="#191970" stroke="#191970" points="790.0191,-31.9126 798.0944,-25.0541 787.5046,-25.3798 790.0191,-31.9126"/>
</g>
<!-- Node12 -->
<g id="node13" class="node">
<title>Node12</title>
<polygon fill="#ffffff" stroke="#bfbfbf" points="0,-6 0,-25 44,-25 44,-6 0,-6"/>
<text text-anchor="middle" x="22" y="-13" font-family="Helvetica,sans-Serif" font-size="10.00" fill="#000000">cmath</text>
</g>
<!-- Node10&#45;&gt;Node12 -->
<g id="edge13" class="edge">
<title>Node10&#45;&gt;Node12</title>
<path fill="none" stroke="#191970" d="M558.1249,-75.5874C449.159,-71.4177 148.1851,-57.746 53,-31 51.2875,-30.5188 49.5571,-29.942 47.8358,-29.2982"/>
<polygon fill="#191970" stroke="#191970" points="48.8264,-25.9098 38.2644,-25.0756 46.0009,-32.3143 48.8264,-25.9098"/>
</g>
<!-- Node13 -->
<g id="node14" class="node">
<title>Node13</title>
<polygon fill="#ffffff" stroke="#bfbfbf" points="726.5,-6 726.5,-25 773.5,-25 773.5,-6 726.5,-6"/>
<text text-anchor="middle" x="750" y="-13" font-family="Helvetica,sans-Serif" font-size="10.00" fill="#000000">iterator</text>
</g>
<!-- Node10&#45;&gt;Node13 -->
<g id="edge14" class="edge">
<title>Node10&#45;&gt;Node13</title>
<path fill="none" stroke="#191970" d="M624.2119,-67.4713C648.4663,-58.512 685.4319,-44.4954 717,-31 718.3459,-30.4246 719.7179,-29.8267 721.1004,-29.2151"/>
<polygon fill="#191970" stroke="#191970" points="722.5555,-32.3983 730.2086,-25.0715 719.6569,-26.0266 722.5555,-32.3983"/>
</g>
<!-- Node14 -->
<g id="node15" class="node">
<title>Node14</title>
<polygon fill="#ffffff" stroke="#bfbfbf" points="62.5,-6 62.5,-25 121.5,-25 121.5,-6 62.5,-6"/>
<text text-anchor="middle" x="92" y="-13" font-family="Helvetica,sans-Serif" font-size="10.00" fill="#000000">stdexcept</text>
</g>
<!-- Node10&#45;&gt;Node14 -->
<g id="edge15" class="edge">
<title>Node10&#45;&gt;Node14</title>
<path fill="none" stroke="#191970" d="M558.3765,-74.5278C460.9642,-68.2203 211.85,-50.6345 131,-31 128.2122,-30.323 125.3593,-29.4875 122.5274,-28.5584"/>
<polygon fill="#191970" stroke="#191970" points="123.6985,-25.2601 113.1045,-25.1327 121.3068,-31.8389 123.6985,-25.2601"/>
</g>
<!-- Node15 -->
<g id="node16" class="node">
<title>Node15</title>
<polygon fill="#ffffff" stroke="#bfbfbf" points="140,-.5 140,-30.5 250,-30.5 250,-.5 140,-.5"/>
<text text-anchor="start" x="148" y="-18.5" font-family="Helvetica,sans-Serif" font-size="10.00" fill="#000000">boost/container/small</text>
<text text-anchor="middle" x="195" y="-7.5" font-family="Helvetica,sans-Serif" font-size="10.00" fill="#000000">_vector.hpp</text>
</g>
<!-- Node10&#45;&gt;Node15 -->
<g id="edge19" class="edge">
<title>Node10&#45;&gt;Node15</title>
<path fill="none" stroke="#191970" d="M558.3814,-72.9604C496.6837,-66.3786 373.7577,-52.1019 260.0016,-31.0757"/>
<polygon fill="#191970" stroke="#191970" points="260.5533,-27.6182 250.0802,-29.22 259.2663,-34.4989 260.5533,-27.6182"/>
</g>
<!-- Node16 -->
<g id="node17" class="node">
<title>Node16</title>
<polygon fill="#ffffff" stroke="#bfbfbf" points="268,-6 268,-25 418,-25 418,-6 268,-6"/>
<text text-anchor="middle" x="343" y="-13" font-family="Helvetica,sans-Serif" font-size="10.00" fill="#000000">boost/multi_index/member.hpp</text>
</g>
<!-- Node10&#45;&gt;Node16 -->
<g id="edge20" class="edge">
<title>Node10&#45;&gt;Node16</title>
<path fill="none" stroke="#191970" d="M558.436,-67.4581C513.77,-56.6857 441.0313,-39.1428 392.603,-27.4631"/>
<polygon fill="#191970" stroke="#191970" points="393.1987,-24.0065 382.6568,-25.0643 391.5574,-30.8113 393.1987,-24.0065"/>
</g>
<!-- Node17 -->
<g id="node18" class="node">
<title>Node17</title>
<polygon fill="#ffffff" stroke="#bfbfbf" points="436.5,-.5 436.5,-30.5 537.5,-30.5 537.5,-.5 436.5,-.5"/>
<text text-anchor="start" x="444.5" y="-18.5" font-family="Helvetica,sans-Serif" font-size="10.00" fill="#000000">boost/range/iterator</text>
<text text-anchor="middle" x="487" y="-7.5" font-family="Helvetica,sans-Serif" font-size="10.00" fill="#000000">_range_core.hpp</text>
</g>
<!-- Node10&#45;&gt;Node17 -->
<g id="edge21" class="edge">
<title>Node10&#45;&gt;Node17</title>
<path fill="none" stroke="#191970" d="M580.6563,-67.3906C565.286,-58.8747 542.3484,-46.166 523.0205,-35.4573"/>
<polygon fill="#191970" stroke="#191970" points="524.5971,-32.3295 514.1537,-30.5446 521.2046,-38.4525 524.5971,-32.3295"/>
</g>
<!-- Node18 -->
<g id="node19" class="node">
<title>Node18</title>
<polygon fill="#ffffff" stroke="#bfbfbf" points="556,-.5 556,-30.5 650,-30.5 650,-.5 556,-.5"/>
<text text-anchor="start" x="564" y="-18.5" font-family="Helvetica,sans-Serif" font-size="10.00" fill="#000000">boost/utility/string</text>
<text text-anchor="middle" x="603" y="-7.5" font-family="Helvetica,sans-Serif" font-size="10.00" fill="#000000">_view.hpp</text>
</g>
<!-- Node10&#45;&gt;Node18 -->
<g id="edge22" class="edge">
<title>Node10&#45;&gt;Node18</title>
<path fill="none" stroke="#191970" d="M598.7813,-67.3906C599.364,-60.2234 600.1881,-50.0862 600.9536,-40.671"/>
<polygon fill="#191970" stroke="#191970" points="604.4549,-40.7954 601.7769,-30.5446 597.4779,-40.2281 604.4549,-40.7954"/>
</g>
<!-- Node20&#45;&gt;Node4 -->
<g id="edge27" class="edge">
<title>Node20&#45;&gt;Node4</title>
<path fill="none" stroke="#191970" d="M867.5938,-67.3906C870.8491,-58.6862 875.7425,-45.6015 879.801,-34.7494"/>
<polygon fill="#191970" stroke="#191970" points="883.1309,-35.8373 883.3556,-25.2449 876.5744,-33.3852 883.1309,-35.8373"/>
</g>
<!-- Node20&#45;&gt;Node6 -->
<g id="edge28" class="edge">
<title>Node20&#45;&gt;Node6</title>
<path fill="none" stroke="#191970" d="M834.4161,-69.5008C804.3121,-61.4645 756.5805,-47.5975 717,-31 715.9734,-30.5695 714.9349,-30.1147 713.8924,-29.6417"/>
<polygon fill="#191970" stroke="#191970" points="715.1248,-26.347 704.6081,-25.0626 712.0284,-32.625 715.1248,-26.347"/>
</g>
<!-- Node20&#45;&gt;Node7 -->
<g id="edge29" class="edge">
<title>Node20&#45;&gt;Node7</title>
<path fill="none" stroke="#191970" d="M877.125,-67.3906C890.44,-57.6421 911.2594,-42.3994 926.8947,-30.9521"/>
<polygon fill="#191970" stroke="#191970" points="928.9661,-33.7734 934.9672,-25.0419 924.8309,-28.1253 928.9661,-33.7734"/>
</g>
<!-- Node21&#45;&gt;Node4 -->
<g id="edge35" class="edge">
<title>Node21&#45;&gt;Node4</title>
<path fill="none" stroke="#191970" d="M942.6875,-67.3906C932.5758,-57.9683 916.9558,-43.4134 904.8293,-32.1137"/>
<polygon fill="#191970" stroke="#191970" points="907.1601,-29.5015 897.4579,-25.2449 902.388,-34.6228 907.1601,-29.5015"/>
</g>
<!-- Node21&#45;&gt;Node7 -->
<g id="edge36" class="edge">
<title>Node21&#45;&gt;Node7</title>
<path fill="none" stroke="#191970" d="M952.2188,-67.3906C951.5257,-58.8657 950.491,-46.1392 949.6198,-35.4235"/>
<polygon fill="#191970" stroke="#191970" points="953.0912,-34.9283 948.7923,-25.2449 946.1142,-35.4956 953.0912,-34.9283"/>
</g>
<!-- Node21&#45;&gt;Node9 -->
<g id="edge33" class="edge">
<title>Node21&#45;&gt;Node9</title>
<path fill="none" stroke="#191970" d="M994.7696,-67.7262C1050.7868,-55.2892 1148.9703,-33.4903 1198.917,-22.4011"/>
<polygon fill="#191970" stroke="#191970" points="1199.8068,-25.7889 1208.8104,-20.2045 1198.2895,-18.9553 1199.8068,-25.7889"/>
</g>
<!-- Node21&#45;&gt;Node11 -->
<g id="edge31" class="edge">
<title>Node21&#45;&gt;Node11</title>
<path fill="none" stroke="#191970" d="M932.2188,-67.3906C910.1606,-57.1908 875.095,-40.9763 850.0331,-29.3875"/>
<polygon fill="#191970" stroke="#191970" points="851.1809,-26.0622 840.6353,-25.0419 848.2429,-32.4158 851.1809,-26.0622"/>
</g>
<!-- Node21&#45;&gt;Node13 -->
<g id="edge32" class="edge">
<title>Node21&#45;&gt;Node13</title>
<path fill="none" stroke="#191970" d="M911.495,-67.916C876.6808,-59.7891 825.9123,-46.7463 783,-31 781.4067,-30.4154 779.7852,-29.7832 778.1588,-29.1198"/>
<polygon fill="#191970" stroke="#191970" points="779.5183,-25.8943 768.9538,-25.0933 776.713,-32.3076 779.5183,-25.8943"/>
</g>
<!-- Node22 -->
<g id="node23" class="node">
<title>Node22</title>
<polygon fill="#ffffff" stroke="#bfbfbf" points="988.5,-6 988.5,-25 1029.5,-25 1029.5,-6 988.5,-6"/>
<text text-anchor="middle" x="1009" y="-13" font-family="Helvetica,sans-Serif" font-size="10.00" fill="#000000">stack</text>
</g>
<!-- Node21&#45;&gt;Node22 -->
<g id="edge34" class="edge">
<title>Node21&#45;&gt;Node22</title>
<path fill="none" stroke="#191970" d="M961.75,-67.3906C970.1662,-58.1478 983.0797,-43.966 993.281,-32.7628"/>
<polygon fill="#191970" stroke="#191970" points="995.9818,-34.9953 1000.1266,-25.2449 990.806,-30.2824 995.9818,-34.9953"/>
</g>
</g>
</svg>
