<?xml version="1.0" encoding="UTF-8" standalone="no"?>
<!DOCTYPE svg PUBLIC "-//W3C//DTD SVG 1.1//EN"
 "http://www.w3.org/Graphics/SVG/1.1/DTD/svg11.dtd">
<!-- Generated by graphviz version 2.40.1 (20161225.0304)
 -->
<!-- Title: main Pages: 1 -->
<svg width="573pt" height="382pt"
 viewBox="0.00 0.00 573.00 381.50" xmlns="http://www.w3.org/2000/svg" xmlns:xlink="http://www.w3.org/1999/xlink">
<g id="graph0" class="graph" transform="scale(1 1) rotate(0) translate(4 377.5)">
<title>main</title>
<polygon fill="#ffffff" stroke="transparent" points="-4,4 -4,-377.5 569,-377.5 569,4 -4,4"/>
<!-- Node19 -->
<g id="node1" class="node">
<title>Node19</title>
<polygon fill="#bfbfbf" stroke="#000000" points="0,-171.5 0,-190.5 38,-190.5 38,-171.5 0,-171.5"/>
<text text-anchor="middle" x="19" y="-178.5" font-family="Helvetica,sans-Serif" font-size="10.00" fill="#000000">main</text>
</g>
<!-- Node20 -->
<g id="node2" class="node">
<title>Node20</title>
<g id="a_node2"><a xlink:href="namespacenuspell.html#aae159e86a8a1edad724249d330d985b1" target="_top" xlink:title="nuspell::install_ctype\l_facets_inplace">
<polygon fill="#ffffff" stroke="#000000" points="76.5,-343 76.5,-373 184.5,-373 184.5,-343 76.5,-343"/>
<text text-anchor="start" x="84.5" y="-361" font-family="Helvetica,sans-Serif" font-size="10.00" fill="#000000">nuspell::install_ctype</text>
<text text-anchor="middle" x="130.5" y="-350" font-family="Helvetica,sans-Serif" font-size="10.00" fill="#000000">_facets_inplace</text>
</a>
</g>
</g>
<!-- Node19&#45;&gt;Node20 -->
<g id="edge1" class="edge">
<title>Node19&#45;&gt;Node20</title>
<path fill="none" stroke="#191970" d="M19.8761,-190.5257C22.7595,-216.6505 34.1817,-290.318 74,-333 75.3445,-334.4412 76.7871,-335.8043 78.3067,-337.0931"/>
<polygon fill="#191970" stroke="#191970" points="76.2845,-339.9498 86.45,-342.9354 80.3651,-334.2622 76.2845,-339.9498"/>
</g>
<!-- Node21 -->
<g id="node3" class="node">
<title>Node21</title>
<g id="a_node3"><a xlink:href="main_8cxx.html#af8c650bca476b3f8959df7215c4c134f" target="_top" xlink:title="Prints help information. ">
<polygon fill="#ffffff" stroke="#000000" points="101,-304.5 101,-323.5 160,-323.5 160,-304.5 101,-304.5"/>
<text text-anchor="middle" x="130.5" y="-311.5" font-family="Helvetica,sans-Serif" font-size="10.00" fill="#000000">print_help</text>
</a>
</g>
</g>
<!-- Node19&#45;&gt;Node21 -->
<g id="edge2" class="edge">
<title>Node19&#45;&gt;Node21</title>
<path fill="none" stroke="#191970" d="M21.0127,-190.805C26.0112,-212.7003 41.0411,-265.9267 74,-295 78.9403,-299.3579 84.9171,-302.7233 91.1095,-305.3204"/>
<polygon fill="#191970" stroke="#191970" points="90.3052,-308.749 100.8999,-308.8012 92.6503,-302.1534 90.3052,-308.749"/>
</g>
<!-- Node22 -->
<g id="node4" class="node">
<title>Node22</title>
<g id="a_node4"><a xlink:href="main_8cxx.html#a6150c93934b2505d7e4521b40fa8d571" target="_top" xlink:title="Prints the version number to standard output. ">
<polygon fill="#ffffff" stroke="#000000" points="94.5,-266.5 94.5,-285.5 166.5,-285.5 166.5,-266.5 94.5,-266.5"/>
<text text-anchor="middle" x="130.5" y="-273.5" font-family="Helvetica,sans-Serif" font-size="10.00" fill="#000000">print_version</text>
</a>
</g>
</g>
<!-- Node19&#45;&gt;Node22 -->
<g id="edge3" class="edge">
<title>Node19&#45;&gt;Node22</title>
<path fill="none" stroke="#191970" d="M23.4865,-190.6532C31.429,-206.7169 49.4688,-238.949 74,-257 77.4227,-259.5186 81.2011,-261.718 85.1329,-263.6359"/>
<polygon fill="#191970" stroke="#191970" points="83.9186,-266.9228 94.4906,-267.6177 86.6594,-260.4817 83.9186,-266.9228"/>
</g>
<!-- Node23 -->
<g id="node5" class="node">
<title>Node23</title>
<g id="a_node5"><a xlink:href="main_8cxx.html#a52c3a3f99e1d55b225a92fa017bada0d" target="_top" xlink:title="Lists dictionary paths and available dictionaries on the system to standard output. ">
<polygon fill="#ffffff" stroke="#000000" points="88.5,-228.5 88.5,-247.5 172.5,-247.5 172.5,-228.5 88.5,-228.5"/>
<text text-anchor="middle" x="130.5" y="-235.5" font-family="Helvetica,sans-Serif" font-size="10.00" fill="#000000">list_dictionaries</text>
</a>
</g>
</g>
<!-- Node19&#45;&gt;Node23 -->
<g id="edge4" class="edge">
<title>Node19&#45;&gt;Node23</title>
<path fill="none" stroke="#191970" d="M31.0473,-190.8061C41.7956,-199.1825 58.228,-211.0972 74,-219 78.285,-221.1471 82.8687,-223.1391 87.5028,-224.962"/>
<polygon fill="#191970" stroke="#191970" points="86.4128,-228.2903 97.0063,-228.4614 88.8317,-221.7215 86.4128,-228.2903"/>
</g>
<!-- Node24 -->
<g id="node6" class="node">
<title>Node24</title>
<g id="a_node6"><a xlink:href="main_8cxx.html#a4a642b8579e49cab4ef7293d66f1f5d5" target="_top" xlink:title="Normal loop, tokenize and check spelling. ">
<polygon fill="#ffffff" stroke="#000000" points="96,-152.5 96,-171.5 165,-171.5 165,-152.5 96,-152.5"/>
<text text-anchor="middle" x="130.5" y="-159.5" font-family="Helvetica,sans-Serif" font-size="10.00" fill="#000000">normal_loop</text>
</a>
</g>
</g>
<!-- Node19&#45;&gt;Node24 -->
<g id="edge5" class="edge">
<title>Node19&#45;&gt;Node24</title>
<path fill="none" stroke="#191970" d="M38.1675,-177.7338C51.2645,-175.502 69.1841,-172.4484 85.7533,-169.625"/>
<polygon fill="#191970" stroke="#191970" points="86.5703,-173.0363 95.8402,-167.9061 85.3944,-166.1358 86.5703,-173.0363"/>
</g>
<!-- Node28 -->
<g id="node10" class="node">
<title>Node28</title>
<g id="a_node10"><a xlink:href="main_8cxx.html#a3d8ece05cdc365860364604ebebab70d" target="_top" xlink:title="crude_parse_loop">
<polygon fill="#ffffff" stroke="#000000" points="84,-190.5 84,-209.5 177,-209.5 177,-190.5 84,-190.5"/>
<text text-anchor="middle" x="130.5" y="-197.5" font-family="Helvetica,sans-Serif" font-size="10.00" fill="#000000">crude_parse_loop</text>
</a>
</g>
</g>
<!-- Node19&#45;&gt;Node28 -->
<g id="edge9" class="edge">
<title>Node19&#45;&gt;Node28</title>
<path fill="none" stroke="#191970" d="M38.1675,-184.2662C48.0919,-185.9574 60.7855,-188.1204 73.5623,-190.2976"/>
<polygon fill="#191970" stroke="#191970" points="73.3297,-193.8083 83.7755,-192.038 74.5056,-186.9078 73.3297,-193.8083"/>
</g>
<!-- Node31 -->
<g id="node13" class="node">
<title>Node31</title>
<g id="a_node13"><a xlink:href="main_8cxx.html#aebf1b2aa274390a39317fbbca50d9d5e" target="_top" xlink:title="Prints misspelled words from an input stream to an output stream. ">
<polygon fill="#ffffff" stroke="#000000" points="74,-114.5 74,-133.5 187,-133.5 187,-114.5 74,-114.5"/>
<text text-anchor="middle" x="130.5" y="-121.5" font-family="Helvetica,sans-Serif" font-size="10.00" fill="#000000">misspelled_word_loop</text>
</a>
</g>
</g>
<!-- Node19&#45;&gt;Node31 -->
<g id="edge13" class="edge">
<title>Node19&#45;&gt;Node31</title>
<path fill="none" stroke="#191970" d="M31.0473,-171.1939C41.7956,-162.8175 58.228,-150.9028 74,-143 78.285,-140.8529 82.8687,-138.8609 87.5028,-137.038"/>
<polygon fill="#191970" stroke="#191970" points="88.8317,-140.2785 97.0063,-133.5386 86.4128,-133.7097 88.8317,-140.2785"/>
</g>
<!-- Node32 -->
<g id="node14" class="node">
<title>Node32</title>
<g id="a_node14"><a xlink:href="main_8cxx.html#a1f92dedeeb68a1a7bc2b720097d3b7a4" target="_top" xlink:title="misspelled_line_loop">
<polygon fill="#ffffff" stroke="#000000" points="77,-38.5 77,-57.5 184,-57.5 184,-38.5 77,-38.5"/>
<text text-anchor="middle" x="130.5" y="-45.5" font-family="Helvetica,sans-Serif" font-size="10.00" fill="#000000">misspelled_line_loop</text>
</a>
</g>
</g>
<!-- Node19&#45;&gt;Node32 -->
<g id="edge15" class="edge">
<title>Node19&#45;&gt;Node32</title>
<path fill="none" stroke="#191970" d="M21.0127,-171.195C26.0112,-149.2997 41.0411,-96.0733 74,-67 75.9354,-65.2928 78.0298,-63.7379 80.234,-62.3218"/>
<polygon fill="#191970" stroke="#191970" points="82.0213,-65.3348 89.175,-57.5198 78.7091,-59.168 82.0213,-65.3348"/>
</g>
<!-- Node35 -->
<g id="node17" class="node">
<title>Node35</title>
<g id="a_node17"><a xlink:href="main_8cxx.html#a1248d9e693e561e175cf2e5b55499fff" target="_top" xlink:title="correct_word_loop">
<polygon fill="#ffffff" stroke="#000000" points="82.5,-76.5 82.5,-95.5 178.5,-95.5 178.5,-76.5 82.5,-76.5"/>
<text text-anchor="middle" x="130.5" y="-83.5" font-family="Helvetica,sans-Serif" font-size="10.00" fill="#000000">correct_word_loop</text>
</a>
</g>
</g>
<!-- Node19&#45;&gt;Node35 -->
<g id="edge19" class="edge">
<title>Node19&#45;&gt;Node35</title>
<path fill="none" stroke="#191970" d="M23.4865,-171.3468C31.429,-155.2831 49.4688,-123.051 74,-105 76.6256,-103.068 79.4606,-101.3237 82.4135,-99.7503"/>
<polygon fill="#191970" stroke="#191970" points="83.9321,-102.9042 91.5352,-95.5255 80.9902,-96.5523 83.9321,-102.9042"/>
</g>
<!-- Node36 -->
<g id="node18" class="node">
<title>Node36</title>
<g id="a_node18"><a xlink:href="main_8cxx.html#a16580c4100b461806a9c49575bdd5428" target="_top" xlink:title="correct_line_loop">
<polygon fill="#ffffff" stroke="#000000" points="85.5,-.5 85.5,-19.5 175.5,-19.5 175.5,-.5 85.5,-.5"/>
<text text-anchor="middle" x="130.5" y="-7.5" font-family="Helvetica,sans-Serif" font-size="10.00" fill="#000000">correct_line_loop</text>
</a>
</g>
</g>
<!-- Node19&#45;&gt;Node36 -->
<g id="edge21" class="edge">
<title>Node19&#45;&gt;Node36</title>
<path fill="none" stroke="#191970" d="M19.6732,-171.276C22.038,-144.6446 32.2575,-69.8022 74,-29 75.6235,-27.4131 77.3837,-25.9586 79.2451,-24.6255"/>
<polygon fill="#191970" stroke="#191970" points="81.0896,-27.6014 87.9458,-19.524 77.549,-21.5628 81.0896,-27.6014"/>
</g>
<!-- Node25 -->
<g id="node7" class="node">
<title>Node25</title>
<g id="a_node7"><a xlink:href="classnuspell_1_1_basic___dictionary.html#a05ed25f4b65c93f0389295303e43e509" target="_top" xlink:title="nuspell::Basic_Dictionary\l::spell">
<polygon fill="#ffffff" stroke="#000000" points="238,-82 238,-112 366,-112 366,-82 238,-82"/>
<text text-anchor="start" x="246" y="-100" font-family="Helvetica,sans-Serif" font-size="10.00" fill="#000000">nuspell::Basic_Dictionary</text>
<text text-anchor="middle" x="302" y="-89" font-family="Helvetica,sans-Serif" font-size="10.00" fill="#000000">::spell</text>
</a>
</g>
</g>
<!-- Node24&#45;&gt;Node25 -->
<g id="edge6" class="edge">
<title>Node24&#45;&gt;Node25</title>
<path fill="none" stroke="#191970" d="M159.934,-152.4495C168.6803,-149.518 178.2586,-146.2152 187,-143 210.1014,-134.503 235.5363,-124.4076 256.5991,-115.8422"/>
<polygon fill="#191970" stroke="#191970" points="258.0103,-119.0466 265.9448,-112.0256 255.3638,-112.5661 258.0103,-119.0466"/>
</g>
<!-- Node26 -->
<g id="node8" class="node">
<title>Node26</title>
<g id="a_node8"><a xlink:href="classnuspell_1_1_basic___dictionary.html#ac50138a9f4de879a541838170f957977" target="_top" xlink:title="nuspell::Basic_Dictionary\l::suggest">
<polygon fill="#ffffff" stroke="#000000" points="238,-144 238,-174 366,-174 366,-144 238,-144"/>
<text text-anchor="start" x="246" y="-162" font-family="Helvetica,sans-Serif" font-size="10.00" fill="#000000">nuspell::Basic_Dictionary</text>
<text text-anchor="middle" x="302" y="-151" font-family="Helvetica,sans-Serif" font-size="10.00" fill="#000000">::suggest</text>
</a>
</g>
</g>
<!-- Node24&#45;&gt;Node26 -->
<g id="edge7" class="edge">
<title>Node24&#45;&gt;Node26</title>
<path fill="none" stroke="#191970" d="M165.2056,-161.3929C183.203,-161.0781 205.9171,-160.6808 227.6387,-160.3008"/>
<polygon fill="#191970" stroke="#191970" points="227.9243,-163.7964 237.8615,-160.122 227.8018,-156.7975 227.9243,-163.7964"/>
</g>
<!-- Node27 -->
<g id="node9" class="node">
<title>Node27</title>
<g id="a_node9"><a xlink:href="classnuspell_1_1_list___strings.html#a3baa052822894e35652f895e6324d4fb" target="_top" xlink:title="nuspell::List_Strings\l::clear">
<polygon fill="#ffffff" stroke="#000000" points="438.5,-144 438.5,-174 543.5,-174 543.5,-144 438.5,-144"/>
<text text-anchor="start" x="446.5" y="-162" font-family="Helvetica,sans-Serif" font-size="10.00" fill="#000000">nuspell::List_Strings</text>
<text text-anchor="middle" x="491" y="-151" font-family="Helvetica,sans-Serif" font-size="10.00" fill="#000000">::clear</text>
</a>
</g>
</g>
<!-- Node26&#45;&gt;Node27 -->
<g id="edge8" class="edge">
<title>Node26&#45;&gt;Node27</title>
<path fill="none" stroke="#191970" d="M366.2505,-159C386.2079,-159 408.1774,-159 428.0455,-159"/>
<polygon fill="#191970" stroke="#191970" points="428.222,-162.5001 438.2219,-159 428.2219,-155.5001 428.222,-162.5001"/>
</g>
<!-- Node28&#45;&gt;Node25 -->
<g id="edge12" class="edge">
<title>Node28&#45;&gt;Node25</title>
<path fill="none" stroke="#191970" d="M169.0805,-190.4699C175.3875,-187.9663 181.6125,-184.8525 187,-181 208.4032,-165.6948 202.5003,-150.4957 223,-134 231.3157,-127.3085 241.0402,-121.4971 250.7676,-116.5884"/>
<polygon fill="#191970" stroke="#191970" points="252.5311,-119.625 260.0488,-112.1594 249.5163,-113.3075 252.5311,-119.625"/>
</g>
<!-- Node29 -->
<g id="node11" class="node">
<title>Node29</title>
<g id="a_node11"><a xlink:href="namespacenuspell.html#ae7511832ec3d132234e782cd89bc18e3" target="_top" xlink:title="nuspell::parse_on_whitespace_v">
<polygon fill="#ffffff" stroke="#000000" points="223,-193.5 223,-212.5 381,-212.5 381,-193.5 223,-193.5"/>
<text text-anchor="middle" x="302" y="-200.5" font-family="Helvetica,sans-Serif" font-size="10.00" fill="#000000">nuspell::parse_on_whitespace_v</text>
</a>
</g>
</g>
<!-- Node28&#45;&gt;Node29 -->
<g id="edge10" class="edge">
<title>Node28&#45;&gt;Node29</title>
<path fill="none" stroke="#191970" d="M177.3631,-200.8198C188.3654,-201.0122 200.4513,-201.2236 212.6347,-201.4368"/>
<polygon fill="#191970" stroke="#191970" points="212.8104,-204.9403 222.8701,-201.6158 212.9329,-197.9413 212.8104,-204.9403"/>
</g>
<!-- Node30 -->
<g id="node12" class="node">
<title>Node30</title>
<g id="a_node12"><a xlink:href="namespacenuspell.html#a18195df0ca9db9b03c0824af311d4f9b" target="_top" xlink:title="Parses on whitespace. ">
<polygon fill="#ffffff" stroke="#000000" points="417,-193.5 417,-212.5 565,-212.5 565,-193.5 417,-193.5"/>
<text text-anchor="middle" x="491" y="-200.5" font-family="Helvetica,sans-Serif" font-size="10.00" fill="#000000">nuspell::parse_on_whitespace</text>
</a>
</g>
</g>
<!-- Node29&#45;&gt;Node30 -->
<g id="edge11" class="edge">
<title>Node29&#45;&gt;Node30</title>
<path fill="none" stroke="#191970" d="M381.0579,-203C389.4719,-203 398.0537,-203 406.5268,-203"/>
<polygon fill="#191970" stroke="#191970" points="406.7896,-206.5001 416.7896,-203 406.7896,-199.5001 406.7896,-206.5001"/>
</g>
<!-- Node31&#45;&gt;Node25 -->
<g id="edge14" class="edge">
<title>Node31&#45;&gt;Node25</title>
<path fill="none" stroke="#191970" d="M187.1308,-115.0844C200.0371,-113.0525 213.942,-110.8634 227.468,-108.7339"/>
<polygon fill="#191970" stroke="#191970" points="228.3807,-112.1334 237.7147,-107.1207 227.2921,-105.2186 228.3807,-112.1334"/>
</g>
<!-- Node32&#45;&gt;Node25 -->
<g id="edge18" class="edge">
<title>Node32&#45;&gt;Node25</title>
<path fill="none" stroke="#191970" d="M163.9741,-57.564C185.4969,-63.7134 214.1248,-71.8928 239.7274,-79.2078"/>
<polygon fill="#191970" stroke="#191970" points="238.7938,-82.5811 249.3706,-81.963 240.7169,-75.8504 238.7938,-82.5811"/>
</g>
<!-- Node33 -->
<g id="node15" class="node">
<title>Node33</title>
<g id="a_node15"><a xlink:href="namespacenuspell.html#aa7e4995c62f0034c3f760c93a3d25dd9" target="_top" xlink:title="Splits on whitespace, outputs to vector of strings. ">
<polygon fill="#ffffff" stroke="#000000" points="226,-27.5 226,-46.5 378,-46.5 378,-27.5 226,-27.5"/>
<text text-anchor="middle" x="302" y="-34.5" font-family="Helvetica,sans-Serif" font-size="10.00" fill="#000000">nuspell::split_on_whitespace_v</text>
</a>
</g>
</g>
<!-- Node32&#45;&gt;Node33 -->
<g id="edge16" class="edge">
<title>Node32&#45;&gt;Node33</title>
<path fill="none" stroke="#191970" d="M184.2931,-44.5497C194.2684,-43.9099 204.9169,-43.2269 215.5793,-42.543"/>
<polygon fill="#191970" stroke="#191970" points="216.0293,-46.0214 225.7847,-41.8884 215.5812,-39.0358 216.0293,-46.0214"/>
</g>
<!-- Node34 -->
<g id="node16" class="node">
<title>Node34</title>
<g id="a_node16"><a xlink:href="namespacenuspell.html#aac7e2f7ff54b3d984e221a4c6524338d" target="_top" xlink:title="Splits on whitespace. ">
<polygon fill="#ffffff" stroke="#000000" points="420,-27.5 420,-46.5 562,-46.5 562,-27.5 420,-27.5"/>
<text text-anchor="middle" x="491" y="-34.5" font-family="Helvetica,sans-Serif" font-size="10.00" fill="#000000">nuspell::split_on_whitespace</text>
</a>
</g>
</g>
<!-- Node33&#45;&gt;Node34 -->
<g id="edge17" class="edge">
<title>Node33&#45;&gt;Node34</title>
<path fill="none" stroke="#191970" d="M378.0566,-37C388.5504,-37 399.36,-37 409.9401,-37"/>
<polygon fill="#191970" stroke="#191970" points="409.9958,-40.5001 419.9958,-37 409.9958,-33.5001 409.9958,-40.5001"/>
</g>
<!-- Node35&#45;&gt;Node25 -->
<g id="edge20" class="edge">
<title>Node35&#45;&gt;Node25</title>
<path fill="none" stroke="#191970" d="M178.7287,-89.0934C193.907,-90.0669 211.039,-91.1658 227.5966,-92.2278"/>
<polygon fill="#191970" stroke="#191970" points="227.6056,-95.7354 237.8091,-92.8828 228.0537,-88.7498 227.6056,-95.7354"/>
</g>
<!-- Node36&#45;&gt;Node25 -->
<g id="edge23" class="edge">
<title>Node36&#45;&gt;Node25</title>
<path fill="none" stroke="#191970" d="M164.6922,-19.543C172.2302,-22.1793 180.0381,-25.3405 187,-29 204.7033,-38.3056 206.0667,-45.3574 223,-56 234.9893,-63.5353 248.5183,-70.9296 260.9483,-77.3183"/>
<polygon fill="#191970" stroke="#191970" points="259.6922,-80.6051 270.1956,-81.9934 262.8505,-74.358 259.6922,-80.6051"/>
</g>
<!-- Node36&#45;&gt;Node33 -->
<g id="edge22" class="edge">
<title>Node36&#45;&gt;Node33</title>
<path fill="none" stroke="#191970" d="M175.5596,-17.0939C192.6368,-19.7825 212.5169,-22.9123 231.387,-25.8831"/>
<polygon fill="#191970" stroke="#191970" points="231.0186,-29.3681 241.4413,-27.466 232.1073,-22.4533 231.0186,-29.3681"/>
</g>
</g>
</svg>
