<?xml version="1.0" encoding="UTF-8" standalone="no"?>
<!DOCTYPE svg PUBLIC "-//W3C//DTD SVG 1.1//EN"
 "http://www.w3.org/Graphics/SVG/1.1/DTD/svg11.dtd">
<!-- Generated by graphviz version 2.40.1 (20161225.0304)
 -->
<!-- Title: main Pages: 1 -->
<svg width="710pt" height="344pt"
 viewBox="0.00 0.00 710.00 343.50" xmlns="http://www.w3.org/2000/svg" xmlns:xlink="http://www.w3.org/1999/xlink">
<g id="graph0" class="graph" transform="scale(1 1) rotate(0) translate(4 339.5)">
<title>main</title>
<polygon fill="#ffffff" stroke="transparent" points="-4,4 -4,-339.5 706,-339.5 706,4 -4,4"/>
<!-- Node21 -->
<g id="node1" class="node">
<title>Node21</title>
<polygon fill="#bfbfbf" stroke="#000000" points="0,-152.5 0,-171.5 38,-171.5 38,-152.5 0,-152.5"/>
<text text-anchor="middle" x="19" y="-159.5" font-family="Helvetica,sans-Serif" font-size="10.00" fill="#000000">main</text>
</g>
<!-- Node22 -->
<g id="node2" class="node">
<title>Node22</title>
<g id="a_node2"><a xlink:href="namespacenuspell.html#aae159e86a8a1edad724249d330d985b1" target="_top" xlink:title="nuspell::install_ctype\l_facets_inplace">
<polygon fill="#ffffff" stroke="#000000" points="76.5,-305 76.5,-335 184.5,-335 184.5,-305 76.5,-305"/>
<text text-anchor="start" x="84.5" y="-323" font-family="Helvetica,sans-Serif" font-size="10.00" fill="#000000">nuspell::install_ctype</text>
<text text-anchor="middle" x="130.5" y="-312" font-family="Helvetica,sans-Serif" font-size="10.00" fill="#000000">_facets_inplace</text>
</a>
</g>
</g>
<!-- Node21&#45;&gt;Node22 -->
<g id="edge1" class="edge">
<title>Node21&#45;&gt;Node22</title>
<path fill="none" stroke="#191970" d="M20.4794,-171.7177C24.6121,-195.7231 38.4002,-258.5185 74,-295 75.4046,-296.4394 76.9066,-297.8021 78.4841,-299.0915"/>
<polygon fill="#191970" stroke="#191970" points="76.6921,-302.1085 86.9002,-304.9449 80.689,-296.3617 76.6921,-302.1085"/>
</g>
<!-- Node23 -->
<g id="node3" class="node">
<title>Node23</title>
<g id="a_node3"><a xlink:href="main_8cxx.html#af8c650bca476b3f8959df7215c4c134f" target="_top" xlink:title="Prints help information. ">
<polygon fill="#ffffff" stroke="#000000" points="101,-266.5 101,-285.5 160,-285.5 160,-266.5 101,-266.5"/>
<text text-anchor="middle" x="130.5" y="-273.5" font-family="Helvetica,sans-Serif" font-size="10.00" fill="#000000">print_help</text>
</a>
</g>
</g>
<!-- Node21&#45;&gt;Node23 -->
<g id="edge2" class="edge">
<title>Node21&#45;&gt;Node23</title>
<path fill="none" stroke="#191970" d="M21.9789,-171.6053C28.3752,-190.6719 45.2253,-233.4824 74,-257 79.0482,-261.1259 85.0335,-264.3717 91.1889,-266.9208"/>
<polygon fill="#191970" stroke="#191970" points="90.2969,-270.3185 100.8916,-270.3794 92.6473,-263.7249 90.2969,-270.3185"/>
</g>
<!-- Node24 -->
<g id="node4" class="node">
<title>Node24</title>
<g id="a_node4"><a xlink:href="main_8cxx.html#a6150c93934b2505d7e4521b40fa8d571" target="_top" xlink:title="Prints the version number to standard output. ">
<polygon fill="#ffffff" stroke="#000000" points="94.5,-228.5 94.5,-247.5 166.5,-247.5 166.5,-228.5 94.5,-228.5"/>
<text text-anchor="middle" x="130.5" y="-235.5" font-family="Helvetica,sans-Serif" font-size="10.00" fill="#000000">print_version</text>
</a>
</g>
</g>
<!-- Node21&#45;&gt;Node24 -->
<g id="edge3" class="edge">
<title>Node21&#45;&gt;Node24</title>
<path fill="none" stroke="#191970" d="M26.089,-171.8621C35.6354,-184.4754 53.776,-206.2125 74,-219 77.3963,-221.1475 81.0621,-223.0806 84.8375,-224.815"/>
<polygon fill="#191970" stroke="#191970" points="83.7771,-228.1631 94.357,-228.7258 86.4372,-221.6882 83.7771,-228.1631"/>
</g>
<!-- Node25 -->
<g id="node5" class="node">
<title>Node25</title>
<g id="a_node5"><a xlink:href="main_8cxx.html#a52c3a3f99e1d55b225a92fa017bada0d" target="_top" xlink:title="Lists dictionary paths and available dictionaries on the system to standard output. ">
<polygon fill="#ffffff" stroke="#000000" points="88.5,-190.5 88.5,-209.5 172.5,-209.5 172.5,-190.5 88.5,-190.5"/>
<text text-anchor="middle" x="130.5" y="-197.5" font-family="Helvetica,sans-Serif" font-size="10.00" fill="#000000">list_dictionaries</text>
</a>
</g>
</g>
<!-- Node21&#45;&gt;Node25 -->
<g id="edge4" class="edge">
<title>Node21&#45;&gt;Node25</title>
<path fill="none" stroke="#191970" d="M38.077,-168.6334C48.6542,-172.3004 62.0474,-176.9258 74,-181 79.9783,-183.0378 86.3173,-185.1838 92.5053,-187.2706"/>
<polygon fill="#191970" stroke="#191970" points="91.4373,-190.6041 102.0314,-190.4772 93.6705,-183.9698 91.4373,-190.6041"/>
</g>
<!-- Node26 -->
<g id="node6" class="node">
<title>Node26</title>
<g id="a_node6"><a xlink:href="main_8cxx.html#a4a642b8579e49cab4ef7293d66f1f5d5" target="_top" xlink:title="Normal loop, tokenize and check spelling. ">
<polygon fill="#ffffff" stroke="#000000" points="96,-152.5 96,-171.5 165,-171.5 165,-152.5 96,-152.5"/>
<text text-anchor="middle" x="130.5" y="-159.5" font-family="Helvetica,sans-Serif" font-size="10.00" fill="#000000">normal_loop</text>
</a>
</g>
</g>
<!-- Node21&#45;&gt;Node26 -->
<g id="edge5" class="edge">
<title>Node21&#45;&gt;Node26</title>
<path fill="none" stroke="#191970" d="M38.1675,-162C51.2645,-162 69.1841,-162 85.7533,-162"/>
<polygon fill="#191970" stroke="#191970" points="85.8403,-165.5001 95.8402,-162 85.8402,-158.5001 85.8403,-165.5001"/>
</g>
<!-- Node32 -->
<g id="node12" class="node">
<title>Node32</title>
<g id="a_node12"><a xlink:href="main_8cxx.html#aebf1b2aa274390a39317fbbca50d9d5e" target="_top" xlink:title="Prints misspelled words from an input stream to an output stream. ">
<polygon fill="#ffffff" stroke="#000000" points="74,-114.5 74,-133.5 187,-133.5 187,-114.5 74,-114.5"/>
<text text-anchor="middle" x="130.5" y="-121.5" font-family="Helvetica,sans-Serif" font-size="10.00" fill="#000000">misspelled_word_loop</text>
</a>
</g>
</g>
<!-- Node21&#45;&gt;Node32 -->
<g id="edge11" class="edge">
<title>Node21&#45;&gt;Node32</title>
<path fill="none" stroke="#191970" d="M38.077,-155.3666C48.6542,-151.6996 62.0474,-147.0742 74,-143 79.9783,-140.9622 86.3173,-138.8162 92.5053,-136.7294"/>
<polygon fill="#191970" stroke="#191970" points="93.6705,-140.0302 102.0314,-133.5228 91.4373,-133.3959 93.6705,-140.0302"/>
</g>
<!-- Node33 -->
<g id="node13" class="node">
<title>Node33</title>
<g id="a_node13"><a xlink:href="main_8cxx.html#a1f92dedeeb68a1a7bc2b720097d3b7a4" target="_top" xlink:title="misspelled_line_loop">
<polygon fill="#ffffff" stroke="#000000" points="77,-.5 77,-19.5 184,-19.5 184,-.5 77,-.5"/>
<text text-anchor="middle" x="130.5" y="-7.5" font-family="Helvetica,sans-Serif" font-size="10.00" fill="#000000">misspelled_line_loop</text>
</a>
</g>
</g>
<!-- Node21&#45;&gt;Node33 -->
<g id="edge13" class="edge">
<title>Node21&#45;&gt;Node33</title>
<path fill="none" stroke="#191970" d="M20.2228,-152.4317C23.8196,-128.2209 36.5747,-63.9731 74,-29 75.6895,-27.4212 77.5144,-25.9733 79.4384,-24.6454"/>
<polygon fill="#191970" stroke="#191970" points="81.4275,-27.5408 88.3943,-19.5587 77.9704,-21.4541 81.4275,-27.5408"/>
</g>
<!-- Node36 -->
<g id="node16" class="node">
<title>Node36</title>
<g id="a_node16"><a xlink:href="main_8cxx.html#a1248d9e693e561e175cf2e5b55499fff" target="_top" xlink:title="correct_word_loop">
<polygon fill="#ffffff" stroke="#000000" points="82.5,-76.5 82.5,-95.5 178.5,-95.5 178.5,-76.5 82.5,-76.5"/>
<text text-anchor="middle" x="130.5" y="-83.5" font-family="Helvetica,sans-Serif" font-size="10.00" fill="#000000">correct_word_loop</text>
</a>
</g>
</g>
<!-- Node21&#45;&gt;Node36 -->
<g id="edge17" class="edge">
<title>Node21&#45;&gt;Node36</title>
<path fill="none" stroke="#191970" d="M26.089,-152.1379C35.6354,-139.5246 53.776,-117.7875 74,-105 77.1598,-103.002 80.553,-101.1896 84.0506,-99.5501"/>
<polygon fill="#191970" stroke="#191970" points="85.5943,-102.6983 93.4648,-95.6057 82.8891,-96.2421 85.5943,-102.6983"/>
</g>
<!-- Node37 -->
<g id="node17" class="node">
<title>Node37</title>
<g id="a_node17"><a xlink:href="main_8cxx.html#a16580c4100b461806a9c49575bdd5428" target="_top" xlink:title="correct_line_loop">
<polygon fill="#ffffff" stroke="#000000" points="85.5,-38.5 85.5,-57.5 175.5,-57.5 175.5,-38.5 85.5,-38.5"/>
<text text-anchor="middle" x="130.5" y="-45.5" font-family="Helvetica,sans-Serif" font-size="10.00" fill="#000000">correct_line_loop</text>
</a>
</g>
</g>
<!-- Node21&#45;&gt;Node37 -->
<g id="edge19" class="edge">
<title>Node21&#45;&gt;Node37</title>
<path fill="none" stroke="#191970" d="M21.9789,-152.3947C28.3752,-133.3281 45.2253,-90.5176 74,-67 76.1422,-65.2492 78.4532,-63.6568 80.8743,-62.2089"/>
<polygon fill="#191970" stroke="#191970" points="82.6819,-65.2166 90.0187,-57.5732 79.5168,-58.9731 82.6819,-65.2166"/>
</g>
<!-- Node27 -->
<g id="node7" class="node">
<title>Node27</title>
<g id="a_node7"><a xlink:href="classnuspell_1_1_basic___dictionary.html#a05ed25f4b65c93f0389295303e43e509" target="_top" xlink:title="nuspell::Basic_Dictionary\l::spell">
<polygon fill="#ffffff" stroke="#000000" points="235,-71 235,-101 363,-101 363,-71 235,-71"/>
<text text-anchor="start" x="243" y="-89" font-family="Helvetica,sans-Serif" font-size="10.00" fill="#000000">nuspell::Basic_Dictionary</text>
<text text-anchor="middle" x="299" y="-78" font-family="Helvetica,sans-Serif" font-size="10.00" fill="#000000">::spell</text>
</a>
</g>
</g>
<!-- Node26&#45;&gt;Node27 -->
<g id="edge6" class="edge">
<title>Node26&#45;&gt;Node27</title>
<path fill="none" stroke="#191970" d="M161.5938,-152.452C169.9362,-149.6448 178.8896,-146.4059 187,-143 213.0501,-132.0603 241.405,-117.6025 263.0667,-105.9854"/>
<polygon fill="#191970" stroke="#191970" points="264.7842,-109.0357 271.9143,-101.1991 261.4535,-102.8789 264.7842,-109.0357"/>
</g>
<!-- Node28 -->
<g id="node8" class="node">
<title>Node28</title>
<g id="a_node8"><a xlink:href="namespacenuspell.html#a79258aeb32a39ce719a014950b33e5d6" target="_top" xlink:title="nuspell::utf8_to_wide">
<polygon fill="#ffffff" stroke="#000000" points="427.5,-114.5 427.5,-133.5 536.5,-133.5 536.5,-114.5 427.5,-114.5"/>
<text text-anchor="middle" x="482" y="-121.5" font-family="Helvetica,sans-Serif" font-size="10.00" fill="#000000">nuspell::utf8_to_wide</text>
</a>
</g>
</g>
<!-- Node27&#45;&gt;Node28 -->
<g id="edge7" class="edge">
<title>Node27&#45;&gt;Node28</title>
<path fill="none" stroke="#191970" d="M363.0045,-99.2906C383.6371,-103.5749 406.3259,-108.2862 426.3091,-112.4358"/>
<polygon fill="#191970" stroke="#191970" points="425.6802,-115.8798 436.1829,-114.4861 427.1034,-109.026 425.6802,-115.8798"/>
</g>
<!-- Node30 -->
<g id="node10" class="node">
<title>Node30</title>
<g id="a_node10"><a xlink:href="namespacenuspell.html#a7aade2ec1cb243eb5b3714007d59d63c" target="_top" xlink:title="nuspell::to_wide">
<polygon fill="#ffffff" stroke="#000000" points="438.5,-76.5 438.5,-95.5 525.5,-95.5 525.5,-76.5 438.5,-76.5"/>
<text text-anchor="middle" x="482" y="-83.5" font-family="Helvetica,sans-Serif" font-size="10.00" fill="#000000">nuspell::to_wide</text>
</a>
</g>
</g>
<!-- Node27&#45;&gt;Node30 -->
<g id="edge9" class="edge">
<title>Node27&#45;&gt;Node30</title>
<path fill="none" stroke="#191970" d="M363.0045,-86C384.3425,-86 407.8796,-86 428.349,-86"/>
<polygon fill="#191970" stroke="#191970" points="428.4358,-89.5001 438.4357,-86 428.4357,-82.5001 428.4358,-89.5001"/>
</g>
<!-- Node31 -->
<g id="node11" class="node">
<title>Node31</title>
<g id="a_node11"><a xlink:href="namespacenuspell.html#a9bf8e1a3f71282ed001fcf4f224ef9dd" target="_top" xlink:title="nuspell::to_narrow">
<polygon fill="#ffffff" stroke="#000000" points="434,-38.5 434,-57.5 530,-57.5 530,-38.5 434,-38.5"/>
<text text-anchor="middle" x="482" y="-45.5" font-family="Helvetica,sans-Serif" font-size="10.00" fill="#000000">nuspell::to_narrow</text>
</a>
</g>
</g>
<!-- Node27&#45;&gt;Node31 -->
<g id="edge10" class="edge">
<title>Node27&#45;&gt;Node31</title>
<path fill="none" stroke="#191970" d="M363.0045,-72.7094C383.6371,-68.4251 406.3259,-63.7138 426.3091,-59.5642"/>
<polygon fill="#191970" stroke="#191970" points="427.1034,-62.974 436.1829,-57.5139 425.6802,-56.1202 427.1034,-62.974"/>
</g>
<!-- Node29 -->
<g id="node9" class="node">
<title>Node29</title>
<g id="a_node9"><a xlink:href="namespacenuspell.html#aae8baee1ca83bf5a5e0d07a4e8fdbf81" target="_top" xlink:title="nuspell::utf_to_utf_my">
<polygon fill="#ffffff" stroke="#000000" points="589,-114.5 589,-133.5 702,-133.5 702,-114.5 589,-114.5"/>
<text text-anchor="middle" x="645.5" y="-121.5" font-family="Helvetica,sans-Serif" font-size="10.00" fill="#000000">nuspell::utf_to_utf_my</text>
</a>
</g>
</g>
<!-- Node28&#45;&gt;Node29 -->
<g id="edge8" class="edge">
<title>Node28&#45;&gt;Node29</title>
<path fill="none" stroke="#191970" d="M536.898,-124C550.3352,-124 564.8612,-124 578.7847,-124"/>
<polygon fill="#191970" stroke="#191970" points="578.7924,-127.5001 588.7924,-124 578.7924,-120.5001 578.7924,-127.5001"/>
</g>
<!-- Node32&#45;&gt;Node27 -->
<g id="edge12" class="edge">
<title>Node32&#45;&gt;Node27</title>
<path fill="none" stroke="#191970" d="M173.0197,-114.411C188.8136,-110.8492 207.2252,-106.697 225.0168,-102.6846"/>
<polygon fill="#191970" stroke="#191970" points="225.8317,-106.0888 234.8167,-100.4746 224.2917,-99.2603 225.8317,-106.0888"/>
</g>
<!-- Node33&#45;&gt;Node27 -->
<g id="edge16" class="edge">
<title>Node33&#45;&gt;Node27</title>
<path fill="none" stroke="#191970" d="M161.5938,-19.548C169.9362,-22.3552 178.8896,-25.5941 187,-29 213.0501,-39.9397 241.405,-54.3975 263.0667,-66.0146"/>
<polygon fill="#191970" stroke="#191970" points="261.4535,-69.1211 271.9143,-70.8009 264.7842,-62.9643 261.4535,-69.1211"/>
</g>
<!-- Node34 -->
<g id="node14" class="node">
<title>Node34</title>
<g id="a_node14"><a xlink:href="namespacenuspell.html#aa7e4995c62f0034c3f760c93a3d25dd9" target="_top" xlink:title="Splits on whitespace, outputs to vector of strings. ">
<polygon fill="#ffffff" stroke="#000000" points="223,-.5 223,-19.5 375,-19.5 375,-.5 223,-.5"/>
<text text-anchor="middle" x="299" y="-7.5" font-family="Helvetica,sans-Serif" font-size="10.00" fill="#000000">nuspell::split_on_whitespace_v</text>
</a>
</g>
</g>
<!-- Node33&#45;&gt;Node34 -->
<g id="edge14" class="edge">
<title>Node33&#45;&gt;Node34</title>
<path fill="none" stroke="#191970" d="M184.2777,-10C193.3561,-10 202.9799,-10 212.6408,-10"/>
<polygon fill="#191970" stroke="#191970" points="212.7006,-13.5001 222.7006,-10 212.7005,-6.5001 212.7006,-13.5001"/>
</g>
<!-- Node35 -->
<g id="node15" class="node">
<title>Node35</title>
<g id="a_node15"><a xlink:href="namespacenuspell.html#aac7e2f7ff54b3d984e221a4c6524338d" target="_top" xlink:title="Splits on whitespace. ">
<polygon fill="#ffffff" stroke="#000000" points="411,-.5 411,-19.5 553,-19.5 553,-.5 411,-.5"/>
<text text-anchor="middle" x="482" y="-7.5" font-family="Helvetica,sans-Serif" font-size="10.00" fill="#000000">nuspell::split_on_whitespace</text>
</a>
</g>
</g>
<!-- Node34&#45;&gt;Node35 -->
<g id="edge15" class="edge">
<title>Node34&#45;&gt;Node35</title>
<path fill="none" stroke="#191970" d="M375.0187,-10C383.5591,-10 392.2849,-10 400.8866,-10"/>
<polygon fill="#191970" stroke="#191970" points="400.9088,-13.5001 410.9087,-10 400.9087,-6.5001 400.9088,-13.5001"/>
</g>
<!-- Node36&#45;&gt;Node27 -->
<g id="edge18" class="edge">
<title>Node36&#45;&gt;Node27</title>
<path fill="none" stroke="#191970" d="M178.7853,-86C193.1447,-86 209.2201,-86 224.8274,-86"/>
<polygon fill="#191970" stroke="#191970" points="224.9933,-89.5001 234.9933,-86 224.9932,-82.5001 224.9933,-89.5001"/>
</g>
<!-- Node37&#45;&gt;Node27 -->
<g id="edge21" class="edge">
<title>Node37&#45;&gt;Node27</title>
<path fill="none" stroke="#191970" d="M173.0197,-57.589C188.8136,-61.1508 207.2252,-65.303 225.0168,-69.3154"/>
<polygon fill="#191970" stroke="#191970" points="224.2917,-72.7397 234.8167,-71.5254 225.8317,-65.9112 224.2917,-72.7397"/>
</g>
<!-- Node37&#45;&gt;Node34 -->
<g id="edge20" class="edge">
<title>Node37&#45;&gt;Node34</title>
<path fill="none" stroke="#191970" d="M173.0197,-38.411C195.4554,-33.3513 223.1732,-27.1004 246.8925,-21.7512"/>
<polygon fill="#191970" stroke="#191970" points="247.8011,-25.1343 256.7861,-19.5201 246.2611,-18.3058 247.8011,-25.1343"/>
</g>
</g>
</svg>
