<?xml version="1.0" encoding="UTF-8" standalone="no"?>
<!DOCTYPE svg PUBLIC "-//W3C//DTD SVG 1.1//EN"
 "http://www.w3.org/Graphics/SVG/1.1/DTD/svg11.dtd">
<!-- Generated by graphviz version 2.40.1 (20161225.0304)
 -->
<!-- Title: segment_nosuggest_loop Pages: 1 -->
<svg width="452pt" height="88pt"
 viewBox="0.00 0.00 452.00 88.00" xmlns="http://www.w3.org/2000/svg" xmlns:xlink="http://www.w3.org/1999/xlink">
<g id="graph0" class="graph" transform="scale(1 1) rotate(0) translate(4 84)">
<title>segment_nosuggest_loop</title>
<polygon fill="#ffffff" stroke="transparent" points="-4,4 -4,-84 448,-84 448,4 -4,4"/>
<!-- Node72 -->
<g id="node1" class="node">
<title>Node72</title>
<polygon fill="#bfbfbf" stroke="#000000" points="0,-30 0,-49 128,-49 128,-30 0,-30"/>
<text text-anchor="middle" x="64" y="-37" font-family="Helvetica,sans-Serif" font-size="10.00" fill="#000000">segment_nosuggest_loop</text>
</g>
<!-- Node73 -->
<g id="node2" class="node">
<title>Node73</title>
<g id="a_node2"><a xlink:href="class_my___dictionary.html#aea4b0e17845cec47e417eea4b64a0978" target="_top" xlink:title="My_Dictionary::spell">
<polygon fill="#ffffff" stroke="#000000" points="175,-53 175,-72 281,-72 281,-53 175,-53"/>
<text text-anchor="middle" x="228" y="-60" font-family="Helvetica,sans-Serif" font-size="10.00" fill="#000000">My_Dictionary::spell</text>
</a>
</g>
</g>
<!-- Node72&#45;&gt;Node73 -->
<g id="edge1" class="edge">
<title>Node72&#45;&gt;Node73</title>
<path fill="none" stroke="#191970" d="M128.3464,-48.5242C140.4049,-50.2153 152.998,-51.9814 165.0146,-53.6667"/>
<polygon fill="#191970" stroke="#191970" points="164.5593,-57.137 174.9485,-55.0599 165.5316,-50.2048 164.5593,-57.137"/>
</g>
<!-- Node75 -->
<g id="node4" class="node">
<title>Node75</title>
<g id="a_node4"><a xlink:href="classnuspell_1_1_basic___dictionary.html#ac50138a9f4de879a541838170f957977" target="_top" xlink:title="nuspell::Basic_Dictionary\l::suggest">
<polygon fill="#ffffff" stroke="#000000" points="164,-2.5 164,-32.5 292,-32.5 292,-2.5 164,-2.5"/>
<text text-anchor="start" x="172" y="-20.5" font-family="Helvetica,sans-Serif" font-size="10.00" fill="#000000">nuspell::Basic_Dictionary</text>
<text text-anchor="middle" x="228" y="-9.5" font-family="Helvetica,sans-Serif" font-size="10.00" fill="#000000">::suggest</text>
</a>
</g>
</g>
<!-- Node72&#45;&gt;Node75 -->
<g id="edge3" class="edge">
<title>Node72&#45;&gt;Node75</title>
<path fill="none" stroke="#191970" d="M128.3464,-30.8682C136.7313,-29.7434 145.3746,-28.5839 153.9029,-27.4399"/>
<polygon fill="#191970" stroke="#191970" points="154.3933,-30.9055 163.8391,-26.1069 153.4625,-23.9677 154.3933,-30.9055"/>
</g>
<!-- Node74 -->
<g id="node3" class="node">
<title>Node74</title>
<g id="a_node3"><a xlink:href="classnuspell_1_1_hash___multiset.html#a615f7b3ae53f0cef400668746d8be501" target="_top" xlink:title="nuspell::Hash_Multiset\l::equal_range">
<polygon fill="#ffffff" stroke="#000000" points="328,-49.5 328,-79.5 444,-79.5 444,-49.5 328,-49.5"/>
<text text-anchor="start" x="336" y="-67.5" font-family="Helvetica,sans-Serif" font-size="10.00" fill="#000000">nuspell::Hash_Multiset</text>
<text text-anchor="middle" x="386" y="-56.5" font-family="Helvetica,sans-Serif" font-size="10.00" fill="#000000">::equal_range</text>
</a>
</g>
</g>
<!-- Node73&#45;&gt;Node74 -->
<g id="edge2" class="edge">
<title>Node73&#45;&gt;Node74</title>
<path fill="none" stroke="#191970" d="M281.0512,-63.1715C292.8178,-63.3205 305.4483,-63.4804 317.7266,-63.6358"/>
<polygon fill="#191970" stroke="#191970" points="317.8873,-67.138 327.9308,-63.7649 317.9759,-60.1386 317.8873,-67.138"/>
</g>
<!-- Node76 -->
<g id="node5" class="node">
<title>Node76</title>
<g id="a_node5"><a xlink:href="classnuspell_1_1_list___strings.html#a3baa052822894e35652f895e6324d4fb" target="_top" xlink:title="nuspell::List_Strings\l::clear">
<polygon fill="#ffffff" stroke="#000000" points="333.5,-.5 333.5,-30.5 438.5,-30.5 438.5,-.5 333.5,-.5"/>
<text text-anchor="start" x="341.5" y="-18.5" font-family="Helvetica,sans-Serif" font-size="10.00" fill="#000000">nuspell::List_Strings</text>
<text text-anchor="middle" x="386" y="-7.5" font-family="Helvetica,sans-Serif" font-size="10.00" fill="#000000">::clear</text>
</a>
</g>
</g>
<!-- Node75&#45;&gt;Node76 -->
<g id="edge4" class="edge">
<title>Node75&#45;&gt;Node76</title>
<path fill="none" stroke="#191970" d="M292.2646,-16.6865C302.517,-16.5567 313.1125,-16.4226 323.3273,-16.2933"/>
<polygon fill="#191970" stroke="#191970" points="323.4334,-19.7924 333.3883,-16.166 323.3448,-12.7929 323.4334,-19.7924"/>
</g>
</g>
</svg>
