<?xml version="1.0" encoding="UTF-8" standalone="no"?>
<!DOCTYPE svg PUBLIC "-//W3C//DTD SVG 1.1//EN"
 "http://www.w3.org/Graphics/SVG/1.1/DTD/svg11.dtd">
<!-- Generated by graphviz version 2.40.1 (20161225.0304)
 -->
<!-- Title: segment_nosuggest_loop Pages: 1 -->
<svg width="430pt" height="88pt"
 viewBox="0.00 0.00 430.00 88.00" xmlns="http://www.w3.org/2000/svg" xmlns:xlink="http://www.w3.org/1999/xlink">
<g id="graph0" class="graph" transform="scale(1 1) rotate(0) translate(4 84)">
<title>segment_nosuggest_loop</title>
<polygon fill="#ffffff" stroke="transparent" points="-4,4 -4,-84 426,-84 426,4 -4,4"/>
<!-- Node72 -->
<g id="node1" class="node">
<title>Node72</title>
<polygon fill="#bfbfbf" stroke="#000000" points="0,-30 0,-49 128,-49 128,-30 0,-30"/>
<text text-anchor="middle" x="64" y="-37" font-family="Helvetica,sans-Serif" font-size="10.00" fill="#000000">segment_nosuggest_loop</text>
</g>
<!-- Node73 -->
<g id="node2" class="node">
<title>Node73</title>
<g id="a_node2"><a xlink:href="class_my___dictionary.html#aea4b0e17845cec47e417eea4b64a0978" target="_top" xlink:title="My_Dictionary::spell">
<polygon fill="#ffffff" stroke="#000000" points="164,-53 164,-72 270,-72 270,-53 164,-53"/>
<text text-anchor="middle" x="217" y="-60" font-family="Helvetica,sans-Serif" font-size="10.00" fill="#000000">My_Dictionary::spell</text>
</a>
</g>
</g>
<!-- Node72&#45;&gt;Node73 -->
<g id="edge1" class="edge">
<title>Node72&#45;&gt;Node73</title>
<path fill="none" stroke="#191970" d="M127.5566,-49.0543C136.1722,-50.3494 145.0135,-51.6785 153.6259,-52.9732"/>
<polygon fill="#191970" stroke="#191970" points="153.1946,-56.4476 163.6038,-54.4731 154.2353,-49.5254 153.1946,-56.4476"/>
</g>
<!-- Node75 -->
<g id="node4" class="node">
<title>Node75</title>
<g id="a_node4"><a xlink:href="classnuspell_1_1_dictionary.html#a8a66dd365b5491f00e20827299816c3d" target="_top" xlink:title="nuspell::Dictionary\l::suggest">
<polygon fill="#ffffff" stroke="#000000" points="168,-2.5 168,-32.5 266,-32.5 266,-2.5 168,-2.5"/>
<text text-anchor="start" x="176" y="-20.5" font-family="Helvetica,sans-Serif" font-size="10.00" fill="#000000">nuspell::Dictionary</text>
<text text-anchor="middle" x="217" y="-9.5" font-family="Helvetica,sans-Serif" font-size="10.00" fill="#000000">::suggest</text>
</a>
</g>
</g>
<!-- Node72&#45;&gt;Node75 -->
<g id="edge3" class="edge">
<title>Node72&#45;&gt;Node75</title>
<path fill="none" stroke="#191970" d="M128.4423,-30.2338C138.2616,-28.8219 148.3527,-27.3709 158.0465,-25.977"/>
<polygon fill="#191970" stroke="#191970" points="158.5766,-29.4368 167.9766,-24.5491 157.5803,-22.5081 158.5766,-29.4368"/>
</g>
<!-- Node74 -->
<g id="node3" class="node">
<title>Node74</title>
<g id="a_node3"><a xlink:href="classnuspell_1_1_hash___multiset.html#a615f7b3ae53f0cef400668746d8be501" target="_top" xlink:title="nuspell::Hash_Multiset\l::equal_range">
<polygon fill="#ffffff" stroke="#000000" points="306,-49.5 306,-79.5 422,-79.5 422,-49.5 306,-49.5"/>
<text text-anchor="start" x="314" y="-67.5" font-family="Helvetica,sans-Serif" font-size="10.00" fill="#000000">nuspell::Hash_Multiset</text>
<text text-anchor="middle" x="364" y="-56.5" font-family="Helvetica,sans-Serif" font-size="10.00" fill="#000000">::equal_range</text>
</a>
</g>
</g>
<!-- Node73&#45;&gt;Node74 -->
<g id="edge2" class="edge">
<title>Node73&#45;&gt;Node74</title>
<path fill="none" stroke="#191970" d="M270.0704,-63.222C278.4048,-63.3354 287.1199,-63.454 295.7385,-63.5713"/>
<polygon fill="#191970" stroke="#191970" points="295.7362,-67.0715 305.783,-63.7079 295.8315,-60.0721 295.7362,-67.0715"/>
</g>
<!-- Node76 -->
<g id="node5" class="node">
<title>Node76</title>
<g id="a_node5"><a xlink:href="classnuspell_1_1_list___strings.html#a3baa052822894e35652f895e6324d4fb" target="_top" xlink:title="nuspell::List_Strings\l::clear">
<polygon fill="#ffffff" stroke="#000000" points="311.5,-.5 311.5,-30.5 416.5,-30.5 416.5,-.5 311.5,-.5"/>
<text text-anchor="start" x="319.5" y="-18.5" font-family="Helvetica,sans-Serif" font-size="10.00" fill="#000000">nuspell::List_Strings</text>
<text text-anchor="middle" x="364" y="-7.5" font-family="Helvetica,sans-Serif" font-size="10.00" fill="#000000">::clear</text>
</a>
</g>
</g>
<!-- Node75&#45;&gt;Node76 -->
<g id="edge4" class="edge">
<title>Node75&#45;&gt;Node76</title>
<path fill="none" stroke="#191970" d="M266.3578,-16.8285C277.5827,-16.6757 289.6528,-16.5115 301.3481,-16.3524"/>
<polygon fill="#191970" stroke="#191970" points="301.5473,-19.8501 311.4987,-16.2143 301.452,-12.8508 301.5473,-19.8501"/>
</g>
</g>
</svg>
