<?xml version="1.0" encoding="UTF-8" standalone="no"?>
<!DOCTYPE svg PUBLIC "-//W3C//DTD SVG 1.1//EN"
 "http://www.w3.org/Graphics/SVG/1.1/DTD/svg11.dtd">
<!-- Generated by graphviz version 2.40.1 (20161225.0304)
 -->
<!-- Title: nuspell::prefix Pages: 1 -->
<svg width="386pt" height="235pt"
 viewBox="0.00 0.00 386.00 235.00" xmlns="http://www.w3.org/2000/svg" xmlns:xlink="http://www.w3.org/1999/xlink">
<g id="graph0" class="graph" transform="scale(1 1) rotate(0) translate(4 231)">
<title>nuspell::prefix</title>
<polygon fill="#ffffff" stroke="transparent" points="-4,4 -4,-231 382,-231 382,4 -4,4"/>
<!-- Node255 -->
<g id="node1" class="node">
<title>Node255</title>
<polygon fill="#bfbfbf" stroke="#000000" points="0,-104 0,-123 77,-123 77,-104 0,-104"/>
<text text-anchor="middle" x="38.5" y="-111" font-family="Helvetica,sans-Serif" font-size="10.00" fill="#000000">nuspell::prefix</text>
</g>
<!-- Node256 -->
<g id="node2" class="node">
<title>Node256</title>
<g id="a_node2"><a xlink:href="classnuspell_1_1_prefix___iter.html#a4025677c5463b53668083a8ffc3e08f3" target="_top" xlink:title="nuspell::Prefix_Iter\l::Prefix_Iter">
<polygon fill="#ffffff" stroke="#000000" points="122.5,-196.5 122.5,-226.5 220.5,-226.5 220.5,-196.5 122.5,-196.5"/>
<text text-anchor="start" x="130.5" y="-214.5" font-family="Helvetica,sans-Serif" font-size="10.00" fill="#000000">nuspell::Prefix_Iter</text>
<text text-anchor="middle" x="171.5" y="-203.5" font-family="Helvetica,sans-Serif" font-size="10.00" fill="#000000">::Prefix_Iter</text>
</a>
</g>
</g>
<!-- Node255&#45;&gt;Node256 -->
<g id="edge1" class="edge">
<title>Node255&#45;&gt;Node256</title>
<path fill="none" stroke="#191970" d="M52.6897,-131.1408C66.622,-147.5277 89.1961,-171.7107 113,-187.5 117.94,-190.7768 123.3989,-193.739 128.9379,-196.3736"/>
<polygon fill="#191970" stroke="#191970" points="55.3139,-128.8224 46.2309,-123.3679 49.9299,-133.2961 55.3139,-128.8224"/>
</g>
<!-- Node257 -->
<g id="node3" class="node">
<title>Node257</title>
<g id="a_node3"><a xlink:href="classnuspell_1_1_prefix___iter.html#a84195c0f4b0218a1ae7b2a7e82b87c64" target="_top" xlink:title="nuspell::Prefix_Iter\l::operator++">
<polygon fill="#ffffff" stroke="#000000" points="122.5,-147.5 122.5,-177.5 220.5,-177.5 220.5,-147.5 122.5,-147.5"/>
<text text-anchor="start" x="130.5" y="-165.5" font-family="Helvetica,sans-Serif" font-size="10.00" fill="#000000">nuspell::Prefix_Iter</text>
<text text-anchor="middle" x="171.5" y="-154.5" font-family="Helvetica,sans-Serif" font-size="10.00" fill="#000000">::operator++</text>
</a>
</g>
</g>
<!-- Node255&#45;&gt;Node257 -->
<g id="edge2" class="edge">
<title>Node255&#45;&gt;Node257</title>
<path fill="none" stroke="#191970" d="M74.2403,-126.6675C91.6443,-133.0795 112.6534,-140.8197 130.6854,-147.463"/>
<polygon fill="#191970" stroke="#191970" points="75.0529,-123.2369 64.4595,-123.064 72.6329,-129.8053 75.0529,-123.2369"/>
</g>
<!-- Node258 -->
<g id="node4" class="node">
<title>Node258</title>
<g id="a_node4"><a xlink:href="namespacenuspell.html#a5fcde42a9d5b1fae08e198eb417df1a5" target="_top" xlink:title="Gets the default search paths. ">
<polygon fill="#ffffff" stroke="#000000" points="121,-98.5 121,-128.5 222,-128.5 222,-98.5 121,-98.5"/>
<text text-anchor="start" x="129" y="-116.5" font-family="Helvetica,sans-Serif" font-size="10.00" fill="#000000">nuspell::get_default</text>
<text text-anchor="middle" x="171.5" y="-105.5" font-family="Helvetica,sans-Serif" font-size="10.00" fill="#000000">_search_paths</text>
</a>
</g>
</g>
<!-- Node255&#45;&gt;Node258 -->
<g id="edge3" class="edge">
<title>Node255&#45;&gt;Node258</title>
<path fill="none" stroke="#191970" d="M87.5336,-113.5C98.439,-113.5 110.019,-113.5 120.9828,-113.5"/>
<polygon fill="#191970" stroke="#191970" points="87.3267,-110.0001 77.3266,-113.5 87.3266,-117.0001 87.3267,-110.0001"/>
</g>
<!-- Node260 -->
<g id="node6" class="node">
<title>Node260</title>
<g id="a_node6"><a xlink:href="namespacenuspell.html#a18da8631cb0b014f0f918cf444946921" target="_top" xlink:title="Gets the LibreOffice search paths. ">
<polygon fill="#ffffff" stroke="#000000" points="114.5,-49.5 114.5,-79.5 228.5,-79.5 228.5,-49.5 114.5,-49.5"/>
<text text-anchor="start" x="122.5" y="-67.5" font-family="Helvetica,sans-Serif" font-size="10.00" fill="#000000">nuspell::get_libreoffice</text>
<text text-anchor="middle" x="171.5" y="-56.5" font-family="Helvetica,sans-Serif" font-size="10.00" fill="#000000">_paths</text>
</a>
</g>
</g>
<!-- Node255&#45;&gt;Node260 -->
<g id="edge5" class="edge">
<title>Node255&#45;&gt;Node260</title>
<path fill="none" stroke="#191970" d="M74.2403,-100.3325C91.6443,-93.9205 112.6534,-86.1803 130.6854,-79.537"/>
<polygon fill="#191970" stroke="#191970" points="72.6329,-97.1947 64.4595,-103.936 75.0529,-103.7631 72.6329,-97.1947"/>
</g>
<!-- Node262 -->
<g id="node8" class="node">
<title>Node262</title>
<g id="a_node8"><a xlink:href="namespacenuspell.html#ad59b0ec5004ed1985b64eb6ec6fb4cd1" target="_top" xlink:title="Gets the Apache OpenOffice search paths. ">
<polygon fill="#ffffff" stroke="#000000" points="113,-.5 113,-30.5 230,-30.5 230,-.5 113,-.5"/>
<text text-anchor="start" x="121" y="-18.5" font-family="Helvetica,sans-Serif" font-size="10.00" fill="#000000">nuspell::get_openoffice</text>
<text text-anchor="middle" x="171.5" y="-7.5" font-family="Helvetica,sans-Serif" font-size="10.00" fill="#000000">_paths</text>
</a>
</g>
</g>
<!-- Node255&#45;&gt;Node262 -->
<g id="edge7" class="edge">
<title>Node255&#45;&gt;Node262</title>
<path fill="none" stroke="#191970" d="M52.789,-96.1875C66.7928,-80.0867 89.4162,-56.2751 113,-40.5 118.5082,-36.8156 124.648,-33.4849 130.8206,-30.5446"/>
<polygon fill="#191970" stroke="#191970" points="50.1083,-93.9371 46.2923,-103.8209 55.439,-98.4741 50.1083,-93.9371"/>
</g>
<!-- Node259 -->
<g id="node5" class="node">
<title>Node259</title>
<g id="a_node5"><a xlink:href="classnuspell_1_1_finder.html#ac7904bd59ca957abc023b7c09e9728bc" target="_top" xlink:title="Adds the default directory paths which may containt dictionaries. ">
<polygon fill="#ffffff" stroke="#000000" points="271,-98.5 271,-128.5 373,-128.5 373,-98.5 271,-98.5"/>
<text text-anchor="start" x="279" y="-116.5" font-family="Helvetica,sans-Serif" font-size="10.00" fill="#000000">nuspell::Finder::add</text>
<text text-anchor="middle" x="322" y="-105.5" font-family="Helvetica,sans-Serif" font-size="10.00" fill="#000000">_default_dir_paths</text>
</a>
</g>
</g>
<!-- Node258&#45;&gt;Node259 -->
<g id="edge4" class="edge">
<title>Node258&#45;&gt;Node259</title>
<path fill="none" stroke="#191970" d="M232.162,-113.5C244.9865,-113.5 258.3989,-113.5 270.831,-113.5"/>
<polygon fill="#191970" stroke="#191970" points="232.033,-110.0001 222.033,-113.5 232.033,-117.0001 232.033,-110.0001"/>
</g>
<!-- Node261 -->
<g id="node7" class="node">
<title>Node261</title>
<g id="a_node7"><a xlink:href="classnuspell_1_1_finder.html#a21224942e6684c8722b9eb0d213e65c3" target="_top" xlink:title="Adds the LibreOffice directory paths which may containt dictionaries. ">
<polygon fill="#ffffff" stroke="#000000" points="267.5,-49.5 267.5,-79.5 376.5,-79.5 376.5,-49.5 267.5,-49.5"/>
<text text-anchor="start" x="275.5" y="-67.5" font-family="Helvetica,sans-Serif" font-size="10.00" fill="#000000">nuspell::Finder::add</text>
<text text-anchor="middle" x="322" y="-56.5" font-family="Helvetica,sans-Serif" font-size="10.00" fill="#000000">_libreoffice_dir_paths</text>
</a>
</g>
</g>
<!-- Node260&#45;&gt;Node261 -->
<g id="edge6" class="edge">
<title>Node260&#45;&gt;Node261</title>
<path fill="none" stroke="#191970" d="M239.0111,-64.5C248.4829,-64.5 258.12,-64.5 267.3135,-64.5"/>
<polygon fill="#191970" stroke="#191970" points="238.827,-61.0001 228.8269,-64.5 238.8269,-68.0001 238.827,-61.0001"/>
</g>
<!-- Node263 -->
<g id="node9" class="node">
<title>Node263</title>
<g id="a_node9"><a xlink:href="classnuspell_1_1_finder.html#a10db179542bffb40614b74d581e293cf" target="_top" xlink:title="Adds the OpenOffice directory paths which may containt dictionaries. ">
<polygon fill="#ffffff" stroke="#000000" points="266,-.5 266,-30.5 378,-30.5 378,-.5 266,-.5"/>
<text text-anchor="start" x="274" y="-18.5" font-family="Helvetica,sans-Serif" font-size="10.00" fill="#000000">nuspell::Finder::add</text>
<text text-anchor="middle" x="322" y="-7.5" font-family="Helvetica,sans-Serif" font-size="10.00" fill="#000000">_openoffice_dir_paths</text>
</a>
</g>
</g>
<!-- Node262&#45;&gt;Node263 -->
<g id="edge8" class="edge">
<title>Node262&#45;&gt;Node263</title>
<path fill="none" stroke="#191970" d="M240.3942,-15.5C248.8871,-15.5 257.4886,-15.5 265.7621,-15.5"/>
<polygon fill="#191970" stroke="#191970" points="240.1182,-12.0001 230.1182,-15.5 240.1181,-19.0001 240.1182,-12.0001"/>
</g>
</g>
</svg>
