<?xml version="1.0" encoding="UTF-8" standalone="no"?>
<!DOCTYPE svg PUBLIC "-//W3C//DTD SVG 1.1//EN"
 "http://www.w3.org/Graphics/SVG/1.1/DTD/svg11.dtd">
<!-- Generated by graphviz version 2.40.1 (20161225.0304)
 -->
<!-- Title: nuspell::split_on_whitespace Pages: 1 -->
<svg width="555pt" height="66pt"
 viewBox="0.00 0.00 555.00 66.00" xmlns="http://www.w3.org/2000/svg" xmlns:xlink="http://www.w3.org/1999/xlink">
<g id="graph0" class="graph" transform="scale(1 1) rotate(0) translate(4 62)">
<title>nuspell::split_on_whitespace</title>
<polygon fill="#ffffff" stroke="transparent" points="-4,4 -4,-62 551,-62 551,4 -4,4"/>
<!-- Node316 -->
<g id="node1" class="node">
<title>Node316</title>
<polygon fill="#bfbfbf" stroke="#000000" points="0,-19.5 0,-38.5 142,-38.5 142,-19.5 0,-19.5"/>
<text text-anchor="middle" x="71" y="-26.5" font-family="Helvetica,sans-Serif" font-size="10.00" fill="#000000">nuspell::split_on_whitespace</text>
</g>
<!-- Node317 -->
<g id="node2" class="node">
<title>Node317</title>
<g id="a_node2"><a xlink:href="namespacenuspell.html#aa7e4995c62f0034c3f760c93a3d25dd9" target="_top" xlink:title="Splits on whitespace, outputs to vector of strings. ">
<polygon fill="#ffffff" stroke="#000000" points="178,-19.5 178,-38.5 330,-38.5 330,-19.5 178,-19.5"/>
<text text-anchor="middle" x="254" y="-26.5" font-family="Helvetica,sans-Serif" font-size="10.00" fill="#000000">nuspell::split_on_whitespace_v</text>
</a>
</g>
</g>
<!-- Node316&#45;&gt;Node317 -->
<g id="edge1" class="edge">
<title>Node316&#45;&gt;Node317</title>
<path fill="none" stroke="#191970" d="M152.027,-29C160.6208,-29 169.3394,-29 177.8743,-29"/>
<polygon fill="#191970" stroke="#191970" points="152.0145,-25.5001 142.0145,-29 152.0145,-32.5001 152.0145,-25.5001"/>
</g>
<!-- Node318 -->
<g id="node3" class="node">
<title>Node318</title>
<g id="a_node3"><a xlink:href="main_8cxx.html#a1f92dedeeb68a1a7bc2b720097d3b7a4" target="_top" xlink:title="misspelled_line_loop">
<polygon fill="#ffffff" stroke="#000000" points="366,-38.5 366,-57.5 473,-57.5 473,-38.5 366,-38.5"/>
<text text-anchor="middle" x="419.5" y="-45.5" font-family="Helvetica,sans-Serif" font-size="10.00" fill="#000000">misspelled_line_loop</text>
</a>
</g>
</g>
<!-- Node317&#45;&gt;Node318 -->
<g id="edge2" class="edge">
<title>Node317&#45;&gt;Node318</title>
<path fill="none" stroke="#191970" d="M340.4761,-38.9278C349.0129,-39.9078 357.4967,-40.8818 365.5631,-41.8079"/>
<polygon fill="#191970" stroke="#191970" points="340.7862,-35.4405 330.4522,-37.777 339.9877,-42.3948 340.7862,-35.4405"/>
</g>
<!-- Node320 -->
<g id="node5" class="node">
<title>Node320</title>
<g id="a_node5"><a xlink:href="main_8cxx.html#a16580c4100b461806a9c49575bdd5428" target="_top" xlink:title="correct_line_loop">
<polygon fill="#ffffff" stroke="#000000" points="374.5,-.5 374.5,-19.5 464.5,-19.5 464.5,-.5 374.5,-.5"/>
<text text-anchor="middle" x="419.5" y="-7.5" font-family="Helvetica,sans-Serif" font-size="10.00" fill="#000000">correct_line_loop</text>
</a>
</g>
</g>
<!-- Node317&#45;&gt;Node320 -->
<g id="edge4" class="edge">
<title>Node317&#45;&gt;Node320</title>
<path fill="none" stroke="#191970" d="M340.6034,-19.0576C352.1512,-17.7319 363.5987,-16.4177 374.0438,-15.2185"/>
<polygon fill="#191970" stroke="#191970" points="339.9877,-15.6052 330.4522,-20.223 340.7862,-22.5595 339.9877,-15.6052"/>
</g>
<!-- Node319 -->
<g id="node4" class="node">
<title>Node319</title>
<g id="a_node4"><a xlink:href="main_8cxx.html#a0ddf1224851353fc92bfbff6f499fa97" target="_top" xlink:title="main">
<polygon fill="#ffffff" stroke="#000000" points="509,-19.5 509,-38.5 547,-38.5 547,-19.5 509,-19.5"/>
<text text-anchor="middle" x="528" y="-26.5" font-family="Helvetica,sans-Serif" font-size="10.00" fill="#000000">main</text>
</a>
</g>
</g>
<!-- Node318&#45;&gt;Node319 -->
<g id="edge3" class="edge">
<title>Node318&#45;&gt;Node319</title>
<path fill="none" stroke="#191970" d="M482.9851,-36.8828C492.372,-35.239 501.3789,-33.6618 508.8366,-32.3558"/>
<polygon fill="#191970" stroke="#191970" points="482.3606,-33.4388 473.1143,-38.6113 483.5681,-40.3339 482.3606,-33.4388"/>
</g>
<!-- Node320&#45;&gt;Node319 -->
<g id="edge5" class="edge">
<title>Node320&#45;&gt;Node319</title>
<path fill="none" stroke="#191970" d="M474.4597,-19.6243C486.8381,-21.7919 499.1672,-23.9509 508.8687,-25.6498"/>
<polygon fill="#191970" stroke="#191970" points="475.025,-16.1701 464.5712,-17.8926 473.8175,-23.0652 475.025,-16.1701"/>
</g>
</g>
</svg>
