<?xml version="1.0" encoding="UTF-8" standalone="no"?>
<!DOCTYPE svg PUBLIC "-//W3C//DTD SVG 1.1//EN"
 "http://www.w3.org/Graphics/SVG/1.1/DTD/svg11.dtd">
<!-- Generated by graphviz version 2.40.1 (20161225.0304)
 -->
<!-- Title: nuspell::to_narrow Pages: 1 -->
<svg width="342pt" height="236pt"
 viewBox="0.00 0.00 342.00 236.00" xmlns="http://www.w3.org/2000/svg" xmlns:xlink="http://www.w3.org/1999/xlink">
<g id="graph0" class="graph" transform="scale(1 1) rotate(0) translate(4 232)">
<title>nuspell::to_narrow</title>
<polygon fill="#ffffff" stroke="transparent" points="-4,4 -4,-232 338,-232 338,4 -4,4"/>
<!-- Node346 -->
<g id="node1" class="node">
<title>Node346</title>
<polygon fill="#bfbfbf" stroke="#000000" points="0,-88.5 0,-107.5 96,-107.5 96,-88.5 0,-88.5"/>
<text text-anchor="middle" x="48" y="-95.5" font-family="Helvetica,sans-Serif" font-size="10.00" fill="#000000">nuspell::to_narrow</text>
</g>
<!-- Node347 -->
<g id="node2" class="node">
<title>Node347</title>
<g id="a_node2"><a xlink:href="classnuspell_1_1_basic___dictionary.html#aca69f6d72c3f7f7a7e88a08fc8dd9712" target="_top" xlink:title="nuspell::Basic_Dictionary\l::external_to_internal\l_encoding">
<polygon fill="#ffffff" stroke="#000000" points="132,-186.5 132,-227.5 260,-227.5 260,-186.5 132,-186.5"/>
<text text-anchor="start" x="140" y="-215.5" font-family="Helvetica,sans-Serif" font-size="10.00" fill="#000000">nuspell::Basic_Dictionary</text>
<text text-anchor="start" x="140" y="-204.5" font-family="Helvetica,sans-Serif" font-size="10.00" fill="#000000">::external_to_internal</text>
<text text-anchor="middle" x="196" y="-193.5" font-family="Helvetica,sans-Serif" font-size="10.00" fill="#000000">_encoding</text>
</a>
</g>
</g>
<!-- Node346&#45;&gt;Node347 -->
<g id="edge1" class="edge">
<title>Node346&#45;&gt;Node347</title>
<path fill="none" stroke="#191970" d="M63.1896,-115.1779C79.083,-132.4129 105.3845,-158.9264 132,-177 136.8729,-180.309 142.1684,-183.4318 147.5568,-186.3219"/>
<polygon fill="#191970" stroke="#191970" points="65.5764,-112.5996 56.2677,-107.5401 60.3896,-117.3003 65.5764,-112.5996"/>
</g>
<!-- Node348 -->
<g id="node3" class="node">
<title>Node348</title>
<g id="a_node3"><a xlink:href="classnuspell_1_1_basic___dictionary.html#af376c24827a246f67eaeb81002cf40d2" target="_top" xlink:title="nuspell::Basic_Dictionary\l::internal_to_external\l_encoding">
<polygon fill="#ffffff" stroke="#000000" points="132,-126.5 132,-167.5 260,-167.5 260,-126.5 132,-126.5"/>
<text text-anchor="start" x="140" y="-155.5" font-family="Helvetica,sans-Serif" font-size="10.00" fill="#000000">nuspell::Basic_Dictionary</text>
<text text-anchor="start" x="140" y="-144.5" font-family="Helvetica,sans-Serif" font-size="10.00" fill="#000000">::internal_to_external</text>
<text text-anchor="middle" x="196" y="-133.5" font-family="Helvetica,sans-Serif" font-size="10.00" fill="#000000">_encoding</text>
</a>
</g>
</g>
<!-- Node346&#45;&gt;Node348 -->
<g id="edge2" class="edge">
<title>Node346&#45;&gt;Node348</title>
<path fill="none" stroke="#191970" d="M86.4754,-110.7385C100.9275,-115.5233 117.7498,-121.0928 133.8102,-126.4101"/>
<polygon fill="#191970" stroke="#191970" points="87.4805,-107.3845 76.8872,-107.564 85.2804,-114.0297 87.4805,-107.3845"/>
</g>
<!-- Node349 -->
<g id="node4" class="node">
<title>Node349</title>
<g id="a_node4"><a xlink:href="namespacenuspell.html#a4bbcd07d775ff9e19d67c9c68167dbf2" target="_top" xlink:title="nuspell::to_narrow">
<polygon fill="#ffffff" stroke="#000000" points="148,-88.5 148,-107.5 244,-107.5 244,-88.5 148,-88.5"/>
<text text-anchor="middle" x="196" y="-95.5" font-family="Helvetica,sans-Serif" font-size="10.00" fill="#000000">nuspell::to_narrow</text>
</a>
</g>
</g>
<!-- Node346&#45;&gt;Node349 -->
<g id="edge3" class="edge">
<title>Node346&#45;&gt;Node349</title>
<path fill="none" stroke="#191970" d="M106.398,-98C120.1645,-98 134.6857,-98 147.9367,-98"/>
<polygon fill="#191970" stroke="#191970" points="106.0514,-94.5001 96.0514,-98 106.0513,-101.5001 106.0514,-94.5001"/>
</g>
<!-- Node350 -->
<g id="node5" class="node">
<title>Node350</title>
<g id="a_node5"><a xlink:href="class_my___dictionary.html#a06d83a3d76c0eff8688dfbee66976f70" target="_top" xlink:title="My_Dictionary::parse\l_personal_dict">
<polygon fill="#ffffff" stroke="#000000" points="141,-39 141,-69 251,-69 251,-39 141,-39"/>
<text text-anchor="start" x="149" y="-57" font-family="Helvetica,sans-Serif" font-size="10.00" fill="#000000">My_Dictionary::parse</text>
<text text-anchor="middle" x="196" y="-46" font-family="Helvetica,sans-Serif" font-size="10.00" fill="#000000">_personal_dict</text>
</a>
</g>
</g>
<!-- Node346&#45;&gt;Node350 -->
<g id="edge4" class="edge">
<title>Node346&#45;&gt;Node350</title>
<path fill="none" stroke="#191970" d="M89.8949,-85.5447C107.1371,-80.4187 127.2639,-74.4351 145.3256,-69.0654"/>
<polygon fill="#191970" stroke="#191970" points="88.7017,-82.248 80.1138,-88.4527 90.6966,-88.9578 88.7017,-82.248"/>
</g>
<!-- Node351 -->
<g id="node6" class="node">
<title>Node351</title>
<g id="a_node6"><a xlink:href="verify_8cxx.html#a345ea832decc7c2932cf431ea1dc1cbf" target="_top" xlink:title="normal_loop">
<polygon fill="#ffffff" stroke="#000000" points="161.5,-.5 161.5,-19.5 230.5,-19.5 230.5,-.5 161.5,-.5"/>
<text text-anchor="middle" x="196" y="-7.5" font-family="Helvetica,sans-Serif" font-size="10.00" fill="#000000">normal_loop</text>
</a>
</g>
</g>
<!-- Node346&#45;&gt;Node351 -->
<g id="edge5" class="edge">
<title>Node346&#45;&gt;Node351</title>
<path fill="none" stroke="#191970" d="M64.9413,-81.0054C80.9821,-65.7582 106.3656,-43.7292 132,-30 141.1331,-25.1085 151.6512,-21.2008 161.4874,-18.1841"/>
<polygon fill="#191970" stroke="#191970" points="62.1864,-78.802 57.4527,-88.2806 67.0641,-83.8228 62.1864,-78.802"/>
</g>
<!-- Node352 -->
<g id="node7" class="node">
<title>Node352</title>
<g id="a_node7"><a xlink:href="verify_8cxx.html#a0ddf1224851353fc92bfbff6f499fa97" target="_top" xlink:title="main">
<polygon fill="#ffffff" stroke="#000000" points="296,-.5 296,-19.5 334,-19.5 334,-.5 296,-.5"/>
<text text-anchor="middle" x="315" y="-7.5" font-family="Helvetica,sans-Serif" font-size="10.00" fill="#000000">main</text>
</a>
</g>
</g>
<!-- Node351&#45;&gt;Node352 -->
<g id="edge6" class="edge">
<title>Node351&#45;&gt;Node352</title>
<path fill="none" stroke="#191970" d="M240.7673,-10C259.8451,-10 281.0793,-10 295.9332,-10"/>
<polygon fill="#191970" stroke="#191970" points="240.7397,-6.5001 230.7396,-10 240.7396,-13.5001 240.7397,-6.5001"/>
</g>
</g>
</svg>
