<?xml version="1.0" encoding="UTF-8" standalone="no"?>
<!DOCTYPE svg PUBLIC "-//W3C//DTD SVG 1.1//EN"
 "http://www.w3.org/Graphics/SVG/1.1/DTD/svg11.dtd">
<!-- Generated by graphviz version 2.40.1 (20161225.0304)
 -->
<!-- Title: nuspell::parse_affix Pages: 1 -->
<svg width="730pt" height="269pt"
 viewBox="0.00 0.00 730.00 268.50" xmlns="http://www.w3.org/2000/svg" xmlns:xlink="http://www.w3.org/1999/xlink">
<g id="graph0" class="graph" transform="scale(1 1) rotate(0) translate(4 264.5)">
<title>nuspell::parse_affix</title>
<polygon fill="#ffffff" stroke="transparent" points="-4,4 -4,-264.5 726,-264.5 726,4 -4,4"/>
<!-- Node215 -->
<g id="node1" class="node">
<title>Node215</title>
<polygon fill="#bfbfbf" stroke="#000000" points="0,-94 0,-113 101,-113 101,-94 0,-94"/>
<text text-anchor="middle" x="50.5" y="-101" font-family="Helvetica,sans-Serif" font-size="10.00" fill="#000000">nuspell::parse_affix</text>
</g>
<!-- Node216 -->
<g id="node2" class="node">
<title>Node216</title>
<g id="a_node2"><a xlink:href="namespacenuspell.html#ac3ed6d85c13c609eb5c51628b9dbac76" target="_top" xlink:title="Decodes a single flag from an input stream. ">
<polygon fill="#ffffff" stroke="#000000" points="137,-187 137,-206 274,-206 274,-187 137,-187"/>
<text text-anchor="middle" x="205.5" y="-194" font-family="Helvetica,sans-Serif" font-size="10.00" fill="#000000">nuspell::decode_single_flag</text>
</a>
</g>
</g>
<!-- Node215&#45;&gt;Node216 -->
<g id="edge1" class="edge">
<title>Node215&#45;&gt;Node216</title>
<path fill="none" stroke="#191970" d="M59.087,-113.1987C73.5918,-128.9907 104.5512,-160.2288 137,-177.5 141.2692,-179.7723 145.8365,-181.7942 150.5106,-183.589"/>
<polygon fill="#191970" stroke="#191970" points="149.5986,-186.9776 160.1934,-186.9618 151.9012,-180.3671 149.5986,-186.9776"/>
</g>
<!-- Node226 -->
<g id="node12" class="node">
<title>Node226</title>
<g id="a_node12"><a xlink:href="namespacenuspell.html#aee2d3cdfa70d7cf8304c9a9f487b9a52" target="_top" xlink:title="nuspell::read_to_slash\l_or_space">
<polygon fill="#ffffff" stroke="#000000" points="148.5,-88.5 148.5,-118.5 262.5,-118.5 262.5,-88.5 148.5,-88.5"/>
<text text-anchor="start" x="156.5" y="-106.5" font-family="Helvetica,sans-Serif" font-size="10.00" fill="#000000">nuspell::read_to_slash</text>
<text text-anchor="middle" x="205.5" y="-95.5" font-family="Helvetica,sans-Serif" font-size="10.00" fill="#000000">_or_space</text>
</a>
</g>
</g>
<!-- Node215&#45;&gt;Node226 -->
<g id="edge11" class="edge">
<title>Node215&#45;&gt;Node226</title>
<path fill="none" stroke="#191970" d="M101.2528,-103.5C113.0478,-103.5 125.7849,-103.5 138.1695,-103.5"/>
<polygon fill="#191970" stroke="#191970" points="138.4613,-107.0001 148.4612,-103.5 138.4612,-100.0001 138.4613,-107.0001"/>
</g>
<!-- Node227 -->
<g id="node13" class="node">
<title>Node227</title>
<g id="a_node13"><a xlink:href="namespacenuspell.html#aca16d8679d9abbf9c15f5a5cb2916649" target="_top" xlink:title="nuspell::reset_failbit\l_istream">
<polygon fill="#ffffff" stroke="#000000" points="313.5,-44.5 313.5,-74.5 417.5,-74.5 417.5,-44.5 313.5,-44.5"/>
<text text-anchor="start" x="321.5" y="-62.5" font-family="Helvetica,sans-Serif" font-size="10.00" fill="#000000">nuspell::reset_failbit</text>
<text text-anchor="middle" x="365.5" y="-51.5" font-family="Helvetica,sans-Serif" font-size="10.00" fill="#000000">_istream</text>
</a>
</g>
</g>
<!-- Node215&#45;&gt;Node227 -->
<g id="edge15" class="edge">
<title>Node215&#45;&gt;Node227</title>
<path fill="none" stroke="#191970" d="M79.8149,-93.9232C96.4206,-88.8644 117.677,-82.9958 137,-79.5 192.7386,-69.4162 257.0812,-64.3636 303.2584,-61.8644"/>
<polygon fill="#191970" stroke="#191970" points="303.6061,-65.3512 313.4123,-61.3401 303.2451,-58.3605 303.6061,-65.3512"/>
</g>
<!-- Node228 -->
<g id="node14" class="node">
<title>Node228</title>
<g id="a_node14"><a xlink:href="namespacenuspell.html#a3d81c446c32c53cd03e595f8fde9c2ab" target="_top" xlink:title="nuspell::decode_flags\l_possible_alias">
<polygon fill="#ffffff" stroke="#000000" points="150,-137.5 150,-167.5 261,-167.5 261,-137.5 150,-137.5"/>
<text text-anchor="start" x="158" y="-155.5" font-family="Helvetica,sans-Serif" font-size="10.00" fill="#000000">nuspell::decode_flags</text>
<text text-anchor="middle" x="205.5" y="-144.5" font-family="Helvetica,sans-Serif" font-size="10.00" fill="#000000">_possible_alias</text>
</a>
</g>
</g>
<!-- Node215&#45;&gt;Node228 -->
<g id="edge13" class="edge">
<title>Node215&#45;&gt;Node228</title>
<path fill="none" stroke="#191970" d="M80.7535,-113.064C99.9486,-119.1321 125.3965,-127.177 148.2998,-134.4174"/>
<polygon fill="#191970" stroke="#191970" points="147.3442,-137.7859 157.9341,-137.463 149.4542,-131.1115 147.3442,-137.7859"/>
</g>
<!-- Node229 -->
<g id="node15" class="node">
<title>Node229</title>
<g id="a_node15"><a xlink:href="namespacenuspell.html#a20013c2e88adddb9211f5beb81f075b3" target="_top" xlink:title="Parses morhological fields. ">
<polygon fill="#ffffff" stroke="#000000" points="137,-.5 137,-30.5 274,-30.5 274,-.5 137,-.5"/>
<text text-anchor="start" x="145" y="-18.5" font-family="Helvetica,sans-Serif" font-size="10.00" fill="#000000">nuspell::parse_morhological</text>
<text text-anchor="middle" x="205.5" y="-7.5" font-family="Helvetica,sans-Serif" font-size="10.00" fill="#000000">_fields</text>
</a>
</g>
</g>
<!-- Node215&#45;&gt;Node229 -->
<g id="edge16" class="edge">
<title>Node215&#45;&gt;Node229</title>
<path fill="none" stroke="#191970" d="M63.2336,-93.907C79.714,-81.7424 109.5754,-60.5438 137,-45.5 143.883,-41.7243 151.3362,-38.0585 158.7063,-34.6613"/>
<polygon fill="#191970" stroke="#191970" points="160.2577,-37.8015 167.948,-30.5139 157.3916,-31.4151 160.2577,-37.8015"/>
</g>
<!-- Node217 -->
<g id="node3" class="node">
<title>Node217</title>
<g id="a_node3"><a xlink:href="namespacenuspell.html#adbb8e053a44129d0f51014facd48b7f9" target="_top" xlink:title="Decodes flags. ">
<polygon fill="#ffffff" stroke="#000000" points="310,-165 310,-184 421,-184 421,-165 310,-165"/>
<text text-anchor="middle" x="365.5" y="-172" font-family="Helvetica,sans-Serif" font-size="10.00" fill="#000000">nuspell::decode_flags</text>
</a>
</g>
</g>
<!-- Node216&#45;&gt;Node217 -->
<g id="edge2" class="edge">
<title>Node216&#45;&gt;Node217</title>
<path fill="none" stroke="#191970" d="M274.283,-187.0423C282.7131,-185.8832 291.3127,-184.7008 299.6974,-183.5479"/>
<polygon fill="#191970" stroke="#191970" points="300.3624,-186.9894 309.7924,-182.1598 299.4089,-180.0547 300.3624,-186.9894"/>
</g>
<!-- Node218 -->
<g id="node4" class="node">
<title>Node218</title>
<g id="a_node4"><a xlink:href="namespacenuspell.html#aa37c89934a500dfd75dbb3cc18321834" target="_top" xlink:title="nuspell::is_all_ascii">
<polygon fill="#ffffff" stroke="#000000" points="464.5,-241 464.5,-260 565.5,-260 565.5,-241 464.5,-241"/>
<text text-anchor="middle" x="515" y="-248" font-family="Helvetica,sans-Serif" font-size="10.00" fill="#000000">nuspell::is_all_ascii</text>
</a>
</g>
</g>
<!-- Node217&#45;&gt;Node218 -->
<g id="edge3" class="edge">
<title>Node217&#45;&gt;Node218</title>
<path fill="none" stroke="#191970" d="M378.5673,-184.0573C395.8264,-196.341 427.493,-217.7222 457,-231.5 461.6804,-233.6855 466.6816,-235.7276 471.7115,-237.6017"/>
<polygon fill="#191970" stroke="#191970" points="470.7484,-240.9731 481.3432,-240.9921 473.0727,-234.3702 470.7484,-240.9731"/>
</g>
<!-- Node220 -->
<g id="node6" class="node">
<title>Node220</title>
<g id="a_node6"><a xlink:href="namespacenuspell.html#a7fc6228909d26abd20009c4fb388dc81" target="_top" xlink:title="nuspell::latin1_to_ucs2">
<polygon fill="#ffffff" stroke="#000000" points="457,-203 457,-222 573,-222 573,-203 457,-203"/>
<text text-anchor="middle" x="515" y="-210" font-family="Helvetica,sans-Serif" font-size="10.00" fill="#000000">nuspell::latin1_to_ucs2</text>
</a>
</g>
</g>
<!-- Node217&#45;&gt;Node220 -->
<g id="edge5" class="edge">
<title>Node217&#45;&gt;Node220</title>
<path fill="none" stroke="#191970" d="M403.2252,-184.089C422.7756,-189.0583 446.8466,-195.1767 467.6374,-200.4613"/>
<polygon fill="#191970" stroke="#191970" points="466.9921,-203.9085 477.5461,-202.9799 468.7165,-197.1243 466.9921,-203.9085"/>
</g>
<!-- Node221 -->
<g id="node7" class="node">
<title>Node221</title>
<g id="a_node7"><a xlink:href="namespacenuspell.html#aff86f9ecb346e78687e56dab66a77469" target="_top" xlink:title="nuspell::utf8_to_32">
<polygon fill="#ffffff" stroke="#000000" points="465.5,-165 465.5,-184 564.5,-184 564.5,-165 465.5,-165"/>
<text text-anchor="middle" x="515" y="-172" font-family="Helvetica,sans-Serif" font-size="10.00" fill="#000000">nuspell::utf8_to_32</text>
</a>
</g>
</g>
<!-- Node217&#45;&gt;Node221 -->
<g id="edge6" class="edge">
<title>Node217&#45;&gt;Node221</title>
<path fill="none" stroke="#191970" d="M421.1683,-174.5C432.2278,-174.5 443.8845,-174.5 455.0789,-174.5"/>
<polygon fill="#191970" stroke="#191970" points="455.1992,-178.0001 465.1992,-174.5 455.1992,-171.0001 455.1992,-178.0001"/>
</g>
<!-- Node223 -->
<g id="node9" class="node">
<title>Node223</title>
<g id="a_node9"><a xlink:href="namespacenuspell.html#acc7be34831c982c0065b2929a9b14f2b" target="_top" xlink:title="nuspell::is_all_bmp">
<polygon fill="#ffffff" stroke="#000000" points="465,-127 465,-146 565,-146 565,-127 465,-127"/>
<text text-anchor="middle" x="515" y="-134" font-family="Helvetica,sans-Serif" font-size="10.00" fill="#000000">nuspell::is_all_bmp</text>
</a>
</g>
</g>
<!-- Node217&#45;&gt;Node223 -->
<g id="edge8" class="edge">
<title>Node217&#45;&gt;Node223</title>
<path fill="none" stroke="#191970" d="M403.2252,-164.911C422.7756,-159.9417 446.8466,-153.8233 467.6374,-148.5387"/>
<polygon fill="#191970" stroke="#191970" points="468.7165,-151.8757 477.5461,-146.0201 466.9921,-145.0915 468.7165,-151.8757"/>
</g>
<!-- Node225 -->
<g id="node11" class="node">
<title>Node225</title>
<g id="a_node11"><a xlink:href="namespacenuspell.html#aac45dd40db821861bbd1ee9c2fc40a5e" target="_top" xlink:title="nuspell::u32_to_ucs2\l_skip_non_bmp">
<polygon fill="#ffffff" stroke="#000000" points="460.5,-77.5 460.5,-107.5 569.5,-107.5 569.5,-77.5 460.5,-77.5"/>
<text text-anchor="start" x="468.5" y="-95.5" font-family="Helvetica,sans-Serif" font-size="10.00" fill="#000000">nuspell::u32_to_ucs2</text>
<text text-anchor="middle" x="515" y="-84.5" font-family="Helvetica,sans-Serif" font-size="10.00" fill="#000000">_skip_non_bmp</text>
</a>
</g>
</g>
<!-- Node217&#45;&gt;Node225 -->
<g id="edge10" class="edge">
<title>Node217&#45;&gt;Node225</title>
<path fill="none" stroke="#191970" d="M379.3766,-164.9368C396.9775,-153.0243 428.4774,-132.4235 457,-117.5 460.7162,-115.5556 464.6167,-113.6342 468.5635,-111.7722"/>
<polygon fill="#191970" stroke="#191970" points="470.1527,-114.8941 477.7917,-107.5527 467.2419,-108.528 470.1527,-114.8941"/>
</g>
<!-- Node219 -->
<g id="node5" class="node">
<title>Node219</title>
<g id="a_node5"><a xlink:href="namespacenuspell.html#a165544e1cd96cd0635c078d21ff32ff4" target="_top" xlink:title="nuspell::is_ascii">
<polygon fill="#ffffff" stroke="#000000" points="622.5,-241 622.5,-260 708.5,-260 708.5,-241 622.5,-241"/>
<text text-anchor="middle" x="665.5" y="-248" font-family="Helvetica,sans-Serif" font-size="10.00" fill="#000000">nuspell::is_ascii</text>
</a>
</g>
</g>
<!-- Node218&#45;&gt;Node219 -->
<g id="edge4" class="edge">
<title>Node218&#45;&gt;Node219</title>
<path fill="none" stroke="#191970" d="M565.533,-250.5C580.5197,-250.5 596.9778,-250.5 612.1377,-250.5"/>
<polygon fill="#191970" stroke="#191970" points="612.3917,-254.0001 622.3916,-250.5 612.3916,-247.0001 612.3917,-254.0001"/>
</g>
<!-- Node222 -->
<g id="node8" class="node">
<title>Node222</title>
<g id="a_node8"><a xlink:href="namespacenuspell.html#aae8baee1ca83bf5a5e0d07a4e8fdbf81" target="_top" xlink:title="nuspell::utf_to_utf_my">
<polygon fill="#ffffff" stroke="#000000" points="609,-165 609,-184 722,-184 722,-165 609,-165"/>
<text text-anchor="middle" x="665.5" y="-172" font-family="Helvetica,sans-Serif" font-size="10.00" fill="#000000">nuspell::utf_to_utf_my</text>
</a>
</g>
</g>
<!-- Node221&#45;&gt;Node222 -->
<g id="edge7" class="edge">
<title>Node221&#45;&gt;Node222</title>
<path fill="none" stroke="#191970" d="M564.6964,-174.5C575.5126,-174.5 587.1281,-174.5 598.4899,-174.5"/>
<polygon fill="#191970" stroke="#191970" points="598.8228,-178.0001 608.8227,-174.5 598.8227,-171.0001 598.8228,-178.0001"/>
</g>
<!-- Node224 -->
<g id="node10" class="node">
<title>Node224</title>
<g id="a_node10"><a xlink:href="namespacenuspell.html#a8ed3c64b945233d09aee1622100ce1db" target="_top" xlink:title="nuspell::is_bmp">
<polygon fill="#ffffff" stroke="#000000" points="623,-127 623,-146 708,-146 708,-127 623,-127"/>
<text text-anchor="middle" x="665.5" y="-134" font-family="Helvetica,sans-Serif" font-size="10.00" fill="#000000">nuspell::is_bmp</text>
</a>
</g>
</g>
<!-- Node223&#45;&gt;Node224 -->
<g id="edge9" class="edge">
<title>Node223&#45;&gt;Node224</title>
<path fill="none" stroke="#191970" d="M565.1143,-136.5C580.2601,-136.5 596.9407,-136.5 612.2815,-136.5"/>
<polygon fill="#191970" stroke="#191970" points="612.6528,-140.0001 622.6528,-136.5 612.6527,-133.0001 612.6528,-140.0001"/>
</g>
<!-- Node226&#45;&gt;Node227 -->
<g id="edge12" class="edge">
<title>Node226&#45;&gt;Node227</title>
<path fill="none" stroke="#191970" d="M260.1154,-88.4808C274.0908,-84.6375 289.2192,-80.4772 303.5348,-76.5404"/>
<polygon fill="#191970" stroke="#191970" points="304.5777,-79.8837 313.2916,-73.8573 302.7215,-73.1342 304.5777,-79.8837"/>
</g>
<!-- Node228&#45;&gt;Node217 -->
<g id="edge14" class="edge">
<title>Node228&#45;&gt;Node217</title>
<path fill="none" stroke="#191970" d="M261.0112,-160.1328C273.4745,-161.8465 286.8154,-163.6809 299.6539,-165.4462"/>
<polygon fill="#191970" stroke="#191970" points="299.4325,-168.9486 309.8161,-166.8435 300.3861,-162.0138 299.4325,-168.9486"/>
</g>
<!-- Node229&#45;&gt;Node227 -->
<g id="edge17" class="edge">
<title>Node229&#45;&gt;Node227</title>
<path fill="none" stroke="#191970" d="M260.1154,-30.5192C274.0908,-34.3625 289.2192,-38.5228 303.5348,-42.4596"/>
<polygon fill="#191970" stroke="#191970" points="302.7215,-45.8658 313.2916,-45.1427 304.5777,-39.1163 302.7215,-45.8658"/>
</g>
</g>
</svg>
