<?xml version="1.0" encoding="UTF-8" standalone="no"?>
<!DOCTYPE svg PUBLIC "-//W3C//DTD SVG 1.1//EN"
 "http://www.w3.org/Graphics/SVG/1.1/DTD/svg11.dtd">
<!-- Generated by graphviz version 2.40.1 (20161225.0304)
 -->
<!-- Title: nuspell::parse_on_whitespace Pages: 1 -->
<svg width="553pt" height="28pt"
 viewBox="0.00 0.00 553.00 28.00" xmlns="http://www.w3.org/2000/svg" xmlns:xlink="http://www.w3.org/1999/xlink">
<g id="graph0" class="graph" transform="scale(1 1) rotate(0) translate(4 24)">
<title>nuspell::parse_on_whitespace</title>
<polygon fill="#ffffff" stroke="transparent" points="-4,4 -4,-24 549,-24 549,4 -4,4"/>
<!-- Node246 -->
<g id="node1" class="node">
<title>Node246</title>
<polygon fill="#bfbfbf" stroke="#000000" points="0,-.5 0,-19.5 148,-19.5 148,-.5 0,-.5"/>
<text text-anchor="middle" x="74" y="-7.5" font-family="Helvetica,sans-Serif" font-size="10.00" fill="#000000">nuspell::parse_on_whitespace</text>
</g>
<!-- Node247 -->
<g id="node2" class="node">
<title>Node247</title>
<g id="a_node2"><a xlink:href="namespacenuspell.html#ae7511832ec3d132234e782cd89bc18e3" target="_top" xlink:title="nuspell::parse_on_whitespace_v">
<polygon fill="#ffffff" stroke="#000000" points="184,-.5 184,-19.5 342,-19.5 342,-.5 184,-.5"/>
<text text-anchor="middle" x="263" y="-7.5" font-family="Helvetica,sans-Serif" font-size="10.00" fill="#000000">nuspell::parse_on_whitespace_v</text>
</a>
</g>
</g>
<!-- Node246&#45;&gt;Node247 -->
<g id="edge1" class="edge">
<title>Node246&#45;&gt;Node247</title>
<path fill="none" stroke="#191970" d="M158.3802,-10C166.8222,-10 175.3731,-10 183.7593,-10"/>
<polygon fill="#191970" stroke="#191970" points="158.1554,-6.5001 148.1554,-10 158.1553,-13.5001 158.1554,-6.5001"/>
</g>
<!-- Node248 -->
<g id="node3" class="node">
<title>Node248</title>
<g id="a_node3"><a xlink:href="main_8cxx.html#a3d8ece05cdc365860364604ebebab70d" target="_top" xlink:title="crude_parse_loop">
<polygon fill="#ffffff" stroke="#000000" points="378,-.5 378,-19.5 471,-19.5 471,-.5 378,-.5"/>
<text text-anchor="middle" x="424.5" y="-7.5" font-family="Helvetica,sans-Serif" font-size="10.00" fill="#000000">crude_parse_loop</text>
</a>
</g>
</g>
<!-- Node247&#45;&gt;Node248 -->
<g id="edge2" class="edge">
<title>Node247&#45;&gt;Node248</title>
<path fill="none" stroke="#191970" d="M352.547,-10C361.217,-10 369.7501,-10 377.7401,-10"/>
<polygon fill="#191970" stroke="#191970" points="352.3307,-6.5001 342.3306,-10 352.3306,-13.5001 352.3307,-6.5001"/>
</g>
<!-- Node249 -->
<g id="node4" class="node">
<title>Node249</title>
<g id="a_node4"><a xlink:href="main_8cxx.html#a0ddf1224851353fc92bfbff6f499fa97" target="_top" xlink:title="main">
<polygon fill="#ffffff" stroke="#000000" points="507,-.5 507,-19.5 545,-19.5 545,-.5 507,-.5"/>
<text text-anchor="middle" x="526" y="-7.5" font-family="Helvetica,sans-Serif" font-size="10.00" fill="#000000">main</text>
</a>
</g>
</g>
<!-- Node248&#45;&gt;Node249 -->
<g id="edge3" class="edge">
<title>Node248&#45;&gt;Node249</title>
<path fill="none" stroke="#191970" d="M481.3645,-10C490.4202,-10 499.2123,-10 506.5649,-10"/>
<polygon fill="#191970" stroke="#191970" points="481.0911,-6.5001 471.0911,-10 481.091,-13.5001 481.0911,-6.5001"/>
</g>
</g>
</svg>
