<?xml version="1.0" encoding="UTF-8" standalone="no"?>
<!DOCTYPE svg PUBLIC "-//W3C//DTD SVG 1.1//EN"
 "http://www.w3.org/Graphics/SVG/1.1/DTD/svg11.dtd">
<!-- Generated by graphviz version 2.40.1 (20161225.0304)
 -->
<!-- Title: nuspell::search_path_for_dicts Pages: 1 -->
<svg width="267pt" height="39pt"
 viewBox="0.00 0.00 267.00 39.00" xmlns="http://www.w3.org/2000/svg" xmlns:xlink="http://www.w3.org/1999/xlink">
<g id="graph0" class="graph" transform="scale(1 1) rotate(0) translate(4 35)">
<title>nuspell::search_path_for_dicts</title>
<polygon fill="#ffffff" stroke="transparent" points="-4,4 -4,-35 263,-35 263,4 -4,4"/>
<!-- Node290 -->
<g id="node1" class="node">
<title>Node290</title>
<polygon fill="#bfbfbf" stroke="#000000" points="0,-.5 0,-30.5 107,-30.5 107,-.5 0,-.5"/>
<text text-anchor="start" x="8" y="-18.5" font-family="Helvetica,sans-Serif" font-size="10.00" fill="#000000">nuspell::search_path</text>
<text text-anchor="middle" x="53.5" y="-7.5" font-family="Helvetica,sans-Serif" font-size="10.00" fill="#000000">_for_dicts</text>
</g>
<!-- Node291 -->
<g id="node2" class="node">
<title>Node291</title>
<g id="a_node2"><a xlink:href="classnuspell_1_1_finder.html#a69d8f8800da524155bf03d1bb3d5b2fd" target="_top" xlink:title="Searches for dictionaries in paths which have been found and added. ">
<polygon fill="#ffffff" stroke="#000000" points="143,-.5 143,-30.5 259,-30.5 259,-.5 143,-.5"/>
<text text-anchor="start" x="151" y="-18.5" font-family="Helvetica,sans-Serif" font-size="10.00" fill="#000000">nuspell::Finder::search</text>
<text text-anchor="middle" x="201" y="-7.5" font-family="Helvetica,sans-Serif" font-size="10.00" fill="#000000">_dictionaries</text>
</a>
</g>
</g>
<!-- Node290&#45;&gt;Node291 -->
<g id="edge1" class="edge">
<title>Node290&#45;&gt;Node291</title>
<path fill="none" stroke="#191970" d="M117.3894,-15.5C125.8662,-15.5 134.52,-15.5 142.8918,-15.5"/>
<polygon fill="#191970" stroke="#191970" points="117.1682,-12.0001 107.1681,-15.5 117.1681,-19.0001 117.1682,-12.0001"/>
</g>
</g>
</svg>
