<?xml version="1.0" encoding="UTF-8" standalone="no"?>
<!DOCTYPE svg PUBLIC "-//W3C//DTD SVG 1.1//EN"
 "http://www.w3.org/Graphics/SVG/1.1/DTD/svg11.dtd">
<!-- Generated by graphviz version 2.40.1 (20161225.0304)
 -->
<!-- Title: nuspell::utf_to_utf_my Pages: 1 -->
<svg width="984pt" height="341pt"
 viewBox="0.00 0.00 984.00 340.98" xmlns="http://www.w3.org/2000/svg" xmlns:xlink="http://www.w3.org/1999/xlink">
<g id="graph0" class="graph" transform="scale(1 1) rotate(0) translate(4 336.9829)">
<title>nuspell::utf_to_utf_my</title>
<polygon fill="#ffffff" stroke="transparent" points="-4,4 -4,-336.9829 980,-336.9829 980,4 -4,4"/>
<!-- Node410 -->
<g id="node1" class="node">
<title>Node410</title>
<polygon fill="#bfbfbf" stroke="#000000" points="0,-120.4829 0,-139.4829 113,-139.4829 113,-120.4829 0,-120.4829"/>
<text text-anchor="middle" x="56.5" y="-127.4829" font-family="Helvetica,sans-Serif" font-size="10.00" fill="#000000">nuspell::utf_to_utf_my</text>
</g>
<!-- Node411 -->
<g id="node2" class="node">
<title>Node411</title>
<g id="a_node2"><a xlink:href="namespacenuspell.html#a79258aeb32a39ce719a014950b33e5d6" target="_top" xlink:title="nuspell::utf8_to_wide">
<polygon fill="#ffffff" stroke="#000000" points="445,-174.4829 445,-193.4829 554,-193.4829 554,-174.4829 445,-174.4829"/>
<text text-anchor="middle" x="499.5" y="-181.4829" font-family="Helvetica,sans-Serif" font-size="10.00" fill="#000000">nuspell::utf8_to_wide</text>
</a>
</g>
</g>
<!-- Node410&#45;&gt;Node411 -->
<g id="edge1" class="edge">
<title>Node410&#45;&gt;Node411</title>
<path fill="none" stroke="#191970" d="M123.1588,-138.1084C210.8467,-148.7972 363.3185,-167.3829 444.67,-177.2994"/>
<polygon fill="#191970" stroke="#191970" points="123.4063,-134.6127 113.0562,-136.8769 122.5592,-141.5613 123.4063,-134.6127"/>
</g>
<!-- Node421 -->
<g id="node12" class="node">
<title>Node421</title>
<g id="a_node12"><a xlink:href="namespacenuspell.html#aff86f9ecb346e78687e56dab66a77469" target="_top" xlink:title="nuspell::utf8_to_32">
<polygon fill="#ffffff" stroke="#000000" points="149,-101.4829 149,-120.4829 248,-120.4829 248,-101.4829 149,-101.4829"/>
<text text-anchor="middle" x="198.5" y="-108.4829" font-family="Helvetica,sans-Serif" font-size="10.00" fill="#000000">nuspell::utf8_to_32</text>
</a>
</g>
</g>
<!-- Node410&#45;&gt;Node421 -->
<g id="edge15" class="edge">
<title>Node410&#45;&gt;Node421</title>
<path fill="none" stroke="#191970" d="M123.0501,-121.0783C131.6457,-119.9282 140.3285,-118.7664 148.5921,-117.6607"/>
<polygon fill="#191970" stroke="#191970" points="122.4776,-117.6237 113.0302,-122.419 123.406,-124.5618 122.4776,-117.6237"/>
</g>
<!-- Node412 -->
<g id="node3" class="node">
<title>Node412</title>
<g id="a_node3"><a xlink:href="structnuspell_1_1_aff___data.html#a93b16b2b3938f607a18e3a67b9360b83" target="_top" xlink:title="Parses an input stream offering affix information. ">
<polygon fill="#ffffff" stroke="#000000" points="796.5,-61.9829 796.5,-91.9829 894.5,-91.9829 894.5,-61.9829 796.5,-61.9829"/>
<text text-anchor="start" x="804.5" y="-79.9829" font-family="Helvetica,sans-Serif" font-size="10.00" fill="#000000">nuspell::Aff_Data::</text>
<text text-anchor="middle" x="845.5" y="-68.9829" font-family="Helvetica,sans-Serif" font-size="10.00" fill="#000000">parse_aff</text>
</a>
</g>
</g>
<!-- Node411&#45;&gt;Node412 -->
<g id="edge2" class="edge">
<title>Node411&#45;&gt;Node412</title>
<path fill="none" stroke="#191970" d="M549.2719,-195.4056C602.337,-205.0067 687.5659,-212.8835 753,-182.9829 774.2153,-173.2884 815.2641,-119.0544 834.7414,-92.1387"/>
<polygon fill="#191970" stroke="#191970" points="549.9038,-191.9631 539.4266,-193.5374 548.5988,-198.8404 549.9038,-191.9631"/>
</g>
<!-- Node413 -->
<g id="node4" class="node">
<title>Node413</title>
<g id="a_node4"><a xlink:href="structnuspell_1_1_aff___data.html#ad77b0f3b5fc59f2c1ba29e5cbf8dc7ed" target="_top" xlink:title="Parses an input stream offering dictionary information. ">
<polygon fill="#ffffff" stroke="#000000" points="629.5,-143.9829 629.5,-173.9829 727.5,-173.9829 727.5,-143.9829 629.5,-143.9829"/>
<text text-anchor="start" x="637.5" y="-161.9829" font-family="Helvetica,sans-Serif" font-size="10.00" fill="#000000">nuspell::Aff_Data::</text>
<text text-anchor="middle" x="678.5" y="-150.9829" font-family="Helvetica,sans-Serif" font-size="10.00" fill="#000000">parse_dic</text>
</a>
</g>
</g>
<!-- Node411&#45;&gt;Node413 -->
<g id="edge3" class="edge">
<title>Node411&#45;&gt;Node413</title>
<path fill="none" stroke="#191970" d="M564.2033,-174.9462C585.6766,-171.9471 609.2173,-168.6593 629.3248,-165.851"/>
<polygon fill="#191970" stroke="#191970" points="563.5982,-171.4966 554.1785,-176.3463 564.5666,-178.4293 563.5982,-171.4966"/>
</g>
<!-- Node414 -->
<g id="node5" class="node">
<title>Node414</title>
<g id="a_node5"><a xlink:href="classnuspell_1_1_basic___dictionary.html#a05ed25f4b65c93f0389295303e43e509" target="_top" xlink:title="nuspell::Basic_Dictionary\l::spell">
<polygon fill="#ffffff" stroke="#000000" points="614.5,-231.9829 614.5,-261.9829 742.5,-261.9829 742.5,-231.9829 614.5,-231.9829"/>
<text text-anchor="start" x="622.5" y="-249.9829" font-family="Helvetica,sans-Serif" font-size="10.00" fill="#000000">nuspell::Basic_Dictionary</text>
<text text-anchor="middle" x="678.5" y="-238.9829" font-family="Helvetica,sans-Serif" font-size="10.00" fill="#000000">::spell</text>
</a>
</g>
</g>
<!-- Node411&#45;&gt;Node414 -->
<g id="edge4" class="edge">
<title>Node411&#45;&gt;Node414</title>
<path fill="none" stroke="#191970" d="M536.3875,-196.9657C565.247,-207.1229 605.4222,-221.2628 635.6961,-231.9179"/>
<polygon fill="#191970" stroke="#191970" points="537.2811,-193.5698 526.6862,-193.5513 534.9571,-200.1728 537.2811,-193.5698"/>
</g>
<!-- Node415 -->
<g id="node6" class="node">
<title>Node415</title>
<g id="a_node6"><a xlink:href="main_8cxx.html#a4a642b8579e49cab4ef7293d66f1f5d5" target="_top" xlink:title="Normal loop, tokenize and check spelling. ">
<polygon fill="#ffffff" stroke="#000000" points="811,-237.4829 811,-256.4829 880,-256.4829 880,-237.4829 811,-237.4829"/>
<text text-anchor="middle" x="845.5" y="-244.4829" font-family="Helvetica,sans-Serif" font-size="10.00" fill="#000000">normal_loop</text>
</a>
</g>
</g>
<!-- Node414&#45;&gt;Node415 -->
<g id="edge5" class="edge">
<title>Node414&#45;&gt;Node415</title>
<path fill="none" stroke="#191970" d="M752.7486,-246.9829C772.9629,-246.9829 793.9094,-246.9829 810.7707,-246.9829"/>
<polygon fill="#191970" stroke="#191970" points="752.589,-243.483 742.589,-246.9829 752.5889,-250.483 752.589,-243.483"/>
</g>
<!-- Node417 -->
<g id="node8" class="node">
<title>Node417</title>
<g id="a_node8"><a xlink:href="main_8cxx.html#aebf1b2aa274390a39317fbbca50d9d5e" target="_top" xlink:title="Prints misspelled words from an input stream to an output stream. ">
<polygon fill="#ffffff" stroke="#000000" points="789,-199.4829 789,-218.4829 902,-218.4829 902,-199.4829 789,-199.4829"/>
<text text-anchor="middle" x="845.5" y="-206.4829" font-family="Helvetica,sans-Serif" font-size="10.00" fill="#000000">misspelled_word_loop</text>
</a>
</g>
</g>
<!-- Node414&#45;&gt;Node417 -->
<g id="edge7" class="edge">
<title>Node414&#45;&gt;Node417</title>
<path fill="none" stroke="#191970" d="M752.7486,-230.088C770.1499,-226.1285 788.0937,-222.0454 803.5071,-218.5382"/>
<polygon fill="#191970" stroke="#191970" points="751.5631,-226.7682 742.589,-232.3998 753.1163,-233.5938 751.5631,-226.7682"/>
</g>
<!-- Node418 -->
<g id="node9" class="node">
<title>Node418</title>
<g id="a_node9"><a xlink:href="main_8cxx.html#a1248d9e693e561e175cf2e5b55499fff" target="_top" xlink:title="correct_word_loop">
<polygon fill="#ffffff" stroke="#000000" points="797.5,-161.4829 797.5,-180.4829 893.5,-180.4829 893.5,-161.4829 797.5,-161.4829"/>
<text text-anchor="middle" x="845.5" y="-168.4829" font-family="Helvetica,sans-Serif" font-size="10.00" fill="#000000">correct_word_loop</text>
</a>
</g>
</g>
<!-- Node414&#45;&gt;Node418 -->
<g id="edge9" class="edge">
<title>Node414&#45;&gt;Node418</title>
<path fill="none" stroke="#191970" d="M730.7806,-227.9578C738.387,-224.6113 746.0048,-220.9248 753,-216.9829 770.424,-207.1643 771.2967,-199.2886 789,-189.9829 795.9619,-186.3235 803.7698,-183.1622 811.3078,-180.5259"/>
<polygon fill="#191970" stroke="#191970" points="729.3948,-224.7437 721.5507,-231.8655 732.124,-231.1898 729.3948,-224.7437"/>
</g>
<!-- Node419 -->
<g id="node10" class="node">
<title>Node419</title>
<g id="a_node10"><a xlink:href="main_8cxx.html#a1f92dedeeb68a1a7bc2b720097d3b7a4" target="_top" xlink:title="misspelled_line_loop">
<polygon fill="#ffffff" stroke="#000000" points="792,-313.4829 792,-332.4829 899,-332.4829 899,-313.4829 792,-313.4829"/>
<text text-anchor="middle" x="845.5" y="-320.4829" font-family="Helvetica,sans-Serif" font-size="10.00" fill="#000000">misspelled_line_loop</text>
</a>
</g>
</g>
<!-- Node414&#45;&gt;Node419 -->
<g id="edge11" class="edge">
<title>Node414&#45;&gt;Node419</title>
<path fill="none" stroke="#191970" d="M714.2074,-267.1578C735.5314,-278.7597 763.3712,-293.1376 789,-303.9829 797.101,-307.411 806.0513,-310.6573 814.3937,-313.4646"/>
<polygon fill="#191970" stroke="#191970" points="715.6471,-263.9554 705.197,-262.21 712.2778,-270.0912 715.6471,-263.9554"/>
</g>
<!-- Node420 -->
<g id="node11" class="node">
<title>Node420</title>
<g id="a_node11"><a xlink:href="main_8cxx.html#a16580c4100b461806a9c49575bdd5428" target="_top" xlink:title="correct_line_loop">
<polygon fill="#ffffff" stroke="#000000" points="800.5,-275.4829 800.5,-294.4829 890.5,-294.4829 890.5,-275.4829 800.5,-275.4829"/>
<text text-anchor="middle" x="845.5" y="-282.4829" font-family="Helvetica,sans-Serif" font-size="10.00" fill="#000000">correct_line_loop</text>
</a>
</g>
</g>
<!-- Node414&#45;&gt;Node420 -->
<g id="edge13" class="edge">
<title>Node414&#45;&gt;Node420</title>
<path fill="none" stroke="#191970" d="M752.7486,-263.8778C770.1499,-267.8374 788.0937,-271.9204 803.5071,-275.4277"/>
<polygon fill="#191970" stroke="#191970" points="753.1163,-260.3721 742.589,-261.566 751.5631,-267.1976 753.1163,-260.3721"/>
</g>
<!-- Node416 -->
<g id="node7" class="node">
<title>Node416</title>
<g id="a_node7"><a xlink:href="main_8cxx.html#a0ddf1224851353fc92bfbff6f499fa97" target="_top" xlink:title="main">
<polygon fill="#ffffff" stroke="#000000" points="938,-237.4829 938,-256.4829 976,-256.4829 976,-237.4829 938,-237.4829"/>
<text text-anchor="middle" x="957" y="-244.4829" font-family="Helvetica,sans-Serif" font-size="10.00" fill="#000000">main</text>
</a>
</g>
</g>
<!-- Node415&#45;&gt;Node416 -->
<g id="edge6" class="edge">
<title>Node415&#45;&gt;Node416</title>
<path fill="none" stroke="#191970" d="M890.2768,-246.9829C906.8819,-246.9829 924.8392,-246.9829 937.9374,-246.9829"/>
<polygon fill="#191970" stroke="#191970" points="890.1681,-243.483 880.1681,-246.9829 890.1681,-250.483 890.1681,-243.483"/>
</g>
<!-- Node417&#45;&gt;Node416 -->
<g id="edge8" class="edge">
<title>Node417&#45;&gt;Node416</title>
<path fill="none" stroke="#191970" d="M883.4947,-221.7123C889.6827,-223.7991 896.0217,-225.9452 902,-227.9829 913.9526,-232.0571 927.3458,-236.6826 937.923,-240.3496"/>
<polygon fill="#191970" stroke="#191970" points="884.5627,-218.3789 873.9686,-218.5057 882.3295,-225.0131 884.5627,-218.3789"/>
</g>
<!-- Node418&#45;&gt;Node416 -->
<g id="edge10" class="edge">
<title>Node418&#45;&gt;Node416</title>
<path fill="none" stroke="#191970" d="M891.9494,-184.5331C895.447,-186.1726 898.8402,-187.985 902,-189.9829 922.224,-202.7705 940.3646,-224.5075 949.911,-237.1208"/>
<polygon fill="#191970" stroke="#191970" points="893.1109,-181.225 882.5352,-180.5886 890.4057,-187.6812 893.1109,-181.225"/>
</g>
<!-- Node419&#45;&gt;Node416 -->
<g id="edge12" class="edge">
<title>Node419&#45;&gt;Node416</title>
<path fill="none" stroke="#191970" d="M891.9494,-309.4328C895.447,-307.7933 898.8402,-305.9809 902,-303.9829 922.224,-291.1954 940.3646,-269.4583 949.911,-256.845"/>
<polygon fill="#191970" stroke="#191970" points="890.4057,-306.2847 882.5352,-313.3772 893.1109,-312.7409 890.4057,-306.2847"/>
</g>
<!-- Node420&#45;&gt;Node416 -->
<g id="edge14" class="edge">
<title>Node420&#45;&gt;Node416</title>
<path fill="none" stroke="#191970" d="M883.4947,-272.2536C889.6827,-270.1667 896.0217,-268.0207 902,-265.9829 913.9526,-261.9087 927.3458,-257.2833 937.923,-253.6163"/>
<polygon fill="#191970" stroke="#191970" points="882.3295,-268.9528 873.9686,-275.4602 884.5627,-275.587 882.3295,-268.9528"/>
</g>
<!-- Node422 -->
<g id="node13" class="node">
<title>Node422</title>
<g id="a_node13"><a xlink:href="namespacenuspell.html#adbb8e053a44129d0f51014facd48b7f9" target="_top" xlink:title="Decodes flags. ">
<polygon fill="#ffffff" stroke="#000000" points="284,-67.4829 284,-86.4829 395,-86.4829 395,-67.4829 284,-67.4829"/>
<text text-anchor="middle" x="339.5" y="-74.4829" font-family="Helvetica,sans-Serif" font-size="10.00" fill="#000000">nuspell::decode_flags</text>
</a>
</g>
</g>
<!-- Node421&#45;&gt;Node422 -->
<g id="edge16" class="edge">
<title>Node421&#45;&gt;Node422</title>
<path fill="none" stroke="#191970" d="M247.8872,-99.074C264.831,-94.9882 283.5672,-90.4703 299.6575,-86.5903"/>
<polygon fill="#191970" stroke="#191970" points="247.0525,-95.6748 238.1516,-101.4216 248.6934,-102.4798 247.0525,-95.6748"/>
</g>
<!-- Node422&#45;&gt;Node412 -->
<g id="edge26" class="edge">
<title>Node422&#45;&gt;Node412</title>
<path fill="none" stroke="#191970" d="M368.5682,-63.3496C386.2491,-55.6159 409.4964,-46.4238 431,-40.9829 570.0338,-5.8047 615.0177,19.1168 753,-19.9829 781.6748,-28.1085 810.1893,-47.9165 827.8185,-61.8913"/>
<polygon fill="#191970" stroke="#191970" points="367.0661,-60.1872 359.3645,-67.463 369.9223,-66.578 367.0661,-60.1872"/>
</g>
<!-- Node423 -->
<g id="node14" class="node">
<title>Node423</title>
<g id="a_node14"><a xlink:href="namespacenuspell.html#ac3ed6d85c13c609eb5c51628b9dbac76" target="_top" xlink:title="Decodes a single flag from an input stream. ">
<polygon fill="#ffffff" stroke="#000000" points="431,-67.4829 431,-86.4829 568,-86.4829 568,-67.4829 431,-67.4829"/>
<text text-anchor="middle" x="499.5" y="-74.4829" font-family="Helvetica,sans-Serif" font-size="10.00" fill="#000000">nuspell::decode_single_flag</text>
</a>
</g>
</g>
<!-- Node422&#45;&gt;Node423 -->
<g id="edge17" class="edge">
<title>Node422&#45;&gt;Node423</title>
<path fill="none" stroke="#191970" d="M405.1923,-76.9829C413.6503,-76.9829 422.329,-76.9829 430.8332,-76.9829"/>
<polygon fill="#191970" stroke="#191970" points="405.0112,-73.483 395.0112,-76.9829 405.0112,-80.483 405.0112,-73.483"/>
</g>
<!-- Node425 -->
<g id="node16" class="node">
<title>Node425</title>
<g id="a_node16"><a xlink:href="namespacenuspell.html#a3d81c446c32c53cd03e595f8fde9c2ab" target="_top" xlink:title="nuspell::decode_flags\l_possible_alias">
<polygon fill="#ffffff" stroke="#000000" points="444,-105.9829 444,-135.9829 555,-135.9829 555,-105.9829 444,-105.9829"/>
<text text-anchor="start" x="452" y="-123.9829" font-family="Helvetica,sans-Serif" font-size="10.00" fill="#000000">nuspell::decode_flags</text>
<text text-anchor="middle" x="499.5" y="-112.9829" font-family="Helvetica,sans-Serif" font-size="10.00" fill="#000000">_possible_alias</text>
</a>
</g>
</g>
<!-- Node422&#45;&gt;Node425 -->
<g id="edge21" class="edge">
<title>Node422&#45;&gt;Node425</title>
<path fill="none" stroke="#191970" d="M384.0098,-89.2231C402.8215,-94.3963 424.917,-100.4726 444.7169,-105.9176"/>
<polygon fill="#191970" stroke="#191970" points="384.7877,-85.8072 374.2176,-86.5303 382.9316,-92.5566 384.7877,-85.8072"/>
</g>
<!-- Node426 -->
<g id="node17" class="node">
<title>Node426</title>
<g id="a_node17"><a xlink:href="namespacenuspell.html#a82f70879bf54a6f7118852b75d8ddbfc" target="_top" xlink:title="nuspell::parse_compound_rule">
<polygon fill="#ffffff" stroke="#000000" points="604,-29.4829 604,-48.4829 753,-48.4829 753,-29.4829 604,-29.4829"/>
<text text-anchor="middle" x="678.5" y="-36.4829" font-family="Helvetica,sans-Serif" font-size="10.00" fill="#000000">nuspell::parse_compound_rule</text>
</a>
</g>
</g>
<!-- Node422&#45;&gt;Node426 -->
<g id="edge24" class="edge">
<title>Node422&#45;&gt;Node426</title>
<path fill="none" stroke="#191970" d="M389.7936,-65.3328C403.1295,-62.5753 417.5589,-59.8864 431,-57.9829 488.7104,-49.8103 554.5244,-44.9699 603.7712,-42.2219"/>
<polygon fill="#191970" stroke="#191970" points="388.8995,-61.9445 379.8433,-67.4431 390.3518,-68.7922 388.8995,-61.9445"/>
</g>
<!-- Node423&#45;&gt;Node412 -->
<g id="edge20" class="edge">
<title>Node423&#45;&gt;Node412</title>
<path fill="none" stroke="#191970" d="M578.3773,-76.9829C645.4426,-76.9829 739.6384,-76.9829 796.3987,-76.9829"/>
<polygon fill="#191970" stroke="#191970" points="578.2722,-73.483 568.2721,-76.9829 578.2721,-80.483 578.2722,-73.483"/>
</g>
<!-- Node424 -->
<g id="node15" class="node">
<title>Node424</title>
<g id="a_node15"><a xlink:href="namespacenuspell.html#a431abe5c2853b6f099bfedd5b6a4bb9f" target="_top" xlink:title="Parses an affix from an input stream. ">
<polygon fill="#ffffff" stroke="#000000" points="628,-105.4829 628,-124.4829 729,-124.4829 729,-105.4829 628,-105.4829"/>
<text text-anchor="middle" x="678.5" y="-112.4829" font-family="Helvetica,sans-Serif" font-size="10.00" fill="#000000">nuspell::parse_affix</text>
</a>
</g>
</g>
<!-- Node423&#45;&gt;Node424 -->
<g id="edge18" class="edge">
<title>Node423&#45;&gt;Node424</title>
<path fill="none" stroke="#191970" d="M554.5236,-88.6639C579.9082,-94.0528 609.6607,-100.369 633.6556,-105.4629"/>
<polygon fill="#191970" stroke="#191970" points="555.1781,-85.2249 544.6693,-86.5719 553.7244,-92.0723 555.1781,-85.2249"/>
</g>
<!-- Node424&#45;&gt;Node412 -->
<g id="edge19" class="edge">
<title>Node424&#45;&gt;Node412</title>
<path fill="none" stroke="#191970" d="M730.6469,-103.1172C751.5903,-98.3516 775.6125,-92.8855 796.2555,-88.1883"/>
<polygon fill="#191970" stroke="#191970" points="729.6153,-99.7624 720.6412,-105.3939 731.1685,-106.5879 729.6153,-99.7624"/>
</g>
<!-- Node425&#45;&gt;Node413 -->
<g id="edge23" class="edge">
<title>Node425&#45;&gt;Node413</title>
<path fill="none" stroke="#191970" d="M565.0666,-134.9021C586.2777,-139.405 609.4244,-144.3188 629.2452,-148.5266"/>
<polygon fill="#191970" stroke="#191970" points="565.6644,-131.4511 555.1555,-132.7981 564.2107,-138.2985 565.6644,-131.4511"/>
</g>
<!-- Node425&#45;&gt;Node424 -->
<g id="edge22" class="edge">
<title>Node425&#45;&gt;Node424</title>
<path fill="none" stroke="#191970" d="M565.4121,-118.7736C585.9964,-118.0836 608.3734,-117.3335 627.7481,-116.6841"/>
<polygon fill="#191970" stroke="#191970" points="565.0326,-115.2842 555.1555,-119.1174 565.2672,-122.2803 565.0326,-115.2842"/>
</g>
<!-- Node426&#45;&gt;Node412 -->
<g id="edge25" class="edge">
<title>Node426&#45;&gt;Node412</title>
<path fill="none" stroke="#191970" d="M730.6469,-50.8487C751.5903,-55.6143 775.6125,-61.0804 796.2555,-65.7776"/>
<polygon fill="#191970" stroke="#191970" points="731.1685,-47.378 720.6412,-48.5719 729.6153,-54.2035 731.1685,-47.378"/>
</g>
</g>
</svg>
