<?xml version="1.0" encoding="UTF-8" standalone="no"?>
<!DOCTYPE svg PUBLIC "-//W3C//DTD SVG 1.1//EN"
 "http://www.w3.org/Graphics/SVG/1.1/DTD/svg11.dtd">
<!-- Generated by graphviz version 2.40.1 (20161225.0304)
 -->
<!-- Title: nuspell::match_compund_rule Pages: 1 -->
<svg width="304pt" height="88pt"
 viewBox="0.00 0.00 304.00 88.00" xmlns="http://www.w3.org/2000/svg" xmlns:xlink="http://www.w3.org/1999/xlink">
<g id="graph0" class="graph" transform="scale(1 1) rotate(0) translate(4 84)">
<title>nuspell::match_compund_rule</title>
<polygon fill="#ffffff" stroke="transparent" points="-4,4 -4,-84 300,-84 300,4 -4,4"/>
<!-- Node202 -->
<g id="node1" class="node">
<title>Node202</title>
<polygon fill="#bfbfbf" stroke="#000000" points="0,-30 0,-49 146,-49 146,-30 0,-30"/>
<text text-anchor="middle" x="73" y="-37" font-family="Helvetica,sans-Serif" font-size="10.00" fill="#000000">nuspell::match_compund_rule</text>
</g>
<!-- Node203 -->
<g id="node2" class="node">
<title>Node203</title>
<g id="a_node2"><a xlink:href="namespacenuspell.html#a99eaa02be11f51546c6f62386e45c986" target="_top" xlink:title="nuspell::match_simple\l_regex">
<polygon fill="#ffffff" stroke="#000000" points="182,-49.5 182,-79.5 296,-79.5 296,-49.5 182,-49.5"/>
<text text-anchor="start" x="190" y="-67.5" font-family="Helvetica,sans-Serif" font-size="10.00" fill="#000000">nuspell::match_simple</text>
<text text-anchor="middle" x="239" y="-56.5" font-family="Helvetica,sans-Serif" font-size="10.00" fill="#000000">_regex</text>
</a>
</g>
</g>
<!-- Node202&#45;&gt;Node203 -->
<g id="edge1" class="edge">
<title>Node202&#45;&gt;Node203</title>
<path fill="none" stroke="#191970" d="M136.231,-49.0227C147.853,-50.773 160.024,-52.606 171.7587,-54.3733"/>
<polygon fill="#191970" stroke="#191970" points="171.5242,-57.8774 181.9339,-55.9057 172.5667,-50.9554 171.5242,-57.8774"/>
</g>
<!-- Node204 -->
<g id="node3" class="node">
<title>Node204</title>
<g id="a_node3"><a xlink:href="classnuspell_1_1_string___set.html#ad1eeb2a3564c02c49f31b98299e493df" target="_top" xlink:title="nuspell::String_Set\l::contains">
<polygon fill="#ffffff" stroke="#000000" points="189.5,-.5 189.5,-30.5 288.5,-30.5 288.5,-.5 189.5,-.5"/>
<text text-anchor="start" x="197.5" y="-18.5" font-family="Helvetica,sans-Serif" font-size="10.00" fill="#000000">nuspell::String_Set</text>
<text text-anchor="middle" x="239" y="-7.5" font-family="Helvetica,sans-Serif" font-size="10.00" fill="#000000">::contains</text>
</a>
</g>
</g>
<!-- Node202&#45;&gt;Node204 -->
<g id="edge2" class="edge">
<title>Node202&#45;&gt;Node204</title>
<path fill="none" stroke="#191970" d="M139.0846,-29.9456C152.2829,-28.0374 166.0772,-26.0431 179.0548,-24.1668"/>
<polygon fill="#191970" stroke="#191970" points="179.8642,-27.5862 189.2604,-22.6913 178.8625,-20.6583 179.8642,-27.5862"/>
</g>
</g>
</svg>
