<?xml version="1.0" encoding="UTF-8" standalone="no"?>
<!DOCTYPE svg PUBLIC "-//W3C//DTD SVG 1.1//EN"
 "http://www.w3.org/Graphics/SVG/1.1/DTD/svg11.dtd">
<!-- Generated by graphviz version 2.40.1 (20161225.0304)
 -->
<!-- Title: nuspell::swap Pages: 1 -->
<svg width="226pt" height="39pt"
 viewBox="0.00 0.00 226.00 39.00" xmlns="http://www.w3.org/2000/svg" xmlns:xlink="http://www.w3.org/1999/xlink">
<g id="graph0" class="graph" transform="scale(1 1) rotate(0) translate(4 35)">
<title>nuspell::swap</title>
<polygon fill="#ffffff" stroke="transparent" points="-4,4 -4,-35 222,-35 222,4 -4,4"/>
<!-- Node345 -->
<g id="node1" class="node">
<title>Node345</title>
<polygon fill="#bfbfbf" stroke="#000000" points="0,-6 0,-25 77,-25 77,-6 0,-6"/>
<text text-anchor="middle" x="38.5" y="-13" font-family="Helvetica,sans-Serif" font-size="10.00" fill="#000000">nuspell::swap</text>
</g>
<!-- Node346 -->
<g id="node2" class="node">
<title>Node346</title>
<g id="a_node2"><a xlink:href="classnuspell_1_1_list___strings.html#a62962c0873981dc115758cb4730400c9" target="_top" xlink:title="nuspell::List_Strings\l::swap">
<polygon fill="#ffffff" stroke="#000000" points="113,-.5 113,-30.5 218,-30.5 218,-.5 113,-.5"/>
<text text-anchor="start" x="121" y="-18.5" font-family="Helvetica,sans-Serif" font-size="10.00" fill="#000000">nuspell::List_Strings</text>
<text text-anchor="middle" x="165.5" y="-7.5" font-family="Helvetica,sans-Serif" font-size="10.00" fill="#000000">::swap</text>
</a>
</g>
</g>
<!-- Node345&#45;&gt;Node346 -->
<g id="edge1" class="edge">
<title>Node345&#45;&gt;Node346</title>
<path fill="none" stroke="#191970" d="M77.2943,-9.2263C85.3685,-8.8992 94.0741,-8.7406 102.7607,-8.7504"/>
<polygon fill="#191970" stroke="#191970" points="102.88,-12.2515 112.9103,-8.8393 102.9414,-5.2518 102.88,-12.2515"/>
</g>
<!-- Node346&#45;&gt;Node345 -->
<g id="edge2" class="edge">
<title>Node346&#45;&gt;Node345</title>
<path fill="none" stroke="#191970" d="M112.9103,-22.1607C104.4313,-22.3008 95.6848,-22.2761 87.3,-22.0866"/>
<polygon fill="#191970" stroke="#191970" points="87.3988,-18.5881 77.2943,-21.7737 87.18,-25.5847 87.3988,-18.5881"/>
</g>
</g>
</svg>
