<?xml version="1.0" encoding="UTF-8" standalone="no"?>
<!DOCTYPE svg PUBLIC "-//W3C//DTD SVG 1.1//EN"
 "http://www.w3.org/Graphics/SVG/1.1/DTD/svg11.dtd">
<!-- Generated by graphviz version 2.40.1 (20161225.0304)
 -->
<!-- Title: nuspell::utf_to_utf_my Pages: 1 -->
<svg width="895pt" height="282pt"
 viewBox="0.00 0.00 895.00 282.17" xmlns="http://www.w3.org/2000/svg" xmlns:xlink="http://www.w3.org/1999/xlink">
<g id="graph0" class="graph" transform="scale(1 1) rotate(0) translate(4 278.1714)">
<title>nuspell::utf_to_utf_my</title>
<polygon fill="#ffffff" stroke="transparent" points="-4,4 -4,-278.1714 891,-278.1714 891,4 -4,4"/>
<!-- Node404 -->
<g id="node1" class="node">
<title>Node404</title>
<polygon fill="#bfbfbf" stroke="#000000" points="0,-121.6714 0,-140.6714 113,-140.6714 113,-121.6714 0,-121.6714"/>
<text text-anchor="middle" x="56.5" y="-128.6714" font-family="Helvetica,sans-Serif" font-size="10.00" fill="#000000">nuspell::utf_to_utf_my</text>
</g>
<!-- Node405 -->
<g id="node2" class="node">
<title>Node405</title>
<g id="a_node2"><a xlink:href="namespacenuspell.html#a79258aeb32a39ce719a014950b33e5d6" target="_top" xlink:title="nuspell::utf8_to_wide">
<polygon fill="#ffffff" stroke="#000000" points="445,-175.6714 445,-194.6714 554,-194.6714 554,-175.6714 445,-175.6714"/>
<text text-anchor="middle" x="499.5" y="-182.6714" font-family="Helvetica,sans-Serif" font-size="10.00" fill="#000000">nuspell::utf8_to_wide</text>
</a>
</g>
</g>
<!-- Node404&#45;&gt;Node405 -->
<g id="edge1" class="edge">
<title>Node404&#45;&gt;Node405</title>
<path fill="none" stroke="#191970" d="M123.1588,-139.2969C210.8467,-149.9857 363.3185,-168.5714 444.67,-178.4878"/>
<polygon fill="#191970" stroke="#191970" points="123.4063,-135.8012 113.0562,-138.0654 122.5592,-142.7498 123.4063,-135.8012"/>
</g>
<!-- Node409 -->
<g id="node6" class="node">
<title>Node409</title>
<g id="a_node6"><a xlink:href="namespacenuspell.html#aff86f9ecb346e78687e56dab66a77469" target="_top" xlink:title="nuspell::utf8_to_32">
<polygon fill="#ffffff" stroke="#000000" points="149,-102.6714 149,-121.6714 248,-121.6714 248,-102.6714 149,-102.6714"/>
<text text-anchor="middle" x="198.5" y="-109.6714" font-family="Helvetica,sans-Serif" font-size="10.00" fill="#000000">nuspell::utf8_to_32</text>
</a>
</g>
</g>
<!-- Node404&#45;&gt;Node409 -->
<g id="edge5" class="edge">
<title>Node404&#45;&gt;Node409</title>
<path fill="none" stroke="#191970" d="M123.0501,-122.2668C131.6457,-121.1167 140.3285,-119.9549 148.5921,-118.8492"/>
<polygon fill="#191970" stroke="#191970" points="122.4776,-118.8121 113.0302,-123.6075 123.406,-125.7503 122.4776,-118.8121"/>
</g>
<!-- Node406 -->
<g id="node3" class="node">
<title>Node406</title>
<g id="a_node3"><a xlink:href="structnuspell_1_1_aff___data.html#a93b16b2b3938f607a18e3a67b9360b83" target="_top" xlink:title="Parses an input stream offering affix information. ">
<polygon fill="#ffffff" stroke="#000000" points="789,-63.1714 789,-93.1714 887,-93.1714 887,-63.1714 789,-63.1714"/>
<text text-anchor="start" x="797" y="-81.1714" font-family="Helvetica,sans-Serif" font-size="10.00" fill="#000000">nuspell::Aff_Data::</text>
<text text-anchor="middle" x="838" y="-70.1714" font-family="Helvetica,sans-Serif" font-size="10.00" fill="#000000">parse_aff</text>
</a>
</g>
</g>
<!-- Node405&#45;&gt;Node406 -->
<g id="edge2" class="edge">
<title>Node405&#45;&gt;Node406</title>
<path fill="none" stroke="#191970" d="M546.3496,-196.8041C599.3601,-207.4166 686.9092,-217.0759 753,-185.1714 792.7394,-165.9877 819.6034,-118.1958 831.3234,-93.4939"/>
<polygon fill="#191970" stroke="#191970" points="547.0506,-193.3751 536.5455,-194.7512 545.6159,-200.2265 547.0506,-193.3751"/>
</g>
<!-- Node407 -->
<g id="node4" class="node">
<title>Node407</title>
<g id="a_node4"><a xlink:href="structnuspell_1_1_aff___data.html#ad77b0f3b5fc59f2c1ba29e5cbf8dc7ed" target="_top" xlink:title="Parses an input stream offering dictionary information. ">
<polygon fill="#ffffff" stroke="#000000" points="629.5,-145.1714 629.5,-175.1714 727.5,-175.1714 727.5,-145.1714 629.5,-145.1714"/>
<text text-anchor="start" x="637.5" y="-163.1714" font-family="Helvetica,sans-Serif" font-size="10.00" fill="#000000">nuspell::Aff_Data::</text>
<text text-anchor="middle" x="678.5" y="-152.1714" font-family="Helvetica,sans-Serif" font-size="10.00" fill="#000000">parse_dic</text>
</a>
</g>
</g>
<!-- Node405&#45;&gt;Node407 -->
<g id="edge3" class="edge">
<title>Node405&#45;&gt;Node407</title>
<path fill="none" stroke="#191970" d="M564.2033,-176.1346C585.6766,-173.1356 609.2173,-169.8478 629.3248,-167.0395"/>
<polygon fill="#191970" stroke="#191970" points="563.5982,-172.6851 554.1785,-177.5347 564.5666,-179.6178 563.5982,-172.6851"/>
</g>
<!-- Node408 -->
<g id="node5" class="node">
<title>Node408</title>
<g id="a_node5"><a xlink:href="classnuspell_1_1_basic___dictionary.html#aca69f6d72c3f7f7a7e88a08fc8dd9712" target="_top" xlink:title="nuspell::Basic_Dictionary\l::external_to_internal\l_encoding">
<polygon fill="#ffffff" stroke="#000000" points="614.5,-232.6714 614.5,-273.6714 742.5,-273.6714 742.5,-232.6714 614.5,-232.6714"/>
<text text-anchor="start" x="622.5" y="-261.6714" font-family="Helvetica,sans-Serif" font-size="10.00" fill="#000000">nuspell::Basic_Dictionary</text>
<text text-anchor="start" x="622.5" y="-250.6714" font-family="Helvetica,sans-Serif" font-size="10.00" fill="#000000">::external_to_internal</text>
<text text-anchor="middle" x="678.5" y="-239.6714" font-family="Helvetica,sans-Serif" font-size="10.00" fill="#000000">_encoding</text>
</a>
</g>
</g>
<!-- Node405&#45;&gt;Node408 -->
<g id="edge4" class="edge">
<title>Node405&#45;&gt;Node408</title>
<path fill="none" stroke="#191970" d="M534.3931,-198.4269C559.932,-208.1288 595.0733,-221.4786 624.2599,-232.5662"/>
<polygon fill="#191970" stroke="#191970" points="535.3578,-195.0494 524.7667,-194.7699 532.8719,-201.5931 535.3578,-195.0494"/>
</g>
<!-- Node410 -->
<g id="node7" class="node">
<title>Node410</title>
<g id="a_node7"><a xlink:href="namespacenuspell.html#adbb8e053a44129d0f51014facd48b7f9" target="_top" xlink:title="Decodes flags. ">
<polygon fill="#ffffff" stroke="#000000" points="284,-68.6714 284,-87.6714 395,-87.6714 395,-68.6714 284,-68.6714"/>
<text text-anchor="middle" x="339.5" y="-75.6714" font-family="Helvetica,sans-Serif" font-size="10.00" fill="#000000">nuspell::decode_flags</text>
</a>
</g>
</g>
<!-- Node409&#45;&gt;Node410 -->
<g id="edge6" class="edge">
<title>Node409&#45;&gt;Node410</title>
<path fill="none" stroke="#191970" d="M247.8872,-100.2624C264.831,-96.1767 283.5672,-91.6587 299.6575,-87.7788"/>
<polygon fill="#191970" stroke="#191970" points="247.0525,-96.8633 238.1516,-102.61 248.6934,-103.6683 247.0525,-96.8633"/>
</g>
<!-- Node410&#45;&gt;Node406 -->
<g id="edge16" class="edge">
<title>Node410&#45;&gt;Node406</title>
<path fill="none" stroke="#191970" d="M368.5682,-64.5381C386.2491,-56.8044 409.4964,-47.6122 431,-42.1714 570.0338,-6.9932 615.795,20.574 753,-21.1714 779.8575,-29.343 805.941,-49.1402 821.9754,-63.1"/>
<polygon fill="#191970" stroke="#191970" points="367.0661,-61.3757 359.3645,-68.6514 369.9223,-67.7665 367.0661,-61.3757"/>
</g>
<!-- Node411 -->
<g id="node8" class="node">
<title>Node411</title>
<g id="a_node8"><a xlink:href="namespacenuspell.html#ac3ed6d85c13c609eb5c51628b9dbac76" target="_top" xlink:title="Decodes a single flag from an input stream. ">
<polygon fill="#ffffff" stroke="#000000" points="431,-68.6714 431,-87.6714 568,-87.6714 568,-68.6714 431,-68.6714"/>
<text text-anchor="middle" x="499.5" y="-75.6714" font-family="Helvetica,sans-Serif" font-size="10.00" fill="#000000">nuspell::decode_single_flag</text>
</a>
</g>
</g>
<!-- Node410&#45;&gt;Node411 -->
<g id="edge7" class="edge">
<title>Node410&#45;&gt;Node411</title>
<path fill="none" stroke="#191970" d="M405.1923,-78.1714C413.6503,-78.1714 422.329,-78.1714 430.8332,-78.1714"/>
<polygon fill="#191970" stroke="#191970" points="405.0112,-74.6715 395.0112,-78.1714 405.0112,-81.6715 405.0112,-74.6715"/>
</g>
<!-- Node413 -->
<g id="node10" class="node">
<title>Node413</title>
<g id="a_node10"><a xlink:href="namespacenuspell.html#a3d81c446c32c53cd03e595f8fde9c2ab" target="_top" xlink:title="nuspell::decode_flags\l_possible_alias">
<polygon fill="#ffffff" stroke="#000000" points="444,-107.1714 444,-137.1714 555,-137.1714 555,-107.1714 444,-107.1714"/>
<text text-anchor="start" x="452" y="-125.1714" font-family="Helvetica,sans-Serif" font-size="10.00" fill="#000000">nuspell::decode_flags</text>
<text text-anchor="middle" x="499.5" y="-114.1714" font-family="Helvetica,sans-Serif" font-size="10.00" fill="#000000">_possible_alias</text>
</a>
</g>
</g>
<!-- Node410&#45;&gt;Node413 -->
<g id="edge11" class="edge">
<title>Node410&#45;&gt;Node413</title>
<path fill="none" stroke="#191970" d="M384.0098,-90.4116C402.8215,-95.5848 424.917,-101.6611 444.7169,-107.106"/>
<polygon fill="#191970" stroke="#191970" points="384.7877,-86.9957 374.2176,-87.7188 382.9316,-93.7451 384.7877,-86.9957"/>
</g>
<!-- Node414 -->
<g id="node11" class="node">
<title>Node414</title>
<g id="a_node11"><a xlink:href="namespacenuspell.html#a82f70879bf54a6f7118852b75d8ddbfc" target="_top" xlink:title="nuspell::parse_compound_rule">
<polygon fill="#ffffff" stroke="#000000" points="604,-30.6714 604,-49.6714 753,-49.6714 753,-30.6714 604,-30.6714"/>
<text text-anchor="middle" x="678.5" y="-37.6714" font-family="Helvetica,sans-Serif" font-size="10.00" fill="#000000">nuspell::parse_compound_rule</text>
</a>
</g>
</g>
<!-- Node410&#45;&gt;Node414 -->
<g id="edge14" class="edge">
<title>Node410&#45;&gt;Node414</title>
<path fill="none" stroke="#191970" d="M389.7936,-66.5213C403.1295,-63.7637 417.5589,-61.0749 431,-59.1714 488.7104,-50.9988 554.5244,-46.1584 603.7712,-43.4104"/>
<polygon fill="#191970" stroke="#191970" points="388.8995,-63.133 379.8433,-68.6316 390.3518,-69.9807 388.8995,-63.133"/>
</g>
<!-- Node411&#45;&gt;Node406 -->
<g id="edge10" class="edge">
<title>Node411&#45;&gt;Node406</title>
<path fill="none" stroke="#191970" d="M578.213,-78.1714C643.2547,-78.1714 733.5756,-78.1714 788.7849,-78.1714"/>
<polygon fill="#191970" stroke="#191970" points="578.0006,-74.6715 568.0005,-78.1714 578.0005,-81.6715 578.0006,-74.6715"/>
</g>
<!-- Node412 -->
<g id="node9" class="node">
<title>Node412</title>
<g id="a_node9"><a xlink:href="namespacenuspell.html#a431abe5c2853b6f099bfedd5b6a4bb9f" target="_top" xlink:title="Parses an affix from an input stream. ">
<polygon fill="#ffffff" stroke="#000000" points="628,-106.6714 628,-125.6714 729,-125.6714 729,-106.6714 628,-106.6714"/>
<text text-anchor="middle" x="678.5" y="-113.6714" font-family="Helvetica,sans-Serif" font-size="10.00" fill="#000000">nuspell::parse_affix</text>
</a>
</g>
</g>
<!-- Node411&#45;&gt;Node412 -->
<g id="edge8" class="edge">
<title>Node411&#45;&gt;Node412</title>
<path fill="none" stroke="#191970" d="M554.5236,-89.8524C579.9082,-95.2413 609.6607,-101.5575 633.6556,-106.6514"/>
<polygon fill="#191970" stroke="#191970" points="555.1781,-86.4134 544.6693,-87.7604 553.7244,-93.2608 555.1781,-86.4134"/>
</g>
<!-- Node412&#45;&gt;Node406 -->
<g id="edge9" class="edge">
<title>Node412&#45;&gt;Node406</title>
<path fill="none" stroke="#191970" d="M728.5458,-104.2483C747.8064,-99.6595 769.764,-94.4282 788.9317,-89.8617"/>
<polygon fill="#191970" stroke="#191970" points="727.6651,-100.86 718.7486,-106.5824 729.2875,-107.6695 727.6651,-100.86"/>
</g>
<!-- Node413&#45;&gt;Node407 -->
<g id="edge13" class="edge">
<title>Node413&#45;&gt;Node407</title>
<path fill="none" stroke="#191970" d="M565.0666,-136.0906C586.2777,-140.5935 609.4244,-145.5073 629.2452,-149.7151"/>
<polygon fill="#191970" stroke="#191970" points="565.6644,-132.6395 555.1555,-133.9865 564.2107,-139.4869 565.6644,-132.6395"/>
</g>
<!-- Node413&#45;&gt;Node412 -->
<g id="edge12" class="edge">
<title>Node413&#45;&gt;Node412</title>
<path fill="none" stroke="#191970" d="M565.4121,-119.9621C585.9964,-119.2721 608.3734,-118.522 627.7481,-117.8726"/>
<polygon fill="#191970" stroke="#191970" points="565.0326,-116.4727 555.1555,-120.3059 565.2672,-123.4688 565.0326,-116.4727"/>
</g>
<!-- Node414&#45;&gt;Node406 -->
<g id="edge15" class="edge">
<title>Node414&#45;&gt;Node406</title>
<path fill="none" stroke="#191970" d="M728.5458,-52.0945C747.8064,-56.6833 769.764,-61.9146 788.9317,-66.4811"/>
<polygon fill="#191970" stroke="#191970" points="729.2875,-48.6734 718.7486,-49.7604 727.6651,-55.4828 729.2875,-48.6734"/>
</g>
</g>
</svg>
