<?xml version="1.0" encoding="UTF-8" standalone="no"?>
<!DOCTYPE svg PUBLIC "-//W3C//DTD SVG 1.1//EN"
 "http://www.w3.org/Graphics/SVG/1.1/DTD/svg11.dtd">
<!-- Generated by graphviz version 2.40.1 (20161225.0304)
 -->
<!-- Title: nuspell::suffix Pages: 1 -->
<svg width="219pt" height="88pt"
 viewBox="0.00 0.00 219.00 88.00" xmlns="http://www.w3.org/2000/svg" xmlns:xlink="http://www.w3.org/1999/xlink">
<g id="graph0" class="graph" transform="scale(1 1) rotate(0) translate(4 84)">
<title>nuspell::suffix</title>
<polygon fill="#ffffff" stroke="transparent" points="-4,4 -4,-84 215,-84 215,4 -4,4"/>
<!-- Node333 -->
<g id="node1" class="node">
<title>Node333</title>
<polygon fill="#bfbfbf" stroke="#000000" points="0,-30 0,-49 77,-49 77,-30 0,-30"/>
<text text-anchor="middle" x="38.5" y="-37" font-family="Helvetica,sans-Serif" font-size="10.00" fill="#000000">nuspell::suffix</text>
</g>
<!-- Node334 -->
<g id="node2" class="node">
<title>Node334</title>
<g id="a_node2"><a xlink:href="classnuspell_1_1_suffix___iter.html#a7f8b1977d11876ac31c0c28b9f84d1a2" target="_top" xlink:title="nuspell::Suffix_Iter\l::Suffix_Iter">
<polygon fill="#ffffff" stroke="#000000" points="113,-49.5 113,-79.5 211,-79.5 211,-49.5 113,-49.5"/>
<text text-anchor="start" x="121" y="-67.5" font-family="Helvetica,sans-Serif" font-size="10.00" fill="#000000">nuspell::Suffix_Iter</text>
<text text-anchor="middle" x="162" y="-56.5" font-family="Helvetica,sans-Serif" font-size="10.00" fill="#000000">::Suffix_Iter</text>
</a>
</g>
</g>
<!-- Node333&#45;&gt;Node334 -->
<g id="edge1" class="edge">
<title>Node333&#45;&gt;Node334</title>
<path fill="none" stroke="#191970" d="M87.3093,-49.3804C95.7402,-51.0871 104.5082,-52.862 112.9456,-54.57"/>
<polygon fill="#191970" stroke="#191970" points="87.733,-45.8953 77.2373,-47.3416 86.3441,-52.7561 87.733,-45.8953"/>
</g>
<!-- Node335 -->
<g id="node3" class="node">
<title>Node335</title>
<g id="a_node3"><a xlink:href="classnuspell_1_1_suffix___iter.html#a662f132dc8e33781d68daecc22fe524c" target="_top" xlink:title="nuspell::Suffix_Iter\l::operator++">
<polygon fill="#ffffff" stroke="#000000" points="113,-.5 113,-30.5 211,-30.5 211,-.5 113,-.5"/>
<text text-anchor="start" x="121" y="-18.5" font-family="Helvetica,sans-Serif" font-size="10.00" fill="#000000">nuspell::Suffix_Iter</text>
<text text-anchor="middle" x="162" y="-7.5" font-family="Helvetica,sans-Serif" font-size="10.00" fill="#000000">::operator++</text>
</a>
</g>
</g>
<!-- Node333&#45;&gt;Node335 -->
<g id="edge2" class="edge">
<title>Node333&#45;&gt;Node335</title>
<path fill="none" stroke="#191970" d="M87.3093,-30.0148C95.7402,-28.3764 104.5082,-26.6725 112.9456,-25.0328"/>
<polygon fill="#191970" stroke="#191970" points="86.386,-26.6287 77.2373,-31.9721 87.7214,-33.5001 86.386,-26.6287"/>
</g>
</g>
</svg>
