<?xml version="1.0" encoding="UTF-8" standalone="no"?>
<!DOCTYPE svg PUBLIC "-//W3C//DTD SVG 1.1//EN"
 "http://www.w3.org/Graphics/SVG/1.1/DTD/svg11.dtd">
<!-- Generated by graphviz version 2.40.1 (20161225.0304)
 -->
<!-- Title: nuspell::wide_to_utf8 Pages: 1 -->
<svg width="260pt" height="149pt"
 viewBox="0.00 0.00 260.00 148.50" xmlns="http://www.w3.org/2000/svg" xmlns:xlink="http://www.w3.org/1999/xlink">
<g id="graph0" class="graph" transform="scale(1 1) rotate(0) translate(4 144.5)">
<title>nuspell::wide_to_utf8</title>
<polygon fill="#ffffff" stroke="transparent" points="-4,4 -4,-144.5 256,-144.5 256,4 -4,4"/>
<!-- Node426 -->
<g id="node1" class="node">
<title>Node426</title>
<polygon fill="#bfbfbf" stroke="#000000" points="0,-66.5 0,-85.5 109,-85.5 109,-66.5 0,-66.5"/>
<text text-anchor="middle" x="54.5" y="-73.5" font-family="Helvetica,sans-Serif" font-size="10.00" fill="#000000">nuspell::wide_to_utf8</text>
</g>
<!-- Node427 -->
<g id="node2" class="node">
<title>Node427</title>
<g id="a_node2"><a xlink:href="classnuspell_1_1_word___list.html#a9cb1b8ccbd83e2b8275309b981537d40" target="_top" xlink:title="nuspell::Word_List\l::equal_range">
<polygon fill="#ffffff" stroke="#000000" points="149.5,-110 149.5,-140 247.5,-140 247.5,-110 149.5,-110"/>
<text text-anchor="start" x="157.5" y="-128" font-family="Helvetica,sans-Serif" font-size="10.00" fill="#000000">nuspell::Word_List</text>
<text text-anchor="middle" x="198.5" y="-117" font-family="Helvetica,sans-Serif" font-size="10.00" fill="#000000">::equal_range</text>
</a>
</g>
</g>
<!-- Node426&#45;&gt;Node427 -->
<g id="edge1" class="edge">
<title>Node426&#45;&gt;Node427</title>
<path fill="none" stroke="#191970" d="M92.1438,-88.8093C111.1882,-95.2897 134.4215,-103.1955 154.3097,-109.963"/>
<polygon fill="#191970" stroke="#191970" points="93.2009,-85.472 82.6065,-85.564 90.9459,-92.0989 93.2009,-85.472"/>
</g>
<!-- Node428 -->
<g id="node3" class="node">
<title>Node428</title>
<g id="a_node3"><a xlink:href="structnuspell_1_1_aff___data.html#ad77b0f3b5fc59f2c1ba29e5cbf8dc7ed" target="_top" xlink:title="Parses an input stream offering dictionary information. ">
<polygon fill="#ffffff" stroke="#000000" points="149.5,-61 149.5,-91 247.5,-91 247.5,-61 149.5,-61"/>
<text text-anchor="start" x="157.5" y="-79" font-family="Helvetica,sans-Serif" font-size="10.00" fill="#000000">nuspell::Aff_Data::</text>
<text text-anchor="middle" x="198.5" y="-68" font-family="Helvetica,sans-Serif" font-size="10.00" fill="#000000">parse_dic</text>
</a>
</g>
</g>
<!-- Node426&#45;&gt;Node428 -->
<g id="edge2" class="edge">
<title>Node426&#45;&gt;Node428</title>
<path fill="none" stroke="#191970" d="M119.3694,-76C129.4809,-76 139.7819,-76 149.464,-76"/>
<polygon fill="#191970" stroke="#191970" points="119.351,-72.5001 109.351,-76 119.351,-79.5001 119.351,-72.5001"/>
</g>
<!-- Node429 -->
<g id="node4" class="node">
<title>Node429</title>
<g id="a_node4"><a xlink:href="classnuspell_1_1_dictionary.html#a38d6bdb6f223f5ec40d60c3543b0ef1b" target="_top" xlink:title="nuspell::Dictionary\l::internal_to_external\l_encoding">
<polygon fill="#ffffff" stroke="#000000" points="145,-.5 145,-41.5 252,-41.5 252,-.5 145,-.5"/>
<text text-anchor="start" x="153" y="-29.5" font-family="Helvetica,sans-Serif" font-size="10.00" fill="#000000">nuspell::Dictionary</text>
<text text-anchor="start" x="153" y="-18.5" font-family="Helvetica,sans-Serif" font-size="10.00" fill="#000000">::internal_to_external</text>
<text text-anchor="middle" x="198.5" y="-7.5" font-family="Helvetica,sans-Serif" font-size="10.00" fill="#000000">_encoding</text>
</a>
</g>
</g>
<!-- Node426&#45;&gt;Node429 -->
<g id="edge3" class="edge">
<title>Node426&#45;&gt;Node429</title>
<path fill="none" stroke="#191970" d="M88.9432,-62.8446C105.6466,-56.4649 126.0951,-48.6546 144.7837,-41.5166"/>
<polygon fill="#191970" stroke="#191970" points="87.6758,-59.582 79.5829,-66.4197 90.1735,-66.1213 87.6758,-59.582"/>
</g>
</g>
</svg>
