<?xml version="1.0" encoding="UTF-8" standalone="no"?>
<!DOCTYPE svg PUBLIC "-//W3C//DTD SVG 1.1//EN"
 "http://www.w3.org/Graphics/SVG/1.1/DTD/svg11.dtd">
<!-- Generated by graphviz version 2.40.1 (20161225.0304)
 -->
<!-- Title: nuspell::utf8_to_wide Pages: 1 -->
<svg width="504pt" height="208pt"
 viewBox="0.00 0.00 504.00 207.50" xmlns="http://www.w3.org/2000/svg" xmlns:xlink="http://www.w3.org/1999/xlink">
<g id="graph0" class="graph" transform="scale(1 1) rotate(0) translate(4 203.5)">
<title>nuspell::utf8_to_wide</title>
<polygon fill="#ffffff" stroke="transparent" points="-4,4 -4,-203.5 500,-203.5 500,4 -4,4"/>
<!-- Node396 -->
<g id="node1" class="node">
<title>Node396</title>
<polygon fill="#bfbfbf" stroke="#000000" points="0,-125.5 0,-144.5 109,-144.5 109,-125.5 0,-125.5"/>
<text text-anchor="middle" x="54.5" y="-132.5" font-family="Helvetica,sans-Serif" font-size="10.00" fill="#000000">nuspell::utf8_to_wide</text>
</g>
<!-- Node397 -->
<g id="node2" class="node">
<title>Node397</title>
<g id="a_node2"><a xlink:href="structnuspell_1_1_aff___data.html#a93b16b2b3938f607a18e3a67b9360b83" target="_top" xlink:title="Parses an input stream offering affix information. ">
<polygon fill="#ffffff" stroke="#000000" points="160,-169 160,-199 258,-199 258,-169 160,-169"/>
<text text-anchor="start" x="168" y="-187" font-family="Helvetica,sans-Serif" font-size="10.00" fill="#000000">nuspell::Aff_Data::</text>
<text text-anchor="middle" x="209" y="-176" font-family="Helvetica,sans-Serif" font-size="10.00" fill="#000000">parse_aff</text>
</a>
</g>
</g>
<!-- Node396&#45;&gt;Node397 -->
<g id="edge1" class="edge">
<title>Node396&#45;&gt;Node397</title>
<path fill="none" stroke="#191970" d="M94.3274,-147.6313C114.864,-154.1446 140.0533,-162.1334 161.5875,-168.963"/>
<polygon fill="#191970" stroke="#191970" points="95.2461,-144.251 84.6559,-144.564 93.1299,-150.9234 95.2461,-144.251"/>
</g>
<!-- Node398 -->
<g id="node3" class="node">
<title>Node398</title>
<g id="a_node3"><a xlink:href="structnuspell_1_1_aff___data.html#ad77b0f3b5fc59f2c1ba29e5cbf8dc7ed" target="_top" xlink:title="Parses an input stream offering dictionary information. ">
<polygon fill="#ffffff" stroke="#000000" points="160,-120 160,-150 258,-150 258,-120 160,-120"/>
<text text-anchor="start" x="168" y="-138" font-family="Helvetica,sans-Serif" font-size="10.00" fill="#000000">nuspell::Aff_Data::</text>
<text text-anchor="middle" x="209" y="-127" font-family="Helvetica,sans-Serif" font-size="10.00" fill="#000000">parse_dic</text>
</a>
</g>
</g>
<!-- Node396&#45;&gt;Node398 -->
<g id="edge2" class="edge">
<title>Node396&#45;&gt;Node398</title>
<path fill="none" stroke="#191970" d="M119.6036,-135C133.1053,-135 147.1148,-135 159.9262,-135"/>
<polygon fill="#191970" stroke="#191970" points="119.406,-131.5001 109.4059,-135 119.4059,-138.5001 119.406,-131.5001"/>
</g>
<!-- Node399 -->
<g id="node4" class="node">
<title>Node399</title>
<g id="a_node4"><a xlink:href="classnuspell_1_1_basic___dictionary.html#a05ed25f4b65c93f0389295303e43e509" target="_top" xlink:title="nuspell::Basic_Dictionary\l::spell">
<polygon fill="#ffffff" stroke="#000000" points="145,-71 145,-101 273,-101 273,-71 145,-71"/>
<text text-anchor="start" x="153" y="-89" font-family="Helvetica,sans-Serif" font-size="10.00" fill="#000000">nuspell::Basic_Dictionary</text>
<text text-anchor="middle" x="209" y="-78" font-family="Helvetica,sans-Serif" font-size="10.00" fill="#000000">::spell</text>
</a>
</g>
</g>
<!-- Node396&#45;&gt;Node399 -->
<g id="edge3" class="edge">
<title>Node396&#45;&gt;Node399</title>
<path fill="none" stroke="#191970" d="M94.3274,-122.3687C114.864,-115.8554 140.0533,-107.8666 161.5875,-101.037"/>
<polygon fill="#191970" stroke="#191970" points="93.1299,-119.0766 84.6559,-125.436 95.2461,-125.749 93.1299,-119.0766"/>
</g>
<!-- Node400 -->
<g id="node5" class="node">
<title>Node400</title>
<g id="a_node5"><a xlink:href="main_8cxx.html#a4a642b8579e49cab4ef7293d66f1f5d5" target="_top" xlink:title="Normal loop, tokenize and check spelling. ">
<polygon fill="#ffffff" stroke="#000000" points="331,-152.5 331,-171.5 400,-171.5 400,-152.5 331,-152.5"/>
<text text-anchor="middle" x="365.5" y="-159.5" font-family="Helvetica,sans-Serif" font-size="10.00" fill="#000000">normal_loop</text>
</a>
</g>
</g>
<!-- Node399&#45;&gt;Node400 -->
<g id="edge4" class="edge">
<title>Node399&#45;&gt;Node400</title>
<path fill="none" stroke="#191970" d="M262.9903,-105.4559C266.4445,-107.1979 269.8115,-109.0472 273,-111 291.2556,-122.1806 290.4814,-132.2607 309,-143 315.7143,-146.8937 323.3438,-150.1368 330.7761,-152.7762"/>
<polygon fill="#191970" stroke="#191970" points="264.2459,-102.1789 253.7063,-101.0983 261.2715,-108.5156 264.2459,-102.1789"/>
</g>
<!-- Node402 -->
<g id="node7" class="node">
<title>Node402</title>
<g id="a_node7"><a xlink:href="main_8cxx.html#aebf1b2aa274390a39317fbbca50d9d5e" target="_top" xlink:title="Prints misspelled words from an input stream to an output stream. ">
<polygon fill="#ffffff" stroke="#000000" points="309,-114.5 309,-133.5 422,-133.5 422,-114.5 309,-114.5"/>
<text text-anchor="middle" x="365.5" y="-121.5" font-family="Helvetica,sans-Serif" font-size="10.00" fill="#000000">misspelled_word_loop</text>
</a>
</g>
</g>
<!-- Node399&#45;&gt;Node402 -->
<g id="edge6" class="edge">
<title>Node399&#45;&gt;Node402</title>
<path fill="none" stroke="#191970" d="M280.993,-103.4807C296.5356,-107.2547 312.4096,-111.109 326.141,-114.4432"/>
<polygon fill="#191970" stroke="#191970" points="281.3965,-99.9771 270.8529,-101.0186 279.7447,-106.7794 281.3965,-99.9771"/>
</g>
<!-- Node403 -->
<g id="node8" class="node">
<title>Node403</title>
<g id="a_node8"><a xlink:href="main_8cxx.html#a1248d9e693e561e175cf2e5b55499fff" target="_top" xlink:title="correct_word_loop">
<polygon fill="#ffffff" stroke="#000000" points="317.5,-76.5 317.5,-95.5 413.5,-95.5 413.5,-76.5 317.5,-76.5"/>
<text text-anchor="middle" x="365.5" y="-83.5" font-family="Helvetica,sans-Serif" font-size="10.00" fill="#000000">correct_word_loop</text>
</a>
</g>
</g>
<!-- Node399&#45;&gt;Node403 -->
<g id="edge8" class="edge">
<title>Node399&#45;&gt;Node403</title>
<path fill="none" stroke="#191970" d="M283.17,-86C294.6853,-86 306.3188,-86 317.0692,-86"/>
<polygon fill="#191970" stroke="#191970" points="283.1061,-82.5001 273.1061,-86 283.1061,-89.5001 283.1061,-82.5001"/>
</g>
<!-- Node404 -->
<g id="node9" class="node">
<title>Node404</title>
<g id="a_node9"><a xlink:href="main_8cxx.html#a1f92dedeeb68a1a7bc2b720097d3b7a4" target="_top" xlink:title="misspelled_line_loop">
<polygon fill="#ffffff" stroke="#000000" points="312,-38.5 312,-57.5 419,-57.5 419,-38.5 312,-38.5"/>
<text text-anchor="middle" x="365.5" y="-45.5" font-family="Helvetica,sans-Serif" font-size="10.00" fill="#000000">misspelled_line_loop</text>
</a>
</g>
</g>
<!-- Node399&#45;&gt;Node404 -->
<g id="edge10" class="edge">
<title>Node399&#45;&gt;Node404</title>
<path fill="none" stroke="#191970" d="M280.993,-68.5193C296.5356,-64.7453 312.4096,-60.891 326.141,-57.5568"/>
<polygon fill="#191970" stroke="#191970" points="279.7447,-65.2206 270.8529,-70.9814 281.3965,-72.0229 279.7447,-65.2206"/>
</g>
<!-- Node405 -->
<g id="node10" class="node">
<title>Node405</title>
<g id="a_node10"><a xlink:href="main_8cxx.html#a16580c4100b461806a9c49575bdd5428" target="_top" xlink:title="correct_line_loop">
<polygon fill="#ffffff" stroke="#000000" points="320.5,-.5 320.5,-19.5 410.5,-19.5 410.5,-.5 320.5,-.5"/>
<text text-anchor="middle" x="365.5" y="-7.5" font-family="Helvetica,sans-Serif" font-size="10.00" fill="#000000">correct_line_loop</text>
</a>
</g>
</g>
<!-- Node399&#45;&gt;Node405 -->
<g id="edge12" class="edge">
<title>Node399&#45;&gt;Node405</title>
<path fill="none" stroke="#191970" d="M241.2109,-65.5155C260.4115,-53.849 285.5426,-39.5102 309,-29 316.7442,-25.5302 325.3242,-22.3338 333.41,-19.5917"/>
<polygon fill="#191970" stroke="#191970" points="239.2503,-62.6122 232.5648,-70.8315 242.9167,-68.5753 239.2503,-62.6122"/>
</g>
<!-- Node401 -->
<g id="node6" class="node">
<title>Node401</title>
<g id="a_node6"><a xlink:href="main_8cxx.html#a0ddf1224851353fc92bfbff6f499fa97" target="_top" xlink:title="main">
<polygon fill="#ffffff" stroke="#000000" points="458,-76.5 458,-95.5 496,-95.5 496,-76.5 458,-76.5"/>
<text text-anchor="middle" x="477" y="-83.5" font-family="Helvetica,sans-Serif" font-size="10.00" fill="#000000">main</text>
</a>
</g>
</g>
<!-- Node400&#45;&gt;Node401 -->
<g id="edge5" class="edge">
<title>Node400&#45;&gt;Node401</title>
<path fill="none" stroke="#191970" d="M409.6668,-149.4894C413.9685,-147.5856 418.1568,-145.43 422,-143 442.224,-130.2125 460.3646,-108.4754 469.911,-95.8621"/>
<polygon fill="#191970" stroke="#191970" points="408.1616,-146.3211 400.1582,-153.2636 410.7441,-152.8273 408.1616,-146.3211"/>
</g>
<!-- Node402&#45;&gt;Node401 -->
<g id="edge7" class="edge">
<title>Node402&#45;&gt;Node401</title>
<path fill="none" stroke="#191970" d="M403.4947,-111.2706C409.6827,-109.1838 416.0217,-107.0378 422,-105 433.9526,-100.9258 447.3458,-96.3004 457.923,-92.6334"/>
<polygon fill="#191970" stroke="#191970" points="402.3295,-107.9698 393.9686,-114.4772 404.5627,-114.6041 402.3295,-107.9698"/>
</g>
<!-- Node403&#45;&gt;Node401 -->
<g id="edge9" class="edge">
<title>Node403&#45;&gt;Node401</title>
<path fill="none" stroke="#191970" d="M424.0156,-86C436.24,-86 448.2866,-86 457.7968,-86"/>
<polygon fill="#191970" stroke="#191970" points="423.7571,-82.5001 413.757,-86 423.757,-89.5001 423.7571,-82.5001"/>
</g>
<!-- Node404&#45;&gt;Node401 -->
<g id="edge11" class="edge">
<title>Node404&#45;&gt;Node401</title>
<path fill="none" stroke="#191970" d="M403.4947,-60.7294C409.6827,-62.8162 416.0217,-64.9622 422,-67 433.9526,-71.0742 447.3458,-75.6996 457.923,-79.3666"/>
<polygon fill="#191970" stroke="#191970" points="404.5627,-57.3959 393.9686,-57.5228 402.3295,-64.0302 404.5627,-57.3959"/>
</g>
<!-- Node405&#45;&gt;Node401 -->
<g id="edge13" class="edge">
<title>Node405&#45;&gt;Node401</title>
<path fill="none" stroke="#191970" d="M411.9494,-23.5501C415.447,-25.1896 418.8402,-27.002 422,-29 442.224,-41.7875 460.3646,-63.5246 469.911,-76.1379"/>
<polygon fill="#191970" stroke="#191970" points="413.1109,-20.2421 402.5352,-19.6057 410.4057,-26.6983 413.1109,-20.2421"/>
</g>
</g>
</svg>
