<?xml version="1.0" encoding="UTF-8" standalone="no"?>
<!DOCTYPE svg PUBLIC "-//W3C//DTD SVG 1.1//EN"
 "http://www.w3.org/Graphics/SVG/1.1/DTD/svg11.dtd">
<!-- Generated by graphviz version 2.40.1 (20161225.0304)
 -->
<!-- Title: nuspell::match_simple_regex Pages: 1 -->
<svg width="489pt" height="83pt"
 viewBox="0.00 0.00 489.00 83.00" xmlns="http://www.w3.org/2000/svg" xmlns:xlink="http://www.w3.org/1999/xlink">
<g id="graph0" class="graph" transform="scale(1 1) rotate(0) translate(4 79)">
<title>nuspell::match_simple_regex</title>
<polygon fill="#ffffff" stroke="transparent" points="-4,4 -4,-79 485,-79 485,4 -4,4"/>
<!-- Node202 -->
<g id="node1" class="node">
<title>Node202</title>
<polygon fill="#bfbfbf" stroke="#000000" points="0,-22.5 0,-52.5 114,-52.5 114,-22.5 0,-22.5"/>
<text text-anchor="start" x="8" y="-40.5" font-family="Helvetica,sans-Serif" font-size="10.00" fill="#000000">nuspell::match_simple</text>
<text text-anchor="middle" x="57" y="-29.5" font-family="Helvetica,sans-Serif" font-size="10.00" fill="#000000">_regex</text>
</g>
<!-- Node203 -->
<g id="node2" class="node">
<title>Node203</title>
<g id="a_node2"><a xlink:href="namespacenuspell.html#aa400607867aa8ca4eb115542a84b7004" target="_top" xlink:title="nuspell::match_compund_rule">
<polygon fill="#ffffff" stroke="#000000" points="150,-50 150,-69 296,-69 296,-50 150,-50"/>
<text text-anchor="middle" x="223" y="-57" font-family="Helvetica,sans-Serif" font-size="10.00" fill="#000000">nuspell::match_compund_rule</text>
</a>
</g>
</g>
<!-- Node202&#45;&gt;Node203 -->
<g id="edge1" class="edge">
<title>Node202&#45;&gt;Node203</title>
<path fill="none" stroke="#191970" d="M124.0524,-46.3865C132.959,-47.5669 142.1202,-48.781 151.1046,-49.9717"/>
<polygon fill="#191970" stroke="#191970" points="124.501,-42.9154 114.1278,-45.0712 123.5812,-49.8547 124.501,-42.9154"/>
</g>
<!-- Node205 -->
<g id="node4" class="node">
<title>Node205</title>
<g id="a_node4"><a xlink:href="namespacenuspell.html#a6fe25a583a8b8023eca9607149e24f3d" target="_top" xlink:title="nuspell::match_simple\l_regex">
<polygon fill="#ffffff" stroke="#000000" points="166,-.5 166,-30.5 280,-30.5 280,-.5 166,-.5"/>
<text text-anchor="start" x="174" y="-18.5" font-family="Helvetica,sans-Serif" font-size="10.00" fill="#000000">nuspell::match_simple</text>
<text text-anchor="middle" x="223" y="-7.5" font-family="Helvetica,sans-Serif" font-size="10.00" fill="#000000">_regex</text>
</a>
</g>
</g>
<!-- Node202&#45;&gt;Node205 -->
<g id="edge3" class="edge">
<title>Node202&#45;&gt;Node205</title>
<path fill="none" stroke="#191970" d="M124.0637,-28.612C137.8896,-26.7797 152.3285,-24.8661 165.7669,-23.0851"/>
<polygon fill="#191970" stroke="#191970" points="123.5812,-25.1453 114.1278,-29.9288 124.501,-32.0846 123.5812,-25.1453"/>
</g>
<!-- Node204 -->
<g id="node3" class="node">
<title>Node204</title>
<g id="a_node3"><a xlink:href="structnuspell_1_1_dict___base.html#ab97583e3d30d44fe67f3a5ff6eee844e" target="_top" xlink:title="nuspell::Dict_Base\l::check_compound_with_rules">
<polygon fill="#ffffff" stroke="#000000" points="332,-44.5 332,-74.5 481,-74.5 481,-44.5 332,-44.5"/>
<text text-anchor="start" x="340" y="-62.5" font-family="Helvetica,sans-Serif" font-size="10.00" fill="#000000">nuspell::Dict_Base</text>
<text text-anchor="middle" x="406.5" y="-51.5" font-family="Helvetica,sans-Serif" font-size="10.00" fill="#000000">::check_compound_with_rules</text>
</a>
</g>
</g>
<!-- Node203&#45;&gt;Node204 -->
<g id="edge2" class="edge">
<title>Node203&#45;&gt;Node204</title>
<path fill="none" stroke="#191970" d="M306.086,-59.5C314.6898,-59.5 323.3961,-59.5 331.8987,-59.5"/>
<polygon fill="#191970" stroke="#191970" points="306.0514,-56.0001 296.0513,-59.5 306.0513,-63.0001 306.0514,-56.0001"/>
</g>
</g>
</svg>
