<?xml version="1.0" encoding="UTF-8" standalone="no"?>
<!DOCTYPE svg PUBLIC "-//W3C//DTD SVG 1.1//EN"
 "http://www.w3.org/Graphics/SVG/1.1/DTD/svg11.dtd">
<!-- Generated by graphviz version 2.40.1 (20161225.0304)
 -->
<!-- Title: nuspell::utf_to_utf_my Pages: 1 -->
<svg width="868pt" height="323pt"
 viewBox="0.00 0.00 868.00 323.26" xmlns="http://www.w3.org/2000/svg" xmlns:xlink="http://www.w3.org/1999/xlink">
<g id="graph0" class="graph" transform="scale(1 1) rotate(0) translate(4 319.2579)">
<title>nuspell::utf_to_utf_my</title>
<polygon fill="#ffffff" stroke="transparent" points="-4,4 -4,-319.2579 864,-319.2579 864,4 -4,4"/>
<!-- Node402 -->
<g id="node1" class="node">
<title>Node402</title>
<polygon fill="#bfbfbf" stroke="#000000" points="0,-122.7579 0,-141.7579 113,-141.7579 113,-122.7579 0,-122.7579"/>
<text text-anchor="middle" x="56.5" y="-129.7579" font-family="Helvetica,sans-Serif" font-size="10.00" fill="#000000">nuspell::utf_to_utf_my</text>
</g>
<!-- Node403 -->
<g id="node2" class="node">
<title>Node403</title>
<g id="a_node2"><a xlink:href="namespacenuspell.html#a79258aeb32a39ce719a014950b33e5d6" target="_top" xlink:title="nuspell::utf8_to_wide">
<polygon fill="#ffffff" stroke="#000000" points="451,-185.7579 451,-204.7579 560,-204.7579 560,-185.7579 451,-185.7579"/>
<text text-anchor="middle" x="505.5" y="-192.7579" font-family="Helvetica,sans-Serif" font-size="10.00" fill="#000000">nuspell::utf8_to_wide</text>
</a>
</g>
</g>
<!-- Node402&#45;&gt;Node403 -->
<g id="edge1" class="edge">
<title>Node402&#45;&gt;Node403</title>
<path fill="none" stroke="#191970" d="M123.361,-141.6392C212.4538,-154.14 368.4145,-176.0231 450.8489,-187.5897"/>
<polygon fill="#191970" stroke="#191970" points="123.7555,-138.1604 113.3662,-140.2368 122.7828,-145.0925 123.7555,-138.1604"/>
</g>
<!-- Node408 -->
<g id="node7" class="node">
<title>Node408</title>
<g id="a_node7"><a xlink:href="namespacenuspell.html#aff86f9ecb346e78687e56dab66a77469" target="_top" xlink:title="nuspell::utf8_to_32">
<polygon fill="#ffffff" stroke="#000000" points="149,-103.7579 149,-122.7579 248,-122.7579 248,-103.7579 149,-103.7579"/>
<text text-anchor="middle" x="198.5" y="-110.7579" font-family="Helvetica,sans-Serif" font-size="10.00" fill="#000000">nuspell::utf8_to_32</text>
</a>
</g>
</g>
<!-- Node402&#45;&gt;Node408 -->
<g id="edge6" class="edge">
<title>Node402&#45;&gt;Node408</title>
<path fill="none" stroke="#191970" d="M123.0501,-123.3533C131.6457,-122.2031 140.3285,-121.0414 148.5921,-119.9357"/>
<polygon fill="#191970" stroke="#191970" points="122.4776,-119.8986 113.0302,-124.694 123.406,-126.8367 122.4776,-119.8986"/>
</g>
<!-- Node404 -->
<g id="node3" class="node">
<title>Node404</title>
<g id="a_node3"><a xlink:href="structnuspell_1_1_aff___data.html#a93b16b2b3938f607a18e3a67b9360b83" target="_top" xlink:title="Parses an input stream offering affix information. ">
<polygon fill="#ffffff" stroke="#000000" points="762,-54.2579 762,-84.2579 860,-84.2579 860,-54.2579 762,-54.2579"/>
<text text-anchor="start" x="770" y="-72.2579" font-family="Helvetica,sans-Serif" font-size="10.00" fill="#000000">nuspell::Aff_Data::</text>
<text text-anchor="middle" x="811" y="-61.2579" font-family="Helvetica,sans-Serif" font-size="10.00" fill="#000000">parse_aff</text>
</a>
</g>
</g>
<!-- Node403&#45;&gt;Node404 -->
<g id="edge2" class="edge">
<title>Node403&#45;&gt;Node404</title>
<path fill="none" stroke="#191970" d="M570.2646,-202.722C616.3587,-205.0389 678.3193,-201.857 726,-176.2579 764.6695,-155.4967 791.8392,-108.8631 803.9355,-84.5929"/>
<polygon fill="#191970" stroke="#191970" points="570.284,-199.2169 560.0916,-202.1092 569.863,-206.2042 570.284,-199.2169"/>
</g>
<!-- Node405 -->
<g id="node4" class="node">
<title>Node405</title>
<g id="a_node4"><a xlink:href="structnuspell_1_1_aff___data.html#ad77b0f3b5fc59f2c1ba29e5cbf8dc7ed" target="_top" xlink:title="Parses an input stream offering dictionary information. ">
<polygon fill="#ffffff" stroke="#000000" points="622,-136.2579 622,-166.2579 720,-166.2579 720,-136.2579 622,-136.2579"/>
<text text-anchor="start" x="630" y="-154.2579" font-family="Helvetica,sans-Serif" font-size="10.00" fill="#000000">nuspell::Aff_Data::</text>
<text text-anchor="middle" x="671" y="-143.2579" font-family="Helvetica,sans-Serif" font-size="10.00" fill="#000000">parse_dic</text>
</a>
</g>
</g>
<!-- Node403&#45;&gt;Node405 -->
<g id="edge3" class="edge">
<title>Node403&#45;&gt;Node405</title>
<path fill="none" stroke="#191970" d="M551.1751,-183.1146C573.1663,-177.268 599.5614,-170.2506 621.9744,-164.2919"/>
<polygon fill="#191970" stroke="#191970" points="550.176,-179.7586 541.411,-185.7105 551.9746,-186.5236 550.176,-179.7586"/>
</g>
<!-- Node406 -->
<g id="node5" class="node">
<title>Node406</title>
<g id="a_node5"><a xlink:href="classnuspell_1_1_dictionary.html#a86e6e4a0401eb0e99fb002761a6a610b" target="_top" xlink:title="nuspell::Dictionary\l::external_to_internal\l_encoding">
<polygon fill="#ffffff" stroke="#000000" points="617.5,-273.7579 617.5,-314.7579 724.5,-314.7579 724.5,-273.7579 617.5,-273.7579"/>
<text text-anchor="start" x="625.5" y="-302.7579" font-family="Helvetica,sans-Serif" font-size="10.00" fill="#000000">nuspell::Dictionary</text>
<text text-anchor="start" x="625.5" y="-291.7579" font-family="Helvetica,sans-Serif" font-size="10.00" fill="#000000">::external_to_internal</text>
<text text-anchor="middle" x="671" y="-280.7579" font-family="Helvetica,sans-Serif" font-size="10.00" fill="#000000">_encoding</text>
</a>
</g>
</g>
<!-- Node403&#45;&gt;Node406 -->
<g id="edge4" class="edge">
<title>Node403&#45;&gt;Node406</title>
<path fill="none" stroke="#191970" d="M528.7752,-210.3484C550.971,-224.606 585.4491,-246.408 616,-264.2579 621.353,-267.3854 627.0489,-270.6075 632.6697,-273.727"/>
<polygon fill="#191970" stroke="#191970" points="530.6446,-207.3894 520.3427,-204.915 526.8531,-213.2736 530.6446,-207.3894"/>
</g>
<!-- Node407 -->
<g id="node6" class="node">
<title>Node407</title>
<g id="a_node6"><a xlink:href="class_my___dictionary.html#a06d83a3d76c0eff8688dfbee66976f70" target="_top" xlink:title="My_Dictionary::parse\l_personal_dict">
<polygon fill="#ffffff" stroke="#000000" points="616,-224.2579 616,-254.2579 726,-254.2579 726,-224.2579 616,-224.2579"/>
<text text-anchor="start" x="624" y="-242.2579" font-family="Helvetica,sans-Serif" font-size="10.00" fill="#000000">My_Dictionary::parse</text>
<text text-anchor="middle" x="671" y="-231.2579" font-family="Helvetica,sans-Serif" font-size="10.00" fill="#000000">_personal_dict</text>
</a>
</g>
</g>
<!-- Node403&#45;&gt;Node407 -->
<g id="edge5" class="edge">
<title>Node403&#45;&gt;Node407</title>
<path fill="none" stroke="#191970" d="M551.2242,-207.4141C571.2622,-212.7415 594.9491,-219.0389 615.9466,-224.6213"/>
<polygon fill="#191970" stroke="#191970" points="551.9746,-203.9921 541.411,-204.8052 550.176,-210.7571 551.9746,-203.9921"/>
</g>
<!-- Node409 -->
<g id="node8" class="node">
<title>Node409</title>
<g id="a_node8"><a xlink:href="namespacenuspell.html#adbb8e053a44129d0f51014facd48b7f9" target="_top" xlink:title="Decodes flags. ">
<polygon fill="#ffffff" stroke="#000000" points="284,-59.7579 284,-78.7579 395,-78.7579 395,-59.7579 284,-59.7579"/>
<text text-anchor="middle" x="339.5" y="-66.7579" font-family="Helvetica,sans-Serif" font-size="10.00" fill="#000000">nuspell::decode_flags</text>
</a>
</g>
</g>
<!-- Node408&#45;&gt;Node409 -->
<g id="edge7" class="edge">
<title>Node408&#45;&gt;Node409</title>
<path fill="none" stroke="#191970" d="M238.648,-100.7294C260.9972,-93.7552 288.3762,-85.2114 308.9648,-78.7866"/>
<polygon fill="#191970" stroke="#191970" points="237.5983,-97.3904 229.0949,-103.7105 239.6835,-104.0726 237.5983,-97.3904"/>
</g>
<!-- Node409&#45;&gt;Node404 -->
<g id="edge17" class="edge">
<title>Node409&#45;&gt;Node404</title>
<path fill="none" stroke="#191970" d="M358.5504,-52.9016C376.0626,-39.0231 403.4183,-20.1462 431,-12.2579 554.7877,23.1452 707.9091,-27.2303 775.7767,-54.1685"/>
<polygon fill="#191970" stroke="#191970" points="355.8639,-50.5774 350.3409,-59.6189 360.2967,-55.995 355.8639,-50.5774"/>
</g>
<!-- Node410 -->
<g id="node9" class="node">
<title>Node410</title>
<g id="a_node9"><a xlink:href="namespacenuspell.html#ac3ed6d85c13c609eb5c51628b9dbac76" target="_top" xlink:title="Decodes a single flag from an input stream. ">
<polygon fill="#ffffff" stroke="#000000" points="437,-21.7579 437,-40.7579 574,-40.7579 574,-21.7579 437,-21.7579"/>
<text text-anchor="middle" x="505.5" y="-28.7579" font-family="Helvetica,sans-Serif" font-size="10.00" fill="#000000">nuspell::decode_single_flag</text>
</a>
</g>
</g>
<!-- Node409&#45;&gt;Node410 -->
<g id="edge8" class="edge">
<title>Node409&#45;&gt;Node410</title>
<path fill="none" stroke="#191970" d="M391.1534,-57.4336C414.5564,-52.0763 441.8571,-45.8267 463.9124,-40.7779"/>
<polygon fill="#191970" stroke="#191970" points="390.3556,-54.0256 381.3888,-59.6688 391.9177,-60.8491 390.3556,-54.0256"/>
</g>
<!-- Node412 -->
<g id="node11" class="node">
<title>Node412</title>
<g id="a_node11"><a xlink:href="namespacenuspell.html#a3d81c446c32c53cd03e595f8fde9c2ab" target="_top" xlink:title="nuspell::decode_flags\l_possible_alias">
<polygon fill="#ffffff" stroke="#000000" points="450,-98.2579 450,-128.2579 561,-128.2579 561,-98.2579 450,-98.2579"/>
<text text-anchor="start" x="458" y="-116.2579" font-family="Helvetica,sans-Serif" font-size="10.00" fill="#000000">nuspell::decode_flags</text>
<text text-anchor="middle" x="505.5" y="-105.2579" font-family="Helvetica,sans-Serif" font-size="10.00" fill="#000000">_possible_alias</text>
</a>
</g>
</g>
<!-- Node409&#45;&gt;Node412 -->
<g id="edge12" class="edge">
<title>Node409&#45;&gt;Node412</title>
<path fill="none" stroke="#191970" d="M385.3179,-81.4024C405.3232,-86.705 428.9613,-92.9705 449.9575,-98.5358"/>
<polygon fill="#191970" stroke="#191970" points="386.0825,-77.9842 375.5195,-78.8052 384.289,-84.7506 386.0825,-77.9842"/>
</g>
<!-- Node413 -->
<g id="node12" class="node">
<title>Node413</title>
<g id="a_node12"><a xlink:href="namespacenuspell.html#a82f70879bf54a6f7118852b75d8ddbfc" target="_top" xlink:title="nuspell::parse_compound_rule">
<polygon fill="#ffffff" stroke="#000000" points="431,-59.7579 431,-78.7579 580,-78.7579 580,-59.7579 431,-59.7579"/>
<text text-anchor="middle" x="505.5" y="-66.7579" font-family="Helvetica,sans-Serif" font-size="10.00" fill="#000000">nuspell::parse_compound_rule</text>
</a>
</g>
</g>
<!-- Node409&#45;&gt;Node413 -->
<g id="edge15" class="edge">
<title>Node409&#45;&gt;Node413</title>
<path fill="none" stroke="#191970" d="M405.2898,-69.2579C413.6499,-69.2579 422.2536,-69.2579 430.7412,-69.2579"/>
<polygon fill="#191970" stroke="#191970" points="405.2374,-65.758 395.2374,-69.2579 405.2374,-72.758 405.2374,-65.758"/>
</g>
<!-- Node410&#45;&gt;Node404 -->
<g id="edge11" class="edge">
<title>Node410&#45;&gt;Node404</title>
<path fill="none" stroke="#191970" d="M584.3033,-41.0599C640.3043,-48.0257 713.7823,-57.1653 761.6775,-63.1228"/>
<polygon fill="#191970" stroke="#191970" points="584.4157,-37.547 574.0602,-39.7858 583.5516,-44.4935 584.4157,-37.547"/>
</g>
<!-- Node411 -->
<g id="node10" class="node">
<title>Node411</title>
<g id="a_node10"><a xlink:href="namespacenuspell.html#a431abe5c2853b6f099bfedd5b6a4bb9f" target="_top" xlink:title="Parses an affix from an input stream. ">
<polygon fill="#ffffff" stroke="#000000" points="620.5,-97.7579 620.5,-116.7579 721.5,-116.7579 721.5,-97.7579 620.5,-97.7579"/>
<text text-anchor="middle" x="671" y="-104.7579" font-family="Helvetica,sans-Serif" font-size="10.00" fill="#000000">nuspell::parse_affix</text>
</a>
</g>
</g>
<!-- Node410&#45;&gt;Node411 -->
<g id="edge9" class="edge">
<title>Node410&#45;&gt;Node411</title>
<path fill="none" stroke="#191970" d="M562.0185,-43.6837C568.179,-45.6227 574.2829,-47.8093 580,-50.2579 609.9888,-63.1016 641.5016,-85.0216 658.4411,-97.6071"/>
<polygon fill="#191970" stroke="#191970" points="562.9196,-40.3006 552.3385,-40.8386 560.9457,-47.0165 562.9196,-40.3006"/>
</g>
<!-- Node411&#45;&gt;Node404 -->
<g id="edge10" class="edge">
<title>Node411&#45;&gt;Node404</title>
<path fill="none" stroke="#191970" d="M716.1459,-95.004C730.7653,-91.0358 747.0469,-86.6166 761.9365,-82.5751"/>
<polygon fill="#191970" stroke="#191970" points="715.0619,-91.6715 706.3279,-97.6688 716.8956,-98.4271 715.0619,-91.6715"/>
</g>
<!-- Node412&#45;&gt;Node405 -->
<g id="edge14" class="edge">
<title>Node412&#45;&gt;Node405</title>
<path fill="none" stroke="#191970" d="M570.9395,-128.2832C587.9424,-132.1872 605.9659,-136.3256 621.9621,-139.9984"/>
<polygon fill="#191970" stroke="#191970" points="571.5992,-124.8437 561.0695,-126.017 570.0326,-131.6662 571.5992,-124.8437"/>
</g>
<!-- Node412&#45;&gt;Node411 -->
<g id="edge13" class="edge">
<title>Node412&#45;&gt;Node411</title>
<path fill="none" stroke="#191970" d="M571.1166,-110.879C587.4861,-110.2855 604.7911,-109.6582 620.315,-109.0954"/>
<polygon fill="#191970" stroke="#191970" points="570.9361,-107.3831 561.0695,-111.2432 571.1898,-114.3786 570.9361,-107.3831"/>
</g>
<!-- Node413&#45;&gt;Node404 -->
<g id="edge16" class="edge">
<title>Node413&#45;&gt;Node404</title>
<path fill="none" stroke="#191970" d="M590.3614,-69.2579C645.5755,-69.2579 715.6465,-69.2579 761.8313,-69.2579"/>
<polygon fill="#191970" stroke="#191970" points="590.2337,-65.758 580.2337,-69.2579 590.2337,-72.758 590.2337,-65.758"/>
</g>
</g>
</svg>
