<?xml version="1.0" encoding="UTF-8" standalone="no"?>
<!DOCTYPE svg PUBLIC "-//W3C//DTD SVG 1.1//EN"
 "http://www.w3.org/Graphics/SVG/1.1/DTD/svg11.dtd">
<!-- Generated by graphviz version 2.40.1 (20161225.0304)
 -->
<!-- Title: nuspell::to_wide Pages: 1 -->
<svg width="312pt" height="186pt"
 viewBox="0.00 0.00 312.00 186.00" xmlns="http://www.w3.org/2000/svg" xmlns:xlink="http://www.w3.org/1999/xlink">
<g id="graph0" class="graph" transform="scale(1 1) rotate(0) translate(4 182)">
<title>nuspell::to_wide</title>
<polygon fill="#ffffff" stroke="transparent" points="-4,4 -4,-182 308,-182 308,4 -4,4"/>
<!-- Node357 -->
<g id="node1" class="node">
<title>Node357</title>
<polygon fill="#bfbfbf" stroke="#000000" points="0,-62.5 0,-81.5 87,-81.5 87,-62.5 0,-62.5"/>
<text text-anchor="middle" x="43.5" y="-69.5" font-family="Helvetica,sans-Serif" font-size="10.00" fill="#000000">nuspell::to_wide</text>
</g>
<!-- Node358 -->
<g id="node2" class="node">
<title>Node358</title>
<g id="a_node2"><a xlink:href="classnuspell_1_1_dictionary.html#a86e6e4a0401eb0e99fb002761a6a610b" target="_top" xlink:title="nuspell::Dictionary\l::external_to_internal\l_encoding">
<polygon fill="#ffffff" stroke="#000000" points="123,-136.5 123,-177.5 230,-177.5 230,-136.5 123,-136.5"/>
<text text-anchor="start" x="131" y="-165.5" font-family="Helvetica,sans-Serif" font-size="10.00" fill="#000000">nuspell::Dictionary</text>
<text text-anchor="start" x="131" y="-154.5" font-family="Helvetica,sans-Serif" font-size="10.00" fill="#000000">::external_to_internal</text>
<text text-anchor="middle" x="176.5" y="-143.5" font-family="Helvetica,sans-Serif" font-size="10.00" fill="#000000">_encoding</text>
</a>
</g>
</g>
<!-- Node357&#45;&gt;Node358 -->
<g id="edge1" class="edge">
<title>Node357&#45;&gt;Node358</title>
<path fill="none" stroke="#191970" d="M64.9713,-87.6719C80.7629,-98.9955 102.8881,-114.443 123,-127 128.0584,-130.1582 133.4637,-133.3703 138.8223,-136.4615"/>
<polygon fill="#191970" stroke="#191970" points="66.6253,-84.5493 56.4685,-81.5343 62.5283,-90.2251 66.6253,-84.5493"/>
</g>
<!-- Node359 -->
<g id="node3" class="node">
<title>Node359</title>
<g id="a_node3"><a xlink:href="classnuspell_1_1_dictionary.html#a38d6bdb6f223f5ec40d60c3543b0ef1b" target="_top" xlink:title="nuspell::Dictionary\l::internal_to_external\l_encoding">
<polygon fill="#ffffff" stroke="#000000" points="123,-76.5 123,-117.5 230,-117.5 230,-76.5 123,-76.5"/>
<text text-anchor="start" x="131" y="-105.5" font-family="Helvetica,sans-Serif" font-size="10.00" fill="#000000">nuspell::Dictionary</text>
<text text-anchor="start" x="131" y="-94.5" font-family="Helvetica,sans-Serif" font-size="10.00" fill="#000000">::internal_to_external</text>
<text text-anchor="middle" x="176.5" y="-83.5" font-family="Helvetica,sans-Serif" font-size="10.00" fill="#000000">_encoding</text>
</a>
</g>
</g>
<!-- Node357&#45;&gt;Node359 -->
<g id="edge2" class="edge">
<title>Node357&#45;&gt;Node359</title>
<path fill="none" stroke="#191970" d="M97.1212,-82.0792C105.5256,-83.659 114.2154,-85.2924 122.6255,-86.8732"/>
<polygon fill="#191970" stroke="#191970" points="97.5237,-78.5936 87.0492,-80.1859 96.2305,-85.4731 97.5237,-78.5936"/>
</g>
<!-- Node360 -->
<g id="node4" class="node">
<title>Node360</title>
<g id="a_node4"><a xlink:href="namespacenuspell.html#a7f99b7ec5f56db773581d659bb42a240" target="_top" xlink:title="nuspell::to_wide">
<polygon fill="#ffffff" stroke="#000000" points="133,-38.5 133,-57.5 220,-57.5 220,-38.5 133,-38.5"/>
<text text-anchor="middle" x="176.5" y="-45.5" font-family="Helvetica,sans-Serif" font-size="10.00" fill="#000000">nuspell::to_wide</text>
</a>
</g>
</g>
<!-- Node357&#45;&gt;Node360 -->
<g id="edge3" class="edge">
<title>Node357&#45;&gt;Node360</title>
<path fill="none" stroke="#191970" d="M96.9033,-62.3633C108.841,-60.2091 121.3649,-57.9492 132.853,-55.8762"/>
<polygon fill="#191970" stroke="#191970" points="96.2687,-58.9212 87.0492,-64.1415 97.5118,-65.81 96.2687,-58.9212"/>
</g>
<!-- Node361 -->
<g id="node5" class="node">
<title>Node361</title>
<g id="a_node5"><a xlink:href="verify_8cxx.html#a345ea832decc7c2932cf431ea1dc1cbf" target="_top" xlink:title="normal_loop">
<polygon fill="#ffffff" stroke="#000000" points="142,-.5 142,-19.5 211,-19.5 211,-.5 142,-.5"/>
<text text-anchor="middle" x="176.5" y="-7.5" font-family="Helvetica,sans-Serif" font-size="10.00" fill="#000000">normal_loop</text>
</a>
</g>
</g>
<!-- Node357&#45;&gt;Node361 -->
<g id="edge4" class="edge">
<title>Node357&#45;&gt;Node361</title>
<path fill="none" stroke="#191970" d="M68.4742,-57.1997C83.8894,-48.392 104.2406,-37.3444 123,-29 130.6549,-25.595 139.1246,-22.3565 147.0241,-19.5493"/>
<polygon fill="#191970" stroke="#191970" points="66.4752,-54.3126 59.5723,-62.3501 69.9807,-60.3716 66.4752,-54.3126"/>
</g>
<!-- Node362 -->
<g id="node6" class="node">
<title>Node362</title>
<g id="a_node6"><a xlink:href="verify_8cxx.html#a0ddf1224851353fc92bfbff6f499fa97" target="_top" xlink:title="main">
<polygon fill="#ffffff" stroke="#000000" points="266,-.5 266,-19.5 304,-19.5 304,-.5 266,-.5"/>
<text text-anchor="middle" x="285" y="-7.5" font-family="Helvetica,sans-Serif" font-size="10.00" fill="#000000">main</text>
</a>
</g>
</g>
<!-- Node361&#45;&gt;Node362 -->
<g id="edge5" class="edge">
<title>Node361&#45;&gt;Node362</title>
<path fill="none" stroke="#191970" d="M221.1605,-10C236.7518,-10 253.4345,-10 265.8346,-10"/>
<polygon fill="#191970" stroke="#191970" points="221.1284,-6.5001 211.1284,-10 221.1284,-13.5001 221.1284,-6.5001"/>
</g>
</g>
</svg>
