<?xml version="1.0" encoding="UTF-8" standalone="no"?>
<!DOCTYPE svg PUBLIC "-//W3C//DTD SVG 1.1//EN"
 "http://www.w3.org/Graphics/SVG/1.1/DTD/svg11.dtd">
<!-- Generated by graphviz version 2.40.1 (20161225.0304)
 -->
<!-- Title: nuspell::to_wide Pages: 1 -->
<svg width="333pt" height="186pt"
 viewBox="0.00 0.00 333.00 186.00" xmlns="http://www.w3.org/2000/svg" xmlns:xlink="http://www.w3.org/1999/xlink">
<g id="graph0" class="graph" transform="scale(1 1) rotate(0) translate(4 182)">
<title>nuspell::to_wide</title>
<polygon fill="#ffffff" stroke="transparent" points="-4,4 -4,-182 329,-182 329,4 -4,4"/>
<!-- Node360 -->
<g id="node1" class="node">
<title>Node360</title>
<polygon fill="#bfbfbf" stroke="#000000" points="0,-62.5 0,-81.5 87,-81.5 87,-62.5 0,-62.5"/>
<text text-anchor="middle" x="43.5" y="-69.5" font-family="Helvetica,sans-Serif" font-size="10.00" fill="#000000">nuspell::to_wide</text>
</g>
<!-- Node361 -->
<g id="node2" class="node">
<title>Node361</title>
<g id="a_node2"><a xlink:href="classnuspell_1_1_basic___dictionary.html#aca69f6d72c3f7f7a7e88a08fc8dd9712" target="_top" xlink:title="nuspell::Basic_Dictionary\l::external_to_internal\l_encoding">
<polygon fill="#ffffff" stroke="#000000" points="123,-136.5 123,-177.5 251,-177.5 251,-136.5 123,-136.5"/>
<text text-anchor="start" x="131" y="-165.5" font-family="Helvetica,sans-Serif" font-size="10.00" fill="#000000">nuspell::Basic_Dictionary</text>
<text text-anchor="start" x="131" y="-154.5" font-family="Helvetica,sans-Serif" font-size="10.00" fill="#000000">::external_to_internal</text>
<text text-anchor="middle" x="187" y="-143.5" font-family="Helvetica,sans-Serif" font-size="10.00" fill="#000000">_encoding</text>
</a>
</g>
</g>
<!-- Node360&#45;&gt;Node361 -->
<g id="edge1" class="edge">
<title>Node360&#45;&gt;Node361</title>
<path fill="none" stroke="#191970" d="M64.427,-87.913C80.1043,-99.4744 102.3233,-115.1124 123,-127 128.6383,-130.2416 134.6852,-133.4269 140.7298,-136.4401"/>
<polygon fill="#191970" stroke="#191970" points="66.1215,-84.8105 56.0134,-81.636 61.9357,-90.4211 66.1215,-84.8105"/>
</g>
<!-- Node362 -->
<g id="node3" class="node">
<title>Node362</title>
<g id="a_node3"><a xlink:href="classnuspell_1_1_basic___dictionary.html#af376c24827a246f67eaeb81002cf40d2" target="_top" xlink:title="nuspell::Basic_Dictionary\l::internal_to_external\l_encoding">
<polygon fill="#ffffff" stroke="#000000" points="123,-76.5 123,-117.5 251,-117.5 251,-76.5 123,-76.5"/>
<text text-anchor="start" x="131" y="-105.5" font-family="Helvetica,sans-Serif" font-size="10.00" fill="#000000">nuspell::Basic_Dictionary</text>
<text text-anchor="start" x="131" y="-94.5" font-family="Helvetica,sans-Serif" font-size="10.00" fill="#000000">::internal_to_external</text>
<text text-anchor="middle" x="187" y="-83.5" font-family="Helvetica,sans-Serif" font-size="10.00" fill="#000000">_encoding</text>
</a>
</g>
</g>
<!-- Node360&#45;&gt;Node362 -->
<g id="edge2" class="edge">
<title>Node360&#45;&gt;Node362</title>
<path fill="none" stroke="#191970" d="M97.2923,-81.3715C105.6233,-82.8229 114.2995,-84.3344 122.8311,-85.8207"/>
<polygon fill="#191970" stroke="#191970" points="97.7868,-77.905 87.3345,-79.6367 96.5853,-84.8011 97.7868,-77.905"/>
</g>
<!-- Node363 -->
<g id="node4" class="node">
<title>Node363</title>
<g id="a_node4"><a xlink:href="namespacenuspell.html#a7f99b7ec5f56db773581d659bb42a240" target="_top" xlink:title="nuspell::to_wide">
<polygon fill="#ffffff" stroke="#000000" points="143.5,-38.5 143.5,-57.5 230.5,-57.5 230.5,-38.5 143.5,-38.5"/>
<text text-anchor="middle" x="187" y="-45.5" font-family="Helvetica,sans-Serif" font-size="10.00" fill="#000000">nuspell::to_wide</text>
</a>
</g>
</g>
<!-- Node360&#45;&gt;Node363 -->
<g id="edge3" class="edge">
<title>Node360&#45;&gt;Node363</title>
<path fill="none" stroke="#191970" d="M97.5994,-62.952C112.7365,-60.4204 128.991,-57.7019 143.434,-55.2863"/>
<polygon fill="#191970" stroke="#191970" points="96.6201,-59.5671 87.3345,-64.6688 97.7748,-66.4712 96.6201,-59.5671"/>
</g>
<!-- Node364 -->
<g id="node5" class="node">
<title>Node364</title>
<g id="a_node5"><a xlink:href="regress_8cxx.html#a345ea832decc7c2932cf431ea1dc1cbf" target="_top" xlink:title="normal_loop">
<polygon fill="#ffffff" stroke="#000000" points="152.5,-.5 152.5,-19.5 221.5,-19.5 221.5,-.5 152.5,-.5"/>
<text text-anchor="middle" x="187" y="-7.5" font-family="Helvetica,sans-Serif" font-size="10.00" fill="#000000">normal_loop</text>
</a>
</g>
</g>
<!-- Node360&#45;&gt;Node364 -->
<g id="edge4" class="edge">
<title>Node360&#45;&gt;Node364</title>
<path fill="none" stroke="#191970" d="M67.7405,-57.1818C83.1657,-48.1867 103.7873,-36.947 123,-29 132.318,-25.1458 142.6943,-21.7169 152.3334,-18.8693"/>
<polygon fill="#191970" stroke="#191970" points="65.6835,-54.3324 58.8667,-62.443 69.2535,-60.3537 65.6835,-54.3324"/>
</g>
<!-- Node365 -->
<g id="node6" class="node">
<title>Node365</title>
<g id="a_node6"><a xlink:href="regress_8cxx.html#a0ddf1224851353fc92bfbff6f499fa97" target="_top" xlink:title="main">
<polygon fill="#ffffff" stroke="#000000" points="287,-.5 287,-19.5 325,-19.5 325,-.5 287,-.5"/>
<text text-anchor="middle" x="306" y="-7.5" font-family="Helvetica,sans-Serif" font-size="10.00" fill="#000000">main</text>
</a>
</g>
</g>
<!-- Node364&#45;&gt;Node365 -->
<g id="edge5" class="edge">
<title>Node364&#45;&gt;Node365</title>
<path fill="none" stroke="#191970" d="M231.7673,-10C250.8451,-10 272.0793,-10 286.9332,-10"/>
<polygon fill="#191970" stroke="#191970" points="231.7397,-6.5001 221.7396,-10 231.7396,-13.5001 231.7397,-6.5001"/>
</g>
</g>
</svg>
