<?xml version="1.0" encoding="UTF-8" standalone="no"?>
<!DOCTYPE svg PUBLIC "-//W3C//DTD SVG 1.1//EN"
 "http://www.w3.org/Graphics/SVG/1.1/DTD/svg11.dtd">
<!-- Generated by graphviz version 2.40.1 (20161225.0304)
 -->
<!-- Title: nuspell::utf8_to_wide Pages: 1 -->
<svg width="281pt" height="198pt"
 viewBox="0.00 0.00 281.00 198.00" xmlns="http://www.w3.org/2000/svg" xmlns:xlink="http://www.w3.org/1999/xlink">
<g id="graph0" class="graph" transform="scale(1 1) rotate(0) translate(4 194)">
<title>nuspell::utf8_to_wide</title>
<polygon fill="#ffffff" stroke="transparent" points="-4,4 -4,-194 277,-194 277,4 -4,4"/>
<!-- Node393 -->
<g id="node1" class="node">
<title>Node393</title>
<polygon fill="#bfbfbf" stroke="#000000" points="0,-88 0,-107 109,-107 109,-88 0,-88"/>
<text text-anchor="middle" x="54.5" y="-95" font-family="Helvetica,sans-Serif" font-size="10.00" fill="#000000">nuspell::utf8_to_wide</text>
</g>
<!-- Node394 -->
<g id="node2" class="node">
<title>Node394</title>
<g id="a_node2"><a xlink:href="structnuspell_1_1_aff___data.html#a93b16b2b3938f607a18e3a67b9360b83" target="_top" xlink:title="Parses an input stream offering affix information. ">
<polygon fill="#ffffff" stroke="#000000" points="160,-159.5 160,-189.5 258,-189.5 258,-159.5 160,-159.5"/>
<text text-anchor="start" x="168" y="-177.5" font-family="Helvetica,sans-Serif" font-size="10.00" fill="#000000">nuspell::Aff_Data::</text>
<text text-anchor="middle" x="209" y="-166.5" font-family="Helvetica,sans-Serif" font-size="10.00" fill="#000000">parse_aff</text>
</a>
</g>
</g>
<!-- Node393&#45;&gt;Node394 -->
<g id="edge1" class="edge">
<title>Node393&#45;&gt;Node394</title>
<path fill="none" stroke="#191970" d="M77.7479,-112.6063C95.6812,-123.8882 121.3402,-139.2374 145,-150.5 151.6431,-153.6622 158.8223,-156.7005 165.8884,-159.4893"/>
<polygon fill="#191970" stroke="#191970" points="79.4416,-109.5356 69.1257,-107.1205 75.684,-115.4416 79.4416,-109.5356"/>
</g>
<!-- Node395 -->
<g id="node3" class="node">
<title>Node395</title>
<g id="a_node3"><a xlink:href="structnuspell_1_1_aff___data.html#ad77b0f3b5fc59f2c1ba29e5cbf8dc7ed" target="_top" xlink:title="Parses an input stream offering dictionary information. ">
<polygon fill="#ffffff" stroke="#000000" points="160,-110.5 160,-140.5 258,-140.5 258,-110.5 160,-110.5"/>
<text text-anchor="start" x="168" y="-128.5" font-family="Helvetica,sans-Serif" font-size="10.00" fill="#000000">nuspell::Aff_Data::</text>
<text text-anchor="middle" x="209" y="-117.5" font-family="Helvetica,sans-Serif" font-size="10.00" fill="#000000">parse_dic</text>
</a>
</g>
</g>
<!-- Node393&#45;&gt;Node395 -->
<g id="edge2" class="edge">
<title>Node393&#45;&gt;Node395</title>
<path fill="none" stroke="#191970" d="M117.4009,-108.8995C131.5588,-111.4653 146.3832,-114.152 159.8805,-116.5981"/>
<polygon fill="#191970" stroke="#191970" points="117.7019,-105.3971 107.238,-107.0577 116.4536,-112.2849 117.7019,-105.3971"/>
</g>
<!-- Node396 -->
<g id="node4" class="node">
<title>Node396</title>
<g id="a_node4"><a xlink:href="classnuspell_1_1_basic___dictionary.html#aca69f6d72c3f7f7a7e88a08fc8dd9712" target="_top" xlink:title="nuspell::Basic_Dictionary\l::external_to_internal\l_encoding">
<polygon fill="#ffffff" stroke="#000000" points="145,-50 145,-91 273,-91 273,-50 145,-50"/>
<text text-anchor="start" x="153" y="-79" font-family="Helvetica,sans-Serif" font-size="10.00" fill="#000000">nuspell::Basic_Dictionary</text>
<text text-anchor="start" x="153" y="-68" font-family="Helvetica,sans-Serif" font-size="10.00" fill="#000000">::external_to_internal</text>
<text text-anchor="middle" x="209" y="-57" font-family="Helvetica,sans-Serif" font-size="10.00" fill="#000000">_encoding</text>
</a>
</g>
</g>
<!-- Node393&#45;&gt;Node396 -->
<g id="edge3" class="edge">
<title>Node393&#45;&gt;Node396</title>
<path fill="none" stroke="#191970" d="M118.9469,-86.2374C127.5528,-84.7335 136.3769,-83.1914 144.9756,-81.6887"/>
<polygon fill="#191970" stroke="#191970" points="118.2191,-82.8115 108.9709,-87.9808 119.4242,-89.707 118.2191,-82.8115"/>
</g>
<!-- Node397 -->
<g id="node5" class="node">
<title>Node397</title>
<g id="a_node5"><a xlink:href="class_my___dictionary.html#a06d83a3d76c0eff8688dfbee66976f70" target="_top" xlink:title="My_Dictionary::parse\l_personal_dict">
<polygon fill="#ffffff" stroke="#000000" points="154,-.5 154,-30.5 264,-30.5 264,-.5 154,-.5"/>
<text text-anchor="start" x="162" y="-18.5" font-family="Helvetica,sans-Serif" font-size="10.00" fill="#000000">My_Dictionary::parse</text>
<text text-anchor="middle" x="209" y="-7.5" font-family="Helvetica,sans-Serif" font-size="10.00" fill="#000000">_personal_dict</text>
</a>
</g>
</g>
<!-- Node393&#45;&gt;Node397 -->
<g id="edge4" class="edge">
<title>Node393&#45;&gt;Node397</title>
<path fill="none" stroke="#191970" d="M76.3777,-82.0655C94.2928,-69.8379 120.5768,-52.8212 145,-40.5 152.0291,-36.9539 159.6878,-33.5745 167.1841,-30.5117"/>
<polygon fill="#191970" stroke="#191970" points="74.0646,-79.4094 67.8263,-87.973 78.0433,-85.1688 74.0646,-79.4094"/>
</g>
</g>
</svg>
