<?xml version="1.0" encoding="UTF-8" standalone="no"?>
<!DOCTYPE svg PUBLIC "-//W3C//DTD SVG 1.1//EN"
 "http://www.w3.org/Graphics/SVG/1.1/DTD/svg11.dtd">
<!-- Generated by graphviz version 2.40.1 (20161225.0304)
 -->
<!-- Title: nuspell::valid_utf_to_utf Pages: 1 -->
<svg width="407pt" height="149pt"
 viewBox="0.00 0.00 407.00 148.50" xmlns="http://www.w3.org/2000/svg" xmlns:xlink="http://www.w3.org/1999/xlink">
<g id="graph0" class="graph" transform="scale(1 1) rotate(0) translate(4 144.5)">
<title>nuspell::valid_utf_to_utf</title>
<polygon fill="#ffffff" stroke="transparent" points="-4,4 -4,-144.5 403,-144.5 403,4 -4,4"/>
<!-- Node416 -->
<g id="node1" class="node">
<title>Node416</title>
<polygon fill="#bfbfbf" stroke="#000000" points="0,-61 0,-91 90,-91 90,-61 0,-61"/>
<text text-anchor="start" x="8" y="-79" font-family="Helvetica,sans-Serif" font-size="10.00" fill="#000000">nuspell::valid_utf</text>
<text text-anchor="middle" x="45" y="-68" font-family="Helvetica,sans-Serif" font-size="10.00" fill="#000000">_to_utf</text>
</g>
<!-- Node417 -->
<g id="node2" class="node">
<title>Node417</title>
<g id="a_node2"><a xlink:href="namespacenuspell.html#ad4e8221da9ce95908ecd5a60ac3ae08c" target="_top" xlink:title="nuspell::wide_to_utf8">
<polygon fill="#ffffff" stroke="#000000" points="126,-66.5 126,-85.5 235,-85.5 235,-66.5 126,-66.5"/>
<text text-anchor="middle" x="180.5" y="-73.5" font-family="Helvetica,sans-Serif" font-size="10.00" fill="#000000">nuspell::wide_to_utf8</text>
</a>
</g>
</g>
<!-- Node416&#45;&gt;Node417 -->
<g id="edge1" class="edge">
<title>Node416&#45;&gt;Node417</title>
<path fill="none" stroke="#191970" d="M100.2056,-76C108.6129,-76 117.2872,-76 125.686,-76"/>
<polygon fill="#191970" stroke="#191970" points="100.1196,-72.5001 90.1195,-76 100.1195,-79.5001 100.1196,-72.5001"/>
</g>
<!-- Node418 -->
<g id="node3" class="node">
<title>Node418</title>
<g id="a_node3"><a xlink:href="classnuspell_1_1_word___list.html#a9cb1b8ccbd83e2b8275309b981537d40" target="_top" xlink:title="nuspell::Word_List\l::equal_range">
<polygon fill="#ffffff" stroke="#000000" points="286,-110 286,-140 384,-140 384,-110 286,-110"/>
<text text-anchor="start" x="294" y="-128" font-family="Helvetica,sans-Serif" font-size="10.00" fill="#000000">nuspell::Word_List</text>
<text text-anchor="middle" x="335" y="-117" font-family="Helvetica,sans-Serif" font-size="10.00" fill="#000000">::equal_range</text>
</a>
</g>
</g>
<!-- Node417&#45;&gt;Node418 -->
<g id="edge2" class="edge">
<title>Node417&#45;&gt;Node418</title>
<path fill="none" stroke="#191970" d="M220.3274,-88.6313C240.864,-95.1446 266.0533,-103.1334 287.5875,-109.963"/>
<polygon fill="#191970" stroke="#191970" points="221.2461,-85.251 210.6559,-85.564 219.1299,-91.9234 221.2461,-85.251"/>
</g>
<!-- Node419 -->
<g id="node4" class="node">
<title>Node419</title>
<g id="a_node4"><a xlink:href="structnuspell_1_1_aff___data.html#ad77b0f3b5fc59f2c1ba29e5cbf8dc7ed" target="_top" xlink:title="Parses an input stream offering dictionary information. ">
<polygon fill="#ffffff" stroke="#000000" points="286,-61 286,-91 384,-91 384,-61 286,-61"/>
<text text-anchor="start" x="294" y="-79" font-family="Helvetica,sans-Serif" font-size="10.00" fill="#000000">nuspell::Aff_Data::</text>
<text text-anchor="middle" x="335" y="-68" font-family="Helvetica,sans-Serif" font-size="10.00" fill="#000000">parse_dic</text>
</a>
</g>
</g>
<!-- Node417&#45;&gt;Node419 -->
<g id="edge3" class="edge">
<title>Node417&#45;&gt;Node419</title>
<path fill="none" stroke="#191970" d="M245.6036,-76C259.1053,-76 273.1148,-76 285.9262,-76"/>
<polygon fill="#191970" stroke="#191970" points="245.406,-72.5001 235.4059,-76 245.4059,-79.5001 245.406,-72.5001"/>
</g>
<!-- Node420 -->
<g id="node5" class="node">
<title>Node420</title>
<g id="a_node5"><a xlink:href="classnuspell_1_1_basic___dictionary.html#af376c24827a246f67eaeb81002cf40d2" target="_top" xlink:title="nuspell::Basic_Dictionary\l::internal_to_external\l_encoding">
<polygon fill="#ffffff" stroke="#000000" points="271,-.5 271,-41.5 399,-41.5 399,-.5 271,-.5"/>
<text text-anchor="start" x="279" y="-29.5" font-family="Helvetica,sans-Serif" font-size="10.00" fill="#000000">nuspell::Basic_Dictionary</text>
<text text-anchor="start" x="279" y="-18.5" font-family="Helvetica,sans-Serif" font-size="10.00" fill="#000000">::internal_to_external</text>
<text text-anchor="middle" x="335" y="-7.5" font-family="Helvetica,sans-Serif" font-size="10.00" fill="#000000">_encoding</text>
</a>
</g>
</g>
<!-- Node417&#45;&gt;Node420 -->
<g id="edge4" class="edge">
<title>Node417&#45;&gt;Node420</title>
<path fill="none" stroke="#191970" d="M216.9533,-63.0231C234.9657,-56.6109 257.1282,-48.7213 277.3669,-41.5166"/>
<polygon fill="#191970" stroke="#191970" points="215.6589,-59.7687 207.4118,-66.4197 218.0065,-66.3633 215.6589,-59.7687"/>
</g>
</g>
</svg>
