<?xml version="1.0" encoding="UTF-8" standalone="no"?>
<!DOCTYPE svg PUBLIC "-//W3C//DTD SVG 1.1//EN"
 "http://www.w3.org/Graphics/SVG/1.1/DTD/svg11.dtd">
<!-- Generated by graphviz version 2.40.1 (20161225.0304)
 -->
<!-- Title: nuspell::utf_to_utf_my Pages: 1 -->
<svg width="886pt" height="324pt"
 viewBox="0.00 0.00 886.00 324.01" xmlns="http://www.w3.org/2000/svg" xmlns:xlink="http://www.w3.org/1999/xlink">
<g id="graph0" class="graph" transform="scale(1 1) rotate(0) translate(4 320.0103)">
<title>nuspell::utf_to_utf_my</title>
<polygon fill="#ffffff" stroke="transparent" points="-4,4 -4,-320.0103 882,-320.0103 882,4 -4,4"/>
<!-- Node402 -->
<g id="node1" class="node">
<title>Node402</title>
<polygon fill="#bfbfbf" stroke="#000000" points="0,-123.5103 0,-142.5103 113,-142.5103 113,-123.5103 0,-123.5103"/>
<text text-anchor="middle" x="56.5" y="-130.5103" font-family="Helvetica,sans-Serif" font-size="10.00" fill="#000000">nuspell::utf_to_utf_my</text>
</g>
<!-- Node403 -->
<g id="node2" class="node">
<title>Node403</title>
<g id="a_node2"><a xlink:href="namespacenuspell.html#a79258aeb32a39ce719a014950b33e5d6" target="_top" xlink:title="nuspell::utf8_to_wide">
<polygon fill="#ffffff" stroke="#000000" points="451,-186.5103 451,-205.5103 560,-205.5103 560,-186.5103 451,-186.5103"/>
<text text-anchor="middle" x="505.5" y="-193.5103" font-family="Helvetica,sans-Serif" font-size="10.00" fill="#000000">nuspell::utf8_to_wide</text>
</a>
</g>
</g>
<!-- Node402&#45;&gt;Node403 -->
<g id="edge1" class="edge">
<title>Node402&#45;&gt;Node403</title>
<path fill="none" stroke="#191970" d="M123.361,-142.3917C212.4538,-154.8925 368.4145,-176.7756 450.8489,-188.3421"/>
<polygon fill="#191970" stroke="#191970" points="123.7555,-138.9128 113.3662,-140.9893 122.7828,-145.8449 123.7555,-138.9128"/>
</g>
<!-- Node408 -->
<g id="node7" class="node">
<title>Node408</title>
<g id="a_node7"><a xlink:href="namespacenuspell.html#aff86f9ecb346e78687e56dab66a77469" target="_top" xlink:title="nuspell::utf8_to_32">
<polygon fill="#ffffff" stroke="#000000" points="149,-104.5103 149,-123.5103 248,-123.5103 248,-104.5103 149,-104.5103"/>
<text text-anchor="middle" x="198.5" y="-111.5103" font-family="Helvetica,sans-Serif" font-size="10.00" fill="#000000">nuspell::utf8_to_32</text>
</a>
</g>
</g>
<!-- Node402&#45;&gt;Node408 -->
<g id="edge6" class="edge">
<title>Node402&#45;&gt;Node408</title>
<path fill="none" stroke="#191970" d="M123.0501,-124.1057C131.6457,-122.9556 140.3285,-121.7938 148.5921,-120.6881"/>
<polygon fill="#191970" stroke="#191970" points="122.4776,-120.651 113.0302,-125.4464 123.406,-127.5892 122.4776,-120.651"/>
</g>
<!-- Node404 -->
<g id="node3" class="node">
<title>Node404</title>
<g id="a_node3"><a xlink:href="structnuspell_1_1_aff___data.html#a93b16b2b3938f607a18e3a67b9360b83" target="_top" xlink:title="Parses an input stream offering affix information. ">
<polygon fill="#ffffff" stroke="#000000" points="780,-55.0103 780,-85.0103 878,-85.0103 878,-55.0103 780,-55.0103"/>
<text text-anchor="start" x="788" y="-73.0103" font-family="Helvetica,sans-Serif" font-size="10.00" fill="#000000">nuspell::Aff_Data::</text>
<text text-anchor="middle" x="829" y="-62.0103" font-family="Helvetica,sans-Serif" font-size="10.00" fill="#000000">parse_aff</text>
</a>
</g>
</g>
<!-- Node403&#45;&gt;Node404 -->
<g id="edge2" class="edge">
<title>Node403&#45;&gt;Node404</title>
<path fill="none" stroke="#191970" d="M570.1718,-204.2984C620.4822,-207.6925 690.4967,-205.5133 744,-177.0103 782.7363,-156.3742 809.8763,-109.6849 821.9509,-85.3742"/>
<polygon fill="#191970" stroke="#191970" points="570.3042,-200.7984 560.066,-203.5243 569.7695,-207.7779 570.3042,-200.7984"/>
</g>
<!-- Node405 -->
<g id="node4" class="node">
<title>Node405</title>
<g id="a_node4"><a xlink:href="structnuspell_1_1_aff___data.html#ad77b0f3b5fc59f2c1ba29e5cbf8dc7ed" target="_top" xlink:title="Parses an input stream offering dictionary information. ">
<polygon fill="#ffffff" stroke="#000000" points="631,-137.0103 631,-167.0103 729,-167.0103 729,-137.0103 631,-137.0103"/>
<text text-anchor="start" x="639" y="-155.0103" font-family="Helvetica,sans-Serif" font-size="10.00" fill="#000000">nuspell::Aff_Data::</text>
<text text-anchor="middle" x="680" y="-144.0103" font-family="Helvetica,sans-Serif" font-size="10.00" fill="#000000">parse_dic</text>
</a>
</g>
</g>
<!-- Node403&#45;&gt;Node405 -->
<g id="edge3" class="edge">
<title>Node403&#45;&gt;Node405</title>
<path fill="none" stroke="#191970" d="M553.356,-183.9435C577.4643,-177.8646 606.6518,-170.505 630.9276,-164.3839"/>
<polygon fill="#191970" stroke="#191970" points="552.2046,-180.6242 543.3639,-186.463 553.9162,-187.4117 552.2046,-180.6242"/>
</g>
<!-- Node406 -->
<g id="node5" class="node">
<title>Node406</title>
<g id="a_node5"><a xlink:href="classnuspell_1_1_basic___dictionary.html#aca69f6d72c3f7f7a7e88a08fc8dd9712" target="_top" xlink:title="nuspell::Basic_Dictionary\l::external_to_internal\l_encoding">
<polygon fill="#ffffff" stroke="#000000" points="616,-274.5103 616,-315.5103 744,-315.5103 744,-274.5103 616,-274.5103"/>
<text text-anchor="start" x="624" y="-303.5103" font-family="Helvetica,sans-Serif" font-size="10.00" fill="#000000">nuspell::Basic_Dictionary</text>
<text text-anchor="start" x="624" y="-292.5103" font-family="Helvetica,sans-Serif" font-size="10.00" fill="#000000">::external_to_internal</text>
<text text-anchor="middle" x="680" y="-281.5103" font-family="Helvetica,sans-Serif" font-size="10.00" fill="#000000">_encoding</text>
</a>
</g>
</g>
<!-- Node403&#45;&gt;Node406 -->
<g id="edge4" class="edge">
<title>Node403&#45;&gt;Node406</title>
<path fill="none" stroke="#191970" d="M528.1646,-211.2827C550.1724,-225.8422 584.7443,-248.0056 616,-265.0103 621.8208,-268.1771 628.0336,-271.3428 634.214,-274.3668"/>
<polygon fill="#191970" stroke="#191970" points="530.0888,-208.3591 519.825,-205.7312 526.2098,-214.1861 530.0888,-208.3591"/>
</g>
<!-- Node407 -->
<g id="node6" class="node">
<title>Node407</title>
<g id="a_node6"><a xlink:href="class_my___dictionary.html#a06d83a3d76c0eff8688dfbee66976f70" target="_top" xlink:title="My_Dictionary::parse\l_personal_dict">
<polygon fill="#ffffff" stroke="#000000" points="625,-225.0103 625,-255.0103 735,-255.0103 735,-225.0103 625,-225.0103"/>
<text text-anchor="start" x="633" y="-243.0103" font-family="Helvetica,sans-Serif" font-size="10.00" fill="#000000">My_Dictionary::parse</text>
<text text-anchor="middle" x="680" y="-232.0103" font-family="Helvetica,sans-Serif" font-size="10.00" fill="#000000">_personal_dict</text>
</a>
</g>
</g>
<!-- Node403&#45;&gt;Node407 -->
<g id="edge5" class="edge">
<title>Node403&#45;&gt;Node407</title>
<path fill="none" stroke="#191970" d="M553.2299,-208.0454C575.4267,-213.6423 601.9502,-220.3301 624.9855,-226.1385"/>
<polygon fill="#191970" stroke="#191970" points="553.9162,-204.6089 543.3639,-205.5577 552.2046,-211.3965 553.9162,-204.6089"/>
</g>
<!-- Node409 -->
<g id="node8" class="node">
<title>Node409</title>
<g id="a_node8"><a xlink:href="namespacenuspell.html#adbb8e053a44129d0f51014facd48b7f9" target="_top" xlink:title="Decodes flags. ">
<polygon fill="#ffffff" stroke="#000000" points="284,-60.5103 284,-79.5103 395,-79.5103 395,-60.5103 284,-60.5103"/>
<text text-anchor="middle" x="339.5" y="-67.5103" font-family="Helvetica,sans-Serif" font-size="10.00" fill="#000000">nuspell::decode_flags</text>
</a>
</g>
</g>
<!-- Node408&#45;&gt;Node409 -->
<g id="edge7" class="edge">
<title>Node408&#45;&gt;Node409</title>
<path fill="none" stroke="#191970" d="M238.648,-101.4819C260.9972,-94.5076 288.3762,-85.9638 308.9648,-79.539"/>
<polygon fill="#191970" stroke="#191970" points="237.5983,-98.1429 229.0949,-104.463 239.6835,-104.8251 237.5983,-98.1429"/>
</g>
<!-- Node409&#45;&gt;Node404 -->
<g id="edge17" class="edge">
<title>Node409&#45;&gt;Node404</title>
<path fill="none" stroke="#191970" d="M358.5504,-53.6541C376.0626,-39.7755 403.4183,-20.8986 431,-13.0103 561.0285,24.1776 722.2112,-27.5744 792.9104,-54.9418"/>
<polygon fill="#191970" stroke="#191970" points="355.8639,-51.3299 350.3409,-60.3713 360.2967,-56.7475 355.8639,-51.3299"/>
</g>
<!-- Node410 -->
<g id="node9" class="node">
<title>Node410</title>
<g id="a_node9"><a xlink:href="namespacenuspell.html#ac3ed6d85c13c609eb5c51628b9dbac76" target="_top" xlink:title="Decodes a single flag from an input stream. ">
<polygon fill="#ffffff" stroke="#000000" points="437,-22.5103 437,-41.5103 574,-41.5103 574,-22.5103 437,-22.5103"/>
<text text-anchor="middle" x="505.5" y="-29.5103" font-family="Helvetica,sans-Serif" font-size="10.00" fill="#000000">nuspell::decode_single_flag</text>
</a>
</g>
</g>
<!-- Node409&#45;&gt;Node410 -->
<g id="edge8" class="edge">
<title>Node409&#45;&gt;Node410</title>
<path fill="none" stroke="#191970" d="M391.1534,-58.186C414.5564,-52.8287 441.8571,-46.5792 463.9124,-41.5304"/>
<polygon fill="#191970" stroke="#191970" points="390.3556,-54.778 381.3888,-60.4213 391.9177,-61.6015 390.3556,-54.778"/>
</g>
<!-- Node412 -->
<g id="node11" class="node">
<title>Node412</title>
<g id="a_node11"><a xlink:href="namespacenuspell.html#a3d81c446c32c53cd03e595f8fde9c2ab" target="_top" xlink:title="nuspell::decode_flags\l_possible_alias">
<polygon fill="#ffffff" stroke="#000000" points="450,-99.0103 450,-129.0103 561,-129.0103 561,-99.0103 450,-99.0103"/>
<text text-anchor="start" x="458" y="-117.0103" font-family="Helvetica,sans-Serif" font-size="10.00" fill="#000000">nuspell::decode_flags</text>
<text text-anchor="middle" x="505.5" y="-106.0103" font-family="Helvetica,sans-Serif" font-size="10.00" fill="#000000">_possible_alias</text>
</a>
</g>
</g>
<!-- Node409&#45;&gt;Node412 -->
<g id="edge12" class="edge">
<title>Node409&#45;&gt;Node412</title>
<path fill="none" stroke="#191970" d="M385.3179,-82.1548C405.3232,-87.4574 428.9613,-93.723 449.9575,-99.2882"/>
<polygon fill="#191970" stroke="#191970" points="386.0825,-78.7367 375.5195,-79.5577 384.289,-85.503 386.0825,-78.7367"/>
</g>
<!-- Node413 -->
<g id="node12" class="node">
<title>Node413</title>
<g id="a_node12"><a xlink:href="namespacenuspell.html#a82f70879bf54a6f7118852b75d8ddbfc" target="_top" xlink:title="nuspell::parse_compound_rule">
<polygon fill="#ffffff" stroke="#000000" points="431,-60.5103 431,-79.5103 580,-79.5103 580,-60.5103 431,-60.5103"/>
<text text-anchor="middle" x="505.5" y="-67.5103" font-family="Helvetica,sans-Serif" font-size="10.00" fill="#000000">nuspell::parse_compound_rule</text>
</a>
</g>
</g>
<!-- Node409&#45;&gt;Node413 -->
<g id="edge15" class="edge">
<title>Node409&#45;&gt;Node413</title>
<path fill="none" stroke="#191970" d="M405.2898,-70.0103C413.6499,-70.0103 422.2536,-70.0103 430.7412,-70.0103"/>
<polygon fill="#191970" stroke="#191970" points="405.2374,-66.5104 395.2374,-70.0103 405.2374,-73.5104 405.2374,-66.5104"/>
</g>
<!-- Node410&#45;&gt;Node404 -->
<g id="edge11" class="edge">
<title>Node410&#45;&gt;Node404</title>
<path fill="none" stroke="#191970" d="M584.0971,-41.2427C645.1844,-48.4184 728.0056,-58.147 779.9662,-64.2505"/>
<polygon fill="#191970" stroke="#191970" points="584.4461,-37.7598 574.106,-40.0691 583.6294,-44.712 584.4461,-37.7598"/>
</g>
<!-- Node411 -->
<g id="node10" class="node">
<title>Node411</title>
<g id="a_node10"><a xlink:href="namespacenuspell.html#a431abe5c2853b6f099bfedd5b6a4bb9f" target="_top" xlink:title="Parses an affix from an input stream. ">
<polygon fill="#ffffff" stroke="#000000" points="629.5,-98.5103 629.5,-117.5103 730.5,-117.5103 730.5,-98.5103 629.5,-98.5103"/>
<text text-anchor="middle" x="680" y="-105.5103" font-family="Helvetica,sans-Serif" font-size="10.00" fill="#000000">nuspell::parse_affix</text>
</a>
</g>
</g>
<!-- Node410&#45;&gt;Node411 -->
<g id="edge9" class="edge">
<title>Node410&#45;&gt;Node411</title>
<path fill="none" stroke="#191970" d="M560.6752,-44.2971C567.2732,-46.288 573.8466,-48.5248 580,-51.0103 612.4256,-64.108 647.2493,-85.9348 666.04,-98.4358"/>
<polygon fill="#191970" stroke="#191970" points="561.6127,-40.925 551.0367,-41.5559 559.6978,-47.658 561.6127,-40.925"/>
</g>
<!-- Node411&#45;&gt;Node404 -->
<g id="edge10" class="edge">
<title>Node411&#45;&gt;Node404</title>
<path fill="none" stroke="#191970" d="M727.6731,-95.8521C744.3394,-91.6016 763.073,-86.8239 779.857,-82.5434"/>
<polygon fill="#191970" stroke="#191970" points="726.4239,-92.5586 717.599,-98.4213 728.1538,-99.3414 726.4239,-92.5586"/>
</g>
<!-- Node412&#45;&gt;Node405 -->
<g id="edge14" class="edge">
<title>Node412&#45;&gt;Node405</title>
<path fill="none" stroke="#191970" d="M571.0589,-128.2867C590.8349,-132.5933 612.1984,-137.2455 630.7241,-141.2797"/>
<polygon fill="#191970" stroke="#191970" points="571.7084,-124.8462 561.1927,-126.1382 570.2189,-131.6859 571.7084,-124.8462"/>
</g>
<!-- Node412&#45;&gt;Node411 -->
<g id="edge13" class="edge">
<title>Node412&#45;&gt;Node411</title>
<path fill="none" stroke="#191970" d="M571.365,-111.7456C590.5388,-111.0863 611.1809,-110.3766 629.2682,-109.7547"/>
<polygon fill="#191970" stroke="#191970" points="571.0665,-108.2537 561.1927,-112.0954 571.3071,-115.2496 571.0665,-108.2537"/>
</g>
<!-- Node413&#45;&gt;Node404 -->
<g id="edge16" class="edge">
<title>Node413&#45;&gt;Node404</title>
<path fill="none" stroke="#191970" d="M590.4004,-70.0103C650.7427,-70.0103 729.6748,-70.0103 779.8735,-70.0103"/>
<polygon fill="#191970" stroke="#191970" points="590.1237,-66.5104 580.1236,-70.0103 590.1236,-73.5104 590.1237,-66.5104"/>
</g>
</g>
</svg>
