<?xml version="1.0" encoding="UTF-8" standalone="no"?>
<!DOCTYPE svg PUBLIC "-//W3C//DTD SVG 1.1//EN"
 "http://www.w3.org/Graphics/SVG/1.1/DTD/svg11.dtd">
<!-- Generated by graphviz version 2.40.1 (20161225.0304)
 -->
<!-- Title: nuspell::get_openoffice_paths Pages: 1 -->
<svg width="275pt" height="116pt"
 viewBox="0.00 0.00 275.00 116.00" xmlns="http://www.w3.org/2000/svg" xmlns:xlink="http://www.w3.org/1999/xlink">
<g id="graph0" class="graph" transform="scale(1 1) rotate(0) translate(4 112)">
<title>nuspell::get_openoffice_paths</title>
<polygon fill="#ffffff" stroke="transparent" points="-4,4 -4,-112 271,-112 271,4 -4,4"/>
<!-- Node106 -->
<g id="node1" class="node">
<title>Node106</title>
<polygon fill="#bfbfbf" stroke="#000000" points="0,-39 0,-69 117,-69 117,-39 0,-39"/>
<text text-anchor="start" x="8" y="-57" font-family="Helvetica,sans-Serif" font-size="10.00" fill="#000000">nuspell::get_openoffice</text>
<text text-anchor="middle" x="58.5" y="-46" font-family="Helvetica,sans-Serif" font-size="10.00" fill="#000000">_paths</text>
</g>
<!-- Node107 -->
<g id="node2" class="node">
<title>Node107</title>
<g id="a_node2"><a xlink:href="namespacenuspell.html#a9404cbb74ae904c74db6776eb092e1b1" target="_top" xlink:title="nuspell::prefix">
<polygon fill="#ffffff" stroke="#000000" points="171.5,-88.5 171.5,-107.5 248.5,-107.5 248.5,-88.5 171.5,-88.5"/>
<text text-anchor="middle" x="210" y="-95.5" font-family="Helvetica,sans-Serif" font-size="10.00" fill="#000000">nuspell::prefix</text>
</a>
</g>
</g>
<!-- Node106&#45;&gt;Node107 -->
<g id="edge1" class="edge">
<title>Node106&#45;&gt;Node107</title>
<path fill="none" stroke="#191970" d="M110.214,-69.0192C128.7013,-74.3885 149.3194,-80.3766 166.993,-85.5095"/>
<polygon fill="#191970" stroke="#191970" points="166.4408,-88.9937 177.0202,-88.4217 168.3932,-82.2715 166.4408,-88.9937"/>
</g>
<!-- Node108 -->
<g id="node3" class="node">
<title>Node108</title>
<g id="a_node3"><a xlink:href="structnuspell_1_1_globber.html#a895d65e899b6619740bee3ed56f7b3bd" target="_top" xlink:title="nuspell::Globber::copy\l_glob_paths">
<polygon fill="#ffffff" stroke="#000000" points="153,-39 153,-69 267,-69 267,-39 153,-39"/>
<text text-anchor="start" x="161" y="-57" font-family="Helvetica,sans-Serif" font-size="10.00" fill="#000000">nuspell::Globber::copy</text>
<text text-anchor="middle" x="210" y="-46" font-family="Helvetica,sans-Serif" font-size="10.00" fill="#000000">_glob_paths</text>
</a>
</g>
</g>
<!-- Node106&#45;&gt;Node108 -->
<g id="edge2" class="edge">
<title>Node106&#45;&gt;Node108</title>
<path fill="none" stroke="#191970" d="M117.0739,-54C125.3614,-54 133.9385,-54 142.3794,-54"/>
<polygon fill="#191970" stroke="#191970" points="142.5793,-57.5001 152.5792,-54 142.5792,-50.5001 142.5793,-57.5001"/>
</g>
<!-- Node109 -->
<g id="node4" class="node">
<title>Node109</title>
<g id="a_node4"><a xlink:href="structnuspell_1_1_globber.html#a6165004632cc6ce235e0c588800894fa" target="_top" xlink:title="nuspell::Globber::glob">
<polygon fill="#ffffff" stroke="#000000" points="154.5,-.5 154.5,-19.5 265.5,-19.5 265.5,-.5 154.5,-.5"/>
<text text-anchor="middle" x="210" y="-7.5" font-family="Helvetica,sans-Serif" font-size="10.00" fill="#000000">nuspell::Globber::glob</text>
</a>
</g>
</g>
<!-- Node106&#45;&gt;Node109 -->
<g id="edge3" class="edge">
<title>Node106&#45;&gt;Node109</title>
<path fill="none" stroke="#191970" d="M110.214,-38.9808C128.7013,-33.6115 149.3194,-27.6234 166.993,-22.4905"/>
<polygon fill="#191970" stroke="#191970" points="168.3932,-25.7285 177.0202,-19.5783 166.4408,-19.0063 168.3932,-25.7285"/>
</g>
</g>
</svg>
