<?xml version="1.0" encoding="UTF-8" standalone="no"?>
<!DOCTYPE svg PUBLIC "-//W3C//DTD SVG 1.1//EN"
 "http://www.w3.org/Graphics/SVG/1.1/DTD/svg11.dtd">
<!-- Generated by graphviz version 2.40.1 (20161225.0304)
 -->
<!-- Title: nuspell::search_path_for_dicts Pages: 1 -->
<svg width="244pt" height="137pt"
 viewBox="0.00 0.00 244.00 137.00" xmlns="http://www.w3.org/2000/svg" xmlns:xlink="http://www.w3.org/1999/xlink">
<g id="graph0" class="graph" transform="scale(1 1) rotate(0) translate(4 133)">
<title>nuspell::search_path_for_dicts</title>
<polygon fill="#ffffff" stroke="transparent" points="-4,4 -4,-133 240,-133 240,4 -4,4"/>
<!-- Node261 -->
<g id="node1" class="node">
<title>Node261</title>
<polygon fill="#bfbfbf" stroke="#000000" points="0,-49.5 0,-79.5 107,-79.5 107,-49.5 0,-49.5"/>
<text text-anchor="start" x="8" y="-67.5" font-family="Helvetica,sans-Serif" font-size="10.00" fill="#000000">nuspell::search_path</text>
<text text-anchor="middle" x="53.5" y="-56.5" font-family="Helvetica,sans-Serif" font-size="10.00" fill="#000000">_for_dicts</text>
</g>
<!-- Node262 -->
<g id="node2" class="node">
<title>Node262</title>
<g id="a_node2"><a xlink:href="structnuspell_1_1_directory.html#aa9697cf9e705f0acc37567e2f5435856" target="_top" xlink:title="nuspell::Directory\l::open">
<polygon fill="#ffffff" stroke="#000000" points="143,-98.5 143,-128.5 236,-128.5 236,-98.5 143,-98.5"/>
<text text-anchor="start" x="151" y="-116.5" font-family="Helvetica,sans-Serif" font-size="10.00" fill="#000000">nuspell::Directory</text>
<text text-anchor="middle" x="189.5" y="-105.5" font-family="Helvetica,sans-Serif" font-size="10.00" fill="#000000">::open</text>
</a>
</g>
</g>
<!-- Node261&#45;&gt;Node262 -->
<g id="edge1" class="edge">
<title>Node261&#45;&gt;Node262</title>
<path fill="none" stroke="#191970" d="M95.4142,-79.6014C108.8578,-84.4451 123.9047,-89.8664 137.9545,-94.9285"/>
<polygon fill="#191970" stroke="#191970" points="136.8957,-98.2672 147.4901,-98.3641 139.2685,-91.6816 136.8957,-98.2672"/>
</g>
<!-- Node263 -->
<g id="node3" class="node">
<title>Node263</title>
<g id="a_node3"><a xlink:href="structnuspell_1_1_directory.html#a9520b035588f693156225606c0af173b" target="_top" xlink:title="nuspell::Directory\l::next">
<polygon fill="#ffffff" stroke="#000000" points="143,-49.5 143,-79.5 236,-79.5 236,-49.5 143,-49.5"/>
<text text-anchor="start" x="151" y="-67.5" font-family="Helvetica,sans-Serif" font-size="10.00" fill="#000000">nuspell::Directory</text>
<text text-anchor="middle" x="189.5" y="-56.5" font-family="Helvetica,sans-Serif" font-size="10.00" fill="#000000">::next</text>
</a>
</g>
</g>
<!-- Node261&#45;&gt;Node263 -->
<g id="edge2" class="edge">
<title>Node261&#45;&gt;Node263</title>
<path fill="none" stroke="#191970" d="M107.2508,-64.5C115.5908,-64.5 124.2302,-64.5 132.6362,-64.5"/>
<polygon fill="#191970" stroke="#191970" points="132.7382,-68.0001 142.7382,-64.5 132.7381,-61.0001 132.7382,-68.0001"/>
</g>
<!-- Node264 -->
<g id="node4" class="node">
<title>Node264</title>
<g id="a_node4"><a xlink:href="structnuspell_1_1_directory.html#a776a738fc5045a5feae77b0c227b4465" target="_top" xlink:title="nuspell::Directory\l::entry_name">
<polygon fill="#ffffff" stroke="#000000" points="143,-.5 143,-30.5 236,-30.5 236,-.5 143,-.5"/>
<text text-anchor="start" x="151" y="-18.5" font-family="Helvetica,sans-Serif" font-size="10.00" fill="#000000">nuspell::Directory</text>
<text text-anchor="middle" x="189.5" y="-7.5" font-family="Helvetica,sans-Serif" font-size="10.00" fill="#000000">::entry_name</text>
</a>
</g>
</g>
<!-- Node261&#45;&gt;Node264 -->
<g id="edge3" class="edge">
<title>Node261&#45;&gt;Node264</title>
<path fill="none" stroke="#191970" d="M95.4142,-49.3986C108.8578,-44.5549 123.9047,-39.1336 137.9545,-34.0715"/>
<polygon fill="#191970" stroke="#191970" points="139.2685,-37.3184 147.4901,-30.6359 136.8957,-30.7328 139.2685,-37.3184"/>
</g>
</g>
</svg>
