<?xml version="1.0" encoding="UTF-8" standalone="no"?>
<!DOCTYPE svg PUBLIC "-//W3C//DTD SVG 1.1//EN"
 "http://www.w3.org/Graphics/SVG/1.1/DTD/svg11.dtd">
<!-- Generated by graphviz version 2.40.1 (20161225.0304)
 -->
<!-- Title: nuspell::is_bmp Pages: 1 -->
<svg width="877pt" height="192pt"
 viewBox="0.00 0.00 877.00 191.50" xmlns="http://www.w3.org/2000/svg" xmlns:xlink="http://www.w3.org/1999/xlink">
<g id="graph0" class="graph" transform="scale(1 1) rotate(0) translate(4 187.5)">
<title>nuspell::is_bmp</title>
<polygon fill="#ffffff" stroke="transparent" points="-4,4 -4,-187.5 873,-187.5 873,4 -4,4"/>
<!-- Node154 -->
<g id="node1" class="node">
<title>Node154</title>
<polygon fill="#bfbfbf" stroke="#000000" points="0,-85 0,-104 85,-104 85,-85 0,-85"/>
<text text-anchor="middle" x="42.5" y="-92" font-family="Helvetica,sans-Serif" font-size="10.00" fill="#000000">nuspell::is_bmp</text>
</g>
<!-- Node155 -->
<g id="node2" class="node">
<title>Node155</title>
<g id="a_node2"><a xlink:href="namespacenuspell.html#acc7be34831c982c0065b2929a9b14f2b" target="_top" xlink:title="nuspell::is_all_bmp">
<polygon fill="#ffffff" stroke="#000000" points="125.5,-107 125.5,-126 225.5,-126 225.5,-107 125.5,-107"/>
<text text-anchor="middle" x="175.5" y="-114" font-family="Helvetica,sans-Serif" font-size="10.00" fill="#000000">nuspell::is_all_bmp</text>
</a>
</g>
</g>
<!-- Node154&#45;&gt;Node155 -->
<g id="edge1" class="edge">
<title>Node154&#45;&gt;Node155</title>
<path fill="none" stroke="#191970" d="M95.4095,-103.2519C105.2789,-104.8845 115.5654,-106.586 125.3487,-108.2043"/>
<polygon fill="#191970" stroke="#191970" points="95.7513,-99.761 85.3141,-101.582 94.6089,-106.6672 95.7513,-99.761"/>
</g>
<!-- Node163 -->
<g id="node10" class="node">
<title>Node163</title>
<g id="a_node10"><a xlink:href="namespacenuspell.html#a9d0b0333504e454f862d33816913b068" target="_top" xlink:title="nuspell::u32_to_ucs2\l_skip_non_bmp">
<polygon fill="#ffffff" stroke="#000000" points="121,-57.5 121,-87.5 230,-87.5 230,-57.5 121,-57.5"/>
<text text-anchor="start" x="129" y="-75.5" font-family="Helvetica,sans-Serif" font-size="10.00" fill="#000000">nuspell::u32_to_ucs2</text>
<text text-anchor="middle" x="175.5" y="-64.5" font-family="Helvetica,sans-Serif" font-size="10.00" fill="#000000">_skip_non_bmp</text>
</a>
</g>
</g>
<!-- Node154&#45;&gt;Node163 -->
<g id="edge13" class="edge">
<title>Node154&#45;&gt;Node163</title>
<path fill="none" stroke="#191970" d="M95.2833,-85.7689C103.6087,-84.3918 112.2339,-82.9651 120.6059,-81.5802"/>
<polygon fill="#191970" stroke="#191970" points="94.6089,-82.3328 85.3141,-87.418 95.7513,-89.239 94.6089,-82.3328"/>
</g>
<!-- Node156 -->
<g id="node3" class="node">
<title>Node156</title>
<g id="a_node3"><a xlink:href="namespacenuspell.html#adbb8e053a44129d0f51014facd48b7f9" target="_top" xlink:title="Decodes flags. ">
<polygon fill="#ffffff" stroke="#000000" points="266,-107 266,-126 377,-126 377,-107 266,-107"/>
<text text-anchor="middle" x="321.5" y="-114" font-family="Helvetica,sans-Serif" font-size="10.00" fill="#000000">nuspell::decode_flags</text>
</a>
</g>
</g>
<!-- Node155&#45;&gt;Node156 -->
<g id="edge2" class="edge">
<title>Node155&#45;&gt;Node156</title>
<path fill="none" stroke="#191970" d="M235.9408,-116.5C245.8663,-116.5 256.1113,-116.5 265.9116,-116.5"/>
<polygon fill="#191970" stroke="#191970" points="235.745,-113.0001 225.7449,-116.5 235.7449,-120.0001 235.745,-113.0001"/>
</g>
<!-- Node157 -->
<g id="node4" class="node">
<title>Node157</title>
<g id="a_node4"><a xlink:href="namespacenuspell.html#ac3ed6d85c13c609eb5c51628b9dbac76" target="_top" xlink:title="Decodes a single flag from an input stream. ">
<polygon fill="#ffffff" stroke="#000000" points="413,-88 413,-107 550,-107 550,-88 413,-88"/>
<text text-anchor="middle" x="481.5" y="-95" font-family="Helvetica,sans-Serif" font-size="10.00" fill="#000000">nuspell::decode_single_flag</text>
</a>
</g>
</g>
<!-- Node156&#45;&gt;Node157 -->
<g id="edge3" class="edge">
<title>Node156&#45;&gt;Node157</title>
<path fill="none" stroke="#191970" d="M387.1923,-108.699C395.6503,-107.6946 404.329,-106.6641 412.8332,-105.6542"/>
<polygon fill="#191970" stroke="#191970" points="386.5287,-105.2532 377.0112,-109.908 387.3542,-112.2043 386.5287,-105.2532"/>
</g>
<!-- Node159 -->
<g id="node6" class="node">
<title>Node159</title>
<g id="a_node6"><a xlink:href="structnuspell_1_1_aff___data.html#a93b16b2b3938f607a18e3a67b9360b83" target="_top" xlink:title="Parses an input stream offering affix information. ">
<polygon fill="#ffffff" stroke="#000000" points="771,-101.5 771,-131.5 869,-131.5 869,-101.5 771,-101.5"/>
<text text-anchor="start" x="779" y="-119.5" font-family="Helvetica,sans-Serif" font-size="10.00" fill="#000000">nuspell::Aff_Data::</text>
<text text-anchor="middle" x="820" y="-108.5" font-family="Helvetica,sans-Serif" font-size="10.00" fill="#000000">parse_aff</text>
</a>
</g>
</g>
<!-- Node156&#45;&gt;Node159 -->
<g id="edge12" class="edge">
<title>Node156&#45;&gt;Node159</title>
<path fill="none" stroke="#191970" d="M387.1452,-118.9719C468.7145,-121.6566 612.1579,-125.1099 735,-121.5 746.5253,-121.1613 758.9184,-120.5648 770.5804,-119.8991"/>
<polygon fill="#191970" stroke="#191970" points="387.1369,-115.4697 377.0251,-118.6322 386.902,-122.4658 387.1369,-115.4697"/>
</g>
<!-- Node160 -->
<g id="node7" class="node">
<title>Node160</title>
<g id="a_node7"><a xlink:href="namespacenuspell.html#a3d81c446c32c53cd03e595f8fde9c2ab" target="_top" xlink:title="nuspell::decode_flags\l_possible_alias">
<polygon fill="#ffffff" stroke="#000000" points="426,-38.5 426,-68.5 537,-68.5 537,-38.5 426,-38.5"/>
<text text-anchor="start" x="434" y="-56.5" font-family="Helvetica,sans-Serif" font-size="10.00" fill="#000000">nuspell::decode_flags</text>
<text text-anchor="middle" x="481.5" y="-45.5" font-family="Helvetica,sans-Serif" font-size="10.00" fill="#000000">_possible_alias</text>
</a>
</g>
</g>
<!-- Node156&#45;&gt;Node160 -->
<g id="edge7" class="edge">
<title>Node156&#45;&gt;Node160</title>
<path fill="none" stroke="#191970" d="M353.1742,-102.9459C370.7276,-95.5354 392.9879,-86.3031 413,-78.5 421.4922,-75.1887 430.626,-71.7625 439.3688,-68.5479"/>
<polygon fill="#191970" stroke="#191970" points="351.7923,-99.7301 343.9507,-106.8548 354.5237,-106.1752 351.7923,-99.7301"/>
</g>
<!-- Node162 -->
<g id="node9" class="node">
<title>Node162</title>
<g id="a_node9"><a xlink:href="namespacenuspell.html#a82f70879bf54a6f7118852b75d8ddbfc" target="_top" xlink:title="nuspell::parse_compound_rule">
<polygon fill="#ffffff" stroke="#000000" points="586,-164 586,-183 735,-183 735,-164 586,-164"/>
<text text-anchor="middle" x="660.5" y="-171" font-family="Helvetica,sans-Serif" font-size="10.00" fill="#000000">nuspell::parse_compound_rule</text>
</a>
</g>
</g>
<!-- Node156&#45;&gt;Node162 -->
<g id="edge10" class="edge">
<title>Node156&#45;&gt;Node162</title>
<path fill="none" stroke="#191970" d="M352.867,-130.0128C370.2674,-136.9449 392.4799,-144.8811 413,-149.5 470.1732,-162.3692 536.306,-168.3386 585.8199,-171.107"/>
<polygon fill="#191970" stroke="#191970" points="353.8083,-126.6169 343.2271,-126.08 351.1641,-133.0982 353.8083,-126.6169"/>
</g>
<!-- Node158 -->
<g id="node5" class="node">
<title>Node158</title>
<g id="a_node5"><a xlink:href="namespacenuspell.html#a431abe5c2853b6f099bfedd5b6a4bb9f" target="_top" xlink:title="Parses an affix from an input stream. ">
<polygon fill="#ffffff" stroke="#000000" points="610,-50 610,-69 711,-69 711,-50 610,-50"/>
<text text-anchor="middle" x="660.5" y="-57" font-family="Helvetica,sans-Serif" font-size="10.00" fill="#000000">nuspell::parse_affix</text>
</a>
</g>
</g>
<!-- Node157&#45;&gt;Node158 -->
<g id="edge4" class="edge">
<title>Node157&#45;&gt;Node158</title>
<path fill="none" stroke="#191970" d="M536.5236,-85.819C561.9082,-80.4301 591.6607,-74.1139 615.6556,-69.0201"/>
<polygon fill="#191970" stroke="#191970" points="535.7244,-82.4106 526.6693,-87.911 537.1781,-89.258 535.7244,-82.4106"/>
</g>
<!-- Node157&#45;&gt;Node159 -->
<g id="edge6" class="edge">
<title>Node157&#45;&gt;Node159</title>
<path fill="none" stroke="#191970" d="M560.213,-101.9182C625.2547,-105.5689 715.5756,-110.6387 770.7849,-113.7376"/>
<polygon fill="#191970" stroke="#191970" points="560.181,-98.4109 550.0005,-101.3449 559.7886,-105.3999 560.181,-98.4109"/>
</g>
<!-- Node158&#45;&gt;Node159 -->
<g id="edge5" class="edge">
<title>Node158&#45;&gt;Node159</title>
<path fill="none" stroke="#191970" d="M701.25,-72.1511C712.249,-75.6954 724.1167,-79.6381 735,-83.5 750.6646,-89.0585 767.7787,-95.6089 782.5181,-101.4023"/>
<polygon fill="#191970" stroke="#191970" points="702.0369,-68.7283 691.4461,-69.0219 699.9084,-75.3969 702.0369,-68.7283"/>
</g>
<!-- Node160&#45;&gt;Node158 -->
<g id="edge8" class="edge">
<title>Node160&#45;&gt;Node158</title>
<path fill="none" stroke="#191970" d="M547.4121,-55.7093C567.9964,-56.3993 590.3734,-57.1494 609.7481,-57.7988"/>
<polygon fill="#191970" stroke="#191970" points="547.2672,-52.2026 537.1555,-55.3655 547.0326,-59.1987 547.2672,-52.2026"/>
</g>
<!-- Node161 -->
<g id="node8" class="node">
<title>Node161</title>
<g id="a_node8"><a xlink:href="structnuspell_1_1_aff___data.html#ad77b0f3b5fc59f2c1ba29e5cbf8dc7ed" target="_top" xlink:title="Parses an input stream offering dictionary information. ">
<polygon fill="#ffffff" stroke="#000000" points="611.5,-.5 611.5,-30.5 709.5,-30.5 709.5,-.5 611.5,-.5"/>
<text text-anchor="start" x="619.5" y="-18.5" font-family="Helvetica,sans-Serif" font-size="10.00" fill="#000000">nuspell::Aff_Data::</text>
<text text-anchor="middle" x="660.5" y="-7.5" font-family="Helvetica,sans-Serif" font-size="10.00" fill="#000000">parse_dic</text>
</a>
</g>
</g>
<!-- Node160&#45;&gt;Node161 -->
<g id="edge9" class="edge">
<title>Node160&#45;&gt;Node161</title>
<path fill="none" stroke="#191970" d="M547.0666,-39.5808C568.2777,-35.0779 591.4244,-30.1641 611.2452,-25.9563"/>
<polygon fill="#191970" stroke="#191970" points="546.2107,-36.1845 537.1555,-41.6849 547.6644,-43.0319 546.2107,-36.1845"/>
</g>
<!-- Node162&#45;&gt;Node159 -->
<g id="edge11" class="edge">
<title>Node162&#45;&gt;Node159</title>
<path fill="none" stroke="#191970" d="M701.25,-160.8489C712.249,-157.3046 724.1167,-153.3619 735,-149.5 750.6646,-143.9415 767.7787,-137.3911 782.5181,-131.5977"/>
<polygon fill="#191970" stroke="#191970" points="699.9084,-157.6031 691.4461,-163.9781 702.0369,-164.2717 699.9084,-157.6031"/>
</g>
</g>
</svg>
