<?xml version="1.0" encoding="UTF-8" standalone="no"?>
<!DOCTYPE svg PUBLIC "-//W3C//DTD SVG 1.1//EN"
 "http://www.w3.org/Graphics/SVG/1.1/DTD/svg11.dtd">
<!-- Generated by graphviz version 2.40.1 (20161225.0304)
 -->
<!-- Title: nuspell::parse_on_whitespace_v Pages: 1 -->
<svg width="369pt" height="28pt"
 viewBox="0.00 0.00 369.00 28.00" xmlns="http://www.w3.org/2000/svg" xmlns:xlink="http://www.w3.org/1999/xlink">
<g id="graph0" class="graph" transform="scale(1 1) rotate(0) translate(4 24)">
<title>nuspell::parse_on_whitespace_v</title>
<polygon fill="#ffffff" stroke="transparent" points="-4,4 -4,-24 365,-24 365,4 -4,4"/>
<!-- Node252 -->
<g id="node1" class="node">
<title>Node252</title>
<polygon fill="#bfbfbf" stroke="#000000" points="0,-.5 0,-19.5 158,-19.5 158,-.5 0,-.5"/>
<text text-anchor="middle" x="79" y="-7.5" font-family="Helvetica,sans-Serif" font-size="10.00" fill="#000000">nuspell::parse_on_whitespace_v</text>
</g>
<!-- Node253 -->
<g id="node2" class="node">
<title>Node253</title>
<g id="a_node2"><a xlink:href="main_8cxx.html#a3d8ece05cdc365860364604ebebab70d" target="_top" xlink:title="crude_parse_loop">
<polygon fill="#ffffff" stroke="#000000" points="194,-.5 194,-19.5 287,-19.5 287,-.5 194,-.5"/>
<text text-anchor="middle" x="240.5" y="-7.5" font-family="Helvetica,sans-Serif" font-size="10.00" fill="#000000">crude_parse_loop</text>
</a>
</g>
</g>
<!-- Node252&#45;&gt;Node253 -->
<g id="edge1" class="edge">
<title>Node252&#45;&gt;Node253</title>
<path fill="none" stroke="#191970" d="M168.547,-10C177.217,-10 185.7501,-10 193.7401,-10"/>
<polygon fill="#191970" stroke="#191970" points="168.3307,-6.5001 158.3306,-10 168.3306,-13.5001 168.3307,-6.5001"/>
</g>
<!-- Node254 -->
<g id="node3" class="node">
<title>Node254</title>
<g id="a_node3"><a xlink:href="main_8cxx.html#a0ddf1224851353fc92bfbff6f499fa97" target="_top" xlink:title="main">
<polygon fill="#ffffff" stroke="#000000" points="323,-.5 323,-19.5 361,-19.5 361,-.5 323,-.5"/>
<text text-anchor="middle" x="342" y="-7.5" font-family="Helvetica,sans-Serif" font-size="10.00" fill="#000000">main</text>
</a>
</g>
</g>
<!-- Node253&#45;&gt;Node254 -->
<g id="edge2" class="edge">
<title>Node253&#45;&gt;Node254</title>
<path fill="none" stroke="#191970" d="M297.3645,-10C306.4202,-10 315.2123,-10 322.5649,-10"/>
<polygon fill="#191970" stroke="#191970" points="297.0911,-6.5001 287.0911,-10 297.091,-13.5001 297.0911,-6.5001"/>
</g>
</g>
</svg>
