<?xml version="1.0" encoding="UTF-8" standalone="no"?>
<!DOCTYPE svg PUBLIC "-//W3C//DTD SVG 1.1//EN"
 "http://www.w3.org/Graphics/SVG/1.1/DTD/svg11.dtd">
<!-- Generated by graphviz version 2.40.1 (20161225.0304)
 -->
<!-- Title: nuspell::decode_flags Pages: 1 -->
<svg width="611pt" height="192pt"
 viewBox="0.00 0.00 611.00 191.50" xmlns="http://www.w3.org/2000/svg" xmlns:xlink="http://www.w3.org/1999/xlink">
<g id="graph0" class="graph" transform="scale(1 1) rotate(0) translate(4 187.5)">
<title>nuspell::decode_flags</title>
<polygon fill="#ffffff" stroke="transparent" points="-4,4 -4,-187.5 607,-187.5 607,4 -4,4"/>
<!-- Node41 -->
<g id="node1" class="node">
<title>Node41</title>
<polygon fill="#bfbfbf" stroke="#000000" points="0,-107 0,-126 111,-126 111,-107 0,-107"/>
<text text-anchor="middle" x="55.5" y="-114" font-family="Helvetica,sans-Serif" font-size="10.00" fill="#000000">nuspell::decode_flags</text>
</g>
<!-- Node42 -->
<g id="node2" class="node">
<title>Node42</title>
<g id="a_node2"><a xlink:href="namespacenuspell.html#ac3ed6d85c13c609eb5c51628b9dbac76" target="_top" xlink:title="Decodes a single flag from an input stream. ">
<polygon fill="#ffffff" stroke="#000000" points="147,-88 147,-107 284,-107 284,-88 147,-88"/>
<text text-anchor="middle" x="215.5" y="-95" font-family="Helvetica,sans-Serif" font-size="10.00" fill="#000000">nuspell::decode_single_flag</text>
</a>
</g>
</g>
<!-- Node41&#45;&gt;Node42 -->
<g id="edge1" class="edge">
<title>Node41&#45;&gt;Node42</title>
<path fill="none" stroke="#191970" d="M121.1923,-108.699C129.6503,-107.6946 138.329,-106.6641 146.8332,-105.6542"/>
<polygon fill="#191970" stroke="#191970" points="120.5287,-105.2532 111.0112,-109.908 121.3542,-112.2043 120.5287,-105.2532"/>
</g>
<!-- Node44 -->
<g id="node4" class="node">
<title>Node44</title>
<g id="a_node4"><a xlink:href="structnuspell_1_1_aff___data.html#a93b16b2b3938f607a18e3a67b9360b83" target="_top" xlink:title="Parses an input stream offering affix information. ">
<polygon fill="#ffffff" stroke="#000000" points="505,-101.5 505,-131.5 603,-131.5 603,-101.5 505,-101.5"/>
<text text-anchor="start" x="513" y="-119.5" font-family="Helvetica,sans-Serif" font-size="10.00" fill="#000000">nuspell::Aff_Data::</text>
<text text-anchor="middle" x="554" y="-108.5" font-family="Helvetica,sans-Serif" font-size="10.00" fill="#000000">parse_aff</text>
</a>
</g>
</g>
<!-- Node41&#45;&gt;Node44 -->
<g id="edge10" class="edge">
<title>Node41&#45;&gt;Node44</title>
<path fill="none" stroke="#191970" d="M121.1452,-118.9719C202.7145,-121.6566 346.1579,-125.1099 469,-121.5 480.5253,-121.1613 492.9184,-120.5648 504.5804,-119.8991"/>
<polygon fill="#191970" stroke="#191970" points="121.1369,-115.4697 111.0251,-118.6322 120.902,-122.4658 121.1369,-115.4697"/>
</g>
<!-- Node45 -->
<g id="node5" class="node">
<title>Node45</title>
<g id="a_node5"><a xlink:href="namespacenuspell.html#a3d81c446c32c53cd03e595f8fde9c2ab" target="_top" xlink:title="nuspell::decode_flags\l_possible_alias">
<polygon fill="#ffffff" stroke="#000000" points="160,-38.5 160,-68.5 271,-68.5 271,-38.5 160,-38.5"/>
<text text-anchor="start" x="168" y="-56.5" font-family="Helvetica,sans-Serif" font-size="10.00" fill="#000000">nuspell::decode_flags</text>
<text text-anchor="middle" x="215.5" y="-45.5" font-family="Helvetica,sans-Serif" font-size="10.00" fill="#000000">_possible_alias</text>
</a>
</g>
</g>
<!-- Node41&#45;&gt;Node45 -->
<g id="edge5" class="edge">
<title>Node41&#45;&gt;Node45</title>
<path fill="none" stroke="#191970" d="M87.1742,-102.9459C104.7276,-95.5354 126.9879,-86.3031 147,-78.5 155.4922,-75.1887 164.626,-71.7625 173.3688,-68.5479"/>
<polygon fill="#191970" stroke="#191970" points="85.7923,-99.7301 77.9507,-106.8548 88.5237,-106.1752 85.7923,-99.7301"/>
</g>
<!-- Node47 -->
<g id="node7" class="node">
<title>Node47</title>
<g id="a_node7"><a xlink:href="namespacenuspell.html#a82f70879bf54a6f7118852b75d8ddbfc" target="_top" xlink:title="nuspell::parse_compound_rule">
<polygon fill="#ffffff" stroke="#000000" points="320,-164 320,-183 469,-183 469,-164 320,-164"/>
<text text-anchor="middle" x="394.5" y="-171" font-family="Helvetica,sans-Serif" font-size="10.00" fill="#000000">nuspell::parse_compound_rule</text>
</a>
</g>
</g>
<!-- Node41&#45;&gt;Node47 -->
<g id="edge8" class="edge">
<title>Node41&#45;&gt;Node47</title>
<path fill="none" stroke="#191970" d="M86.867,-130.0128C104.2674,-136.9449 126.4799,-144.8811 147,-149.5 204.1732,-162.3692 270.306,-168.3386 319.8199,-171.107"/>
<polygon fill="#191970" stroke="#191970" points="87.8083,-126.6169 77.2271,-126.08 85.1641,-133.0982 87.8083,-126.6169"/>
</g>
<!-- Node43 -->
<g id="node3" class="node">
<title>Node43</title>
<g id="a_node3"><a xlink:href="namespacenuspell.html#a431abe5c2853b6f099bfedd5b6a4bb9f" target="_top" xlink:title="Parses an affix from an input stream. ">
<polygon fill="#ffffff" stroke="#000000" points="344,-50 344,-69 445,-69 445,-50 344,-50"/>
<text text-anchor="middle" x="394.5" y="-57" font-family="Helvetica,sans-Serif" font-size="10.00" fill="#000000">nuspell::parse_affix</text>
</a>
</g>
</g>
<!-- Node42&#45;&gt;Node43 -->
<g id="edge2" class="edge">
<title>Node42&#45;&gt;Node43</title>
<path fill="none" stroke="#191970" d="M270.5236,-85.819C295.9082,-80.4301 325.6607,-74.1139 349.6556,-69.0201"/>
<polygon fill="#191970" stroke="#191970" points="269.7244,-82.4106 260.6693,-87.911 271.1781,-89.258 269.7244,-82.4106"/>
</g>
<!-- Node42&#45;&gt;Node44 -->
<g id="edge4" class="edge">
<title>Node42&#45;&gt;Node44</title>
<path fill="none" stroke="#191970" d="M294.213,-101.9182C359.2547,-105.5689 449.5756,-110.6387 504.7849,-113.7376"/>
<polygon fill="#191970" stroke="#191970" points="294.181,-98.4109 284.0005,-101.3449 293.7886,-105.3999 294.181,-98.4109"/>
</g>
<!-- Node43&#45;&gt;Node44 -->
<g id="edge3" class="edge">
<title>Node43&#45;&gt;Node44</title>
<path fill="none" stroke="#191970" d="M435.25,-72.1511C446.249,-75.6954 458.1167,-79.6381 469,-83.5 484.6646,-89.0585 501.7787,-95.6089 516.5181,-101.4023"/>
<polygon fill="#191970" stroke="#191970" points="436.0369,-68.7283 425.4461,-69.0219 433.9084,-75.3969 436.0369,-68.7283"/>
</g>
<!-- Node45&#45;&gt;Node43 -->
<g id="edge6" class="edge">
<title>Node45&#45;&gt;Node43</title>
<path fill="none" stroke="#191970" d="M281.4121,-55.7093C301.9964,-56.3993 324.3734,-57.1494 343.7481,-57.7988"/>
<polygon fill="#191970" stroke="#191970" points="281.2672,-52.2026 271.1555,-55.3655 281.0326,-59.1987 281.2672,-52.2026"/>
</g>
<!-- Node46 -->
<g id="node6" class="node">
<title>Node46</title>
<g id="a_node6"><a xlink:href="structnuspell_1_1_aff___data.html#ad77b0f3b5fc59f2c1ba29e5cbf8dc7ed" target="_top" xlink:title="Parses an input stream offering dictionary information. ">
<polygon fill="#ffffff" stroke="#000000" points="345.5,-.5 345.5,-30.5 443.5,-30.5 443.5,-.5 345.5,-.5"/>
<text text-anchor="start" x="353.5" y="-18.5" font-family="Helvetica,sans-Serif" font-size="10.00" fill="#000000">nuspell::Aff_Data::</text>
<text text-anchor="middle" x="394.5" y="-7.5" font-family="Helvetica,sans-Serif" font-size="10.00" fill="#000000">parse_dic</text>
</a>
</g>
</g>
<!-- Node45&#45;&gt;Node46 -->
<g id="edge7" class="edge">
<title>Node45&#45;&gt;Node46</title>
<path fill="none" stroke="#191970" d="M281.0666,-39.5808C302.2777,-35.0779 325.4244,-30.1641 345.2452,-25.9563"/>
<polygon fill="#191970" stroke="#191970" points="280.2107,-36.1845 271.1555,-41.6849 281.6644,-43.0319 280.2107,-36.1845"/>
</g>
<!-- Node47&#45;&gt;Node44 -->
<g id="edge9" class="edge">
<title>Node47&#45;&gt;Node44</title>
<path fill="none" stroke="#191970" d="M435.25,-160.8489C446.249,-157.3046 458.1167,-153.3619 469,-149.5 484.6646,-143.9415 501.7787,-137.3911 516.5181,-131.5977"/>
<polygon fill="#191970" stroke="#191970" points="433.9084,-157.6031 425.4461,-163.9781 436.0369,-164.2717 433.9084,-157.6031"/>
</g>
</g>
</svg>
