<?xml version="1.0" encoding="UTF-8" standalone="no"?>
<!DOCTYPE svg PUBLIC "-//W3C//DTD SVG 1.1//EN"
 "http://www.w3.org/Graphics/SVG/1.1/DTD/svg11.dtd">
<!-- Generated by graphviz version 2.40.1 (20161225.0304)
 -->
<!-- Title: nuspell::to_wide Pages: 1 -->
<svg width="385pt" height="127pt"
 viewBox="0.00 0.00 385.00 126.50" xmlns="http://www.w3.org/2000/svg" xmlns:xlink="http://www.w3.org/1999/xlink">
<g id="graph0" class="graph" transform="scale(1 1) rotate(0) translate(4 122.5)">
<title>nuspell::to_wide</title>
<polygon fill="#ffffff" stroke="transparent" points="-4,4 -4,-122.5 381,-122.5 381,4 -4,4"/>
<!-- Node328 -->
<g id="node1" class="node">
<title>Node328</title>
<polygon fill="#bfbfbf" stroke="#000000" points="0,-44.5 0,-63.5 87,-63.5 87,-44.5 0,-44.5"/>
<text text-anchor="middle" x="43.5" y="-51.5" font-family="Helvetica,sans-Serif" font-size="10.00" fill="#000000">nuspell::to_wide</text>
</g>
<!-- Node329 -->
<g id="node2" class="node">
<title>Node329</title>
<g id="a_node2"><a xlink:href="classnuspell_1_1_locale___input.html#aee61c67e1b91158f66ffeb92e493facc" target="_top" xlink:title="nuspell::Locale_Input\l::cvt_for_byte_dict">
<polygon fill="#ffffff" stroke="#000000" points="123,-88 123,-118 232,-118 232,-88 123,-88"/>
<text text-anchor="start" x="131" y="-106" font-family="Helvetica,sans-Serif" font-size="10.00" fill="#000000">nuspell::Locale_Input</text>
<text text-anchor="middle" x="177.5" y="-95" font-family="Helvetica,sans-Serif" font-size="10.00" fill="#000000">::cvt_for_byte_dict</text>
</a>
</g>
</g>
<!-- Node328&#45;&gt;Node329 -->
<g id="edge1" class="edge">
<title>Node328&#45;&gt;Node329</title>
<path fill="none" stroke="#191970" d="M79.509,-67.1675C97.0438,-73.5795 118.2109,-81.3197 136.3785,-87.963"/>
<polygon fill="#191970" stroke="#191970" points="80.2485,-63.7113 69.6547,-63.564 77.8444,-70.2855 80.2485,-63.7113"/>
</g>
<!-- Node331 -->
<g id="node4" class="node">
<title>Node331</title>
<g id="a_node4"><a xlink:href="classnuspell_1_1_locale___input.html#a357636f55fc4301a1c49e421cfce7d7a" target="_top" xlink:title="nuspell::Locale_Input\l::cvt_for_u8_dict">
<polygon fill="#ffffff" stroke="#000000" points="123,-39 123,-69 232,-69 232,-39 123,-39"/>
<text text-anchor="start" x="131" y="-57" font-family="Helvetica,sans-Serif" font-size="10.00" fill="#000000">nuspell::Locale_Input</text>
<text text-anchor="middle" x="177.5" y="-46" font-family="Helvetica,sans-Serif" font-size="10.00" fill="#000000">::cvt_for_u8_dict</text>
</a>
</g>
</g>
<!-- Node328&#45;&gt;Node331 -->
<g id="edge3" class="edge">
<title>Node328&#45;&gt;Node331</title>
<path fill="none" stroke="#191970" d="M97.1713,-54C105.6575,-54 114.4411,-54 122.9473,-54"/>
<polygon fill="#191970" stroke="#191970" points="97.006,-50.5001 87.006,-54 97.0059,-57.5001 97.006,-50.5001"/>
</g>
<!-- Node333 -->
<g id="node6" class="node">
<title>Node333</title>
<g id="a_node6"><a xlink:href="regress_8cxx.html#adaa095873c4ebfe8c954f43bc50f7b76" target="_top" xlink:title="normal_loop">
<polygon fill="#ffffff" stroke="#000000" points="143,-.5 143,-19.5 212,-19.5 212,-.5 143,-.5"/>
<text text-anchor="middle" x="177.5" y="-7.5" font-family="Helvetica,sans-Serif" font-size="10.00" fill="#000000">normal_loop</text>
</a>
</g>
</g>
<!-- Node328&#45;&gt;Node333 -->
<g id="edge5" class="edge">
<title>Node328&#45;&gt;Node333</title>
<path fill="none" stroke="#191970" d="M82.2275,-41.2835C103.3607,-34.3442 129.0897,-25.8959 148.4807,-19.5287"/>
<polygon fill="#191970" stroke="#191970" points="80.985,-38.0076 72.576,-44.4527 83.1688,-44.6582 80.985,-38.0076"/>
</g>
<!-- Node330 -->
<g id="node3" class="node">
<title>Node330</title>
<g id="a_node3"><a xlink:href="classnuspell_1_1_locale___input.html#a5f609f46deca8b32c87fe21445d5ae2c" target="_top" xlink:title="nuspell::Locale_Input\l::cvt_for_byte_dict">
<polygon fill="#ffffff" stroke="#000000" points="268,-88 268,-118 377,-118 377,-88 268,-88"/>
<text text-anchor="start" x="276" y="-106" font-family="Helvetica,sans-Serif" font-size="10.00" fill="#000000">nuspell::Locale_Input</text>
<text text-anchor="middle" x="322.5" y="-95" font-family="Helvetica,sans-Serif" font-size="10.00" fill="#000000">::cvt_for_byte_dict</text>
</a>
</g>
</g>
<!-- Node329&#45;&gt;Node330 -->
<g id="edge2" class="edge">
<title>Node329&#45;&gt;Node330</title>
<path fill="none" stroke="#191970" d="M242.4621,-103C250.8588,-103 259.3919,-103 267.6042,-103"/>
<polygon fill="#191970" stroke="#191970" points="242.3183,-99.5001 232.3183,-103 242.3182,-106.5001 242.3183,-99.5001"/>
</g>
<!-- Node332 -->
<g id="node5" class="node">
<title>Node332</title>
<g id="a_node5"><a xlink:href="classnuspell_1_1_locale___input.html#aadce92dd66b99a15e44acefa2f883385" target="_top" xlink:title="nuspell::Locale_Input\l::cvt_for_u8_dict">
<polygon fill="#ffffff" stroke="#000000" points="268,-39 268,-69 377,-69 377,-39 268,-39"/>
<text text-anchor="start" x="276" y="-57" font-family="Helvetica,sans-Serif" font-size="10.00" fill="#000000">nuspell::Locale_Input</text>
<text text-anchor="middle" x="322.5" y="-46" font-family="Helvetica,sans-Serif" font-size="10.00" fill="#000000">::cvt_for_u8_dict</text>
</a>
</g>
</g>
<!-- Node331&#45;&gt;Node332 -->
<g id="edge4" class="edge">
<title>Node331&#45;&gt;Node332</title>
<path fill="none" stroke="#191970" d="M242.4621,-54C250.8588,-54 259.3919,-54 267.6042,-54"/>
<polygon fill="#191970" stroke="#191970" points="242.3183,-50.5001 232.3183,-54 242.3182,-57.5001 242.3183,-50.5001"/>
</g>
<!-- Node334 -->
<g id="node7" class="node">
<title>Node334</title>
<g id="a_node7"><a xlink:href="regress_8cxx.html#a0ddf1224851353fc92bfbff6f499fa97" target="_top" xlink:title="main">
<polygon fill="#ffffff" stroke="#000000" points="303.5,-.5 303.5,-19.5 341.5,-19.5 341.5,-.5 303.5,-.5"/>
<text text-anchor="middle" x="322.5" y="-7.5" font-family="Helvetica,sans-Serif" font-size="10.00" fill="#000000">main</text>
</a>
</g>
</g>
<!-- Node333&#45;&gt;Node334 -->
<g id="edge6" class="edge">
<title>Node333&#45;&gt;Node334</title>
<path fill="none" stroke="#191970" d="M222.2884,-10C249.4099,-10 282.622,-10 303.1725,-10"/>
<polygon fill="#191970" stroke="#191970" points="222.2311,-6.5001 212.2311,-10 222.2311,-13.5001 222.2311,-6.5001"/>
</g>
</g>
</svg>
