<?xml version="1.0" encoding="UTF-8" standalone="no"?>
<!DOCTYPE svg PUBLIC "-//W3C//DTD SVG 1.1//EN"
 "http://www.w3.org/Graphics/SVG/1.1/DTD/svg11.dtd">
<!-- Generated by graphviz version 2.40.1 (20161225.0304)
 -->
<!-- Title: nuspell::get_char_mask Pages: 1 -->
<svg width="266pt" height="88pt"
 viewBox="0.00 0.00 266.00 88.00" xmlns="http://www.w3.org/2000/svg" xmlns:xlink="http://www.w3.org/1999/xlink">
<g id="graph0" class="graph" transform="scale(1 1) rotate(0) translate(4 84)">
<title>nuspell::get_char_mask</title>
<polygon fill="#ffffff" stroke="transparent" points="-4,4 -4,-84 262,-84 262,4 -4,4"/>
<!-- Node87 -->
<g id="node1" class="node">
<title>Node87</title>
<polygon fill="#bfbfbf" stroke="#000000" points="0,-30 0,-49 120,-49 120,-30 0,-30"/>
<text text-anchor="middle" x="60" y="-37" font-family="Helvetica,sans-Serif" font-size="10.00" fill="#000000">nuspell::get_char_mask</text>
</g>
<!-- Node88 -->
<g id="node2" class="node">
<title>Node88</title>
<g id="a_node2"><a xlink:href="classnuspell_1_1my__ctype_3_01char_01_4.html#aa629be5306724a7801b5f55ca0e69bf6" target="_top" xlink:title="nuspell::my_ctype\&lt;\l char \&gt;::fill">
<polygon fill="#ffffff" stroke="#000000" points="156,-49.5 156,-79.5 258,-79.5 258,-49.5 156,-49.5"/>
<text text-anchor="start" x="164" y="-67.5" font-family="Helvetica,sans-Serif" font-size="10.00" fill="#000000">nuspell::my_ctype&lt;</text>
<text text-anchor="middle" x="207" y="-56.5" font-family="Helvetica,sans-Serif" font-size="10.00" fill="#000000"> char &gt;::fill</text>
</a>
</g>
</g>
<!-- Node87&#45;&gt;Node88 -->
<g id="edge1" class="edge">
<title>Node87&#45;&gt;Node88</title>
<path fill="none" stroke="#191970" d="M125.9722,-50.7198C136.0425,-52.4324 146.3034,-54.1774 155.9878,-55.8245"/>
<polygon fill="#191970" stroke="#191970" points="126.439,-47.249 115.9937,-49.0227 125.2654,-54.1499 126.439,-47.249"/>
</g>
<!-- Node89 -->
<g id="node3" class="node">
<title>Node89</title>
<g id="a_node3"><a xlink:href="classnuspell_1_1my__ctype_3_01wchar__t_01_4.html#acaec10c66af0ff8eb24c1f2be6fab177" target="_top" xlink:title="nuspell::my_ctype\&lt;\l wchar_t \&gt;::do_is">
<polygon fill="#ffffff" stroke="#000000" points="156,-.5 156,-30.5 258,-30.5 258,-.5 156,-.5"/>
<text text-anchor="start" x="164" y="-18.5" font-family="Helvetica,sans-Serif" font-size="10.00" fill="#000000">nuspell::my_ctype&lt;</text>
<text text-anchor="middle" x="207" y="-7.5" font-family="Helvetica,sans-Serif" font-size="10.00" fill="#000000"> wchar_t &gt;::do_is</text>
</a>
</g>
</g>
<!-- Node87&#45;&gt;Node89 -->
<g id="edge2" class="edge">
<title>Node87&#45;&gt;Node89</title>
<path fill="none" stroke="#191970" d="M128.443,-28.3256C137.651,-26.8223 146.9653,-25.3016 155.8042,-23.8585"/>
<polygon fill="#191970" stroke="#191970" points="127.826,-24.8799 118.5207,-29.9456 128.954,-31.7885 127.826,-24.8799"/>
</g>
</g>
</svg>
