<?xml version="1.0" encoding="UTF-8" standalone="no"?>
<!DOCTYPE svg PUBLIC "-//W3C//DTD SVG 1.1//EN"
 "http://www.w3.org/Graphics/SVG/1.1/DTD/svg11.dtd">
<!-- Generated by graphviz version 2.40.1 (20161225.0304)
 -->
<!-- Title: nuspell::to_narrow Pages: 1 -->
<svg width="342pt" height="186pt"
 viewBox="0.00 0.00 342.00 186.00" xmlns="http://www.w3.org/2000/svg" xmlns:xlink="http://www.w3.org/1999/xlink">
<g id="graph0" class="graph" transform="scale(1 1) rotate(0) translate(4 182)">
<title>nuspell::to_narrow</title>
<polygon fill="#ffffff" stroke="transparent" points="-4,4 -4,-182 338,-182 338,4 -4,4"/>
<!-- Node350 -->
<g id="node1" class="node">
<title>Node350</title>
<polygon fill="#bfbfbf" stroke="#000000" points="0,-62.5 0,-81.5 96,-81.5 96,-62.5 0,-62.5"/>
<text text-anchor="middle" x="48" y="-69.5" font-family="Helvetica,sans-Serif" font-size="10.00" fill="#000000">nuspell::to_narrow</text>
</g>
<!-- Node351 -->
<g id="node2" class="node">
<title>Node351</title>
<g id="a_node2"><a xlink:href="classnuspell_1_1_basic___dictionary.html#aca69f6d72c3f7f7a7e88a08fc8dd9712" target="_top" xlink:title="nuspell::Basic_Dictionary\l::external_to_internal\l_encoding">
<polygon fill="#ffffff" stroke="#000000" points="132,-136.5 132,-177.5 260,-177.5 260,-136.5 132,-136.5"/>
<text text-anchor="start" x="140" y="-165.5" font-family="Helvetica,sans-Serif" font-size="10.00" fill="#000000">nuspell::Basic_Dictionary</text>
<text text-anchor="start" x="140" y="-154.5" font-family="Helvetica,sans-Serif" font-size="10.00" fill="#000000">::external_to_internal</text>
<text text-anchor="middle" x="196" y="-143.5" font-family="Helvetica,sans-Serif" font-size="10.00" fill="#000000">_encoding</text>
</a>
</g>
</g>
<!-- Node350&#45;&gt;Node351 -->
<g id="edge1" class="edge">
<title>Node350&#45;&gt;Node351</title>
<path fill="none" stroke="#191970" d="M69.7755,-87.482C86.4292,-99.0182 110.1669,-114.8154 132,-127 137.7864,-130.2293 143.9793,-133.431 150.1497,-136.4732"/>
<polygon fill="#191970" stroke="#191970" points="71.5101,-84.4242 61.3093,-81.5614 67.4984,-90.1606 71.5101,-84.4242"/>
</g>
<!-- Node352 -->
<g id="node3" class="node">
<title>Node352</title>
<g id="a_node3"><a xlink:href="classnuspell_1_1_basic___dictionary.html#af376c24827a246f67eaeb81002cf40d2" target="_top" xlink:title="nuspell::Basic_Dictionary\l::internal_to_external\l_encoding">
<polygon fill="#ffffff" stroke="#000000" points="132,-76.5 132,-117.5 260,-117.5 260,-76.5 132,-76.5"/>
<text text-anchor="start" x="140" y="-105.5" font-family="Helvetica,sans-Serif" font-size="10.00" fill="#000000">nuspell::Basic_Dictionary</text>
<text text-anchor="start" x="140" y="-94.5" font-family="Helvetica,sans-Serif" font-size="10.00" fill="#000000">::internal_to_external</text>
<text text-anchor="middle" x="196" y="-83.5" font-family="Helvetica,sans-Serif" font-size="10.00" fill="#000000">_encoding</text>
</a>
</g>
</g>
<!-- Node350&#45;&gt;Node352 -->
<g id="edge2" class="edge">
<title>Node350&#45;&gt;Node352</title>
<path fill="none" stroke="#191970" d="M106.1371,-81.8205C114.5477,-83.2412 123.2452,-84.7103 131.7669,-86.1498"/>
<polygon fill="#191970" stroke="#191970" points="106.4947,-78.3313 96.0514,-80.1168 105.3287,-85.2336 106.4947,-78.3313"/>
</g>
<!-- Node353 -->
<g id="node4" class="node">
<title>Node353</title>
<g id="a_node4"><a xlink:href="namespacenuspell.html#a4bbcd07d775ff9e19d67c9c68167dbf2" target="_top" xlink:title="nuspell::to_narrow">
<polygon fill="#ffffff" stroke="#000000" points="148,-38.5 148,-57.5 244,-57.5 244,-38.5 148,-38.5"/>
<text text-anchor="middle" x="196" y="-45.5" font-family="Helvetica,sans-Serif" font-size="10.00" fill="#000000">nuspell::to_narrow</text>
</a>
</g>
</g>
<!-- Node350&#45;&gt;Node353 -->
<g id="edge3" class="edge">
<title>Node350&#45;&gt;Node353</title>
<path fill="none" stroke="#191970" d="M105.9934,-62.5957C119.8797,-60.3438 134.5558,-57.9639 147.9367,-55.7941"/>
<polygon fill="#191970" stroke="#191970" points="105.3621,-59.1522 96.0514,-64.2079 106.4827,-66.062 105.3621,-59.1522"/>
</g>
<!-- Node354 -->
<g id="node5" class="node">
<title>Node354</title>
<g id="a_node5"><a xlink:href="regress_8cxx.html#a345ea832decc7c2932cf431ea1dc1cbf" target="_top" xlink:title="normal_loop">
<polygon fill="#ffffff" stroke="#000000" points="161.5,-.5 161.5,-19.5 230.5,-19.5 230.5,-.5 161.5,-.5"/>
<text text-anchor="middle" x="196" y="-7.5" font-family="Helvetica,sans-Serif" font-size="10.00" fill="#000000">normal_loop</text>
</a>
</g>
</g>
<!-- Node350&#45;&gt;Node354 -->
<g id="edge4" class="edge">
<title>Node350&#45;&gt;Node354</title>
<path fill="none" stroke="#191970" d="M73.563,-57.351C89.9176,-48.3748 111.7849,-37.0942 132,-29 141.3611,-25.2517 151.7512,-21.8567 161.3897,-19.0078"/>
<polygon fill="#191970" stroke="#191970" points="71.6588,-54.4053 64.6248,-62.3283 75.0644,-60.521 71.6588,-54.4053"/>
</g>
<!-- Node355 -->
<g id="node6" class="node">
<title>Node355</title>
<g id="a_node6"><a xlink:href="regress_8cxx.html#a0ddf1224851353fc92bfbff6f499fa97" target="_top" xlink:title="main">
<polygon fill="#ffffff" stroke="#000000" points="296,-.5 296,-19.5 334,-19.5 334,-.5 296,-.5"/>
<text text-anchor="middle" x="315" y="-7.5" font-family="Helvetica,sans-Serif" font-size="10.00" fill="#000000">main</text>
</a>
</g>
</g>
<!-- Node354&#45;&gt;Node355 -->
<g id="edge5" class="edge">
<title>Node354&#45;&gt;Node355</title>
<path fill="none" stroke="#191970" d="M240.7673,-10C259.8451,-10 281.0793,-10 295.9332,-10"/>
<polygon fill="#191970" stroke="#191970" points="240.7397,-6.5001 230.7396,-10 240.7396,-13.5001 240.7397,-6.5001"/>
</g>
</g>
</svg>
