<?xml version="1.0" encoding="UTF-8" standalone="no"?>
<!DOCTYPE svg PUBLIC "-//W3C//DTD SVG 1.1//EN"
 "http://www.w3.org/Graphics/SVG/1.1/DTD/svg11.dtd">
<!-- Generated by graphviz version 2.40.1 (20161225.0304)
 -->
<!-- Title: std::operator&lt;&lt; Pages: 1 -->
<svg width="270pt" height="28pt"
 viewBox="0.00 0.00 270.00 28.00" xmlns="http://www.w3.org/2000/svg" xmlns:xlink="http://www.w3.org/1999/xlink">
<g id="graph0" class="graph" transform="scale(1 1) rotate(0) translate(4 24)">
<title>std::operator&lt;&lt;</title>
<polygon fill="#ffffff" stroke="transparent" points="-4,4 -4,-24 266,-24 266,4 -4,4"/>
<!-- Node1 -->
<g id="node1" class="node">
<title>Node1</title>
<polygon fill="#bfbfbf" stroke="#000000" points="0,-.5 0,-19.5 83,-19.5 83,-.5 0,-.5"/>
<text text-anchor="middle" x="41.5" y="-7.5" font-family="Helvetica,sans-Serif" font-size="10.00" fill="#000000">std::operator&lt;&lt;</text>
</g>
<!-- Node2 -->
<g id="node2" class="node">
<title>Node2</title>
<g id="a_node2"><a xlink:href="regress_8cxx.html#adaa095873c4ebfe8c954f43bc50f7b76" target="_top" xlink:title="normal_loop">
<polygon fill="#ffffff" stroke="#000000" points="119,-.5 119,-19.5 188,-19.5 188,-.5 119,-.5"/>
<text text-anchor="middle" x="153.5" y="-7.5" font-family="Helvetica,sans-Serif" font-size="10.00" fill="#000000">normal_loop</text>
</a>
</g>
</g>
<!-- Node1&#45;&gt;Node2 -->
<g id="edge1" class="edge">
<title>Node1&#45;&gt;Node2</title>
<path fill="none" stroke="#191970" d="M93.232,-10C101.8693,-10 110.6429,-10 118.7243,-10"/>
<polygon fill="#191970" stroke="#191970" points="93.2047,-6.5001 83.2047,-10 93.2046,-13.5001 93.2047,-6.5001"/>
</g>
<!-- Node3 -->
<g id="node3" class="node">
<title>Node3</title>
<g id="a_node3"><a xlink:href="regress_8cxx.html#a0ddf1224851353fc92bfbff6f499fa97" target="_top" xlink:title="main">
<polygon fill="#ffffff" stroke="#000000" points="224,-.5 224,-19.5 262,-19.5 262,-.5 224,-.5"/>
<text text-anchor="middle" x="243" y="-7.5" font-family="Helvetica,sans-Serif" font-size="10.00" fill="#000000">main</text>
</a>
</g>
</g>
<!-- Node2&#45;&gt;Node3 -->
<g id="edge2" class="edge">
<title>Node2&#45;&gt;Node3</title>
<path fill="none" stroke="#191970" d="M198.2688,-10C207.3428,-10 216.4158,-10 223.9954,-10"/>
<polygon fill="#191970" stroke="#191970" points="198.1031,-6.5001 188.103,-10 198.103,-13.5001 198.1031,-6.5001"/>
</g>
</g>
</svg>
