<?xml version="1.0" encoding="UTF-8" standalone="no"?>
<!DOCTYPE svg PUBLIC "-//W3C//DTD SVG 1.1//EN"
 "http://www.w3.org/Graphics/SVG/1.1/DTD/svg11.dtd">
<!-- Generated by graphviz version 2.40.1 (20161225.0304)
 -->
<!-- Title: nuspell::latin1_to_ucs2 Pages: 1 -->
<svg width="763pt" height="192pt"
 viewBox="0.00 0.00 763.00 191.50" xmlns="http://www.w3.org/2000/svg" xmlns:xlink="http://www.w3.org/1999/xlink">
<g id="graph0" class="graph" transform="scale(1 1) rotate(0) translate(4 187.5)">
<title>nuspell::latin1_to_ucs2</title>
<polygon fill="#ffffff" stroke="transparent" points="-4,4 -4,-187.5 759,-187.5 759,4 -4,4"/>
<!-- Node176 -->
<g id="node1" class="node">
<title>Node176</title>
<polygon fill="#bfbfbf" stroke="#000000" points="0,-107 0,-126 116,-126 116,-107 0,-107"/>
<text text-anchor="middle" x="58" y="-114" font-family="Helvetica,sans-Serif" font-size="10.00" fill="#000000">nuspell::latin1_to_ucs2</text>
</g>
<!-- Node177 -->
<g id="node2" class="node">
<title>Node177</title>
<g id="a_node2"><a xlink:href="namespacenuspell.html#adbb8e053a44129d0f51014facd48b7f9" target="_top" xlink:title="Decodes flags. ">
<polygon fill="#ffffff" stroke="#000000" points="152,-107 152,-126 263,-126 263,-107 152,-107"/>
<text text-anchor="middle" x="207.5" y="-114" font-family="Helvetica,sans-Serif" font-size="10.00" fill="#000000">nuspell::decode_flags</text>
</a>
</g>
</g>
<!-- Node176&#45;&gt;Node177 -->
<g id="edge1" class="edge">
<title>Node176&#45;&gt;Node177</title>
<path fill="none" stroke="#191970" d="M126.4365,-116.5C134.8729,-116.5 143.4173,-116.5 151.6357,-116.5"/>
<polygon fill="#191970" stroke="#191970" points="126.2287,-113.0001 116.2287,-116.5 126.2287,-120.0001 126.2287,-113.0001"/>
</g>
<!-- Node178 -->
<g id="node3" class="node">
<title>Node178</title>
<g id="a_node3"><a xlink:href="namespacenuspell.html#ac3ed6d85c13c609eb5c51628b9dbac76" target="_top" xlink:title="Decodes a single flag from an input stream. ">
<polygon fill="#ffffff" stroke="#000000" points="299,-88 299,-107 436,-107 436,-88 299,-88"/>
<text text-anchor="middle" x="367.5" y="-95" font-family="Helvetica,sans-Serif" font-size="10.00" fill="#000000">nuspell::decode_single_flag</text>
</a>
</g>
</g>
<!-- Node177&#45;&gt;Node178 -->
<g id="edge2" class="edge">
<title>Node177&#45;&gt;Node178</title>
<path fill="none" stroke="#191970" d="M273.1923,-108.699C281.6503,-107.6946 290.329,-106.6641 298.8332,-105.6542"/>
<polygon fill="#191970" stroke="#191970" points="272.5287,-105.2532 263.0112,-109.908 273.3542,-112.2043 272.5287,-105.2532"/>
</g>
<!-- Node180 -->
<g id="node5" class="node">
<title>Node180</title>
<g id="a_node5"><a xlink:href="structnuspell_1_1_aff___data.html#a93b16b2b3938f607a18e3a67b9360b83" target="_top" xlink:title="Parses an input stream offering affix information. ">
<polygon fill="#ffffff" stroke="#000000" points="657,-101.5 657,-131.5 755,-131.5 755,-101.5 657,-101.5"/>
<text text-anchor="start" x="665" y="-119.5" font-family="Helvetica,sans-Serif" font-size="10.00" fill="#000000">nuspell::Aff_Data::</text>
<text text-anchor="middle" x="706" y="-108.5" font-family="Helvetica,sans-Serif" font-size="10.00" fill="#000000">parse_aff</text>
</a>
</g>
</g>
<!-- Node177&#45;&gt;Node180 -->
<g id="edge11" class="edge">
<title>Node177&#45;&gt;Node180</title>
<path fill="none" stroke="#191970" d="M273.1452,-118.9719C354.7145,-121.6566 498.1579,-125.1099 621,-121.5 632.5253,-121.1613 644.9184,-120.5648 656.5804,-119.8991"/>
<polygon fill="#191970" stroke="#191970" points="273.1369,-115.4697 263.0251,-118.6322 272.902,-122.4658 273.1369,-115.4697"/>
</g>
<!-- Node181 -->
<g id="node6" class="node">
<title>Node181</title>
<g id="a_node6"><a xlink:href="namespacenuspell.html#a3d81c446c32c53cd03e595f8fde9c2ab" target="_top" xlink:title="nuspell::decode_flags\l_possible_alias">
<polygon fill="#ffffff" stroke="#000000" points="312,-38.5 312,-68.5 423,-68.5 423,-38.5 312,-38.5"/>
<text text-anchor="start" x="320" y="-56.5" font-family="Helvetica,sans-Serif" font-size="10.00" fill="#000000">nuspell::decode_flags</text>
<text text-anchor="middle" x="367.5" y="-45.5" font-family="Helvetica,sans-Serif" font-size="10.00" fill="#000000">_possible_alias</text>
</a>
</g>
</g>
<!-- Node177&#45;&gt;Node181 -->
<g id="edge6" class="edge">
<title>Node177&#45;&gt;Node181</title>
<path fill="none" stroke="#191970" d="M239.1742,-102.9459C256.7276,-95.5354 278.9879,-86.3031 299,-78.5 307.4922,-75.1887 316.626,-71.7625 325.3688,-68.5479"/>
<polygon fill="#191970" stroke="#191970" points="237.7923,-99.7301 229.9507,-106.8548 240.5237,-106.1752 237.7923,-99.7301"/>
</g>
<!-- Node183 -->
<g id="node8" class="node">
<title>Node183</title>
<g id="a_node8"><a xlink:href="namespacenuspell.html#a82f70879bf54a6f7118852b75d8ddbfc" target="_top" xlink:title="nuspell::parse_compound_rule">
<polygon fill="#ffffff" stroke="#000000" points="472,-164 472,-183 621,-183 621,-164 472,-164"/>
<text text-anchor="middle" x="546.5" y="-171" font-family="Helvetica,sans-Serif" font-size="10.00" fill="#000000">nuspell::parse_compound_rule</text>
</a>
</g>
</g>
<!-- Node177&#45;&gt;Node183 -->
<g id="edge9" class="edge">
<title>Node177&#45;&gt;Node183</title>
<path fill="none" stroke="#191970" d="M238.867,-130.0128C256.2674,-136.9449 278.4799,-144.8811 299,-149.5 356.1732,-162.3692 422.306,-168.3386 471.8199,-171.107"/>
<polygon fill="#191970" stroke="#191970" points="239.8083,-126.6169 229.2271,-126.08 237.1641,-133.0982 239.8083,-126.6169"/>
</g>
<!-- Node179 -->
<g id="node4" class="node">
<title>Node179</title>
<g id="a_node4"><a xlink:href="namespacenuspell.html#a431abe5c2853b6f099bfedd5b6a4bb9f" target="_top" xlink:title="Parses an affix from an input stream. ">
<polygon fill="#ffffff" stroke="#000000" points="496,-50 496,-69 597,-69 597,-50 496,-50"/>
<text text-anchor="middle" x="546.5" y="-57" font-family="Helvetica,sans-Serif" font-size="10.00" fill="#000000">nuspell::parse_affix</text>
</a>
</g>
</g>
<!-- Node178&#45;&gt;Node179 -->
<g id="edge3" class="edge">
<title>Node178&#45;&gt;Node179</title>
<path fill="none" stroke="#191970" d="M422.5236,-85.819C447.9082,-80.4301 477.6607,-74.1139 501.6556,-69.0201"/>
<polygon fill="#191970" stroke="#191970" points="421.7244,-82.4106 412.6693,-87.911 423.1781,-89.258 421.7244,-82.4106"/>
</g>
<!-- Node178&#45;&gt;Node180 -->
<g id="edge5" class="edge">
<title>Node178&#45;&gt;Node180</title>
<path fill="none" stroke="#191970" d="M446.213,-101.9182C511.2547,-105.5689 601.5756,-110.6387 656.7849,-113.7376"/>
<polygon fill="#191970" stroke="#191970" points="446.181,-98.4109 436.0005,-101.3449 445.7886,-105.3999 446.181,-98.4109"/>
</g>
<!-- Node179&#45;&gt;Node180 -->
<g id="edge4" class="edge">
<title>Node179&#45;&gt;Node180</title>
<path fill="none" stroke="#191970" d="M587.25,-72.1511C598.249,-75.6954 610.1167,-79.6381 621,-83.5 636.6646,-89.0585 653.7787,-95.6089 668.5181,-101.4023"/>
<polygon fill="#191970" stroke="#191970" points="588.0369,-68.7283 577.4461,-69.0219 585.9084,-75.3969 588.0369,-68.7283"/>
</g>
<!-- Node181&#45;&gt;Node179 -->
<g id="edge7" class="edge">
<title>Node181&#45;&gt;Node179</title>
<path fill="none" stroke="#191970" d="M433.4121,-55.7093C453.9964,-56.3993 476.3734,-57.1494 495.7481,-57.7988"/>
<polygon fill="#191970" stroke="#191970" points="433.2672,-52.2026 423.1555,-55.3655 433.0326,-59.1987 433.2672,-52.2026"/>
</g>
<!-- Node182 -->
<g id="node7" class="node">
<title>Node182</title>
<g id="a_node7"><a xlink:href="structnuspell_1_1_aff___data.html#ad77b0f3b5fc59f2c1ba29e5cbf8dc7ed" target="_top" xlink:title="Parses an input stream offering dictionary information. ">
<polygon fill="#ffffff" stroke="#000000" points="497.5,-.5 497.5,-30.5 595.5,-30.5 595.5,-.5 497.5,-.5"/>
<text text-anchor="start" x="505.5" y="-18.5" font-family="Helvetica,sans-Serif" font-size="10.00" fill="#000000">nuspell::Aff_Data::</text>
<text text-anchor="middle" x="546.5" y="-7.5" font-family="Helvetica,sans-Serif" font-size="10.00" fill="#000000">parse_dic</text>
</a>
</g>
</g>
<!-- Node181&#45;&gt;Node182 -->
<g id="edge8" class="edge">
<title>Node181&#45;&gt;Node182</title>
<path fill="none" stroke="#191970" d="M433.0666,-39.5808C454.2777,-35.0779 477.4244,-30.1641 497.2452,-25.9563"/>
<polygon fill="#191970" stroke="#191970" points="432.2107,-36.1845 423.1555,-41.6849 433.6644,-43.0319 432.2107,-36.1845"/>
</g>
<!-- Node183&#45;&gt;Node180 -->
<g id="edge10" class="edge">
<title>Node183&#45;&gt;Node180</title>
<path fill="none" stroke="#191970" d="M587.25,-160.8489C598.249,-157.3046 610.1167,-153.3619 621,-149.5 636.6646,-143.9415 653.7787,-137.3911 668.5181,-131.5977"/>
<polygon fill="#191970" stroke="#191970" points="585.9084,-157.6031 577.4461,-163.9781 588.0369,-164.2717 585.9084,-157.6031"/>
</g>
</g>
</svg>
