<?xml version="1.0" encoding="UTF-8" standalone="no"?>
<!DOCTYPE svg PUBLIC "-//W3C//DTD SVG 1.1//EN"
 "http://www.w3.org/Graphics/SVG/1.1/DTD/svg11.dtd">
<!-- Generated by graphviz version 2.40.1 (20161225.0304)
 -->
<!-- Title: nuspell::prefix Pages: 1 -->
<svg width="434pt" height="235pt"
 viewBox="0.00 0.00 434.00 235.00" xmlns="http://www.w3.org/2000/svg" xmlns:xlink="http://www.w3.org/1999/xlink">
<g id="graph0" class="graph" transform="scale(1 1) rotate(0) translate(4 231)">
<title>nuspell::prefix</title>
<polygon fill="#ffffff" stroke="transparent" points="-4,4 -4,-231 430,-231 430,4 -4,4"/>
<!-- Node256 -->
<g id="node1" class="node">
<title>Node256</title>
<polygon fill="#bfbfbf" stroke="#000000" points="0,-104 0,-123 77,-123 77,-104 0,-104"/>
<text text-anchor="middle" x="38.5" y="-111" font-family="Helvetica,sans-Serif" font-size="10.00" fill="#000000">nuspell::prefix</text>
</g>
<!-- Node257 -->
<g id="node2" class="node">
<title>Node257</title>
<g id="a_node2"><a xlink:href="classnuspell_1_1_prefix___iter.html#a4025677c5463b53668083a8ffc3e08f3" target="_top" xlink:title="nuspell::Prefix_Iter\l::Prefix_Iter">
<polygon fill="#ffffff" stroke="#000000" points="138.5,-196.5 138.5,-226.5 236.5,-226.5 236.5,-196.5 138.5,-196.5"/>
<text text-anchor="start" x="146.5" y="-214.5" font-family="Helvetica,sans-Serif" font-size="10.00" fill="#000000">nuspell::Prefix_Iter</text>
<text text-anchor="middle" x="187.5" y="-203.5" font-family="Helvetica,sans-Serif" font-size="10.00" fill="#000000">::Prefix_Iter</text>
</a>
</g>
</g>
<!-- Node256&#45;&gt;Node257 -->
<g id="edge1" class="edge">
<title>Node256&#45;&gt;Node257</title>
<path fill="none" stroke="#191970" d="M51.9761,-131.0219C65.6727,-147.7225 88.3359,-172.4853 113,-187.5 120.7767,-192.2342 129.5858,-196.1342 138.3542,-199.3125"/>
<polygon fill="#191970" stroke="#191970" points="54.6413,-128.7505 45.6678,-123.1178 49.1702,-133.1171 54.6413,-128.7505"/>
</g>
<!-- Node258 -->
<g id="node3" class="node">
<title>Node258</title>
<g id="a_node3"><a xlink:href="classnuspell_1_1_prefix___iter.html#a84195c0f4b0218a1ae7b2a7e82b87c64" target="_top" xlink:title="nuspell::Prefix_Iter\l::operator++">
<polygon fill="#ffffff" stroke="#000000" points="138.5,-147.5 138.5,-177.5 236.5,-177.5 236.5,-147.5 138.5,-147.5"/>
<text text-anchor="start" x="146.5" y="-165.5" font-family="Helvetica,sans-Serif" font-size="10.00" fill="#000000">nuspell::Prefix_Iter</text>
<text text-anchor="middle" x="187.5" y="-154.5" font-family="Helvetica,sans-Serif" font-size="10.00" fill="#000000">::operator++</text>
</a>
</g>
</g>
<!-- Node256&#45;&gt;Node258 -->
<g id="edge2" class="edge">
<title>Node256&#45;&gt;Node258</title>
<path fill="none" stroke="#191970" d="M76.2988,-126.2829C88.0487,-130.2299 101.0524,-134.5711 113,-138.5 121.9069,-141.429 131.4246,-144.5226 140.5769,-147.4793"/>
<polygon fill="#191970" stroke="#191970" points="77.3686,-122.9501 66.7745,-123.0778 75.136,-129.5845 77.3686,-122.9501"/>
</g>
<!-- Node259 -->
<g id="node4" class="node">
<title>Node259</title>
<g id="a_node4"><a xlink:href="namespacenuspell.html#a5fcde42a9d5b1fae08e198eb417df1a5" target="_top" xlink:title="Gets the default search paths. ">
<polygon fill="#ffffff" stroke="#000000" points="137,-98.5 137,-128.5 238,-128.5 238,-98.5 137,-98.5"/>
<text text-anchor="start" x="145" y="-116.5" font-family="Helvetica,sans-Serif" font-size="10.00" fill="#000000">nuspell::get_default</text>
<text text-anchor="middle" x="187.5" y="-105.5" font-family="Helvetica,sans-Serif" font-size="10.00" fill="#000000">_search_paths</text>
</a>
</g>
</g>
<!-- Node256&#45;&gt;Node259 -->
<g id="edge3" class="edge">
<title>Node256&#45;&gt;Node259</title>
<path fill="none" stroke="#191970" d="M87.3919,-113.5C103.252,-113.5 120.8751,-113.5 136.8597,-113.5"/>
<polygon fill="#191970" stroke="#191970" points="87.2591,-110.0001 77.259,-113.5 87.259,-117.0001 87.2591,-110.0001"/>
</g>
<!-- Node261 -->
<g id="node6" class="node">
<title>Node261</title>
<g id="a_node6"><a xlink:href="namespacenuspell.html#a18da8631cb0b014f0f918cf444946921" target="_top" xlink:title="Gets the LibreOffice search paths. ">
<polygon fill="#ffffff" stroke="#000000" points="130.5,-49.5 130.5,-79.5 244.5,-79.5 244.5,-49.5 130.5,-49.5"/>
<text text-anchor="start" x="138.5" y="-67.5" font-family="Helvetica,sans-Serif" font-size="10.00" fill="#000000">nuspell::get_libreoffice</text>
<text text-anchor="middle" x="187.5" y="-56.5" font-family="Helvetica,sans-Serif" font-size="10.00" fill="#000000">_paths</text>
</a>
</g>
</g>
<!-- Node256&#45;&gt;Node261 -->
<g id="edge5" class="edge">
<title>Node256&#45;&gt;Node261</title>
<path fill="none" stroke="#191970" d="M77.1799,-100.7798C96.9359,-94.2828 121.1021,-86.3355 141.7754,-79.537"/>
<polygon fill="#191970" stroke="#191970" points="75.9885,-97.4871 67.5824,-103.936 78.1753,-104.1367 75.9885,-97.4871"/>
</g>
<!-- Node263 -->
<g id="node8" class="node">
<title>Node263</title>
<g id="a_node8"><a xlink:href="namespacenuspell.html#a2dacde753f0b71fe8bea9b1fc394e517" target="_top" xlink:title="Gets the Apache OpenOffice search paths. ">
<polygon fill="#ffffff" stroke="#000000" points="113,-.5 113,-30.5 262,-30.5 262,-.5 113,-.5"/>
<text text-anchor="start" x="121" y="-18.5" font-family="Helvetica,sans-Serif" font-size="10.00" fill="#000000">nuspell::get_apacheopenoffice</text>
<text text-anchor="middle" x="187.5" y="-7.5" font-family="Helvetica,sans-Serif" font-size="10.00" fill="#000000">_paths</text>
</a>
</g>
</g>
<!-- Node256&#45;&gt;Node263 -->
<g id="edge7" class="edge">
<title>Node256&#45;&gt;Node263</title>
<path fill="none" stroke="#191970" d="M52.5124,-95.7555C66.3174,-79.3443 88.8035,-55.3182 113,-40.5 119.1663,-36.7237 125.9725,-33.4395 132.8895,-30.6055"/>
<polygon fill="#191970" stroke="#191970" points="49.7528,-93.6011 46.1215,-103.5543 55.1671,-98.038 49.7528,-93.6011"/>
</g>
<!-- Node260 -->
<g id="node5" class="node">
<title>Node260</title>
<g id="a_node5"><a xlink:href="classnuspell_1_1_finder.html#aa74d4af869f64d4aa3e39be572265fcb" target="_top" xlink:title="Adds the default search paths which have been found to the paths. ">
<polygon fill="#ffffff" stroke="#000000" points="311,-98.5 311,-128.5 413,-128.5 413,-98.5 311,-98.5"/>
<text text-anchor="start" x="319" y="-116.5" font-family="Helvetica,sans-Serif" font-size="10.00" fill="#000000">nuspell::Finder::add</text>
<text text-anchor="middle" x="362" y="-105.5" font-family="Helvetica,sans-Serif" font-size="10.00" fill="#000000">_default_paths</text>
</a>
</g>
</g>
<!-- Node259&#45;&gt;Node260 -->
<g id="edge4" class="edge">
<title>Node259&#45;&gt;Node260</title>
<path fill="none" stroke="#191970" d="M248.5719,-113.5C268.9616,-113.5 291.4534,-113.5 310.995,-113.5"/>
<polygon fill="#191970" stroke="#191970" points="248.4418,-110.0001 238.4417,-113.5 248.4417,-117.0001 248.4418,-110.0001"/>
</g>
<!-- Node262 -->
<g id="node7" class="node">
<title>Node262</title>
<g id="a_node7"><a xlink:href="classnuspell_1_1_finder.html#abf175ec83ef09d127e9203dc2a9bbdb0" target="_top" xlink:title="Adds the LibreOffice search paths which have been found to the paths. ">
<polygon fill="#ffffff" stroke="#000000" points="311,-49.5 311,-79.5 413,-79.5 413,-49.5 311,-49.5"/>
<text text-anchor="start" x="319" y="-67.5" font-family="Helvetica,sans-Serif" font-size="10.00" fill="#000000">nuspell::Finder::add</text>
<text text-anchor="middle" x="362" y="-56.5" font-family="Helvetica,sans-Serif" font-size="10.00" fill="#000000">_libreoffice_paths</text>
</a>
</g>
</g>
<!-- Node261&#45;&gt;Node262 -->
<g id="edge6" class="edge">
<title>Node261&#45;&gt;Node262</title>
<path fill="none" stroke="#191970" d="M254.8333,-64.5C273.4638,-64.5 293.3742,-64.5 310.9151,-64.5"/>
<polygon fill="#191970" stroke="#191970" points="254.6379,-61.0001 244.6378,-64.5 254.6378,-68.0001 254.6379,-61.0001"/>
</g>
<!-- Node264 -->
<g id="node9" class="node">
<title>Node264</title>
<g id="a_node9"><a xlink:href="classnuspell_1_1_finder.html#a5b3919b143e570a42fce848ba3a95b82" target="_top" xlink:title="Adds the Apache OpenOffice search paths which have been found to the paths. ">
<polygon fill="#ffffff" stroke="#000000" points="298,-.5 298,-30.5 426,-30.5 426,-.5 298,-.5"/>
<text text-anchor="start" x="306" y="-18.5" font-family="Helvetica,sans-Serif" font-size="10.00" fill="#000000">nuspell::Finder::add</text>
<text text-anchor="middle" x="362" y="-7.5" font-family="Helvetica,sans-Serif" font-size="10.00" fill="#000000">_apacheopenoffice_paths</text>
</a>
</g>
</g>
<!-- Node263&#45;&gt;Node264 -->
<g id="edge8" class="edge">
<title>Node263&#45;&gt;Node264</title>
<path fill="none" stroke="#191970" d="M272.1493,-15.5C280.8175,-15.5 289.5199,-15.5 297.914,-15.5"/>
<polygon fill="#191970" stroke="#191970" points="272.0099,-12.0001 262.0099,-15.5 272.0098,-19.0001 272.0099,-12.0001"/>
</g>
</g>
</svg>
