<?xml version="1.0" encoding="UTF-8" standalone="no"?>
<!DOCTYPE svg PUBLIC "-//W3C//DTD SVG 1.1//EN"
 "http://www.w3.org/Graphics/SVG/1.1/DTD/svg11.dtd">
<!-- Generated by graphviz version 2.40.1 (20161225.0304)
 -->
<!-- Title: nuspell::analyze_encodings Pages: 1 -->
<svg width="279pt" height="88pt"
 viewBox="0.00 0.00 279.00 88.00" xmlns="http://www.w3.org/2000/svg" xmlns:xlink="http://www.w3.org/1999/xlink">
<g id="graph0" class="graph" transform="scale(1 1) rotate(0) translate(4 84)">
<title>nuspell::analyze_encodings</title>
<polygon fill="#ffffff" stroke="transparent" points="-4,4 -4,-84 275,-84 275,4 -4,4"/>
<!-- Node3 -->
<g id="node1" class="node">
<title>Node3</title>
<polygon fill="#bfbfbf" stroke="#000000" points="0,-30 0,-49 137,-49 137,-30 0,-30"/>
<text text-anchor="middle" x="68.5" y="-37" font-family="Helvetica,sans-Serif" font-size="10.00" fill="#000000">nuspell::analyze_encodings</text>
</g>
<!-- Node4 -->
<g id="node2" class="node">
<title>Node4</title>
<g id="a_node2"><a xlink:href="classnuspell_1_1_dictionary.html#aa26f2326cea791e6c9725ae22592b75d" target="_top" xlink:title="nuspell::Dictionary\l::Dictionary">
<polygon fill="#ffffff" stroke="#000000" points="173,-49.5 173,-79.5 271,-79.5 271,-49.5 173,-49.5"/>
<text text-anchor="start" x="181" y="-67.5" font-family="Helvetica,sans-Serif" font-size="10.00" fill="#000000">nuspell::Dictionary</text>
<text text-anchor="middle" x="222" y="-56.5" font-family="Helvetica,sans-Serif" font-size="10.00" fill="#000000">::Dictionary</text>
</a>
</g>
</g>
<!-- Node3&#45;&gt;Node4 -->
<g id="edge1" class="edge">
<title>Node3&#45;&gt;Node4</title>
<path fill="none" stroke="#191970" d="M136.9837,-50.6537C149.0134,-52.6129 161.3171,-54.6168 172.6942,-56.4697"/>
<polygon fill="#191970" stroke="#191970" points="137.4023,-47.1758 126.9697,-49.0227 136.277,-54.0848 137.4023,-47.1758"/>
</g>
<!-- Node5 -->
<g id="node3" class="node">
<title>Node5</title>
<g id="a_node3"><a xlink:href="classnuspell_1_1_dictionary.html#a73d75d6ebe9c7f09d182b748b7bd583a" target="_top" xlink:title="nuspell::Dictionary\l::imbue">
<polygon fill="#ffffff" stroke="#000000" points="173,-.5 173,-30.5 271,-30.5 271,-.5 173,-.5"/>
<text text-anchor="start" x="181" y="-18.5" font-family="Helvetica,sans-Serif" font-size="10.00" fill="#000000">nuspell::Dictionary</text>
<text text-anchor="middle" x="222" y="-7.5" font-family="Helvetica,sans-Serif" font-size="10.00" fill="#000000">::imbue</text>
</a>
</g>
</g>
<!-- Node3&#45;&gt;Node5 -->
<g id="edge2" class="edge">
<title>Node3&#45;&gt;Node5</title>
<path fill="none" stroke="#191970" d="M139.818,-28.3493C151.0125,-26.599 162.362,-24.8245 172.9073,-23.1757"/>
<polygon fill="#191970" stroke="#191970" points="138.9476,-24.9428 129.6083,-29.9456 140.029,-31.8588 138.9476,-24.9428"/>
</g>
</g>
</svg>
