<?xml version="1.0" encoding="UTF-8" standalone="no"?>
<!DOCTYPE svg PUBLIC "-//W3C//DTD SVG 1.1//EN"
 "http://www.w3.org/Graphics/SVG/1.1/DTD/svg11.dtd">
<!-- Generated by graphviz version 2.40.1 (20161225.0304)
 -->
<!-- Title: nuspell::get_libreoffice_paths Pages: 1 -->
<svg width="260pt" height="39pt"
 viewBox="0.00 0.00 260.00 39.00" xmlns="http://www.w3.org/2000/svg" xmlns:xlink="http://www.w3.org/1999/xlink">
<g id="graph0" class="graph" transform="scale(1 1) rotate(0) translate(4 35)">
<title>nuspell::get_libreoffice_paths</title>
<polygon fill="#ffffff" stroke="transparent" points="-4,4 -4,-35 256,-35 256,4 -4,4"/>
<!-- Node106 -->
<g id="node1" class="node">
<title>Node106</title>
<polygon fill="#bfbfbf" stroke="#000000" points="0,-.5 0,-30.5 114,-30.5 114,-.5 0,-.5"/>
<text text-anchor="start" x="8" y="-18.5" font-family="Helvetica,sans-Serif" font-size="10.00" fill="#000000">nuspell::get_libreoffice</text>
<text text-anchor="middle" x="57" y="-7.5" font-family="Helvetica,sans-Serif" font-size="10.00" fill="#000000">_paths</text>
</g>
<!-- Node107 -->
<g id="node2" class="node">
<title>Node107</title>
<g id="a_node2"><a xlink:href="classnuspell_1_1_finder.html#abf175ec83ef09d127e9203dc2a9bbdb0" target="_top" xlink:title="Adds the LibreOffice search paths which have been found to the paths. ">
<polygon fill="#ffffff" stroke="#000000" points="150,-.5 150,-30.5 252,-30.5 252,-.5 150,-.5"/>
<text text-anchor="start" x="158" y="-18.5" font-family="Helvetica,sans-Serif" font-size="10.00" fill="#000000">nuspell::Finder::add</text>
<text text-anchor="middle" x="201" y="-7.5" font-family="Helvetica,sans-Serif" font-size="10.00" fill="#000000">_libreoffice_paths</text>
</a>
</g>
</g>
<!-- Node106&#45;&gt;Node107 -->
<g id="edge1" class="edge">
<title>Node106&#45;&gt;Node107</title>
<path fill="none" stroke="#191970" d="M124.3528,-15.5C132.9538,-15.5 141.6436,-15.5 149.9285,-15.5"/>
<polygon fill="#191970" stroke="#191970" points="124.3264,-12.0001 114.3264,-15.5 124.3263,-19.0001 124.3264,-12.0001"/>
</g>
</g>
</svg>
