<?xml version="1.0" encoding="UTF-8" standalone="no"?>
<!DOCTYPE svg PUBLIC "-//W3C//DTD SVG 1.1//EN"
 "http://www.w3.org/Graphics/SVG/1.1/DTD/svg11.dtd">
<!-- Generated by graphviz version 2.40.1 (20161225.0304)
 -->
<!-- Title: nuspell::get_apacheopenoffice_paths Pages: 1 -->
<svg width="307pt" height="116pt"
 viewBox="0.00 0.00 307.00 116.00" xmlns="http://www.w3.org/2000/svg" xmlns:xlink="http://www.w3.org/1999/xlink">
<g id="graph0" class="graph" transform="scale(1 1) rotate(0) translate(4 112)">
<title>nuspell::get_apacheopenoffice_paths</title>
<polygon fill="#ffffff" stroke="transparent" points="-4,4 -4,-112 303,-112 303,4 -4,4"/>
<!-- Node86 -->
<g id="node1" class="node">
<title>Node86</title>
<polygon fill="#bfbfbf" stroke="#000000" points="0,-39 0,-69 149,-69 149,-39 0,-39"/>
<text text-anchor="start" x="8" y="-57" font-family="Helvetica,sans-Serif" font-size="10.00" fill="#000000">nuspell::get_apacheopenoffice</text>
<text text-anchor="middle" x="74.5" y="-46" font-family="Helvetica,sans-Serif" font-size="10.00" fill="#000000">_paths</text>
</g>
<!-- Node87 -->
<g id="node2" class="node">
<title>Node87</title>
<g id="a_node2"><a xlink:href="namespacenuspell.html#a9404cbb74ae904c74db6776eb092e1b1" target="_top" xlink:title="nuspell::prefix">
<polygon fill="#ffffff" stroke="#000000" points="203.5,-88.5 203.5,-107.5 280.5,-107.5 280.5,-88.5 203.5,-88.5"/>
<text text-anchor="middle" x="242" y="-95.5" font-family="Helvetica,sans-Serif" font-size="10.00" fill="#000000">nuspell::prefix</text>
</a>
</g>
</g>
<!-- Node86&#45;&gt;Node87 -->
<g id="edge1" class="edge">
<title>Node86&#45;&gt;Node87</title>
<path fill="none" stroke="#191970" d="M131.6755,-69.0192C152.6739,-74.5352 176.1588,-80.7044 196.0457,-85.9284"/>
<polygon fill="#191970" stroke="#191970" points="195.2268,-89.332 205.788,-88.4876 197.0053,-82.5617 195.2268,-89.332"/>
</g>
<!-- Node88 -->
<g id="node3" class="node">
<title>Node88</title>
<g id="a_node3"><a xlink:href="structnuspell_1_1_globber.html#a895d65e899b6619740bee3ed56f7b3bd" target="_top" xlink:title="nuspell::Globber::copy\l_glob_paths">
<polygon fill="#ffffff" stroke="#000000" points="185,-39 185,-69 299,-69 299,-39 185,-39"/>
<text text-anchor="start" x="193" y="-57" font-family="Helvetica,sans-Serif" font-size="10.00" fill="#000000">nuspell::Globber::copy</text>
<text text-anchor="middle" x="242" y="-46" font-family="Helvetica,sans-Serif" font-size="10.00" fill="#000000">_glob_paths</text>
</a>
</g>
</g>
<!-- Node86&#45;&gt;Node88 -->
<g id="edge2" class="edge">
<title>Node86&#45;&gt;Node88</title>
<path fill="none" stroke="#191970" d="M149.4315,-54C157.8535,-54 166.3958,-54 174.7125,-54"/>
<polygon fill="#191970" stroke="#191970" points="174.7221,-57.5001 184.7221,-54 174.722,-50.5001 174.7221,-57.5001"/>
</g>
<!-- Node89 -->
<g id="node4" class="node">
<title>Node89</title>
<g id="a_node4"><a xlink:href="structnuspell_1_1_globber.html#a6165004632cc6ce235e0c588800894fa" target="_top" xlink:title="nuspell::Globber::glob">
<polygon fill="#ffffff" stroke="#000000" points="186.5,-.5 186.5,-19.5 297.5,-19.5 297.5,-.5 186.5,-.5"/>
<text text-anchor="middle" x="242" y="-7.5" font-family="Helvetica,sans-Serif" font-size="10.00" fill="#000000">nuspell::Globber::glob</text>
</a>
</g>
</g>
<!-- Node86&#45;&gt;Node89 -->
<g id="edge3" class="edge">
<title>Node86&#45;&gt;Node89</title>
<path fill="none" stroke="#191970" d="M131.6755,-38.9808C152.6739,-33.4648 176.1588,-27.2956 196.0457,-22.0716"/>
<polygon fill="#191970" stroke="#191970" points="197.0053,-25.4383 205.788,-19.5124 195.2268,-18.668 197.0053,-25.4383"/>
</g>
</g>
</svg>
