<?xml version="1.0" encoding="UTF-8" standalone="no"?>
<!DOCTYPE svg PUBLIC "-//W3C//DTD SVG 1.1//EN"
 "http://www.w3.org/Graphics/SVG/1.1/DTD/svg11.dtd">
<!-- Generated by graphviz version 2.40.1 (20161225.0304)
 -->
<!-- Title: nuspell::decode_single_flag Pages: 1 -->
<svg width="593pt" height="192pt"
 viewBox="0.00 0.00 593.00 191.50" xmlns="http://www.w3.org/2000/svg" xmlns:xlink="http://www.w3.org/1999/xlink">
<g id="graph0" class="graph" transform="scale(1 1) rotate(0) translate(4 187.5)">
<title>nuspell::decode_single_flag</title>
<polygon fill="#ffffff" stroke="transparent" points="-4,4 -4,-187.5 589,-187.5 589,4 -4,4"/>
<!-- Node61 -->
<g id="node1" class="node">
<title>Node61</title>
<polygon fill="#bfbfbf" stroke="#000000" points="0,-88 0,-107 137,-107 137,-88 0,-88"/>
<text text-anchor="middle" x="68.5" y="-95" font-family="Helvetica,sans-Serif" font-size="10.00" fill="#000000">nuspell::decode_single_flag</text>
</g>
<!-- Node62 -->
<g id="node2" class="node">
<title>Node62</title>
<g id="a_node2"><a xlink:href="namespacenuspell.html#adbb8e053a44129d0f51014facd48b7f9" target="_top" xlink:title="Decodes flags. ">
<polygon fill="#ffffff" stroke="#000000" points="173,-88 173,-107 284,-107 284,-88 173,-88"/>
<text text-anchor="middle" x="228.5" y="-95" font-family="Helvetica,sans-Serif" font-size="10.00" fill="#000000">nuspell::decode_flags</text>
</a>
</g>
</g>
<!-- Node61&#45;&gt;Node62 -->
<g id="edge1" class="edge">
<title>Node61&#45;&gt;Node62</title>
<path fill="none" stroke="#191970" d="M137.283,-97.5C145.7131,-97.5 154.3127,-97.5 162.6974,-97.5"/>
<polygon fill="#191970" stroke="#191970" points="162.7925,-101.0001 172.7924,-97.5 162.7924,-94.0001 162.7925,-101.0001"/>
</g>
<!-- Node63 -->
<g id="node3" class="node">
<title>Node63</title>
<g id="a_node3"><a xlink:href="namespacenuspell.html#aa37c89934a500dfd75dbb3cc18321834" target="_top" xlink:title="nuspell::is_all_ascii">
<polygon fill="#ffffff" stroke="#000000" points="327.5,-164 327.5,-183 428.5,-183 428.5,-164 327.5,-164"/>
<text text-anchor="middle" x="378" y="-171" font-family="Helvetica,sans-Serif" font-size="10.00" fill="#000000">nuspell::is_all_ascii</text>
</a>
</g>
</g>
<!-- Node62&#45;&gt;Node63 -->
<g id="edge2" class="edge">
<title>Node62&#45;&gt;Node63</title>
<path fill="none" stroke="#191970" d="M241.5673,-107.0573C258.8264,-119.341 290.493,-140.7222 320,-154.5 324.6804,-156.6855 329.6816,-158.7276 334.7115,-160.6017"/>
<polygon fill="#191970" stroke="#191970" points="333.7484,-163.9731 344.3432,-163.9921 336.0727,-157.3702 333.7484,-163.9731"/>
</g>
<!-- Node65 -->
<g id="node5" class="node">
<title>Node65</title>
<g id="a_node5"><a xlink:href="namespacenuspell.html#a7fc6228909d26abd20009c4fb388dc81" target="_top" xlink:title="nuspell::latin1_to_ucs2">
<polygon fill="#ffffff" stroke="#000000" points="320,-126 320,-145 436,-145 436,-126 320,-126"/>
<text text-anchor="middle" x="378" y="-133" font-family="Helvetica,sans-Serif" font-size="10.00" fill="#000000">nuspell::latin1_to_ucs2</text>
</a>
</g>
</g>
<!-- Node62&#45;&gt;Node65 -->
<g id="edge4" class="edge">
<title>Node62&#45;&gt;Node65</title>
<path fill="none" stroke="#191970" d="M266.2252,-107.089C285.7756,-112.0583 309.8466,-118.1767 330.6374,-123.4613"/>
<polygon fill="#191970" stroke="#191970" points="329.9921,-126.9085 340.5461,-125.9799 331.7165,-120.1243 329.9921,-126.9085"/>
</g>
<!-- Node66 -->
<g id="node6" class="node">
<title>Node66</title>
<g id="a_node6"><a xlink:href="namespacenuspell.html#aff86f9ecb346e78687e56dab66a77469" target="_top" xlink:title="nuspell::utf8_to_32">
<polygon fill="#ffffff" stroke="#000000" points="328.5,-88 328.5,-107 427.5,-107 427.5,-88 328.5,-88"/>
<text text-anchor="middle" x="378" y="-95" font-family="Helvetica,sans-Serif" font-size="10.00" fill="#000000">nuspell::utf8_to_32</text>
</a>
</g>
</g>
<!-- Node62&#45;&gt;Node66 -->
<g id="edge5" class="edge">
<title>Node62&#45;&gt;Node66</title>
<path fill="none" stroke="#191970" d="M284.1683,-97.5C295.2278,-97.5 306.8845,-97.5 318.0789,-97.5"/>
<polygon fill="#191970" stroke="#191970" points="318.1992,-101.0001 328.1992,-97.5 318.1992,-94.0001 318.1992,-101.0001"/>
</g>
<!-- Node68 -->
<g id="node8" class="node">
<title>Node68</title>
<g id="a_node8"><a xlink:href="namespacenuspell.html#acc7be34831c982c0065b2929a9b14f2b" target="_top" xlink:title="nuspell::is_all_bmp">
<polygon fill="#ffffff" stroke="#000000" points="328,-50 328,-69 428,-69 428,-50 328,-50"/>
<text text-anchor="middle" x="378" y="-57" font-family="Helvetica,sans-Serif" font-size="10.00" fill="#000000">nuspell::is_all_bmp</text>
</a>
</g>
</g>
<!-- Node62&#45;&gt;Node68 -->
<g id="edge7" class="edge">
<title>Node62&#45;&gt;Node68</title>
<path fill="none" stroke="#191970" d="M266.2252,-87.911C285.7756,-82.9417 309.8466,-76.8233 330.6374,-71.5387"/>
<polygon fill="#191970" stroke="#191970" points="331.7165,-74.8757 340.5461,-69.0201 329.9921,-68.0915 331.7165,-74.8757"/>
</g>
<!-- Node70 -->
<g id="node10" class="node">
<title>Node70</title>
<g id="a_node10"><a xlink:href="namespacenuspell.html#aac45dd40db821861bbd1ee9c2fc40a5e" target="_top" xlink:title="nuspell::u32_to_ucs2\l_skip_non_bmp">
<polygon fill="#ffffff" stroke="#000000" points="323.5,-.5 323.5,-30.5 432.5,-30.5 432.5,-.5 323.5,-.5"/>
<text text-anchor="start" x="331.5" y="-18.5" font-family="Helvetica,sans-Serif" font-size="10.00" fill="#000000">nuspell::u32_to_ucs2</text>
<text text-anchor="middle" x="378" y="-7.5" font-family="Helvetica,sans-Serif" font-size="10.00" fill="#000000">_skip_non_bmp</text>
</a>
</g>
</g>
<!-- Node62&#45;&gt;Node70 -->
<g id="edge9" class="edge">
<title>Node62&#45;&gt;Node70</title>
<path fill="none" stroke="#191970" d="M242.3766,-87.9368C259.9775,-76.0243 291.4774,-55.4235 320,-40.5 323.7162,-38.5556 327.6167,-36.6342 331.5635,-34.7722"/>
<polygon fill="#191970" stroke="#191970" points="333.1527,-37.8941 340.7917,-30.5527 330.2419,-31.528 333.1527,-37.8941"/>
</g>
<!-- Node64 -->
<g id="node4" class="node">
<title>Node64</title>
<g id="a_node4"><a xlink:href="namespacenuspell.html#a165544e1cd96cd0635c078d21ff32ff4" target="_top" xlink:title="nuspell::is_ascii">
<polygon fill="#ffffff" stroke="#000000" points="485.5,-164 485.5,-183 571.5,-183 571.5,-164 485.5,-164"/>
<text text-anchor="middle" x="528.5" y="-171" font-family="Helvetica,sans-Serif" font-size="10.00" fill="#000000">nuspell::is_ascii</text>
</a>
</g>
</g>
<!-- Node63&#45;&gt;Node64 -->
<g id="edge3" class="edge">
<title>Node63&#45;&gt;Node64</title>
<path fill="none" stroke="#191970" d="M428.533,-173.5C443.5197,-173.5 459.9778,-173.5 475.1377,-173.5"/>
<polygon fill="#191970" stroke="#191970" points="475.3917,-177.0001 485.3916,-173.5 475.3916,-170.0001 475.3917,-177.0001"/>
</g>
<!-- Node67 -->
<g id="node7" class="node">
<title>Node67</title>
<g id="a_node7"><a xlink:href="namespacenuspell.html#aae8baee1ca83bf5a5e0d07a4e8fdbf81" target="_top" xlink:title="nuspell::utf_to_utf_my">
<polygon fill="#ffffff" stroke="#000000" points="472,-88 472,-107 585,-107 585,-88 472,-88"/>
<text text-anchor="middle" x="528.5" y="-95" font-family="Helvetica,sans-Serif" font-size="10.00" fill="#000000">nuspell::utf_to_utf_my</text>
</a>
</g>
</g>
<!-- Node66&#45;&gt;Node67 -->
<g id="edge6" class="edge">
<title>Node66&#45;&gt;Node67</title>
<path fill="none" stroke="#191970" d="M427.6964,-97.5C438.5126,-97.5 450.1281,-97.5 461.4899,-97.5"/>
<polygon fill="#191970" stroke="#191970" points="461.8228,-101.0001 471.8227,-97.5 461.8227,-94.0001 461.8228,-101.0001"/>
</g>
<!-- Node69 -->
<g id="node9" class="node">
<title>Node69</title>
<g id="a_node9"><a xlink:href="namespacenuspell.html#a8ed3c64b945233d09aee1622100ce1db" target="_top" xlink:title="nuspell::is_bmp">
<polygon fill="#ffffff" stroke="#000000" points="486,-50 486,-69 571,-69 571,-50 486,-50"/>
<text text-anchor="middle" x="528.5" y="-57" font-family="Helvetica,sans-Serif" font-size="10.00" fill="#000000">nuspell::is_bmp</text>
</a>
</g>
</g>
<!-- Node68&#45;&gt;Node69 -->
<g id="edge8" class="edge">
<title>Node68&#45;&gt;Node69</title>
<path fill="none" stroke="#191970" d="M428.1143,-59.5C443.2601,-59.5 459.9407,-59.5 475.2815,-59.5"/>
<polygon fill="#191970" stroke="#191970" points="475.6528,-63.0001 485.6528,-59.5 475.6527,-56.0001 475.6528,-63.0001"/>
</g>
</g>
</svg>
