<?xml version="1.0" encoding="UTF-8" standalone="no"?>
<!DOCTYPE svg PUBLIC "-//W3C//DTD SVG 1.1//EN"
 "http://www.w3.org/Graphics/SVG/1.1/DTD/svg11.dtd">
<!-- Generated by graphviz version 2.40.1 (20161225.0304)
 -->
<!-- Title: nuspell::parse_morhological_fields Pages: 1 -->
<svg width="416pt" height="53pt"
 viewBox="0.00 0.00 416.00 52.50" xmlns="http://www.w3.org/2000/svg" xmlns:xlink="http://www.w3.org/1999/xlink">
<g id="graph0" class="graph" transform="scale(1 1) rotate(0) translate(4 48.5)">
<title>nuspell::parse_morhological_fields</title>
<polygon fill="#ffffff" stroke="transparent" points="-4,4 -4,-48.5 412,-48.5 412,4 -4,4"/>
<!-- Node243 -->
<g id="node1" class="node">
<title>Node243</title>
<polygon fill="#bfbfbf" stroke="#000000" points="0,-.5 0,-30.5 137,-30.5 137,-.5 0,-.5"/>
<text text-anchor="start" x="8" y="-18.5" font-family="Helvetica,sans-Serif" font-size="10.00" fill="#000000">nuspell::parse_morhological</text>
<text text-anchor="middle" x="68.5" y="-7.5" font-family="Helvetica,sans-Serif" font-size="10.00" fill="#000000">_fields</text>
</g>
<!-- Node244 -->
<g id="node2" class="node">
<title>Node244</title>
<g id="a_node2"><a xlink:href="namespacenuspell.html#a431abe5c2853b6f099bfedd5b6a4bb9f" target="_top" xlink:title="Parses an affix from an input stream. ">
<polygon fill="#ffffff" stroke="#000000" points="173,-25 173,-44 274,-44 274,-25 173,-25"/>
<text text-anchor="middle" x="223.5" y="-32" font-family="Helvetica,sans-Serif" font-size="10.00" fill="#000000">nuspell::parse_affix</text>
</a>
</g>
</g>
<!-- Node243&#45;&gt;Node244 -->
<g id="edge1" class="edge">
<title>Node243&#45;&gt;Node244</title>
<path fill="none" stroke="#191970" d="M147.5244,-25.1869C156.1713,-26.2468 164.7929,-27.3036 172.9583,-28.3046"/>
<polygon fill="#191970" stroke="#191970" points="147.7395,-21.6871 137.3879,-23.9443 146.8877,-28.6351 147.7395,-21.6871"/>
</g>
<!-- Node245 -->
<g id="node3" class="node">
<title>Node245</title>
<g id="a_node3"><a xlink:href="structnuspell_1_1_aff___data.html#a93b16b2b3938f607a18e3a67b9360b83" target="_top" xlink:title="Parses an input stream offering affix information. ">
<polygon fill="#ffffff" stroke="#000000" points="310,-.5 310,-30.5 408,-30.5 408,-.5 310,-.5"/>
<text text-anchor="start" x="318" y="-18.5" font-family="Helvetica,sans-Serif" font-size="10.00" fill="#000000">nuspell::Aff_Data::</text>
<text text-anchor="middle" x="359" y="-7.5" font-family="Helvetica,sans-Serif" font-size="10.00" fill="#000000">parse_aff</text>
</a>
</g>
</g>
<!-- Node243&#45;&gt;Node245 -->
<g id="edge3" class="edge">
<title>Node243&#45;&gt;Node245</title>
<path fill="none" stroke="#191970" d="M147.4974,-15.5C199.2684,-15.5 265.3305,-15.5 309.7309,-15.5"/>
<polygon fill="#191970" stroke="#191970" points="147.3445,-12.0001 137.3444,-15.5 147.3444,-19.0001 147.3445,-12.0001"/>
</g>
<!-- Node244&#45;&gt;Node245 -->
<g id="edge2" class="edge">
<title>Node244&#45;&gt;Node245</title>
<path fill="none" stroke="#191970" d="M284.51,-25.9451C292.9331,-24.764 301.4965,-23.5632 309.6726,-22.4168"/>
<polygon fill="#191970" stroke="#191970" points="283.7578,-22.5162 274.3407,-27.371 284.7299,-29.4484 283.7578,-22.5162"/>
</g>
</g>
</svg>
