<?xml version="1.0" encoding="UTF-8" standalone="no"?>
<!DOCTYPE svg PUBLIC "-//W3C//DTD SVG 1.1//EN"
 "http://www.w3.org/Graphics/SVG/1.1/DTD/svg11.dtd">
<!-- Generated by graphviz version 2.40.1 (20161225.0304)
 -->
<!-- Title: nuspell::utf8_to_32 Pages: 1 -->
<svg width="746pt" height="192pt"
 viewBox="0.00 0.00 746.00 191.50" xmlns="http://www.w3.org/2000/svg" xmlns:xlink="http://www.w3.org/1999/xlink">
<g id="graph0" class="graph" transform="scale(1 1) rotate(0) translate(4 187.5)">
<title>nuspell::utf8_to_32</title>
<polygon fill="#ffffff" stroke="transparent" points="-4,4 -4,-187.5 742,-187.5 742,4 -4,4"/>
<!-- Node370 -->
<g id="node1" class="node">
<title>Node370</title>
<polygon fill="#bfbfbf" stroke="#000000" points="0,-107 0,-126 99,-126 99,-107 0,-107"/>
<text text-anchor="middle" x="49.5" y="-114" font-family="Helvetica,sans-Serif" font-size="10.00" fill="#000000">nuspell::utf8_to_32</text>
</g>
<!-- Node371 -->
<g id="node2" class="node">
<title>Node371</title>
<g id="a_node2"><a xlink:href="namespacenuspell.html#adbb8e053a44129d0f51014facd48b7f9" target="_top" xlink:title="Decodes flags. ">
<polygon fill="#ffffff" stroke="#000000" points="135,-107 135,-126 246,-126 246,-107 135,-107"/>
<text text-anchor="middle" x="190.5" y="-114" font-family="Helvetica,sans-Serif" font-size="10.00" fill="#000000">nuspell::decode_flags</text>
</a>
</g>
</g>
<!-- Node370&#45;&gt;Node371 -->
<g id="edge1" class="edge">
<title>Node370&#45;&gt;Node371</title>
<path fill="none" stroke="#191970" d="M109.4216,-116.5C117.9051,-116.5 126.5977,-116.5 134.9929,-116.5"/>
<polygon fill="#191970" stroke="#191970" points="109.2114,-113.0001 99.2113,-116.5 109.2113,-120.0001 109.2114,-113.0001"/>
</g>
<!-- Node372 -->
<g id="node3" class="node">
<title>Node372</title>
<g id="a_node3"><a xlink:href="namespacenuspell.html#ac3ed6d85c13c609eb5c51628b9dbac76" target="_top" xlink:title="Decodes a single flag from an input stream. ">
<polygon fill="#ffffff" stroke="#000000" points="282,-88 282,-107 419,-107 419,-88 282,-88"/>
<text text-anchor="middle" x="350.5" y="-95" font-family="Helvetica,sans-Serif" font-size="10.00" fill="#000000">nuspell::decode_single_flag</text>
</a>
</g>
</g>
<!-- Node371&#45;&gt;Node372 -->
<g id="edge2" class="edge">
<title>Node371&#45;&gt;Node372</title>
<path fill="none" stroke="#191970" d="M256.1923,-108.699C264.6503,-107.6946 273.329,-106.6641 281.8332,-105.6542"/>
<polygon fill="#191970" stroke="#191970" points="255.5287,-105.2532 246.0112,-109.908 256.3542,-112.2043 255.5287,-105.2532"/>
</g>
<!-- Node374 -->
<g id="node5" class="node">
<title>Node374</title>
<g id="a_node5"><a xlink:href="structnuspell_1_1_aff___data.html#a93b16b2b3938f607a18e3a67b9360b83" target="_top" xlink:title="Parses an input stream offering affix information. ">
<polygon fill="#ffffff" stroke="#000000" points="640,-101.5 640,-131.5 738,-131.5 738,-101.5 640,-101.5"/>
<text text-anchor="start" x="648" y="-119.5" font-family="Helvetica,sans-Serif" font-size="10.00" fill="#000000">nuspell::Aff_Data::</text>
<text text-anchor="middle" x="689" y="-108.5" font-family="Helvetica,sans-Serif" font-size="10.00" fill="#000000">parse_aff</text>
</a>
</g>
</g>
<!-- Node371&#45;&gt;Node374 -->
<g id="edge11" class="edge">
<title>Node371&#45;&gt;Node374</title>
<path fill="none" stroke="#191970" d="M256.1452,-118.9719C337.7145,-121.6566 481.1579,-125.1099 604,-121.5 615.5253,-121.1613 627.9184,-120.5648 639.5804,-119.8991"/>
<polygon fill="#191970" stroke="#191970" points="256.1369,-115.4697 246.0251,-118.6322 255.902,-122.4658 256.1369,-115.4697"/>
</g>
<!-- Node375 -->
<g id="node6" class="node">
<title>Node375</title>
<g id="a_node6"><a xlink:href="namespacenuspell.html#a3d81c446c32c53cd03e595f8fde9c2ab" target="_top" xlink:title="nuspell::decode_flags\l_possible_alias">
<polygon fill="#ffffff" stroke="#000000" points="295,-38.5 295,-68.5 406,-68.5 406,-38.5 295,-38.5"/>
<text text-anchor="start" x="303" y="-56.5" font-family="Helvetica,sans-Serif" font-size="10.00" fill="#000000">nuspell::decode_flags</text>
<text text-anchor="middle" x="350.5" y="-45.5" font-family="Helvetica,sans-Serif" font-size="10.00" fill="#000000">_possible_alias</text>
</a>
</g>
</g>
<!-- Node371&#45;&gt;Node375 -->
<g id="edge6" class="edge">
<title>Node371&#45;&gt;Node375</title>
<path fill="none" stroke="#191970" d="M222.1742,-102.9459C239.7276,-95.5354 261.9879,-86.3031 282,-78.5 290.4922,-75.1887 299.626,-71.7625 308.3688,-68.5479"/>
<polygon fill="#191970" stroke="#191970" points="220.7923,-99.7301 212.9507,-106.8548 223.5237,-106.1752 220.7923,-99.7301"/>
</g>
<!-- Node377 -->
<g id="node8" class="node">
<title>Node377</title>
<g id="a_node8"><a xlink:href="namespacenuspell.html#a82f70879bf54a6f7118852b75d8ddbfc" target="_top" xlink:title="nuspell::parse_compound_rule">
<polygon fill="#ffffff" stroke="#000000" points="455,-164 455,-183 604,-183 604,-164 455,-164"/>
<text text-anchor="middle" x="529.5" y="-171" font-family="Helvetica,sans-Serif" font-size="10.00" fill="#000000">nuspell::parse_compound_rule</text>
</a>
</g>
</g>
<!-- Node371&#45;&gt;Node377 -->
<g id="edge9" class="edge">
<title>Node371&#45;&gt;Node377</title>
<path fill="none" stroke="#191970" d="M221.867,-130.0128C239.2674,-136.9449 261.4799,-144.8811 282,-149.5 339.1732,-162.3692 405.306,-168.3386 454.8199,-171.107"/>
<polygon fill="#191970" stroke="#191970" points="222.8083,-126.6169 212.2271,-126.08 220.1641,-133.0982 222.8083,-126.6169"/>
</g>
<!-- Node373 -->
<g id="node4" class="node">
<title>Node373</title>
<g id="a_node4"><a xlink:href="namespacenuspell.html#a431abe5c2853b6f099bfedd5b6a4bb9f" target="_top" xlink:title="Parses an affix from an input stream. ">
<polygon fill="#ffffff" stroke="#000000" points="479,-50 479,-69 580,-69 580,-50 479,-50"/>
<text text-anchor="middle" x="529.5" y="-57" font-family="Helvetica,sans-Serif" font-size="10.00" fill="#000000">nuspell::parse_affix</text>
</a>
</g>
</g>
<!-- Node372&#45;&gt;Node373 -->
<g id="edge3" class="edge">
<title>Node372&#45;&gt;Node373</title>
<path fill="none" stroke="#191970" d="M405.5236,-85.819C430.9082,-80.4301 460.6607,-74.1139 484.6556,-69.0201"/>
<polygon fill="#191970" stroke="#191970" points="404.7244,-82.4106 395.6693,-87.911 406.1781,-89.258 404.7244,-82.4106"/>
</g>
<!-- Node372&#45;&gt;Node374 -->
<g id="edge5" class="edge">
<title>Node372&#45;&gt;Node374</title>
<path fill="none" stroke="#191970" d="M429.213,-101.9182C494.2547,-105.5689 584.5756,-110.6387 639.7849,-113.7376"/>
<polygon fill="#191970" stroke="#191970" points="429.181,-98.4109 419.0005,-101.3449 428.7886,-105.3999 429.181,-98.4109"/>
</g>
<!-- Node373&#45;&gt;Node374 -->
<g id="edge4" class="edge">
<title>Node373&#45;&gt;Node374</title>
<path fill="none" stroke="#191970" d="M570.25,-72.1511C581.249,-75.6954 593.1167,-79.6381 604,-83.5 619.6646,-89.0585 636.7787,-95.6089 651.5181,-101.4023"/>
<polygon fill="#191970" stroke="#191970" points="571.0369,-68.7283 560.4461,-69.0219 568.9084,-75.3969 571.0369,-68.7283"/>
</g>
<!-- Node375&#45;&gt;Node373 -->
<g id="edge7" class="edge">
<title>Node375&#45;&gt;Node373</title>
<path fill="none" stroke="#191970" d="M416.4121,-55.7093C436.9964,-56.3993 459.3734,-57.1494 478.7481,-57.7988"/>
<polygon fill="#191970" stroke="#191970" points="416.2672,-52.2026 406.1555,-55.3655 416.0326,-59.1987 416.2672,-52.2026"/>
</g>
<!-- Node376 -->
<g id="node7" class="node">
<title>Node376</title>
<g id="a_node7"><a xlink:href="structnuspell_1_1_aff___data.html#ad77b0f3b5fc59f2c1ba29e5cbf8dc7ed" target="_top" xlink:title="Parses an input stream offering dictionary information. ">
<polygon fill="#ffffff" stroke="#000000" points="480.5,-.5 480.5,-30.5 578.5,-30.5 578.5,-.5 480.5,-.5"/>
<text text-anchor="start" x="488.5" y="-18.5" font-family="Helvetica,sans-Serif" font-size="10.00" fill="#000000">nuspell::Aff_Data::</text>
<text text-anchor="middle" x="529.5" y="-7.5" font-family="Helvetica,sans-Serif" font-size="10.00" fill="#000000">parse_dic</text>
</a>
</g>
</g>
<!-- Node375&#45;&gt;Node376 -->
<g id="edge8" class="edge">
<title>Node375&#45;&gt;Node376</title>
<path fill="none" stroke="#191970" d="M416.0666,-39.5808C437.2777,-35.0779 460.4244,-30.1641 480.2452,-25.9563"/>
<polygon fill="#191970" stroke="#191970" points="415.2107,-36.1845 406.1555,-41.6849 416.6644,-43.0319 415.2107,-36.1845"/>
</g>
<!-- Node377&#45;&gt;Node374 -->
<g id="edge10" class="edge">
<title>Node377&#45;&gt;Node374</title>
<path fill="none" stroke="#191970" d="M570.25,-160.8489C581.249,-157.3046 593.1167,-153.3619 604,-149.5 619.6646,-143.9415 636.7787,-137.3911 651.5181,-131.5977"/>
<polygon fill="#191970" stroke="#191970" points="568.9084,-157.6031 560.4461,-163.9781 571.0369,-164.2717 568.9084,-157.6031"/>
</g>
</g>
</svg>
