<?xml version="1.0" encoding="UTF-8" standalone="no"?>
<!DOCTYPE svg PUBLIC "-//W3C//DTD SVG 1.1//EN"
 "http://www.w3.org/Graphics/SVG/1.1/DTD/svg11.dtd">
<!-- Generated by graphviz version 2.40.1 (20161225.0304)
 -->
<!-- Title: nuspell::to_narrow Pages: 1 -->
<svg width="324pt" height="236pt"
 viewBox="0.00 0.00 324.00 236.00" xmlns="http://www.w3.org/2000/svg" xmlns:xlink="http://www.w3.org/1999/xlink">
<g id="graph0" class="graph" transform="scale(1 1) rotate(0) translate(4 232)">
<title>nuspell::to_narrow</title>
<polygon fill="#ffffff" stroke="transparent" points="-4,4 -4,-232 320,-232 320,4 -4,4"/>
<!-- Node346 -->
<g id="node1" class="node">
<title>Node346</title>
<polygon fill="#bfbfbf" stroke="#000000" points="0,-88.5 0,-107.5 96,-107.5 96,-88.5 0,-88.5"/>
<text text-anchor="middle" x="48" y="-95.5" font-family="Helvetica,sans-Serif" font-size="10.00" fill="#000000">nuspell::to_narrow</text>
</g>
<!-- Node347 -->
<g id="node2" class="node">
<title>Node347</title>
<g id="a_node2"><a xlink:href="classnuspell_1_1_dictionary.html#a86e6e4a0401eb0e99fb002761a6a610b" target="_top" xlink:title="nuspell::Dictionary\l::external_to_internal\l_encoding">
<polygon fill="#ffffff" stroke="#000000" points="133.5,-186.5 133.5,-227.5 240.5,-227.5 240.5,-186.5 133.5,-186.5"/>
<text text-anchor="start" x="141.5" y="-215.5" font-family="Helvetica,sans-Serif" font-size="10.00" fill="#000000">nuspell::Dictionary</text>
<text text-anchor="start" x="141.5" y="-204.5" font-family="Helvetica,sans-Serif" font-size="10.00" fill="#000000">::external_to_internal</text>
<text text-anchor="middle" x="187" y="-193.5" font-family="Helvetica,sans-Serif" font-size="10.00" fill="#000000">_encoding</text>
</a>
</g>
</g>
<!-- Node346&#45;&gt;Node347 -->
<g id="edge1" class="edge">
<title>Node346&#45;&gt;Node347</title>
<path fill="none" stroke="#191970" d="M63.6828,-115.117C79.7855,-132.0959 106.0874,-158.224 132,-177 136.4919,-180.2548 141.3769,-183.4034 146.3201,-186.3589"/>
<polygon fill="#191970" stroke="#191970" points="66.03,-112.5027 56.6435,-107.5891 60.9171,-117.2838 66.03,-112.5027"/>
</g>
<!-- Node348 -->
<g id="node3" class="node">
<title>Node348</title>
<g id="a_node3"><a xlink:href="classnuspell_1_1_dictionary.html#a38d6bdb6f223f5ec40d60c3543b0ef1b" target="_top" xlink:title="nuspell::Dictionary\l::internal_to_external\l_encoding">
<polygon fill="#ffffff" stroke="#000000" points="133.5,-126.5 133.5,-167.5 240.5,-167.5 240.5,-126.5 133.5,-126.5"/>
<text text-anchor="start" x="141.5" y="-155.5" font-family="Helvetica,sans-Serif" font-size="10.00" fill="#000000">nuspell::Dictionary</text>
<text text-anchor="start" x="141.5" y="-144.5" font-family="Helvetica,sans-Serif" font-size="10.00" fill="#000000">::internal_to_external</text>
<text text-anchor="middle" x="187" y="-133.5" font-family="Helvetica,sans-Serif" font-size="10.00" fill="#000000">_encoding</text>
</a>
</g>
</g>
<!-- Node346&#45;&gt;Node348 -->
<g id="edge2" class="edge">
<title>Node346&#45;&gt;Node348</title>
<path fill="none" stroke="#191970" d="M84.9661,-111.0312C99.8321,-116.2718 117.2627,-122.4164 133.4687,-128.1292"/>
<polygon fill="#191970" stroke="#191970" points="85.7254,-107.5878 75.1306,-107.564 83.3981,-114.1896 85.7254,-107.5878"/>
</g>
<!-- Node349 -->
<g id="node4" class="node">
<title>Node349</title>
<g id="a_node4"><a xlink:href="namespacenuspell.html#a4bbcd07d775ff9e19d67c9c68167dbf2" target="_top" xlink:title="nuspell::to_narrow">
<polygon fill="#ffffff" stroke="#000000" points="139,-88.5 139,-107.5 235,-107.5 235,-88.5 139,-88.5"/>
<text text-anchor="middle" x="187" y="-95.5" font-family="Helvetica,sans-Serif" font-size="10.00" fill="#000000">nuspell::to_narrow</text>
</a>
</g>
</g>
<!-- Node346&#45;&gt;Node349 -->
<g id="edge3" class="edge">
<title>Node346&#45;&gt;Node349</title>
<path fill="none" stroke="#191970" d="M106.4349,-98C117.2372,-98 128.4057,-98 138.8599,-98"/>
<polygon fill="#191970" stroke="#191970" points="106.2254,-94.5001 96.2254,-98 106.2253,-101.5001 106.2254,-94.5001"/>
</g>
<!-- Node350 -->
<g id="node5" class="node">
<title>Node350</title>
<g id="a_node5"><a xlink:href="class_my___dictionary.html#a06d83a3d76c0eff8688dfbee66976f70" target="_top" xlink:title="My_Dictionary::parse\l_personal_dict">
<polygon fill="#ffffff" stroke="#000000" points="132,-39 132,-69 242,-69 242,-39 132,-39"/>
<text text-anchor="start" x="140" y="-57" font-family="Helvetica,sans-Serif" font-size="10.00" fill="#000000">My_Dictionary::parse</text>
<text text-anchor="middle" x="187" y="-46" font-family="Helvetica,sans-Serif" font-size="10.00" fill="#000000">_personal_dict</text>
</a>
</g>
</g>
<!-- Node346&#45;&gt;Node350 -->
<g id="edge4" class="edge">
<title>Node346&#45;&gt;Node350</title>
<path fill="none" stroke="#191970" d="M87.802,-85.4008C103.8941,-80.3069 122.6023,-74.3849 139.4071,-69.0654"/>
<polygon fill="#191970" stroke="#191970" points="86.6384,-82.0979 78.1609,-88.4527 88.751,-88.7715 86.6384,-82.0979"/>
</g>
<!-- Node351 -->
<g id="node6" class="node">
<title>Node351</title>
<g id="a_node6"><a xlink:href="verify_8cxx.html#a345ea832decc7c2932cf431ea1dc1cbf" target="_top" xlink:title="normal_loop">
<polygon fill="#ffffff" stroke="#000000" points="152.5,-.5 152.5,-19.5 221.5,-19.5 221.5,-.5 152.5,-.5"/>
<text text-anchor="middle" x="187" y="-7.5" font-family="Helvetica,sans-Serif" font-size="10.00" fill="#000000">normal_loop</text>
</a>
</g>
</g>
<!-- Node346&#45;&gt;Node351 -->
<g id="edge5" class="edge">
<title>Node346&#45;&gt;Node351</title>
<path fill="none" stroke="#191970" d="M65.0916,-81.2784C81.236,-66.2194 106.6873,-44.3137 132,-30 139.1638,-25.949 147.3005,-22.4593 155.0772,-19.5812"/>
<polygon fill="#191970" stroke="#191970" points="62.382,-79.0251 57.5474,-88.4527 67.2059,-84.0977 62.382,-79.0251"/>
</g>
<!-- Node352 -->
<g id="node7" class="node">
<title>Node352</title>
<g id="a_node7"><a xlink:href="verify_8cxx.html#a0ddf1224851353fc92bfbff6f499fa97" target="_top" xlink:title="main">
<polygon fill="#ffffff" stroke="#000000" points="278,-.5 278,-19.5 316,-19.5 316,-.5 278,-.5"/>
<text text-anchor="middle" x="297" y="-7.5" font-family="Helvetica,sans-Serif" font-size="10.00" fill="#000000">main</text>
</a>
</g>
</g>
<!-- Node351&#45;&gt;Node352 -->
<g id="edge6" class="edge">
<title>Node351&#45;&gt;Node352</title>
<path fill="none" stroke="#191970" d="M231.851,-10C247.954,-10 265.2595,-10 277.9846,-10"/>
<polygon fill="#191970" stroke="#191970" points="231.5029,-6.5001 221.5029,-10 231.5028,-13.5001 231.5029,-6.5001"/>
</g>
</g>
</svg>
