<?xml version="1.0" encoding="UTF-8" standalone="no"?>
<!DOCTYPE svg PUBLIC "-//W3C//DTD SVG 1.1//EN"
 "http://www.w3.org/Graphics/SVG/1.1/DTD/svg11.dtd">
<!-- Generated by graphviz version 2.40.1 (20161225.0304)
 -->
<!-- Title: nuspell::get_openoffice_paths Pages: 1 -->
<svg width="273pt" height="39pt"
 viewBox="0.00 0.00 273.00 39.00" xmlns="http://www.w3.org/2000/svg" xmlns:xlink="http://www.w3.org/1999/xlink">
<g id="graph0" class="graph" transform="scale(1 1) rotate(0) translate(4 35)">
<title>nuspell::get_openoffice_paths</title>
<polygon fill="#ffffff" stroke="transparent" points="-4,4 -4,-35 269,-35 269,4 -4,4"/>
<!-- Node110 -->
<g id="node1" class="node">
<title>Node110</title>
<polygon fill="#bfbfbf" stroke="#000000" points="0,-.5 0,-30.5 117,-30.5 117,-.5 0,-.5"/>
<text text-anchor="start" x="8" y="-18.5" font-family="Helvetica,sans-Serif" font-size="10.00" fill="#000000">nuspell::get_openoffice</text>
<text text-anchor="middle" x="58.5" y="-7.5" font-family="Helvetica,sans-Serif" font-size="10.00" fill="#000000">_paths</text>
</g>
<!-- Node111 -->
<g id="node2" class="node">
<title>Node111</title>
<g id="a_node2"><a xlink:href="classnuspell_1_1_finder.html#a10db179542bffb40614b74d581e293cf" target="_top" xlink:title="Adds the OpenOffice directory paths which may containt dictionaries. ">
<polygon fill="#ffffff" stroke="#000000" points="153,-.5 153,-30.5 265,-30.5 265,-.5 153,-.5"/>
<text text-anchor="start" x="161" y="-18.5" font-family="Helvetica,sans-Serif" font-size="10.00" fill="#000000">nuspell::Finder::add</text>
<text text-anchor="middle" x="209" y="-7.5" font-family="Helvetica,sans-Serif" font-size="10.00" fill="#000000">_openoffice_dir_paths</text>
</a>
</g>
</g>
<!-- Node110&#45;&gt;Node111 -->
<g id="edge1" class="edge">
<title>Node110&#45;&gt;Node111</title>
<path fill="none" stroke="#191970" d="M127.3942,-15.5C135.8871,-15.5 144.4886,-15.5 152.7621,-15.5"/>
<polygon fill="#191970" stroke="#191970" points="127.1182,-12.0001 117.1182,-15.5 127.1181,-19.0001 127.1182,-12.0001"/>
</g>
</g>
</svg>
