<?xml version="1.0" encoding="UTF-8" standalone="no"?>
<!DOCTYPE svg PUBLIC "-//W3C//DTD SVG 1.1//EN"
 "http://www.w3.org/Graphics/SVG/1.1/DTD/svg11.dtd">
<!-- Generated by graphviz version 2.40.1 (20161225.0304)
 -->
<!-- Title: nuspell::to_narrow Pages: 1 -->
<svg width="401pt" height="165pt"
 viewBox="0.00 0.00 401.00 165.00" xmlns="http://www.w3.org/2000/svg" xmlns:xlink="http://www.w3.org/1999/xlink">
<g id="graph0" class="graph" transform="scale(1 1) rotate(0) translate(4 161)">
<title>nuspell::to_narrow</title>
<polygon fill="#ffffff" stroke="transparent" points="-4,4 -4,-161 397,-161 397,4 -4,4"/>
<!-- Node334 -->
<g id="node1" class="node">
<title>Node334</title>
<polygon fill="#bfbfbf" stroke="#000000" points="0,-68.5 0,-87.5 96,-87.5 96,-68.5 0,-68.5"/>
<text text-anchor="middle" x="48" y="-75.5" font-family="Helvetica,sans-Serif" font-size="10.00" fill="#000000">nuspell::to_narrow</text>
</g>
<!-- Node335 -->
<g id="node2" class="node">
<title>Node335</title>
<g id="a_node2"><a xlink:href="namespacenuspell.html#a4bbcd07d775ff9e19d67c9c68167dbf2" target="_top" xlink:title="nuspell::to_narrow">
<polygon fill="#ffffff" stroke="#000000" points="142,-137.5 142,-156.5 238,-156.5 238,-137.5 142,-137.5"/>
<text text-anchor="middle" x="190" y="-144.5" font-family="Helvetica,sans-Serif" font-size="10.00" fill="#000000">nuspell::to_narrow</text>
</a>
</g>
</g>
<!-- Node334&#45;&gt;Node335 -->
<g id="edge1" class="edge">
<title>Node334&#45;&gt;Node335</title>
<path fill="none" stroke="#191970" d="M70.4689,-93.2297C86.9775,-103.9522 110.2309,-118.102 132,-128 139.813,-131.5524 148.4884,-134.759 156.6983,-137.4829"/>
<polygon fill="#191970" stroke="#191970" points="72.3188,-90.2572 62.0436,-87.6742 68.4653,-96.1011 72.3188,-90.2572"/>
</g>
<!-- Node336 -->
<g id="node3" class="node">
<title>Node336</title>
<g id="a_node3"><a xlink:href="classnuspell_1_1_locale___input.html#a4f4dc80f71f17035aa9841f1214250c6" target="_top" xlink:title="nuspell::Locale_Input\l::cvt_for_byte_dict">
<polygon fill="#ffffff" stroke="#000000" points="135.5,-88 135.5,-118 244.5,-118 244.5,-88 135.5,-88"/>
<text text-anchor="start" x="143.5" y="-106" font-family="Helvetica,sans-Serif" font-size="10.00" fill="#000000">nuspell::Locale_Input</text>
<text text-anchor="middle" x="190" y="-95" font-family="Helvetica,sans-Serif" font-size="10.00" fill="#000000">::cvt_for_byte_dict</text>
</a>
</g>
</g>
<!-- Node334&#45;&gt;Node336 -->
<g id="edge2" class="edge">
<title>Node334&#45;&gt;Node336</title>
<path fill="none" stroke="#191970" d="M105.965,-88.2051C115.6009,-89.9016 125.5684,-91.6564 135.1245,-93.3388"/>
<polygon fill="#191970" stroke="#191970" points="106.5301,-84.7509 96.0747,-86.4639 105.3164,-91.6448 106.5301,-84.7509"/>
</g>
<!-- Node338 -->
<g id="node5" class="node">
<title>Node338</title>
<g id="a_node5"><a xlink:href="structnuspell_1_1_unicode___input.html#a33ac5d111c70b0b9fa7e72496334e6f7" target="_top" xlink:title="nuspell::Unicode_Input\l::cvt_for_byte_dict">
<polygon fill="#ffffff" stroke="#000000" points="132,-39 132,-69 248,-69 248,-39 132,-39"/>
<text text-anchor="start" x="140" y="-57" font-family="Helvetica,sans-Serif" font-size="10.00" fill="#000000">nuspell::Unicode_Input</text>
<text text-anchor="middle" x="190" y="-46" font-family="Helvetica,sans-Serif" font-size="10.00" fill="#000000">::cvt_for_byte_dict</text>
</a>
</g>
</g>
<!-- Node334&#45;&gt;Node338 -->
<g id="edge4" class="edge">
<title>Node334&#45;&gt;Node338</title>
<path fill="none" stroke="#191970" d="M105.965,-68.2031C114.519,-66.7574 123.3343,-65.2674 131.8911,-63.8212"/>
<polygon fill="#191970" stroke="#191970" points="105.3516,-64.757 96.0747,-69.8747 106.5182,-71.6592 105.3516,-64.757"/>
</g>
<!-- Node339 -->
<g id="node6" class="node">
<title>Node339</title>
<g id="a_node6"><a xlink:href="regress_8cxx.html#adaa095873c4ebfe8c954f43bc50f7b76" target="_top" xlink:title="normal_loop">
<polygon fill="#ffffff" stroke="#000000" points="155.5,-.5 155.5,-19.5 224.5,-19.5 224.5,-.5 155.5,-.5"/>
<text text-anchor="middle" x="190" y="-7.5" font-family="Helvetica,sans-Serif" font-size="10.00" fill="#000000">normal_loop</text>
</a>
</g>
</g>
<!-- Node334&#45;&gt;Node339 -->
<g id="edge5" class="edge">
<title>Node334&#45;&gt;Node339</title>
<path fill="none" stroke="#191970" d="M70.8089,-62.9168C87.3188,-52.4467 110.4306,-38.6924 132,-29 139.8287,-25.4821 148.5098,-22.2882 156.7202,-19.5655"/>
<polygon fill="#191970" stroke="#191970" points="68.8828,-59.9941 62.3676,-68.349 72.6709,-65.8806 68.8828,-59.9941"/>
</g>
<!-- Node337 -->
<g id="node4" class="node">
<title>Node337</title>
<g id="a_node4"><a xlink:href="classnuspell_1_1_locale___input.html#a143148b61a905f5e2c9d1803aa44b4c5" target="_top" xlink:title="nuspell::Locale_Input\l::cvt_for_byte_dict">
<polygon fill="#ffffff" stroke="#000000" points="284,-88 284,-118 393,-118 393,-88 284,-88"/>
<text text-anchor="start" x="292" y="-106" font-family="Helvetica,sans-Serif" font-size="10.00" fill="#000000">nuspell::Locale_Input</text>
<text text-anchor="middle" x="338.5" y="-95" font-family="Helvetica,sans-Serif" font-size="10.00" fill="#000000">::cvt_for_byte_dict</text>
</a>
</g>
</g>
<!-- Node336&#45;&gt;Node337 -->
<g id="edge3" class="edge">
<title>Node336&#45;&gt;Node337</title>
<path fill="none" stroke="#191970" d="M255.1552,-103C264.7325,-103 274.5147,-103 283.8515,-103"/>
<polygon fill="#191970" stroke="#191970" points="254.874,-99.5001 244.874,-103 254.874,-106.5001 254.874,-99.5001"/>
</g>
<!-- Node340 -->
<g id="node7" class="node">
<title>Node340</title>
<g id="a_node7"><a xlink:href="regress_8cxx.html#a0ddf1224851353fc92bfbff6f499fa97" target="_top" xlink:title="main">
<polygon fill="#ffffff" stroke="#000000" points="319.5,-.5 319.5,-19.5 357.5,-19.5 357.5,-.5 319.5,-.5"/>
<text text-anchor="middle" x="338.5" y="-7.5" font-family="Helvetica,sans-Serif" font-size="10.00" fill="#000000">main</text>
</a>
</g>
</g>
<!-- Node339&#45;&gt;Node340 -->
<g id="edge6" class="edge">
<title>Node339&#45;&gt;Node340</title>
<path fill="none" stroke="#191970" d="M234.8747,-10C263.1078,-10 298.0966,-10 319.3381,-10"/>
<polygon fill="#191970" stroke="#191970" points="234.8167,-6.5001 224.8167,-10 234.8166,-13.5001 234.8167,-6.5001"/>
</g>
</g>
</svg>
