<?xml version="1.0" encoding="UTF-8" standalone="no"?>
<!DOCTYPE svg PUBLIC "-//W3C//DTD SVG 1.1//EN"
 "http://www.w3.org/Graphics/SVG/1.1/DTD/svg11.dtd">
<!-- Generated by graphviz version 2.40.1 (20161225.0304)
 -->
<!-- Title: nuspell::split Pages: 1 -->
<svg width="344pt" height="28pt"
 viewBox="0.00 0.00 344.00 28.00" xmlns="http://www.w3.org/2000/svg" xmlns:xlink="http://www.w3.org/1999/xlink">
<g id="graph0" class="graph" transform="scale(1 1) rotate(0) translate(4 24)">
<title>nuspell::split</title>
<polygon fill="#ffffff" stroke="transparent" points="-4,4 -4,-24 340,-24 340,4 -4,4"/>
<!-- Node297 -->
<g id="node1" class="node">
<title>Node297</title>
<polygon fill="#bfbfbf" stroke="#000000" points="0,-.5 0,-19.5 71,-19.5 71,-.5 0,-.5"/>
<text text-anchor="middle" x="35.5" y="-7.5" font-family="Helvetica,sans-Serif" font-size="10.00" fill="#000000">nuspell::split</text>
</g>
<!-- Node298 -->
<g id="node2" class="node">
<title>Node298</title>
<g id="a_node2"><a xlink:href="namespacenuspell.html#a3fb4e305b46d4cd3a0ddb3400fb795c9" target="_top" xlink:title="Splits string on single char seperator. ">
<polygon fill="#ffffff" stroke="#000000" points="107,-.5 107,-19.5 178,-19.5 178,-.5 107,-.5"/>
<text text-anchor="middle" x="142.5" y="-7.5" font-family="Helvetica,sans-Serif" font-size="10.00" fill="#000000">nuspell::split</text>
</a>
</g>
</g>
<!-- Node297&#45;&gt;Node298 -->
<g id="edge1" class="edge">
<title>Node297&#45;&gt;Node298</title>
<path fill="none" stroke="#191970" d="M71.1295,-10C79.2549,-10 88.0017,-10 96.4917,-10"/>
<polygon fill="#191970" stroke="#191970" points="96.6613,-13.5001 106.6613,-10 96.6613,-6.5001 96.6613,-13.5001"/>
</g>
<!-- Node299 -->
<g id="node3" class="node">
<title>Node299</title>
<g id="a_node3"><a xlink:href="namespacenuspell.html#a5e34eda7ca7918b315117568464ebe46" target="_top" xlink:title="Splits string on set of single char seperators. ">
<polygon fill="#ffffff" stroke="#000000" points="214,-.5 214,-19.5 336,-19.5 336,-.5 214,-.5"/>
<text text-anchor="middle" x="275" y="-7.5" font-family="Helvetica,sans-Serif" font-size="10.00" fill="#000000">nuspell::split_on_any_of</text>
</a>
</g>
</g>
<!-- Node298&#45;&gt;Node299 -->
<g id="edge2" class="edge">
<title>Node298&#45;&gt;Node299</title>
<path fill="none" stroke="#191970" d="M178.0076,-10C186.0277,-10 194.8203,-10 203.7346,-10"/>
<polygon fill="#191970" stroke="#191970" points="203.8163,-13.5001 213.8162,-10 203.8162,-6.5001 203.8163,-13.5001"/>
</g>
</g>
</svg>
