<?xml version="1.0" encoding="UTF-8" standalone="no"?>
<!DOCTYPE svg PUBLIC "-//W3C//DTD SVG 1.1//EN"
 "http://www.w3.org/Graphics/SVG/1.1/DTD/svg11.dtd">
<!-- Generated by graphviz version 2.40.1 (20161225.0304)
 -->
<!-- Title: nuspell::validate_utf8 Pages: 1 -->
<svg width="251pt" height="88pt"
 viewBox="0.00 0.00 251.00 88.00" xmlns="http://www.w3.org/2000/svg" xmlns:xlink="http://www.w3.org/1999/xlink">
<g id="graph0" class="graph" transform="scale(1 1) rotate(0) translate(4 84)">
<title>nuspell::validate_utf8</title>
<polygon fill="#ffffff" stroke="transparent" points="-4,4 -4,-84 247,-84 247,4 -4,4"/>
<!-- Node422 -->
<g id="node1" class="node">
<title>Node422</title>
<polygon fill="#bfbfbf" stroke="#000000" points="0,-30 0,-49 109,-49 109,-30 0,-30"/>
<text text-anchor="middle" x="54.5" y="-37" font-family="Helvetica,sans-Serif" font-size="10.00" fill="#000000">nuspell::validate_utf8</text>
</g>
<!-- Node423 -->
<g id="node2" class="node">
<title>Node423</title>
<g id="a_node2"><a xlink:href="structnuspell_1_1_aff___data.html#a93b16b2b3938f607a18e3a67b9360b83" target="_top" xlink:title="Parses an input stream offering affix information. ">
<polygon fill="#ffffff" stroke="#000000" points="145,-49.5 145,-79.5 243,-79.5 243,-49.5 145,-49.5"/>
<text text-anchor="start" x="153" y="-67.5" font-family="Helvetica,sans-Serif" font-size="10.00" fill="#000000">nuspell::Aff_Data::</text>
<text text-anchor="middle" x="194" y="-56.5" font-family="Helvetica,sans-Serif" font-size="10.00" fill="#000000">parse_aff</text>
</a>
</g>
</g>
<!-- Node422&#45;&gt;Node423 -->
<g id="edge1" class="edge">
<title>Node422&#45;&gt;Node423</title>
<path fill="none" stroke="#191970" d="M117.7444,-50.8341C126.7809,-52.4536 135.9644,-54.0994 144.681,-55.6615"/>
<polygon fill="#191970" stroke="#191970" points="118.0975,-47.3417 107.6369,-49.0227 116.8627,-54.232 118.0975,-47.3417"/>
</g>
<!-- Node424 -->
<g id="node3" class="node">
<title>Node424</title>
<g id="a_node3"><a xlink:href="structnuspell_1_1_aff___data.html#ad77b0f3b5fc59f2c1ba29e5cbf8dc7ed" target="_top" xlink:title="Parses an input stream offering dictionary information. ">
<polygon fill="#ffffff" stroke="#000000" points="145,-.5 145,-30.5 243,-30.5 243,-.5 145,-.5"/>
<text text-anchor="start" x="153" y="-18.5" font-family="Helvetica,sans-Serif" font-size="10.00" fill="#000000">nuspell::Aff_Data::</text>
<text text-anchor="middle" x="194" y="-7.5" font-family="Helvetica,sans-Serif" font-size="10.00" fill="#000000">parse_dic</text>
</a>
</g>
</g>
<!-- Node422&#45;&gt;Node424 -->
<g id="edge2" class="edge">
<title>Node422&#45;&gt;Node424</title>
<path fill="none" stroke="#191970" d="M119.2621,-28.3581C127.8717,-26.8769 136.5831,-25.3782 144.8681,-23.9528"/>
<polygon fill="#191970" stroke="#191970" points="118.4955,-24.9385 109.2337,-30.0834 119.6824,-31.8372 118.4955,-24.9385"/>
</g>
</g>
</svg>
