<?xml version="1.0" encoding="UTF-8" standalone="no"?>
<!DOCTYPE svg PUBLIC "-//W3C//DTD SVG 1.1//EN"
 "http://www.w3.org/Graphics/SVG/1.1/DTD/svg11.dtd">
<!-- Generated by graphviz version 2.40.1 (20161225.0304)
 -->
<!-- Title: nuspell::strip_bom Pages: 1 -->
<svg width="238pt" height="88pt"
 viewBox="0.00 0.00 238.00 88.00" xmlns="http://www.w3.org/2000/svg" xmlns:xlink="http://www.w3.org/1999/xlink">
<g id="graph0" class="graph" transform="scale(1 1) rotate(0) translate(4 84)">
<title>nuspell::strip_bom</title>
<polygon fill="#ffffff" stroke="transparent" points="-4,4 -4,-84 234,-84 234,4 -4,4"/>
<!-- Node308 -->
<g id="node1" class="node">
<title>Node308</title>
<polygon fill="#bfbfbf" stroke="#000000" points="0,-30 0,-49 96,-49 96,-30 0,-30"/>
<text text-anchor="middle" x="48" y="-37" font-family="Helvetica,sans-Serif" font-size="10.00" fill="#000000">nuspell::strip_bom</text>
</g>
<!-- Node309 -->
<g id="node2" class="node">
<title>Node309</title>
<g id="a_node2"><a xlink:href="structnuspell_1_1_aff___data.html#a93b16b2b3938f607a18e3a67b9360b83" target="_top" xlink:title="Parses an input stream offering affix information. ">
<polygon fill="#ffffff" stroke="#000000" points="132,-49.5 132,-79.5 230,-79.5 230,-49.5 132,-49.5"/>
<text text-anchor="start" x="140" y="-67.5" font-family="Helvetica,sans-Serif" font-size="10.00" fill="#000000">nuspell::Aff_Data::</text>
<text text-anchor="middle" x="181" y="-56.5" font-family="Helvetica,sans-Serif" font-size="10.00" fill="#000000">parse_aff</text>
</a>
</g>
</g>
<!-- Node308&#45;&gt;Node309 -->
<g id="edge1" class="edge">
<title>Node308&#45;&gt;Node309</title>
<path fill="none" stroke="#191970" d="M105.9685,-50.3963C114.5518,-52.0097 123.3278,-53.6594 131.7119,-55.2353"/>
<polygon fill="#191970" stroke="#191970" points="106.4905,-46.9332 96.0161,-48.5256 105.1973,-53.8128 106.4905,-46.9332"/>
</g>
<!-- Node310 -->
<g id="node3" class="node">
<title>Node310</title>
<g id="a_node3"><a xlink:href="structnuspell_1_1_aff___data.html#ad77b0f3b5fc59f2c1ba29e5cbf8dc7ed" target="_top" xlink:title="Parses an input stream offering dictionary information. ">
<polygon fill="#ffffff" stroke="#000000" points="132,-.5 132,-30.5 230,-30.5 230,-.5 132,-.5"/>
<text text-anchor="start" x="140" y="-18.5" font-family="Helvetica,sans-Serif" font-size="10.00" fill="#000000">nuspell::Aff_Data::</text>
<text text-anchor="middle" x="181" y="-7.5" font-family="Helvetica,sans-Serif" font-size="10.00" fill="#000000">parse_dic</text>
</a>
</g>
</g>
<!-- Node308&#45;&gt;Node310 -->
<g id="edge2" class="edge">
<title>Node308&#45;&gt;Node310</title>
<path fill="none" stroke="#191970" d="M105.9685,-29.0395C114.5518,-27.4907 123.3278,-25.907 131.7119,-24.3941"/>
<polygon fill="#191970" stroke="#191970" points="105.2355,-25.6152 96.0161,-30.8354 106.4787,-32.5039 105.2355,-25.6152"/>
</g>
</g>
</svg>
