<?xml version="1.0" encoding="UTF-8" standalone="no"?>
<!DOCTYPE svg PUBLIC "-//W3C//DTD SVG 1.1//EN"
 "http://www.w3.org/Graphics/SVG/1.1/DTD/svg11.dtd">
<!-- Generated by graphviz version 2.40.1 (20161225.0304)
 -->
<!-- Title: nuspell::to_wide Pages: 1 -->
<svg width="385pt" height="165pt"
 viewBox="0.00 0.00 385.00 165.00" xmlns="http://www.w3.org/2000/svg" xmlns:xlink="http://www.w3.org/1999/xlink">
<g id="graph0" class="graph" transform="scale(1 1) rotate(0) translate(4 161)">
<title>nuspell::to_wide</title>
<polygon fill="#ffffff" stroke="transparent" points="-4,4 -4,-161 381,-161 381,4 -4,4"/>
<!-- Node345 -->
<g id="node1" class="node">
<title>Node345</title>
<polygon fill="#bfbfbf" stroke="#000000" points="0,-68.5 0,-87.5 87,-87.5 87,-68.5 0,-68.5"/>
<text text-anchor="middle" x="43.5" y="-75.5" font-family="Helvetica,sans-Serif" font-size="10.00" fill="#000000">nuspell::to_wide</text>
</g>
<!-- Node346 -->
<g id="node2" class="node">
<title>Node346</title>
<g id="a_node2"><a xlink:href="namespacenuspell.html#a7f99b7ec5f56db773581d659bb42a240" target="_top" xlink:title="nuspell::to_wide">
<polygon fill="#ffffff" stroke="#000000" points="134,-137.5 134,-156.5 221,-156.5 221,-137.5 134,-137.5"/>
<text text-anchor="middle" x="177.5" y="-144.5" font-family="Helvetica,sans-Serif" font-size="10.00" fill="#000000">nuspell::to_wide</text>
</a>
</g>
</g>
<!-- Node345&#45;&gt;Node346 -->
<g id="edge1" class="edge">
<title>Node345&#45;&gt;Node346</title>
<path fill="none" stroke="#191970" d="M65.1393,-93.4899C80.7066,-104.1573 102.4887,-118.1315 123,-128 130.314,-131.5189 138.4557,-134.7132 146.1692,-137.4359"/>
<polygon fill="#191970" stroke="#191970" points="66.9548,-90.4892 56.7482,-87.6472 62.9548,-96.2338 66.9548,-90.4892"/>
</g>
<!-- Node347 -->
<g id="node3" class="node">
<title>Node347</title>
<g id="a_node3"><a xlink:href="classnuspell_1_1_locale___input.html#a4f4dc80f71f17035aa9841f1214250c6" target="_top" xlink:title="nuspell::Locale_Input\l::cvt_for_byte_dict">
<polygon fill="#ffffff" stroke="#000000" points="123,-88 123,-118 232,-118 232,-88 123,-88"/>
<text text-anchor="start" x="131" y="-106" font-family="Helvetica,sans-Serif" font-size="10.00" fill="#000000">nuspell::Locale_Input</text>
<text text-anchor="middle" x="177.5" y="-95" font-family="Helvetica,sans-Serif" font-size="10.00" fill="#000000">::cvt_for_byte_dict</text>
</a>
</g>
</g>
<!-- Node345&#45;&gt;Node347 -->
<g id="edge2" class="edge">
<title>Node345&#45;&gt;Node347</title>
<path fill="none" stroke="#191970" d="M96.8916,-87.9611C105.4645,-89.5605 114.3476,-91.2178 122.9473,-92.8222"/>
<polygon fill="#191970" stroke="#191970" points="97.4783,-84.5103 87.006,-86.1168 96.1944,-91.3915 97.4783,-84.5103"/>
</g>
<!-- Node349 -->
<g id="node5" class="node">
<title>Node349</title>
<g id="a_node5"><a xlink:href="classnuspell_1_1_locale___input.html#a5be7c2be125d06fbaeb953cc148fb489" target="_top" xlink:title="nuspell::Locale_Input\l::cvt_for_u8_dict">
<polygon fill="#ffffff" stroke="#000000" points="123,-39 123,-69 232,-69 232,-39 123,-39"/>
<text text-anchor="start" x="131" y="-57" font-family="Helvetica,sans-Serif" font-size="10.00" fill="#000000">nuspell::Locale_Input</text>
<text text-anchor="middle" x="177.5" y="-46" font-family="Helvetica,sans-Serif" font-size="10.00" fill="#000000">::cvt_for_u8_dict</text>
</a>
</g>
</g>
<!-- Node345&#45;&gt;Node349 -->
<g id="edge4" class="edge">
<title>Node345&#45;&gt;Node349</title>
<path fill="none" stroke="#191970" d="M96.8916,-68.4373C105.4645,-66.9019 114.3476,-65.3109 122.9473,-63.7706"/>
<polygon fill="#191970" stroke="#191970" points="96.2323,-64.9996 87.006,-70.2079 97.4664,-71.89 96.2323,-64.9996"/>
</g>
<!-- Node351 -->
<g id="node7" class="node">
<title>Node351</title>
<g id="a_node7"><a xlink:href="regress_8cxx.html#adaa095873c4ebfe8c954f43bc50f7b76" target="_top" xlink:title="normal_loop">
<polygon fill="#ffffff" stroke="#000000" points="143,-.5 143,-19.5 212,-19.5 212,-.5 143,-.5"/>
<text text-anchor="middle" x="177.5" y="-7.5" font-family="Helvetica,sans-Serif" font-size="10.00" fill="#000000">normal_loop</text>
</a>
</g>
</g>
<!-- Node345&#45;&gt;Node351 -->
<g id="edge6" class="edge">
<title>Node345&#45;&gt;Node351</title>
<path fill="none" stroke="#191970" d="M65.4641,-62.6626C81.0323,-52.2469 102.6822,-38.6623 123,-29 130.4203,-25.4712 138.6787,-22.2537 146.4769,-19.51"/>
<polygon fill="#191970" stroke="#191970" points="63.3608,-59.8602 57.0567,-68.3754 67.295,-65.65 63.3608,-59.8602"/>
</g>
<!-- Node348 -->
<g id="node4" class="node">
<title>Node348</title>
<g id="a_node4"><a xlink:href="classnuspell_1_1_locale___input.html#a143148b61a905f5e2c9d1803aa44b4c5" target="_top" xlink:title="nuspell::Locale_Input\l::cvt_for_byte_dict">
<polygon fill="#ffffff" stroke="#000000" points="268,-88 268,-118 377,-118 377,-88 268,-88"/>
<text text-anchor="start" x="276" y="-106" font-family="Helvetica,sans-Serif" font-size="10.00" fill="#000000">nuspell::Locale_Input</text>
<text text-anchor="middle" x="322.5" y="-95" font-family="Helvetica,sans-Serif" font-size="10.00" fill="#000000">::cvt_for_byte_dict</text>
</a>
</g>
</g>
<!-- Node347&#45;&gt;Node348 -->
<g id="edge3" class="edge">
<title>Node347&#45;&gt;Node348</title>
<path fill="none" stroke="#191970" d="M242.4621,-103C250.8588,-103 259.3919,-103 267.6042,-103"/>
<polygon fill="#191970" stroke="#191970" points="242.3183,-99.5001 232.3183,-103 242.3182,-106.5001 242.3183,-99.5001"/>
</g>
<!-- Node350 -->
<g id="node6" class="node">
<title>Node350</title>
<g id="a_node6"><a xlink:href="classnuspell_1_1_locale___input.html#a31d789637da9d6b3fc790544f88588a1" target="_top" xlink:title="nuspell::Locale_Input\l::cvt_for_u8_dict">
<polygon fill="#ffffff" stroke="#000000" points="268,-39 268,-69 377,-69 377,-39 268,-39"/>
<text text-anchor="start" x="276" y="-57" font-family="Helvetica,sans-Serif" font-size="10.00" fill="#000000">nuspell::Locale_Input</text>
<text text-anchor="middle" x="322.5" y="-46" font-family="Helvetica,sans-Serif" font-size="10.00" fill="#000000">::cvt_for_u8_dict</text>
</a>
</g>
</g>
<!-- Node349&#45;&gt;Node350 -->
<g id="edge5" class="edge">
<title>Node349&#45;&gt;Node350</title>
<path fill="none" stroke="#191970" d="M242.4621,-54C250.8588,-54 259.3919,-54 267.6042,-54"/>
<polygon fill="#191970" stroke="#191970" points="242.3183,-50.5001 232.3183,-54 242.3182,-57.5001 242.3183,-50.5001"/>
</g>
<!-- Node352 -->
<g id="node8" class="node">
<title>Node352</title>
<g id="a_node8"><a xlink:href="regress_8cxx.html#a0ddf1224851353fc92bfbff6f499fa97" target="_top" xlink:title="main">
<polygon fill="#ffffff" stroke="#000000" points="303.5,-.5 303.5,-19.5 341.5,-19.5 341.5,-.5 303.5,-.5"/>
<text text-anchor="middle" x="322.5" y="-7.5" font-family="Helvetica,sans-Serif" font-size="10.00" fill="#000000">main</text>
</a>
</g>
</g>
<!-- Node351&#45;&gt;Node352 -->
<g id="edge7" class="edge">
<title>Node351&#45;&gt;Node352</title>
<path fill="none" stroke="#191970" d="M222.2884,-10C249.4099,-10 282.622,-10 303.1725,-10"/>
<polygon fill="#191970" stroke="#191970" points="222.2311,-6.5001 212.2311,-10 222.2311,-13.5001 222.2311,-6.5001"/>
</g>
</g>
</svg>
