<?xml version="1.0" encoding="UTF-8" standalone="no"?>
<!DOCTYPE svg PUBLIC "-//W3C//DTD SVG 1.1//EN"
 "http://www.w3.org/Graphics/SVG/1.1/DTD/svg11.dtd">
<!-- Generated by graphviz version 2.40.1 (20161225.0304)
 -->
<!-- Title: nuspell::to_wide Pages: 1 -->
<svg width="482pt" height="218pt"
 viewBox="0.00 0.00 482.00 218.00" xmlns="http://www.w3.org/2000/svg" xmlns:xlink="http://www.w3.org/1999/xlink">
<g id="graph0" class="graph" transform="scale(1 1) rotate(0) translate(4 214)">
<title>nuspell::to_wide</title>
<polygon fill="#ffffff" stroke="transparent" points="-4,4 -4,-214 478,-214 478,4 -4,4"/>
<!-- Node355 -->
<g id="node1" class="node">
<title>Node355</title>
<polygon fill="#bfbfbf" stroke="#000000" points="0,-62.5 0,-81.5 87,-81.5 87,-62.5 0,-62.5"/>
<text text-anchor="middle" x="43.5" y="-69.5" font-family="Helvetica,sans-Serif" font-size="10.00" fill="#000000">nuspell::to_wide</text>
</g>
<!-- Node356 -->
<g id="node2" class="node">
<title>Node356</title>
<g id="a_node2"><a xlink:href="classnuspell_1_1_basic___dictionary.html#a05ed25f4b65c93f0389295303e43e509" target="_top" xlink:title="nuspell::Basic_Dictionary\l::spell">
<polygon fill="#ffffff" stroke="#000000" points="123,-105 123,-135 251,-135 251,-105 123,-105"/>
<text text-anchor="start" x="131" y="-123" font-family="Helvetica,sans-Serif" font-size="10.00" fill="#000000">nuspell::Basic_Dictionary</text>
<text text-anchor="middle" x="187" y="-112" font-family="Helvetica,sans-Serif" font-size="10.00" fill="#000000">::spell</text>
</a>
</g>
</g>
<!-- Node355&#45;&gt;Node356 -->
<g id="edge1" class="edge">
<title>Node355&#45;&gt;Node356</title>
<path fill="none" stroke="#191970" d="M81.7667,-84.8C100.2833,-90.9937 122.6352,-98.4703 141.9679,-104.937"/>
<polygon fill="#191970" stroke="#191970" points="82.7883,-81.4512 72.1945,-81.5982 80.5677,-88.0896 82.7883,-81.4512"/>
</g>
<!-- Node363 -->
<g id="node9" class="node">
<title>Node363</title>
<g id="a_node9"><a xlink:href="namespacenuspell.html#a7f99b7ec5f56db773581d659bb42a240" target="_top" xlink:title="nuspell::to_wide">
<polygon fill="#ffffff" stroke="#000000" points="143.5,-62.5 143.5,-81.5 230.5,-81.5 230.5,-62.5 143.5,-62.5"/>
<text text-anchor="middle" x="187" y="-69.5" font-family="Helvetica,sans-Serif" font-size="10.00" fill="#000000">nuspell::to_wide</text>
</a>
</g>
</g>
<!-- Node355&#45;&gt;Node363 -->
<g id="edge12" class="edge">
<title>Node355&#45;&gt;Node363</title>
<path fill="none" stroke="#191970" d="M97.5994,-72C112.7365,-72 128.991,-72 143.434,-72"/>
<polygon fill="#191970" stroke="#191970" points="97.3345,-68.5001 87.3345,-72 97.3344,-75.5001 97.3345,-68.5001"/>
</g>
<!-- Node364 -->
<g id="node10" class="node">
<title>Node364</title>
<g id="a_node10"><a xlink:href="regress_8cxx.html#adaa095873c4ebfe8c954f43bc50f7b76" target="_top" xlink:title="normal_loop">
<polygon fill="#ffffff" stroke="#000000" points="152.5,-16.5 152.5,-35.5 221.5,-35.5 221.5,-16.5 152.5,-16.5"/>
<text text-anchor="middle" x="187" y="-23.5" font-family="Helvetica,sans-Serif" font-size="10.00" fill="#000000">normal_loop</text>
</a>
</g>
</g>
<!-- Node355&#45;&gt;Node364 -->
<g id="edge13" class="edge">
<title>Node355&#45;&gt;Node364</title>
<path fill="none" stroke="#191970" d="M82.907,-59.3678C106.4084,-51.8343 135.7644,-42.424 157.3048,-35.519"/>
<polygon fill="#191970" stroke="#191970" points="81.6876,-56.0832 73.2333,-62.4688 83.8244,-62.7491 81.6876,-56.0832"/>
</g>
<!-- Node357 -->
<g id="node3" class="node">
<title>Node357</title>
<g id="a_node3"><a xlink:href="main_8cxx.html#a4a642b8579e49cab4ef7293d66f1f5d5" target="_top" xlink:title="Normal loop, tokenize and check spelling. ">
<polygon fill="#ffffff" stroke="#000000" points="309,-190.5 309,-209.5 378,-209.5 378,-190.5 309,-190.5"/>
<text text-anchor="middle" x="343.5" y="-197.5" font-family="Helvetica,sans-Serif" font-size="10.00" fill="#000000">normal_loop</text>
</a>
</g>
</g>
<!-- Node356&#45;&gt;Node357 -->
<g id="edge2" class="edge">
<title>Node356&#45;&gt;Node357</title>
<path fill="none" stroke="#191970" d="M216.8548,-140.6448C236.2362,-153.4255 262.3831,-169.5288 287,-181 294.5981,-184.5406 303.0444,-187.7429 311.0415,-190.4664"/>
<polygon fill="#191970" stroke="#191970" points="218.7153,-137.6786 208.4556,-135.0349 214.8274,-143.4996 218.7153,-137.6786"/>
</g>
<!-- Node359 -->
<g id="node5" class="node">
<title>Node359</title>
<g id="a_node5"><a xlink:href="main_8cxx.html#aebf1b2aa274390a39317fbbca50d9d5e" target="_top" xlink:title="Prints misspelled words from an input stream to an output stream. ">
<polygon fill="#ffffff" stroke="#000000" points="287,-152.5 287,-171.5 400,-171.5 400,-152.5 287,-152.5"/>
<text text-anchor="middle" x="343.5" y="-159.5" font-family="Helvetica,sans-Serif" font-size="10.00" fill="#000000">misspelled_word_loop</text>
</a>
</g>
</g>
<!-- Node356&#45;&gt;Node359 -->
<g id="edge4" class="edge">
<title>Node356&#45;&gt;Node359</title>
<path fill="none" stroke="#191970" d="M252.8043,-137.6599C271.6602,-142.7203 291.5057,-148.0462 307.8087,-152.4215"/>
<polygon fill="#191970" stroke="#191970" points="253.6235,-134.256 243.0581,-135.0443 251.8091,-141.0168 253.6235,-134.256"/>
</g>
<!-- Node360 -->
<g id="node6" class="node">
<title>Node360</title>
<g id="a_node6"><a xlink:href="main_8cxx.html#a1248d9e693e561e175cf2e5b55499fff" target="_top" xlink:title="correct_word_loop">
<polygon fill="#ffffff" stroke="#000000" points="295.5,-114.5 295.5,-133.5 391.5,-133.5 391.5,-114.5 295.5,-114.5"/>
<text text-anchor="middle" x="343.5" y="-121.5" font-family="Helvetica,sans-Serif" font-size="10.00" fill="#000000">correct_word_loop</text>
</a>
</g>
</g>
<!-- Node356&#45;&gt;Node360 -->
<g id="edge6" class="edge">
<title>Node356&#45;&gt;Node360</title>
<path fill="none" stroke="#191970" d="M261.17,-121.8957C272.6853,-122.19 284.3188,-122.4874 295.0692,-122.7622"/>
<polygon fill="#191970" stroke="#191970" points="261.1923,-118.3952 251.1061,-121.6385 261.0134,-125.393 261.1923,-118.3952"/>
</g>
<!-- Node361 -->
<g id="node7" class="node">
<title>Node361</title>
<g id="a_node7"><a xlink:href="main_8cxx.html#a1f92dedeeb68a1a7bc2b720097d3b7a4" target="_top" xlink:title="misspelled_line_loop">
<polygon fill="#ffffff" stroke="#000000" points="290,-76.5 290,-95.5 397,-95.5 397,-76.5 290,-76.5"/>
<text text-anchor="middle" x="343.5" y="-83.5" font-family="Helvetica,sans-Serif" font-size="10.00" fill="#000000">misspelled_line_loop</text>
</a>
</g>
</g>
<!-- Node356&#45;&gt;Node361 -->
<g id="edge8" class="edge">
<title>Node356&#45;&gt;Node361</title>
<path fill="none" stroke="#191970" d="M261.0617,-103.9099C274.1525,-101.0659 287.4,-98.1879 299.3331,-95.5954"/>
<polygon fill="#191970" stroke="#191970" points="260.1351,-100.5295 251.1061,-106.0728 261.6212,-107.3699 260.1351,-100.5295"/>
</g>
<!-- Node362 -->
<g id="node8" class="node">
<title>Node362</title>
<g id="a_node8"><a xlink:href="main_8cxx.html#a16580c4100b461806a9c49575bdd5428" target="_top" xlink:title="correct_line_loop">
<polygon fill="#ffffff" stroke="#000000" points="298.5,-38.5 298.5,-57.5 388.5,-57.5 388.5,-38.5 298.5,-38.5"/>
<text text-anchor="middle" x="343.5" y="-45.5" font-family="Helvetica,sans-Serif" font-size="10.00" fill="#000000">correct_line_loop</text>
</a>
</g>
</g>
<!-- Node356&#45;&gt;Node362 -->
<g id="edge10" class="edge">
<title>Node356&#45;&gt;Node362</title>
<path fill="none" stroke="#191970" d="M232.2961,-100.5881C238.6588,-97.5406 245.0522,-94.3014 251,-91 267.8132,-81.6675 269.737,-75.4715 287,-67 294.3395,-63.3983 302.5296,-60.2102 310.3464,-57.5233"/>
<polygon fill="#191970" stroke="#191970" points="230.6343,-97.5011 223.0515,-104.9006 233.5936,-103.8448 230.6343,-97.5011"/>
</g>
<!-- Node358 -->
<g id="node4" class="node">
<title>Node358</title>
<g id="a_node4"><a xlink:href="main_8cxx.html#a0ddf1224851353fc92bfbff6f499fa97" target="_top" xlink:title="main">
<polygon fill="#ffffff" stroke="#000000" points="436,-114.5 436,-133.5 474,-133.5 474,-114.5 436,-114.5"/>
<text text-anchor="middle" x="455" y="-121.5" font-family="Helvetica,sans-Serif" font-size="10.00" fill="#000000">main</text>
</a>
</g>
</g>
<!-- Node357&#45;&gt;Node358 -->
<g id="edge3" class="edge">
<title>Node357&#45;&gt;Node358</title>
<path fill="none" stroke="#191970" d="M387.6668,-187.4894C391.9685,-185.5856 396.1568,-183.43 400,-181 420.224,-168.2125 438.3646,-146.4754 447.911,-133.8621"/>
<polygon fill="#191970" stroke="#191970" points="386.1616,-184.3211 378.1582,-191.2636 388.7441,-190.8273 386.1616,-184.3211"/>
</g>
<!-- Node359&#45;&gt;Node358 -->
<g id="edge5" class="edge">
<title>Node359&#45;&gt;Node358</title>
<path fill="none" stroke="#191970" d="M381.4947,-149.2706C387.6827,-147.1838 394.0217,-145.0378 400,-143 411.9526,-138.9258 425.3458,-134.3004 435.923,-130.6334"/>
<polygon fill="#191970" stroke="#191970" points="380.3295,-145.9698 371.9686,-152.4772 382.5627,-152.6041 380.3295,-145.9698"/>
</g>
<!-- Node360&#45;&gt;Node358 -->
<g id="edge7" class="edge">
<title>Node360&#45;&gt;Node358</title>
<path fill="none" stroke="#191970" d="M402.0156,-124C414.24,-124 426.2866,-124 435.7968,-124"/>
<polygon fill="#191970" stroke="#191970" points="401.7571,-120.5001 391.757,-124 401.757,-127.5001 401.7571,-120.5001"/>
</g>
<!-- Node361&#45;&gt;Node358 -->
<g id="edge9" class="edge">
<title>Node361&#45;&gt;Node358</title>
<path fill="none" stroke="#191970" d="M381.4947,-98.7294C387.6827,-100.8162 394.0217,-102.9622 400,-105 411.9526,-109.0742 425.3458,-113.6996 435.923,-117.3666"/>
<polygon fill="#191970" stroke="#191970" points="382.5627,-95.3959 371.9686,-95.5228 380.3295,-102.0302 382.5627,-95.3959"/>
</g>
<!-- Node362&#45;&gt;Node358 -->
<g id="edge11" class="edge">
<title>Node362&#45;&gt;Node358</title>
<path fill="none" stroke="#191970" d="M389.9494,-61.5501C393.447,-63.1896 396.8402,-65.002 400,-67 420.224,-79.7875 438.3646,-101.5246 447.911,-114.1379"/>
<polygon fill="#191970" stroke="#191970" points="391.1109,-58.2421 380.5352,-57.6057 388.4057,-64.6983 391.1109,-58.2421"/>
</g>
<!-- Node365 -->
<g id="node11" class="node">
<title>Node365</title>
<g id="a_node11"><a xlink:href="regress_8cxx.html#a0ddf1224851353fc92bfbff6f499fa97" target="_top" xlink:title="main">
<polygon fill="#ffffff" stroke="#000000" points="324.5,-.5 324.5,-19.5 362.5,-19.5 362.5,-.5 324.5,-.5"/>
<text text-anchor="middle" x="343.5" y="-7.5" font-family="Helvetica,sans-Serif" font-size="10.00" fill="#000000">main</text>
</a>
</g>
</g>
<!-- Node364&#45;&gt;Node365 -->
<g id="edge14" class="edge">
<title>Node364&#45;&gt;Node365</title>
<path fill="none" stroke="#191970" d="M231.7277,-21.4272C262.2535,-18.3063 301.1722,-14.3274 324.1088,-11.9825"/>
<polygon fill="#191970" stroke="#191970" points="231.3246,-17.9501 221.7324,-22.4491 232.0366,-24.9138 231.3246,-17.9501"/>
</g>
</g>
</svg>
