<?xml version="1.0" encoding="UTF-8" standalone="no"?>
<!DOCTYPE svg PUBLIC "-//W3C//DTD SVG 1.1//EN"
 "http://www.w3.org/Graphics/SVG/1.1/DTD/svg11.dtd">
<!-- Generated by graphviz version 2.40.1 (20161225.0304)
 -->
<!-- Title: nuspell::is_ascii Pages: 1 -->
<svg width="870pt" height="192pt"
 viewBox="0.00 0.00 870.00 191.50" xmlns="http://www.w3.org/2000/svg" xmlns:xlink="http://www.w3.org/1999/xlink">
<g id="graph0" class="graph" transform="scale(1 1) rotate(0) translate(4 187.5)">
<title>nuspell::is_ascii</title>
<polygon fill="#ffffff" stroke="transparent" points="-4,4 -4,-187.5 866,-187.5 866,4 -4,4"/>
<!-- Node144 -->
<g id="node1" class="node">
<title>Node144</title>
<polygon fill="#bfbfbf" stroke="#000000" points="0,-107 0,-126 86,-126 86,-107 0,-107"/>
<text text-anchor="middle" x="43" y="-114" font-family="Helvetica,sans-Serif" font-size="10.00" fill="#000000">nuspell::is_ascii</text>
</g>
<!-- Node145 -->
<g id="node2" class="node">
<title>Node145</title>
<g id="a_node2"><a xlink:href="namespacenuspell.html#aa37c89934a500dfd75dbb3cc18321834" target="_top" xlink:title="nuspell::is_all_ascii">
<polygon fill="#ffffff" stroke="#000000" points="122,-107 122,-126 223,-126 223,-107 122,-107"/>
<text text-anchor="middle" x="172.5" y="-114" font-family="Helvetica,sans-Serif" font-size="10.00" fill="#000000">nuspell::is_all_ascii</text>
</a>
</g>
</g>
<!-- Node144&#45;&gt;Node145 -->
<g id="edge1" class="edge">
<title>Node144&#45;&gt;Node145</title>
<path fill="none" stroke="#191970" d="M96.2912,-116.5C104.7721,-116.5 113.5239,-116.5 121.9393,-116.5"/>
<polygon fill="#191970" stroke="#191970" points="96.1217,-113.0001 86.1216,-116.5 96.1216,-120.0001 96.1217,-113.0001"/>
</g>
<!-- Node146 -->
<g id="node3" class="node">
<title>Node146</title>
<g id="a_node3"><a xlink:href="namespacenuspell.html#adbb8e053a44129d0f51014facd48b7f9" target="_top" xlink:title="Decodes flags. ">
<polygon fill="#ffffff" stroke="#000000" points="259,-107 259,-126 370,-126 370,-107 259,-107"/>
<text text-anchor="middle" x="314.5" y="-114" font-family="Helvetica,sans-Serif" font-size="10.00" fill="#000000">nuspell::decode_flags</text>
</a>
</g>
</g>
<!-- Node145&#45;&gt;Node146 -->
<g id="edge2" class="edge">
<title>Node145&#45;&gt;Node146</title>
<path fill="none" stroke="#191970" d="M233.4608,-116.5C241.8421,-116.5 250.4139,-116.5 258.6963,-116.5"/>
<polygon fill="#191970" stroke="#191970" points="233.3642,-113.0001 223.3642,-116.5 233.3641,-120.0001 233.3642,-113.0001"/>
</g>
<!-- Node147 -->
<g id="node4" class="node">
<title>Node147</title>
<g id="a_node4"><a xlink:href="namespacenuspell.html#ac3ed6d85c13c609eb5c51628b9dbac76" target="_top" xlink:title="Decodes a single flag from an input stream. ">
<polygon fill="#ffffff" stroke="#000000" points="406,-88 406,-107 543,-107 543,-88 406,-88"/>
<text text-anchor="middle" x="474.5" y="-95" font-family="Helvetica,sans-Serif" font-size="10.00" fill="#000000">nuspell::decode_single_flag</text>
</a>
</g>
</g>
<!-- Node146&#45;&gt;Node147 -->
<g id="edge3" class="edge">
<title>Node146&#45;&gt;Node147</title>
<path fill="none" stroke="#191970" d="M380.1923,-108.699C388.6503,-107.6946 397.329,-106.6641 405.8332,-105.6542"/>
<polygon fill="#191970" stroke="#191970" points="379.5287,-105.2532 370.0112,-109.908 380.3542,-112.2043 379.5287,-105.2532"/>
</g>
<!-- Node149 -->
<g id="node6" class="node">
<title>Node149</title>
<g id="a_node6"><a xlink:href="structnuspell_1_1_aff___data.html#a93b16b2b3938f607a18e3a67b9360b83" target="_top" xlink:title="Parses an input stream offering affix information. ">
<polygon fill="#ffffff" stroke="#000000" points="764,-101.5 764,-131.5 862,-131.5 862,-101.5 764,-101.5"/>
<text text-anchor="start" x="772" y="-119.5" font-family="Helvetica,sans-Serif" font-size="10.00" fill="#000000">nuspell::Aff_Data::</text>
<text text-anchor="middle" x="813" y="-108.5" font-family="Helvetica,sans-Serif" font-size="10.00" fill="#000000">parse_aff</text>
</a>
</g>
</g>
<!-- Node146&#45;&gt;Node149 -->
<g id="edge12" class="edge">
<title>Node146&#45;&gt;Node149</title>
<path fill="none" stroke="#191970" d="M380.1452,-118.9719C461.7145,-121.6566 605.1579,-125.1099 728,-121.5 739.5253,-121.1613 751.9184,-120.5648 763.5804,-119.8991"/>
<polygon fill="#191970" stroke="#191970" points="380.1369,-115.4697 370.0251,-118.6322 379.902,-122.4658 380.1369,-115.4697"/>
</g>
<!-- Node150 -->
<g id="node7" class="node">
<title>Node150</title>
<g id="a_node7"><a xlink:href="namespacenuspell.html#a3d81c446c32c53cd03e595f8fde9c2ab" target="_top" xlink:title="nuspell::decode_flags\l_possible_alias">
<polygon fill="#ffffff" stroke="#000000" points="419,-38.5 419,-68.5 530,-68.5 530,-38.5 419,-38.5"/>
<text text-anchor="start" x="427" y="-56.5" font-family="Helvetica,sans-Serif" font-size="10.00" fill="#000000">nuspell::decode_flags</text>
<text text-anchor="middle" x="474.5" y="-45.5" font-family="Helvetica,sans-Serif" font-size="10.00" fill="#000000">_possible_alias</text>
</a>
</g>
</g>
<!-- Node146&#45;&gt;Node150 -->
<g id="edge7" class="edge">
<title>Node146&#45;&gt;Node150</title>
<path fill="none" stroke="#191970" d="M346.1742,-102.9459C363.7276,-95.5354 385.9879,-86.3031 406,-78.5 414.4922,-75.1887 423.626,-71.7625 432.3688,-68.5479"/>
<polygon fill="#191970" stroke="#191970" points="344.7923,-99.7301 336.9507,-106.8548 347.5237,-106.1752 344.7923,-99.7301"/>
</g>
<!-- Node152 -->
<g id="node9" class="node">
<title>Node152</title>
<g id="a_node9"><a xlink:href="namespacenuspell.html#a82f70879bf54a6f7118852b75d8ddbfc" target="_top" xlink:title="nuspell::parse_compound_rule">
<polygon fill="#ffffff" stroke="#000000" points="579,-164 579,-183 728,-183 728,-164 579,-164"/>
<text text-anchor="middle" x="653.5" y="-171" font-family="Helvetica,sans-Serif" font-size="10.00" fill="#000000">nuspell::parse_compound_rule</text>
</a>
</g>
</g>
<!-- Node146&#45;&gt;Node152 -->
<g id="edge10" class="edge">
<title>Node146&#45;&gt;Node152</title>
<path fill="none" stroke="#191970" d="M345.867,-130.0128C363.2674,-136.9449 385.4799,-144.8811 406,-149.5 463.1732,-162.3692 529.306,-168.3386 578.8199,-171.107"/>
<polygon fill="#191970" stroke="#191970" points="346.8083,-126.6169 336.2271,-126.08 344.1641,-133.0982 346.8083,-126.6169"/>
</g>
<!-- Node148 -->
<g id="node5" class="node">
<title>Node148</title>
<g id="a_node5"><a xlink:href="namespacenuspell.html#a431abe5c2853b6f099bfedd5b6a4bb9f" target="_top" xlink:title="Parses an affix from an input stream. ">
<polygon fill="#ffffff" stroke="#000000" points="603,-50 603,-69 704,-69 704,-50 603,-50"/>
<text text-anchor="middle" x="653.5" y="-57" font-family="Helvetica,sans-Serif" font-size="10.00" fill="#000000">nuspell::parse_affix</text>
</a>
</g>
</g>
<!-- Node147&#45;&gt;Node148 -->
<g id="edge4" class="edge">
<title>Node147&#45;&gt;Node148</title>
<path fill="none" stroke="#191970" d="M529.5236,-85.819C554.9082,-80.4301 584.6607,-74.1139 608.6556,-69.0201"/>
<polygon fill="#191970" stroke="#191970" points="528.7244,-82.4106 519.6693,-87.911 530.1781,-89.258 528.7244,-82.4106"/>
</g>
<!-- Node147&#45;&gt;Node149 -->
<g id="edge6" class="edge">
<title>Node147&#45;&gt;Node149</title>
<path fill="none" stroke="#191970" d="M553.213,-101.9182C618.2547,-105.5689 708.5756,-110.6387 763.7849,-113.7376"/>
<polygon fill="#191970" stroke="#191970" points="553.181,-98.4109 543.0005,-101.3449 552.7886,-105.3999 553.181,-98.4109"/>
</g>
<!-- Node148&#45;&gt;Node149 -->
<g id="edge5" class="edge">
<title>Node148&#45;&gt;Node149</title>
<path fill="none" stroke="#191970" d="M694.25,-72.1511C705.249,-75.6954 717.1167,-79.6381 728,-83.5 743.6646,-89.0585 760.7787,-95.6089 775.5181,-101.4023"/>
<polygon fill="#191970" stroke="#191970" points="695.0369,-68.7283 684.4461,-69.0219 692.9084,-75.3969 695.0369,-68.7283"/>
</g>
<!-- Node150&#45;&gt;Node148 -->
<g id="edge8" class="edge">
<title>Node150&#45;&gt;Node148</title>
<path fill="none" stroke="#191970" d="M540.4121,-55.7093C560.9964,-56.3993 583.3734,-57.1494 602.7481,-57.7988"/>
<polygon fill="#191970" stroke="#191970" points="540.2672,-52.2026 530.1555,-55.3655 540.0326,-59.1987 540.2672,-52.2026"/>
</g>
<!-- Node151 -->
<g id="node8" class="node">
<title>Node151</title>
<g id="a_node8"><a xlink:href="structnuspell_1_1_aff___data.html#ad77b0f3b5fc59f2c1ba29e5cbf8dc7ed" target="_top" xlink:title="Parses an input stream offering dictionary information. ">
<polygon fill="#ffffff" stroke="#000000" points="604.5,-.5 604.5,-30.5 702.5,-30.5 702.5,-.5 604.5,-.5"/>
<text text-anchor="start" x="612.5" y="-18.5" font-family="Helvetica,sans-Serif" font-size="10.00" fill="#000000">nuspell::Aff_Data::</text>
<text text-anchor="middle" x="653.5" y="-7.5" font-family="Helvetica,sans-Serif" font-size="10.00" fill="#000000">parse_dic</text>
</a>
</g>
</g>
<!-- Node150&#45;&gt;Node151 -->
<g id="edge9" class="edge">
<title>Node150&#45;&gt;Node151</title>
<path fill="none" stroke="#191970" d="M540.0666,-39.5808C561.2777,-35.0779 584.4244,-30.1641 604.2452,-25.9563"/>
<polygon fill="#191970" stroke="#191970" points="539.2107,-36.1845 530.1555,-41.6849 540.6644,-43.0319 539.2107,-36.1845"/>
</g>
<!-- Node152&#45;&gt;Node149 -->
<g id="edge11" class="edge">
<title>Node152&#45;&gt;Node149</title>
<path fill="none" stroke="#191970" d="M694.25,-160.8489C705.249,-157.3046 717.1167,-153.3619 728,-149.5 743.6646,-143.9415 760.7787,-137.3911 775.5181,-131.5977"/>
<polygon fill="#191970" stroke="#191970" points="692.9084,-157.6031 684.4461,-163.9781 695.0369,-164.2717 692.9084,-157.6031"/>
</g>
</g>
</svg>
