<?xml version="1.0" encoding="UTF-8" standalone="no"?>
<!DOCTYPE svg PUBLIC "-//W3C//DTD SVG 1.1//EN"
 "http://www.w3.org/Graphics/SVG/1.1/DTD/svg11.dtd">
<!-- Generated by graphviz version 2.40.1 (20161225.0304)
 -->
<!-- Title: nuspell::to_narrow Pages: 1 -->
<svg width="491pt" height="218pt"
 viewBox="0.00 0.00 491.00 218.00" xmlns="http://www.w3.org/2000/svg" xmlns:xlink="http://www.w3.org/1999/xlink">
<g id="graph0" class="graph" transform="scale(1 1) rotate(0) translate(4 214)">
<title>nuspell::to_narrow</title>
<polygon fill="#ffffff" stroke="transparent" points="-4,4 -4,-214 487,-214 487,4 -4,4"/>
<!-- Node340 -->
<g id="node1" class="node">
<title>Node340</title>
<polygon fill="#bfbfbf" stroke="#000000" points="0,-62.5 0,-81.5 96,-81.5 96,-62.5 0,-62.5"/>
<text text-anchor="middle" x="48" y="-69.5" font-family="Helvetica,sans-Serif" font-size="10.00" fill="#000000">nuspell::to_narrow</text>
</g>
<!-- Node341 -->
<g id="node2" class="node">
<title>Node341</title>
<g id="a_node2"><a xlink:href="classnuspell_1_1_basic___dictionary.html#a05ed25f4b65c93f0389295303e43e509" target="_top" xlink:title="nuspell::Basic_Dictionary\l::spell">
<polygon fill="#ffffff" stroke="#000000" points="132,-105 132,-135 260,-135 260,-105 132,-105"/>
<text text-anchor="start" x="140" y="-123" font-family="Helvetica,sans-Serif" font-size="10.00" fill="#000000">nuspell::Basic_Dictionary</text>
<text text-anchor="middle" x="196" y="-112" font-family="Helvetica,sans-Serif" font-size="10.00" fill="#000000">::spell</text>
</a>
</g>
</g>
<!-- Node340&#45;&gt;Node341 -->
<g id="edge1" class="edge">
<title>Node340&#45;&gt;Node341</title>
<path fill="none" stroke="#191970" d="M87.2029,-84.7145C106.3514,-90.9248 129.5249,-98.4405 149.5558,-104.937"/>
<polygon fill="#191970" stroke="#191970" points="88.1863,-81.354 77.5943,-81.5982 86.0267,-88.0125 88.1863,-81.354"/>
</g>
<!-- Node348 -->
<g id="node9" class="node">
<title>Node348</title>
<g id="a_node9"><a xlink:href="namespacenuspell.html#a4bbcd07d775ff9e19d67c9c68167dbf2" target="_top" xlink:title="nuspell::to_narrow">
<polygon fill="#ffffff" stroke="#000000" points="148,-62.5 148,-81.5 244,-81.5 244,-62.5 148,-62.5"/>
<text text-anchor="middle" x="196" y="-69.5" font-family="Helvetica,sans-Serif" font-size="10.00" fill="#000000">nuspell::to_narrow</text>
</a>
</g>
</g>
<!-- Node340&#45;&gt;Node348 -->
<g id="edge12" class="edge">
<title>Node340&#45;&gt;Node348</title>
<path fill="none" stroke="#191970" d="M106.398,-72C120.1645,-72 134.6857,-72 147.9367,-72"/>
<polygon fill="#191970" stroke="#191970" points="106.0514,-68.5001 96.0514,-72 106.0513,-75.5001 106.0514,-68.5001"/>
</g>
<!-- Node349 -->
<g id="node10" class="node">
<title>Node349</title>
<g id="a_node10"><a xlink:href="regress_8cxx.html#adaa095873c4ebfe8c954f43bc50f7b76" target="_top" xlink:title="normal_loop">
<polygon fill="#ffffff" stroke="#000000" points="161.5,-16.5 161.5,-35.5 230.5,-35.5 230.5,-16.5 161.5,-16.5"/>
<text text-anchor="middle" x="196" y="-23.5" font-family="Helvetica,sans-Serif" font-size="10.00" fill="#000000">normal_loop</text>
</a>
</g>
</g>
<!-- Node340&#45;&gt;Node349 -->
<g id="edge13" class="edge">
<title>Node340&#45;&gt;Node349</title>
<path fill="none" stroke="#191970" d="M88.3185,-59.4686C112.6106,-51.9183 143.0585,-42.4548 165.3736,-35.519"/>
<polygon fill="#191970" stroke="#191970" points="87.1762,-56.1584 78.6657,-62.4688 89.2539,-62.8429 87.1762,-56.1584"/>
</g>
<!-- Node342 -->
<g id="node3" class="node">
<title>Node342</title>
<g id="a_node3"><a xlink:href="main_8cxx.html#a4a642b8579e49cab4ef7293d66f1f5d5" target="_top" xlink:title="Normal loop, tokenize and check spelling. ">
<polygon fill="#ffffff" stroke="#000000" points="318,-190.5 318,-209.5 387,-209.5 387,-190.5 318,-190.5"/>
<text text-anchor="middle" x="352.5" y="-197.5" font-family="Helvetica,sans-Serif" font-size="10.00" fill="#000000">normal_loop</text>
</a>
</g>
</g>
<!-- Node341&#45;&gt;Node342 -->
<g id="edge2" class="edge">
<title>Node341&#45;&gt;Node342</title>
<path fill="none" stroke="#191970" d="M225.8548,-140.6448C245.2362,-153.4255 271.3831,-169.5288 296,-181 303.5981,-184.5406 312.0444,-187.7429 320.0415,-190.4664"/>
<polygon fill="#191970" stroke="#191970" points="227.7153,-137.6786 217.4556,-135.0349 223.8274,-143.4996 227.7153,-137.6786"/>
</g>
<!-- Node344 -->
<g id="node5" class="node">
<title>Node344</title>
<g id="a_node5"><a xlink:href="main_8cxx.html#aebf1b2aa274390a39317fbbca50d9d5e" target="_top" xlink:title="Prints misspelled words from an input stream to an output stream. ">
<polygon fill="#ffffff" stroke="#000000" points="296,-152.5 296,-171.5 409,-171.5 409,-152.5 296,-152.5"/>
<text text-anchor="middle" x="352.5" y="-159.5" font-family="Helvetica,sans-Serif" font-size="10.00" fill="#000000">misspelled_word_loop</text>
</a>
</g>
</g>
<!-- Node341&#45;&gt;Node344 -->
<g id="edge4" class="edge">
<title>Node341&#45;&gt;Node344</title>
<path fill="none" stroke="#191970" d="M261.8043,-137.6599C280.6602,-142.7203 300.5057,-148.0462 316.8087,-152.4215"/>
<polygon fill="#191970" stroke="#191970" points="262.6235,-134.256 252.0581,-135.0443 260.8091,-141.0168 262.6235,-134.256"/>
</g>
<!-- Node345 -->
<g id="node6" class="node">
<title>Node345</title>
<g id="a_node6"><a xlink:href="main_8cxx.html#a1248d9e693e561e175cf2e5b55499fff" target="_top" xlink:title="correct_word_loop">
<polygon fill="#ffffff" stroke="#000000" points="304.5,-114.5 304.5,-133.5 400.5,-133.5 400.5,-114.5 304.5,-114.5"/>
<text text-anchor="middle" x="352.5" y="-121.5" font-family="Helvetica,sans-Serif" font-size="10.00" fill="#000000">correct_word_loop</text>
</a>
</g>
</g>
<!-- Node341&#45;&gt;Node345 -->
<g id="edge6" class="edge">
<title>Node341&#45;&gt;Node345</title>
<path fill="none" stroke="#191970" d="M270.17,-121.8957C281.6853,-122.19 293.3188,-122.4874 304.0692,-122.7622"/>
<polygon fill="#191970" stroke="#191970" points="270.1923,-118.3952 260.1061,-121.6385 270.0134,-125.393 270.1923,-118.3952"/>
</g>
<!-- Node346 -->
<g id="node7" class="node">
<title>Node346</title>
<g id="a_node7"><a xlink:href="main_8cxx.html#a1f92dedeeb68a1a7bc2b720097d3b7a4" target="_top" xlink:title="misspelled_line_loop">
<polygon fill="#ffffff" stroke="#000000" points="299,-76.5 299,-95.5 406,-95.5 406,-76.5 299,-76.5"/>
<text text-anchor="middle" x="352.5" y="-83.5" font-family="Helvetica,sans-Serif" font-size="10.00" fill="#000000">misspelled_line_loop</text>
</a>
</g>
</g>
<!-- Node341&#45;&gt;Node346 -->
<g id="edge8" class="edge">
<title>Node341&#45;&gt;Node346</title>
<path fill="none" stroke="#191970" d="M270.0617,-103.9099C283.1525,-101.0659 296.4,-98.1879 308.3331,-95.5954"/>
<polygon fill="#191970" stroke="#191970" points="269.1351,-100.5295 260.1061,-106.0728 270.6212,-107.3699 269.1351,-100.5295"/>
</g>
<!-- Node347 -->
<g id="node8" class="node">
<title>Node347</title>
<g id="a_node8"><a xlink:href="main_8cxx.html#a16580c4100b461806a9c49575bdd5428" target="_top" xlink:title="correct_line_loop">
<polygon fill="#ffffff" stroke="#000000" points="307.5,-38.5 307.5,-57.5 397.5,-57.5 397.5,-38.5 307.5,-38.5"/>
<text text-anchor="middle" x="352.5" y="-45.5" font-family="Helvetica,sans-Serif" font-size="10.00" fill="#000000">correct_line_loop</text>
</a>
</g>
</g>
<!-- Node341&#45;&gt;Node347 -->
<g id="edge10" class="edge">
<title>Node341&#45;&gt;Node347</title>
<path fill="none" stroke="#191970" d="M241.2961,-100.5881C247.6588,-97.5406 254.0522,-94.3014 260,-91 276.8132,-81.6675 278.737,-75.4715 296,-67 303.3395,-63.3983 311.5296,-60.2102 319.3464,-57.5233"/>
<polygon fill="#191970" stroke="#191970" points="239.6343,-97.5011 232.0515,-104.9006 242.5936,-103.8448 239.6343,-97.5011"/>
</g>
<!-- Node343 -->
<g id="node4" class="node">
<title>Node343</title>
<g id="a_node4"><a xlink:href="main_8cxx.html#a0ddf1224851353fc92bfbff6f499fa97" target="_top" xlink:title="main">
<polygon fill="#ffffff" stroke="#000000" points="445,-114.5 445,-133.5 483,-133.5 483,-114.5 445,-114.5"/>
<text text-anchor="middle" x="464" y="-121.5" font-family="Helvetica,sans-Serif" font-size="10.00" fill="#000000">main</text>
</a>
</g>
</g>
<!-- Node342&#45;&gt;Node343 -->
<g id="edge3" class="edge">
<title>Node342&#45;&gt;Node343</title>
<path fill="none" stroke="#191970" d="M396.6668,-187.4894C400.9685,-185.5856 405.1568,-183.43 409,-181 429.224,-168.2125 447.3646,-146.4754 456.911,-133.8621"/>
<polygon fill="#191970" stroke="#191970" points="395.1616,-184.3211 387.1582,-191.2636 397.7441,-190.8273 395.1616,-184.3211"/>
</g>
<!-- Node344&#45;&gt;Node343 -->
<g id="edge5" class="edge">
<title>Node344&#45;&gt;Node343</title>
<path fill="none" stroke="#191970" d="M390.4947,-149.2706C396.6827,-147.1838 403.0217,-145.0378 409,-143 420.9526,-138.9258 434.3458,-134.3004 444.923,-130.6334"/>
<polygon fill="#191970" stroke="#191970" points="389.3295,-145.9698 380.9686,-152.4772 391.5627,-152.6041 389.3295,-145.9698"/>
</g>
<!-- Node345&#45;&gt;Node343 -->
<g id="edge7" class="edge">
<title>Node345&#45;&gt;Node343</title>
<path fill="none" stroke="#191970" d="M411.0156,-124C423.24,-124 435.2866,-124 444.7968,-124"/>
<polygon fill="#191970" stroke="#191970" points="410.7571,-120.5001 400.757,-124 410.757,-127.5001 410.7571,-120.5001"/>
</g>
<!-- Node346&#45;&gt;Node343 -->
<g id="edge9" class="edge">
<title>Node346&#45;&gt;Node343</title>
<path fill="none" stroke="#191970" d="M390.4947,-98.7294C396.6827,-100.8162 403.0217,-102.9622 409,-105 420.9526,-109.0742 434.3458,-113.6996 444.923,-117.3666"/>
<polygon fill="#191970" stroke="#191970" points="391.5627,-95.3959 380.9686,-95.5228 389.3295,-102.0302 391.5627,-95.3959"/>
</g>
<!-- Node347&#45;&gt;Node343 -->
<g id="edge11" class="edge">
<title>Node347&#45;&gt;Node343</title>
<path fill="none" stroke="#191970" d="M398.9494,-61.5501C402.447,-63.1896 405.8402,-65.002 409,-67 429.224,-79.7875 447.3646,-101.5246 456.911,-114.1379"/>
<polygon fill="#191970" stroke="#191970" points="400.1109,-58.2421 389.5352,-57.6057 397.4057,-64.6983 400.1109,-58.2421"/>
</g>
<!-- Node350 -->
<g id="node11" class="node">
<title>Node350</title>
<g id="a_node11"><a xlink:href="regress_8cxx.html#a0ddf1224851353fc92bfbff6f499fa97" target="_top" xlink:title="main">
<polygon fill="#ffffff" stroke="#000000" points="333.5,-.5 333.5,-19.5 371.5,-19.5 371.5,-.5 333.5,-.5"/>
<text text-anchor="middle" x="352.5" y="-7.5" font-family="Helvetica,sans-Serif" font-size="10.00" fill="#000000">main</text>
</a>
</g>
</g>
<!-- Node349&#45;&gt;Node350 -->
<g id="edge14" class="edge">
<title>Node349&#45;&gt;Node350</title>
<path fill="none" stroke="#191970" d="M240.7277,-21.4272C271.2535,-18.3063 310.1722,-14.3274 333.1088,-11.9825"/>
<polygon fill="#191970" stroke="#191970" points="240.3246,-17.9501 230.7324,-22.4491 241.0366,-24.9138 240.3246,-17.9501"/>
</g>
</g>
</svg>
