<?xml version="1.0" encoding="UTF-8" standalone="no"?>
<!DOCTYPE svg PUBLIC "-//W3C//DTD SVG 1.1//EN"
 "http://www.w3.org/Graphics/SVG/1.1/DTD/svg11.dtd">
<!-- Generated by graphviz version 2.40.1 (20161225.0304)
 -->
<!-- Title: nuspell::match_compound_pattern Pages: 1 -->
<svg width="464pt" height="39pt"
 viewBox="0.00 0.00 464.00 39.00" xmlns="http://www.w3.org/2000/svg" xmlns:xlink="http://www.w3.org/1999/xlink">
<g id="graph0" class="graph" transform="scale(1 1) rotate(0) translate(4 35)">
<title>nuspell::match_compound_pattern</title>
<polygon fill="#ffffff" stroke="transparent" points="-4,4 -4,-35 460,-35 460,4 -4,4"/>
<!-- Node192 -->
<g id="node1" class="node">
<title>Node192</title>
<polygon fill="#bfbfbf" stroke="#000000" points="0,-.5 0,-30.5 131,-30.5 131,-.5 0,-.5"/>
<text text-anchor="start" x="8" y="-18.5" font-family="Helvetica,sans-Serif" font-size="10.00" fill="#000000">nuspell::match_compound</text>
<text text-anchor="middle" x="65.5" y="-7.5" font-family="Helvetica,sans-Serif" font-size="10.00" fill="#000000">_pattern</text>
</g>
<!-- Node193 -->
<g id="node2" class="node">
<title>Node193</title>
<g id="a_node2"><a xlink:href="namespacenuspell.html#aad7267f28a0ac5af1ca9885952c640ba" target="_top" xlink:title="nuspell::is_compound\l_forbidden_by_patterns">
<polygon fill="#ffffff" stroke="#000000" points="167,-.5 167,-30.5 285,-30.5 285,-.5 167,-.5"/>
<text text-anchor="start" x="175" y="-18.5" font-family="Helvetica,sans-Serif" font-size="10.00" fill="#000000">nuspell::is_compound</text>
<text text-anchor="middle" x="226" y="-7.5" font-family="Helvetica,sans-Serif" font-size="10.00" fill="#000000">_forbidden_by_patterns</text>
</a>
</g>
</g>
<!-- Node192&#45;&gt;Node193 -->
<g id="edge1" class="edge">
<title>Node192&#45;&gt;Node193</title>
<path fill="none" stroke="#191970" d="M141.2573,-15.5C149.8335,-15.5 158.4784,-15.5 166.7985,-15.5"/>
<polygon fill="#191970" stroke="#191970" points="141.2446,-12.0001 131.2446,-15.5 141.2446,-19.0001 141.2446,-12.0001"/>
</g>
<!-- Node194 -->
<g id="node3" class="node">
<title>Node194</title>
<g id="a_node3"><a xlink:href="structnuspell_1_1_dict___base.html#aa442f57c1391b76a9447a9eaf70202cb" target="_top" xlink:title="nuspell::Dict_Base\l::check_compound_classic">
<polygon fill="#ffffff" stroke="#000000" points="321,-.5 321,-30.5 456,-30.5 456,-.5 321,-.5"/>
<text text-anchor="start" x="329" y="-18.5" font-family="Helvetica,sans-Serif" font-size="10.00" fill="#000000">nuspell::Dict_Base</text>
<text text-anchor="middle" x="388.5" y="-7.5" font-family="Helvetica,sans-Serif" font-size="10.00" fill="#000000">::check_compound_classic</text>
</a>
</g>
</g>
<!-- Node193&#45;&gt;Node194 -->
<g id="edge2" class="edge">
<title>Node193&#45;&gt;Node194</title>
<path fill="none" stroke="#191970" d="M295.3372,-15.5C303.8011,-15.5 312.4413,-15.5 320.8796,-15.5"/>
<polygon fill="#191970" stroke="#191970" points="295.1259,-12.0001 285.1259,-15.5 295.1259,-19.0001 295.1259,-12.0001"/>
</g>
</g>
</svg>
