<?xml version="1.0" encoding="UTF-8" standalone="no"?>
<!DOCTYPE svg PUBLIC "-//W3C//DTD SVG 1.1//EN"
 "http://www.w3.org/Graphics/SVG/1.1/DTD/svg11.dtd">
<!-- Generated by graphviz version 2.40.1 (20161225.0304)
 -->
<!-- Title: nuspell::read_to_slash_or_space Pages: 1 -->
<svg width="393pt" height="53pt"
 viewBox="0.00 0.00 393.00 52.50" xmlns="http://www.w3.org/2000/svg" xmlns:xlink="http://www.w3.org/1999/xlink">
<g id="graph0" class="graph" transform="scale(1 1) rotate(0) translate(4 48.5)">
<title>nuspell::read_to_slash_or_space</title>
<polygon fill="#ffffff" stroke="transparent" points="-4,4 -4,-48.5 389,-48.5 389,4 -4,4"/>
<!-- Node268 -->
<g id="node1" class="node">
<title>Node268</title>
<polygon fill="#bfbfbf" stroke="#000000" points="0,-.5 0,-30.5 114,-30.5 114,-.5 0,-.5"/>
<text text-anchor="start" x="8" y="-18.5" font-family="Helvetica,sans-Serif" font-size="10.00" fill="#000000">nuspell::read_to_slash</text>
<text text-anchor="middle" x="57" y="-7.5" font-family="Helvetica,sans-Serif" font-size="10.00" fill="#000000">_or_space</text>
</g>
<!-- Node269 -->
<g id="node2" class="node">
<title>Node269</title>
<g id="a_node2"><a xlink:href="namespacenuspell.html#a431abe5c2853b6f099bfedd5b6a4bb9f" target="_top" xlink:title="Parses an affix from an input stream. ">
<polygon fill="#ffffff" stroke="#000000" points="150,-25 150,-44 251,-44 251,-25 150,-25"/>
<text text-anchor="middle" x="200.5" y="-32" font-family="Helvetica,sans-Serif" font-size="10.00" fill="#000000">nuspell::parse_affix</text>
</a>
</g>
</g>
<!-- Node268&#45;&gt;Node269 -->
<g id="edge1" class="edge">
<title>Node268&#45;&gt;Node269</title>
<path fill="none" stroke="#191970" d="M124.119,-24.3868C132.6901,-25.5217 141.3497,-26.6683 149.6059,-27.7614"/>
<polygon fill="#191970" stroke="#191970" points="124.5002,-20.9069 114.1273,-23.0639 123.5814,-27.8463 124.5002,-20.9069"/>
</g>
<!-- Node270 -->
<g id="node3" class="node">
<title>Node270</title>
<g id="a_node3"><a xlink:href="structnuspell_1_1_aff___data.html#a93b16b2b3938f607a18e3a67b9360b83" target="_top" xlink:title="Parses an input stream offering affix information. ">
<polygon fill="#ffffff" stroke="#000000" points="287,-.5 287,-30.5 385,-30.5 385,-.5 287,-.5"/>
<text text-anchor="start" x="295" y="-18.5" font-family="Helvetica,sans-Serif" font-size="10.00" fill="#000000">nuspell::Aff_Data::</text>
<text text-anchor="middle" x="336" y="-7.5" font-family="Helvetica,sans-Serif" font-size="10.00" fill="#000000">parse_aff</text>
</a>
</g>
</g>
<!-- Node268&#45;&gt;Node270 -->
<g id="edge3" class="edge">
<title>Node268&#45;&gt;Node270</title>
<path fill="none" stroke="#191970" d="M124.2373,-15.5C174.3729,-15.5 241.711,-15.5 286.869,-15.5"/>
<polygon fill="#191970" stroke="#191970" points="124.1331,-12.0001 114.1331,-15.5 124.133,-19.0001 124.1331,-12.0001"/>
</g>
<!-- Node269&#45;&gt;Node270 -->
<g id="edge2" class="edge">
<title>Node269&#45;&gt;Node270</title>
<path fill="none" stroke="#191970" d="M261.51,-25.9451C269.9331,-24.764 278.4965,-23.5632 286.6726,-22.4168"/>
<polygon fill="#191970" stroke="#191970" points="260.7578,-22.5162 251.3407,-27.371 261.7299,-29.4484 260.7578,-22.5162"/>
</g>
</g>
</svg>
