<?xml version="1.0" encoding="UTF-8" standalone="no"?>
<!DOCTYPE svg PUBLIC "-//W3C//DTD SVG 1.1//EN"
 "http://www.w3.org/Graphics/SVG/1.1/DTD/svg11.dtd">
<!-- Generated by graphviz version 2.40.1 (20161225.0304)
 -->
<!-- Title: nuspell::utf8_to_wide Pages: 1 -->
<svg width="281pt" height="149pt"
 viewBox="0.00 0.00 281.00 148.50" xmlns="http://www.w3.org/2000/svg" xmlns:xlink="http://www.w3.org/1999/xlink">
<g id="graph0" class="graph" transform="scale(1 1) rotate(0) translate(4 144.5)">
<title>nuspell::utf8_to_wide</title>
<polygon fill="#ffffff" stroke="transparent" points="-4,4 -4,-144.5 277,-144.5 277,4 -4,4"/>
<!-- Node396 -->
<g id="node1" class="node">
<title>Node396</title>
<polygon fill="#bfbfbf" stroke="#000000" points="0,-66.5 0,-85.5 109,-85.5 109,-66.5 0,-66.5"/>
<text text-anchor="middle" x="54.5" y="-73.5" font-family="Helvetica,sans-Serif" font-size="10.00" fill="#000000">nuspell::utf8_to_wide</text>
</g>
<!-- Node397 -->
<g id="node2" class="node">
<title>Node397</title>
<g id="a_node2"><a xlink:href="structnuspell_1_1_aff___data.html#a93b16b2b3938f607a18e3a67b9360b83" target="_top" xlink:title="Parses an input stream offering affix information. ">
<polygon fill="#ffffff" stroke="#000000" points="160,-110 160,-140 258,-140 258,-110 160,-110"/>
<text text-anchor="start" x="168" y="-128" font-family="Helvetica,sans-Serif" font-size="10.00" fill="#000000">nuspell::Aff_Data::</text>
<text text-anchor="middle" x="209" y="-117" font-family="Helvetica,sans-Serif" font-size="10.00" fill="#000000">parse_aff</text>
</a>
</g>
</g>
<!-- Node396&#45;&gt;Node397 -->
<g id="edge1" class="edge">
<title>Node396&#45;&gt;Node397</title>
<path fill="none" stroke="#191970" d="M94.3274,-88.6313C114.864,-95.1446 140.0533,-103.1334 161.5875,-109.963"/>
<polygon fill="#191970" stroke="#191970" points="95.2461,-85.251 84.6559,-85.564 93.1299,-91.9234 95.2461,-85.251"/>
</g>
<!-- Node398 -->
<g id="node3" class="node">
<title>Node398</title>
<g id="a_node3"><a xlink:href="structnuspell_1_1_aff___data.html#ad77b0f3b5fc59f2c1ba29e5cbf8dc7ed" target="_top" xlink:title="Parses an input stream offering dictionary information. ">
<polygon fill="#ffffff" stroke="#000000" points="160,-61 160,-91 258,-91 258,-61 160,-61"/>
<text text-anchor="start" x="168" y="-79" font-family="Helvetica,sans-Serif" font-size="10.00" fill="#000000">nuspell::Aff_Data::</text>
<text text-anchor="middle" x="209" y="-68" font-family="Helvetica,sans-Serif" font-size="10.00" fill="#000000">parse_dic</text>
</a>
</g>
</g>
<!-- Node396&#45;&gt;Node398 -->
<g id="edge2" class="edge">
<title>Node396&#45;&gt;Node398</title>
<path fill="none" stroke="#191970" d="M119.6036,-76C133.1053,-76 147.1148,-76 159.9262,-76"/>
<polygon fill="#191970" stroke="#191970" points="119.406,-72.5001 109.4059,-76 119.4059,-79.5001 119.406,-72.5001"/>
</g>
<!-- Node399 -->
<g id="node4" class="node">
<title>Node399</title>
<g id="a_node4"><a xlink:href="classnuspell_1_1_basic___dictionary.html#aca69f6d72c3f7f7a7e88a08fc8dd9712" target="_top" xlink:title="nuspell::Basic_Dictionary\l::external_to_internal\l_encoding">
<polygon fill="#ffffff" stroke="#000000" points="145,-.5 145,-41.5 273,-41.5 273,-.5 145,-.5"/>
<text text-anchor="start" x="153" y="-29.5" font-family="Helvetica,sans-Serif" font-size="10.00" fill="#000000">nuspell::Basic_Dictionary</text>
<text text-anchor="start" x="153" y="-18.5" font-family="Helvetica,sans-Serif" font-size="10.00" fill="#000000">::external_to_internal</text>
<text text-anchor="middle" x="209" y="-7.5" font-family="Helvetica,sans-Serif" font-size="10.00" fill="#000000">_encoding</text>
</a>
</g>
</g>
<!-- Node396&#45;&gt;Node399 -->
<g id="edge3" class="edge">
<title>Node396&#45;&gt;Node399</title>
<path fill="none" stroke="#191970" d="M90.9533,-63.0231C108.9657,-56.6109 131.1282,-48.7213 151.3669,-41.5166"/>
<polygon fill="#191970" stroke="#191970" points="89.6589,-59.7687 81.4118,-66.4197 92.0065,-66.3633 89.6589,-59.7687"/>
</g>
</g>
</svg>
