<?xml version="1.0" encoding="UTF-8" standalone="no"?>
<!DOCTYPE svg PUBLIC "-//W3C//DTD SVG 1.1//EN"
 "http://www.w3.org/Graphics/SVG/1.1/DTD/svg11.dtd">
<!-- Generated by graphviz version 2.40.1 (20161225.0304)
 -->
<!-- Title: nuspell::get_default_search_paths Pages: 1 -->
<svg width="380pt" height="66pt"
 viewBox="0.00 0.00 380.00 66.00" xmlns="http://www.w3.org/2000/svg" xmlns:xlink="http://www.w3.org/1999/xlink">
<g id="graph0" class="graph" transform="scale(1 1) rotate(0) translate(4 62)">
<title>nuspell::get_default_search_paths</title>
<polygon fill="#ffffff" stroke="transparent" points="-4,4 -4,-62 376,-62 376,4 -4,4"/>
<!-- Node90 -->
<g id="node1" class="node">
<title>Node90</title>
<polygon fill="#bfbfbf" stroke="#000000" points="0,-14 0,-44 101,-44 101,-14 0,-14"/>
<text text-anchor="start" x="8" y="-32" font-family="Helvetica,sans-Serif" font-size="10.00" fill="#000000">nuspell::get_default</text>
<text text-anchor="middle" x="50.5" y="-21" font-family="Helvetica,sans-Serif" font-size="10.00" fill="#000000">_search_paths</text>
</g>
<!-- Node91 -->
<g id="node2" class="node">
<title>Node91</title>
<g id="a_node2"><a xlink:href="namespacenuspell.html#a3fb4e305b46d4cd3a0ddb3400fb795c9" target="_top" xlink:title="Splits string on single char seperator. ">
<polygon fill="#ffffff" stroke="#000000" points="140,-38.5 140,-57.5 211,-57.5 211,-38.5 140,-38.5"/>
<text text-anchor="middle" x="175.5" y="-45.5" font-family="Helvetica,sans-Serif" font-size="10.00" fill="#000000">nuspell::split</text>
</a>
</g>
</g>
<!-- Node90&#45;&gt;Node91 -->
<g id="edge1" class="edge">
<title>Node90&#45;&gt;Node91</title>
<path fill="none" stroke="#191970" d="M101.3423,-36.728C110.6731,-38.1463 120.3633,-39.6192 129.5408,-41.0142"/>
<polygon fill="#191970" stroke="#191970" points="129.2257,-44.5064 139.6382,-42.549 130.2777,-37.5859 129.2257,-44.5064"/>
</g>
<!-- Node93 -->
<g id="node4" class="node">
<title>Node93</title>
<g id="a_node4"><a xlink:href="namespacenuspell.html#a9404cbb74ae904c74db6776eb092e1b1" target="_top" xlink:title="nuspell::prefix">
<polygon fill="#ffffff" stroke="#000000" points="137,-.5 137,-19.5 214,-19.5 214,-.5 137,-.5"/>
<text text-anchor="middle" x="175.5" y="-7.5" font-family="Helvetica,sans-Serif" font-size="10.00" fill="#000000">nuspell::prefix</text>
</a>
</g>
</g>
<!-- Node90&#45;&gt;Node93 -->
<g id="edge3" class="edge">
<title>Node90&#45;&gt;Node93</title>
<path fill="none" stroke="#191970" d="M101.3423,-21.272C109.7997,-19.9864 118.5524,-18.656 126.9509,-17.3795"/>
<polygon fill="#191970" stroke="#191970" points="127.6155,-20.8187 136.9759,-15.8557 126.5635,-13.8982 127.6155,-20.8187"/>
</g>
<!-- Node92 -->
<g id="node3" class="node">
<title>Node92</title>
<g id="a_node3"><a xlink:href="namespacenuspell.html#a5e34eda7ca7918b315117568464ebe46" target="_top" xlink:title="Splits string on set of single char seperators. ">
<polygon fill="#ffffff" stroke="#000000" points="250,-38.5 250,-57.5 372,-57.5 372,-38.5 250,-38.5"/>
<text text-anchor="middle" x="311" y="-45.5" font-family="Helvetica,sans-Serif" font-size="10.00" fill="#000000">nuspell::split_on_any_of</text>
</a>
</g>
</g>
<!-- Node91&#45;&gt;Node92 -->
<g id="edge2" class="edge">
<title>Node91&#45;&gt;Node92</title>
<path fill="none" stroke="#191970" d="M211.101,-48C220.0399,-48 229.9507,-48 239.9575,-48"/>
<polygon fill="#191970" stroke="#191970" points="239.9639,-51.5001 249.9639,-48 239.9639,-44.5001 239.9639,-51.5001"/>
</g>
</g>
</svg>
