<?xml version="1.0" encoding="UTF-8" standalone="no"?>
<!DOCTYPE svg PUBLIC "-//W3C//DTD SVG 1.1//EN"
 "http://www.w3.org/Graphics/SVG/1.1/DTD/svg11.dtd">
<!-- Generated by graphviz version 2.40.1 (20161225.0304)
 -->
<!-- Title: nuspell::valid_utf_to_utf Pages: 1 -->
<svg width="386pt" height="149pt"
 viewBox="0.00 0.00 386.00 148.50" xmlns="http://www.w3.org/2000/svg" xmlns:xlink="http://www.w3.org/1999/xlink">
<g id="graph0" class="graph" transform="scale(1 1) rotate(0) translate(4 144.5)">
<title>nuspell::valid_utf_to_utf</title>
<polygon fill="#ffffff" stroke="transparent" points="-4,4 -4,-144.5 382,-144.5 382,4 -4,4"/>
<!-- Node415 -->
<g id="node1" class="node">
<title>Node415</title>
<polygon fill="#bfbfbf" stroke="#000000" points="0,-61 0,-91 90,-91 90,-61 0,-61"/>
<text text-anchor="start" x="8" y="-79" font-family="Helvetica,sans-Serif" font-size="10.00" fill="#000000">nuspell::valid_utf</text>
<text text-anchor="middle" x="45" y="-68" font-family="Helvetica,sans-Serif" font-size="10.00" fill="#000000">_to_utf</text>
</g>
<!-- Node416 -->
<g id="node2" class="node">
<title>Node416</title>
<g id="a_node2"><a xlink:href="namespacenuspell.html#ad4e8221da9ce95908ecd5a60ac3ae08c" target="_top" xlink:title="nuspell::wide_to_utf8">
<polygon fill="#ffffff" stroke="#000000" points="126,-66.5 126,-85.5 235,-85.5 235,-66.5 126,-66.5"/>
<text text-anchor="middle" x="180.5" y="-73.5" font-family="Helvetica,sans-Serif" font-size="10.00" fill="#000000">nuspell::wide_to_utf8</text>
</a>
</g>
</g>
<!-- Node415&#45;&gt;Node416 -->
<g id="edge1" class="edge">
<title>Node415&#45;&gt;Node416</title>
<path fill="none" stroke="#191970" d="M100.2056,-76C108.6129,-76 117.2872,-76 125.686,-76"/>
<polygon fill="#191970" stroke="#191970" points="100.1196,-72.5001 90.1195,-76 100.1195,-79.5001 100.1196,-72.5001"/>
</g>
<!-- Node417 -->
<g id="node3" class="node">
<title>Node417</title>
<g id="a_node3"><a xlink:href="classnuspell_1_1_word___list.html#a9cb1b8ccbd83e2b8275309b981537d40" target="_top" xlink:title="nuspell::Word_List\l::equal_range">
<polygon fill="#ffffff" stroke="#000000" points="275.5,-110 275.5,-140 373.5,-140 373.5,-110 275.5,-110"/>
<text text-anchor="start" x="283.5" y="-128" font-family="Helvetica,sans-Serif" font-size="10.00" fill="#000000">nuspell::Word_List</text>
<text text-anchor="middle" x="324.5" y="-117" font-family="Helvetica,sans-Serif" font-size="10.00" fill="#000000">::equal_range</text>
</a>
</g>
</g>
<!-- Node416&#45;&gt;Node417 -->
<g id="edge2" class="edge">
<title>Node416&#45;&gt;Node417</title>
<path fill="none" stroke="#191970" d="M218.1438,-88.8093C237.1882,-95.2897 260.4215,-103.1955 280.3097,-109.963"/>
<polygon fill="#191970" stroke="#191970" points="219.2009,-85.472 208.6065,-85.564 216.9459,-92.0989 219.2009,-85.472"/>
</g>
<!-- Node418 -->
<g id="node4" class="node">
<title>Node418</title>
<g id="a_node4"><a xlink:href="structnuspell_1_1_aff___data.html#ad77b0f3b5fc59f2c1ba29e5cbf8dc7ed" target="_top" xlink:title="Parses an input stream offering dictionary information. ">
<polygon fill="#ffffff" stroke="#000000" points="275.5,-61 275.5,-91 373.5,-91 373.5,-61 275.5,-61"/>
<text text-anchor="start" x="283.5" y="-79" font-family="Helvetica,sans-Serif" font-size="10.00" fill="#000000">nuspell::Aff_Data::</text>
<text text-anchor="middle" x="324.5" y="-68" font-family="Helvetica,sans-Serif" font-size="10.00" fill="#000000">parse_dic</text>
</a>
</g>
</g>
<!-- Node416&#45;&gt;Node418 -->
<g id="edge3" class="edge">
<title>Node416&#45;&gt;Node418</title>
<path fill="none" stroke="#191970" d="M245.3694,-76C255.4809,-76 265.7819,-76 275.464,-76"/>
<polygon fill="#191970" stroke="#191970" points="245.351,-72.5001 235.351,-76 245.351,-79.5001 245.351,-72.5001"/>
</g>
<!-- Node419 -->
<g id="node5" class="node">
<title>Node419</title>
<g id="a_node5"><a xlink:href="classnuspell_1_1_dictionary.html#a38d6bdb6f223f5ec40d60c3543b0ef1b" target="_top" xlink:title="nuspell::Dictionary\l::internal_to_external\l_encoding">
<polygon fill="#ffffff" stroke="#000000" points="271,-.5 271,-41.5 378,-41.5 378,-.5 271,-.5"/>
<text text-anchor="start" x="279" y="-29.5" font-family="Helvetica,sans-Serif" font-size="10.00" fill="#000000">nuspell::Dictionary</text>
<text text-anchor="start" x="279" y="-18.5" font-family="Helvetica,sans-Serif" font-size="10.00" fill="#000000">::internal_to_external</text>
<text text-anchor="middle" x="324.5" y="-7.5" font-family="Helvetica,sans-Serif" font-size="10.00" fill="#000000">_encoding</text>
</a>
</g>
</g>
<!-- Node416&#45;&gt;Node419 -->
<g id="edge4" class="edge">
<title>Node416&#45;&gt;Node419</title>
<path fill="none" stroke="#191970" d="M214.9432,-62.8446C231.6466,-56.4649 252.0951,-48.6546 270.7837,-41.5166"/>
<polygon fill="#191970" stroke="#191970" points="213.6758,-59.582 205.5829,-66.4197 216.1735,-66.1213 213.6758,-59.582"/>
</g>
</g>
</svg>
