<?xml version="1.0" encoding="UTF-8" standalone="no"?>
<!DOCTYPE svg PUBLIC "-//W3C//DTD SVG 1.1//EN"
 "http://www.w3.org/Graphics/SVG/1.1/DTD/svg11.dtd">
<!-- Generated by graphviz version 2.40.1 (20161225.0304)
 -->
<!-- Title: nuspell::u32_to_ucs2_skip_non_bmp Pages: 1 -->
<svg width="756pt" height="192pt"
 viewBox="0.00 0.00 756.00 191.50" xmlns="http://www.w3.org/2000/svg" xmlns:xlink="http://www.w3.org/1999/xlink">
<g id="graph0" class="graph" transform="scale(1 1) rotate(0) translate(4 187.5)">
<title>nuspell::u32_to_ucs2_skip_non_bmp</title>
<polygon fill="#ffffff" stroke="transparent" points="-4,4 -4,-187.5 752,-187.5 752,4 -4,4"/>
<!-- Node336 -->
<g id="node1" class="node">
<title>Node336</title>
<polygon fill="#bfbfbf" stroke="#000000" points="0,-101.5 0,-131.5 109,-131.5 109,-101.5 0,-101.5"/>
<text text-anchor="start" x="8" y="-119.5" font-family="Helvetica,sans-Serif" font-size="10.00" fill="#000000">nuspell::u32_to_ucs2</text>
<text text-anchor="middle" x="54.5" y="-108.5" font-family="Helvetica,sans-Serif" font-size="10.00" fill="#000000">_skip_non_bmp</text>
</g>
<!-- Node337 -->
<g id="node2" class="node">
<title>Node337</title>
<g id="a_node2"><a xlink:href="namespacenuspell.html#adbb8e053a44129d0f51014facd48b7f9" target="_top" xlink:title="Decodes flags. ">
<polygon fill="#ffffff" stroke="#000000" points="145,-107 145,-126 256,-126 256,-107 145,-107"/>
<text text-anchor="middle" x="200.5" y="-114" font-family="Helvetica,sans-Serif" font-size="10.00" fill="#000000">nuspell::decode_flags</text>
</a>
</g>
</g>
<!-- Node336&#45;&gt;Node337 -->
<g id="edge1" class="edge">
<title>Node336&#45;&gt;Node337</title>
<path fill="none" stroke="#191970" d="M119.5191,-116.5C127.9978,-116.5 136.6218,-116.5 144.9262,-116.5"/>
<polygon fill="#191970" stroke="#191970" points="119.2804,-113.0001 109.2804,-116.5 119.2804,-120.0001 119.2804,-113.0001"/>
</g>
<!-- Node338 -->
<g id="node3" class="node">
<title>Node338</title>
<g id="a_node3"><a xlink:href="namespacenuspell.html#ac3ed6d85c13c609eb5c51628b9dbac76" target="_top" xlink:title="Decodes a single flag from an input stream. ">
<polygon fill="#ffffff" stroke="#000000" points="292,-88 292,-107 429,-107 429,-88 292,-88"/>
<text text-anchor="middle" x="360.5" y="-95" font-family="Helvetica,sans-Serif" font-size="10.00" fill="#000000">nuspell::decode_single_flag</text>
</a>
</g>
</g>
<!-- Node337&#45;&gt;Node338 -->
<g id="edge2" class="edge">
<title>Node337&#45;&gt;Node338</title>
<path fill="none" stroke="#191970" d="M266.1923,-108.699C274.6503,-107.6946 283.329,-106.6641 291.8332,-105.6542"/>
<polygon fill="#191970" stroke="#191970" points="265.5287,-105.2532 256.0112,-109.908 266.3542,-112.2043 265.5287,-105.2532"/>
</g>
<!-- Node340 -->
<g id="node5" class="node">
<title>Node340</title>
<g id="a_node5"><a xlink:href="structnuspell_1_1_aff___data.html#a93b16b2b3938f607a18e3a67b9360b83" target="_top" xlink:title="Parses an input stream offering affix information. ">
<polygon fill="#ffffff" stroke="#000000" points="650,-101.5 650,-131.5 748,-131.5 748,-101.5 650,-101.5"/>
<text text-anchor="start" x="658" y="-119.5" font-family="Helvetica,sans-Serif" font-size="10.00" fill="#000000">nuspell::Aff_Data::</text>
<text text-anchor="middle" x="699" y="-108.5" font-family="Helvetica,sans-Serif" font-size="10.00" fill="#000000">parse_aff</text>
</a>
</g>
</g>
<!-- Node337&#45;&gt;Node340 -->
<g id="edge11" class="edge">
<title>Node337&#45;&gt;Node340</title>
<path fill="none" stroke="#191970" d="M266.1452,-118.9719C347.7145,-121.6566 491.1579,-125.1099 614,-121.5 625.5253,-121.1613 637.9184,-120.5648 649.5804,-119.8991"/>
<polygon fill="#191970" stroke="#191970" points="266.1369,-115.4697 256.0251,-118.6322 265.902,-122.4658 266.1369,-115.4697"/>
</g>
<!-- Node341 -->
<g id="node6" class="node">
<title>Node341</title>
<g id="a_node6"><a xlink:href="namespacenuspell.html#a3d81c446c32c53cd03e595f8fde9c2ab" target="_top" xlink:title="nuspell::decode_flags\l_possible_alias">
<polygon fill="#ffffff" stroke="#000000" points="305,-38.5 305,-68.5 416,-68.5 416,-38.5 305,-38.5"/>
<text text-anchor="start" x="313" y="-56.5" font-family="Helvetica,sans-Serif" font-size="10.00" fill="#000000">nuspell::decode_flags</text>
<text text-anchor="middle" x="360.5" y="-45.5" font-family="Helvetica,sans-Serif" font-size="10.00" fill="#000000">_possible_alias</text>
</a>
</g>
</g>
<!-- Node337&#45;&gt;Node341 -->
<g id="edge6" class="edge">
<title>Node337&#45;&gt;Node341</title>
<path fill="none" stroke="#191970" d="M232.1742,-102.9459C249.7276,-95.5354 271.9879,-86.3031 292,-78.5 300.4922,-75.1887 309.626,-71.7625 318.3688,-68.5479"/>
<polygon fill="#191970" stroke="#191970" points="230.7923,-99.7301 222.9507,-106.8548 233.5237,-106.1752 230.7923,-99.7301"/>
</g>
<!-- Node343 -->
<g id="node8" class="node">
<title>Node343</title>
<g id="a_node8"><a xlink:href="namespacenuspell.html#a82f70879bf54a6f7118852b75d8ddbfc" target="_top" xlink:title="nuspell::parse_compound_rule">
<polygon fill="#ffffff" stroke="#000000" points="465,-164 465,-183 614,-183 614,-164 465,-164"/>
<text text-anchor="middle" x="539.5" y="-171" font-family="Helvetica,sans-Serif" font-size="10.00" fill="#000000">nuspell::parse_compound_rule</text>
</a>
</g>
</g>
<!-- Node337&#45;&gt;Node343 -->
<g id="edge9" class="edge">
<title>Node337&#45;&gt;Node343</title>
<path fill="none" stroke="#191970" d="M231.867,-130.0128C249.2674,-136.9449 271.4799,-144.8811 292,-149.5 349.1732,-162.3692 415.306,-168.3386 464.8199,-171.107"/>
<polygon fill="#191970" stroke="#191970" points="232.8083,-126.6169 222.2271,-126.08 230.1641,-133.0982 232.8083,-126.6169"/>
</g>
<!-- Node339 -->
<g id="node4" class="node">
<title>Node339</title>
<g id="a_node4"><a xlink:href="namespacenuspell.html#a431abe5c2853b6f099bfedd5b6a4bb9f" target="_top" xlink:title="Parses an affix from an input stream. ">
<polygon fill="#ffffff" stroke="#000000" points="489,-50 489,-69 590,-69 590,-50 489,-50"/>
<text text-anchor="middle" x="539.5" y="-57" font-family="Helvetica,sans-Serif" font-size="10.00" fill="#000000">nuspell::parse_affix</text>
</a>
</g>
</g>
<!-- Node338&#45;&gt;Node339 -->
<g id="edge3" class="edge">
<title>Node338&#45;&gt;Node339</title>
<path fill="none" stroke="#191970" d="M415.5236,-85.819C440.9082,-80.4301 470.6607,-74.1139 494.6556,-69.0201"/>
<polygon fill="#191970" stroke="#191970" points="414.7244,-82.4106 405.6693,-87.911 416.1781,-89.258 414.7244,-82.4106"/>
</g>
<!-- Node338&#45;&gt;Node340 -->
<g id="edge5" class="edge">
<title>Node338&#45;&gt;Node340</title>
<path fill="none" stroke="#191970" d="M439.213,-101.9182C504.2547,-105.5689 594.5756,-110.6387 649.7849,-113.7376"/>
<polygon fill="#191970" stroke="#191970" points="439.181,-98.4109 429.0005,-101.3449 438.7886,-105.3999 439.181,-98.4109"/>
</g>
<!-- Node339&#45;&gt;Node340 -->
<g id="edge4" class="edge">
<title>Node339&#45;&gt;Node340</title>
<path fill="none" stroke="#191970" d="M580.25,-72.1511C591.249,-75.6954 603.1167,-79.6381 614,-83.5 629.6646,-89.0585 646.7787,-95.6089 661.5181,-101.4023"/>
<polygon fill="#191970" stroke="#191970" points="581.0369,-68.7283 570.4461,-69.0219 578.9084,-75.3969 581.0369,-68.7283"/>
</g>
<!-- Node341&#45;&gt;Node339 -->
<g id="edge7" class="edge">
<title>Node341&#45;&gt;Node339</title>
<path fill="none" stroke="#191970" d="M426.4121,-55.7093C446.9964,-56.3993 469.3734,-57.1494 488.7481,-57.7988"/>
<polygon fill="#191970" stroke="#191970" points="426.2672,-52.2026 416.1555,-55.3655 426.0326,-59.1987 426.2672,-52.2026"/>
</g>
<!-- Node342 -->
<g id="node7" class="node">
<title>Node342</title>
<g id="a_node7"><a xlink:href="structnuspell_1_1_aff___data.html#ad77b0f3b5fc59f2c1ba29e5cbf8dc7ed" target="_top" xlink:title="Parses an input stream offering dictionary information. ">
<polygon fill="#ffffff" stroke="#000000" points="490.5,-.5 490.5,-30.5 588.5,-30.5 588.5,-.5 490.5,-.5"/>
<text text-anchor="start" x="498.5" y="-18.5" font-family="Helvetica,sans-Serif" font-size="10.00" fill="#000000">nuspell::Aff_Data::</text>
<text text-anchor="middle" x="539.5" y="-7.5" font-family="Helvetica,sans-Serif" font-size="10.00" fill="#000000">parse_dic</text>
</a>
</g>
</g>
<!-- Node341&#45;&gt;Node342 -->
<g id="edge8" class="edge">
<title>Node341&#45;&gt;Node342</title>
<path fill="none" stroke="#191970" d="M426.0666,-39.5808C447.2777,-35.0779 470.4244,-30.1641 490.2452,-25.9563"/>
<polygon fill="#191970" stroke="#191970" points="425.2107,-36.1845 416.1555,-41.6849 426.6644,-43.0319 425.2107,-36.1845"/>
</g>
<!-- Node343&#45;&gt;Node340 -->
<g id="edge10" class="edge">
<title>Node343&#45;&gt;Node340</title>
<path fill="none" stroke="#191970" d="M580.25,-160.8489C591.249,-157.3046 603.1167,-153.3619 614,-149.5 629.6646,-143.9415 646.7787,-137.3911 661.5181,-131.5977"/>
<polygon fill="#191970" stroke="#191970" points="578.9084,-157.6031 570.4461,-163.9781 581.0369,-164.2717 578.9084,-157.6031"/>
</g>
</g>
</svg>
