<?xml version="1.0" encoding="UTF-8" standalone="no"?>
<!DOCTYPE svg PUBLIC "-//W3C//DTD SVG 1.1//EN"
 "http://www.w3.org/Graphics/SVG/1.1/DTD/svg11.dtd">
<!-- Generated by graphviz version 2.40.1 (20161225.0304)
 -->
<!-- Title: nuspell::utf8_to_wide Pages: 1 -->
<svg width="263pt" height="198pt"
 viewBox="0.00 0.00 263.00 198.00" xmlns="http://www.w3.org/2000/svg" xmlns:xlink="http://www.w3.org/1999/xlink">
<g id="graph0" class="graph" transform="scale(1 1) rotate(0) translate(4 194)">
<title>nuspell::utf8_to_wide</title>
<polygon fill="#ffffff" stroke="transparent" points="-4,4 -4,-194 259,-194 259,4 -4,4"/>
<!-- Node393 -->
<g id="node1" class="node">
<title>Node393</title>
<polygon fill="#bfbfbf" stroke="#000000" points="0,-88 0,-107 109,-107 109,-88 0,-88"/>
<text text-anchor="middle" x="54.5" y="-95" font-family="Helvetica,sans-Serif" font-size="10.00" fill="#000000">nuspell::utf8_to_wide</text>
</g>
<!-- Node394 -->
<g id="node2" class="node">
<title>Node394</title>
<g id="a_node2"><a xlink:href="structnuspell_1_1_aff___data.html#a93b16b2b3938f607a18e3a67b9360b83" target="_top" xlink:title="Parses an input stream offering affix information. ">
<polygon fill="#ffffff" stroke="#000000" points="151,-159.5 151,-189.5 249,-189.5 249,-159.5 151,-159.5"/>
<text text-anchor="start" x="159" y="-177.5" font-family="Helvetica,sans-Serif" font-size="10.00" fill="#000000">nuspell::Aff_Data::</text>
<text text-anchor="middle" x="200" y="-166.5" font-family="Helvetica,sans-Serif" font-size="10.00" fill="#000000">parse_aff</text>
</a>
</g>
</g>
<!-- Node393&#45;&gt;Node394 -->
<g id="edge1" class="edge">
<title>Node393&#45;&gt;Node394</title>
<path fill="none" stroke="#191970" d="M78.244,-112.4476C96.2521,-123.5265 121.7832,-138.6885 145,-150.5 151.0356,-153.5706 157.552,-156.6292 163.9159,-159.4838"/>
<polygon fill="#191970" stroke="#191970" points="79.9079,-109.3611 69.5647,-107.0655 76.2189,-115.3101 79.9079,-109.3611"/>
</g>
<!-- Node395 -->
<g id="node3" class="node">
<title>Node395</title>
<g id="a_node3"><a xlink:href="structnuspell_1_1_aff___data.html#ad77b0f3b5fc59f2c1ba29e5cbf8dc7ed" target="_top" xlink:title="Parses an input stream offering dictionary information. ">
<polygon fill="#ffffff" stroke="#000000" points="151,-110.5 151,-140.5 249,-140.5 249,-110.5 151,-110.5"/>
<text text-anchor="start" x="159" y="-128.5" font-family="Helvetica,sans-Serif" font-size="10.00" fill="#000000">nuspell::Aff_Data::</text>
<text text-anchor="middle" x="200" y="-117.5" font-family="Helvetica,sans-Serif" font-size="10.00" fill="#000000">parse_dic</text>
</a>
</g>
</g>
<!-- Node393&#45;&gt;Node395 -->
<g id="edge2" class="edge">
<title>Node393&#45;&gt;Node395</title>
<path fill="none" stroke="#191970" d="M114.1771,-108.9843C126.2713,-111.3116 138.8638,-113.735 150.5579,-115.9854"/>
<polygon fill="#191970" stroke="#191970" points="114.6472,-105.5106 104.1659,-107.0577 113.3243,-112.3844 114.6472,-105.5106"/>
</g>
<!-- Node396 -->
<g id="node4" class="node">
<title>Node396</title>
<g id="a_node4"><a xlink:href="classnuspell_1_1_dictionary.html#a86e6e4a0401eb0e99fb002761a6a610b" target="_top" xlink:title="nuspell::Dictionary\l::external_to_internal\l_encoding">
<polygon fill="#ffffff" stroke="#000000" points="146.5,-50 146.5,-91 253.5,-91 253.5,-50 146.5,-50"/>
<text text-anchor="start" x="154.5" y="-79" font-family="Helvetica,sans-Serif" font-size="10.00" fill="#000000">nuspell::Dictionary</text>
<text text-anchor="start" x="154.5" y="-68" font-family="Helvetica,sans-Serif" font-size="10.00" fill="#000000">::external_to_internal</text>
<text text-anchor="middle" x="200" y="-57" font-family="Helvetica,sans-Serif" font-size="10.00" fill="#000000">_encoding</text>
</a>
</g>
</g>
<!-- Node393&#45;&gt;Node396 -->
<g id="edge3" class="edge">
<title>Node393&#45;&gt;Node396</title>
<path fill="none" stroke="#191970" d="M115.7768,-86.129C125.8868,-84.253 136.3,-82.3206 146.2087,-80.4819"/>
<polygon fill="#191970" stroke="#191970" points="114.9914,-82.715 105.7979,-87.9808 116.2686,-89.5975 114.9914,-82.715"/>
</g>
<!-- Node397 -->
<g id="node5" class="node">
<title>Node397</title>
<g id="a_node5"><a xlink:href="class_my___dictionary.html#a06d83a3d76c0eff8688dfbee66976f70" target="_top" xlink:title="My_Dictionary::parse\l_personal_dict">
<polygon fill="#ffffff" stroke="#000000" points="145,-.5 145,-30.5 255,-30.5 255,-.5 145,-.5"/>
<text text-anchor="start" x="153" y="-18.5" font-family="Helvetica,sans-Serif" font-size="10.00" fill="#000000">My_Dictionary::parse</text>
<text text-anchor="middle" x="200" y="-7.5" font-family="Helvetica,sans-Serif" font-size="10.00" fill="#000000">_personal_dict</text>
</a>
</g>
</g>
<!-- Node393&#45;&gt;Node397 -->
<g id="edge4" class="edge">
<title>Node393&#45;&gt;Node397</title>
<path fill="none" stroke="#191970" d="M77.1915,-82.0021C95.1926,-70.0056 121.1982,-53.3288 145,-40.5 151.3708,-37.0662 158.3029,-33.6673 165.031,-30.5339"/>
<polygon fill="#191970" stroke="#191970" points="74.908,-79.3197 68.5618,-87.8036 78.8135,-85.129 74.908,-79.3197"/>
</g>
</g>
</svg>
