<?xml version="1.0" encoding="UTF-8" standalone="no"?>
<!DOCTYPE svg PUBLIC "-//W3C//DTD SVG 1.1//EN"
 "http://www.w3.org/Graphics/SVG/1.1/DTD/svg11.dtd">
<!-- Generated by graphviz version 2.40.1 (20161225.0304)
 -->
<!-- Title: nuspell::split Pages: 1 -->
<svg width="354pt" height="116pt"
 viewBox="0.00 0.00 354.00 115.50" xmlns="http://www.w3.org/2000/svg" xmlns:xlink="http://www.w3.org/1999/xlink">
<g id="graph0" class="graph" transform="scale(1 1) rotate(0) translate(4 111.5)">
<title>nuspell::split</title>
<polygon fill="#ffffff" stroke="transparent" points="-4,4 -4,-111.5 350,-111.5 350,4 -4,4"/>
<!-- Node294 -->
<g id="node1" class="node">
<title>Node294</title>
<polygon fill="#bfbfbf" stroke="#000000" points="0,-38.5 0,-57.5 71,-57.5 71,-38.5 0,-38.5"/>
<text text-anchor="middle" x="35.5" y="-45.5" font-family="Helvetica,sans-Serif" font-size="10.00" fill="#000000">nuspell::split</text>
</g>
<!-- Node295 -->
<g id="node2" class="node">
<title>Node295</title>
<g id="a_node2"><a xlink:href="namespacenuspell.html#a5fcde42a9d5b1fae08e198eb417df1a5" target="_top" xlink:title="Gets the default search paths. ">
<polygon fill="#ffffff" stroke="#000000" points="107,-77 107,-107 208,-107 208,-77 107,-77"/>
<text text-anchor="start" x="115" y="-95" font-family="Helvetica,sans-Serif" font-size="10.00" fill="#000000">nuspell::get_default</text>
<text text-anchor="middle" x="157.5" y="-84" font-family="Helvetica,sans-Serif" font-size="10.00" fill="#000000">_search_paths</text>
</a>
</g>
</g>
<!-- Node294&#45;&gt;Node295 -->
<g id="edge1" class="edge">
<title>Node294&#45;&gt;Node295</title>
<path fill="none" stroke="#191970" d="M71.6388,-61.0337C85.4862,-66.0278 101.3957,-71.7657 115.7279,-76.9346"/>
<polygon fill="#191970" stroke="#191970" points="72.5665,-57.6476 61.9722,-57.5473 70.1916,-64.2325 72.5665,-57.6476"/>
</g>
<!-- Node297 -->
<g id="node4" class="node">
<title>Node297</title>
<g id="a_node4"><a xlink:href="namespacenuspell.html#a738ba7cf9a8824420a2460e022f75838" target="_top" xlink:title="Splits string on string separator. ">
<polygon fill="#ffffff" stroke="#000000" points="122,-38.5 122,-57.5 193,-57.5 193,-38.5 122,-38.5"/>
<text text-anchor="middle" x="157.5" y="-45.5" font-family="Helvetica,sans-Serif" font-size="10.00" fill="#000000">nuspell::split</text>
</a>
</g>
</g>
<!-- Node294&#45;&gt;Node297 -->
<g id="edge3" class="edge">
<title>Node294&#45;&gt;Node297</title>
<path fill="none" stroke="#191970" d="M81.4953,-48C94.7737,-48 109.0634,-48 121.6291,-48"/>
<polygon fill="#191970" stroke="#191970" points="81.1154,-44.5001 71.1154,-48 81.1154,-51.5001 81.1154,-44.5001"/>
</g>
<!-- Node298 -->
<g id="node5" class="node">
<title>Node298</title>
<g id="a_node5"><a xlink:href="namespacenuspell.html#af5bff37b1dfafd7cf3ca38358121b32a" target="_top" xlink:title="Splits string on seperator, output to vector of strings. ">
<polygon fill="#ffffff" stroke="#000000" points="116.5,-.5 116.5,-19.5 198.5,-19.5 198.5,-.5 116.5,-.5"/>
<text text-anchor="middle" x="157.5" y="-7.5" font-family="Helvetica,sans-Serif" font-size="10.00" fill="#000000">nuspell::split_v</text>
</a>
</g>
</g>
<!-- Node294&#45;&gt;Node298 -->
<g id="edge4" class="edge">
<title>Node294&#45;&gt;Node298</title>
<path fill="none" stroke="#191970" d="M76.2108,-35.3196C92.695,-30.1852 111.41,-24.3559 126.7241,-19.5859"/>
<polygon fill="#191970" stroke="#191970" points="74.7925,-32.0954 66.2858,-38.411 76.8742,-38.7787 74.7925,-32.0954"/>
</g>
<!-- Node296 -->
<g id="node3" class="node">
<title>Node296</title>
<g id="a_node3"><a xlink:href="classnuspell_1_1_finder.html#aa74d4af869f64d4aa3e39be572265fcb" target="_top" xlink:title="Adds the default search paths which have been found to the paths. ">
<polygon fill="#ffffff" stroke="#000000" points="244,-77 244,-107 346,-107 346,-77 244,-77"/>
<text text-anchor="start" x="252" y="-95" font-family="Helvetica,sans-Serif" font-size="10.00" fill="#000000">nuspell::Finder::add</text>
<text text-anchor="middle" x="295" y="-84" font-family="Helvetica,sans-Serif" font-size="10.00" fill="#000000">_default_paths</text>
</a>
</g>
</g>
<!-- Node295&#45;&gt;Node296 -->
<g id="edge2" class="edge">
<title>Node295&#45;&gt;Node296</title>
<path fill="none" stroke="#191970" d="M218.5423,-92C227.025,-92 235.6662,-92 243.9405,-92"/>
<polygon fill="#191970" stroke="#191970" points="218.3093,-88.5001 208.3093,-92 218.3092,-95.5001 218.3093,-88.5001"/>
</g>
</g>
</svg>
