<?xml version="1.0" encoding="UTF-8" standalone="no"?>
<!DOCTYPE svg PUBLIC "-//W3C//DTD SVG 1.1//EN"
 "http://www.w3.org/Graphics/SVG/1.1/DTD/svg11.dtd">
<!-- Generated by graphviz version 2.40.1 (20161225.0304)
 -->
<!-- Title: nuspell::analyze_encodings Pages: 1 -->
<svg width="309pt" height="88pt"
 viewBox="0.00 0.00 309.00 88.00" xmlns="http://www.w3.org/2000/svg" xmlns:xlink="http://www.w3.org/1999/xlink">
<g id="graph0" class="graph" transform="scale(1 1) rotate(0) translate(4 84)">
<title>nuspell::analyze_encodings</title>
<polygon fill="#ffffff" stroke="transparent" points="-4,4 -4,-84 305,-84 305,4 -4,4"/>
<!-- Node3 -->
<g id="node1" class="node">
<title>Node3</title>
<polygon fill="#bfbfbf" stroke="#000000" points="0,-30 0,-49 137,-49 137,-30 0,-30"/>
<text text-anchor="middle" x="68.5" y="-37" font-family="Helvetica,sans-Serif" font-size="10.00" fill="#000000">nuspell::analyze_encodings</text>
</g>
<!-- Node4 -->
<g id="node2" class="node">
<title>Node4</title>
<g id="a_node2"><a xlink:href="classnuspell_1_1_basic___dictionary.html#ab44cbc917c5f7ad8c53301e592970eec" target="_top" xlink:title="nuspell::Basic_Dictionary\l::imbue">
<polygon fill="#ffffff" stroke="#000000" points="173,-49.5 173,-79.5 301,-79.5 301,-49.5 173,-49.5"/>
<text text-anchor="start" x="181" y="-67.5" font-family="Helvetica,sans-Serif" font-size="10.00" fill="#000000">nuspell::Basic_Dictionary</text>
<text text-anchor="middle" x="237" y="-56.5" font-family="Helvetica,sans-Serif" font-size="10.00" fill="#000000">::imbue</text>
</a>
</g>
</g>
<!-- Node3&#45;&gt;Node4 -->
<g id="edge1" class="edge">
<title>Node3&#45;&gt;Node4</title>
<path fill="none" stroke="#191970" d="M142.6973,-50.5085C152.7983,-52.0072 163.095,-53.5349 172.9951,-55.0037"/>
<polygon fill="#191970" stroke="#191970" points="143.0887,-47.0283 132.6833,-49.0227 142.0613,-53.9525 143.0887,-47.0283"/>
</g>
<!-- Node5 -->
<g id="node3" class="node">
<title>Node5</title>
<g id="a_node3"><a xlink:href="classnuspell_1_1_basic___dictionary.html#a680a86b001b43e442b159d0157ad1464" target="_top" xlink:title="nuspell::Basic_Dictionary\l::Basic_Dictionary">
<polygon fill="#ffffff" stroke="#000000" points="173,-.5 173,-30.5 301,-30.5 301,-.5 173,-.5"/>
<text text-anchor="start" x="181" y="-18.5" font-family="Helvetica,sans-Serif" font-size="10.00" fill="#000000">nuspell::Basic_Dictionary</text>
<text text-anchor="middle" x="237" y="-7.5" font-family="Helvetica,sans-Serif" font-size="10.00" fill="#000000">::Basic_Dictionary</text>
</a>
</g>
</g>
<!-- Node3&#45;&gt;Node5 -->
<g id="edge2" class="edge">
<title>Node3&#45;&gt;Node5</title>
<path fill="none" stroke="#191970" d="M145.7597,-28.4957C154.8372,-27.2027 164.0237,-25.8943 172.8937,-24.6309"/>
<polygon fill="#191970" stroke="#191970" points="144.9863,-25.0704 135.5798,-29.9456 145.9735,-32.0004 144.9863,-25.0704"/>
</g>
</g>
</svg>
