<?xml version="1.0" encoding="UTF-8" standalone="no"?>
<!DOCTYPE svg PUBLIC "-//W3C//DTD SVG 1.1//EN"
 "http://www.w3.org/Graphics/SVG/1.1/DTD/svg11.dtd">
<!-- Generated by graphviz version 2.40.1 (20161225.0304)
 -->
<!-- Title: nuspell::utf8_to_wide Pages: 1 -->
<svg width="407pt" height="137pt"
 viewBox="0.00 0.00 407.00 137.00" xmlns="http://www.w3.org/2000/svg" xmlns:xlink="http://www.w3.org/1999/xlink">
<g id="graph0" class="graph" transform="scale(1 1) rotate(0) translate(4 133)">
<title>nuspell::utf8_to_wide</title>
<polygon fill="#ffffff" stroke="transparent" points="-4,4 -4,-133 403,-133 403,4 -4,4"/>
<!-- Node383 -->
<g id="node1" class="node">
<title>Node383</title>
<polygon fill="#bfbfbf" stroke="#000000" points="0,-55 0,-74 109,-74 109,-55 0,-55"/>
<text text-anchor="middle" x="54.5" y="-62" font-family="Helvetica,sans-Serif" font-size="10.00" fill="#000000">nuspell::utf8_to_wide</text>
</g>
<!-- Node384 -->
<g id="node2" class="node">
<title>Node384</title>
<g id="a_node2"><a xlink:href="structnuspell_1_1_aff___data.html#a93b16b2b3938f607a18e3a67b9360b83" target="_top" xlink:title="Parses an input stream offering affix information. ">
<polygon fill="#ffffff" stroke="#000000" points="150.5,-98.5 150.5,-128.5 248.5,-128.5 248.5,-98.5 150.5,-98.5"/>
<text text-anchor="start" x="158.5" y="-116.5" font-family="Helvetica,sans-Serif" font-size="10.00" fill="#000000">nuspell::Aff_Data::</text>
<text text-anchor="middle" x="199.5" y="-105.5" font-family="Helvetica,sans-Serif" font-size="10.00" fill="#000000">parse_aff</text>
</a>
</g>
</g>
<!-- Node383&#45;&gt;Node384 -->
<g id="edge1" class="edge">
<title>Node383&#45;&gt;Node384</title>
<path fill="none" stroke="#191970" d="M92.4052,-77.3093C111.5818,-83.7897 134.9765,-91.6955 155.0029,-98.463"/>
<polygon fill="#191970" stroke="#191970" points="93.3959,-73.9497 82.8017,-74.064 91.1548,-80.5813 93.3959,-73.9497"/>
</g>
<!-- Node385 -->
<g id="node3" class="node">
<title>Node385</title>
<g id="a_node3"><a xlink:href="structnuspell_1_1_aff___data.html#ad77b0f3b5fc59f2c1ba29e5cbf8dc7ed" target="_top" xlink:title="Parses an input stream offering dictionary information. ">
<polygon fill="#ffffff" stroke="#000000" points="150.5,-49.5 150.5,-79.5 248.5,-79.5 248.5,-49.5 150.5,-49.5"/>
<text text-anchor="start" x="158.5" y="-67.5" font-family="Helvetica,sans-Serif" font-size="10.00" fill="#000000">nuspell::Aff_Data::</text>
<text text-anchor="middle" x="199.5" y="-56.5" font-family="Helvetica,sans-Serif" font-size="10.00" fill="#000000">parse_dic</text>
</a>
</g>
</g>
<!-- Node383&#45;&gt;Node385 -->
<g id="edge2" class="edge">
<title>Node383&#45;&gt;Node385</title>
<path fill="none" stroke="#191970" d="M119.5544,-64.5C129.89,-64.5 140.4297,-64.5 150.3211,-64.5"/>
<polygon fill="#191970" stroke="#191970" points="119.3183,-61.0001 109.3183,-64.5 119.3182,-68.0001 119.3183,-61.0001"/>
</g>
<!-- Node386 -->
<g id="node4" class="node">
<title>Node386</title>
<g id="a_node4"><a xlink:href="classnuspell_1_1_locale___input.html#a5be7c2be125d06fbaeb953cc148fb489" target="_top" xlink:title="nuspell::Locale_Input\l::cvt_for_u8_dict">
<polygon fill="#ffffff" stroke="#000000" points="145,-.5 145,-30.5 254,-30.5 254,-.5 145,-.5"/>
<text text-anchor="start" x="153" y="-18.5" font-family="Helvetica,sans-Serif" font-size="10.00" fill="#000000">nuspell::Locale_Input</text>
<text text-anchor="middle" x="199.5" y="-7.5" font-family="Helvetica,sans-Serif" font-size="10.00" fill="#000000">::cvt_for_u8_dict</text>
</a>
</g>
</g>
<!-- Node383&#45;&gt;Node386 -->
<g id="edge3" class="edge">
<title>Node383&#45;&gt;Node386</title>
<path fill="none" stroke="#191970" d="M92.4052,-51.6907C111.5818,-45.2103 134.9765,-37.3045 155.0029,-30.537"/>
<polygon fill="#191970" stroke="#191970" points="91.1548,-48.4187 82.8017,-54.936 93.3959,-55.0503 91.1548,-48.4187"/>
</g>
<!-- Node387 -->
<g id="node5" class="node">
<title>Node387</title>
<g id="a_node5"><a xlink:href="classnuspell_1_1_locale___input.html#a31d789637da9d6b3fc790544f88588a1" target="_top" xlink:title="nuspell::Locale_Input\l::cvt_for_u8_dict">
<polygon fill="#ffffff" stroke="#000000" points="290,-.5 290,-30.5 399,-30.5 399,-.5 290,-.5"/>
<text text-anchor="start" x="298" y="-18.5" font-family="Helvetica,sans-Serif" font-size="10.00" fill="#000000">nuspell::Locale_Input</text>
<text text-anchor="middle" x="344.5" y="-7.5" font-family="Helvetica,sans-Serif" font-size="10.00" fill="#000000">::cvt_for_u8_dict</text>
</a>
</g>
</g>
<!-- Node386&#45;&gt;Node387 -->
<g id="edge4" class="edge">
<title>Node386&#45;&gt;Node387</title>
<path fill="none" stroke="#191970" d="M264.4621,-15.5C272.8588,-15.5 281.3919,-15.5 289.6042,-15.5"/>
<polygon fill="#191970" stroke="#191970" points="264.3183,-12.0001 254.3183,-15.5 264.3182,-19.0001 264.3183,-12.0001"/>
</g>
</g>
</svg>
