<?xml version="1.0" encoding="UTF-8" standalone="no"?>
<!DOCTYPE svg PUBLIC "-//W3C//DTD SVG 1.1//EN"
 "http://www.w3.org/Graphics/SVG/1.1/DTD/svg11.dtd">
<!-- Generated by graphviz version 2.40.1 (20161225.0304)
 -->
<!-- Title: nuspell::match_simple_regex Pages: 1 -->
<svg width="466pt" height="83pt"
 viewBox="0.00 0.00 466.00 83.00" xmlns="http://www.w3.org/2000/svg" xmlns:xlink="http://www.w3.org/1999/xlink">
<g id="graph0" class="graph" transform="scale(1 1) rotate(0) translate(4 79)">
<title>nuspell::match_simple_regex</title>
<polygon fill="#ffffff" stroke="transparent" points="-4,4 -4,-79 462,-79 462,4 -4,4"/>
<!-- Node208 -->
<g id="node1" class="node">
<title>Node208</title>
<polygon fill="#bfbfbf" stroke="#000000" points="0,-22.5 0,-52.5 114,-52.5 114,-22.5 0,-22.5"/>
<text text-anchor="start" x="8" y="-40.5" font-family="Helvetica,sans-Serif" font-size="10.00" fill="#000000">nuspell::match_simple</text>
<text text-anchor="middle" x="57" y="-29.5" font-family="Helvetica,sans-Serif" font-size="10.00" fill="#000000">_regex</text>
</g>
<!-- Node209 -->
<g id="node2" class="node">
<title>Node209</title>
<g id="a_node2"><a xlink:href="namespacenuspell.html#a6fe25a583a8b8023eca9607149e24f3d" target="_top" xlink:title="nuspell::match_simple\l_regex">
<polygon fill="#ffffff" stroke="#000000" points="166,-44.5 166,-74.5 280,-74.5 280,-44.5 166,-44.5"/>
<text text-anchor="start" x="174" y="-62.5" font-family="Helvetica,sans-Serif" font-size="10.00" fill="#000000">nuspell::match_simple</text>
<text text-anchor="middle" x="223" y="-51.5" font-family="Helvetica,sans-Serif" font-size="10.00" fill="#000000">_regex</text>
</a>
</g>
</g>
<!-- Node208&#45;&gt;Node209 -->
<g id="edge1" class="edge">
<title>Node208&#45;&gt;Node209</title>
<path fill="none" stroke="#191970" d="M124.0637,-46.388C137.8896,-48.2203 152.3285,-50.1339 165.7669,-51.9149"/>
<polygon fill="#191970" stroke="#191970" points="124.501,-42.9154 114.1278,-45.0712 123.5812,-49.8547 124.501,-42.9154"/>
</g>
<!-- Node210 -->
<g id="node3" class="node">
<title>Node210</title>
<g id="a_node3"><a xlink:href="namespacenuspell.html#aa400607867aa8ca4eb115542a84b7004" target="_top" xlink:title="nuspell::match_compund_rule">
<polygon fill="#ffffff" stroke="#000000" points="150,-6 150,-25 296,-25 296,-6 150,-6"/>
<text text-anchor="middle" x="223" y="-13" font-family="Helvetica,sans-Serif" font-size="10.00" fill="#000000">nuspell::match_compund_rule</text>
</a>
</g>
</g>
<!-- Node208&#45;&gt;Node210 -->
<g id="edge2" class="edge">
<title>Node208&#45;&gt;Node210</title>
<path fill="none" stroke="#191970" d="M124.0524,-28.6135C132.959,-27.4331 142.1202,-26.219 151.1046,-25.0283"/>
<polygon fill="#191970" stroke="#191970" points="123.5812,-25.1453 114.1278,-29.9288 124.501,-32.0846 123.5812,-25.1453"/>
</g>
<!-- Node211 -->
<g id="node4" class="node">
<title>Node211</title>
<g id="a_node4"><a xlink:href="classnuspell_1_1_compound___rule___table.html#a2e604341ef4c6b408ac367d30265575d" target="_top" xlink:title="nuspell::Compound_Rule\l_Table::match_any_rule">
<polygon fill="#ffffff" stroke="#000000" points="332,-.5 332,-30.5 458,-30.5 458,-.5 332,-.5"/>
<text text-anchor="start" x="340" y="-18.5" font-family="Helvetica,sans-Serif" font-size="10.00" fill="#000000">nuspell::Compound_Rule</text>
<text text-anchor="middle" x="395" y="-7.5" font-family="Helvetica,sans-Serif" font-size="10.00" fill="#000000">_Table::match_any_rule</text>
</a>
</g>
</g>
<!-- Node210&#45;&gt;Node211 -->
<g id="edge3" class="edge">
<title>Node210&#45;&gt;Node211</title>
<path fill="none" stroke="#191970" d="M306.7152,-15.5C315.167,-15.5 323.6482,-15.5 331.8321,-15.5"/>
<polygon fill="#191970" stroke="#191970" points="306.4424,-12.0001 296.4424,-15.5 306.4424,-19.0001 306.4424,-12.0001"/>
</g>
</g>
</svg>
