<?xml version="1.0" encoding="UTF-8" standalone="no"?>
<!DOCTYPE svg PUBLIC "-//W3C//DTD SVG 1.1//EN"
 "http://www.w3.org/Graphics/SVG/1.1/DTD/svg11.dtd">
<!-- Generated by graphviz version 2.40.1 (20161225.0304)
 -->
<!-- Title: nuspell::is_modiying_affix Pages: 1 -->
<svg width="287pt" height="39pt"
 viewBox="0.00 0.00 287.00 39.00" xmlns="http://www.w3.org/2000/svg" xmlns:xlink="http://www.w3.org/1999/xlink">
<g id="graph0" class="graph" transform="scale(1 1) rotate(0) translate(4 35)">
<title>nuspell::is_modiying_affix</title>
<polygon fill="#ffffff" stroke="transparent" points="-4,4 -4,-35 283,-35 283,4 -4,4"/>
<!-- Node170 -->
<g id="node1" class="node">
<title>Node170</title>
<polygon fill="#bfbfbf" stroke="#000000" points="0,-.5 0,-30.5 105,-30.5 105,-.5 0,-.5"/>
<text text-anchor="start" x="8" y="-18.5" font-family="Helvetica,sans-Serif" font-size="10.00" fill="#000000">nuspell::is_modiying</text>
<text text-anchor="middle" x="52.5" y="-7.5" font-family="Helvetica,sans-Serif" font-size="10.00" fill="#000000">_affix</text>
</g>
<!-- Node171 -->
<g id="node2" class="node">
<title>Node171</title>
<g id="a_node2"><a xlink:href="structnuspell_1_1_dict___base.html#a70cf2cc3bffa0e91a3ef0f731815c97f" target="_top" xlink:title="nuspell::Dict_Base\l::check_word_in_compound">
<polygon fill="#ffffff" stroke="#000000" points="141,-.5 141,-30.5 279,-30.5 279,-.5 141,-.5"/>
<text text-anchor="start" x="149" y="-18.5" font-family="Helvetica,sans-Serif" font-size="10.00" fill="#000000">nuspell::Dict_Base</text>
<text text-anchor="middle" x="210" y="-7.5" font-family="Helvetica,sans-Serif" font-size="10.00" fill="#000000">::check_word_in_compound</text>
</a>
</g>
</g>
<!-- Node170&#45;&gt;Node171 -->
<g id="edge1" class="edge">
<title>Node170&#45;&gt;Node171</title>
<path fill="none" stroke="#191970" d="M115.4011,-15.5C123.7361,-15.5 132.3181,-15.5 140.7526,-15.5"/>
<polygon fill="#191970" stroke="#191970" points="115.3834,-12.0001 105.3834,-15.5 115.3833,-19.0001 115.3834,-12.0001"/>
</g>
</g>
</svg>
