<?xml version="1.0" encoding="UTF-8" standalone="no"?>
<!DOCTYPE svg PUBLIC "-//W3C//DTD SVG 1.1//EN"
 "http://www.w3.org/Graphics/SVG/1.1/DTD/svg11.dtd">
<!-- Generated by graphviz version 2.40.1 (20161225.0304)
 -->
<!-- Title: nuspell::get_mozilla_paths Pages: 1 -->
<svg width="249pt" height="39pt"
 viewBox="0.00 0.00 249.00 39.00" xmlns="http://www.w3.org/2000/svg" xmlns:xlink="http://www.w3.org/1999/xlink">
<g id="graph0" class="graph" transform="scale(1 1) rotate(0) translate(4 35)">
<title>nuspell::get_mozilla_paths</title>
<polygon fill="#ffffff" stroke="transparent" points="-4,4 -4,-35 245,-35 245,4 -4,4"/>
<!-- Node117 -->
<g id="node1" class="node">
<title>Node117</title>
<polygon fill="#bfbfbf" stroke="#000000" points="0,-.5 0,-30.5 103,-30.5 103,-.5 0,-.5"/>
<text text-anchor="start" x="8" y="-18.5" font-family="Helvetica,sans-Serif" font-size="10.00" fill="#000000">nuspell::get_mozilla</text>
<text text-anchor="middle" x="51.5" y="-7.5" font-family="Helvetica,sans-Serif" font-size="10.00" fill="#000000">_paths</text>
</g>
<!-- Node118 -->
<g id="node2" class="node">
<title>Node118</title>
<g id="a_node2"><a xlink:href="classnuspell_1_1_finder.html#aca1f5cdb73cddef92aff522c83314c83" target="_top" xlink:title="Adds the Mozilla search paths which have been found to the paths. ">
<polygon fill="#ffffff" stroke="#000000" points="139,-.5 139,-30.5 241,-30.5 241,-.5 139,-.5"/>
<text text-anchor="start" x="147" y="-18.5" font-family="Helvetica,sans-Serif" font-size="10.00" fill="#000000">nuspell::Finder::add</text>
<text text-anchor="middle" x="190" y="-7.5" font-family="Helvetica,sans-Serif" font-size="10.00" fill="#000000">_mozilla_paths</text>
</a>
</g>
</g>
<!-- Node117&#45;&gt;Node118 -->
<g id="edge1" class="edge">
<title>Node117&#45;&gt;Node118</title>
<path fill="none" stroke="#191970" d="M113.0744,-15.5C121.685,-15.5 130.456,-15.5 138.8458,-15.5"/>
<polygon fill="#191970" stroke="#191970" points="113.0723,-12.0001 103.0723,-15.5 113.0723,-19.0001 113.0723,-12.0001"/>
</g>
</g>
</svg>
