<?xml version="1.0" encoding="UTF-8" standalone="no"?>
<!DOCTYPE svg PUBLIC "-//W3C//DTD SVG 1.1//EN"
 "http://www.w3.org/Graphics/SVG/1.1/DTD/svg11.dtd">
<!-- Generated by graphviz version 2.40.1 (20161225.0304)
 -->
<!-- Title: nuspell::valid_utf_to_utf Pages: 1 -->
<svg width="377pt" height="88pt"
 viewBox="0.00 0.00 377.00 88.00" xmlns="http://www.w3.org/2000/svg" xmlns:xlink="http://www.w3.org/1999/xlink">
<g id="graph0" class="graph" transform="scale(1 1) rotate(0) translate(4 84)">
<title>nuspell::valid_utf_to_utf</title>
<polygon fill="#ffffff" stroke="transparent" points="-4,4 -4,-84 373,-84 373,4 -4,4"/>
<!-- Node384 -->
<g id="node1" class="node">
<title>Node384</title>
<polygon fill="#bfbfbf" stroke="#000000" points="0,-24.5 0,-54.5 90,-54.5 90,-24.5 0,-24.5"/>
<text text-anchor="start" x="8" y="-42.5" font-family="Helvetica,sans-Serif" font-size="10.00" fill="#000000">nuspell::valid_utf</text>
<text text-anchor="middle" x="45" y="-31.5" font-family="Helvetica,sans-Serif" font-size="10.00" fill="#000000">_to_utf</text>
</g>
<!-- Node385 -->
<g id="node2" class="node">
<title>Node385</title>
<g id="a_node2"><a xlink:href="namespacenuspell.html#ad4e8221da9ce95908ecd5a60ac3ae08c" target="_top" xlink:title="nuspell::wide_to_utf8">
<polygon fill="#ffffff" stroke="#000000" points="126,-30 126,-49 235,-49 235,-30 126,-30"/>
<text text-anchor="middle" x="180.5" y="-37" font-family="Helvetica,sans-Serif" font-size="10.00" fill="#000000">nuspell::wide_to_utf8</text>
</a>
</g>
</g>
<!-- Node384&#45;&gt;Node385 -->
<g id="edge1" class="edge">
<title>Node384&#45;&gt;Node385</title>
<path fill="none" stroke="#191970" d="M100.2056,-39.5C108.6129,-39.5 117.2872,-39.5 125.686,-39.5"/>
<polygon fill="#191970" stroke="#191970" points="100.1196,-36.0001 90.1195,-39.5 100.1195,-43.0001 100.1196,-36.0001"/>
</g>
<!-- Node386 -->
<g id="node3" class="node">
<title>Node386</title>
<g id="a_node3"><a xlink:href="classnuspell_1_1_word___list.html#a9cb1b8ccbd83e2b8275309b981537d40" target="_top" xlink:title="nuspell::Word_List\l::equal_range">
<polygon fill="#ffffff" stroke="#000000" points="271,-49.5 271,-79.5 369,-79.5 369,-49.5 271,-49.5"/>
<text text-anchor="start" x="279" y="-67.5" font-family="Helvetica,sans-Serif" font-size="10.00" fill="#000000">nuspell::Word_List</text>
<text text-anchor="middle" x="320" y="-56.5" font-family="Helvetica,sans-Serif" font-size="10.00" fill="#000000">::equal_range</text>
</a>
</g>
</g>
<!-- Node385&#45;&gt;Node386 -->
<g id="edge2" class="edge">
<title>Node385&#45;&gt;Node386</title>
<path fill="none" stroke="#191970" d="M243.7444,-50.8341C252.7809,-52.4536 261.9644,-54.0994 270.681,-55.6615"/>
<polygon fill="#191970" stroke="#191970" points="244.0975,-47.3417 233.6369,-49.0227 242.8627,-54.232 244.0975,-47.3417"/>
</g>
<!-- Node387 -->
<g id="node4" class="node">
<title>Node387</title>
<g id="a_node4"><a xlink:href="structnuspell_1_1_aff___data.html#ad77b0f3b5fc59f2c1ba29e5cbf8dc7ed" target="_top" xlink:title="Parses an input stream offering dictionary information. ">
<polygon fill="#ffffff" stroke="#000000" points="271,-.5 271,-30.5 369,-30.5 369,-.5 271,-.5"/>
<text text-anchor="start" x="279" y="-18.5" font-family="Helvetica,sans-Serif" font-size="10.00" fill="#000000">nuspell::Aff_Data::</text>
<text text-anchor="middle" x="320" y="-7.5" font-family="Helvetica,sans-Serif" font-size="10.00" fill="#000000">parse_dic</text>
</a>
</g>
</g>
<!-- Node385&#45;&gt;Node387 -->
<g id="edge3" class="edge">
<title>Node385&#45;&gt;Node387</title>
<path fill="none" stroke="#191970" d="M245.2621,-28.3581C253.8717,-26.8769 262.5831,-25.3782 270.8681,-23.9528"/>
<polygon fill="#191970" stroke="#191970" points="244.4955,-24.9385 235.2337,-30.0834 245.6824,-31.8372 244.4955,-24.9385"/>
</g>
</g>
</svg>
