<?xml version="1.0" encoding="UTF-8" standalone="no"?>
<!DOCTYPE svg PUBLIC "-//W3C//DTD SVG 1.1//EN"
 "http://www.w3.org/Graphics/SVG/1.1/DTD/svg11.dtd">
<!-- Generated by graphviz version 2.40.1 (20161225.0304)
 -->
<!-- Title: src/nuspell/regress.cxx Pages: 1 -->
<svg width="2326pt" height="352pt"
 viewBox="0.00 0.00 2326.00 352.00" xmlns="http://www.w3.org/2000/svg" xmlns:xlink="http://www.w3.org/1999/xlink">
<g id="graph0" class="graph" transform="scale(1 1) rotate(0) translate(4 348)">
<title>src/nuspell/regress.cxx</title>
<polygon fill="#ffffff" stroke="transparent" points="-4,4 -4,-348 2322,-348 2322,4 -4,4"/>
<!-- Node0 -->
<g id="node1" class="node">
<title>Node0</title>
<polygon fill="#bfbfbf" stroke="#000000" points="1290,-324.5 1290,-343.5 1408,-343.5 1408,-324.5 1290,-324.5"/>
<text text-anchor="middle" x="1349" y="-331.5" font-family="Helvetica,sans-Serif" font-size="10.00" fill="#000000">src/nuspell/regress.cxx</text>
</g>
<!-- Node1 -->
<g id="node2" class="node">
<title>Node1</title>
<g id="a_node2"><a xlink:href="dictionary_8hxx.html" target="_top" xlink:title="Dictionary spelling. ">
<polygon fill="#ffffff" stroke="#000000" points="581.5,-252 581.5,-271 658.5,-271 658.5,-252 581.5,-252"/>
<text text-anchor="middle" x="620" y="-259" font-family="Helvetica,sans-Serif" font-size="10.00" fill="#000000">dictionary.hxx</text>
</a>
</g>
</g>
<!-- Node0&#45;&gt;Node1 -->
<g id="edge1" class="edge">
<title>Node0&#45;&gt;Node1</title>
<path fill="none" stroke="#191970" d="M1289.9604,-328.1284C1149.5339,-314.1628 797.727,-279.1752 668.552,-266.3286"/>
<polygon fill="#191970" stroke="#191970" points="668.8531,-262.8413 658.5558,-265.3344 668.1603,-269.807 668.8531,-262.8413"/>
</g>
<!-- Node4 -->
<g id="node5" class="node">
<title>Node4</title>
<polygon fill="#ffffff" stroke="#bfbfbf" points="191.5,-.5 191.5,-19.5 232.5,-19.5 232.5,-.5 191.5,-.5"/>
<text text-anchor="middle" x="212" y="-7.5" font-family="Helvetica,sans-Serif" font-size="10.00" fill="#000000">string</text>
</g>
<!-- Node0&#45;&gt;Node4 -->
<g id="edge46" class="edge">
<title>Node0&#45;&gt;Node4</title>
<path fill="none" stroke="#191970" d="M1289.8092,-332.9153C1050.6939,-328.3901 166.1791,-310.214 111,-288 49.6784,-263.3132 0,-255.1043 0,-189 0,-189 0,-189 0,-133 0,-50.2793 122.2504,-22.2626 181.083,-13.5692"/>
<polygon fill="#191970" stroke="#191970" points="181.8585,-16.9955 191.2865,-12.162 180.9021,-10.0611 181.8585,-16.9955"/>
</g>
<!-- Node5 -->
<g id="node6" class="node">
<title>Node5</title>
<polygon fill="#ffffff" stroke="#bfbfbf" points="1135.5,-123.5 1135.5,-142.5 1218.5,-142.5 1218.5,-123.5 1135.5,-123.5"/>
<text text-anchor="middle" x="1177" y="-130.5" font-family="Helvetica,sans-Serif" font-size="10.00" fill="#000000">unordered_map</text>
</g>
<!-- Node0&#45;&gt;Node5 -->
<g id="edge47" class="edge">
<title>Node0&#45;&gt;Node5</title>
<path fill="none" stroke="#191970" d="M1300.3122,-324.4804C1277.2737,-317.7497 1250.9466,-306.5087 1233,-288 1195.9409,-249.7803 1183.1695,-185.2388 1178.9573,-152.8268"/>
<polygon fill="#191970" stroke="#191970" points="1182.4233,-152.3301 1177.7986,-142.7979 1175.4696,-153.1336 1182.4233,-152.3301"/>
</g>
<!-- Node7 -->
<g id="node8" class="node">
<title>Node7</title>
<polygon fill="#ffffff" stroke="#bfbfbf" points="1136,-.5 1136,-19.5 1180,-19.5 1180,-.5 1136,-.5"/>
<text text-anchor="middle" x="1158" y="-7.5" font-family="Helvetica,sans-Serif" font-size="10.00" fill="#000000">vector</text>
</g>
<!-- Node0&#45;&gt;Node7 -->
<g id="edge55" class="edge">
<title>Node0&#45;&gt;Node7</title>
<path fill="none" stroke="#191970" d="M1334.1849,-324.2319C1322.4443,-315.835 1306.3469,-302.768 1296,-288 1232.6299,-197.5524 1268.5935,-147.6667 1207,-56 1199.4502,-44.764 1188.6798,-34.2646 1179.1585,-26.1418"/>
<polygon fill="#191970" stroke="#191970" points="1181.1826,-23.2759 1171.2251,-19.6566 1176.7523,-28.6955 1181.1826,-23.2759"/>
</g>
<!-- Node9 -->
<g id="node10" class="node">
<title>Node9</title>
<polygon fill="#ffffff" stroke="#bfbfbf" points="142,-62 142,-81 184,-81 184,-62 142,-62"/>
<text text-anchor="middle" x="163" y="-69" font-family="Helvetica,sans-Serif" font-size="10.00" fill="#000000">locale</text>
</g>
<!-- Node0&#45;&gt;Node9 -->
<g id="edge45" class="edge">
<title>Node0&#45;&gt;Node9</title>
<path fill="none" stroke="#191970" d="M1289.934,-332.1894C1133.3068,-327.1188 709.944,-311.5875 572,-288 430.7072,-263.8399 391.374,-260.723 262,-199 222.8285,-180.3117 206.8595,-178.5761 182,-143 171.3302,-127.7307 166.6518,-106.8141 164.6007,-91.5497"/>
<polygon fill="#191970" stroke="#191970" points="168.0336,-90.7363 163.4886,-81.1659 161.0734,-91.4817 168.0336,-90.7363"/>
</g>
<!-- Node13 -->
<g id="node14" class="node">
<title>Node13</title>
<polygon fill="#ffffff" stroke="#bfbfbf" points="1352,-62 1352,-81 1408,-81 1408,-62 1352,-62"/>
<text text-anchor="middle" x="1380" y="-69" font-family="Helvetica,sans-Serif" font-size="10.00" fill="#000000">algorithm</text>
</g>
<!-- Node0&#45;&gt;Node13 -->
<g id="edge54" class="edge">
<title>Node0&#45;&gt;Node13</title>
<path fill="none" stroke="#191970" d="M1347.3414,-324.1657C1345.8641,-314.8764 1343.8142,-300.5375 1343,-288 1341.4735,-264.494 1339.8841,-258.3486 1343,-235 1348.6048,-193.0007 1358.9267,-184.3888 1368,-143 1371.7856,-125.7315 1375.0295,-105.8893 1377.1865,-91.4954"/>
<polygon fill="#191970" stroke="#191970" points="1380.6974,-91.6728 1378.673,-81.2732 1373.7703,-90.6654 1380.6974,-91.6728"/>
</g>
<!-- Node21 -->
<g id="node22" class="node">
<title>Node21</title>
<polygon fill="#ffffff" stroke="#bfbfbf" points="938,-179.5 938,-198.5 988,-198.5 988,-179.5 938,-179.5"/>
<text text-anchor="middle" x="963" y="-186.5" font-family="Helvetica,sans-Serif" font-size="10.00" fill="#000000">fstream</text>
</g>
<!-- Node0&#45;&gt;Node21 -->
<g id="edge42" class="edge">
<title>Node0&#45;&gt;Node21</title>
<path fill="none" stroke="#191970" d="M1306.1281,-324.4804C1271.385,-316.2717 1221.4104,-303.3375 1179,-288 1108.9692,-262.6737 1030.294,-223.8356 989.9915,-203.1367"/>
<polygon fill="#191970" stroke="#191970" points="991.5536,-200.0043 981.0626,-198.5245 988.3411,-206.2236 991.5536,-200.0043"/>
</g>
<!-- Node22 -->
<g id="node23" class="node">
<title>Node22</title>
<g id="a_node23"><a xlink:href="finder_8hxx.html" target="_top" xlink:title="Finding dictionaries. ">
<polygon fill="#ffffff" stroke="#000000" points="75.5,-123.5 75.5,-142.5 134.5,-142.5 134.5,-123.5 75.5,-123.5"/>
<text text-anchor="middle" x="105" y="-130.5" font-family="Helvetica,sans-Serif" font-size="10.00" fill="#000000">finder.hxx</text>
</a>
</g>
</g>
<!-- Node0&#45;&gt;Node22 -->
<g id="edge30" class="edge">
<title>Node0&#45;&gt;Node22</title>
<path fill="none" stroke="#191970" d="M1289.9822,-333.6489C1054.7117,-332.0055 194.2516,-323.576 149,-288 107.5098,-255.3812 103.2767,-186.6514 103.92,-152.7557"/>
<polygon fill="#191970" stroke="#191970" points="107.4199,-152.8168 104.2783,-142.6985 100.4243,-152.5675 107.4199,-152.8168"/>
</g>
<!-- Node23 -->
<g id="node24" class="node">
<title>Node23</title>
<g id="a_node24"><a xlink:href="string__utils_8hxx.html" target="_top" xlink:title="String algorithms. ">
<polygon fill="#ffffff" stroke="#000000" points="1275.5,-123.5 1275.5,-142.5 1358.5,-142.5 1358.5,-123.5 1275.5,-123.5"/>
<text text-anchor="middle" x="1317" y="-130.5" font-family="Helvetica,sans-Serif" font-size="10.00" fill="#000000">string_utils.hxx</text>
</a>
</g>
</g>
<!-- Node0&#45;&gt;Node23 -->
<g id="edge34" class="edge">
<title>Node0&#45;&gt;Node23</title>
<path fill="none" stroke="#191970" d="M1336.5788,-324.18C1326.9984,-315.7529 1314.4865,-302.6707 1309,-288 1291.7673,-241.9202 1303.1844,-182.7278 1311.1508,-152.5649"/>
<polygon fill="#191970" stroke="#191970" points="1314.5467,-153.4169 1313.8702,-142.8437 1307.8055,-151.5311 1314.5467,-153.4169"/>
</g>
<!-- Node25 -->
<g id="node26" class="node">
<title>Node25</title>
<polygon fill="#ffffff" stroke="#bfbfbf" points="1351.5,-252 1351.5,-271 1398.5,-271 1398.5,-252 1351.5,-252"/>
<text text-anchor="middle" x="1375" y="-259" font-family="Helvetica,sans-Serif" font-size="10.00" fill="#000000">clocale</text>
</g>
<!-- Node0&#45;&gt;Node25 -->
<g id="edge41" class="edge">
<title>Node0&#45;&gt;Node25</title>
<path fill="none" stroke="#191970" d="M1352.5065,-324.2223C1356.4829,-313.1343 1363.0649,-294.7806 1368.0843,-280.7841"/>
<polygon fill="#191970" stroke="#191970" points="1371.4679,-281.7173 1371.5491,-271.1228 1364.8788,-279.3543 1371.4679,-281.7173"/>
</g>
<!-- Node26 -->
<g id="node27" class="node">
<title>Node26</title>
<polygon fill="#ffffff" stroke="#bfbfbf" points="1417,-252 1417,-271 1467,-271 1467,-252 1417,-252"/>
<text text-anchor="middle" x="1442" y="-259" font-family="Helvetica,sans-Serif" font-size="10.00" fill="#000000">iomanip</text>
</g>
<!-- Node0&#45;&gt;Node26 -->
<g id="edge43" class="edge">
<title>Node0&#45;&gt;Node26</title>
<path fill="none" stroke="#191970" d="M1361.5424,-324.2223C1376.8812,-312.2646 1403.0595,-291.8569 1421.3773,-277.5768"/>
<polygon fill="#191970" stroke="#191970" points="1423.9215,-280.0313 1429.6563,-271.1228 1419.6177,-274.5107 1423.9215,-280.0313"/>
</g>
<!-- Node27 -->
<g id="node28" class="node">
<title>Node27</title>
<polygon fill="#ffffff" stroke="#bfbfbf" points="1485,-252 1485,-271 1539,-271 1539,-252 1485,-252"/>
<text text-anchor="middle" x="1512" y="-259" font-family="Helvetica,sans-Serif" font-size="10.00" fill="#000000">iostream</text>
</g>
<!-- Node0&#45;&gt;Node27 -->
<g id="edge44" class="edge">
<title>Node0&#45;&gt;Node27</title>
<path fill="none" stroke="#191970" d="M1383.5563,-324.4333C1409.76,-316.4873 1446.2213,-303.923 1476,-288 1481.6119,-284.9993 1487.3223,-281.202 1492.4923,-277.4263"/>
<polygon fill="#191970" stroke="#191970" points="1494.761,-280.0973 1500.57,-271.2369 1490.5035,-274.5408 1494.761,-280.0973"/>
</g>
<!-- Node28 -->
<g id="node29" class="node">
<title>Node28</title>
<polygon fill="#ffffff" stroke="#bfbfbf" points="1557,-252 1557,-271 1645,-271 1645,-252 1557,-252"/>
<text text-anchor="middle" x="1601" y="-259" font-family="Helvetica,sans-Serif" font-size="10.00" fill="#000000">boost/locale.hpp</text>
</g>
<!-- Node0&#45;&gt;Node28 -->
<g id="edge48" class="edge">
<title>Node0&#45;&gt;Node28</title>
<path fill="none" stroke="#191970" d="M1406.2093,-324.4967C1446.5461,-316.9027 1501.4554,-304.7482 1548,-288 1557.1429,-284.7101 1566.754,-280.2404 1575.2432,-275.9094"/>
<polygon fill="#191970" stroke="#191970" points="1577.0551,-278.9108 1584.2663,-271.1487 1573.7885,-272.7196 1577.0551,-278.9108"/>
</g>
<!-- Node29 -->
<g id="node30" class="node">
<title>Node29</title>
<polygon fill="#ffffff" stroke="#bfbfbf" points="1663.5,-252 1663.5,-271 1782.5,-271 1782.5,-252 1663.5,-252"/>
<text text-anchor="middle" x="1723" y="-259" font-family="Helvetica,sans-Serif" font-size="10.00" fill="#000000">../hunspell/hunspell.hxx</text>
</g>
<!-- Node0&#45;&gt;Node29 -->
<g id="edge49" class="edge">
<title>Node0&#45;&gt;Node29</title>
<path fill="none" stroke="#191970" d="M1408.2412,-328.9079C1470.2659,-322.6874 1570.1241,-310.1503 1654,-288 1666.7946,-284.6211 1680.478,-279.6643 1692.2578,-274.949"/>
<polygon fill="#191970" stroke="#191970" points="1693.7292,-278.1283 1701.6438,-271.085 1691.0643,-271.6554 1693.7292,-278.1283"/>
</g>
<!-- Node30 -->
<g id="node31" class="node">
<title>Node30</title>
<polygon fill="#ffffff" stroke="#bfbfbf" points="1800.5,-235.5 1800.5,-287.5 1939.5,-287.5 1939.5,-235.5 1800.5,-235.5"/>
<text text-anchor="start" x="1808.5" y="-275.5" font-family="Helvetica,sans-Serif" font-size="10.00" fill="#000000">/home/sander/workspace</text>
<text text-anchor="start" x="1808.5" y="-264.5" font-family="Helvetica,sans-Serif" font-size="10.00" fill="#000000">/nuspell.github.io/tmp</text>
<text text-anchor="start" x="1808.5" y="-253.5" font-family="Helvetica,sans-Serif" font-size="10.00" fill="#000000">/nuspell&#45;master/src/hunspell</text>
<text text-anchor="middle" x="1870" y="-242.5" font-family="Helvetica,sans-Serif" font-size="10.00" fill="#000000">/hunvisapi.h</text>
</g>
<!-- Node0&#45;&gt;Node30 -->
<g id="edge50" class="edge">
<title>Node0&#45;&gt;Node30</title>
<path fill="none" stroke="#191970" d="M1408.0696,-332.0667C1491.6187,-328.4106 1649.0065,-318.1335 1790.3315,-288.1721"/>
<polygon fill="#191970" stroke="#191970" points="1791.4422,-291.513 1800.4779,-285.9807 1789.9643,-284.6708 1791.4422,-291.513"/>
</g>
<!-- Node31 -->
<g id="node32" class="node">
<title>Node31</title>
<polygon fill="#ffffff" stroke="#bfbfbf" points="1957.5,-235.5 1957.5,-287.5 2096.5,-287.5 2096.5,-235.5 1957.5,-235.5"/>
<text text-anchor="start" x="1965.5" y="-275.5" font-family="Helvetica,sans-Serif" font-size="10.00" fill="#000000">/home/sander/workspace</text>
<text text-anchor="start" x="1965.5" y="-264.5" font-family="Helvetica,sans-Serif" font-size="10.00" fill="#000000">/nuspell.github.io/tmp</text>
<text text-anchor="start" x="1965.5" y="-253.5" font-family="Helvetica,sans-Serif" font-size="10.00" fill="#000000">/nuspell&#45;master/src/hunspell</text>
<text text-anchor="middle" x="2027" y="-242.5" font-family="Helvetica,sans-Serif" font-size="10.00" fill="#000000">/w_char.hxx</text>
</g>
<!-- Node0&#45;&gt;Node31 -->
<g id="edge51" class="edge">
<title>Node0&#45;&gt;Node31</title>
<path fill="none" stroke="#191970" d="M1408.3681,-331.3456C1535.0897,-325.38 1829.4773,-309.8488 1947.6253,-288.003"/>
<polygon fill="#191970" stroke="#191970" points="1948.3535,-291.427 1957.4982,-286.0768 1947.013,-284.5565 1948.3535,-291.427"/>
</g>
<!-- Node32 -->
<g id="node33" class="node">
<title>Node32</title>
<polygon fill="#ffffff" stroke="#bfbfbf" points="2114.5,-235.5 2114.5,-287.5 2253.5,-287.5 2253.5,-235.5 2114.5,-235.5"/>
<text text-anchor="start" x="2122.5" y="-275.5" font-family="Helvetica,sans-Serif" font-size="10.00" fill="#000000">/home/sander/workspace</text>
<text text-anchor="start" x="2122.5" y="-264.5" font-family="Helvetica,sans-Serif" font-size="10.00" fill="#000000">/nuspell.github.io/tmp</text>
<text text-anchor="start" x="2122.5" y="-253.5" font-family="Helvetica,sans-Serif" font-size="10.00" fill="#000000">/nuspell&#45;master/src/hunspell</text>
<text text-anchor="middle" x="2184" y="-242.5" font-family="Helvetica,sans-Serif" font-size="10.00" fill="#000000">/atypes.hxx</text>
</g>
<!-- Node0&#45;&gt;Node32 -->
<g id="edge52" class="edge">
<title>Node0&#45;&gt;Node32</title>
<path fill="none" stroke="#191970" d="M1408.0009,-332.4467C1558.4024,-328.1694 1954.2856,-314.839 2104.1464,-288.1005"/>
<polygon fill="#191970" stroke="#191970" points="2104.8981,-291.5206 2114.0809,-286.2361 2103.6069,-284.6407 2104.8981,-291.5206"/>
</g>
<!-- Node33 -->
<g id="node34" class="node">
<title>Node33</title>
<polygon fill="#ffffff" stroke="#bfbfbf" points="2272,-252 2272,-271 2318,-271 2318,-252 2272,-252"/>
<text text-anchor="middle" x="2295" y="-259" font-family="Helvetica,sans-Serif" font-size="10.00" fill="#000000">stdio.h</text>
</g>
<!-- Node0&#45;&gt;Node33 -->
<g id="edge53" class="edge">
<title>Node0&#45;&gt;Node33</title>
<path fill="none" stroke="#191970" d="M1408.0032,-333.1852C1597.6266,-330.2689 2183.7344,-318.8328 2263,-288 2268.7142,-285.7773 2274.1616,-282.1091 2278.8895,-278.2004"/>
<polygon fill="#191970" stroke="#191970" points="2281.5422,-280.5154 2286.5247,-271.1652 2276.7989,-275.3675 2281.5422,-280.5154"/>
</g>
<!-- Node2 -->
<g id="node3" class="node">
<title>Node2</title>
<g id="a_node3"><a xlink:href="aff__data_8hxx.html" target="_top" xlink:title="Affixing data structures. ">
<polygon fill="#ffffff" stroke="#000000" points="584.5,-179.5 584.5,-198.5 655.5,-198.5 655.5,-179.5 584.5,-179.5"/>
<text text-anchor="middle" x="620" y="-186.5" font-family="Helvetica,sans-Serif" font-size="10.00" fill="#000000">aff_data.hxx</text>
</a>
</g>
</g>
<!-- Node1&#45;&gt;Node2 -->
<g id="edge2" class="edge">
<title>Node1&#45;&gt;Node2</title>
<path fill="none" stroke="#191970" d="M620,-251.7223C620,-240.743 620,-222.6397 620,-208.697"/>
<polygon fill="#191970" stroke="#191970" points="623.5001,-208.6227 620,-198.6228 616.5001,-208.6228 623.5001,-208.6227"/>
</g>
<!-- Node8 -->
<g id="node9" class="node">
<title>Node8</title>
<g id="a_node9"><a xlink:href="locale__utils_8hxx.html" target="_top" xlink:title="Encoding transformations. ">
<polygon fill="#ffffff" stroke="#000000" points="191,-123.5 191,-142.5 275,-142.5 275,-123.5 191,-123.5"/>
<text text-anchor="middle" x="233" y="-130.5" font-family="Helvetica,sans-Serif" font-size="10.00" fill="#000000">locale_utils.hxx</text>
</a>
</g>
</g>
<!-- Node1&#45;&gt;Node8 -->
<g id="edge27" class="edge">
<title>Node1&#45;&gt;Node8</title>
<path fill="none" stroke="#191970" d="M581.2642,-257.4618C504.9653,-248.9821 338.3484,-227.7091 289,-199 269.4232,-187.6109 253.4871,-166.7554 243.6906,-151.5277"/>
<polygon fill="#191970" stroke="#191970" points="246.6171,-149.6048 238.4066,-142.9086 240.6493,-153.2634 246.6171,-149.6048"/>
</g>
<!-- Node1&#45;&gt;Node9 -->
<g id="edge29" class="edge">
<title>Node1&#45;&gt;Node9</title>
<path fill="none" stroke="#191970" d="M593.9627,-251.9078C542.0503,-232.6013 422.2085,-187.1193 324,-143 305.8694,-134.855 302.0416,-131.3403 284,-123 253.5829,-108.9387 218.2688,-94.0719 193.6721,-83.9456"/>
<polygon fill="#191970" stroke="#191970" points="194.7369,-80.5995 184.1566,-80.0446 192.0816,-87.0764 194.7369,-80.5995"/>
</g>
<!-- Node1&#45;&gt;Node21 -->
<g id="edge28" class="edge">
<title>Node1&#45;&gt;Node21</title>
<path fill="none" stroke="#191970" d="M658.6797,-253.3243C725.8945,-239.117 863.2426,-210.0857 927.884,-196.4225"/>
<polygon fill="#191970" stroke="#191970" points="928.9191,-199.7811 937.9791,-194.2887 927.4715,-192.9324 928.9191,-199.7811"/>
</g>
<!-- Node3 -->
<g id="node4" class="node">
<title>Node3</title>
<polygon fill="#ffffff" stroke="#bfbfbf" points="597.5,-123.5 597.5,-142.5 642.5,-142.5 642.5,-123.5 597.5,-123.5"/>
<text text-anchor="middle" x="620" y="-130.5" font-family="Helvetica,sans-Serif" font-size="10.00" fill="#000000">iosfwd</text>
</g>
<!-- Node2&#45;&gt;Node3 -->
<g id="edge3" class="edge">
<title>Node2&#45;&gt;Node3</title>
<path fill="none" stroke="#191970" d="M620,-179.2455C620,-171.9382 620,-161.6944 620,-152.7046"/>
<polygon fill="#191970" stroke="#191970" points="623.5001,-152.6426 620,-142.6427 616.5001,-152.6427 623.5001,-152.6426"/>
</g>
<!-- Node2&#45;&gt;Node4 -->
<g id="edge4" class="edge">
<title>Node2&#45;&gt;Node4</title>
<path fill="none" stroke="#191970" d="M584.1517,-182.9962C539.8274,-175.2548 462.248,-160.6646 397,-143 378.2107,-137.9132 244.1783,-101.3264 231,-87 216.7008,-71.455 212.7161,-46.8922 211.8189,-29.7003"/>
<polygon fill="#191970" stroke="#191970" points="215.3167,-29.5567 211.5978,-19.636 208.3184,-29.7105 215.3167,-29.5567"/>
</g>
<!-- Node2&#45;&gt;Node5 -->
<g id="edge5" class="edge">
<title>Node2&#45;&gt;Node5</title>
<path fill="none" stroke="#191970" d="M655.6529,-186.7737C737.9099,-181.4088 947.2299,-166.4493 1121,-143 1122.4681,-142.8019 1123.9564,-142.5927 1125.4575,-142.3743"/>
<polygon fill="#191970" stroke="#191970" points="1126.1264,-145.8125 1135.472,-140.8216 1125.0538,-138.8952 1126.1264,-145.8125"/>
</g>
<!-- Node6 -->
<g id="node7" class="node">
<title>Node6</title>
<polygon fill="#ffffff" stroke="#bfbfbf" points="240,-62 240,-81 280,-81 280,-62 240,-62"/>
<text text-anchor="middle" x="260" y="-69" font-family="Helvetica,sans-Serif" font-size="10.00" fill="#000000">utility</text>
</g>
<!-- Node2&#45;&gt;Node6 -->
<g id="edge6" class="edge">
<title>Node2&#45;&gt;Node6</title>
<path fill="none" stroke="#191970" d="M584.2903,-179.4025C523.7802,-162.7911 397.5717,-126.6346 294,-87 292.4172,-86.3943 290.8033,-85.7508 289.1812,-85.0835"/>
<polygon fill="#191970" stroke="#191970" points="290.5281,-81.8528 279.9601,-81.0994 287.7517,-88.2786 290.5281,-81.8528"/>
</g>
<!-- Node2&#45;&gt;Node7 -->
<g id="edge7" class="edge">
<title>Node2&#45;&gt;Node7</title>
<path fill="none" stroke="#191970" d="M655.7366,-185.2726C775.3575,-172.4416 1156.1735,-128.599 1191,-87 1205.7629,-69.3662 1189.6982,-44.139 1175.2564,-27.4267"/>
<polygon fill="#191970" stroke="#191970" points="1177.7723,-24.9916 1168.4393,-19.977 1172.6082,-29.7173 1177.7723,-24.9916"/>
</g>
<!-- Node2&#45;&gt;Node8 -->
<g id="edge8" class="edge">
<title>Node2&#45;&gt;Node8</title>
<path fill="none" stroke="#191970" d="M584.2856,-183.832C515.6983,-173.9072 365.2744,-152.1405 285.3405,-140.5738"/>
<polygon fill="#191970" stroke="#191970" points="285.4121,-137.0478 275.014,-139.0795 284.4096,-143.9757 285.4121,-137.0478"/>
</g>
<!-- Node10 -->
<g id="node11" class="node">
<title>Node10</title>
<g id="a_node11"><a xlink:href="structures_8hxx.html" target="_top" xlink:title="Data structures. ">
<polygon fill="#ffffff" stroke="#000000" points="723.5,-123.5 723.5,-142.5 802.5,-142.5 802.5,-123.5 723.5,-123.5"/>
<text text-anchor="middle" x="763" y="-130.5" font-family="Helvetica,sans-Serif" font-size="10.00" fill="#000000">structures.hxx</text>
</a>
</g>
</g>
<!-- Node2&#45;&gt;Node10 -->
<g id="edge11" class="edge">
<title>Node2&#45;&gt;Node10</title>
<path fill="none" stroke="#191970" d="M644.5826,-179.3733C667.9496,-170.2226 703.2862,-156.3844 729.2784,-146.2057"/>
<polygon fill="#191970" stroke="#191970" points="730.703,-149.4066 738.7382,-142.5011 728.1505,-142.8886 730.703,-149.4066"/>
</g>
<!-- Node8&#45;&gt;Node4 -->
<g id="edge10" class="edge">
<title>Node8&#45;&gt;Node4</title>
<path fill="none" stroke="#191970" d="M190.8535,-124.8361C169.6452,-118.368 145.7838,-106.952 133,-87 125.5671,-75.3992 126.1331,-67.9446 133,-56 143.3814,-37.9421 163.8816,-26.3095 181.3971,-19.2603"/>
<polygon fill="#191970" stroke="#191970" points="183.0918,-22.366 191.2659,-15.6255 180.6725,-15.7974 183.0918,-22.366"/>
</g>
<!-- Node8&#45;&gt;Node9 -->
<g id="edge9" class="edge">
<title>Node8&#45;&gt;Node9</title>
<path fill="none" stroke="#191970" d="M222.0625,-123.3906C211.338,-113.9683 194.7713,-99.4134 181.9099,-88.1137"/>
<polygon fill="#191970" stroke="#191970" points="183.9143,-85.2158 174.0917,-81.2449 179.2941,-90.4745 183.9143,-85.2158"/>
</g>
<!-- Node10&#45;&gt;Node4 -->
<g id="edge20" class="edge">
<title>Node10&#45;&gt;Node4</title>
<path fill="none" stroke="#191970" d="M723.1927,-129.4217C619.0269,-119.9751 345.1803,-94.5733 327,-87 306.88,-78.6187 306.8475,-68.5112 289,-56 272.7386,-44.6006 253.5698,-33.143 238.4259,-24.5141"/>
<polygon fill="#191970" stroke="#191970" points="240.0098,-21.3892 229.5789,-19.5328 236.5754,-27.4889 240.0098,-21.3892"/>
</g>
<!-- Node10&#45;&gt;Node6 -->
<g id="edge21" class="edge">
<title>Node10&#45;&gt;Node6</title>
<path fill="none" stroke="#191970" d="M723.4665,-129.4792C614.1764,-119.6984 314.6404,-92.5517 294,-87 291.8113,-86.4113 289.5868,-85.6946 287.3769,-84.8958"/>
<polygon fill="#191970" stroke="#191970" points="288.519,-81.581 277.9395,-81.0105 285.8541,-88.0539 288.519,-81.581"/>
</g>
<!-- Node10&#45;&gt;Node7 -->
<g id="edge22" class="edge">
<title>Node10&#45;&gt;Node7</title>
<path fill="none" stroke="#191970" d="M802.5121,-130.7015C877.7136,-125.7916 1038.2696,-112.5852 1087,-87 1113.0485,-73.3236 1134.5315,-46.1772 1146.815,-28.0504"/>
<polygon fill="#191970" stroke="#191970" points="1149.8509,-29.8022 1152.3753,-19.5125 1143.9851,-25.9821 1149.8509,-29.8022"/>
</g>
<!-- Node11 -->
<g id="node12" class="node">
<title>Node11</title>
<g id="a_node12"><a xlink:href="condition_8hxx.html" target="_top" xlink:title="Condition matching. ">
<polygon fill="#ffffff" stroke="#000000" points="624,-62 624,-81 698,-81 698,-62 624,-62"/>
<text text-anchor="middle" x="661" y="-69" font-family="Helvetica,sans-Serif" font-size="10.00" fill="#000000">condition.hxx</text>
</a>
</g>
</g>
<!-- Node10&#45;&gt;Node11 -->
<g id="edge12" class="edge">
<title>Node10&#45;&gt;Node11</title>
<path fill="none" stroke="#191970" d="M747.0625,-123.3906C730.5949,-113.4616 704.6742,-97.833 685.5796,-86.3201"/>
<polygon fill="#191970" stroke="#191970" points="687.1966,-83.2081 676.8256,-81.0419 683.5822,-89.2027 687.1966,-83.2081"/>
</g>
<!-- Node10&#45;&gt;Node13 -->
<g id="edge16" class="edge">
<title>Node10&#45;&gt;Node13</title>
<path fill="none" stroke="#191970" d="M802.5347,-129.0593C914.3599,-117.9131 1231.9244,-86.2596 1341.9301,-75.2946"/>
<polygon fill="#191970" stroke="#191970" points="1342.3105,-78.7742 1351.914,-74.2995 1341.6162,-71.8087 1342.3105,-78.7742"/>
</g>
<!-- Node14 -->
<g id="node15" class="node">
<title>Node14</title>
<polygon fill="#ffffff" stroke="#bfbfbf" points="828,-62 828,-81 872,-81 872,-62 828,-62"/>
<text text-anchor="middle" x="850" y="-69" font-family="Helvetica,sans-Serif" font-size="10.00" fill="#000000">cmath</text>
</g>
<!-- Node10&#45;&gt;Node14 -->
<g id="edge17" class="edge">
<title>Node10&#45;&gt;Node14</title>
<path fill="none" stroke="#191970" d="M776.5938,-123.3906C790.3843,-113.6421 811.9472,-98.3994 828.141,-86.9521"/>
<polygon fill="#191970" stroke="#191970" points="830.3563,-89.6723 836.5017,-81.0419 826.3156,-83.9563 830.3563,-89.6723"/>
</g>
<!-- Node15 -->
<g id="node16" class="node">
<title>Node15</title>
<polygon fill="#ffffff" stroke="#bfbfbf" points="1134.5,-62 1134.5,-81 1181.5,-81 1181.5,-62 1134.5,-62"/>
<text text-anchor="middle" x="1158" y="-69" font-family="Helvetica,sans-Serif" font-size="10.00" fill="#000000">iterator</text>
</g>
<!-- Node10&#45;&gt;Node15 -->
<g id="edge18" class="edge">
<title>Node10&#45;&gt;Node15</title>
<path fill="none" stroke="#191970" d="M802.7313,-131.2379C869.3363,-127.5427 1007.3023,-116.705 1120,-87 1122.6224,-86.3088 1125.305,-85.4805 1127.9719,-84.5711"/>
<polygon fill="#191970" stroke="#191970" points="1129.2938,-87.8134 1137.4264,-81.0229 1126.8342,-81.2598 1129.2938,-87.8134"/>
</g>
<!-- Node16 -->
<g id="node17" class="node">
<title>Node16</title>
<polygon fill="#ffffff" stroke="#bfbfbf" points="890.5,-62 890.5,-81 949.5,-81 949.5,-62 890.5,-62"/>
<text text-anchor="middle" x="920" y="-69" font-family="Helvetica,sans-Serif" font-size="10.00" fill="#000000">stdexcept</text>
</g>
<!-- Node10&#45;&gt;Node16 -->
<g id="edge19" class="edge">
<title>Node10&#45;&gt;Node16</title>
<path fill="none" stroke="#191970" d="M787.8807,-123.3555C811.7744,-114.0806 848.8783,-99.644 881,-87 882.8305,-86.2795 884.7087,-85.5385 886.6042,-84.7894"/>
<polygon fill="#191970" stroke="#191970" points="888.0768,-87.9707 896.0847,-81.0336 885.4986,-81.4628 888.0768,-87.9707"/>
</g>
<!-- Node17 -->
<g id="node18" class="node">
<title>Node17</title>
<polygon fill="#ffffff" stroke="#bfbfbf" points="968,-56.5 968,-86.5 1078,-86.5 1078,-56.5 968,-56.5"/>
<text text-anchor="start" x="976" y="-74.5" font-family="Helvetica,sans-Serif" font-size="10.00" fill="#000000">boost/container/small</text>
<text text-anchor="middle" x="1023" y="-63.5" font-family="Helvetica,sans-Serif" font-size="10.00" fill="#000000">_vector.hpp</text>
</g>
<!-- Node10&#45;&gt;Node17 -->
<g id="edge23" class="edge">
<title>Node10&#45;&gt;Node17</title>
<path fill="none" stroke="#191970" d="M802.5949,-123.6894C839.9195,-114.906 897.6916,-101.2938 957.6525,-87.0793"/>
<polygon fill="#191970" stroke="#191970" points="958.7613,-90.4135 967.6838,-84.7004 957.1461,-83.6024 958.7613,-90.4135"/>
</g>
<!-- Node18 -->
<g id="node19" class="node">
<title>Node18</title>
<polygon fill="#ffffff" stroke="#bfbfbf" points="336,-62 336,-81 486,-81 486,-62 336,-62"/>
<text text-anchor="middle" x="411" y="-69" font-family="Helvetica,sans-Serif" font-size="10.00" fill="#000000">boost/multi_index/member.hpp</text>
</g>
<!-- Node10&#45;&gt;Node18 -->
<g id="edge24" class="edge">
<title>Node10&#45;&gt;Node18</title>
<path fill="none" stroke="#191970" d="M723.4672,-126.3732C671.1613,-117.5689 576.1024,-101.4424 495,-87 487.5894,-85.6804 479.8153,-84.2747 472.113,-82.869"/>
<polygon fill="#191970" stroke="#191970" points="472.5328,-79.3877 462.0657,-81.0282 471.2712,-86.2731 472.5328,-79.3877"/>
</g>
<!-- Node19 -->
<g id="node20" class="node">
<title>Node19</title>
<polygon fill="#ffffff" stroke="#bfbfbf" points="504.5,-56.5 504.5,-86.5 605.5,-86.5 605.5,-56.5 504.5,-56.5"/>
<text text-anchor="start" x="512.5" y="-74.5" font-family="Helvetica,sans-Serif" font-size="10.00" fill="#000000">boost/range/iterator</text>
<text text-anchor="middle" x="555" y="-63.5" font-family="Helvetica,sans-Serif" font-size="10.00" fill="#000000">_range_core.hpp</text>
</g>
<!-- Node10&#45;&gt;Node19 -->
<g id="edge25" class="edge">
<title>Node10&#45;&gt;Node19</title>
<path fill="none" stroke="#191970" d="M730.5,-123.3906C699.8736,-114.3352 653.2133,-100.539 615.7017,-89.4479"/>
<polygon fill="#191970" stroke="#191970" points="616.4645,-86.0237 605.8825,-86.5446 614.4797,-92.7364 616.4645,-86.0237"/>
</g>
<!-- Node20 -->
<g id="node21" class="node">
<title>Node20</title>
<polygon fill="#ffffff" stroke="#bfbfbf" points="716,-56.5 716,-86.5 810,-86.5 810,-56.5 716,-56.5"/>
<text text-anchor="start" x="724" y="-74.5" font-family="Helvetica,sans-Serif" font-size="10.00" fill="#000000">boost/utility/string</text>
<text text-anchor="middle" x="763" y="-63.5" font-family="Helvetica,sans-Serif" font-size="10.00" fill="#000000">_view.hpp</text>
</g>
<!-- Node10&#45;&gt;Node20 -->
<g id="edge26" class="edge">
<title>Node10&#45;&gt;Node20</title>
<path fill="none" stroke="#191970" d="M763,-123.3906C763,-116.2234 763,-106.0862 763,-96.671"/>
<polygon fill="#191970" stroke="#191970" points="766.5001,-96.5446 763,-86.5446 759.5001,-96.5446 766.5001,-96.5446"/>
</g>
<!-- Node11&#45;&gt;Node4 -->
<g id="edge13" class="edge">
<title>Node11&#45;&gt;Node4</title>
<path fill="none" stroke="#191970" d="M634.9144,-61.8472C628.1765,-59.6453 620.8814,-57.5117 614,-56 477.5591,-26.0268 310.5179,-14.8627 242.7486,-11.3723"/>
<polygon fill="#191970" stroke="#191970" points="242.9053,-7.8758 232.7442,-10.8763 242.5586,-14.8673 242.9053,-7.8758"/>
</g>
<!-- Node11&#45;&gt;Node7 -->
<g id="edge15" class="edge">
<title>Node11&#45;&gt;Node7</title>
<path fill="none" stroke="#191970" d="M686.0229,-61.9409C692.7507,-59.6827 700.0815,-57.4987 707,-56 861.3283,-22.5691 1050.7689,-13.2851 1125.4937,-10.8331"/>
<polygon fill="#191970" stroke="#191970" points="1125.7813,-14.326 1135.6685,-10.5188 1125.5651,-7.3293 1125.7813,-14.326"/>
</g>
<!-- Node12 -->
<g id="node13" class="node">
<title>Node12</title>
<polygon fill="#ffffff" stroke="#bfbfbf" points="642,-.5 642,-19.5 680,-19.5 680,-.5 642,-.5"/>
<text text-anchor="middle" x="661" y="-7.5" font-family="Helvetica,sans-Serif" font-size="10.00" fill="#000000">tuple</text>
</g>
<!-- Node11&#45;&gt;Node12 -->
<g id="edge14" class="edge">
<title>Node11&#45;&gt;Node12</title>
<path fill="none" stroke="#191970" d="M661,-61.8906C661,-53.3657 661,-40.6392 661,-29.9235"/>
<polygon fill="#191970" stroke="#191970" points="664.5001,-29.7448 661,-19.7449 657.5001,-29.7449 664.5001,-29.7448"/>
</g>
<!-- Node22&#45;&gt;Node4 -->
<g id="edge31" class="edge">
<title>Node22&#45;&gt;Node4</title>
<path fill="none" stroke="#191970" d="M104.9378,-123.3956C105.3219,-107.6645 108.1863,-76.1449 124,-56 138.5034,-37.5243 162.496,-25.6849 181.7686,-18.6513"/>
<polygon fill="#191970" stroke="#191970" points="182.9973,-21.9304 191.3414,-15.4016 180.7471,-15.302 182.9973,-21.9304"/>
</g>
<!-- Node22&#45;&gt;Node6 -->
<g id="edge32" class="edge">
<title>Node22&#45;&gt;Node6</title>
<path fill="none" stroke="#191970" d="M129.2188,-123.3906C156.6045,-112.5247 201.1942,-94.8326 230.5651,-83.179"/>
<polygon fill="#191970" stroke="#191970" points="231.8911,-86.4184 239.8954,-79.477 229.3094,-79.9118 231.8911,-86.4184"/>
</g>
<!-- Node22&#45;&gt;Node7 -->
<g id="edge33" class="edge">
<title>Node22&#45;&gt;Node7</title>
<path fill="none" stroke="#191970" d="M105.28,-123.4749C106.3444,-106.6635 111.2167,-71.9975 133,-56 153.4908,-40.9517 952.9862,-16.1489 1125.4341,-10.9671"/>
<polygon fill="#191970" stroke="#191970" points="1125.7595,-14.459 1135.6502,-10.6611 1125.5498,-7.4622 1125.7595,-14.459"/>
</g>
<!-- Node23&#45;&gt;Node4 -->
<g id="edge39" class="edge">
<title>Node23&#45;&gt;Node4</title>
<path fill="none" stroke="#191970" d="M1305.8094,-123.4069C1284.9098,-106.1572 1237.8108,-70.365 1191,-56 1098.6665,-27.6653 400.0144,-13.407 243.184,-10.5447"/>
<polygon fill="#191970" stroke="#191970" points="242.9058,-7.0392 232.8443,-10.3582 242.7796,-14.038 242.9058,-7.0392"/>
</g>
<!-- Node23&#45;&gt;Node7 -->
<g id="edge40" class="edge">
<title>Node23&#45;&gt;Node7</title>
<path fill="none" stroke="#191970" d="M1317.7121,-123.3639C1318.3497,-107.3011 1317.2129,-74.9497 1300,-56 1285.1486,-39.65 1227.1088,-24.6772 1189.9854,-16.4976"/>
<polygon fill="#191970" stroke="#191970" points="1190.6351,-13.0574 1180.1226,-14.3752 1189.1624,-19.9007 1190.6351,-13.0574"/>
</g>
<!-- Node23&#45;&gt;Node9 -->
<g id="edge37" class="edge">
<title>Node23&#45;&gt;Node9</title>
<path fill="none" stroke="#191970" d="M1275.4053,-127.666C1260.4784,-125.9267 1243.5061,-124.1494 1228,-123 785.8133,-90.2221 670.6525,-144.5248 231,-87 218.8664,-85.4124 205.7153,-82.6627 194.241,-79.9158"/>
<polygon fill="#191970" stroke="#191970" points="194.8016,-76.4485 184.2521,-77.4273 193.1094,-83.2409 194.8016,-76.4485"/>
</g>
<!-- Node23&#45;&gt;Node13 -->
<g id="edge35" class="edge">
<title>Node23&#45;&gt;Node13</title>
<path fill="none" stroke="#191970" d="M1326.8438,-123.3906C1336.4039,-114.0581 1351.1223,-99.6902 1362.6495,-88.4374"/>
<polygon fill="#191970" stroke="#191970" points="1365.3066,-90.7348 1370.0175,-81.2449 1360.4168,-85.7257 1365.3066,-90.7348"/>
</g>
<!-- Node23&#45;&gt;Node15 -->
<g id="edge36" class="edge">
<title>Node23&#45;&gt;Node15</title>
<path fill="none" stroke="#191970" d="M1292.1563,-123.3906C1265.0054,-112.8889 1221.3699,-96.011 1191.2756,-84.3708"/>
<polygon fill="#191970" stroke="#191970" points="1192.2215,-80.984 1181.6322,-80.6408 1189.6962,-87.5126 1192.2215,-80.984"/>
</g>
<!-- Node24 -->
<g id="node25" class="node">
<title>Node24</title>
<polygon fill="#ffffff" stroke="#bfbfbf" points="1426.5,-62 1426.5,-81 1467.5,-81 1467.5,-62 1426.5,-62"/>
<text text-anchor="middle" x="1447" y="-69" font-family="Helvetica,sans-Serif" font-size="10.00" fill="#000000">stack</text>
</g>
<!-- Node23&#45;&gt;Node24 -->
<g id="edge38" class="edge">
<title>Node23&#45;&gt;Node24</title>
<path fill="none" stroke="#191970" d="M1338.5914,-123.4116C1358.9355,-114.2961 1390.2087,-100.0746 1417,-87 1417.8298,-86.595 1418.671,-86.1813 1419.5192,-85.7612"/>
<polygon fill="#191970" stroke="#191970" points="1421.3153,-88.7752 1428.6632,-81.1424 1418.1593,-82.527 1421.3153,-88.7752"/>
</g>
</g>
</svg>
