<?xml version="1.0" encoding="UTF-8" standalone="no"?>
<!DOCTYPE svg PUBLIC "-//W3C//DTD SVG 1.1//EN"
 "http://www.w3.org/Graphics/SVG/1.1/DTD/svg11.dtd">
<!-- Generated by graphviz version 2.40.1 (20161225.0304)
 -->
<!-- Title: main Pages: 1 -->
<svg width="648pt" height="236pt"
 viewBox="0.00 0.00 648.00 235.50" xmlns="http://www.w3.org/2000/svg" xmlns:xlink="http://www.w3.org/1999/xlink">
<g id="graph0" class="graph" transform="scale(1 1) rotate(0) translate(4 231.5)">
<title>main</title>
<polygon fill="#ffffff" stroke="transparent" points="-4,4 -4,-231.5 644,-231.5 644,4 -4,4"/>
<!-- Node0 -->
<g id="node1" class="node">
<title>Node0</title>
<polygon fill="#bfbfbf" stroke="#000000" points="0,-139.5 0,-158.5 38,-158.5 38,-139.5 0,-139.5"/>
<text text-anchor="middle" x="19" y="-146.5" font-family="Helvetica,sans-Serif" font-size="10.00" fill="#000000">main</text>
</g>
<!-- Node1 -->
<g id="node2" class="node">
<title>Node1</title>
<g id="a_node2"><a xlink:href="namespacenuspell.html#aae159e86a8a1edad724249d330d985b1" target="_top" xlink:title="nuspell::install_ctype\l_facets_inplace">
<polygon fill="#ffffff" stroke="#000000" points="74,-197 74,-227 182,-227 182,-197 74,-197"/>
<text text-anchor="start" x="82" y="-215" font-family="Helvetica,sans-Serif" font-size="10.00" fill="#000000">nuspell::install_ctype</text>
<text text-anchor="middle" x="128" y="-204" font-family="Helvetica,sans-Serif" font-size="10.00" fill="#000000">_facets_inplace</text>
</a>
</g>
</g>
<!-- Node0&#45;&gt;Node1 -->
<g id="edge1" class="edge">
<title>Node0&#45;&gt;Node1</title>
<path fill="none" stroke="#191970" d="M31.7053,-158.7077C42.5995,-166.8017 58.8843,-178.3636 74,-187 77.2404,-188.8514 80.6416,-190.6782 84.0937,-192.4503"/>
<polygon fill="#191970" stroke="#191970" points="82.7598,-195.6953 93.2748,-196.9932 85.8642,-189.4213 82.7598,-195.6953"/>
</g>
<!-- Node2 -->
<g id="node3" class="node">
<title>Node2</title>
<g id="a_node3"><a xlink:href="regress_8cxx.html#af8c650bca476b3f8959df7215c4c134f" target="_top" xlink:title="Prints help information. ">
<polygon fill="#ffffff" stroke="#000000" points="98.5,-158.5 98.5,-177.5 157.5,-177.5 157.5,-158.5 98.5,-158.5"/>
<text text-anchor="middle" x="128" y="-165.5" font-family="Helvetica,sans-Serif" font-size="10.00" fill="#000000">print_help</text>
</a>
</g>
</g>
<!-- Node0&#45;&gt;Node2 -->
<g id="edge2" class="edge">
<title>Node0&#45;&gt;Node2</title>
<path fill="none" stroke="#191970" d="M38.2361,-152.3531C52.0026,-154.7528 71.0299,-158.0694 88.0246,-161.0318"/>
<polygon fill="#191970" stroke="#191970" points="87.8258,-164.5499 98.2783,-162.8192 89.0279,-157.6538 87.8258,-164.5499"/>
</g>
<!-- Node3 -->
<g id="node4" class="node">
<title>Node3</title>
<g id="a_node4"><a xlink:href="regress_8cxx.html#a6150c93934b2505d7e4521b40fa8d571" target="_top" xlink:title="Prints the version number to standard output. ">
<polygon fill="#ffffff" stroke="#000000" points="92,-120.5 92,-139.5 164,-139.5 164,-120.5 92,-120.5"/>
<text text-anchor="middle" x="128" y="-127.5" font-family="Helvetica,sans-Serif" font-size="10.00" fill="#000000">print_version</text>
</a>
</g>
</g>
<!-- Node0&#45;&gt;Node3 -->
<g id="edge3" class="edge">
<title>Node0&#45;&gt;Node3</title>
<path fill="none" stroke="#191970" d="M38.2361,-145.6469C50.3687,-143.5321 66.5874,-140.7049 81.8997,-138.0358"/>
<polygon fill="#191970" stroke="#191970" points="82.5287,-141.4791 91.7791,-136.3137 81.3266,-134.583 82.5287,-141.4791"/>
</g>
<!-- Node4 -->
<g id="node5" class="node">
<title>Node4</title>
<g id="a_node5"><a xlink:href="regress_8cxx.html#adaa095873c4ebfe8c954f43bc50f7b76" target="_top" xlink:title="normal_loop">
<polygon fill="#ffffff" stroke="#000000" points="93.5,-82.5 93.5,-101.5 162.5,-101.5 162.5,-82.5 93.5,-82.5"/>
<text text-anchor="middle" x="128" y="-89.5" font-family="Helvetica,sans-Serif" font-size="10.00" fill="#000000">normal_loop</text>
</a>
</g>
</g>
<!-- Node0&#45;&gt;Node4 -->
<g id="edge4" class="edge">
<title>Node0&#45;&gt;Node4</title>
<path fill="none" stroke="#191970" d="M31.0747,-139.2482C41.8406,-130.9066 58.2834,-119.0124 74,-111 78.0439,-108.9384 82.3636,-107.0077 86.732,-105.2267"/>
<polygon fill="#191970" stroke="#191970" points="88.1941,-108.4149 96.2849,-101.5745 85.6943,-101.8764 88.1941,-108.4149"/>
</g>
<!-- Node5 -->
<g id="node6" class="node">
<title>Node5</title>
<g id="a_node6"><a xlink:href="regress_8cxx.html#a56237bb115471532c16e426e29e420bb" target="_top" xlink:title="rdtsc">
<polygon fill="#ffffff" stroke="#000000" points="263,-164.5 263,-183.5 301,-183.5 301,-164.5 263,-164.5"/>
<text text-anchor="middle" x="282" y="-171.5" font-family="Helvetica,sans-Serif" font-size="10.00" fill="#000000">rdtsc</text>
</a>
</g>
</g>
<!-- Node4&#45;&gt;Node5 -->
<g id="edge5" class="edge">
<title>Node4&#45;&gt;Node5</title>
<path fill="none" stroke="#191970" d="M162.6071,-101.3507C169.326,-103.9337 176.1049,-107.1221 182,-111 201.7074,-123.9639 198.4261,-136.8353 218,-150 228.6622,-157.171 241.7548,-162.5695 253.3142,-166.412"/>
<polygon fill="#191970" stroke="#191970" points="252.3908,-169.7898 262.9782,-169.3936 254.4546,-163.1009 252.3908,-169.7898"/>
</g>
<!-- Node6 -->
<g id="node7" class="node">
<title>Node6</title>
<g id="a_node7"><a xlink:href="classnuspell_1_1_basic___dictionary.html#a05ed25f4b65c93f0389295303e43e509" target="_top" xlink:title="nuspell::Basic_Dictionary\l::spell">
<polygon fill="#ffffff" stroke="#000000" points="218,-77 218,-107 346,-107 346,-77 218,-77"/>
<text text-anchor="start" x="226" y="-95" font-family="Helvetica,sans-Serif" font-size="10.00" fill="#000000">nuspell::Basic_Dictionary</text>
<text text-anchor="middle" x="282" y="-84" font-family="Helvetica,sans-Serif" font-size="10.00" fill="#000000">::spell</text>
</a>
</g>
</g>
<!-- Node4&#45;&gt;Node6 -->
<g id="edge6" class="edge">
<title>Node4&#45;&gt;Node6</title>
<path fill="none" stroke="#191970" d="M162.5606,-92C175.9458,-92 191.8192,-92 207.5505,-92"/>
<polygon fill="#191970" stroke="#191970" points="207.8401,-95.5001 217.8401,-92 207.8401,-88.5001 207.8401,-95.5001"/>
</g>
<!-- Node9 -->
<g id="node10" class="node">
<title>Node9</title>
<g id="a_node10"><a xlink:href="namespacenuspell.html#a7aade2ec1cb243eb5b3714007d59d63c" target="_top" xlink:title="nuspell::to_wide">
<polygon fill="#ffffff" stroke="#000000" points="393,-123.5 393,-142.5 480,-142.5 480,-123.5 393,-123.5"/>
<text text-anchor="middle" x="436.5" y="-130.5" font-family="Helvetica,sans-Serif" font-size="10.00" fill="#000000">nuspell::to_wide</text>
</a>
</g>
</g>
<!-- Node4&#45;&gt;Node9 -->
<g id="edge12" class="edge">
<title>Node4&#45;&gt;Node9</title>
<path fill="none" stroke="#191970" d="M158.106,-101.5073C175.4479,-106.6096 197.7558,-112.5432 218,-116 273.6727,-125.5064 338.2449,-129.7041 382.6785,-131.5532"/>
<polygon fill="#191970" stroke="#191970" points="382.5526,-135.0509 392.6817,-131.944 382.8259,-128.0562 382.5526,-135.0509"/>
</g>
<!-- Node10 -->
<g id="node11" class="node">
<title>Node10</title>
<g id="a_node11"><a xlink:href="namespacenuspell.html#a9bf8e1a3f71282ed001fcf4f224ef9dd" target="_top" xlink:title="nuspell::to_narrow">
<polygon fill="#ffffff" stroke="#000000" points="388.5,-41.5 388.5,-60.5 484.5,-60.5 484.5,-41.5 388.5,-41.5"/>
<text text-anchor="middle" x="436.5" y="-48.5" font-family="Helvetica,sans-Serif" font-size="10.00" fill="#000000">nuspell::to_narrow</text>
</a>
</g>
</g>
<!-- Node4&#45;&gt;Node10 -->
<g id="edge11" class="edge">
<title>Node4&#45;&gt;Node10</title>
<path fill="none" stroke="#191970" d="M156.8506,-82.4155C174.3455,-76.9991 197.2295,-70.6086 218,-67 271.8875,-57.6377 334.178,-53.7449 378.4286,-52.131"/>
<polygon fill="#191970" stroke="#191970" points="378.552,-55.6289 388.4284,-51.7939 378.3161,-48.6329 378.552,-55.6289"/>
</g>
<!-- Node11 -->
<g id="node12" class="node">
<title>Node11</title>
<g id="a_node12"><a xlink:href="namespacestd.html#abb75a3efd092cccd0bcbfdf1c503d145" target="_top" xlink:title="std::operator\&lt;\&lt;">
<polygon fill="#ffffff" stroke="#000000" points="240.5,-.5 240.5,-19.5 323.5,-19.5 323.5,-.5 240.5,-.5"/>
<text text-anchor="middle" x="282" y="-7.5" font-family="Helvetica,sans-Serif" font-size="10.00" fill="#000000">std::operator&lt;&lt;</text>
</a>
</g>
</g>
<!-- Node4&#45;&gt;Node11 -->
<g id="edge13" class="edge">
<title>Node4&#45;&gt;Node11</title>
<path fill="none" stroke="#191970" d="M140.8908,-82.4296C157.9076,-70.0975 189.0991,-48.5216 218,-34 225.8498,-30.0558 234.5117,-26.3857 242.8596,-23.161"/>
<polygon fill="#191970" stroke="#191970" points="244.2977,-26.3604 252.4475,-19.5905 241.8547,-19.8005 244.2977,-26.3604"/>
</g>
<!-- Node7 -->
<g id="node8" class="node">
<title>Node7</title>
<g id="a_node8"><a xlink:href="namespacenuspell.html#a79258aeb32a39ce719a014950b33e5d6" target="_top" xlink:title="nuspell::utf8_to_wide">
<polygon fill="#ffffff" stroke="#000000" points="382,-82.5 382,-101.5 491,-101.5 491,-82.5 382,-82.5"/>
<text text-anchor="middle" x="436.5" y="-89.5" font-family="Helvetica,sans-Serif" font-size="10.00" fill="#000000">nuspell::utf8_to_wide</text>
</a>
</g>
</g>
<!-- Node6&#45;&gt;Node7 -->
<g id="edge7" class="edge">
<title>Node6&#45;&gt;Node7</title>
<path fill="none" stroke="#191970" d="M346.1797,-92C354.5495,-92 363.1301,-92 371.513,-92"/>
<polygon fill="#191970" stroke="#191970" points="371.6128,-95.5001 381.6128,-92 371.6127,-88.5001 371.6128,-95.5001"/>
</g>
<!-- Node6&#45;&gt;Node9 -->
<g id="edge9" class="edge">
<title>Node6&#45;&gt;Node9</title>
<path fill="none" stroke="#191970" d="M338.6528,-107.0341C355.7695,-111.5764 374.3416,-116.5049 390.6599,-120.8353"/>
<polygon fill="#191970" stroke="#191970" points="389.9327,-124.2634 400.496,-123.4455 391.7282,-117.4976 389.9327,-124.2634"/>
</g>
<!-- Node6&#45;&gt;Node10 -->
<g id="edge10" class="edge">
<title>Node6&#45;&gt;Node10</title>
<path fill="none" stroke="#191970" d="M338.6528,-76.9659C355.7695,-72.4236 374.3416,-67.4951 390.6599,-63.1647"/>
<polygon fill="#191970" stroke="#191970" points="391.7282,-66.5024 400.496,-60.5545 389.9327,-59.7366 391.7282,-66.5024"/>
</g>
<!-- Node8 -->
<g id="node9" class="node">
<title>Node8</title>
<g id="a_node9"><a xlink:href="namespacenuspell.html#aae8baee1ca83bf5a5e0d07a4e8fdbf81" target="_top" xlink:title="nuspell::utf_to_utf_my">
<polygon fill="#ffffff" stroke="#000000" points="527,-82.5 527,-101.5 640,-101.5 640,-82.5 527,-82.5"/>
<text text-anchor="middle" x="583.5" y="-89.5" font-family="Helvetica,sans-Serif" font-size="10.00" fill="#000000">nuspell::utf_to_utf_my</text>
</a>
</g>
</g>
<!-- Node7&#45;&gt;Node8 -->
<g id="edge8" class="edge">
<title>Node7&#45;&gt;Node8</title>
<path fill="none" stroke="#191970" d="M491.2374,-92C499.4781,-92 508.0561,-92 516.5179,-92"/>
<polygon fill="#191970" stroke="#191970" points="516.7514,-95.5001 526.7514,-92 516.7514,-88.5001 516.7514,-95.5001"/>
</g>
</g>
</svg>
