<?xml version="1.0" encoding="UTF-8" standalone="no"?>
<!DOCTYPE svg PUBLIC "-//W3C//DTD SVG 1.1//EN"
 "http://www.w3.org/Graphics/SVG/1.1/DTD/svg11.dtd">
<!-- Generated by graphviz version 2.40.1 (20161225.0304)
 -->
<!-- Title: src/nuspell/regress.cxx Pages: 1 -->
<svg width="2393pt" height="296pt"
 viewBox="0.00 0.00 2393.00 296.00" xmlns="http://www.w3.org/2000/svg" xmlns:xlink="http://www.w3.org/1999/xlink">
<g id="graph0" class="graph" transform="scale(1 1) rotate(0) translate(4 292)">
<title>src/nuspell/regress.cxx</title>
<polygon fill="#ffffff" stroke="transparent" points="-4,4 -4,-292 2389,-292 2389,4 -4,4"/>
<!-- Node0 -->
<g id="node1" class="node">
<title>Node0</title>
<polygon fill="#bfbfbf" stroke="#000000" points="1318,-268.5 1318,-287.5 1436,-287.5 1436,-268.5 1318,-268.5"/>
<text text-anchor="middle" x="1377" y="-275.5" font-family="Helvetica,sans-Serif" font-size="10.00" fill="#000000">src/nuspell/regress.cxx</text>
</g>
<!-- Node1 -->
<g id="node2" class="node">
<title>Node1</title>
<g id="a_node2"><a xlink:href="dictionary_8hxx.html" target="_top" xlink:title="Dictionary spelling. ">
<polygon fill="#ffffff" stroke="#000000" points="1182.5,-196 1182.5,-215 1259.5,-215 1259.5,-196 1182.5,-196"/>
<text text-anchor="middle" x="1221" y="-203" font-family="Helvetica,sans-Serif" font-size="10.00" fill="#000000">dictionary.hxx</text>
</a>
</g>
</g>
<!-- Node0&#45;&gt;Node1 -->
<g id="edge1" class="edge">
<title>Node0&#45;&gt;Node1</title>
<path fill="none" stroke="#191970" d="M1354.7712,-268.4066C1333.824,-259.2876 1301.6175,-245.0638 1274,-232 1265.7118,-228.0795 1256.7707,-223.6768 1248.6359,-219.603"/>
<polygon fill="#191970" stroke="#191970" points="1250.0494,-216.396 1239.5442,-215.0202 1246.8986,-222.6468 1250.0494,-216.396"/>
</g>
<!-- Node4 -->
<g id="node5" class="node">
<title>Node4</title>
<polygon fill="#ffffff" stroke="#bfbfbf" points="894.5,-6 894.5,-25 935.5,-25 935.5,-6 894.5,-6"/>
<text text-anchor="middle" x="915" y="-13" font-family="Helvetica,sans-Serif" font-size="10.00" fill="#000000">string</text>
</g>
<!-- Node0&#45;&gt;Node4 -->
<g id="edge43" class="edge">
<title>Node0&#45;&gt;Node4</title>
<path fill="none" stroke="#191970" d="M1317.991,-274.8065C1253.4368,-270.0847 1147.4952,-258.7065 1060,-232 972.7325,-205.363 935.4887,-211.31 875,-143 851.918,-116.9334 841.5939,-98.6972 856,-67 862.8563,-51.9144 876.5565,-39.5202 889.0303,-30.674"/>
<polygon fill="#191970" stroke="#191970" points="890.9824,-33.5791 897.3709,-25.1269 887.106,-27.7504 890.9824,-33.5791"/>
</g>
<!-- Node5 -->
<g id="node6" class="node">
<title>Node5</title>
<polygon fill="#ffffff" stroke="#bfbfbf" points="967.5,-67.5 967.5,-86.5 1050.5,-86.5 1050.5,-67.5 967.5,-67.5"/>
<text text-anchor="middle" x="1009" y="-74.5" font-family="Helvetica,sans-Serif" font-size="10.00" fill="#000000">unordered_map</text>
</g>
<!-- Node0&#45;&gt;Node5 -->
<g id="edge44" class="edge">
<title>Node0&#45;&gt;Node5</title>
<path fill="none" stroke="#191970" d="M1317.8585,-272.9671C1251.1709,-266.3743 1147.7551,-253.1056 1115,-232 1063.071,-198.5398 1029.9405,-129.6896 1016.231,-96.1739"/>
<polygon fill="#191970" stroke="#191970" points="1019.3889,-94.6411 1012.4631,-86.6234 1012.8774,-97.2101 1019.3889,-94.6411"/>
</g>
<!-- Node7 -->
<g id="node8" class="node">
<title>Node7</title>
<polygon fill="#ffffff" stroke="#bfbfbf" points="792,-6 792,-25 836,-25 836,-6 792,-6"/>
<text text-anchor="middle" x="814" y="-13" font-family="Helvetica,sans-Serif" font-size="10.00" fill="#000000">vector</text>
</g>
<!-- Node0&#45;&gt;Node7 -->
<g id="edge52" class="edge">
<title>Node0&#45;&gt;Node7</title>
<path fill="none" stroke="#191970" d="M1317.7742,-275.0788C1200.0027,-268.8486 944.7963,-253.0865 911,-232 840.9237,-188.2774 821.1129,-80.1973 815.8182,-35.4225"/>
<polygon fill="#191970" stroke="#191970" points="819.2751,-34.8291 814.742,-25.253 812.314,-35.5659 819.2751,-34.8291"/>
</g>
<!-- Node9 -->
<g id="node10" class="node">
<title>Node9</title>
<polygon fill="#ffffff" stroke="#bfbfbf" points="1258,-6 1258,-25 1300,-25 1300,-6 1258,-6"/>
<text text-anchor="middle" x="1279" y="-13" font-family="Helvetica,sans-Serif" font-size="10.00" fill="#000000">locale</text>
</g>
<!-- Node0&#45;&gt;Node9 -->
<g id="edge42" class="edge">
<title>Node0&#45;&gt;Node9</title>
<path fill="none" stroke="#191970" d="M1368.9234,-268.3305C1361.7928,-259.3868 1351.5415,-245.4782 1345,-232 1311.667,-163.3204 1290.9154,-74.1934 1282.8467,-35.2091"/>
<polygon fill="#191970" stroke="#191970" points="1286.2762,-34.5097 1280.8675,-25.3995 1279.4144,-35.8942 1286.2762,-34.5097"/>
</g>
<!-- Node11 -->
<g id="node12" class="node">
<title>Node11</title>
<polygon fill="#ffffff" stroke="#bfbfbf" points="1049,-6 1049,-25 1105,-25 1105,-6 1049,-6"/>
<text text-anchor="middle" x="1077" y="-13" font-family="Helvetica,sans-Serif" font-size="10.00" fill="#000000">algorithm</text>
</g>
<!-- Node0&#45;&gt;Node11 -->
<g id="edge51" class="edge">
<title>Node0&#45;&gt;Node11</title>
<path fill="none" stroke="#191970" d="M1360.3272,-268.4833C1347.3896,-260.3194 1329.8806,-247.4445 1319,-232 1274.3993,-168.6911 1320.1306,-119.2813 1263,-67 1213.0593,-21.2983 1179.4077,-51.8414 1115,-31 1112.8519,-30.3049 1110.6535,-29.5444 1108.4499,-28.7454"/>
<polygon fill="#191970" stroke="#191970" points="1109.4878,-25.3948 1098.8977,-25.0785 1106.9791,-31.9299 1109.4878,-25.3948"/>
</g>
<!-- Node19 -->
<g id="node20" class="node">
<title>Node19</title>
<polygon fill="#ffffff" stroke="#bfbfbf" points="1134,-123.5 1134,-142.5 1184,-142.5 1184,-123.5 1134,-123.5"/>
<text text-anchor="middle" x="1159" y="-130.5" font-family="Helvetica,sans-Serif" font-size="10.00" fill="#000000">fstream</text>
</g>
<!-- Node0&#45;&gt;Node19 -->
<g id="edge39" class="edge">
<title>Node0&#45;&gt;Node19</title>
<path fill="none" stroke="#191970" d="M1317.8191,-271.9704C1265.064,-265.327 1193.2881,-252.739 1174,-232 1154.1497,-210.6565 1153.8673,-174.8023 1156.0355,-152.6015"/>
<polygon fill="#191970" stroke="#191970" points="1159.5119,-153.0071 1157.2618,-142.654 1152.5645,-152.1506 1159.5119,-153.0071"/>
</g>
<!-- Node20 -->
<g id="node21" class="node">
<title>Node20</title>
<g id="a_node21"><a xlink:href="finder_8hxx.html" target="_top" xlink:title="Finding dictionaries. ">
<polygon fill="#ffffff" stroke="#000000" points="673.5,-67.5 673.5,-86.5 732.5,-86.5 732.5,-67.5 673.5,-67.5"/>
<text text-anchor="middle" x="703" y="-74.5" font-family="Helvetica,sans-Serif" font-size="10.00" fill="#000000">finder.hxx</text>
</a>
</g>
</g>
<!-- Node0&#45;&gt;Node20 -->
<g id="edge26" class="edge">
<title>Node0&#45;&gt;Node20</title>
<path fill="none" stroke="#191970" d="M1317.9545,-277.4867C1169.7339,-275.6699 790.6568,-267.5602 747,-232 706.2578,-198.8138 701.6164,-130.8708 702.0325,-97.049"/>
<polygon fill="#191970" stroke="#191970" points="705.5436,-96.7205 702.3397,-86.6217 698.5466,-96.5143 705.5436,-96.7205"/>
</g>
<!-- Node21 -->
<g id="node22" class="node">
<title>Node21</title>
<g id="a_node22"><a xlink:href="string__utils_8hxx.html" target="_top" xlink:title="String algorithms. ">
<polygon fill="#ffffff" stroke="#000000" points="1068.5,-67.5 1068.5,-86.5 1151.5,-86.5 1151.5,-67.5 1068.5,-67.5"/>
<text text-anchor="middle" x="1110" y="-74.5" font-family="Helvetica,sans-Serif" font-size="10.00" fill="#000000">string_utils.hxx</text>
</a>
</g>
</g>
<!-- Node0&#45;&gt;Node21 -->
<g id="edge30" class="edge">
<title>Node0&#45;&gt;Node21</title>
<path fill="none" stroke="#191970" d="M1317.8905,-272.8588C1259.2915,-266.5844 1174.9068,-253.9911 1151,-232 1112.6997,-196.7688 1108.474,-130.3287 1108.9805,-97.0537"/>
<polygon fill="#191970" stroke="#191970" points="1112.4878,-96.8793 1109.3089,-86.7726 1105.4913,-96.6557 1112.4878,-96.8793"/>
</g>
<!-- Node23 -->
<g id="node24" class="node">
<title>Node23</title>
<polygon fill="#ffffff" stroke="#bfbfbf" points="1354,-196 1354,-215 1400,-215 1400,-196 1354,-196"/>
<text text-anchor="middle" x="1377" y="-203" font-family="Helvetica,sans-Serif" font-size="10.00" fill="#000000">chrono</text>
</g>
<!-- Node0&#45;&gt;Node23 -->
<g id="edge37" class="edge">
<title>Node0&#45;&gt;Node23</title>
<path fill="none" stroke="#191970" d="M1377,-268.2223C1377,-257.243 1377,-239.1397 1377,-225.197"/>
<polygon fill="#191970" stroke="#191970" points="1380.5001,-225.1227 1377,-215.1228 1373.5001,-225.1228 1380.5001,-225.1227"/>
</g>
<!-- Node24 -->
<g id="node25" class="node">
<title>Node24</title>
<polygon fill="#ffffff" stroke="#bfbfbf" points="1418.5,-196 1418.5,-215 1465.5,-215 1465.5,-196 1418.5,-196"/>
<text text-anchor="middle" x="1442" y="-203" font-family="Helvetica,sans-Serif" font-size="10.00" fill="#000000">clocale</text>
</g>
<!-- Node0&#45;&gt;Node24 -->
<g id="edge38" class="edge">
<title>Node0&#45;&gt;Node24</title>
<path fill="none" stroke="#191970" d="M1385.7662,-268.2223C1396.1945,-256.5907 1413.7912,-236.9637 1426.5268,-222.7586"/>
<polygon fill="#191970" stroke="#191970" points="1429.3032,-224.9049 1433.3727,-215.1228 1424.0912,-220.2321 1429.3032,-224.9049"/>
</g>
<!-- Node25 -->
<g id="node26" class="node">
<title>Node25</title>
<polygon fill="#ffffff" stroke="#bfbfbf" points="1484,-196 1484,-215 1534,-215 1534,-196 1484,-196"/>
<text text-anchor="middle" x="1509" y="-203" font-family="Helvetica,sans-Serif" font-size="10.00" fill="#000000">iomanip</text>
</g>
<!-- Node0&#45;&gt;Node25 -->
<g id="edge40" class="edge">
<title>Node0&#45;&gt;Node25</title>
<path fill="none" stroke="#191970" d="M1401.133,-268.4563C1421.4562,-260.0051 1450.972,-246.7469 1475,-232 1480.023,-228.9172 1485.1731,-225.2234 1489.8967,-221.5862"/>
<polygon fill="#191970" stroke="#191970" points="1492.1993,-224.2262 1497.819,-215.2446 1487.8249,-218.7614 1492.1993,-224.2262"/>
</g>
<!-- Node26 -->
<g id="node27" class="node">
<title>Node26</title>
<polygon fill="#ffffff" stroke="#bfbfbf" points="1552,-196 1552,-215 1606,-215 1606,-196 1552,-196"/>
<text text-anchor="middle" x="1579" y="-203" font-family="Helvetica,sans-Serif" font-size="10.00" fill="#000000">iostream</text>
</g>
<!-- Node0&#45;&gt;Node26 -->
<g id="edge41" class="edge">
<title>Node0&#45;&gt;Node26</title>
<path fill="none" stroke="#191970" d="M1429.9881,-268.4706C1463.493,-261.2127 1507.0932,-249.4531 1543,-232 1548.8129,-229.1745 1554.6537,-225.3829 1559.889,-221.5527"/>
<polygon fill="#191970" stroke="#191970" points="1562.2697,-224.1352 1568.0162,-215.2342 1557.9732,-218.6088 1562.2697,-224.1352"/>
</g>
<!-- Node27 -->
<g id="node28" class="node">
<title>Node27</title>
<polygon fill="#ffffff" stroke="#bfbfbf" points="1624,-196 1624,-215 1712,-215 1712,-196 1624,-196"/>
<text text-anchor="middle" x="1668" y="-203" font-family="Helvetica,sans-Serif" font-size="10.00" fill="#000000">boost/locale.hpp</text>
</g>
<!-- Node0&#45;&gt;Node27 -->
<g id="edge45" class="edge">
<title>Node0&#45;&gt;Node27</title>
<path fill="none" stroke="#191970" d="M1436.3514,-271.1061C1485.2153,-264.3514 1555.8224,-252.0905 1615,-232 1624.3426,-228.8282 1634.1237,-224.3137 1642.7034,-219.9076"/>
<polygon fill="#191970" stroke="#191970" points="1644.6184,-222.8529 1651.7924,-215.0565 1641.3223,-216.6775 1644.6184,-222.8529"/>
</g>
<!-- Node28 -->
<g id="node29" class="node">
<title>Node28</title>
<polygon fill="#ffffff" stroke="#bfbfbf" points="1730.5,-196 1730.5,-215 1849.5,-215 1849.5,-196 1730.5,-196"/>
<text text-anchor="middle" x="1790" y="-203" font-family="Helvetica,sans-Serif" font-size="10.00" fill="#000000">../hunspell/hunspell.hxx</text>
</g>
<!-- Node0&#45;&gt;Node28 -->
<g id="edge46" class="edge">
<title>Node0&#45;&gt;Node28</title>
<path fill="none" stroke="#191970" d="M1436.2294,-274.3015C1505.4186,-269.0154 1622.9157,-257.0252 1721,-232 1733.9196,-228.7037 1747.7187,-223.7176 1759.5549,-218.9564"/>
<polygon fill="#191970" stroke="#191970" points="1761.0759,-222.1147 1768.9733,-215.052 1758.3952,-215.6484 1761.0759,-222.1147"/>
</g>
<!-- Node29 -->
<g id="node30" class="node">
<title>Node29</title>
<polygon fill="#ffffff" stroke="#bfbfbf" points="1867.5,-179.5 1867.5,-231.5 2006.5,-231.5 2006.5,-179.5 1867.5,-179.5"/>
<text text-anchor="start" x="1875.5" y="-219.5" font-family="Helvetica,sans-Serif" font-size="10.00" fill="#000000">/home/sander/workspace</text>
<text text-anchor="start" x="1875.5" y="-208.5" font-family="Helvetica,sans-Serif" font-size="10.00" fill="#000000">/nuspell.github.io/tmp</text>
<text text-anchor="start" x="1875.5" y="-197.5" font-family="Helvetica,sans-Serif" font-size="10.00" fill="#000000">/nuspell&#45;master/src/hunspell</text>
<text text-anchor="middle" x="1937" y="-186.5" font-family="Helvetica,sans-Serif" font-size="10.00" fill="#000000">/hunvisapi.h</text>
</g>
<!-- Node0&#45;&gt;Node29 -->
<g id="edge47" class="edge">
<title>Node0&#45;&gt;Node29</title>
<path fill="none" stroke="#191970" d="M1436.2876,-276.7596C1525.9412,-273.9181 1701.262,-264.5919 1857.2394,-232.1789"/>
<polygon fill="#191970" stroke="#191970" points="1858.4259,-235.5054 1867.4843,-230.0103 1856.9762,-228.6571 1858.4259,-235.5054"/>
</g>
<!-- Node30 -->
<g id="node31" class="node">
<title>Node30</title>
<polygon fill="#ffffff" stroke="#bfbfbf" points="2024.5,-179.5 2024.5,-231.5 2163.5,-231.5 2163.5,-179.5 2024.5,-179.5"/>
<text text-anchor="start" x="2032.5" y="-219.5" font-family="Helvetica,sans-Serif" font-size="10.00" fill="#000000">/home/sander/workspace</text>
<text text-anchor="start" x="2032.5" y="-208.5" font-family="Helvetica,sans-Serif" font-size="10.00" fill="#000000">/nuspell.github.io/tmp</text>
<text text-anchor="start" x="2032.5" y="-197.5" font-family="Helvetica,sans-Serif" font-size="10.00" fill="#000000">/nuspell&#45;master/src/hunspell</text>
<text text-anchor="middle" x="2094" y="-186.5" font-family="Helvetica,sans-Serif" font-size="10.00" fill="#000000">/w_char.hxx</text>
</g>
<!-- Node0&#45;&gt;Node30 -->
<g id="edge48" class="edge">
<title>Node0&#45;&gt;Node30</title>
<path fill="none" stroke="#191970" d="M1436.1104,-275.6766C1568.7926,-270.1574 1887.9403,-255.1093 2013.9153,-232.1526"/>
<polygon fill="#191970" stroke="#191970" points="2014.9149,-235.5246 2024.0732,-230.1978 2013.592,-228.6507 2014.9149,-235.5246"/>
</g>
<!-- Node31 -->
<g id="node32" class="node">
<title>Node31</title>
<polygon fill="#ffffff" stroke="#bfbfbf" points="2181.5,-179.5 2181.5,-231.5 2320.5,-231.5 2320.5,-179.5 2181.5,-179.5"/>
<text text-anchor="start" x="2189.5" y="-219.5" font-family="Helvetica,sans-Serif" font-size="10.00" fill="#000000">/home/sander/workspace</text>
<text text-anchor="start" x="2189.5" y="-208.5" font-family="Helvetica,sans-Serif" font-size="10.00" fill="#000000">/nuspell.github.io/tmp</text>
<text text-anchor="start" x="2189.5" y="-197.5" font-family="Helvetica,sans-Serif" font-size="10.00" fill="#000000">/nuspell&#45;master/src/hunspell</text>
<text text-anchor="middle" x="2251" y="-186.5" font-family="Helvetica,sans-Serif" font-size="10.00" fill="#000000">/atypes.hxx</text>
</g>
<!-- Node0&#45;&gt;Node31 -->
<g id="edge49" class="edge">
<title>Node0&#45;&gt;Node31</title>
<path fill="none" stroke="#191970" d="M1436.1307,-276.6471C1592.1531,-272.7554 2013.251,-260.0858 2171.0737,-232.1111"/>
<polygon fill="#191970" stroke="#191970" points="2171.8931,-235.5188 2181.0829,-230.2463 2170.611,-228.6372 2171.8931,-235.5188"/>
</g>
<!-- Node32 -->
<g id="node33" class="node">
<title>Node32</title>
<polygon fill="#ffffff" stroke="#bfbfbf" points="2339,-196 2339,-215 2385,-215 2385,-196 2339,-196"/>
<text text-anchor="middle" x="2362" y="-203" font-family="Helvetica,sans-Serif" font-size="10.00" fill="#000000">stdio.h</text>
</g>
<!-- Node0&#45;&gt;Node32 -->
<g id="edge50" class="edge">
<title>Node0&#45;&gt;Node32</title>
<path fill="none" stroke="#191970" d="M1436.1159,-277.3154C1631.2241,-274.7568 2246.9897,-264.1913 2330,-232 2335.7164,-229.7832 2341.1646,-226.117 2345.8925,-222.2083"/>
<polygon fill="#191970" stroke="#191970" points="2348.5461,-224.5224 2353.5271,-215.1714 2343.802,-219.3752 2348.5461,-224.5224"/>
</g>
<!-- Node2 -->
<g id="node3" class="node">
<title>Node2</title>
<g id="a_node3"><a xlink:href="aff__data_8hxx.html" target="_top" xlink:title="Affixing data structures. ">
<polygon fill="#ffffff" stroke="#000000" points="884.5,-123.5 884.5,-142.5 955.5,-142.5 955.5,-123.5 884.5,-123.5"/>
<text text-anchor="middle" x="920" y="-130.5" font-family="Helvetica,sans-Serif" font-size="10.00" fill="#000000">aff_data.hxx</text>
</a>
</g>
</g>
<!-- Node1&#45;&gt;Node2 -->
<g id="edge2" class="edge">
<title>Node1&#45;&gt;Node2</title>
<path fill="none" stroke="#191970" d="M1182.2657,-196.1703C1126.73,-182.7938 1024.6784,-158.2132 965.5813,-143.9789"/>
<polygon fill="#191970" stroke="#191970" points="966.315,-140.5556 955.7734,-141.6165 964.6758,-147.361 966.315,-140.5556"/>
</g>
<!-- Node8 -->
<g id="node9" class="node">
<title>Node8</title>
<g id="a_node9"><a xlink:href="locale__utils_8hxx.html" target="_top" xlink:title="Encoding transformations. ">
<polygon fill="#ffffff" stroke="#000000" points="1170,-67.5 1170,-86.5 1254,-86.5 1254,-67.5 1170,-67.5"/>
<text text-anchor="middle" x="1212" y="-74.5" font-family="Helvetica,sans-Serif" font-size="10.00" fill="#000000">locale_utils.hxx</text>
</a>
</g>
</g>
<!-- Node1&#45;&gt;Node8 -->
<g id="edge23" class="edge">
<title>Node1&#45;&gt;Node8</title>
<path fill="none" stroke="#191970" d="M1220.3235,-195.8416C1218.8576,-174.9114 1215.3621,-125.004 1213.3991,-96.9762"/>
<polygon fill="#191970" stroke="#191970" points="1216.8745,-96.5015 1212.6843,-86.7705 1209.8916,-96.9906 1216.8745,-96.5015"/>
</g>
<!-- Node1&#45;&gt;Node9 -->
<g id="edge25" class="edge">
<title>Node1&#45;&gt;Node9</title>
<path fill="none" stroke="#191970" d="M1224.889,-195.7978C1232.8311,-175.7329 1251.1616,-128.1101 1263,-87 1267.9929,-69.6618 1272.3649,-49.5864 1275.2712,-35.1299"/>
<polygon fill="#191970" stroke="#191970" points="1278.7074,-35.7947 1277.1941,-25.3086 1271.8379,-34.4498 1278.7074,-35.7947"/>
</g>
<!-- Node1&#45;&gt;Node19 -->
<g id="edge24" class="edge">
<title>Node1&#45;&gt;Node19</title>
<path fill="none" stroke="#191970" d="M1212.6384,-195.7223C1202.6914,-184.0907 1185.9069,-164.4637 1173.7591,-150.2586"/>
<polygon fill="#191970" stroke="#191970" points="1176.3884,-147.948 1167.2291,-142.6228 1171.0684,-152.4975 1176.3884,-147.948"/>
</g>
<!-- Node3 -->
<g id="node4" class="node">
<title>Node3</title>
<polygon fill="#ffffff" stroke="#bfbfbf" points="865.5,-67.5 865.5,-86.5 910.5,-86.5 910.5,-67.5 865.5,-67.5"/>
<text text-anchor="middle" x="888" y="-74.5" font-family="Helvetica,sans-Serif" font-size="10.00" fill="#000000">iosfwd</text>
</g>
<!-- Node2&#45;&gt;Node3 -->
<g id="edge3" class="edge">
<title>Node2&#45;&gt;Node3</title>
<path fill="none" stroke="#191970" d="M914.426,-123.2455C910.0669,-115.617 903.8789,-104.7881 898.5867,-95.5267"/>
<polygon fill="#191970" stroke="#191970" points="901.5104,-93.5886 893.5101,-86.6427 895.4327,-97.0616 901.5104,-93.5886"/>
</g>
<!-- Node2&#45;&gt;Node4 -->
<g id="edge4" class="edge">
<title>Node2&#45;&gt;Node4</title>
<path fill="none" stroke="#191970" d="M920.0422,-123.1541C920.0536,-110.2506 919.9235,-86.9184 919,-67 918.5164,-56.5692 917.6452,-44.973 916.839,-35.4293"/>
<polygon fill="#191970" stroke="#191970" points="920.3161,-35.0148 915.9497,-25.3616 913.3433,-35.6308 920.3161,-35.0148"/>
</g>
<!-- Node2&#45;&gt;Node5 -->
<g id="edge5" class="edge">
<title>Node2&#45;&gt;Node5</title>
<path fill="none" stroke="#191970" d="M935.5026,-123.2455C949.158,-114.6534 969.2657,-102.0014 984.9989,-92.1018"/>
<polygon fill="#191970" stroke="#191970" points="987.0751,-94.9307 993.675,-86.6427 983.3471,-89.006 987.0751,-94.9307"/>
</g>
<!-- Node6 -->
<g id="node7" class="node">
<title>Node6</title>
<polygon fill="#ffffff" stroke="#bfbfbf" points="668,-6 668,-25 708,-25 708,-6 668,-6"/>
<text text-anchor="middle" x="688" y="-13" font-family="Helvetica,sans-Serif" font-size="10.00" fill="#000000">utility</text>
</g>
<!-- Node2&#45;&gt;Node6 -->
<g id="edge6" class="edge">
<title>Node2&#45;&gt;Node6</title>
<path fill="none" stroke="#191970" d="M884.2199,-132.0072C820.553,-129.4047 691.6659,-120.0802 664,-87 651.2199,-71.7188 662.1068,-49.3476 673.044,-33.7108"/>
<polygon fill="#191970" stroke="#191970" points="676.0923,-35.4809 679.3109,-25.3867 670.5,-31.2706 676.0923,-35.4809"/>
</g>
<!-- Node2&#45;&gt;Node7 -->
<g id="edge7" class="edge">
<title>Node2&#45;&gt;Node7</title>
<path fill="none" stroke="#191970" d="M902.7248,-123.3365C888.9041,-115.0002 869.6456,-101.9638 856,-87 841.6555,-71.2697 829.8689,-49.8552 822.4714,-34.572"/>
<polygon fill="#191970" stroke="#191970" points="825.4643,-32.7075 818.0738,-25.116 819.1172,-35.6594 825.4643,-32.7075"/>
</g>
<!-- Node2&#45;&gt;Node8 -->
<g id="edge8" class="edge">
<title>Node2&#45;&gt;Node8</title>
<path fill="none" stroke="#191970" d="M955.5365,-126.2748C1000.6294,-117.7285 1081.0777,-102.4391 1159.8794,-87.21"/>
<polygon fill="#191970" stroke="#191970" points="1160.8251,-90.5921 1169.9785,-85.2568 1159.4958,-83.7194 1160.8251,-90.5921"/>
</g>
<!-- Node10 -->
<g id="node11" class="node">
<title>Node10</title>
<g id="a_node11"><a xlink:href="structures_8hxx.html" target="_top" xlink:title="Data structures. ">
<polygon fill="#ffffff" stroke="#000000" points="537.5,-67.5 537.5,-86.5 616.5,-86.5 616.5,-67.5 537.5,-67.5"/>
<text text-anchor="middle" x="577" y="-74.5" font-family="Helvetica,sans-Serif" font-size="10.00" fill="#000000">structures.hxx</text>
</a>
</g>
</g>
<!-- Node2&#45;&gt;Node10 -->
<g id="edge11" class="edge">
<title>Node2&#45;&gt;Node10</title>
<path fill="none" stroke="#191970" d="M884.359,-127.6235C829.7516,-119.319 722.1251,-102.6871 631,-87 629.7051,-86.7771 628.3931,-86.5492 627.0696,-86.3175"/>
<polygon fill="#191970" stroke="#191970" points="627.2503,-82.7946 616.7914,-84.4865 626.0225,-89.6861 627.2503,-82.7946"/>
</g>
<!-- Node8&#45;&gt;Node4 -->
<g id="edge10" class="edge">
<title>Node8&#45;&gt;Node4</title>
<path fill="none" stroke="#191970" d="M1169.7626,-68.2539C1109.106,-55.6937 998.7781,-32.848 945.4599,-21.8074"/>
<polygon fill="#191970" stroke="#191970" points="946.09,-18.3637 935.5881,-19.7632 944.6706,-25.2182 946.09,-18.3637"/>
</g>
<!-- Node8&#45;&gt;Node9 -->
<g id="edge9" class="edge">
<title>Node8&#45;&gt;Node9</title>
<path fill="none" stroke="#191970" d="M1222.4688,-67.3906C1232.7337,-57.9683 1248.5903,-43.4134 1260.9006,-32.1137"/>
<polygon fill="#191970" stroke="#191970" points="1263.3834,-34.5856 1268.3837,-25.2449 1258.6499,-29.4287 1263.3834,-34.5856"/>
</g>
<!-- Node10&#45;&gt;Node4 -->
<g id="edge16" class="edge">
<title>Node10&#45;&gt;Node4</title>
<path fill="none" stroke="#191970" d="M616.6145,-70.8094C669.0097,-62.4825 764.1663,-46.8772 845,-31 857.8474,-28.4765 871.9551,-25.41 884.1185,-22.6726"/>
<polygon fill="#191970" stroke="#191970" points="885.2517,-26.0043 894.2264,-20.3737 883.6992,-19.1786 885.2517,-26.0043"/>
</g>
<!-- Node10&#45;&gt;Node6 -->
<g id="edge17" class="edge">
<title>Node10&#45;&gt;Node6</title>
<path fill="none" stroke="#191970" d="M594.3438,-67.3906C612.4273,-57.3713 640.9859,-41.5483 661.8165,-30.0071"/>
<polygon fill="#191970" stroke="#191970" points="663.7271,-32.9498 670.778,-25.0419 660.3346,-26.8268 663.7271,-32.9498"/>
</g>
<!-- Node10&#45;&gt;Node7 -->
<g id="edge18" class="edge">
<title>Node10&#45;&gt;Node7</title>
<path fill="none" stroke="#191970" d="M616.6686,-70.8923C658.523,-63.8061 726.0402,-50.5374 782,-31 783.6027,-30.4404 785.2303,-29.8222 786.859,-29.1645"/>
<polygon fill="#191970" stroke="#191970" points="788.3099,-32.3498 796.033,-25.0969 785.4726,-25.9506 788.3099,-32.3498"/>
</g>
<!-- Node10&#45;&gt;Node11 -->
<g id="edge12" class="edge">
<title>Node10&#45;&gt;Node11</title>
<path fill="none" stroke="#191970" d="M616.6521,-72.1228C710.73,-60.5512 946.4546,-31.5571 1038.9259,-20.1831"/>
<polygon fill="#191970" stroke="#191970" points="1039.4648,-23.6433 1048.9627,-18.9486 1038.6102,-16.6957 1039.4648,-23.6433"/>
</g>
<!-- Node12 -->
<g id="node13" class="node">
<title>Node12</title>
<polygon fill="#ffffff" stroke="#bfbfbf" points="0,-6 0,-25 44,-25 44,-6 0,-6"/>
<text text-anchor="middle" x="22" y="-13" font-family="Helvetica,sans-Serif" font-size="10.00" fill="#000000">cmath</text>
</g>
<!-- Node10&#45;&gt;Node12 -->
<g id="edge13" class="edge">
<title>Node10&#45;&gt;Node12</title>
<path fill="none" stroke="#191970" d="M537.1375,-75.4326C431.1132,-70.9566 144.0612,-56.7522 53,-31 51.2883,-30.5159 49.5585,-29.937 47.8377,-29.2915"/>
<polygon fill="#191970" stroke="#191970" points="48.8292,-25.9032 38.2676,-25.0646 46.001,-32.3065 48.8292,-25.9032"/>
</g>
<!-- Node13 -->
<g id="node14" class="node">
<title>Node13</title>
<polygon fill="#ffffff" stroke="#bfbfbf" points="726.5,-6 726.5,-25 773.5,-25 773.5,-6 726.5,-6"/>
<text text-anchor="middle" x="750" y="-13" font-family="Helvetica,sans-Serif" font-size="10.00" fill="#000000">iterator</text>
</g>
<!-- Node10&#45;&gt;Node13 -->
<g id="edge14" class="edge">
<title>Node10&#45;&gt;Node13</title>
<path fill="none" stroke="#191970" d="M609.9336,-67.4187C638.5623,-58.7972 680.9807,-45.315 717,-31 718.397,-30.4448 719.8188,-29.8592 721.2489,-29.2536"/>
<polygon fill="#191970" stroke="#191970" points="722.9167,-32.3424 730.6288,-25.0778 720.0697,-25.9474 722.9167,-32.3424"/>
</g>
<!-- Node14 -->
<g id="node15" class="node">
<title>Node14</title>
<polygon fill="#ffffff" stroke="#bfbfbf" points="62.5,-6 62.5,-25 121.5,-25 121.5,-6 62.5,-6"/>
<text text-anchor="middle" x="92" y="-13" font-family="Helvetica,sans-Serif" font-size="10.00" fill="#000000">stdexcept</text>
</g>
<!-- Node10&#45;&gt;Node14 -->
<g id="edge15" class="edge">
<title>Node10&#45;&gt;Node14</title>
<path fill="none" stroke="#191970" d="M537.4331,-74.3216C443.2174,-67.7181 207.7343,-49.8217 131,-31 128.2137,-30.3166 125.362,-29.4767 122.5307,-28.5447"/>
<polygon fill="#191970" stroke="#191970" points="123.703,-25.2468 113.109,-25.1142 121.3081,-31.8243 123.703,-25.2468"/>
</g>
<!-- Node15 -->
<g id="node16" class="node">
<title>Node15</title>
<polygon fill="#ffffff" stroke="#bfbfbf" points="140,-.5 140,-30.5 250,-30.5 250,-.5 140,-.5"/>
<text text-anchor="start" x="148" y="-18.5" font-family="Helvetica,sans-Serif" font-size="10.00" fill="#000000">boost/container/small</text>
<text text-anchor="middle" x="195" y="-7.5" font-family="Helvetica,sans-Serif" font-size="10.00" fill="#000000">_vector.hpp</text>
</g>
<!-- Node10&#45;&gt;Node15 -->
<g id="edge19" class="edge">
<title>Node10&#45;&gt;Node15</title>
<path fill="none" stroke="#191970" d="M537.3876,-72.484C478.8594,-65.5464 365.6694,-51.1189 259.9624,-31.0819"/>
<polygon fill="#191970" stroke="#191970" points="260.5662,-27.634 250.0861,-29.189 259.2485,-34.5088 260.5662,-27.634"/>
</g>
<!-- Node16 -->
<g id="node17" class="node">
<title>Node16</title>
<polygon fill="#ffffff" stroke="#bfbfbf" points="268,-6 268,-25 418,-25 418,-6 268,-6"/>
<text text-anchor="middle" x="343" y="-13" font-family="Helvetica,sans-Serif" font-size="10.00" fill="#000000">boost/multi_index/member.hpp</text>
</g>
<!-- Node10&#45;&gt;Node16 -->
<g id="edge20" class="edge">
<title>Node10&#45;&gt;Node16</title>
<path fill="none" stroke="#191970" d="M540.6942,-67.4581C499.8781,-56.7308 433.5162,-39.2895 389.077,-27.61"/>
<polygon fill="#191970" stroke="#191970" points="389.9522,-24.2212 379.3909,-25.0643 388.1728,-30.9913 389.9522,-24.2212"/>
</g>
<!-- Node17 -->
<g id="node18" class="node">
<title>Node17</title>
<polygon fill="#ffffff" stroke="#bfbfbf" points="436.5,-.5 436.5,-30.5 537.5,-30.5 537.5,-.5 436.5,-.5"/>
<text text-anchor="start" x="444.5" y="-18.5" font-family="Helvetica,sans-Serif" font-size="10.00" fill="#000000">boost/range/iterator</text>
<text text-anchor="middle" x="487" y="-7.5" font-family="Helvetica,sans-Serif" font-size="10.00" fill="#000000">_range_core.hpp</text>
</g>
<!-- Node10&#45;&gt;Node17 -->
<g id="edge21" class="edge">
<title>Node10&#45;&gt;Node17</title>
<path fill="none" stroke="#191970" d="M562.9375,-67.3906C550.7571,-59.0673 532.7155,-46.7389 517.2739,-36.1872"/>
<polygon fill="#191970" stroke="#191970" points="519.2476,-33.2968 509.0165,-30.5446 515.2983,-39.0763 519.2476,-33.2968"/>
</g>
<!-- Node18 -->
<g id="node19" class="node">
<title>Node18</title>
<polygon fill="#ffffff" stroke="#bfbfbf" points="556,-.5 556,-30.5 650,-30.5 650,-.5 556,-.5"/>
<text text-anchor="start" x="564" y="-18.5" font-family="Helvetica,sans-Serif" font-size="10.00" fill="#000000">boost/utility/string</text>
<text text-anchor="middle" x="603" y="-7.5" font-family="Helvetica,sans-Serif" font-size="10.00" fill="#000000">_view.hpp</text>
</g>
<!-- Node10&#45;&gt;Node18 -->
<g id="edge22" class="edge">
<title>Node10&#45;&gt;Node18</title>
<path fill="none" stroke="#191970" d="M581.0625,-67.3906C584.1903,-59.9922 588.656,-49.4291 592.7428,-39.7623"/>
<polygon fill="#191970" stroke="#191970" points="595.9694,-41.1182 596.6397,-30.5446 589.5219,-38.3924 595.9694,-41.1182"/>
</g>
<!-- Node20&#45;&gt;Node4 -->
<g id="edge27" class="edge">
<title>Node20&#45;&gt;Node4</title>
<path fill="none" stroke="#191970" d="M732.9248,-68.319C773.1385,-56.6532 844.227,-36.0308 884.6547,-24.303"/>
<polygon fill="#191970" stroke="#191970" points="885.8457,-27.6019 894.4746,-21.4543 883.8954,-20.879 885.8457,-27.6019"/>
</g>
<!-- Node20&#45;&gt;Node6 -->
<g id="edge28" class="edge">
<title>Node20&#45;&gt;Node6</title>
<path fill="none" stroke="#191970" d="M700.6563,-67.3906C698.5551,-58.776 695.4075,-45.8708 692.777,-35.0858"/>
<polygon fill="#191970" stroke="#191970" points="696.1468,-34.1307 690.3768,-25.2449 689.3461,-35.7894 696.1468,-34.1307"/>
</g>
<!-- Node20&#45;&gt;Node7 -->
<g id="edge29" class="edge">
<title>Node20&#45;&gt;Node7</title>
<path fill="none" stroke="#191970" d="M720.3438,-67.3906C738.4273,-57.3713 766.9859,-41.5483 787.8165,-30.0071"/>
<polygon fill="#191970" stroke="#191970" points="789.7271,-32.9498 796.778,-25.0419 786.3346,-26.8268 789.7271,-32.9498"/>
</g>
<!-- Node21&#45;&gt;Node4 -->
<g id="edge35" class="edge">
<title>Node21&#45;&gt;Node4</title>
<path fill="none" stroke="#191970" d="M1079.5313,-67.3906C1042.9124,-55.8416 981.8434,-36.5814 945.2999,-25.0561"/>
<polygon fill="#191970" stroke="#191970" points="946.2735,-21.6933 935.6838,-22.0234 944.168,-28.3692 946.2735,-21.6933"/>
</g>
<!-- Node21&#45;&gt;Node7 -->
<g id="edge36" class="edge">
<title>Node21&#45;&gt;Node7</title>
<path fill="none" stroke="#191970" d="M1068.4964,-68.6864C1023.3215,-59.5974 948.9742,-44.5221 885,-31 872.1738,-28.289 858.0629,-25.2252 845.8231,-22.5416"/>
<polygon fill="#191970" stroke="#191970" points="846.5694,-19.1221 836.051,-20.3929 845.0661,-25.9588 846.5694,-19.1221"/>
</g>
<!-- Node21&#45;&gt;Node9 -->
<g id="edge33" class="edge">
<title>Node21&#45;&gt;Node9</title>
<path fill="none" stroke="#191970" d="M1136.4063,-67.3906C1166.6467,-56.386 1216.1269,-38.3799 1248.1245,-26.7358"/>
<polygon fill="#191970" stroke="#191970" points="1249.6523,-29.9044 1257.8525,-23.1957 1247.2585,-23.3264 1249.6523,-29.9044"/>
</g>
<!-- Node21&#45;&gt;Node11 -->
<g id="edge31" class="edge">
<title>Node21&#45;&gt;Node11</title>
<path fill="none" stroke="#191970" d="M1104.8438,-67.3906C1100.0768,-58.5068 1092.8615,-45.0601 1086.9703,-34.0811"/>
<polygon fill="#191970" stroke="#191970" points="1090.0412,-32.4016 1082.2289,-25.2449 1083.8731,-35.7114 1090.0412,-32.4016"/>
</g>
<!-- Node21&#45;&gt;Node13 -->
<g id="edge32" class="edge">
<title>Node21&#45;&gt;Node13</title>
<path fill="none" stroke="#191970" d="M1068.2905,-68.5963C1065.1508,-68.0328 1062.0277,-67.4938 1059,-67 936.9072,-47.0884 901.7362,-65.7105 783,-31 781.0863,-30.4405 779.1438,-29.7841 777.2088,-29.063"/>
<polygon fill="#191970" stroke="#191970" points="778.3351,-25.7393 767.7615,-25.0683 775.6089,-32.1866 778.3351,-25.7393"/>
</g>
<!-- Node22 -->
<g id="node23" class="node">
<title>Node22</title>
<polygon fill="#ffffff" stroke="#bfbfbf" points="1123.5,-6 1123.5,-25 1164.5,-25 1164.5,-6 1123.5,-6"/>
<text text-anchor="middle" x="1144" y="-13" font-family="Helvetica,sans-Serif" font-size="10.00" fill="#000000">stack</text>
</g>
<!-- Node21&#45;&gt;Node22 -->
<g id="edge34" class="edge">
<title>Node21&#45;&gt;Node22</title>
<path fill="none" stroke="#191970" d="M1115.3125,-67.3906C1120.2239,-58.5068 1127.6579,-45.0601 1133.7275,-34.0811"/>
<polygon fill="#191970" stroke="#191970" points="1136.8373,-35.6899 1138.6126,-25.2449 1130.7112,-32.3031 1136.8373,-35.6899"/>
</g>
</g>
</svg>
