<?xml version="1.0" encoding="UTF-8" standalone="no"?>
<!DOCTYPE svg PUBLIC "-//W3C//DTD SVG 1.1//EN"
 "http://www.w3.org/Graphics/SVG/1.1/DTD/svg11.dtd">
<!-- Generated by graphviz version 2.40.1 (20161225.0304)
 -->
<!-- Title: src/nuspell/regress.cxx Pages: 1 -->
<svg width="2642pt" height="352pt"
 viewBox="0.00 0.00 2642.00 352.00" xmlns="http://www.w3.org/2000/svg" xmlns:xlink="http://www.w3.org/1999/xlink">
<g id="graph0" class="graph" transform="scale(1 1) rotate(0) translate(4 348)">
<title>src/nuspell/regress.cxx</title>
<polygon fill="#ffffff" stroke="transparent" points="-4,4 -4,-348 2638,-348 2638,4 -4,4"/>
<!-- Node0 -->
<g id="node1" class="node">
<title>Node0</title>
<polygon fill="#bfbfbf" stroke="#000000" points="1606,-324.5 1606,-343.5 1724,-343.5 1724,-324.5 1606,-324.5"/>
<text text-anchor="middle" x="1665" y="-331.5" font-family="Helvetica,sans-Serif" font-size="10.00" fill="#000000">src/nuspell/regress.cxx</text>
</g>
<!-- Node1 -->
<g id="node2" class="node">
<title>Node1</title>
<g id="a_node2"><a xlink:href="dictionary_8hxx.html" target="_top" xlink:title="Dictionary spelling. ">
<polygon fill="#ffffff" stroke="#000000" points="1342.5,-252 1342.5,-271 1419.5,-271 1419.5,-252 1342.5,-252"/>
<text text-anchor="middle" x="1381" y="-259" font-family="Helvetica,sans-Serif" font-size="10.00" fill="#000000">dictionary.hxx</text>
</a>
</g>
</g>
<!-- Node0&#45;&gt;Node1 -->
<g id="edge1" class="edge">
<title>Node0&#45;&gt;Node1</title>
<path fill="none" stroke="#191970" d="M1605.7688,-326.463C1558.6556,-319.4474 1491.4993,-307.1509 1435,-288 1425.4126,-284.7503 1415.3431,-280.1619 1406.5314,-275.7147"/>
<polygon fill="#191970" stroke="#191970" points="1408.029,-272.5482 1397.5458,-271.0144 1404.7844,-278.7509 1408.029,-272.5482"/>
</g>
<!-- Node4 -->
<g id="node5" class="node">
<title>Node4</title>
<polygon fill="#ffffff" stroke="#bfbfbf" points="189.5,-.5 189.5,-19.5 230.5,-19.5 230.5,-.5 189.5,-.5"/>
<text text-anchor="middle" x="210" y="-7.5" font-family="Helvetica,sans-Serif" font-size="10.00" fill="#000000">string</text>
</g>
<!-- Node0&#45;&gt;Node4 -->
<g id="edge48" class="edge">
<title>Node0&#45;&gt;Node4</title>
<path fill="none" stroke="#191970" d="M1605.7418,-332.009C1309.1398,-321.6625 0,-271.3319 0,-189 0,-189 0,-189 0,-133 0,-92.6729 15.7751,-80.2451 48,-56 87.0634,-26.6098 144.2066,-15.9882 179.1484,-12.1558"/>
<polygon fill="#191970" stroke="#191970" points="179.6224,-15.6262 189.235,-11.1711 178.9423,-8.6594 179.6224,-15.6262"/>
</g>
<!-- Node5 -->
<g id="node6" class="node">
<title>Node5</title>
<polygon fill="#ffffff" stroke="#bfbfbf" points="1278.5,-123.5 1278.5,-142.5 1361.5,-142.5 1361.5,-123.5 1278.5,-123.5"/>
<text text-anchor="middle" x="1320" y="-130.5" font-family="Helvetica,sans-Serif" font-size="10.00" fill="#000000">unordered_map</text>
</g>
<!-- Node0&#45;&gt;Node5 -->
<g id="edge49" class="edge">
<title>Node0&#45;&gt;Node5</title>
<path fill="none" stroke="#191970" d="M1617.1374,-324.4933C1577.9842,-315.8687 1526.6224,-302.3408 1511,-288 1472.6355,-252.7826 1506.1688,-214.4294 1468,-179 1453.7596,-165.7816 1408.4837,-152.8374 1371.7217,-144.0649"/>
<polygon fill="#191970" stroke="#191970" points="1372.1454,-140.5698 1361.6115,-141.7045 1370.5539,-147.3865 1372.1454,-140.5698"/>
</g>
<!-- Node7 -->
<g id="node8" class="node">
<title>Node7</title>
<polygon fill="#ffffff" stroke="#bfbfbf" points="1024,-.5 1024,-19.5 1068,-19.5 1068,-.5 1024,-.5"/>
<text text-anchor="middle" x="1046" y="-7.5" font-family="Helvetica,sans-Serif" font-size="10.00" fill="#000000">vector</text>
</g>
<!-- Node0&#45;&gt;Node7 -->
<g id="edge57" class="edge">
<title>Node0&#45;&gt;Node7</title>
<path fill="none" stroke="#191970" d="M1663.7388,-324.4748C1657.2903,-275.8118 1628.2587,-57.1891 1627,-56 1586.9241,-18.1397 1193.9769,-11.4035 1078.0406,-10.2374"/>
<polygon fill="#191970" stroke="#191970" points="1078.0439,-6.7374 1068.0116,-10.1437 1077.9784,-13.7371 1078.0439,-6.7374"/>
</g>
<!-- Node9 -->
<g id="node10" class="node">
<title>Node9</title>
<polygon fill="#ffffff" stroke="#bfbfbf" points="1387,-62 1387,-81 1429,-81 1429,-62 1387,-62"/>
<text text-anchor="middle" x="1408" y="-69" font-family="Helvetica,sans-Serif" font-size="10.00" fill="#000000">locale</text>
</g>
<!-- Node0&#45;&gt;Node9 -->
<g id="edge47" class="edge">
<title>Node0&#45;&gt;Node9</title>
<path fill="none" stroke="#191970" d="M1628.8031,-324.4339C1606.5419,-317.187 1578.4605,-305.4528 1558,-288 1514.3788,-250.7912 1521.6119,-226.1569 1489,-179 1466.5537,-146.5426 1438.4735,-110.1275 1421.9602,-89.1005"/>
<polygon fill="#191970" stroke="#191970" points="1424.5818,-86.7725 1415.6414,-81.0874 1419.0851,-91.107 1424.5818,-86.7725"/>
</g>
<!-- Node15 -->
<g id="node16" class="node">
<title>Node15</title>
<polygon fill="#ffffff" stroke="#bfbfbf" points="1447,-62 1447,-81 1503,-81 1503,-62 1447,-62"/>
<text text-anchor="middle" x="1475" y="-69" font-family="Helvetica,sans-Serif" font-size="10.00" fill="#000000">algorithm</text>
</g>
<!-- Node0&#45;&gt;Node15 -->
<g id="edge56" class="edge">
<title>Node0&#45;&gt;Node15</title>
<path fill="none" stroke="#191970" d="M1654.2747,-324.4378C1645.1989,-315.7776 1632.5044,-302.2287 1625,-288 1589.6467,-220.969 1630.1551,-181.5158 1582,-123 1564.4621,-101.6887 1536.0051,-88.5829 1512.8455,-80.9285"/>
<polygon fill="#191970" stroke="#191970" points="1513.8793,-77.5847 1503.2916,-77.9738 1511.811,-84.2722 1513.8793,-77.5847"/>
</g>
<!-- Node23 -->
<g id="node24" class="node">
<title>Node23</title>
<polygon fill="#ffffff" stroke="#bfbfbf" points="1409,-179.5 1409,-198.5 1459,-198.5 1459,-179.5 1409,-179.5"/>
<text text-anchor="middle" x="1434" y="-186.5" font-family="Helvetica,sans-Serif" font-size="10.00" fill="#000000">fstream</text>
</g>
<!-- Node0&#45;&gt;Node23 -->
<g id="edge44" class="edge">
<title>Node0&#45;&gt;Node23</title>
<path fill="none" stroke="#191970" d="M1605.9005,-325.9287C1557.0865,-318.1845 1492.7293,-305.1419 1473,-288 1449.4992,-267.5813 1440.0385,-231.1424 1436.317,-208.6248"/>
<polygon fill="#191970" stroke="#191970" points="1439.7571,-207.9549 1434.8822,-198.5482 1432.827,-208.9418 1439.7571,-207.9549"/>
</g>
<!-- Node24 -->
<g id="node25" class="node">
<title>Node24</title>
<g id="a_node25"><a xlink:href="finder_8hxx.html" target="_top" xlink:title="Finding dictionaries. ">
<polygon fill="#ffffff" stroke="#000000" points="28.5,-123.5 28.5,-142.5 87.5,-142.5 87.5,-123.5 28.5,-123.5"/>
<text text-anchor="middle" x="58" y="-130.5" font-family="Helvetica,sans-Serif" font-size="10.00" fill="#000000">finder.hxx</text>
</a>
</g>
</g>
<!-- Node0&#45;&gt;Node24 -->
<g id="edge32" class="edge">
<title>Node0&#45;&gt;Node24</title>
<path fill="none" stroke="#191970" d="M1605.9002,-326.6079C1346.6936,-294.1869 313.6997,-164.9824 97.7168,-137.9677"/>
<polygon fill="#191970" stroke="#191970" points="98.1267,-134.4918 87.7696,-136.7235 97.2579,-141.4377 98.1267,-134.4918"/>
</g>
<!-- Node25 -->
<g id="node26" class="node">
<title>Node25</title>
<g id="a_node26"><a xlink:href="string__utils_8hxx.html" target="_top" xlink:title="String algorithms. ">
<polygon fill="#ffffff" stroke="#000000" points="1489.5,-123.5 1489.5,-142.5 1572.5,-142.5 1572.5,-123.5 1489.5,-123.5"/>
<text text-anchor="middle" x="1531" y="-130.5" font-family="Helvetica,sans-Serif" font-size="10.00" fill="#000000">string_utils.hxx</text>
</a>
</g>
</g>
<!-- Node0&#45;&gt;Node25 -->
<g id="edge36" class="edge">
<title>Node0&#45;&gt;Node25</title>
<path fill="none" stroke="#191970" d="M1639.7559,-324.4983C1622.7458,-316.9371 1600.949,-304.8212 1587,-288 1569.3724,-266.7428 1546.4889,-189.4161 1536.2981,-152.6618"/>
<polygon fill="#191970" stroke="#191970" points="1539.5779,-151.3866 1533.5628,-142.6648 1532.8261,-153.234 1539.5779,-151.3866"/>
</g>
<!-- Node27 -->
<g id="node28" class="node">
<title>Node27</title>
<polygon fill="#ffffff" stroke="#bfbfbf" points="1667.5,-252 1667.5,-271 1714.5,-271 1714.5,-252 1667.5,-252"/>
<text text-anchor="middle" x="1691" y="-259" font-family="Helvetica,sans-Serif" font-size="10.00" fill="#000000">clocale</text>
</g>
<!-- Node0&#45;&gt;Node27 -->
<g id="edge43" class="edge">
<title>Node0&#45;&gt;Node27</title>
<path fill="none" stroke="#191970" d="M1668.5065,-324.2223C1672.4829,-313.1343 1679.0649,-294.7806 1684.0843,-280.7841"/>
<polygon fill="#191970" stroke="#191970" points="1687.4679,-281.7173 1687.5491,-271.1228 1680.8788,-279.3543 1687.4679,-281.7173"/>
</g>
<!-- Node28 -->
<g id="node29" class="node">
<title>Node28</title>
<polygon fill="#ffffff" stroke="#bfbfbf" points="1733,-252 1733,-271 1783,-271 1783,-252 1733,-252"/>
<text text-anchor="middle" x="1758" y="-259" font-family="Helvetica,sans-Serif" font-size="10.00" fill="#000000">iomanip</text>
</g>
<!-- Node0&#45;&gt;Node28 -->
<g id="edge45" class="edge">
<title>Node0&#45;&gt;Node28</title>
<path fill="none" stroke="#191970" d="M1677.5424,-324.2223C1692.8812,-312.2646 1719.0595,-291.8569 1737.3773,-277.5768"/>
<polygon fill="#191970" stroke="#191970" points="1739.9215,-280.0313 1745.6563,-271.1228 1735.6177,-274.5107 1739.9215,-280.0313"/>
</g>
<!-- Node29 -->
<g id="node30" class="node">
<title>Node29</title>
<polygon fill="#ffffff" stroke="#bfbfbf" points="1801,-252 1801,-271 1855,-271 1855,-252 1801,-252"/>
<text text-anchor="middle" x="1828" y="-259" font-family="Helvetica,sans-Serif" font-size="10.00" fill="#000000">iostream</text>
</g>
<!-- Node0&#45;&gt;Node29 -->
<g id="edge46" class="edge">
<title>Node0&#45;&gt;Node29</title>
<path fill="none" stroke="#191970" d="M1699.5563,-324.4333C1725.76,-316.4873 1762.2213,-303.923 1792,-288 1797.6119,-284.9993 1803.3223,-281.202 1808.4923,-277.4263"/>
<polygon fill="#191970" stroke="#191970" points="1810.761,-280.0973 1816.57,-271.2369 1806.5035,-274.5408 1810.761,-280.0973"/>
</g>
<!-- Node30 -->
<g id="node31" class="node">
<title>Node30</title>
<polygon fill="#ffffff" stroke="#bfbfbf" points="1873,-252 1873,-271 1961,-271 1961,-252 1873,-252"/>
<text text-anchor="middle" x="1917" y="-259" font-family="Helvetica,sans-Serif" font-size="10.00" fill="#000000">boost/locale.hpp</text>
</g>
<!-- Node0&#45;&gt;Node30 -->
<g id="edge50" class="edge">
<title>Node0&#45;&gt;Node30</title>
<path fill="none" stroke="#191970" d="M1722.2093,-324.4967C1762.5461,-316.9027 1817.4554,-304.7482 1864,-288 1873.1429,-284.7101 1882.754,-280.2404 1891.2432,-275.9094"/>
<polygon fill="#191970" stroke="#191970" points="1893.0551,-278.9108 1900.2663,-271.1487 1889.7885,-272.7196 1893.0551,-278.9108"/>
</g>
<!-- Node31 -->
<g id="node32" class="node">
<title>Node31</title>
<polygon fill="#ffffff" stroke="#bfbfbf" points="1979.5,-252 1979.5,-271 2098.5,-271 2098.5,-252 1979.5,-252"/>
<text text-anchor="middle" x="2039" y="-259" font-family="Helvetica,sans-Serif" font-size="10.00" fill="#000000">../hunspell/hunspell.hxx</text>
</g>
<!-- Node0&#45;&gt;Node31 -->
<g id="edge51" class="edge">
<title>Node0&#45;&gt;Node31</title>
<path fill="none" stroke="#191970" d="M1724.2412,-328.9079C1786.2659,-322.6874 1886.1241,-310.1503 1970,-288 1982.7946,-284.6211 1996.478,-279.6643 2008.2578,-274.949"/>
<polygon fill="#191970" stroke="#191970" points="2009.7292,-278.1283 2017.6438,-271.085 2007.0643,-271.6554 2009.7292,-278.1283"/>
</g>
<!-- Node32 -->
<g id="node33" class="node">
<title>Node32</title>
<polygon fill="#ffffff" stroke="#bfbfbf" points="2116.5,-235.5 2116.5,-287.5 2255.5,-287.5 2255.5,-235.5 2116.5,-235.5"/>
<text text-anchor="start" x="2124.5" y="-275.5" font-family="Helvetica,sans-Serif" font-size="10.00" fill="#000000">/home/sander/workspace</text>
<text text-anchor="start" x="2124.5" y="-264.5" font-family="Helvetica,sans-Serif" font-size="10.00" fill="#000000">/nuspell.github.io/tmp</text>
<text text-anchor="start" x="2124.5" y="-253.5" font-family="Helvetica,sans-Serif" font-size="10.00" fill="#000000">/nuspell&#45;master/src/hunspell</text>
<text text-anchor="middle" x="2186" y="-242.5" font-family="Helvetica,sans-Serif" font-size="10.00" fill="#000000">/hunvisapi.h</text>
</g>
<!-- Node0&#45;&gt;Node32 -->
<g id="edge52" class="edge">
<title>Node0&#45;&gt;Node32</title>
<path fill="none" stroke="#191970" d="M1724.0696,-332.0667C1807.6187,-328.4106 1965.0065,-318.1335 2106.3315,-288.1721"/>
<polygon fill="#191970" stroke="#191970" points="2107.4422,-291.513 2116.4779,-285.9807 2105.9643,-284.6708 2107.4422,-291.513"/>
</g>
<!-- Node33 -->
<g id="node34" class="node">
<title>Node33</title>
<polygon fill="#ffffff" stroke="#bfbfbf" points="2273.5,-235.5 2273.5,-287.5 2412.5,-287.5 2412.5,-235.5 2273.5,-235.5"/>
<text text-anchor="start" x="2281.5" y="-275.5" font-family="Helvetica,sans-Serif" font-size="10.00" fill="#000000">/home/sander/workspace</text>
<text text-anchor="start" x="2281.5" y="-264.5" font-family="Helvetica,sans-Serif" font-size="10.00" fill="#000000">/nuspell.github.io/tmp</text>
<text text-anchor="start" x="2281.5" y="-253.5" font-family="Helvetica,sans-Serif" font-size="10.00" fill="#000000">/nuspell&#45;master/src/hunspell</text>
<text text-anchor="middle" x="2343" y="-242.5" font-family="Helvetica,sans-Serif" font-size="10.00" fill="#000000">/w_char.hxx</text>
</g>
<!-- Node0&#45;&gt;Node33 -->
<g id="edge53" class="edge">
<title>Node0&#45;&gt;Node33</title>
<path fill="none" stroke="#191970" d="M1724.3681,-331.3456C1851.0897,-325.38 2145.4773,-309.8488 2263.6253,-288.003"/>
<polygon fill="#191970" stroke="#191970" points="2264.3535,-291.427 2273.4982,-286.0768 2263.013,-284.5565 2264.3535,-291.427"/>
</g>
<!-- Node34 -->
<g id="node35" class="node">
<title>Node34</title>
<polygon fill="#ffffff" stroke="#bfbfbf" points="2430.5,-235.5 2430.5,-287.5 2569.5,-287.5 2569.5,-235.5 2430.5,-235.5"/>
<text text-anchor="start" x="2438.5" y="-275.5" font-family="Helvetica,sans-Serif" font-size="10.00" fill="#000000">/home/sander/workspace</text>
<text text-anchor="start" x="2438.5" y="-264.5" font-family="Helvetica,sans-Serif" font-size="10.00" fill="#000000">/nuspell.github.io/tmp</text>
<text text-anchor="start" x="2438.5" y="-253.5" font-family="Helvetica,sans-Serif" font-size="10.00" fill="#000000">/nuspell&#45;master/src/hunspell</text>
<text text-anchor="middle" x="2500" y="-242.5" font-family="Helvetica,sans-Serif" font-size="10.00" fill="#000000">/atypes.hxx</text>
</g>
<!-- Node0&#45;&gt;Node34 -->
<g id="edge54" class="edge">
<title>Node0&#45;&gt;Node34</title>
<path fill="none" stroke="#191970" d="M1724.0009,-332.4467C1874.4024,-328.1694 2270.2856,-314.839 2420.1464,-288.1005"/>
<polygon fill="#191970" stroke="#191970" points="2420.8981,-291.5206 2430.0809,-286.2361 2419.6069,-284.6407 2420.8981,-291.5206"/>
</g>
<!-- Node35 -->
<g id="node36" class="node">
<title>Node35</title>
<polygon fill="#ffffff" stroke="#bfbfbf" points="2588,-252 2588,-271 2634,-271 2634,-252 2588,-252"/>
<text text-anchor="middle" x="2611" y="-259" font-family="Helvetica,sans-Serif" font-size="10.00" fill="#000000">stdio.h</text>
</g>
<!-- Node0&#45;&gt;Node35 -->
<g id="edge55" class="edge">
<title>Node0&#45;&gt;Node35</title>
<path fill="none" stroke="#191970" d="M1724.0032,-333.1852C1913.6266,-330.2689 2499.7344,-318.8328 2579,-288 2584.7142,-285.7773 2590.1616,-282.1091 2594.8895,-278.2004"/>
<polygon fill="#191970" stroke="#191970" points="2597.5422,-280.5154 2602.5247,-271.1652 2592.7989,-275.3675 2597.5422,-280.5154"/>
</g>
<!-- Node2 -->
<g id="node3" class="node">
<title>Node2</title>
<g id="a_node3"><a xlink:href="aff__data_8hxx.html" target="_top" xlink:title="Affixing data structures. ">
<polygon fill="#ffffff" stroke="#000000" points="1074.5,-179.5 1074.5,-198.5 1145.5,-198.5 1145.5,-179.5 1074.5,-179.5"/>
<text text-anchor="middle" x="1110" y="-186.5" font-family="Helvetica,sans-Serif" font-size="10.00" fill="#000000">aff_data.hxx</text>
</a>
</g>
</g>
<!-- Node1&#45;&gt;Node2 -->
<g id="edge2" class="edge">
<title>Node1&#45;&gt;Node2</title>
<path fill="none" stroke="#191970" d="M1345.2928,-251.9473C1296.5489,-238.907 1209.1432,-215.5235 1155.6807,-201.2208"/>
<polygon fill="#191970" stroke="#191970" points="1156.3511,-197.7772 1145.7863,-198.5738 1154.542,-204.5394 1156.3511,-197.7772"/>
</g>
<!-- Node8 -->
<g id="node9" class="node">
<title>Node8</title>
<g id="a_node9"><a xlink:href="locale__utils_8hxx.html" target="_top" xlink:title="Encoding transformations. ">
<polygon fill="#ffffff" stroke="#000000" points="1176,-123.5 1176,-142.5 1260,-142.5 1260,-123.5 1176,-123.5"/>
<text text-anchor="middle" x="1218" y="-130.5" font-family="Helvetica,sans-Serif" font-size="10.00" fill="#000000">locale_utils.hxx</text>
</a>
</g>
</g>
<!-- Node1&#45;&gt;Node8 -->
<g id="edge29" class="edge">
<title>Node1&#45;&gt;Node8</title>
<path fill="none" stroke="#191970" d="M1368.7485,-251.8416C1340.9009,-229.8881 1272.6143,-176.0549 1238.3317,-149.0283"/>
<polygon fill="#191970" stroke="#191970" points="1240.4137,-146.2129 1230.3937,-142.7705 1236.08,-151.7101 1240.4137,-146.2129"/>
</g>
<!-- Node1&#45;&gt;Node9 -->
<g id="edge31" class="edge">
<title>Node1&#45;&gt;Node9</title>
<path fill="none" stroke="#191970" d="M1382.3761,-251.8167C1386.5998,-222.0938 1399.4393,-131.742 1405.1773,-91.3634"/>
<polygon fill="#191970" stroke="#191970" points="1408.6525,-91.7847 1406.5943,-81.3917 1401.7221,-90.7998 1408.6525,-91.7847"/>
</g>
<!-- Node1&#45;&gt;Node23 -->
<g id="edge30" class="edge">
<title>Node1&#45;&gt;Node23</title>
<path fill="none" stroke="#191970" d="M1388.1478,-251.7223C1396.492,-240.3082 1410.4646,-221.1946 1420.797,-207.0607"/>
<polygon fill="#191970" stroke="#191970" points="1423.8893,-208.7612 1426.9654,-198.6228 1418.2383,-204.6301 1423.8893,-208.7612"/>
</g>
<!-- Node3 -->
<g id="node4" class="node">
<title>Node3</title>
<polygon fill="#ffffff" stroke="#bfbfbf" points="1112.5,-123.5 1112.5,-142.5 1157.5,-142.5 1157.5,-123.5 1112.5,-123.5"/>
<text text-anchor="middle" x="1135" y="-130.5" font-family="Helvetica,sans-Serif" font-size="10.00" fill="#000000">iosfwd</text>
</g>
<!-- Node2&#45;&gt;Node3 -->
<g id="edge3" class="edge">
<title>Node2&#45;&gt;Node3</title>
<path fill="none" stroke="#191970" d="M1114.3547,-179.2455C1117.7244,-171.6973 1122.493,-161.0158 1126.5983,-151.8197"/>
<polygon fill="#191970" stroke="#191970" points="1129.8147,-153.2009 1130.6952,-142.6427 1123.4227,-150.3473 1129.8147,-153.2009"/>
</g>
<!-- Node2&#45;&gt;Node4 -->
<g id="edge4" class="edge">
<title>Node2&#45;&gt;Node4</title>
<path fill="none" stroke="#191970" d="M1074.2812,-188.1797C905.5082,-183.9272 193.6048,-161.6346 133,-87 124.3149,-76.3044 126.2002,-67.9829 133,-56 143.022,-38.3387 162.8141,-26.7343 179.822,-19.5989"/>
<polygon fill="#191970" stroke="#191970" points="181.3458,-22.7627 189.4194,-15.9021 178.8296,-16.2305 181.3458,-22.7627"/>
</g>
<!-- Node2&#45;&gt;Node5 -->
<g id="edge5" class="edge">
<title>Node2&#45;&gt;Node5</title>
<path fill="none" stroke="#191970" d="M1145.6236,-179.5004C1181.0723,-170.0474 1235.6162,-155.5023 1274.2505,-145.1999"/>
<polygon fill="#191970" stroke="#191970" points="1275.4411,-148.5048 1284.2016,-142.5462 1273.6374,-141.7411 1275.4411,-148.5048"/>
</g>
<!-- Node6 -->
<g id="node7" class="node">
<title>Node6</title>
<polygon fill="#ffffff" stroke="#bfbfbf" points="142,-62 142,-81 182,-81 182,-62 142,-62"/>
<text text-anchor="middle" x="162" y="-69" font-family="Helvetica,sans-Serif" font-size="10.00" fill="#000000">utility</text>
</g>
<!-- Node2&#45;&gt;Node6 -->
<g id="edge6" class="edge">
<title>Node2&#45;&gt;Node6</title>
<path fill="none" stroke="#191970" d="M1074.2699,-188.0213C951.9167,-184.0248 539.1083,-165.2075 209,-87 203.4611,-85.6878 197.6414,-84.0166 192.0571,-82.2603"/>
<polygon fill="#191970" stroke="#191970" points="192.9643,-78.8741 182.3712,-79.0659 190.7718,-85.5219 192.9643,-78.8741"/>
</g>
<!-- Node2&#45;&gt;Node7 -->
<g id="edge7" class="edge">
<title>Node2&#45;&gt;Node7</title>
<path fill="none" stroke="#191970" d="M1106.5591,-179.3762C1096.445,-151.0883 1066.6655,-67.7987 1052.9995,-29.5767"/>
<polygon fill="#191970" stroke="#191970" points="1056.1204,-27.9093 1049.4579,-19.6714 1049.529,-30.266 1056.1204,-27.9093"/>
</g>
<!-- Node2&#45;&gt;Node8 -->
<g id="edge8" class="edge">
<title>Node2&#45;&gt;Node8</title>
<path fill="none" stroke="#191970" d="M1128.8122,-179.2455C1145.8473,-170.4125 1171.1575,-157.2887 1190.4681,-147.2758"/>
<polygon fill="#191970" stroke="#191970" points="1192.137,-150.353 1199.4034,-142.6427 1188.9147,-144.1388 1192.137,-150.353"/>
</g>
<!-- Node12 -->
<g id="node13" class="node">
<title>Node12</title>
<g id="a_node13"><a xlink:href="structures_8hxx.html" target="_top" xlink:title="Data structures. ">
<polygon fill="#ffffff" stroke="#000000" points="597.5,-123.5 597.5,-142.5 676.5,-142.5 676.5,-123.5 597.5,-123.5"/>
<text text-anchor="middle" x="637" y="-130.5" font-family="Helvetica,sans-Serif" font-size="10.00" fill="#000000">structures.hxx</text>
</a>
</g>
</g>
<!-- Node2&#45;&gt;Node12 -->
<g id="edge13" class="edge">
<title>Node2&#45;&gt;Node12</title>
<path fill="none" stroke="#191970" d="M1074.4481,-184.7909C991.0124,-174.9127 782.4774,-150.2235 686.6193,-138.8746"/>
<polygon fill="#191970" stroke="#191970" points="686.9434,-135.3886 676.6012,-137.6885 686.1203,-142.34 686.9434,-135.3886"/>
</g>
<!-- Node8&#45;&gt;Node4 -->
<g id="edge10" class="edge">
<title>Node8&#45;&gt;Node4</title>
<path fill="none" stroke="#191970" d="M1196.0175,-123.3675C1155.7036,-106.2214 1066.8367,-70.8187 988,-56 663.9531,4.9103 572.7048,-71.311 247,-20 244.8104,-19.655 242.5641,-19.2305 240.3129,-18.753"/>
<polygon fill="#191970" stroke="#191970" points="241.1154,-15.3463 230.5734,-16.4025 239.4731,-22.1509 241.1154,-15.3463"/>
</g>
<!-- Node8&#45;&gt;Node9 -->
<g id="edge9" class="edge">
<title>Node8&#45;&gt;Node9</title>
<path fill="none" stroke="#191970" d="M1259.5165,-123.455C1292.2605,-115.3597 1338.7872,-102.5903 1378,-87 1379.1951,-86.5249 1380.4056,-86.0173 1381.6202,-85.4864"/>
<polygon fill="#191970" stroke="#191970" points="1383.294,-88.5661 1390.8209,-81.1098 1380.287,-82.2449 1383.294,-88.5661"/>
</g>
<!-- Node10 -->
<g id="node11" class="node">
<title>Node10</title>
<polygon fill="#ffffff" stroke="#bfbfbf" points="1307,-62 1307,-81 1369,-81 1369,-62 1307,-62"/>
<text text-anchor="middle" x="1338" y="-69" font-family="Helvetica,sans-Serif" font-size="10.00" fill="#000000">type_traits</text>
</g>
<!-- Node8&#45;&gt;Node10 -->
<g id="edge11" class="edge">
<title>Node8&#45;&gt;Node10</title>
<path fill="none" stroke="#191970" d="M1236.75,-123.3906C1256.476,-113.2811 1287.7312,-97.2628 1310.3,-85.6962"/>
<polygon fill="#191970" stroke="#191970" points="1312.0787,-88.7176 1319.3817,-81.0419 1308.886,-82.4881 1312.0787,-88.7176"/>
</g>
<!-- Node11 -->
<g id="node12" class="node">
<title>Node11</title>
<polygon fill="#ffffff" stroke="#bfbfbf" points="1112.5,-56.5 1112.5,-86.5 1223.5,-86.5 1223.5,-56.5 1112.5,-56.5"/>
<text text-anchor="start" x="1120.5" y="-74.5" font-family="Helvetica,sans-Serif" font-size="10.00" fill="#000000">boost/locale/encoding</text>
<text text-anchor="middle" x="1168" y="-63.5" font-family="Helvetica,sans-Serif" font-size="10.00" fill="#000000">_utf.hpp</text>
</g>
<!-- Node8&#45;&gt;Node11 -->
<g id="edge12" class="edge">
<title>Node8&#45;&gt;Node11</title>
<path fill="none" stroke="#191970" d="M1210.1875,-123.3906C1203.9219,-115.6839 1194.8645,-104.5434 1186.7471,-94.5589"/>
<polygon fill="#191970" stroke="#191970" points="1189.2554,-92.0959 1180.2314,-86.5446 1183.824,-96.5117 1189.2554,-92.0959"/>
</g>
<!-- Node12&#45;&gt;Node4 -->
<g id="edge22" class="edge">
<title>Node12&#45;&gt;Node4</title>
<path fill="none" stroke="#191970" d="M597.4327,-131.0835C500.3734,-126.0284 256.3843,-111.0456 229,-87 212.8826,-72.8476 209.345,-47.4074 209.0453,-29.657"/>
<polygon fill="#191970" stroke="#191970" points="212.5467,-29.5875 209.2048,-19.5336 205.5476,-29.4772 212.5467,-29.5875"/>
</g>
<!-- Node12&#45;&gt;Node6 -->
<g id="edge23" class="edge">
<title>Node12&#45;&gt;Node6</title>
<path fill="none" stroke="#191970" d="M597.4688,-130.5182C503.942,-124.3824 271.2952,-107.5012 196,-87 194.0283,-86.4632 192.0271,-85.8237 190.0334,-85.1151"/>
<polygon fill="#191970" stroke="#191970" points="190.8814,-81.6814 180.2999,-81.15 188.2405,-88.1641 190.8814,-81.6814"/>
</g>
<!-- Node12&#45;&gt;Node7 -->
<g id="edge24" class="edge">
<title>Node12&#45;&gt;Node7</title>
<path fill="none" stroke="#191970" d="M676.6149,-131.6285C756.9497,-128.2376 935.833,-117.4092 988,-87 1011.1795,-73.4882 1028.0729,-46.7034 1037.4632,-28.568"/>
<polygon fill="#191970" stroke="#191970" points="1040.6389,-30.0412 1041.9004,-19.5218 1034.3542,-26.9585 1040.6389,-30.0412"/>
</g>
<!-- Node13 -->
<g id="node14" class="node">
<title>Node13</title>
<g id="a_node14"><a xlink:href="condition_8hxx.html" target="_top" xlink:title="Condition matching. ">
<polygon fill="#ffffff" stroke="#000000" points="238,-62 238,-81 312,-81 312,-62 238,-62"/>
<text text-anchor="middle" x="275" y="-69" font-family="Helvetica,sans-Serif" font-size="10.00" fill="#000000">condition.hxx</text>
</a>
</g>
</g>
<!-- Node12&#45;&gt;Node13 -->
<g id="edge14" class="edge">
<title>Node12&#45;&gt;Node13</title>
<path fill="none" stroke="#191970" d="M597.403,-129.5513C537.1238,-123.7831 418.9966,-110.44 321,-87 317.5346,-86.1711 313.9591,-85.1932 310.4044,-84.1381"/>
<polygon fill="#191970" stroke="#191970" points="311.1402,-80.6999 300.5502,-81.0199 309.0283,-87.3738 311.1402,-80.6999"/>
</g>
<!-- Node12&#45;&gt;Node15 -->
<g id="edge18" class="edge">
<title>Node12&#45;&gt;Node15</title>
<path fill="none" stroke="#191970" d="M676.8535,-132.4911C817.5984,-130.417 1290.747,-121.0184 1438,-87 1440.6443,-86.3891 1443.341,-85.605 1446.0127,-84.7147"/>
<polygon fill="#191970" stroke="#191970" points="1447.3293,-87.9587 1455.4417,-81.144 1444.8502,-81.4124 1447.3293,-87.9587"/>
</g>
<!-- Node16 -->
<g id="node17" class="node">
<title>Node16</title>
<polygon fill="#ffffff" stroke="#bfbfbf" points="442,-62 442,-81 486,-81 486,-62 442,-62"/>
<text text-anchor="middle" x="464" y="-69" font-family="Helvetica,sans-Serif" font-size="10.00" fill="#000000">cmath</text>
</g>
<!-- Node12&#45;&gt;Node16 -->
<g id="edge19" class="edge">
<title>Node12&#45;&gt;Node16</title>
<path fill="none" stroke="#191970" d="M602.6279,-123.444C573.5435,-114.9853 530.9749,-101.723 495,-87 493.8097,-86.5128 492.602,-85.999 491.3881,-85.4663"/>
<polygon fill="#191970" stroke="#191970" points="492.6894,-82.211 482.1485,-81.1438 489.7232,-88.5515 492.6894,-82.211"/>
</g>
<!-- Node17 -->
<g id="node18" class="node">
<title>Node17</title>
<polygon fill="#ffffff" stroke="#bfbfbf" points="1241.5,-62 1241.5,-81 1288.5,-81 1288.5,-62 1241.5,-62"/>
<text text-anchor="middle" x="1265" y="-69" font-family="Helvetica,sans-Serif" font-size="10.00" fill="#000000">iterator</text>
</g>
<!-- Node12&#45;&gt;Node17 -->
<g id="edge20" class="edge">
<title>Node12&#45;&gt;Node17</title>
<path fill="none" stroke="#191970" d="M676.7142,-131.7953C792.2299,-127.9968 1126.5667,-114.8371 1232,-87 1233.9737,-86.4789 1235.9738,-85.8431 1237.9624,-85.1298"/>
<polygon fill="#191970" stroke="#191970" points="1239.7555,-88.1739 1247.6332,-81.0892 1237.0568,-81.715 1239.7555,-88.1739"/>
</g>
<!-- Node18 -->
<g id="node19" class="node">
<title>Node18</title>
<polygon fill="#ffffff" stroke="#bfbfbf" points="504.5,-62 504.5,-81 563.5,-81 563.5,-62 504.5,-62"/>
<text text-anchor="middle" x="534" y="-69" font-family="Helvetica,sans-Serif" font-size="10.00" fill="#000000">stdexcept</text>
</g>
<!-- Node12&#45;&gt;Node18 -->
<g id="edge21" class="edge">
<title>Node12&#45;&gt;Node18</title>
<path fill="none" stroke="#191970" d="M620.9063,-123.3906C604.2772,-113.4616 578.1024,-97.833 558.8206,-86.3201"/>
<polygon fill="#191970" stroke="#191970" points="560.361,-83.1634 549.9807,-81.0419 556.7724,-89.1736 560.361,-83.1634"/>
</g>
<!-- Node19 -->
<g id="node20" class="node">
<title>Node19</title>
<polygon fill="#ffffff" stroke="#bfbfbf" points="582,-56.5 582,-86.5 692,-86.5 692,-56.5 582,-56.5"/>
<text text-anchor="start" x="590" y="-74.5" font-family="Helvetica,sans-Serif" font-size="10.00" fill="#000000">boost/container/small</text>
<text text-anchor="middle" x="637" y="-63.5" font-family="Helvetica,sans-Serif" font-size="10.00" fill="#000000">_vector.hpp</text>
</g>
<!-- Node12&#45;&gt;Node19 -->
<g id="edge25" class="edge">
<title>Node12&#45;&gt;Node19</title>
<path fill="none" stroke="#191970" d="M637,-123.3906C637,-116.2234 637,-106.0862 637,-96.671"/>
<polygon fill="#191970" stroke="#191970" points="640.5001,-96.5446 637,-86.5446 633.5001,-96.5446 640.5001,-96.5446"/>
</g>
<!-- Node20 -->
<g id="node21" class="node">
<title>Node20</title>
<polygon fill="#ffffff" stroke="#bfbfbf" points="710,-62 710,-81 860,-81 860,-62 710,-62"/>
<text text-anchor="middle" x="785" y="-69" font-family="Helvetica,sans-Serif" font-size="10.00" fill="#000000">boost/multi_index/member.hpp</text>
</g>
<!-- Node12&#45;&gt;Node20 -->
<g id="edge26" class="edge">
<title>Node12&#45;&gt;Node20</title>
<path fill="none" stroke="#191970" d="M660.125,-123.3906C684.9967,-113.0554 724.7298,-96.5447 752.6844,-84.9284"/>
<polygon fill="#191970" stroke="#191970" points="754.146,-88.1113 762.0374,-81.0419 751.4598,-81.6472 754.146,-88.1113"/>
</g>
<!-- Node21 -->
<g id="node22" class="node">
<title>Node21</title>
<polygon fill="#ffffff" stroke="#bfbfbf" points="878.5,-56.5 878.5,-86.5 979.5,-86.5 979.5,-56.5 878.5,-56.5"/>
<text text-anchor="start" x="886.5" y="-74.5" font-family="Helvetica,sans-Serif" font-size="10.00" fill="#000000">boost/range/iterator</text>
<text text-anchor="middle" x="929" y="-63.5" font-family="Helvetica,sans-Serif" font-size="10.00" fill="#000000">_range_core.hpp</text>
</g>
<!-- Node12&#45;&gt;Node21 -->
<g id="edge27" class="edge">
<title>Node12&#45;&gt;Node21</title>
<path fill="none" stroke="#191970" d="M676.5532,-125.8688C720.858,-117.7237 795.0237,-103.6202 868.4305,-87.0571"/>
<polygon fill="#191970" stroke="#191970" points="869.335,-90.4409 878.3106,-84.8116 867.7836,-83.615 869.335,-90.4409"/>
</g>
<!-- Node22 -->
<g id="node23" class="node">
<title>Node22</title>
<polygon fill="#ffffff" stroke="#bfbfbf" points="330,-56.5 330,-86.5 424,-86.5 424,-56.5 330,-56.5"/>
<text text-anchor="start" x="338" y="-74.5" font-family="Helvetica,sans-Serif" font-size="10.00" fill="#000000">boost/utility/string</text>
<text text-anchor="middle" x="377" y="-63.5" font-family="Helvetica,sans-Serif" font-size="10.00" fill="#000000">_view.hpp</text>
</g>
<!-- Node12&#45;&gt;Node22 -->
<g id="edge28" class="edge">
<title>Node12&#45;&gt;Node22</title>
<path fill="none" stroke="#191970" d="M597.3769,-124.658C558.2671,-116.2926 496.5395,-102.7385 434.0436,-87.1993"/>
<polygon fill="#191970" stroke="#191970" points="434.5607,-83.7209 424.0102,-84.6888 432.8616,-90.5115 434.5607,-83.7209"/>
</g>
<!-- Node13&#45;&gt;Node4 -->
<g id="edge15" class="edge">
<title>Node13&#45;&gt;Node4</title>
<path fill="none" stroke="#191970" d="M264.8438,-61.8906C254.9801,-52.5581 239.7945,-38.1902 227.9013,-26.9374"/>
<polygon fill="#191970" stroke="#191970" points="229.9689,-24.0753 220.2994,-19.7449 225.1579,-29.1601 229.9689,-24.0753"/>
</g>
<!-- Node13&#45;&gt;Node7 -->
<g id="edge17" class="edge">
<title>Node13&#45;&gt;Node7</title>
<path fill="none" stroke="#191970" d="M299.5063,-61.9226C306.3641,-59.6067 313.8887,-57.3985 321,-56 456.5913,-29.3341 891.2848,-14.6143 1013.6641,-10.928"/>
<polygon fill="#191970" stroke="#191970" points="1013.983,-14.4202 1023.8745,-10.6244 1013.7748,-7.4233 1013.983,-14.4202"/>
</g>
<!-- Node14 -->
<g id="node15" class="node">
<title>Node14</title>
<polygon fill="#ffffff" stroke="#bfbfbf" points="256,-.5 256,-19.5 294,-19.5 294,-.5 256,-.5"/>
<text text-anchor="middle" x="275" y="-7.5" font-family="Helvetica,sans-Serif" font-size="10.00" fill="#000000">tuple</text>
</g>
<!-- Node13&#45;&gt;Node14 -->
<g id="edge16" class="edge">
<title>Node13&#45;&gt;Node14</title>
<path fill="none" stroke="#191970" d="M275,-61.8906C275,-53.3657 275,-40.6392 275,-29.9235"/>
<polygon fill="#191970" stroke="#191970" points="278.5001,-29.7448 275,-19.7449 271.5001,-29.7449 278.5001,-29.7448"/>
</g>
<!-- Node24&#45;&gt;Node4 -->
<g id="edge33" class="edge">
<title>Node24&#45;&gt;Node4</title>
<path fill="none" stroke="#191970" d="M55.3066,-123.2866C51.5329,-107.3988 46.7213,-75.659 62,-56 76.4133,-37.4545 140.0011,-22.81 178.9882,-15.371"/>
<polygon fill="#191970" stroke="#191970" points="180.0755,-18.7293 189.2709,-13.4667 178.8008,-11.8463 180.0755,-18.7293"/>
</g>
<!-- Node24&#45;&gt;Node6 -->
<g id="edge34" class="edge">
<title>Node24&#45;&gt;Node6</title>
<path fill="none" stroke="#191970" d="M74.25,-123.3906C91.1169,-113.4165 117.7099,-97.6908 137.2035,-86.1633"/>
<polygon fill="#191970" stroke="#191970" points="139.038,-89.1447 145.8641,-81.0419 135.4749,-83.1194 139.038,-89.1447"/>
</g>
<!-- Node24&#45;&gt;Node7 -->
<g id="edge35" class="edge">
<title>Node24&#45;&gt;Node7</title>
<path fill="none" stroke="#191970" d="M63.7682,-123.4675C74.7568,-106.3164 100.5195,-70.6785 133,-56 214.5635,-19.1399 861.3291,-11.5225 1013.8558,-10.2327"/>
<polygon fill="#191970" stroke="#191970" points="1013.9978,-13.7318 1023.969,-10.1505 1013.9408,-6.732 1013.9978,-13.7318"/>
</g>
<!-- Node25&#45;&gt;Node4 -->
<g id="edge41" class="edge">
<title>Node25&#45;&gt;Node4</title>
<path fill="none" stroke="#191970" d="M1531.9395,-123.2949C1532.9594,-106.5206 1532.257,-72.3363 1512,-56 1457.2727,-11.865 316.5561,-30.2427 247,-20 244.807,-19.6771 242.5582,-19.2688 240.3053,-18.803"/>
<polygon fill="#191970" stroke="#191970" points="241.1013,-15.3947 230.5619,-16.4776 239.4762,-22.2035 241.1013,-15.3947"/>
</g>
<!-- Node25&#45;&gt;Node7 -->
<g id="edge42" class="edge">
<title>Node25&#45;&gt;Node7</title>
<path fill="none" stroke="#191970" d="M1562.5032,-123.3744C1579.8159,-116.2912 1599.796,-104.7494 1610,-87 1616.8669,-75.0554 1619.338,-66.1306 1610,-56 1591.8603,-36.3206 1195.8201,-16.8086 1078.4795,-11.4426"/>
<polygon fill="#191970" stroke="#191970" points="1078.4731,-7.9388 1068.3247,-10.9818 1078.1558,-14.9316 1078.4731,-7.9388"/>
</g>
<!-- Node25&#45;&gt;Node9 -->
<g id="edge39" class="edge">
<title>Node25&#45;&gt;Node9</title>
<path fill="none" stroke="#191970" d="M1511.3555,-123.4076C1492.4986,-114.1705 1463.2379,-99.7602 1438,-87 1437.176,-86.5834 1436.3398,-86.1594 1435.4961,-85.7304"/>
<polygon fill="#191970" stroke="#191970" points="1436.8738,-82.5037 1426.3778,-81.0598 1433.6825,-88.7339 1436.8738,-82.5037"/>
</g>
<!-- Node25&#45;&gt;Node15 -->
<g id="edge37" class="edge">
<title>Node25&#45;&gt;Node15</title>
<path fill="none" stroke="#191970" d="M1522.25,-123.3906C1513.8338,-114.1478 1500.9203,-99.966 1490.719,-88.7628"/>
<polygon fill="#191970" stroke="#191970" points="1493.194,-86.2824 1483.8734,-81.2449 1488.0182,-90.9953 1493.194,-86.2824"/>
</g>
<!-- Node25&#45;&gt;Node17 -->
<g id="edge38" class="edge">
<title>Node25&#45;&gt;Node17</title>
<path fill="none" stroke="#191970" d="M1489.3952,-127.9113C1442.1714,-121.4223 1363.2307,-108.4009 1298,-87 1296.1506,-86.3933 1294.2694,-85.7086 1292.3907,-84.9736"/>
<polygon fill="#191970" stroke="#191970" points="1293.7456,-81.7464 1283.1767,-81.0055 1290.9767,-88.1755 1293.7456,-81.7464"/>
</g>
<!-- Node26 -->
<g id="node27" class="node">
<title>Node26</title>
<polygon fill="#ffffff" stroke="#bfbfbf" points="1559.5,-62 1559.5,-81 1600.5,-81 1600.5,-62 1559.5,-62"/>
<text text-anchor="middle" x="1580" y="-69" font-family="Helvetica,sans-Serif" font-size="10.00" fill="#000000">stack</text>
</g>
<!-- Node25&#45;&gt;Node26 -->
<g id="edge40" class="edge">
<title>Node25&#45;&gt;Node26</title>
<path fill="none" stroke="#191970" d="M1538.6563,-123.3906C1545.9489,-114.2376 1557.1007,-100.2409 1565.9852,-89.09"/>
<polygon fill="#191970" stroke="#191970" points="1568.7417,-91.247 1572.2358,-81.2449 1563.267,-86.8849 1568.7417,-91.247"/>
</g>
</g>
</svg>
