<?xml version="1.0" encoding="UTF-8" standalone="no"?>
<!DOCTYPE svg PUBLIC "-//W3C//DTD SVG 1.1//EN"
 "http://www.w3.org/Graphics/SVG/1.1/DTD/svg11.dtd">
<!-- Generated by graphviz version 2.40.1 (20161225.0304)
 -->
<!-- Title: main Pages: 1 -->
<svg width="373pt" height="268pt"
 viewBox="0.00 0.00 373.00 267.50" xmlns="http://www.w3.org/2000/svg" xmlns:xlink="http://www.w3.org/1999/xlink">
<g id="graph0" class="graph" transform="scale(1 1) rotate(0) translate(4 263.5)">
<title>main</title>
<polygon fill="#ffffff" stroke="transparent" points="-4,4 -4,-263.5 369,-263.5 369,4 -4,4"/>
<!-- Node0 -->
<g id="node1" class="node">
<title>Node0</title>
<polygon fill="#bfbfbf" stroke="#000000" points="0,-152.5 0,-171.5 38,-171.5 38,-152.5 0,-152.5"/>
<text text-anchor="middle" x="19" y="-159.5" font-family="Helvetica,sans-Serif" font-size="10.00" fill="#000000">main</text>
</g>
<!-- Node1 -->
<g id="node2" class="node">
<title>Node1</title>
<g id="a_node2"><a xlink:href="namespacenuspell.html#aae159e86a8a1edad724249d330d985b1" target="_top" xlink:title="nuspell::install_ctype\l_facets_inplace">
<polygon fill="#ffffff" stroke="#000000" points="83.5,-229 83.5,-259 191.5,-259 191.5,-229 83.5,-229"/>
<text text-anchor="start" x="91.5" y="-247" font-family="Helvetica,sans-Serif" font-size="10.00" fill="#000000">nuspell::install_ctype</text>
<text text-anchor="middle" x="137.5" y="-236" font-family="Helvetica,sans-Serif" font-size="10.00" fill="#000000">_facets_inplace</text>
</a>
</g>
</g>
<!-- Node0&#45;&gt;Node1 -->
<g id="edge1" class="edge">
<title>Node0&#45;&gt;Node1</title>
<path fill="none" stroke="#191970" d="M26.1907,-171.7057C35.847,-184.1499 54.1064,-205.7043 74,-219 76.8951,-220.9349 79.9624,-222.7551 83.1243,-224.4613"/>
<polygon fill="#191970" stroke="#191970" points="81.7064,-227.6648 92.2207,-228.9689 84.8145,-221.3926 81.7064,-227.6648"/>
</g>
<!-- Node2 -->
<g id="node3" class="node">
<title>Node2</title>
<g id="a_node3"><a xlink:href="regress_8cxx.html#af8c650bca476b3f8959df7215c4c134f" target="_top" xlink:title="Prints help information. ">
<polygon fill="#ffffff" stroke="#000000" points="108,-190.5 108,-209.5 167,-209.5 167,-190.5 108,-190.5"/>
<text text-anchor="middle" x="137.5" y="-197.5" font-family="Helvetica,sans-Serif" font-size="10.00" fill="#000000">print_help</text>
</a>
</g>
</g>
<!-- Node0&#45;&gt;Node2 -->
<g id="edge2" class="edge">
<title>Node0&#45;&gt;Node2</title>
<path fill="none" stroke="#191970" d="M38.0245,-168.7919C48.5858,-172.5069 61.9805,-177.1276 74,-181 81.7012,-183.4812 89.9623,-186.0327 97.8947,-188.4287"/>
<polygon fill="#191970" stroke="#191970" points="97.1161,-191.849 107.6998,-191.3636 99.1234,-185.143 97.1161,-191.849"/>
</g>
<!-- Node3 -->
<g id="node4" class="node">
<title>Node3</title>
<g id="a_node4"><a xlink:href="regress_8cxx.html#a6150c93934b2505d7e4521b40fa8d571" target="_top" xlink:title="Prints the version number to standard output. ">
<polygon fill="#ffffff" stroke="#000000" points="101.5,-152.5 101.5,-171.5 173.5,-171.5 173.5,-152.5 101.5,-152.5"/>
<text text-anchor="middle" x="137.5" y="-159.5" font-family="Helvetica,sans-Serif" font-size="10.00" fill="#000000">print_version</text>
</a>
</g>
</g>
<!-- Node0&#45;&gt;Node3 -->
<g id="edge3" class="edge">
<title>Node0&#45;&gt;Node3</title>
<path fill="none" stroke="#191970" d="M38.0391,-162C52.3915,-162 72.7043,-162 91.2349,-162"/>
<polygon fill="#191970" stroke="#191970" points="91.2972,-165.5001 101.2972,-162 91.2971,-158.5001 91.2972,-165.5001"/>
</g>
<!-- Node4 -->
<g id="node5" class="node">
<title>Node4</title>
<g id="a_node5"><a xlink:href="namespacenuspell.html#a2def7204c1e34b676467a79a7272db63" target="_top" xlink:title="nuspell::get_locale_name">
<polygon fill="#ffffff" stroke="#000000" points="74,-114.5 74,-133.5 201,-133.5 201,-114.5 74,-114.5"/>
<text text-anchor="middle" x="137.5" y="-121.5" font-family="Helvetica,sans-Serif" font-size="10.00" fill="#000000">nuspell::get_locale_name</text>
</a>
</g>
</g>
<!-- Node0&#45;&gt;Node4 -->
<g id="edge4" class="edge">
<title>Node0&#45;&gt;Node4</title>
<path fill="none" stroke="#191970" d="M38.0245,-155.2081C48.5858,-151.4931 61.9805,-146.8724 74,-143 80.6966,-140.8425 87.8166,-138.6318 94.7757,-136.5164"/>
<polygon fill="#191970" stroke="#191970" points="96.2216,-139.7363 104.7884,-133.5025 94.2039,-133.0334 96.2216,-139.7363"/>
</g>
<!-- Node5 -->
<g id="node6" class="node">
<title>Node5</title>
<g id="a_node6"><a xlink:href="regress_8cxx.html#adaa095873c4ebfe8c954f43bc50f7b76" target="_top" xlink:title="normal_loop">
<polygon fill="#ffffff" stroke="#000000" points="103,-76.5 103,-95.5 172,-95.5 172,-76.5 103,-76.5"/>
<text text-anchor="middle" x="137.5" y="-83.5" font-family="Helvetica,sans-Serif" font-size="10.00" fill="#000000">normal_loop</text>
</a>
</g>
</g>
<!-- Node0&#45;&gt;Node5 -->
<g id="edge5" class="edge">
<title>Node0&#45;&gt;Node5</title>
<path fill="none" stroke="#191970" d="M25.7003,-152.4678C35.0844,-139.8091 53.3287,-117.5883 74,-105 79.877,-101.4211 86.473,-98.4774 93.1316,-96.0676"/>
<polygon fill="#191970" stroke="#191970" points="94.4271,-99.3268 102.8554,-92.907 92.2632,-92.6696 94.4271,-99.3268"/>
</g>
<!-- Node6 -->
<g id="node7" class="node">
<title>Node6</title>
<g id="a_node7"><a xlink:href="regress_8cxx.html#a56237bb115471532c16e426e29e420bb" target="_top" xlink:title="rdtsc">
<polygon fill="#ffffff" stroke="#000000" points="282,-164.5 282,-183.5 320,-183.5 320,-164.5 282,-164.5"/>
<text text-anchor="middle" x="301" y="-171.5" font-family="Helvetica,sans-Serif" font-size="10.00" fill="#000000">rdtsc</text>
</a>
</g>
</g>
<!-- Node5&#45;&gt;Node6 -->
<g id="edge6" class="edge">
<title>Node5&#45;&gt;Node6</title>
<path fill="none" stroke="#191970" d="M172.0024,-91.935C181.9804,-94.7698 192.4698,-98.9263 201,-105 223.3062,-120.8827 214.6767,-139.1413 237,-155 247.2003,-162.2464 260.1785,-166.76 271.778,-169.5569"/>
<polygon fill="#191970" stroke="#191970" points="271.4199,-173.0574 281.9238,-171.6721 272.8486,-166.2048 271.4199,-173.0574"/>
</g>
<!-- Node7 -->
<g id="node8" class="node">
<title>Node7</title>
<g id="a_node8"><a xlink:href="structnuspell_1_1_basic___dictionary.html#a4e779d078298481e1d27bf695c526729" target="_top" xlink:title="nuspell::Basic_Dictionary\l::spell">
<polygon fill="#ffffff" stroke="#000000" points="237,-115 237,-145 365,-145 365,-115 237,-115"/>
<text text-anchor="start" x="245" y="-133" font-family="Helvetica,sans-Serif" font-size="10.00" fill="#000000">nuspell::Basic_Dictionary</text>
<text text-anchor="middle" x="301" y="-122" font-family="Helvetica,sans-Serif" font-size="10.00" fill="#000000">::spell</text>
</a>
</g>
</g>
<!-- Node5&#45;&gt;Node7 -->
<g id="edge7" class="edge">
<title>Node5&#45;&gt;Node7</title>
<path fill="none" stroke="#191970" d="M172.1741,-95.3313C190.5454,-100.2752 213.7281,-106.514 235.347,-112.3319"/>
<polygon fill="#191970" stroke="#191970" points="234.581,-115.7502 245.147,-114.9692 236.4001,-108.9907 234.581,-115.7502"/>
</g>
<!-- Node8 -->
<g id="node9" class="node">
<title>Node8</title>
<g id="a_node9"><a xlink:href="namespacenuspell.html#a4bbcd07d775ff9e19d67c9c68167dbf2" target="_top" xlink:title="nuspell::to_narrow">
<polygon fill="#ffffff" stroke="#000000" points="253,-76.5 253,-95.5 349,-95.5 349,-76.5 253,-76.5"/>
<text text-anchor="middle" x="301" y="-83.5" font-family="Helvetica,sans-Serif" font-size="10.00" fill="#000000">nuspell::to_narrow</text>
</a>
</g>
</g>
<!-- Node5&#45;&gt;Node8 -->
<g id="edge8" class="edge">
<title>Node5&#45;&gt;Node8</title>
<path fill="none" stroke="#191970" d="M172.1741,-86C192.5878,-86 218.9423,-86 242.4908,-86"/>
<polygon fill="#191970" stroke="#191970" points="242.7324,-89.5001 252.7324,-86 242.7324,-82.5001 242.7324,-89.5001"/>
</g>
<!-- Node9 -->
<g id="node10" class="node">
<title>Node9</title>
<g id="a_node10"><a xlink:href="namespacenuspell.html#a7f99b7ec5f56db773581d659bb42a240" target="_top" xlink:title="nuspell::to_wide">
<polygon fill="#ffffff" stroke="#000000" points="257.5,-38.5 257.5,-57.5 344.5,-57.5 344.5,-38.5 257.5,-38.5"/>
<text text-anchor="middle" x="301" y="-45.5" font-family="Helvetica,sans-Serif" font-size="10.00" fill="#000000">nuspell::to_wide</text>
</a>
</g>
</g>
<!-- Node5&#45;&gt;Node9 -->
<g id="edge9" class="edge">
<title>Node5&#45;&gt;Node9</title>
<path fill="none" stroke="#191970" d="M172.1741,-77.9412C194.8485,-72.6713 224.8524,-65.6979 250.1993,-59.8069"/>
<polygon fill="#191970" stroke="#191970" points="251.0709,-63.1977 260.019,-57.5246 249.4862,-56.3794 251.0709,-63.1977"/>
</g>
<!-- Node10 -->
<g id="node11" class="node">
<title>Node10</title>
<g id="a_node11"><a xlink:href="namespacestd.html#abb75a3efd092cccd0bcbfdf1c503d145" target="_top" xlink:title="std::operator\&lt;\&lt;">
<polygon fill="#ffffff" stroke="#000000" points="259.5,-.5 259.5,-19.5 342.5,-19.5 342.5,-.5 259.5,-.5"/>
<text text-anchor="middle" x="301" y="-7.5" font-family="Helvetica,sans-Serif" font-size="10.00" fill="#000000">std::operator&lt;&lt;</text>
</a>
</g>
</g>
<!-- Node5&#45;&gt;Node10 -->
<g id="edge10" class="edge">
<title>Node5&#45;&gt;Node10</title>
<path fill="none" stroke="#191970" d="M151.784,-76.3972C170.6323,-64.0643 205.1543,-42.6299 237,-29 242.3927,-26.6919 248.1544,-24.5539 253.9286,-22.6088"/>
<polygon fill="#191970" stroke="#191970" points="255.1337,-25.8982 263.5948,-19.5217 253.004,-19.23 255.1337,-25.8982"/>
</g>
</g>
</svg>
