<?xml version="1.0" encoding="UTF-8" standalone="no"?>
<!DOCTYPE svg PUBLIC "-//W3C//DTD SVG 1.1//EN"
 "http://www.w3.org/Graphics/SVG/1.1/DTD/svg11.dtd">
<!-- Generated by graphviz version 2.40.1 (20161225.0304)
 -->
<!-- Title: normal_loop Pages: 1 -->
<svg width="241pt" height="192pt"
 viewBox="0.00 0.00 241.00 192.00" xmlns="http://www.w3.org/2000/svg" xmlns:xlink="http://www.w3.org/1999/xlink">
<g id="graph0" class="graph" transform="scale(1 1) rotate(0) translate(4 188)">
<title>normal_loop</title>
<polygon fill="#ffffff" stroke="transparent" points="-4,4 -4,-188 237,-188 237,4 -4,4"/>
<!-- Node12 -->
<g id="node1" class="node">
<title>Node12</title>
<polygon fill="#bfbfbf" stroke="#000000" points="0,-76.5 0,-95.5 69,-95.5 69,-76.5 0,-76.5"/>
<text text-anchor="middle" x="34.5" y="-83.5" font-family="Helvetica,sans-Serif" font-size="10.00" fill="#000000">normal_loop</text>
</g>
<!-- Node13 -->
<g id="node2" class="node">
<title>Node13</title>
<g id="a_node2"><a xlink:href="regress_8cxx.html#a56237bb115471532c16e426e29e420bb" target="_top" xlink:title="rdtsc">
<polygon fill="#ffffff" stroke="#000000" points="150,-164.5 150,-183.5 188,-183.5 188,-164.5 150,-164.5"/>
<text text-anchor="middle" x="169" y="-171.5" font-family="Helvetica,sans-Serif" font-size="10.00" fill="#000000">rdtsc</text>
</a>
</g>
</g>
<!-- Node12&#45;&gt;Node13 -->
<g id="edge1" class="edge">
<title>Node12&#45;&gt;Node13</title>
<path fill="none" stroke="#191970" d="M41.6472,-95.5131C53.3003,-110.3689 77.8368,-139.0256 105,-155 115.6324,-161.2528 128.485,-165.5904 139.8744,-168.5245"/>
<polygon fill="#191970" stroke="#191970" points="139.2839,-171.9806 149.817,-170.8393 140.8711,-165.1629 139.2839,-171.9806"/>
</g>
<!-- Node14 -->
<g id="node3" class="node">
<title>Node14</title>
<g id="a_node3"><a xlink:href="structnuspell_1_1_basic___dictionary.html#a4e779d078298481e1d27bf695c526729" target="_top" xlink:title="nuspell::Basic_Dictionary\l::spell">
<polygon fill="#ffffff" stroke="#000000" points="105,-115 105,-145 233,-145 233,-115 105,-115"/>
<text text-anchor="start" x="113" y="-133" font-family="Helvetica,sans-Serif" font-size="10.00" fill="#000000">nuspell::Basic_Dictionary</text>
<text text-anchor="middle" x="169" y="-122" font-family="Helvetica,sans-Serif" font-size="10.00" fill="#000000">::spell</text>
</a>
</g>
</g>
<!-- Node12&#45;&gt;Node14 -->
<g id="edge2" class="edge">
<title>Node12&#45;&gt;Node14</title>
<path fill="none" stroke="#191970" d="M63.6845,-95.5473C78.1516,-100.2801 96.1231,-106.1592 113.1006,-111.7132"/>
<polygon fill="#191970" stroke="#191970" points="112.3553,-115.1519 122.9479,-114.9346 114.5318,-108.4988 112.3553,-115.1519"/>
</g>
<!-- Node15 -->
<g id="node4" class="node">
<title>Node15</title>
<g id="a_node4"><a xlink:href="namespacenuspell.html#a4bbcd07d775ff9e19d67c9c68167dbf2" target="_top" xlink:title="nuspell::to_narrow">
<polygon fill="#ffffff" stroke="#000000" points="121,-76.5 121,-95.5 217,-95.5 217,-76.5 121,-76.5"/>
<text text-anchor="middle" x="169" y="-83.5" font-family="Helvetica,sans-Serif" font-size="10.00" fill="#000000">nuspell::to_narrow</text>
</a>
</g>
</g>
<!-- Node12&#45;&gt;Node15 -->
<g id="edge3" class="edge">
<title>Node12&#45;&gt;Node15</title>
<path fill="none" stroke="#191970" d="M69.1371,-86C81.7889,-86 96.4726,-86 110.6229,-86"/>
<polygon fill="#191970" stroke="#191970" points="110.7957,-89.5001 120.7956,-86 110.7956,-82.5001 110.7957,-89.5001"/>
</g>
<!-- Node16 -->
<g id="node5" class="node">
<title>Node16</title>
<g id="a_node5"><a xlink:href="namespacenuspell.html#a7f99b7ec5f56db773581d659bb42a240" target="_top" xlink:title="nuspell::to_wide">
<polygon fill="#ffffff" stroke="#000000" points="125.5,-38.5 125.5,-57.5 212.5,-57.5 212.5,-38.5 125.5,-38.5"/>
<text text-anchor="middle" x="169" y="-45.5" font-family="Helvetica,sans-Serif" font-size="10.00" fill="#000000">nuspell::to_wide</text>
</a>
</g>
</g>
<!-- Node12&#45;&gt;Node16 -->
<g id="edge4" class="edge">
<title>Node12&#45;&gt;Node16</title>
<path fill="none" stroke="#191970" d="M68.44,-76.411C85.7231,-71.5281 106.9329,-65.5357 125.4112,-60.315"/>
<polygon fill="#191970" stroke="#191970" points="126.3992,-63.673 135.0708,-57.5859 124.4959,-56.9367 126.3992,-63.673"/>
</g>
<!-- Node17 -->
<g id="node6" class="node">
<title>Node17</title>
<g id="a_node6"><a xlink:href="namespacestd.html#abb75a3efd092cccd0bcbfdf1c503d145" target="_top" xlink:title="std::operator\&lt;\&lt;">
<polygon fill="#ffffff" stroke="#000000" points="127.5,-.5 127.5,-19.5 210.5,-19.5 210.5,-.5 127.5,-.5"/>
<text text-anchor="middle" x="169" y="-7.5" font-family="Helvetica,sans-Serif" font-size="10.00" fill="#000000">std::operator&lt;&lt;</text>
</a>
</g>
</g>
<!-- Node12&#45;&gt;Node17 -->
<g id="edge5" class="edge">
<title>Node12&#45;&gt;Node17</title>
<path fill="none" stroke="#191970" d="M44.1056,-76.1263C56.9032,-63.5004 80.7619,-41.7498 105,-29 109.2634,-26.7574 113.8294,-24.7421 118.4874,-22.9395"/>
<polygon fill="#191970" stroke="#191970" points="119.8511,-26.1696 128.1101,-19.5334 117.5154,-19.5708 119.8511,-26.1696"/>
</g>
</g>
</svg>
