<?xml version="1.0" encoding="UTF-8" standalone="no"?>
<!DOCTYPE svg PUBLIC "-//W3C//DTD SVG 1.1//EN"
 "http://www.w3.org/Graphics/SVG/1.1/DTD/svg11.dtd">
<!-- Generated by graphviz version 2.40.1 (20161225.0304)
 -->
<!-- Title: normal_loop Pages: 1 -->
<svg width="535pt" height="192pt"
 viewBox="0.00 0.00 535.00 192.00" xmlns="http://www.w3.org/2000/svg" xmlns:xlink="http://www.w3.org/1999/xlink">
<g id="graph0" class="graph" transform="scale(1 1) rotate(0) translate(4 188)">
<title>normal_loop</title>
<polygon fill="#ffffff" stroke="transparent" points="-4,4 -4,-188 531,-188 531,4 -4,4"/>
<!-- Node13 -->
<g id="node1" class="node">
<title>Node13</title>
<polygon fill="#bfbfbf" stroke="#000000" points="0,-82.5 0,-101.5 69,-101.5 69,-82.5 0,-82.5"/>
<text text-anchor="middle" x="34.5" y="-89.5" font-family="Helvetica,sans-Serif" font-size="10.00" fill="#000000">normal_loop</text>
</g>
<!-- Node14 -->
<g id="node2" class="node">
<title>Node14</title>
<g id="a_node2"><a xlink:href="regress_8cxx.html#a56237bb115471532c16e426e29e420bb" target="_top" xlink:title="rdtsc">
<polygon fill="#ffffff" stroke="#000000" points="150,-164.5 150,-183.5 188,-183.5 188,-164.5 150,-164.5"/>
<text text-anchor="middle" x="169" y="-171.5" font-family="Helvetica,sans-Serif" font-size="10.00" fill="#000000">rdtsc</text>
</a>
</g>
</g>
<!-- Node13&#45;&gt;Node14 -->
<g id="edge1" class="edge">
<title>Node13&#45;&gt;Node14</title>
<path fill="none" stroke="#191970" d="M44.2149,-101.796C57.1306,-114.3719 81.1169,-136.2111 105,-150 115.8581,-156.2689 128.6551,-161.4514 139.941,-165.3763"/>
<polygon fill="#191970" stroke="#191970" points="139.1888,-168.8136 149.7819,-168.6223 141.3816,-162.1659 139.1888,-168.8136"/>
</g>
<!-- Node15 -->
<g id="node3" class="node">
<title>Node15</title>
<g id="a_node3"><a xlink:href="classnuspell_1_1_basic___dictionary.html#a05ed25f4b65c93f0389295303e43e509" target="_top" xlink:title="nuspell::Basic_Dictionary\l::spell">
<polygon fill="#ffffff" stroke="#000000" points="105,-77 105,-107 233,-107 233,-77 105,-77"/>
<text text-anchor="start" x="113" y="-95" font-family="Helvetica,sans-Serif" font-size="10.00" fill="#000000">nuspell::Basic_Dictionary</text>
<text text-anchor="middle" x="169" y="-84" font-family="Helvetica,sans-Serif" font-size="10.00" fill="#000000">::spell</text>
</a>
</g>
</g>
<!-- Node13&#45;&gt;Node15 -->
<g id="edge2" class="edge">
<title>Node13&#45;&gt;Node15</title>
<path fill="none" stroke="#191970" d="M69.1371,-92C77.1109,-92 85.8918,-92 94.8376,-92"/>
<polygon fill="#191970" stroke="#191970" points="94.9736,-95.5001 104.9736,-92 94.9736,-88.5001 94.9736,-95.5001"/>
</g>
<!-- Node18 -->
<g id="node6" class="node">
<title>Node18</title>
<g id="a_node6"><a xlink:href="namespacenuspell.html#a7aade2ec1cb243eb5b3714007d59d63c" target="_top" xlink:title="nuspell::to_wide">
<polygon fill="#ffffff" stroke="#000000" points="280,-123.5 280,-142.5 367,-142.5 367,-123.5 280,-123.5"/>
<text text-anchor="middle" x="323.5" y="-130.5" font-family="Helvetica,sans-Serif" font-size="10.00" fill="#000000">nuspell::to_wide</text>
</a>
</g>
</g>
<!-- Node13&#45;&gt;Node18 -->
<g id="edge8" class="edge">
<title>Node13&#45;&gt;Node18</title>
<path fill="none" stroke="#191970" d="M57.9112,-101.6203C71.4402,-106.7589 88.9165,-112.6914 105,-116 160.493,-127.4157 225.3526,-131.3029 269.9088,-132.5574"/>
<polygon fill="#191970" stroke="#191970" points="269.8539,-136.057 279.9373,-132.8049 270.0267,-129.0591 269.8539,-136.057"/>
</g>
<!-- Node19 -->
<g id="node7" class="node">
<title>Node19</title>
<g id="a_node7"><a xlink:href="namespacenuspell.html#a9bf8e1a3f71282ed001fcf4f224ef9dd" target="_top" xlink:title="nuspell::to_narrow">
<polygon fill="#ffffff" stroke="#000000" points="275.5,-41.5 275.5,-60.5 371.5,-60.5 371.5,-41.5 275.5,-41.5"/>
<text text-anchor="middle" x="323.5" y="-48.5" font-family="Helvetica,sans-Serif" font-size="10.00" fill="#000000">nuspell::to_narrow</text>
</a>
</g>
</g>
<!-- Node13&#45;&gt;Node19 -->
<g id="edge7" class="edge">
<title>Node13&#45;&gt;Node19</title>
<path fill="none" stroke="#191970" d="M56.6026,-82.4394C70.2802,-76.9598 88.3508,-70.4953 105,-67 158.5278,-55.7623 220.8627,-52.101 265.2213,-51.0503"/>
<polygon fill="#191970" stroke="#191970" points="265.3193,-54.5491 275.2473,-50.8499 265.1794,-47.5505 265.3193,-54.5491"/>
</g>
<!-- Node20 -->
<g id="node8" class="node">
<title>Node20</title>
<g id="a_node8"><a xlink:href="namespacestd.html#abb75a3efd092cccd0bcbfdf1c503d145" target="_top" xlink:title="std::operator\&lt;\&lt;">
<polygon fill="#ffffff" stroke="#000000" points="127.5,-.5 127.5,-19.5 210.5,-19.5 210.5,-.5 127.5,-.5"/>
<text text-anchor="middle" x="169" y="-7.5" font-family="Helvetica,sans-Serif" font-size="10.00" fill="#000000">std::operator&lt;&lt;</text>
</a>
</g>
</g>
<!-- Node13&#45;&gt;Node20 -->
<g id="edge9" class="edge">
<title>Node13&#45;&gt;Node20</title>
<path fill="none" stroke="#191970" d="M44.2149,-82.204C57.1306,-69.6281 81.1169,-47.7889 105,-34 112.087,-29.9083 120,-26.2795 127.7797,-23.1611"/>
<polygon fill="#191970" stroke="#191970" points="129.0283,-26.4309 137.1386,-19.6137 126.5472,-19.8853 129.0283,-26.4309"/>
</g>
<!-- Node16 -->
<g id="node4" class="node">
<title>Node16</title>
<g id="a_node4"><a xlink:href="namespacenuspell.html#a79258aeb32a39ce719a014950b33e5d6" target="_top" xlink:title="nuspell::utf8_to_wide">
<polygon fill="#ffffff" stroke="#000000" points="269,-82.5 269,-101.5 378,-101.5 378,-82.5 269,-82.5"/>
<text text-anchor="middle" x="323.5" y="-89.5" font-family="Helvetica,sans-Serif" font-size="10.00" fill="#000000">nuspell::utf8_to_wide</text>
</a>
</g>
</g>
<!-- Node15&#45;&gt;Node16 -->
<g id="edge3" class="edge">
<title>Node15&#45;&gt;Node16</title>
<path fill="none" stroke="#191970" d="M233.1797,-92C241.5495,-92 250.1301,-92 258.513,-92"/>
<polygon fill="#191970" stroke="#191970" points="258.6128,-95.5001 268.6128,-92 258.6127,-88.5001 258.6128,-95.5001"/>
</g>
<!-- Node15&#45;&gt;Node18 -->
<g id="edge5" class="edge">
<title>Node15&#45;&gt;Node18</title>
<path fill="none" stroke="#191970" d="M225.6528,-107.0341C242.7695,-111.5764 261.3416,-116.5049 277.6599,-120.8353"/>
<polygon fill="#191970" stroke="#191970" points="276.9327,-124.2634 287.496,-123.4455 278.7282,-117.4976 276.9327,-124.2634"/>
</g>
<!-- Node15&#45;&gt;Node19 -->
<g id="edge6" class="edge">
<title>Node15&#45;&gt;Node19</title>
<path fill="none" stroke="#191970" d="M225.6528,-76.9659C242.7695,-72.4236 261.3416,-67.4951 277.6599,-63.1647"/>
<polygon fill="#191970" stroke="#191970" points="278.7282,-66.5024 287.496,-60.5545 276.9327,-59.7366 278.7282,-66.5024"/>
</g>
<!-- Node17 -->
<g id="node5" class="node">
<title>Node17</title>
<g id="a_node5"><a xlink:href="namespacenuspell.html#aae8baee1ca83bf5a5e0d07a4e8fdbf81" target="_top" xlink:title="nuspell::utf_to_utf_my">
<polygon fill="#ffffff" stroke="#000000" points="414,-82.5 414,-101.5 527,-101.5 527,-82.5 414,-82.5"/>
<text text-anchor="middle" x="470.5" y="-89.5" font-family="Helvetica,sans-Serif" font-size="10.00" fill="#000000">nuspell::utf_to_utf_my</text>
</a>
</g>
</g>
<!-- Node16&#45;&gt;Node17 -->
<g id="edge4" class="edge">
<title>Node16&#45;&gt;Node17</title>
<path fill="none" stroke="#191970" d="M378.2374,-92C386.4781,-92 395.0561,-92 403.5179,-92"/>
<polygon fill="#191970" stroke="#191970" points="403.7514,-95.5001 413.7514,-92 403.7514,-88.5001 403.7514,-95.5001"/>
</g>
</g>
</svg>
