<?xml version="1.0" encoding="UTF-8" standalone="no"?>
<!DOCTYPE svg PUBLIC "-//W3C//DTD SVG 1.1//EN"
 "http://www.w3.org/Graphics/SVG/1.1/DTD/svg11.dtd">
<!-- Generated by graphviz version 2.40.1 (20161225.0304)
 -->
<!-- Title: src/nuspell/regress.cxx Pages: 1 -->
<svg width="2505pt" height="352pt"
 viewBox="0.00 0.00 2505.00 352.00" xmlns="http://www.w3.org/2000/svg" xmlns:xlink="http://www.w3.org/1999/xlink">
<g id="graph0" class="graph" transform="scale(1 1) rotate(0) translate(4 348)">
<title>src/nuspell/regress.cxx</title>
<polygon fill="#ffffff" stroke="transparent" points="-4,4 -4,-348 2501,-348 2501,4 -4,4"/>
<!-- Node0 -->
<g id="node1" class="node">
<title>Node0</title>
<polygon fill="#bfbfbf" stroke="#000000" points="1469,-324.5 1469,-343.5 1587,-343.5 1587,-324.5 1469,-324.5"/>
<text text-anchor="middle" x="1528" y="-331.5" font-family="Helvetica,sans-Serif" font-size="10.00" fill="#000000">src/nuspell/regress.cxx</text>
</g>
<!-- Node1 -->
<g id="node2" class="node">
<title>Node1</title>
<g id="a_node2"><a xlink:href="dictionary_8hxx.html" target="_top" xlink:title="Dictionary spelling. ">
<polygon fill="#ffffff" stroke="#000000" points="1243.5,-252 1243.5,-271 1320.5,-271 1320.5,-252 1243.5,-252"/>
<text text-anchor="middle" x="1282" y="-259" font-family="Helvetica,sans-Serif" font-size="10.00" fill="#000000">dictionary.hxx</text>
</a>
</g>
</g>
<!-- Node0&#45;&gt;Node1 -->
<g id="edge1" class="edge">
<title>Node0&#45;&gt;Node1</title>
<path fill="none" stroke="#191970" d="M1474.517,-324.488C1435.4785,-316.7546 1381.6323,-304.4342 1336,-288 1326.6199,-284.6218 1316.726,-280.0778 1308.0061,-275.7074"/>
<polygon fill="#191970" stroke="#191970" points="1309.5753,-272.5786 1299.0846,-271.0964 1306.3613,-278.7971 1309.5753,-272.5786"/>
</g>
<!-- Node4 -->
<g id="node5" class="node">
<title>Node4</title>
<polygon fill="#ffffff" stroke="#bfbfbf" points="1025.5,-.5 1025.5,-19.5 1066.5,-19.5 1066.5,-.5 1025.5,-.5"/>
<text text-anchor="middle" x="1046" y="-7.5" font-family="Helvetica,sans-Serif" font-size="10.00" fill="#000000">string</text>
</g>
<!-- Node0&#45;&gt;Node4 -->
<g id="edge47" class="edge">
<title>Node0&#45;&gt;Node4</title>
<path fill="none" stroke="#191970" d="M1468.8459,-333.0783C1229.1436,-327.9564 335.0754,-294.9744 171,-87 162.4664,-76.1832 161.5168,-65.9948 171,-56 200.6523,-24.7479 863.1564,-12.7835 1015.1274,-10.4451"/>
<polygon fill="#191970" stroke="#191970" points="1015.2254,-13.9442 1025.1713,-10.2933 1015.1195,-6.945 1015.2254,-13.9442"/>
</g>
<!-- Node5 -->
<g id="node6" class="node">
<title>Node5</title>
<polygon fill="#ffffff" stroke="#bfbfbf" points="1314.5,-123.5 1314.5,-142.5 1397.5,-142.5 1397.5,-123.5 1314.5,-123.5"/>
<text text-anchor="middle" x="1356" y="-130.5" font-family="Helvetica,sans-Serif" font-size="10.00" fill="#000000">unordered_map</text>
</g>
<!-- Node0&#45;&gt;Node5 -->
<g id="edge48" class="edge">
<title>Node0&#45;&gt;Node5</title>
<path fill="none" stroke="#191970" d="M1479.3122,-324.4804C1456.2737,-317.7497 1429.9466,-306.5087 1412,-288 1402.2143,-277.9079 1374.4513,-191.9665 1362.079,-152.5777"/>
<polygon fill="#191970" stroke="#191970" points="1365.3484,-151.3053 1359.0253,-142.8042 1358.667,-153.3929 1365.3484,-151.3053"/>
</g>
<!-- Node7 -->
<g id="node8" class="node">
<title>Node7</title>
<polygon fill="#ffffff" stroke="#bfbfbf" points="140,-.5 140,-19.5 184,-19.5 184,-.5 140,-.5"/>
<text text-anchor="middle" x="162" y="-7.5" font-family="Helvetica,sans-Serif" font-size="10.00" fill="#000000">vector</text>
</g>
<!-- Node0&#45;&gt;Node7 -->
<g id="edge56" class="edge">
<title>Node0&#45;&gt;Node7</title>
<path fill="none" stroke="#191970" d="M1468.8459,-333.2824C1207.4133,-329.9593 165.7726,-315.0649 102,-288 43.8453,-263.3193 0,-252.1752 0,-189 0,-189 0,-189 0,-133 0,-68.3532 82.8432,-33.2657 130.0462,-18.5203"/>
<polygon fill="#191970" stroke="#191970" points="131.2362,-21.8176 139.8143,-15.5993 129.2307,-15.111 131.2362,-21.8176"/>
</g>
<!-- Node9 -->
<g id="node10" class="node">
<title>Node9</title>
<polygon fill="#ffffff" stroke="#bfbfbf" points="1425,-62 1425,-81 1467,-81 1467,-62 1425,-62"/>
<text text-anchor="middle" x="1446" y="-69" font-family="Helvetica,sans-Serif" font-size="10.00" fill="#000000">locale</text>
</g>
<!-- Node0&#45;&gt;Node9 -->
<g id="edge46" class="edge">
<title>Node0&#45;&gt;Node9</title>
<path fill="none" stroke="#191970" d="M1512.0058,-324.3371C1499.9229,-316.1768 1483.9417,-303.3775 1475,-288 1437.7912,-224.0103 1440.464,-131.7372 1443.8332,-91.5118"/>
<polygon fill="#191970" stroke="#191970" points="1447.3318,-91.6909 1444.7915,-81.4051 1440.3631,-91.03 1447.3318,-91.6909"/>
</g>
<!-- Node15 -->
<g id="node16" class="node">
<title>Node15</title>
<polygon fill="#ffffff" stroke="#bfbfbf" points="1523,-62 1523,-81 1579,-81 1579,-62 1523,-62"/>
<text text-anchor="middle" x="1551" y="-69" font-family="Helvetica,sans-Serif" font-size="10.00" fill="#000000">algorithm</text>
</g>
<!-- Node0&#45;&gt;Node15 -->
<g id="edge55" class="edge">
<title>Node0&#45;&gt;Node15</title>
<path fill="none" stroke="#191970" d="M1526.3414,-324.1657C1524.8641,-314.8764 1522.8142,-300.5375 1522,-288 1520.4735,-264.494 1518.8841,-258.3486 1522,-235 1527.6048,-193.0007 1540.224,-184.8263 1547,-143 1549.7925,-125.7628 1550.7249,-105.9175 1550.9976,-91.5145"/>
<polygon fill="#191970" stroke="#191970" points="1554.4996,-91.3181 1551.0979,-81.2842 1547.5,-91.2494 1554.4996,-91.3181"/>
</g>
<!-- Node23 -->
<g id="node24" class="node">
<title>Node23</title>
<polygon fill="#ffffff" stroke="#bfbfbf" points="1310,-179.5 1310,-198.5 1360,-198.5 1360,-179.5 1310,-179.5"/>
<text text-anchor="middle" x="1335" y="-186.5" font-family="Helvetica,sans-Serif" font-size="10.00" fill="#000000">fstream</text>
</g>
<!-- Node0&#45;&gt;Node23 -->
<g id="edge43" class="edge">
<title>Node0&#45;&gt;Node23</title>
<path fill="none" stroke="#191970" d="M1480.1357,-324.4952C1440.9814,-315.8718 1389.6189,-302.3446 1374,-288 1351.1871,-267.0484 1341.5273,-231.0727 1337.5772,-208.7414"/>
<polygon fill="#191970" stroke="#191970" points="1341.0161,-208.0767 1336.0282,-198.7295 1334.0984,-209.1471 1341.0161,-208.0767"/>
</g>
<!-- Node24 -->
<g id="node25" class="node">
<title>Node24</title>
<g id="a_node25"><a xlink:href="finder_8hxx.html" target="_top" xlink:title="Finding dictionaries. ">
<polygon fill="#ffffff" stroke="#000000" points="66.5,-123.5 66.5,-142.5 125.5,-142.5 125.5,-123.5 66.5,-123.5"/>
<text text-anchor="middle" x="96" y="-130.5" font-family="Helvetica,sans-Serif" font-size="10.00" fill="#000000">finder.hxx</text>
</a>
</g>
</g>
<!-- Node0&#45;&gt;Node24 -->
<g id="edge32" class="edge">
<title>Node0&#45;&gt;Node24</title>
<path fill="none" stroke="#191970" d="M1468.7314,-332.9827C1207.0087,-328.3732 166.5602,-308.7699 140,-288 98.4254,-255.4889 94.2323,-186.708 94.9024,-152.778"/>
<polygon fill="#191970" stroke="#191970" points="98.4027,-152.8309 95.2692,-142.7101 91.4074,-152.576 98.4027,-152.8309"/>
</g>
<!-- Node25 -->
<g id="node26" class="node">
<title>Node25</title>
<g id="a_node26"><a xlink:href="string__utils_8hxx.html" target="_top" xlink:title="String algorithms. ">
<polygon fill="#ffffff" stroke="#000000" points="1454.5,-123.5 1454.5,-142.5 1537.5,-142.5 1537.5,-123.5 1454.5,-123.5"/>
<text text-anchor="middle" x="1496" y="-130.5" font-family="Helvetica,sans-Serif" font-size="10.00" fill="#000000">string_utils.hxx</text>
</a>
</g>
</g>
<!-- Node0&#45;&gt;Node25 -->
<g id="edge36" class="edge">
<title>Node0&#45;&gt;Node25</title>
<path fill="none" stroke="#191970" d="M1515.5788,-324.18C1505.9984,-315.7529 1493.4865,-302.6707 1488,-288 1470.7673,-241.9202 1482.1844,-182.7278 1490.1508,-152.5649"/>
<polygon fill="#191970" stroke="#191970" points="1493.5467,-153.4169 1492.8702,-142.8437 1486.8055,-151.5311 1493.5467,-153.4169"/>
</g>
<!-- Node26 -->
<g id="node27" class="node">
<title>Node26</title>
<polygon fill="#ffffff" stroke="#bfbfbf" points="1530.5,-252 1530.5,-271 1577.5,-271 1577.5,-252 1530.5,-252"/>
<text text-anchor="middle" x="1554" y="-259" font-family="Helvetica,sans-Serif" font-size="10.00" fill="#000000">clocale</text>
</g>
<!-- Node0&#45;&gt;Node26 -->
<g id="edge42" class="edge">
<title>Node0&#45;&gt;Node26</title>
<path fill="none" stroke="#191970" d="M1531.5065,-324.2223C1535.4829,-313.1343 1542.0649,-294.7806 1547.0843,-280.7841"/>
<polygon fill="#191970" stroke="#191970" points="1550.4679,-281.7173 1550.5491,-271.1228 1543.8788,-279.3543 1550.4679,-281.7173"/>
</g>
<!-- Node27 -->
<g id="node28" class="node">
<title>Node27</title>
<polygon fill="#ffffff" stroke="#bfbfbf" points="1596,-252 1596,-271 1646,-271 1646,-252 1596,-252"/>
<text text-anchor="middle" x="1621" y="-259" font-family="Helvetica,sans-Serif" font-size="10.00" fill="#000000">iomanip</text>
</g>
<!-- Node0&#45;&gt;Node27 -->
<g id="edge44" class="edge">
<title>Node0&#45;&gt;Node27</title>
<path fill="none" stroke="#191970" d="M1540.5424,-324.2223C1555.8812,-312.2646 1582.0595,-291.8569 1600.3773,-277.5768"/>
<polygon fill="#191970" stroke="#191970" points="1602.9215,-280.0313 1608.6563,-271.1228 1598.6177,-274.5107 1602.9215,-280.0313"/>
</g>
<!-- Node28 -->
<g id="node29" class="node">
<title>Node28</title>
<polygon fill="#ffffff" stroke="#bfbfbf" points="1664,-252 1664,-271 1718,-271 1718,-252 1664,-252"/>
<text text-anchor="middle" x="1691" y="-259" font-family="Helvetica,sans-Serif" font-size="10.00" fill="#000000">iostream</text>
</g>
<!-- Node0&#45;&gt;Node28 -->
<g id="edge45" class="edge">
<title>Node0&#45;&gt;Node28</title>
<path fill="none" stroke="#191970" d="M1562.5563,-324.4333C1588.76,-316.4873 1625.2213,-303.923 1655,-288 1660.6119,-284.9993 1666.3223,-281.202 1671.4923,-277.4263"/>
<polygon fill="#191970" stroke="#191970" points="1673.761,-280.0973 1679.57,-271.2369 1669.5035,-274.5408 1673.761,-280.0973"/>
</g>
<!-- Node29 -->
<g id="node30" class="node">
<title>Node29</title>
<polygon fill="#ffffff" stroke="#bfbfbf" points="1736,-252 1736,-271 1824,-271 1824,-252 1736,-252"/>
<text text-anchor="middle" x="1780" y="-259" font-family="Helvetica,sans-Serif" font-size="10.00" fill="#000000">boost/locale.hpp</text>
</g>
<!-- Node0&#45;&gt;Node29 -->
<g id="edge49" class="edge">
<title>Node0&#45;&gt;Node29</title>
<path fill="none" stroke="#191970" d="M1585.2093,-324.4967C1625.5461,-316.9027 1680.4554,-304.7482 1727,-288 1736.1429,-284.7101 1745.754,-280.2404 1754.2432,-275.9094"/>
<polygon fill="#191970" stroke="#191970" points="1756.0551,-278.9108 1763.2663,-271.1487 1752.7885,-272.7196 1756.0551,-278.9108"/>
</g>
<!-- Node30 -->
<g id="node31" class="node">
<title>Node30</title>
<polygon fill="#ffffff" stroke="#bfbfbf" points="1842.5,-252 1842.5,-271 1961.5,-271 1961.5,-252 1842.5,-252"/>
<text text-anchor="middle" x="1902" y="-259" font-family="Helvetica,sans-Serif" font-size="10.00" fill="#000000">../hunspell/hunspell.hxx</text>
</g>
<!-- Node0&#45;&gt;Node30 -->
<g id="edge50" class="edge">
<title>Node0&#45;&gt;Node30</title>
<path fill="none" stroke="#191970" d="M1587.2412,-328.9079C1649.2659,-322.6874 1749.1241,-310.1503 1833,-288 1845.7946,-284.6211 1859.478,-279.6643 1871.2578,-274.949"/>
<polygon fill="#191970" stroke="#191970" points="1872.7292,-278.1283 1880.6438,-271.085 1870.0643,-271.6554 1872.7292,-278.1283"/>
</g>
<!-- Node31 -->
<g id="node32" class="node">
<title>Node31</title>
<polygon fill="#ffffff" stroke="#bfbfbf" points="1979.5,-235.5 1979.5,-287.5 2118.5,-287.5 2118.5,-235.5 1979.5,-235.5"/>
<text text-anchor="start" x="1987.5" y="-275.5" font-family="Helvetica,sans-Serif" font-size="10.00" fill="#000000">/home/sander/workspace</text>
<text text-anchor="start" x="1987.5" y="-264.5" font-family="Helvetica,sans-Serif" font-size="10.00" fill="#000000">/nuspell.github.io/tmp</text>
<text text-anchor="start" x="1987.5" y="-253.5" font-family="Helvetica,sans-Serif" font-size="10.00" fill="#000000">/nuspell&#45;master/src/hunspell</text>
<text text-anchor="middle" x="2049" y="-242.5" font-family="Helvetica,sans-Serif" font-size="10.00" fill="#000000">/hunvisapi.h</text>
</g>
<!-- Node0&#45;&gt;Node31 -->
<g id="edge51" class="edge">
<title>Node0&#45;&gt;Node31</title>
<path fill="none" stroke="#191970" d="M1587.0696,-332.0667C1670.6187,-328.4106 1828.0065,-318.1335 1969.3315,-288.1721"/>
<polygon fill="#191970" stroke="#191970" points="1970.4422,-291.513 1979.4779,-285.9807 1968.9643,-284.6708 1970.4422,-291.513"/>
</g>
<!-- Node32 -->
<g id="node33" class="node">
<title>Node32</title>
<polygon fill="#ffffff" stroke="#bfbfbf" points="2136.5,-235.5 2136.5,-287.5 2275.5,-287.5 2275.5,-235.5 2136.5,-235.5"/>
<text text-anchor="start" x="2144.5" y="-275.5" font-family="Helvetica,sans-Serif" font-size="10.00" fill="#000000">/home/sander/workspace</text>
<text text-anchor="start" x="2144.5" y="-264.5" font-family="Helvetica,sans-Serif" font-size="10.00" fill="#000000">/nuspell.github.io/tmp</text>
<text text-anchor="start" x="2144.5" y="-253.5" font-family="Helvetica,sans-Serif" font-size="10.00" fill="#000000">/nuspell&#45;master/src/hunspell</text>
<text text-anchor="middle" x="2206" y="-242.5" font-family="Helvetica,sans-Serif" font-size="10.00" fill="#000000">/w_char.hxx</text>
</g>
<!-- Node0&#45;&gt;Node32 -->
<g id="edge52" class="edge">
<title>Node0&#45;&gt;Node32</title>
<path fill="none" stroke="#191970" d="M1587.3681,-331.3456C1714.0897,-325.38 2008.4773,-309.8488 2126.6253,-288.003"/>
<polygon fill="#191970" stroke="#191970" points="2127.3535,-291.427 2136.4982,-286.0768 2126.013,-284.5565 2127.3535,-291.427"/>
</g>
<!-- Node33 -->
<g id="node34" class="node">
<title>Node33</title>
<polygon fill="#ffffff" stroke="#bfbfbf" points="2293.5,-235.5 2293.5,-287.5 2432.5,-287.5 2432.5,-235.5 2293.5,-235.5"/>
<text text-anchor="start" x="2301.5" y="-275.5" font-family="Helvetica,sans-Serif" font-size="10.00" fill="#000000">/home/sander/workspace</text>
<text text-anchor="start" x="2301.5" y="-264.5" font-family="Helvetica,sans-Serif" font-size="10.00" fill="#000000">/nuspell.github.io/tmp</text>
<text text-anchor="start" x="2301.5" y="-253.5" font-family="Helvetica,sans-Serif" font-size="10.00" fill="#000000">/nuspell&#45;master/src/hunspell</text>
<text text-anchor="middle" x="2363" y="-242.5" font-family="Helvetica,sans-Serif" font-size="10.00" fill="#000000">/atypes.hxx</text>
</g>
<!-- Node0&#45;&gt;Node33 -->
<g id="edge53" class="edge">
<title>Node0&#45;&gt;Node33</title>
<path fill="none" stroke="#191970" d="M1587.0009,-332.4467C1737.4024,-328.1694 2133.2856,-314.839 2283.1464,-288.1005"/>
<polygon fill="#191970" stroke="#191970" points="2283.8981,-291.5206 2293.0809,-286.2361 2282.6069,-284.6407 2283.8981,-291.5206"/>
</g>
<!-- Node34 -->
<g id="node35" class="node">
<title>Node34</title>
<polygon fill="#ffffff" stroke="#bfbfbf" points="2451,-252 2451,-271 2497,-271 2497,-252 2451,-252"/>
<text text-anchor="middle" x="2474" y="-259" font-family="Helvetica,sans-Serif" font-size="10.00" fill="#000000">stdio.h</text>
</g>
<!-- Node0&#45;&gt;Node34 -->
<g id="edge54" class="edge">
<title>Node0&#45;&gt;Node34</title>
<path fill="none" stroke="#191970" d="M1587.0032,-333.1852C1776.6266,-330.2689 2362.7344,-318.8328 2442,-288 2447.7142,-285.7773 2453.1616,-282.1091 2457.8895,-278.2004"/>
<polygon fill="#191970" stroke="#191970" points="2460.5422,-280.5154 2465.5247,-271.1652 2455.7989,-275.3675 2460.5422,-280.5154"/>
</g>
<!-- Node2 -->
<g id="node3" class="node">
<title>Node2</title>
<g id="a_node3"><a xlink:href="aff__data_8hxx.html" target="_top" xlink:title="Affixing data structures. ">
<polygon fill="#ffffff" stroke="#000000" points="1071.5,-179.5 1071.5,-198.5 1142.5,-198.5 1142.5,-179.5 1071.5,-179.5"/>
<text text-anchor="middle" x="1107" y="-186.5" font-family="Helvetica,sans-Serif" font-size="10.00" fill="#000000">aff_data.hxx</text>
</a>
</g>
</g>
<!-- Node1&#45;&gt;Node2 -->
<g id="edge2" class="edge">
<title>Node1&#45;&gt;Node2</title>
<path fill="none" stroke="#191970" d="M1258.7614,-251.8726C1228.2127,-239.2167 1174.3739,-216.9121 1139.7175,-202.5544"/>
<polygon fill="#191970" stroke="#191970" points="1140.6342,-199.1458 1130.056,-198.5518 1137.955,-205.6127 1140.6342,-199.1458"/>
</g>
<!-- Node8 -->
<g id="node9" class="node">
<title>Node8</title>
<g id="a_node9"><a xlink:href="locale__utils_8hxx.html" target="_top" xlink:title="Encoding transformations. ">
<polygon fill="#ffffff" stroke="#000000" points="1174,-123.5 1174,-142.5 1258,-142.5 1258,-123.5 1174,-123.5"/>
<text text-anchor="middle" x="1216" y="-130.5" font-family="Helvetica,sans-Serif" font-size="10.00" fill="#000000">locale_utils.hxx</text>
</a>
</g>
</g>
<!-- Node1&#45;&gt;Node8 -->
<g id="edge29" class="edge">
<title>Node1&#45;&gt;Node8</title>
<path fill="none" stroke="#191970" d="M1277.0393,-251.8416C1266.1458,-230.6323 1239.9695,-179.6679 1225.6904,-151.8669"/>
<polygon fill="#191970" stroke="#191970" points="1228.7005,-150.0667 1221.0183,-142.7705 1222.4738,-153.2649 1228.7005,-150.0667"/>
</g>
<!-- Node1&#45;&gt;Node9 -->
<g id="edge31" class="edge">
<title>Node1&#45;&gt;Node9</title>
<path fill="none" stroke="#191970" d="M1280.5759,-251.7783C1277.5388,-227.1351 1273.0943,-161.455 1305,-123 1312.3096,-114.1899 1376.0067,-93.2131 1415.2451,-80.921"/>
<polygon fill="#191970" stroke="#191970" points="1416.3742,-84.2353 1424.8827,-77.9221 1414.2943,-77.5514 1416.3742,-84.2353"/>
</g>
<!-- Node1&#45;&gt;Node23 -->
<g id="edge30" class="edge">
<title>Node1&#45;&gt;Node23</title>
<path fill="none" stroke="#191970" d="M1289.1478,-251.7223C1297.492,-240.3082 1311.4646,-221.1946 1321.797,-207.0607"/>
<polygon fill="#191970" stroke="#191970" points="1324.8893,-208.7612 1327.9654,-198.6228 1319.2383,-204.6301 1324.8893,-208.7612"/>
</g>
<!-- Node3 -->
<g id="node4" class="node">
<title>Node3</title>
<polygon fill="#ffffff" stroke="#bfbfbf" points="1110.5,-123.5 1110.5,-142.5 1155.5,-142.5 1155.5,-123.5 1110.5,-123.5"/>
<text text-anchor="middle" x="1133" y="-130.5" font-family="Helvetica,sans-Serif" font-size="10.00" fill="#000000">iosfwd</text>
</g>
<!-- Node2&#45;&gt;Node3 -->
<g id="edge3" class="edge">
<title>Node2&#45;&gt;Node3</title>
<path fill="none" stroke="#191970" d="M1111.5289,-179.2455C1115.0334,-171.6973 1119.9927,-161.0158 1124.2623,-151.8197"/>
<polygon fill="#191970" stroke="#191970" points="1127.4864,-153.1867 1128.523,-142.6427 1121.1373,-150.2389 1127.4864,-153.1867"/>
</g>
<!-- Node2&#45;&gt;Node4 -->
<g id="edge4" class="edge">
<title>Node2&#45;&gt;Node4</title>
<path fill="none" stroke="#191970" d="M1103.7204,-179.3762C1094.0804,-151.0883 1065.6968,-67.7987 1052.6714,-29.5767"/>
<polygon fill="#191970" stroke="#191970" points="1055.8345,-28.0079 1049.2958,-19.6714 1049.2087,-30.2659 1055.8345,-28.0079"/>
</g>
<!-- Node2&#45;&gt;Node5 -->
<g id="edge5" class="edge">
<title>Node2&#45;&gt;Node5</title>
<path fill="none" stroke="#191970" d="M1142.6756,-180.9766C1184.984,-171.4614 1255.8478,-155.5242 1304.197,-144.6505"/>
<polygon fill="#191970" stroke="#191970" points="1305.1658,-148.0201 1314.1541,-142.4111 1303.6298,-141.1907 1305.1658,-148.0201"/>
</g>
<!-- Node6 -->
<g id="node7" class="node">
<title>Node6</title>
<polygon fill="#ffffff" stroke="#bfbfbf" points="180,-62 180,-81 220,-81 220,-62 180,-62"/>
<text text-anchor="middle" x="200" y="-69" font-family="Helvetica,sans-Serif" font-size="10.00" fill="#000000">utility</text>
</g>
<!-- Node2&#45;&gt;Node6 -->
<g id="edge6" class="edge">
<title>Node2&#45;&gt;Node6</title>
<path fill="none" stroke="#191970" d="M1071.0497,-186.9979C926.2041,-178.6018 385.5106,-143.9996 225,-87 224.1157,-86.686 223.2296,-86.3372 222.3464,-85.9602"/>
<polygon fill="#191970" stroke="#191970" points="223.6949,-82.7145 213.217,-81.1447 220.429,-88.906 223.6949,-82.7145"/>
</g>
<!-- Node2&#45;&gt;Node7 -->
<g id="edge7" class="edge">
<title>Node2&#45;&gt;Node7</title>
<path fill="none" stroke="#191970" d="M1071.3055,-188.8047C891.5736,-187.6505 92.8199,-180.4236 57,-143 35.4452,-120.4802 53.5026,-95.0174 88,-56 99.7538,-42.7062 116.2735,-31.9369 130.7234,-24.1698"/>
<polygon fill="#191970" stroke="#191970" points="132.5396,-27.1722 139.8494,-19.5029 129.3524,-20.9399 132.5396,-27.1722"/>
</g>
<!-- Node2&#45;&gt;Node8 -->
<g id="edge8" class="edge">
<title>Node2&#45;&gt;Node8</title>
<path fill="none" stroke="#191970" d="M1125.9864,-179.2455C1143.1792,-170.4125 1168.7238,-157.2887 1188.2132,-147.2758"/>
<polygon fill="#191970" stroke="#191970" points="1189.9359,-150.3257 1197.2312,-142.6427 1186.737,-144.0993 1189.9359,-150.3257"/>
</g>
<!-- Node12 -->
<g id="node13" class="node">
<title>Node12</title>
<g id="a_node13"><a xlink:href="structures_8hxx.html" target="_top" xlink:title="Data structures. ">
<polygon fill="#ffffff" stroke="#000000" points="671.5,-123.5 671.5,-142.5 750.5,-142.5 750.5,-123.5 671.5,-123.5"/>
<text text-anchor="middle" x="711" y="-130.5" font-family="Helvetica,sans-Serif" font-size="10.00" fill="#000000">structures.hxx</text>
</a>
</g>
</g>
<!-- Node2&#45;&gt;Node12 -->
<g id="edge13" class="edge">
<title>Node2&#45;&gt;Node12</title>
<path fill="none" stroke="#191970" d="M1071.1592,-183.9316C1000.1357,-173.8879 841.413,-151.4422 760.4907,-139.9987"/>
<polygon fill="#191970" stroke="#191970" points="760.9391,-136.5273 750.5475,-138.5926 759.9588,-143.4584 760.9391,-136.5273"/>
</g>
<!-- Node8&#45;&gt;Node4 -->
<g id="edge10" class="edge">
<title>Node8&#45;&gt;Node4</title>
<path fill="none" stroke="#191970" d="M1258.0499,-123.8107C1303.5441,-113.4465 1370.6194,-96.7681 1378,-87 1386.3059,-76.0073 1387.0492,-66.3894 1378,-56 1358.3347,-33.4222 1155.6901,-17.4149 1077.0016,-12.0069"/>
<polygon fill="#191970" stroke="#191970" points="1076.9662,-8.4967 1066.753,-11.3146 1076.4943,-15.4807 1076.9662,-8.4967"/>
</g>
<!-- Node8&#45;&gt;Node9 -->
<g id="edge9" class="edge">
<title>Node8&#45;&gt;Node9</title>
<path fill="none" stroke="#191970" d="M1258.0902,-125.4153C1298.0142,-117.674 1359.4012,-104.3447 1411,-87 1412.8898,-86.3648 1414.8173,-85.6655 1416.7477,-84.9261"/>
<polygon fill="#191970" stroke="#191970" points="1418.3523,-88.0504 1426.2634,-81.003 1415.6842,-81.5788 1418.3523,-88.0504"/>
</g>
<!-- Node10 -->
<g id="node11" class="node">
<title>Node10</title>
<polygon fill="#ffffff" stroke="#bfbfbf" points="1307,-62 1307,-81 1369,-81 1369,-62 1307,-62"/>
<text text-anchor="middle" x="1338" y="-69" font-family="Helvetica,sans-Serif" font-size="10.00" fill="#000000">type_traits</text>
</g>
<!-- Node8&#45;&gt;Node10 -->
<g id="edge11" class="edge">
<title>Node8&#45;&gt;Node10</title>
<path fill="none" stroke="#191970" d="M1235.0625,-123.3906C1255.1172,-113.2811 1286.8934,-97.2628 1309.8384,-85.6962"/>
<polygon fill="#191970" stroke="#191970" points="1311.7173,-88.6687 1319.0714,-81.0419 1308.5663,-82.418 1311.7173,-88.6687"/>
</g>
<!-- Node11 -->
<g id="node12" class="node">
<title>Node11</title>
<polygon fill="#ffffff" stroke="#bfbfbf" points="1112.5,-56.5 1112.5,-86.5 1223.5,-86.5 1223.5,-56.5 1112.5,-56.5"/>
<text text-anchor="start" x="1120.5" y="-74.5" font-family="Helvetica,sans-Serif" font-size="10.00" fill="#000000">boost/locale/encoding</text>
<text text-anchor="middle" x="1168" y="-63.5" font-family="Helvetica,sans-Serif" font-size="10.00" fill="#000000">_utf.hpp</text>
</g>
<!-- Node8&#45;&gt;Node11 -->
<g id="edge12" class="edge">
<title>Node8&#45;&gt;Node11</title>
<path fill="none" stroke="#191970" d="M1208.5,-123.3906C1202.485,-115.6839 1193.7899,-104.5434 1185.9972,-94.5589"/>
<polygon fill="#191970" stroke="#191970" points="1188.654,-92.2743 1179.7421,-86.5446 1183.1358,-96.5812 1188.654,-92.2743"/>
</g>
<!-- Node12&#45;&gt;Node4 -->
<g id="edge22" class="edge">
<title>Node12&#45;&gt;Node4</title>
<path fill="none" stroke="#191970" d="M750.7002,-129.6926C830.9969,-122.6518 1006.8022,-105.3211 1027,-87 1042.8028,-72.6656 1046.4362,-47.4734 1046.8425,-29.8193"/>
<polygon fill="#191970" stroke="#191970" points="1050.3416,-29.6981 1046.7488,-19.7311 1043.3419,-29.7632 1050.3416,-29.6981"/>
</g>
<!-- Node12&#45;&gt;Node6 -->
<g id="edge23" class="edge">
<title>Node12&#45;&gt;Node6</title>
<path fill="none" stroke="#191970" d="M671.1939,-130.8592C572.07,-125.2565 316.2674,-109.0556 234,-87 231.8108,-86.4131 229.5859,-85.6977 227.3758,-84.8998"/>
<polygon fill="#191970" stroke="#191970" points="228.5175,-81.5849 217.938,-81.0163 225.8538,-88.0583 228.5175,-81.5849"/>
</g>
<!-- Node12&#45;&gt;Node7 -->
<g id="edge24" class="edge">
<title>Node12&#45;&gt;Node7</title>
<path fill="none" stroke="#191970" d="M671.4779,-131.7944C576.847,-128.4483 339.7282,-117.2159 267,-87 246.8721,-78.6376 246.4436,-69.0684 229,-56 214.6872,-45.2772 198.123,-33.896 185.0455,-25.137"/>
<polygon fill="#191970" stroke="#191970" points="186.884,-22.1564 176.6193,-19.5323 183.0072,-27.9848 186.884,-22.1564"/>
</g>
<!-- Node13 -->
<g id="node14" class="node">
<title>Node13</title>
<g id="a_node14"><a xlink:href="condition_8hxx.html" target="_top" xlink:title="Condition matching. ">
<polygon fill="#ffffff" stroke="#000000" points="416,-62 416,-81 490,-81 490,-62 416,-62"/>
<text text-anchor="middle" x="453" y="-69" font-family="Helvetica,sans-Serif" font-size="10.00" fill="#000000">condition.hxx</text>
</a>
</g>
</g>
<!-- Node12&#45;&gt;Node13 -->
<g id="edge14" class="edge">
<title>Node12&#45;&gt;Node13</title>
<path fill="none" stroke="#191970" d="M671.2157,-125.7407C628.3701,-117.6045 558.3573,-103.3854 499,-87 495.8318,-86.1254 492.5614,-85.1576 489.2933,-84.1452"/>
<polygon fill="#191970" stroke="#191970" points="490.1926,-80.7579 479.6011,-81.0232 488.0463,-87.4207 490.1926,-80.7579"/>
</g>
<!-- Node12&#45;&gt;Node15 -->
<g id="edge18" class="edge">
<title>Node12&#45;&gt;Node15</title>
<path fill="none" stroke="#191970" d="M750.6059,-132.6222C864.0902,-131.1096 1200.0072,-123.6239 1476,-87 1488.0292,-85.4037 1501.0137,-82.9756 1512.7435,-80.5117"/>
<polygon fill="#191970" stroke="#191970" points="1513.6425,-83.8981 1522.6729,-78.3572 1512.1581,-77.0573 1513.6425,-83.8981"/>
</g>
<!-- Node16 -->
<g id="node17" class="node">
<title>Node16</title>
<polygon fill="#ffffff" stroke="#bfbfbf" points="276,-62 276,-81 320,-81 320,-62 276,-62"/>
<text text-anchor="middle" x="298" y="-69" font-family="Helvetica,sans-Serif" font-size="10.00" fill="#000000">cmath</text>
</g>
<!-- Node12&#45;&gt;Node16 -->
<g id="edge19" class="edge">
<title>Node12&#45;&gt;Node16</title>
<path fill="none" stroke="#191970" d="M671.4522,-129.9665C587.1937,-123.2226 392.4961,-106.0687 329,-87 327.336,-86.5003 325.6529,-85.9161 323.9763,-85.2728"/>
<polygon fill="#191970" stroke="#191970" points="325.1817,-81.9786 314.6217,-81.1199 322.3413,-88.3765 325.1817,-81.9786"/>
</g>
<!-- Node17 -->
<g id="node18" class="node">
<title>Node17</title>
<polygon fill="#ffffff" stroke="#bfbfbf" points="1241.5,-62 1241.5,-81 1288.5,-81 1288.5,-62 1241.5,-62"/>
<text text-anchor="middle" x="1265" y="-69" font-family="Helvetica,sans-Serif" font-size="10.00" fill="#000000">iterator</text>
</g>
<!-- Node12&#45;&gt;Node17 -->
<g id="edge20" class="edge">
<title>Node12&#45;&gt;Node17</title>
<path fill="none" stroke="#191970" d="M750.6011,-131.2981C855.9353,-126.4858 1141.155,-111.5161 1232,-87 1233.9708,-86.4681 1235.9688,-85.8243 1237.9558,-85.1051"/>
<polygon fill="#191970" stroke="#191970" points="1239.7546,-88.1462 1247.6231,-81.0513 1237.0475,-81.6908 1239.7546,-88.1462"/>
</g>
<!-- Node18 -->
<g id="node19" class="node">
<title>Node18</title>
<polygon fill="#ffffff" stroke="#bfbfbf" points="338.5,-62 338.5,-81 397.5,-81 397.5,-62 338.5,-62"/>
<text text-anchor="middle" x="368" y="-69" font-family="Helvetica,sans-Serif" font-size="10.00" fill="#000000">stdexcept</text>
</g>
<!-- Node12&#45;&gt;Node18 -->
<g id="edge21" class="edge">
<title>Node12&#45;&gt;Node18</title>
<path fill="none" stroke="#191970" d="M671.052,-129.8795C612.3613,-124.6411 499.7467,-112.0937 407,-87 404.3868,-86.293 401.7105,-85.4646 399.0446,-84.5651"/>
<polygon fill="#191970" stroke="#191970" points="400.16,-81.2462 389.5664,-81.0853 397.7474,-87.8174 400.16,-81.2462"/>
</g>
<!-- Node19 -->
<g id="node20" class="node">
<title>Node19</title>
<polygon fill="#ffffff" stroke="#bfbfbf" points="508,-56.5 508,-86.5 618,-86.5 618,-56.5 508,-56.5"/>
<text text-anchor="start" x="516" y="-74.5" font-family="Helvetica,sans-Serif" font-size="10.00" fill="#000000">boost/container/small</text>
<text text-anchor="middle" x="563" y="-63.5" font-family="Helvetica,sans-Serif" font-size="10.00" fill="#000000">_vector.hpp</text>
</g>
<!-- Node12&#45;&gt;Node19 -->
<g id="edge25" class="edge">
<title>Node12&#45;&gt;Node19</title>
<path fill="none" stroke="#191970" d="M687.875,-123.3906C666.7322,-114.6049 634.8503,-101.3567 608.5936,-90.446"/>
<polygon fill="#191970" stroke="#191970" points="609.7824,-87.1499 599.2049,-86.5446 607.0963,-93.614 609.7824,-87.1499"/>
</g>
<!-- Node20 -->
<g id="node21" class="node">
<title>Node20</title>
<polygon fill="#ffffff" stroke="#bfbfbf" points="636,-62 636,-81 786,-81 786,-62 636,-62"/>
<text text-anchor="middle" x="711" y="-69" font-family="Helvetica,sans-Serif" font-size="10.00" fill="#000000">boost/multi_index/member.hpp</text>
</g>
<!-- Node12&#45;&gt;Node20 -->
<g id="edge26" class="edge">
<title>Node12&#45;&gt;Node20</title>
<path fill="none" stroke="#191970" d="M711,-123.3906C711,-114.8657 711,-102.1392 711,-91.4235"/>
<polygon fill="#191970" stroke="#191970" points="714.5001,-91.2448 711,-81.2449 707.5001,-91.2449 714.5001,-91.2448"/>
</g>
<!-- Node21 -->
<g id="node22" class="node">
<title>Node21</title>
<polygon fill="#ffffff" stroke="#bfbfbf" points="804.5,-56.5 804.5,-86.5 905.5,-86.5 905.5,-56.5 804.5,-56.5"/>
<text text-anchor="start" x="812.5" y="-74.5" font-family="Helvetica,sans-Serif" font-size="10.00" fill="#000000">boost/range/iterator</text>
<text text-anchor="middle" x="855" y="-63.5" font-family="Helvetica,sans-Serif" font-size="10.00" fill="#000000">_range_core.hpp</text>
</g>
<!-- Node12&#45;&gt;Node21 -->
<g id="edge27" class="edge">
<title>Node12&#45;&gt;Node21</title>
<path fill="none" stroke="#191970" d="M733.5,-123.3906C753.9811,-114.6435 784.8197,-101.4728 810.3022,-90.5897"/>
<polygon fill="#191970" stroke="#191970" points="811.9519,-93.691 819.7736,-86.5446 809.2025,-87.2535 811.9519,-93.691"/>
</g>
<!-- Node22 -->
<g id="node23" class="node">
<title>Node22</title>
<polygon fill="#ffffff" stroke="#bfbfbf" points="924,-56.5 924,-86.5 1018,-86.5 1018,-56.5 924,-56.5"/>
<text text-anchor="start" x="932" y="-74.5" font-family="Helvetica,sans-Serif" font-size="10.00" fill="#000000">boost/utility/string</text>
<text text-anchor="middle" x="971" y="-63.5" font-family="Helvetica,sans-Serif" font-size="10.00" fill="#000000">_view.hpp</text>
</g>
<!-- Node12&#45;&gt;Node22 -->
<g id="edge28" class="edge">
<title>Node12&#45;&gt;Node22</title>
<path fill="none" stroke="#191970" d="M750.7947,-124.5083C791.8093,-115.6331 857.5459,-101.0653 914,-87 914.0995,-86.9752 914.1991,-86.9504 914.2988,-86.9255"/>
<polygon fill="#191970" stroke="#191970" points="914.9383,-90.3745 923.7632,-84.5117 913.2084,-83.5916 914.9383,-90.3745"/>
</g>
<!-- Node13&#45;&gt;Node4 -->
<g id="edge15" class="edge">
<title>Node13&#45;&gt;Node4</title>
<path fill="none" stroke="#191970" d="M478.0053,-61.8577C484.7332,-59.6001 492.0685,-57.4372 499,-56 599.0513,-35.2544 915.2881,-16.9879 1015.3374,-11.6034"/>
<polygon fill="#191970" stroke="#191970" points="1015.5929,-15.0948 1025.392,-11.0666 1015.2196,-8.1048 1015.5929,-15.0948"/>
</g>
<!-- Node13&#45;&gt;Node7 -->
<g id="edge17" class="edge">
<title>Node13&#45;&gt;Node7</title>
<path fill="none" stroke="#191970" d="M425.8428,-61.8678C419.3875,-59.7667 412.4893,-57.6739 406,-56 331.068,-36.6713 241.2433,-21.8309 194.259,-14.6886"/>
<polygon fill="#191970" stroke="#191970" points="194.4955,-11.1849 184.0867,-13.1612 193.4561,-18.1074 194.4955,-11.1849"/>
</g>
<!-- Node14 -->
<g id="node15" class="node">
<title>Node14</title>
<polygon fill="#ffffff" stroke="#bfbfbf" points="434,-.5 434,-19.5 472,-19.5 472,-.5 434,-.5"/>
<text text-anchor="middle" x="453" y="-7.5" font-family="Helvetica,sans-Serif" font-size="10.00" fill="#000000">tuple</text>
</g>
<!-- Node13&#45;&gt;Node14 -->
<g id="edge16" class="edge">
<title>Node13&#45;&gt;Node14</title>
<path fill="none" stroke="#191970" d="M453,-61.8906C453,-53.3657 453,-40.6392 453,-29.9235"/>
<polygon fill="#191970" stroke="#191970" points="456.5001,-29.7448 453,-19.7449 449.5001,-29.7449 456.5001,-29.7448"/>
</g>
<!-- Node24&#45;&gt;Node4 -->
<g id="edge33" class="edge">
<title>Node24&#45;&gt;Node4</title>
<path fill="none" stroke="#191970" d="M98.0507,-123.3545C102.2334,-106.3522 113.5031,-71.3936 138,-56 175.9302,-32.165 860.8313,-14.4247 1015.2474,-10.7173"/>
<polygon fill="#191970" stroke="#191970" points="1015.5186,-14.2119 1025.4324,-10.4747 1015.3519,-7.2139 1015.5186,-14.2119"/>
</g>
<!-- Node24&#45;&gt;Node6 -->
<g id="edge34" class="edge">
<title>Node24&#45;&gt;Node6</title>
<path fill="none" stroke="#191970" d="M112.25,-123.3906C129.1169,-113.4165 155.7099,-97.6908 175.2035,-86.1633"/>
<polygon fill="#191970" stroke="#191970" points="177.038,-89.1447 183.8641,-81.0419 173.4749,-83.1194 177.038,-89.1447"/>
</g>
<!-- Node24&#45;&gt;Node7 -->
<g id="edge35" class="edge">
<title>Node24&#45;&gt;Node7</title>
<path fill="none" stroke="#191970" d="M94.0092,-123.3047C91.3865,-107.9884 88.3608,-77.7068 100,-56 107.066,-42.8222 119.748,-32.3939 131.8094,-24.8213"/>
<polygon fill="#191970" stroke="#191970" points="133.9228,-27.6412 140.8084,-19.589 130.4042,-21.5897 133.9228,-27.6412"/>
</g>
<!-- Node25&#45;&gt;Node4 -->
<g id="edge40" class="edge">
<title>Node25&#45;&gt;Node4</title>
<path fill="none" stroke="#191970" d="M1536.2925,-123.4495C1555.4658,-116.6623 1576.6402,-105.3805 1588,-87 1595.2434,-75.2799 1597.3213,-66.1459 1588,-56 1553.2586,-18.1852 1186.2917,-11.4215 1076.7207,-10.2424"/>
<polygon fill="#191970" stroke="#191970" points="1076.6871,-6.742 1066.6527,-10.1423 1076.6174,-13.7417 1076.6871,-6.742"/>
</g>
<!-- Node25&#45;&gt;Node7 -->
<g id="edge41" class="edge">
<title>Node25&#45;&gt;Node7</title>
<path fill="none" stroke="#191970" d="M1496.7935,-123.2919C1497.5647,-106.5129 1496.3721,-72.3216 1476,-56 1430.4053,-19.4708 483.385,-22.1099 425,-20 341.8315,-16.9945 243.8794,-13.2038 194.2786,-11.2665"/>
<polygon fill="#191970" stroke="#191970" points="194.2952,-7.7645 184.1661,-10.871 194.0216,-14.7592 194.2952,-7.7645"/>
</g>
<!-- Node25&#45;&gt;Node9 -->
<g id="edge39" class="edge">
<title>Node25&#45;&gt;Node9</title>
<path fill="none" stroke="#191970" d="M1488.1875,-123.3906C1480.746,-114.2376 1469.3666,-100.2409 1460.3008,-89.09"/>
<polygon fill="#191970" stroke="#191970" points="1462.9467,-86.7962 1453.9226,-81.2449 1457.5153,-91.212 1462.9467,-86.7962"/>
</g>
<!-- Node25&#45;&gt;Node15 -->
<g id="edge37" class="edge">
<title>Node25&#45;&gt;Node15</title>
<path fill="none" stroke="#191970" d="M1504.5938,-123.3906C1512.8597,-114.1478 1525.5426,-99.966 1535.5617,-88.7628"/>
<polygon fill="#191970" stroke="#191970" points="1538.2278,-91.0321 1542.2851,-81.2449 1533.01,-86.3657 1538.2278,-91.0321"/>
</g>
<!-- Node25&#45;&gt;Node17 -->
<g id="edge38" class="edge">
<title>Node25&#45;&gt;Node17</title>
<path fill="none" stroke="#191970" d="M1454.3289,-125.967C1413.7579,-118.5049 1350.6833,-105.263 1298,-87 1296.3554,-86.4299 1294.6833,-85.8034 1293.0086,-85.1392"/>
<polygon fill="#191970" stroke="#191970" points="1294.1298,-81.8108 1283.562,-81.0533 1291.3508,-88.2356 1294.1298,-81.8108"/>
</g>
</g>
</svg>
