<?xml version="1.0" encoding="UTF-8" standalone="no"?>
<!DOCTYPE svg PUBLIC "-//W3C//DTD SVG 1.1//EN"
 "http://www.w3.org/Graphics/SVG/1.1/DTD/svg11.dtd">
<!-- Generated by graphviz version 2.40.1 (20161225.0304)
 -->
<!-- Title: src/nuspell/string_utils.hxx Pages: 1 -->
<svg width="137pt" height="207pt"
 viewBox="0.00 0.00 137.00 207.00" xmlns="http://www.w3.org/2000/svg" xmlns:xlink="http://www.w3.org/1999/xlink">
<g id="graph0" class="graph" transform="scale(1 1) rotate(0) translate(4 203)">
<title>src/nuspell/string_utils.hxx</title>
<polygon fill="#ffffff" stroke="transparent" points="-4,4 -4,-203 133,-203 133,4 -4,4"/>
<!-- Node9 -->
<g id="node1" class="node">
<title>Node9</title>
<polygon fill="#bfbfbf" stroke="#000000" points="19,-168.5 19,-198.5 110,-198.5 110,-168.5 19,-168.5"/>
<text text-anchor="start" x="27" y="-186.5" font-family="Helvetica,sans-Serif" font-size="10.00" fill="#000000">src/nuspell/string</text>
<text text-anchor="middle" x="64.5" y="-175.5" font-family="Helvetica,sans-Serif" font-size="10.00" fill="#000000">_utils.hxx</text>
</g>
<!-- Node10 -->
<g id="node2" class="node">
<title>Node10</title>
<g id="a_node2"><a xlink:href="structures_8hxx.html" target="_top" xlink:title="Data structures, private header. ">
<polygon fill="#ffffff" stroke="#000000" points="0,-112.5 0,-131.5 129,-131.5 129,-112.5 0,-112.5"/>
<text text-anchor="middle" x="64.5" y="-119.5" font-family="Helvetica,sans-Serif" font-size="10.00" fill="#000000">src/nuspell/structures.hxx</text>
</a>
</g>
</g>
<!-- Node9&#45;&gt;Node10 -->
<g id="edge1" class="edge">
<title>Node9&#45;&gt;Node10</title>
<path fill="none" stroke="#191970" d="M64.5,-158.2849C64.5,-148.9858 64.5,-138.9883 64.5,-131.8469"/>
<polygon fill="#191970" stroke="#191970" points="61.0001,-158.2977 64.5,-168.2977 68.0001,-158.2978 61.0001,-158.2977"/>
</g>
<!-- Node11 -->
<g id="node3" class="node">
<title>Node11</title>
<g id="a_node3"><a xlink:href="aff__data_8hxx.html" target="_top" xlink:title="Affixing data structures, private header. ">
<polygon fill="#ffffff" stroke="#000000" points="4,-56.5 4,-75.5 125,-75.5 125,-56.5 4,-56.5"/>
<text text-anchor="middle" x="64.5" y="-63.5" font-family="Helvetica,sans-Serif" font-size="10.00" fill="#000000">src/nuspell/aff_data.hxx</text>
</a>
</g>
</g>
<!-- Node10&#45;&gt;Node11 -->
<g id="edge2" class="edge">
<title>Node10&#45;&gt;Node11</title>
<path fill="none" stroke="#191970" d="M64.5,-102.1575C64.5,-93.155 64.5,-82.9199 64.5,-75.6427"/>
<polygon fill="#191970" stroke="#191970" points="61.0001,-102.2455 64.5,-112.2455 68.0001,-102.2456 61.0001,-102.2455"/>
</g>
<!-- Node12 -->
<g id="node4" class="node">
<title>Node12</title>
<g id="a_node4"><a xlink:href="dictionary_8hxx.html" target="_top" xlink:title="Dictionary spelling, PUBLIC HEADER. ">
<polygon fill="#ffffff" stroke="#000000" points=".5,-.5 .5,-19.5 128.5,-19.5 128.5,-.5 .5,-.5"/>
<text text-anchor="middle" x="64.5" y="-7.5" font-family="Helvetica,sans-Serif" font-size="10.00" fill="#000000">src/nuspell/dictionary.hxx</text>
</a>
</g>
</g>
<!-- Node11&#45;&gt;Node12 -->
<g id="edge3" class="edge">
<title>Node11&#45;&gt;Node12</title>
<path fill="none" stroke="#191970" d="M64.5,-46.1575C64.5,-37.155 64.5,-26.9199 64.5,-19.6427"/>
<polygon fill="#191970" stroke="#191970" points="61.0001,-46.2455 64.5,-56.2455 68.0001,-46.2456 61.0001,-46.2455"/>
</g>
</g>
</svg>
