<?xml version="1.0" encoding="UTF-8" standalone="no"?>
<!DOCTYPE svg PUBLIC "-//W3C//DTD SVG 1.1//EN"
 "http://www.w3.org/Graphics/SVG/1.1/DTD/svg11.dtd">
<!-- Generated by graphviz version 2.40.1 (20161225.0304)
 -->
<!-- Title: src/nuspell/string_utils.hxx Pages: 1 -->
<svg width="809pt" height="95pt"
 viewBox="0.00 0.00 808.50 95.00" xmlns="http://www.w3.org/2000/svg" xmlns:xlink="http://www.w3.org/1999/xlink">
<g id="graph0" class="graph" transform="scale(1 1) rotate(0) translate(4 91)">
<title>src/nuspell/string_utils.hxx</title>
<polygon fill="#ffffff" stroke="transparent" points="-4,4 -4,-91 804.5,-91 804.5,4 -4,4"/>
<!-- Node6 -->
<g id="node1" class="node">
<title>Node6</title>
<polygon fill="#bfbfbf" stroke="#000000" points="369,-56.5 369,-86.5 460,-86.5 460,-56.5 369,-56.5"/>
<text text-anchor="start" x="377" y="-74.5" font-family="Helvetica,sans-Serif" font-size="10.00" fill="#000000">src/nuspell/string</text>
<text text-anchor="middle" x="414.5" y="-63.5" font-family="Helvetica,sans-Serif" font-size="10.00" fill="#000000">_utils.hxx</text>
</g>
<!-- Node7 -->
<g id="node2" class="node">
<title>Node7</title>
<g id="a_node2"><a xlink:href="aff__data_8cxx.html" target="_top" xlink:title="Affixing data structures. ">
<polygon fill="#ffffff" stroke="#000000" points="0,-.5 0,-19.5 121,-19.5 121,-.5 0,-.5"/>
<text text-anchor="middle" x="60.5" y="-7.5" font-family="Helvetica,sans-Serif" font-size="10.00" fill="#000000">src/nuspell/aff_data.cxx</text>
</a>
</g>
</g>
<!-- Node6&#45;&gt;Node7 -->
<g id="edge1" class="edge">
<title>Node6&#45;&gt;Node7</title>
<path fill="none" stroke="#191970" d="M359.0656,-61.8694C292.5608,-50.3157 181.7594,-31.0663 115.4643,-19.5489"/>
<polygon fill="#191970" stroke="#191970" points="358.4939,-65.3225 368.9454,-63.5859 359.6921,-58.4258 358.4939,-65.3225"/>
</g>
<!-- Node8 -->
<g id="node3" class="node">
<title>Node8</title>
<g id="a_node3"><a xlink:href="condition_8cxx.html" target="_top" xlink:title="Condition matching. ">
<polygon fill="#ffffff" stroke="#000000" points="139,-.5 139,-19.5 264,-19.5 264,-.5 139,-.5"/>
<text text-anchor="middle" x="201.5" y="-7.5" font-family="Helvetica,sans-Serif" font-size="10.00" fill="#000000">src/nuspell/condition.cxx</text>
</a>
</g>
</g>
<!-- Node6&#45;&gt;Node8 -->
<g id="edge2" class="edge">
<title>Node6&#45;&gt;Node8</title>
<path fill="none" stroke="#191970" d="M359.05,-55.4898C319.5626,-44.0885 267.8109,-29.1461 234.6004,-19.5572"/>
<polygon fill="#191970" stroke="#191970" points="358.2277,-58.8953 368.8062,-58.3067 360.1695,-52.17 358.2277,-58.8953"/>
</g>
<!-- Node9 -->
<g id="node4" class="node">
<title>Node9</title>
<g id="a_node4"><a xlink:href="dictionary_8cxx.html" target="_top" xlink:title="Dictionary spelling. ">
<polygon fill="#ffffff" stroke="#000000" points="282.5,-.5 282.5,-19.5 410.5,-19.5 410.5,-.5 282.5,-.5"/>
<text text-anchor="middle" x="346.5" y="-7.5" font-family="Helvetica,sans-Serif" font-size="10.00" fill="#000000">src/nuspell/dictionary.cxx</text>
</a>
</g>
</g>
<!-- Node6&#45;&gt;Node9 -->
<g id="edge3" class="edge">
<title>Node6&#45;&gt;Node9</title>
<path fill="none" stroke="#191970" d="M390.2294,-49.5494C378.9971,-39.3907 366.2177,-27.8329 357.3877,-19.8469"/>
<polygon fill="#191970" stroke="#191970" points="387.9266,-52.1858 397.691,-56.2977 392.622,-46.9942 387.9266,-52.1858"/>
</g>
<!-- Node10 -->
<g id="node5" class="node">
<title>Node10</title>
<g id="a_node5"><a xlink:href="finder_8cxx.html" target="_top" xlink:title="Finding dictionaries. ">
<polygon fill="#ffffff" stroke="#000000" points="428.5,-.5 428.5,-19.5 538.5,-19.5 538.5,-.5 428.5,-.5"/>
<text text-anchor="middle" x="483.5" y="-7.5" font-family="Helvetica,sans-Serif" font-size="10.00" fill="#000000">src/nuspell/finder.cxx</text>
</a>
</g>
</g>
<!-- Node6&#45;&gt;Node10 -->
<g id="edge4" class="edge">
<title>Node6&#45;&gt;Node10</title>
<path fill="none" stroke="#191970" d="M439.1275,-49.5494C450.525,-39.3907 463.4923,-27.8329 472.4522,-19.8469"/>
<polygon fill="#191970" stroke="#191970" points="436.6925,-47.0312 431.5562,-56.2977 441.3502,-52.2568 436.6925,-47.0312"/>
</g>
<!-- Node11 -->
<g id="node6" class="node">
<title>Node11</title>
<g id="a_node6"><a xlink:href="main_8cxx.html" target="_top" xlink:title="Command line spell checking. ">
<polygon fill="#ffffff" stroke="#000000" points="557,-.5 557,-19.5 664,-19.5 664,-.5 557,-.5"/>
<text text-anchor="middle" x="610.5" y="-7.5" font-family="Helvetica,sans-Serif" font-size="10.00" fill="#000000">src/nuspell/main.cxx</text>
</a>
</g>
</g>
<!-- Node6&#45;&gt;Node11 -->
<g id="edge5" class="edge">
<title>Node6&#45;&gt;Node11</title>
<path fill="none" stroke="#191970" d="M470.2494,-54.0072C505.9228,-42.8138 550.8341,-28.7217 580.085,-19.5435"/>
<polygon fill="#191970" stroke="#191970" points="468.9468,-50.7476 460.4533,-57.081 471.0425,-57.4265 468.9468,-50.7476"/>
</g>
<!-- Node12 -->
<g id="node7" class="node">
<title>Node12</title>
<g id="a_node7"><a xlink:href="regress_8cxx.html" target="_top" xlink:title="Command line spell check regression testing. ">
<polygon fill="#ffffff" stroke="#000000" points="682.5,-.5 682.5,-19.5 800.5,-19.5 800.5,-.5 682.5,-.5"/>
<text text-anchor="middle" x="741.5" y="-7.5" font-family="Helvetica,sans-Serif" font-size="10.00" fill="#000000">src/nuspell/regress.cxx</text>
</a>
</g>
</g>
<!-- Node6&#45;&gt;Node12 -->
<g id="edge6" class="edge">
<title>Node6&#45;&gt;Node12</title>
<path fill="none" stroke="#191970" d="M470.2911,-61.0072C532.1848,-49.3666 631.1766,-30.7489 690.8983,-19.5168"/>
<polygon fill="#191970" stroke="#191970" points="469.493,-57.5958 460.3123,-62.8839 470.7869,-64.4752 469.493,-57.5958"/>
</g>
</g>
</svg>
