<?xml version="1.0" encoding="UTF-8" standalone="no"?>
<!DOCTYPE svg PUBLIC "-//W3C//DTD SVG 1.1//EN"
 "http://www.w3.org/Graphics/SVG/1.1/DTD/svg11.dtd">
<!-- Generated by graphviz version 2.40.1 (20161225.0304)
 -->
<!-- Title: src/nuspell/string_utils.hxx Pages: 1 -->
<svg width="629pt" height="106pt"
 viewBox="0.00 0.00 629.00 106.00" xmlns="http://www.w3.org/2000/svg" xmlns:xlink="http://www.w3.org/1999/xlink">
<g id="graph0" class="graph" transform="scale(1 1) rotate(0) translate(4 102)">
<title>src/nuspell/string_utils.hxx</title>
<polygon fill="#ffffff" stroke="transparent" points="-4,4 -4,-102 625,-102 625,4 -4,4"/>
<!-- Node0 -->
<g id="node1" class="node">
<title>Node0</title>
<polygon fill="#bfbfbf" stroke="#000000" points="204.5,-67.5 204.5,-97.5 295.5,-97.5 295.5,-67.5 204.5,-67.5"/>
<text text-anchor="start" x="212.5" y="-85.5" font-family="Helvetica,sans-Serif" font-size="10.00" fill="#000000">src/nuspell/string</text>
<text text-anchor="middle" x="250" y="-74.5" font-family="Helvetica,sans-Serif" font-size="10.00" fill="#000000">_utils.hxx</text>
</g>
<!-- Node1 -->
<g id="node2" class="node">
<title>Node1</title>
<polygon fill="#ffffff" stroke="#bfbfbf" points="0,-6 0,-25 56,-25 56,-6 0,-6"/>
<text text-anchor="middle" x="28" y="-13" font-family="Helvetica,sans-Serif" font-size="10.00" fill="#000000">algorithm</text>
</g>
<!-- Node0&#45;&gt;Node1 -->
<g id="edge1" class="edge">
<title>Node0&#45;&gt;Node1</title>
<path fill="none" stroke="#191970" d="M204.2738,-71.4716C166.5313,-61.9643 111.7712,-47.2352 65,-31 63.1249,-30.3491 61.2087,-29.651 59.2838,-28.9244"/>
<polygon fill="#191970" stroke="#191970" points="60.323,-25.5713 49.737,-25.1385 57.7426,-32.0784 60.323,-25.5713"/>
</g>
<!-- Node2 -->
<g id="node3" class="node">
<title>Node2</title>
<polygon fill="#ffffff" stroke="#bfbfbf" points="74.5,-6 74.5,-25 121.5,-25 121.5,-6 74.5,-6"/>
<text text-anchor="middle" x="98" y="-13" font-family="Helvetica,sans-Serif" font-size="10.00" fill="#000000">iterator</text>
</g>
<!-- Node0&#45;&gt;Node2 -->
<g id="edge2" class="edge">
<title>Node0&#45;&gt;Node2</title>
<path fill="none" stroke="#191970" d="M214.4669,-67.4595C190.7482,-57.3371 158.9074,-43.5892 131,-31 129.8316,-30.4729 128.6416,-29.9323 127.4407,-29.3835"/>
<polygon fill="#191970" stroke="#191970" points="128.7444,-26.1302 118.199,-25.1071 125.8047,-32.483 128.7444,-26.1302"/>
</g>
<!-- Node3 -->
<g id="node4" class="node">
<title>Node3</title>
<polygon fill="#ffffff" stroke="#bfbfbf" points="140,-6 140,-25 182,-25 182,-6 140,-6"/>
<text text-anchor="middle" x="161" y="-13" font-family="Helvetica,sans-Serif" font-size="10.00" fill="#000000">locale</text>
</g>
<!-- Node0&#45;&gt;Node3 -->
<g id="edge3" class="edge">
<title>Node0&#45;&gt;Node3</title>
<path fill="none" stroke="#191970" d="M229.8045,-67.2967C215.534,-56.5537 196.4532,-42.1895 182.0052,-31.3129"/>
<polygon fill="#191970" stroke="#191970" points="183.7867,-28.2731 173.6924,-25.055 179.5766,-33.8656 183.7867,-28.2731"/>
</g>
<!-- Node4 -->
<g id="node5" class="node">
<title>Node4</title>
<polygon fill="#ffffff" stroke="#bfbfbf" points="200.5,-6 200.5,-25 241.5,-25 241.5,-6 200.5,-6"/>
<text text-anchor="middle" x="221" y="-13" font-family="Helvetica,sans-Serif" font-size="10.00" fill="#000000">stack</text>
</g>
<!-- Node0&#45;&gt;Node4 -->
<g id="edge4" class="edge">
<title>Node0&#45;&gt;Node4</title>
<path fill="none" stroke="#191970" d="M243.4195,-67.2967C239.2082,-57.5672 233.7113,-44.8675 229.2145,-34.4784"/>
<polygon fill="#191970" stroke="#191970" points="232.3201,-32.8419 225.1357,-25.055 225.896,-35.6225 232.3201,-32.8419"/>
</g>
<!-- Node5 -->
<g id="node6" class="node">
<title>Node5</title>
<polygon fill="#ffffff" stroke="#bfbfbf" points="259.5,-6 259.5,-25 300.5,-25 300.5,-6 259.5,-6"/>
<text text-anchor="middle" x="280" y="-13" font-family="Helvetica,sans-Serif" font-size="10.00" fill="#000000">string</text>
</g>
<!-- Node0&#45;&gt;Node5 -->
<g id="edge5" class="edge">
<title>Node0&#45;&gt;Node5</title>
<path fill="none" stroke="#191970" d="M256.8075,-67.2967C261.1639,-57.5672 266.8504,-44.8675 271.5022,-34.4784"/>
<polygon fill="#191970" stroke="#191970" points="274.8293,-35.6122 275.7217,-25.055 268.4406,-32.7515 274.8293,-35.6122"/>
</g>
<!-- Node6 -->
<g id="node7" class="node">
<title>Node6</title>
<polygon fill="#ffffff" stroke="#bfbfbf" points="319,-6 319,-25 363,-25 363,-6 319,-6"/>
<text text-anchor="middle" x="341" y="-13" font-family="Helvetica,sans-Serif" font-size="10.00" fill="#000000">vector</text>
</g>
<!-- Node0&#45;&gt;Node6 -->
<g id="edge6" class="edge">
<title>Node0&#45;&gt;Node6</title>
<path fill="none" stroke="#191970" d="M270.6493,-67.2967C285.3781,-56.4524 305.1186,-41.9182 319.9396,-31.006"/>
<polygon fill="#191970" stroke="#191970" points="322.0447,-33.8025 328.0224,-25.055 317.8944,-28.1655 322.0447,-33.8025"/>
</g>
<!-- Node7 -->
<g id="node8" class="node">
<title>Node7</title>
<polygon fill="#ffffff" stroke="#bfbfbf" points="381,-6 381,-25 509,-25 509,-6 381,-6"/>
<text text-anchor="middle" x="445" y="-13" font-family="Helvetica,sans-Serif" font-size="10.00" fill="#000000">boost/functional/hash.hpp</text>
</g>
<!-- Node0&#45;&gt;Node7 -->
<g id="edge7" class="edge">
<title>Node0&#45;&gt;Node7</title>
<path fill="none" stroke="#191970" d="M293.7618,-67.4639C328.0559,-55.6808 375.2491,-39.4657 407.7508,-28.2984"/>
<polygon fill="#191970" stroke="#191970" points="409.0154,-31.5649 417.3354,-25.0053 406.7407,-24.9447 409.0154,-31.5649"/>
</g>
<!-- Node8 -->
<g id="node9" class="node">
<title>Node8</title>
<polygon fill="#ffffff" stroke="#bfbfbf" points="527,-.5 527,-30.5 621,-30.5 621,-.5 527,-.5"/>
<text text-anchor="start" x="535" y="-18.5" font-family="Helvetica,sans-Serif" font-size="10.00" fill="#000000">boost/utility/string</text>
<text text-anchor="middle" x="574" y="-7.5" font-family="Helvetica,sans-Serif" font-size="10.00" fill="#000000">_view.hpp</text>
</g>
<!-- Node0&#45;&gt;Node8 -->
<g id="edge8" class="edge">
<title>Node0&#45;&gt;Node8</title>
<path fill="none" stroke="#191970" d="M295.7584,-74.8584C347.2603,-66.0021 433.606,-50.3885 516.8421,-31.1746"/>
<polygon fill="#191970" stroke="#191970" points="517.7668,-34.553 526.712,-28.8756 516.1787,-27.7355 517.7668,-34.553"/>
</g>
</g>
</svg>
