<?xml version="1.0" encoding="UTF-8" standalone="no"?>
<!DOCTYPE svg PUBLIC "-//W3C//DTD SVG 1.1//EN"
 "http://www.w3.org/Graphics/SVG/1.1/DTD/svg11.dtd">
<!-- Generated by graphviz version 2.40.1 (20161225.0304)
 -->
<!-- Title: src/nuspell/string_utils.hxx Pages: 1 -->
<svg width="371pt" height="95pt"
 viewBox="0.00 0.00 371.00 95.00" xmlns="http://www.w3.org/2000/svg" xmlns:xlink="http://www.w3.org/1999/xlink">
<g id="graph0" class="graph" transform="scale(1 1) rotate(0) translate(4 91)">
<title>src/nuspell/string_utils.hxx</title>
<polygon fill="#ffffff" stroke="transparent" points="-4,4 -4,-91 367,-91 367,4 -4,4"/>
<!-- Node0 -->
<g id="node1" class="node">
<title>Node0</title>
<polygon fill="#bfbfbf" stroke="#000000" points="145.5,-56.5 145.5,-86.5 236.5,-86.5 236.5,-56.5 145.5,-56.5"/>
<text text-anchor="start" x="153.5" y="-74.5" font-family="Helvetica,sans-Serif" font-size="10.00" fill="#000000">src/nuspell/string</text>
<text text-anchor="middle" x="191" y="-63.5" font-family="Helvetica,sans-Serif" font-size="10.00" fill="#000000">_utils.hxx</text>
</g>
<!-- Node1 -->
<g id="node2" class="node">
<title>Node1</title>
<polygon fill="#ffffff" stroke="#bfbfbf" points="0,-.5 0,-19.5 56,-19.5 56,-.5 0,-.5"/>
<text text-anchor="middle" x="28" y="-7.5" font-family="Helvetica,sans-Serif" font-size="10.00" fill="#000000">algorithm</text>
</g>
<!-- Node0&#45;&gt;Node1 -->
<g id="edge1" class="edge">
<title>Node0&#45;&gt;Node1</title>
<path fill="none" stroke="#191970" d="M151.1257,-56.4554C124.048,-46.239 88.5906,-32.8609 62.6834,-23.0861"/>
<polygon fill="#191970" stroke="#191970" points="63.851,-19.7858 53.2592,-19.5303 61.3799,-26.3352 63.851,-19.7858"/>
</g>
<!-- Node2 -->
<g id="node3" class="node">
<title>Node2</title>
<polygon fill="#ffffff" stroke="#bfbfbf" points="74.5,-.5 74.5,-19.5 121.5,-19.5 121.5,-.5 74.5,-.5"/>
<text text-anchor="middle" x="98" y="-7.5" font-family="Helvetica,sans-Serif" font-size="10.00" fill="#000000">iterator</text>
</g>
<!-- Node0&#45;&gt;Node2 -->
<g id="edge2" class="edge">
<title>Node0&#45;&gt;Node2</title>
<path fill="none" stroke="#191970" d="M168.0112,-56.2977C153.8034,-46.9022 135.6215,-34.8787 121.3475,-25.4395"/>
<polygon fill="#191970" stroke="#191970" points="122.8845,-22.2598 112.6128,-19.6633 119.0233,-28.0986 122.8845,-22.2598"/>
</g>
<!-- Node3 -->
<g id="node4" class="node">
<title>Node3</title>
<polygon fill="#ffffff" stroke="#bfbfbf" points="140,-.5 140,-19.5 182,-19.5 182,-.5 140,-.5"/>
<text text-anchor="middle" x="161" y="-7.5" font-family="Helvetica,sans-Serif" font-size="10.00" fill="#000000">locale</text>
</g>
<!-- Node0&#45;&gt;Node3 -->
<g id="edge3" class="edge">
<title>Node0&#45;&gt;Node3</title>
<path fill="none" stroke="#191970" d="M183.5843,-56.2977C179.5501,-48.0277 174.5227,-37.7215 170.236,-28.9339"/>
<polygon fill="#191970" stroke="#191970" points="173.3334,-27.3001 165.8034,-19.8469 167.042,-30.3691 173.3334,-27.3001"/>
</g>
<!-- Node4 -->
<g id="node5" class="node">
<title>Node4</title>
<polygon fill="#ffffff" stroke="#bfbfbf" points="200.5,-.5 200.5,-19.5 241.5,-19.5 241.5,-.5 200.5,-.5"/>
<text text-anchor="middle" x="221" y="-7.5" font-family="Helvetica,sans-Serif" font-size="10.00" fill="#000000">stack</text>
</g>
<!-- Node0&#45;&gt;Node4 -->
<g id="edge4" class="edge">
<title>Node0&#45;&gt;Node4</title>
<path fill="none" stroke="#191970" d="M198.4157,-56.2977C202.4499,-48.0277 207.4773,-37.7215 211.764,-28.9339"/>
<polygon fill="#191970" stroke="#191970" points="214.958,-30.3691 216.1966,-19.8469 208.6666,-27.3001 214.958,-30.3691"/>
</g>
<!-- Node5 -->
<g id="node6" class="node">
<title>Node5</title>
<polygon fill="#ffffff" stroke="#bfbfbf" points="259.5,-.5 259.5,-19.5 300.5,-19.5 300.5,-.5 259.5,-.5"/>
<text text-anchor="middle" x="280" y="-7.5" font-family="Helvetica,sans-Serif" font-size="10.00" fill="#000000">string</text>
</g>
<!-- Node0&#45;&gt;Node5 -->
<g id="edge5" class="edge">
<title>Node0&#45;&gt;Node5</title>
<path fill="none" stroke="#191970" d="M213,-56.2977C226.5968,-46.9022 243.9966,-34.8787 257.6567,-25.4395"/>
<polygon fill="#191970" stroke="#191970" points="259.7785,-28.2276 266.0158,-19.6633 255.7991,-22.4688 259.7785,-28.2276"/>
</g>
<!-- Node6 -->
<g id="node7" class="node">
<title>Node6</title>
<polygon fill="#ffffff" stroke="#bfbfbf" points="319,-.5 319,-19.5 363,-19.5 363,-.5 319,-.5"/>
<text text-anchor="middle" x="341" y="-7.5" font-family="Helvetica,sans-Serif" font-size="10.00" fill="#000000">vector</text>
</g>
<!-- Node0&#45;&gt;Node6 -->
<g id="edge6" class="edge">
<title>Node0&#45;&gt;Node6</title>
<path fill="none" stroke="#191970" d="M227.6941,-56.4554C252.6976,-46.204 285.4655,-32.7692 309.3275,-22.9857"/>
<polygon fill="#191970" stroke="#191970" points="310.7149,-26.1997 318.6397,-19.1677 308.0594,-19.7229 310.7149,-26.1997"/>
</g>
</g>
</svg>
