<?xml version="1.0" encoding="UTF-8" standalone="no"?>
<!DOCTYPE svg PUBLIC "-//W3C//DTD SVG 1.1//EN"
 "http://www.w3.org/Graphics/SVG/1.1/DTD/svg11.dtd">
<!-- Generated by graphviz version 2.40.1 (20161225.0304)
 -->
<!-- Title: src/nuspell/string_utils.hxx Pages: 1 -->
<svg width="813pt" height="95pt"
 viewBox="0.00 0.00 813.00 95.00" xmlns="http://www.w3.org/2000/svg" xmlns:xlink="http://www.w3.org/1999/xlink">
<g id="graph0" class="graph" transform="scale(1 1) rotate(0) translate(4 91)">
<title>src/nuspell/string_utils.hxx</title>
<polygon fill="#ffffff" stroke="transparent" points="-4,4 -4,-91 809,-91 809,4 -4,4"/>
<!-- Node7 -->
<g id="node1" class="node">
<title>Node7</title>
<polygon fill="#bfbfbf" stroke="#000000" points="358,-56.5 358,-86.5 449,-86.5 449,-56.5 358,-56.5"/>
<text text-anchor="start" x="366" y="-74.5" font-family="Helvetica,sans-Serif" font-size="10.00" fill="#000000">src/nuspell/string</text>
<text text-anchor="middle" x="403.5" y="-63.5" font-family="Helvetica,sans-Serif" font-size="10.00" fill="#000000">_utils.hxx</text>
</g>
<!-- Node8 -->
<g id="node2" class="node">
<title>Node8</title>
<g id="a_node2"><a xlink:href="aff__data_8cxx.html" target="_top" xlink:title="Affixing data structures. ">
<polygon fill="#ffffff" stroke="#000000" points="0,-.5 0,-19.5 121,-19.5 121,-.5 0,-.5"/>
<text text-anchor="middle" x="60.5" y="-7.5" font-family="Helvetica,sans-Serif" font-size="10.00" fill="#000000">src/nuspell/aff_data.cxx</text>
</a>
</g>
</g>
<!-- Node7&#45;&gt;Node8 -->
<g id="edge1" class="edge">
<title>Node7&#45;&gt;Node8</title>
<path fill="none" stroke="#191970" d="M347.9378,-61.5377C283.2461,-49.9384 177.1661,-30.9183 113.5633,-19.5143"/>
<polygon fill="#191970" stroke="#191970" points="347.4915,-65.0134 357.9522,-63.3333 348.7269,-58.1233 347.4915,-65.0134"/>
</g>
<!-- Node9 -->
<g id="node3" class="node">
<title>Node9</title>
<g id="a_node3"><a xlink:href="dictionary_8cxx.html" target="_top" xlink:title="Dictionary spelling. ">
<polygon fill="#ffffff" stroke="#000000" points="139.5,-.5 139.5,-19.5 267.5,-19.5 267.5,-.5 139.5,-.5"/>
<text text-anchor="middle" x="203.5" y="-7.5" font-family="Helvetica,sans-Serif" font-size="10.00" fill="#000000">src/nuspell/dictionary.cxx</text>
</a>
</g>
</g>
<!-- Node7&#45;&gt;Node9 -->
<g id="edge2" class="edge">
<title>Node7&#45;&gt;Node9</title>
<path fill="none" stroke="#191970" d="M347.8409,-54.3848C311.2857,-43.1441 264.8183,-28.8554 234.6312,-19.5728"/>
<polygon fill="#191970" stroke="#191970" points="347.2796,-57.8739 357.8667,-57.4677 349.3371,-51.1831 347.2796,-57.8739"/>
</g>
<!-- Node10 -->
<g id="node4" class="node">
<title>Node10</title>
<g id="a_node4"><a xlink:href="finder_8cxx.html" target="_top" xlink:title="Finding dictionaries. ">
<polygon fill="#ffffff" stroke="#000000" points="285.5,-.5 285.5,-19.5 395.5,-19.5 395.5,-.5 285.5,-.5"/>
<text text-anchor="middle" x="340.5" y="-7.5" font-family="Helvetica,sans-Serif" font-size="10.00" fill="#000000">src/nuspell/finder.cxx</text>
</a>
</g>
</g>
<!-- Node7&#45;&gt;Node10 -->
<g id="edge3" class="edge">
<title>Node7&#45;&gt;Node10</title>
<path fill="none" stroke="#191970" d="M380.7135,-49.256C370.3802,-39.1688 358.6892,-27.7561 350.5871,-19.8469"/>
<polygon fill="#191970" stroke="#191970" points="378.3263,-51.8169 387.927,-56.2977 383.2161,-46.8078 378.3263,-51.8169"/>
</g>
<!-- Node11 -->
<g id="node5" class="node">
<title>Node11</title>
<g id="a_node5"><a xlink:href="main_8cxx.html" target="_top" xlink:title="Command line spell checking. ">
<polygon fill="#ffffff" stroke="#000000" points="414,-.5 414,-19.5 521,-19.5 521,-.5 414,-.5"/>
<text text-anchor="middle" x="467.5" y="-7.5" font-family="Helvetica,sans-Serif" font-size="10.00" fill="#000000">src/nuspell/main.cxx</text>
</a>
</g>
</g>
<!-- Node7&#45;&gt;Node11 -->
<g id="edge4" class="edge">
<title>Node7&#45;&gt;Node11</title>
<path fill="none" stroke="#191970" d="M426.6482,-49.256C437.1455,-39.1688 449.0221,-27.7561 457.2528,-19.8469"/>
<polygon fill="#191970" stroke="#191970" points="424.1056,-46.8452 419.3202,-56.2977 428.9559,-51.8926 424.1056,-46.8452"/>
</g>
<!-- Node12 -->
<g id="node6" class="node">
<title>Node12</title>
<g id="a_node6"><a xlink:href="regress_8cxx.html" target="_top" xlink:title="Command line spell check regression testing. ">
<polygon fill="#ffffff" stroke="#000000" points="539.5,-.5 539.5,-19.5 657.5,-19.5 657.5,-.5 539.5,-.5"/>
<text text-anchor="middle" x="598.5" y="-7.5" font-family="Helvetica,sans-Serif" font-size="10.00" fill="#000000">src/nuspell/regress.cxx</text>
</a>
</g>
</g>
<!-- Node7&#45;&gt;Node12 -->
<g id="edge5" class="edge">
<title>Node7&#45;&gt;Node12</title>
<path fill="none" stroke="#191970" d="M458.9649,-54.0072C494.4563,-42.8138 539.1385,-28.7217 568.2402,-19.5435"/>
<polygon fill="#191970" stroke="#191970" points="457.703,-50.7352 449.2188,-57.081 459.8085,-57.411 457.703,-50.7352"/>
</g>
<!-- Node13 -->
<g id="node7" class="node">
<title>Node13</title>
<g id="a_node7"><a xlink:href="structures_8cxx.html" target="_top" xlink:title="Data structures. ">
<polygon fill="#ffffff" stroke="#000000" points="676,-.5 676,-19.5 805,-19.5 805,-.5 676,-.5"/>
<text text-anchor="middle" x="740.5" y="-7.5" font-family="Helvetica,sans-Serif" font-size="10.00" fill="#000000">src/nuspell/structures.cxx</text>
</a>
</g>
</g>
<!-- Node7&#45;&gt;Node13 -->
<g id="edge6" class="edge">
<title>Node7&#45;&gt;Node13</title>
<path fill="none" stroke="#191970" d="M459.1663,-61.3413C522.8461,-49.7202 626.3072,-30.8393 688.438,-19.5009"/>
<polygon fill="#191970" stroke="#191970" points="458.5092,-57.9033 449.3,-63.1418 459.7659,-64.7896 458.5092,-57.9033"/>
</g>
</g>
</svg>
