<?xml version="1.0" encoding="UTF-8" standalone="no"?>
<!DOCTYPE svg PUBLIC "-//W3C//DTD SVG 1.1//EN"
 "http://www.w3.org/Graphics/SVG/1.1/DTD/svg11.dtd">
<!-- Generated by graphviz version 2.40.1 (20161225.0304)
 -->
<!-- Title: src/nuspell/structures.hxx Pages: 1 -->
<svg width="137pt" height="140pt"
 viewBox="0.00 0.00 137.00 140.00" xmlns="http://www.w3.org/2000/svg" xmlns:xlink="http://www.w3.org/1999/xlink">
<g id="graph0" class="graph" transform="scale(1 1) rotate(0) translate(4 136)">
<title>src/nuspell/structures.hxx</title>
<polygon fill="#ffffff" stroke="transparent" points="-4,4 -4,-136 133,-136 133,4 -4,4"/>
<!-- Node17 -->
<g id="node1" class="node">
<title>Node17</title>
<polygon fill="#bfbfbf" stroke="#000000" points="0,-112.5 0,-131.5 129,-131.5 129,-112.5 0,-112.5"/>
<text text-anchor="middle" x="64.5" y="-119.5" font-family="Helvetica,sans-Serif" font-size="10.00" fill="#000000">src/nuspell/structures.hxx</text>
</g>
<!-- Node18 -->
<g id="node2" class="node">
<title>Node18</title>
<g id="a_node2"><a xlink:href="aff__data_8hxx.html" target="_top" xlink:title="Affixing data structures, private header. ">
<polygon fill="#ffffff" stroke="#000000" points="4,-56.5 4,-75.5 125,-75.5 125,-56.5 4,-56.5"/>
<text text-anchor="middle" x="64.5" y="-63.5" font-family="Helvetica,sans-Serif" font-size="10.00" fill="#000000">src/nuspell/aff_data.hxx</text>
</a>
</g>
</g>
<!-- Node17&#45;&gt;Node18 -->
<g id="edge1" class="edge">
<title>Node17&#45;&gt;Node18</title>
<path fill="none" stroke="#191970" d="M64.5,-102.1575C64.5,-93.155 64.5,-82.9199 64.5,-75.6427"/>
<polygon fill="#191970" stroke="#191970" points="61.0001,-102.2455 64.5,-112.2455 68.0001,-102.2456 61.0001,-102.2455"/>
</g>
<!-- Node19 -->
<g id="node3" class="node">
<title>Node19</title>
<g id="a_node3"><a xlink:href="dictionary_8hxx.html" target="_top" xlink:title="Dictionary spelling, PUBLIC HEADER. ">
<polygon fill="#ffffff" stroke="#000000" points=".5,-.5 .5,-19.5 128.5,-19.5 128.5,-.5 .5,-.5"/>
<text text-anchor="middle" x="64.5" y="-7.5" font-family="Helvetica,sans-Serif" font-size="10.00" fill="#000000">src/nuspell/dictionary.hxx</text>
</a>
</g>
</g>
<!-- Node18&#45;&gt;Node19 -->
<g id="edge2" class="edge">
<title>Node18&#45;&gt;Node19</title>
<path fill="none" stroke="#191970" d="M64.5,-46.1575C64.5,-37.155 64.5,-26.9199 64.5,-19.6427"/>
<polygon fill="#191970" stroke="#191970" points="61.0001,-46.2455 64.5,-56.2455 68.0001,-46.2456 61.0001,-46.2455"/>
</g>
</g>
</svg>
