<?xml version="1.0" encoding="UTF-8" standalone="no"?>
<!DOCTYPE svg PUBLIC "-//W3C//DTD SVG 1.1//EN"
 "http://www.w3.org/Graphics/SVG/1.1/DTD/svg11.dtd">
<!-- Generated by graphviz version 2.40.1 (20161225.0304)
 -->
<!-- Title: nuspell::Aff_Data::parse_aff Pages: 1 -->
<svg width="909pt" height="750pt"
 viewBox="0.00 0.00 909.00 750.28" xmlns="http://www.w3.org/2000/svg" xmlns:xlink="http://www.w3.org/1999/xlink">
<g id="graph0" class="graph" transform="scale(1 1) rotate(0) translate(4 746.2752)">
<title>nuspell::Aff_Data::parse_aff</title>
<polygon fill="#ffffff" stroke="transparent" points="-4,4 -4,-746.2752 905,-746.2752 905,4 -4,4"/>
<!-- Node6 -->
<g id="node1" class="node">
<title>Node6</title>
<polygon fill="#bfbfbf" stroke="#000000" points="0,-335 0,-365 98,-365 98,-335 0,-335"/>
<text text-anchor="start" x="8" y="-353" font-family="Helvetica,sans-Serif" font-size="10.00" fill="#000000">nuspell::Aff_Data::</text>
<text text-anchor="middle" x="49" y="-342" font-family="Helvetica,sans-Serif" font-size="10.00" fill="#000000">parse_aff</text>
</g>
<!-- Node7 -->
<g id="node2" class="node">
<title>Node7</title>
<g id="a_node2"><a xlink:href="namespacenuspell.html#a2f6f1d95de158b3512f812a213175ab4" target="_top" xlink:title="nuspell::strip_bom">
<polygon fill="#ffffff" stroke="#000000" points="330.5,-679.5 330.5,-698.5 426.5,-698.5 426.5,-679.5 330.5,-679.5"/>
<text text-anchor="middle" x="378.5" y="-686.5" font-family="Helvetica,sans-Serif" font-size="10.00" fill="#000000">nuspell::strip_bom</text>
</a>
</g>
</g>
<!-- Node6&#45;&gt;Node7 -->
<g id="edge1" class="edge">
<title>Node6&#45;&gt;Node7</title>
<path fill="none" stroke="#191970" d="M51.6293,-365.0676C61.0348,-417.3006 94.5564,-589.4581 134,-627 183.9147,-674.5082 264.8464,-687.0373 319.8044,-689.639"/>
<polygon fill="#191970" stroke="#191970" points="319.9672,-693.1475 330.0915,-690.0251 320.2298,-686.1524 319.9672,-693.1475"/>
</g>
<!-- Node8 -->
<g id="node3" class="node">
<title>Node8</title>
<g id="a_node3"><a xlink:href="namespacenuspell.html#aca16d8679d9abbf9c15f5a5cb2916649" target="_top" xlink:title="nuspell::reset_failbit\l_istream">
<polygon fill="#ffffff" stroke="#000000" points="492.5,-630 492.5,-660 596.5,-660 596.5,-630 492.5,-630"/>
<text text-anchor="start" x="500.5" y="-648" font-family="Helvetica,sans-Serif" font-size="10.00" fill="#000000">nuspell::reset_failbit</text>
<text text-anchor="middle" x="544.5" y="-637" font-family="Helvetica,sans-Serif" font-size="10.00" fill="#000000">_istream</text>
</a>
</g>
</g>
<!-- Node6&#45;&gt;Node8 -->
<g id="edge30" class="edge">
<title>Node6&#45;&gt;Node8</title>
<path fill="none" stroke="#191970" d="M50.9844,-365.3327C58.745,-422.9452 88.855,-625.4036 134,-669 236.7453,-768.2209 316.6091,-750.4136 453,-708 478.7978,-699.9776 503.7592,-681.872 521.0755,-667.1198"/>
<polygon fill="#191970" stroke="#191970" points="523.7371,-669.4399 528.9322,-660.2061 519.1128,-664.1848 523.7371,-669.4399"/>
</g>
<!-- Node9 -->
<g id="node4" class="node">
<title>Node9</title>
<g id="a_node4"><a xlink:href="classnuspell_1_1_encoding.html#a2daf31323eca9a2b8d91a5f0ab4be974" target="_top" xlink:title="nuspell::Encoding::\lis_utf8">
<polygon fill="#ffffff" stroke="#000000" points="151,-291 151,-321 251,-321 251,-291 151,-291"/>
<text text-anchor="start" x="159" y="-309" font-family="Helvetica,sans-Serif" font-size="10.00" fill="#000000">nuspell::Encoding::</text>
<text text-anchor="middle" x="201" y="-298" font-family="Helvetica,sans-Serif" font-size="10.00" fill="#000000">is_utf8</text>
</a>
</g>
</g>
<!-- Node6&#45;&gt;Node9 -->
<g id="edge3" class="edge">
<title>Node6&#45;&gt;Node9</title>
<path fill="none" stroke="#191970" d="M98.35,-335.7145C112.0139,-331.7591 126.9936,-327.4229 141.1839,-323.3152"/>
<polygon fill="#191970" stroke="#191970" points="142.2236,-326.658 150.856,-320.5154 140.2771,-319.934 142.2236,-326.658"/>
</g>
<!-- Node10 -->
<g id="node5" class="node">
<title>Node10</title>
<g id="a_node5"><a xlink:href="namespacenuspell.html#abf6e8a988616a08af6fdc01bf32e4129" target="_top" xlink:title="nuspell::validate_utf8">
<polygon fill="#ffffff" stroke="#000000" points="146.5,-252.5 146.5,-271.5 255.5,-271.5 255.5,-252.5 146.5,-252.5"/>
<text text-anchor="middle" x="201" y="-259.5" font-family="Helvetica,sans-Serif" font-size="10.00" fill="#000000">nuspell::validate_utf8</text>
</a>
</g>
</g>
<!-- Node6&#45;&gt;Node10 -->
<g id="edge4" class="edge">
<title>Node6&#45;&gt;Node10</title>
<path fill="none" stroke="#191970" d="M63.6177,-334.9522C79.5645,-319.35 106.5067,-295.2819 134,-281 138.332,-278.7497 142.9641,-276.7366 147.6939,-274.9418"/>
<polygon fill="#191970" stroke="#191970" points="149.1684,-278.1353 157.4748,-271.5585 146.88,-271.5199 149.1684,-278.1353"/>
</g>
<!-- Node11 -->
<g id="node6" class="node">
<title>Node11</title>
<g id="a_node6"><a xlink:href="namespacenuspell.html#a431abe5c2853b6f099bfedd5b6a4bb9f" target="_top" xlink:title="Parses an affix from an input stream. ">
<polygon fill="#ffffff" stroke="#000000" points="150.5,-520.5 150.5,-539.5 251.5,-539.5 251.5,-520.5 150.5,-520.5"/>
<text text-anchor="middle" x="201" y="-527.5" font-family="Helvetica,sans-Serif" font-size="10.00" fill="#000000">nuspell::parse_affix</text>
</a>
</g>
</g>
<!-- Node6&#45;&gt;Node11 -->
<g id="edge5" class="edge">
<title>Node6&#45;&gt;Node11</title>
<path fill="none" stroke="#191970" d="M57.0165,-365.3226C70.6633,-390.548 100.234,-441.645 134,-478 146.9873,-491.9831 163.9979,-505.1363 177.6289,-514.7156"/>
<polygon fill="#191970" stroke="#191970" points="175.7946,-517.7016 186.0221,-520.4673 179.7516,-511.9273 175.7946,-517.7016"/>
</g>
<!-- Node12 -->
<g id="node7" class="node">
<title>Node12</title>
<g id="a_node7"><a xlink:href="namespacenuspell.html#ac3ed6d85c13c609eb5c51628b9dbac76" target="_top" xlink:title="Decodes a single flag from an input stream. ">
<polygon fill="#ffffff" stroke="#000000" points="310,-454.5 310,-473.5 447,-473.5 447,-454.5 310,-454.5"/>
<text text-anchor="middle" x="378.5" y="-461.5" font-family="Helvetica,sans-Serif" font-size="10.00" fill="#000000">nuspell::decode_single_flag</text>
</a>
</g>
</g>
<!-- Node6&#45;&gt;Node12 -->
<g id="edge23" class="edge">
<title>Node6&#45;&gt;Node12</title>
<path fill="none" stroke="#191970" d="M58.2981,-365.2831C71.9748,-386.2249 99.6515,-423.1569 134,-440 185.3227,-465.1665 249.9169,-470.5608 299.822,-469.9875"/>
<polygon fill="#191970" stroke="#191970" points="299.989,-473.485 309.9181,-469.7886 299.851,-466.4864 299.989,-473.485"/>
</g>
<!-- Node13 -->
<g id="node8" class="node">
<title>Node13</title>
<g id="a_node8"><a xlink:href="namespacenuspell.html#adbb8e053a44129d0f51014facd48b7f9" target="_top" xlink:title="Decodes flags. ">
<polygon fill="#ffffff" stroke="#000000" points="489,-454.5 489,-473.5 600,-473.5 600,-454.5 489,-454.5"/>
<text text-anchor="middle" x="544.5" y="-461.5" font-family="Helvetica,sans-Serif" font-size="10.00" fill="#000000">nuspell::decode_flags</text>
</a>
</g>
</g>
<!-- Node6&#45;&gt;Node13 -->
<g id="edge27" class="edge">
<title>Node6&#45;&gt;Node13</title>
<path fill="none" stroke="#191970" d="M79.8847,-365.0019C95.7537,-372.2126 115.5816,-380.4685 134,-386 272.0892,-427.4717 311.5172,-417.2301 453,-445 464.816,-447.3192 477.4714,-449.8907 489.4864,-452.3731"/>
<polygon fill="#191970" stroke="#191970" points="488.8932,-455.8245 499.3959,-454.43 490.3159,-448.9706 488.8932,-455.8245"/>
</g>
<!-- Node22 -->
<g id="node17" class="node">
<title>Node22</title>
<g id="a_node17"><a xlink:href="namespacenuspell.html#aee2d3cdfa70d7cf8304c9a9f487b9a52" target="_top" xlink:title="nuspell::read_to_slash\l_or_space">
<polygon fill="#ffffff" stroke="#000000" points="321.5,-630 321.5,-660 435.5,-660 435.5,-630 321.5,-630"/>
<text text-anchor="start" x="329.5" y="-648" font-family="Helvetica,sans-Serif" font-size="10.00" fill="#000000">nuspell::read_to_slash</text>
<text text-anchor="middle" x="378.5" y="-637" font-family="Helvetica,sans-Serif" font-size="10.00" fill="#000000">_or_space</text>
</a>
</g>
</g>
<!-- Node6&#45;&gt;Node22 -->
<g id="edge29" class="edge">
<title>Node6&#45;&gt;Node22</title>
<path fill="none" stroke="#191970" d="M49.7107,-365.0992C52.529,-406.9595 66.3956,-525.3855 134,-586 182.3347,-629.3371 256.9887,-642.2374 311.0918,-645.4367"/>
<polygon fill="#191970" stroke="#191970" points="311.1233,-648.9425 321.2838,-645.94 311.4686,-641.951 311.1233,-648.9425"/>
</g>
<!-- Node24 -->
<g id="node19" class="node">
<title>Node24</title>
<g id="a_node19"><a xlink:href="namespacenuspell.html#a20013c2e88adddb9211f5beb81f075b3" target="_top" xlink:title="Parses morhological fields. ">
<polygon fill="#ffffff" stroke="#000000" points="310,-581 310,-611 447,-611 447,-581 310,-581"/>
<text text-anchor="start" x="318" y="-599" font-family="Helvetica,sans-Serif" font-size="10.00" fill="#000000">nuspell::parse_morhological</text>
<text text-anchor="middle" x="378.5" y="-588" font-family="Helvetica,sans-Serif" font-size="10.00" fill="#000000">_fields</text>
</a>
</g>
</g>
<!-- Node6&#45;&gt;Node24 -->
<g id="edge28" class="edge">
<title>Node6&#45;&gt;Node24</title>
<path fill="none" stroke="#191970" d="M50.6742,-365.066C55.695,-402.612 74.1897,-500.7804 134,-549 180.2963,-586.3245 247.4472,-597.1058 299.6664,-599.0935"/>
<polygon fill="#191970" stroke="#191970" points="299.8068,-602.5987 309.9005,-599.379 300.0021,-595.6014 299.8068,-602.5987"/>
</g>
<!-- Node25 -->
<g id="node20" class="node">
<title>Node25</title>
<g id="a_node20"><a xlink:href="namespacenuspell.html#ae580b4a878894da57f49c6faf107e183" target="_top" xlink:title="Parses vector of class T from an input stream. ">
<polygon fill="#ffffff" stroke="#000000" points="134,-214.5 134,-233.5 268,-233.5 268,-214.5 134,-214.5"/>
<text text-anchor="middle" x="201" y="-221.5" font-family="Helvetica,sans-Serif" font-size="10.00" fill="#000000">nuspell::parse_vector_of_T</text>
</a>
</g>
</g>
<!-- Node6&#45;&gt;Node25 -->
<g id="edge24" class="edge">
<title>Node6&#45;&gt;Node25</title>
<path fill="none" stroke="#191970" d="M56.9805,-334.7342C69.9615,-311.4098 97.8736,-267.0792 134,-243 137.0999,-240.9338 140.4243,-239.0897 143.8741,-237.4443"/>
<polygon fill="#191970" stroke="#191970" points="145.3524,-240.6199 153.231,-233.5363 142.6546,-234.1607 145.3524,-240.6199"/>
</g>
<!-- Node26 -->
<g id="node21" class="node">
<title>Node26</title>
<g id="a_node21"><a xlink:href="classnuspell_1_1_encoding.html#aaf5839a823225237c2e26d3e20718160" target="_top" xlink:title="nuspell::Encoding::\lempty">
<polygon fill="#ffffff" stroke="#000000" points="151,-165 151,-195 251,-195 251,-165 151,-165"/>
<text text-anchor="start" x="159" y="-183" font-family="Helvetica,sans-Serif" font-size="10.00" fill="#000000">nuspell::Encoding::</text>
<text text-anchor="middle" x="201" y="-172" font-family="Helvetica,sans-Serif" font-size="10.00" fill="#000000">empty</text>
</a>
</g>
</g>
<!-- Node6&#45;&gt;Node26 -->
<g id="edge25" class="edge">
<title>Node6&#45;&gt;Node26</title>
<path fill="none" stroke="#191970" d="M54.0762,-334.5604C64.4672,-305.247 90.8845,-241.2315 134,-205 136.5188,-202.8834 139.2341,-200.937 142.0781,-199.1485"/>
<polygon fill="#191970" stroke="#191970" points="143.879,-202.1521 150.9291,-194.2434 140.4858,-196.0294 143.879,-202.1521"/>
</g>
<!-- Node27 -->
<g id="node22" class="node">
<title>Node27</title>
<g id="a_node22"><a xlink:href="namespacenuspell.html#aac49d4bd3ea9b66410ee5b793a12780e" target="_top" xlink:title="Parses flag type. ">
<polygon fill="#ffffff" stroke="#000000" points="140,-126.5 140,-145.5 262,-145.5 262,-126.5 140,-126.5"/>
<text text-anchor="middle" x="201" y="-133.5" font-family="Helvetica,sans-Serif" font-size="10.00" fill="#000000">nuspell::parse_flag_type</text>
</a>
</g>
</g>
<!-- Node6&#45;&gt;Node27 -->
<g id="edge26" class="edge">
<title>Node6&#45;&gt;Node27</title>
<path fill="none" stroke="#191970" d="M51.1172,-334.9988C57.0742,-298.5004 77.4014,-204.4439 134,-155 135.952,-153.2948 138.0469,-151.7419 140.2471,-150.3278"/>
<polygon fill="#191970" stroke="#191970" points="142.0216,-153.3477 149.1757,-145.533 138.7098,-147.1807 142.0216,-153.3477"/>
</g>
<!-- Node28 -->
<g id="node23" class="node">
<title>Node28</title>
<g id="a_node23"><a xlink:href="namespacenuspell.html#a82f70879bf54a6f7118852b75d8ddbfc" target="_top" xlink:title="nuspell::parse_compound_rule">
<polygon fill="#ffffff" stroke="#000000" points="304,-378.5 304,-397.5 453,-397.5 453,-378.5 304,-378.5"/>
<text text-anchor="middle" x="378.5" y="-385.5" font-family="Helvetica,sans-Serif" font-size="10.00" fill="#000000">nuspell::parse_compound_rule</text>
</a>
</g>
</g>
<!-- Node6&#45;&gt;Node28 -->
<g id="edge31" class="edge">
<title>Node6&#45;&gt;Node28</title>
<path fill="none" stroke="#191970" d="M98.3603,-358.6905C110.0248,-360.5886 122.4338,-362.4815 134,-364 186.9905,-370.9571 246.6847,-376.8536 293.8243,-381.061"/>
<polygon fill="#191970" stroke="#191970" points="293.7211,-384.5654 303.9905,-381.9596 294.3375,-377.5926 293.7211,-384.5654"/>
</g>
<!-- Node29 -->
<g id="node24" class="node">
<title>Node29</title>
<g id="a_node24"><a xlink:href="namespacenuspell.html#a3e3bbd2509bfa4d9cafc8888baee3fd5" target="_top" xlink:title="nuspell::replace_char">
<polygon fill="#ffffff" stroke="#000000" points="146.5,-88.5 146.5,-107.5 255.5,-107.5 255.5,-88.5 146.5,-88.5"/>
<text text-anchor="middle" x="201" y="-95.5" font-family="Helvetica,sans-Serif" font-size="10.00" fill="#000000">nuspell::replace_char</text>
</a>
</g>
</g>
<!-- Node6&#45;&gt;Node29 -->
<g id="edge33" class="edge">
<title>Node6&#45;&gt;Node29</title>
<path fill="none" stroke="#191970" d="M49.924,-334.9271C53.2815,-293.677 68.3861,-177.9616 134,-117 135.6912,-115.4287 137.5029,-113.986 139.4077,-112.6616"/>
<polygon fill="#191970" stroke="#191970" points="141.3361,-115.5905 148.2701,-107.5798 137.8541,-109.518 141.3361,-115.5905"/>
</g>
<!-- Node30 -->
<g id="node25" class="node">
<title>Node30</title>
<g id="a_node25"><a xlink:href="classnuspell_1_1_encoding.html#ae4e9b05c91d209bd7a0c98be7a2ebf78" target="_top" xlink:title="nuspell::Encoding::\lvalue_or_default">
<polygon fill="#ffffff" stroke="#000000" points="151,-39 151,-69 251,-69 251,-39 151,-39"/>
<text text-anchor="start" x="159" y="-57" font-family="Helvetica,sans-Serif" font-size="10.00" fill="#000000">nuspell::Encoding::</text>
<text text-anchor="middle" x="201" y="-46" font-family="Helvetica,sans-Serif" font-size="10.00" fill="#000000">value_or_default</text>
</a>
</g>
</g>
<!-- Node6&#45;&gt;Node30 -->
<g id="edge34" class="edge">
<title>Node6&#45;&gt;Node30</title>
<path fill="none" stroke="#191970" d="M51.9643,-334.693C62.2005,-283.2354 97.4439,-117.5545 134,-79 136.4666,-76.3986 139.2292,-74.0659 142.1896,-71.9745"/>
<polygon fill="#191970" stroke="#191970" points="144.2053,-74.8466 150.9748,-66.6964 140.6003,-68.8462 144.2053,-74.8466"/>
</g>
<!-- Node31 -->
<g id="node26" class="node">
<title>Node31</title>
<g id="a_node26"><a xlink:href="namespacenuspell.html#a79258aeb32a39ce719a014950b33e5d6" target="_top" xlink:title="nuspell::utf8_to_wide">
<polygon fill="#ffffff" stroke="#000000" points="490,-340.5 490,-359.5 599,-359.5 599,-340.5 490,-340.5"/>
<text text-anchor="middle" x="544.5" y="-347.5" font-family="Helvetica,sans-Serif" font-size="10.00" fill="#000000">nuspell::utf8_to_wide</text>
</a>
</g>
</g>
<!-- Node6&#45;&gt;Node31 -->
<g id="edge35" class="edge">
<title>Node6&#45;&gt;Node31</title>
<path fill="none" stroke="#191970" d="M98.3219,-350C188.3708,-350 379.3502,-350 479.7397,-350"/>
<polygon fill="#191970" stroke="#191970" points="479.7546,-353.5001 489.7545,-350 479.7545,-346.5001 479.7546,-353.5001"/>
</g>
<!-- Node32 -->
<g id="node27" class="node">
<title>Node32</title>
<g id="a_node27"><a xlink:href="namespacenuspell.html#a7f9d46d315680708283bd79ad729333d" target="_top" xlink:title="nuspell::erase_chars">
<polygon fill="#ffffff" stroke="#000000" points="147.5,-.5 147.5,-19.5 254.5,-19.5 254.5,-.5 147.5,-.5"/>
<text text-anchor="middle" x="201" y="-7.5" font-family="Helvetica,sans-Serif" font-size="10.00" fill="#000000">nuspell::erase_chars</text>
</a>
</g>
</g>
<!-- Node6&#45;&gt;Node32 -->
<g id="edge37" class="edge">
<title>Node6&#45;&gt;Node32</title>
<path fill="none" stroke="#191970" d="M51.0407,-334.6436C59.005,-276.9316 89.7544,-74.0255 134,-29 135.43,-27.5447 136.9627,-26.1988 138.5782,-24.954"/>
<polygon fill="#191970" stroke="#191970" points="140.6263,-27.8015 147.2548,-19.5363 136.9188,-21.864 140.6263,-27.8015"/>
</g>
<!-- Node7&#45;&gt;Node8 -->
<g id="edge2" class="edge">
<title>Node7&#45;&gt;Node8</title>
<path fill="none" stroke="#191970" d="M416.4323,-679.4586C428.1659,-676.4716 441.1269,-673.1358 453,-670 462.553,-667.477 472.6543,-664.7633 482.5221,-662.087"/>
<polygon fill="#191970" stroke="#191970" points="483.5526,-665.4339 492.2832,-659.4315 481.715,-658.6794 483.5526,-665.4339"/>
</g>
<!-- Node11&#45;&gt;Node8 -->
<g id="edge20" class="edge">
<title>Node11&#45;&gt;Node8</title>
<path fill="none" stroke="#191970" d="M251.9186,-531.0232C304.405,-533.7557 387.5736,-542.839 453,-572 480.0416,-584.0526 505.9386,-606.0293 523.2359,-622.7313"/>
<polygon fill="#191970" stroke="#191970" points="520.9843,-625.4274 530.5514,-629.9793 525.9111,-620.4547 520.9843,-625.4274"/>
</g>
<!-- Node11&#45;&gt;Node12 -->
<g id="edge6" class="edge">
<title>Node11&#45;&gt;Node12</title>
<path fill="none" stroke="#191970" d="M219.9931,-520.427C240.3858,-510.4087 273.9174,-494.6802 304,-484 311.8058,-481.2287 320.1886,-478.6291 328.4139,-476.2799"/>
<polygon fill="#191970" stroke="#191970" points="329.6123,-479.58 338.3196,-473.5439 327.7486,-472.8327 329.6123,-479.58"/>
</g>
<!-- Node11&#45;&gt;Node22 -->
<g id="edge16" class="edge">
<title>Node11&#45;&gt;Node22</title>
<path fill="none" stroke="#191970" d="M209.3726,-539.6807C225.7606,-558.062 263.981,-598.2121 304,-621 307.0443,-622.7335 310.2311,-624.3613 313.5007,-625.8871"/>
<polygon fill="#191970" stroke="#191970" points="312.3155,-629.1872 322.885,-629.9199 315.0793,-622.7559 312.3155,-629.1872"/>
</g>
<!-- Node23 -->
<g id="node18" class="node">
<title>Node23</title>
<g id="a_node18"><a xlink:href="namespacenuspell.html#a3d81c446c32c53cd03e595f8fde9c2ab" target="_top" xlink:title="nuspell::decode_flags\l_possible_alias">
<polygon fill="#ffffff" stroke="#000000" points="323,-493 323,-523 434,-523 434,-493 323,-493"/>
<text text-anchor="start" x="331" y="-511" font-family="Helvetica,sans-Serif" font-size="10.00" fill="#000000">nuspell::decode_flags</text>
<text text-anchor="middle" x="378.5" y="-500" font-family="Helvetica,sans-Serif" font-size="10.00" fill="#000000">_possible_alias</text>
</a>
</g>
</g>
<!-- Node11&#45;&gt;Node23 -->
<g id="edge18" class="edge">
<title>Node11&#45;&gt;Node23</title>
<path fill="none" stroke="#191970" d="M251.8644,-523.6957C270.8816,-521.3386 292.7559,-518.6274 312.9155,-516.1288"/>
<polygon fill="#191970" stroke="#191970" points="313.471,-519.5868 322.9645,-514.8833 312.6099,-512.64 313.471,-519.5868"/>
</g>
<!-- Node11&#45;&gt;Node24 -->
<g id="edge21" class="edge">
<title>Node11&#45;&gt;Node24</title>
<path fill="none" stroke="#191970" d="M226.81,-539.597C253.3262,-549.4565 295.286,-565.0584 328.3597,-577.3563"/>
<polygon fill="#191970" stroke="#191970" points="327.2781,-580.6882 337.871,-580.8929 329.7178,-574.1271 327.2781,-580.6882"/>
</g>
<!-- Node12&#45;&gt;Node13 -->
<g id="edge7" class="edge">
<title>Node12&#45;&gt;Node13</title>
<path fill="none" stroke="#191970" d="M447.4568,-464C457.8122,-464 468.468,-464 478.7539,-464"/>
<polygon fill="#191970" stroke="#191970" points="478.8917,-467.5001 488.8917,-464 478.8916,-460.5001 478.8917,-467.5001"/>
</g>
<!-- Node14 -->
<g id="node9" class="node">
<title>Node14</title>
<g id="a_node9"><a xlink:href="namespacenuspell.html#aa37c89934a500dfd75dbb3cc18321834" target="_top" xlink:title="nuspell::is_all_ascii">
<polygon fill="#ffffff" stroke="#000000" points="643.5,-492.5 643.5,-511.5 744.5,-511.5 744.5,-492.5 643.5,-492.5"/>
<text text-anchor="middle" x="694" y="-499.5" font-family="Helvetica,sans-Serif" font-size="10.00" fill="#000000">nuspell::is_all_ascii</text>
</a>
</g>
</g>
<!-- Node13&#45;&gt;Node14 -->
<g id="edge8" class="edge">
<title>Node13&#45;&gt;Node14</title>
<path fill="none" stroke="#191970" d="M582.2252,-473.589C601.7756,-478.5583 625.8466,-484.6767 646.6374,-489.9613"/>
<polygon fill="#191970" stroke="#191970" points="645.9921,-493.4085 656.5461,-492.4799 647.7165,-486.6243 645.9921,-493.4085"/>
</g>
<!-- Node16 -->
<g id="node11" class="node">
<title>Node16</title>
<g id="a_node11"><a xlink:href="namespacenuspell.html#a7fc6228909d26abd20009c4fb388dc81" target="_top" xlink:title="nuspell::latin1_to_ucs2">
<polygon fill="#ffffff" stroke="#000000" points="636,-454.5 636,-473.5 752,-473.5 752,-454.5 636,-454.5"/>
<text text-anchor="middle" x="694" y="-461.5" font-family="Helvetica,sans-Serif" font-size="10.00" fill="#000000">nuspell::latin1_to_ucs2</text>
</a>
</g>
</g>
<!-- Node13&#45;&gt;Node16 -->
<g id="edge10" class="edge">
<title>Node13&#45;&gt;Node16</title>
<path fill="none" stroke="#191970" d="M600.1683,-464C608.4311,-464 617.0273,-464 625.5151,-464"/>
<polygon fill="#191970" stroke="#191970" points="625.7847,-467.5001 635.7847,-464 625.7847,-460.5001 625.7847,-467.5001"/>
</g>
<!-- Node17 -->
<g id="node12" class="node">
<title>Node17</title>
<g id="a_node12"><a xlink:href="namespacenuspell.html#aff86f9ecb346e78687e56dab66a77469" target="_top" xlink:title="nuspell::utf8_to_32">
<polygon fill="#ffffff" stroke="#000000" points="644.5,-378.5 644.5,-397.5 743.5,-397.5 743.5,-378.5 644.5,-378.5"/>
<text text-anchor="middle" x="694" y="-385.5" font-family="Helvetica,sans-Serif" font-size="10.00" fill="#000000">nuspell::utf8_to_32</text>
</a>
</g>
</g>
<!-- Node13&#45;&gt;Node17 -->
<g id="edge11" class="edge">
<title>Node13&#45;&gt;Node17</title>
<path fill="none" stroke="#191970" d="M557.5673,-454.4427C574.8264,-442.159 606.493,-420.7778 636,-407 640.6804,-404.8145 645.6816,-402.7724 650.7115,-400.8983"/>
<polygon fill="#191970" stroke="#191970" points="652.0727,-404.1298 660.3432,-397.5079 649.7484,-397.5269 652.0727,-404.1298"/>
</g>
<!-- Node19 -->
<g id="node14" class="node">
<title>Node19</title>
<g id="a_node14"><a xlink:href="namespacenuspell.html#acc7be34831c982c0065b2929a9b14f2b" target="_top" xlink:title="nuspell::is_all_bmp">
<polygon fill="#ffffff" stroke="#000000" points="644,-416.5 644,-435.5 744,-435.5 744,-416.5 644,-416.5"/>
<text text-anchor="middle" x="694" y="-423.5" font-family="Helvetica,sans-Serif" font-size="10.00" fill="#000000">nuspell::is_all_bmp</text>
</a>
</g>
</g>
<!-- Node13&#45;&gt;Node19 -->
<g id="edge13" class="edge">
<title>Node13&#45;&gt;Node19</title>
<path fill="none" stroke="#191970" d="M582.2252,-454.411C601.7756,-449.4417 625.8466,-443.3233 646.6374,-438.0387"/>
<polygon fill="#191970" stroke="#191970" points="647.7165,-441.3757 656.5461,-435.5201 645.9921,-434.5915 647.7165,-441.3757"/>
</g>
<!-- Node21 -->
<g id="node16" class="node">
<title>Node21</title>
<g id="a_node16"><a xlink:href="namespacenuspell.html#aac45dd40db821861bbd1ee9c2fc40a5e" target="_top" xlink:title="nuspell::u32_to_ucs2\l_skip_non_bmp">
<polygon fill="#ffffff" stroke="#000000" points="639.5,-531 639.5,-561 748.5,-561 748.5,-531 639.5,-531"/>
<text text-anchor="start" x="647.5" y="-549" font-family="Helvetica,sans-Serif" font-size="10.00" fill="#000000">nuspell::u32_to_ucs2</text>
<text text-anchor="middle" x="694" y="-538" font-family="Helvetica,sans-Serif" font-size="10.00" fill="#000000">_skip_non_bmp</text>
</a>
</g>
</g>
<!-- Node13&#45;&gt;Node21 -->
<g id="edge15" class="edge">
<title>Node13&#45;&gt;Node21</title>
<path fill="none" stroke="#191970" d="M558.3766,-473.5632C575.9775,-485.4757 607.4774,-506.0765 636,-521 639.7162,-522.9444 643.6167,-524.8658 647.5635,-526.7278"/>
<polygon fill="#191970" stroke="#191970" points="646.2419,-529.972 656.7917,-530.9473 649.1527,-523.6059 646.2419,-529.972"/>
</g>
<!-- Node15 -->
<g id="node10" class="node">
<title>Node15</title>
<g id="a_node10"><a xlink:href="namespacenuspell.html#a165544e1cd96cd0635c078d21ff32ff4" target="_top" xlink:title="nuspell::is_ascii">
<polygon fill="#ffffff" stroke="#000000" points="801.5,-492.5 801.5,-511.5 887.5,-511.5 887.5,-492.5 801.5,-492.5"/>
<text text-anchor="middle" x="844.5" y="-499.5" font-family="Helvetica,sans-Serif" font-size="10.00" fill="#000000">nuspell::is_ascii</text>
</a>
</g>
</g>
<!-- Node14&#45;&gt;Node15 -->
<g id="edge9" class="edge">
<title>Node14&#45;&gt;Node15</title>
<path fill="none" stroke="#191970" d="M744.533,-502C759.5197,-502 775.9778,-502 791.1377,-502"/>
<polygon fill="#191970" stroke="#191970" points="791.3917,-505.5001 801.3916,-502 791.3916,-498.5001 791.3917,-505.5001"/>
</g>
<!-- Node18 -->
<g id="node13" class="node">
<title>Node18</title>
<g id="a_node13"><a xlink:href="namespacenuspell.html#aae8baee1ca83bf5a5e0d07a4e8fdbf81" target="_top" xlink:title="nuspell::utf_to_utf_my">
<polygon fill="#ffffff" stroke="#000000" points="788,-359.5 788,-378.5 901,-378.5 901,-359.5 788,-359.5"/>
<text text-anchor="middle" x="844.5" y="-366.5" font-family="Helvetica,sans-Serif" font-size="10.00" fill="#000000">nuspell::utf_to_utf_my</text>
</a>
</g>
</g>
<!-- Node17&#45;&gt;Node18 -->
<g id="edge12" class="edge">
<title>Node17&#45;&gt;Node18</title>
<path fill="none" stroke="#191970" d="M743.6964,-381.726C754.623,-380.3466 766.3652,-378.8642 777.8376,-377.4158"/>
<polygon fill="#191970" stroke="#191970" points="778.3399,-380.8803 787.8227,-376.1553 777.4631,-373.9354 778.3399,-380.8803"/>
</g>
<!-- Node20 -->
<g id="node15" class="node">
<title>Node20</title>
<g id="a_node15"><a xlink:href="namespacenuspell.html#a8ed3c64b945233d09aee1622100ce1db" target="_top" xlink:title="nuspell::is_bmp">
<polygon fill="#ffffff" stroke="#000000" points="802,-416.5 802,-435.5 887,-435.5 887,-416.5 802,-416.5"/>
<text text-anchor="middle" x="844.5" y="-423.5" font-family="Helvetica,sans-Serif" font-size="10.00" fill="#000000">nuspell::is_bmp</text>
</a>
</g>
</g>
<!-- Node19&#45;&gt;Node20 -->
<g id="edge14" class="edge">
<title>Node19&#45;&gt;Node20</title>
<path fill="none" stroke="#191970" d="M744.1143,-426C759.2601,-426 775.9407,-426 791.2815,-426"/>
<polygon fill="#191970" stroke="#191970" points="791.6528,-429.5001 801.6528,-426 791.6527,-422.5001 791.6528,-429.5001"/>
</g>
<!-- Node22&#45;&gt;Node8 -->
<g id="edge17" class="edge">
<title>Node22&#45;&gt;Node8</title>
<path fill="none" stroke="#191970" d="M435.6278,-645C450.563,-645 466.7401,-645 481.9416,-645"/>
<polygon fill="#191970" stroke="#191970" points="482.2827,-648.5001 492.2827,-645 482.2826,-641.5001 482.2827,-648.5001"/>
</g>
<!-- Node23&#45;&gt;Node13 -->
<g id="edge19" class="edge">
<title>Node23&#45;&gt;Node13</title>
<path fill="none" stroke="#191970" d="M434.2374,-493.2262C455.1871,-487.6733 478.7436,-481.4294 498.6884,-476.1428"/>
<polygon fill="#191970" stroke="#191970" points="499.6887,-479.4986 508.4581,-473.5533 497.8951,-472.7323 499.6887,-479.4986"/>
</g>
<!-- Node24&#45;&gt;Node8 -->
<g id="edge22" class="edge">
<title>Node24&#45;&gt;Node8</title>
<path fill="none" stroke="#191970" d="M429.66,-611.1014C446.7806,-616.1551 466.0315,-621.8376 483.8078,-627.0848"/>
<polygon fill="#191970" stroke="#191970" points="482.9272,-630.4741 493.5089,-629.9484 484.9089,-623.7605 482.9272,-630.4741"/>
</g>
<!-- Node28&#45;&gt;Node13 -->
<g id="edge32" class="edge">
<title>Node28&#45;&gt;Node13</title>
<path fill="none" stroke="#191970" d="M413.1688,-397.5498C425.9074,-401.4784 440.3118,-406.4215 453,-412 477.0715,-422.5832 502.9953,-437.7009 521.0816,-448.9102"/>
<polygon fill="#191970" stroke="#191970" points="519.4443,-452.0149 529.7738,-454.371 523.1681,-446.0876 519.4443,-452.0149"/>
</g>
<!-- Node31&#45;&gt;Node18 -->
<g id="edge36" class="edge">
<title>Node31&#45;&gt;Node18</title>
<path fill="none" stroke="#191970" d="M599.1758,-353.4628C649.4271,-356.6454 724.0496,-361.3715 777.7893,-364.775"/>
<polygon fill="#191970" stroke="#191970" points="777.7062,-368.2766 787.9074,-365.4158 778.1487,-361.2906 777.7062,-368.2766"/>
</g>
</g>
</svg>
