<?xml version="1.0" encoding="UTF-8" standalone="no"?>
<!DOCTYPE svg PUBLIC "-//W3C//DTD SVG 1.1//EN"
 "http://www.w3.org/Graphics/SVG/1.1/DTD/svg11.dtd">
<!-- Generated by graphviz version 2.43.0 (0)
 -->
<!-- Title: nuspell::Checker Pages: 1 -->
<svg width="527pt" height="332pt"
 viewBox="0.00 0.00 527.00 331.50" xmlns="http://www.w3.org/2000/svg" xmlns:xlink="http://www.w3.org/1999/xlink">
<g id="graph0" class="graph" transform="scale(1 1) rotate(0) translate(4 327.5)">
<title>nuspell::Checker</title>
<polygon fill="white" stroke="transparent" points="-4,4 -4,-327.5 523,-327.5 523,4 -4,4"/>
<!-- Node1 -->
<g id="node1" class="node">
<title>Node1</title>
<g id="a_node1"><a xlink:title=" ">
<polygon fill="#bfbfbf" stroke="black" points="422,-151 422,-170 519,-170 519,-151 422,-151"/>
<text text-anchor="middle" x="470.5" y="-158" font-family="Helvetica,sans-Serif" font-size="10.00">nuspell::Checker</text>
</a>
</g>
</g>
<!-- Node2 -->
<g id="node2" class="node">
<title>Node2</title>
<g id="a_node2"><a xlink:href="structnuspell_1_1_aff___data.html" target="_top" xlink:title=" ">
<polygon fill="white" stroke="black" points="285,-151 285,-170 385,-170 385,-151 285,-151"/>
<text text-anchor="middle" x="335" y="-158" font-family="Helvetica,sans-Serif" font-size="10.00">nuspell::Aff_Data</text>
</a>
</g>
</g>
<!-- Node2&#45;&gt;Node1 -->
<g id="edge1" class="edge">
<title>Node2&#45;&gt;Node1</title>
<path fill="none" stroke="midnightblue" d="M395.51,-160.5C404.28,-160.5 413.21,-160.5 421.7,-160.5"/>
<polygon fill="midnightblue" stroke="midnightblue" points="395.33,-157 385.33,-160.5 395.33,-164 395.33,-157"/>
</g>
<!-- Node3 -->
<g id="node3" class="node">
<title>Node3</title>
<g id="a_node3"><a xlink:href="classnuspell_1_1_suffix___table.html" target="_top" xlink:title=" ">
<polygon fill="white" stroke="black" points="10.5,-304 10.5,-323 126.5,-323 126.5,-304 10.5,-304"/>
<text text-anchor="middle" x="68.5" y="-311" font-family="Helvetica,sans-Serif" font-size="10.00">nuspell::Suffix_Table</text>
</a>
</g>
</g>
<!-- Node3&#45;&gt;Node2 -->
<g id="edge2" class="edge">
<title>Node3&#45;&gt;Node2</title>
<path fill="none" stroke="#9a32cd" stroke-dasharray="5,2" d="M136.9,-314.61C177.86,-312.15 229.34,-303.17 267,-276.5 305.34,-249.35 324.89,-192.82 331.43,-170.18"/>
<polygon fill="#9a32cd" stroke="#9a32cd" points="136.55,-311.13 126.73,-315.1 136.89,-318.12 136.55,-311.13"/>
<text text-anchor="middle" x="211" y="-315.5" font-family="Helvetica,sans-Serif" font-size="10.00"> suffixes</text>
</g>
<!-- Node4 -->
<g id="node4" class="node">
<title>Node4</title>
<g id="a_node4"><a xlink:href="classnuspell_1_1_replacement___table.html" target="_top" xlink:title=" ">
<polygon fill="white" stroke="black" points="7.5,-254.5 7.5,-284.5 129.5,-284.5 129.5,-254.5 7.5,-254.5"/>
<text text-anchor="start" x="15.5" y="-272.5" font-family="Helvetica,sans-Serif" font-size="10.00">nuspell::Replacement</text>
<text text-anchor="middle" x="68.5" y="-261.5" font-family="Helvetica,sans-Serif" font-size="10.00">_Table</text>
</a>
</g>
</g>
<!-- Node4&#45;&gt;Node2 -->
<g id="edge3" class="edge">
<title>Node4&#45;&gt;Node2</title>
<path fill="none" stroke="#9a32cd" stroke-dasharray="5,2" d="M139.7,-264.96C179.07,-260.02 227.96,-249.76 267,-228.5 293.78,-213.91 316.68,-185.17 327.44,-170.15"/>
<polygon fill="#9a32cd" stroke="#9a32cd" points="139.18,-261.5 129.65,-266.13 139.99,-268.45 139.18,-261.5"/>
<text text-anchor="middle" x="211" y="-264.5" font-family="Helvetica,sans-Serif" font-size="10.00"> replacements</text>
</g>
<!-- Node5 -->
<g id="node5" class="node">
<title>Node5</title>
<g id="a_node5"><a xlink:href="classnuspell_1_1_break___table.html" target="_top" xlink:title=" ">
<polygon fill="white" stroke="black" points="10,-216 10,-235 127,-235 127,-216 10,-216"/>
<text text-anchor="middle" x="68.5" y="-223" font-family="Helvetica,sans-Serif" font-size="10.00">nuspell::Break_Table</text>
</a>
</g>
</g>
<!-- Node5&#45;&gt;Node2 -->
<g id="edge4" class="edge">
<title>Node5&#45;&gt;Node2</title>
<path fill="none" stroke="#9a32cd" stroke-dasharray="5,2" d="M137.43,-217.03C175.95,-211.26 224.75,-202.31 267,-189.5 283.74,-184.42 301.9,-176.39 315.09,-170.07"/>
<polygon fill="#9a32cd" stroke="#9a32cd" points="136.75,-213.59 127.36,-218.5 137.76,-220.52 136.75,-213.59"/>
<text text-anchor="middle" x="211" y="-216.5" font-family="Helvetica,sans-Serif" font-size="10.00"> break_table</text>
</g>
<!-- Node6 -->
<g id="node6" class="node">
<title>Node6</title>
<g id="a_node6"><a xlink:href="classnuspell_1_1_compound___rule___table.html" target="_top" xlink:title=" ">
<polygon fill="white" stroke="black" points="0,-166.5 0,-196.5 137,-196.5 137,-166.5 0,-166.5"/>
<text text-anchor="start" x="8" y="-184.5" font-family="Helvetica,sans-Serif" font-size="10.00">nuspell::Compound_Rule</text>
<text text-anchor="middle" x="68.5" y="-173.5" font-family="Helvetica,sans-Serif" font-size="10.00">_Table</text>
</a>
</g>
</g>
<!-- Node6&#45;&gt;Node2 -->
<g id="edge5" class="edge">
<title>Node6&#45;&gt;Node2</title>
<path fill="none" stroke="#9a32cd" stroke-dasharray="5,2" d="M147.46,-175.31C191.9,-171.78 246.24,-167.47 284.78,-164.41"/>
<polygon fill="#9a32cd" stroke="#9a32cd" points="146.96,-171.84 137.27,-176.12 147.52,-178.82 146.96,-171.84"/>
<text text-anchor="middle" x="211" y="-177.5" font-family="Helvetica,sans-Serif" font-size="10.00"> compound_rules</text>
</g>
<!-- Node7 -->
<g id="node7" class="node">
<title>Node7</title>
<g id="a_node7"><a xlink:href="classnuspell_1_1_encoding.html" target="_top" xlink:title=" ">
<polygon fill="white" stroke="black" points="17.5,-128 17.5,-147 119.5,-147 119.5,-128 17.5,-128"/>
<text text-anchor="middle" x="68.5" y="-135" font-family="Helvetica,sans-Serif" font-size="10.00">nuspell::Encoding</text>
</a>
</g>
</g>
<!-- Node7&#45;&gt;Node2 -->
<g id="edge6" class="edge">
<title>Node7&#45;&gt;Node2</title>
<path fill="none" stroke="#9a32cd" stroke-dasharray="5,2" d="M129.7,-140.17C168.88,-142.23 221.05,-145.57 267,-150.5 272.73,-151.12 278.72,-151.86 284.66,-152.67"/>
<polygon fill="#9a32cd" stroke="#9a32cd" points="129.68,-136.67 119.52,-139.65 129.33,-143.66 129.68,-136.67"/>
<text text-anchor="middle" x="211" y="-153.5" font-family="Helvetica,sans-Serif" font-size="10.00"> encoding</text>
</g>
<!-- Node8 -->
<g id="node8" class="node">
<title>Node8</title>
<g id="a_node8"><a xlink:href="classnuspell_1_1_prefix___table.html" target="_top" xlink:title=" ">
<polygon fill="white" stroke="black" points="10.5,-90 10.5,-109 126.5,-109 126.5,-90 10.5,-90"/>
<text text-anchor="middle" x="68.5" y="-97" font-family="Helvetica,sans-Serif" font-size="10.00">nuspell::Prefix_Table</text>
</a>
</g>
</g>
<!-- Node8&#45;&gt;Node2 -->
<g id="edge7" class="edge">
<title>Node8&#45;&gt;Node2</title>
<path fill="none" stroke="#9a32cd" stroke-dasharray="5,2" d="M136.9,-103.13C175.65,-106.59 224.85,-113.34 267,-126.5 285.8,-132.37 305.73,-143.15 318.92,-151"/>
<polygon fill="#9a32cd" stroke="#9a32cd" points="137.04,-99.63 126.78,-102.28 136.45,-106.6 137.04,-99.63"/>
<text text-anchor="middle" x="211" y="-129.5" font-family="Helvetica,sans-Serif" font-size="10.00"> prefixes</text>
</g>
<!-- Node9 -->
<g id="node9" class="node">
<title>Node9</title>
<g id="a_node9"><a xlink:href="classnuspell_1_1_substr___replacer.html" target="_top" xlink:title=" ">
<polygon fill="white" stroke="black" points="0,-50 0,-69 137,-69 137,-50 0,-50"/>
<text text-anchor="middle" x="68.5" y="-57" font-family="Helvetica,sans-Serif" font-size="10.00">nuspell::Substr_Replacer</text>
</a>
</g>
</g>
<!-- Node9&#45;&gt;Node2 -->
<g id="edge8" class="edge">
<title>Node9&#45;&gt;Node2</title>
<path fill="none" stroke="#9a32cd" stroke-dasharray="5,2" d="M147.26,-53.4C185.37,-53.68 230.75,-59.12 267,-78.5 298.13,-95.14 320.25,-132.94 329.37,-150.81"/>
<polygon fill="#9a32cd" stroke="#9a32cd" points="147.22,-49.9 137.23,-53.44 147.25,-56.9 147.22,-49.9"/>
<text text-anchor="middle" x="211" y="-92.5" font-family="Helvetica,sans-Serif" font-size="10.00"> input_substr_replacer</text>
<text text-anchor="middle" x="211" y="-81.5" font-family="Helvetica,sans-Serif" font-size="10.00">output_substr_replacer</text>
</g>
<!-- Node10 -->
<g id="node10" class="node">
<title>Node10</title>
<g id="a_node10"><a xlink:href="classnuspell_1_1_hash___multimap.html" target="_top" xlink:title=" ">
<polygon fill="white" stroke="black" points="0.5,-0.5 0.5,-30.5 136.5,-30.5 136.5,-0.5 0.5,-0.5"/>
<text text-anchor="start" x="8.5" y="-18.5" font-family="Helvetica,sans-Serif" font-size="10.00">nuspell::Hash_Multimap</text>
<text text-anchor="middle" x="68.5" y="-7.5" font-family="Helvetica,sans-Serif" font-size="10.00">&lt; std::string, Flag_Set &gt;</text>
</a>
</g>
</g>
<!-- Node10&#45;&gt;Node2 -->
<g id="edge9" class="edge">
<title>Node10&#45;&gt;Node2</title>
<path fill="none" stroke="#9a32cd" stroke-dasharray="5,2" d="M146.82,-8.49C185.85,-8.7 232.16,-15.06 267,-38.5 307.9,-66.02 326.16,-127.15 331.89,-150.85"/>
<polygon fill="#9a32cd" stroke="#9a32cd" points="146.52,-4.99 136.55,-8.57 146.58,-11.99 146.52,-4.99"/>
<text text-anchor="middle" x="211" y="-41.5" font-family="Helvetica,sans-Serif" font-size="10.00"> words</text>
</g>
</g>
</svg>
