<?xml version="1.0" encoding="UTF-8" standalone="no"?>
<!DOCTYPE svg PUBLIC "-//W3C//DTD SVG 1.1//EN"
 "http://www.w3.org/Graphics/SVG/1.1/DTD/svg11.dtd">
<!-- Generated by graphviz version 2.40.1 (20161225.0304)
 -->
<!-- Title: nuspell::Dict_Base Pages: 1 -->
<svg width="675pt" height="412pt"
 viewBox="0.00 0.00 675.00 411.50" xmlns="http://www.w3.org/2000/svg" xmlns:xlink="http://www.w3.org/1999/xlink">
<g id="graph0" class="graph" transform="scale(1 1) rotate(0) translate(4 407.5)">
<title>nuspell::Dict_Base</title>
<polygon fill="#ffffff" stroke="transparent" points="-4,4 -4,-407.5 671,-407.5 671,4 -4,4"/>
<!-- Node3 -->
<g id="node1" class="node">
<title>Node3</title>
<polygon fill="#bfbfbf" stroke="#000000" points="568,-192 568,-211 667,-211 667,-192 568,-192"/>
<text text-anchor="middle" x="617.5" y="-199" font-family="Helvetica,sans-Serif" font-size="10.00" fill="#000000">nuspell::Dict_Base</text>
</g>
<!-- Node4 -->
<g id="node2" class="node">
<title>Node4</title>
<g id="a_node2"><a xlink:href="structnuspell_1_1_aff___data.html" target="_top" xlink:title="nuspell::Aff_Data">
<polygon fill="#ffffff" stroke="#000000" points="439,-192 439,-211 531,-211 531,-192 439,-192"/>
<text text-anchor="middle" x="485" y="-199" font-family="Helvetica,sans-Serif" font-size="10.00" fill="#000000">nuspell::Aff_Data</text>
</a>
</g>
</g>
<!-- Node4&#45;&gt;Node3 -->
<g id="edge1" class="edge">
<title>Node4&#45;&gt;Node3</title>
<path fill="none" stroke="#191970" d="M541.4732,-201.5C550.2267,-201.5 559.213,-201.5 567.8026,-201.5"/>
<polygon fill="#191970" stroke="#191970" points="541.3421,-198.0001 531.3421,-201.5 541.342,-205.0001 541.3421,-198.0001"/>
</g>
<!-- Node5 -->
<g id="node3" class="node">
<title>Node5</title>
<g id="a_node3"><a xlink:href="classnuspell_1_1_word___list.html" target="_top" xlink:title="Map between words and word_flags. ">
<polygon fill="#ffffff" stroke="#000000" points="180,-383 180,-402 278,-402 278,-383 180,-383"/>
<text text-anchor="middle" x="229" y="-390" font-family="Helvetica,sans-Serif" font-size="10.00" fill="#000000">nuspell::Word_List</text>
</a>
</g>
</g>
<!-- Node5&#45;&gt;Node4 -->
<g id="edge2" class="edge">
<title>Node5&#45;&gt;Node4</title>
<path fill="none" stroke="#9a32cd" stroke-dasharray="5,2" d="M288.3258,-395.1004C329.7353,-393.8384 384.0008,-385.6439 421,-355.5 467.9131,-317.2791 480.8831,-238.8218 484.0643,-211.3016"/>
<polygon fill="#9a32cd" stroke="#9a32cd" points="288.03,-391.6049 278.0933,-395.281 288.1535,-398.6038 288.03,-391.6049"/>
<text text-anchor="middle" x="365.5" y="-395.5" font-family="Helvetica,sans-Serif" font-size="10.00" fill="#000000"> words</text>
</g>
<!-- Node6 -->
<g id="node4" class="node">
<title>Node6</title>
<g id="a_node4"><a xlink:href="classnuspell_1_1_hash___multiset.html" target="_top" xlink:title="Word_List_Base">
<polygon fill="#ffffff" stroke="#000000" points="20,-383 20,-402 109,-402 109,-383 20,-383"/>
<text text-anchor="middle" x="64.5" y="-390" font-family="Helvetica,sans-Serif" font-size="10.00" fill="#000000">Word_List_Base</text>
</a>
</g>
</g>
<!-- Node6&#45;&gt;Node5 -->
<g id="edge3" class="edge">
<title>Node6&#45;&gt;Node5</title>
<path fill="none" stroke="#191970" d="M119.0346,-392.5C138.6616,-392.5 160.673,-392.5 179.8169,-392.5"/>
<polygon fill="#191970" stroke="#191970" points="119.0161,-389.0001 109.0161,-392.5 119.016,-396.0001 119.0161,-389.0001"/>
</g>
<!-- Node7 -->
<g id="node5" class="node">
<title>Node7</title>
<g id="a_node5"><a xlink:href="classnuspell_1_1_string___set.html" target="_top" xlink:title="nuspell::String_Set\l\&lt; char16_t \&gt;">
<polygon fill="#ffffff" stroke="#000000" points="179.5,-333.5 179.5,-363.5 278.5,-363.5 278.5,-333.5 179.5,-333.5"/>
<text text-anchor="start" x="187.5" y="-351.5" font-family="Helvetica,sans-Serif" font-size="10.00" fill="#000000">nuspell::String_Set</text>
<text text-anchor="middle" x="229" y="-340.5" font-family="Helvetica,sans-Serif" font-size="10.00" fill="#000000">&lt; char16_t &gt;</text>
</a>
</g>
</g>
<!-- Node7&#45;&gt;Node4 -->
<g id="edge4" class="edge">
<title>Node7&#45;&gt;Node4</title>
<path fill="none" stroke="#9a32cd" stroke-dasharray="5,2" d="M288.5404,-344.9705C329.0872,-340.0061 382.228,-328.235 421,-300.5 453.7922,-277.0426 474.0146,-231.0619 481.594,-211.1137"/>
<polygon fill="#9a32cd" stroke="#9a32cd" points="288.0685,-341.5014 278.5197,-346.0915 288.8468,-348.458 288.0685,-341.5014"/>
<text text-anchor="middle" x="365.5" y="-343.5" font-family="Helvetica,sans-Serif" font-size="10.00" fill="#000000"> compound_syllable_num</text>
</g>
<!-- Node8 -->
<g id="node6" class="node">
<title>Node8</title>
<g id="a_node6"><a xlink:href="classnuspell_1_1_replacement___table.html" target="_top" xlink:title="nuspell::Replacement\l_Table\&lt; wchar_t \&gt;">
<polygon fill="#ffffff" stroke="#000000" points="173.5,-284.5 173.5,-314.5 284.5,-314.5 284.5,-284.5 173.5,-284.5"/>
<text text-anchor="start" x="181.5" y="-302.5" font-family="Helvetica,sans-Serif" font-size="10.00" fill="#000000">nuspell::Replacement</text>
<text text-anchor="middle" x="229" y="-291.5" font-family="Helvetica,sans-Serif" font-size="10.00" fill="#000000">_Table&lt; wchar_t &gt;</text>
</a>
</g>
</g>
<!-- Node8&#45;&gt;Node4 -->
<g id="edge5" class="edge">
<title>Node8&#45;&gt;Node4</title>
<path fill="none" stroke="#9a32cd" stroke-dasharray="5,2" d="M294.8976,-290.0552C333.0903,-282.8881 381.3179,-270.8692 421,-251.5 442.5408,-240.9857 463.6954,-222.3868 475.4777,-211.0772"/>
<polygon fill="#9a32cd" stroke="#9a32cd" points="294.1294,-286.6373 284.9124,-291.8621 295.3759,-293.5254 294.1294,-286.6373"/>
<text text-anchor="middle" x="365.5" y="-288.5" font-family="Helvetica,sans-Serif" font-size="10.00" fill="#000000"> replacements</text>
</g>
<!-- Node9 -->
<g id="node7" class="node">
<title>Node9</title>
<g id="a_node7"><a xlink:href="classnuspell_1_1_compound___rule___table.html" target="_top" xlink:title="nuspell::Compound_Rule\l_Table">
<polygon fill="#ffffff" stroke="#000000" points="166,-235.5 166,-265.5 292,-265.5 292,-235.5 166,-235.5"/>
<text text-anchor="start" x="174" y="-253.5" font-family="Helvetica,sans-Serif" font-size="10.00" fill="#000000">nuspell::Compound_Rule</text>
<text text-anchor="middle" x="229" y="-242.5" font-family="Helvetica,sans-Serif" font-size="10.00" fill="#000000">_Table</text>
</a>
</g>
</g>
<!-- Node9&#45;&gt;Node4 -->
<g id="edge6" class="edge">
<title>Node9&#45;&gt;Node4</title>
<path fill="none" stroke="#9a32cd" stroke-dasharray="5,2" d="M302.1959,-238.5103C338.087,-232.384 381.9014,-224.5374 421,-216.5 429.0485,-214.8455 437.6322,-212.9351 445.8134,-211.0437"/>
<polygon fill="#9a32cd" stroke="#9a32cd" points="301.5665,-235.067 292.2934,-240.1914 302.7382,-241.9683 301.5665,-235.067"/>
<text text-anchor="middle" x="365.5" y="-239.5" font-family="Helvetica,sans-Serif" font-size="10.00" fill="#000000"> compound_rules</text>
</g>
<!-- Node10 -->
<g id="node8" class="node">
<title>Node10</title>
<g id="a_node8"><a xlink:href="classnuspell_1_1_phonetic___table.html" target="_top" xlink:title="nuspell::Phonetic_Table\l\&lt; wchar_t \&gt;">
<polygon fill="#ffffff" stroke="#000000" points="168.5,-186.5 168.5,-216.5 289.5,-216.5 289.5,-186.5 168.5,-186.5"/>
<text text-anchor="start" x="176.5" y="-204.5" font-family="Helvetica,sans-Serif" font-size="10.00" fill="#000000">nuspell::Phonetic_Table</text>
<text text-anchor="middle" x="229" y="-193.5" font-family="Helvetica,sans-Serif" font-size="10.00" fill="#000000">&lt; wchar_t &gt;</text>
</a>
</g>
</g>
<!-- Node10&#45;&gt;Node4 -->
<g id="edge7" class="edge">
<title>Node10&#45;&gt;Node4</title>
<path fill="none" stroke="#9a32cd" stroke-dasharray="5,2" d="M299.8105,-201.5C344.1677,-201.5 400.0591,-201.5 438.777,-201.5"/>
<polygon fill="#9a32cd" stroke="#9a32cd" points="299.6685,-198.0001 289.6684,-201.5 299.6684,-205.0001 299.6685,-198.0001"/>
<text text-anchor="middle" x="365.5" y="-204.5" font-family="Helvetica,sans-Serif" font-size="10.00" fill="#000000"> phonetic_table</text>
</g>
<!-- Node11 -->
<g id="node9" class="node">
<title>Node11</title>
<g id="a_node9"><a xlink:href="classnuspell_1_1_substr___replacer.html" target="_top" xlink:title="nuspell::Substr_Replacer\l\&lt; wchar_t \&gt;">
<polygon fill="#ffffff" stroke="#000000" points="166,-137.5 166,-167.5 292,-167.5 292,-137.5 166,-137.5"/>
<text text-anchor="start" x="174" y="-155.5" font-family="Helvetica,sans-Serif" font-size="10.00" fill="#000000">nuspell::Substr_Replacer</text>
<text text-anchor="middle" x="229" y="-144.5" font-family="Helvetica,sans-Serif" font-size="10.00" fill="#000000">&lt; wchar_t &gt;</text>
</a>
</g>
</g>
<!-- Node11&#45;&gt;Node4 -->
<g id="edge8" class="edge">
<title>Node11&#45;&gt;Node4</title>
<path fill="none" stroke="#9a32cd" stroke-dasharray="5,2" d="M302.0299,-156.648C338.2375,-159.862 382.3729,-165.5318 421,-175.5 436.3286,-179.4557 452.8652,-186.2447 465.2886,-191.8935"/>
<polygon fill="#9a32cd" stroke="#9a32cd" points="302.2978,-153.1582 292.0389,-155.805 301.7092,-160.1334 302.2978,-153.1582"/>
<text text-anchor="middle" x="365.5" y="-189.5" font-family="Helvetica,sans-Serif" font-size="10.00" fill="#000000"> input_substr_replacer</text>
<text text-anchor="middle" x="365.5" y="-178.5" font-family="Helvetica,sans-Serif" font-size="10.00" fill="#000000">output_substr_replacer</text>
</g>
<!-- Node12 -->
<g id="node10" class="node">
<title>Node12</title>
<g id="a_node10"><a xlink:href="classnuspell_1_1_encoding.html" target="_top" xlink:title="nuspell::Encoding">
<polygon fill="#ffffff" stroke="#000000" points="182,-99 182,-118 276,-118 276,-99 182,-99"/>
<text text-anchor="middle" x="229" y="-106" font-family="Helvetica,sans-Serif" font-size="10.00" fill="#000000">nuspell::Encoding</text>
</a>
</g>
</g>
<!-- Node12&#45;&gt;Node4 -->
<g id="edge9" class="edge">
<title>Node12&#45;&gt;Node4</title>
<path fill="none" stroke="#9a32cd" stroke-dasharray="5,2" d="M286.3135,-110.2296C325.9262,-113.392 378.8652,-121.6234 421,-142.5 445.1033,-154.4425 466.6293,-178.3016 477.5092,-191.732"/>
<polygon fill="#9a32cd" stroke="#9a32cd" points="286.5115,-106.735 276.2876,-109.514 286.013,-113.7172 286.5115,-106.735"/>
<text text-anchor="middle" x="365.5" y="-145.5" font-family="Helvetica,sans-Serif" font-size="10.00" fill="#000000"> encoding</text>
</g>
<!-- Node13 -->
<g id="node11" class="node">
<title>Node13</title>
<g id="a_node11"><a xlink:href="classnuspell_1_1_affix___table.html" target="_top" xlink:title="nuspell::Affix_Table\l\&lt; wchar_t \&gt;">
<polygon fill="#ffffff" stroke="#000000" points="177.5,-49.5 177.5,-79.5 280.5,-79.5 280.5,-49.5 177.5,-49.5"/>
<text text-anchor="start" x="185.5" y="-67.5" font-family="Helvetica,sans-Serif" font-size="10.00" fill="#000000">nuspell::Affix_Table</text>
<text text-anchor="middle" x="229" y="-56.5" font-family="Helvetica,sans-Serif" font-size="10.00" fill="#000000">&lt; wchar_t &gt;</text>
</a>
</g>
</g>
<!-- Node13&#45;&gt;Node4 -->
<g id="edge10" class="edge">
<title>Node13&#45;&gt;Node4</title>
<path fill="none" stroke="#9a32cd" stroke-dasharray="5,2" d="M290.862,-57.7767C331.1182,-56.5334 383.0053,-61.1417 421,-86.5 459.3897,-112.122 477.0433,-168.9105 482.7828,-191.7282"/>
<polygon fill="#9a32cd" stroke="#9a32cd" points="290.4678,-54.2905 280.6305,-58.2245 290.774,-61.2838 290.4678,-54.2905"/>
<text text-anchor="middle" x="365.5" y="-100.5" font-family="Helvetica,sans-Serif" font-size="10.00" fill="#000000"> suffixes</text>
<text text-anchor="middle" x="365.5" y="-89.5" font-family="Helvetica,sans-Serif" font-size="10.00" fill="#000000">prefixes</text>
</g>
<!-- Node14 -->
<g id="node12" class="node">
<title>Node14</title>
<g id="a_node12"><a xlink:href="classnuspell_1_1_hash___multiset.html" target="_top" xlink:title="Affix_Table_Base\&lt; wchar\l_t , AffixT \&gt;">
<polygon fill="#ffffff" stroke="#000000" points="0,-49.5 0,-79.5 129,-79.5 129,-49.5 0,-49.5"/>
<text text-anchor="start" x="8" y="-67.5" font-family="Helvetica,sans-Serif" font-size="10.00" fill="#000000">Affix_Table_Base&lt; wchar</text>
<text text-anchor="middle" x="64.5" y="-56.5" font-family="Helvetica,sans-Serif" font-size="10.00" fill="#000000">_t , AffixT &gt;</text>
</a>
</g>
</g>
<!-- Node14&#45;&gt;Node13 -->
<g id="edge11" class="edge">
<title>Node14&#45;&gt;Node13</title>
<path fill="none" stroke="#8b1a1a" d="M139.2828,-64.5C152.1474,-64.5 165.2577,-64.5 177.3409,-64.5"/>
<polygon fill="#8b1a1a" stroke="#8b1a1a" points="139.0427,-61.0001 129.0426,-64.5 139.0426,-68.0001 139.0427,-61.0001"/>
</g>
<!-- Node15 -->
<g id="node13" class="node">
<title>Node15</title>
<g id="a_node13"><a xlink:href="classnuspell_1_1_break___table.html" target="_top" xlink:title="nuspell::Break_Table\l\&lt; wchar_t \&gt;">
<polygon fill="#ffffff" stroke="#000000" points="175,-.5 175,-30.5 283,-30.5 283,-.5 175,-.5"/>
<text text-anchor="start" x="183" y="-18.5" font-family="Helvetica,sans-Serif" font-size="10.00" fill="#000000">nuspell::Break_Table</text>
<text text-anchor="middle" x="229" y="-7.5" font-family="Helvetica,sans-Serif" font-size="10.00" fill="#000000">&lt; wchar_t &gt;</text>
</a>
</g>
</g>
<!-- Node15&#45;&gt;Node4 -->
<g id="edge12" class="edge">
<title>Node15&#45;&gt;Node4</title>
<path fill="none" stroke="#9a32cd" stroke-dasharray="5,2" d="M293.1064,-9.5371C333.7459,-9.169 385.2101,-15.4139 421,-43.5 469.893,-81.8688 481.6373,-163.609 484.2793,-191.7455"/>
<polygon fill="#9a32cd" stroke="#9a32cd" points="292.9424,-6.0399 283.0237,-9.764 293.0999,-13.0381 292.9424,-6.0399"/>
<text text-anchor="middle" x="365.5" y="-46.5" font-family="Helvetica,sans-Serif" font-size="10.00" fill="#000000"> break_table</text>
</g>
</g>
</svg>
