<?xml version="1.0" encoding="UTF-8" standalone="no"?>
<!DOCTYPE svg PUBLIC "-//W3C//DTD SVG 1.1//EN"
 "http://www.w3.org/Graphics/SVG/1.1/DTD/svg11.dtd">
<!-- Generated by graphviz version 2.40.1 (20161225.0304)
 -->
<!-- Title: src/nuspell/structures.hxx Pages: 1 -->
<svg width="976pt" height="95pt"
 viewBox="0.00 0.00 976.00 95.00" xmlns="http://www.w3.org/2000/svg" xmlns:xlink="http://www.w3.org/1999/xlink">
<g id="graph0" class="graph" transform="scale(1 1) rotate(0) translate(4 91)">
<title>src/nuspell/structures.hxx</title>
<polygon fill="#ffffff" stroke="transparent" points="-4,4 -4,-91 972,-91 972,4 -4,4"/>
<!-- Node0 -->
<g id="node1" class="node">
<title>Node0</title>
<polygon fill="#bfbfbf" stroke="#000000" points="293.5,-67.5 293.5,-86.5 422.5,-86.5 422.5,-67.5 293.5,-67.5"/>
<text text-anchor="middle" x="358" y="-74.5" font-family="Helvetica,sans-Serif" font-size="10.00" fill="#000000">src/nuspell/structures.hxx</text>
</g>
<!-- Node1 -->
<g id="node2" class="node">
<title>Node1</title>
<polygon fill="#ffffff" stroke="#bfbfbf" points="0,-6 0,-25 56,-25 56,-6 0,-6"/>
<text text-anchor="middle" x="28" y="-13" font-family="Helvetica,sans-Serif" font-size="10.00" fill="#000000">algorithm</text>
</g>
<!-- Node0&#45;&gt;Node1 -->
<g id="edge1" class="edge">
<title>Node0&#45;&gt;Node1</title>
<path fill="none" stroke="#191970" d="M293.3125,-71.3638C233.2948,-65.0775 141.9098,-52.8011 65,-31 62.682,-30.3429 60.3149,-29.5804 57.9542,-28.753"/>
<polygon fill="#191970" stroke="#191970" points="59.0184,-25.4124 48.4285,-25.0894 56.5056,-31.9458 59.0184,-25.4124"/>
</g>
<!-- Node2 -->
<g id="node3" class="node">
<title>Node2</title>
<polygon fill="#ffffff" stroke="#bfbfbf" points="74,-6 74,-25 118,-25 118,-6 74,-6"/>
<text text-anchor="middle" x="96" y="-13" font-family="Helvetica,sans-Serif" font-size="10.00" fill="#000000">cmath</text>
</g>
<!-- Node0&#45;&gt;Node2 -->
<g id="edge2" class="edge">
<title>Node0&#45;&gt;Node2</title>
<path fill="none" stroke="#191970" d="M293.0558,-68.8061C246.0806,-61.7456 181.5441,-49.6891 127,-31 125.3955,-30.4502 123.7685,-29.8336 122.1434,-29.1715"/>
<polygon fill="#191970" stroke="#191970" points="123.579,-25.9795 113.0267,-25.0313 120.6845,-32.3531 123.579,-25.9795"/>
</g>
<!-- Node3 -->
<g id="node4" class="node">
<title>Node3</title>
<polygon fill="#ffffff" stroke="#bfbfbf" points="136.5,-6 136.5,-25 183.5,-25 183.5,-6 136.5,-6"/>
<text text-anchor="middle" x="160" y="-13" font-family="Helvetica,sans-Serif" font-size="10.00" fill="#000000">iterator</text>
</g>
<!-- Node0&#45;&gt;Node3 -->
<g id="edge3" class="edge">
<title>Node0&#45;&gt;Node3</title>
<path fill="none" stroke="#191970" d="M315.3683,-67.4384C281.4306,-59.2919 232.9923,-46.4623 192,-31 190.5922,-30.469 189.1623,-29.8985 187.7274,-29.301"/>
<polygon fill="#191970" stroke="#191970" points="188.9202,-26 178.3641,-25.0954 186.0521,-32.3855 188.9202,-26"/>
</g>
<!-- Node4 -->
<g id="node5" class="node">
<title>Node4</title>
<polygon fill="#ffffff" stroke="#bfbfbf" points="201.5,-6 201.5,-25 260.5,-25 260.5,-6 201.5,-6"/>
<text text-anchor="middle" x="231" y="-13" font-family="Helvetica,sans-Serif" font-size="10.00" fill="#000000">stdexcept</text>
</g>
<!-- Node0&#45;&gt;Node4 -->
<g id="edge4" class="edge">
<title>Node0&#45;&gt;Node4</title>
<path fill="none" stroke="#191970" d="M338.1563,-67.3906C317.1864,-57.2359 283.9056,-41.1196 259.9964,-29.5416"/>
<polygon fill="#191970" stroke="#191970" points="261.2301,-26.2502 250.7044,-25.0419 258.1792,-32.5504 261.2301,-26.2502"/>
</g>
<!-- Node5 -->
<g id="node6" class="node">
<title>Node5</title>
<polygon fill="#ffffff" stroke="#bfbfbf" points="278.5,-6 278.5,-25 319.5,-25 319.5,-6 278.5,-6"/>
<text text-anchor="middle" x="299" y="-13" font-family="Helvetica,sans-Serif" font-size="10.00" fill="#000000">string</text>
</g>
<!-- Node0&#45;&gt;Node5 -->
<g id="edge5" class="edge">
<title>Node0&#45;&gt;Node5</title>
<path fill="none" stroke="#191970" d="M348.7813,-67.3906C339.9142,-58.1478 326.3088,-43.966 315.5611,-32.7628"/>
<polygon fill="#191970" stroke="#191970" points="317.7973,-30.0381 308.3487,-25.2449 312.7459,-34.8841 317.7973,-30.0381"/>
</g>
<!-- Node6 -->
<g id="node7" class="node">
<title>Node6</title>
<polygon fill="#ffffff" stroke="#bfbfbf" points="338,-6 338,-25 378,-25 378,-6 338,-6"/>
<text text-anchor="middle" x="358" y="-13" font-family="Helvetica,sans-Serif" font-size="10.00" fill="#000000">utility</text>
</g>
<!-- Node0&#45;&gt;Node6 -->
<g id="edge6" class="edge">
<title>Node0&#45;&gt;Node6</title>
<path fill="none" stroke="#191970" d="M358,-67.3906C358,-58.8657 358,-46.1392 358,-35.4235"/>
<polygon fill="#191970" stroke="#191970" points="361.5001,-35.2448 358,-25.2449 354.5001,-35.2449 361.5001,-35.2448"/>
</g>
<!-- Node7 -->
<g id="node8" class="node">
<title>Node7</title>
<polygon fill="#ffffff" stroke="#bfbfbf" points="396,-6 396,-25 440,-25 440,-6 396,-6"/>
<text text-anchor="middle" x="418" y="-13" font-family="Helvetica,sans-Serif" font-size="10.00" fill="#000000">vector</text>
</g>
<!-- Node0&#45;&gt;Node7 -->
<g id="edge7" class="edge">
<title>Node0&#45;&gt;Node7</title>
<path fill="none" stroke="#191970" d="M367.375,-67.3906C376.4799,-58.0581 390.4974,-43.6902 401.4757,-32.4374"/>
<polygon fill="#191970" stroke="#191970" points="404.0148,-34.8468 408.4928,-25.2449 399.0043,-29.9586 404.0148,-34.8468"/>
</g>
<!-- Node8 -->
<g id="node9" class="node">
<title>Node8</title>
<polygon fill="#ffffff" stroke="#bfbfbf" points="458,-.5 458,-30.5 568,-30.5 568,-.5 458,-.5"/>
<text text-anchor="start" x="466" y="-18.5" font-family="Helvetica,sans-Serif" font-size="10.00" fill="#000000">boost/container/small</text>
<text text-anchor="middle" x="513" y="-7.5" font-family="Helvetica,sans-Serif" font-size="10.00" fill="#000000">_vector.hpp</text>
</g>
<!-- Node0&#45;&gt;Node8 -->
<g id="edge8" class="edge">
<title>Node0&#45;&gt;Node8</title>
<path fill="none" stroke="#191970" d="M382.2188,-67.3906C404.4586,-58.5664 438.0445,-45.2404 465.6114,-34.3026"/>
<polygon fill="#191970" stroke="#191970" points="467.0785,-37.486 475.0827,-30.5446 464.4968,-30.9794 467.0785,-37.486"/>
</g>
<!-- Node9 -->
<g id="node10" class="node">
<title>Node9</title>
<polygon fill="#ffffff" stroke="#bfbfbf" points="586,-6 586,-25 736,-25 736,-6 586,-6"/>
<text text-anchor="middle" x="661" y="-13" font-family="Helvetica,sans-Serif" font-size="10.00" fill="#000000">boost/multi_index/member.hpp</text>
</g>
<!-- Node0&#45;&gt;Node9 -->
<g id="edge9" class="edge">
<title>Node0&#45;&gt;Node9</title>
<path fill="none" stroke="#191970" d="M405.0113,-67.4581C458.6402,-56.573 546.3276,-38.7751 603.8562,-27.0985"/>
<polygon fill="#191970" stroke="#191970" points="604.7745,-30.4836 613.8784,-25.0643 603.382,-23.6234 604.7745,-30.4836"/>
</g>
<!-- Node10 -->
<g id="node11" class="node">
<title>Node10</title>
<polygon fill="#ffffff" stroke="#bfbfbf" points="754.5,-.5 754.5,-30.5 855.5,-30.5 855.5,-.5 754.5,-.5"/>
<text text-anchor="start" x="762.5" y="-18.5" font-family="Helvetica,sans-Serif" font-size="10.00" fill="#000000">boost/range/iterator</text>
<text text-anchor="middle" x="805" y="-7.5" font-family="Helvetica,sans-Serif" font-size="10.00" fill="#000000">_range_core.hpp</text>
</g>
<!-- Node0&#45;&gt;Node10 -->
<g id="edge10" class="edge">
<title>Node0&#45;&gt;Node10</title>
<path fill="none" stroke="#191970" d="M422.7702,-71.9823C497.8469,-65.5663 625.4034,-52.818 744.358,-30.956"/>
<polygon fill="#191970" stroke="#191970" points="745.179,-34.3634 754.3686,-29.0906 743.8966,-27.4818 745.179,-34.3634"/>
</g>
<!-- Node11 -->
<g id="node12" class="node">
<title>Node11</title>
<polygon fill="#ffffff" stroke="#bfbfbf" points="874,-.5 874,-30.5 968,-30.5 968,-.5 874,-.5"/>
<text text-anchor="start" x="882" y="-18.5" font-family="Helvetica,sans-Serif" font-size="10.00" fill="#000000">boost/utility/string</text>
<text text-anchor="middle" x="921" y="-7.5" font-family="Helvetica,sans-Serif" font-size="10.00" fill="#000000">_view.hpp</text>
</g>
<!-- Node0&#45;&gt;Node11 -->
<g id="edge11" class="edge">
<title>Node0&#45;&gt;Node11</title>
<path fill="none" stroke="#191970" d="M422.5266,-74.8536C517.3537,-70.8827 699.9357,-60.1328 863.5321,-31.0614"/>
<polygon fill="#191970" stroke="#191970" points="864.5627,-34.432 873.7819,-29.2112 863.3191,-27.5434 864.5627,-34.432"/>
</g>
</g>
</svg>
