<?xml version="1.0" encoding="UTF-8" standalone="no"?>
<!DOCTYPE svg PUBLIC "-//W3C//DTD SVG 1.1//EN"
 "http://www.w3.org/Graphics/SVG/1.1/DTD/svg11.dtd">
<!-- Generated by graphviz version 2.40.1 (20161225.0304)
 -->
<!-- Title: nuspell::Aff_Data::parse_aff Pages: 1 -->
<svg width="909pt" height="712pt"
 viewBox="0.00 0.00 909.00 711.66" xmlns="http://www.w3.org/2000/svg" xmlns:xlink="http://www.w3.org/1999/xlink">
<g id="graph0" class="graph" transform="scale(1 1) rotate(0) translate(4 707.6628)">
<title>nuspell::Aff_Data::parse_aff</title>
<polygon fill="#ffffff" stroke="transparent" points="-4,4 -4,-707.6628 905,-707.6628 905,4 -4,4"/>
<!-- Node6 -->
<g id="node1" class="node">
<title>Node6</title>
<polygon fill="#bfbfbf" stroke="#000000" points="0,-316 0,-346 98,-346 98,-316 0,-316"/>
<text text-anchor="start" x="8" y="-334" font-family="Helvetica,sans-Serif" font-size="10.00" fill="#000000">nuspell::Aff_Data::</text>
<text text-anchor="middle" x="49" y="-323" font-family="Helvetica,sans-Serif" font-size="10.00" fill="#000000">parse_aff</text>
</g>
<!-- Node7 -->
<g id="node2" class="node">
<title>Node7</title>
<g id="a_node2"><a xlink:href="namespacenuspell.html#a2f6f1d95de158b3512f812a213175ab4" target="_top" xlink:title="nuspell::strip_bom">
<polygon fill="#ffffff" stroke="#000000" points="330.5,-641.5 330.5,-660.5 426.5,-660.5 426.5,-641.5 330.5,-641.5"/>
<text text-anchor="middle" x="378.5" y="-648.5" font-family="Helvetica,sans-Serif" font-size="10.00" fill="#000000">nuspell::strip_bom</text>
</a>
</g>
</g>
<!-- Node6&#45;&gt;Node7 -->
<g id="edge1" class="edge">
<title>Node6&#45;&gt;Node7</title>
<path fill="none" stroke="#191970" d="M52.0041,-346.0082C62.2317,-395.6704 97.1154,-553.478 134,-588 184.3604,-635.1346 265.1898,-648.1272 320.0029,-651.1417"/>
<polygon fill="#191970" stroke="#191970" points="320.1133,-654.6502 330.2616,-651.6066 320.4303,-647.6573 320.1133,-654.6502"/>
</g>
<!-- Node8 -->
<g id="node3" class="node">
<title>Node8</title>
<g id="a_node3"><a xlink:href="namespacenuspell.html#aca16d8679d9abbf9c15f5a5cb2916649" target="_top" xlink:title="nuspell::reset_failbit\l_istream">
<polygon fill="#ffffff" stroke="#000000" points="492.5,-592 492.5,-622 596.5,-622 596.5,-592 492.5,-592"/>
<text text-anchor="start" x="500.5" y="-610" font-family="Helvetica,sans-Serif" font-size="10.00" fill="#000000">nuspell::reset_failbit</text>
<text text-anchor="middle" x="544.5" y="-599" font-family="Helvetica,sans-Serif" font-size="10.00" fill="#000000">_istream</text>
</a>
</g>
</g>
<!-- Node6&#45;&gt;Node8 -->
<g id="edge30" class="edge">
<title>Node6&#45;&gt;Node8</title>
<path fill="none" stroke="#191970" d="M51.2508,-346.1227C59.7331,-401.1157 91.4623,-589.3706 134,-630 237.3283,-728.6927 316.557,-712.4298 453,-670 478.7978,-661.9776 503.7592,-643.872 521.0755,-629.1198"/>
<polygon fill="#191970" stroke="#191970" points="523.7371,-631.4399 528.9322,-622.2061 519.1128,-626.1848 523.7371,-631.4399"/>
</g>
<!-- Node9 -->
<g id="node4" class="node">
<title>Node9</title>
<g id="a_node4"><a xlink:href="classnuspell_1_1_encoding.html#a2daf31323eca9a2b8d91a5f0ab4be974" target="_top" xlink:title="nuspell::Encoding::\lis_utf8">
<polygon fill="#ffffff" stroke="#000000" points="151,-253 151,-283 251,-283 251,-253 151,-253"/>
<text text-anchor="start" x="159" y="-271" font-family="Helvetica,sans-Serif" font-size="10.00" fill="#000000">nuspell::Encoding::</text>
<text text-anchor="middle" x="201" y="-260" font-family="Helvetica,sans-Serif" font-size="10.00" fill="#000000">is_utf8</text>
</a>
</g>
</g>
<!-- Node6&#45;&gt;Node9 -->
<g id="edge3" class="edge">
<title>Node6&#45;&gt;Node9</title>
<path fill="none" stroke="#191970" d="M85.4078,-315.9099C106.3877,-307.2143 132.9522,-296.204 155.3237,-286.9316"/>
<polygon fill="#191970" stroke="#191970" points="156.7284,-290.1382 164.6262,-283.076 154.0481,-283.6717 156.7284,-290.1382"/>
</g>
<!-- Node10 -->
<g id="node5" class="node">
<title>Node10</title>
<g id="a_node5"><a xlink:href="namespacenuspell.html#abf6e8a988616a08af6fdc01bf32e4129" target="_top" xlink:title="nuspell::validate_utf8">
<polygon fill="#ffffff" stroke="#000000" points="146.5,-214.5 146.5,-233.5 255.5,-233.5 255.5,-214.5 146.5,-214.5"/>
<text text-anchor="middle" x="201" y="-221.5" font-family="Helvetica,sans-Serif" font-size="10.00" fill="#000000">nuspell::validate_utf8</text>
</a>
</g>
</g>
<!-- Node6&#45;&gt;Node10 -->
<g id="edge4" class="edge">
<title>Node6&#45;&gt;Node10</title>
<path fill="none" stroke="#191970" d="M59.5656,-315.8806C74.0982,-296.2069 102.1086,-262.0964 134,-243 137.6176,-240.8338 141.493,-238.9052 145.4888,-237.1896"/>
<polygon fill="#191970" stroke="#191970" points="146.8783,-240.4054 154.9662,-233.5617 144.3758,-233.868 146.8783,-240.4054"/>
</g>
<!-- Node11 -->
<g id="node6" class="node">
<title>Node11</title>
<g id="a_node6"><a xlink:href="namespacenuspell.html#a431abe5c2853b6f099bfedd5b6a4bb9f" target="_top" xlink:title="Parses an affix from an input stream. ">
<polygon fill="#ffffff" stroke="#000000" points="150.5,-482.5 150.5,-501.5 251.5,-501.5 251.5,-482.5 150.5,-482.5"/>
<text text-anchor="middle" x="201" y="-489.5" font-family="Helvetica,sans-Serif" font-size="10.00" fill="#000000">nuspell::parse_affix</text>
</a>
</g>
</g>
<!-- Node6&#45;&gt;Node11 -->
<g id="edge5" class="edge">
<title>Node6&#45;&gt;Node11</title>
<path fill="none" stroke="#191970" d="M58.9412,-346.0495C73.8212,-367.9977 103.4213,-409.4916 134,-440 147.5954,-453.5642 164.7293,-466.8049 178.2669,-476.5308"/>
<polygon fill="#191970" stroke="#191970" points="176.38,-479.4829 186.5703,-482.3826 180.4125,-473.761 176.38,-479.4829"/>
</g>
<!-- Node12 -->
<g id="node7" class="node">
<title>Node12</title>
<g id="a_node7"><a xlink:href="namespacenuspell.html#ac3ed6d85c13c609eb5c51628b9dbac76" target="_top" xlink:title="Decodes a single flag from an input stream. ">
<polygon fill="#ffffff" stroke="#000000" points="310,-416.5 310,-435.5 447,-435.5 447,-416.5 310,-416.5"/>
<text text-anchor="middle" x="378.5" y="-423.5" font-family="Helvetica,sans-Serif" font-size="10.00" fill="#000000">nuspell::decode_single_flag</text>
</a>
</g>
</g>
<!-- Node6&#45;&gt;Node12 -->
<g id="edge23" class="edge">
<title>Node6&#45;&gt;Node12</title>
<path fill="none" stroke="#191970" d="M61.9391,-346.277C77.2366,-363.1557 104.3854,-389.5883 134,-402 186.3326,-423.933 250.3036,-429.5514 299.6836,-429.8886"/>
<polygon fill="#191970" stroke="#191970" points="299.9913,-433.3885 309.9899,-429.8843 299.9884,-426.3885 299.9913,-433.3885"/>
</g>
<!-- Node13 -->
<g id="node8" class="node">
<title>Node13</title>
<g id="a_node8"><a xlink:href="namespacenuspell.html#adbb8e053a44129d0f51014facd48b7f9" target="_top" xlink:title="Decodes flags. ">
<polygon fill="#ffffff" stroke="#000000" points="489,-416.5 489,-435.5 600,-435.5 600,-416.5 489,-416.5"/>
<text text-anchor="middle" x="544.5" y="-423.5" font-family="Helvetica,sans-Serif" font-size="10.00" fill="#000000">nuspell::decode_flags</text>
</a>
</g>
</g>
<!-- Node6&#45;&gt;Node13 -->
<g id="edge27" class="edge">
<title>Node6&#45;&gt;Node13</title>
<path fill="none" stroke="#191970" d="M98.2371,-345.215C109.9066,-348.3359 122.3488,-351.4624 134,-354 274.4291,-384.5854 311.723,-380.6067 453,-407 465.0859,-409.2579 478.0344,-411.8439 490.2758,-414.366"/>
<polygon fill="#191970" stroke="#191970" points="489.8548,-417.8532 500.3577,-416.4609 491.2789,-410.9996 489.8548,-417.8532"/>
</g>
<!-- Node22 -->
<g id="node17" class="node">
<title>Node22</title>
<g id="a_node17"><a xlink:href="namespacenuspell.html#aee2d3cdfa70d7cf8304c9a9f487b9a52" target="_top" xlink:title="nuspell::read_to_slash\l_or_space">
<polygon fill="#ffffff" stroke="#000000" points="321.5,-592 321.5,-622 435.5,-622 435.5,-592 321.5,-592"/>
<text text-anchor="start" x="329.5" y="-610" font-family="Helvetica,sans-Serif" font-size="10.00" fill="#000000">nuspell::read_to_slash</text>
<text text-anchor="middle" x="378.5" y="-599" font-family="Helvetica,sans-Serif" font-size="10.00" fill="#000000">_or_space</text>
</a>
</g>
</g>
<!-- Node6&#45;&gt;Node22 -->
<g id="edge29" class="edge">
<title>Node6&#45;&gt;Node22</title>
<path fill="none" stroke="#191970" d="M50.2417,-346.0429C54.3404,-385.5695 71.0273,-493.0886 134,-548 182.8514,-590.5979 257.2513,-603.6329 311.1494,-607.0662"/>
<polygon fill="#191970" stroke="#191970" points="311.128,-610.5701 321.3026,-607.6157 311.5064,-603.5803 311.128,-610.5701"/>
</g>
<!-- Node24 -->
<g id="node19" class="node">
<title>Node24</title>
<g id="a_node19"><a xlink:href="namespacenuspell.html#a20013c2e88adddb9211f5beb81f075b3" target="_top" xlink:title="Parses morhological fields. ">
<polygon fill="#ffffff" stroke="#000000" points="310,-543 310,-573 447,-573 447,-543 310,-543"/>
<text text-anchor="start" x="318" y="-561" font-family="Helvetica,sans-Serif" font-size="10.00" fill="#000000">nuspell::parse_morhological</text>
<text text-anchor="middle" x="378.5" y="-550" font-family="Helvetica,sans-Serif" font-size="10.00" fill="#000000">_fields</text>
</a>
</g>
</g>
<!-- Node6&#45;&gt;Node24 -->
<g id="edge28" class="edge">
<title>Node6&#45;&gt;Node24</title>
<path fill="none" stroke="#191970" d="M51.4357,-346.1972C57.9115,-381.3092 78.9776,-468.3176 134,-511 180.8279,-547.3257 247.6301,-558.2225 299.5781,-560.5089"/>
<polygon fill="#191970" stroke="#191970" points="299.6458,-564.0131 309.7594,-560.8564 299.8846,-557.0172 299.6458,-564.0131"/>
</g>
<!-- Node25 -->
<g id="node20" class="node">
<title>Node25</title>
<g id="a_node20"><a xlink:href="namespacenuspell.html#ae580b4a878894da57f49c6faf107e183" target="_top" xlink:title="Parses vector of class T from an input stream. ">
<polygon fill="#ffffff" stroke="#000000" points="134,-176.5 134,-195.5 268,-195.5 268,-176.5 134,-176.5"/>
<text text-anchor="middle" x="201" y="-183.5" font-family="Helvetica,sans-Serif" font-size="10.00" fill="#000000">nuspell::parse_vector_of_T</text>
</a>
</g>
</g>
<!-- Node6&#45;&gt;Node25 -->
<g id="edge24" class="edge">
<title>Node6&#45;&gt;Node25</title>
<path fill="none" stroke="#191970" d="M55.1192,-315.6371C66.5279,-288.9899 93.6091,-234.2535 134,-205 136.6928,-203.0497 139.5803,-201.2991 142.5894,-199.7279"/>
<polygon fill="#191970" stroke="#191970" points="144.2276,-202.8288 151.9092,-195.532 141.3539,-196.4459 144.2276,-202.8288"/>
</g>
<!-- Node26 -->
<g id="node21" class="node">
<title>Node26</title>
<g id="a_node21"><a xlink:href="classnuspell_1_1_encoding.html#aaf5839a823225237c2e26d3e20718160" target="_top" xlink:title="nuspell::Encoding::\lempty">
<polygon fill="#ffffff" stroke="#000000" points="151,-127 151,-157 251,-157 251,-127 151,-127"/>
<text text-anchor="start" x="159" y="-145" font-family="Helvetica,sans-Serif" font-size="10.00" fill="#000000">nuspell::Encoding::</text>
<text text-anchor="middle" x="201" y="-134" font-family="Helvetica,sans-Serif" font-size="10.00" fill="#000000">empty</text>
</a>
</g>
</g>
<!-- Node6&#45;&gt;Node26 -->
<g id="edge25" class="edge">
<title>Node6&#45;&gt;Node26</title>
<path fill="none" stroke="#191970" d="M52.9275,-315.5571C61.8659,-283.4253 86.7074,-208.8887 134,-167 136.4629,-164.8185 139.1338,-162.8208 141.9433,-160.9922"/>
<polygon fill="#191970" stroke="#191970" points="143.7578,-163.9867 150.7181,-155.9989 140.2957,-157.9028 143.7578,-163.9867"/>
</g>
<!-- Node27 -->
<g id="node22" class="node">
<title>Node27</title>
<g id="a_node22"><a xlink:href="namespacenuspell.html#aac49d4bd3ea9b66410ee5b793a12780e" target="_top" xlink:title="Parses flag type. ">
<polygon fill="#ffffff" stroke="#000000" points="140,-88.5 140,-107.5 262,-107.5 262,-88.5 140,-88.5"/>
<text text-anchor="middle" x="201" y="-95.5" font-family="Helvetica,sans-Serif" font-size="10.00" fill="#000000">nuspell::parse_flag_type</text>
</a>
</g>
</g>
<!-- Node6&#45;&gt;Node27 -->
<g id="edge26" class="edge">
<title>Node6&#45;&gt;Node27</title>
<path fill="none" stroke="#191970" d="M50.5005,-315.7306C55.1734,-276.6208 73.0313,-172.0601 134,-117 135.7498,-115.4198 137.6217,-113.9701 139.587,-112.6402"/>
<polygon fill="#191970" stroke="#191970" points="141.6892,-115.4751 148.7132,-107.5432 138.2759,-109.3637 141.6892,-115.4751"/>
</g>
<!-- Node28 -->
<g id="node23" class="node">
<title>Node28</title>
<g id="a_node23"><a xlink:href="namespacenuspell.html#a82f70879bf54a6f7118852b75d8ddbfc" target="_top" xlink:title="nuspell::parse_compound_rule">
<polygon fill="#ffffff" stroke="#000000" points="304,-340.5 304,-359.5 453,-359.5 453,-340.5 304,-340.5"/>
<text text-anchor="middle" x="378.5" y="-347.5" font-family="Helvetica,sans-Serif" font-size="10.00" fill="#000000">nuspell::parse_compound_rule</text>
</a>
</g>
</g>
<!-- Node6&#45;&gt;Node28 -->
<g id="edge31" class="edge">
<title>Node6&#45;&gt;Node28</title>
<path fill="none" stroke="#191970" d="M98.3295,-333.8445C149.8585,-336.8158 231.6607,-341.5328 293.6009,-345.1045"/>
<polygon fill="#191970" stroke="#191970" points="293.5673,-348.6082 303.7523,-345.6898 293.9704,-341.6198 293.5673,-348.6082"/>
</g>
<!-- Node29 -->
<g id="node24" class="node">
<title>Node29</title>
<g id="a_node24"><a xlink:href="classnuspell_1_1_encoding.html#ae4e9b05c91d209bd7a0c98be7a2ebf78" target="_top" xlink:title="nuspell::Encoding::\lvalue_or_default">
<polygon fill="#ffffff" stroke="#000000" points="151,-39 151,-69 251,-69 251,-39 151,-39"/>
<text text-anchor="start" x="159" y="-57" font-family="Helvetica,sans-Serif" font-size="10.00" fill="#000000">nuspell::Encoding::</text>
<text text-anchor="middle" x="201" y="-46" font-family="Helvetica,sans-Serif" font-size="10.00" fill="#000000">value_or_default</text>
</a>
</g>
</g>
<!-- Node6&#45;&gt;Node29 -->
<g id="edge33" class="edge">
<title>Node6&#45;&gt;Node29</title>
<path fill="none" stroke="#191970" d="M49.733,-315.9544C52.6251,-273.0074 66.6984,-148.4777 134,-79 136.4497,-76.4711 139.1789,-74.1956 142.0956,-72.1486"/>
<polygon fill="#191970" stroke="#191970" points="143.9622,-75.1103 150.7354,-66.9633 140.36,-69.1083 143.9622,-75.1103"/>
</g>
<!-- Node30 -->
<g id="node25" class="node">
<title>Node30</title>
<g id="a_node25"><a xlink:href="namespacenuspell.html#a79258aeb32a39ce719a014950b33e5d6" target="_top" xlink:title="nuspell::utf8_to_wide">
<polygon fill="#ffffff" stroke="#000000" points="490,-302.5 490,-321.5 599,-321.5 599,-302.5 490,-302.5"/>
<text text-anchor="middle" x="544.5" y="-309.5" font-family="Helvetica,sans-Serif" font-size="10.00" fill="#000000">nuspell::utf8_to_wide</text>
</a>
</g>
</g>
<!-- Node6&#45;&gt;Node30 -->
<g id="edge34" class="edge">
<title>Node6&#45;&gt;Node30</title>
<path fill="none" stroke="#191970" d="M98.3219,-329.1087C188.3708,-325.6558 379.3502,-318.3327 479.7397,-314.4832"/>
<polygon fill="#191970" stroke="#191970" points="479.896,-317.9799 489.7545,-314.0992 479.6277,-310.9851 479.896,-317.9799"/>
</g>
<!-- Node31 -->
<g id="node26" class="node">
<title>Node31</title>
<g id="a_node26"><a xlink:href="namespacenuspell.html#a7f9d46d315680708283bd79ad729333d" target="_top" xlink:title="nuspell::erase_chars">
<polygon fill="#ffffff" stroke="#000000" points="147.5,-.5 147.5,-19.5 254.5,-19.5 254.5,-.5 147.5,-.5"/>
<text text-anchor="middle" x="201" y="-7.5" font-family="Helvetica,sans-Serif" font-size="10.00" fill="#000000">nuspell::erase_chars</text>
</a>
</g>
</g>
<!-- Node6&#45;&gt;Node31 -->
<g id="edge36" class="edge">
<title>Node6&#45;&gt;Node31</title>
<path fill="none" stroke="#191970" d="M51.2903,-315.7906C59.9107,-260.4732 92.0605,-71.0221 134,-29 135.4413,-27.5559 136.9837,-26.2196 138.6076,-24.9832"/>
<polygon fill="#191970" stroke="#191970" points="140.6524,-27.8339 147.3158,-19.5968 136.9701,-21.8807 140.6524,-27.8339"/>
</g>
<!-- Node7&#45;&gt;Node8 -->
<g id="edge2" class="edge">
<title>Node7&#45;&gt;Node8</title>
<path fill="none" stroke="#191970" d="M416.4323,-641.4586C428.1659,-638.4716 441.1269,-635.1358 453,-632 462.553,-629.477 472.6543,-626.7633 482.5221,-624.087"/>
<polygon fill="#191970" stroke="#191970" points="483.5526,-627.4339 492.2832,-621.4315 481.715,-620.6794 483.5526,-627.4339"/>
</g>
<!-- Node11&#45;&gt;Node8 -->
<g id="edge20" class="edge">
<title>Node11&#45;&gt;Node8</title>
<path fill="none" stroke="#191970" d="M251.9186,-493.0232C304.405,-495.7557 387.5736,-504.839 453,-534 480.0416,-546.0526 505.9386,-568.0293 523.2359,-584.7313"/>
<polygon fill="#191970" stroke="#191970" points="520.9843,-587.4274 530.5514,-591.9793 525.9111,-582.4547 520.9843,-587.4274"/>
</g>
<!-- Node11&#45;&gt;Node12 -->
<g id="edge6" class="edge">
<title>Node11&#45;&gt;Node12</title>
<path fill="none" stroke="#191970" d="M219.9931,-482.427C240.3858,-472.4087 273.9174,-456.6802 304,-446 311.8058,-443.2287 320.1886,-440.6291 328.4139,-438.2799"/>
<polygon fill="#191970" stroke="#191970" points="329.6123,-441.58 338.3196,-435.5439 327.7486,-434.8327 329.6123,-441.58"/>
</g>
<!-- Node11&#45;&gt;Node22 -->
<g id="edge16" class="edge">
<title>Node11&#45;&gt;Node22</title>
<path fill="none" stroke="#191970" d="M209.3726,-501.6807C225.7606,-520.062 263.981,-560.2121 304,-583 307.0443,-584.7335 310.2311,-586.3613 313.5007,-587.8871"/>
<polygon fill="#191970" stroke="#191970" points="312.3155,-591.1872 322.885,-591.9199 315.0793,-584.7559 312.3155,-591.1872"/>
</g>
<!-- Node23 -->
<g id="node18" class="node">
<title>Node23</title>
<g id="a_node18"><a xlink:href="namespacenuspell.html#a3d81c446c32c53cd03e595f8fde9c2ab" target="_top" xlink:title="nuspell::decode_flags\l_possible_alias">
<polygon fill="#ffffff" stroke="#000000" points="323,-455 323,-485 434,-485 434,-455 323,-455"/>
<text text-anchor="start" x="331" y="-473" font-family="Helvetica,sans-Serif" font-size="10.00" fill="#000000">nuspell::decode_flags</text>
<text text-anchor="middle" x="378.5" y="-462" font-family="Helvetica,sans-Serif" font-size="10.00" fill="#000000">_possible_alias</text>
</a>
</g>
</g>
<!-- Node11&#45;&gt;Node23 -->
<g id="edge18" class="edge">
<title>Node11&#45;&gt;Node23</title>
<path fill="none" stroke="#191970" d="M251.8644,-485.6957C270.8816,-483.3386 292.7559,-480.6274 312.9155,-478.1288"/>
<polygon fill="#191970" stroke="#191970" points="313.471,-481.5868 322.9645,-476.8833 312.6099,-474.64 313.471,-481.5868"/>
</g>
<!-- Node11&#45;&gt;Node24 -->
<g id="edge21" class="edge">
<title>Node11&#45;&gt;Node24</title>
<path fill="none" stroke="#191970" d="M226.81,-501.597C253.3262,-511.4565 295.286,-527.0584 328.3597,-539.3563"/>
<polygon fill="#191970" stroke="#191970" points="327.2781,-542.6882 337.871,-542.8929 329.7178,-536.1271 327.2781,-542.6882"/>
</g>
<!-- Node12&#45;&gt;Node13 -->
<g id="edge7" class="edge">
<title>Node12&#45;&gt;Node13</title>
<path fill="none" stroke="#191970" d="M447.4568,-426C457.8122,-426 468.468,-426 478.7539,-426"/>
<polygon fill="#191970" stroke="#191970" points="478.8917,-429.5001 488.8917,-426 478.8916,-422.5001 478.8917,-429.5001"/>
</g>
<!-- Node14 -->
<g id="node9" class="node">
<title>Node14</title>
<g id="a_node9"><a xlink:href="namespacenuspell.html#aa37c89934a500dfd75dbb3cc18321834" target="_top" xlink:title="nuspell::is_all_ascii">
<polygon fill="#ffffff" stroke="#000000" points="643.5,-454.5 643.5,-473.5 744.5,-473.5 744.5,-454.5 643.5,-454.5"/>
<text text-anchor="middle" x="694" y="-461.5" font-family="Helvetica,sans-Serif" font-size="10.00" fill="#000000">nuspell::is_all_ascii</text>
</a>
</g>
</g>
<!-- Node13&#45;&gt;Node14 -->
<g id="edge8" class="edge">
<title>Node13&#45;&gt;Node14</title>
<path fill="none" stroke="#191970" d="M582.2252,-435.589C601.7756,-440.5583 625.8466,-446.6767 646.6374,-451.9613"/>
<polygon fill="#191970" stroke="#191970" points="645.9921,-455.4085 656.5461,-454.4799 647.7165,-448.6243 645.9921,-455.4085"/>
</g>
<!-- Node16 -->
<g id="node11" class="node">
<title>Node16</title>
<g id="a_node11"><a xlink:href="namespacenuspell.html#a7fc6228909d26abd20009c4fb388dc81" target="_top" xlink:title="nuspell::latin1_to_ucs2">
<polygon fill="#ffffff" stroke="#000000" points="636,-416.5 636,-435.5 752,-435.5 752,-416.5 636,-416.5"/>
<text text-anchor="middle" x="694" y="-423.5" font-family="Helvetica,sans-Serif" font-size="10.00" fill="#000000">nuspell::latin1_to_ucs2</text>
</a>
</g>
</g>
<!-- Node13&#45;&gt;Node16 -->
<g id="edge10" class="edge">
<title>Node13&#45;&gt;Node16</title>
<path fill="none" stroke="#191970" d="M600.1683,-426C608.4311,-426 617.0273,-426 625.5151,-426"/>
<polygon fill="#191970" stroke="#191970" points="625.7847,-429.5001 635.7847,-426 625.7847,-422.5001 625.7847,-429.5001"/>
</g>
<!-- Node17 -->
<g id="node12" class="node">
<title>Node17</title>
<g id="a_node12"><a xlink:href="namespacenuspell.html#aff86f9ecb346e78687e56dab66a77469" target="_top" xlink:title="nuspell::utf8_to_32">
<polygon fill="#ffffff" stroke="#000000" points="644.5,-340.5 644.5,-359.5 743.5,-359.5 743.5,-340.5 644.5,-340.5"/>
<text text-anchor="middle" x="694" y="-347.5" font-family="Helvetica,sans-Serif" font-size="10.00" fill="#000000">nuspell::utf8_to_32</text>
</a>
</g>
</g>
<!-- Node13&#45;&gt;Node17 -->
<g id="edge11" class="edge">
<title>Node13&#45;&gt;Node17</title>
<path fill="none" stroke="#191970" d="M557.5673,-416.4427C574.8264,-404.159 606.493,-382.7778 636,-369 640.6804,-366.8145 645.6816,-364.7724 650.7115,-362.8983"/>
<polygon fill="#191970" stroke="#191970" points="652.0727,-366.1298 660.3432,-359.5079 649.7484,-359.5269 652.0727,-366.1298"/>
</g>
<!-- Node19 -->
<g id="node14" class="node">
<title>Node19</title>
<g id="a_node14"><a xlink:href="namespacenuspell.html#acc7be34831c982c0065b2929a9b14f2b" target="_top" xlink:title="nuspell::is_all_bmp">
<polygon fill="#ffffff" stroke="#000000" points="644,-378.5 644,-397.5 744,-397.5 744,-378.5 644,-378.5"/>
<text text-anchor="middle" x="694" y="-385.5" font-family="Helvetica,sans-Serif" font-size="10.00" fill="#000000">nuspell::is_all_bmp</text>
</a>
</g>
</g>
<!-- Node13&#45;&gt;Node19 -->
<g id="edge13" class="edge">
<title>Node13&#45;&gt;Node19</title>
<path fill="none" stroke="#191970" d="M582.2252,-416.411C601.7756,-411.4417 625.8466,-405.3233 646.6374,-400.0387"/>
<polygon fill="#191970" stroke="#191970" points="647.7165,-403.3757 656.5461,-397.5201 645.9921,-396.5915 647.7165,-403.3757"/>
</g>
<!-- Node21 -->
<g id="node16" class="node">
<title>Node21</title>
<g id="a_node16"><a xlink:href="namespacenuspell.html#aac45dd40db821861bbd1ee9c2fc40a5e" target="_top" xlink:title="nuspell::u32_to_ucs2\l_skip_non_bmp">
<polygon fill="#ffffff" stroke="#000000" points="639.5,-493 639.5,-523 748.5,-523 748.5,-493 639.5,-493"/>
<text text-anchor="start" x="647.5" y="-511" font-family="Helvetica,sans-Serif" font-size="10.00" fill="#000000">nuspell::u32_to_ucs2</text>
<text text-anchor="middle" x="694" y="-500" font-family="Helvetica,sans-Serif" font-size="10.00" fill="#000000">_skip_non_bmp</text>
</a>
</g>
</g>
<!-- Node13&#45;&gt;Node21 -->
<g id="edge15" class="edge">
<title>Node13&#45;&gt;Node21</title>
<path fill="none" stroke="#191970" d="M558.3766,-435.5632C575.9775,-447.4757 607.4774,-468.0765 636,-483 639.7162,-484.9444 643.6167,-486.8658 647.5635,-488.7278"/>
<polygon fill="#191970" stroke="#191970" points="646.2419,-491.972 656.7917,-492.9473 649.1527,-485.6059 646.2419,-491.972"/>
</g>
<!-- Node15 -->
<g id="node10" class="node">
<title>Node15</title>
<g id="a_node10"><a xlink:href="namespacenuspell.html#a165544e1cd96cd0635c078d21ff32ff4" target="_top" xlink:title="nuspell::is_ascii">
<polygon fill="#ffffff" stroke="#000000" points="801.5,-454.5 801.5,-473.5 887.5,-473.5 887.5,-454.5 801.5,-454.5"/>
<text text-anchor="middle" x="844.5" y="-461.5" font-family="Helvetica,sans-Serif" font-size="10.00" fill="#000000">nuspell::is_ascii</text>
</a>
</g>
</g>
<!-- Node14&#45;&gt;Node15 -->
<g id="edge9" class="edge">
<title>Node14&#45;&gt;Node15</title>
<path fill="none" stroke="#191970" d="M744.533,-464C759.5197,-464 775.9778,-464 791.1377,-464"/>
<polygon fill="#191970" stroke="#191970" points="791.3917,-467.5001 801.3916,-464 791.3916,-460.5001 791.3917,-467.5001"/>
</g>
<!-- Node18 -->
<g id="node13" class="node">
<title>Node18</title>
<g id="a_node13"><a xlink:href="namespacenuspell.html#aae8baee1ca83bf5a5e0d07a4e8fdbf81" target="_top" xlink:title="nuspell::utf_to_utf_my">
<polygon fill="#ffffff" stroke="#000000" points="788,-321.5 788,-340.5 901,-340.5 901,-321.5 788,-321.5"/>
<text text-anchor="middle" x="844.5" y="-328.5" font-family="Helvetica,sans-Serif" font-size="10.00" fill="#000000">nuspell::utf_to_utf_my</text>
</a>
</g>
</g>
<!-- Node17&#45;&gt;Node18 -->
<g id="edge12" class="edge">
<title>Node17&#45;&gt;Node18</title>
<path fill="none" stroke="#191970" d="M743.6964,-343.726C754.623,-342.3466 766.3652,-340.8642 777.8376,-339.4158"/>
<polygon fill="#191970" stroke="#191970" points="778.3399,-342.8803 787.8227,-338.1553 777.4631,-335.9354 778.3399,-342.8803"/>
</g>
<!-- Node20 -->
<g id="node15" class="node">
<title>Node20</title>
<g id="a_node15"><a xlink:href="namespacenuspell.html#a8ed3c64b945233d09aee1622100ce1db" target="_top" xlink:title="nuspell::is_bmp">
<polygon fill="#ffffff" stroke="#000000" points="802,-378.5 802,-397.5 887,-397.5 887,-378.5 802,-378.5"/>
<text text-anchor="middle" x="844.5" y="-385.5" font-family="Helvetica,sans-Serif" font-size="10.00" fill="#000000">nuspell::is_bmp</text>
</a>
</g>
</g>
<!-- Node19&#45;&gt;Node20 -->
<g id="edge14" class="edge">
<title>Node19&#45;&gt;Node20</title>
<path fill="none" stroke="#191970" d="M744.1143,-388C759.2601,-388 775.9407,-388 791.2815,-388"/>
<polygon fill="#191970" stroke="#191970" points="791.6528,-391.5001 801.6528,-388 791.6527,-384.5001 791.6528,-391.5001"/>
</g>
<!-- Node22&#45;&gt;Node8 -->
<g id="edge17" class="edge">
<title>Node22&#45;&gt;Node8</title>
<path fill="none" stroke="#191970" d="M435.6278,-607C450.563,-607 466.7401,-607 481.9416,-607"/>
<polygon fill="#191970" stroke="#191970" points="482.2827,-610.5001 492.2827,-607 482.2826,-603.5001 482.2827,-610.5001"/>
</g>
<!-- Node23&#45;&gt;Node13 -->
<g id="edge19" class="edge">
<title>Node23&#45;&gt;Node13</title>
<path fill="none" stroke="#191970" d="M434.2374,-455.2262C455.1871,-449.6733 478.7436,-443.4294 498.6884,-438.1428"/>
<polygon fill="#191970" stroke="#191970" points="499.6887,-441.4986 508.4581,-435.5533 497.8951,-434.7323 499.6887,-441.4986"/>
</g>
<!-- Node24&#45;&gt;Node8 -->
<g id="edge22" class="edge">
<title>Node24&#45;&gt;Node8</title>
<path fill="none" stroke="#191970" d="M429.66,-573.1014C446.7806,-578.1551 466.0315,-583.8376 483.8078,-589.0848"/>
<polygon fill="#191970" stroke="#191970" points="482.9272,-592.4741 493.5089,-591.9484 484.9089,-585.7605 482.9272,-592.4741"/>
</g>
<!-- Node28&#45;&gt;Node13 -->
<g id="edge32" class="edge">
<title>Node28&#45;&gt;Node13</title>
<path fill="none" stroke="#191970" d="M413.1688,-359.5498C425.9074,-363.4784 440.3118,-368.4215 453,-374 477.0715,-384.5832 502.9953,-399.7009 521.0816,-410.9102"/>
<polygon fill="#191970" stroke="#191970" points="519.4443,-414.0149 529.7738,-416.371 523.1681,-408.0876 519.4443,-414.0149"/>
</g>
<!-- Node30&#45;&gt;Node18 -->
<g id="edge35" class="edge">
<title>Node30&#45;&gt;Node18</title>
<path fill="none" stroke="#191970" d="M599.1758,-315.4628C649.4271,-318.6454 724.0496,-323.3715 777.7893,-326.775"/>
<polygon fill="#191970" stroke="#191970" points="777.7062,-330.2766 787.9074,-327.4158 778.1487,-323.2906 777.7062,-330.2766"/>
</g>
</g>
</svg>
