<?xml version="1.0" encoding="UTF-8" standalone="no"?>
<!DOCTYPE svg PUBLIC "-//W3C//DTD SVG 1.1//EN"
 "http://www.w3.org/Graphics/SVG/1.1/DTD/svg11.dtd">
<!-- Generated by graphviz version 2.40.1 (20161225.0304)
 -->
<!-- Title: src/nuspell/structures.cxx Pages: 1 -->
<svg width="1218pt" height="207pt"
 viewBox="0.00 0.00 1218.29 207.00" xmlns="http://www.w3.org/2000/svg" xmlns:xlink="http://www.w3.org/1999/xlink">
<g id="graph0" class="graph" transform="scale(1 1) rotate(0) translate(4 203)">
<title>src/nuspell/structures.cxx</title>
<polygon fill="#ffffff" stroke="transparent" points="-4,4 -4,-203 1214.2888,-203 1214.2888,4 -4,4"/>
<!-- Node0 -->
<g id="node1" class="node">
<title>Node0</title>
<polygon fill="#bfbfbf" stroke="#000000" points="379.5,-179.5 379.5,-198.5 508.5,-198.5 508.5,-179.5 379.5,-179.5"/>
<text text-anchor="middle" x="444" y="-186.5" font-family="Helvetica,sans-Serif" font-size="10.00" fill="#000000">src/nuspell/structures.cxx</text>
</g>
<!-- Node1 -->
<g id="node2" class="node">
<title>Node1</title>
<g id="a_node2"><a xlink:href="structures_8hxx.html" target="_top" xlink:title="Data structures. ">
<polygon fill="#ffffff" stroke="#000000" points="681.5,-123.5 681.5,-142.5 760.5,-142.5 760.5,-123.5 681.5,-123.5"/>
<text text-anchor="middle" x="721" y="-130.5" font-family="Helvetica,sans-Serif" font-size="10.00" fill="#000000">structures.hxx</text>
</a>
</g>
</g>
<!-- Node0&#45;&gt;Node1 -->
<g id="edge1" class="edge">
<title>Node0&#45;&gt;Node1</title>
<path fill="none" stroke="#191970" d="M491.3033,-179.4369C541.4258,-169.3038 620.2341,-153.3714 671.2625,-143.0552"/>
<polygon fill="#191970" stroke="#191970" points="671.973,-146.4825 681.0811,-141.0702 670.5858,-139.6213 671.973,-146.4825"/>
</g>
<!-- Node15 -->
<g id="node16" class="node">
<title>Node15</title>
<g id="a_node16"><a xlink:href="string__utils_8hxx.html" target="_top" xlink:title="String algorithms. ">
<polygon fill="#ffffff" stroke="#000000" points="126.5,-123.5 126.5,-142.5 209.5,-142.5 209.5,-123.5 126.5,-123.5"/>
<text text-anchor="middle" x="168" y="-130.5" font-family="Helvetica,sans-Serif" font-size="10.00" fill="#000000">string_utils.hxx</text>
</a>
</g>
</g>
<!-- Node0&#45;&gt;Node15 -->
<g id="edge17" class="edge">
<title>Node0&#45;&gt;Node15</title>
<path fill="none" stroke="#191970" d="M396.8675,-179.4369C347.5032,-169.4209 270.2139,-153.739 219.3323,-143.4152"/>
<polygon fill="#191970" stroke="#191970" points="220.0205,-139.9836 209.5242,-141.4252 218.6285,-146.8439 220.0205,-139.9836"/>
</g>
<!-- Node2 -->
<g id="node3" class="node">
<title>Node2</title>
<g id="a_node3"><a xlink:href="condition_8hxx.html" target="_top" xlink:title="Condition matching. ">
<polygon fill="#ffffff" stroke="#000000" points="902,-62 902,-81 976,-81 976,-62 902,-62"/>
<text text-anchor="middle" x="939" y="-69" font-family="Helvetica,sans-Serif" font-size="10.00" fill="#000000">condition.hxx</text>
</a>
</g>
</g>
<!-- Node1&#45;&gt;Node2 -->
<g id="edge2" class="edge">
<title>Node1&#45;&gt;Node2</title>
<path fill="none" stroke="#191970" d="M759.4536,-123.463C794.4425,-114.6085 847.4287,-100.7564 893,-87 895.7985,-86.1552 898.6832,-85.2548 901.5793,-84.3293"/>
<polygon fill="#191970" stroke="#191970" points="902.9443,-87.5654 911.3613,-81.1307 900.7687,-80.9121 902.9443,-87.5654"/>
</g>
<!-- Node3 -->
<g id="node4" class="node">
<title>Node3</title>
<polygon fill="#ffffff" stroke="#bfbfbf" points="325.5,-.5 325.5,-19.5 366.5,-19.5 366.5,-.5 325.5,-.5"/>
<text text-anchor="middle" x="346" y="-7.5" font-family="Helvetica,sans-Serif" font-size="10.00" fill="#000000">string</text>
</g>
<!-- Node1&#45;&gt;Node3 -->
<g id="edge10" class="edge">
<title>Node1&#45;&gt;Node3</title>
<path fill="none" stroke="#191970" d="M681.3441,-130.3843C593.4777,-124.2358 388.3047,-107.8009 365,-87 348.998,-72.7173 345.4353,-47.3053 345.0984,-29.5971"/>
<polygon fill="#191970" stroke="#191970" points="348.5992,-29.5471 345.2336,-19.5011 341.5999,-29.4533 348.5992,-29.5471"/>
</g>
<!-- Node5 -->
<g id="node6" class="node">
<title>Node5</title>
<polygon fill="#ffffff" stroke="#bfbfbf" points="887,-.5 887,-19.5 931,-19.5 931,-.5 887,-.5"/>
<text text-anchor="middle" x="909" y="-7.5" font-family="Helvetica,sans-Serif" font-size="10.00" fill="#000000">vector</text>
</g>
<!-- Node1&#45;&gt;Node5 -->
<g id="edge12" class="edge">
<title>Node1&#45;&gt;Node5</title>
<path fill="none" stroke="#191970" d="M760.6687,-132.032C867.4585,-129.019 1154.8684,-118.0716 1183,-87 1239.9519,-24.096 1227.8961,-85.7918 941.1062,-19.9484"/>
<polygon fill="#191970" stroke="#191970" points="941.7599,-16.5071 931.2275,-17.6551 940.1769,-23.3258 941.7599,-16.5071"/>
</g>
<!-- Node6 -->
<g id="node7" class="node">
<title>Node6</title>
<polygon fill="#ffffff" stroke="#bfbfbf" points="196,-62 196,-81 252,-81 252,-62 196,-62"/>
<text text-anchor="middle" x="224" y="-69" font-family="Helvetica,sans-Serif" font-size="10.00" fill="#000000">algorithm</text>
</g>
<!-- Node1&#45;&gt;Node6 -->
<g id="edge6" class="edge">
<title>Node1&#45;&gt;Node6</title>
<path fill="none" stroke="#191970" d="M681.2401,-130.5436C584.7427,-124.3378 340.2589,-107.0853 261,-87 258.519,-86.3713 255.9878,-85.6036 253.472,-84.7499"/>
<polygon fill="#191970" stroke="#191970" points="254.5746,-81.4248 243.9835,-81.1425 252.0869,-87.9679 254.5746,-81.4248"/>
</g>
<!-- Node7 -->
<g id="node8" class="node">
<title>Node7</title>
<polygon fill="#ffffff" stroke="#bfbfbf" points="994,-62 994,-81 1038,-81 1038,-62 994,-62"/>
<text text-anchor="middle" x="1016" y="-69" font-family="Helvetica,sans-Serif" font-size="10.00" fill="#000000">cmath</text>
</g>
<!-- Node1&#45;&gt;Node7 -->
<g id="edge7" class="edge">
<title>Node1&#45;&gt;Node7</title>
<path fill="none" stroke="#191970" d="M760.7881,-129.7018C813.2381,-124.5393 907.8882,-112.3898 985,-87 986.611,-86.4696 988.2431,-85.868 989.8721,-85.2174"/>
<polygon fill="#191970" stroke="#191970" points="991.3171,-88.4053 998.9995,-81.1093 988.4441,-82.022 991.3171,-88.4053"/>
</g>
<!-- Node8 -->
<g id="node9" class="node">
<title>Node8</title>
<polygon fill="#ffffff" stroke="#bfbfbf" points="270.5,-62 270.5,-81 317.5,-81 317.5,-62 270.5,-62"/>
<text text-anchor="middle" x="294" y="-69" font-family="Helvetica,sans-Serif" font-size="10.00" fill="#000000">iterator</text>
</g>
<!-- Node1&#45;&gt;Node8 -->
<g id="edge8" class="edge">
<title>Node1&#45;&gt;Node8</title>
<path fill="none" stroke="#191970" d="M681.4319,-131.8294C610.3846,-128.9575 456.9483,-119.2374 332,-87 329.3741,-86.3225 326.6889,-85.5038 324.0203,-84.6009"/>
<polygon fill="#191970" stroke="#191970" points="325.1554,-81.2887 314.5629,-81.0638 322.7032,-87.8451 325.1554,-81.2887"/>
</g>
<!-- Node9 -->
<g id="node10" class="node">
<title>Node9</title>
<polygon fill="#ffffff" stroke="#bfbfbf" points="1056.5,-62 1056.5,-81 1115.5,-81 1115.5,-62 1056.5,-62"/>
<text text-anchor="middle" x="1086" y="-69" font-family="Helvetica,sans-Serif" font-size="10.00" fill="#000000">stdexcept</text>
</g>
<!-- Node1&#45;&gt;Node9 -->
<g id="edge9" class="edge">
<title>Node1&#45;&gt;Node9</title>
<path fill="none" stroke="#191970" d="M760.7436,-130.4527C822.7527,-125.798 945.8961,-113.8132 1047,-87 1049.6167,-86.306 1052.2955,-85.487 1054.963,-84.5938"/>
<polygon fill="#191970" stroke="#191970" points="1056.2555,-87.8479 1064.4444,-81.1253 1053.8506,-81.274 1056.2555,-87.8479"/>
</g>
<!-- Node10 -->
<g id="node11" class="node">
<title>Node10</title>
<polygon fill="#ffffff" stroke="#bfbfbf" points="1134,-62 1134,-81 1174,-81 1174,-62 1134,-62"/>
<text text-anchor="middle" x="1154" y="-69" font-family="Helvetica,sans-Serif" font-size="10.00" fill="#000000">utility</text>
</g>
<!-- Node1&#45;&gt;Node10 -->
<g id="edge11" class="edge">
<title>Node1&#45;&gt;Node10</title>
<path fill="none" stroke="#191970" d="M760.5338,-130.3976C848.4108,-124.306 1057.5208,-108.0301 1125,-87 1126.4307,-86.5541 1127.8729,-86.0367 1129.3092,-85.4671"/>
<polygon fill="#191970" stroke="#191970" points="1130.9449,-88.566 1138.5179,-81.1565 1127.9772,-82.2262 1130.9449,-88.566"/>
</g>
<!-- Node11 -->
<g id="node12" class="node">
<title>Node11</title>
<polygon fill="#ffffff" stroke="#bfbfbf" points="374,-56.5 374,-86.5 484,-86.5 484,-56.5 374,-56.5"/>
<text text-anchor="start" x="382" y="-74.5" font-family="Helvetica,sans-Serif" font-size="10.00" fill="#000000">boost/container/small</text>
<text text-anchor="middle" x="429" y="-63.5" font-family="Helvetica,sans-Serif" font-size="10.00" fill="#000000">_vector.hpp</text>
</g>
<!-- Node1&#45;&gt;Node11 -->
<g id="edge13" class="edge">
<title>Node1&#45;&gt;Node11</title>
<path fill="none" stroke="#191970" d="M681.3607,-125.4831C637.8484,-117.1255 565.6866,-102.9538 494.2054,-87.2232"/>
<polygon fill="#191970" stroke="#191970" points="494.6466,-83.7363 484.1266,-84.9937 493.1346,-90.571 494.6466,-83.7363"/>
</g>
<!-- Node12 -->
<g id="node13" class="node">
<title>Node12</title>
<polygon fill="#ffffff" stroke="#bfbfbf" points="502,-62 502,-81 652,-81 652,-62 502,-62"/>
<text text-anchor="middle" x="577" y="-69" font-family="Helvetica,sans-Serif" font-size="10.00" fill="#000000">boost/multi_index/member.hpp</text>
</g>
<!-- Node1&#45;&gt;Node12 -->
<g id="edge14" class="edge">
<title>Node1&#45;&gt;Node12</title>
<path fill="none" stroke="#191970" d="M698.5,-123.3906C674.4062,-113.1005 635.9787,-96.6888 608.7992,-85.0809"/>
<polygon fill="#191970" stroke="#191970" points="609.9131,-81.7508 599.342,-81.0419 607.1637,-88.1883 609.9131,-81.7508"/>
</g>
<!-- Node13 -->
<g id="node14" class="node">
<title>Node13</title>
<polygon fill="#ffffff" stroke="#bfbfbf" points="670.5,-56.5 670.5,-86.5 771.5,-86.5 771.5,-56.5 670.5,-56.5"/>
<text text-anchor="start" x="678.5" y="-74.5" font-family="Helvetica,sans-Serif" font-size="10.00" fill="#000000">boost/range/iterator</text>
<text text-anchor="middle" x="721" y="-63.5" font-family="Helvetica,sans-Serif" font-size="10.00" fill="#000000">_range_core.hpp</text>
</g>
<!-- Node1&#45;&gt;Node13 -->
<g id="edge15" class="edge">
<title>Node1&#45;&gt;Node13</title>
<path fill="none" stroke="#191970" d="M721,-123.3906C721,-116.2234 721,-106.0862 721,-96.671"/>
<polygon fill="#191970" stroke="#191970" points="724.5001,-96.5446 721,-86.5446 717.5001,-96.5446 724.5001,-96.5446"/>
</g>
<!-- Node14 -->
<g id="node15" class="node">
<title>Node14</title>
<polygon fill="#ffffff" stroke="#bfbfbf" points="790,-56.5 790,-86.5 884,-86.5 884,-56.5 790,-56.5"/>
<text text-anchor="start" x="798" y="-74.5" font-family="Helvetica,sans-Serif" font-size="10.00" fill="#000000">boost/utility/string</text>
<text text-anchor="middle" x="837" y="-63.5" font-family="Helvetica,sans-Serif" font-size="10.00" fill="#000000">_view.hpp</text>
</g>
<!-- Node1&#45;&gt;Node14 -->
<g id="edge16" class="edge">
<title>Node1&#45;&gt;Node14</title>
<path fill="none" stroke="#191970" d="M739.125,-123.3906C755.2603,-114.8361 779.3755,-102.0509 799.6309,-91.3121"/>
<polygon fill="#191970" stroke="#191970" points="801.4276,-94.3211 808.6232,-86.5446 798.1486,-88.1365 801.4276,-94.3211"/>
</g>
<!-- Node2&#45;&gt;Node3 -->
<g id="edge3" class="edge">
<title>Node2&#45;&gt;Node3</title>
<path fill="none" stroke="#191970" d="M913.9947,-61.8577C907.2668,-59.6001 899.9315,-57.4372 893,-56 792.9487,-35.2544 476.7119,-16.9879 376.6626,-11.6034"/>
<polygon fill="#191970" stroke="#191970" points="376.7804,-8.1048 366.608,-11.0666 376.4071,-15.0948 376.7804,-8.1048"/>
</g>
<!-- Node4 -->
<g id="node5" class="node">
<title>Node4</title>
<polygon fill="#ffffff" stroke="#bfbfbf" points="949,-.5 949,-19.5 987,-19.5 987,-.5 949,-.5"/>
<text text-anchor="middle" x="968" y="-7.5" font-family="Helvetica,sans-Serif" font-size="10.00" fill="#000000">tuple</text>
</g>
<!-- Node2&#45;&gt;Node4 -->
<g id="edge4" class="edge">
<title>Node2&#45;&gt;Node4</title>
<path fill="none" stroke="#191970" d="M943.5313,-61.8906C947.6781,-53.0965 953.9332,-39.8312 959.081,-28.9145"/>
<polygon fill="#191970" stroke="#191970" points="962.3055,-30.2825 963.4049,-19.7449 955.9741,-27.2969 962.3055,-30.2825"/>
</g>
<!-- Node2&#45;&gt;Node5 -->
<g id="edge5" class="edge">
<title>Node2&#45;&gt;Node5</title>
<path fill="none" stroke="#191970" d="M934.3125,-61.8906C930.0227,-53.0965 923.5518,-39.8312 918.2266,-28.9145"/>
<polygon fill="#191970" stroke="#191970" points="921.2836,-27.1981 913.7536,-19.7449 914.9922,-30.2671 921.2836,-27.1981"/>
</g>
<!-- Node15&#45;&gt;Node3 -->
<g id="edge22" class="edge">
<title>Node15&#45;&gt;Node3</title>
<path fill="none" stroke="#191970" d="M161.9217,-123.3279C152.8316,-107.4994 138.3495,-75.843 154,-56 173.7263,-30.9894 266.0145,-18.0483 315.1032,-12.8345"/>
<polygon fill="#191970" stroke="#191970" points="315.5714,-16.3051 325.1654,-11.81 314.8622,-9.3411 315.5714,-16.3051"/>
</g>
<!-- Node15&#45;&gt;Node5 -->
<g id="edge23" class="edge">
<title>Node15&#45;&gt;Node5</title>
<path fill="none" stroke="#191970" d="M167.1202,-123.3676C166.1926,-106.7057 167.0335,-72.69 187,-56 213.7993,-33.5985 739.2997,-15.3919 876.4757,-11.0075"/>
<polygon fill="#191970" stroke="#191970" points="876.8643,-14.497 886.7484,-10.6819 876.6425,-7.5005 876.8643,-14.497"/>
</g>
<!-- Node15&#45;&gt;Node6 -->
<g id="edge18" class="edge">
<title>Node15&#45;&gt;Node6</title>
<path fill="none" stroke="#191970" d="M176.75,-123.3906C185.1662,-114.1478 198.0797,-99.966 208.281,-88.7628"/>
<polygon fill="#191970" stroke="#191970" points="210.9818,-90.9953 215.1266,-81.2449 205.806,-86.2824 210.9818,-90.9953"/>
</g>
<!-- Node15&#45;&gt;Node8 -->
<g id="edge19" class="edge">
<title>Node15&#45;&gt;Node8</title>
<path fill="none" stroke="#191970" d="M187.6875,-123.3906C208.4922,-113.2359 241.511,-97.1196 265.2319,-85.5416"/>
<polygon fill="#191970" stroke="#191970" points="266.9993,-88.5736 274.4507,-81.0419 263.9288,-82.283 266.9993,-88.5736"/>
</g>
<!-- Node16 -->
<g id="node17" class="node">
<title>Node16</title>
<polygon fill="#ffffff" stroke="#bfbfbf" points="0,-62 0,-81 42,-81 42,-62 0,-62"/>
<text text-anchor="middle" x="21" y="-69" font-family="Helvetica,sans-Serif" font-size="10.00" fill="#000000">locale</text>
</g>
<!-- Node15&#45;&gt;Node16 -->
<g id="edge20" class="edge">
<title>Node15&#45;&gt;Node16</title>
<path fill="none" stroke="#191970" d="M141.1905,-123.3504C117.2644,-114.5288 81.4128,-100.7916 51,-87 50.0123,-86.5521 49.0106,-86.088 48.0022,-85.6123"/>
<polygon fill="#191970" stroke="#191970" points="49.4555,-82.4266 38.9383,-81.1466 46.3618,-88.7059 49.4555,-82.4266"/>
</g>
<!-- Node17 -->
<g id="node18" class="node">
<title>Node17</title>
<polygon fill="#ffffff" stroke="#bfbfbf" points="60.5,-62 60.5,-81 101.5,-81 101.5,-62 60.5,-62"/>
<text text-anchor="middle" x="81" y="-69" font-family="Helvetica,sans-Serif" font-size="10.00" fill="#000000">stack</text>
</g>
<!-- Node15&#45;&gt;Node17 -->
<g id="edge21" class="edge">
<title>Node15&#45;&gt;Node17</title>
<path fill="none" stroke="#191970" d="M154.4063,-123.3906C140.6157,-113.6421 119.0528,-98.3994 102.859,-86.9521"/>
<polygon fill="#191970" stroke="#191970" points="104.6844,-83.9563 94.4983,-81.0419 100.6437,-89.6723 104.6844,-83.9563"/>
</g>
</g>
</svg>
