<?xml version="1.0" encoding="UTF-8" standalone="no"?>
<!DOCTYPE svg PUBLIC "-//W3C//DTD SVG 1.1//EN"
 "http://www.w3.org/Graphics/SVG/1.1/DTD/svg11.dtd">
<!-- Generated by graphviz version 2.40.1 (20161225.0304)
 -->
<!-- Title: nuspell::Dict_Base Pages: 1 -->
<svg width="978pt" height="498pt"
 viewBox="0.00 0.00 978.00 498.00" xmlns="http://www.w3.org/2000/svg" xmlns:xlink="http://www.w3.org/1999/xlink">
<g id="graph0" class="graph" transform="scale(1 1) rotate(0) translate(4 494)">
<title>nuspell::Dict_Base</title>
<polygon fill="#ffffff" stroke="transparent" points="-4,4 -4,-494 974,-494 974,4 -4,4"/>
<!-- Node3 -->
<g id="node1" class="node">
<title>Node3</title>
<polygon fill="#bfbfbf" stroke="#000000" points="871,-235.5 871,-254.5 970,-254.5 970,-235.5 871,-235.5"/>
<text text-anchor="middle" x="920.5" y="-242.5" font-family="Helvetica,sans-Serif" font-size="10.00" fill="#000000">nuspell::Dict_Base</text>
</g>
<!-- Node4 -->
<g id="node2" class="node">
<title>Node4</title>
<g id="a_node2"><a xlink:href="structnuspell_1_1_aff___data.html" target="_top" xlink:title="nuspell::Aff_Data">
<polygon fill="#ffffff" stroke="#000000" points="742,-235.5 742,-254.5 834,-254.5 834,-235.5 742,-235.5"/>
<text text-anchor="middle" x="788" y="-242.5" font-family="Helvetica,sans-Serif" font-size="10.00" fill="#000000">nuspell::Aff_Data</text>
</a>
</g>
</g>
<!-- Node4&#45;&gt;Node3 -->
<g id="edge1" class="edge">
<title>Node4&#45;&gt;Node3</title>
<path fill="none" stroke="#191970" d="M844.4732,-245C853.2267,-245 862.213,-245 870.8026,-245"/>
<polygon fill="#191970" stroke="#191970" points="844.3421,-241.5001 834.3421,-245 844.342,-248.5001 844.3421,-241.5001"/>
</g>
<!-- Node5 -->
<g id="node3" class="node">
<title>Node5</title>
<g id="a_node3"><a xlink:href="structnuspell_1_1_aff___structures.html" target="_top" xlink:title="nuspell::Aff_Structures\l\&lt; char \&gt;">
<polygon fill="#ffffff" stroke="#000000" points="517,-361 517,-391 633,-391 633,-361 517,-361"/>
<text text-anchor="start" x="525" y="-379" font-family="Helvetica,sans-Serif" font-size="10.00" fill="#000000">nuspell::Aff_Structures</text>
<text text-anchor="middle" x="575" y="-368" font-family="Helvetica,sans-Serif" font-size="10.00" fill="#000000">&lt; char &gt;</text>
</a>
</g>
</g>
<!-- Node5&#45;&gt;Node4 -->
<g id="edge2" class="edge">
<title>Node5&#45;&gt;Node4</title>
<path fill="none" stroke="#9a32cd" stroke-dasharray="5,2" d="M624.5056,-356.968C654.5357,-344.338 692.9269,-326.2088 724,-305 745.8883,-290.0602 767.5886,-267.7107 779.2446,-254.9259"/>
<polygon fill="#9a32cd" stroke="#9a32cd" points="622.9713,-353.815 615.0692,-360.8723 625.6476,-360.2832 622.9713,-353.815"/>
<text text-anchor="middle" x="687.5" y="-347" font-family="Helvetica,sans-Serif" font-size="10.00" fill="#000000"> structures</text>
</g>
<!-- Node6 -->
<g id="node4" class="node">
<title>Node6</title>
<g id="a_node4"><a xlink:href="classnuspell_1_1_break___table.html" target="_top" xlink:title="nuspell::Break_Table\l\&lt; char \&gt;">
<polygon fill="#ffffff" stroke="#000000" points="238,-312 238,-342 346,-342 346,-312 238,-312"/>
<text text-anchor="start" x="246" y="-330" font-family="Helvetica,sans-Serif" font-size="10.00" fill="#000000">nuspell::Break_Table</text>
<text text-anchor="middle" x="292" y="-319" font-family="Helvetica,sans-Serif" font-size="10.00" fill="#000000">&lt; char &gt;</text>
</a>
</g>
</g>
<!-- Node6&#45;&gt;Node5 -->
<g id="edge3" class="edge">
<title>Node6&#45;&gt;Node5</title>
<path fill="none" stroke="#9a32cd" stroke-dasharray="5,2" d="M356.2338,-337.0065C397.1538,-343.5155 451.2595,-352.3703 499,-361 504.8232,-362.0526 510.8898,-363.1865 516.944,-364.3426"/>
<polygon fill="#9a32cd" stroke="#9a32cd" points="356.5512,-333.5131 346.1264,-335.4037 355.4548,-340.4268 356.5512,-333.5131"/>
<text text-anchor="middle" x="436" y="-364" font-family="Helvetica,sans-Serif" font-size="10.00" fill="#000000"> break_table</text>
</g>
<!-- Node7 -->
<g id="node5" class="node">
<title>Node7</title>
<g id="a_node5"><a xlink:href="classnuspell_1_1_substr___replacer.html" target="_top" xlink:title="nuspell::Substr_Replacer\l\&lt; char \&gt;">
<polygon fill="#ffffff" stroke="#000000" points="229,-459 229,-489 355,-489 355,-459 229,-459"/>
<text text-anchor="start" x="237" y="-477" font-family="Helvetica,sans-Serif" font-size="10.00" fill="#000000">nuspell::Substr_Replacer</text>
<text text-anchor="middle" x="292" y="-466" font-family="Helvetica,sans-Serif" font-size="10.00" fill="#000000">&lt; char &gt;</text>
</a>
</g>
</g>
<!-- Node7&#45;&gt;Node5 -->
<g id="edge4" class="edge">
<title>Node7&#45;&gt;Node5</title>
<path fill="none" stroke="#9a32cd" stroke-dasharray="5,2" d="M365.2411,-469.823C406.0846,-465.3379 457.0251,-456.0786 499,-437 523.3359,-425.9387 546.5821,-405.2951 560.8137,-391.1108"/>
<polygon fill="#9a32cd" stroke="#9a32cd" points="364.6774,-466.3624 355.0863,-470.8635 365.391,-473.3259 364.6774,-466.3624"/>
<text text-anchor="middle" x="436" y="-482" font-family="Helvetica,sans-Serif" font-size="10.00" fill="#000000"> input_substr_replacer</text>
<text text-anchor="middle" x="436" y="-471" font-family="Helvetica,sans-Serif" font-size="10.00" fill="#000000">output_substr_replacer</text>
</g>
<!-- Node8 -->
<g id="node6" class="node">
<title>Node8</title>
<g id="a_node6"><a xlink:href="classnuspell_1_1_affix___table.html" target="_top" xlink:title="nuspell::Affix_Table\l\&lt; char \&gt;">
<polygon fill="#ffffff" stroke="#000000" points="240.5,-410 240.5,-440 343.5,-440 343.5,-410 240.5,-410"/>
<text text-anchor="start" x="248.5" y="-428" font-family="Helvetica,sans-Serif" font-size="10.00" fill="#000000">nuspell::Affix_Table</text>
<text text-anchor="middle" x="292" y="-417" font-family="Helvetica,sans-Serif" font-size="10.00" fill="#000000">&lt; char &gt;</text>
</a>
</g>
</g>
<!-- Node8&#45;&gt;Node5 -->
<g id="edge5" class="edge">
<title>Node8&#45;&gt;Node5</title>
<path fill="none" stroke="#9a32cd" stroke-dasharray="5,2" d="M353.4407,-415.4374C394.6698,-408.8906 450.1651,-399.8275 499,-391 504.8232,-389.9474 510.8898,-388.8135 516.944,-387.6574"/>
<polygon fill="#9a32cd" stroke="#9a32cd" points="352.8748,-411.9834 343.5451,-417.004 353.9694,-418.8973 352.8748,-411.9834"/>
<text text-anchor="middle" x="436" y="-425" font-family="Helvetica,sans-Serif" font-size="10.00" fill="#000000"> suffixes</text>
<text text-anchor="middle" x="436" y="-414" font-family="Helvetica,sans-Serif" font-size="10.00" fill="#000000">prefixes</text>
</g>
<!-- Node9 -->
<g id="node7" class="node">
<title>Node9</title>
<g id="a_node7"><a xlink:href="classnuspell_1_1_hash___multiset.html" target="_top" xlink:title="Affix_Table_Base\&lt; char\l , AffixT \&gt;">
<polygon fill="#ffffff" stroke="#000000" points="3.5,-410 3.5,-440 125.5,-440 125.5,-410 3.5,-410"/>
<text text-anchor="start" x="11.5" y="-428" font-family="Helvetica,sans-Serif" font-size="10.00" fill="#000000">Affix_Table_Base&lt; char</text>
<text text-anchor="middle" x="64.5" y="-417" font-family="Helvetica,sans-Serif" font-size="10.00" fill="#000000"> , AffixT &gt;</text>
</a>
</g>
</g>
<!-- Node9&#45;&gt;Node8 -->
<g id="edge6" class="edge">
<title>Node9&#45;&gt;Node8</title>
<path fill="none" stroke="#8b1a1a" d="M136.051,-425C169.8454,-425 209.4299,-425 240.2611,-425"/>
<polygon fill="#8b1a1a" stroke="#8b1a1a" points="135.7651,-421.5001 125.7651,-425 135.7651,-428.5001 135.7651,-421.5001"/>
</g>
<!-- Node10 -->
<g id="node8" class="node">
<title>Node10</title>
<g id="a_node8"><a xlink:href="classnuspell_1_1_string___set.html" target="_top" xlink:title="nuspell::String_Set\l\&lt; char16_t \&gt;">
<polygon fill="#ffffff" stroke="#000000" points="15,-249 15,-279 114,-279 114,-249 15,-249"/>
<text text-anchor="start" x="23" y="-267" font-family="Helvetica,sans-Serif" font-size="10.00" fill="#000000">nuspell::String_Set</text>
<text text-anchor="middle" x="64.5" y="-256" font-family="Helvetica,sans-Serif" font-size="10.00" fill="#000000">&lt; char16_t &gt;</text>
</a>
</g>
</g>
<!-- Node10&#45;&gt;Node4 -->
<g id="edge18" class="edge">
<title>Node10&#45;&gt;Node4</title>
<path fill="none" stroke="#9a32cd" stroke-dasharray="5,2" d="M124.1856,-260.7015C186.3121,-257.4066 286.4441,-252.4847 373,-250 506.965,-246.1543 665.3377,-245.2574 741.9315,-245.0545"/>
<polygon fill="#9a32cd" stroke="#9a32cd" points="123.9714,-257.2079 114.1722,-261.236 124.3445,-264.1979 123.9714,-257.2079"/>
<text text-anchor="middle" x="436" y="-253" font-family="Helvetica,sans-Serif" font-size="10.00" fill="#000000"> compound_syllable_num</text>
</g>
<!-- Node10&#45;&gt;Node8 -->
<g id="edge7" class="edge">
<title>Node10&#45;&gt;Node8</title>
<path fill="none" stroke="#9a32cd" stroke-dasharray="5,2" d="M86.4517,-286.437C116.3871,-316.0036 172.7497,-368.1017 229,-401 234.5568,-404.2499 240.6338,-407.2111 246.7511,-409.8578"/>
<polygon fill="#9a32cd" stroke="#9a32cd" points="88.6296,-283.6657 79.0785,-279.0801 83.6853,-288.621 88.6296,-283.6657"/>
<text text-anchor="middle" x="179" y="-391" font-family="Helvetica,sans-Serif" font-size="10.00" fill="#000000"> all_cont_flags</text>
</g>
<!-- Node15 -->
<g id="node13" class="node">
<title>Node15</title>
<g id="a_node13"><a xlink:href="classnuspell_1_1_affix___table.html" target="_top" xlink:title="nuspell::Affix_Table\l\&lt; wchar_t \&gt;">
<polygon fill="#ffffff" stroke="#000000" points="240.5,-137 240.5,-167 343.5,-167 343.5,-137 240.5,-137"/>
<text text-anchor="start" x="248.5" y="-155" font-family="Helvetica,sans-Serif" font-size="10.00" fill="#000000">nuspell::Affix_Table</text>
<text text-anchor="middle" x="292" y="-144" font-family="Helvetica,sans-Serif" font-size="10.00" fill="#000000">&lt; wchar_t &gt;</text>
</a>
</g>
</g>
<!-- Node10&#45;&gt;Node15 -->
<g id="edge14" class="edge">
<title>Node10&#45;&gt;Node15</title>
<path fill="none" stroke="#9a32cd" stroke-dasharray="5,2" d="M98.9532,-243.9083C131.7959,-225.1568 182.933,-196.9936 229,-176 235.8163,-172.8937 243.162,-169.8405 250.3463,-167.0081"/>
<polygon fill="#9a32cd" stroke="#9a32cd" points="97.1263,-240.9213 90.1945,-248.9339 100.61,-246.9929 97.1263,-240.9213"/>
<text text-anchor="middle" x="179" y="-221" font-family="Helvetica,sans-Serif" font-size="10.00" fill="#000000"> all_cont_flags</text>
</g>
<!-- Node20 -->
<g id="node18" class="node">
<title>Node20</title>
<g id="a_node18"><a xlink:href="classnuspell_1_1_compound___rule___table.html" target="_top" xlink:title="nuspell::Compound_Rule\l_Table">
<polygon fill="#ffffff" stroke="#000000" points="373,-271 373,-301 499,-301 499,-271 373,-271"/>
<text text-anchor="start" x="381" y="-289" font-family="Helvetica,sans-Serif" font-size="10.00" fill="#000000">nuspell::Compound_Rule</text>
<text text-anchor="middle" x="436" y="-278" font-family="Helvetica,sans-Serif" font-size="10.00" fill="#000000">_Table</text>
</a>
</g>
</g>
<!-- Node10&#45;&gt;Node20 -->
<g id="edge20" class="edge">
<title>Node10&#45;&gt;Node20</title>
<path fill="none" stroke="#9a32cd" stroke-dasharray="5,2" d="M124.3665,-267.5453C192.5398,-271.5824 303.4407,-278.1499 372.9226,-282.2646"/>
<polygon fill="#9a32cd" stroke="#9a32cd" points="124.4061,-264.0416 114.2167,-266.9442 123.9922,-271.0293 124.4061,-264.0416"/>
<text text-anchor="middle" x="179" y="-276" font-family="Helvetica,sans-Serif" font-size="10.00" fill="#000000"> all_flags</text>
</g>
<!-- Node11 -->
<g id="node9" class="node">
<title>Node11</title>
<g id="a_node9"><a xlink:href="classnuspell_1_1_replacement___table.html" target="_top" xlink:title="nuspell::Replacement\l_Table\&lt; char \&gt;">
<polygon fill="#ffffff" stroke="#000000" points="236.5,-361 236.5,-391 347.5,-391 347.5,-361 236.5,-361"/>
<text text-anchor="start" x="244.5" y="-379" font-family="Helvetica,sans-Serif" font-size="10.00" fill="#000000">nuspell::Replacement</text>
<text text-anchor="middle" x="292" y="-368" font-family="Helvetica,sans-Serif" font-size="10.00" fill="#000000">_Table&lt; char &gt;</text>
</a>
</g>
</g>
<!-- Node11&#45;&gt;Node5 -->
<g id="edge8" class="edge">
<title>Node11&#45;&gt;Node5</title>
<path fill="none" stroke="#9a32cd" stroke-dasharray="5,2" d="M357.8701,-376C405.915,-376 470.4334,-376 516.6324,-376"/>
<polygon fill="#9a32cd" stroke="#9a32cd" points="357.5741,-372.5001 347.574,-376 357.574,-379.5001 357.5741,-372.5001"/>
<text text-anchor="middle" x="436" y="-379" font-family="Helvetica,sans-Serif" font-size="10.00" fill="#000000"> replacements</text>
</g>
<!-- Node12 -->
<g id="node10" class="node">
<title>Node12</title>
<g id="a_node10"><a xlink:href="structnuspell_1_1_aff___structures.html" target="_top" xlink:title="nuspell::Aff_Structures\l\&lt; wchar_t \&gt;">
<polygon fill="#ffffff" stroke="#000000" points="517,-137 517,-167 633,-167 633,-137 517,-137"/>
<text text-anchor="start" x="525" y="-155" font-family="Helvetica,sans-Serif" font-size="10.00" fill="#000000">nuspell::Aff_Structures</text>
<text text-anchor="middle" x="575" y="-144" font-family="Helvetica,sans-Serif" font-size="10.00" fill="#000000">&lt; wchar_t &gt;</text>
</a>
</g>
</g>
<!-- Node12&#45;&gt;Node4 -->
<g id="edge9" class="edge">
<title>Node12&#45;&gt;Node4</title>
<path fill="none" stroke="#9a32cd" stroke-dasharray="5,2" d="M618.8914,-171.1638C663.7087,-190.732 731.4617,-220.3143 766.0285,-235.4068"/>
<polygon fill="#9a32cd" stroke="#9a32cd" points="620.2612,-167.9429 609.6962,-167.149 617.4602,-174.3581 620.2612,-167.9429"/>
<text text-anchor="middle" x="687.5" y="-218" font-family="Helvetica,sans-Serif" font-size="10.00" fill="#000000"> wide_structures</text>
</g>
<!-- Node13 -->
<g id="node11" class="node">
<title>Node13</title>
<g id="a_node11"><a xlink:href="classnuspell_1_1_replacement___table.html" target="_top" xlink:title="nuspell::Replacement\l_Table\&lt; wchar_t \&gt;">
<polygon fill="#ffffff" stroke="#000000" points="236.5,-39 236.5,-69 347.5,-69 347.5,-39 236.5,-39"/>
<text text-anchor="start" x="244.5" y="-57" font-family="Helvetica,sans-Serif" font-size="10.00" fill="#000000">nuspell::Replacement</text>
<text text-anchor="middle" x="292" y="-46" font-family="Helvetica,sans-Serif" font-size="10.00" fill="#000000">_Table&lt; wchar_t &gt;</text>
</a>
</g>
</g>
<!-- Node13&#45;&gt;Node12 -->
<g id="edge10" class="edge">
<title>Node13&#45;&gt;Node12</title>
<path fill="none" stroke="#9a32cd" stroke-dasharray="5,2" d="M357.7438,-63.1288C399.3902,-70.3816 453.7346,-82.6011 499,-102 519.9043,-110.9587 541.3382,-125.6592 556.0915,-136.8074"/>
<polygon fill="#9a32cd" stroke="#9a32cd" points="358.1567,-59.6491 347.7135,-61.4349 356.991,-66.5513 358.1567,-59.6491"/>
<text text-anchor="middle" x="436" y="-105" font-family="Helvetica,sans-Serif" font-size="10.00" fill="#000000"> replacements</text>
</g>
<!-- Node14 -->
<g id="node12" class="node">
<title>Node14</title>
<g id="a_node12"><a xlink:href="classnuspell_1_1_substr___replacer.html" target="_top" xlink:title="nuspell::Substr_Replacer\l\&lt; wchar_t \&gt;">
<polygon fill="#ffffff" stroke="#000000" points="229,-186 229,-216 355,-216 355,-186 229,-186"/>
<text text-anchor="start" x="237" y="-204" font-family="Helvetica,sans-Serif" font-size="10.00" fill="#000000">nuspell::Substr_Replacer</text>
<text text-anchor="middle" x="292" y="-193" font-family="Helvetica,sans-Serif" font-size="10.00" fill="#000000">&lt; wchar_t &gt;</text>
</a>
</g>
</g>
<!-- Node14&#45;&gt;Node12 -->
<g id="edge11" class="edge">
<title>Node14&#45;&gt;Node12</title>
<path fill="none" stroke="#9a32cd" stroke-dasharray="5,2" d="M365.2683,-196.7854C405.1592,-193.5105 455.1785,-187.8058 499,-178 511.3839,-175.2289 524.5668,-171.1426 536.4159,-167.0262"/>
<polygon fill="#9a32cd" stroke="#9a32cd" points="364.7864,-193.3124 355.0919,-197.5865 365.3358,-200.2908 364.7864,-193.3124"/>
<text text-anchor="middle" x="436" y="-210" font-family="Helvetica,sans-Serif" font-size="10.00" fill="#000000"> input_substr_replacer</text>
<text text-anchor="middle" x="436" y="-199" font-family="Helvetica,sans-Serif" font-size="10.00" fill="#000000">output_substr_replacer</text>
</g>
<!-- Node15&#45;&gt;Node12 -->
<g id="edge12" class="edge">
<title>Node15&#45;&gt;Node12</title>
<path fill="none" stroke="#9a32cd" stroke-dasharray="5,2" d="M353.6386,-152C402.1781,-152 469.3597,-152 516.9482,-152"/>
<polygon fill="#9a32cd" stroke="#9a32cd" points="353.5775,-148.5001 343.5775,-152 353.5775,-155.5001 353.5775,-148.5001"/>
<text text-anchor="middle" x="436" y="-166" font-family="Helvetica,sans-Serif" font-size="10.00" fill="#000000"> suffixes</text>
<text text-anchor="middle" x="436" y="-155" font-family="Helvetica,sans-Serif" font-size="10.00" fill="#000000">prefixes</text>
</g>
<!-- Node16 -->
<g id="node14" class="node">
<title>Node16</title>
<g id="a_node14"><a xlink:href="classnuspell_1_1_hash___multiset.html" target="_top" xlink:title="Affix_Table_Base\&lt; wchar\l_t , AffixT \&gt;">
<polygon fill="#ffffff" stroke="#000000" points="0,-137 0,-167 129,-167 129,-137 0,-137"/>
<text text-anchor="start" x="8" y="-155" font-family="Helvetica,sans-Serif" font-size="10.00" fill="#000000">Affix_Table_Base&lt; wchar</text>
<text text-anchor="middle" x="64.5" y="-144" font-family="Helvetica,sans-Serif" font-size="10.00" fill="#000000">_t , AffixT &gt;</text>
</a>
</g>
</g>
<!-- Node16&#45;&gt;Node15 -->
<g id="edge13" class="edge">
<title>Node16&#45;&gt;Node15</title>
<path fill="none" stroke="#8b1a1a" d="M139.176,-152C172.2617,-152 210.3678,-152 240.2522,-152"/>
<polygon fill="#8b1a1a" stroke="#8b1a1a" points="139.0839,-148.5001 129.0838,-152 139.0838,-155.5001 139.0839,-148.5001"/>
</g>
<!-- Node17 -->
<g id="node15" class="node">
<title>Node17</title>
<g id="a_node15"><a xlink:href="classnuspell_1_1_break___table.html" target="_top" xlink:title="nuspell::Break_Table\l\&lt; wchar_t \&gt;">
<polygon fill="#ffffff" stroke="#000000" points="238,-88 238,-118 346,-118 346,-88 238,-88"/>
<text text-anchor="start" x="246" y="-106" font-family="Helvetica,sans-Serif" font-size="10.00" fill="#000000">nuspell::Break_Table</text>
<text text-anchor="middle" x="292" y="-95" font-family="Helvetica,sans-Serif" font-size="10.00" fill="#000000">&lt; wchar_t &gt;</text>
</a>
</g>
</g>
<!-- Node17&#45;&gt;Node12 -->
<g id="edge15" class="edge">
<title>Node17&#45;&gt;Node12</title>
<path fill="none" stroke="#9a32cd" stroke-dasharray="5,2" d="M356.2338,-113.0065C397.1538,-119.5155 451.2595,-128.3703 499,-137 504.8232,-138.0526 510.8898,-139.1865 516.944,-140.3426"/>
<polygon fill="#9a32cd" stroke="#9a32cd" points="356.5512,-109.5131 346.1264,-111.4037 355.4548,-116.4268 356.5512,-109.5131"/>
<text text-anchor="middle" x="436" y="-140" font-family="Helvetica,sans-Serif" font-size="10.00" fill="#000000"> break_table</text>
</g>
<!-- Node18 -->
<g id="node16" class="node">
<title>Node18</title>
<g id="a_node16"><a xlink:href="classnuspell_1_1_word___list.html" target="_top" xlink:title="Map between words and word_flags. ">
<polygon fill="#ffffff" stroke="#000000" points="526,-49.5 526,-68.5 624,-68.5 624,-49.5 526,-49.5"/>
<text text-anchor="middle" x="575" y="-56.5" font-family="Helvetica,sans-Serif" font-size="10.00" fill="#000000">nuspell::Word_List</text>
</a>
</g>
</g>
<!-- Node18&#45;&gt;Node4 -->
<g id="edge16" class="edge">
<title>Node18&#45;&gt;Node4</title>
<path fill="none" stroke="#9a32cd" stroke-dasharray="5,2" d="M597.8176,-74.3981C628.0048,-95.2193 682.2633,-134.2253 724,-173 746.0549,-193.4897 768.7358,-220.7615 780.2587,-235.1482"/>
<polygon fill="#9a32cd" stroke="#9a32cd" points="599.4911,-71.3021 589.2625,-68.5405 595.5364,-77.078 599.4911,-71.3021"/>
<text text-anchor="middle" x="687.5" y="-176" font-family="Helvetica,sans-Serif" font-size="10.00" fill="#000000"> words</text>
</g>
<!-- Node19 -->
<g id="node17" class="node">
<title>Node19</title>
<g id="a_node17"><a xlink:href="classnuspell_1_1_hash___multiset.html" target="_top" xlink:title="Word_List_Base">
<polygon fill="#ffffff" stroke="#000000" points="247.5,-.5 247.5,-19.5 336.5,-19.5 336.5,-.5 247.5,-.5"/>
<text text-anchor="middle" x="292" y="-7.5" font-family="Helvetica,sans-Serif" font-size="10.00" fill="#000000">Word_List_Base</text>
</a>
</g>
</g>
<!-- Node19&#45;&gt;Node18 -->
<g id="edge17" class="edge">
<title>Node19&#45;&gt;Node18</title>
<path fill="none" stroke="#191970" d="M346.5493,-12.2899C388.6255,-14.8966 448.0502,-20.4129 499,-32 517.4325,-36.192 537.5594,-43.4712 552.4678,-49.4158"/>
<polygon fill="#191970" stroke="#191970" points="346.697,-8.7926 336.5097,-11.7026 346.2882,-15.7807 346.697,-8.7926"/>
</g>
<!-- Node20&#45;&gt;Node4 -->
<g id="edge19" class="edge">
<title>Node20&#45;&gt;Node4</title>
<path fill="none" stroke="#9a32cd" stroke-dasharray="5,2" d="M509.4324,-281.5937C567.814,-277.4948 651.4428,-270.294 724,-259 731.7546,-257.793 739.9784,-256.2195 747.8551,-254.5649"/>
<polygon fill="#9a32cd" stroke="#9a32cd" points="508.9331,-278.1197 499.1973,-282.2987 509.4142,-285.1032 508.9331,-278.1197"/>
<text text-anchor="middle" x="575" y="-284" font-family="Helvetica,sans-Serif" font-size="10.00" fill="#000000"> compound_rules</text>
</g>
</g>
</svg>
