<?xml version="1.0" encoding="UTF-8" standalone="no"?>
<!DOCTYPE svg PUBLIC "-//W3C//DTD SVG 1.1//EN"
 "http://www.w3.org/Graphics/SVG/1.1/DTD/svg11.dtd">
<!-- Generated by graphviz version 2.40.1 (20161225.0304)
 -->
<!-- Title: nuspell::Dict_Base Pages: 1 -->
<svg width="978pt" height="400pt"
 viewBox="0.00 0.00 978.00 399.50" xmlns="http://www.w3.org/2000/svg" xmlns:xlink="http://www.w3.org/1999/xlink">
<g id="graph0" class="graph" transform="scale(1 1) rotate(0) translate(4 395.5)">
<title>nuspell::Dict_Base</title>
<polygon fill="#ffffff" stroke="transparent" points="-4,4 -4,-395.5 974,-395.5 974,4 -4,4"/>
<!-- Node3 -->
<g id="node1" class="node">
<title>Node3</title>
<polygon fill="#bfbfbf" stroke="#000000" points="871,-186.5 871,-205.5 970,-205.5 970,-186.5 871,-186.5"/>
<text text-anchor="middle" x="920.5" y="-193.5" font-family="Helvetica,sans-Serif" font-size="10.00" fill="#000000">nuspell::Dict_Base</text>
</g>
<!-- Node4 -->
<g id="node2" class="node">
<title>Node4</title>
<g id="a_node2"><a xlink:href="structnuspell_1_1_aff___data.html" target="_top" xlink:title="nuspell::Aff_Data">
<polygon fill="#ffffff" stroke="#000000" points="742,-186.5 742,-205.5 834,-205.5 834,-186.5 742,-186.5"/>
<text text-anchor="middle" x="788" y="-193.5" font-family="Helvetica,sans-Serif" font-size="10.00" fill="#000000">nuspell::Aff_Data</text>
</a>
</g>
</g>
<!-- Node4&#45;&gt;Node3 -->
<g id="edge1" class="edge">
<title>Node4&#45;&gt;Node3</title>
<path fill="none" stroke="#191970" d="M844.4732,-196C853.2267,-196 862.213,-196 870.8026,-196"/>
<polygon fill="#191970" stroke="#191970" points="844.3421,-192.5001 834.3421,-196 844.342,-199.5001 844.3421,-192.5001"/>
</g>
<!-- Node5 -->
<g id="node3" class="node">
<title>Node5</title>
<g id="a_node3"><a xlink:href="structnuspell_1_1_aff___structures.html" target="_top" xlink:title="nuspell::Aff_Structures\l\&lt; char \&gt;">
<polygon fill="#ffffff" stroke="#000000" points="517,-292 517,-322 633,-322 633,-292 517,-292"/>
<text text-anchor="start" x="525" y="-310" font-family="Helvetica,sans-Serif" font-size="10.00" fill="#000000">nuspell::Aff_Structures</text>
<text text-anchor="middle" x="575" y="-299" font-family="Helvetica,sans-Serif" font-size="10.00" fill="#000000">&lt; char &gt;</text>
</a>
</g>
</g>
<!-- Node5&#45;&gt;Node4 -->
<g id="edge2" class="edge">
<title>Node5&#45;&gt;Node4</title>
<path fill="none" stroke="#9a32cd" stroke-dasharray="5,2" d="M642.6164,-290.4739C669.1076,-282.3399 699.0632,-270.9976 724,-256 746.971,-242.1847 768.6069,-219.006 779.886,-205.8686"/>
<polygon fill="#9a32cd" stroke="#9a32cd" points="641.6157,-287.12 633.029,-293.3263 643.6119,-293.8293 641.6157,-287.12"/>
<text text-anchor="middle" x="687.5" y="-290" font-family="Helvetica,sans-Serif" font-size="10.00" fill="#000000"> structures</text>
</g>
<!-- Node6 -->
<g id="node4" class="node">
<title>Node6</title>
<g id="a_node4"><a xlink:href="classnuspell_1_1_break___table.html" target="_top" xlink:title="nuspell::Break_Table\l\&lt; char \&gt;">
<polygon fill="#ffffff" stroke="#000000" points="238,-361 238,-391 346,-391 346,-361 238,-361"/>
<text text-anchor="start" x="246" y="-379" font-family="Helvetica,sans-Serif" font-size="10.00" fill="#000000">nuspell::Break_Table</text>
<text text-anchor="middle" x="292" y="-368" font-family="Helvetica,sans-Serif" font-size="10.00" fill="#000000">&lt; char &gt;</text>
</a>
</g>
</g>
<!-- Node6&#45;&gt;Node5 -->
<g id="edge3" class="edge">
<title>Node6&#45;&gt;Node5</title>
<path fill="none" stroke="#9a32cd" stroke-dasharray="5,2" d="M356.308,-372.7163C397.8332,-369.2102 452.5746,-361.9653 499,-347 517.5906,-341.0073 537.0559,-330.6735 551.6327,-322.0107"/>
<polygon fill="#9a32cd" stroke="#9a32cd" points="356.0096,-369.2289 346.318,-373.5095 356.5637,-376.2069 356.0096,-369.2289"/>
<text text-anchor="middle" x="436" y="-373" font-family="Helvetica,sans-Serif" font-size="10.00" fill="#000000"> break_table</text>
</g>
<!-- Node7 -->
<g id="node5" class="node">
<title>Node7</title>
<g id="a_node5"><a xlink:href="classnuspell_1_1_substr___replacer.html" target="_top" xlink:title="nuspell::Substr_Replacer\l\&lt; char \&gt;">
<polygon fill="#ffffff" stroke="#000000" points="229,-312 229,-342 355,-342 355,-312 229,-312"/>
<text text-anchor="start" x="237" y="-330" font-family="Helvetica,sans-Serif" font-size="10.00" fill="#000000">nuspell::Substr_Replacer</text>
<text text-anchor="middle" x="292" y="-319" font-family="Helvetica,sans-Serif" font-size="10.00" fill="#000000">&lt; char &gt;</text>
</a>
</g>
</g>
<!-- Node7&#45;&gt;Node5 -->
<g id="edge4" class="edge">
<title>Node7&#45;&gt;Node5</title>
<path fill="none" stroke="#9a32cd" stroke-dasharray="5,2" d="M365.319,-321.8184C412.5057,-318.4837 472.9856,-314.2095 516.8546,-311.1092"/>
<polygon fill="#9a32cd" stroke="#9a32cd" points="364.8868,-318.3402 355.1585,-322.5365 365.3804,-325.3227 364.8868,-318.3402"/>
<text text-anchor="middle" x="436" y="-335" font-family="Helvetica,sans-Serif" font-size="10.00" fill="#000000"> input_substr_replacer</text>
<text text-anchor="middle" x="436" y="-324" font-family="Helvetica,sans-Serif" font-size="10.00" fill="#000000">output_substr_replacer</text>
</g>
<!-- Node8 -->
<g id="node6" class="node">
<title>Node8</title>
<g id="a_node6"><a xlink:href="classnuspell_1_1_affix___table.html" target="_top" xlink:title="nuspell::Affix_Table\l\&lt; char \&gt;">
<polygon fill="#ffffff" stroke="#000000" points="240.5,-263 240.5,-293 343.5,-293 343.5,-263 240.5,-263"/>
<text text-anchor="start" x="248.5" y="-281" font-family="Helvetica,sans-Serif" font-size="10.00" fill="#000000">nuspell::Affix_Table</text>
<text text-anchor="middle" x="292" y="-270" font-family="Helvetica,sans-Serif" font-size="10.00" fill="#000000">&lt; char &gt;</text>
</a>
</g>
</g>
<!-- Node8&#45;&gt;Node5 -->
<g id="edge5" class="edge">
<title>Node8&#45;&gt;Node5</title>
<path fill="none" stroke="#9a32cd" stroke-dasharray="5,2" d="M353.9715,-276.6765C395.2871,-276.7042 450.6765,-278.4934 499,-286 508.1981,-287.4288 517.872,-289.5803 527.12,-291.9697"/>
<polygon fill="#9a32cd" stroke="#9a32cd" points="353.7738,-273.1769 343.7836,-276.705 353.7934,-280.1769 353.7738,-273.1769"/>
<text text-anchor="middle" x="436" y="-300" font-family="Helvetica,sans-Serif" font-size="10.00" fill="#000000"> suffixes</text>
<text text-anchor="middle" x="436" y="-289" font-family="Helvetica,sans-Serif" font-size="10.00" fill="#000000">prefixes</text>
</g>
<!-- Node9 -->
<g id="node7" class="node">
<title>Node9</title>
<g id="a_node7"><a xlink:href="classnuspell_1_1_hash___multiset.html" target="_top" xlink:title="Affix_Table_Base\&lt; char\l , AffixT \&gt;">
<polygon fill="#ffffff" stroke="#000000" points="3.5,-279 3.5,-309 125.5,-309 125.5,-279 3.5,-279"/>
<text text-anchor="start" x="11.5" y="-297" font-family="Helvetica,sans-Serif" font-size="10.00" fill="#000000">Affix_Table_Base&lt; char</text>
<text text-anchor="middle" x="64.5" y="-286" font-family="Helvetica,sans-Serif" font-size="10.00" fill="#000000"> , AffixT &gt;</text>
</a>
</g>
</g>
<!-- Node9&#45;&gt;Node8 -->
<g id="edge6" class="edge">
<title>Node9&#45;&gt;Node8</title>
<path fill="none" stroke="#8b1a1a" d="M136.051,-288.9678C169.8454,-286.5911 209.4299,-283.8071 240.2611,-281.6388"/>
<polygon fill="#8b1a1a" stroke="#8b1a1a" points="135.4949,-285.4982 125.7651,-289.6912 135.986,-292.481 135.4949,-285.4982"/>
</g>
<!-- Node10 -->
<g id="node8" class="node">
<title>Node10</title>
<g id="a_node8"><a xlink:href="classnuspell_1_1_string___set.html" target="_top" xlink:title="nuspell::String_Set\l\&lt; char16_t \&gt;">
<polygon fill="#ffffff" stroke="#000000" points="15,-200 15,-230 114,-230 114,-200 15,-200"/>
<text text-anchor="start" x="23" y="-218" font-family="Helvetica,sans-Serif" font-size="10.00" fill="#000000">nuspell::String_Set</text>
<text text-anchor="middle" x="64.5" y="-207" font-family="Helvetica,sans-Serif" font-size="10.00" fill="#000000">&lt; char16_t &gt;</text>
</a>
</g>
</g>
<!-- Node10&#45;&gt;Node4 -->
<g id="edge16" class="edge">
<title>Node10&#45;&gt;Node4</title>
<path fill="none" stroke="#9a32cd" stroke-dasharray="5,2" d="M124.1945,-212.2883C186.328,-209.5573 286.4657,-205.4125 373,-203 506.9774,-199.2648 665.3445,-197.2621 741.9343,-196.4461"/>
<polygon fill="#9a32cd" stroke="#9a32cd" points="124.0155,-208.7927 114.1798,-212.7307 124.3245,-215.7859 124.0155,-208.7927"/>
<text text-anchor="middle" x="436" y="-206" font-family="Helvetica,sans-Serif" font-size="10.00" fill="#000000"> compound_syllable_num</text>
</g>
<!-- Node10&#45;&gt;Node8 -->
<g id="edge7" class="edge">
<title>Node10&#45;&gt;Node8</title>
<path fill="none" stroke="#9a32cd" stroke-dasharray="5,2" d="M110.6829,-233.6727C122.4179,-238.0513 135.0813,-242.4651 147,-246 177.5233,-255.0528 212.3424,-262.8184 240.2088,-268.432"/>
<polygon fill="#9a32cd" stroke="#9a32cd" points="111.6718,-230.3043 101.0807,-230.0229 109.1847,-236.8476 111.6718,-230.3043"/>
<text text-anchor="middle" x="179" y="-265" font-family="Helvetica,sans-Serif" font-size="10.00" fill="#000000"> all_cont_flags</text>
</g>
<!-- Node13 -->
<g id="node11" class="node">
<title>Node13</title>
<g id="a_node11"><a xlink:href="classnuspell_1_1_affix___table.html" target="_top" xlink:title="nuspell::Affix_Table\l\&lt; wchar_t \&gt;">
<polygon fill="#ffffff" stroke="#000000" points="240.5,-39 240.5,-69 343.5,-69 343.5,-39 240.5,-39"/>
<text text-anchor="start" x="248.5" y="-57" font-family="Helvetica,sans-Serif" font-size="10.00" fill="#000000">nuspell::Affix_Table</text>
<text text-anchor="middle" x="292" y="-46" font-family="Helvetica,sans-Serif" font-size="10.00" fill="#000000">&lt; wchar_t &gt;</text>
</a>
</g>
</g>
<!-- Node10&#45;&gt;Node13 -->
<g id="edge12" class="edge">
<title>Node10&#45;&gt;Node13</title>
<path fill="none" stroke="#9a32cd" stroke-dasharray="5,2" d="M87.0258,-192.3935C117.1901,-163.1059 173.378,-111.9122 229,-79 235.1775,-75.3447 241.9881,-72.0119 248.7793,-69.0555"/>
<polygon fill="#9a32cd" stroke="#9a32cd" points="84.2722,-190.1916 79.5816,-199.6916 89.1726,-195.1902 84.2722,-190.1916"/>
<text text-anchor="middle" x="179" y="-139" font-family="Helvetica,sans-Serif" font-size="10.00" fill="#000000"> all_cont_flags</text>
</g>
<!-- Node18 -->
<g id="node16" class="node">
<title>Node18</title>
<g id="a_node16"><a xlink:href="classnuspell_1_1_compound___rule___table.html" target="_top" xlink:title="nuspell::Compound_Rule\l_Table">
<polygon fill="#ffffff" stroke="#000000" points="373,-223 373,-253 499,-253 499,-223 373,-223"/>
<text text-anchor="start" x="381" y="-241" font-family="Helvetica,sans-Serif" font-size="10.00" fill="#000000">nuspell::Compound_Rule</text>
<text text-anchor="middle" x="436" y="-230" font-family="Helvetica,sans-Serif" font-size="10.00" fill="#000000">_Table</text>
</a>
</g>
</g>
<!-- Node10&#45;&gt;Node18 -->
<g id="edge18" class="edge">
<title>Node10&#45;&gt;Node18</title>
<path fill="none" stroke="#9a32cd" stroke-dasharray="5,2" d="M124.3665,-218.7064C192.5398,-222.9271 303.4407,-229.7931 372.9226,-234.0948"/>
<polygon fill="#9a32cd" stroke="#9a32cd" points="124.4139,-215.2027 114.2167,-218.078 123.9812,-222.1893 124.4139,-215.2027"/>
<text text-anchor="middle" x="179" y="-227" font-family="Helvetica,sans-Serif" font-size="10.00" fill="#000000"> all_flags</text>
</g>
<!-- Node11 -->
<g id="node9" class="node">
<title>Node11</title>
<g id="a_node9"><a xlink:href="structnuspell_1_1_aff___structures.html" target="_top" xlink:title="nuspell::Aff_Structures\l\&lt; wchar_t \&gt;">
<polygon fill="#ffffff" stroke="#000000" points="517,-110 517,-140 633,-140 633,-110 517,-110"/>
<text text-anchor="start" x="525" y="-128" font-family="Helvetica,sans-Serif" font-size="10.00" fill="#000000">nuspell::Aff_Structures</text>
<text text-anchor="middle" x="575" y="-117" font-family="Helvetica,sans-Serif" font-size="10.00" fill="#000000">&lt; wchar_t &gt;</text>
</a>
</g>
</g>
<!-- Node11&#45;&gt;Node4 -->
<g id="edge8" class="edge">
<title>Node11&#45;&gt;Node4</title>
<path fill="none" stroke="#9a32cd" stroke-dasharray="5,2" d="M636.7104,-142.9493C663.6604,-151.0714 695.545,-161.0648 724,-171 737.627,-175.7579 752.6701,-181.6032 764.7463,-186.445"/>
<polygon fill="#9a32cd" stroke="#9a32cd" points="637.604,-139.5634 627.0202,-140.0452 635.5944,-146.2688 637.604,-139.5634"/>
<text text-anchor="middle" x="687.5" y="-174" font-family="Helvetica,sans-Serif" font-size="10.00" fill="#000000"> wide_structures</text>
</g>
<!-- Node12 -->
<g id="node10" class="node">
<title>Node12</title>
<g id="a_node10"><a xlink:href="classnuspell_1_1_substr___replacer.html" target="_top" xlink:title="nuspell::Substr_Replacer\l\&lt; wchar_t \&gt;">
<polygon fill="#ffffff" stroke="#000000" points="229,-88 229,-118 355,-118 355,-88 229,-88"/>
<text text-anchor="start" x="237" y="-106" font-family="Helvetica,sans-Serif" font-size="10.00" fill="#000000">nuspell::Substr_Replacer</text>
<text text-anchor="middle" x="292" y="-95" font-family="Helvetica,sans-Serif" font-size="10.00" fill="#000000">&lt; wchar_t &gt;</text>
</a>
</g>
</g>
<!-- Node12&#45;&gt;Node11 -->
<g id="edge9" class="edge">
<title>Node12&#45;&gt;Node11</title>
<path fill="none" stroke="#9a32cd" stroke-dasharray="5,2" d="M365.3212,-101.2862C405.0255,-101.2337 454.8529,-102.5824 499,-108 504.7705,-108.7081 510.7467,-109.658 516.6967,-110.7484"/>
<polygon fill="#9a32cd" stroke="#9a32cd" points="365.1779,-97.7867 355.1931,-101.3301 365.2082,-104.7867 365.1779,-97.7867"/>
<text text-anchor="middle" x="436" y="-122" font-family="Helvetica,sans-Serif" font-size="10.00" fill="#000000"> input_substr_replacer</text>
<text text-anchor="middle" x="436" y="-111" font-family="Helvetica,sans-Serif" font-size="10.00" fill="#000000">output_substr_replacer</text>
</g>
<!-- Node13&#45;&gt;Node11 -->
<g id="edge10" class="edge">
<title>Node13&#45;&gt;Node11</title>
<path fill="none" stroke="#9a32cd" stroke-dasharray="5,2" d="M353.7779,-52.6379C395.8342,-53.5318 452.1493,-58.3479 499,-75 521.025,-82.8284 542.985,-98.3166 557.5937,-109.9915"/>
<polygon fill="#9a32cd" stroke="#9a32cd" points="353.7286,-49.1369 343.6791,-52.4923 353.6276,-56.1362 353.7286,-49.1369"/>
<text text-anchor="middle" x="436" y="-89" font-family="Helvetica,sans-Serif" font-size="10.00" fill="#000000"> suffixes</text>
<text text-anchor="middle" x="436" y="-78" font-family="Helvetica,sans-Serif" font-size="10.00" fill="#000000">prefixes</text>
</g>
<!-- Node14 -->
<g id="node12" class="node">
<title>Node14</title>
<g id="a_node12"><a xlink:href="classnuspell_1_1_hash___multiset.html" target="_top" xlink:title="Affix_Table_Base\&lt; wchar\l_t , AffixT \&gt;">
<polygon fill="#ffffff" stroke="#000000" points="0,-39 0,-69 129,-69 129,-39 0,-39"/>
<text text-anchor="start" x="8" y="-57" font-family="Helvetica,sans-Serif" font-size="10.00" fill="#000000">Affix_Table_Base&lt; wchar</text>
<text text-anchor="middle" x="64.5" y="-46" font-family="Helvetica,sans-Serif" font-size="10.00" fill="#000000">_t , AffixT &gt;</text>
</a>
</g>
</g>
<!-- Node14&#45;&gt;Node13 -->
<g id="edge11" class="edge">
<title>Node14&#45;&gt;Node13</title>
<path fill="none" stroke="#8b1a1a" d="M139.176,-54C172.2617,-54 210.3678,-54 240.2522,-54"/>
<polygon fill="#8b1a1a" stroke="#8b1a1a" points="139.0839,-50.5001 129.0838,-54 139.0838,-57.5001 139.0839,-50.5001"/>
</g>
<!-- Node15 -->
<g id="node13" class="node">
<title>Node15</title>
<g id="a_node13"><a xlink:href="classnuspell_1_1_break___table.html" target="_top" xlink:title="nuspell::Break_Table\l\&lt; wchar_t \&gt;">
<polygon fill="#ffffff" stroke="#000000" points="238,-137 238,-167 346,-167 346,-137 238,-137"/>
<text text-anchor="start" x="246" y="-155" font-family="Helvetica,sans-Serif" font-size="10.00" fill="#000000">nuspell::Break_Table</text>
<text text-anchor="middle" x="292" y="-144" font-family="Helvetica,sans-Serif" font-size="10.00" fill="#000000">&lt; wchar_t &gt;</text>
</a>
</g>
</g>
<!-- Node15&#45;&gt;Node11 -->
<g id="edge13" class="edge">
<title>Node15&#45;&gt;Node11</title>
<path fill="none" stroke="#9a32cd" stroke-dasharray="5,2" d="M356.2379,-145.8713C404.4228,-141.2741 469.8462,-135.0323 516.566,-130.575"/>
<polygon fill="#9a32cd" stroke="#9a32cd" points="355.8528,-142.3921 346.2304,-146.8261 356.5176,-149.3604 355.8528,-142.3921"/>
<text text-anchor="middle" x="436" y="-147" font-family="Helvetica,sans-Serif" font-size="10.00" fill="#000000"> break_table</text>
</g>
<!-- Node16 -->
<g id="node14" class="node">
<title>Node16</title>
<g id="a_node14"><a xlink:href="classnuspell_1_1_word___list.html" target="_top" xlink:title="Map between words and word_flags. ">
<polygon fill="#ffffff" stroke="#000000" points="526,-47.5 526,-66.5 624,-66.5 624,-47.5 526,-47.5"/>
<text text-anchor="middle" x="575" y="-54.5" font-family="Helvetica,sans-Serif" font-size="10.00" fill="#000000">nuspell::Word_List</text>
</a>
</g>
</g>
<!-- Node16&#45;&gt;Node4 -->
<g id="edge14" class="edge">
<title>Node16&#45;&gt;Node4</title>
<path fill="none" stroke="#9a32cd" stroke-dasharray="5,2" d="M609.1658,-70.4797C640.5484,-83.6992 687.5721,-105.67 724,-132 746.6685,-148.3847 768.755,-172.9259 780.1096,-186.3595"/>
<polygon fill="#9a32cd" stroke="#9a32cd" points="610.1377,-67.094 599.5595,-66.5007 607.4589,-73.5611 610.1377,-67.094"/>
<text text-anchor="middle" x="687.5" y="-135" font-family="Helvetica,sans-Serif" font-size="10.00" fill="#000000"> words</text>
</g>
<!-- Node17 -->
<g id="node15" class="node">
<title>Node17</title>
<g id="a_node15"><a xlink:href="classnuspell_1_1_hash___multiset.html" target="_top" xlink:title="Word_List_Base">
<polygon fill="#ffffff" stroke="#000000" points="247.5,-.5 247.5,-19.5 336.5,-19.5 336.5,-.5 247.5,-.5"/>
<text text-anchor="middle" x="292" y="-7.5" font-family="Helvetica,sans-Serif" font-size="10.00" fill="#000000">Word_List_Base</text>
</a>
</g>
</g>
<!-- Node17&#45;&gt;Node16 -->
<g id="edge15" class="edge">
<title>Node17&#45;&gt;Node16</title>
<path fill="none" stroke="#191970" d="M346.8018,-13.6739C388.7743,-17.1322 447.9489,-23.4042 499,-34 515.3323,-37.3898 533.2042,-42.7135 547.5115,-47.3856"/>
<polygon fill="#191970" stroke="#191970" points="347.0312,-10.1812 336.7846,-12.875 346.4746,-17.159 347.0312,-10.1812"/>
</g>
<!-- Node18&#45;&gt;Node4 -->
<g id="edge17" class="edge">
<title>Node18&#45;&gt;Node4</title>
<path fill="none" stroke="#9a32cd" stroke-dasharray="5,2" d="M509.43,-233.2707C567.8103,-228.9313 651.4385,-221.4226 724,-210 731.7525,-208.7796 739.9753,-207.2 747.8517,-205.5435"/>
<polygon fill="#9a32cd" stroke="#9a32cd" points="508.9136,-229.799 499.1952,-234.0182 509.4236,-236.7804 508.9136,-229.799"/>
<text text-anchor="middle" x="575" y="-235" font-family="Helvetica,sans-Serif" font-size="10.00" fill="#000000"> compound_rules</text>
</g>
</g>
</svg>
