<?xml version="1.0" encoding="UTF-8" standalone="no"?>
<!DOCTYPE svg PUBLIC "-//W3C//DTD SVG 1.1//EN"
 "http://www.w3.org/Graphics/SVG/1.1/DTD/svg11.dtd">
<!-- Generated by graphviz version 2.43.0 (0)
 -->
<!-- Title: nuspell::v5::Suffix Pages: 1 -->
<svg width="252pt" height="106pt"
 viewBox="0.00 0.00 252.00 106.00" xmlns="http://www.w3.org/2000/svg" xmlns:xlink="http://www.w3.org/1999/xlink">
<g id="graph0" class="graph" transform="scale(1 1) rotate(0) translate(4 102)">
<title>nuspell::v5::Suffix</title>
<polygon fill="white" stroke="transparent" points="-4,4 -4,-102 248,-102 248,4 -4,4"/>
<!-- Node1 -->
<g id="node1" class="node">
<title>Node1</title>
<g id="a_node1"><a xlink:title=" ">
<polygon fill="#bfbfbf" stroke="black" points="65,-0.5 65,-19.5 169,-19.5 169,-0.5 65,-0.5"/>
<text text-anchor="middle" x="117" y="-7.5" font-family="Helvetica,sans-Serif" font-size="10.00">nuspell::v5::Suffix</text>
</a>
</g>
</g>
<!-- Node2 -->
<g id="node2" class="node">
<title>Node2</title>
<g id="a_node2"><a xlink:href="classnuspell_1_1v5_1_1_string___set.html" target="_top" xlink:title=" ">
<polygon fill="white" stroke="black" points="0,-67.5 0,-97.5 104,-97.5 104,-67.5 0,-67.5"/>
<text text-anchor="start" x="8" y="-85.5" font-family="Helvetica,sans-Serif" font-size="10.00">nuspell::v5::String</text>
<text text-anchor="middle" x="52" y="-74.5" font-family="Helvetica,sans-Serif" font-size="10.00">_Set&lt; char16_t &gt;</text>
</a>
</g>
</g>
<!-- Node2&#45;&gt;Node1 -->
<g id="edge1" class="edge">
<title>Node2&#45;&gt;Node1</title>
<path fill="none" stroke="#9a32cd" stroke-dasharray="5,2" d="M72.04,-59.76C84.41,-46.34 99.62,-29.85 108.8,-19.89"/>
<polygon fill="#9a32cd" stroke="#9a32cd" points="69.36,-57.51 65.15,-67.23 74.51,-62.25 69.36,-57.51"/>
<text text-anchor="middle" x="118" y="-41" font-family="Helvetica,sans-Serif" font-size="10.00"> cont_flags</text>
</g>
<!-- Node3 -->
<g id="node3" class="node">
<title>Node3</title>
<g id="a_node3"><a xlink:href="classnuspell_1_1v5_1_1_condition.html" target="_top" xlink:title=" ">
<polygon fill="white" stroke="black" points="122,-73 122,-92 244,-92 244,-73 122,-73"/>
<text text-anchor="middle" x="183" y="-80" font-family="Helvetica,sans-Serif" font-size="10.00">nuspell::v5::Condition</text>
</a>
</g>
</g>
<!-- Node3&#45;&gt;Node1 -->
<g id="edge2" class="edge">
<title>Node3&#45;&gt;Node1</title>
<path fill="none" stroke="#9a32cd" stroke-dasharray="5,2" d="M171,-64.51C164.81,-56.19 156.91,-46.21 149,-38 142.65,-31.4 134.79,-24.76 128.46,-19.71"/>
<polygon fill="#9a32cd" stroke="#9a32cd" points="168.27,-66.7 176.97,-72.74 173.93,-62.59 168.27,-66.7"/>
<text text-anchor="middle" x="182.5" y="-41" font-family="Helvetica,sans-Serif" font-size="10.00"> condition</text>
</g>
</g>
</svg>
