<?xml version="1.0" encoding="UTF-8" standalone="no"?>
<!DOCTYPE svg PUBLIC "-//W3C//DTD SVG 1.1//EN"
 "http://www.w3.org/Graphics/SVG/1.1/DTD/svg11.dtd">
<!-- Generated by graphviz version 2.40.1 (20161225.0304)
 -->
<!-- Title: nuspell::Dict_Base::strip_2_pfx_sfx_3 Pages: 1 -->
<svg width="247pt" height="39pt"
 viewBox="0.00 0.00 247.00 39.00" xmlns="http://www.w3.org/2000/svg" xmlns:xlink="http://www.w3.org/1999/xlink">
<g id="graph0" class="graph" transform="scale(1 1) rotate(0) translate(4 35)">
<title>nuspell::Dict_Base::strip_2_pfx_sfx_3</title>
<polygon fill="#ffffff" stroke="transparent" points="-4,4 -4,-35 243,-35 243,4 -4,4"/>
<!-- Node54 -->
<g id="node1" class="node">
<title>Node54</title>
<polygon fill="#bfbfbf" stroke="#000000" points="0,-.5 0,-30.5 100,-30.5 100,-.5 0,-.5"/>
<text text-anchor="start" x="8" y="-18.5" font-family="Helvetica,sans-Serif" font-size="10.00" fill="#000000">nuspell::Dict_Base</text>
<text text-anchor="middle" x="50" y="-7.5" font-family="Helvetica,sans-Serif" font-size="10.00" fill="#000000">::strip_2_pfx_sfx_3</text>
</g>
<!-- Node55 -->
<g id="node2" class="node">
<title>Node55</title>
<g id="a_node2"><a xlink:href="namespacenuspell.html#a8529ccc887c031a3c1340c607eaac017" target="_top" xlink:title="nuspell::cross_valid\l_inner_outer">
<polygon fill="#ffffff" stroke="#000000" points="136,-.5 136,-30.5 239,-30.5 239,-.5 136,-.5"/>
<text text-anchor="start" x="144" y="-18.5" font-family="Helvetica,sans-Serif" font-size="10.00" fill="#000000">nuspell::cross_valid</text>
<text text-anchor="middle" x="187.5" y="-7.5" font-family="Helvetica,sans-Serif" font-size="10.00" fill="#000000">_inner_outer</text>
</a>
</g>
</g>
<!-- Node54&#45;&gt;Node55 -->
<g id="edge1" class="edge">
<title>Node54&#45;&gt;Node55</title>
<path fill="none" stroke="#191970" d="M100.0296,-15.5C108.4185,-15.5 117.21,-15.5 125.8502,-15.5"/>
<polygon fill="#191970" stroke="#191970" points="125.8906,-19.0001 135.8905,-15.5 125.8905,-12.0001 125.8906,-19.0001"/>
</g>
</g>
</svg>
