<?xml version="1.0" encoding="UTF-8" standalone="no"?>
<!DOCTYPE svg PUBLIC "-//W3C//DTD SVG 1.1//EN"
 "http://www.w3.org/Graphics/SVG/1.1/DTD/svg11.dtd">
<!-- Generated by graphviz version 2.40.1 (20161225.0304)
 -->
<!-- Title: src/nuspell/structures.hxx Pages: 1 -->
<svg width="255pt" height="140pt"
 viewBox="0.00 0.00 255.00 140.00" xmlns="http://www.w3.org/2000/svg" xmlns:xlink="http://www.w3.org/1999/xlink">
<g id="graph0" class="graph" transform="scale(1 1) rotate(0) translate(4 136)">
<title>src/nuspell/structures.hxx</title>
<polygon fill="#ffffff" stroke="transparent" points="-4,4 -4,-136 251,-136 251,4 -4,4"/>
<!-- Node13 -->
<g id="node1" class="node">
<title>Node13</title>
<polygon fill="#bfbfbf" stroke="#000000" points="64.5,-112.5 64.5,-131.5 193.5,-131.5 193.5,-112.5 64.5,-112.5"/>
<text text-anchor="middle" x="129" y="-119.5" font-family="Helvetica,sans-Serif" font-size="10.00" fill="#000000">src/nuspell/structures.hxx</text>
</g>
<!-- Node14 -->
<g id="node2" class="node">
<title>Node14</title>
<g id="a_node2"><a xlink:href="aff__data_8hxx.html" target="_top" xlink:title="Affixing data structures, private header. ">
<polygon fill="#ffffff" stroke="#000000" points="3.5,-56.5 3.5,-75.5 124.5,-75.5 124.5,-56.5 3.5,-56.5"/>
<text text-anchor="middle" x="64" y="-63.5" font-family="Helvetica,sans-Serif" font-size="10.00" fill="#000000">src/nuspell/aff_data.hxx</text>
</a>
</g>
</g>
<!-- Node13&#45;&gt;Node14 -->
<g id="edge1" class="edge">
<title>Node13&#45;&gt;Node14</title>
<path fill="none" stroke="#191970" d="M110.0165,-105.645C98.7121,-95.9058 84.753,-83.8795 75.1924,-75.6427"/>
<polygon fill="#191970" stroke="#191970" points="107.8173,-108.3701 117.6779,-112.2455 112.3862,-103.0668 107.8173,-108.3701"/>
</g>
<!-- Node16 -->
<g id="node4" class="node">
<title>Node16</title>
<g id="a_node4"><a xlink:href="utils_8hxx.html" target="_top" xlink:title="Utilities for strings, private header. ">
<polygon fill="#ffffff" stroke="#000000" points="143,-56.5 143,-75.5 247,-75.5 247,-56.5 143,-56.5"/>
<text text-anchor="middle" x="195" y="-63.5" font-family="Helvetica,sans-Serif" font-size="10.00" fill="#000000">src/nuspell/utils.hxx</text>
</a>
</g>
</g>
<!-- Node13&#45;&gt;Node16 -->
<g id="edge3" class="edge">
<title>Node13&#45;&gt;Node16</title>
<path fill="none" stroke="#191970" d="M148.2755,-105.645C159.7538,-95.9058 173.9277,-83.8795 183.6354,-75.6427"/>
<polygon fill="#191970" stroke="#191970" points="145.857,-103.1069 140.4963,-112.2455 150.3859,-108.4445 145.857,-103.1069"/>
</g>
<!-- Node15 -->
<g id="node3" class="node">
<title>Node15</title>
<g id="a_node3"><a xlink:href="dictionary_8hxx.html" target="_top" xlink:title="Dictionary spelling, PUBLIC HEADER. ">
<polygon fill="#ffffff" stroke="#000000" points="0,-.5 0,-19.5 128,-19.5 128,-.5 0,-.5"/>
<text text-anchor="middle" x="64" y="-7.5" font-family="Helvetica,sans-Serif" font-size="10.00" fill="#000000">src/nuspell/dictionary.hxx</text>
</a>
</g>
</g>
<!-- Node14&#45;&gt;Node15 -->
<g id="edge2" class="edge">
<title>Node14&#45;&gt;Node15</title>
<path fill="none" stroke="#191970" d="M64,-46.1575C64,-37.155 64,-26.9199 64,-19.6427"/>
<polygon fill="#191970" stroke="#191970" points="60.5001,-46.2455 64,-56.2455 67.5001,-46.2456 60.5001,-46.2455"/>
</g>
</g>
</svg>
