<?xml version="1.0" encoding="UTF-8" standalone="no"?>
<!DOCTYPE svg PUBLIC "-//W3C//DTD SVG 1.1//EN"
 "http://www.w3.org/Graphics/SVG/1.1/DTD/svg11.dtd">
<!-- Generated by graphviz version 2.43.0 (0)
 -->
<!-- Title: nuspell::Aff_Data Pages: 1 -->
<svg width="362pt" height="332pt"
 viewBox="0.00 0.00 362.00 331.50" xmlns="http://www.w3.org/2000/svg" xmlns:xlink="http://www.w3.org/1999/xlink">
<g id="graph0" class="graph" transform="scale(1 1) rotate(0) translate(4 327.5)">
<title>nuspell::Aff_Data</title>
<polygon fill="white" stroke="transparent" points="-4,4 -4,-327.5 358,-327.5 358,4 -4,4"/>
<!-- Node1 -->
<g id="node1" class="node">
<title>Node1</title>
<g id="a_node1"><a xlink:title=" ">
<polygon fill="#bfbfbf" stroke="black" points="262,-151 262,-170 354,-170 354,-151 262,-151"/>
<text text-anchor="middle" x="308" y="-158" font-family="Helvetica,sans-Serif" font-size="10.00">nuspell::Aff_Data</text>
</a>
</g>
</g>
<!-- Node2 -->
<g id="node2" class="node">
<title>Node2</title>
<g id="a_node2"><a xlink:href="classnuspell_1_1_suffix___table.html" target="_top" xlink:title=" ">
<polygon fill="white" stroke="black" points="9.5,-304 9.5,-323 116.5,-323 116.5,-304 9.5,-304"/>
<text text-anchor="middle" x="63" y="-311" font-family="Helvetica,sans-Serif" font-size="10.00">nuspell::Suffix_Table</text>
</a>
</g>
</g>
<!-- Node2&#45;&gt;Node1 -->
<g id="edge1" class="edge">
<title>Node2&#45;&gt;Node1</title>
<path fill="none" stroke="#9a32cd" stroke-dasharray="5,2" d="M127.05,-312.55C164.25,-309.09 210.47,-299.45 244,-274.5 280.47,-247.37 298.51,-192.56 304.58,-170.27"/>
<polygon fill="#9a32cd" stroke="#9a32cd" points="126.5,-309.08 116.81,-313.37 127.06,-316.06 126.5,-309.08"/>
<text text-anchor="middle" x="194" y="-312.5" font-family="Helvetica,sans-Serif" font-size="10.00"> suffixes</text>
</g>
<!-- Node3 -->
<g id="node3" class="node">
<title>Node3</title>
<g id="a_node3"><a xlink:href="classnuspell_1_1_replacement___table.html" target="_top" xlink:title=" ">
<polygon fill="white" stroke="black" points="7.5,-254.5 7.5,-284.5 118.5,-284.5 118.5,-254.5 7.5,-254.5"/>
<text text-anchor="start" x="15.5" y="-272.5" font-family="Helvetica,sans-Serif" font-size="10.00">nuspell::Replacement</text>
<text text-anchor="middle" x="63" y="-261.5" font-family="Helvetica,sans-Serif" font-size="10.00">_Table</text>
</a>
</g>
</g>
<!-- Node3&#45;&gt;Node1 -->
<g id="edge2" class="edge">
<title>Node3&#45;&gt;Node1</title>
<path fill="none" stroke="#9a32cd" stroke-dasharray="5,2" d="M128.91,-263.11C164.71,-257.41 208.88,-246.68 244,-226.5 269,-212.14 290.29,-184.84 300.52,-170.26"/>
<polygon fill="#9a32cd" stroke="#9a32cd" points="127.94,-259.71 118.57,-264.65 128.97,-266.64 127.94,-259.71"/>
<text text-anchor="middle" x="194" y="-262.5" font-family="Helvetica,sans-Serif" font-size="10.00"> replacements</text>
</g>
<!-- Node4 -->
<g id="node4" class="node">
<title>Node4</title>
<g id="a_node4"><a xlink:href="classnuspell_1_1_break___table.html" target="_top" xlink:title=" ">
<polygon fill="white" stroke="black" points="9.5,-216 9.5,-235 116.5,-235 116.5,-216 9.5,-216"/>
<text text-anchor="middle" x="63" y="-223" font-family="Helvetica,sans-Serif" font-size="10.00">nuspell::Break_Table</text>
</a>
</g>
</g>
<!-- Node4&#45;&gt;Node1 -->
<g id="edge3" class="edge">
<title>Node4&#45;&gt;Node1</title>
<path fill="none" stroke="#9a32cd" stroke-dasharray="5,2" d="M126.83,-216.01C161.8,-209.88 205.84,-200.74 244,-188.5 259.39,-183.56 276.06,-176.05 288.39,-170.04"/>
<polygon fill="#9a32cd" stroke="#9a32cd" points="126.02,-212.6 116.75,-217.74 127.2,-219.5 126.02,-212.6"/>
<text text-anchor="middle" x="194" y="-214.5" font-family="Helvetica,sans-Serif" font-size="10.00"> break_table</text>
</g>
<!-- Node5 -->
<g id="node5" class="node">
<title>Node5</title>
<g id="a_node5"><a xlink:href="classnuspell_1_1_compound___rule___table.html" target="_top" xlink:title=" ">
<polygon fill="white" stroke="black" points="0,-166.5 0,-196.5 126,-196.5 126,-166.5 0,-166.5"/>
<text text-anchor="start" x="8" y="-184.5" font-family="Helvetica,sans-Serif" font-size="10.00">nuspell::Compound_Rule</text>
<text text-anchor="middle" x="63" y="-173.5" font-family="Helvetica,sans-Serif" font-size="10.00">_Table</text>
</a>
</g>
</g>
<!-- Node5&#45;&gt;Node1 -->
<g id="edge4" class="edge">
<title>Node5&#45;&gt;Node1</title>
<path fill="none" stroke="#9a32cd" stroke-dasharray="5,2" d="M136.4,-175.24C177.08,-171.73 226.6,-167.45 261.78,-164.41"/>
<polygon fill="#9a32cd" stroke="#9a32cd" points="135.92,-171.77 126.26,-176.12 136.53,-178.75 135.92,-171.77"/>
<text text-anchor="middle" x="194" y="-176.5" font-family="Helvetica,sans-Serif" font-size="10.00"> compound_rules</text>
</g>
<!-- Node6 -->
<g id="node6" class="node">
<title>Node6</title>
<g id="a_node6"><a xlink:href="classnuspell_1_1_encoding.html" target="_top" xlink:title=" ">
<polygon fill="white" stroke="black" points="16,-128 16,-147 110,-147 110,-128 16,-128"/>
<text text-anchor="middle" x="63" y="-135" font-family="Helvetica,sans-Serif" font-size="10.00">nuspell::Encoding</text>
</a>
</g>
</g>
<!-- Node6&#45;&gt;Node1 -->
<g id="edge5" class="edge">
<title>Node6&#45;&gt;Node1</title>
<path fill="none" stroke="#9a32cd" stroke-dasharray="5,2" d="M120.52,-140.34C156.04,-142.43 202.78,-145.75 244,-150.5 249.83,-151.17 255.95,-151.99 261.98,-152.88"/>
<polygon fill="#9a32cd" stroke="#9a32cd" points="120.53,-136.84 110.35,-139.76 120.13,-143.83 120.53,-136.84"/>
<text text-anchor="middle" x="194" y="-153.5" font-family="Helvetica,sans-Serif" font-size="10.00"> encoding</text>
</g>
<!-- Node7 -->
<g id="node7" class="node">
<title>Node7</title>
<g id="a_node7"><a xlink:href="classnuspell_1_1_prefix___table.html" target="_top" xlink:title=" ">
<polygon fill="white" stroke="black" points="9.5,-90 9.5,-109 116.5,-109 116.5,-90 9.5,-90"/>
<text text-anchor="middle" x="63" y="-97" font-family="Helvetica,sans-Serif" font-size="10.00">nuspell::Prefix_Table</text>
</a>
</g>
</g>
<!-- Node7&#45;&gt;Node1 -->
<g id="edge6" class="edge">
<title>Node7&#45;&gt;Node1</title>
<path fill="none" stroke="#9a32cd" stroke-dasharray="5,2" d="M126.84,-103.57C161.99,-107.16 206.21,-113.9 244,-126.5 261.69,-132.4 280.28,-143.06 292.64,-150.87"/>
<polygon fill="#9a32cd" stroke="#9a32cd" points="127,-100.07 116.71,-102.59 126.33,-107.03 127,-100.07"/>
<text text-anchor="middle" x="194" y="-129.5" font-family="Helvetica,sans-Serif" font-size="10.00"> prefixes</text>
</g>
<!-- Node8 -->
<g id="node8" class="node">
<title>Node8</title>
<g id="a_node8"><a xlink:href="classnuspell_1_1_substr___replacer.html" target="_top" xlink:title=" ">
<polygon fill="white" stroke="black" points="0,-50 0,-69 126,-69 126,-50 0,-50"/>
<text text-anchor="middle" x="63" y="-57" font-family="Helvetica,sans-Serif" font-size="10.00">nuspell::Substr_Replacer</text>
</a>
</g>
</g>
<!-- Node8&#45;&gt;Node1 -->
<g id="edge7" class="edge">
<title>Node8&#45;&gt;Node1</title>
<path fill="none" stroke="#9a32cd" stroke-dasharray="5,2" d="M136.42,-54.88C170.94,-55.73 211.66,-61.4 244,-79.5 273.85,-96.2 294.36,-133.41 302.75,-150.98"/>
<polygon fill="#9a32cd" stroke="#9a32cd" points="136.43,-51.38 126.39,-54.76 136.35,-58.38 136.43,-51.38"/>
<text text-anchor="middle" x="194" y="-93.5" font-family="Helvetica,sans-Serif" font-size="10.00"> input_substr_replacer</text>
<text text-anchor="middle" x="194" y="-82.5" font-family="Helvetica,sans-Serif" font-size="10.00">output_substr_replacer</text>
</g>
<!-- Node9 -->
<g id="node9" class="node">
<title>Node9</title>
<g id="a_node9"><a xlink:href="classnuspell_1_1_hash___multimap.html" target="_top" xlink:title=" ">
<polygon fill="white" stroke="black" points="1.5,-0.5 1.5,-30.5 124.5,-30.5 124.5,-0.5 1.5,-0.5"/>
<text text-anchor="start" x="9.5" y="-18.5" font-family="Helvetica,sans-Serif" font-size="10.00">nuspell::Hash_Multimap</text>
<text text-anchor="middle" x="63" y="-7.5" font-family="Helvetica,sans-Serif" font-size="10.00">&lt; std::string, Flag_Set &gt;</text>
</a>
</g>
</g>
<!-- Node9&#45;&gt;Node1 -->
<g id="edge8" class="edge">
<title>Node9&#45;&gt;Node1</title>
<path fill="none" stroke="#9a32cd" stroke-dasharray="5,2" d="M134.87,-10.2C170.5,-10.98 212.64,-17.5 244,-39.5 283.56,-67.24 300.07,-127.61 305.15,-150.98"/>
<polygon fill="#9a32cd" stroke="#9a32cd" points="134.56,-6.7 124.53,-10.13 134.51,-13.7 134.56,-6.7"/>
<text text-anchor="middle" x="194" y="-42.5" font-family="Helvetica,sans-Serif" font-size="10.00"> words</text>
</g>
</g>
</svg>
