<?xml version="1.0" encoding="UTF-8" standalone="no"?>
<!DOCTYPE svg PUBLIC "-//W3C//DTD SVG 1.1//EN"
 "http://www.w3.org/Graphics/SVG/1.1/DTD/svg11.dtd">
<!-- Generated by graphviz version 2.40.1 (20161225.0304)
 -->
<!-- Title: nuspell::Dict_Base::spell_sharps Pages: 1 -->
<svg width="242pt" height="39pt"
 viewBox="0.00 0.00 242.00 39.00" xmlns="http://www.w3.org/2000/svg" xmlns:xlink="http://www.w3.org/1999/xlink">
<g id="graph0" class="graph" transform="scale(1 1) rotate(0) translate(4 35)">
<title>nuspell::Dict_Base::spell_sharps</title>
<polygon fill="#ffffff" stroke="transparent" points="-4,4 -4,-35 238,-35 238,4 -4,4"/>
<!-- Node62 -->
<g id="node1" class="node">
<title>Node62</title>
<polygon fill="#bfbfbf" stroke="#000000" points="0,-.5 0,-30.5 99,-30.5 99,-.5 0,-.5"/>
<text text-anchor="start" x="8" y="-18.5" font-family="Helvetica,sans-Serif" font-size="10.00" fill="#000000">nuspell::Dict_Base</text>
<text text-anchor="middle" x="49.5" y="-7.5" font-family="Helvetica,sans-Serif" font-size="10.00" fill="#000000">::spell_sharps</text>
</g>
<!-- Node63 -->
<g id="node2" class="node">
<title>Node63</title>
<g id="a_node2"><a xlink:href="classnuspell_1_1_string___set.html#a37d21f20fe6b33cf9e98c7b70d76f24f" target="_top" xlink:title="nuspell::String_Set\l::find">
<polygon fill="#ffffff" stroke="#000000" points="135,-.5 135,-30.5 234,-30.5 234,-.5 135,-.5"/>
<text text-anchor="start" x="143" y="-18.5" font-family="Helvetica,sans-Serif" font-size="10.00" fill="#000000">nuspell::String_Set</text>
<text text-anchor="middle" x="184.5" y="-7.5" font-family="Helvetica,sans-Serif" font-size="10.00" fill="#000000">::find</text>
</a>
</g>
</g>
<!-- Node62&#45;&gt;Node63 -->
<g id="edge1" class="edge">
<title>Node62&#45;&gt;Node63</title>
<path fill="none" stroke="#191970" d="M99.0024,-15.5C107.2413,-15.5 115.8662,-15.5 124.3351,-15.5"/>
<polygon fill="#191970" stroke="#191970" points="124.5517,-19.0001 134.5516,-15.5 124.5516,-12.0001 124.5517,-19.0001"/>
</g>
</g>
</svg>
