<?xml version="1.0" encoding="UTF-8" standalone="no"?>
<!DOCTYPE svg PUBLIC "-//W3C//DTD SVG 1.1//EN"
 "http://www.w3.org/Graphics/SVG/1.1/DTD/svg11.dtd">
<!-- Generated by graphviz version 2.40.1 (20161225.0304)
 -->
<!-- Title: nuspell::Dict_Base::strip_s_p_s_3 Pages: 1 -->
<svg width="246pt" height="39pt"
 viewBox="0.00 0.00 246.00 39.00" xmlns="http://www.w3.org/2000/svg" xmlns:xlink="http://www.w3.org/1999/xlink">
<g id="graph0" class="graph" transform="scale(1 1) rotate(0) translate(4 35)">
<title>nuspell::Dict_Base::strip_s_p_s_3</title>
<polygon fill="#ffffff" stroke="transparent" points="-4,4 -4,-35 242,-35 242,4 -4,4"/>
<!-- Node91 -->
<g id="node1" class="node">
<title>Node91</title>
<polygon fill="#bfbfbf" stroke="#000000" points="0,-.5 0,-30.5 99,-30.5 99,-.5 0,-.5"/>
<text text-anchor="start" x="8" y="-18.5" font-family="Helvetica,sans-Serif" font-size="10.00" fill="#000000">nuspell::Dict_Base</text>
<text text-anchor="middle" x="49.5" y="-7.5" font-family="Helvetica,sans-Serif" font-size="10.00" fill="#000000">::strip_s_p_s_3</text>
</g>
<!-- Node92 -->
<g id="node2" class="node">
<title>Node92</title>
<g id="a_node2"><a xlink:href="namespacenuspell.html#a8529ccc887c031a3c1340c607eaac017" target="_top" xlink:title="nuspell::cross_valid\l_inner_outer">
<polygon fill="#ffffff" stroke="#000000" points="135,-.5 135,-30.5 238,-30.5 238,-.5 135,-.5"/>
<text text-anchor="start" x="143" y="-18.5" font-family="Helvetica,sans-Serif" font-size="10.00" fill="#000000">nuspell::cross_valid</text>
<text text-anchor="middle" x="186.5" y="-7.5" font-family="Helvetica,sans-Serif" font-size="10.00" fill="#000000">_inner_outer</text>
</a>
</g>
</g>
<!-- Node91&#45;&gt;Node92 -->
<g id="edge1" class="edge">
<title>Node91&#45;&gt;Node92</title>
<path fill="none" stroke="#191970" d="M99.3477,-15.5C107.5065,-15.5 116.0474,-15.5 124.4573,-15.5"/>
<polygon fill="#191970" stroke="#191970" points="124.6162,-19.0001 134.6161,-15.5 124.6161,-12.0001 124.6162,-19.0001"/>
</g>
</g>
</svg>
