<?xml version="1.0" encoding="UTF-8" standalone="no"?>
<!DOCTYPE svg PUBLIC "-//W3C//DTD SVG 1.1//EN"
 "http://www.w3.org/Graphics/SVG/1.1/DTD/svg11.dtd">
<!-- Generated by graphviz version 2.40.1 (20161225.0304)
 -->
<!-- Title: nuspell::Globber::copy_glob_paths Pages: 1 -->
<svg width="471pt" height="137pt"
 viewBox="0.00 0.00 471.00 137.00" xmlns="http://www.w3.org/2000/svg" xmlns:xlink="http://www.w3.org/1999/xlink">
<g id="graph0" class="graph" transform="scale(1 1) rotate(0) translate(4 133)">
<title>nuspell::Globber::copy_glob_paths</title>
<polygon fill="#ffffff" stroke="transparent" points="-4,4 -4,-133 467,-133 467,4 -4,4"/>
<!-- Node7 -->
<g id="node1" class="node">
<title>Node7</title>
<polygon fill="#bfbfbf" stroke="#000000" points="0,-49.5 0,-79.5 114,-79.5 114,-49.5 0,-49.5"/>
<text text-anchor="start" x="8" y="-67.5" font-family="Helvetica,sans-Serif" font-size="10.00" fill="#000000">nuspell::Globber::copy</text>
<text text-anchor="middle" x="57" y="-56.5" font-family="Helvetica,sans-Serif" font-size="10.00" fill="#000000">_glob_paths</text>
</g>
<!-- Node8 -->
<g id="node2" class="node">
<title>Node8</title>
<g id="a_node2"><a xlink:href="namespacenuspell.html#ae0600d47d2f5dd17332137e3254d9642" target="_top" xlink:title="Gets the Mozilla search paths. ">
<polygon fill="#ffffff" stroke="#000000" points="173,-98.5 173,-128.5 276,-128.5 276,-98.5 173,-98.5"/>
<text text-anchor="start" x="181" y="-116.5" font-family="Helvetica,sans-Serif" font-size="10.00" fill="#000000">nuspell::get_mozilla</text>
<text text-anchor="middle" x="224.5" y="-105.5" font-family="Helvetica,sans-Serif" font-size="10.00" fill="#000000">_paths</text>
</a>
</g>
</g>
<!-- Node7&#45;&gt;Node8 -->
<g id="edge1" class="edge">
<title>Node7&#45;&gt;Node8</title>
<path fill="none" stroke="#191970" d="M118.4177,-82.467C136.3644,-87.717 155.7871,-93.3989 173.0482,-98.4484"/>
<polygon fill="#191970" stroke="#191970" points="119.2027,-79.05 108.6223,-79.6014 117.2373,-85.7684 119.2027,-79.05"/>
</g>
<!-- Node10 -->
<g id="node4" class="node">
<title>Node10</title>
<g id="a_node4"><a xlink:href="namespacenuspell.html#a18da8631cb0b014f0f918cf444946921" target="_top" xlink:title="Gets the LibreOffice search paths. ">
<polygon fill="#ffffff" stroke="#000000" points="167.5,-49.5 167.5,-79.5 281.5,-79.5 281.5,-49.5 167.5,-49.5"/>
<text text-anchor="start" x="175.5" y="-67.5" font-family="Helvetica,sans-Serif" font-size="10.00" fill="#000000">nuspell::get_libreoffice</text>
<text text-anchor="middle" x="224.5" y="-56.5" font-family="Helvetica,sans-Serif" font-size="10.00" fill="#000000">_paths</text>
</a>
</g>
</g>
<!-- Node7&#45;&gt;Node10 -->
<g id="edge3" class="edge">
<title>Node7&#45;&gt;Node10</title>
<path fill="none" stroke="#191970" d="M124.3918,-64.5C138.615,-64.5 153.4931,-64.5 167.298,-64.5"/>
<polygon fill="#191970" stroke="#191970" points="124.1756,-61.0001 114.1755,-64.5 124.1755,-68.0001 124.1756,-61.0001"/>
</g>
<!-- Node12 -->
<g id="node6" class="node">
<title>Node12</title>
<g id="a_node6"><a xlink:href="namespacenuspell.html#a2dacde753f0b71fe8bea9b1fc394e517" target="_top" xlink:title="Gets the Apache OpenOffice search paths. ">
<polygon fill="#ffffff" stroke="#000000" points="150,-.5 150,-30.5 299,-30.5 299,-.5 150,-.5"/>
<text text-anchor="start" x="158" y="-18.5" font-family="Helvetica,sans-Serif" font-size="10.00" fill="#000000">nuspell::get_apacheopenoffice</text>
<text text-anchor="middle" x="224.5" y="-7.5" font-family="Helvetica,sans-Serif" font-size="10.00" fill="#000000">_paths</text>
</a>
</g>
</g>
<!-- Node7&#45;&gt;Node12 -->
<g id="edge5" class="edge">
<title>Node7&#45;&gt;Node12</title>
<path fill="none" stroke="#191970" d="M118.4177,-46.533C136.3644,-41.283 155.7871,-35.6011 173.0482,-30.5516"/>
<polygon fill="#191970" stroke="#191970" points="117.2373,-43.2316 108.6223,-49.3986 119.2027,-49.95 117.2373,-43.2316"/>
</g>
<!-- Node9 -->
<g id="node3" class="node">
<title>Node9</title>
<g id="a_node3"><a xlink:href="classnuspell_1_1_finder.html#aca1f5cdb73cddef92aff522c83314c83" target="_top" xlink:title="Adds the Mozilla search paths which have been found to the paths. ">
<polygon fill="#ffffff" stroke="#000000" points="348,-98.5 348,-128.5 450,-128.5 450,-98.5 348,-98.5"/>
<text text-anchor="start" x="356" y="-116.5" font-family="Helvetica,sans-Serif" font-size="10.00" fill="#000000">nuspell::Finder::add</text>
<text text-anchor="middle" x="399" y="-105.5" font-family="Helvetica,sans-Serif" font-size="10.00" fill="#000000">_mozilla_paths</text>
</a>
</g>
</g>
<!-- Node8&#45;&gt;Node9 -->
<g id="edge2" class="edge">
<title>Node8&#45;&gt;Node9</title>
<path fill="none" stroke="#191970" d="M286.4001,-113.5C306.5424,-113.5 328.6586,-113.5 347.9179,-113.5"/>
<polygon fill="#191970" stroke="#191970" points="286.3833,-110.0001 276.3833,-113.5 286.3833,-117.0001 286.3833,-110.0001"/>
</g>
<!-- Node11 -->
<g id="node5" class="node">
<title>Node11</title>
<g id="a_node5"><a xlink:href="classnuspell_1_1_finder.html#abf175ec83ef09d127e9203dc2a9bbdb0" target="_top" xlink:title="Adds the LibreOffice search paths which have been found to the paths. ">
<polygon fill="#ffffff" stroke="#000000" points="348,-49.5 348,-79.5 450,-79.5 450,-49.5 348,-49.5"/>
<text text-anchor="start" x="356" y="-67.5" font-family="Helvetica,sans-Serif" font-size="10.00" fill="#000000">nuspell::Finder::add</text>
<text text-anchor="middle" x="399" y="-56.5" font-family="Helvetica,sans-Serif" font-size="10.00" fill="#000000">_libreoffice_paths</text>
</a>
</g>
</g>
<!-- Node10&#45;&gt;Node11 -->
<g id="edge4" class="edge">
<title>Node10&#45;&gt;Node11</title>
<path fill="none" stroke="#191970" d="M291.8333,-64.5C310.4638,-64.5 330.3742,-64.5 347.9151,-64.5"/>
<polygon fill="#191970" stroke="#191970" points="291.6379,-61.0001 281.6378,-64.5 291.6378,-68.0001 291.6379,-61.0001"/>
</g>
<!-- Node13 -->
<g id="node7" class="node">
<title>Node13</title>
<g id="a_node7"><a xlink:href="classnuspell_1_1_finder.html#a5b3919b143e570a42fce848ba3a95b82" target="_top" xlink:title="Adds the Apache OpenOffice search paths which have been found to the paths. ">
<polygon fill="#ffffff" stroke="#000000" points="335,-.5 335,-30.5 463,-30.5 463,-.5 335,-.5"/>
<text text-anchor="start" x="343" y="-18.5" font-family="Helvetica,sans-Serif" font-size="10.00" fill="#000000">nuspell::Finder::add</text>
<text text-anchor="middle" x="399" y="-7.5" font-family="Helvetica,sans-Serif" font-size="10.00" fill="#000000">_apacheopenoffice_paths</text>
</a>
</g>
</g>
<!-- Node12&#45;&gt;Node13 -->
<g id="edge6" class="edge">
<title>Node12&#45;&gt;Node13</title>
<path fill="none" stroke="#191970" d="M309.1493,-15.5C317.8175,-15.5 326.5199,-15.5 334.914,-15.5"/>
<polygon fill="#191970" stroke="#191970" points="309.0099,-12.0001 299.0099,-15.5 309.0098,-19.0001 309.0099,-12.0001"/>
</g>
</g>
</svg>
