<?xml version="1.0" encoding="UTF-8" standalone="no"?>
<!DOCTYPE svg PUBLIC "-//W3C//DTD SVG 1.1//EN"
 "http://www.w3.org/Graphics/SVG/1.1/DTD/svg11.dtd">
<!-- Generated by graphviz version 2.43.0 (0)
 -->
<!-- Title: nuspell::Aff_Data Pages: 1 -->
<svg width="106pt" height="196pt"
 viewBox="0.00 0.00 106.00 196.00" xmlns="http://www.w3.org/2000/svg" xmlns:xlink="http://www.w3.org/1999/xlink">
<g id="graph0" class="graph" transform="scale(1 1) rotate(0) translate(4 192)">
<title>nuspell::Aff_Data</title>
<polygon fill="white" stroke="transparent" points="-4,4 -4,-192 102,-192 102,4 -4,4"/>
<!-- Node1 -->
<g id="node1" class="node">
<title>Node1</title>
<g id="a_node1"><a xlink:title=" ">
<polygon fill="#bfbfbf" stroke="black" points="3,-168.5 3,-187.5 95,-187.5 95,-168.5 3,-168.5"/>
<text text-anchor="middle" x="49" y="-175.5" font-family="Helvetica,sans-Serif" font-size="10.00">nuspell::Aff_Data</text>
</a>
</g>
</g>
<!-- Node2 -->
<g id="node2" class="node">
<title>Node2</title>
<g id="a_node2"><a xlink:href="structnuspell_1_1_checker.html" target="_top" xlink:title=" ">
<polygon fill="white" stroke="black" points="4,-112.5 4,-131.5 94,-131.5 94,-112.5 4,-112.5"/>
<text text-anchor="middle" x="49" y="-119.5" font-family="Helvetica,sans-Serif" font-size="10.00">nuspell::Checker</text>
</a>
</g>
</g>
<!-- Node1&#45;&gt;Node2 -->
<g id="edge1" class="edge">
<title>Node1&#45;&gt;Node2</title>
<path fill="none" stroke="midnightblue" d="M49,-157.8C49,-148.91 49,-138.78 49,-131.75"/>
<polygon fill="midnightblue" stroke="midnightblue" points="45.5,-158.08 49,-168.08 52.5,-158.08 45.5,-158.08"/>
</g>
<!-- Node3 -->
<g id="node3" class="node">
<title>Node3</title>
<g id="a_node3"><a xlink:href="structnuspell_1_1_suggester.html" target="_top" xlink:title=" ">
<polygon fill="white" stroke="black" points="0,-56.5 0,-75.5 98,-75.5 98,-56.5 0,-56.5"/>
<text text-anchor="middle" x="49" y="-63.5" font-family="Helvetica,sans-Serif" font-size="10.00">nuspell::Suggester</text>
</a>
</g>
</g>
<!-- Node2&#45;&gt;Node3 -->
<g id="edge2" class="edge">
<title>Node2&#45;&gt;Node3</title>
<path fill="none" stroke="midnightblue" d="M49,-101.8C49,-92.91 49,-82.78 49,-75.75"/>
<polygon fill="midnightblue" stroke="midnightblue" points="45.5,-102.08 49,-112.08 52.5,-102.08 45.5,-102.08"/>
</g>
<!-- Node4 -->
<g id="node4" class="node">
<title>Node4</title>
<g id="a_node4"><a xlink:href="classnuspell_1_1_dictionary.html" target="_top" xlink:title="The only important public class.">
<polygon fill="white" stroke="black" points="0,-0.5 0,-19.5 98,-19.5 98,-0.5 0,-0.5"/>
<text text-anchor="middle" x="49" y="-7.5" font-family="Helvetica,sans-Serif" font-size="10.00">nuspell::Dictionary</text>
</a>
</g>
</g>
<!-- Node3&#45;&gt;Node4 -->
<g id="edge3" class="edge">
<title>Node3&#45;&gt;Node4</title>
<path fill="none" stroke="#8b1a1a" d="M49,-45.8C49,-36.91 49,-26.78 49,-19.75"/>
<polygon fill="#8b1a1a" stroke="#8b1a1a" points="45.5,-46.08 49,-56.08 52.5,-46.08 45.5,-46.08"/>
</g>
</g>
</svg>
