<?xml version="1.0" encoding="UTF-8" standalone="no"?>
<!DOCTYPE svg PUBLIC "-//W3C//DTD SVG 1.1//EN"
 "http://www.w3.org/Graphics/SVG/1.1/DTD/svg11.dtd">
<!-- Generated by graphviz version 2.40.1 (20161225.0304)
 -->
<!-- Title: src/nuspell/structures.hxx Pages: 1 -->
<svg width="1068pt" height="162pt"
 viewBox="0.00 0.00 1067.50 162.00" xmlns="http://www.w3.org/2000/svg" xmlns:xlink="http://www.w3.org/1999/xlink">
<g id="graph0" class="graph" transform="scale(1 1) rotate(0) translate(4 158)">
<title>src/nuspell/structures.hxx</title>
<polygon fill="#ffffff" stroke="transparent" points="-4,4 -4,-158 1063.5,-158 1063.5,4 -4,4"/>
<!-- Node0 -->
<g id="node1" class="node">
<title>Node0</title>
<polygon fill="#bfbfbf" stroke="#000000" points="400.5,-134.5 400.5,-153.5 529.5,-153.5 529.5,-134.5 400.5,-134.5"/>
<text text-anchor="middle" x="465" y="-141.5" font-family="Helvetica,sans-Serif" font-size="10.00" fill="#000000">src/nuspell/structures.hxx</text>
</g>
<!-- Node1 -->
<g id="node2" class="node">
<title>Node1</title>
<g id="a_node2"><a xlink:href="string__utils_8hxx.html" target="_top" xlink:title="String algorithms, private header. ">
<polygon fill="#ffffff" stroke="#000000" points="230.5,-73 230.5,-92 313.5,-92 313.5,-73 230.5,-73"/>
<text text-anchor="middle" x="272" y="-80" font-family="Helvetica,sans-Serif" font-size="10.00" fill="#000000">string_utils.hxx</text>
</a>
</g>
</g>
<!-- Node0&#45;&gt;Node1 -->
<g id="edge1" class="edge">
<title>Node0&#45;&gt;Node1</title>
<path fill="none" stroke="#191970" d="M434.8438,-134.3906C401.7015,-123.8298 348.3238,-106.8208 311.7758,-95.1747"/>
<polygon fill="#191970" stroke="#191970" points="312.5351,-91.7433 301.9445,-92.0419 310.4098,-98.4129 312.5351,-91.7433"/>
</g>
<!-- Node2 -->
<g id="node3" class="node">
<title>Node2</title>
<polygon fill="#ffffff" stroke="#bfbfbf" points="0,-6 0,-25 56,-25 56,-6 0,-6"/>
<text text-anchor="middle" x="28" y="-13" font-family="Helvetica,sans-Serif" font-size="10.00" fill="#000000">algorithm</text>
</g>
<!-- Node0&#45;&gt;Node2 -->
<g id="edge10" class="edge">
<title>Node0&#45;&gt;Node2</title>
<path fill="none" stroke="#191970" d="M400.2145,-137.1085C325.1103,-128.5935 206.2335,-113.3428 164,-98 119.6527,-81.8893 73.9223,-50.5354 48.4085,-31.4613"/>
<polygon fill="#191970" stroke="#191970" points="50.3423,-28.5349 40.2625,-25.2718 46.1073,-34.1086 50.3423,-28.5349"/>
</g>
<!-- Node3 -->
<g id="node4" class="node">
<title>Node3</title>
<polygon fill="#ffffff" stroke="#bfbfbf" points="74.5,-6 74.5,-25 121.5,-25 121.5,-6 74.5,-6"/>
<text text-anchor="middle" x="98" y="-13" font-family="Helvetica,sans-Serif" font-size="10.00" fill="#000000">iterator</text>
</g>
<!-- Node0&#45;&gt;Node3 -->
<g id="edge12" class="edge">
<title>Node0&#45;&gt;Node3</title>
<path fill="none" stroke="#191970" d="M400.3075,-138.9696C349.9293,-133.3738 279.0453,-121.7631 221,-98 180.6985,-81.501 139.8871,-50.7239 116.8797,-31.7821"/>
<polygon fill="#191970" stroke="#191970" points="118.8848,-28.8959 108.9718,-25.1564 114.3891,-34.2615 118.8848,-28.8959"/>
</g>
<!-- Node6 -->
<g id="node7" class="node">
<title>Node6</title>
<polygon fill="#ffffff" stroke="#bfbfbf" points="518.5,-6 518.5,-25 559.5,-25 559.5,-6 518.5,-6"/>
<text text-anchor="middle" x="539" y="-13" font-family="Helvetica,sans-Serif" font-size="10.00" fill="#000000">string</text>
</g>
<!-- Node0&#45;&gt;Node6 -->
<g id="edge14" class="edge">
<title>Node0&#45;&gt;Node6</title>
<path fill="none" stroke="#191970" d="M419.4264,-134.49C399.4454,-127.8122 377.876,-116.6135 366,-98 358.5893,-86.385 357.5299,-77.8667 366,-67 406.2908,-15.309 447.7033,-54.1953 509,-31 510.2337,-30.5332 511.4822,-30.0287 512.7335,-29.4967"/>
<polygon fill="#191970" stroke="#191970" points="514.6205,-32.4769 522.1778,-25.0514 511.6394,-26.1434 514.6205,-32.4769"/>
</g>
<!-- Node7 -->
<g id="node8" class="node">
<title>Node7</title>
<polygon fill="#ffffff" stroke="#bfbfbf" points="578,-6 578,-25 622,-25 622,-6 578,-6"/>
<text text-anchor="middle" x="600" y="-13" font-family="Helvetica,sans-Serif" font-size="10.00" fill="#000000">vector</text>
</g>
<!-- Node0&#45;&gt;Node7 -->
<g id="edge17" class="edge">
<title>Node0&#45;&gt;Node7</title>
<path fill="none" stroke="#191970" d="M441.2141,-134.4178C426.1331,-126.9442 407.8538,-114.9629 399,-98 392.6248,-85.7859 390.3253,-77.7041 399,-67 447.6258,-6.9986 496.0918,-56.4761 569,-31 570.4201,-30.5038 571.8585,-29.9567 573.298,-29.3733"/>
<polygon fill="#191970" stroke="#191970" points="574.963,-32.4617 582.6336,-25.1534 572.0797,-26.0831 574.963,-32.4617"/>
</g>
<!-- Node10 -->
<g id="node11" class="node">
<title>Node10</title>
<polygon fill="#ffffff" stroke="#bfbfbf" points="408,-73 408,-92 452,-92 452,-73 408,-73"/>
<text text-anchor="middle" x="430" y="-80" font-family="Helvetica,sans-Serif" font-size="10.00" fill="#000000">cmath</text>
</g>
<!-- Node0&#45;&gt;Node10 -->
<g id="edge11" class="edge">
<title>Node0&#45;&gt;Node10</title>
<path fill="none" stroke="#191970" d="M459.5313,-134.3906C454.4754,-125.5068 446.8228,-112.0601 440.5746,-101.0811"/>
<polygon fill="#191970" stroke="#191970" points="443.534,-99.2048 435.5459,-92.2449 437.4502,-102.6672 443.534,-99.2048"/>
</g>
<!-- Node11 -->
<g id="node12" class="node">
<title>Node11</title>
<polygon fill="#ffffff" stroke="#bfbfbf" points="470.5,-73 470.5,-92 529.5,-92 529.5,-73 470.5,-73"/>
<text text-anchor="middle" x="500" y="-80" font-family="Helvetica,sans-Serif" font-size="10.00" fill="#000000">stdexcept</text>
</g>
<!-- Node0&#45;&gt;Node11 -->
<g id="edge13" class="edge">
<title>Node0&#45;&gt;Node11</title>
<path fill="none" stroke="#191970" d="M470.4688,-134.3906C475.5246,-125.5068 483.1772,-112.0601 489.4254,-101.0811"/>
<polygon fill="#191970" stroke="#191970" points="492.5498,-102.6672 494.4541,-92.2449 486.466,-99.2048 492.5498,-102.6672"/>
</g>
<!-- Node12 -->
<g id="node13" class="node">
<title>Node12</title>
<polygon fill="#ffffff" stroke="#bfbfbf" points="548,-73 548,-92 586,-92 586,-73 548,-73"/>
<text text-anchor="middle" x="567" y="-80" font-family="Helvetica,sans-Serif" font-size="10.00" fill="#000000">tuple</text>
</g>
<!-- Node0&#45;&gt;Node12 -->
<g id="edge15" class="edge">
<title>Node0&#45;&gt;Node12</title>
<path fill="none" stroke="#191970" d="M480.9375,-134.3906C497.4051,-124.4616 523.3258,-108.833 542.4204,-97.3201"/>
<polygon fill="#191970" stroke="#191970" points="544.4178,-100.2027 551.1744,-92.0419 540.8034,-94.2081 544.4178,-100.2027"/>
</g>
<!-- Node13 -->
<g id="node14" class="node">
<title>Node13</title>
<polygon fill="#ffffff" stroke="#bfbfbf" points="604,-73 604,-92 644,-92 644,-73 604,-73"/>
<text text-anchor="middle" x="624" y="-80" font-family="Helvetica,sans-Serif" font-size="10.00" fill="#000000">utility</text>
</g>
<!-- Node0&#45;&gt;Node13 -->
<g id="edge16" class="edge">
<title>Node0&#45;&gt;Node13</title>
<path fill="none" stroke="#191970" d="M495.9766,-134.4965C522.6392,-125.9735 561.925,-112.5912 595,-98 595.9924,-97.5622 596.9972,-97.104 598.0072,-96.6309"/>
<polygon fill="#191970" stroke="#191970" points="599.6586,-99.7183 607.0376,-92.1156 596.528,-93.4573 599.6586,-99.7183"/>
</g>
<!-- Node14 -->
<g id="node15" class="node">
<title>Node14</title>
<polygon fill="#ffffff" stroke="#bfbfbf" points="662,-67.5 662,-97.5 772,-97.5 772,-67.5 662,-67.5"/>
<text text-anchor="start" x="670" y="-85.5" font-family="Helvetica,sans-Serif" font-size="10.00" fill="#000000">boost/container/small</text>
<text text-anchor="middle" x="717" y="-74.5" font-family="Helvetica,sans-Serif" font-size="10.00" fill="#000000">_vector.hpp</text>
</g>
<!-- Node0&#45;&gt;Node14 -->
<g id="edge18" class="edge">
<title>Node0&#45;&gt;Node14</title>
<path fill="none" stroke="#191970" d="M504.0985,-134.4581C543.5927,-124.8196 605.2962,-109.7611 652.1291,-98.3316"/>
<polygon fill="#191970" stroke="#191970" points="652.9987,-101.7222 661.8837,-95.951 651.339,-94.9218 652.9987,-101.7222"/>
</g>
<!-- Node15 -->
<g id="node16" class="node">
<title>Node15</title>
<polygon fill="#ffffff" stroke="#bfbfbf" points="790,-73 790,-92 940,-92 940,-73 790,-73"/>
<text text-anchor="middle" x="865" y="-80" font-family="Helvetica,sans-Serif" font-size="10.00" fill="#000000">boost/multi_index/member.hpp</text>
</g>
<!-- Node0&#45;&gt;Node15 -->
<g id="edge19" class="edge">
<title>Node0&#45;&gt;Node15</title>
<path fill="none" stroke="#191970" d="M529.5656,-135.3311C593.5087,-126.574 694.164,-112.3267 781,-98 788.7159,-96.727 796.8174,-95.3207 804.8182,-93.8901"/>
<polygon fill="#191970" stroke="#191970" points="805.6448,-97.2975 814.862,-92.0732 804.3987,-90.4093 805.6448,-97.2975"/>
</g>
<!-- Node16 -->
<g id="node17" class="node">
<title>Node16</title>
<polygon fill="#ffffff" stroke="#bfbfbf" points="958.5,-67.5 958.5,-97.5 1059.5,-97.5 1059.5,-67.5 958.5,-67.5"/>
<text text-anchor="start" x="966.5" y="-85.5" font-family="Helvetica,sans-Serif" font-size="10.00" fill="#000000">boost/range/iterator</text>
<text text-anchor="middle" x="1009" y="-74.5" font-family="Helvetica,sans-Serif" font-size="10.00" fill="#000000">_range_core.hpp</text>
</g>
<!-- Node0&#45;&gt;Node16 -->
<g id="edge20" class="edge">
<title>Node0&#45;&gt;Node16</title>
<path fill="none" stroke="#191970" d="M529.6321,-141.109C620.8467,-136.3104 792.607,-124.64 948.1624,-97.9553"/>
<polygon fill="#191970" stroke="#191970" points="949.1326,-101.3391 958.3841,-96.1758 947.9319,-94.4429 949.1326,-101.3391"/>
</g>
<!-- Node1&#45;&gt;Node2 -->
<g id="edge2" class="edge">
<title>Node1&#45;&gt;Node2</title>
<path fill="none" stroke="#191970" d="M230.2301,-74.0749C188.0392,-65.108 121.2398,-49.6544 65,-31 62.9053,-30.3052 60.7624,-29.545 58.6151,-28.7461"/>
<polygon fill="#191970" stroke="#191970" points="59.8972,-25.4894 49.3103,-25.0796 57.3309,-32.002 59.8972,-25.4894"/>
</g>
<!-- Node1&#45;&gt;Node3 -->
<g id="edge3" class="edge">
<title>Node1&#45;&gt;Node3</title>
<path fill="none" stroke="#191970" d="M243.6256,-72.9687C214.9472,-63.1413 169.4922,-47.0322 131,-31 129.6488,-30.4372 128.2724,-29.8496 126.8864,-29.2463"/>
<polygon fill="#191970" stroke="#191970" points="128.3204,-26.0536 117.7656,-25.1326 125.4424,-32.4346 128.3204,-26.0536"/>
</g>
<!-- Node4 -->
<g id="node5" class="node">
<title>Node4</title>
<polygon fill="#ffffff" stroke="#bfbfbf" points="140,-6 140,-25 182,-25 182,-6 140,-6"/>
<text text-anchor="middle" x="161" y="-13" font-family="Helvetica,sans-Serif" font-size="10.00" fill="#000000">locale</text>
</g>
<!-- Node1&#45;&gt;Node4 -->
<g id="edge4" class="edge">
<title>Node1&#45;&gt;Node4</title>
<path fill="none" stroke="#191970" d="M256.0964,-72.9005C237.633,-61.7559 206.9701,-43.2477 185.4668,-30.2682"/>
<polygon fill="#191970" stroke="#191970" points="187.2441,-27.2529 176.8741,-25.0817 183.6267,-33.2458 187.2441,-27.2529"/>
</g>
<!-- Node5 -->
<g id="node6" class="node">
<title>Node5</title>
<polygon fill="#ffffff" stroke="#bfbfbf" points="200.5,-6 200.5,-25 241.5,-25 241.5,-6 200.5,-6"/>
<text text-anchor="middle" x="221" y="-13" font-family="Helvetica,sans-Serif" font-size="10.00" fill="#000000">stack</text>
</g>
<!-- Node1&#45;&gt;Node5 -->
<g id="edge5" class="edge">
<title>Node1&#45;&gt;Node5</title>
<path fill="none" stroke="#191970" d="M264.6929,-72.9005C256.8157,-62.552 244.1054,-45.8542 234.4194,-33.1295"/>
<polygon fill="#191970" stroke="#191970" points="237.1354,-30.9188 228.2935,-25.0817 231.5654,-35.1586 237.1354,-30.9188"/>
</g>
<!-- Node1&#45;&gt;Node6 -->
<g id="edge6" class="edge">
<title>Node1&#45;&gt;Node6</title>
<path fill="none" stroke="#191970" d="M304.7643,-72.9958C312.3652,-70.9123 320.4426,-68.7949 328,-67 407.8004,-48.0474 431.5829,-58.0906 509,-31 510.4179,-30.5038 511.8526,-29.9517 513.2864,-29.3597"/>
<polygon fill="#191970" stroke="#191970" points="514.9618,-32.4405 522.5507,-25.0473 512.0077,-26.0944 514.9618,-32.4405"/>
</g>
<!-- Node1&#45;&gt;Node7 -->
<g id="edge7" class="edge">
<title>Node1&#45;&gt;Node7</title>
<path fill="none" stroke="#191970" d="M313.702,-75.5985C392.5995,-62.4954 556.9445,-34.9639 569,-31 570.6112,-30.4702 572.2435,-29.8692 573.8726,-29.219"/>
<polygon fill="#191970" stroke="#191970" points="575.3172,-32.4071 583.0004,-25.1119 572.4448,-26.0235 575.3172,-32.4071"/>
</g>
<!-- Node8 -->
<g id="node9" class="node">
<title>Node8</title>
<polygon fill="#ffffff" stroke="#bfbfbf" points="260,-6 260,-25 388,-25 388,-6 260,-6"/>
<text text-anchor="middle" x="324" y="-13" font-family="Helvetica,sans-Serif" font-size="10.00" fill="#000000">boost/functional/hash.hpp</text>
</g>
<!-- Node1&#45;&gt;Node8 -->
<g id="edge8" class="edge">
<title>Node1&#45;&gt;Node8</title>
<path fill="none" stroke="#191970" d="M279.4503,-72.9005C287.4821,-62.552 300.4415,-45.8542 310.3174,-33.1295"/>
<polygon fill="#191970" stroke="#191970" points="313.1972,-35.1275 316.5635,-25.0817 307.6672,-30.8356 313.1972,-35.1275"/>
</g>
<!-- Node9 -->
<g id="node10" class="node">
<title>Node9</title>
<polygon fill="#ffffff" stroke="#bfbfbf" points="406,-.5 406,-30.5 500,-30.5 500,-.5 406,-.5"/>
<text text-anchor="start" x="414" y="-18.5" font-family="Helvetica,sans-Serif" font-size="10.00" fill="#000000">boost/utility/string</text>
<text text-anchor="middle" x="453" y="-7.5" font-family="Helvetica,sans-Serif" font-size="10.00" fill="#000000">_view.hpp</text>
</g>
<!-- Node1&#45;&gt;Node9 -->
<g id="edge9" class="edge">
<title>Node1&#45;&gt;Node9</title>
<path fill="none" stroke="#191970" d="M297.9329,-72.9005C325.1571,-62.8231 368.6468,-46.7247 402.651,-34.1375"/>
<polygon fill="#191970" stroke="#191970" points="404.2557,-37.2756 412.4188,-30.5218 401.8257,-30.7109 404.2557,-37.2756"/>
</g>
</g>
</svg>
