<?xml version="1.0" encoding="UTF-8" standalone="no"?>
<!DOCTYPE svg PUBLIC "-//W3C//DTD SVG 1.1//EN"
 "http://www.w3.org/Graphics/SVG/1.1/DTD/svg11.dtd">
<!-- Generated by graphviz version 2.40.1 (20161225.0304)
 -->
<!-- Title: nuspell::Dict_Base::check_compound_classic Pages: 1 -->
<svg width="464pt" height="39pt"
 viewBox="0.00 0.00 464.00 39.00" xmlns="http://www.w3.org/2000/svg" xmlns:xlink="http://www.w3.org/1999/xlink">
<g id="graph0" class="graph" transform="scale(1 1) rotate(0) translate(4 35)">
<title>nuspell::Dict_Base::check_compound_classic</title>
<polygon fill="#ffffff" stroke="transparent" points="-4,4 -4,-35 460,-35 460,4 -4,4"/>
<!-- Node9 -->
<g id="node1" class="node">
<title>Node9</title>
<polygon fill="#bfbfbf" stroke="#000000" points="0,-.5 0,-30.5 135,-30.5 135,-.5 0,-.5"/>
<text text-anchor="start" x="8" y="-18.5" font-family="Helvetica,sans-Serif" font-size="10.00" fill="#000000">nuspell::Dict_Base</text>
<text text-anchor="middle" x="67.5" y="-7.5" font-family="Helvetica,sans-Serif" font-size="10.00" fill="#000000">::check_compound_classic</text>
</g>
<!-- Node10 -->
<g id="node2" class="node">
<title>Node10</title>
<g id="a_node2"><a xlink:href="namespacenuspell.html#aad7267f28a0ac5af1ca9885952c640ba" target="_top" xlink:title="nuspell::is_compound\l_forbidden_by_patterns">
<polygon fill="#ffffff" stroke="#000000" points="171,-.5 171,-30.5 289,-30.5 289,-.5 171,-.5"/>
<text text-anchor="start" x="179" y="-18.5" font-family="Helvetica,sans-Serif" font-size="10.00" fill="#000000">nuspell::is_compound</text>
<text text-anchor="middle" x="230" y="-7.5" font-family="Helvetica,sans-Serif" font-size="10.00" fill="#000000">_forbidden_by_patterns</text>
</a>
</g>
</g>
<!-- Node9&#45;&gt;Node10 -->
<g id="edge1" class="edge">
<title>Node9&#45;&gt;Node10</title>
<path fill="none" stroke="#191970" d="M135.0029,-15.5C143.4961,-15.5 152.1957,-15.5 160.7158,-15.5"/>
<polygon fill="#191970" stroke="#191970" points="160.9936,-19.0001 170.9936,-15.5 160.9935,-12.0001 160.9936,-19.0001"/>
</g>
<!-- Node11 -->
<g id="node3" class="node">
<title>Node11</title>
<g id="a_node3"><a xlink:href="namespacenuspell.html#a4619a7ee13ec84fb4c3a717925edbdef" target="_top" xlink:title="nuspell::match_compound\l_pattern">
<polygon fill="#ffffff" stroke="#000000" points="325,-.5 325,-30.5 456,-30.5 456,-.5 325,-.5"/>
<text text-anchor="start" x="333" y="-18.5" font-family="Helvetica,sans-Serif" font-size="10.00" fill="#000000">nuspell::match_compound</text>
<text text-anchor="middle" x="390.5" y="-7.5" font-family="Helvetica,sans-Serif" font-size="10.00" fill="#000000">_pattern</text>
</a>
</g>
</g>
<!-- Node10&#45;&gt;Node11 -->
<g id="edge2" class="edge">
<title>Node10&#45;&gt;Node11</title>
<path fill="none" stroke="#191970" d="M289.3083,-15.5C297.652,-15.5 306.3205,-15.5 314.9174,-15.5"/>
<polygon fill="#191970" stroke="#191970" points="314.9527,-19.0001 324.9526,-15.5 314.9526,-12.0001 314.9527,-19.0001"/>
</g>
</g>
</svg>
