<?xml version="1.0" encoding="UTF-8" standalone="no"?>
<!DOCTYPE svg PUBLIC "-//W3C//DTD SVG 1.1//EN"
 "http://www.w3.org/Graphics/SVG/1.1/DTD/svg11.dtd">
<!-- Generated by graphviz version 2.40.1 (20161225.0304)
 -->
<!-- Title: nuspell::Globber::glob Pages: 1 -->
<svg width="420pt" height="88pt"
 viewBox="0.00 0.00 420.00 88.00" xmlns="http://www.w3.org/2000/svg" xmlns:xlink="http://www.w3.org/1999/xlink">
<g id="graph0" class="graph" transform="scale(1 1) rotate(0) translate(4 84)">
<title>nuspell::Globber::glob</title>
<polygon fill="#ffffff" stroke="transparent" points="-4,4 -4,-84 416,-84 416,4 -4,4"/>
<!-- Node17 -->
<g id="node1" class="node">
<title>Node17</title>
<polygon fill="#bfbfbf" stroke="#000000" points="0,-30 0,-49 111,-49 111,-30 0,-30"/>
<text text-anchor="middle" x="55.5" y="-37" font-family="Helvetica,sans-Serif" font-size="10.00" fill="#000000">nuspell::Globber::glob</text>
</g>
<!-- Node18 -->
<g id="node2" class="node">
<title>Node18</title>
<g id="a_node2"><a xlink:href="namespacenuspell.html#a18da8631cb0b014f0f918cf444946921" target="_top" xlink:title="Gets the LibreOffice search paths. ">
<polygon fill="#ffffff" stroke="#000000" points="148.5,-49.5 148.5,-79.5 262.5,-79.5 262.5,-49.5 148.5,-49.5"/>
<text text-anchor="start" x="156.5" y="-67.5" font-family="Helvetica,sans-Serif" font-size="10.00" fill="#000000">nuspell::get_libreoffice</text>
<text text-anchor="middle" x="205.5" y="-56.5" font-family="Helvetica,sans-Serif" font-size="10.00" fill="#000000">_paths</text>
</a>
</g>
</g>
<!-- Node17&#45;&gt;Node18 -->
<g id="edge1" class="edge">
<title>Node17&#45;&gt;Node18</title>
<path fill="none" stroke="#191970" d="M121.3932,-50.4822C130.3761,-51.9794 139.5359,-53.506 148.3468,-54.9745"/>
<polygon fill="#191970" stroke="#191970" points="121.7938,-47.0008 111.3545,-48.8091 120.643,-53.9055 121.7938,-47.0008"/>
</g>
<!-- Node20 -->
<g id="node4" class="node">
<title>Node20</title>
<g id="a_node4"><a xlink:href="namespacenuspell.html#ad59b0ec5004ed1985b64eb6ec6fb4cd1" target="_top" xlink:title="Gets the Apache OpenOffice search paths. ">
<polygon fill="#ffffff" stroke="#000000" points="147,-.5 147,-30.5 264,-30.5 264,-.5 147,-.5"/>
<text text-anchor="start" x="155" y="-18.5" font-family="Helvetica,sans-Serif" font-size="10.00" fill="#000000">nuspell::get_openoffice</text>
<text text-anchor="middle" x="205.5" y="-7.5" font-family="Helvetica,sans-Serif" font-size="10.00" fill="#000000">_paths</text>
</a>
</g>
</g>
<!-- Node17&#45;&gt;Node20 -->
<g id="edge3" class="edge">
<title>Node17&#45;&gt;Node20</title>
<path fill="none" stroke="#191970" d="M121.2514,-28.9798C129.7682,-27.6171 138.4465,-26.2286 146.8381,-24.8859"/>
<polygon fill="#191970" stroke="#191970" points="120.6759,-25.5273 111.3545,-30.5633 121.7819,-32.4393 120.6759,-25.5273"/>
</g>
<!-- Node19 -->
<g id="node3" class="node">
<title>Node19</title>
<g id="a_node3"><a xlink:href="classnuspell_1_1_finder.html#a21224942e6684c8722b9eb0d213e65c3" target="_top" xlink:title="Adds the LibreOffice directory paths which may containt dictionaries. ">
<polygon fill="#ffffff" stroke="#000000" points="301.5,-49.5 301.5,-79.5 410.5,-79.5 410.5,-49.5 301.5,-49.5"/>
<text text-anchor="start" x="309.5" y="-67.5" font-family="Helvetica,sans-Serif" font-size="10.00" fill="#000000">nuspell::Finder::add</text>
<text text-anchor="middle" x="356" y="-56.5" font-family="Helvetica,sans-Serif" font-size="10.00" fill="#000000">_libreoffice_dir_paths</text>
</a>
</g>
</g>
<!-- Node18&#45;&gt;Node19 -->
<g id="edge2" class="edge">
<title>Node18&#45;&gt;Node19</title>
<path fill="none" stroke="#191970" d="M273.0111,-64.5C282.4829,-64.5 292.12,-64.5 301.3135,-64.5"/>
<polygon fill="#191970" stroke="#191970" points="272.827,-61.0001 262.8269,-64.5 272.8269,-68.0001 272.827,-61.0001"/>
</g>
<!-- Node21 -->
<g id="node5" class="node">
<title>Node21</title>
<g id="a_node5"><a xlink:href="classnuspell_1_1_finder.html#a10db179542bffb40614b74d581e293cf" target="_top" xlink:title="Adds the OpenOffice directory paths which may containt dictionaries. ">
<polygon fill="#ffffff" stroke="#000000" points="300,-.5 300,-30.5 412,-30.5 412,-.5 300,-.5"/>
<text text-anchor="start" x="308" y="-18.5" font-family="Helvetica,sans-Serif" font-size="10.00" fill="#000000">nuspell::Finder::add</text>
<text text-anchor="middle" x="356" y="-7.5" font-family="Helvetica,sans-Serif" font-size="10.00" fill="#000000">_openoffice_dir_paths</text>
</a>
</g>
</g>
<!-- Node20&#45;&gt;Node21 -->
<g id="edge4" class="edge">
<title>Node20&#45;&gt;Node21</title>
<path fill="none" stroke="#191970" d="M274.3942,-15.5C282.8871,-15.5 291.4886,-15.5 299.7621,-15.5"/>
<polygon fill="#191970" stroke="#191970" points="274.1182,-12.0001 264.1182,-15.5 274.1181,-19.0001 274.1182,-12.0001"/>
</g>
</g>
</svg>
