<?xml version="1.0" encoding="UTF-8" standalone="no"?>
<!DOCTYPE svg PUBLIC "-//W3C//DTD SVG 1.1//EN"
 "http://www.w3.org/Graphics/SVG/1.1/DTD/svg11.dtd">
<!-- Generated by graphviz version 2.43.0 (0)
 -->
<!-- Title: nuspell::v5::Affixing_Result_Base Pages: 1 -->
<svg width="280pt" height="137pt"
 viewBox="0.00 0.00 280.00 137.00" xmlns="http://www.w3.org/2000/svg" xmlns:xlink="http://www.w3.org/1999/xlink">
<g id="graph0" class="graph" transform="scale(1 1) rotate(0) translate(4 133)">
<title>nuspell::v5::Affixing_Result_Base</title>
<polygon fill="white" stroke="transparent" points="-4,4 -4,-133 276,-133 276,4 -4,4"/>
<!-- Node1 -->
<g id="node1" class="node">
<title>Node1</title>
<g id="a_node1"><a xlink:title=" ">
<polygon fill="#bfbfbf" stroke="black" points="0,-49.5 0,-79.5 113,-79.5 113,-49.5 0,-49.5"/>
<text text-anchor="start" x="8" y="-67.5" font-family="Helvetica,sans-Serif" font-size="10.00">nuspell::v5::Affixing</text>
<text text-anchor="middle" x="56.5" y="-56.5" font-family="Helvetica,sans-Serif" font-size="10.00">_Result_Base</text>
</a>
</g>
</g>
<!-- Node2 -->
<g id="node2" class="node">
<title>Node2</title>
<g id="a_node2"><a xlink:href="structnuspell_1_1v5_1_1_affixing___result.html" target="_top" xlink:title=" ">
<polygon fill="white" stroke="black" points="154,-98.5 154,-128.5 267,-128.5 267,-98.5 154,-98.5"/>
<text text-anchor="start" x="162" y="-116.5" font-family="Helvetica,sans-Serif" font-size="10.00">nuspell::v5::Affixing</text>
<text text-anchor="middle" x="210.5" y="-105.5" font-family="Helvetica,sans-Serif" font-size="10.00">_Result&lt; T1, T2 &gt;</text>
</a>
</g>
</g>
<!-- Node1&#45;&gt;Node2 -->
<g id="edge1" class="edge">
<title>Node1&#45;&gt;Node2</title>
<path fill="none" stroke="midnightblue" d="M114.14,-82.76C130.17,-87.93 147.44,-93.49 162.81,-98.45"/>
<polygon fill="midnightblue" stroke="midnightblue" points="114.94,-79.34 104.35,-79.6 112.79,-86 114.94,-79.34"/>
</g>
<!-- Node3 -->
<g id="node3" class="node">
<title>Node3</title>
<g id="a_node3"><a xlink:href="structnuspell_1_1v5_1_1_affixing___result_3_01_t1_00_01void_01_4.html" target="_top" xlink:title=" ">
<polygon fill="white" stroke="black" points="153.5,-49.5 153.5,-79.5 267.5,-79.5 267.5,-49.5 153.5,-49.5"/>
<text text-anchor="start" x="161.5" y="-67.5" font-family="Helvetica,sans-Serif" font-size="10.00">nuspell::v5::Affixing</text>
<text text-anchor="middle" x="210.5" y="-56.5" font-family="Helvetica,sans-Serif" font-size="10.00">_Result&lt; T1, void &gt;</text>
</a>
</g>
</g>
<!-- Node1&#45;&gt;Node3 -->
<g id="edge2" class="edge">
<title>Node1&#45;&gt;Node3</title>
<path fill="none" stroke="midnightblue" d="M123.47,-64.5C133.4,-64.5 143.56,-64.5 153.26,-64.5"/>
<polygon fill="midnightblue" stroke="midnightblue" points="123.24,-61 113.24,-64.5 123.24,-68 123.24,-61"/>
</g>
<!-- Node4 -->
<g id="node4" class="node">
<title>Node4</title>
<g id="a_node4"><a xlink:href="structnuspell_1_1v5_1_1_affixing___result_3_01void_00_01void_01_4.html" target="_top" xlink:title=" ">
<polygon fill="white" stroke="black" points="149,-0.5 149,-30.5 272,-30.5 272,-0.5 149,-0.5"/>
<text text-anchor="start" x="157" y="-18.5" font-family="Helvetica,sans-Serif" font-size="10.00">nuspell::v5::Affixing</text>
<text text-anchor="middle" x="210.5" y="-7.5" font-family="Helvetica,sans-Serif" font-size="10.00">_Result&lt; void, void &gt;</text>
</a>
</g>
</g>
<!-- Node1&#45;&gt;Node4 -->
<g id="edge3" class="edge">
<title>Node1&#45;&gt;Node4</title>
<path fill="none" stroke="midnightblue" d="M114.14,-46.24C130.17,-41.07 147.44,-35.51 162.81,-30.55"/>
<polygon fill="midnightblue" stroke="midnightblue" points="112.79,-43 104.35,-49.4 114.94,-49.66 112.79,-43"/>
</g>
</g>
</svg>
