<?xml version="1.0" encoding="UTF-8" standalone="no"?>
<!DOCTYPE svg PUBLIC "-//W3C//DTD SVG 1.1//EN"
 "http://www.w3.org/Graphics/SVG/1.1/DTD/svg11.dtd">
<!-- Generated by graphviz version 2.40.1 (20161225.0304)
 -->
<!-- Title: nuspell::Dict_Base::check_compound_classic Pages: 1 -->
<svg width="498pt" height="88pt"
 viewBox="0.00 0.00 498.00 88.00" xmlns="http://www.w3.org/2000/svg" xmlns:xlink="http://www.w3.org/1999/xlink">
<g id="graph0" class="graph" transform="scale(1 1) rotate(0) translate(4 84)">
<title>nuspell::Dict_Base::check_compound_classic</title>
<polygon fill="#ffffff" stroke="transparent" points="-4,4 -4,-84 494,-84 494,4 -4,4"/>
<!-- Node14 -->
<g id="node1" class="node">
<title>Node14</title>
<polygon fill="#bfbfbf" stroke="#000000" points="0,-24.5 0,-54.5 135,-54.5 135,-24.5 0,-24.5"/>
<text text-anchor="start" x="8" y="-42.5" font-family="Helvetica,sans-Serif" font-size="10.00" fill="#000000">nuspell::Dict_Base</text>
<text text-anchor="middle" x="67.5" y="-31.5" font-family="Helvetica,sans-Serif" font-size="10.00" fill="#000000">::check_compound_classic</text>
</g>
<!-- Node15 -->
<g id="node2" class="node">
<title>Node15</title>
<g id="a_node2"><a xlink:href="namespacenuspell.html#a7de1842aa6e1dbd9f8cf0b8418e145b9" target="_top" xlink:title="Check if word[i] or word[i&#45;1] are uppercase. ">
<polygon fill="#ffffff" stroke="#000000" points="171,-49.5 171,-79.5 323,-79.5 323,-49.5 171,-49.5"/>
<text text-anchor="start" x="179" y="-67.5" font-family="Helvetica,sans-Serif" font-size="10.00" fill="#000000">nuspell::has_uppercase</text>
<text text-anchor="middle" x="247" y="-56.5" font-family="Helvetica,sans-Serif" font-size="10.00" fill="#000000">_at_compound_word_boundary</text>
</a>
</g>
</g>
<!-- Node14&#45;&gt;Node15 -->
<g id="edge1" class="edge">
<title>Node14&#45;&gt;Node15</title>
<path fill="none" stroke="#191970" d="M135.1055,-48.9158C143.4628,-50.0798 152.0933,-51.2818 160.6818,-52.478"/>
<polygon fill="#191970" stroke="#191970" points="160.3387,-55.9639 170.7259,-53.8769 161.3043,-49.0308 160.3387,-55.9639"/>
</g>
<!-- Node16 -->
<g id="node3" class="node">
<title>Node16</title>
<g id="a_node3"><a xlink:href="namespacenuspell.html#aad7267f28a0ac5af1ca9885952c640ba" target="_top" xlink:title="nuspell::is_compound\l_forbidden_by_patterns">
<polygon fill="#ffffff" stroke="#000000" points="188,-.5 188,-30.5 306,-30.5 306,-.5 188,-.5"/>
<text text-anchor="start" x="196" y="-18.5" font-family="Helvetica,sans-Serif" font-size="10.00" fill="#000000">nuspell::is_compound</text>
<text text-anchor="middle" x="247" y="-7.5" font-family="Helvetica,sans-Serif" font-size="10.00" fill="#000000">_forbidden_by_patterns</text>
</a>
</g>
</g>
<!-- Node14&#45;&gt;Node16 -->
<g id="edge2" class="edge">
<title>Node14&#45;&gt;Node16</title>
<path fill="none" stroke="#191970" d="M135.1055,-30.4608C149.1003,-28.5897 163.8613,-26.616 177.9084,-24.7379"/>
<polygon fill="#191970" stroke="#191970" points="178.5416,-28.1845 187.9895,-23.39 177.6138,-21.2462 178.5416,-28.1845"/>
</g>
<!-- Node17 -->
<g id="node4" class="node">
<title>Node17</title>
<g id="a_node4"><a xlink:href="namespacenuspell.html#a4619a7ee13ec84fb4c3a717925edbdef" target="_top" xlink:title="nuspell::match_compound\l_pattern">
<polygon fill="#ffffff" stroke="#000000" points="359,-.5 359,-30.5 490,-30.5 490,-.5 359,-.5"/>
<text text-anchor="start" x="367" y="-18.5" font-family="Helvetica,sans-Serif" font-size="10.00" fill="#000000">nuspell::match_compound</text>
<text text-anchor="middle" x="424.5" y="-7.5" font-family="Helvetica,sans-Serif" font-size="10.00" fill="#000000">_pattern</text>
</a>
</g>
</g>
<!-- Node16&#45;&gt;Node17 -->
<g id="edge3" class="edge">
<title>Node16&#45;&gt;Node17</title>
<path fill="none" stroke="#191970" d="M306.1049,-15.5C319.7385,-15.5 334.4265,-15.5 348.6618,-15.5"/>
<polygon fill="#191970" stroke="#191970" points="348.9256,-19.0001 358.9256,-15.5 348.9256,-12.0001 348.9256,-19.0001"/>
</g>
</g>
</svg>
