<?xml version="1.0" encoding="UTF-8" standalone="no"?>
<!DOCTYPE svg PUBLIC "-//W3C//DTD SVG 1.1//EN"
 "http://www.w3.org/Graphics/SVG/1.1/DTD/svg11.dtd">
<!-- Generated by graphviz version 2.40.1 (20161225.0304)
 -->
<!-- Title: src/nuspell/structures.hxx Pages: 1 -->
<svg width="1032pt" height="95pt"
 viewBox="0.00 0.00 1032.00 95.00" xmlns="http://www.w3.org/2000/svg" xmlns:xlink="http://www.w3.org/1999/xlink">
<g id="graph0" class="graph" transform="scale(1 1) rotate(0) translate(4 91)">
<title>src/nuspell/structures.hxx</title>
<polygon fill="#ffffff" stroke="transparent" points="-4,4 -4,-91 1028,-91 1028,4 -4,4"/>
<!-- Node0 -->
<g id="node1" class="node">
<title>Node0</title>
<polygon fill="#bfbfbf" stroke="#000000" points="320.5,-67.5 320.5,-86.5 449.5,-86.5 449.5,-67.5 320.5,-67.5"/>
<text text-anchor="middle" x="385" y="-74.5" font-family="Helvetica,sans-Serif" font-size="10.00" fill="#000000">src/nuspell/structures.hxx</text>
</g>
<!-- Node1 -->
<g id="node2" class="node">
<title>Node1</title>
<polygon fill="#ffffff" stroke="#bfbfbf" points="0,-6 0,-25 56,-25 56,-6 0,-6"/>
<text text-anchor="middle" x="28" y="-13" font-family="Helvetica,sans-Serif" font-size="10.00" fill="#000000">algorithm</text>
</g>
<!-- Node0&#45;&gt;Node1 -->
<g id="edge1" class="edge">
<title>Node0&#45;&gt;Node1</title>
<path fill="none" stroke="#191970" d="M320.2655,-72.5411C254.9165,-66.9168 151.5553,-54.9307 65,-31 62.6778,-30.358 60.3076,-29.6064 57.9448,-28.7867"/>
<polygon fill="#191970" stroke="#191970" points="59.0051,-25.4449 48.4147,-25.1387 56.5026,-31.9824 59.0051,-25.4449"/>
</g>
<!-- Node2 -->
<g id="node3" class="node">
<title>Node2</title>
<polygon fill="#ffffff" stroke="#bfbfbf" points="74,-6 74,-25 118,-25 118,-6 74,-6"/>
<text text-anchor="middle" x="96" y="-13" font-family="Helvetica,sans-Serif" font-size="10.00" fill="#000000">cmath</text>
</g>
<!-- Node0&#45;&gt;Node2 -->
<g id="edge2" class="edge">
<title>Node0&#45;&gt;Node2</title>
<path fill="none" stroke="#191970" d="M320.3845,-70.6905C267.4192,-64.2899 191.0258,-52.2206 127,-31 125.39,-30.4664 123.7588,-29.8624 122.1304,-29.2099"/>
<polygon fill="#191970" stroke="#191970" points="123.5597,-26.0151 113.0047,-25.0965 120.6831,-32.3967 123.5597,-26.0151"/>
</g>
<!-- Node3 -->
<g id="node4" class="node">
<title>Node3</title>
<polygon fill="#ffffff" stroke="#bfbfbf" points="136.5,-6 136.5,-25 183.5,-25 183.5,-6 136.5,-6"/>
<text text-anchor="middle" x="160" y="-13" font-family="Helvetica,sans-Serif" font-size="10.00" fill="#000000">iterator</text>
</g>
<!-- Node0&#45;&gt;Node3 -->
<g id="edge3" class="edge">
<title>Node0&#45;&gt;Node3</title>
<path fill="none" stroke="#191970" d="M331.2619,-67.4496C292.0316,-59.6973 237.9091,-47.3702 192,-31 190.401,-30.4298 188.7764,-29.8033 187.1499,-29.1391"/>
<polygon fill="#191970" stroke="#191970" points="188.5412,-25.9274 177.9824,-25.0531 185.6914,-32.321 188.5412,-25.9274"/>
</g>
<!-- Node4 -->
<g id="node5" class="node">
<title>Node4</title>
<polygon fill="#ffffff" stroke="#bfbfbf" points="201.5,-6 201.5,-25 260.5,-25 260.5,-6 201.5,-6"/>
<text text-anchor="middle" x="231" y="-13" font-family="Helvetica,sans-Serif" font-size="10.00" fill="#000000">stdexcept</text>
</g>
<!-- Node0&#45;&gt;Node4 -->
<g id="edge4" class="edge">
<title>Node0&#45;&gt;Node4</title>
<path fill="none" stroke="#191970" d="M360.5316,-67.3772C337.0362,-58.118 300.5565,-43.6924 269,-31 267.364,-30.342 265.6891,-29.6663 263.9981,-28.9825"/>
<polygon fill="#191970" stroke="#191970" points="264.8792,-25.5629 254.2971,-25.0447 262.2464,-32.0489 264.8792,-25.5629"/>
</g>
<!-- Node5 -->
<g id="node6" class="node">
<title>Node5</title>
<polygon fill="#ffffff" stroke="#bfbfbf" points="278.5,-6 278.5,-25 319.5,-25 319.5,-6 278.5,-6"/>
<text text-anchor="middle" x="299" y="-13" font-family="Helvetica,sans-Serif" font-size="10.00" fill="#000000">string</text>
</g>
<!-- Node0&#45;&gt;Node5 -->
<g id="edge5" class="edge">
<title>Node0&#45;&gt;Node5</title>
<path fill="none" stroke="#191970" d="M371.5625,-67.3906C357.9305,-57.6421 336.6154,-42.3994 320.6078,-30.9521"/>
<polygon fill="#191970" stroke="#191970" points="322.5132,-28.0118 312.3431,-25.0419 318.4414,-33.7057 322.5132,-28.0118"/>
</g>
<!-- Node6 -->
<g id="node7" class="node">
<title>Node6</title>
<polygon fill="#ffffff" stroke="#bfbfbf" points="338,-6 338,-25 376,-25 376,-6 338,-6"/>
<text text-anchor="middle" x="357" y="-13" font-family="Helvetica,sans-Serif" font-size="10.00" fill="#000000">tuple</text>
</g>
<!-- Node0&#45;&gt;Node6 -->
<g id="edge6" class="edge">
<title>Node0&#45;&gt;Node6</title>
<path fill="none" stroke="#191970" d="M380.625,-67.3906C376.6212,-58.5965 370.5817,-45.3312 365.6115,-34.4145"/>
<polygon fill="#191970" stroke="#191970" points="368.7657,-32.8957 361.4367,-25.2449 362.3949,-35.7963 368.7657,-32.8957"/>
</g>
<!-- Node7 -->
<g id="node8" class="node">
<title>Node7</title>
<polygon fill="#ffffff" stroke="#bfbfbf" points="394,-6 394,-25 434,-25 434,-6 394,-6"/>
<text text-anchor="middle" x="414" y="-13" font-family="Helvetica,sans-Serif" font-size="10.00" fill="#000000">utility</text>
</g>
<!-- Node0&#45;&gt;Node7 -->
<g id="edge7" class="edge">
<title>Node0&#45;&gt;Node7</title>
<path fill="none" stroke="#191970" d="M389.5313,-67.3906C393.6781,-58.5965 399.9332,-45.3312 405.081,-34.4145"/>
<polygon fill="#191970" stroke="#191970" points="408.3055,-35.7825 409.4049,-25.2449 401.9741,-32.7969 408.3055,-35.7825"/>
</g>
<!-- Node8 -->
<g id="node9" class="node">
<title>Node8</title>
<polygon fill="#ffffff" stroke="#bfbfbf" points="452,-6 452,-25 496,-25 496,-6 452,-6"/>
<text text-anchor="middle" x="474" y="-13" font-family="Helvetica,sans-Serif" font-size="10.00" fill="#000000">vector</text>
</g>
<!-- Node0&#45;&gt;Node8 -->
<g id="edge8" class="edge">
<title>Node0&#45;&gt;Node8</title>
<path fill="none" stroke="#191970" d="M398.9063,-67.3906C413.0138,-57.6421 435.0724,-42.3994 451.6385,-30.9521"/>
<polygon fill="#191970" stroke="#191970" points="453.9542,-33.6063 460.1914,-25.0419 449.9747,-27.8474 453.9542,-33.6063"/>
</g>
<!-- Node9 -->
<g id="node10" class="node">
<title>Node9</title>
<polygon fill="#ffffff" stroke="#bfbfbf" points="514,-.5 514,-30.5 624,-30.5 624,-.5 514,-.5"/>
<text text-anchor="start" x="522" y="-18.5" font-family="Helvetica,sans-Serif" font-size="10.00" fill="#000000">boost/container/small</text>
<text text-anchor="middle" x="569" y="-7.5" font-family="Helvetica,sans-Serif" font-size="10.00" fill="#000000">_vector.hpp</text>
</g>
<!-- Node0&#45;&gt;Node9 -->
<g id="edge9" class="edge">
<title>Node0&#45;&gt;Node9</title>
<path fill="none" stroke="#191970" d="M413.75,-67.3906C440.6121,-58.4123 481.4175,-44.7735 514.4534,-33.7316"/>
<polygon fill="#191970" stroke="#191970" points="515.6138,-37.0342 523.9885,-30.5446 513.3948,-30.3952 515.6138,-37.0342"/>
</g>
<!-- Node10 -->
<g id="node11" class="node">
<title>Node10</title>
<polygon fill="#ffffff" stroke="#bfbfbf" points="642,-6 642,-25 792,-25 792,-6 642,-6"/>
<text text-anchor="middle" x="717" y="-13" font-family="Helvetica,sans-Serif" font-size="10.00" fill="#000000">boost/multi_index/member.hpp</text>
</g>
<!-- Node0&#45;&gt;Node10 -->
<g id="edge10" class="edge">
<title>Node0&#45;&gt;Node10</title>
<path fill="none" stroke="#191970" d="M436.5107,-67.4581C495.602,-56.512 592.4313,-38.5752 655.4445,-26.9026"/>
<polygon fill="#191970" stroke="#191970" points="656.4464,-30.2766 665.6416,-25.0137 655.1713,-23.3937 656.4464,-30.2766"/>
</g>
<!-- Node11 -->
<g id="node12" class="node">
<title>Node11</title>
<polygon fill="#ffffff" stroke="#bfbfbf" points="810.5,-.5 810.5,-30.5 911.5,-30.5 911.5,-.5 810.5,-.5"/>
<text text-anchor="start" x="818.5" y="-18.5" font-family="Helvetica,sans-Serif" font-size="10.00" fill="#000000">boost/range/iterator</text>
<text text-anchor="middle" x="861" y="-7.5" font-family="Helvetica,sans-Serif" font-size="10.00" fill="#000000">_range_core.hpp</text>
</g>
<!-- Node0&#45;&gt;Node11 -->
<g id="edge11" class="edge">
<title>Node0&#45;&gt;Node11</title>
<path fill="none" stroke="#191970" d="M449.5533,-72.7307C529.6081,-66.7973 670.3415,-54.2778 800.2447,-30.9643"/>
<polygon fill="#191970" stroke="#191970" points="801.1627,-34.3548 810.3741,-29.1202 799.9089,-27.468 801.1627,-34.3548"/>
</g>
<!-- Node12 -->
<g id="node13" class="node">
<title>Node12</title>
<polygon fill="#ffffff" stroke="#bfbfbf" points="930,-.5 930,-30.5 1024,-30.5 1024,-.5 930,-.5"/>
<text text-anchor="start" x="938" y="-18.5" font-family="Helvetica,sans-Serif" font-size="10.00" fill="#000000">boost/utility/string</text>
<text text-anchor="middle" x="977" y="-7.5" font-family="Helvetica,sans-Serif" font-size="10.00" fill="#000000">_view.hpp</text>
</g>
<!-- Node0&#45;&gt;Node12 -->
<g id="edge12" class="edge">
<title>Node0&#45;&gt;Node12</title>
<path fill="none" stroke="#191970" d="M449.8598,-75.2868C549.284,-71.8136 745.3302,-61.6202 919.9073,-30.9872"/>
<polygon fill="#191970" stroke="#191970" points="920.5536,-34.4272 929.7848,-29.2278 919.326,-27.5357 920.5536,-34.4272"/>
</g>
</g>
</svg>
