<?xml version="1.0" encoding="UTF-8" standalone="no"?>
<!DOCTYPE svg PUBLIC "-//W3C//DTD SVG 1.1//EN"
 "http://www.w3.org/Graphics/SVG/1.1/DTD/svg11.dtd">
<!-- Generated by graphviz version 2.40.1 (20161225.0304)
 -->
<!-- Title: nuspell::Dict_Base::check_compound_with_rules Pages: 1 -->
<svg width="489pt" height="88pt"
 viewBox="0.00 0.00 489.00 88.00" xmlns="http://www.w3.org/2000/svg" xmlns:xlink="http://www.w3.org/1999/xlink">
<g id="graph0" class="graph" transform="scale(1 1) rotate(0) translate(4 84)">
<title>nuspell::Dict_Base::check_compound_with_rules</title>
<polygon fill="#ffffff" stroke="transparent" points="-4,4 -4,-84 485,-84 485,4 -4,4"/>
<!-- Node15 -->
<g id="node1" class="node">
<title>Node15</title>
<polygon fill="#bfbfbf" stroke="#000000" points="0,-24.5 0,-54.5 149,-54.5 149,-24.5 0,-24.5"/>
<text text-anchor="start" x="8" y="-42.5" font-family="Helvetica,sans-Serif" font-size="10.00" fill="#000000">nuspell::Dict_Base</text>
<text text-anchor="middle" x="74.5" y="-31.5" font-family="Helvetica,sans-Serif" font-size="10.00" fill="#000000">::check_compound_with_rules</text>
</g>
<!-- Node16 -->
<g id="node2" class="node">
<title>Node16</title>
<g id="a_node2"><a xlink:href="namespacenuspell.html#aa400607867aa8ca4eb115542a84b7004" target="_top" xlink:title="nuspell::match_compund_rule">
<polygon fill="#ffffff" stroke="#000000" points="185,-30 185,-49 331,-49 331,-30 185,-30"/>
<text text-anchor="middle" x="258" y="-37" font-family="Helvetica,sans-Serif" font-size="10.00" fill="#000000">nuspell::match_compund_rule</text>
</a>
</g>
</g>
<!-- Node15&#45;&gt;Node16 -->
<g id="edge1" class="edge">
<title>Node15&#45;&gt;Node16</title>
<path fill="none" stroke="#191970" d="M149.1365,-39.5C157.6233,-39.5 166.3126,-39.5 174.9,-39.5"/>
<polygon fill="#191970" stroke="#191970" points="174.9157,-43.0001 184.9157,-39.5 174.9157,-36.0001 174.9157,-43.0001"/>
</g>
<!-- Node17 -->
<g id="node3" class="node">
<title>Node17</title>
<g id="a_node3"><a xlink:href="namespacenuspell.html#a99eaa02be11f51546c6f62386e45c986" target="_top" xlink:title="nuspell::match_simple\l_regex">
<polygon fill="#ffffff" stroke="#000000" points="367,-49.5 367,-79.5 481,-79.5 481,-49.5 367,-49.5"/>
<text text-anchor="start" x="375" y="-67.5" font-family="Helvetica,sans-Serif" font-size="10.00" fill="#000000">nuspell::match_simple</text>
<text text-anchor="middle" x="424" y="-56.5" font-family="Helvetica,sans-Serif" font-size="10.00" fill="#000000">_regex</text>
</a>
</g>
</g>
<!-- Node16&#45;&gt;Node17 -->
<g id="edge2" class="edge">
<title>Node16&#45;&gt;Node17</title>
<path fill="none" stroke="#191970" d="M321.231,-49.0227C332.853,-50.773 345.024,-52.606 356.7587,-54.3733"/>
<polygon fill="#191970" stroke="#191970" points="356.5242,-57.8774 366.9339,-55.9057 357.5667,-50.9554 356.5242,-57.8774"/>
</g>
<!-- Node18 -->
<g id="node4" class="node">
<title>Node18</title>
<g id="a_node4"><a xlink:href="classnuspell_1_1_string___set.html#ad1eeb2a3564c02c49f31b98299e493df" target="_top" xlink:title="nuspell::String_Set\l::contains">
<polygon fill="#ffffff" stroke="#000000" points="374.5,-.5 374.5,-30.5 473.5,-30.5 473.5,-.5 374.5,-.5"/>
<text text-anchor="start" x="382.5" y="-18.5" font-family="Helvetica,sans-Serif" font-size="10.00" fill="#000000">nuspell::String_Set</text>
<text text-anchor="middle" x="424" y="-7.5" font-family="Helvetica,sans-Serif" font-size="10.00" fill="#000000">::contains</text>
</a>
</g>
</g>
<!-- Node16&#45;&gt;Node18 -->
<g id="edge3" class="edge">
<title>Node16&#45;&gt;Node18</title>
<path fill="none" stroke="#191970" d="M324.0846,-29.9456C337.2829,-28.0374 351.0772,-26.0431 364.0548,-24.1668"/>
<polygon fill="#191970" stroke="#191970" points="364.8642,-27.5862 374.2604,-22.6913 363.8625,-20.6583 364.8642,-27.5862"/>
</g>
</g>
</svg>
