<?xml version="1.0" encoding="UTF-8" standalone="no"?>
<!DOCTYPE svg PUBLIC "-//W3C//DTD SVG 1.1//EN"
 "http://www.w3.org/Graphics/SVG/1.1/DTD/svg11.dtd">
<!-- Generated by graphviz version 2.43.0 (0)
 -->
<!-- Title: nuspell::Affixing_Result_Base Pages: 1 -->
<svg width="336pt" height="137pt"
 viewBox="0.00 0.00 336.00 137.00" xmlns="http://www.w3.org/2000/svg" xmlns:xlink="http://www.w3.org/1999/xlink">
<g id="graph0" class="graph" transform="scale(1 1) rotate(0) translate(4 133)">
<title>nuspell::Affixing_Result_Base</title>
<polygon fill="white" stroke="transparent" points="-4,4 -4,-133 332,-133 332,4 -4,4"/>
<!-- Node1 -->
<g id="node1" class="node">
<title>Node1</title>
<g id="a_node1"><a xlink:title=" ">
<polygon fill="#bfbfbf" stroke="black" points="0,-55 0,-74 161,-74 161,-55 0,-55"/>
<text text-anchor="middle" x="80.5" y="-62" font-family="Helvetica,sans-Serif" font-size="10.00">nuspell::Affixing_Result_Base</text>
</a>
</g>
</g>
<!-- Node2 -->
<g id="node2" class="node">
<title>Node2</title>
<g id="a_node2"><a xlink:href="structnuspell_1_1_affixing___result.html" target="_top" xlink:title=" ">
<polygon fill="white" stroke="black" points="197,-98.5 197,-128.5 328,-128.5 328,-98.5 197,-98.5"/>
<text text-anchor="start" x="205" y="-116.5" font-family="Helvetica,sans-Serif" font-size="10.00">nuspell::Affixing_Result</text>
<text text-anchor="middle" x="262.5" y="-105.5" font-family="Helvetica,sans-Serif" font-size="10.00">&lt; T1, T2 &gt;</text>
</a>
</g>
</g>
<!-- Node1&#45;&gt;Node2 -->
<g id="edge1" class="edge">
<title>Node1&#45;&gt;Node2</title>
<path fill="none" stroke="midnightblue" d="M126.6,-76.78C150.76,-83.35 180.72,-91.51 206.26,-98.46"/>
<polygon fill="midnightblue" stroke="midnightblue" points="127.2,-73.31 116.63,-74.06 125.36,-80.07 127.2,-73.31"/>
</g>
<!-- Node3 -->
<g id="node3" class="node">
<title>Node3</title>
<g id="a_node3"><a xlink:href="structnuspell_1_1_affixing___result_3_01_t1_00_01void_01_4.html" target="_top" xlink:title=" ">
<polygon fill="white" stroke="black" points="197,-49.5 197,-79.5 328,-79.5 328,-49.5 197,-49.5"/>
<text text-anchor="start" x="205" y="-67.5" font-family="Helvetica,sans-Serif" font-size="10.00">nuspell::Affixing_Result</text>
<text text-anchor="middle" x="262.5" y="-56.5" font-family="Helvetica,sans-Serif" font-size="10.00">&lt; T1, void &gt;</text>
</a>
</g>
</g>
<!-- Node1&#45;&gt;Node3 -->
<g id="edge2" class="edge">
<title>Node1&#45;&gt;Node3</title>
<path fill="none" stroke="midnightblue" d="M171.35,-64.5C179.99,-64.5 188.62,-64.5 196.94,-64.5"/>
<polygon fill="midnightblue" stroke="midnightblue" points="171.24,-61 161.24,-64.5 171.24,-68 171.24,-61"/>
</g>
<!-- Node4 -->
<g id="node4" class="node">
<title>Node4</title>
<g id="a_node4"><a xlink:href="structnuspell_1_1_affixing___result_3_01void_00_01void_01_4.html" target="_top" xlink:title=" ">
<polygon fill="white" stroke="black" points="197,-0.5 197,-30.5 328,-30.5 328,-0.5 197,-0.5"/>
<text text-anchor="start" x="205" y="-18.5" font-family="Helvetica,sans-Serif" font-size="10.00">nuspell::Affixing_Result</text>
<text text-anchor="middle" x="262.5" y="-7.5" font-family="Helvetica,sans-Serif" font-size="10.00">&lt; void, void &gt;</text>
</a>
</g>
</g>
<!-- Node1&#45;&gt;Node4 -->
<g id="edge3" class="edge">
<title>Node1&#45;&gt;Node4</title>
<path fill="none" stroke="midnightblue" d="M126.6,-52.22C150.76,-45.65 180.72,-37.49 206.26,-30.54"/>
<polygon fill="midnightblue" stroke="midnightblue" points="125.36,-48.93 116.63,-54.94 127.2,-55.69 125.36,-48.93"/>
</g>
</g>
</svg>
