<?xml version="1.0" encoding="UTF-8" standalone="no"?>
<!DOCTYPE svg PUBLIC "-//W3C//DTD SVG 1.1//EN"
 "http://www.w3.org/Graphics/SVG/1.1/DTD/svg11.dtd">
<!-- Generated by graphviz version 2.40.1 (20161225.0304)
 -->
<!-- Title: nuspell::Dict_Base::Dict_Base Pages: 1 -->
<svg width="241pt" height="39pt"
 viewBox="0.00 0.00 241.00 39.00" xmlns="http://www.w3.org/2000/svg" xmlns:xlink="http://www.w3.org/1999/xlink">
<g id="graph0" class="graph" transform="scale(1 1) rotate(0) translate(4 35)">
<title>nuspell::Dict_Base::Dict_Base</title>
<polygon fill="#ffffff" stroke="transparent" points="-4,4 -4,-35 237,-35 237,4 -4,4"/>
<!-- Node0 -->
<g id="node1" class="node">
<title>Node0</title>
<polygon fill="#bfbfbf" stroke="#000000" points="0,-.5 0,-30.5 99,-30.5 99,-.5 0,-.5"/>
<text text-anchor="start" x="8" y="-18.5" font-family="Helvetica,sans-Serif" font-size="10.00" fill="#000000">nuspell::Dict_Base</text>
<text text-anchor="middle" x="49.5" y="-7.5" font-family="Helvetica,sans-Serif" font-size="10.00" fill="#000000">::Dict_Base</text>
</g>
<!-- Node1 -->
<g id="node2" class="node">
<title>Node1</title>
<g id="a_node2"><a xlink:href="structnuspell_1_1_aff___data.html#a660d169dec5cb529d9f5f25ec2263a14" target="_top" xlink:title="nuspell::Aff_Data::\lparse_aff_dic">
<polygon fill="#ffffff" stroke="#000000" points="135,-.5 135,-30.5 233,-30.5 233,-.5 135,-.5"/>
<text text-anchor="start" x="143" y="-18.5" font-family="Helvetica,sans-Serif" font-size="10.00" fill="#000000">nuspell::Aff_Data::</text>
<text text-anchor="middle" x="184" y="-7.5" font-family="Helvetica,sans-Serif" font-size="10.00" fill="#000000">parse_aff_dic</text>
</a>
</g>
</g>
<!-- Node0&#45;&gt;Node1 -->
<g id="edge1" class="edge">
<title>Node0&#45;&gt;Node1</title>
<path fill="none" stroke="#191970" d="M99.2007,-15.5C107.5,-15.5 116.1828,-15.5 124.6934,-15.5"/>
<polygon fill="#191970" stroke="#191970" points="124.9519,-19.0001 134.9518,-15.5 124.9518,-12.0001 124.9519,-19.0001"/>
</g>
</g>
</svg>
