<?xml version="1.0" encoding="UTF-8" standalone="no"?>
<!DOCTYPE svg PUBLIC "-//W3C//DTD SVG 1.1//EN"
 "http://www.w3.org/Graphics/SVG/1.1/DTD/svg11.dtd">
<!-- Generated by graphviz version 2.40.1 (20161225.0304)
 -->
<!-- Title: src/nuspell/structures.hxx Pages: 1 -->
<svg width="916pt" height="95pt"
 viewBox="0.00 0.00 915.50 95.00" xmlns="http://www.w3.org/2000/svg" xmlns:xlink="http://www.w3.org/1999/xlink">
<g id="graph0" class="graph" transform="scale(1 1) rotate(0) translate(4 91)">
<title>src/nuspell/structures.hxx</title>
<polygon fill="#ffffff" stroke="transparent" points="-4,4 -4,-91 911.5,-91 911.5,4 -4,4"/>
<!-- Node0 -->
<g id="node1" class="node">
<title>Node0</title>
<polygon fill="#bfbfbf" stroke="#000000" points="336.5,-67.5 336.5,-86.5 465.5,-86.5 465.5,-67.5 336.5,-67.5"/>
<text text-anchor="middle" x="401" y="-74.5" font-family="Helvetica,sans-Serif" font-size="10.00" fill="#000000">src/nuspell/structures.hxx</text>
</g>
<!-- Node1 -->
<g id="node2" class="node">
<title>Node1</title>
<polygon fill="#ffffff" stroke="#bfbfbf" points="0,-6 0,-25 56,-25 56,-6 0,-6"/>
<text text-anchor="middle" x="28" y="-13" font-family="Helvetica,sans-Serif" font-size="10.00" fill="#000000">algorithm</text>
</g>
<!-- Node0&#45;&gt;Node1 -->
<g id="edge1" class="edge">
<title>Node0&#45;&gt;Node1</title>
<path fill="none" stroke="#191970" d="M336.215,-73.1529C267.8068,-67.9324 157.3013,-56.1861 65,-31 62.5308,-30.3262 60.0081,-29.5265 57.498,-28.6508"/>
<polygon fill="#191970" stroke="#191970" points="58.61,-25.3286 48.0202,-25.0031 56.0957,-31.8615 58.61,-25.3286"/>
</g>
<!-- Node2 -->
<g id="node3" class="node">
<title>Node2</title>
<polygon fill="#ffffff" stroke="#bfbfbf" points="74,-6 74,-25 118,-25 118,-6 74,-6"/>
<text text-anchor="middle" x="96" y="-13" font-family="Helvetica,sans-Serif" font-size="10.00" fill="#000000">cmath</text>
</g>
<!-- Node0&#45;&gt;Node2 -->
<g id="edge2" class="edge">
<title>Node0&#45;&gt;Node2</title>
<path fill="none" stroke="#191970" d="M336.3161,-71.6097C279.9605,-65.6328 196.5955,-53.6769 127,-31 125.3874,-30.4745 123.754,-29.8769 122.1241,-29.2293"/>
<polygon fill="#191970" stroke="#191970" points="123.5501,-26.033 112.9939,-25.1293 120.6826,-32.4187 123.5501,-26.033"/>
</g>
<!-- Node3 -->
<g id="node4" class="node">
<title>Node3</title>
<polygon fill="#ffffff" stroke="#bfbfbf" points="136.5,-6 136.5,-25 195.5,-25 195.5,-6 136.5,-6"/>
<text text-anchor="middle" x="166" y="-13" font-family="Helvetica,sans-Serif" font-size="10.00" fill="#000000">functional</text>
</g>
<!-- Node0&#45;&gt;Node3 -->
<g id="edge3" class="edge">
<title>Node0&#45;&gt;Node3</title>
<path fill="none" stroke="#191970" d="M350.203,-67.4391C310.0636,-59.3351 252.8589,-46.5616 204,-31 201.8488,-30.3148 199.6479,-29.5618 197.4426,-28.7682"/>
<polygon fill="#191970" stroke="#191970" points="198.4768,-25.4166 187.8863,-25.1139 195.9765,-31.9548 198.4768,-25.4166"/>
</g>
<!-- Node4 -->
<g id="node5" class="node">
<title>Node4</title>
<polygon fill="#ffffff" stroke="#bfbfbf" points="213.5,-6 213.5,-25 260.5,-25 260.5,-6 213.5,-6"/>
<text text-anchor="middle" x="237" y="-13" font-family="Helvetica,sans-Serif" font-size="10.00" fill="#000000">iterator</text>
</g>
<!-- Node0&#45;&gt;Node4 -->
<g id="edge4" class="edge">
<title>Node0&#45;&gt;Node4</title>
<path fill="none" stroke="#191970" d="M370.481,-67.4762C343.4836,-58.7894 303.185,-45.1798 269,-31 267.6458,-30.4383 266.2674,-29.8474 264.8811,-29.2375"/>
<polygon fill="#191970" stroke="#191970" points="266.3334,-26.0531 255.7865,-25.0469 263.4039,-32.4107 266.3334,-26.0531"/>
</g>
<!-- Node5 -->
<g id="node6" class="node">
<title>Node5</title>
<polygon fill="#ffffff" stroke="#bfbfbf" points="278.5,-6 278.5,-25 319.5,-25 319.5,-6 278.5,-6"/>
<text text-anchor="middle" x="299" y="-13" font-family="Helvetica,sans-Serif" font-size="10.00" fill="#000000">stack</text>
</g>
<!-- Node0&#45;&gt;Node5 -->
<g id="edge5" class="edge">
<title>Node0&#45;&gt;Node5</title>
<path fill="none" stroke="#191970" d="M385.0625,-67.3906C368.5949,-57.4616 342.6742,-41.833 323.5796,-30.3201"/>
<polygon fill="#191970" stroke="#191970" points="325.1966,-27.2081 314.8256,-25.0419 321.5822,-33.2027 325.1966,-27.2081"/>
</g>
<!-- Node6 -->
<g id="node7" class="node">
<title>Node6</title>
<polygon fill="#ffffff" stroke="#bfbfbf" points="337.5,-6 337.5,-25 396.5,-25 396.5,-6 337.5,-6"/>
<text text-anchor="middle" x="367" y="-13" font-family="Helvetica,sans-Serif" font-size="10.00" fill="#000000">stdexcept</text>
</g>
<!-- Node0&#45;&gt;Node6 -->
<g id="edge6" class="edge">
<title>Node0&#45;&gt;Node6</title>
<path fill="none" stroke="#191970" d="M395.6875,-67.3906C390.7761,-58.5068 383.3421,-45.0601 377.2725,-34.0811"/>
<polygon fill="#191970" stroke="#191970" points="380.2888,-32.3031 372.3874,-25.2449 374.1627,-35.6899 380.2888,-32.3031"/>
</g>
<!-- Node7 -->
<g id="node8" class="node">
<title>Node7</title>
<polygon fill="#ffffff" stroke="#bfbfbf" points="414.5,-6 414.5,-25 455.5,-25 455.5,-6 414.5,-6"/>
<text text-anchor="middle" x="435" y="-13" font-family="Helvetica,sans-Serif" font-size="10.00" fill="#000000">string</text>
</g>
<!-- Node0&#45;&gt;Node7 -->
<g id="edge7" class="edge">
<title>Node0&#45;&gt;Node7</title>
<path fill="none" stroke="#191970" d="M406.3125,-67.3906C411.2239,-58.5068 418.6579,-45.0601 424.7275,-34.0811"/>
<polygon fill="#191970" stroke="#191970" points="427.8373,-35.6899 429.6126,-25.2449 421.7112,-32.3031 427.8373,-35.6899"/>
</g>
<!-- Node8 -->
<g id="node9" class="node">
<title>Node8</title>
<polygon fill="#ffffff" stroke="#bfbfbf" points="474,-6 474,-25 540,-25 540,-6 474,-6"/>
<text text-anchor="middle" x="507" y="-13" font-family="Helvetica,sans-Serif" font-size="10.00" fill="#000000">string_view</text>
</g>
<!-- Node0&#45;&gt;Node8 -->
<g id="edge8" class="edge">
<title>Node0&#45;&gt;Node8</title>
<path fill="none" stroke="#191970" d="M417.5625,-67.3906C434.7537,-57.4165 461.8582,-41.6908 481.7266,-30.1633"/>
<polygon fill="#191970" stroke="#191970" points="483.6606,-33.0877 490.5538,-25.0419 480.1477,-27.033 483.6606,-33.0877"/>
</g>
<!-- Node9 -->
<g id="node10" class="node">
<title>Node9</title>
<polygon fill="#ffffff" stroke="#bfbfbf" points="558,-6 558,-25 598,-25 598,-6 558,-6"/>
<text text-anchor="middle" x="578" y="-13" font-family="Helvetica,sans-Serif" font-size="10.00" fill="#000000">utility</text>
</g>
<!-- Node0&#45;&gt;Node9 -->
<g id="edge9" class="edge">
<title>Node0&#45;&gt;Node9</title>
<path fill="none" stroke="#191970" d="M438.4893,-67.4669C468.8311,-59.2504 512.3852,-46.3124 549,-31 550.027,-30.5705 551.0658,-30.1165 552.1087,-29.6442"/>
<polygon fill="#191970" stroke="#191970" points="553.9715,-32.6282 561.3943,-25.0683 550.8771,-26.3493 553.9715,-32.6282"/>
</g>
<!-- Node10 -->
<g id="node11" class="node">
<title>Node10</title>
<polygon fill="#ffffff" stroke="#bfbfbf" points="616,-6 616,-25 660,-25 660,-6 616,-6"/>
<text text-anchor="middle" x="638" y="-13" font-family="Helvetica,sans-Serif" font-size="10.00" fill="#000000">vector</text>
</g>
<!-- Node0&#45;&gt;Node10 -->
<g id="edge10" class="edge">
<title>Node0&#45;&gt;Node10</title>
<path fill="none" stroke="#191970" d="M461.5848,-67.4898C503.2146,-59.9873 559.3535,-47.944 607,-31 608.4173,-30.496 609.8535,-29.9426 611.2913,-29.3542"/>
<polygon fill="#191970" stroke="#191970" points="612.9628,-32.4392 620.6211,-25.118 610.0687,-26.0655 612.9628,-32.4392"/>
</g>
<!-- Node11 -->
<g id="node12" class="node">
<title>Node11</title>
<polygon fill="#ffffff" stroke="#bfbfbf" points="678,-.5 678,-30.5 788,-30.5 788,-.5 678,-.5"/>
<text text-anchor="start" x="686" y="-18.5" font-family="Helvetica,sans-Serif" font-size="10.00" fill="#000000">boost/container/small</text>
<text text-anchor="middle" x="733" y="-7.5" font-family="Helvetica,sans-Serif" font-size="10.00" fill="#000000">_vector.hpp</text>
</g>
<!-- Node0&#45;&gt;Node11 -->
<g id="edge11" class="edge">
<title>Node0&#45;&gt;Node11</title>
<path fill="none" stroke="#191970" d="M463.4999,-67.4988C515.6188,-59.2961 592.0477,-46.6222 667.7108,-31.191"/>
<polygon fill="#191970" stroke="#191970" points="668.8056,-34.5392 677.8953,-29.096 667.3952,-27.6828 668.8056,-34.5392"/>
</g>
<!-- Node12 -->
<g id="node13" class="node">
<title>Node12</title>
<polygon fill="#ffffff" stroke="#bfbfbf" points="806.5,-.5 806.5,-30.5 907.5,-30.5 907.5,-.5 806.5,-.5"/>
<text text-anchor="start" x="814.5" y="-18.5" font-family="Helvetica,sans-Serif" font-size="10.00" fill="#000000">boost/range/iterator</text>
<text text-anchor="middle" x="857" y="-7.5" font-family="Helvetica,sans-Serif" font-size="10.00" fill="#000000">_range_core.hpp</text>
</g>
<!-- Node0&#45;&gt;Node12 -->
<g id="edge12" class="edge">
<title>Node0&#45;&gt;Node12</title>
<path fill="none" stroke="#191970" d="M465.5358,-72.2397C542.179,-65.9749 673.9808,-53.2778 796.4429,-30.9366"/>
<polygon fill="#191970" stroke="#191970" points="797.1739,-34.3608 806.3704,-29.1002 795.9006,-27.4776 797.1739,-34.3608"/>
</g>
</g>
</svg>
