<?xml version="1.0" encoding="UTF-8" standalone="no"?>
<!DOCTYPE svg PUBLIC "-//W3C//DTD SVG 1.1//EN"
 "http://www.w3.org/Graphics/SVG/1.1/DTD/svg11.dtd">
<!-- Generated by graphviz version 2.43.0 (0)
 -->
<!-- Title: nuspell::v5::Aff_Data Pages: 1 -->
<svg width="426pt" height="372pt"
 viewBox="0.00 0.00 426.00 372.00" xmlns="http://www.w3.org/2000/svg" xmlns:xlink="http://www.w3.org/1999/xlink">
<g id="graph0" class="graph" transform="scale(1 1) rotate(0) translate(4 368)">
<title>nuspell::v5::Aff_Data</title>
<polygon fill="white" stroke="transparent" points="-4,4 -4,-368 422,-368 422,4 -4,4"/>
<!-- Node1 -->
<g id="node1" class="node">
<title>Node1</title>
<g id="a_node1"><a xlink:title=" ">
<polygon fill="#bfbfbf" stroke="black" points="300,-167 300,-186 418,-186 418,-167 300,-167"/>
<text text-anchor="middle" x="359" y="-174" font-family="Helvetica,sans-Serif" font-size="10.00">nuspell::v5::Aff_Data</text>
</a>
</g>
</g>
<!-- Node2 -->
<g id="node2" class="node">
<title>Node2</title>
<g id="a_node2"><a xlink:href="classnuspell_1_1v5_1_1_suffix___table.html" target="_top" xlink:title=" ">
<polygon fill="white" stroke="black" points="24,-333.5 24,-363.5 128,-363.5 128,-333.5 24,-333.5"/>
<text text-anchor="start" x="32" y="-351.5" font-family="Helvetica,sans-Serif" font-size="10.00">nuspell::v5::Suffix</text>
<text text-anchor="middle" x="76" y="-340.5" font-family="Helvetica,sans-Serif" font-size="10.00">_Table</text>
</a>
</g>
</g>
<!-- Node2&#45;&gt;Node1 -->
<g id="edge1" class="edge">
<title>Node2&#45;&gt;Node1</title>
<path fill="none" stroke="#9a32cd" stroke-dasharray="5,2" d="M138.61,-350.71C182.33,-349.3 240.39,-341.1 282,-311.5 327.15,-279.38 348.85,-211.54 355.6,-186.26"/>
<polygon fill="#9a32cd" stroke="#9a32cd" points="138.32,-347.21 128.39,-350.92 138.46,-354.21 138.32,-347.21"/>
<text text-anchor="middle" x="226" y="-350.5" font-family="Helvetica,sans-Serif" font-size="10.00"> suffixes</text>
</g>
<!-- Node3 -->
<g id="node3" class="node">
<title>Node3</title>
<g id="a_node3"><a xlink:href="classnuspell_1_1v5_1_1_substr___replacer.html" target="_top" xlink:title=" ">
<polygon fill="white" stroke="black" points="22.5,-284.5 22.5,-314.5 129.5,-314.5 129.5,-284.5 22.5,-284.5"/>
<text text-anchor="start" x="30.5" y="-302.5" font-family="Helvetica,sans-Serif" font-size="10.00">nuspell::v5::Substr</text>
<text text-anchor="middle" x="76" y="-291.5" font-family="Helvetica,sans-Serif" font-size="10.00">_Replacer</text>
</a>
</g>
</g>
<!-- Node3&#45;&gt;Node1 -->
<g id="edge2" class="edge">
<title>Node3&#45;&gt;Node1</title>
<path fill="none" stroke="#9a32cd" stroke-dasharray="5,2" d="M139.97,-292.36C182.17,-285.58 237.87,-272.67 282,-248.5 311.65,-232.26 338.33,-201.61 350.71,-186.06"/>
<polygon fill="#9a32cd" stroke="#9a32cd" points="139.17,-288.94 129.82,-293.91 140.23,-295.86 139.17,-288.94"/>
<text text-anchor="middle" x="226" y="-299.5" font-family="Helvetica,sans-Serif" font-size="10.00"> input_substr_replacer</text>
<text text-anchor="middle" x="226" y="-288.5" font-family="Helvetica,sans-Serif" font-size="10.00">output_substr_replacer</text>
</g>
<!-- Node4 -->
<g id="node4" class="node">
<title>Node4</title>
<g id="a_node4"><a xlink:href="classnuspell_1_1v5_1_1_break___table.html" target="_top" xlink:title=" ">
<polygon fill="white" stroke="black" points="24,-235.5 24,-265.5 128,-265.5 128,-235.5 24,-235.5"/>
<text text-anchor="start" x="32" y="-253.5" font-family="Helvetica,sans-Serif" font-size="10.00">nuspell::v5::Break</text>
<text text-anchor="middle" x="76" y="-242.5" font-family="Helvetica,sans-Serif" font-size="10.00">_Table</text>
</a>
</g>
</g>
<!-- Node4&#45;&gt;Node1 -->
<g id="edge3" class="edge">
<title>Node4&#45;&gt;Node1</title>
<path fill="none" stroke="#9a32cd" stroke-dasharray="5,2" d="M138.07,-240.67C179.22,-233.33 234.46,-222.05 282,-207.5 301.21,-201.62 322.32,-192.81 337.4,-186.09"/>
<polygon fill="#9a32cd" stroke="#9a32cd" points="137.44,-237.23 128.19,-242.41 138.65,-244.12 137.44,-237.23"/>
<text text-anchor="middle" x="226" y="-236.5" font-family="Helvetica,sans-Serif" font-size="10.00"> break_table</text>
</g>
<!-- Node5 -->
<g id="node5" class="node">
<title>Node5</title>
<g id="a_node5"><a xlink:href="classnuspell_1_1v5_1_1_replacement___table.html" target="_top" xlink:title=" ">
<polygon fill="white" stroke="black" points="6,-186.5 6,-216.5 146,-216.5 146,-186.5 6,-186.5"/>
<text text-anchor="start" x="14" y="-204.5" font-family="Helvetica,sans-Serif" font-size="10.00">nuspell::v5::Replacement</text>
<text text-anchor="middle" x="76" y="-193.5" font-family="Helvetica,sans-Serif" font-size="10.00">_Table</text>
</a>
</g>
</g>
<!-- Node5&#45;&gt;Node1 -->
<g id="edge4" class="edge">
<title>Node5&#45;&gt;Node1</title>
<path fill="none" stroke="#9a32cd" stroke-dasharray="5,2" d="M156.25,-194.45C201.82,-190.39 258.09,-185.39 299.61,-181.69"/>
<polygon fill="#9a32cd" stroke="#9a32cd" points="155.75,-190.98 146.1,-195.35 156.37,-197.95 155.75,-190.98"/>
<text text-anchor="middle" x="226" y="-195.5" font-family="Helvetica,sans-Serif" font-size="10.00"> replacements</text>
</g>
<!-- Node6 -->
<g id="node6" class="node">
<title>Node6</title>
<g id="a_node6"><a xlink:href="classnuspell_1_1v5_1_1_compound___rule___table.html" target="_top" xlink:title=" ">
<polygon fill="white" stroke="black" points="12,-137.5 12,-167.5 140,-167.5 140,-137.5 12,-137.5"/>
<text text-anchor="start" x="20" y="-155.5" font-family="Helvetica,sans-Serif" font-size="10.00">nuspell::v5::Compound</text>
<text text-anchor="middle" x="76" y="-144.5" font-family="Helvetica,sans-Serif" font-size="10.00">_Rule_Table</text>
</a>
</g>
</g>
<!-- Node6&#45;&gt;Node1 -->
<g id="edge5" class="edge">
<title>Node6&#45;&gt;Node1</title>
<path fill="none" stroke="#9a32cd" stroke-dasharray="5,2" d="M150.53,-157.76C189.6,-160.67 238.43,-164.51 282,-168.5 287.81,-169.03 293.87,-169.62 299.92,-170.22"/>
<polygon fill="#9a32cd" stroke="#9a32cd" points="150.53,-154.25 140.3,-157 150.01,-161.23 150.53,-154.25"/>
<text text-anchor="middle" x="226" y="-171.5" font-family="Helvetica,sans-Serif" font-size="10.00"> compound_rules</text>
</g>
<!-- Node7 -->
<g id="node7" class="node">
<title>Node7</title>
<g id="a_node7"><a xlink:href="classnuspell_1_1v5_1_1_prefix___table.html" target="_top" xlink:title=" ">
<polygon fill="white" stroke="black" points="24,-88.5 24,-118.5 128,-118.5 128,-88.5 24,-88.5"/>
<text text-anchor="start" x="32" y="-106.5" font-family="Helvetica,sans-Serif" font-size="10.00">nuspell::v5::Prefix</text>
<text text-anchor="middle" x="76" y="-95.5" font-family="Helvetica,sans-Serif" font-size="10.00">_Table</text>
</a>
</g>
</g>
<!-- Node7&#45;&gt;Node1 -->
<g id="edge6" class="edge">
<title>Node7&#45;&gt;Node1</title>
<path fill="none" stroke="#9a32cd" stroke-dasharray="5,2" d="M138.2,-111.88C179.4,-118.39 234.65,-128.79 282,-143.5 302.06,-149.73 323.96,-159.59 339.07,-166.91"/>
<polygon fill="#9a32cd" stroke="#9a32cd" points="138.72,-108.42 128.31,-110.35 137.65,-115.34 138.72,-108.42"/>
<text text-anchor="middle" x="226" y="-146.5" font-family="Helvetica,sans-Serif" font-size="10.00"> prefixes</text>
</g>
<!-- Node8 -->
<g id="node8" class="node">
<title>Node8</title>
<g id="a_node8"><a xlink:href="classnuspell_1_1v5_1_1_encoding.html" target="_top" xlink:title=" ">
<polygon fill="white" stroke="black" points="16,-50 16,-69 136,-69 136,-50 16,-50"/>
<text text-anchor="middle" x="76" y="-57" font-family="Helvetica,sans-Serif" font-size="10.00">nuspell::v5::Encoding</text>
</a>
</g>
</g>
<!-- Node8&#45;&gt;Node1 -->
<g id="edge7" class="edge">
<title>Node8&#45;&gt;Node1</title>
<path fill="none" stroke="#9a32cd" stroke-dasharray="5,2" d="M146.09,-64.26C187.48,-69.42 240.04,-80.15 282,-102.5 312.4,-118.69 338.94,-150.71 351.04,-166.8"/>
<polygon fill="#9a32cd" stroke="#9a32cd" points="146.43,-60.77 136.09,-63.09 145.62,-67.73 146.43,-60.77"/>
<text text-anchor="middle" x="226" y="-105.5" font-family="Helvetica,sans-Serif" font-size="10.00"> encoding</text>
</g>
<!-- Node9 -->
<g id="node9" class="node">
<title>Node9</title>
<g id="a_node9"><a xlink:href="classnuspell_1_1v5_1_1_hash___multimap.html" target="_top" xlink:title=" ">
<polygon fill="white" stroke="black" points="0,-0.5 0,-30.5 152,-30.5 152,-0.5 0,-0.5"/>
<text text-anchor="start" x="8" y="-18.5" font-family="Helvetica,sans-Serif" font-size="10.00">nuspell::v5::Hash_Multimap</text>
<text text-anchor="middle" x="76" y="-7.5" font-family="Helvetica,sans-Serif" font-size="10.00">&lt; std::string, Flag_Set &gt;</text>
</a>
</g>
</g>
<!-- Node9&#45;&gt;Node1 -->
<g id="edge8" class="edge">
<title>Node9&#45;&gt;Node1</title>
<path fill="none" stroke="#9a32cd" stroke-dasharray="5,2" d="M162.43,-15.31C201.74,-18.94 247.26,-28.75 282,-52.5 324.52,-81.57 347.53,-143.05 355.13,-166.83"/>
<polygon fill="#9a32cd" stroke="#9a32cd" points="162.56,-11.81 152.31,-14.5 162,-18.79 162.56,-11.81"/>
<text text-anchor="middle" x="226" y="-55.5" font-family="Helvetica,sans-Serif" font-size="10.00"> words</text>
</g>
</g>
</svg>
