<?xml version="1.0" encoding="UTF-8" standalone="no"?>
<!DOCTYPE svg PUBLIC "-//W3C//DTD SVG 1.1//EN"
 "http://www.w3.org/Graphics/SVG/1.1/DTD/svg11.dtd">
<!-- Generated by graphviz version 2.43.0 (0)
 -->
<!-- Title: nuspell::Prefix Pages: 1 -->
<svg width="220pt" height="106pt"
 viewBox="0.00 0.00 220.00 106.00" xmlns="http://www.w3.org/2000/svg" xmlns:xlink="http://www.w3.org/1999/xlink">
<g id="graph0" class="graph" transform="scale(1 1) rotate(0) translate(4 102)">
<title>nuspell::Prefix</title>
<polygon fill="white" stroke="transparent" points="-4,4 -4,-102 216,-102 216,4 -4,4"/>
<!-- Node1 -->
<g id="node1" class="node">
<title>Node1</title>
<g id="a_node1"><a xlink:title=" ">
<polygon fill="#bfbfbf" stroke="black" points="65,-0.5 65,-19.5 144,-19.5 144,-0.5 65,-0.5"/>
<text text-anchor="middle" x="104.5" y="-7.5" font-family="Helvetica,sans-Serif" font-size="10.00">nuspell::Prefix</text>
</a>
</g>
</g>
<!-- Node2 -->
<g id="node2" class="node">
<title>Node2</title>
<g id="a_node2"><a xlink:href="classnuspell_1_1_condition.html" target="_top" xlink:title=" ">
<polygon fill="white" stroke="black" points="0,-73 0,-92 95,-92 95,-73 0,-73"/>
<text text-anchor="middle" x="47.5" y="-80" font-family="Helvetica,sans-Serif" font-size="10.00">nuspell::Condition</text>
</a>
</g>
</g>
<!-- Node2&#45;&gt;Node1 -->
<g id="edge1" class="edge">
<title>Node2&#45;&gt;Node1</title>
<path fill="none" stroke="#9a32cd" stroke-dasharray="5,2" d="M60.92,-64.9C72.37,-50.74 88.36,-30.96 97.45,-19.72"/>
<polygon fill="#9a32cd" stroke="#9a32cd" points="58.05,-62.88 54.49,-72.86 63.5,-67.28 58.05,-62.88"/>
<text text-anchor="middle" x="103" y="-41" font-family="Helvetica,sans-Serif" font-size="10.00"> condition</text>
</g>
<!-- Node3 -->
<g id="node3" class="node">
<title>Node3</title>
<g id="a_node3"><a xlink:href="classnuspell_1_1_string___set.html" target="_top" xlink:title=" ">
<polygon fill="white" stroke="black" points="113,-67.5 113,-97.5 212,-97.5 212,-67.5 113,-67.5"/>
<text text-anchor="start" x="121" y="-85.5" font-family="Helvetica,sans-Serif" font-size="10.00">nuspell::String_Set</text>
<text text-anchor="middle" x="162.5" y="-74.5" font-family="Helvetica,sans-Serif" font-size="10.00">&lt; char16_t &gt;</text>
</a>
</g>
</g>
<!-- Node3&#45;&gt;Node1 -->
<g id="edge2" class="edge">
<title>Node3&#45;&gt;Node1</title>
<path fill="none" stroke="#9a32cd" stroke-dasharray="5,2" d="M145.37,-59.02C140.05,-52.2 134.11,-44.73 128.5,-38 123.36,-31.83 117.36,-25.08 112.64,-19.88"/>
<polygon fill="#9a32cd" stroke="#9a32cd" points="142.81,-61.44 151.7,-67.21 148.35,-57.16 142.81,-61.44"/>
<text text-anchor="middle" x="161" y="-41" font-family="Helvetica,sans-Serif" font-size="10.00"> cont_flags</text>
</g>
</g>
</svg>
