<?xml version="1.0" encoding="UTF-8" standalone="no"?>
<!DOCTYPE svg PUBLIC "-//W3C//DTD SVG 1.1//EN"
 "http://www.w3.org/Graphics/SVG/1.1/DTD/svg11.dtd">
<!-- Generated by graphviz version 2.40.1 (20161225.0304)
 -->
<!-- Title: nuspell::Aff_Structures&lt; CharT &gt; Pages: 1 -->
<svg width="141pt" height="196pt"
 viewBox="0.00 0.00 141.00 196.00" xmlns="http://www.w3.org/2000/svg" xmlns:xlink="http://www.w3.org/1999/xlink">
<g id="graph0" class="graph" transform="scale(1 1) rotate(0) translate(4 192)">
<title>nuspell::Aff_Structures&lt; CharT &gt;</title>
<polygon fill="#ffffff" stroke="transparent" points="-4,4 -4,-192 137,-192 137,4 -4,4"/>
<!-- Node1 -->
<g id="node1" class="node">
<title>Node1</title>
<polygon fill="#bfbfbf" stroke="#000000" points="8.5,-.5 8.5,-30.5 124.5,-30.5 124.5,-.5 8.5,-.5"/>
<text text-anchor="start" x="16.5" y="-18.5" font-family="Helvetica,sans-Serif" font-size="10.00" fill="#000000">nuspell::Aff_Structures</text>
<text text-anchor="middle" x="66.5" y="-7.5" font-family="Helvetica,sans-Serif" font-size="10.00" fill="#000000">&lt; CharT &gt;</text>
</g>
<!-- Node2 -->
<g id="node2" class="node">
<title>Node2</title>
<g id="a_node2"><a xlink:href="classnuspell_1_1_affix___table.html" target="_top" xlink:title="nuspell::Affix_Table\l\&lt; CharT \&gt;">
<polygon fill="#ffffff" stroke="#000000" points="15,-89.5 15,-119.5 118,-119.5 118,-89.5 15,-89.5"/>
<text text-anchor="start" x="23" y="-107.5" font-family="Helvetica,sans-Serif" font-size="10.00" fill="#000000">nuspell::Affix_Table</text>
<text text-anchor="middle" x="66.5" y="-96.5" font-family="Helvetica,sans-Serif" font-size="10.00" fill="#000000">&lt; CharT &gt;</text>
</a>
</g>
</g>
<!-- Node2&#45;&gt;Node1 -->
<g id="edge1" class="edge">
<title>Node2&#45;&gt;Node1</title>
<path fill="none" stroke="#9a32cd" stroke-dasharray="5,2" d="M66.5,-79.31C66.5,-63.6343 66.5,-43.9926 66.5,-30.6717"/>
<polygon fill="#9a32cd" stroke="#9a32cd" points="63.0001,-79.4023 66.5,-89.4024 70.0001,-79.4024 63.0001,-79.4023"/>
<text text-anchor="middle" x="85.5" y="-63" font-family="Helvetica,sans-Serif" font-size="10.00" fill="#000000"> suffixes</text>
<text text-anchor="middle" x="85.5" y="-52" font-family="Helvetica,sans-Serif" font-size="10.00" fill="#000000">prefixes</text>
</g>
<!-- Node3 -->
<g id="node3" class="node">
<title>Node3</title>
<g id="a_node3"><a xlink:href="classnuspell_1_1_hash___multiset.html" target="_top" xlink:title="Affix_Table_Base\&lt; CharT,\l AffixT \&gt;">
<polygon fill="#ffffff" stroke="#000000" points="0,-157.5 0,-187.5 133,-187.5 133,-157.5 0,-157.5"/>
<text text-anchor="start" x="8" y="-175.5" font-family="Helvetica,sans-Serif" font-size="10.00" fill="#000000">Affix_Table_Base&lt; CharT,</text>
<text text-anchor="middle" x="66.5" y="-164.5" font-family="Helvetica,sans-Serif" font-size="10.00" fill="#000000"> AffixT &gt;</text>
</a>
</g>
</g>
<!-- Node3&#45;&gt;Node2 -->
<g id="edge2" class="edge">
<title>Node3&#45;&gt;Node2</title>
<path fill="none" stroke="#8b1a1a" d="M66.5,-147.1174C66.5,-137.8378 66.5,-127.6413 66.5,-119.5492"/>
<polygon fill="#8b1a1a" stroke="#8b1a1a" points="63.0001,-147.4086 66.5,-157.4086 70.0001,-147.4086 63.0001,-147.4086"/>
</g>
</g>
</svg>
