<?xml version="1.0" encoding="UTF-8" standalone="no"?>
<!DOCTYPE svg PUBLIC "-//W3C//DTD SVG 1.1//EN"
 "http://www.w3.org/Graphics/SVG/1.1/DTD/svg11.dtd">
<!-- Generated by graphviz version 2.40.1 (20161225.0304)
 -->
<!-- Title: src/nuspell/structures.cxx Pages: 1 -->
<svg width="1097pt" height="151pt"
 viewBox="0.00 0.00 1096.50 151.00" xmlns="http://www.w3.org/2000/svg" xmlns:xlink="http://www.w3.org/1999/xlink">
<g id="graph0" class="graph" transform="scale(1 1) rotate(0) translate(4 147)">
<title>src/nuspell/structures.cxx</title>
<polygon fill="#ffffff" stroke="transparent" points="-4,4 -4,-147 1092.5,-147 1092.5,4 -4,4"/>
<!-- Node0 -->
<g id="node1" class="node">
<title>Node0</title>
<polygon fill="#bfbfbf" stroke="#000000" points="266,-123.5 266,-142.5 395,-142.5 395,-123.5 266,-123.5"/>
<text text-anchor="middle" x="330.5" y="-130.5" font-family="Helvetica,sans-Serif" font-size="10.00" fill="#000000">src/nuspell/structures.cxx</text>
</g>
<!-- Node1 -->
<g id="node2" class="node">
<title>Node1</title>
<g id="a_node2"><a xlink:href="structures_8hxx.html" target="_top" xlink:title="Data structures. ">
<polygon fill="#ffffff" stroke="#000000" points="488,-67.5 488,-86.5 567,-86.5 567,-67.5 488,-67.5"/>
<text text-anchor="middle" x="527.5" y="-74.5" font-family="Helvetica,sans-Serif" font-size="10.00" fill="#000000">structures.hxx</text>
</a>
</g>
</g>
<!-- Node0&#45;&gt;Node1 -->
<g id="edge1" class="edge">
<title>Node0&#45;&gt;Node1</title>
<path fill="none" stroke="#191970" d="M364.3655,-123.3733C397.549,-113.9404 448.255,-99.5265 484.3194,-89.2747"/>
<polygon fill="#191970" stroke="#191970" points="485.4145,-92.6021 494.0764,-86.5011 483.5005,-85.8689 485.4145,-92.6021"/>
</g>
<!-- Node13 -->
<g id="node14" class="node">
<title>Node13</title>
<g id="a_node14"><a xlink:href="string__utils_8hxx.html" target="_top" xlink:title="String algorithms. ">
<polygon fill="#ffffff" stroke="#000000" points="164,-67.5 164,-86.5 247,-86.5 247,-67.5 164,-67.5"/>
<text text-anchor="middle" x="205.5" y="-74.5" font-family="Helvetica,sans-Serif" font-size="10.00" fill="#000000">string_utils.hxx</text>
</a>
</g>
</g>
<!-- Node0&#45;&gt;Node13 -->
<g id="edge13" class="edge">
<title>Node0&#45;&gt;Node13</title>
<path fill="none" stroke="#191970" d="M309.0117,-123.3733C288.856,-114.3435 258.512,-100.7494 235.882,-90.6111"/>
<polygon fill="#191970" stroke="#191970" points="237.2649,-87.3955 226.7079,-86.5011 234.4029,-93.7838 237.2649,-87.3955"/>
</g>
<!-- Node2 -->
<g id="node3" class="node">
<title>Node2</title>
<polygon fill="#ffffff" stroke="#bfbfbf" points="306.5,-6 306.5,-25 362.5,-25 362.5,-6 306.5,-6"/>
<text text-anchor="middle" x="334.5" y="-13" font-family="Helvetica,sans-Serif" font-size="10.00" fill="#000000">algorithm</text>
</g>
<!-- Node1&#45;&gt;Node2 -->
<g id="edge2" class="edge">
<title>Node1&#45;&gt;Node2</title>
<path fill="none" stroke="#191970" d="M490.8868,-67.429C459.0396,-58.8139 411.8044,-45.3355 371.5,-31 369.6299,-30.3348 367.7176,-29.6257 365.7957,-28.8905"/>
<polygon fill="#191970" stroke="#191970" points="366.8418,-25.5396 356.2568,-25.0821 364.2462,-32.0406 366.8418,-25.5396"/>
</g>
<!-- Node3 -->
<g id="node4" class="node">
<title>Node3</title>
<polygon fill="#ffffff" stroke="#bfbfbf" points="780.5,-6 780.5,-25 824.5,-25 824.5,-6 780.5,-6"/>
<text text-anchor="middle" x="802.5" y="-13" font-family="Helvetica,sans-Serif" font-size="10.00" fill="#000000">cmath</text>
</g>
<!-- Node1&#45;&gt;Node3 -->
<g id="edge3" class="edge">
<title>Node1&#45;&gt;Node3</title>
<path fill="none" stroke="#191970" d="M567.2327,-72.9383C616.2435,-67.1543 701.6451,-54.5369 771.5,-31 773.1073,-30.4584 774.7365,-29.8482 776.3633,-29.191"/>
<polygon fill="#191970" stroke="#191970" points="777.8163,-32.3752 785.4846,-25.0644 774.9309,-25.9976 777.8163,-32.3752"/>
</g>
<!-- Node4 -->
<g id="node5" class="node">
<title>Node4</title>
<polygon fill="#ffffff" stroke="#bfbfbf" points="120,-6 120,-25 167,-25 167,-6 120,-6"/>
<text text-anchor="middle" x="143.5" y="-13" font-family="Helvetica,sans-Serif" font-size="10.00" fill="#000000">iterator</text>
</g>
<!-- Node1&#45;&gt;Node4 -->
<g id="edge4" class="edge">
<title>Node1&#45;&gt;Node4</title>
<path fill="none" stroke="#191970" d="M487.9953,-75.7767C422.1532,-72.8685 286.3585,-63.1515 176.5,-31 174.5864,-30.44 172.6441,-29.7831 170.7092,-29.0616"/>
<polygon fill="#191970" stroke="#191970" points="171.8357,-25.738 161.2621,-25.0662 169.109,-32.1851 171.8357,-25.738"/>
</g>
<!-- Node5 -->
<g id="node6" class="node">
<title>Node5</title>
<polygon fill="#ffffff" stroke="#bfbfbf" points="843,-6 843,-25 902,-25 902,-6 843,-6"/>
<text text-anchor="middle" x="872.5" y="-13" font-family="Helvetica,sans-Serif" font-size="10.00" fill="#000000">stdexcept</text>
</g>
<!-- Node1&#45;&gt;Node5 -->
<g id="edge5" class="edge">
<title>Node1&#45;&gt;Node5</title>
<path fill="none" stroke="#191970" d="M567.2201,-73.9534C626.1586,-68.7795 739.8852,-56.28 833.5,-31 836.1136,-30.2942 838.7901,-29.4668 841.4561,-28.5679"/>
<polygon fill="#191970" stroke="#191970" points="842.7529,-31.8203 850.9347,-25.0892 840.3411,-25.2489 842.7529,-31.8203"/>
</g>
<!-- Node6 -->
<g id="node7" class="node">
<title>Node6</title>
<polygon fill="#ffffff" stroke="#bfbfbf" points="185,-6 185,-25 226,-25 226,-6 185,-6"/>
<text text-anchor="middle" x="205.5" y="-13" font-family="Helvetica,sans-Serif" font-size="10.00" fill="#000000">string</text>
</g>
<!-- Node1&#45;&gt;Node6 -->
<g id="edge6" class="edge">
<title>Node1&#45;&gt;Node6</title>
<path fill="none" stroke="#191970" d="M487.8336,-74.7803C430.7756,-70.6929 322.7974,-59.5976 235.5,-31 234.0376,-30.5209 232.5596,-29.9771 231.0848,-29.3869"/>
<polygon fill="#191970" stroke="#191970" points="232.1391,-26.0191 221.5922,-25.0126 229.2095,-32.3766 232.1391,-26.0191"/>
</g>
<!-- Node7 -->
<g id="node8" class="node">
<title>Node7</title>
<polygon fill="#ffffff" stroke="#bfbfbf" points="920.5,-6 920.5,-25 960.5,-25 960.5,-6 920.5,-6"/>
<text text-anchor="middle" x="940.5" y="-13" font-family="Helvetica,sans-Serif" font-size="10.00" fill="#000000">utility</text>
</g>
<!-- Node1&#45;&gt;Node7 -->
<g id="edge7" class="edge">
<title>Node1&#45;&gt;Node7</title>
<path fill="none" stroke="#191970" d="M567.295,-74.1095C652.0736,-67.6472 847.9367,-51.0138 911.5,-31 912.9294,-30.5499 914.3705,-30.0292 915.806,-29.457"/>
<polygon fill="#191970" stroke="#191970" points="917.4453,-32.5541 925.0122,-25.1383 914.4724,-26.2167 917.4453,-32.5541"/>
</g>
<!-- Node8 -->
<g id="node9" class="node">
<title>Node8</title>
<polygon fill="#ffffff" stroke="#bfbfbf" points="244.5,-6 244.5,-25 288.5,-25 288.5,-6 244.5,-6"/>
<text text-anchor="middle" x="266.5" y="-13" font-family="Helvetica,sans-Serif" font-size="10.00" fill="#000000">vector</text>
</g>
<!-- Node1&#45;&gt;Node8 -->
<g id="edge8" class="edge">
<title>Node1&#45;&gt;Node8</title>
<path fill="none" stroke="#191970" d="M487.5903,-72.3008C441.0401,-66.0745 362.2089,-53.2021 297.5,-31 295.8957,-30.4496 294.2689,-29.8324 292.6439,-29.1699"/>
<polygon fill="#191970" stroke="#191970" points="294.0798,-25.9781 283.5276,-25.0286 291.1846,-32.3513 294.0798,-25.9781"/>
</g>
<!-- Node9 -->
<g id="node10" class="node">
<title>Node9</title>
<polygon fill="#ffffff" stroke="#bfbfbf" points="978.5,-.5 978.5,-30.5 1088.5,-30.5 1088.5,-.5 978.5,-.5"/>
<text text-anchor="start" x="986.5" y="-18.5" font-family="Helvetica,sans-Serif" font-size="10.00" fill="#000000">boost/container/small</text>
<text text-anchor="middle" x="1033.5" y="-7.5" font-family="Helvetica,sans-Serif" font-size="10.00" fill="#000000">_vector.hpp</text>
</g>
<!-- Node1&#45;&gt;Node9 -->
<g id="edge9" class="edge">
<title>Node1&#45;&gt;Node9</title>
<path fill="none" stroke="#191970" d="M567.0642,-74.6661C643.0146,-69.8015 814.6109,-56.9539 968.3408,-31.0552"/>
<polygon fill="#191970" stroke="#191970" points="969.1717,-34.4641 978.4397,-29.3304 967.9932,-27.564 969.1717,-34.4641"/>
</g>
<!-- Node10 -->
<g id="node11" class="node">
<title>Node10</title>
<polygon fill="#ffffff" stroke="#bfbfbf" points="380.5,-6 380.5,-25 530.5,-25 530.5,-6 380.5,-6"/>
<text text-anchor="middle" x="455.5" y="-13" font-family="Helvetica,sans-Serif" font-size="10.00" fill="#000000">boost/multi_index/member.hpp</text>
</g>
<!-- Node1&#45;&gt;Node10 -->
<g id="edge10" class="edge">
<title>Node1&#45;&gt;Node10</title>
<path fill="none" stroke="#191970" d="M516.25,-67.3906C505.114,-57.8786 487.854,-43.1357 474.5732,-31.7917"/>
<polygon fill="#191970" stroke="#191970" points="476.7856,-29.0784 466.9086,-25.2449 472.2392,-34.4011 476.7856,-29.0784"/>
</g>
<!-- Node11 -->
<g id="node12" class="node">
<title>Node11</title>
<polygon fill="#ffffff" stroke="#bfbfbf" points="549,-.5 549,-30.5 650,-30.5 650,-.5 549,-.5"/>
<text text-anchor="start" x="557" y="-18.5" font-family="Helvetica,sans-Serif" font-size="10.00" fill="#000000">boost/range/iterator</text>
<text text-anchor="middle" x="599.5" y="-7.5" font-family="Helvetica,sans-Serif" font-size="10.00" fill="#000000">_range_core.hpp</text>
</g>
<!-- Node1&#45;&gt;Node11 -->
<g id="edge11" class="edge">
<title>Node1&#45;&gt;Node11</title>
<path fill="none" stroke="#191970" d="M538.75,-67.3906C548.2236,-59.2986 562.1294,-47.4207 574.2468,-37.0705"/>
<polygon fill="#191970" stroke="#191970" points="576.5563,-39.7008 581.8868,-30.5446 572.0098,-34.3782 576.5563,-39.7008"/>
</g>
<!-- Node12 -->
<g id="node13" class="node">
<title>Node12</title>
<polygon fill="#ffffff" stroke="#bfbfbf" points="668.5,-.5 668.5,-30.5 762.5,-30.5 762.5,-.5 668.5,-.5"/>
<text text-anchor="start" x="676.5" y="-18.5" font-family="Helvetica,sans-Serif" font-size="10.00" fill="#000000">boost/utility/string</text>
<text text-anchor="middle" x="715.5" y="-7.5" font-family="Helvetica,sans-Serif" font-size="10.00" fill="#000000">_view.hpp</text>
</g>
<!-- Node1&#45;&gt;Node12 -->
<g id="edge12" class="edge">
<title>Node1&#45;&gt;Node12</title>
<path fill="none" stroke="#191970" d="M556.875,-67.3906C584.321,-58.4123 626.0135,-44.7735 659.7676,-33.7316"/>
<polygon fill="#191970" stroke="#191970" points="661.0939,-36.9803 669.51,-30.5446 658.9174,-30.3273 661.0939,-36.9803"/>
</g>
<!-- Node13&#45;&gt;Node2 -->
<g id="edge14" class="edge">
<title>Node13&#45;&gt;Node2</title>
<path fill="none" stroke="#191970" d="M225.6563,-67.3906C247.051,-57.1908 281.062,-40.9763 305.3702,-29.3875"/>
<polygon fill="#191970" stroke="#191970" points="306.9648,-32.5047 314.4853,-25.0419 303.9524,-26.186 306.9648,-32.5047"/>
</g>
<!-- Node13&#45;&gt;Node4 -->
<g id="edge15" class="edge">
<title>Node13&#45;&gt;Node4</title>
<path fill="none" stroke="#191970" d="M195.8125,-67.3906C186.4041,-58.0581 171.9193,-43.6902 160.5751,-32.4374"/>
<polygon fill="#191970" stroke="#191970" points="162.8886,-29.8024 153.3241,-25.2449 157.9589,-34.7722 162.8886,-29.8024"/>
</g>
<!-- Node13&#45;&gt;Node6 -->
<g id="edge18" class="edge">
<title>Node13&#45;&gt;Node6</title>
<path fill="none" stroke="#191970" d="M205.5,-67.3906C205.5,-58.8657 205.5,-46.1392 205.5,-35.4235"/>
<polygon fill="#191970" stroke="#191970" points="209.0001,-35.2448 205.5,-25.2449 202.0001,-35.2449 209.0001,-35.2448"/>
</g>
<!-- Node13&#45;&gt;Node8 -->
<g id="edge19" class="edge">
<title>Node13&#45;&gt;Node8</title>
<path fill="none" stroke="#191970" d="M215.0313,-67.3906C224.2879,-58.0581 238.539,-43.6902 249.7003,-32.4374"/>
<polygon fill="#191970" stroke="#191970" points="252.2772,-34.8095 256.8344,-25.2449 247.3072,-29.88 252.2772,-34.8095"/>
</g>
<!-- Node14 -->
<g id="node15" class="node">
<title>Node14</title>
<polygon fill="#ffffff" stroke="#bfbfbf" points="59.5,-6 59.5,-25 101.5,-25 101.5,-6 59.5,-6"/>
<text text-anchor="middle" x="80.5" y="-13" font-family="Helvetica,sans-Serif" font-size="10.00" fill="#000000">locale</text>
</g>
<!-- Node13&#45;&gt;Node14 -->
<g id="edge16" class="edge">
<title>Node13&#45;&gt;Node14</title>
<path fill="none" stroke="#191970" d="M185.4099,-67.4583C166.1308,-58.2578 136.2292,-43.8732 110.5,-31 109.6743,-30.5869 108.8366,-30.1659 107.9915,-29.7396"/>
<polygon fill="#191970" stroke="#191970" points="109.3639,-26.5106 98.8655,-25.0844 106.183,-32.7462 109.3639,-26.5106"/>
</g>
<!-- Node15 -->
<g id="node16" class="node">
<title>Node15</title>
<polygon fill="#ffffff" stroke="#bfbfbf" points="0,-6 0,-25 41,-25 41,-6 0,-6"/>
<text text-anchor="middle" x="20.5" y="-13" font-family="Helvetica,sans-Serif" font-size="10.00" fill="#000000">stack</text>
</g>
<!-- Node13&#45;&gt;Node15 -->
<g id="edge17" class="edge">
<title>Node13&#45;&gt;Node15</title>
<path fill="none" stroke="#191970" d="M165.9472,-67.4636C134.2036,-59.2886 88.7777,-46.4083 50.5,-31 49.307,-30.5198 48.0981,-30.008 46.8849,-29.4737"/>
<polygon fill="#191970" stroke="#191970" points="48.2219,-26.2336 37.6896,-25.0835 45.2059,-32.5505 48.2219,-26.2336"/>
</g>
</g>
</svg>
