<?xml version="1.0" encoding="UTF-8" standalone="no"?>
<!DOCTYPE svg PUBLIC "-//W3C//DTD SVG 1.1//EN"
 "http://www.w3.org/Graphics/SVG/1.1/DTD/svg11.dtd">
<!-- Generated by graphviz version 2.40.1 (20161225.0304)
 -->
<!-- Title: nuspell::Dict_Base::spell_priv Pages: 1 -->
<svg width="250pt" height="116pt"
 viewBox="0.00 0.00 250.00 115.50" xmlns="http://www.w3.org/2000/svg" xmlns:xlink="http://www.w3.org/1999/xlink">
<g id="graph0" class="graph" transform="scale(1 1) rotate(0) translate(4 111.5)">
<title>nuspell::Dict_Base::spell_priv</title>
<polygon fill="#ffffff" stroke="transparent" points="-4,4 -4,-111.5 246,-111.5 246,4 -4,4"/>
<!-- Node59 -->
<g id="node1" class="node">
<title>Node59</title>
<polygon fill="#bfbfbf" stroke="#000000" points="0,-44.5 0,-74.5 99,-74.5 99,-44.5 0,-44.5"/>
<text text-anchor="start" x="8" y="-62.5" font-family="Helvetica,sans-Serif" font-size="10.00" fill="#000000">nuspell::Dict_Base</text>
<text text-anchor="middle" x="49.5" y="-51.5" font-family="Helvetica,sans-Serif" font-size="10.00" fill="#000000">::spell_priv</text>
</g>
<!-- Node60 -->
<g id="node2" class="node">
<title>Node60</title>
<g id="a_node2"><a xlink:href="namespacenuspell.html#ac7e8eea65ba4b7e20168229192ca81dd" target="_top" xlink:title="Tests if word is a number. ">
<polygon fill="#ffffff" stroke="#000000" points="139.5,-88 139.5,-107 237.5,-107 237.5,-88 139.5,-88"/>
<text text-anchor="middle" x="188.5" y="-95" font-family="Helvetica,sans-Serif" font-size="10.00" fill="#000000">nuspell::is_number</text>
</a>
</g>
</g>
<!-- Node59&#45;&gt;Node60 -->
<g id="edge1" class="edge">
<title>Node59&#45;&gt;Node60</title>
<path fill="none" stroke="#191970" d="M99.2896,-73.1115C113.7071,-77.053 129.3583,-81.3318 143.4673,-85.1889"/>
<polygon fill="#191970" stroke="#191970" points="142.8596,-88.6511 153.4286,-87.9121 144.7056,-81.8989 142.8596,-88.6511"/>
</g>
<!-- Node61 -->
<g id="node3" class="node">
<title>Node61</title>
<g id="a_node3"><a xlink:href="namespacenuspell.html#a7f9d46d315680708283bd79ad729333d" target="_top" xlink:title="nuspell::erase_chars">
<polygon fill="#ffffff" stroke="#000000" points="135,-50 135,-69 242,-69 242,-50 135,-50"/>
<text text-anchor="middle" x="188.5" y="-57" font-family="Helvetica,sans-Serif" font-size="10.00" fill="#000000">nuspell::erase_chars</text>
</a>
</g>
</g>
<!-- Node59&#45;&gt;Node61 -->
<g id="edge2" class="edge">
<title>Node59&#45;&gt;Node61</title>
<path fill="none" stroke="#191970" d="M99.2896,-59.5C107.4861,-59.5 116.0813,-59.5 124.5652,-59.5"/>
<polygon fill="#191970" stroke="#191970" points="124.8243,-63.0001 134.8242,-59.5 124.8242,-56.0001 124.8243,-63.0001"/>
</g>
<!-- Node62 -->
<g id="node4" class="node">
<title>Node62</title>
<g id="a_node4"><a xlink:href="structnuspell_1_1_dict___base.html#ae3ee0c9279781153f92d62fb8d4b99f7" target="_top" xlink:title="nuspell::Dict_Base\l::spell_priv">
<polygon fill="#ffffff" stroke="#000000" points="139,-.5 139,-30.5 238,-30.5 238,-.5 139,-.5"/>
<text text-anchor="start" x="147" y="-18.5" font-family="Helvetica,sans-Serif" font-size="10.00" fill="#000000">nuspell::Dict_Base</text>
<text text-anchor="middle" x="188.5" y="-7.5" font-family="Helvetica,sans-Serif" font-size="10.00" fill="#000000">::spell_priv</text>
</a>
</g>
</g>
<!-- Node59&#45;&gt;Node62 -->
<g id="edge3" class="edge">
<title>Node59&#45;&gt;Node62</title>
<path fill="none" stroke="#191970" d="M96.9471,-44.4808C107.8963,-41.0148 119.6601,-37.2911 130.9859,-33.7059"/>
<polygon fill="#191970" stroke="#191970" points="132.3173,-36.9557 140.7948,-30.6009 130.2047,-30.2821 132.3173,-36.9557"/>
</g>
</g>
</svg>
