<?xml version="1.0" encoding="UTF-8" standalone="no"?>
<!DOCTYPE svg PUBLIC "-//W3C//DTD SVG 1.1//EN"
 "http://www.w3.org/Graphics/SVG/1.1/DTD/svg11.dtd">
<!-- Generated by graphviz version 2.40.1 (20161225.0304)
 -->
<!-- Title: nuspell::Dict_Base::strip_pfx_then_sfx_comm_2 Pages: 1 -->
<svg width="250pt" height="88pt"
 viewBox="0.00 0.00 250.00 88.00" xmlns="http://www.w3.org/2000/svg" xmlns:xlink="http://www.w3.org/1999/xlink">
<g id="graph0" class="graph" transform="scale(1 1) rotate(0) translate(4 84)">
<title>nuspell::Dict_Base::strip_pfx_then_sfx_comm_2</title>
<polygon fill="#ffffff" stroke="transparent" points="-4,4 -4,-84 246,-84 246,4 -4,4"/>
<!-- Node74 -->
<g id="node1" class="node">
<title>Node74</title>
<polygon fill="#bfbfbf" stroke="#000000" points="0,-19 0,-60 103,-60 103,-19 0,-19"/>
<text text-anchor="start" x="8" y="-48" font-family="Helvetica,sans-Serif" font-size="10.00" fill="#000000">nuspell::Dict_Base</text>
<text text-anchor="start" x="8" y="-37" font-family="Helvetica,sans-Serif" font-size="10.00" fill="#000000">::strip_pfx_then_sfx</text>
<text text-anchor="middle" x="51.5" y="-26" font-family="Helvetica,sans-Serif" font-size="10.00" fill="#000000">_comm_2</text>
</g>
<!-- Node75 -->
<g id="node2" class="node">
<title>Node75</title>
<g id="a_node2"><a xlink:href="classnuspell_1_1_string___set.html#ad1eeb2a3564c02c49f31b98299e493df" target="_top" xlink:title="nuspell::String_Set\l::contains">
<polygon fill="#ffffff" stroke="#000000" points="141,-49.5 141,-79.5 240,-79.5 240,-49.5 141,-49.5"/>
<text text-anchor="start" x="149" y="-67.5" font-family="Helvetica,sans-Serif" font-size="10.00" fill="#000000">nuspell::String_Set</text>
<text text-anchor="middle" x="190.5" y="-56.5" font-family="Helvetica,sans-Serif" font-size="10.00" fill="#000000">::contains</text>
</a>
</g>
</g>
<!-- Node74&#45;&gt;Node75 -->
<g id="edge1" class="edge">
<title>Node74&#45;&gt;Node75</title>
<path fill="none" stroke="#191970" d="M103.2585,-48.8091C112.1193,-50.4027 121.3924,-52.0706 130.4476,-53.6992"/>
<polygon fill="#191970" stroke="#191970" points="130.0832,-57.1898 140.5449,-55.5153 131.3224,-50.3003 130.0832,-57.1898"/>
</g>
<!-- Node76 -->
<g id="node3" class="node">
<title>Node76</title>
<g id="a_node3"><a xlink:href="namespacenuspell.html#a8529ccc887c031a3c1340c607eaac017" target="_top" xlink:title="nuspell::cross_valid\l_inner_outer">
<polygon fill="#ffffff" stroke="#000000" points="139,-.5 139,-30.5 242,-30.5 242,-.5 139,-.5"/>
<text text-anchor="start" x="147" y="-18.5" font-family="Helvetica,sans-Serif" font-size="10.00" fill="#000000">nuspell::cross_valid</text>
<text text-anchor="middle" x="190.5" y="-7.5" font-family="Helvetica,sans-Serif" font-size="10.00" fill="#000000">_inner_outer</text>
</a>
</g>
</g>
<!-- Node74&#45;&gt;Node76 -->
<g id="edge2" class="edge">
<title>Node74&#45;&gt;Node76</title>
<path fill="none" stroke="#191970" d="M103.2585,-30.5633C111.5802,-29.1264 120.2656,-27.6268 128.7925,-26.1545"/>
<polygon fill="#191970" stroke="#191970" points="129.4396,-29.5947 138.6983,-24.4442 128.2486,-22.6967 129.4396,-29.5947"/>
</g>
</g>
</svg>
