<?xml version="1.0" encoding="UTF-8" standalone="no"?>
<!DOCTYPE svg PUBLIC "-//W3C//DTD SVG 1.1//EN"
 "http://www.w3.org/Graphics/SVG/1.1/DTD/svg11.dtd">
<!-- Generated by graphviz version 2.40.1 (20161225.0304)
 -->
<!-- Title: nuspell::Basic_Dictionary&lt; InputEncodingTraits &gt; Pages: 1 -->
<svg width="230pt" height="151pt"
 viewBox="0.00 0.00 229.50 151.00" xmlns="http://www.w3.org/2000/svg" xmlns:xlink="http://www.w3.org/1999/xlink">
<g id="graph0" class="graph" transform="scale(1 1) rotate(0) translate(4 147)">
<title>nuspell::Basic_Dictionary&lt; InputEncodingTraits &gt;</title>
<polygon fill="#ffffff" stroke="transparent" points="-4,4 -4,-147 225.5,-147 225.5,4 -4,4"/>
<!-- Node0 -->
<g id="node1" class="node">
<title>Node0</title>
<polygon fill="#bfbfbf" stroke="#000000" points="45.5,-.5 45.5,-30.5 173.5,-30.5 173.5,-.5 45.5,-.5"/>
<text text-anchor="start" x="53.5" y="-18.5" font-family="Helvetica,sans-Serif" font-size="10.00" fill="#000000">nuspell::Basic_Dictionary</text>
<text text-anchor="middle" x="109.5" y="-7.5" font-family="Helvetica,sans-Serif" font-size="10.00" fill="#000000">&lt; InputEncodingTraits &gt;</text>
</g>
<!-- Node1 -->
<g id="node2" class="node">
<title>Node1</title>
<g id="a_node2"><a xlink:href="structnuspell_1_1_dict___base.html" target="_top" xlink:title="nuspell::Dict_Base">
<polygon fill="#ffffff" stroke="#000000" points="0,-67.5 0,-86.5 99,-86.5 99,-67.5 0,-67.5"/>
<text text-anchor="middle" x="49.5" y="-74.5" font-family="Helvetica,sans-Serif" font-size="10.00" fill="#000000">nuspell::Dict_Base</text>
</a>
</g>
</g>
<!-- Node1&#45;&gt;Node0 -->
<g id="edge1" class="edge">
<title>Node1&#45;&gt;Node0</title>
<path fill="none" stroke="#006400" d="M65.8804,-60.2101C74.9241,-50.9403 86.0641,-39.5218 94.8223,-30.5446"/>
<polygon fill="#006400" stroke="#006400" points="63.353,-57.7886 58.875,-67.3906 68.3635,-62.6769 63.353,-57.7886"/>
</g>
<!-- Node2 -->
<g id="node3" class="node">
<title>Node2</title>
<g id="a_node3"><a xlink:href="structnuspell_1_1_aff___data.html" target="_top" xlink:title="nuspell::Aff_Data">
<polygon fill="#ffffff" stroke="#000000" points="3.5,-123.5 3.5,-142.5 95.5,-142.5 95.5,-123.5 3.5,-123.5"/>
<text text-anchor="middle" x="49.5" y="-130.5" font-family="Helvetica,sans-Serif" font-size="10.00" fill="#000000">nuspell::Aff_Data</text>
</a>
</g>
</g>
<!-- Node2&#45;&gt;Node1 -->
<g id="edge2" class="edge">
<title>Node2&#45;&gt;Node1</title>
<path fill="none" stroke="#191970" d="M49.5,-113.1575C49.5,-104.155 49.5,-93.9199 49.5,-86.6427"/>
<polygon fill="#191970" stroke="#191970" points="46.0001,-113.2455 49.5,-123.2455 53.0001,-113.2456 46.0001,-113.2455"/>
</g>
<!-- Node3 -->
<g id="node4" class="node">
<title>Node3</title>
<polygon fill="#ffffff" stroke="#bfbfbf" points="117.5,-67.5 117.5,-86.5 221.5,-86.5 221.5,-67.5 117.5,-67.5"/>
<text text-anchor="middle" x="169.5" y="-74.5" font-family="Helvetica,sans-Serif" font-size="10.00" fill="#000000">InputEncodingTraits</text>
</g>
<!-- Node3&#45;&gt;Node0 -->
<g id="edge3" class="edge">
<title>Node3&#45;&gt;Node0</title>
<path fill="none" stroke="#191970" d="M153.1196,-60.2101C144.0759,-50.9403 132.9359,-39.5218 124.1777,-30.5446"/>
<polygon fill="#191970" stroke="#191970" points="150.6365,-62.6769 160.125,-67.3906 155.647,-57.7886 150.6365,-62.6769"/>
</g>
</g>
</svg>
