<?xml version="1.0" encoding="UTF-8" standalone="no"?>
<!DOCTYPE svg PUBLIC "-//W3C//DTD SVG 1.1//EN"
 "http://www.w3.org/Graphics/SVG/1.1/DTD/svg11.dtd">
<!-- Generated by graphviz version 2.40.1 (20161225.0304)
 -->
<!-- Title: nuspell::Directory::open Pages: 1 -->
<svg width="396pt" height="39pt"
 viewBox="0.00 0.00 396.00 39.00" xmlns="http://www.w3.org/2000/svg" xmlns:xlink="http://www.w3.org/1999/xlink">
<g id="graph0" class="graph" transform="scale(1 1) rotate(0) translate(4 35)">
<title>nuspell::Directory::open</title>
<polygon fill="#ffffff" stroke="transparent" points="-4,4 -4,-35 392,-35 392,4 -4,4"/>
<!-- Node16 -->
<g id="node1" class="node">
<title>Node16</title>
<polygon fill="#bfbfbf" stroke="#000000" points="0,-.5 0,-30.5 93,-30.5 93,-.5 0,-.5"/>
<text text-anchor="start" x="8" y="-18.5" font-family="Helvetica,sans-Serif" font-size="10.00" fill="#000000">nuspell::Directory</text>
<text text-anchor="middle" x="46.5" y="-7.5" font-family="Helvetica,sans-Serif" font-size="10.00" fill="#000000">::open</text>
</g>
<!-- Node17 -->
<g id="node2" class="node">
<title>Node17</title>
<g id="a_node2"><a xlink:href="namespacenuspell.html#adf3b41b78ea359884e579dd686895da2" target="_top" xlink:title="Searches directory for dictionaries. ">
<polygon fill="#ffffff" stroke="#000000" points="129,-.5 129,-30.5 236,-30.5 236,-.5 129,-.5"/>
<text text-anchor="start" x="137" y="-18.5" font-family="Helvetica,sans-Serif" font-size="10.00" fill="#000000">nuspell::search_path</text>
<text text-anchor="middle" x="182.5" y="-7.5" font-family="Helvetica,sans-Serif" font-size="10.00" fill="#000000">_for_dicts</text>
</a>
</g>
</g>
<!-- Node16&#45;&gt;Node17 -->
<g id="edge1" class="edge">
<title>Node16&#45;&gt;Node17</title>
<path fill="none" stroke="#191970" d="M103.3499,-15.5C111.7091,-15.5 120.2993,-15.5 128.5966,-15.5"/>
<polygon fill="#191970" stroke="#191970" points="103.3035,-12.0001 93.3035,-15.5 103.3035,-19.0001 103.3035,-12.0001"/>
</g>
<!-- Node18 -->
<g id="node3" class="node">
<title>Node18</title>
<g id="a_node3"><a xlink:href="classnuspell_1_1_finder.html#aa5764b6b9159ca5523821051b0ee2262" target="_top" xlink:title="Searches the added directories for dictionaries. ">
<polygon fill="#ffffff" stroke="#000000" points="272,-.5 272,-30.5 388,-30.5 388,-.5 272,-.5"/>
<text text-anchor="start" x="280" y="-18.5" font-family="Helvetica,sans-Serif" font-size="10.00" fill="#000000">nuspell::Finder::search</text>
<text text-anchor="middle" x="330" y="-7.5" font-family="Helvetica,sans-Serif" font-size="10.00" fill="#000000">_for_dictionaries</text>
</a>
</g>
</g>
<!-- Node17&#45;&gt;Node18 -->
<g id="edge2" class="edge">
<title>Node17&#45;&gt;Node18</title>
<path fill="none" stroke="#191970" d="M246.3894,-15.5C254.8662,-15.5 263.52,-15.5 271.8918,-15.5"/>
<polygon fill="#191970" stroke="#191970" points="246.1682,-12.0001 236.1681,-15.5 246.1681,-19.0001 246.1682,-12.0001"/>
</g>
</g>
</svg>
