<?xml version="1.0" encoding="UTF-8" standalone="no"?>
<!DOCTYPE svg PUBLIC "-//W3C//DTD SVG 1.1//EN"
 "http://www.w3.org/Graphics/SVG/1.1/DTD/svg11.dtd">
<!-- Generated by graphviz version 2.40.1 (20161225.0304)
 -->
<!-- Title: nuspell::Globber::copy_glob_paths Pages: 1 -->
<svg width="423pt" height="137pt"
 viewBox="0.00 0.00 423.00 137.00" xmlns="http://www.w3.org/2000/svg" xmlns:xlink="http://www.w3.org/1999/xlink">
<g id="graph0" class="graph" transform="scale(1 1) rotate(0) translate(4 133)">
<title>nuspell::Globber::copy_glob_paths</title>
<polygon fill="#ffffff" stroke="transparent" points="-4,4 -4,-133 419,-133 419,4 -4,4"/>
<!-- Node7 -->
<g id="node1" class="node">
<title>Node7</title>
<polygon fill="#bfbfbf" stroke="#000000" points="0,-49.5 0,-79.5 114,-79.5 114,-49.5 0,-49.5"/>
<text text-anchor="start" x="8" y="-67.5" font-family="Helvetica,sans-Serif" font-size="10.00" fill="#000000">nuspell::Globber::copy</text>
<text text-anchor="middle" x="57" y="-56.5" font-family="Helvetica,sans-Serif" font-size="10.00" fill="#000000">_glob_paths</text>
</g>
<!-- Node8 -->
<g id="node2" class="node">
<title>Node8</title>
<g id="a_node2"><a xlink:href="namespacenuspell.html#ae0600d47d2f5dd17332137e3254d9642" target="_top" xlink:title="Gets the Mozilla search paths. ">
<polygon fill="#ffffff" stroke="#000000" points="157,-98.5 157,-128.5 260,-128.5 260,-98.5 157,-98.5"/>
<text text-anchor="start" x="165" y="-116.5" font-family="Helvetica,sans-Serif" font-size="10.00" fill="#000000">nuspell::get_mozilla</text>
<text text-anchor="middle" x="208.5" y="-105.5" font-family="Helvetica,sans-Serif" font-size="10.00" fill="#000000">_paths</text>
</a>
</g>
</g>
<!-- Node7&#45;&gt;Node8 -->
<g id="edge1" class="edge">
<title>Node7&#45;&gt;Node8</title>
<path fill="none" stroke="#191970" d="M113.4541,-82.7591C129.4333,-87.9273 146.6398,-93.4924 161.963,-98.4484"/>
<polygon fill="#191970" stroke="#191970" points="114.283,-79.3487 103.6912,-79.6014 112.1288,-86.009 114.283,-79.3487"/>
</g>
<!-- Node10 -->
<g id="node4" class="node">
<title>Node10</title>
<g id="a_node4"><a xlink:href="namespacenuspell.html#a18da8631cb0b014f0f918cf444946921" target="_top" xlink:title="Gets the LibreOffice search paths. ">
<polygon fill="#ffffff" stroke="#000000" points="151.5,-49.5 151.5,-79.5 265.5,-79.5 265.5,-49.5 151.5,-49.5"/>
<text text-anchor="start" x="159.5" y="-67.5" font-family="Helvetica,sans-Serif" font-size="10.00" fill="#000000">nuspell::get_libreoffice</text>
<text text-anchor="middle" x="208.5" y="-56.5" font-family="Helvetica,sans-Serif" font-size="10.00" fill="#000000">_paths</text>
</a>
</g>
</g>
<!-- Node7&#45;&gt;Node10 -->
<g id="edge3" class="edge">
<title>Node7&#45;&gt;Node10</title>
<path fill="none" stroke="#191970" d="M124.3662,-64.5C133.3886,-64.5 142.5716,-64.5 151.3947,-64.5"/>
<polygon fill="#191970" stroke="#191970" points="124.2757,-61.0001 114.2757,-64.5 124.2756,-68.0001 124.2757,-61.0001"/>
</g>
<!-- Node12 -->
<g id="node6" class="node">
<title>Node12</title>
<g id="a_node6"><a xlink:href="namespacenuspell.html#ad59b0ec5004ed1985b64eb6ec6fb4cd1" target="_top" xlink:title="Gets the Apache OpenOffice search paths. ">
<polygon fill="#ffffff" stroke="#000000" points="150,-.5 150,-30.5 267,-30.5 267,-.5 150,-.5"/>
<text text-anchor="start" x="158" y="-18.5" font-family="Helvetica,sans-Serif" font-size="10.00" fill="#000000">nuspell::get_openoffice</text>
<text text-anchor="middle" x="208.5" y="-7.5" font-family="Helvetica,sans-Serif" font-size="10.00" fill="#000000">_paths</text>
</a>
</g>
</g>
<!-- Node7&#45;&gt;Node12 -->
<g id="edge5" class="edge">
<title>Node7&#45;&gt;Node12</title>
<path fill="none" stroke="#191970" d="M113.4541,-46.2409C129.4333,-41.0727 146.6398,-35.5076 161.963,-30.5516"/>
<polygon fill="#191970" stroke="#191970" points="112.1288,-42.991 103.6912,-49.3986 114.283,-49.6513 112.1288,-42.991"/>
</g>
<!-- Node9 -->
<g id="node3" class="node">
<title>Node9</title>
<g id="a_node3"><a xlink:href="classnuspell_1_1_finder.html#a181c5b065f8fa76ed26e079aa24a84d4" target="_top" xlink:title="Adds the Mozilla directory paths which may containt dictionaries. ">
<polygon fill="#ffffff" stroke="#000000" points="308,-98.5 308,-128.5 410,-128.5 410,-98.5 308,-98.5"/>
<text text-anchor="start" x="316" y="-116.5" font-family="Helvetica,sans-Serif" font-size="10.00" fill="#000000">nuspell::Finder::add</text>
<text text-anchor="middle" x="359" y="-105.5" font-family="Helvetica,sans-Serif" font-size="10.00" fill="#000000">_mozilla_dir_paths</text>
</a>
</g>
</g>
<!-- Node8&#45;&gt;Node9 -->
<g id="edge2" class="edge">
<title>Node8&#45;&gt;Node9</title>
<path fill="none" stroke="#191970" d="M270.5712,-113.5C282.9814,-113.5 295.8853,-113.5 307.8753,-113.5"/>
<polygon fill="#191970" stroke="#191970" points="270.2936,-110.0001 260.2936,-113.5 270.2935,-117.0001 270.2936,-110.0001"/>
</g>
<!-- Node11 -->
<g id="node5" class="node">
<title>Node11</title>
<g id="a_node5"><a xlink:href="classnuspell_1_1_finder.html#a21224942e6684c8722b9eb0d213e65c3" target="_top" xlink:title="Adds the LibreOffice directory paths which may containt dictionaries. ">
<polygon fill="#ffffff" stroke="#000000" points="304.5,-49.5 304.5,-79.5 413.5,-79.5 413.5,-49.5 304.5,-49.5"/>
<text text-anchor="start" x="312.5" y="-67.5" font-family="Helvetica,sans-Serif" font-size="10.00" fill="#000000">nuspell::Finder::add</text>
<text text-anchor="middle" x="359" y="-56.5" font-family="Helvetica,sans-Serif" font-size="10.00" fill="#000000">_libreoffice_dir_paths</text>
</a>
</g>
</g>
<!-- Node10&#45;&gt;Node11 -->
<g id="edge4" class="edge">
<title>Node10&#45;&gt;Node11</title>
<path fill="none" stroke="#191970" d="M276.0111,-64.5C285.4829,-64.5 295.12,-64.5 304.3135,-64.5"/>
<polygon fill="#191970" stroke="#191970" points="275.827,-61.0001 265.8269,-64.5 275.8269,-68.0001 275.827,-61.0001"/>
</g>
<!-- Node13 -->
<g id="node7" class="node">
<title>Node13</title>
<g id="a_node7"><a xlink:href="classnuspell_1_1_finder.html#a10db179542bffb40614b74d581e293cf" target="_top" xlink:title="Adds the OpenOffice directory paths which may containt dictionaries. ">
<polygon fill="#ffffff" stroke="#000000" points="303,-.5 303,-30.5 415,-30.5 415,-.5 303,-.5"/>
<text text-anchor="start" x="311" y="-18.5" font-family="Helvetica,sans-Serif" font-size="10.00" fill="#000000">nuspell::Finder::add</text>
<text text-anchor="middle" x="359" y="-7.5" font-family="Helvetica,sans-Serif" font-size="10.00" fill="#000000">_openoffice_dir_paths</text>
</a>
</g>
</g>
<!-- Node12&#45;&gt;Node13 -->
<g id="edge6" class="edge">
<title>Node12&#45;&gt;Node13</title>
<path fill="none" stroke="#191970" d="M277.3942,-15.5C285.8871,-15.5 294.4886,-15.5 302.7621,-15.5"/>
<polygon fill="#191970" stroke="#191970" points="277.1182,-12.0001 267.1182,-15.5 277.1181,-19.0001 277.1182,-12.0001"/>
</g>
</g>
</svg>
