<?xml version="1.0" encoding="UTF-8" standalone="no"?>
<!DOCTYPE svg PUBLIC "-//W3C//DTD SVG 1.1//EN"
 "http://www.w3.org/Graphics/SVG/1.1/DTD/svg11.dtd">
<!-- Generated by graphviz version 2.40.1 (20161225.0304)
 -->
<!-- Title: src/nuspell/structures.hxx Pages: 1 -->
<svg width="1030pt" height="151pt"
 viewBox="0.00 0.00 1029.50 151.00" xmlns="http://www.w3.org/2000/svg" xmlns:xlink="http://www.w3.org/1999/xlink">
<g id="graph0" class="graph" transform="scale(1 1) rotate(0) translate(4 147)">
<title>src/nuspell/structures.hxx</title>
<polygon fill="#ffffff" stroke="transparent" points="-4,4 -4,-147 1025.5,-147 1025.5,4 -4,4"/>
<!-- Node0 -->
<g id="node1" class="node">
<title>Node0</title>
<polygon fill="#bfbfbf" stroke="#000000" points="305,-123.5 305,-142.5 434,-142.5 434,-123.5 305,-123.5"/>
<text text-anchor="middle" x="369.5" y="-130.5" font-family="Helvetica,sans-Serif" font-size="10.00" fill="#000000">src/nuspell/structures.hxx</text>
</g>
<!-- Node1 -->
<g id="node2" class="node">
<title>Node1</title>
<g id="a_node2"><a xlink:href="condition_8hxx.html" target="_top" xlink:title="Condition matching. ">
<polygon fill="#ffffff" stroke="#000000" points="44.5,-62 44.5,-81 118.5,-81 118.5,-62 44.5,-62"/>
<text text-anchor="middle" x="81.5" y="-69" font-family="Helvetica,sans-Serif" font-size="10.00" fill="#000000">condition.hxx</text>
</a>
</g>
</g>
<!-- Node0&#45;&gt;Node1 -->
<g id="edge1" class="edge">
<title>Node0&#45;&gt;Node1</title>
<path fill="none" stroke="#191970" d="M311.6662,-123.4969C263.4531,-115.1637 193.1109,-102.0498 132.5,-87 128.6689,-86.0487 124.6985,-84.9841 120.7417,-83.8704"/>
<polygon fill="#191970" stroke="#191970" points="121.6008,-80.4752 111.0209,-81.0372 119.6421,-87.1956 121.6008,-80.4752"/>
</g>
<!-- Node2 -->
<g id="node3" class="node">
<title>Node2</title>
<polygon fill="#ffffff" stroke="#bfbfbf" points="0,-.5 0,-19.5 41,-19.5 41,-.5 0,-.5"/>
<text text-anchor="middle" x="20.5" y="-7.5" font-family="Helvetica,sans-Serif" font-size="10.00" fill="#000000">string</text>
</g>
<!-- Node0&#45;&gt;Node2 -->
<g id="edge9" class="edge">
<title>Node0&#45;&gt;Node2</title>
<path fill="none" stroke="#191970" d="M304.8699,-128.1244C213.2997,-120.6173 54.7149,-105.1764 35.5,-87 20.169,-72.4975 17.9017,-47.3408 18.5004,-29.7408"/>
<polygon fill="#191970" stroke="#191970" points="21.9975,-29.9001 19.1756,-19.688 15.0132,-29.4309 21.9975,-29.9001"/>
</g>
<!-- Node4 -->
<g id="node5" class="node">
<title>Node4</title>
<polygon fill="#ffffff" stroke="#bfbfbf" points="121.5,-.5 121.5,-19.5 165.5,-19.5 165.5,-.5 121.5,-.5"/>
<text text-anchor="middle" x="143.5" y="-7.5" font-family="Helvetica,sans-Serif" font-size="10.00" fill="#000000">vector</text>
</g>
<!-- Node0&#45;&gt;Node4 -->
<g id="edge11" class="edge">
<title>Node0&#45;&gt;Node4</title>
<path fill="none" stroke="#191970" d="M304.7508,-125.6342C252.8174,-118.4482 185.4224,-105.8271 165.5,-87 149.9166,-72.2734 145.1247,-47.3461 143.7776,-29.8527"/>
<polygon fill="#191970" stroke="#191970" points="147.2626,-29.4427 143.311,-19.6124 140.2699,-29.7613 147.2626,-29.4427"/>
</g>
<!-- Node5 -->
<g id="node6" class="node">
<title>Node5</title>
<polygon fill="#ffffff" stroke="#bfbfbf" points="174.5,-62 174.5,-81 230.5,-81 230.5,-62 174.5,-62"/>
<text text-anchor="middle" x="202.5" y="-69" font-family="Helvetica,sans-Serif" font-size="10.00" fill="#000000">algorithm</text>
</g>
<!-- Node0&#45;&gt;Node5 -->
<g id="edge5" class="edge">
<title>Node0&#45;&gt;Node5</title>
<path fill="none" stroke="#191970" d="M341.1825,-123.4967C314.7334,-114.4986 274.23,-100.4067 239.5,-87 237.697,-86.304 235.8502,-85.5768 233.9901,-84.8332"/>
<polygon fill="#191970" stroke="#191970" points="235.3033,-81.589 224.7223,-81.0491 232.6572,-88.0696 235.3033,-81.589"/>
</g>
<!-- Node6 -->
<g id="node7" class="node">
<title>Node6</title>
<polygon fill="#ffffff" stroke="#bfbfbf" points="248.5,-62 248.5,-81 292.5,-81 292.5,-62 248.5,-62"/>
<text text-anchor="middle" x="270.5" y="-69" font-family="Helvetica,sans-Serif" font-size="10.00" fill="#000000">cmath</text>
</g>
<!-- Node0&#45;&gt;Node6 -->
<g id="edge6" class="edge">
<title>Node0&#45;&gt;Node6</title>
<path fill="none" stroke="#191970" d="M354.0313,-123.3906C338.0479,-113.4616 312.8897,-97.833 294.3567,-86.3201"/>
<polygon fill="#191970" stroke="#191970" points="296.2015,-83.3457 285.8601,-81.0419 292.5076,-89.2918 296.2015,-83.3457"/>
</g>
<!-- Node7 -->
<g id="node8" class="node">
<title>Node7</title>
<polygon fill="#ffffff" stroke="#bfbfbf" points="311,-62 311,-81 358,-81 358,-62 311,-62"/>
<text text-anchor="middle" x="334.5" y="-69" font-family="Helvetica,sans-Serif" font-size="10.00" fill="#000000">iterator</text>
</g>
<!-- Node0&#45;&gt;Node7 -->
<g id="edge7" class="edge">
<title>Node0&#45;&gt;Node7</title>
<path fill="none" stroke="#191970" d="M364.0313,-123.3906C358.9754,-114.5068 351.3228,-101.0601 345.0746,-90.0811"/>
<polygon fill="#191970" stroke="#191970" points="348.034,-88.2048 340.0459,-81.2449 341.9502,-91.6672 348.034,-88.2048"/>
</g>
<!-- Node8 -->
<g id="node9" class="node">
<title>Node8</title>
<polygon fill="#ffffff" stroke="#bfbfbf" points="376,-62 376,-81 435,-81 435,-62 376,-62"/>
<text text-anchor="middle" x="405.5" y="-69" font-family="Helvetica,sans-Serif" font-size="10.00" fill="#000000">stdexcept</text>
</g>
<!-- Node0&#45;&gt;Node8 -->
<g id="edge8" class="edge">
<title>Node0&#45;&gt;Node8</title>
<path fill="none" stroke="#191970" d="M375.125,-123.3906C380.3253,-114.5068 388.1966,-101.0601 394.6233,-90.0811"/>
<polygon fill="#191970" stroke="#191970" points="397.7644,-91.6432 399.7957,-81.2449 391.7233,-88.1069 397.7644,-91.6432"/>
</g>
<!-- Node9 -->
<g id="node10" class="node">
<title>Node9</title>
<polygon fill="#ffffff" stroke="#bfbfbf" points="453.5,-62 453.5,-81 493.5,-81 493.5,-62 453.5,-62"/>
<text text-anchor="middle" x="473.5" y="-69" font-family="Helvetica,sans-Serif" font-size="10.00" fill="#000000">utility</text>
</g>
<!-- Node0&#45;&gt;Node9 -->
<g id="edge10" class="edge">
<title>Node0&#45;&gt;Node9</title>
<path fill="none" stroke="#191970" d="M385.75,-123.3906C402.6169,-113.4165 429.2099,-97.6908 448.7035,-86.1633"/>
<polygon fill="#191970" stroke="#191970" points="450.538,-89.1447 457.3641,-81.0419 446.9749,-83.1194 450.538,-89.1447"/>
</g>
<!-- Node10 -->
<g id="node11" class="node">
<title>Node10</title>
<polygon fill="#ffffff" stroke="#bfbfbf" points="511.5,-56.5 511.5,-86.5 621.5,-86.5 621.5,-56.5 511.5,-56.5"/>
<text text-anchor="start" x="519.5" y="-74.5" font-family="Helvetica,sans-Serif" font-size="10.00" fill="#000000">boost/container/small</text>
<text text-anchor="middle" x="566.5" y="-63.5" font-family="Helvetica,sans-Serif" font-size="10.00" fill="#000000">_vector.hpp</text>
</g>
<!-- Node0&#45;&gt;Node10 -->
<g id="edge12" class="edge">
<title>Node0&#45;&gt;Node10</title>
<path fill="none" stroke="#191970" d="M400.2813,-123.3906C429.1646,-114.3737 473.1049,-100.6563 508.5545,-89.5896"/>
<polygon fill="#191970" stroke="#191970" points="509.8057,-92.8656 518.3084,-86.5446 507.7197,-86.1837 509.8057,-92.8656"/>
</g>
<!-- Node11 -->
<g id="node12" class="node">
<title>Node11</title>
<polygon fill="#ffffff" stroke="#bfbfbf" points="639.5,-62 639.5,-81 789.5,-81 789.5,-62 639.5,-62"/>
<text text-anchor="middle" x="714.5" y="-69" font-family="Helvetica,sans-Serif" font-size="10.00" fill="#000000">boost/multi_index/member.hpp</text>
</g>
<!-- Node0&#45;&gt;Node11 -->
<g id="edge13" class="edge">
<title>Node0&#45;&gt;Node11</title>
<path fill="none" stroke="#191970" d="M424.2623,-123.4799C477.0894,-114.2651 559.297,-99.8437 630.5,-87 637.8061,-85.6821 645.4671,-84.2869 653.0647,-82.895"/>
<polygon fill="#191970" stroke="#191970" points="653.7776,-86.3227 662.9809,-81.074 652.5132,-79.4379 653.7776,-86.3227"/>
</g>
<!-- Node12 -->
<g id="node13" class="node">
<title>Node12</title>
<polygon fill="#ffffff" stroke="#bfbfbf" points="808,-56.5 808,-86.5 909,-86.5 909,-56.5 808,-56.5"/>
<text text-anchor="start" x="816" y="-74.5" font-family="Helvetica,sans-Serif" font-size="10.00" fill="#000000">boost/range/iterator</text>
<text text-anchor="middle" x="858.5" y="-63.5" font-family="Helvetica,sans-Serif" font-size="10.00" fill="#000000">_range_core.hpp</text>
</g>
<!-- Node0&#45;&gt;Node12 -->
<g id="edge14" class="edge">
<title>Node0&#45;&gt;Node12</title>
<path fill="none" stroke="#191970" d="M434.2418,-129.0142C516.5395,-123.2901 663.0747,-110.9008 797.7862,-86.9519"/>
<polygon fill="#191970" stroke="#191970" points="798.6563,-90.3515 807.8763,-85.1321 797.4138,-83.4627 798.6563,-90.3515"/>
</g>
<!-- Node13 -->
<g id="node14" class="node">
<title>Node13</title>
<polygon fill="#ffffff" stroke="#bfbfbf" points="927.5,-56.5 927.5,-86.5 1021.5,-86.5 1021.5,-56.5 927.5,-56.5"/>
<text text-anchor="start" x="935.5" y="-74.5" font-family="Helvetica,sans-Serif" font-size="10.00" fill="#000000">boost/utility/string</text>
<text text-anchor="middle" x="974.5" y="-63.5" font-family="Helvetica,sans-Serif" font-size="10.00" fill="#000000">_view.hpp</text>
</g>
<!-- Node0&#45;&gt;Node13 -->
<g id="edge15" class="edge">
<title>Node0&#45;&gt;Node13</title>
<path fill="none" stroke="#191970" d="M434.2407,-131.4764C535.5706,-128.2354 737.7792,-118.3218 917.3956,-86.9861"/>
<polygon fill="#191970" stroke="#191970" points="918.0496,-90.4248 927.2861,-85.2346 916.8289,-83.532 918.0496,-90.4248"/>
</g>
<!-- Node1&#45;&gt;Node2 -->
<g id="edge2" class="edge">
<title>Node1&#45;&gt;Node2</title>
<path fill="none" stroke="#191970" d="M71.9688,-61.8906C62.7121,-52.5581 48.461,-38.1902 37.2997,-26.9374"/>
<polygon fill="#191970" stroke="#191970" points="39.6928,-24.38 30.1656,-19.7449 34.7228,-29.3095 39.6928,-24.38"/>
</g>
<!-- Node3 -->
<g id="node4" class="node">
<title>Node3</title>
<polygon fill="#ffffff" stroke="#bfbfbf" points="62.5,-.5 62.5,-19.5 100.5,-19.5 100.5,-.5 62.5,-.5"/>
<text text-anchor="middle" x="81.5" y="-7.5" font-family="Helvetica,sans-Serif" font-size="10.00" fill="#000000">tuple</text>
</g>
<!-- Node1&#45;&gt;Node3 -->
<g id="edge3" class="edge">
<title>Node1&#45;&gt;Node3</title>
<path fill="none" stroke="#191970" d="M81.5,-61.8906C81.5,-53.3657 81.5,-40.6392 81.5,-29.9235"/>
<polygon fill="#191970" stroke="#191970" points="85.0001,-29.7448 81.5,-19.7449 78.0001,-29.7449 85.0001,-29.7448"/>
</g>
<!-- Node1&#45;&gt;Node4 -->
<g id="edge4" class="edge">
<title>Node1&#45;&gt;Node4</title>
<path fill="none" stroke="#191970" d="M91.1875,-61.8906C100.5959,-52.5581 115.0807,-38.1902 126.4249,-26.9374"/>
<polygon fill="#191970" stroke="#191970" points="129.0411,-29.2722 133.6759,-19.7449 124.1114,-24.3024 129.0411,-29.2722"/>
</g>
</g>
</svg>
