<?xml version="1.0" encoding="UTF-8" standalone="no"?>
<!DOCTYPE svg PUBLIC "-//W3C//DTD SVG 1.1//EN"
 "http://www.w3.org/Graphics/SVG/1.1/DTD/svg11.dtd">
<!-- Generated by graphviz version 2.40.1 (20161225.0304)
 -->
<!-- Title: nuspell::Aff_Data::parse_dic Pages: 1 -->
<svg width="711pt" height="329pt"
 viewBox="0.00 0.00 711.00 328.50" xmlns="http://www.w3.org/2000/svg" xmlns:xlink="http://www.w3.org/1999/xlink">
<g id="graph0" class="graph" transform="scale(1 1) rotate(0) translate(4 324.5)">
<title>nuspell::Aff_Data::parse_dic</title>
<polygon fill="#ffffff" stroke="transparent" points="-4,4 -4,-324.5 707,-324.5 707,4 -4,4"/>
<!-- Node36 -->
<g id="node1" class="node">
<title>Node36</title>
<polygon fill="#bfbfbf" stroke="#000000" points="0,-131 0,-161 98,-161 98,-131 0,-131"/>
<text text-anchor="start" x="8" y="-149" font-family="Helvetica,sans-Serif" font-size="10.00" fill="#000000">nuspell::Aff_Data::</text>
<text text-anchor="middle" x="49" y="-138" font-family="Helvetica,sans-Serif" font-size="10.00" fill="#000000">parse_dic</text>
</g>
<!-- Node37 -->
<g id="node2" class="node">
<title>Node37</title>
<g id="a_node2"><a xlink:href="namespacenuspell.html#a2f6f1d95de158b3512f812a213175ab4" target="_top" xlink:title="nuspell::strip_bom">
<polygon fill="#ffffff" stroke="#000000" points="146.5,-289.5 146.5,-308.5 242.5,-308.5 242.5,-289.5 146.5,-289.5"/>
<text text-anchor="middle" x="194.5" y="-296.5" font-family="Helvetica,sans-Serif" font-size="10.00" fill="#000000">nuspell::strip_bom</text>
</a>
</g>
</g>
<!-- Node36&#45;&gt;Node37 -->
<g id="edge1" class="edge">
<title>Node36&#45;&gt;Node37</title>
<path fill="none" stroke="#191970" d="M54.5854,-161.3308C65.4918,-189.1328 92.2672,-247.9502 134,-280 136.453,-281.8838 139.0962,-283.583 141.8584,-285.1154"/>
<polygon fill="#191970" stroke="#191970" points="140.4639,-288.3279 150.9977,-289.4636 143.4713,-282.0068 140.4639,-288.3279"/>
</g>
<!-- Node39 -->
<g id="node4" class="node">
<title>Node39</title>
<g id="a_node4"><a xlink:href="namespacenuspell.html#abf6e8a988616a08af6fdc01bf32e4129" target="_top" xlink:title="nuspell::validate_utf8">
<polygon fill="#ffffff" stroke="#000000" points="140,-251.5 140,-270.5 249,-270.5 249,-251.5 140,-251.5"/>
<text text-anchor="middle" x="194.5" y="-258.5" font-family="Helvetica,sans-Serif" font-size="10.00" fill="#000000">nuspell::validate_utf8</text>
</a>
</g>
</g>
<!-- Node36&#45;&gt;Node39 -->
<g id="edge3" class="edge">
<title>Node36&#45;&gt;Node39</title>
<path fill="none" stroke="#191970" d="M58.6045,-161.3022C72.6453,-182.4524 100.7518,-220.4444 134,-242 137.1408,-244.0363 140.5145,-245.8668 144.0039,-247.5103"/>
<polygon fill="#191970" stroke="#191970" points="142.8528,-250.8223 153.4298,-251.4369 145.5447,-244.3606 142.8528,-250.8223"/>
</g>
<!-- Node40 -->
<g id="node5" class="node">
<title>Node40</title>
<g id="a_node5"><a xlink:href="namespacenuspell.html#a3d81c446c32c53cd03e595f8fde9c2ab" target="_top" xlink:title="nuspell::decode_flags\l_possible_alias">
<polygon fill="#ffffff" stroke="#000000" points="139,-202 139,-232 250,-232 250,-202 139,-202"/>
<text text-anchor="start" x="147" y="-220" font-family="Helvetica,sans-Serif" font-size="10.00" fill="#000000">nuspell::decode_flags</text>
<text text-anchor="middle" x="194.5" y="-209" font-family="Helvetica,sans-Serif" font-size="10.00" fill="#000000">_possible_alias</text>
</a>
</g>
</g>
<!-- Node36&#45;&gt;Node40 -->
<g id="edge4" class="edge">
<title>Node36&#45;&gt;Node40</title>
<path fill="none" stroke="#191970" d="M74.2222,-161.0566C90.9049,-170.7369 113.4171,-183.2753 134,-193 137.5759,-194.6895 141.3049,-196.3656 145.0782,-198.0004"/>
<polygon fill="#191970" stroke="#191970" points="143.9128,-201.3073 154.4873,-201.9632 146.6299,-194.8561 143.9128,-201.3073"/>
</g>
<!-- Node50 -->
<g id="node15" class="node">
<title>Node50</title>
<g id="a_node15"><a xlink:href="namespacenuspell.html#ac29b32632ffb7108ffdaf3c00d8fc486" target="_top" xlink:title="Scans line for morphological field [a&#45;z][a&#45;z]: ">
<polygon fill="#ffffff" stroke="#000000" points="140.5,-153 140.5,-183 248.5,-183 248.5,-153 140.5,-153"/>
<text text-anchor="start" x="148.5" y="-171" font-family="Helvetica,sans-Serif" font-size="10.00" fill="#000000">nuspell::dic_find_end</text>
<text text-anchor="middle" x="194.5" y="-160" font-family="Helvetica,sans-Serif" font-size="10.00" fill="#000000">_of_word_heuristics</text>
</a>
</g>
</g>
<!-- Node36&#45;&gt;Node50 -->
<g id="edge14" class="edge">
<title>Node36&#45;&gt;Node50</title>
<path fill="none" stroke="#191970" d="M98.2597,-153.4482C108.5057,-154.9974 119.4482,-156.652 130.1453,-158.2694"/>
<polygon fill="#191970" stroke="#191970" points="129.8844,-161.7697 140.2953,-159.8041 130.931,-154.8483 129.8844,-161.7697"/>
</g>
<!-- Node51 -->
<g id="node16" class="node">
<title>Node51</title>
<g id="a_node16"><a xlink:href="namespacenuspell.html#a79258aeb32a39ce719a014950b33e5d6" target="_top" xlink:title="nuspell::utf8_to_wide">
<polygon fill="#ffffff" stroke="#000000" points="292,-104.5 292,-123.5 401,-123.5 401,-104.5 292,-104.5"/>
<text text-anchor="middle" x="346.5" y="-111.5" font-family="Helvetica,sans-Serif" font-size="10.00" fill="#000000">nuspell::utf8_to_wide</text>
</a>
</g>
</g>
<!-- Node36&#45;&gt;Node51 -->
<g id="edge15" class="edge">
<title>Node36&#45;&gt;Node51</title>
<path fill="none" stroke="#191970" d="M98.1261,-140.7159C148.3092,-135.318 226.4896,-126.9087 281.7122,-120.9688"/>
<polygon fill="#191970" stroke="#191970" points="282.1761,-124.4392 291.7444,-119.8897 281.4274,-117.4793 282.1761,-124.4392"/>
</g>
<!-- Node52 -->
<g id="node17" class="node">
<title>Node52</title>
<g id="a_node17"><a xlink:href="namespacenuspell.html#a7f9d46d315680708283bd79ad729333d" target="_top" xlink:title="nuspell::erase_chars">
<polygon fill="#ffffff" stroke="#000000" points="141,-76.5 141,-95.5 248,-95.5 248,-76.5 141,-76.5"/>
<text text-anchor="middle" x="194.5" y="-83.5" font-family="Helvetica,sans-Serif" font-size="10.00" fill="#000000">nuspell::erase_chars</text>
</a>
</g>
</g>
<!-- Node36&#45;&gt;Node52 -->
<g id="edge17" class="edge">
<title>Node36&#45;&gt;Node52</title>
<path fill="none" stroke="#191970" d="M84.0763,-130.9306C99.375,-124.4134 117.5412,-116.7489 134,-110 142.5837,-106.4803 151.8843,-102.7497 160.5591,-99.3055"/>
<polygon fill="#191970" stroke="#191970" points="162.0042,-102.4978 170.0159,-95.565 159.4295,-95.9885 162.0042,-102.4978"/>
</g>
<!-- Node53 -->
<g id="node18" class="node">
<title>Node53</title>
<g id="a_node18"><a xlink:href="namespacenuspell.html#ad4e8221da9ce95908ecd5a60ac3ae08c" target="_top" xlink:title="nuspell::wide_to_utf8">
<polygon fill="#ffffff" stroke="#000000" points="140,-38.5 140,-57.5 249,-57.5 249,-38.5 140,-38.5"/>
<text text-anchor="middle" x="194.5" y="-45.5" font-family="Helvetica,sans-Serif" font-size="10.00" fill="#000000">nuspell::wide_to_utf8</text>
</a>
</g>
</g>
<!-- Node36&#45;&gt;Node53 -->
<g id="edge18" class="edge">
<title>Node36&#45;&gt;Node53</title>
<path fill="none" stroke="#191970" d="M61.5797,-130.7581C76.9497,-113.0588 104.5647,-84.111 134,-67 137.6406,-64.8837 141.5439,-62.9756 145.5502,-61.2608"/>
<polygon fill="#191970" stroke="#191970" points="146.9449,-64.4741 155.0098,-57.6033 144.4205,-57.9452 146.9449,-64.4741"/>
</g>
<!-- Node55 -->
<g id="node20" class="node">
<title>Node55</title>
<g id="a_node20"><a xlink:href="namespacenuspell.html#a74cb2ed7b54c047e578ace45d2c17012" target="_top" xlink:title="Determines casing (capitalization) type for a word. ">
<polygon fill="#ffffff" stroke="#000000" points="134,-.5 134,-19.5 255,-19.5 255,-.5 134,-.5"/>
<text text-anchor="middle" x="194.5" y="-7.5" font-family="Helvetica,sans-Serif" font-size="10.00" fill="#000000">nuspell::classify_casing</text>
</a>
</g>
</g>
<!-- Node36&#45;&gt;Node55 -->
<g id="edge20" class="edge">
<title>Node36&#45;&gt;Node55</title>
<path fill="none" stroke="#191970" d="M56.0858,-130.6556C68.3944,-105.6729 96.0851,-56.263 134,-29 136.6815,-27.0718 139.5654,-25.3347 142.5674,-23.7702"/>
<polygon fill="#191970" stroke="#191970" points="144.1731,-26.8854 151.8434,-19.5766 141.2895,-20.5069 144.1731,-26.8854"/>
</g>
<!-- Node38 -->
<g id="node3" class="node">
<title>Node38</title>
<g id="a_node3"><a xlink:href="namespacenuspell.html#aca16d8679d9abbf9c15f5a5cb2916649" target="_top" xlink:title="nuspell::reset_failbit\l_istream">
<polygon fill="#ffffff" stroke="#000000" points="294.5,-284 294.5,-314 398.5,-314 398.5,-284 294.5,-284"/>
<text text-anchor="start" x="302.5" y="-302" font-family="Helvetica,sans-Serif" font-size="10.00" fill="#000000">nuspell::reset_failbit</text>
<text text-anchor="middle" x="346.5" y="-291" font-family="Helvetica,sans-Serif" font-size="10.00" fill="#000000">_istream</text>
</a>
</g>
</g>
<!-- Node37&#45;&gt;Node38 -->
<g id="edge2" class="edge">
<title>Node37&#45;&gt;Node38</title>
<path fill="none" stroke="#191970" d="M242.5938,-299C255.693,-299 270.0767,-299 283.8557,-299"/>
<polygon fill="#191970" stroke="#191970" points="284.2434,-302.5001 294.2434,-299 284.2434,-295.5001 284.2434,-302.5001"/>
</g>
<!-- Node41 -->
<g id="node6" class="node">
<title>Node41</title>
<g id="a_node6"><a xlink:href="namespacenuspell.html#adbb8e053a44129d0f51014facd48b7f9" target="_top" xlink:title="Decodes flags. ">
<polygon fill="#ffffff" stroke="#000000" points="291,-210.5 291,-229.5 402,-229.5 402,-210.5 291,-210.5"/>
<text text-anchor="middle" x="346.5" y="-217.5" font-family="Helvetica,sans-Serif" font-size="10.00" fill="#000000">nuspell::decode_flags</text>
</a>
</g>
</g>
<!-- Node40&#45;&gt;Node41 -->
<g id="edge5" class="edge">
<title>Node40&#45;&gt;Node41</title>
<path fill="none" stroke="#191970" d="M250.2361,-218.1001C260.1493,-218.2957 270.5587,-218.5012 280.7198,-218.7017"/>
<polygon fill="#191970" stroke="#191970" points="280.7035,-222.202 290.7706,-218.9001 280.8417,-215.2033 280.7035,-222.202"/>
</g>
<!-- Node42 -->
<g id="node7" class="node">
<title>Node42</title>
<g id="a_node7"><a xlink:href="namespacenuspell.html#aa37c89934a500dfd75dbb3cc18321834" target="_top" xlink:title="nuspell::is_all_ascii">
<polygon fill="#ffffff" stroke="#000000" points="445.5,-251.5 445.5,-270.5 546.5,-270.5 546.5,-251.5 445.5,-251.5"/>
<text text-anchor="middle" x="496" y="-258.5" font-family="Helvetica,sans-Serif" font-size="10.00" fill="#000000">nuspell::is_all_ascii</text>
</a>
</g>
</g>
<!-- Node41&#45;&gt;Node42 -->
<g id="edge6" class="edge">
<title>Node41&#45;&gt;Node42</title>
<path fill="none" stroke="#191970" d="M381.1741,-229.5093C402.1377,-235.2585 429.0718,-242.6451 451.5849,-248.8193"/>
<polygon fill="#191970" stroke="#191970" points="450.6857,-252.2018 461.2553,-251.4714 452.5371,-245.4511 450.6857,-252.2018"/>
</g>
<!-- Node44 -->
<g id="node9" class="node">
<title>Node44</title>
<g id="a_node9"><a xlink:href="namespacenuspell.html#a7fc6228909d26abd20009c4fb388dc81" target="_top" xlink:title="nuspell::latin1_to_ucs2">
<polygon fill="#ffffff" stroke="#000000" points="438,-213.5 438,-232.5 554,-232.5 554,-213.5 438,-213.5"/>
<text text-anchor="middle" x="496" y="-220.5" font-family="Helvetica,sans-Serif" font-size="10.00" fill="#000000">nuspell::latin1_to_ucs2</text>
</a>
</g>
</g>
<!-- Node41&#45;&gt;Node44 -->
<g id="edge8" class="edge">
<title>Node41&#45;&gt;Node44</title>
<path fill="none" stroke="#191970" d="M402.1683,-221.1171C410.4311,-221.2829 419.0273,-221.4554 427.5151,-221.6257"/>
<polygon fill="#191970" stroke="#191970" points="427.7165,-225.1304 437.7847,-221.8318 427.857,-218.1318 427.7165,-225.1304"/>
</g>
<!-- Node45 -->
<g id="node10" class="node">
<title>Node45</title>
<g id="a_node10"><a xlink:href="namespacenuspell.html#aff86f9ecb346e78687e56dab66a77469" target="_top" xlink:title="nuspell::utf8_to_32">
<polygon fill="#ffffff" stroke="#000000" points="446.5,-137.5 446.5,-156.5 545.5,-156.5 545.5,-137.5 446.5,-137.5"/>
<text text-anchor="middle" x="496" y="-144.5" font-family="Helvetica,sans-Serif" font-size="10.00" fill="#000000">nuspell::utf8_to_32</text>
</a>
</g>
</g>
<!-- Node41&#45;&gt;Node45 -->
<g id="edge9" class="edge">
<title>Node41&#45;&gt;Node45</title>
<path fill="none" stroke="#191970" d="M360.559,-210.3937C378.0907,-198.7276 409.2624,-179.0014 438,-166 442.7651,-163.8442 447.8489,-161.8133 452.9513,-159.9394"/>
<polygon fill="#191970" stroke="#191970" points="454.4175,-163.135 462.7076,-156.5377 452.1128,-156.5252 454.4175,-163.135"/>
</g>
<!-- Node47 -->
<g id="node12" class="node">
<title>Node47</title>
<g id="a_node12"><a xlink:href="namespacenuspell.html#acc7be34831c982c0065b2929a9b14f2b" target="_top" xlink:title="nuspell::is_all_bmp">
<polygon fill="#ffffff" stroke="#000000" points="446,-175.5 446,-194.5 546,-194.5 546,-175.5 446,-175.5"/>
<text text-anchor="middle" x="496" y="-182.5" font-family="Helvetica,sans-Serif" font-size="10.00" fill="#000000">nuspell::is_all_bmp</text>
</a>
</g>
</g>
<!-- Node41&#45;&gt;Node47 -->
<g id="edge11" class="edge">
<title>Node41&#45;&gt;Node47</title>
<path fill="none" stroke="#191970" d="M387.3515,-210.4361C405.2325,-206.2499 426.3969,-201.2951 445.2739,-196.8757"/>
<polygon fill="#191970" stroke="#191970" points="446.259,-200.2398 455.1979,-194.5523 444.6633,-193.4241 446.259,-200.2398"/>
</g>
<!-- Node49 -->
<g id="node14" class="node">
<title>Node49</title>
<g id="a_node14"><a xlink:href="namespacenuspell.html#aac45dd40db821861bbd1ee9c2fc40a5e" target="_top" xlink:title="nuspell::u32_to_ucs2\l_skip_non_bmp">
<polygon fill="#ffffff" stroke="#000000" points="441.5,-290 441.5,-320 550.5,-320 550.5,-290 441.5,-290"/>
<text text-anchor="start" x="449.5" y="-308" font-family="Helvetica,sans-Serif" font-size="10.00" fill="#000000">nuspell::u32_to_ucs2</text>
<text text-anchor="middle" x="496" y="-297" font-family="Helvetica,sans-Serif" font-size="10.00" fill="#000000">_skip_non_bmp</text>
</a>
</g>
</g>
<!-- Node41&#45;&gt;Node49 -->
<g id="edge13" class="edge">
<title>Node41&#45;&gt;Node49</title>
<path fill="none" stroke="#191970" d="M359.6906,-229.7032C377.0829,-242.2473 408.8935,-264.3369 438,-280 441.5379,-281.9039 445.2512,-283.7749 449.0173,-285.5834"/>
<polygon fill="#191970" stroke="#191970" points="447.8721,-288.91 458.4174,-289.9335 450.812,-282.5573 447.8721,-288.91"/>
</g>
<!-- Node43 -->
<g id="node8" class="node">
<title>Node43</title>
<g id="a_node8"><a xlink:href="namespacenuspell.html#a165544e1cd96cd0635c078d21ff32ff4" target="_top" xlink:title="nuspell::is_ascii">
<polygon fill="#ffffff" stroke="#000000" points="603.5,-251.5 603.5,-270.5 689.5,-270.5 689.5,-251.5 603.5,-251.5"/>
<text text-anchor="middle" x="646.5" y="-258.5" font-family="Helvetica,sans-Serif" font-size="10.00" fill="#000000">nuspell::is_ascii</text>
</a>
</g>
</g>
<!-- Node42&#45;&gt;Node43 -->
<g id="edge7" class="edge">
<title>Node42&#45;&gt;Node43</title>
<path fill="none" stroke="#191970" d="M546.533,-261C561.5197,-261 577.9778,-261 593.1377,-261"/>
<polygon fill="#191970" stroke="#191970" points="593.3917,-264.5001 603.3916,-261 593.3916,-257.5001 593.3917,-264.5001"/>
</g>
<!-- Node46 -->
<g id="node11" class="node">
<title>Node46</title>
<g id="a_node11"><a xlink:href="namespacenuspell.html#aae8baee1ca83bf5a5e0d07a4e8fdbf81" target="_top" xlink:title="nuspell::utf_to_utf_my">
<polygon fill="#ffffff" stroke="#000000" points="590,-118.5 590,-137.5 703,-137.5 703,-118.5 590,-118.5"/>
<text text-anchor="middle" x="646.5" y="-125.5" font-family="Helvetica,sans-Serif" font-size="10.00" fill="#000000">nuspell::utf_to_utf_my</text>
</a>
</g>
</g>
<!-- Node45&#45;&gt;Node46 -->
<g id="edge10" class="edge">
<title>Node45&#45;&gt;Node46</title>
<path fill="none" stroke="#191970" d="M545.6964,-140.726C556.623,-139.3466 568.3652,-137.8642 579.8376,-136.4158"/>
<polygon fill="#191970" stroke="#191970" points="580.3399,-139.8803 589.8227,-135.1553 579.4631,-132.9354 580.3399,-139.8803"/>
</g>
<!-- Node48 -->
<g id="node13" class="node">
<title>Node48</title>
<g id="a_node13"><a xlink:href="namespacenuspell.html#a8ed3c64b945233d09aee1622100ce1db" target="_top" xlink:title="nuspell::is_bmp">
<polygon fill="#ffffff" stroke="#000000" points="604,-175.5 604,-194.5 689,-194.5 689,-175.5 604,-175.5"/>
<text text-anchor="middle" x="646.5" y="-182.5" font-family="Helvetica,sans-Serif" font-size="10.00" fill="#000000">nuspell::is_bmp</text>
</a>
</g>
</g>
<!-- Node47&#45;&gt;Node48 -->
<g id="edge12" class="edge">
<title>Node47&#45;&gt;Node48</title>
<path fill="none" stroke="#191970" d="M546.1143,-185C561.2601,-185 577.9407,-185 593.2815,-185"/>
<polygon fill="#191970" stroke="#191970" points="593.6528,-188.5001 603.6528,-185 593.6527,-181.5001 593.6528,-188.5001"/>
</g>
<!-- Node51&#45;&gt;Node46 -->
<g id="edge16" class="edge">
<title>Node51&#45;&gt;Node46</title>
<path fill="none" stroke="#191970" d="M401.1758,-116.5515C451.4271,-118.8966 526.0496,-122.379 579.7893,-124.8868"/>
<polygon fill="#191970" stroke="#191970" points="579.7551,-128.389 589.9074,-125.359 580.0815,-121.3966 579.7551,-128.389"/>
</g>
<!-- Node54 -->
<g id="node19" class="node">
<title>Node54</title>
<g id="a_node19"><a xlink:href="namespacenuspell.html#ade7ffffeb6a7e872e46bb96f4b1e4eea" target="_top" xlink:title="nuspell::valid_utf\l_to_utf">
<polygon fill="#ffffff" stroke="#000000" points="301.5,-33 301.5,-63 391.5,-63 391.5,-33 301.5,-33"/>
<text text-anchor="start" x="309.5" y="-51" font-family="Helvetica,sans-Serif" font-size="10.00" fill="#000000">nuspell::valid_utf</text>
<text text-anchor="middle" x="346.5" y="-40" font-family="Helvetica,sans-Serif" font-size="10.00" fill="#000000">_to_utf</text>
</a>
</g>
</g>
<!-- Node53&#45;&gt;Node54 -->
<g id="edge19" class="edge">
<title>Node53&#45;&gt;Node54</title>
<path fill="none" stroke="#191970" d="M249.3755,-48C262.9281,-48 277.4543,-48 291.0348,-48"/>
<polygon fill="#191970" stroke="#191970" points="291.2038,-51.5001 301.2037,-48 291.2037,-44.5001 291.2038,-51.5001"/>
</g>
</g>
</svg>
