<?xml version="1.0" encoding="UTF-8" standalone="no"?>
<!DOCTYPE svg PUBLIC "-//W3C//DTD SVG 1.1//EN"
 "http://www.w3.org/Graphics/SVG/1.1/DTD/svg11.dtd">
<!-- Generated by graphviz version 2.40.1 (20161225.0304)
 -->
<!-- Title: nuspell::Aff_Data::parse_aff_dic Pages: 1 -->
<svg width="241pt" height="39pt"
 viewBox="0.00 0.00 241.00 39.00" xmlns="http://www.w3.org/2000/svg" xmlns:xlink="http://www.w3.org/1999/xlink">
<g id="graph0" class="graph" transform="scale(1 1) rotate(0) translate(4 35)">
<title>nuspell::Aff_Data::parse_aff_dic</title>
<polygon fill="#ffffff" stroke="transparent" points="-4,4 -4,-35 237,-35 237,4 -4,4"/>
<!-- Node34 -->
<g id="node1" class="node">
<title>Node34</title>
<polygon fill="#bfbfbf" stroke="#000000" points="0,-.5 0,-30.5 98,-30.5 98,-.5 0,-.5"/>
<text text-anchor="start" x="8" y="-18.5" font-family="Helvetica,sans-Serif" font-size="10.00" fill="#000000">nuspell::Aff_Data::</text>
<text text-anchor="middle" x="49" y="-7.5" font-family="Helvetica,sans-Serif" font-size="10.00" fill="#000000">parse_aff_dic</text>
</g>
<!-- Node35 -->
<g id="node2" class="node">
<title>Node35</title>
<g id="a_node2"><a xlink:href="structnuspell_1_1_dict___base.html#a63f371de48eacb0357200b631bedf84c" target="_top" xlink:title="nuspell::Dict_Base\l::Dict_Base">
<polygon fill="#ffffff" stroke="#000000" points="134,-.5 134,-30.5 233,-30.5 233,-.5 134,-.5"/>
<text text-anchor="start" x="142" y="-18.5" font-family="Helvetica,sans-Serif" font-size="10.00" fill="#000000">nuspell::Dict_Base</text>
<text text-anchor="middle" x="183.5" y="-7.5" font-family="Helvetica,sans-Serif" font-size="10.00" fill="#000000">::Dict_Base</text>
</a>
</g>
</g>
<!-- Node34&#45;&gt;Node35 -->
<g id="edge1" class="edge">
<title>Node34&#45;&gt;Node35</title>
<path fill="none" stroke="#191970" d="M108.4859,-15.5C116.9177,-15.5 125.5146,-15.5 133.7366,-15.5"/>
<polygon fill="#191970" stroke="#191970" points="108.3191,-12.0001 98.3191,-15.5 108.3191,-19.0001 108.3191,-12.0001"/>
</g>
</g>
</svg>
