<?xml version="1.0" encoding="UTF-8" standalone="no"?>
<!DOCTYPE svg PUBLIC "-//W3C//DTD SVG 1.1//EN"
 "http://www.w3.org/Graphics/SVG/1.1/DTD/svg11.dtd">
<!-- Generated by graphviz version 2.40.1 (20161225.0304)
 -->
<!-- Title: nuspell::Aff_Structures&lt; CharT &gt; Pages: 1 -->
<svg width="301pt" height="273pt"
 viewBox="0.00 0.00 301.00 273.00" xmlns="http://www.w3.org/2000/svg" xmlns:xlink="http://www.w3.org/1999/xlink">
<g id="graph0" class="graph" transform="scale(1 1) rotate(0) translate(4 269)">
<title>nuspell::Aff_Structures&lt; CharT &gt;</title>
<polygon fill="#ffffff" stroke="transparent" points="-4,4 -4,-269 297,-269 297,4 -4,4"/>
<!-- Node1 -->
<g id="node1" class="node">
<title>Node1</title>
<polygon fill="#bfbfbf" stroke="#000000" points="118.5,-.5 118.5,-30.5 234.5,-30.5 234.5,-.5 118.5,-.5"/>
<text text-anchor="start" x="126.5" y="-18.5" font-family="Helvetica,sans-Serif" font-size="10.00" fill="#000000">nuspell::Aff_Structures</text>
<text text-anchor="middle" x="176.5" y="-7.5" font-family="Helvetica,sans-Serif" font-size="10.00" fill="#000000">&lt; CharT &gt;</text>
</g>
<!-- Node2 -->
<g id="node2" class="node">
<title>Node2</title>
<g id="a_node2"><a xlink:href="classnuspell_1_1_affix___table.html" target="_top" xlink:title="nuspell::Affix_Table\l\&lt; CharT \&gt;">
<polygon fill="#ffffff" stroke="#000000" points="125,-89.5 125,-119.5 228,-119.5 228,-89.5 125,-89.5"/>
<text text-anchor="start" x="133" y="-107.5" font-family="Helvetica,sans-Serif" font-size="10.00" fill="#000000">nuspell::Affix_Table</text>
<text text-anchor="middle" x="176.5" y="-96.5" font-family="Helvetica,sans-Serif" font-size="10.00" fill="#000000">&lt; CharT &gt;</text>
</a>
</g>
</g>
<!-- Node2&#45;&gt;Node1 -->
<g id="edge1" class="edge">
<title>Node2&#45;&gt;Node1</title>
<path fill="none" stroke="#9a32cd" stroke-dasharray="5,2" d="M176.5,-79.31C176.5,-63.6343 176.5,-43.9926 176.5,-30.6717"/>
<polygon fill="#9a32cd" stroke="#9a32cd" points="173.0001,-79.4023 176.5,-89.4024 180.0001,-79.4024 173.0001,-79.4023"/>
<text text-anchor="middle" x="195.5" y="-63" font-family="Helvetica,sans-Serif" font-size="10.00" fill="#000000"> suffixes</text>
<text text-anchor="middle" x="195.5" y="-52" font-family="Helvetica,sans-Serif" font-size="10.00" fill="#000000">prefixes</text>
</g>
<!-- Node3 -->
<g id="node3" class="node">
<title>Node3</title>
<g id="a_node3"><a xlink:href="classnuspell_1_1_hash___multiset.html" target="_top" xlink:title="Affix_Table_Base\&lt; CharT,\l AffixT \&gt;">
<polygon fill="#ffffff" stroke="#000000" points="43,-167.5 43,-197.5 176,-197.5 176,-167.5 43,-167.5"/>
<text text-anchor="start" x="51" y="-185.5" font-family="Helvetica,sans-Serif" font-size="10.00" fill="#000000">Affix_Table_Base&lt; CharT,</text>
<text text-anchor="middle" x="109.5" y="-174.5" font-family="Helvetica,sans-Serif" font-size="10.00" fill="#000000"> AffixT &gt;</text>
</a>
</g>
</g>
<!-- Node3&#45;&gt;Node2 -->
<g id="edge2" class="edge">
<title>Node3&#45;&gt;Node2</title>
<path fill="none" stroke="#8b1a1a" d="M129.2465,-159.5116C140.2604,-146.6894 153.6745,-131.0729 163.3928,-119.7592"/>
<polygon fill="#8b1a1a" stroke="#8b1a1a" points="126.2792,-157.5945 122.4183,-167.4608 131.5892,-162.1557 126.2792,-157.5945"/>
</g>
<!-- Node4 -->
<g id="node4" class="node">
<title>Node4</title>
<polygon fill="#ffffff" stroke="#bfbfbf" points="0,-245.5 0,-264.5 59,-264.5 59,-245.5 0,-245.5"/>
<text text-anchor="middle" x="29.5" y="-252.5" font-family="Helvetica,sans-Serif" font-size="10.00" fill="#000000">KeyEqual</text>
</g>
<!-- Node4&#45;&gt;Node3 -->
<g id="edge3" class="edge">
<title>Node4&#45;&gt;Node3</title>
<path fill="none" stroke="#9a32cd" stroke-dasharray="5,2" d="M48.0134,-238.2222C61.5242,-225.9781 79.6856,-209.5193 92.7629,-197.668"/>
<polygon fill="#9a32cd" stroke="#9a32cd" points="45.3487,-235.9136 40.2892,-245.2223 50.0494,-241.1006 45.3487,-235.9136"/>
<text text-anchor="middle" x="86" y="-219" font-family="Helvetica,sans-Serif" font-size="10.00" fill="#000000"> equal</text>
</g>
<!-- Node5 -->
<g id="node5" class="node">
<title>Node5</title>
<polygon fill="#ffffff" stroke="#bfbfbf" points="77,-245.5 77,-264.5 142,-264.5 142,-245.5 77,-245.5"/>
<text text-anchor="middle" x="109.5" y="-252.5" font-family="Helvetica,sans-Serif" font-size="10.00" fill="#000000">KeyExtract</text>
</g>
<!-- Node5&#45;&gt;Node3 -->
<g id="edge4" class="edge">
<title>Node5&#45;&gt;Node3</title>
<path fill="none" stroke="#9a32cd" stroke-dasharray="5,2" d="M109.5,-235.0177C109.5,-223.2164 109.5,-208.513 109.5,-197.668"/>
<polygon fill="#9a32cd" stroke="#9a32cd" points="106.0001,-235.2223 109.5,-245.2223 113.0001,-235.2224 106.0001,-235.2223"/>
<text text-anchor="middle" x="137" y="-219" font-family="Helvetica,sans-Serif" font-size="10.00" fill="#000000"> key_extract</text>
</g>
<!-- Node6 -->
<g id="node6" class="node">
<title>Node6</title>
<polygon fill="#ffffff" stroke="#bfbfbf" points="167.5,-245.5 167.5,-264.5 207.5,-264.5 207.5,-245.5 167.5,-245.5"/>
<text text-anchor="middle" x="187.5" y="-252.5" font-family="Helvetica,sans-Serif" font-size="10.00" fill="#000000">Hash</text>
</g>
<!-- Node6&#45;&gt;Node3 -->
<g id="edge5" class="edge">
<title>Node6&#45;&gt;Node3</title>
<path fill="none" stroke="#9a32cd" stroke-dasharray="5,2" d="M179.3562,-236.097C175.7845,-229.2344 171.1146,-221.7596 165.5,-216 158.5409,-208.8612 149.749,-202.6718 141.2067,-197.6226"/>
<polygon fill="#9a32cd" stroke="#9a32cd" points="176.3398,-237.9049 183.7854,-245.4424 182.6653,-234.9069 176.3398,-237.9049"/>
<text text-anchor="middle" x="187" y="-219" font-family="Helvetica,sans-Serif" font-size="10.00" fill="#000000"> hash</text>
</g>
<!-- Node7 -->
<g id="node7" class="node">
<title>Node7</title>
<g id="a_node7"><a xlink:href="classnuspell_1_1_string___set.html" target="_top" xlink:title="nuspell::String_Set\l\&lt; char16_t \&gt;">
<polygon fill="#ffffff" stroke="#000000" points="194,-167.5 194,-197.5 293,-197.5 293,-167.5 194,-167.5"/>
<text text-anchor="start" x="202" y="-185.5" font-family="Helvetica,sans-Serif" font-size="10.00" fill="#000000">nuspell::String_Set</text>
<text text-anchor="middle" x="243.5" y="-174.5" font-family="Helvetica,sans-Serif" font-size="10.00" fill="#000000">&lt; char16_t &gt;</text>
</a>
</g>
</g>
<!-- Node7&#45;&gt;Node2 -->
<g id="edge6" class="edge">
<title>Node7&#45;&gt;Node2</title>
<path fill="none" stroke="#9a32cd" stroke-dasharray="5,2" d="M223.7535,-159.5116C212.7396,-146.6894 199.3255,-131.0729 189.6072,-119.7592"/>
<polygon fill="#9a32cd" stroke="#9a32cd" points="221.4108,-162.1557 230.5817,-167.4608 226.7208,-157.5945 221.4108,-162.1557"/>
<text text-anchor="middle" x="245.5" y="-141" font-family="Helvetica,sans-Serif" font-size="10.00" fill="#000000"> all_cont_flags</text>
</g>
</g>
</svg>
