<?xml version="1.0" encoding="UTF-8" standalone="no"?>
<!DOCTYPE svg PUBLIC "-//W3C//DTD SVG 1.1//EN"
 "http://www.w3.org/Graphics/SVG/1.1/DTD/svg11.dtd">
<!-- Generated by graphviz version 2.40.1 (20161225.0304)
 -->
<!-- Title: nuspell::Globber::glob Pages: 1 -->
<svg width="468pt" height="88pt"
 viewBox="0.00 0.00 468.00 88.00" xmlns="http://www.w3.org/2000/svg" xmlns:xlink="http://www.w3.org/1999/xlink">
<g id="graph0" class="graph" transform="scale(1 1) rotate(0) translate(4 84)">
<title>nuspell::Globber::glob</title>
<polygon fill="#ffffff" stroke="transparent" points="-4,4 -4,-84 464,-84 464,4 -4,4"/>
<!-- Node17 -->
<g id="node1" class="node">
<title>Node17</title>
<polygon fill="#bfbfbf" stroke="#000000" points="0,-30 0,-49 111,-49 111,-30 0,-30"/>
<text text-anchor="middle" x="55.5" y="-37" font-family="Helvetica,sans-Serif" font-size="10.00" fill="#000000">nuspell::Globber::glob</text>
</g>
<!-- Node18 -->
<g id="node2" class="node">
<title>Node18</title>
<g id="a_node2"><a xlink:href="namespacenuspell.html#a18da8631cb0b014f0f918cf444946921" target="_top" xlink:title="Gets the LibreOffice search paths. ">
<polygon fill="#ffffff" stroke="#000000" points="164.5,-49.5 164.5,-79.5 278.5,-79.5 278.5,-49.5 164.5,-49.5"/>
<text text-anchor="start" x="172.5" y="-67.5" font-family="Helvetica,sans-Serif" font-size="10.00" fill="#000000">nuspell::get_libreoffice</text>
<text text-anchor="middle" x="221.5" y="-56.5" font-family="Helvetica,sans-Serif" font-size="10.00" fill="#000000">_paths</text>
</a>
</g>
</g>
<!-- Node17&#45;&gt;Node18 -->
<g id="edge1" class="edge">
<title>Node17&#45;&gt;Node18</title>
<path fill="none" stroke="#191970" d="M121.4561,-49.4332C135.6944,-51.5775 150.6321,-53.8271 164.4938,-55.9147"/>
<polygon fill="#191970" stroke="#191970" points="121.6471,-45.9225 111.2374,-47.8942 120.6046,-52.8445 121.6471,-45.9225"/>
</g>
<!-- Node20 -->
<g id="node4" class="node">
<title>Node20</title>
<g id="a_node4"><a xlink:href="namespacenuspell.html#a2dacde753f0b71fe8bea9b1fc394e517" target="_top" xlink:title="Gets the Apache OpenOffice search paths. ">
<polygon fill="#ffffff" stroke="#000000" points="147,-.5 147,-30.5 296,-30.5 296,-.5 147,-.5"/>
<text text-anchor="start" x="155" y="-18.5" font-family="Helvetica,sans-Serif" font-size="10.00" fill="#000000">nuspell::get_apacheopenoffice</text>
<text text-anchor="middle" x="221.5" y="-7.5" font-family="Helvetica,sans-Serif" font-size="10.00" fill="#000000">_paths</text>
</a>
</g>
</g>
<!-- Node17&#45;&gt;Node20 -->
<g id="edge3" class="edge">
<title>Node17&#45;&gt;Node20</title>
<path fill="none" stroke="#191970" d="M121.2898,-29.9882C129.6499,-28.7795 138.2536,-27.5356 146.7412,-26.3085"/>
<polygon fill="#191970" stroke="#191970" points="120.6336,-26.5466 111.2374,-31.4416 121.6353,-33.4746 120.6336,-26.5466"/>
</g>
<!-- Node19 -->
<g id="node3" class="node">
<title>Node19</title>
<g id="a_node3"><a xlink:href="classnuspell_1_1_finder.html#abf175ec83ef09d127e9203dc2a9bbdb0" target="_top" xlink:title="Adds the LibreOffice search paths which have been found to the paths. ">
<polygon fill="#ffffff" stroke="#000000" points="345,-49.5 345,-79.5 447,-79.5 447,-49.5 345,-49.5"/>
<text text-anchor="start" x="353" y="-67.5" font-family="Helvetica,sans-Serif" font-size="10.00" fill="#000000">nuspell::Finder::add</text>
<text text-anchor="middle" x="396" y="-56.5" font-family="Helvetica,sans-Serif" font-size="10.00" fill="#000000">_libreoffice_paths</text>
</a>
</g>
</g>
<!-- Node18&#45;&gt;Node19 -->
<g id="edge2" class="edge">
<title>Node18&#45;&gt;Node19</title>
<path fill="none" stroke="#191970" d="M288.8333,-64.5C307.4638,-64.5 327.3742,-64.5 344.9151,-64.5"/>
<polygon fill="#191970" stroke="#191970" points="288.6379,-61.0001 278.6378,-64.5 288.6378,-68.0001 288.6379,-61.0001"/>
</g>
<!-- Node21 -->
<g id="node5" class="node">
<title>Node21</title>
<g id="a_node5"><a xlink:href="classnuspell_1_1_finder.html#a5b3919b143e570a42fce848ba3a95b82" target="_top" xlink:title="Adds the Apache OpenOffice search paths which have been found to the paths. ">
<polygon fill="#ffffff" stroke="#000000" points="332,-.5 332,-30.5 460,-30.5 460,-.5 332,-.5"/>
<text text-anchor="start" x="340" y="-18.5" font-family="Helvetica,sans-Serif" font-size="10.00" fill="#000000">nuspell::Finder::add</text>
<text text-anchor="middle" x="396" y="-7.5" font-family="Helvetica,sans-Serif" font-size="10.00" fill="#000000">_apacheopenoffice_paths</text>
</a>
</g>
</g>
<!-- Node20&#45;&gt;Node21 -->
<g id="edge4" class="edge">
<title>Node20&#45;&gt;Node21</title>
<path fill="none" stroke="#191970" d="M306.1493,-15.5C314.8175,-15.5 323.5199,-15.5 331.914,-15.5"/>
<polygon fill="#191970" stroke="#191970" points="306.0099,-12.0001 296.0099,-15.5 306.0098,-19.0001 306.0099,-12.0001"/>
</g>
</g>
</svg>
