<?xml version="1.0" encoding="UTF-8" standalone="no"?>
<!DOCTYPE svg PUBLIC "-//W3C//DTD SVG 1.1//EN"
 "http://www.w3.org/Graphics/SVG/1.1/DTD/svg11.dtd">
<!-- Generated by graphviz version 2.43.0 (0)
 -->
<!-- Title: src/nuspell/utils.hxx Pages: 1 -->
<svg width="990pt" height="151pt"
 viewBox="0.00 0.00 989.50 151.00" xmlns="http://www.w3.org/2000/svg" xmlns:xlink="http://www.w3.org/1999/xlink">
<g id="graph0" class="graph" transform="scale(1 1) rotate(0) translate(4 147)">
<title>src/nuspell/utils.hxx</title>
<polygon fill="white" stroke="transparent" points="-4,4 -4,-147 985.5,-147 985.5,4 -4,4"/>
<!-- Node1 -->
<g id="node1" class="node">
<title>Node1</title>
<g id="a_node1"><a xlink:title="Utilities for strings, private header.">
<polygon fill="#bfbfbf" stroke="black" points="491,-123.5 491,-142.5 605,-142.5 605,-123.5 491,-123.5"/>
<text text-anchor="middle" x="548" y="-130.5" font-family="Helvetica,sans-Serif" font-size="10.00">src/nuspell/utils.hxx</text>
</a>
</g>
</g>
<!-- Node2 -->
<g id="node2" class="node">
<title>Node2</title>
<g id="a_node2"><a xlink:href="structures_8hxx.html" target="_top" xlink:title="Data structures, private header.">
<polygon fill="white" stroke="black" points="388,-67.5 388,-86.5 474,-86.5 474,-67.5 388,-67.5"/>
<text text-anchor="middle" x="431" y="-74.5" font-family="Helvetica,sans-Serif" font-size="10.00">structures.hxx</text>
</a>
</g>
</g>
<!-- Node1&#45;&gt;Node2 -->
<g id="edge1" class="edge">
<title>Node1&#45;&gt;Node2</title>
<path fill="none" stroke="midnightblue" d="M529.46,-123.44C510.38,-114.64 480.43,-100.81 458.56,-90.72"/>
<polygon fill="midnightblue" stroke="midnightblue" points="460,-87.53 449.45,-86.52 457.07,-93.88 460,-87.53"/>
</g>
<!-- Node15 -->
<g id="node15" class="node">
<title>Node15</title>
<g id="a_node15"><a xlink:title=" ">
<polygon fill="white" stroke="#bfbfbf" points="492,-67.5 492,-86.5 538,-86.5 538,-67.5 492,-67.5"/>
<text text-anchor="middle" x="515" y="-74.5" font-family="Helvetica,sans-Serif" font-size="10.00">locale</text>
</a>
</g>
</g>
<!-- Node1&#45;&gt;Node15 -->
<g id="edge14" class="edge">
<title>Node1&#45;&gt;Node15</title>
<path fill="none" stroke="midnightblue" d="M542.55,-123.08C537.99,-115.61 531.33,-104.72 525.71,-95.52"/>
<polygon fill="midnightblue" stroke="midnightblue" points="528.55,-93.46 520.35,-86.75 522.58,-97.11 528.55,-93.46"/>
</g>
<!-- Node16 -->
<g id="node16" class="node">
<title>Node16</title>
<g id="a_node16"><a xlink:title=" ">
<polygon fill="white" stroke="#bfbfbf" points="556.5,-67.5 556.5,-86.5 607.5,-86.5 607.5,-67.5 556.5,-67.5"/>
<text text-anchor="middle" x="582" y="-74.5" font-family="Helvetica,sans-Serif" font-size="10.00">clocale</text>
</a>
</g>
</g>
<!-- Node1&#45;&gt;Node16 -->
<g id="edge15" class="edge">
<title>Node1&#45;&gt;Node16</title>
<path fill="none" stroke="midnightblue" d="M553.61,-123.08C558.37,-115.53 565.32,-104.49 571.15,-95.23"/>
<polygon fill="midnightblue" stroke="midnightblue" points="574.12,-97.08 576.49,-86.75 568.2,-93.35 574.12,-97.08"/>
</g>
<!-- Node17 -->
<g id="node17" class="node">
<title>Node17</title>
<g id="a_node17"><a xlink:title=" ">
<polygon fill="white" stroke="#bfbfbf" points="626,-67.5 626,-86.5 716,-86.5 716,-67.5 626,-67.5"/>
<text text-anchor="middle" x="671" y="-74.5" font-family="Helvetica,sans-Serif" font-size="10.00">unicode/locid.h</text>
</a>
</g>
</g>
<!-- Node1&#45;&gt;Node17 -->
<g id="edge16" class="edge">
<title>Node1&#45;&gt;Node17</title>
<path fill="none" stroke="midnightblue" d="M567.49,-123.44C587.64,-114.6 619.32,-100.69 642.33,-90.59"/>
<polygon fill="midnightblue" stroke="midnightblue" points="643.85,-93.74 651.6,-86.52 641.04,-87.33 643.85,-93.74"/>
</g>
<!-- Node3 -->
<g id="node3" class="node">
<title>Node3</title>
<g id="a_node3"><a xlink:title=" ">
<polygon fill="white" stroke="#bfbfbf" points="0,-6 0,-25 64,-25 64,-6 0,-6"/>
<text text-anchor="middle" x="32" y="-13" font-family="Helvetica,sans-Serif" font-size="10.00">algorithm</text>
</a>
</g>
</g>
<!-- Node2&#45;&gt;Node3 -->
<g id="edge2" class="edge">
<title>Node2&#45;&gt;Node3</title>
<path fill="none" stroke="midnightblue" d="M387.76,-73.57C319.93,-69.09 184.7,-57.45 73,-31 69.77,-30.23 66.43,-29.3 63.13,-28.29"/>
<polygon fill="midnightblue" stroke="midnightblue" points="64.04,-24.9 53.44,-25.06 61.82,-31.54 64.04,-24.9"/>
</g>
<!-- Node4 -->
<g id="node4" class="node">
<title>Node4</title>
<g id="a_node4"><a xlink:title=" ">
<polygon fill="white" stroke="#bfbfbf" points="82.5,-6 82.5,-25 129.5,-25 129.5,-6 82.5,-6"/>
<text text-anchor="middle" x="106" y="-13" font-family="Helvetica,sans-Serif" font-size="10.00">cmath</text>
</a>
</g>
</g>
<!-- Node2&#45;&gt;Node4 -->
<g id="edge3" class="edge">
<title>Node2&#45;&gt;Node4</title>
<path fill="none" stroke="midnightblue" d="M387.99,-73.08C330.15,-68.33 224.58,-56.73 138,-31 136.07,-30.43 134.11,-29.76 132.15,-29.03"/>
<polygon fill="midnightblue" stroke="midnightblue" points="133.19,-25.67 122.61,-25.06 130.5,-32.14 133.19,-25.67"/>
</g>
<!-- Node5 -->
<g id="node5" class="node">
<title>Node5</title>
<g id="a_node5"><a xlink:title=" ">
<polygon fill="white" stroke="#bfbfbf" points="147.5,-6 147.5,-25 212.5,-25 212.5,-6 147.5,-6"/>
<text text-anchor="middle" x="180" y="-13" font-family="Helvetica,sans-Serif" font-size="10.00">functional</text>
</a>
</g>
</g>
<!-- Node2&#45;&gt;Node5 -->
<g id="edge4" class="edge">
<title>Node2&#45;&gt;Node5</title>
<path fill="none" stroke="midnightblue" d="M387.97,-68.46C345.24,-60.58 278.05,-47.13 221,-31 218.04,-30.16 214.99,-29.23 211.95,-28.24"/>
<polygon fill="midnightblue" stroke="midnightblue" points="212.98,-24.9 202.39,-25 210.74,-31.53 212.98,-24.9"/>
</g>
<!-- Node6 -->
<g id="node6" class="node">
<title>Node6</title>
<g id="a_node6"><a xlink:title=" ">
<polygon fill="white" stroke="#bfbfbf" points="230.5,-6 230.5,-25 283.5,-25 283.5,-6 230.5,-6"/>
<text text-anchor="middle" x="257" y="-13" font-family="Helvetica,sans-Serif" font-size="10.00">iterator</text>
</a>
</g>
</g>
<!-- Node2&#45;&gt;Node6 -->
<g id="edge5" class="edge">
<title>Node2&#45;&gt;Node6</title>
<path fill="none" stroke="midnightblue" d="M402.29,-67.44C374.02,-58.84 329.73,-44.9 292,-31 290.15,-30.32 288.25,-29.6 286.34,-28.85"/>
<polygon fill="midnightblue" stroke="midnightblue" points="287.47,-25.53 276.88,-25.06 284.86,-32.03 287.47,-25.53"/>
</g>
<!-- Node7 -->
<g id="node7" class="node">
<title>Node7</title>
<g id="a_node7"><a xlink:title=" ">
<polygon fill="white" stroke="#bfbfbf" points="301.5,-6 301.5,-25 344.5,-25 344.5,-6 301.5,-6"/>
<text text-anchor="middle" x="323" y="-13" font-family="Helvetica,sans-Serif" font-size="10.00">stack</text>
</a>
</g>
</g>
<!-- Node2&#45;&gt;Node7 -->
<g id="edge6" class="edge">
<title>Node2&#45;&gt;Node7</title>
<path fill="none" stroke="midnightblue" d="M415.53,-67.48C397.72,-57.67 368.26,-41.43 347.37,-29.92"/>
<polygon fill="midnightblue" stroke="midnightblue" points="348.89,-26.77 338.45,-25.01 345.51,-32.9 348.89,-26.77"/>
</g>
<!-- Node8 -->
<g id="node8" class="node">
<title>Node8</title>
<g id="a_node8"><a xlink:title=" ">
<polygon fill="white" stroke="#bfbfbf" points="362.5,-6 362.5,-25 427.5,-25 427.5,-6 362.5,-6"/>
<text text-anchor="middle" x="395" y="-13" font-family="Helvetica,sans-Serif" font-size="10.00">stdexcept</text>
</a>
</g>
</g>
<!-- Node2&#45;&gt;Node8 -->
<g id="edge7" class="edge">
<title>Node2&#45;&gt;Node8</title>
<path fill="none" stroke="midnightblue" d="M425.84,-67.48C420.55,-58.73 412.16,-44.87 405.47,-33.81"/>
<polygon fill="midnightblue" stroke="midnightblue" points="408.32,-31.75 400.15,-25.01 402.33,-35.38 408.32,-31.75"/>
</g>
<!-- Node9 -->
<g id="node9" class="node">
<title>Node9</title>
<g id="a_node9"><a xlink:title=" ">
<polygon fill="white" stroke="#bfbfbf" points="446,-6 446,-25 490,-25 490,-6 446,-6"/>
<text text-anchor="middle" x="468" y="-13" font-family="Helvetica,sans-Serif" font-size="10.00">string</text>
</a>
</g>
</g>
<!-- Node2&#45;&gt;Node9 -->
<g id="edge8" class="edge">
<title>Node2&#45;&gt;Node9</title>
<path fill="none" stroke="midnightblue" d="M436.3,-67.48C441.74,-58.73 450.36,-44.87 457.24,-33.81"/>
<polygon fill="midnightblue" stroke="midnightblue" points="460.4,-35.35 462.71,-25.01 454.46,-31.65 460.4,-35.35"/>
</g>
<!-- Node10 -->
<g id="node10" class="node">
<title>Node10</title>
<g id="a_node10"><a xlink:title=" ">
<polygon fill="white" stroke="#bfbfbf" points="508.5,-6 508.5,-25 581.5,-25 581.5,-6 508.5,-6"/>
<text text-anchor="middle" x="545" y="-13" font-family="Helvetica,sans-Serif" font-size="10.00">string_view</text>
</a>
</g>
</g>
<!-- Node2&#45;&gt;Node10 -->
<g id="edge9" class="edge">
<title>Node2&#45;&gt;Node10</title>
<path fill="none" stroke="midnightblue" d="M447.33,-67.48C466.21,-57.62 497.51,-41.29 519.58,-29.77"/>
<polygon fill="midnightblue" stroke="midnightblue" points="521.45,-32.74 528.7,-25.01 518.21,-26.53 521.45,-32.74"/>
</g>
<!-- Node11 -->
<g id="node11" class="node">
<title>Node11</title>
<g id="a_node11"><a xlink:title=" ">
<polygon fill="white" stroke="#bfbfbf" points="599.5,-6 599.5,-25 644.5,-25 644.5,-6 599.5,-6"/>
<text text-anchor="middle" x="622" y="-13" font-family="Helvetica,sans-Serif" font-size="10.00">utility</text>
</a>
</g>
</g>
<!-- Node2&#45;&gt;Node11 -->
<g id="edge10" class="edge">
<title>Node2&#45;&gt;Node11</title>
<path fill="none" stroke="midnightblue" d="M467.76,-67.48C500.55,-59.45 549.62,-46.38 591,-31 592.43,-30.47 593.88,-29.9 595.34,-29.3"/>
<polygon fill="midnightblue" stroke="midnightblue" points="597.08,-32.36 604.83,-25.14 594.27,-25.95 597.08,-32.36"/>
</g>
<!-- Node12 -->
<g id="node12" class="node">
<title>Node12</title>
<g id="a_node12"><a xlink:title=" ">
<polygon fill="white" stroke="#bfbfbf" points="662.5,-6 662.5,-25 709.5,-25 709.5,-6 662.5,-6"/>
<text text-anchor="middle" x="686" y="-13" font-family="Helvetica,sans-Serif" font-size="10.00">vector</text>
</a>
</g>
</g>
<!-- Node2&#45;&gt;Node12 -->
<g id="edge11" class="edge">
<title>Node2&#45;&gt;Node12</title>
<path fill="none" stroke="midnightblue" d="M474.44,-68.44C529.51,-58.65 621.21,-41.59 654,-31 655.87,-30.4 657.78,-29.71 659.69,-28.98"/>
<polygon fill="midnightblue" stroke="midnightblue" points="661.15,-32.16 669.01,-25.06 658.44,-25.71 661.15,-32.16"/>
</g>
<!-- Node13 -->
<g id="node13" class="node">
<title>Node13</title>
<g id="a_node13"><a xlink:title=" ">
<polygon fill="white" stroke="#bfbfbf" points="728,-0.5 728,-30.5 850,-30.5 850,-0.5 728,-0.5"/>
<text text-anchor="start" x="736" y="-18.5" font-family="Helvetica,sans-Serif" font-size="10.00">boost/container/small</text>
<text text-anchor="middle" x="789" y="-7.5" font-family="Helvetica,sans-Serif" font-size="10.00">_vector.hpp</text>
</a>
</g>
</g>
<!-- Node2&#45;&gt;Node13 -->
<g id="edge12" class="edge">
<title>Node2&#45;&gt;Node13</title>
<path fill="none" stroke="midnightblue" d="M474.12,-68.47C477.12,-67.97 480.11,-67.47 483,-67 584.55,-50.47 612.87,-49.79 717.89,-31.14"/>
<polygon fill="midnightblue" stroke="midnightblue" points="718.73,-34.55 727.95,-29.34 717.49,-27.66 718.73,-34.55"/>
</g>
<!-- Node14 -->
<g id="node14" class="node">
<title>Node14</title>
<g id="a_node14"><a xlink:title=" ">
<polygon fill="white" stroke="#bfbfbf" points="868.5,-0.5 868.5,-30.5 981.5,-30.5 981.5,-0.5 868.5,-0.5"/>
<text text-anchor="start" x="876.5" y="-18.5" font-family="Helvetica,sans-Serif" font-size="10.00">boost/range/iterator</text>
<text text-anchor="middle" x="925" y="-7.5" font-family="Helvetica,sans-Serif" font-size="10.00">_range_core.hpp</text>
</a>
</g>
</g>
<!-- Node2&#45;&gt;Node14 -->
<g id="edge13" class="edge">
<title>Node2&#45;&gt;Node14</title>
<path fill="none" stroke="midnightblue" d="M474.09,-68.28C477.1,-67.82 480.09,-67.39 483,-67 646.13,-45.11 691.4,-56.59 858.09,-31.01"/>
<polygon fill="midnightblue" stroke="midnightblue" points="858.86,-34.43 868.2,-29.44 857.78,-27.51 858.86,-34.43"/>
</g>
</g>
</svg>
