<?xml version="1.0" encoding="UTF-8" standalone="no"?>
<!DOCTYPE svg PUBLIC "-//W3C//DTD SVG 1.1//EN"
 "http://www.w3.org/Graphics/SVG/1.1/DTD/svg11.dtd">
<!-- Generated by graphviz version 2.40.1 (20161225.0304)
 -->
<!-- Title: src/nuspell/utils.hxx Pages: 1 -->
<svg width="916pt" height="151pt"
 viewBox="0.00 0.00 915.50 151.00" xmlns="http://www.w3.org/2000/svg" xmlns:xlink="http://www.w3.org/1999/xlink">
<g id="graph0" class="graph" transform="scale(1 1) rotate(0) translate(4 147)">
<title>src/nuspell/utils.hxx</title>
<polygon fill="#ffffff" stroke="transparent" points="-4,4 -4,-147 911.5,-147 911.5,4 -4,4"/>
<!-- Node0 -->
<g id="node1" class="node">
<title>Node0</title>
<polygon fill="#bfbfbf" stroke="#000000" points="458,-123.5 458,-142.5 562,-142.5 562,-123.5 458,-123.5"/>
<text text-anchor="middle" x="510" y="-130.5" font-family="Helvetica,sans-Serif" font-size="10.00" fill="#000000">src/nuspell/utils.hxx</text>
</g>
<!-- Node1 -->
<g id="node2" class="node">
<title>Node1</title>
<g id="a_node2"><a xlink:href="structures_8hxx.html" target="_top" xlink:title="Data structures, private header. ">
<polygon fill="#ffffff" stroke="#000000" points="361.5,-67.5 361.5,-86.5 440.5,-86.5 440.5,-67.5 361.5,-67.5"/>
<text text-anchor="middle" x="401" y="-74.5" font-family="Helvetica,sans-Serif" font-size="10.00" fill="#000000">structures.hxx</text>
</a>
</g>
</g>
<!-- Node0&#45;&gt;Node1 -->
<g id="edge1" class="edge">
<title>Node0&#45;&gt;Node1</title>
<path fill="none" stroke="#191970" d="M491.0136,-123.2455C473.8208,-114.4125 448.2762,-101.2887 428.7868,-91.2758"/>
<polygon fill="#191970" stroke="#191970" points="430.263,-88.0993 419.7688,-86.6427 427.0641,-94.3257 430.263,-88.0993"/>
</g>
<!-- Node14 -->
<g id="node15" class="node">
<title>Node14</title>
<polygon fill="#ffffff" stroke="#bfbfbf" points="458,-67.5 458,-86.5 500,-86.5 500,-67.5 458,-67.5"/>
<text text-anchor="middle" x="479" y="-74.5" font-family="Helvetica,sans-Serif" font-size="10.00" fill="#000000">locale</text>
</g>
<!-- Node0&#45;&gt;Node14 -->
<g id="edge14" class="edge">
<title>Node0&#45;&gt;Node14</title>
<path fill="none" stroke="#191970" d="M504.6002,-123.2455C500.3773,-115.617 494.3827,-104.7881 489.2559,-95.5267"/>
<polygon fill="#191970" stroke="#191970" points="492.2432,-93.6965 484.3379,-86.6427 486.119,-97.0867 492.2432,-93.6965"/>
</g>
<!-- Node15 -->
<g id="node16" class="node">
<title>Node15</title>
<polygon fill="#ffffff" stroke="#bfbfbf" points="518.5,-67.5 518.5,-86.5 565.5,-86.5 565.5,-67.5 518.5,-67.5"/>
<text text-anchor="middle" x="542" y="-74.5" font-family="Helvetica,sans-Serif" font-size="10.00" fill="#000000">clocale</text>
</g>
<!-- Node0&#45;&gt;Node15 -->
<g id="edge15" class="edge">
<title>Node0&#45;&gt;Node15</title>
<path fill="none" stroke="#191970" d="M515.574,-123.2455C519.9331,-115.617 526.1211,-104.7881 531.4133,-95.5267"/>
<polygon fill="#191970" stroke="#191970" points="534.5673,-97.0616 536.4899,-86.6427 528.4896,-93.5886 534.5673,-97.0616"/>
</g>
<!-- Node16 -->
<g id="node17" class="node">
<title>Node16</title>
<polygon fill="#ffffff" stroke="#bfbfbf" points="584,-67.5 584,-86.5 666,-86.5 666,-67.5 584,-67.5"/>
<text text-anchor="middle" x="625" y="-74.5" font-family="Helvetica,sans-Serif" font-size="10.00" fill="#000000">unicode/locid.h</text>
</g>
<!-- Node0&#45;&gt;Node16 -->
<g id="edge16" class="edge">
<title>Node0&#45;&gt;Node16</title>
<path fill="none" stroke="#191970" d="M529.7692,-123.3733C548.1469,-114.4241 575.7312,-100.9917 596.4893,-90.8835"/>
<polygon fill="#191970" stroke="#191970" points="598.0304,-94.026 605.4888,-86.5011 594.9657,-87.7325 598.0304,-94.026"/>
</g>
<!-- Node2 -->
<g id="node3" class="node">
<title>Node2</title>
<polygon fill="#ffffff" stroke="#bfbfbf" points="0,-6 0,-25 56,-25 56,-6 0,-6"/>
<text text-anchor="middle" x="28" y="-13" font-family="Helvetica,sans-Serif" font-size="10.00" fill="#000000">algorithm</text>
</g>
<!-- Node1&#45;&gt;Node2 -->
<g id="edge2" class="edge">
<title>Node1&#45;&gt;Node2</title>
<path fill="none" stroke="#191970" d="M361.2764,-74.9149C297.7144,-70.836 169.6555,-59.5572 65,-31 62.5308,-30.3262 60.0081,-29.5265 57.498,-28.6508"/>
<polygon fill="#191970" stroke="#191970" points="58.61,-25.3286 48.0202,-25.0031 56.0957,-31.8615 58.61,-25.3286"/>
</g>
<!-- Node3 -->
<g id="node4" class="node">
<title>Node3</title>
<polygon fill="#ffffff" stroke="#bfbfbf" points="74,-6 74,-25 118,-25 118,-6 74,-6"/>
<text text-anchor="middle" x="96" y="-13" font-family="Helvetica,sans-Serif" font-size="10.00" fill="#000000">cmath</text>
</g>
<!-- Node1&#45;&gt;Node3 -->
<g id="edge3" class="edge">
<title>Node1&#45;&gt;Node3</title>
<path fill="none" stroke="#191970" d="M361.0978,-74.0363C306.956,-69.1801 207.7171,-57.3007 127,-31 125.3874,-30.4745 123.754,-29.8769 122.1241,-29.2293"/>
<polygon fill="#191970" stroke="#191970" points="123.5501,-26.033 112.9939,-25.1293 120.6826,-32.4187 123.5501,-26.033"/>
</g>
<!-- Node4 -->
<g id="node5" class="node">
<title>Node4</title>
<polygon fill="#ffffff" stroke="#bfbfbf" points="136.5,-6 136.5,-25 195.5,-25 195.5,-6 136.5,-6"/>
<text text-anchor="middle" x="166" y="-13" font-family="Helvetica,sans-Serif" font-size="10.00" fill="#000000">functional</text>
</g>
<!-- Node1&#45;&gt;Node4 -->
<g id="edge4" class="edge">
<title>Node1&#45;&gt;Node4</title>
<path fill="none" stroke="#191970" d="M361.2568,-69.6399C321.1111,-61.7591 257.544,-48.0538 204,-31 201.8488,-30.3148 199.6479,-29.5618 197.4426,-28.7682"/>
<polygon fill="#191970" stroke="#191970" points="198.4768,-25.4166 187.8863,-25.1139 195.9765,-31.9548 198.4768,-25.4166"/>
</g>
<!-- Node5 -->
<g id="node6" class="node">
<title>Node5</title>
<polygon fill="#ffffff" stroke="#bfbfbf" points="213.5,-6 213.5,-25 260.5,-25 260.5,-6 213.5,-6"/>
<text text-anchor="middle" x="237" y="-13" font-family="Helvetica,sans-Serif" font-size="10.00" fill="#000000">iterator</text>
</g>
<!-- Node1&#45;&gt;Node5 -->
<g id="edge5" class="edge">
<title>Node1&#45;&gt;Node5</title>
<path fill="none" stroke="#191970" d="M370.481,-67.4762C343.4836,-58.7894 303.185,-45.1798 269,-31 267.6458,-30.4383 266.2674,-29.8474 264.8811,-29.2375"/>
<polygon fill="#191970" stroke="#191970" points="266.3334,-26.0531 255.7865,-25.0469 263.4039,-32.4107 266.3334,-26.0531"/>
</g>
<!-- Node6 -->
<g id="node7" class="node">
<title>Node6</title>
<polygon fill="#ffffff" stroke="#bfbfbf" points="278.5,-6 278.5,-25 319.5,-25 319.5,-6 278.5,-6"/>
<text text-anchor="middle" x="299" y="-13" font-family="Helvetica,sans-Serif" font-size="10.00" fill="#000000">stack</text>
</g>
<!-- Node1&#45;&gt;Node6 -->
<g id="edge6" class="edge">
<title>Node1&#45;&gt;Node6</title>
<path fill="none" stroke="#191970" d="M385.0625,-67.3906C368.5949,-57.4616 342.6742,-41.833 323.5796,-30.3201"/>
<polygon fill="#191970" stroke="#191970" points="325.1966,-27.2081 314.8256,-25.0419 321.5822,-33.2027 325.1966,-27.2081"/>
</g>
<!-- Node7 -->
<g id="node8" class="node">
<title>Node7</title>
<polygon fill="#ffffff" stroke="#bfbfbf" points="337.5,-6 337.5,-25 396.5,-25 396.5,-6 337.5,-6"/>
<text text-anchor="middle" x="367" y="-13" font-family="Helvetica,sans-Serif" font-size="10.00" fill="#000000">stdexcept</text>
</g>
<!-- Node1&#45;&gt;Node7 -->
<g id="edge7" class="edge">
<title>Node1&#45;&gt;Node7</title>
<path fill="none" stroke="#191970" d="M395.6875,-67.3906C390.7761,-58.5068 383.3421,-45.0601 377.2725,-34.0811"/>
<polygon fill="#191970" stroke="#191970" points="380.2888,-32.3031 372.3874,-25.2449 374.1627,-35.6899 380.2888,-32.3031"/>
</g>
<!-- Node8 -->
<g id="node9" class="node">
<title>Node8</title>
<polygon fill="#ffffff" stroke="#bfbfbf" points="414.5,-6 414.5,-25 455.5,-25 455.5,-6 414.5,-6"/>
<text text-anchor="middle" x="435" y="-13" font-family="Helvetica,sans-Serif" font-size="10.00" fill="#000000">string</text>
</g>
<!-- Node1&#45;&gt;Node8 -->
<g id="edge8" class="edge">
<title>Node1&#45;&gt;Node8</title>
<path fill="none" stroke="#191970" d="M406.3125,-67.3906C411.2239,-58.5068 418.6579,-45.0601 424.7275,-34.0811"/>
<polygon fill="#191970" stroke="#191970" points="427.8373,-35.6899 429.6126,-25.2449 421.7112,-32.3031 427.8373,-35.6899"/>
</g>
<!-- Node9 -->
<g id="node10" class="node">
<title>Node9</title>
<polygon fill="#ffffff" stroke="#bfbfbf" points="474,-6 474,-25 540,-25 540,-6 474,-6"/>
<text text-anchor="middle" x="507" y="-13" font-family="Helvetica,sans-Serif" font-size="10.00" fill="#000000">string_view</text>
</g>
<!-- Node1&#45;&gt;Node9 -->
<g id="edge9" class="edge">
<title>Node1&#45;&gt;Node9</title>
<path fill="none" stroke="#191970" d="M417.5625,-67.3906C434.7537,-57.4165 461.8582,-41.6908 481.7266,-30.1633"/>
<polygon fill="#191970" stroke="#191970" points="483.6606,-33.0877 490.5538,-25.0419 480.1477,-27.033 483.6606,-33.0877"/>
</g>
<!-- Node10 -->
<g id="node11" class="node">
<title>Node10</title>
<polygon fill="#ffffff" stroke="#bfbfbf" points="558,-6 558,-25 598,-25 598,-6 558,-6"/>
<text text-anchor="middle" x="578" y="-13" font-family="Helvetica,sans-Serif" font-size="10.00" fill="#000000">utility</text>
</g>
<!-- Node1&#45;&gt;Node10 -->
<g id="edge10" class="edge">
<title>Node1&#45;&gt;Node10</title>
<path fill="none" stroke="#191970" d="M438.4893,-67.4669C468.8311,-59.2504 512.3852,-46.3124 549,-31 550.027,-30.5705 551.0658,-30.1165 552.1087,-29.6442"/>
<polygon fill="#191970" stroke="#191970" points="553.9715,-32.6282 561.3943,-25.0683 550.8771,-26.3493 553.9715,-32.6282"/>
</g>
<!-- Node11 -->
<g id="node12" class="node">
<title>Node11</title>
<polygon fill="#ffffff" stroke="#bfbfbf" points="616,-6 616,-25 660,-25 660,-6 616,-6"/>
<text text-anchor="middle" x="638" y="-13" font-family="Helvetica,sans-Serif" font-size="10.00" fill="#000000">vector</text>
</g>
<!-- Node1&#45;&gt;Node11 -->
<g id="edge11" class="edge">
<title>Node1&#45;&gt;Node11</title>
<path fill="none" stroke="#191970" d="M440.5793,-68.7055C495.9317,-57.0223 591.4631,-36.5252 607,-31 608.4173,-30.496 609.8535,-29.9426 611.2913,-29.3542"/>
<polygon fill="#191970" stroke="#191970" points="612.9628,-32.4392 620.6211,-25.118 610.0687,-26.0655 612.9628,-32.4392"/>
</g>
<!-- Node12 -->
<g id="node13" class="node">
<title>Node12</title>
<polygon fill="#ffffff" stroke="#bfbfbf" points="678,-.5 678,-30.5 788,-30.5 788,-.5 678,-.5"/>
<text text-anchor="start" x="686" y="-18.5" font-family="Helvetica,sans-Serif" font-size="10.00" fill="#000000">boost/container/small</text>
<text text-anchor="middle" x="733" y="-7.5" font-family="Helvetica,sans-Serif" font-size="10.00" fill="#000000">_vector.hpp</text>
</g>
<!-- Node1&#45;&gt;Node12 -->
<g id="edge12" class="edge">
<title>Node1&#45;&gt;Node12</title>
<path fill="none" stroke="#191970" d="M440.526,-68.6244C443.3909,-68.0606 446.2383,-67.5134 449,-67 543.2703,-49.4756 570.1776,-50.5804 667.8981,-31.1358"/>
<polygon fill="#191970" stroke="#191970" points="668.7876,-34.5271 677.9009,-29.1235 667.407,-27.6645 668.7876,-34.5271"/>
</g>
<!-- Node13 -->
<g id="node14" class="node">
<title>Node13</title>
<polygon fill="#ffffff" stroke="#bfbfbf" points="806.5,-.5 806.5,-30.5 907.5,-30.5 907.5,-.5 806.5,-.5"/>
<text text-anchor="start" x="814.5" y="-18.5" font-family="Helvetica,sans-Serif" font-size="10.00" fill="#000000">boost/range/iterator</text>
<text text-anchor="middle" x="857" y="-7.5" font-family="Helvetica,sans-Serif" font-size="10.00" fill="#000000">_range_core.hpp</text>
</g>
<!-- Node1&#45;&gt;Node13 -->
<g id="edge13" class="edge">
<title>Node1&#45;&gt;Node13</title>
<path fill="none" stroke="#191970" d="M440.7553,-68.3909C443.5397,-67.8886 446.3084,-67.4185 449,-67 599.3452,-43.6253 642.136,-57.879 796.0759,-30.9779"/>
<polygon fill="#191970" stroke="#191970" points="797.1461,-34.3426 806.3787,-29.1457 795.9203,-27.4508 797.1461,-34.3426"/>
</g>
</g>
</svg>
