<?xml version="1.0" encoding="UTF-8" standalone="no"?>
<!DOCTYPE svg PUBLIC "-//W3C//DTD SVG 1.1//EN"
 "http://www.w3.org/Graphics/SVG/1.1/DTD/svg11.dtd">
<!-- Generated by graphviz version 2.43.0 (0)
 -->
<!-- Title: src/nuspell/utils.hxx Pages: 1 -->
<svg width="451pt" height="84pt"
 viewBox="0.00 0.00 450.50 84.00" xmlns="http://www.w3.org/2000/svg" xmlns:xlink="http://www.w3.org/1999/xlink">
<g id="graph0" class="graph" transform="scale(1 1) rotate(0) translate(4 80)">
<title>src/nuspell/utils.hxx</title>
<polygon fill="white" stroke="transparent" points="-4,4 -4,-80 446.5,-80 446.5,4 -4,4"/>
<!-- Node1 -->
<g id="node1" class="node">
<title>Node1</title>
<g id="a_node1"><a xlink:title="Utilities for strings, private header.">
<polygon fill="#bfbfbf" stroke="black" points="136.5,-56.5 136.5,-75.5 250.5,-75.5 250.5,-56.5 136.5,-56.5"/>
<text text-anchor="middle" x="193.5" y="-63.5" font-family="Helvetica,sans-Serif" font-size="10.00">src/nuspell/utils.hxx</text>
</a>
</g>
</g>
<!-- Node2 -->
<g id="node2" class="node">
<title>Node2</title>
<g id="a_node2"><a xlink:title=" ">
<polygon fill="white" stroke="#bfbfbf" points="0,-0.5 0,-19.5 51,-19.5 51,-0.5 0,-0.5"/>
<text text-anchor="middle" x="25.5" y="-7.5" font-family="Helvetica,sans-Serif" font-size="10.00">clocale</text>
</a>
</g>
</g>
<!-- Node1&#45;&gt;Node2 -->
<g id="edge1" class="edge">
<title>Node1&#45;&gt;Node2</title>
<path fill="none" stroke="midnightblue" d="M166.88,-56.44C138.24,-47.24 92.57,-32.56 60.91,-22.38"/>
<polygon fill="midnightblue" stroke="midnightblue" points="61.76,-18.98 51.17,-19.25 59.62,-25.64 61.76,-18.98"/>
</g>
<!-- Node3 -->
<g id="node3" class="node">
<title>Node3</title>
<g id="a_node3"><a xlink:title=" ">
<polygon fill="white" stroke="#bfbfbf" points="69.5,-0.5 69.5,-19.5 115.5,-19.5 115.5,-0.5 69.5,-0.5"/>
<text text-anchor="middle" x="92.5" y="-7.5" font-family="Helvetica,sans-Serif" font-size="10.00">locale</text>
</a>
</g>
</g>
<!-- Node1&#45;&gt;Node3 -->
<g id="edge2" class="edge">
<title>Node1&#45;&gt;Node3</title>
<path fill="none" stroke="midnightblue" d="M177.27,-56.32C161.15,-47.7 136.2,-34.36 117.54,-24.39"/>
<polygon fill="midnightblue" stroke="midnightblue" points="119.16,-21.28 108.69,-19.65 115.86,-27.46 119.16,-21.28"/>
</g>
<!-- Node4 -->
<g id="node4" class="node">
<title>Node4</title>
<g id="a_node4"><a xlink:title=" ">
<polygon fill="white" stroke="#bfbfbf" points="133.5,-0.5 133.5,-19.5 177.5,-19.5 177.5,-0.5 133.5,-0.5"/>
<text text-anchor="middle" x="155.5" y="-7.5" font-family="Helvetica,sans-Serif" font-size="10.00">string</text>
</a>
</g>
</g>
<!-- Node1&#45;&gt;Node4 -->
<g id="edge3" class="edge">
<title>Node1&#45;&gt;Node4</title>
<path fill="none" stroke="midnightblue" d="M187.23,-56.08C181.86,-48.46 173.98,-37.26 167.42,-27.94"/>
<polygon fill="midnightblue" stroke="midnightblue" points="170.28,-25.91 161.66,-19.75 164.55,-29.94 170.28,-25.91"/>
</g>
<!-- Node5 -->
<g id="node5" class="node">
<title>Node5</title>
<g id="a_node5"><a xlink:title=" ">
<polygon fill="white" stroke="#bfbfbf" points="196,-0.5 196,-19.5 269,-19.5 269,-0.5 196,-0.5"/>
<text text-anchor="middle" x="232.5" y="-7.5" font-family="Helvetica,sans-Serif" font-size="10.00">string_view</text>
</a>
</g>
</g>
<!-- Node1&#45;&gt;Node5 -->
<g id="edge4" class="edge">
<title>Node1&#45;&gt;Node5</title>
<path fill="none" stroke="midnightblue" d="M199.94,-56.08C205.45,-48.46 213.53,-37.26 220.26,-27.94"/>
<polygon fill="midnightblue" stroke="midnightblue" points="223.16,-29.91 226.18,-19.75 217.49,-25.81 223.16,-29.91"/>
</g>
<!-- Node6 -->
<g id="node6" class="node">
<title>Node6</title>
<g id="a_node6"><a xlink:title=" ">
<polygon fill="white" stroke="#bfbfbf" points="287,-0.5 287,-19.5 334,-19.5 334,-0.5 287,-0.5"/>
<text text-anchor="middle" x="310.5" y="-7.5" font-family="Helvetica,sans-Serif" font-size="10.00">vector</text>
</a>
</g>
</g>
<!-- Node1&#45;&gt;Node6 -->
<g id="edge5" class="edge">
<title>Node1&#45;&gt;Node6</title>
<path fill="none" stroke="midnightblue" d="M212.04,-56.44C231.12,-47.64 261.07,-33.81 282.94,-23.72"/>
<polygon fill="midnightblue" stroke="midnightblue" points="284.43,-26.88 292.05,-19.52 281.5,-20.53 284.43,-26.88"/>
</g>
<!-- Node7 -->
<g id="node7" class="node">
<title>Node7</title>
<g id="a_node7"><a xlink:title=" ">
<polygon fill="white" stroke="#bfbfbf" points="352.5,-0.5 352.5,-19.5 442.5,-19.5 442.5,-0.5 352.5,-0.5"/>
<text text-anchor="middle" x="397.5" y="-7.5" font-family="Helvetica,sans-Serif" font-size="10.00">unicode/locid.h</text>
</a>
</g>
</g>
<!-- Node1&#45;&gt;Node7 -->
<g id="edge6" class="edge">
<title>Node1&#45;&gt;Node7</title>
<path fill="none" stroke="midnightblue" d="M225.82,-56.44C260.89,-47.16 317,-32.31 355.46,-22.13"/>
<polygon fill="midnightblue" stroke="midnightblue" points="356.56,-25.46 365.33,-19.52 354.76,-18.69 356.56,-25.46"/>
</g>
</g>
</svg>
