<?xml version="1.0" encoding="UTF-8" standalone="no"?>
<!DOCTYPE svg PUBLIC "-//W3C//DTD SVG 1.1//EN"
 "http://www.w3.org/Graphics/SVG/1.1/DTD/svg11.dtd">
<!-- Generated by graphviz version 2.40.1 (20161225.0304)
 -->
<!-- Title: main Pages: 1 -->
<svg width="324pt" height="211pt"
 viewBox="0.00 0.00 324.00 210.50" xmlns="http://www.w3.org/2000/svg" xmlns:xlink="http://www.w3.org/1999/xlink">
<g id="graph0" class="graph" transform="scale(1 1) rotate(0) translate(4 206.5)">
<title>main</title>
<polygon fill="#ffffff" stroke="transparent" points="-4,4 -4,-206.5 320,-206.5 320,4 -4,4"/>
<!-- Node0 -->
<g id="node1" class="node">
<title>Node0</title>
<polygon fill="#bfbfbf" stroke="#000000" points="0,-114.5 0,-133.5 38,-133.5 38,-114.5 0,-114.5"/>
<text text-anchor="middle" x="19" y="-121.5" font-family="Helvetica,sans-Serif" font-size="10.00" fill="#000000">main</text>
</g>
<!-- Node1 -->
<g id="node2" class="node">
<title>Node1</title>
<g id="a_node2"><a xlink:href="namespacenuspell.html#aae159e86a8a1edad724249d330d985b1" target="_top" xlink:title="nuspell::install_ctype\l_facets_inplace">
<polygon fill="#ffffff" stroke="#000000" points="74,-172 74,-202 182,-202 182,-172 74,-172"/>
<text text-anchor="start" x="82" y="-190" font-family="Helvetica,sans-Serif" font-size="10.00" fill="#000000">nuspell::install_ctype</text>
<text text-anchor="middle" x="128" y="-179" font-family="Helvetica,sans-Serif" font-size="10.00" fill="#000000">_facets_inplace</text>
</a>
</g>
</g>
<!-- Node0&#45;&gt;Node1 -->
<g id="edge1" class="edge">
<title>Node0&#45;&gt;Node1</title>
<path fill="none" stroke="#191970" d="M31.7053,-133.7077C42.5995,-141.8017 58.8843,-153.3636 74,-162 77.2404,-163.8514 80.6416,-165.6782 84.0937,-167.4503"/>
<polygon fill="#191970" stroke="#191970" points="82.7598,-170.6953 93.2748,-171.9932 85.8642,-164.4213 82.7598,-170.6953"/>
</g>
<!-- Node2 -->
<g id="node3" class="node">
<title>Node2</title>
<g id="a_node3"><a xlink:href="verify_8cxx.html#af8c650bca476b3f8959df7215c4c134f" target="_top" xlink:title="Prints help information to standard output. ">
<polygon fill="#ffffff" stroke="#000000" points="98.5,-133.5 98.5,-152.5 157.5,-152.5 157.5,-133.5 98.5,-133.5"/>
<text text-anchor="middle" x="128" y="-140.5" font-family="Helvetica,sans-Serif" font-size="10.00" fill="#000000">print_help</text>
</a>
</g>
</g>
<!-- Node0&#45;&gt;Node2 -->
<g id="edge2" class="edge">
<title>Node0&#45;&gt;Node2</title>
<path fill="none" stroke="#191970" d="M38.2361,-127.3531C52.0026,-129.7528 71.0299,-133.0694 88.0246,-136.0318"/>
<polygon fill="#191970" stroke="#191970" points="87.8258,-139.5499 98.2783,-137.8192 89.0279,-132.6538 87.8258,-139.5499"/>
</g>
<!-- Node3 -->
<g id="node4" class="node">
<title>Node3</title>
<g id="a_node4"><a xlink:href="verify_8cxx.html#a6150c93934b2505d7e4521b40fa8d571" target="_top" xlink:title="Prints the version number to standard output. ">
<polygon fill="#ffffff" stroke="#000000" points="92,-95.5 92,-114.5 164,-114.5 164,-95.5 92,-95.5"/>
<text text-anchor="middle" x="128" y="-102.5" font-family="Helvetica,sans-Serif" font-size="10.00" fill="#000000">print_version</text>
</a>
</g>
</g>
<!-- Node0&#45;&gt;Node3 -->
<g id="edge3" class="edge">
<title>Node0&#45;&gt;Node3</title>
<path fill="none" stroke="#191970" d="M38.2361,-120.6469C50.3687,-118.5321 66.5874,-115.7049 81.8997,-113.0358"/>
<polygon fill="#191970" stroke="#191970" points="82.5287,-116.4791 91.7791,-111.3137 81.3266,-109.583 82.5287,-116.4791"/>
</g>
<!-- Node4 -->
<g id="node5" class="node">
<title>Node4</title>
<g id="a_node5"><a xlink:href="verify_8cxx.html#a345ea832decc7c2932cf431ea1dc1cbf" target="_top" xlink:title="normal_loop">
<polygon fill="#ffffff" stroke="#000000" points="93.5,-57.5 93.5,-76.5 162.5,-76.5 162.5,-57.5 93.5,-57.5"/>
<text text-anchor="middle" x="128" y="-64.5" font-family="Helvetica,sans-Serif" font-size="10.00" fill="#000000">normal_loop</text>
</a>
</g>
</g>
<!-- Node0&#45;&gt;Node4 -->
<g id="edge4" class="edge">
<title>Node0&#45;&gt;Node4</title>
<path fill="none" stroke="#191970" d="M31.0747,-114.2482C41.8406,-105.9066 58.2834,-94.0124 74,-86 78.0439,-83.9384 82.3636,-82.0077 86.732,-80.2267"/>
<polygon fill="#191970" stroke="#191970" points="88.1941,-83.4149 96.2849,-76.5745 85.6943,-76.8764 88.1941,-83.4149"/>
</g>
<!-- Node5 -->
<g id="node6" class="node">
<title>Node5</title>
<g id="a_node6"><a xlink:href="classnuspell_1_1_dictionary.html#ad6782f36b6a99ea81360cb870cbd30ff" target="_top" xlink:title="nuspell::Dictionary\l::spell">
<polygon fill="#ffffff" stroke="#000000" points="218,-115 218,-145 316,-145 316,-115 218,-115"/>
<text text-anchor="start" x="226" y="-133" font-family="Helvetica,sans-Serif" font-size="10.00" fill="#000000">nuspell::Dictionary</text>
<text text-anchor="middle" x="267" y="-122" font-family="Helvetica,sans-Serif" font-size="10.00" fill="#000000">::spell</text>
</a>
</g>
</g>
<!-- Node4&#45;&gt;Node5 -->
<g id="edge5" class="edge">
<title>Node4&#45;&gt;Node5</title>
<path fill="none" stroke="#191970" d="M157.7322,-76.5793C165.7055,-79.3864 174.2592,-82.6174 182,-86 198.578,-93.2442 201.9419,-96.6665 218,-105 221.3324,-106.7294 224.7968,-108.5172 228.2742,-110.3046"/>
<polygon fill="#191970" stroke="#191970" points="226.9315,-113.5493 237.4272,-114.9951 230.1239,-107.3197 226.9315,-113.5493"/>
</g>
<!-- Node6 -->
<g id="node7" class="node">
<title>Node6</title>
<g id="a_node7"><a xlink:href="namespacenuspell.html#a9bf8e1a3f71282ed001fcf4f224ef9dd" target="_top" xlink:title="nuspell::to_narrow">
<polygon fill="#ffffff" stroke="#000000" points="219,-76.5 219,-95.5 315,-95.5 315,-76.5 219,-76.5"/>
<text text-anchor="middle" x="267" y="-83.5" font-family="Helvetica,sans-Serif" font-size="10.00" fill="#000000">nuspell::to_narrow</text>
</a>
</g>
</g>
<!-- Node4&#45;&gt;Node6 -->
<g id="edge6" class="edge">
<title>Node4&#45;&gt;Node6</title>
<path fill="none" stroke="#191970" d="M162.717,-71.7455C176.6352,-73.648 193.0608,-75.8932 208.708,-78.032"/>
<polygon fill="#191970" stroke="#191970" points="208.462,-81.5309 218.8439,-79.4175 209.4101,-74.5954 208.462,-81.5309"/>
</g>
<!-- Node7 -->
<g id="node8" class="node">
<title>Node7</title>
<g id="a_node8"><a xlink:href="namespacenuspell.html#a7aade2ec1cb243eb5b3714007d59d63c" target="_top" xlink:title="nuspell::to_wide">
<polygon fill="#ffffff" stroke="#000000" points="223.5,-38.5 223.5,-57.5 310.5,-57.5 310.5,-38.5 223.5,-38.5"/>
<text text-anchor="middle" x="267" y="-45.5" font-family="Helvetica,sans-Serif" font-size="10.00" fill="#000000">nuspell::to_wide</text>
</a>
</g>
</g>
<!-- Node4&#45;&gt;Node7 -->
<g id="edge7" class="edge">
<title>Node4&#45;&gt;Node7</title>
<path fill="none" stroke="#191970" d="M162.717,-62.2545C177.8998,-60.1792 196.0664,-57.696 212.9514,-55.3879"/>
<polygon fill="#191970" stroke="#191970" points="213.8271,-58.8009 223.261,-53.9787 212.8791,-51.8654 213.8271,-58.8009"/>
</g>
<!-- Node8 -->
<g id="node9" class="node">
<title>Node8</title>
<g id="a_node9"><a xlink:href="namespacestd.html#abb75a3efd092cccd0bcbfdf1c503d145" target="_top" xlink:title="std::operator\&lt;\&lt;">
<polygon fill="#ffffff" stroke="#000000" points="225.5,-.5 225.5,-19.5 308.5,-19.5 308.5,-.5 225.5,-.5"/>
<text text-anchor="middle" x="267" y="-7.5" font-family="Helvetica,sans-Serif" font-size="10.00" fill="#000000">std::operator&lt;&lt;</text>
</a>
</g>
</g>
<!-- Node4&#45;&gt;Node8 -->
<g id="edge8" class="edge">
<title>Node4&#45;&gt;Node8</title>
<path fill="none" stroke="#191970" d="M150.1159,-57.4468C168.2879,-49.6492 194.733,-38.4205 218,-29 222.7413,-27.0803 227.7559,-25.0902 232.6968,-23.1526"/>
<polygon fill="#191970" stroke="#191970" points="233.9678,-26.4138 242.0161,-19.5235 231.4276,-19.8909 233.9678,-26.4138"/>
</g>
</g>
</svg>
