<?xml version="1.0" encoding="UTF-8" standalone="no"?>
<!DOCTYPE svg PUBLIC "-//W3C//DTD SVG 1.1//EN"
 "http://www.w3.org/Graphics/SVG/1.1/DTD/svg11.dtd">
<!-- Generated by graphviz version 2.40.1 (20161225.0304)
 -->
<!-- Title: normal_loop Pages: 1 -->
<svg width="211pt" height="154pt"
 viewBox="0.00 0.00 211.00 153.50" xmlns="http://www.w3.org/2000/svg" xmlns:xlink="http://www.w3.org/1999/xlink">
<g id="graph0" class="graph" transform="scale(1 1) rotate(0) translate(4 149.5)">
<title>normal_loop</title>
<polygon fill="#ffffff" stroke="transparent" points="-4,4 -4,-149.5 207,-149.5 207,4 -4,4"/>
<!-- Node10 -->
<g id="node1" class="node">
<title>Node10</title>
<polygon fill="#bfbfbf" stroke="#000000" points="0,-57.5 0,-76.5 69,-76.5 69,-57.5 0,-57.5"/>
<text text-anchor="middle" x="34.5" y="-64.5" font-family="Helvetica,sans-Serif" font-size="10.00" fill="#000000">normal_loop</text>
</g>
<!-- Node11 -->
<g id="node2" class="node">
<title>Node11</title>
<g id="a_node2"><a xlink:href="classnuspell_1_1_dictionary.html#ad6782f36b6a99ea81360cb870cbd30ff" target="_top" xlink:title="nuspell::Dictionary\l::spell">
<polygon fill="#ffffff" stroke="#000000" points="105,-115 105,-145 203,-145 203,-115 105,-115"/>
<text text-anchor="start" x="113" y="-133" font-family="Helvetica,sans-Serif" font-size="10.00" fill="#000000">nuspell::Dictionary</text>
<text text-anchor="middle" x="154" y="-122" font-family="Helvetica,sans-Serif" font-size="10.00" fill="#000000">::spell</text>
</a>
</g>
</g>
<!-- Node10&#45;&gt;Node11 -->
<g id="edge1" class="edge">
<title>Node10&#45;&gt;Node11</title>
<path fill="none" stroke="#191970" d="M52.1147,-76.637C66.3405,-84.3855 86.8994,-95.5059 105,-105 108.2799,-106.7204 111.6905,-108.4932 115.1171,-110.2632"/>
<polygon fill="#191970" stroke="#191970" points="113.6514,-113.4451 124.1454,-114.9036 116.8514,-107.2193 113.6514,-113.4451"/>
</g>
<!-- Node12 -->
<g id="node3" class="node">
<title>Node12</title>
<g id="a_node3"><a xlink:href="namespacenuspell.html#a9bf8e1a3f71282ed001fcf4f224ef9dd" target="_top" xlink:title="nuspell::to_narrow">
<polygon fill="#ffffff" stroke="#000000" points="106,-76.5 106,-95.5 202,-95.5 202,-76.5 106,-76.5"/>
<text text-anchor="middle" x="154" y="-83.5" font-family="Helvetica,sans-Serif" font-size="10.00" fill="#000000">nuspell::to_narrow</text>
</a>
</g>
</g>
<!-- Node10&#45;&gt;Node12 -->
<g id="edge2" class="edge">
<title>Node10&#45;&gt;Node12</title>
<path fill="none" stroke="#191970" d="M69.0644,-72.4956C77.4675,-73.8317 86.6842,-75.2971 95.8506,-76.7545"/>
<polygon fill="#191970" stroke="#191970" points="95.311,-80.2126 105.7365,-78.3263 96.4102,-73.2994 95.311,-80.2126"/>
</g>
<!-- Node13 -->
<g id="node4" class="node">
<title>Node13</title>
<g id="a_node4"><a xlink:href="namespacenuspell.html#a7aade2ec1cb243eb5b3714007d59d63c" target="_top" xlink:title="nuspell::to_wide">
<polygon fill="#ffffff" stroke="#000000" points="110.5,-38.5 110.5,-57.5 197.5,-57.5 197.5,-38.5 110.5,-38.5"/>
<text text-anchor="middle" x="154" y="-45.5" font-family="Helvetica,sans-Serif" font-size="10.00" fill="#000000">nuspell::to_wide</text>
</a>
</g>
</g>
<!-- Node10&#45;&gt;Node13 -->
<g id="edge3" class="edge">
<title>Node10&#45;&gt;Node13</title>
<path fill="none" stroke="#191970" d="M69.0644,-61.5044C78.7805,-59.9596 89.5841,-58.2419 100.1402,-56.5635"/>
<polygon fill="#191970" stroke="#191970" points="100.8151,-60.0002 110.1415,-54.9733 99.7159,-53.0871 100.8151,-60.0002"/>
</g>
<!-- Node14 -->
<g id="node5" class="node">
<title>Node14</title>
<g id="a_node5"><a xlink:href="namespacestd.html#abb75a3efd092cccd0bcbfdf1c503d145" target="_top" xlink:title="std::operator\&lt;\&lt;">
<polygon fill="#ffffff" stroke="#000000" points="112.5,-.5 112.5,-19.5 195.5,-19.5 195.5,-.5 112.5,-.5"/>
<text text-anchor="middle" x="154" y="-7.5" font-family="Helvetica,sans-Serif" font-size="10.00" fill="#000000">std::operator&lt;&lt;</text>
</a>
</g>
</g>
<!-- Node10&#45;&gt;Node14 -->
<g id="edge4" class="edge">
<title>Node10&#45;&gt;Node14</title>
<path fill="none" stroke="#191970" d="M51.0103,-57.343C65.1117,-49.2799 86.0608,-37.7349 105,-29 109.1673,-27.078 113.5885,-25.1779 118.003,-23.3651"/>
<polygon fill="#191970" stroke="#191970" points="119.5593,-26.5127 127.5553,-19.5618 116.9699,-20.0093 119.5593,-26.5127"/>
</g>
</g>
</svg>
