<?xml version="1.0" encoding="UTF-8" standalone="no"?>
<!DOCTYPE svg PUBLIC "-//W3C//DTD SVG 1.1//EN"
 "http://www.w3.org/Graphics/SVG/1.1/DTD/svg11.dtd">
<!-- Generated by graphviz version 2.40.1 (20161225.0304)
 -->
<!-- Title: normal_loop Pages: 1 -->
<svg width="241pt" height="154pt"
 viewBox="0.00 0.00 241.00 153.50" xmlns="http://www.w3.org/2000/svg" xmlns:xlink="http://www.w3.org/1999/xlink">
<g id="graph0" class="graph" transform="scale(1 1) rotate(0) translate(4 149.5)">
<title>normal_loop</title>
<polygon fill="#ffffff" stroke="transparent" points="-4,4 -4,-149.5 237,-149.5 237,4 -4,4"/>
<!-- Node10 -->
<g id="node1" class="node">
<title>Node10</title>
<polygon fill="#bfbfbf" stroke="#000000" points="0,-57.5 0,-76.5 69,-76.5 69,-57.5 0,-57.5"/>
<text text-anchor="middle" x="34.5" y="-64.5" font-family="Helvetica,sans-Serif" font-size="10.00" fill="#000000">normal_loop</text>
</g>
<!-- Node11 -->
<g id="node2" class="node">
<title>Node11</title>
<g id="a_node2"><a xlink:href="classnuspell_1_1_basic___dictionary.html#a05ed25f4b65c93f0389295303e43e509" target="_top" xlink:title="nuspell::Basic_Dictionary\l::spell">
<polygon fill="#ffffff" stroke="#000000" points="105,-115 105,-145 233,-145 233,-115 105,-115"/>
<text text-anchor="start" x="113" y="-133" font-family="Helvetica,sans-Serif" font-size="10.00" fill="#000000">nuspell::Basic_Dictionary</text>
<text text-anchor="middle" x="169" y="-122" font-family="Helvetica,sans-Serif" font-size="10.00" fill="#000000">::spell</text>
</a>
</g>
</g>
<!-- Node10&#45;&gt;Node11 -->
<g id="edge1" class="edge">
<title>Node10&#45;&gt;Node11</title>
<path fill="none" stroke="#191970" d="M51.0159,-76.6449C65.1207,-84.7006 86.0717,-96.2415 105,-105 109.371,-107.0225 113.9551,-109.029 118.5765,-110.974"/>
<polygon fill="#191970" stroke="#191970" points="117.4784,-114.3066 128.0585,-114.8659 120.1364,-107.8309 117.4784,-114.3066"/>
</g>
<!-- Node12 -->
<g id="node3" class="node">
<title>Node12</title>
<g id="a_node3"><a xlink:href="namespacenuspell.html#a9bf8e1a3f71282ed001fcf4f224ef9dd" target="_top" xlink:title="nuspell::to_narrow">
<polygon fill="#ffffff" stroke="#000000" points="121,-76.5 121,-95.5 217,-95.5 217,-76.5 121,-76.5"/>
<text text-anchor="middle" x="169" y="-83.5" font-family="Helvetica,sans-Serif" font-size="10.00" fill="#000000">nuspell::to_narrow</text>
</a>
</g>
</g>
<!-- Node10&#45;&gt;Node12 -->
<g id="edge2" class="edge">
<title>Node10&#45;&gt;Node12</title>
<path fill="none" stroke="#191970" d="M69.1371,-71.893C81.7889,-73.6802 96.4726,-75.7545 110.6229,-77.7534"/>
<polygon fill="#191970" stroke="#191970" points="110.4043,-81.2572 120.7956,-79.1905 111.3835,-74.326 110.4043,-81.2572"/>
</g>
<!-- Node13 -->
<g id="node4" class="node">
<title>Node13</title>
<g id="a_node4"><a xlink:href="namespacenuspell.html#a7aade2ec1cb243eb5b3714007d59d63c" target="_top" xlink:title="nuspell::to_wide">
<polygon fill="#ffffff" stroke="#000000" points="125.5,-38.5 125.5,-57.5 212.5,-57.5 212.5,-38.5 125.5,-38.5"/>
<text text-anchor="middle" x="169" y="-45.5" font-family="Helvetica,sans-Serif" font-size="10.00" fill="#000000">nuspell::to_wide</text>
</a>
</g>
</g>
<!-- Node10&#45;&gt;Node13 -->
<g id="edge3" class="edge">
<title>Node10&#45;&gt;Node13</title>
<path fill="none" stroke="#191970" d="M69.1371,-62.107C83.1838,-60.1227 99.7353,-57.7846 115.2806,-55.5886"/>
<polygon fill="#191970" stroke="#191970" points="115.9022,-59.0356 125.3143,-54.1712 114.923,-52.1045 115.9022,-59.0356"/>
</g>
<!-- Node14 -->
<g id="node5" class="node">
<title>Node14</title>
<g id="a_node5"><a xlink:href="namespacestd.html#abb75a3efd092cccd0bcbfdf1c503d145" target="_top" xlink:title="std::operator\&lt;\&lt;">
<polygon fill="#ffffff" stroke="#000000" points="127.5,-.5 127.5,-19.5 210.5,-19.5 210.5,-.5 127.5,-.5"/>
<text text-anchor="middle" x="169" y="-7.5" font-family="Helvetica,sans-Serif" font-size="10.00" fill="#000000">std::operator&lt;&lt;</text>
</a>
</g>
</g>
<!-- Node10&#45;&gt;Node14 -->
<g id="edge4" class="edge">
<title>Node10&#45;&gt;Node14</title>
<path fill="none" stroke="#191970" d="M50.0044,-57.4376C63.9943,-49.105 85.3358,-37.117 105,-29 110.4907,-26.7335 116.348,-24.6131 122.205,-22.671"/>
<polygon fill="#191970" stroke="#191970" points="123.5163,-25.9272 131.9969,-19.5767 121.4071,-19.2526 123.5163,-25.9272"/>
</g>
</g>
</svg>
